G04 start of page 3 for group 1 idx 3 *
G04 Title: (unknown), solder *
G04 Creator: pcb 20140316 *
G04 CreationDate: Tue 20 May 2014 05:08:15 AM GMT UTC *
G04 For: pmonta *
G04 Format: Gerber/RS-274X *
G04 PCB-Dimensions (mil): 4200.00 3400.00 *
G04 PCB-Coordinate-Origin: lower left *
%MOIN*%
%FSLAX25Y25*%
%LNBOTTOM*%
%ADD86C,0.0400*%
%ADD85C,0.1280*%
%ADD84C,0.0350*%
%ADD83C,0.0420*%
%ADD82C,0.1250*%
%ADD81C,0.0960*%
%ADD80C,0.1000*%
%ADD79C,0.1100*%
%ADD78C,0.0354*%
%ADD77C,0.0150*%
%ADD76C,0.0250*%
%ADD75R,0.1200X0.1200*%
%ADD74R,0.0295X0.0295*%
%ADD73R,0.0512X0.0512*%
%ADD72C,0.0394*%
%ADD71R,0.0197X0.0197*%
%ADD70C,0.0600*%
%ADD69C,0.1480*%
%ADD68C,0.0820*%
%ADD67C,0.0550*%
%ADD66C,0.0620*%
%ADD65C,0.1450*%
%ADD64C,0.1800*%
%ADD63C,0.1200*%
%ADD62C,0.0830*%
%ADD61C,0.1300*%
%ADD60C,0.0554*%
%ADD59C,0.0180*%
%ADD58C,0.0060*%
%ADD57C,0.0800*%
%ADD56C,0.0001*%
G54D56*G36*
X222100Y334300D02*X263200D01*
Y322600D01*
X245427D01*
X245290Y322633D01*
X245000Y322656D01*
X244710Y322633D01*
X244573Y322600D01*
X241771D01*
X241753Y322642D01*
X241601Y322891D01*
X241412Y323112D01*
X241191Y323301D01*
X240942Y323453D01*
X240673Y323565D01*
X240390Y323633D01*
X240100Y323656D01*
X239810Y323633D01*
X239527Y323565D01*
X239258Y323453D01*
X239009Y323301D01*
X238788Y323112D01*
X238599Y322891D01*
X238447Y322642D01*
X238429Y322600D01*
X234418D01*
X234301Y322791D01*
X234112Y323012D01*
X233891Y323201D01*
X233642Y323353D01*
X233373Y323465D01*
X233090Y323533D01*
X232800Y323556D01*
X232510Y323533D01*
X232227Y323465D01*
X231958Y323353D01*
X231709Y323201D01*
X231488Y323012D01*
X231299Y322791D01*
X231182Y322600D01*
X222100D01*
Y334300D01*
G37*
G36*
X274597Y267403D02*X279000Y263000D01*
Y236271D01*
X278285Y236268D01*
X278132Y236231D01*
X277987Y236171D01*
X277852Y236089D01*
X277733Y235986D01*
X277630Y235867D01*
X277548Y235732D01*
X277488Y235587D01*
X277451Y235434D01*
X277442Y235277D01*
X277451Y232366D01*
X277488Y232213D01*
X277526Y232122D01*
X277499Y232091D01*
X277347Y231842D01*
X277235Y231573D01*
X277167Y231290D01*
X277144Y231000D01*
X277167Y230710D01*
X277235Y230427D01*
X277347Y230158D01*
X277499Y229909D01*
X277688Y229688D01*
X277909Y229499D01*
X278158Y229347D01*
X278427Y229235D01*
X278710Y229167D01*
X279000Y229144D01*
Y225572D01*
X278111Y225568D01*
X277958Y225531D01*
X277813Y225471D01*
X277678Y225389D01*
X277559Y225286D01*
X277456Y225167D01*
X277374Y225032D01*
X277314Y224887D01*
X277277Y224734D01*
X277268Y224577D01*
X277277Y221666D01*
X277314Y221513D01*
X277374Y221368D01*
X277379Y221359D01*
X277247Y221142D01*
X277135Y220873D01*
X277067Y220590D01*
X277044Y220300D01*
X277067Y220010D01*
X277135Y219727D01*
X277247Y219458D01*
X277399Y219209D01*
X277588Y218988D01*
X277809Y218799D01*
X278058Y218647D01*
X278327Y218535D01*
X278610Y218467D01*
X278900Y218444D01*
X279000Y218452D01*
Y217500D01*
X274597D01*
Y237845D01*
X274600Y237844D01*
X274890Y237867D01*
X275173Y237935D01*
X275442Y238047D01*
X275691Y238199D01*
X275912Y238388D01*
X276101Y238609D01*
X276253Y238858D01*
X276365Y239127D01*
X276433Y239410D01*
X276450Y239700D01*
X276433Y239990D01*
X276365Y240273D01*
X276253Y240542D01*
X276101Y240791D01*
X275912Y241012D01*
X275691Y241201D01*
X275442Y241353D01*
X275173Y241465D01*
X274890Y241533D01*
X274600Y241556D01*
X274597Y241555D01*
Y261094D01*
X274710Y261067D01*
X275000Y261044D01*
X275290Y261067D01*
X275573Y261135D01*
X275842Y261247D01*
X276091Y261399D01*
X276312Y261588D01*
X276501Y261809D01*
X276653Y262058D01*
X276765Y262327D01*
X276833Y262610D01*
X276850Y262900D01*
X276833Y263190D01*
X276765Y263473D01*
X276653Y263742D01*
X276501Y263991D01*
X276312Y264212D01*
X276091Y264401D01*
X275842Y264553D01*
X275573Y264665D01*
X275290Y264733D01*
X275000Y264756D01*
X274710Y264733D01*
X274597Y264706D01*
Y267403D01*
G37*
G36*
X267745Y232206D02*X267833Y232130D01*
X267968Y232048D01*
X268113Y231988D01*
X268266Y231951D01*
X268423Y231942D01*
X271334Y231951D01*
X271487Y231988D01*
X271632Y232048D01*
X271767Y232130D01*
X271886Y232233D01*
X271989Y232352D01*
X272071Y232487D01*
X272131Y232632D01*
X272168Y232785D01*
X272177Y232942D01*
X272168Y235067D01*
X272131Y235220D01*
X272071Y235365D01*
X271989Y235500D01*
X271988Y235500D01*
X271989Y235500D01*
X272071Y235635D01*
X272131Y235780D01*
X272168Y235933D01*
X272177Y236090D01*
X272168Y238215D01*
X272131Y238368D01*
X272071Y238513D01*
X271989Y238648D01*
X271886Y238767D01*
X271767Y238870D01*
X271632Y238952D01*
X271487Y239012D01*
X271334Y239049D01*
X271177Y239058D01*
X268266Y239049D01*
X268113Y239012D01*
X267968Y238952D01*
X267833Y238870D01*
X267745Y238794D01*
X267573Y238865D01*
X267290Y238933D01*
X267000Y238956D01*
X266710Y238933D01*
X266500Y238883D01*
Y263000D01*
X255455Y274045D01*
X255312Y274212D01*
X255145Y274355D01*
X251500Y278000D01*
Y334000D01*
X264000D01*
Y310007D01*
X263827Y309965D01*
X263558Y309853D01*
X263309Y309701D01*
X263088Y309512D01*
X262899Y309291D01*
X262747Y309042D01*
X262635Y308773D01*
X262567Y308490D01*
X262544Y308200D01*
X262567Y307910D01*
X262635Y307627D01*
X262747Y307358D01*
X262899Y307109D01*
X263088Y306888D01*
X263309Y306699D01*
X263558Y306547D01*
X263827Y306435D01*
X264000Y306393D01*
Y278000D01*
X274597Y267403D01*
Y264706D01*
X274427Y264665D01*
X274158Y264553D01*
X273909Y264401D01*
X273688Y264212D01*
X273499Y263991D01*
X273347Y263742D01*
X273235Y263473D01*
X273167Y263190D01*
X273144Y262900D01*
X273167Y262610D01*
X273235Y262327D01*
X273347Y262058D01*
X273499Y261809D01*
X273688Y261588D01*
X273909Y261399D01*
X274158Y261247D01*
X274427Y261135D01*
X274597Y261094D01*
Y241555D01*
X274310Y241533D01*
X274027Y241465D01*
X273758Y241353D01*
X273509Y241201D01*
X273288Y241012D01*
X273099Y240791D01*
X272947Y240542D01*
X272835Y240273D01*
X272767Y239990D01*
X272744Y239700D01*
X272767Y239410D01*
X272835Y239127D01*
X272947Y238858D01*
X273099Y238609D01*
X273288Y238388D01*
X273509Y238199D01*
X273758Y238047D01*
X274027Y237935D01*
X274310Y237867D01*
X274597Y237845D01*
Y217500D01*
X266500D01*
Y232117D01*
X266710Y232067D01*
X267000Y232044D01*
X267290Y232067D01*
X267573Y232135D01*
X267745Y232206D01*
G37*
G36*
X237197Y182200D02*X242500D01*
Y181718D01*
X242442Y181753D01*
X242173Y181865D01*
X241890Y181933D01*
X241600Y181956D01*
X241310Y181933D01*
X241027Y181865D01*
X240758Y181753D01*
X240509Y181601D01*
X240288Y181412D01*
X240099Y181191D01*
X239947Y180942D01*
X239835Y180673D01*
X239767Y180390D01*
X239744Y180100D01*
X239767Y179810D01*
X239835Y179527D01*
X239934Y179288D01*
X239900Y179232D01*
X239840Y179087D01*
X239803Y178934D01*
X239794Y178777D01*
X239803Y175866D01*
X239840Y175713D01*
X239900Y175568D01*
X239982Y175433D01*
X240085Y175314D01*
X240204Y175211D01*
X240339Y175129D01*
X240484Y175069D01*
X240637Y175032D01*
X240794Y175023D01*
X242500Y175030D01*
Y174571D01*
X242458Y174553D01*
X242209Y174401D01*
X241988Y174212D01*
X241799Y173991D01*
X241647Y173742D01*
X241535Y173473D01*
X241467Y173190D01*
X241444Y172900D01*
X241467Y172610D01*
X241535Y172327D01*
X241647Y172058D01*
X241799Y171809D01*
X241988Y171588D01*
X242209Y171399D01*
X242458Y171247D01*
X242500Y171229D01*
Y137400D01*
X237197D01*
Y164845D01*
X237200Y164844D01*
X237490Y164867D01*
X237773Y164935D01*
X238042Y165047D01*
X238291Y165199D01*
X238512Y165388D01*
X238701Y165609D01*
X238853Y165858D01*
X238965Y166127D01*
X239033Y166410D01*
X239050Y166700D01*
X239033Y166990D01*
X238965Y167273D01*
X238853Y167542D01*
X238701Y167791D01*
X238512Y168012D01*
X238291Y168201D01*
X238042Y168353D01*
X237773Y168465D01*
X237490Y168533D01*
X237200Y168556D01*
X237197Y168555D01*
Y182200D01*
G37*
G36*
X229478Y167178D02*X229533Y167130D01*
X229668Y167048D01*
X229813Y166988D01*
X229966Y166951D01*
X230123Y166942D01*
X233034Y166951D01*
X233187Y166988D01*
X233332Y167048D01*
X233467Y167130D01*
X233586Y167233D01*
X233689Y167352D01*
X233771Y167487D01*
X233831Y167632D01*
X233868Y167785D01*
X233877Y167942D01*
X233868Y170067D01*
X233831Y170220D01*
X233771Y170365D01*
X233689Y170500D01*
X233688Y170500D01*
X233689Y170500D01*
X233771Y170635D01*
X233831Y170780D01*
X233868Y170933D01*
X233877Y171090D01*
X233868Y173215D01*
X233831Y173368D01*
X233771Y173513D01*
X233689Y173648D01*
X233586Y173767D01*
X233467Y173870D01*
X233332Y173952D01*
X233187Y174012D01*
X233034Y174049D01*
X232877Y174058D01*
X229966Y174049D01*
X229813Y174012D01*
X229668Y173952D01*
X229562Y173887D01*
X229373Y173965D01*
X229090Y174033D01*
X228800Y174056D01*
X228510Y174033D01*
X228400Y174007D01*
Y182200D01*
X237197D01*
Y168555D01*
X236910Y168533D01*
X236627Y168465D01*
X236358Y168353D01*
X236109Y168201D01*
X235888Y168012D01*
X235699Y167791D01*
X235547Y167542D01*
X235435Y167273D01*
X235367Y166990D01*
X235344Y166700D01*
X235367Y166410D01*
X235435Y166127D01*
X235547Y165858D01*
X235699Y165609D01*
X235888Y165388D01*
X236109Y165199D01*
X236358Y165047D01*
X236627Y164935D01*
X236910Y164867D01*
X237197Y164845D01*
Y137400D01*
X228400D01*
Y167093D01*
X228510Y167067D01*
X228800Y167044D01*
X229090Y167067D01*
X229373Y167135D01*
X229478Y167178D01*
G37*
G36*
X230866Y91896D02*X230862Y91887D01*
X230825Y91734D01*
X230816Y91577D01*
X230825Y88666D01*
X230862Y88513D01*
X230922Y88368D01*
X231004Y88233D01*
X231107Y88114D01*
X231190Y88043D01*
X231122Y87932D01*
X231062Y87787D01*
X231025Y87634D01*
X231016Y87477D01*
X231025Y84566D01*
X231062Y84413D01*
X231122Y84268D01*
X231204Y84133D01*
X231246Y84084D01*
X231221Y84042D01*
X231109Y83773D01*
X231041Y83490D01*
X231018Y83200D01*
X231041Y82910D01*
X231109Y82627D01*
X231221Y82358D01*
X231373Y82109D01*
X231562Y81888D01*
X231783Y81699D01*
X232032Y81547D01*
X232301Y81435D01*
X232584Y81367D01*
X232874Y81344D01*
X233164Y81367D01*
X233447Y81435D01*
X233716Y81547D01*
X233965Y81699D01*
X234186Y81888D01*
X234375Y82109D01*
X234527Y82358D01*
X234639Y82627D01*
X234707Y82910D01*
X234724Y83200D01*
X234707Y83490D01*
X234639Y83773D01*
X234584Y83905D01*
X234709Y83829D01*
X234854Y83769D01*
X235007Y83732D01*
X235164Y83723D01*
X237289Y83732D01*
X237442Y83769D01*
X237587Y83829D01*
X237722Y83911D01*
X237841Y84014D01*
X237944Y84133D01*
X237981Y84195D01*
X238127Y84135D01*
X238410Y84067D01*
X238700Y84044D01*
X238990Y84067D01*
X239273Y84135D01*
X239542Y84247D01*
X239773Y84388D01*
X239822Y84268D01*
X239904Y84133D01*
X240007Y84014D01*
X240126Y83911D01*
X240261Y83829D01*
X240406Y83769D01*
X240559Y83732D01*
X240716Y83723D01*
X242500Y83731D01*
Y61700D01*
X228400D01*
Y73688D01*
X228542Y73747D01*
X228791Y73899D01*
X229012Y74088D01*
X229201Y74309D01*
X229353Y74558D01*
X229465Y74827D01*
X229533Y75110D01*
X229550Y75400D01*
X229533Y75690D01*
X229465Y75973D01*
X229353Y76242D01*
X229201Y76491D01*
X229012Y76712D01*
X228791Y76901D01*
X228542Y77053D01*
X228400Y77112D01*
Y137900D01*
X242500D01*
Y119130D01*
X242401Y119291D01*
X242212Y119512D01*
X241991Y119701D01*
X241742Y119853D01*
X241473Y119965D01*
X241190Y120033D01*
X240900Y120056D01*
X240610Y120033D01*
X240327Y119965D01*
X240058Y119853D01*
X239809Y119701D01*
X239588Y119512D01*
X239399Y119291D01*
X239247Y119042D01*
X239135Y118773D01*
X239067Y118490D01*
X239044Y118200D01*
X239067Y117910D01*
X239135Y117627D01*
X239210Y117445D01*
X237941Y117443D01*
X237788Y117406D01*
X237643Y117346D01*
X237508Y117264D01*
X237389Y117161D01*
X237286Y117042D01*
X237204Y116907D01*
X237144Y116762D01*
X237107Y116609D01*
X237098Y116452D01*
X237107Y110391D01*
X237144Y110238D01*
X237204Y110093D01*
X237286Y109958D01*
X237389Y109839D01*
X237508Y109736D01*
X237643Y109654D01*
X237788Y109594D01*
X237941Y109557D01*
X238098Y109548D01*
X242500Y109556D01*
Y107277D01*
X240459Y107268D01*
X240306Y107231D01*
X240161Y107171D01*
X240151Y107165D01*
X239991Y107301D01*
X239742Y107453D01*
X239473Y107565D01*
X239190Y107633D01*
X238900Y107656D01*
X238610Y107633D01*
X238327Y107565D01*
X238058Y107453D01*
X237809Y107301D01*
X237771Y107269D01*
X237748Y107289D01*
X237613Y107371D01*
X237468Y107431D01*
X237315Y107468D01*
X237158Y107477D01*
X235033Y107468D01*
X234880Y107431D01*
X234735Y107371D01*
X234600Y107289D01*
X234600Y107288D01*
X234600Y107289D01*
X234465Y107371D01*
X234320Y107431D01*
X234167Y107468D01*
X234010Y107477D01*
X231885Y107468D01*
X231732Y107431D01*
X231587Y107371D01*
X231452Y107289D01*
X231333Y107186D01*
X231230Y107067D01*
X231148Y106932D01*
X231088Y106787D01*
X231051Y106634D01*
X231042Y106477D01*
X231051Y103566D01*
X231088Y103413D01*
X231106Y103371D01*
X231007Y103286D01*
X230904Y103167D01*
X230822Y103032D01*
X230762Y102887D01*
X230725Y102734D01*
X230716Y102577D01*
X230725Y99666D01*
X230762Y99513D01*
X230767Y99500D01*
X230762Y99487D01*
X230725Y99334D01*
X230716Y99177D01*
X230725Y96266D01*
X230762Y96113D01*
X230822Y95968D01*
X230904Y95833D01*
X230933Y95800D01*
X230904Y95767D01*
X230822Y95632D01*
X230762Y95487D01*
X230725Y95334D01*
X230716Y95177D01*
X230725Y92266D01*
X230762Y92113D01*
X230822Y91968D01*
X230866Y91896D01*
G37*
G54D57*X362756Y280000D02*X340600D01*
X349000D02*X373000D01*
X340600D02*X296700Y323900D01*
G54D58*X302000Y308600D02*X297326D01*
X297200Y308474D01*
X290600Y302900D02*X298900Y294600D01*
X297550Y295950D02*X302400Y291100D01*
Y289600D01*
X279100Y305800D02*X283700D01*
X285900Y302900D02*X281100D01*
X286000D02*X290600D01*
G54D57*Y329600D02*X281500D01*
X282000D02*X291000D01*
X305100Y315500D01*
G54D58*X278500Y305200D02*X279100Y305800D01*
X275100Y308348D02*X269948D01*
X275400Y305200D02*X278500D01*
X264448Y308248D02*X264400Y308200D01*
X281800Y302900D02*X267700D01*
X271052Y308348D02*X264552D01*
X288100Y305800D02*X292300D01*
X292700Y305400D01*
X296800D01*
X267600Y302800D02*Y292600D01*
X267700Y302900D02*X267600Y302800D01*
X264552Y308348D02*X264550Y308350D01*
X276000Y300100D02*Y287700D01*
X267600Y289400D02*X267500Y289300D01*
X267600D02*Y285000D01*
Y294800D02*Y289400D01*
X271700Y280900D02*X267600Y285000D01*
X287400Y284500D02*X288900Y283000D01*
Y280500D01*
X289100Y280300D01*
X279400Y280900D02*X279500Y280800D01*
X282200Y284500D02*Y281000D01*
X282700Y280500D01*
X276000Y287700D02*X279200Y284500D01*
X282700D01*
X281900D02*X287400D01*
X279400Y280900D02*X271700D01*
G54D59*X223260Y173800D02*Y176940D01*
X222100Y178100D01*
X223652Y187052D02*X223600Y187000D01*
X231500Y172074D02*X228926D01*
X228800Y172200D01*
X231500Y172426D02*X228926D01*
X228800Y172300D01*
Y168900D02*X231474D01*
X231500Y168926D01*
X222174Y215800D02*X215000D01*
X213900Y216900D01*
Y218900D01*
X213809Y221800D02*Y218991D01*
X213900Y218900D01*
X216957Y221800D02*Y218943D01*
X217000Y218900D01*
X213926Y227900D02*Y225026D01*
X213900Y225000D01*
X217074Y227900D02*Y225074D01*
X217000Y225000D01*
X213769Y210900D02*Y207969D01*
X213700Y207900D01*
X223652Y189800D02*Y187052D01*
X226800Y189800D02*Y187000D01*
G54D58*X222600Y194700D02*X215200Y187300D01*
X206000D01*
X203500Y189800D01*
X204150Y189150D02*X202600Y190700D01*
G54D59*X216757Y196100D02*Y193943D01*
X217300Y193400D01*
X213600Y193300D02*Y196091D01*
X213609Y196100D01*
G54D58*X203700Y167400D02*X206600Y170300D01*
Y178700D01*
X209400Y181500D01*
G54D59*X216174Y173800D02*X212100D01*
G54D58*X209400Y181500D02*X214500D01*
X216200Y179800D01*
X218200D01*
X222000Y183600D01*
G54D59*X223652Y202000D02*Y199352D01*
X223500Y199200D01*
G54D58*X232100Y194700D02*X222600D01*
G54D59*X226800Y202000D02*Y199200D01*
X229260Y215800D02*Y212860D01*
X227600Y211200D01*
G54D58*X234400Y222800D02*Y197000D01*
X232100Y194700D01*
G54D59*X279052Y185048D02*X278900Y185200D01*
X278852Y209500D02*Y212148D01*
X278600Y212400D01*
X278900Y220300D02*Y222848D01*
X279252Y223200D01*
G54D58*X285700Y216500D02*X255900D01*
X268400Y214300D02*X255200D01*
X281400Y203200D02*X278900Y205700D01*
X273000D01*
X270300Y208400D01*
Y212400D01*
X268400Y214300D01*
G54D59*X282000Y209500D02*X284600D01*
G54D58*X222000Y183600D02*X271700D01*
X271200D02*X271800D01*
X276200Y179200D01*
X327400D01*
X328200Y180000D01*
G54D59*X216917Y210900D02*Y208283D01*
X217300Y207900D01*
X218700Y233800D02*X216026D01*
X218700Y237100D02*X215926D01*
X215900Y237074D01*
X216026Y233800D02*X215900Y233926D01*
X222100Y233900D02*X224726D01*
X224800Y233826D01*
G54D58*X228500Y233700D02*Y228700D01*
G54D59*X222100Y237100D02*X224774D01*
X224800Y237074D01*
X234300Y233926D02*X237174D01*
X237200Y233900D01*
G54D58*X228500Y228700D02*X234400Y222800D01*
G54D59*X238526Y228000D02*Y225274D01*
X237200Y237100D02*X234326D01*
X234300Y237074D01*
X238526Y225274D02*X238600Y225200D01*
X241674Y228000D02*Y225126D01*
X241700Y225100D01*
X249500Y227900D02*X252683D01*
X254000Y226583D01*
X260700Y233926D02*X263374D01*
X254100Y233769D02*X254000Y233669D01*
X263374Y233926D02*X263400Y233900D01*
Y237100D02*X260726D01*
X260700Y237074D01*
G54D58*X255900Y216500D02*X247400Y225000D01*
Y229700D01*
X249000Y231300D01*
X245000Y224500D02*Y229500D01*
X247500Y232000D01*
X255200Y214300D02*X245000Y224500D01*
X248800Y231100D02*X249100Y231400D01*
G54D59*X254100Y238200D02*Y233769D01*
G54D58*X249100Y231400D02*Y253700D01*
X247500Y232000D02*Y251600D01*
G54D59*X269774Y233900D02*X269800Y233926D01*
X269774Y240600D02*X269800Y240574D01*
X269774Y237100D02*X269800Y237074D01*
G54D58*X271900Y259400D02*Y259500D01*
X270900Y260500D01*
X263800Y257600D02*X256400D01*
X263100Y253000D02*X256000D01*
X263000Y249600D02*X255600D01*
X261200Y260300D02*X259800D01*
G54D59*X267000Y237100D02*X269774D01*
X267000Y233900D02*X269774D01*
X279000Y231000D02*Y233474D01*
X279426Y233900D01*
X282574D02*Y231126D01*
X282700Y231000D01*
G54D58*X287200Y218000D02*X285700Y216500D01*
G54D59*X282400Y223200D02*Y220600D01*
X282700Y220300D01*
G54D58*X287200Y218000D02*Y252800D01*
X296900Y262500D01*
X289800Y251100D02*X296900Y258200D01*
X289800Y200700D02*Y251100D01*
X184100Y211700D02*X183800Y212000D01*
X196900Y213500D02*Y218500D01*
X186900Y228500D01*
X163500Y209000D02*Y216700D01*
X161900Y218300D01*
X159300Y206600D02*Y210300D01*
X159400Y210400D01*
X186900Y228500D02*X163300D01*
X155200Y220400D01*
Y210400D01*
X155300Y210300D01*
X191900Y210900D02*X189700Y213100D01*
X180300Y207900D02*X177400Y205000D01*
X160900D01*
X159300Y206600D01*
X171000Y255800D02*X196100D01*
X197800Y254100D01*
X202500Y249400D02*X197100Y254800D01*
X156900Y258500D02*X213300D01*
X157800D02*X156100D01*
X202600Y232800D02*X214900Y245100D01*
Y246600D01*
X212100Y249400D01*
X202500D01*
X206800Y244100D02*X171200D01*
X208600Y247000D02*X174000D01*
X192000Y325300D02*X145600D01*
X191100Y322900D02*X148100D01*
X189800Y319200D02*X147300D01*
X148400D02*X145200D01*
X149100Y322900D02*X145400D01*
X189300Y315900D02*X146500D01*
X149400Y313400D02*X189400D01*
X148200Y315900D02*X145900D01*
X167100Y310200D02*X161300D01*
X149700Y313400D02*X148800D01*
X142800Y307400D01*
X145900Y315900D02*X140500Y310500D01*
X145200Y319200D02*X140100Y314100D01*
X145400Y322900D02*X139800Y317300D01*
X161300Y310200D02*X155900Y304800D01*
X156800Y305700D02*X152900Y301800D01*
X188900Y310200D02*X163800D01*
X259800Y260300D02*X196700Y323400D01*
X171000Y276800D02*X175100Y280900D01*
X180300D01*
X179800Y273700D02*X180000Y273900D01*
X197350Y322750D02*X194800Y325300D01*
X190300D01*
X256400Y257600D02*X191100Y322900D01*
X189800Y319200D02*X256000Y253000D01*
X255600Y249600D02*X189300Y315900D01*
X189400Y313400D02*X249100Y253700D01*
X213300Y258500D02*X220400Y251400D01*
X247500Y251600D02*X188900Y310200D01*
X143700Y255800D02*X172100D01*
X169200Y251800D02*X140700D01*
X171200Y244100D02*X169100Y246200D01*
X174000Y247000D02*X169200Y251800D01*
X169100Y246200D02*X138800D01*
X146300Y262400D02*X145500D01*
X141900Y266000D01*
Y271900D01*
X149100Y262200D02*Y271300D01*
X145000Y259000D02*X145900D01*
X149100Y262200D01*
X141900Y271900D02*X146800Y276800D01*
X171000D01*
X149100Y271300D02*X151500Y273700D01*
X179800D01*
X156700Y258500D02*X155300D01*
X153200Y260600D01*
Y268000D01*
X153300Y268100D01*
X168800Y147300D02*X191200Y169700D01*
X169200Y154600D02*X172600D01*
X192300Y174300D01*
X181200Y167100D02*X165000D01*
X184100Y173500D02*Y211700D01*
X192600Y167000D02*Y167400D01*
X191200Y169700D02*X196700D01*
X197500Y170500D01*
X192600Y167400D02*X203700D01*
X192100Y178000D02*X181200Y167100D01*
X197500Y170500D02*Y175600D01*
X197400Y175700D01*
X200000Y178000D02*X192100D01*
X192300Y174300D02*X193800D01*
X193900Y174200D01*
X199400Y210900D02*X191900D01*
X189850Y212950D02*X185300Y217500D01*
X182800D01*
X181000Y215700D01*
Y208600D01*
X180000Y207600D01*
X202600Y190700D02*Y232800D01*
X147600Y152100D02*Y122700D01*
X150200Y153000D02*Y120400D01*
X141000Y147700D02*Y128700D01*
X140200Y148500D02*X141000Y147700D01*
X140200Y148700D02*Y148500D01*
X143500Y128100D02*Y148700D01*
X147600Y122700D02*X143200Y118300D01*
Y93400D01*
X146800Y89800D01*
X149200Y119400D02*Y86400D01*
X150200Y120400D02*X149200Y119400D01*
X140900Y125500D02*X143500Y128100D01*
X129600Y127500D02*Y95900D01*
X132600Y121000D02*Y94800D01*
X137900Y125600D02*Y92200D01*
X137100Y90200D02*X136850Y90450D01*
X137900Y130700D02*X135300Y128100D01*
Y123700D01*
X132600Y121000D01*
X141000Y128700D02*X137900Y125600D01*
X127400Y115100D02*X123000Y110700D01*
Y103700D01*
X127400Y165100D02*Y114900D01*
X130800Y149400D02*Y128700D01*
X129600Y127500D01*
X137900Y147300D02*Y130700D01*
X136500Y148700D02*X137900Y147300D01*
X136500Y149000D02*Y148700D01*
X128100Y165800D02*X127400Y165100D01*
X130900Y154400D02*X129500Y153000D01*
Y150700D01*
X130800Y149400D01*
X143200Y160000D02*X150200Y153000D01*
X145200Y154500D02*X147600Y152100D01*
X142300Y154500D02*X145200D01*
X137900Y158900D02*X142300Y154500D01*
X143200Y182900D02*Y160000D01*
X137900Y181200D02*Y158900D01*
X138200Y181500D02*X137900Y181200D01*
X141500Y184600D02*X143200Y182900D01*
G54D59*X116500Y183000D02*X113000Y179500D01*
G54D58*X158700Y147300D02*X168800D01*
X170300Y154600D02*X161900D01*
X161800Y154700D01*
X165000Y167100D02*X154400Y156500D01*
Y149800D01*
X154500Y149700D01*
X146750Y89850D02*Y82150D01*
X162926Y80300D02*Y80126D01*
G54D59*X166074Y80300D02*X168500D01*
X168800Y80600D01*
G54D58*X162926Y80126D02*X156400Y73600D01*
X167600Y50900D02*X169926D01*
X170026Y50800D01*
X167300Y45200D02*X167626D01*
X170000Y47600D01*
G54D59*X173174Y50800D02*X175600D01*
X173200Y47600D02*X175700D01*
X175800Y47500D01*
G54D58*X167600Y55800D02*Y58252D01*
X167000Y58852D01*
Y62000D02*X169800D01*
X170900Y63100D01*
X170600Y59900D02*X170900D01*
X173200Y57600D01*
X170800Y56400D02*X172200D01*
X172700Y55900D01*
X101300Y160700D02*X101900Y160100D01*
X101300Y179000D02*Y160700D01*
X102300Y180000D02*X101300Y179000D01*
X102300Y197000D02*Y180000D01*
X111600Y206300D02*X102300Y197000D01*
G54D59*X116500Y187500D02*Y183000D01*
Y192559D02*X119159D01*
X120600Y194000D01*
G54D58*X91300Y146700D02*X87600Y143000D01*
X91300Y147600D02*Y146700D01*
Y177000D02*Y147400D01*
X93100Y178800D02*X91300Y177000D01*
X93100Y195700D02*Y178800D01*
X96700Y199300D02*X93100Y195700D01*
X96700Y205000D02*Y199300D01*
X92900Y208800D02*X96700Y205000D01*
X92900Y220200D02*Y208800D01*
X129500Y189700D02*Y186900D01*
X127100Y197000D02*X127600Y196500D01*
X138250Y185550D02*X136800Y187000D01*
Y192100D01*
X137500Y192800D01*
X137400Y192700D02*X137700Y193000D01*
X130900Y185500D02*Y154400D01*
X128100Y174800D02*Y165800D01*
X127600Y175300D02*X128100Y174800D01*
X127600Y196500D02*Y175300D01*
X129500Y201400D02*Y188700D01*
X138250Y181550D02*Y185550D01*
X141500Y210300D02*Y184600D01*
X137700Y193000D02*Y203700D01*
X139100Y188200D02*Y190500D01*
X139600Y191000D01*
Y207900D02*X138900Y208600D01*
X139600Y191000D02*Y207900D01*
X140200Y211600D02*X141500Y210300D01*
X140200Y211700D02*Y211600D01*
X136500Y212000D02*Y211300D01*
X137700Y203700D02*X136700Y204700D01*
Y211800D01*
X136500Y212000D01*
X129100Y213900D02*Y201800D01*
X129500Y201400D01*
X129600Y81200D02*X133950Y76850D01*
X144000Y77300D02*X137100Y84200D01*
X137400Y79400D02*X137600D01*
X132600Y78200D02*X134000Y76800D01*
G54D59*X121100Y82474D02*X118174D01*
X118000Y82300D01*
X121100Y79326D02*Y72200D01*
X121200Y72100D01*
G54D58*X123000Y103700D02*X127100Y99600D01*
Y94800D01*
Y95000D02*Y94600D01*
X127400Y94300D01*
X132600Y94700D02*X137000Y90300D01*
X137900Y92200D02*X138400Y91700D01*
Y86100D01*
X127400Y94300D02*Y82800D01*
X137100Y90200D02*Y84200D01*
X146500Y78000D02*X138400Y86100D01*
X150600Y78300D02*Y77500D01*
X146750Y82150D02*X150600Y78300D01*
X149200Y86500D02*Y83400D01*
X153200Y74300D02*X151900D01*
X134000Y73500D02*X134100Y73600D01*
X146600Y73400D02*Y73500D01*
X134100Y73600D02*X133100D01*
X154300Y75400D02*X153200Y74300D01*
X154300Y78300D02*Y75400D01*
X149200Y83400D02*X154300Y78300D01*
X150600Y77500D02*X151200Y76900D01*
X151900Y74300D02*X151200Y73600D01*
X137600Y79400D02*X141000Y76000D01*
X146500Y76800D02*Y78000D01*
X146600Y73500D02*X144000Y76100D01*
Y77300D01*
G54D59*X119800Y43100D02*Y31800D01*
X113900Y34200D02*Y25900D01*
X115200Y35500D02*X113900Y34200D01*
X115200Y44100D02*Y35500D01*
X128474Y15852D02*Y13374D01*
X128300Y13200D01*
X132926Y15500D02*Y12726D01*
X132900Y12700D01*
G54D58*X165800Y5800D02*X155500D01*
X149400Y11900D01*
G54D59*X128474Y19000D02*Y27226D01*
X132926Y18648D02*Y26274D01*
X132000Y27200D01*
X128474Y27226D02*X128400Y27300D01*
G54D58*X129500Y186900D02*X129900Y186500D01*
X129800Y186600D02*X130900Y185500D01*
X129600Y264700D02*Y249000D01*
X130000Y248600D02*Y217100D01*
X129600Y249000D02*X130000Y248600D01*
X127700Y229200D02*X127100Y228600D01*
X127700Y237100D02*Y229200D01*
X127400Y237400D02*X127700Y237100D01*
X127100Y228600D02*Y197000D01*
X130000Y217100D02*X129100Y216200D01*
Y213500D01*
X128200Y313200D02*Y322000D01*
X129500Y323300D01*
X103800Y258100D02*X97000Y251300D01*
X103800Y260900D02*Y258100D01*
X111600Y268700D02*X103800Y260900D01*
X111600Y269600D02*Y268700D01*
X106600Y303600D02*X90900D01*
X96800Y224100D02*X92900Y220200D01*
X96800Y251100D02*Y224100D01*
X97250Y251550D02*X96800Y251100D01*
X70000Y215500D02*Y235300D01*
X76100Y241400D01*
Y260400D01*
X76000Y260500D01*
X127400Y268300D02*Y237400D01*
X128150Y269050D02*X127400Y268300D01*
X132800Y267900D02*X129500Y264600D01*
X134100Y275000D02*X128100Y269000D01*
X135000Y267900D02*X132800D01*
X140200Y273100D02*X135000Y267900D01*
X140200Y274700D02*Y273100D01*
X136500Y275000D02*X134100D01*
X134300Y253500D02*Y253900D01*
X136200Y255800D01*
X135700Y255300D02*X137100Y256700D01*
X142800D01*
X143700Y255800D01*
X138800Y246200D02*X137600Y247400D01*
Y253800D01*
X137800Y254000D01*
X140700Y251800D02*X140600Y251700D01*
G54D59*X116500Y252000D02*Y246000D01*
X113000Y242500D01*
X116500Y257059D02*X113359D01*
X112000Y255700D01*
G54D58*X152900Y301800D02*X108400D01*
X106600Y303600D01*
X142800Y307400D02*X96100D01*
X140500Y310500D02*X130900D01*
X128200Y313200D01*
X140100Y314100D02*X136800D01*
X136700Y314000D01*
X129500Y323300D02*X138300D01*
X139600Y322000D01*
X139800Y317300D02*X135400D01*
G54D59*X116500Y310000D02*Y315000D01*
G54D58*X94750Y319050D02*Y308750D01*
X95400Y308100D01*
G54D59*X116500Y323500D02*X113000D01*
X116500Y320059D02*X112159D01*
X111200Y319100D01*
G54D58*X112900Y325300D02*X112000Y326200D01*
G54D59*X113000Y323500D02*X112500Y323000D01*
G54D58*X146600Y325300D02*X112900D01*
X112000Y326200D02*X94300D01*
X93000Y324900D01*
X70000Y278700D02*Y295700D01*
X75700Y301400D01*
X90900Y303600D02*X87700Y306800D01*
X96100Y307400D02*X94900Y308600D01*
X87700Y306800D02*Y317100D01*
X92700Y322100D01*
X94900Y319200D02*X95100Y319400D01*
X93000Y324900D02*X80000D01*
X79400Y324300D01*
X79500Y324400D02*X77700Y322600D01*
Y303400D01*
X75600Y301300D01*
X87600Y143000D02*Y84000D01*
X96400Y148700D02*Y89000D01*
X108600Y139100D02*Y116300D01*
X111700Y142200D02*X108600Y139100D01*
X111700Y143300D02*Y142200D01*
X101900Y154200D02*X96400Y148700D01*
X101900Y160100D02*Y154200D01*
X108600Y116300D02*X112500Y112400D01*
X74102Y133908D02*Y142098D01*
X70200Y146000D01*
Y152500D01*
X70100Y152600D01*
X112500Y112400D02*Y78200D01*
X96400Y89100D02*Y84000D01*
X87600Y86400D02*Y72900D01*
X86100Y71400D01*
X96400Y85400D02*Y79900D01*
X91300Y74800D01*
Y64500D01*
X101600Y73600D02*X93800Y65800D01*
X91300Y64500D02*X86100Y59300D01*
X93800Y65800D02*Y50300D01*
X85800Y42300D01*
X112500Y81600D02*Y77500D01*
X108600Y73600D01*
X101600D01*
X129600Y95900D02*Y90700D01*
X129200Y90300D01*
Y81600D01*
X127400Y80900D02*Y84100D01*
X129200Y81600D02*X129700Y81100D01*
X130900Y77400D02*X127400Y80900D01*
X130900Y77400D02*Y76800D01*
X134100Y73600D01*
G54D59*X255100Y172200D02*X252400D01*
X252300Y172100D01*
X258000Y172200D02*X260548D01*
X260774Y171974D01*
X270857Y173200D02*X266800D01*
G54D58*X271200Y163700D02*X269000Y165900D01*
Y166400D01*
G54D59*X279052Y182400D02*Y185048D01*
G54D58*X272100Y152500D02*X275800Y156200D01*
G54D59*X277943Y173200D02*Y169357D01*
X279100Y168200D01*
X282100Y185300D02*Y182200D01*
X255100Y172300D02*X252452D01*
X255100Y169000D02*X252348D01*
X252300Y168952D01*
X252452Y172300D02*X252300Y172452D01*
X258000Y172300D02*X260748D01*
X260774Y172326D01*
X258000Y169000D02*X260600D01*
X260774Y168826D01*
G54D58*X331600Y162800D02*X330700Y163700D01*
X271200D01*
X275800Y156200D02*X324500D01*
X283200Y151900D02*X324700D01*
X321900Y156200D02*X343200D01*
X320000Y151900D02*X340400D01*
X295700Y174700D02*X349400D01*
X354300Y169800D01*
X337700Y177400D02*X337600Y177300D01*
X343400Y178800D02*X341800Y177200D01*
X297200Y171000D02*X344000D01*
X360000Y155000D01*
Y175000D02*Y176800D01*
X355300Y181500D01*
G54D59*X267300Y191700D02*X267100Y191900D01*
X251300Y191431D02*X252269Y192400D01*
X251300Y187700D02*Y191431D01*
X244926Y177400D02*Y180026D01*
X245000Y180100D01*
X241778Y177400D02*Y179922D01*
X241600Y180100D01*
X246300Y187700D02*Y191283D01*
X245183Y192400D01*
X271383Y191700D02*X267300D01*
X273000Y199700D02*Y202500D01*
X273100Y202600D01*
X269852Y199700D02*Y202248D01*
X269500Y202600D01*
X274300Y195900D02*X274400Y195800D01*
X276852D01*
G54D58*X289800Y200700D02*X287200Y198100D01*
X283400D01*
X281400Y200100D01*
Y203200D01*
G54D59*X280000Y195800D02*X282300D01*
X284000Y194100D01*
X278569Y190200D02*X283600D01*
X283800Y190000D01*
G54D58*X389400Y201800D02*Y239600D01*
X389600Y239800D01*
Y246000D01*
X388400Y247200D01*
X387000Y193700D02*Y245000D01*
X384200Y188400D02*Y248900D01*
X362800Y248300D02*X364800Y246300D01*
Y200200D01*
X365100Y188600D02*X364000Y189700D01*
X362950D01*
X362900Y189750D01*
X388400Y247200D02*Y248400D01*
X387700Y249100D01*
X384200Y248900D02*X382100Y251000D01*
X357900Y253500D02*Y245300D01*
X353900Y241300D01*
X362800Y255900D02*Y248300D01*
X353900Y241300D02*Y201100D01*
X360000Y195000D01*
X354300Y169800D02*X363200D01*
X363250Y189750D02*X359050D01*
X352000Y196800D02*Y220300D01*
X350300Y195500D02*Y218200D01*
X351900Y220400D02*X349100Y223200D01*
X347400D01*
X347300Y223300D01*
X352000Y220300D02*X351600Y220700D01*
X350300Y218200D02*X349000Y219500D01*
X335800Y215900D02*Y191400D01*
X340400Y215900D02*Y191500D01*
X347900Y135200D02*Y139500D01*
X347000Y131700D02*X348100Y132800D01*
X347900Y139500D02*X348000Y139600D01*
G54D59*X354800Y145500D02*Y142484D01*
X354713Y142397D01*
X358000Y145400D02*Y142536D01*
X357861Y142397D01*
G54D58*X387400Y185900D02*X386700D01*
X384200Y188400D01*
X364800Y200200D02*X370000Y195000D01*
X365100Y187900D02*Y179900D01*
X370000Y175000D01*
X363200Y169800D02*X365100Y167900D01*
Y159900D01*
Y185700D02*Y188600D01*
Y159900D02*X370000Y155000D01*
G54D59*X383000Y157900D02*Y155078D01*
X383334Y154743D01*
X386500Y157800D02*Y154761D01*
X386482Y154743D01*
G54D58*X366200Y136600D02*X376700Y147100D01*
X368700Y133000D02*X379500Y143800D01*
X366500Y130800D02*X370100Y134400D01*
X359050Y189750D02*X352000Y196800D01*
X355300Y181500D02*Y190500D01*
X350300Y195500D01*
X335800Y191400D02*X337700Y189500D01*
Y177400D01*
X340400Y191500D02*X343400Y188500D01*
Y178800D01*
X317900Y51000D02*Y67900D01*
X318900Y68900D01*
X322000Y51700D02*Y64500D01*
X345600Y68300D02*Y32600D01*
X345700Y32500D01*
X360400Y30600D02*Y43700D01*
X356800Y47300D01*
X341100Y41800D02*X344000Y44700D01*
X322000Y64500D02*X321200Y65300D01*
X325000Y110300D02*X321100D01*
X328600Y11300D02*Y118300D01*
X337300Y10100D02*Y124600D01*
X341100Y24200D02*Y41800D01*
X344000Y44700D02*Y72000D01*
X340000Y60000D02*Y73000D01*
X343200Y76200D02*Y105700D01*
X341900Y107000D01*
X339500Y95700D02*Y84800D01*
X339600Y84700D01*
X321200Y65300D02*Y103300D01*
X323900Y69100D02*Y99200D01*
X324100Y99400D01*
X326600Y71900D02*Y96400D01*
X326700Y96500D01*
X318900Y68900D02*Y94300D01*
X312500D02*Y76000D01*
X312600Y75900D01*
X316500Y91700D02*Y81600D01*
X316700Y81400D01*
X356800Y47300D02*Y127200D01*
X366500Y33300D02*Y130800D01*
X312100Y124200D02*X316900Y119400D01*
X328600Y118300D02*X345600Y135300D01*
X337300Y124600D02*X348000Y135300D01*
X347200Y131900D02*X350400Y135100D01*
X356800Y127200D02*X366800Y137200D01*
X347000Y86100D02*Y124900D01*
X354500Y73000D02*X350300D01*
X345600Y68300D01*
X344000Y72000D02*X346900Y74900D01*
Y86600D01*
X347000Y86700D01*
X340000Y73000D02*X343200Y76200D01*
X347000Y124500D02*Y131700D01*
X202200Y9900D02*X260800D01*
X202400Y8300D02*X260800D01*
X260900Y6500D02*X261300Y6900D01*
X260800Y9900D02*X260900Y9800D01*
X260800Y8300D02*X260900Y8200D01*
X202400Y6500D02*X260900D01*
X202400Y4800D02*X261100D01*
X197700Y14400D02*X202200Y9900D01*
X203500Y6500D02*X195300D01*
X193600Y8200D01*
X204000Y8300D02*X198800D01*
X197800Y9300D01*
X203800Y4800D02*X166800D01*
X165800Y5800D01*
X204700Y2900D02*X164200D01*
X164000Y3100D01*
X184800Y19500D02*Y40100D01*
X188100Y43400D01*
X187300Y7400D02*Y12500D01*
X184800Y15000D01*
Y23700D01*
X173200Y57600D02*X184200D01*
X172700Y55900D02*X186200D01*
X175700Y64200D02*X187400D01*
X188100Y63500D02*X187400Y64200D01*
X184200Y59800D02*X185000Y60600D01*
X188100Y43400D02*Y63500D01*
X184200Y57600D02*Y59800D01*
X186200Y55900D02*Y54900D01*
X185000Y53700D01*
X193600Y53800D02*Y15900D01*
X197700Y57000D02*Y14400D01*
X193600Y8200D02*Y18300D01*
X192100Y60600D02*X194100D01*
X197700Y57000D01*
X265500Y61000D02*X265300Y60800D01*
G54D59*X262418Y53700D02*X265600D01*
X265700Y53600D01*
X239200Y51300D02*X241300Y49200D01*
X250300Y68400D02*Y55700D01*
Y68400D02*X249026D01*
X252826Y68600D02*X250600D01*
X250300Y68300D01*
X255974Y68600D02*X259800D01*
X249026Y68400D02*X246900Y66274D01*
G54D58*X255300Y60900D02*X254400Y61800D01*
G54D59*X250300Y55700D02*X251300Y54700D01*
X251350Y54650D02*X256350D01*
X257300Y53700D01*
G54D58*X258557Y60300D02*X255900D01*
X254300Y61900D01*
G54D59*X239200Y63500D02*Y51300D01*
X244214Y54700D02*Y60614D01*
X245300Y61700D01*
X246900Y63126D02*X246326D01*
X244500Y61300D01*
G54D58*X261100Y4800D02*X261200Y4700D01*
X259900Y4800D02*X361300D01*
X202300Y2900D02*X261100D01*
X260100D02*X365000D01*
X260100Y9900D02*X327200D01*
X260300Y8300D02*X335500D01*
X260200Y6500D02*X344700D01*
X327200Y9900D02*X328600Y11300D01*
X335500Y8300D02*X337300Y10100D01*
X344700Y6500D02*X347200Y9000D01*
X361300Y4800D02*X366200Y9700D01*
X365000Y2900D02*X368700Y6600D01*
X347150Y8950D02*Y18150D01*
X341100Y24200D01*
X366100Y9600D02*Y24900D01*
X360400Y30600D01*
X368550Y6450D02*Y31250D01*
X366500Y33300D01*
G54D59*X257341Y120500D02*X246500D01*
X244700Y122300D01*
X240900D01*
X240800Y122400D01*
G54D58*X232874Y104948D02*X233026Y105100D01*
X235948Y101300D02*X235848Y101200D01*
X236148Y97500D02*X241474D01*
X241774Y97200D01*
X236574Y105500D02*X236174Y105100D01*
X238974Y101300D02*X235948D01*
X239074D02*X241474D01*
X241874Y100900D01*
X236574Y105500D02*X241000D01*
X241600Y104900D01*
G54D59*X238300Y120500D02*X238100Y120300D01*
G54D58*X240400Y118200D02*Y113757D01*
X240657Y113500D01*
G54D59*X235000D02*X234900Y113400D01*
G54D58*X244674Y105200D02*Y83300D01*
Y86000D02*X248100D01*
X250800Y88700D01*
X253874Y98526D02*X255200Y97200D01*
X250726Y97874D02*X250800Y97800D01*
X253874Y101200D02*Y98526D01*
Y101300D02*Y103826D01*
X252000Y105700D01*
Y109143D01*
X247743Y113400D01*
X250726Y101200D02*Y97874D01*
G54D59*X262459Y120500D02*X262500D01*
X266000Y117000D01*
G54D58*X266352Y121900D02*X263400D01*
X262000Y120500D01*
G54D59*X260326Y115200D02*X260000D01*
X257800Y113000D01*
X266000Y117000D02*Y113300D01*
X263474Y115200D02*X264100D01*
X266000Y113300D01*
G54D58*X269500Y121900D02*Y125600D01*
X268800Y126300D01*
G54D59*X295800Y90200D02*Y114000D01*
G54D58*X295900Y100800D02*X300100D01*
X300700Y101400D01*
Y107900D02*Y104800D01*
X300100Y104200D01*
X306700Y81100D02*Y120200D01*
G54D59*X292100Y73900D02*Y113774D01*
X300200Y118500D02*X297259D01*
X297159Y118600D01*
G54D58*X303000Y85200D02*X301000D01*
G54D59*X300518Y49200D02*X302800Y51482D01*
Y56600D02*Y57800D01*
X301200Y59400D01*
Y63700D01*
X301628Y64128D01*
G54D58*X301000Y85200D02*X299700Y86500D01*
X295600Y90100D02*X299700D01*
X300100Y89700D01*
G54D59*X295800Y90100D02*Y76200D01*
X298600Y73400D01*
Y67157D01*
X301257Y64500D01*
G54D58*X307900Y124200D02*X312100D01*
X311100Y115800D02*X304900Y122000D01*
X306700Y120200D02*X306600Y120300D01*
X283300Y124200D02*X309000D01*
X304900Y122000D02*X287300D01*
G54D59*X292100Y113774D02*X291974Y113900D01*
X292041Y113841D02*X292037Y113837D01*
X292041Y118600D02*Y113841D01*
G54D58*X288826Y113900D02*Y118026D01*
X288900Y118100D01*
X279000Y117100D02*X281100D01*
X282200Y118200D01*
Y123100D01*
X283300Y124200D01*
X287300Y122000D02*X286000Y120700D01*
X276200Y115200D02*Y115700D01*
X275300Y116600D01*
Y123500D01*
X276000Y124200D01*
Y126352D01*
X276148Y126500D01*
X273000D02*Y130400D01*
X272600Y130800D01*
G54D59*X292100Y74700D02*Y64814D01*
X290586Y63300D01*
G54D58*X288926Y74000D02*X288800D01*
X287300Y72500D01*
Y68900D01*
X287400Y68800D01*
G54D59*X308343Y64500D02*X312600D01*
G54D58*X274626Y72900D02*Y74626D01*
X275900Y75900D01*
X294500Y58500D02*X277300D01*
Y68200D02*Y72426D01*
X277774Y72900D01*
X321200Y103300D02*X322200Y104300D01*
X321100Y110300D02*X315800Y115600D01*
X312500D01*
X312300Y115800D01*
X311100D01*
X318900Y94300D02*X317300Y95900D01*
Y105700D01*
X317900Y106300D01*
X269800Y68300D02*X277200D01*
G54D59*X283500Y63300D02*X279500D01*
X279400Y63400D01*
G54D58*X277300Y58500D02*X273100Y62700D01*
X277200Y68300D02*X277300Y68200D01*
G54D59*X241300Y49200D02*X300518D01*
G54D58*X272400Y58600D02*Y59100D01*
X270600Y60900D01*
X265600D01*
X232874Y83200D02*Y104948D01*
X236148Y97500D02*X235848Y97800D01*
X238774Y93900D02*X235948D01*
X235848Y93800D01*
X238774Y90200D02*X235948D01*
X236248Y86000D02*X236148Y86100D01*
X238874Y86000D02*X236248D01*
X238974D02*X241674D01*
X241974Y86300D01*
X238874Y90200D02*X241274D01*
X241774Y89700D01*
X238974Y93900D02*X241474D01*
X241774Y93600D01*
X223800Y75874D02*X227226D01*
X227700Y75400D01*
X224800Y81400D02*X222400D01*
X220000Y79000D01*
Y75874D01*
X219900Y75774D01*
Y72626D02*X223700D01*
X223800Y72726D01*
Y70200D01*
X223700Y70100D01*
X256700Y74500D02*X251474D01*
X251374Y74400D01*
X248226D02*X245700D01*
X244700Y73400D01*
G54D59*X262900Y71700D02*Y69400D01*
X264000Y68300D01*
X266048Y71700D02*Y72848D01*
X267800Y74600D01*
G54D60*X398000Y205622D03*
X405874D03*
X398000Y197748D03*
Y189874D03*
Y182000D03*
Y174126D03*
X405874Y197748D03*
Y189874D03*
Y182000D03*
Y174126D03*
Y166252D03*
G54D61*X400315Y262283D03*
G54D62*X408189Y280000D03*
G54D63*X396378D03*
G54D56*G36*
X395229Y216268D02*Y210725D01*
X400772D01*
Y216268D01*
X395229D01*
G37*
G54D60*X405874Y213496D03*
G54D64*X387500Y327500D03*
G54D61*X400315Y297717D03*
G54D65*X372756Y280000D03*
G54D66*X370000Y215000D03*
Y225000D03*
G54D60*X398000Y166252D03*
G54D66*X370000Y155000D03*
X360000D03*
X370000Y165000D03*
X360000D03*
X370000Y175000D03*
X360000D03*
X370000Y185000D03*
X360000D03*
X370000Y195000D03*
X360000D03*
X370000Y205000D03*
X360000D03*
Y215000D03*
G54D67*X362000Y98000D03*
X352000Y93000D03*
X362000Y88000D03*
X352000Y83000D03*
X362000Y78000D03*
X352000Y73000D03*
G54D68*X375000Y106000D03*
G54D69*X387000Y98000D03*
G54D66*X360000Y225000D03*
G54D64*X32500Y327500D03*
G54D66*X180000Y10000D03*
X170000D03*
G54D64*X387500Y12500D03*
X32500D03*
G54D67*X362000Y68000D03*
X352000Y63000D03*
G54D70*X333000Y64000D03*
Y87000D03*
Y97000D03*
G54D67*X362000Y58000D03*
G54D68*X375000Y45000D03*
G54D69*X387000Y53000D03*
G54D67*X352000D03*
G54D70*X333000Y54000D03*
G54D71*X296807Y308400D02*X297593D01*
X296807Y305252D02*X297593D01*
X274707Y305226D02*X275493D01*
X274707Y308374D02*X275493D01*
X166607Y62000D02*X167393D01*
X166607Y58852D02*X167393D01*
X173174Y51393D02*Y50607D01*
X170026Y51393D02*Y50607D01*
X173174Y47793D02*Y47007D01*
X170026Y47793D02*Y47007D01*
G54D72*X410000Y10000D03*
G54D73*X308343Y64893D02*Y64107D01*
X301257Y64893D02*Y64107D01*
G54D71*X288926Y74393D02*Y73607D01*
G54D73*X283500Y63693D02*Y62907D01*
X290586Y63693D02*Y62907D01*
G54D71*X292074Y74393D02*Y73607D01*
X299507Y86626D02*X300293D01*
X299507Y89774D02*X300293D01*
X300007Y104374D02*X300793D01*
X300007Y101226D02*X300793D01*
G54D74*X302308Y51482D02*X303292D01*
X302308Y56600D02*X303292D01*
G54D71*X274626Y73293D02*Y72507D01*
X277774Y73293D02*Y72507D01*
X223407Y75874D02*X224193D01*
X223407Y72726D02*X224193D01*
X219507Y75774D02*X220293D01*
X219507Y72626D02*X220293D01*
X232800Y90593D02*Y89807D01*
X233000Y86493D02*Y85707D01*
X235948Y90593D02*Y89807D01*
X236148Y86493D02*Y85707D01*
X241800Y90293D02*Y89507D01*
X241700Y86493D02*Y85707D01*
X244948Y90293D02*Y89507D01*
X244848Y86493D02*Y85707D01*
G54D74*X262418Y54192D02*Y53208D01*
X257300Y54192D02*Y53208D01*
G54D73*X244214Y55093D02*Y54307D01*
X251300Y55093D02*Y54307D01*
G54D71*X246507Y63126D02*X247293D01*
X246507Y66274D02*X247293D01*
G54D73*X258557Y60693D02*Y59907D01*
G54D71*X252826Y68993D02*Y68207D01*
X255974Y68993D02*Y68207D01*
X262900Y72093D02*Y71307D01*
X266048Y72093D02*Y71307D01*
G54D73*X265643Y60693D02*Y59907D01*
G54D71*X248226Y74793D02*Y74007D01*
X251374Y74793D02*Y74007D01*
X250726Y101593D02*Y100807D01*
X245048Y101093D02*Y100307D01*
X253874Y101593D02*Y100807D01*
X233026Y105493D02*Y104707D01*
X236174Y105493D02*Y104707D01*
X241600Y105293D02*Y104507D01*
X244748Y105293D02*Y104507D01*
X232700Y101593D02*Y100807D01*
X235848Y101593D02*Y100807D01*
X232700Y98193D02*Y97407D01*
X235848Y98193D02*Y97407D01*
X232700Y94193D02*Y93407D01*
X235848Y94193D02*Y93407D01*
X241900Y101093D02*Y100307D01*
Y97593D02*Y96807D01*
X245048Y97593D02*Y96807D01*
X241700Y93993D02*Y93207D01*
X244848Y93993D02*Y93207D01*
X269407Y237074D02*X270193D01*
X260307D02*X261093D01*
X279426Y234293D02*Y233507D01*
X282574Y234293D02*Y233507D01*
X269407Y233926D02*X270193D01*
X260307D02*X261093D01*
X215507D02*X216293D01*
X233907D02*X234693D01*
X224407D02*X225193D01*
X215507Y237074D02*X216293D01*
X233907D02*X234693D01*
X224407D02*X225193D01*
X217074Y228293D02*Y227507D01*
X213926Y228293D02*Y227507D01*
X216917Y211293D02*Y210507D01*
X213769Y211293D02*Y210507D01*
X216957Y222193D02*Y221407D01*
X213809Y222193D02*Y221407D01*
G54D73*X229260Y216193D02*Y215407D01*
X222174Y216193D02*Y215407D01*
G54D71*X238526Y228393D02*Y227607D01*
X216757Y196493D02*Y195707D01*
X223652Y190193D02*Y189407D01*
X226800Y190193D02*Y189407D01*
X223652Y202393D02*Y201607D01*
X226800Y202393D02*Y201607D01*
G54D73*X245183Y192793D02*Y192007D01*
G54D71*X213609Y196493D02*Y195707D01*
X231107Y172074D02*X231893D01*
X241778Y177793D02*Y177007D01*
X244926Y177793D02*Y177007D01*
X231107Y168926D02*X231893D01*
G54D73*X223260Y174193D02*Y173407D01*
X216174Y174193D02*Y173407D01*
G54D71*X288826Y114293D02*Y113507D01*
X291974Y114293D02*Y113507D01*
G54D74*X297159Y119092D02*Y118108D01*
X292041Y119092D02*Y118108D01*
G54D71*X273000Y126893D02*Y126107D01*
G54D74*X257341Y120992D02*Y120008D01*
X262459Y120992D02*Y120008D01*
G54D71*X269500Y122293D02*Y121507D01*
X266352Y122293D02*Y121507D01*
X276148Y126893D02*Y126107D01*
G54D73*X240657Y113893D02*Y113107D01*
X247743Y113893D02*Y113107D01*
G54D71*X260326Y115593D02*Y114807D01*
X263474Y115593D02*Y114807D01*
X383334Y155136D02*Y154350D01*
X386482Y155136D02*Y154350D01*
X354713Y142790D02*Y142004D01*
X357861Y142790D02*Y142004D01*
X260381Y171974D02*X261167D01*
X260381Y168826D02*X261167D01*
X251907Y172100D02*X252693D01*
X251907Y168952D02*X252693D01*
G54D73*X271483Y190593D02*Y189807D01*
X270857Y173593D02*Y172807D01*
X278569Y190593D02*Y189807D01*
G54D71*X279052Y182793D02*Y182007D01*
X282200Y182793D02*Y182007D01*
G54D73*X277943Y173593D02*Y172807D01*
X253607Y226583D02*X254393D01*
X253607Y233669D02*X254393D01*
G54D71*X241674Y228393D02*Y227607D01*
X278852Y209893D02*Y209107D01*
X282000Y209893D02*Y209107D01*
X276852Y196193D02*Y195407D01*
X280000Y196193D02*Y195407D01*
X279252Y223593D02*Y222807D01*
X282400Y223593D02*Y222807D01*
X269852Y200093D02*Y199307D01*
G54D73*X252269Y192793D02*Y192007D01*
G54D71*X273000Y200093D02*Y199307D01*
G54D75*X7000Y186750D02*X13000D01*
X7000Y216250D02*X13000D01*
X7000Y249750D02*X13000D01*
X7000Y90250D02*X13000D01*
X7000Y123750D02*X13000D01*
X7000Y153250D02*X13000D01*
X7000Y279250D02*X13000D01*
X7000Y312750D02*X13000D01*
G54D72*X10000Y330000D03*
G54D75*X7000Y60750D02*X13000D01*
X7000Y27250D02*X13000D01*
G54D72*X10000Y10000D03*
G54D74*X116008Y192559D02*X116992D01*
X116008Y187441D02*X116992D01*
X116008Y314941D02*X116992D01*
X116008Y257059D02*X116992D01*
X116008Y251941D02*X116992D01*
G54D71*X120707Y82474D02*X121493D01*
X120707Y79326D02*X121493D01*
G54D74*X116008Y320059D02*X116992D01*
G54D71*X128081Y19000D02*X128867D01*
X128081Y15852D02*X128867D01*
X132533Y18648D02*X133319D01*
X132533Y15500D02*X133319D01*
X162926Y80693D02*Y79907D01*
X166074Y80693D02*Y79907D01*
G54D76*X81200Y250600D03*
X64400Y256400D03*
X38500Y252000D03*
X42300Y252100D03*
X61300Y256200D03*
X84400Y243700D03*
X64400Y245500D03*
X90800Y247500D03*
X99300D03*
X70400Y242100D03*
X57800Y245800D03*
X74400Y278526D03*
X80800Y285100D03*
X84600Y279800D03*
X56400Y287100D03*
X70000Y278700D03*
X84500Y288000D03*
X76000Y260500D03*
X64000Y268500D03*
X71500Y264500D03*
X64000Y260500D03*
X90500Y264500D03*
X52500Y287000D03*
X46000Y227000D03*
X45500Y264500D03*
X53500Y268500D03*
Y260500D03*
X91200Y268600D03*
X87400Y272200D03*
X88100Y278400D03*
X104200Y268700D03*
Y281800D03*
X99600Y281900D03*
X96500D03*
X99000Y291500D03*
X103500Y296000D03*
X99000D03*
X103500Y291500D03*
X94500Y296000D03*
Y300500D03*
Y291500D03*
X99000Y300500D03*
X103500D03*
X99400Y310600D03*
X92700Y322100D03*
X95100Y319400D03*
X99000Y331500D03*
Y323500D03*
X74400Y152426D03*
X80800Y159000D03*
X84600Y153700D03*
X88100Y152300D03*
X87400Y146100D03*
X84500Y161900D03*
Y164900D03*
X81300Y187600D03*
X84500Y180700D03*
Y177400D03*
Y173800D03*
X70500Y179100D03*
X71500Y138500D03*
X56400Y161000D03*
X52500Y160000D03*
X46000Y163000D03*
X64500Y182500D03*
X64000Y171900D03*
X60500Y193400D03*
X64500D03*
X48000Y172800D03*
X64000Y142500D03*
X53500D03*
X45500Y138500D03*
X53500Y134500D03*
X64000D03*
X10000Y183000D03*
X16500D03*
X3500D03*
X10000Y190500D03*
X16500D03*
X3500D03*
X9600Y149400D03*
X10000Y127500D03*
X16100Y149400D03*
X16500Y127500D03*
X3100Y149400D03*
X3500Y127500D03*
X9600Y156900D03*
X3100D03*
X16100D03*
X58000Y186400D03*
X25500Y183000D03*
X38500Y189000D03*
X42500D03*
X49000Y175900D03*
X35000Y166400D03*
X42000D03*
X38500Y163900D03*
X28500Y160000D03*
Y155100D03*
X90600Y205900D03*
X87300Y209100D03*
X74300Y215426D03*
X84500Y216700D03*
X88000Y215300D03*
X70000Y215500D03*
X70100Y152600D03*
X74102Y133908D03*
X64000Y205500D03*
X53500D03*
Y197500D03*
X64000D03*
X45500Y201500D03*
X71500D03*
X90500D03*
X104300Y205900D03*
X105600Y209900D03*
X104100Y219300D03*
X99500Y218800D03*
X96400D03*
X99000Y237500D03*
X94500D03*
X99000Y228500D03*
X103500Y233000D03*
X99000D03*
X103500Y228500D03*
Y237500D03*
X51500Y38400D03*
X56800Y65400D03*
X56400Y52900D03*
X41200Y38300D03*
X85900Y33700D03*
X80000Y36152D03*
X85800Y42300D03*
X80000Y39400D03*
X47200Y100800D03*
X59700Y100600D03*
X69200Y100800D03*
X81600Y101000D03*
X86100Y50800D03*
Y59300D03*
Y71400D03*
X86200Y63100D03*
X80000Y56600D03*
X80100Y69200D03*
Y65900D03*
X80000Y53400D03*
X80700Y222000D03*
X84400Y224900D03*
Y227900D03*
Y240400D03*
Y236800D03*
X48900Y238900D03*
X47900Y235800D03*
X63900Y234900D03*
X34900Y229400D03*
X41900D03*
X38400Y226900D03*
X28400Y224100D03*
Y219100D03*
X52300Y223900D03*
X56600D03*
X10000Y57000D03*
X16500D03*
X3500D03*
X10000Y64500D03*
X16500D03*
X3500D03*
X9600Y23400D03*
Y30900D03*
X10000Y120000D03*
X9600Y86400D03*
Y93900D03*
X16100Y23400D03*
Y30900D03*
X16500Y120000D03*
X16100Y86400D03*
Y93900D03*
X3100Y23400D03*
Y30900D03*
X3500Y120000D03*
X3100Y86400D03*
Y93900D03*
X94500Y233000D03*
Y228500D03*
X97800Y25700D03*
X101200Y33800D03*
Y50300D03*
Y62900D03*
X105500Y109500D03*
X105300Y98000D03*
X115400Y51500D03*
X121100Y48400D03*
X118000Y82300D03*
X115400Y75400D03*
X71100Y305100D03*
X64600Y309100D03*
X81500Y312500D03*
X90900Y310600D03*
X84500Y306800D03*
Y303500D03*
X49000Y302000D03*
X48500Y298700D03*
X64000Y298000D03*
X46500Y290000D03*
X84500Y299900D03*
Y291000D03*
X10000Y246000D03*
X16500D03*
X3500D03*
X10000Y253500D03*
X16500D03*
X3500D03*
X9600Y212400D03*
X10000Y275500D03*
Y283000D03*
X3100Y212400D03*
X3500Y275500D03*
Y283000D03*
X16100Y219900D03*
X16500Y275500D03*
Y283000D03*
X29200Y243000D03*
X35500Y292500D03*
X41500D03*
X38500Y290300D03*
X10400Y309100D03*
X16900D03*
X3900D03*
X10400Y316600D03*
X16900D03*
X3900D03*
X25000Y309000D03*
X27500Y287500D03*
Y282000D03*
X38500Y315000D03*
X42500D03*
X64000Y331500D03*
X45500Y327500D03*
X53500Y331500D03*
X71500Y327500D03*
X90000D03*
X58900Y312000D03*
X61300Y318900D03*
X64700D03*
X53500Y323500D03*
X64000D03*
X16100Y212400D03*
X9600Y219900D03*
X3100D03*
X167600Y162600D03*
X192600Y167400D03*
X211800Y168600D03*
X223400Y166700D03*
X269800Y148400D03*
X299300Y160000D03*
X140400Y148400D03*
X136900Y148800D03*
X140800Y151900D03*
X135100Y151800D03*
X135500Y145600D03*
X146500Y178500D03*
X140500D03*
X152000D03*
X135000D03*
X217300Y193400D03*
X223600Y187000D03*
X200000Y178000D03*
X193900Y174200D03*
X211800Y178400D03*
X212100Y173800D03*
X144100Y151800D03*
X140500Y161500D03*
X135000D03*
X152000Y167000D03*
X146500D03*
X140500D03*
X135000D03*
X152000Y173000D03*
Y161500D03*
X146500Y173000D03*
Y161500D03*
X116174Y170900D03*
X125600Y172500D03*
X135000Y173000D03*
X140500D03*
X184100Y173500D03*
X192300Y157100D03*
Y162300D03*
X197400Y175700D03*
X283400D03*
X230300Y175800D03*
X213600Y193300D03*
X283800Y190000D03*
X282100Y185100D03*
X222100Y178100D03*
X226800Y187000D03*
X241600Y180100D03*
X230300Y179500D03*
X235100Y179700D03*
X237200Y174800D03*
X328200Y180000D03*
X185500Y46700D03*
X177300Y43600D03*
X175800Y47500D03*
X171100Y33100D03*
X174200Y60000D03*
X170600Y59900D03*
X170800Y56400D03*
X170900Y63100D03*
X168100Y38700D03*
X187300Y7400D03*
X168800Y80600D03*
X175700Y64200D03*
X175500Y68300D03*
X182200Y74700D03*
X185000Y60600D03*
X192100D03*
X157000Y82600D03*
X152900Y21700D03*
X156000Y46500D03*
Y55000D03*
Y38500D03*
Y62500D03*
X143200Y27200D03*
X140500Y38500D03*
X148500D03*
X132500Y62500D03*
X140500D03*
X134100Y73600D03*
X132500Y38500D03*
Y55000D03*
Y46500D03*
X148500Y62500D03*
X140500Y55000D03*
X148500D03*
Y46500D03*
X140500D03*
X146600Y73400D03*
X146700Y18900D03*
X125700Y21800D03*
X113900Y25900D03*
X122600Y25800D03*
X119800Y31800D03*
X136300Y21100D03*
X119800Y43100D03*
X115200Y44100D03*
X121700Y53700D03*
X128300Y13200D03*
X132900Y12700D03*
X175600Y50800D03*
X209100Y55000D03*
X234800Y54900D03*
X185000Y53700D03*
X193600Y53800D03*
X205600Y38300D03*
X236000Y18700D03*
X240400Y22400D03*
X209400Y12500D03*
X235000Y12400D03*
X197800Y9300D03*
X224800Y81400D03*
X223700Y70100D03*
X227700Y75400D03*
X151200Y76900D03*
X151400Y73600D03*
X167500Y99600D03*
X167300Y114600D03*
X146500Y76800D03*
X135000Y115500D03*
X140500D03*
Y110000D03*
X135000D03*
X152000Y115500D03*
X146500D03*
Y110000D03*
X152000D03*
Y98500D03*
X146500D03*
Y104000D03*
X152000D03*
X120800Y121700D03*
X125000Y130900D03*
X135100Y131500D03*
X125500Y109500D03*
X116074Y107900D03*
X109800Y108300D03*
X125500Y104900D03*
X109700Y97100D03*
X135000Y98500D03*
Y104000D03*
X140500D03*
Y98500D03*
X120300Y93800D03*
X124800Y84000D03*
X144000Y88800D03*
X134800D03*
X140800Y88900D03*
X135400Y82600D03*
X137400Y79400D03*
X134000Y76800D03*
X141000Y76000D03*
X135200Y194500D03*
X167400Y177600D03*
X125100Y193900D03*
X120900Y184700D03*
X134474Y208574D03*
X134800Y214800D03*
X140200Y211700D03*
X136500Y212000D03*
X144000Y214800D03*
X140800Y214900D03*
X184100Y215300D03*
X183800Y212100D03*
X196900Y213500D03*
X199400Y210900D03*
X168600Y215900D03*
X177200Y211500D03*
X245000Y233100D03*
X237200Y233900D03*
X249600Y227900D03*
X238600Y225200D03*
X222100Y233900D03*
X218700Y233800D03*
X209000Y255100D03*
X208600Y247000D03*
X206800Y244100D03*
X211700Y234700D03*
X239800Y239800D03*
X228100Y239700D03*
X228500Y233700D03*
X231500Y239700D03*
X211700Y231500D03*
X220300Y251500D03*
X179100Y69900D03*
X281500Y69400D03*
X238700Y85900D03*
Y89900D03*
X238774Y93900D03*
X238900Y97800D03*
Y105800D03*
Y101700D03*
X232874Y83200D03*
X277300Y68200D03*
X275900Y75900D03*
X279600Y53800D03*
X295126D03*
X317900Y51000D03*
X322000Y51700D03*
X294500Y57800D03*
X323900Y69100D03*
X295700Y63200D03*
X279400Y63400D03*
X303400Y69700D03*
X312600Y64500D03*
X287600Y68800D03*
X326400Y71900D03*
X345600Y32600D03*
X354400Y36900D03*
X340000Y60000D03*
X312500Y94300D03*
X312600Y75900D03*
X313100Y106500D03*
X312300Y115800D03*
X303200Y85200D03*
X306700Y81100D03*
X316500Y91700D03*
X316700Y81400D03*
X324900Y119700D03*
X325000Y110300D03*
X316900Y119400D03*
X341500Y107100D03*
X279100Y120300D03*
X285900Y120600D03*
X288500Y117900D03*
X300700Y107900D03*
X276200Y115200D03*
X300200Y118500D03*
X285800Y113100D03*
X279000Y117100D03*
X265800Y113300D03*
X257800Y113000D03*
X240900Y118200D03*
X272600Y130800D03*
X268600Y126800D03*
X267800Y74600D03*
X269800Y68300D03*
X272700Y62800D03*
X265700Y53600D03*
X269800Y49100D03*
X272500Y58500D03*
X255200Y97200D03*
X250800Y88700D03*
Y97800D03*
X256700Y74500D03*
X244700Y73400D03*
X250300Y68400D03*
X254300Y61900D03*
X244500Y61300D03*
X252400Y45700D03*
X259800Y68600D03*
X264000Y68300D03*
X237200Y166700D03*
X248700D03*
X274600Y166600D03*
X266800Y173200D03*
X278900Y185200D03*
X255100Y172200D03*
X258000D03*
X295700Y174700D03*
X297200Y171000D03*
X245000Y180100D03*
X335500Y180500D03*
X340800Y180800D03*
X337600Y177300D03*
X341800Y177200D03*
X269000Y166400D03*
X295700Y165900D03*
X278400Y200000D03*
X227600Y211200D03*
X246300Y187700D03*
X251300D03*
X273100Y202600D03*
X269500D03*
X267100Y191900D03*
X274300Y195900D03*
X284000Y194100D03*
X284600Y205400D03*
Y202200D03*
X211800Y213900D03*
X217600Y202000D03*
X217300Y207900D03*
X213700D03*
X211800Y204300D03*
X218700Y237100D03*
X222100D03*
X213800Y225000D03*
Y218900D03*
X217000Y225000D03*
Y218900D03*
X223500Y199200D03*
X226800D03*
X211800Y190200D03*
X217600Y184300D03*
X211800Y199700D03*
X284500Y237600D03*
X279000Y231000D03*
X282700D03*
X284500Y227600D03*
X274600Y239700D03*
X254100Y238200D03*
X251300Y240000D03*
X257000Y239900D03*
X263400Y237100D03*
X267000D03*
Y233900D03*
X263400D03*
X268600Y228900D03*
X273800Y229100D03*
X271300Y226200D03*
X268300Y223300D03*
X241700Y225100D03*
X237200Y237100D03*
X243000Y239800D03*
X278600Y212400D03*
X278900Y220300D03*
X271300D03*
X282700D03*
X284500Y213900D03*
X284600Y209500D03*
X273900Y223100D03*
X275000Y262900D03*
X263000Y249600D03*
X263100Y253000D03*
X263800Y257600D03*
X261200Y260300D03*
X276800Y270200D03*
X254000Y272900D03*
X243300Y172900D03*
X228800Y172200D03*
Y168900D03*
X245500Y166700D03*
X255100Y169000D03*
X258000D03*
X264800Y166500D03*
X279100Y168200D03*
X283500Y171700D03*
X258000Y146900D03*
X272100Y152500D03*
X284400Y152700D03*
X345100Y135700D03*
X348000Y139600D03*
X350700Y135500D03*
X292100Y110400D03*
X317900Y106300D03*
X322200Y104300D03*
X291900Y80900D03*
X339600Y84700D03*
X295900Y100800D03*
X324100Y99400D03*
X326400Y96500D03*
X339500Y95700D03*
X295800Y90200D03*
X274700Y87600D03*
X282700Y87500D03*
X266700Y87600D03*
X257300Y99700D03*
X255300Y107900D03*
X274700Y95600D03*
Y103600D03*
X282700Y103700D03*
X266700Y103600D03*
Y95600D03*
X282700D03*
X354000Y281500D03*
X360000Y282000D03*
X357000Y278500D03*
X353500Y314500D03*
X357000Y317500D03*
X360500Y314500D03*
X339700Y332000D03*
X359000Y332200D03*
X339400Y321700D03*
X333100Y321900D03*
X335700Y317700D03*
X325800Y322000D03*
X329000Y318100D03*
X325900Y312800D03*
X281000Y295300D03*
X291000D03*
X281000Y289300D03*
X286000Y295300D03*
Y289300D03*
X285900Y302900D03*
X276000Y300100D03*
X283700Y305800D03*
X288100D03*
X302000Y308600D03*
X291000Y289300D03*
X302400Y289600D03*
X267500Y289300D03*
X279500Y280800D03*
X292300Y280600D03*
X290200Y271900D03*
X289100Y280300D03*
X282700Y280500D03*
X280600Y331900D03*
X284100Y332200D03*
X287600Y332100D03*
X291300Y331800D03*
X279500Y328400D03*
X283100D03*
X286700Y328300D03*
X290400D03*
X294200D03*
X240100Y321800D03*
X241700Y317200D03*
X243900Y311800D03*
X248900Y312000D03*
X264400Y308200D03*
X245000Y320800D03*
X320600Y263200D03*
X318600Y265500D03*
X296900Y262500D03*
Y258200D03*
X307126Y262400D03*
X307400Y258200D03*
X320600Y268000D03*
X318700Y270500D03*
X309900Y269100D03*
X232800Y321700D03*
X236300Y318000D03*
X226500Y324400D03*
X200300Y331900D03*
X204300D03*
X226500Y332200D03*
X202000Y328200D03*
X226500D03*
X200000Y324400D03*
X183300Y284900D03*
X184000Y277100D03*
X180000Y273900D03*
X180300Y281000D03*
X204200Y324500D03*
X344300Y270600D03*
X348500Y270700D03*
X346400Y266500D03*
X344000Y263000D03*
X348700Y263200D03*
X357900Y253500D03*
X387700Y249100D03*
X387000Y244400D03*
X382100Y251300D03*
X362800Y255900D03*
X389400Y201800D03*
X387000Y193700D03*
X387400Y185900D03*
X331341Y240500D03*
X330741Y235200D03*
X347300Y223300D03*
X349000Y219500D03*
X325700Y215900D03*
X330700D03*
X340400D03*
X335800D03*
X331600Y162800D03*
X340400Y151900D03*
X343200Y156200D03*
X376600Y147200D03*
X379400Y143800D03*
X354800Y145500D03*
X358000Y145400D03*
X383000Y157900D03*
X386500Y157800D03*
X116074Y233900D03*
X125500Y230900D03*
Y235500D03*
X113100Y226600D03*
X124800Y210000D03*
X120300Y219800D03*
X124900Y218600D03*
X122100Y253500D03*
X120800Y247700D03*
X113000Y242500D03*
X125000Y248000D03*
X105500Y251700D03*
X112000Y255700D03*
X115500Y217800D03*
X111600Y206300D03*
X107600Y206400D03*
X115500Y201500D03*
X167300Y240600D03*
X167500Y225600D03*
X161900Y218300D03*
X161800Y222400D03*
Y243700D03*
X152000Y236000D03*
X146500D03*
Y241500D03*
X152000D03*
X140500Y224500D03*
X135000D03*
X131700Y214900D03*
X140500Y230000D03*
X135000D03*
Y236000D03*
X140500D03*
Y241500D03*
X135000D03*
X152000Y230000D03*
X146500D03*
Y224500D03*
X152000D03*
X138900Y208600D03*
X155300Y210300D03*
X159400Y210400D03*
X163500Y209000D03*
X140600Y251700D03*
X137800Y254000D03*
X134300Y253500D03*
X132000Y250100D03*
X132200Y256000D03*
X146700Y270700D03*
X146000Y262500D03*
X145000Y259000D03*
X153300Y268100D03*
X124900Y147000D03*
X105700Y146900D03*
X90700Y142900D03*
X104400D03*
X111700Y143300D03*
X107700Y143400D03*
X90500Y138500D03*
X115500D03*
X99600Y155800D03*
X96500D03*
X90900Y184500D03*
X105600Y188700D03*
X99400Y184500D03*
X103500Y170000D03*
X99000Y174500D03*
X103500D03*
X99000Y165500D03*
X94500Y170000D03*
X99000D03*
X94500Y165500D03*
Y174500D03*
X113000Y179500D03*
X120600Y194000D03*
X125200Y185400D03*
X131900Y188700D03*
X139100Y188300D03*
X125600Y167900D03*
X113200Y163600D03*
X103500Y165500D03*
X143500Y148700D03*
X154500Y149700D03*
X158700Y147300D03*
X140900Y125300D03*
X124900Y122500D03*
X132000Y125700D03*
X161800Y154700D03*
X162200Y159100D03*
X161900Y180700D03*
X161600Y117500D03*
X120400Y156800D03*
X104200Y155700D03*
X115600Y154800D03*
X125000Y155700D03*
X131900Y151800D03*
X131600Y88900D03*
X124800Y92600D03*
X121200Y72100D03*
X162000Y96500D03*
X155700Y27400D03*
X167300Y45200D03*
X156400Y73600D03*
X152800Y84300D03*
X157500Y88300D03*
X167600Y55800D03*
Y51100D03*
X164000Y3100D03*
X146726Y27300D03*
X149300Y11800D03*
X132000Y27200D03*
X128400Y27300D03*
X140200Y274700D03*
X136500Y275000D03*
X134900Y277900D03*
X131500Y278000D03*
X135500Y271700D03*
X143900Y277900D03*
X140800Y278000D03*
X140500Y293000D03*
X135000D03*
Y287500D03*
X135200Y320600D03*
X125100Y320000D03*
X105600Y314800D03*
X135400Y317300D03*
X136700Y314000D03*
X131800D03*
X139600Y322000D03*
X116000Y327500D03*
X109000Y331500D03*
Y323500D03*
X112500Y323000D03*
X111200Y319100D03*
X167400Y303700D03*
X161100Y306700D03*
X167600Y288700D03*
X161300Y285500D03*
X152000Y293000D03*
X146500D03*
Y287500D03*
X152000D03*
X135000Y299000D03*
Y304500D03*
X146500Y299000D03*
X140500Y287500D03*
Y299000D03*
Y304500D03*
X152000Y299000D03*
X146500Y304500D03*
X152000D03*
X116174Y297000D03*
X125600Y294000D03*
Y298600D03*
X120400Y282900D03*
X115600Y280900D03*
X125100Y282200D03*
X124900Y273100D03*
X105700Y273000D03*
X111600Y269600D03*
X107200Y269800D03*
X113600Y290000D03*
X112500Y305000D03*
X115500Y264500D03*
X116500Y310000D03*
X125200Y311300D03*
X120900Y311400D03*
G54D77*G54D78*G54D79*G54D66*G54D80*G54D78*G54D81*G54D79*G54D82*G54D83*G54D78*G54D83*G54D84*G54D66*G54D85*G54D83*G54D81*G54D83*G54D81*G54D84*G54D86*G54D84*G54D66*G54D85*G54D84*G54D86*M02*
