G04 start of page 10 for group -4078 idx -4078 *
G04 Title: (unknown), bottomsilk *
G04 Creator: pcb 20110918 *
G04 CreationDate: Thu 31 May 2012 11:38:54 AM GMT UTC *
G04 For: pmonta *
G04 Format: Gerber/RS-274X *
G04 PCB-Dimensions: 400000 320000 *
G04 PCB-Coordinate-Origin: lower left *
%MOIN*%
%FSLAX25Y25*%
%LNBOTTOMSILK*%
%ADD178C,0.0050*%
%ADD177C,0.0080*%
%ADD176C,0.0060*%
G54D176*X0Y320000D02*Y0D01*
Y320000D02*X400000D01*
X0Y0D02*X400000D01*
Y320000D02*Y0D01*
G54D177*X246755Y220519D02*Y219733D01*
X241245Y220519D02*Y219733D01*
X238333Y179645D02*X239119D01*
X238333Y185155D02*X239119D01*
X215324Y208555D02*X216110D01*
X215324Y203045D02*X216110D01*
X264007Y160445D02*X264793D01*
X264007Y165955D02*X264793D01*
X264633Y177445D02*X265419D01*
X264633Y182955D02*X265419D01*
X219807Y108745D02*X220593D01*
X219807Y114255D02*X220593D01*
X209324Y166555D02*X210110D01*
X209324Y161045D02*X210110D01*
G54D178*X280486Y211966D02*X281266D01*
X281686Y212386D02*X281266Y211966D01*
X281686Y212386D02*Y213946D01*
X281266Y214366D01*
X280486D02*X281266D01*
X279766Y213886D02*X279286Y214366D01*
Y211966D02*Y214366D01*
X278866Y211966D02*X279766D01*
X277246Y214366D02*X276946Y214066D01*
X277246Y214366D02*X277846D01*
X278146Y214066D02*X277846Y214366D01*
X278146Y212266D02*Y214066D01*
Y212266D02*X277846Y211966D01*
X277246Y213286D02*X276946Y212986D01*
X277246Y213286D02*X278146D01*
X277246Y211966D02*X277846D01*
X277246D02*X276946Y212266D01*
Y212986D01*
X275026Y214366D02*X276226D01*
Y213166D02*Y214366D01*
Y213166D02*X275926Y213466D01*
X275326D02*X275926D01*
X275326D02*X275026Y213166D01*
Y212266D02*Y213166D01*
X275326Y211966D02*X275026Y212266D01*
X275326Y211966D02*X275926D01*
X276226Y212266D02*X275926Y211966D01*
X267760Y52490D02*X268540D01*
X268960Y52910D02*X268540Y52490D01*
X268960Y52910D02*Y54470D01*
X268540Y54890D01*
X267760D02*X268540D01*
X267040Y54410D02*X266560Y54890D01*
Y52490D02*Y54890D01*
X266140Y52490D02*X267040D01*
X265420Y52790D02*X265120Y52490D01*
X265420Y52790D02*Y53270D01*
X265000Y53690D01*
X264640D02*X265000D01*
X264640D02*X264220Y53270D01*
Y52790D02*Y53270D01*
X264520Y52490D02*X264220Y52790D01*
X264520Y52490D02*X265120D01*
X265420Y54110D02*X265000Y53690D01*
X265420Y54110D02*Y54590D01*
X265120Y54890D01*
X264520D02*X265120D01*
X264520D02*X264220Y54590D01*
Y54110D02*Y54590D01*
X264640Y53690D02*X264220Y54110D01*
X263200Y52490D02*X262300Y53690D01*
Y54590D01*
X262600Y54890D02*X262300Y54590D01*
X262600Y54890D02*X263200D01*
X263500Y54590D02*X263200Y54890D01*
X263500Y53990D02*Y54590D01*
Y53990D02*X263200Y53690D01*
X262300D02*X263200D01*
X267001Y91606D02*X267781D01*
X268201Y92026D02*X267781Y91606D01*
X268201Y92026D02*Y93586D01*
X267781Y94006D01*
X267001D02*X267781D01*
X266281Y93526D02*X265801Y94006D01*
Y91606D02*Y94006D01*
X265381Y91606D02*X266281D01*
X264661Y91906D02*X264361Y91606D01*
X264661Y91906D02*Y92386D01*
X264241Y92806D01*
X263881D02*X264241D01*
X263881D02*X263461Y92386D01*
Y91906D02*Y92386D01*
X263761Y91606D02*X263461Y91906D01*
X263761Y91606D02*X264361D01*
X264661Y93226D02*X264241Y92806D01*
X264661Y93226D02*Y93706D01*
X264361Y94006D01*
X263761D02*X264361D01*
X263761D02*X263461Y93706D01*
Y93226D02*Y93706D01*
X263881Y92806D02*X263461Y93226D01*
X262741Y93706D02*X262441Y94006D01*
X261841D02*X262441D01*
X261841D02*X261541Y93706D01*
X261841Y91606D02*X261541Y91906D01*
X261841Y91606D02*X262441D01*
X262741Y91906D02*X262441Y91606D01*
X261841Y92926D02*X262441D01*
X261541Y93226D02*Y93706D01*
Y91906D02*Y92626D01*
X261841Y92926D01*
X261541Y93226D02*X261841Y92926D01*
X267088Y79426D02*X267868D01*
X268288Y79846D02*X267868Y79426D01*
X268288Y79846D02*Y81406D01*
X267868Y81826D01*
X267088D02*X267868D01*
X266368Y81346D02*X265888Y81826D01*
Y79426D02*Y81826D01*
X265468Y79426D02*X266368D01*
X264748Y79726D02*X264448Y79426D01*
X264748Y79726D02*Y80206D01*
X264328Y80626D01*
X263968D02*X264328D01*
X263968D02*X263548Y80206D01*
Y79726D02*Y80206D01*
X263848Y79426D02*X263548Y79726D01*
X263848Y79426D02*X264448D01*
X264748Y81046D02*X264328Y80626D01*
X264748Y81046D02*Y81526D01*
X264448Y81826D01*
X263848D02*X264448D01*
X263848D02*X263548Y81526D01*
Y81046D02*Y81526D01*
X263968Y80626D02*X263548Y81046D01*
X262828Y80326D02*X261628Y81826D01*
X261328Y80326D02*X262828D01*
X261628Y79426D02*Y81826D01*
X267352Y114692D02*X268132D01*
X268552Y115112D02*X268132Y114692D01*
X268552Y115112D02*Y116672D01*
X268132Y117092D01*
X267352D02*X268132D01*
X266632Y116612D02*X266152Y117092D01*
Y114692D02*Y117092D01*
X265732Y114692D02*X266632D01*
X265012Y114992D02*X264712Y114692D01*
X265012Y114992D02*Y115472D01*
X264592Y115892D01*
X264232D02*X264592D01*
X264232D02*X263812Y115472D01*
Y114992D02*Y115472D01*
X264112Y114692D02*X263812Y114992D01*
X264112Y114692D02*X264712D01*
X265012Y116312D02*X264592Y115892D01*
X265012Y116312D02*Y116792D01*
X264712Y117092D01*
X264112D02*X264712D01*
X264112D02*X263812Y116792D01*
Y116312D02*Y116792D01*
X264232Y115892D02*X263812Y116312D01*
X261892Y117092D02*X263092D01*
Y115892D02*Y117092D01*
Y115892D02*X262792Y116192D01*
X262192D02*X262792D01*
X262192D02*X261892Y115892D01*
Y114992D02*Y115892D01*
X262192Y114692D02*X261892Y114992D01*
X262192Y114692D02*X262792D01*
X263092Y114992D02*X262792Y114692D01*
X274120Y104587D02*X274900D01*
X275320Y105007D02*X274900Y104587D01*
X275320Y105007D02*Y106567D01*
X274900Y106987D01*
X274120D02*X274900D01*
X273400Y106507D02*X272920Y106987D01*
Y104587D02*Y106987D01*
X272500Y104587D02*X273400D01*
X271480D02*X270580Y105787D01*
Y106687D01*
X270880Y106987D02*X270580Y106687D01*
X270880Y106987D02*X271480D01*
X271780Y106687D02*X271480Y106987D01*
X271780Y106087D02*Y106687D01*
Y106087D02*X271480Y105787D01*
X270580D02*X271480D01*
X269860Y106507D02*X269380Y106987D01*
Y104587D02*Y106987D01*
X268960Y104587D02*X269860D01*
X250475Y100478D02*X251255D01*
X251675Y100898D02*X251255Y100478D01*
X251675Y100898D02*Y102458D01*
X251255Y102878D01*
X250475D02*X251255D01*
X249755Y102398D02*X249275Y102878D01*
Y100478D02*Y102878D01*
X248855Y100478D02*X249755D01*
X247835D02*X246635Y102878D01*
X248135D01*
X245615Y100478D02*X244715Y101678D01*
Y102578D01*
X245015Y102878D02*X244715Y102578D01*
X245015Y102878D02*X245615D01*
X245915Y102578D02*X245615Y102878D01*
X245915Y101978D02*Y102578D01*
Y101978D02*X245615Y101678D01*
X244715D02*X245615D01*
X238537Y100414D02*X239317D01*
X239737Y100834D02*X239317Y100414D01*
X239737Y100834D02*Y102394D01*
X239317Y102814D01*
X238537D02*X239317D01*
X237817Y102334D02*X237337Y102814D01*
Y100414D02*Y102814D01*
X236917Y100414D02*X237817D01*
X236197Y100714D02*X235897Y100414D01*
X236197Y100714D02*Y101194D01*
X235777Y101614D01*
X235417D02*X235777D01*
X235417D02*X234997Y101194D01*
Y100714D02*Y101194D01*
X235297Y100414D02*X234997Y100714D01*
X235297Y100414D02*X235897D01*
X236197Y102034D02*X235777Y101614D01*
X236197Y102034D02*Y102514D01*
X235897Y102814D01*
X235297D02*X235897D01*
X235297D02*X234997Y102514D01*
Y102034D02*Y102514D01*
X235417Y101614D02*X234997Y102034D01*
X234277Y102334D02*X233797Y102814D01*
Y100414D02*Y102814D01*
X233377Y100414D02*X234277D01*
X263073Y71571D02*X263853D01*
X264273Y71991D02*X263853Y71571D01*
X264273Y71991D02*Y73551D01*
X263853Y73971D01*
X263073D02*X263853D01*
X262353Y73491D02*X261873Y73971D01*
Y71571D02*Y73971D01*
X261453Y71571D02*X262353D01*
X260733Y71871D02*X260433Y71571D01*
X260733Y71871D02*Y72351D01*
X260313Y72771D01*
X259953D02*X260313D01*
X259953D02*X259533Y72351D01*
Y71871D02*Y72351D01*
X259833Y71571D02*X259533Y71871D01*
X259833Y71571D02*X260433D01*
X260733Y73191D02*X260313Y72771D01*
X260733Y73191D02*Y73671D01*
X260433Y73971D01*
X259833D02*X260433D01*
X259833D02*X259533Y73671D01*
Y73191D02*Y73671D01*
X259953Y72771D02*X259533Y73191D01*
X257913Y73971D02*X257613Y73671D01*
X257913Y73971D02*X258513D01*
X258813Y73671D02*X258513Y73971D01*
X258813Y71871D02*Y73671D01*
Y71871D02*X258513Y71571D01*
X257913Y72891D02*X257613Y72591D01*
X257913Y72891D02*X258813D01*
X257913Y71571D02*X258513D01*
X257913D02*X257613Y71871D01*
Y72591D01*
X240111Y68740D02*X240891D01*
X241311Y69160D02*X240891Y68740D01*
X241311Y69160D02*Y70720D01*
X240891Y71140D01*
X240111D02*X240891D01*
X239391Y70660D02*X238911Y71140D01*
Y68740D02*Y71140D01*
X238491Y68740D02*X239391D01*
X237771Y69040D02*X237471Y68740D01*
X237771Y69040D02*Y69520D01*
X237351Y69940D01*
X236991D02*X237351D01*
X236991D02*X236571Y69520D01*
Y69040D02*Y69520D01*
X236871Y68740D02*X236571Y69040D01*
X236871Y68740D02*X237471D01*
X237771Y70360D02*X237351Y69940D01*
X237771Y70360D02*Y70840D01*
X237471Y71140D01*
X236871D02*X237471D01*
X236871D02*X236571Y70840D01*
Y70360D02*Y70840D01*
X236991Y69940D02*X236571Y70360D01*
X235851Y69040D02*X235551Y68740D01*
X235851Y69040D02*Y70840D01*
X235551Y71140D01*
X234951D02*X235551D01*
X234951D02*X234651Y70840D01*
Y69040D02*Y70840D01*
X234951Y68740D02*X234651Y69040D01*
X234951Y68740D02*X235551D01*
X235851Y69340D02*X234651Y70540D01*
X275376Y62971D02*X276156D01*
X276576Y63391D02*X276156Y62971D01*
X276576Y63391D02*Y64951D01*
X276156Y65371D01*
X275376D02*X276156D01*
X274656Y64891D02*X274176Y65371D01*
Y62971D02*Y65371D01*
X273756Y62971D02*X274656D01*
X273036Y63271D02*X272736Y62971D01*
X273036Y63271D02*Y63751D01*
X272616Y64171D01*
X272256D02*X272616D01*
X272256D02*X271836Y63751D01*
Y63271D02*Y63751D01*
X272136Y62971D02*X271836Y63271D01*
X272136Y62971D02*X272736D01*
X273036Y64591D02*X272616Y64171D01*
X273036Y64591D02*Y65071D01*
X272736Y65371D01*
X272136D02*X272736D01*
X272136D02*X271836Y65071D01*
Y64591D02*Y65071D01*
X272256Y64171D02*X271836Y64591D01*
X270816Y62971D02*X269616Y65371D01*
X271116D01*
X246574Y60610D02*X247354D01*
X247774Y61030D02*X247354Y60610D01*
X247774Y61030D02*Y62590D01*
X247354Y63010D01*
X246574D02*X247354D01*
X245854Y62530D02*X245374Y63010D01*
Y60610D02*Y63010D01*
X244954Y60610D02*X245854D01*
X243934D02*X243034Y61810D01*
Y62710D01*
X243334Y63010D02*X243034Y62710D01*
X243334Y63010D02*X243934D01*
X244234Y62710D02*X243934Y63010D01*
X244234Y62110D02*Y62710D01*
Y62110D02*X243934Y61810D01*
X243034D02*X243934D01*
X242314Y62710D02*X242014Y63010D01*
X241114D02*X242014D01*
X241114D02*X240814Y62710D01*
Y62110D02*Y62710D01*
X242314Y60610D02*X240814Y62110D01*
Y60610D02*X242314D01*
X261376Y229820D02*X262156D01*
X262576Y230240D02*X262156Y229820D01*
X262576Y230240D02*Y231800D01*
X262156Y232220D01*
X261376D02*X262156D01*
X260656Y231740D02*X260176Y232220D01*
Y229820D02*Y232220D01*
X259756Y229820D02*X260656D01*
X258136Y232220D02*X257836Y231920D01*
X258136Y232220D02*X258736D01*
X259036Y231920D02*X258736Y232220D01*
X259036Y230120D02*Y231920D01*
Y230120D02*X258736Y229820D01*
X258136Y231140D02*X257836Y230840D01*
X258136Y231140D02*X259036D01*
X258136Y229820D02*X258736D01*
X258136D02*X257836Y230120D01*
Y230840D01*
X257116Y231920D02*X256816Y232220D01*
X256216D02*X256816D01*
X256216D02*X255916Y231920D01*
X256216Y229820D02*X255916Y230120D01*
X256216Y229820D02*X256816D01*
X257116Y230120D02*X256816Y229820D01*
X256216Y231140D02*X256816D01*
X255916Y231440D02*Y231920D01*
Y230120D02*Y230840D01*
X256216Y231140D01*
X255916Y231440D02*X256216Y231140D01*
X252928Y231474D02*X253708D01*
X254128Y231894D02*X253708Y231474D01*
X254128Y231894D02*Y233454D01*
X253708Y233874D01*
X252928D02*X253708D01*
X252208Y233394D02*X251728Y233874D01*
Y231474D02*Y233874D01*
X251308Y231474D02*X252208D01*
X249688Y233874D02*X249388Y233574D01*
X249688Y233874D02*X250288D01*
X250588Y233574D02*X250288Y233874D01*
X250588Y231774D02*Y233574D01*
Y231774D02*X250288Y231474D01*
X249688Y232794D02*X249388Y232494D01*
X249688Y232794D02*X250588D01*
X249688Y231474D02*X250288D01*
X249688D02*X249388Y231774D01*
Y232494D01*
X248668Y233394D02*X248188Y233874D01*
Y231474D02*Y233874D01*
X247768Y231474D02*X248668D01*
X265382Y198076D02*X266162D01*
X266582Y198496D02*X266162Y198076D01*
X266582Y198496D02*Y200056D01*
X266162Y200476D01*
X265382D02*X266162D01*
X264662Y199996D02*X264182Y200476D01*
Y198076D02*Y200476D01*
X263762Y198076D02*X264662D01*
X262142Y200476D02*X261842Y200176D01*
X262142Y200476D02*X262742D01*
X263042Y200176D02*X262742Y200476D01*
X263042Y198376D02*Y200176D01*
Y198376D02*X262742Y198076D01*
X262142Y199396D02*X261842Y199096D01*
X262142Y199396D02*X263042D01*
X262142Y198076D02*X262742D01*
X262142D02*X261842Y198376D01*
Y199096D01*
X260822Y198076D02*X259622Y200476D01*
X261122D01*
X248091Y210069D02*X248871D01*
X249291Y210489D02*X248871Y210069D01*
X249291Y210489D02*Y212049D01*
X248871Y212469D01*
X248091D02*X248871D01*
X247371Y211989D02*X246891Y212469D01*
Y210069D02*Y212469D01*
X246471Y210069D02*X247371D01*
X245751Y210969D02*X244551Y212469D01*
X244251Y210969D02*X245751D01*
X244551Y210069D02*Y212469D01*
X243531Y210369D02*X243231Y210069D01*
X243531Y210369D02*Y210849D01*
X243111Y211269D01*
X242751D02*X243111D01*
X242751D02*X242331Y210849D01*
Y210369D02*Y210849D01*
X242631Y210069D02*X242331Y210369D01*
X242631Y210069D02*X243231D01*
X243531Y211689D02*X243111Y211269D01*
X243531Y211689D02*Y212169D01*
X243231Y212469D01*
X242631D02*X243231D01*
X242631D02*X242331Y212169D01*
Y211689D02*Y212169D01*
X242751Y211269D02*X242331Y211689D01*
X280788Y222649D02*X281568D01*
X281988Y223069D02*X281568Y222649D01*
X281988Y223069D02*Y224629D01*
X281568Y225049D01*
X280788D02*X281568D01*
X280068Y224569D02*X279588Y225049D01*
Y222649D02*Y225049D01*
X279168Y222649D02*X280068D01*
X277548Y225049D02*X277248Y224749D01*
X277548Y225049D02*X278148D01*
X278448Y224749D02*X278148Y225049D01*
X278448Y222949D02*Y224749D01*
Y222949D02*X278148Y222649D01*
X277548Y223969D02*X277248Y223669D01*
X277548Y223969D02*X278448D01*
X277548Y222649D02*X278148D01*
X277548D02*X277248Y222949D01*
Y223669D01*
X276528Y223549D02*X275328Y225049D01*
X275028Y223549D02*X276528D01*
X275328Y222649D02*Y225049D01*
X278490Y186491D02*X279270D01*
X279690Y186911D02*X279270Y186491D01*
X279690Y186911D02*Y188471D01*
X279270Y188891D01*
X278490D02*X279270D01*
X277770Y188411D02*X277290Y188891D01*
Y186491D02*Y188891D01*
X276870Y186491D02*X277770D01*
X276150Y187391D02*X274950Y188891D01*
X274650Y187391D02*X276150D01*
X274950Y186491D02*Y188891D01*
X273630Y186491D02*X272730Y187691D01*
Y188591D01*
X273030Y188891D02*X272730Y188591D01*
X273030Y188891D02*X273630D01*
X273930Y188591D02*X273630Y188891D01*
X273930Y187991D02*Y188591D01*
Y187991D02*X273630Y187691D01*
X272730D02*X273630D01*
X256220Y177220D02*X257000D01*
X257420Y177640D02*X257000Y177220D01*
X257420Y177640D02*Y179200D01*
X257000Y179620D01*
X256220D02*X257000D01*
X255500Y179140D02*X255020Y179620D01*
Y177220D02*Y179620D01*
X254600Y177220D02*X255500D01*
X252980Y179620D02*X252680Y179320D01*
X252980Y179620D02*X253580D01*
X253880Y179320D02*X253580Y179620D01*
X253880Y177520D02*Y179320D01*
Y177520D02*X253580Y177220D01*
X252980Y178540D02*X252680Y178240D01*
X252980Y178540D02*X253880D01*
X252980Y177220D02*X253580D01*
X252980D02*X252680Y177520D01*
Y178240D01*
X251060Y179620D02*X250760Y179320D01*
X251060Y179620D02*X251660D01*
X251960Y179320D02*X251660Y179620D01*
X251960Y177520D02*Y179320D01*
Y177520D02*X251660Y177220D01*
X251060Y178540D02*X250760Y178240D01*
X251060Y178540D02*X251960D01*
X251060Y177220D02*X251660D01*
X251060D02*X250760Y177520D01*
Y178240D01*
X266162Y170599D02*X266942D01*
X267362Y171019D02*X266942Y170599D01*
X267362Y171019D02*Y172579D01*
X266942Y172999D01*
X266162D02*X266942D01*
X265442Y172519D02*X264962Y172999D01*
Y170599D02*Y172999D01*
X264542Y170599D02*X265442D01*
X262922Y172999D02*X262622Y172699D01*
X262922Y172999D02*X263522D01*
X263822Y172699D02*X263522Y172999D01*
X263822Y170899D02*Y172699D01*
Y170899D02*X263522Y170599D01*
X262922Y171919D02*X262622Y171619D01*
X262922Y171919D02*X263822D01*
X262922Y170599D02*X263522D01*
X262922D02*X262622Y170899D01*
Y171619D01*
X261902Y170899D02*X261602Y170599D01*
X261902Y170899D02*Y171379D01*
X261482Y171799D01*
X261122D02*X261482D01*
X261122D02*X260702Y171379D01*
Y170899D02*Y171379D01*
X261002Y170599D02*X260702Y170899D01*
X261002Y170599D02*X261602D01*
X261902Y172219D02*X261482Y171799D01*
X261902Y172219D02*Y172699D01*
X261602Y172999D01*
X261002D02*X261602D01*
X261002D02*X260702Y172699D01*
Y172219D02*Y172699D01*
X261122Y171799D02*X260702Y172219D01*
X243723Y166400D02*X244503D01*
X244923Y166820D02*X244503Y166400D01*
X244923Y166820D02*Y168380D01*
X244503Y168800D01*
X243723D02*X244503D01*
X243003Y168320D02*X242523Y168800D01*
Y166400D02*Y168800D01*
X242103Y166400D02*X243003D01*
X241383Y167300D02*X240183Y168800D01*
X239883Y167300D02*X241383D01*
X240183Y166400D02*Y168800D01*
X239163Y167300D02*X237963Y168800D01*
X237663Y167300D02*X239163D01*
X237963Y166400D02*Y168800D01*
X256379Y188763D02*X257159D01*
X257579Y189183D02*X257159Y188763D01*
X257579Y189183D02*Y190743D01*
X257159Y191163D01*
X256379D02*X257159D01*
X255659Y190683D02*X255179Y191163D01*
Y188763D02*Y191163D01*
X254759Y188763D02*X255659D01*
X254039Y189663D02*X252839Y191163D01*
X252539Y189663D02*X254039D01*
X252839Y188763D02*Y191163D01*
X251819Y190683D02*X251339Y191163D01*
Y188763D02*Y191163D01*
X250919Y188763D02*X251819D01*
X306400Y291352D02*X307180D01*
X307600Y291772D02*X307180Y291352D01*
X307600Y291772D02*Y293332D01*
X307180Y293752D01*
X306400D02*X307180D01*
X305680Y293272D02*X305200Y293752D01*
Y291352D02*Y293752D01*
X304780Y291352D02*X305680D01*
X303760D02*X302860Y292552D01*
Y293452D01*
X303160Y293752D02*X302860Y293452D01*
X303160Y293752D02*X303760D01*
X304060Y293452D02*X303760Y293752D01*
X304060Y292852D02*Y293452D01*
Y292852D02*X303760Y292552D01*
X302860D02*X303760D01*
X301840Y291352D02*X300940Y292552D01*
Y293452D01*
X301240Y293752D02*X300940Y293452D01*
X301240Y293752D02*X301840D01*
X302140Y293452D02*X301840Y293752D01*
X302140Y292852D02*Y293452D01*
Y292852D02*X301840Y292552D01*
X300940D02*X301840D01*
X262400Y291274D02*X263180D01*
X263600Y291694D02*X263180Y291274D01*
X263600Y291694D02*Y293254D01*
X263180Y293674D01*
X262400D02*X263180D01*
X261680Y293194D02*X261200Y293674D01*
Y291274D02*Y293674D01*
X260780Y291274D02*X261680D01*
X259760D02*X258860Y292474D01*
Y293374D01*
X259160Y293674D02*X258860Y293374D01*
X259160Y293674D02*X259760D01*
X260060Y293374D02*X259760Y293674D01*
X260060Y292774D02*Y293374D01*
Y292774D02*X259760Y292474D01*
X258860D02*X259760D01*
X257840Y291274D02*X256640Y293674D01*
X258140D01*
X209721Y157062D02*X210501D01*
X210921Y157482D02*X210501Y157062D01*
X210921Y157482D02*Y159042D01*
X210501Y159462D01*
X209721D02*X210501D01*
X209001Y158982D02*X208521Y159462D01*
Y157062D02*Y159462D01*
X208101Y157062D02*X209001D01*
X206181Y159462D02*X207381D01*
Y158262D02*Y159462D01*
Y158262D02*X207081Y158562D01*
X206481D02*X207081D01*
X206481D02*X206181Y158262D01*
Y157362D02*Y158262D01*
X206481Y157062D02*X206181Y157362D01*
X206481Y157062D02*X207081D01*
X207381Y157362D02*X207081Y157062D01*
X205461Y157362D02*X205161Y157062D01*
X205461Y157362D02*Y157842D01*
X205041Y158262D01*
X204681D02*X205041D01*
X204681D02*X204261Y157842D01*
Y157362D02*Y157842D01*
X204561Y157062D02*X204261Y157362D01*
X204561Y157062D02*X205161D01*
X205461Y158682D02*X205041Y158262D01*
X205461Y158682D02*Y159162D01*
X205161Y159462D01*
X204561D02*X205161D01*
X204561D02*X204261Y159162D01*
Y158682D02*Y159162D01*
X204681Y158262D02*X204261Y158682D01*
X224014Y154242D02*X224794D01*
X225214Y154662D02*X224794Y154242D01*
X225214Y154662D02*Y156222D01*
X224794Y156642D01*
X224014D02*X224794D01*
X223294Y156162D02*X222814Y156642D01*
Y154242D02*Y156642D01*
X222394Y154242D02*X223294D01*
X220474Y156642D02*X221674D01*
Y155442D02*Y156642D01*
Y155442D02*X221374Y155742D01*
X220774D02*X221374D01*
X220774D02*X220474Y155442D01*
Y154542D02*Y155442D01*
X220774Y154242D02*X220474Y154542D01*
X220774Y154242D02*X221374D01*
X221674Y154542D02*X221374Y154242D01*
X218554Y156642D02*X219754D01*
Y155442D02*Y156642D01*
Y155442D02*X219454Y155742D01*
X218854D02*X219454D01*
X218854D02*X218554Y155442D01*
Y154542D02*Y155442D01*
X218854Y154242D02*X218554Y154542D01*
X218854Y154242D02*X219454D01*
X219754Y154542D02*X219454Y154242D01*
X244301Y152082D02*X245081D01*
X245501Y152502D02*X245081Y152082D01*
X245501Y152502D02*Y154062D01*
X245081Y154482D01*
X244301D02*X245081D01*
X243581Y154002D02*X243101Y154482D01*
Y152082D02*Y154482D01*
X242681Y152082D02*X243581D01*
X240761Y154482D02*X241961D01*
Y153282D02*Y154482D01*
Y153282D02*X241661Y153582D01*
X241061D02*X241661D01*
X241061D02*X240761Y153282D01*
Y152382D02*Y153282D01*
X241061Y152082D02*X240761Y152382D01*
X241061Y152082D02*X241661D01*
X241961Y152382D02*X241661Y152082D01*
X239141Y154482D02*X238841Y154182D01*
X239141Y154482D02*X239741D01*
X240041Y154182D02*X239741Y154482D01*
X240041Y152382D02*Y154182D01*
Y152382D02*X239741Y152082D01*
X239141Y153402D02*X238841Y153102D01*
X239141Y153402D02*X240041D01*
X239141Y152082D02*X239741D01*
X239141D02*X238841Y152382D01*
Y153102D01*
X200069Y199404D02*X200849D01*
X201269Y199824D02*X200849Y199404D01*
X201269Y199824D02*Y201384D01*
X200849Y201804D01*
X200069D02*X200849D01*
X199349Y201324D02*X198869Y201804D01*
Y199404D02*Y201804D01*
X198449Y199404D02*X199349D01*
X196529Y201804D02*X197729D01*
Y200604D02*Y201804D01*
Y200604D02*X197429Y200904D01*
X196829D02*X197429D01*
X196829D02*X196529Y200604D01*
Y199704D02*Y200604D01*
X196829Y199404D02*X196529Y199704D01*
X196829Y199404D02*X197429D01*
X197729Y199704D02*X197429Y199404D01*
X195509D02*X194309Y201804D01*
X195809D01*
X199923Y210604D02*X200703D01*
X201123Y211024D02*X200703Y210604D01*
X201123Y211024D02*Y212584D01*
X200703Y213004D01*
X199923D02*X200703D01*
X199203Y212524D02*X198723Y213004D01*
Y210604D02*Y213004D01*
X198303Y210604D02*X199203D01*
X196383Y213004D02*X197583D01*
Y211804D02*Y213004D01*
Y211804D02*X197283Y212104D01*
X196683D02*X197283D01*
X196683D02*X196383Y211804D01*
Y210904D02*Y211804D01*
X196683Y210604D02*X196383Y210904D01*
X196683Y210604D02*X197283D01*
X197583Y210904D02*X197283Y210604D01*
X195363D02*X194463Y211804D01*
Y212704D01*
X194763Y213004D02*X194463Y212704D01*
X194763Y213004D02*X195363D01*
X195663Y212704D02*X195363Y213004D01*
X195663Y212104D02*Y212704D01*
Y212104D02*X195363Y211804D01*
X194463D02*X195363D01*
X199945Y184463D02*X200725D01*
X201145Y184883D02*X200725Y184463D01*
X201145Y184883D02*Y186443D01*
X200725Y186863D01*
X199945D02*X200725D01*
X199225Y186383D02*X198745Y186863D01*
Y184463D02*Y186863D01*
X198325Y184463D02*X199225D01*
X196705Y186863D02*X196405Y186563D01*
X196705Y186863D02*X197305D01*
X197605Y186563D02*X197305Y186863D01*
X197605Y184763D02*Y186563D01*
Y184763D02*X197305Y184463D01*
X196705Y185783D02*X196405Y185483D01*
X196705Y185783D02*X197605D01*
X196705Y184463D02*X197305D01*
X196705D02*X196405Y184763D01*
Y185483D01*
X195685Y184763D02*X195385Y184463D01*
X195685Y184763D02*Y186563D01*
X195385Y186863D01*
X194785D02*X195385D01*
X194785D02*X194485Y186563D01*
Y184763D02*Y186563D01*
X194785Y184463D02*X194485Y184763D01*
X194785Y184463D02*X195385D01*
X195685Y185063D02*X194485Y186263D01*
X215335Y216710D02*X216115D01*
X216535Y217130D02*X216115Y216710D01*
X216535Y217130D02*Y218690D01*
X216115Y219110D01*
X215335D02*X216115D01*
X214615Y218630D02*X214135Y219110D01*
Y216710D02*Y219110D01*
X213715Y216710D02*X214615D01*
X212995Y217610D02*X211795Y219110D01*
X211495Y217610D02*X212995D01*
X211795Y216710D02*Y219110D01*
X210475Y216710D02*X209275Y219110D01*
X210775D01*
X232398Y210850D02*X233178D01*
X233598Y211270D02*X233178Y210850D01*
X233598Y211270D02*Y212830D01*
X233178Y213250D01*
X232398D02*X233178D01*
X231678Y212770D02*X231198Y213250D01*
Y210850D02*Y213250D01*
X230778Y210850D02*X231678D01*
X230058Y211750D02*X228858Y213250D01*
X228558Y211750D02*X230058D01*
X228858Y210850D02*Y213250D01*
X227838Y212950D02*X227538Y213250D01*
X226938D02*X227538D01*
X226938D02*X226638Y212950D01*
X226938Y210850D02*X226638Y211150D01*
X226938Y210850D02*X227538D01*
X227838Y211150D02*X227538Y210850D01*
X226938Y212170D02*X227538D01*
X226638Y212470D02*Y212950D01*
Y211150D02*Y211870D01*
X226938Y212170D01*
X226638Y212470D02*X226938Y212170D01*
X277796Y159666D02*X278576D01*
X278996Y160086D02*X278576Y159666D01*
X278996Y160086D02*Y161646D01*
X278576Y162066D01*
X277796D02*X278576D01*
X277076Y161586D02*X276596Y162066D01*
Y159666D02*Y162066D01*
X276176Y159666D02*X277076D01*
X274256Y162066D02*X275456D01*
Y160866D02*Y162066D01*
Y160866D02*X275156Y161166D01*
X274556D02*X275156D01*
X274556D02*X274256Y160866D01*
Y159966D02*Y160866D01*
X274556Y159666D02*X274256Y159966D01*
X274556Y159666D02*X275156D01*
X275456Y159966D02*X275156Y159666D01*
X273536Y160566D02*X272336Y162066D01*
X272036Y160566D02*X273536D01*
X272336Y159666D02*Y162066D01*
X252919Y152336D02*X253699D01*
X254119Y152756D02*X253699Y152336D01*
X254119Y152756D02*Y154316D01*
X253699Y154736D01*
X252919D02*X253699D01*
X252199Y154256D02*X251719Y154736D01*
Y152336D02*Y154736D01*
X251299Y152336D02*X252199D01*
X249379Y154736D02*X250579D01*
Y153536D02*Y154736D01*
Y153536D02*X250279Y153836D01*
X249679D02*X250279D01*
X249679D02*X249379Y153536D01*
Y152636D02*Y153536D01*
X249679Y152336D02*X249379Y152636D01*
X249679Y152336D02*X250279D01*
X250579Y152636D02*X250279Y152336D01*
X248659Y154436D02*X248359Y154736D01*
X247759D02*X248359D01*
X247759D02*X247459Y154436D01*
X247759Y152336D02*X247459Y152636D01*
X247759Y152336D02*X248359D01*
X248659Y152636D02*X248359Y152336D01*
X247759Y153656D02*X248359D01*
X247459Y153956D02*Y154436D01*
Y152636D02*Y153356D01*
X247759Y153656D01*
X247459Y153956D02*X247759Y153656D01*
X242054Y186407D02*X242834D01*
X243254Y186827D02*X242834Y186407D01*
X243254Y186827D02*Y188387D01*
X242834Y188807D01*
X242054D02*X242834D01*
X241334Y188327D02*X240854Y188807D01*
Y186407D02*Y188807D01*
X240434Y186407D02*X241334D01*
X239714Y187307D02*X238514Y188807D01*
X238214Y187307D02*X239714D01*
X238514Y186407D02*Y188807D01*
X237494Y188507D02*X237194Y188807D01*
X236294D02*X237194D01*
X236294D02*X235994Y188507D01*
Y187907D02*Y188507D01*
X237494Y186407D02*X235994Y187907D01*
Y186407D02*X237494D01*
X223865Y78834D02*X224645D01*
X225065Y79254D02*X224645Y78834D01*
X225065Y79254D02*Y80814D01*
X224645Y81234D01*
X223865D02*X224645D01*
X223145Y80754D02*X222665Y81234D01*
Y78834D02*Y81234D01*
X222245Y78834D02*X223145D01*
X221525Y79134D02*X221225Y78834D01*
X221525Y79134D02*Y79614D01*
X221105Y80034D01*
X220745D02*X221105D01*
X220745D02*X220325Y79614D01*
Y79134D02*Y79614D01*
X220625Y78834D02*X220325Y79134D01*
X220625Y78834D02*X221225D01*
X221525Y80454D02*X221105Y80034D01*
X221525Y80454D02*Y80934D01*
X221225Y81234D01*
X220625D02*X221225D01*
X220625D02*X220325Y80934D01*
Y80454D02*Y80934D01*
X220745Y80034D02*X220325Y80454D01*
X219605Y80934D02*X219305Y81234D01*
X218405D02*X219305D01*
X218405D02*X218105Y80934D01*
Y80334D02*Y80934D01*
X219605Y78834D02*X218105Y80334D01*
Y78834D02*X219605D01*
X229214Y102322D02*X229994D01*
X230414Y102742D02*X229994Y102322D01*
X230414Y102742D02*Y104302D01*
X229994Y104722D01*
X229214D02*X229994D01*
X228494Y104242D02*X228014Y104722D01*
Y102322D02*Y104722D01*
X227594Y102322D02*X228494D01*
X226874Y102622D02*X226574Y102322D01*
X226874Y102622D02*Y103102D01*
X226454Y103522D01*
X226094D02*X226454D01*
X226094D02*X225674Y103102D01*
Y102622D02*Y103102D01*
X225974Y102322D02*X225674Y102622D01*
X225974Y102322D02*X226574D01*
X226874Y103942D02*X226454Y103522D01*
X226874Y103942D02*Y104422D01*
X226574Y104722D01*
X225974D02*X226574D01*
X225974D02*X225674Y104422D01*
Y103942D02*Y104422D01*
X226094Y103522D02*X225674Y103942D01*
X224954Y102622D02*X224654Y102322D01*
X224954Y102622D02*Y103102D01*
X224534Y103522D01*
X224174D02*X224534D01*
X224174D02*X223754Y103102D01*
Y102622D02*Y103102D01*
X224054Y102322D02*X223754Y102622D01*
X224054Y102322D02*X224654D01*
X224954Y103942D02*X224534Y103522D01*
X224954Y103942D02*Y104422D01*
X224654Y104722D01*
X224054D02*X224654D01*
X224054D02*X223754Y104422D01*
Y103942D02*Y104422D01*
X224174Y103522D02*X223754Y103942D01*
X223926Y91914D02*X224706D01*
X225126Y92334D02*X224706Y91914D01*
X225126Y92334D02*Y93894D01*
X224706Y94314D01*
X223926D02*X224706D01*
X223206Y93834D02*X222726Y94314D01*
Y91914D02*Y94314D01*
X222306Y91914D02*X223206D01*
X221286D02*X220386Y93114D01*
Y94014D01*
X220686Y94314D02*X220386Y94014D01*
X220686Y94314D02*X221286D01*
X221586Y94014D02*X221286Y94314D01*
X221586Y93414D02*Y94014D01*
Y93414D02*X221286Y93114D01*
X220386D02*X221286D01*
X219666Y92214D02*X219366Y91914D01*
X219666Y92214D02*Y94014D01*
X219366Y94314D01*
X218766D02*X219366D01*
X218766D02*X218466Y94014D01*
Y92214D02*Y94014D01*
X218766Y91914D02*X218466Y92214D01*
X218766Y91914D02*X219366D01*
X219666Y92514D02*X218466Y93714D01*
X221843Y116113D02*X222623D01*
X223043Y116533D02*X222623Y116113D01*
X223043Y116533D02*Y118093D01*
X222623Y118513D01*
X221843D02*X222623D01*
X221123Y118033D02*X220643Y118513D01*
Y116113D02*Y118513D01*
X220223Y116113D02*X221123D01*
X219203D02*X218303Y117313D01*
Y118213D01*
X218603Y118513D02*X218303Y118213D01*
X218603Y118513D02*X219203D01*
X219503Y118213D02*X219203Y118513D01*
X219503Y117613D02*Y118213D01*
Y117613D02*X219203Y117313D01*
X218303D02*X219203D01*
X217583Y118213D02*X217283Y118513D01*
X216683D02*X217283D01*
X216683D02*X216383Y118213D01*
X216683Y116113D02*X216383Y116413D01*
X216683Y116113D02*X217283D01*
X217583Y116413D02*X217283Y116113D01*
X216683Y117433D02*X217283D01*
X216383Y117733D02*Y118213D01*
Y116413D02*Y117133D01*
X216683Y117433D01*
X216383Y117733D02*X216683Y117433D01*
X205211Y229600D02*X205991D01*
X206411Y230020D02*X205991Y229600D01*
X206411Y230020D02*Y231580D01*
X205991Y232000D01*
X205211D02*X205991D01*
X204491Y231520D02*X204011Y232000D01*
Y229600D02*Y232000D01*
X203591Y229600D02*X204491D01*
X201671Y232000D02*X202871D01*
Y230800D02*Y232000D01*
Y230800D02*X202571Y231100D01*
X201971D02*X202571D01*
X201971D02*X201671Y230800D01*
Y229900D02*Y230800D01*
X201971Y229600D02*X201671Y229900D01*
X201971Y229600D02*X202571D01*
X202871Y229900D02*X202571Y229600D01*
X200951Y229900D02*X200651Y229600D01*
X200951Y229900D02*Y231700D01*
X200651Y232000D01*
X200051D02*X200651D01*
X200051D02*X199751Y231700D01*
Y229900D02*Y231700D01*
X200051Y229600D02*X199751Y229900D01*
X200051Y229600D02*X200651D01*
X200951Y230200D02*X199751Y231400D01*
X227377Y231074D02*X228157D01*
X228577Y231494D02*X228157Y231074D01*
X228577Y231494D02*Y233054D01*
X228157Y233474D01*
X227377D02*X228157D01*
X226657Y232994D02*X226177Y233474D01*
Y231074D02*Y233474D01*
X225757Y231074D02*X226657D01*
X223837Y233474D02*X225037D01*
Y232274D02*Y233474D01*
Y232274D02*X224737Y232574D01*
X224137D02*X224737D01*
X224137D02*X223837Y232274D01*
Y231374D02*Y232274D01*
X224137Y231074D02*X223837Y231374D01*
X224137Y231074D02*X224737D01*
X225037Y231374D02*X224737Y231074D01*
X223117Y232994D02*X222637Y233474D01*
Y231074D02*Y233474D01*
X222217Y231074D02*X223117D01*
X224933Y178536D02*X225713D01*
X226133Y178956D02*X225713Y178536D01*
X226133Y178956D02*Y180516D01*
X225713Y180936D01*
X224933D02*X225713D01*
X224213Y180456D02*X223733Y180936D01*
Y178536D02*Y180936D01*
X223313Y178536D02*X224213D01*
X222593Y179436D02*X221393Y180936D01*
X221093Y179436D02*X222593D01*
X221393Y178536D02*Y180936D01*
X219173D02*X220373D01*
Y179736D02*Y180936D01*
Y179736D02*X220073Y180036D01*
X219473D02*X220073D01*
X219473D02*X219173Y179736D01*
Y178836D02*Y179736D01*
X219473Y178536D02*X219173Y178836D01*
X219473Y178536D02*X220073D01*
X220373Y178836D02*X220073Y178536D01*
X225013Y190997D02*X225793D01*
X226213Y191417D02*X225793Y190997D01*
X226213Y191417D02*Y192977D01*
X225793Y193397D01*
X225013D02*X225793D01*
X224293Y192917D02*X223813Y193397D01*
Y190997D02*Y193397D01*
X223393Y190997D02*X224293D01*
X222673Y191897D02*X221473Y193397D01*
X221173Y191897D02*X222673D01*
X221473Y190997D02*Y193397D01*
X219553D02*X219253Y193097D01*
X219553Y193397D02*X220153D01*
X220453Y193097D02*X220153Y193397D01*
X220453Y191297D02*Y193097D01*
Y191297D02*X220153Y190997D01*
X219553Y192317D02*X219253Y192017D01*
X219553Y192317D02*X220453D01*
X219553Y190997D02*X220153D01*
X219553D02*X219253Y191297D01*
Y192017D01*
X229056Y204670D02*X229836D01*
X230256Y205090D02*X229836Y204670D01*
X230256Y205090D02*Y206650D01*
X229836Y207070D01*
X229056D02*X229836D01*
X228336Y206590D02*X227856Y207070D01*
Y204670D02*Y207070D01*
X227436Y204670D02*X228336D01*
X225816Y207070D02*X225516Y206770D01*
X225816Y207070D02*X226416D01*
X226716Y206770D02*X226416Y207070D01*
X226716Y204970D02*Y206770D01*
Y204970D02*X226416Y204670D01*
X225816Y205990D02*X225516Y205690D01*
X225816Y205990D02*X226716D01*
X225816Y204670D02*X226416D01*
X225816D02*X225516Y204970D01*
Y205690D01*
X224796Y206770D02*X224496Y207070D01*
X223596D02*X224496D01*
X223596D02*X223296Y206770D01*
Y206170D02*Y206770D01*
X224796Y204670D02*X223296Y206170D01*
Y204670D02*X224796D01*
X215428Y229491D02*X216208D01*
X216628Y229911D02*X216208Y229491D01*
X216628Y229911D02*Y231471D01*
X216208Y231891D01*
X215428D02*X216208D01*
X214708Y231411D02*X214228Y231891D01*
Y229491D02*Y231891D01*
X213808Y229491D02*X214708D01*
X211888Y231891D02*X213088D01*
Y230691D02*Y231891D01*
Y230691D02*X212788Y230991D01*
X212188D02*X212788D01*
X212188D02*X211888Y230691D01*
Y229791D02*Y230691D01*
X212188Y229491D02*X211888Y229791D01*
X212188Y229491D02*X212788D01*
X213088Y229791D02*X212788Y229491D01*
X211168Y231591D02*X210868Y231891D01*
X209968D02*X210868D01*
X209968D02*X209668Y231591D01*
Y230991D02*Y231591D01*
X211168Y229491D02*X209668Y230991D01*
Y229491D02*X211168D01*
M02*
