G04 start of page 11 for group -4078 idx -4078 *
G04 Title: (unknown), bottomsilk *
G04 Creator: pcb 20140316 *
G04 CreationDate: Sun 18 May 2014 07:11:50 AM GMT UTC *
G04 For: pmonta *
G04 Format: Gerber/RS-274X *
G04 PCB-Dimensions (mil): 4200.00 3400.00 *
G04 PCB-Coordinate-Origin: lower left *
%MOIN*%
%FSLAX25Y25*%
%LNBOTTOMSILK*%
%ADD204C,0.0050*%
%ADD203C,0.0080*%
G54D203*X303907Y111645D02*X304693D01*
X303907Y117155D02*X304693D01*
X256755Y230519D02*Y229733D01*
X251245Y230519D02*Y229733D01*
X274633Y187445D02*X275419D01*
X274633Y192955D02*X275419D01*
X274007Y170445D02*X274793D01*
X274007Y175955D02*X274793D01*
X248333Y189645D02*X249119D01*
X248333Y195155D02*X249119D01*
X219324Y176555D02*X220110D01*
X219324Y171045D02*X220110D01*
X225324Y218555D02*X226110D01*
X225324Y213045D02*X226110D01*
X229807Y118745D02*X230593D01*
X229807Y124255D02*X230593D01*
G54D204*X118700Y323600D02*X121100D01*
X118700Y322400D02*Y323600D01*
X119780Y322700D02*Y323600D01*
X121100Y320480D02*Y321680D01*
Y320480D02*X120800Y320180D01*
X120080D02*X120800D01*
X119780Y320480D02*X120080Y320180D01*
X119780Y320480D02*Y321380D01*
X118700D02*X121100D01*
X118700Y320480D02*Y321680D01*
Y320480D02*X119000Y320180D01*
X119480D01*
X119780Y320480D02*X119480Y320180D01*
X119180Y319460D02*X118700Y318980D01*
X121100D01*
Y318560D02*Y319460D01*
X119180Y317840D02*X118700Y317360D01*
X121100D01*
Y316940D02*Y317840D01*
X119500Y247500D02*Y249900D01*
X118300D02*X119500D01*
X118600Y248820D02*X119500D01*
X116380Y247500D02*X117580D01*
X116380D02*X116080Y247800D01*
Y248520D01*
X116380Y248820D02*X116080Y248520D01*
X116380Y248820D02*X117280D01*
Y247500D02*Y249900D01*
X116380D02*X117580D01*
X116380D02*X116080Y249600D01*
Y249120D02*Y249600D01*
X116380Y248820D02*X116080Y249120D01*
X115360Y249420D02*X114880Y249900D01*
Y247500D02*Y249900D01*
X114460Y247500D02*X115360D01*
X113740Y249600D02*X113440Y249900D01*
X112540D02*X113440D01*
X112540D02*X112240Y249600D01*
Y249000D02*Y249600D01*
X113740Y247500D02*X112240Y249000D01*
Y247500D02*X113740D01*
X118600Y196300D02*X121000D01*
X118600Y195100D02*Y196300D01*
X119680Y195400D02*Y196300D01*
X121000Y193180D02*Y194380D01*
Y193180D02*X120700Y192880D01*
X119980D02*X120700D01*
X119680Y193180D02*X119980Y192880D01*
X119680Y193180D02*Y194080D01*
X118600D02*X121000D01*
X118600Y193180D02*Y194380D01*
Y193180D02*X118900Y192880D01*
X119380D01*
X119680Y193180D02*X119380Y192880D01*
X119080Y192160D02*X118600Y191680D01*
X121000D01*
Y191260D02*Y192160D01*
X118900Y190540D02*X118600Y190240D01*
Y189640D02*Y190240D01*
Y189640D02*X118900Y189340D01*
X121000Y189640D02*X120700Y189340D01*
X121000Y189640D02*Y190240D01*
X120700Y190540D02*X121000Y190240D01*
X119680Y189640D02*Y190240D01*
X118900Y189340D02*X119380D01*
X119980D02*X120700D01*
X119980D02*X119680Y189640D01*
X119380Y189340D02*X119680Y189640D01*
X120300Y77600D02*Y80000D01*
X119100D02*X120300D01*
X119400Y78920D02*X120300D01*
X117180Y77600D02*X118380D01*
X117180D02*X116880Y77900D01*
Y78620D01*
X117180Y78920D02*X116880Y78620D01*
X117180Y78920D02*X118080D01*
Y77600D02*Y80000D01*
X117180D02*X118380D01*
X117180D02*X116880Y79700D01*
Y79220D02*Y79700D01*
X117180Y78920D02*X116880Y79220D01*
X115860Y77600D02*X114960Y78800D01*
Y79700D01*
X115260Y80000D02*X114960Y79700D01*
X115260Y80000D02*X115860D01*
X116160Y79700D02*X115860Y80000D01*
X116160Y79100D02*Y79700D01*
Y79100D02*X115860Y78800D01*
X114960D02*X115860D01*
X140178Y15826D02*Y18226D01*
X138978D02*X140178D01*
X139278Y17146D02*X140178D01*
X137058Y15826D02*X138258D01*
X137058D02*X136758Y16126D01*
Y16846D01*
X137058Y17146D02*X136758Y16846D01*
X137058Y17146D02*X137958D01*
Y15826D02*Y18226D01*
X137058D02*X138258D01*
X137058D02*X136758Y17926D01*
Y17446D02*Y17926D01*
X137058Y17146D02*X136758Y17446D01*
X134838Y18226D02*X136038D01*
Y17026D02*Y18226D01*
Y17026D02*X135738Y17326D01*
X135138D02*X135738D01*
X135138D02*X134838Y17026D01*
Y16126D02*Y17026D01*
X135138Y15826D02*X134838Y16126D01*
X135138Y15826D02*X135738D01*
X136038Y16126D02*X135738Y15826D01*
X136626Y18026D02*Y20426D01*
X135426D02*X136626D01*
X135726Y19346D02*X136626D01*
X133506Y18026D02*X134706D01*
X133506D02*X133206Y18326D01*
Y19046D01*
X133506Y19346D02*X133206Y19046D01*
X133506Y19346D02*X134406D01*
Y18026D02*Y20426D01*
X133506D02*X134706D01*
X133506D02*X133206Y20126D01*
Y19646D02*Y20126D01*
X133506Y19346D02*X133206Y19646D01*
X132486Y18926D02*X131286Y20426D01*
X130986Y18926D02*X132486D01*
X131286Y18026D02*Y20426D01*
X316400Y301352D02*X317180D01*
X317600Y301772D02*X317180Y301352D01*
X317600Y301772D02*Y303332D01*
X317180Y303752D01*
X316400D02*X317180D01*
X315680Y303272D02*X315200Y303752D01*
Y301352D02*Y303752D01*
X314780Y301352D02*X315680D01*
X313760D02*X312860Y302552D01*
Y303452D01*
X313160Y303752D02*X312860Y303452D01*
X313160Y303752D02*X313760D01*
X314060Y303452D02*X313760Y303752D01*
X314060Y302852D02*Y303452D01*
Y302852D02*X313760Y302552D01*
X312860D02*X313760D01*
X311840Y301352D02*X310940Y302552D01*
Y303452D01*
X311240Y303752D02*X310940Y303452D01*
X311240Y303752D02*X311840D01*
X312140Y303452D02*X311840Y303752D01*
X312140Y302852D02*Y303452D01*
Y302852D02*X311840Y302552D01*
X310940D02*X311840D01*
X272400Y301274D02*X273180D01*
X273600Y301694D02*X273180Y301274D01*
X273600Y301694D02*Y303254D01*
X273180Y303674D01*
X272400D02*X273180D01*
X271680Y303194D02*X271200Y303674D01*
Y301274D02*Y303674D01*
X270780Y301274D02*X271680D01*
X269760D02*X268860Y302474D01*
Y303374D01*
X269160Y303674D02*X268860Y303374D01*
X269160Y303674D02*X269760D01*
X270060Y303374D02*X269760Y303674D01*
X270060Y302774D02*Y303374D01*
Y302774D02*X269760Y302474D01*
X268860D02*X269760D01*
X267840Y301274D02*X266640Y303674D01*
X268140D01*
X297870Y105050D02*X298650D01*
X297450Y104630D02*X297870Y105050D01*
X297450Y103070D02*Y104630D01*
Y103070D02*X297870Y102650D01*
X298650D01*
X299370Y102950D02*X299670Y102650D01*
X300570D01*
X300870Y102950D01*
Y103550D01*
X299370Y105050D02*X300870Y103550D01*
X299370Y105050D02*X300870D01*
X301590Y102950D02*X301890Y102650D01*
X302790D01*
X303090Y102950D01*
Y103550D01*
X301590Y105050D02*X303090Y103550D01*
X301590Y105050D02*X303090D01*
X304110D02*X305310Y102650D01*
X303810D02*X305310D01*
X295650Y116350D02*X298050D01*
X295650Y115150D02*Y116350D01*
X296730Y115450D02*Y116350D01*
X298050Y113230D02*Y114430D01*
Y113230D02*X297750Y112930D01*
X297030D02*X297750D01*
X296730Y113230D02*X297030Y112930D01*
X296730Y113230D02*Y114130D01*
X295650D02*X298050D01*
X295650Y113230D02*Y114430D01*
Y113230D02*X295950Y112930D01*
X296430D01*
X296730Y113230D02*X296430Y112930D01*
X295950Y112210D02*X295650Y111910D01*
Y111310D02*Y111910D01*
Y111310D02*X295950Y111010D01*
X298050Y111310D02*X297750Y111010D01*
X298050Y111310D02*Y111910D01*
X297750Y112210D02*X298050Y111910D01*
X296730Y111310D02*Y111910D01*
X295950Y111010D02*X296430D01*
X297030D02*X297750D01*
X297030D02*X296730Y111310D01*
X296430Y111010D02*X296730Y111310D01*
X271376Y239820D02*X272156D01*
X272576Y240240D02*X272156Y239820D01*
X272576Y240240D02*Y241800D01*
X272156Y242220D01*
X271376D02*X272156D01*
X270656Y241740D02*X270176Y242220D01*
Y239820D02*Y242220D01*
X269756Y239820D02*X270656D01*
X268136Y242220D02*X267836Y241920D01*
X268136Y242220D02*X268736D01*
X269036Y241920D02*X268736Y242220D01*
X269036Y240120D02*Y241920D01*
Y240120D02*X268736Y239820D01*
X268136Y241140D02*X267836Y240840D01*
X268136Y241140D02*X269036D01*
X268136Y239820D02*X268736D01*
X268136D02*X267836Y240120D01*
Y240840D01*
X267116Y241920D02*X266816Y242220D01*
X266216D02*X266816D01*
X266216D02*X265916Y241920D01*
X266216Y239820D02*X265916Y240120D01*
X266216Y239820D02*X266816D01*
X267116Y240120D02*X266816Y239820D01*
X266216Y241140D02*X266816D01*
X265916Y241440D02*Y241920D01*
Y240120D02*Y240840D01*
X266216Y241140D01*
X265916Y241440D02*X266216Y241140D01*
X262928Y241474D02*X263708D01*
X264128Y241894D02*X263708Y241474D01*
X264128Y241894D02*Y243454D01*
X263708Y243874D01*
X262928D02*X263708D01*
X262208Y243394D02*X261728Y243874D01*
Y241474D02*Y243874D01*
X261308Y241474D02*X262208D01*
X259688Y243874D02*X259388Y243574D01*
X259688Y243874D02*X260288D01*
X260588Y243574D02*X260288Y243874D01*
X260588Y241774D02*Y243574D01*
Y241774D02*X260288Y241474D01*
X259688Y242794D02*X259388Y242494D01*
X259688Y242794D02*X260588D01*
X259688Y241474D02*X260288D01*
X259688D02*X259388Y241774D01*
Y242494D01*
X258668Y243394D02*X258188Y243874D01*
Y241474D02*Y243874D01*
X257768Y241474D02*X258668D01*
X318159Y112400D02*X318939D01*
X319359Y112820D02*X318939Y112400D01*
X319359Y112820D02*Y114380D01*
X318939Y114800D01*
X318159D02*X318939D01*
X317439Y114500D02*X317139Y114800D01*
X316239D02*X317139D01*
X316239D02*X315939Y114500D01*
Y113900D02*Y114500D01*
X317439Y112400D02*X315939Y113900D01*
Y112400D02*X317439D01*
X315219Y114500D02*X314919Y114800D01*
X314019D02*X314919D01*
X314019D02*X313719Y114500D01*
Y113900D02*Y114500D01*
X315219Y112400D02*X313719Y113900D01*
Y112400D02*X315219D01*
X312099Y114800D02*X311799Y114500D01*
X312099Y114800D02*X312699D01*
X312999Y114500D02*X312699Y114800D01*
X312999Y112700D02*Y114500D01*
Y112700D02*X312699Y112400D01*
X312099Y113720D02*X311799Y113420D01*
X312099Y113720D02*X312999D01*
X312099Y112400D02*X312699D01*
X312099D02*X311799Y112700D01*
Y113420D01*
X290788Y232649D02*X291568D01*
X291988Y233069D02*X291568Y232649D01*
X291988Y233069D02*Y234629D01*
X291568Y235049D01*
X290788D02*X291568D01*
X290068Y234569D02*X289588Y235049D01*
Y232649D02*Y235049D01*
X289168Y232649D02*X290068D01*
X287548Y235049D02*X287248Y234749D01*
X287548Y235049D02*X288148D01*
X288448Y234749D02*X288148Y235049D01*
X288448Y232949D02*Y234749D01*
Y232949D02*X288148Y232649D01*
X287548Y233969D02*X287248Y233669D01*
X287548Y233969D02*X288448D01*
X287548Y232649D02*X288148D01*
X287548D02*X287248Y232949D01*
Y233669D01*
X286528Y233549D02*X285328Y235049D01*
X285028Y233549D02*X286528D01*
X285328Y232649D02*Y235049D01*
X258091Y220069D02*X258871D01*
X259291Y220489D02*X258871Y220069D01*
X259291Y220489D02*Y222049D01*
X258871Y222469D01*
X258091D02*X258871D01*
X257371Y221989D02*X256891Y222469D01*
Y220069D02*Y222469D01*
X256471Y220069D02*X257371D01*
X255751Y220969D02*X254551Y222469D01*
X254251Y220969D02*X255751D01*
X254551Y220069D02*Y222469D01*
X253531Y220369D02*X253231Y220069D01*
X253531Y220369D02*Y220849D01*
X253111Y221269D01*
X252751D02*X253111D01*
X252751D02*X252331Y220849D01*
Y220369D02*Y220849D01*
X252631Y220069D02*X252331Y220369D01*
X252631Y220069D02*X253231D01*
X253531Y221689D02*X253111Y221269D01*
X253531Y221689D02*Y222169D01*
X253231Y222469D01*
X252631D02*X253231D01*
X252631D02*X252331Y222169D01*
Y221689D02*Y222169D01*
X252751Y221269D02*X252331Y221689D01*
X290486Y221966D02*X291266D01*
X291686Y222386D02*X291266Y221966D01*
X291686Y222386D02*Y223946D01*
X291266Y224366D01*
X290486D02*X291266D01*
X289766Y223886D02*X289286Y224366D01*
Y221966D02*Y224366D01*
X288866Y221966D02*X289766D01*
X287246Y224366D02*X286946Y224066D01*
X287246Y224366D02*X287846D01*
X288146Y224066D02*X287846Y224366D01*
X288146Y222266D02*Y224066D01*
Y222266D02*X287846Y221966D01*
X287246Y223286D02*X286946Y222986D01*
X287246Y223286D02*X288146D01*
X287246Y221966D02*X287846D01*
X287246D02*X286946Y222266D01*
Y222986D01*
X285026Y224366D02*X286226D01*
Y223166D02*Y224366D01*
Y223166D02*X285926Y223466D01*
X285326D02*X285926D01*
X285326D02*X285026Y223166D01*
Y222266D02*Y223166D01*
X285326Y221966D02*X285026Y222266D01*
X285326Y221966D02*X285926D01*
X286226Y222266D02*X285926Y221966D01*
X288490Y196491D02*X289270D01*
X289690Y196911D02*X289270Y196491D01*
X289690Y196911D02*Y198471D01*
X289270Y198891D01*
X288490D02*X289270D01*
X287770Y198411D02*X287290Y198891D01*
Y196491D02*Y198891D01*
X286870Y196491D02*X287770D01*
X286150Y197391D02*X284950Y198891D01*
X284650Y197391D02*X286150D01*
X284950Y196491D02*Y198891D01*
X283630Y196491D02*X282730Y197691D01*
Y198591D01*
X283030Y198891D02*X282730Y198591D01*
X283030Y198891D02*X283630D01*
X283930Y198591D02*X283630Y198891D01*
X283930Y197991D02*Y198591D01*
Y197991D02*X283630Y197691D01*
X282730D02*X283630D01*
X266379Y198763D02*X267159D01*
X267579Y199183D02*X267159Y198763D01*
X267579Y199183D02*Y200743D01*
X267159Y201163D01*
X266379D02*X267159D01*
X265659Y200683D02*X265179Y201163D01*
Y198763D02*Y201163D01*
X264759Y198763D02*X265659D01*
X264039Y199663D02*X262839Y201163D01*
X262539Y199663D02*X264039D01*
X262839Y198763D02*Y201163D01*
X261819Y200683D02*X261339Y201163D01*
Y198763D02*Y201163D01*
X260919Y198763D02*X261819D01*
X295370Y85550D02*X296150D01*
X294950Y85130D02*X295370Y85550D01*
X294950Y83570D02*Y85130D01*
Y83570D02*X295370Y83150D01*
X296150D01*
X296870Y83450D02*X297170Y83150D01*
X298070D01*
X298370Y83450D01*
Y84050D01*
X296870Y85550D02*X298370Y84050D01*
X296870Y85550D02*X298370D01*
X299090Y83450D02*X299390Y83150D01*
X300290D01*
X300590Y83450D01*
Y84050D01*
X299090Y85550D02*X300590Y84050D01*
X299090Y85550D02*X300590D01*
X301310Y85250D02*X301610Y85550D01*
X301310Y84770D02*Y85250D01*
Y84770D02*X301730Y84350D01*
X302090D01*
X302510Y84770D01*
Y85250D01*
X302210Y85550D02*X302510Y85250D01*
X301610Y85550D02*X302210D01*
X301310Y83930D02*X301730Y84350D01*
X301310Y83450D02*Y83930D01*
Y83450D02*X301610Y83150D01*
X302210D01*
X302510Y83450D01*
Y83930D01*
X302090Y84350D02*X302510Y83930D01*
X287796Y169666D02*X288576D01*
X288996Y170086D02*X288576Y169666D01*
X288996Y170086D02*Y171646D01*
X288576Y172066D01*
X287796D02*X288576D01*
X287076Y171586D02*X286596Y172066D01*
Y169666D02*Y172066D01*
X286176Y169666D02*X287076D01*
X284256Y172066D02*X285456D01*
Y170866D02*Y172066D01*
Y170866D02*X285156Y171166D01*
X284556D02*X285156D01*
X284556D02*X284256Y170866D01*
Y169966D02*Y170866D01*
X284556Y169666D02*X284256Y169966D01*
X284556Y169666D02*X285156D01*
X285456Y169966D02*X285156Y169666D01*
X283536Y170566D02*X282336Y172066D01*
X282036Y170566D02*X283536D01*
X282336Y169666D02*Y172066D01*
X289052Y124292D02*X289832D01*
X290252Y124712D02*X289832Y124292D01*
X290252Y124712D02*Y126272D01*
X289832Y126692D01*
X289052D02*X289832D01*
X288332Y126212D02*X287852Y126692D01*
Y124292D02*Y126692D01*
X287432Y124292D02*X288332D01*
X286712Y124592D02*X286412Y124292D01*
X286712Y124592D02*Y125072D01*
X286292Y125492D01*
X285932D02*X286292D01*
X285932D02*X285512Y125072D01*
Y124592D02*Y125072D01*
X285812Y124292D02*X285512Y124592D01*
X285812Y124292D02*X286412D01*
X286712Y125912D02*X286292Y125492D01*
X286712Y125912D02*Y126392D01*
X286412Y126692D01*
X285812D02*X286412D01*
X285812D02*X285512Y126392D01*
Y125912D02*Y126392D01*
X285932Y125492D02*X285512Y125912D01*
X283592Y126692D02*X284792D01*
Y125492D02*Y126692D01*
Y125492D02*X284492Y125792D01*
X283892D02*X284492D01*
X283892D02*X283592Y125492D01*
Y124592D02*Y125492D01*
X283892Y124292D02*X283592Y124592D01*
X283892Y124292D02*X284492D01*
X284792Y124592D02*X284492Y124292D01*
X266220Y187220D02*X267000D01*
X267420Y187640D02*X267000Y187220D01*
X267420Y187640D02*Y189200D01*
X267000Y189620D01*
X266220D02*X267000D01*
X265500Y189140D02*X265020Y189620D01*
Y187220D02*Y189620D01*
X264600Y187220D02*X265500D01*
X262980Y189620D02*X262680Y189320D01*
X262980Y189620D02*X263580D01*
X263880Y189320D02*X263580Y189620D01*
X263880Y187520D02*Y189320D01*
Y187520D02*X263580Y187220D01*
X262980Y188540D02*X262680Y188240D01*
X262980Y188540D02*X263880D01*
X262980Y187220D02*X263580D01*
X262980D02*X262680Y187520D01*
Y188240D01*
X261060Y189620D02*X260760Y189320D01*
X261060Y189620D02*X261660D01*
X261960Y189320D02*X261660Y189620D01*
X261960Y187520D02*Y189320D01*
Y187520D02*X261660Y187220D01*
X261060Y188540D02*X260760Y188240D01*
X261060Y188540D02*X261960D01*
X261060Y187220D02*X261660D01*
X261060D02*X260760Y187520D01*
Y188240D01*
X275382Y208076D02*X276162D01*
X276582Y208496D02*X276162Y208076D01*
X276582Y208496D02*Y210056D01*
X276162Y210476D01*
X275382D02*X276162D01*
X274662Y209996D02*X274182Y210476D01*
Y208076D02*Y210476D01*
X273762Y208076D02*X274662D01*
X272142Y210476D02*X271842Y210176D01*
X272142Y210476D02*X272742D01*
X273042Y210176D02*X272742Y210476D01*
X273042Y208376D02*Y210176D01*
Y208376D02*X272742Y208076D01*
X272142Y209396D02*X271842Y209096D01*
X272142Y209396D02*X273042D01*
X272142Y208076D02*X272742D01*
X272142D02*X271842Y208376D01*
Y209096D01*
X270822Y208076D02*X269622Y210476D01*
X271122D01*
X276162Y180599D02*X276942D01*
X277362Y181019D02*X276942Y180599D01*
X277362Y181019D02*Y182579D01*
X276942Y182999D01*
X276162D02*X276942D01*
X275442Y182519D02*X274962Y182999D01*
Y180599D02*Y182999D01*
X274542Y180599D02*X275442D01*
X272922Y182999D02*X272622Y182699D01*
X272922Y182999D02*X273522D01*
X273822Y182699D02*X273522Y182999D01*
X273822Y180899D02*Y182699D01*
Y180899D02*X273522Y180599D01*
X272922Y181919D02*X272622Y181619D01*
X272922Y181919D02*X273822D01*
X272922Y180599D02*X273522D01*
X272922D02*X272622Y180899D01*
Y181619D01*
X271902Y180899D02*X271602Y180599D01*
X271902Y180899D02*Y181379D01*
X271482Y181799D01*
X271122D02*X271482D01*
X271122D02*X270702Y181379D01*
Y180899D02*Y181379D01*
X271002Y180599D02*X270702Y180899D01*
X271002Y180599D02*X271602D01*
X271902Y182219D02*X271482Y181799D01*
X271902Y182219D02*Y182699D01*
X271602Y182999D01*
X271002D02*X271602D01*
X271002D02*X270702Y182699D01*
Y182219D02*Y182699D01*
X271122Y181799D02*X270702Y182219D01*
X219721Y167062D02*X220501D01*
X220921Y167482D02*X220501Y167062D01*
X220921Y167482D02*Y169042D01*
X220501Y169462D01*
X219721D02*X220501D01*
X219001Y168982D02*X218521Y169462D01*
Y167062D02*Y169462D01*
X218101Y167062D02*X219001D01*
X216181Y169462D02*X217381D01*
Y168262D02*Y169462D01*
Y168262D02*X217081Y168562D01*
X216481D02*X217081D01*
X216481D02*X216181Y168262D01*
Y167362D02*Y168262D01*
X216481Y167062D02*X216181Y167362D01*
X216481Y167062D02*X217081D01*
X217381Y167362D02*X217081Y167062D01*
X215461Y167362D02*X215161Y167062D01*
X215461Y167362D02*Y167842D01*
X215041Y168262D01*
X214681D02*X215041D01*
X214681D02*X214261Y167842D01*
Y167362D02*Y167842D01*
X214561Y167062D02*X214261Y167362D01*
X214561Y167062D02*X215161D01*
X215461Y168682D02*X215041Y168262D01*
X215461Y168682D02*Y169162D01*
X215161Y169462D01*
X214561D02*X215161D01*
X214561D02*X214261Y169162D01*
Y168682D02*Y169162D01*
X214681Y168262D02*X214261Y168682D01*
X231843Y126113D02*X232623D01*
X233043Y126533D02*X232623Y126113D01*
X233043Y126533D02*Y128093D01*
X232623Y128513D01*
X231843D02*X232623D01*
X231123Y128033D02*X230643Y128513D01*
Y126113D02*Y128513D01*
X230223Y126113D02*X231123D01*
X229203D02*X228303Y127313D01*
Y128213D01*
X228603Y128513D02*X228303Y128213D01*
X228603Y128513D02*X229203D01*
X229503Y128213D02*X229203Y128513D01*
X229503Y127613D02*Y128213D01*
Y127613D02*X229203Y127313D01*
X228303D02*X229203D01*
X227583Y128213D02*X227283Y128513D01*
X226683D02*X227283D01*
X226683D02*X226383Y128213D01*
X226683Y126113D02*X226383Y126413D01*
X226683Y126113D02*X227283D01*
X227583Y126413D02*X227283Y126113D01*
X226683Y127433D02*X227283D01*
X226383Y127733D02*Y128213D01*
Y126413D02*Y127133D01*
X226683Y127433D01*
X226383Y127733D02*X226683Y127433D01*
X253723Y176400D02*X254503D01*
X254923Y176820D02*X254503Y176400D01*
X254923Y176820D02*Y178380D01*
X254503Y178800D01*
X253723D02*X254503D01*
X253003Y178320D02*X252523Y178800D01*
Y176400D02*Y178800D01*
X252103Y176400D02*X253003D01*
X251383Y177300D02*X250183Y178800D01*
X249883Y177300D02*X251383D01*
X250183Y176400D02*Y178800D01*
X249163Y177300D02*X247963Y178800D01*
X247663Y177300D02*X249163D01*
X247963Y176400D02*Y178800D01*
X210069Y209404D02*X210849D01*
X211269Y209824D02*X210849Y209404D01*
X211269Y209824D02*Y211384D01*
X210849Y211804D01*
X210069D02*X210849D01*
X209349Y211324D02*X208869Y211804D01*
Y209404D02*Y211804D01*
X208449Y209404D02*X209349D01*
X206529Y211804D02*X207729D01*
Y210604D02*Y211804D01*
Y210604D02*X207429Y210904D01*
X206829D02*X207429D01*
X206829D02*X206529Y210604D01*
Y209704D02*Y210604D01*
X206829Y209404D02*X206529Y209704D01*
X206829Y209404D02*X207429D01*
X207729Y209704D02*X207429Y209404D01*
X205509D02*X204309Y211804D01*
X205809D01*
X209923Y220604D02*X210703D01*
X211123Y221024D02*X210703Y220604D01*
X211123Y221024D02*Y222584D01*
X210703Y223004D01*
X209923D02*X210703D01*
X209203Y222524D02*X208723Y223004D01*
Y220604D02*Y223004D01*
X208303Y220604D02*X209203D01*
X206383Y223004D02*X207583D01*
Y221804D02*Y223004D01*
Y221804D02*X207283Y222104D01*
X206683D02*X207283D01*
X206683D02*X206383Y221804D01*
Y220904D02*Y221804D01*
X206683Y220604D02*X206383Y220904D01*
X206683Y220604D02*X207283D01*
X207583Y220904D02*X207283Y220604D01*
X205363D02*X204463Y221804D01*
Y222704D01*
X204763Y223004D02*X204463Y222704D01*
X204763Y223004D02*X205363D01*
X205663Y222704D02*X205363Y223004D01*
X205663Y222104D02*Y222704D01*
Y222104D02*X205363Y221804D01*
X204463D02*X205363D01*
X209945Y194463D02*X210725D01*
X211145Y194883D02*X210725Y194463D01*
X211145Y194883D02*Y196443D01*
X210725Y196863D01*
X209945D02*X210725D01*
X209225Y196383D02*X208745Y196863D01*
Y194463D02*Y196863D01*
X208325Y194463D02*X209225D01*
X206705Y196863D02*X206405Y196563D01*
X206705Y196863D02*X207305D01*
X207605Y196563D02*X207305Y196863D01*
X207605Y194763D02*Y196563D01*
Y194763D02*X207305Y194463D01*
X206705Y195783D02*X206405Y195483D01*
X206705Y195783D02*X207605D01*
X206705Y194463D02*X207305D01*
X206705D02*X206405Y194763D01*
Y195483D01*
X205685Y194763D02*X205385Y194463D01*
X205685Y194763D02*Y196563D01*
X205385Y196863D01*
X204785D02*X205385D01*
X204785D02*X204485Y196563D01*
Y194763D02*Y196563D01*
X204785Y194463D02*X204485Y194763D01*
X204785Y194463D02*X205385D01*
X205685Y195063D02*X204485Y196263D01*
X234933Y188536D02*X235713D01*
X236133Y188956D02*X235713Y188536D01*
X236133Y188956D02*Y190516D01*
X235713Y190936D01*
X234933D02*X235713D01*
X234213Y190456D02*X233733Y190936D01*
Y188536D02*Y190936D01*
X233313Y188536D02*X234213D01*
X232593Y189436D02*X231393Y190936D01*
X231093Y189436D02*X232593D01*
X231393Y188536D02*Y190936D01*
X229173D02*X230373D01*
Y189736D02*Y190936D01*
Y189736D02*X230073Y190036D01*
X229473D02*X230073D01*
X229473D02*X229173Y189736D01*
Y188836D02*Y189736D01*
X229473Y188536D02*X229173Y188836D01*
X229473Y188536D02*X230073D01*
X230373Y188836D02*X230073Y188536D01*
X239056Y214670D02*X239836D01*
X240256Y215090D02*X239836Y214670D01*
X240256Y215090D02*Y216650D01*
X239836Y217070D01*
X239056D02*X239836D01*
X238336Y216590D02*X237856Y217070D01*
Y214670D02*Y217070D01*
X237436Y214670D02*X238336D01*
X235816Y217070D02*X235516Y216770D01*
X235816Y217070D02*X236416D01*
X236716Y216770D02*X236416Y217070D01*
X236716Y214970D02*Y216770D01*
Y214970D02*X236416Y214670D01*
X235816Y215990D02*X235516Y215690D01*
X235816Y215990D02*X236716D01*
X235816Y214670D02*X236416D01*
X235816D02*X235516Y214970D01*
Y215690D01*
X234796Y216770D02*X234496Y217070D01*
X233596D02*X234496D01*
X233596D02*X233296Y216770D01*
Y216170D02*Y216770D01*
X234796Y214670D02*X233296Y216170D01*
Y214670D02*X234796D01*
X235013Y200997D02*X235793D01*
X236213Y201417D02*X235793Y200997D01*
X236213Y201417D02*Y202977D01*
X235793Y203397D01*
X235013D02*X235793D01*
X234293Y202917D02*X233813Y203397D01*
Y200997D02*Y203397D01*
X233393Y200997D02*X234293D01*
X232673Y201897D02*X231473Y203397D01*
X231173Y201897D02*X232673D01*
X231473Y200997D02*Y203397D01*
X229553D02*X229253Y203097D01*
X229553Y203397D02*X230153D01*
X230453Y203097D02*X230153Y203397D01*
X230453Y201297D02*Y203097D01*
Y201297D02*X230153Y200997D01*
X229553Y202317D02*X229253Y202017D01*
X229553Y202317D02*X230453D01*
X229553Y200997D02*X230153D01*
X229553D02*X229253Y201297D01*
Y202017D01*
X252054Y196407D02*X252834D01*
X253254Y196827D02*X252834Y196407D01*
X253254Y196827D02*Y198387D01*
X252834Y198807D01*
X252054D02*X252834D01*
X251334Y198327D02*X250854Y198807D01*
Y196407D02*Y198807D01*
X250434Y196407D02*X251334D01*
X249714Y197307D02*X248514Y198807D01*
X248214Y197307D02*X249714D01*
X248514Y196407D02*Y198807D01*
X247494Y198507D02*X247194Y198807D01*
X246294D02*X247194D01*
X246294D02*X245994Y198507D01*
Y197907D02*Y198507D01*
X247494Y196407D02*X245994Y197907D01*
Y196407D02*X247494D01*
X262919Y162336D02*X263699D01*
X264119Y162756D02*X263699Y162336D01*
X264119Y162756D02*Y164316D01*
X263699Y164736D01*
X262919D02*X263699D01*
X262199Y164256D02*X261719Y164736D01*
Y162336D02*Y164736D01*
X261299Y162336D02*X262199D01*
X259379Y164736D02*X260579D01*
Y163536D02*Y164736D01*
Y163536D02*X260279Y163836D01*
X259679D02*X260279D01*
X259679D02*X259379Y163536D01*
Y162636D02*Y163536D01*
X259679Y162336D02*X259379Y162636D01*
X259679Y162336D02*X260279D01*
X260579Y162636D02*X260279Y162336D01*
X258659Y164436D02*X258359Y164736D01*
X257759D02*X258359D01*
X257759D02*X257459Y164436D01*
X257759Y162336D02*X257459Y162636D01*
X257759Y162336D02*X258359D01*
X258659Y162636D02*X258359Y162336D01*
X257759Y163656D02*X258359D01*
X257459Y163956D02*Y164436D01*
Y162636D02*Y163356D01*
X257759Y163656D01*
X257459Y163956D02*X257759Y163656D01*
X254301Y162082D02*X255081D01*
X255501Y162502D02*X255081Y162082D01*
X255501Y162502D02*Y164062D01*
X255081Y164482D01*
X254301D02*X255081D01*
X253581Y164002D02*X253101Y164482D01*
Y162082D02*Y164482D01*
X252681Y162082D02*X253581D01*
X250761Y164482D02*X251961D01*
Y163282D02*Y164482D01*
Y163282D02*X251661Y163582D01*
X251061D02*X251661D01*
X251061D02*X250761Y163282D01*
Y162382D02*Y163282D01*
X251061Y162082D02*X250761Y162382D01*
X251061Y162082D02*X251661D01*
X251961Y162382D02*X251661Y162082D01*
X249141Y164482D02*X248841Y164182D01*
X249141Y164482D02*X249741D01*
X250041Y164182D02*X249741Y164482D01*
X250041Y162382D02*Y164182D01*
Y162382D02*X249741Y162082D01*
X249141Y163402D02*X248841Y163102D01*
X249141Y163402D02*X250041D01*
X249141Y162082D02*X249741D01*
X249141D02*X248841Y162382D01*
Y163102D01*
X234014Y164242D02*X234794D01*
X235214Y164662D02*X234794Y164242D01*
X235214Y164662D02*Y166222D01*
X234794Y166642D01*
X234014D02*X234794D01*
X233294Y166162D02*X232814Y166642D01*
Y164242D02*Y166642D01*
X232394Y164242D02*X233294D01*
X230474Y166642D02*X231674D01*
Y165442D02*Y166642D01*
Y165442D02*X231374Y165742D01*
X230774D02*X231374D01*
X230774D02*X230474Y165442D01*
Y164542D02*Y165442D01*
X230774Y164242D02*X230474Y164542D01*
X230774Y164242D02*X231374D01*
X231674Y164542D02*X231374Y164242D01*
X228554Y166642D02*X229754D01*
Y165442D02*Y166642D01*
Y165442D02*X229454Y165742D01*
X228854D02*X229454D01*
X228854D02*X228554Y165442D01*
Y164542D02*Y165442D01*
X228854Y164242D02*X228554Y164542D01*
X228854Y164242D02*X229454D01*
X229754Y164542D02*X229454Y164242D01*
X215211Y239600D02*X215991D01*
X216411Y240020D02*X215991Y239600D01*
X216411Y240020D02*Y241580D01*
X215991Y242000D01*
X215211D02*X215991D01*
X214491Y241520D02*X214011Y242000D01*
Y239600D02*Y242000D01*
X213591Y239600D02*X214491D01*
X211671Y242000D02*X212871D01*
Y240800D02*Y242000D01*
Y240800D02*X212571Y241100D01*
X211971D02*X212571D01*
X211971D02*X211671Y240800D01*
Y239900D02*Y240800D01*
X211971Y239600D02*X211671Y239900D01*
X211971Y239600D02*X212571D01*
X212871Y239900D02*X212571Y239600D01*
X210951Y239900D02*X210651Y239600D01*
X210951Y239900D02*Y241700D01*
X210651Y242000D01*
X210051D02*X210651D01*
X210051D02*X209751Y241700D01*
Y239900D02*Y241700D01*
X210051Y239600D02*X209751Y239900D01*
X210051Y239600D02*X210651D01*
X210951Y240200D02*X209751Y241400D01*
X237377Y241074D02*X238157D01*
X238577Y241494D02*X238157Y241074D01*
X238577Y241494D02*Y243054D01*
X238157Y243474D01*
X237377D02*X238157D01*
X236657Y242994D02*X236177Y243474D01*
Y241074D02*Y243474D01*
X235757Y241074D02*X236657D01*
X233837Y243474D02*X235037D01*
Y242274D02*Y243474D01*
Y242274D02*X234737Y242574D01*
X234137D02*X234737D01*
X234137D02*X233837Y242274D01*
Y241374D02*Y242274D01*
X234137Y241074D02*X233837Y241374D01*
X234137Y241074D02*X234737D01*
X235037Y241374D02*X234737Y241074D01*
X233117Y242994D02*X232637Y243474D01*
Y241074D02*Y243474D01*
X232217Y241074D02*X233117D01*
X242398Y220850D02*X243178D01*
X243598Y221270D02*X243178Y220850D01*
X243598Y221270D02*Y222830D01*
X243178Y223250D01*
X242398D02*X243178D01*
X241678Y222770D02*X241198Y223250D01*
Y220850D02*Y223250D01*
X240778Y220850D02*X241678D01*
X240058Y221750D02*X238858Y223250D01*
X238558Y221750D02*X240058D01*
X238858Y220850D02*Y223250D01*
X237838Y222950D02*X237538Y223250D01*
X236938D02*X237538D01*
X236938D02*X236638Y222950D01*
X236938Y220850D02*X236638Y221150D01*
X236938Y220850D02*X237538D01*
X237838Y221150D02*X237538Y220850D01*
X236938Y222170D02*X237538D01*
X236638Y222470D02*Y222950D01*
Y221150D02*Y221870D01*
X236938Y222170D01*
X236638Y222470D02*X236938Y222170D01*
X225428Y239491D02*X226208D01*
X226628Y239911D02*X226208Y239491D01*
X226628Y239911D02*Y241471D01*
X226208Y241891D01*
X225428D02*X226208D01*
X224708Y241411D02*X224228Y241891D01*
Y239491D02*Y241891D01*
X223808Y239491D02*X224708D01*
X221888Y241891D02*X223088D01*
Y240691D02*Y241891D01*
Y240691D02*X222788Y240991D01*
X222188D02*X222788D01*
X222188D02*X221888Y240691D01*
Y239791D02*Y240691D01*
X222188Y239491D02*X221888Y239791D01*
X222188Y239491D02*X222788D01*
X223088Y239791D02*X222788Y239491D01*
X221168Y241591D02*X220868Y241891D01*
X219968D02*X220868D01*
X219968D02*X219668Y241591D01*
Y240991D02*Y241591D01*
X221168Y239491D02*X219668Y240991D01*
Y239491D02*X221168D01*
X225335Y226710D02*X226115D01*
X226535Y227130D02*X226115Y226710D01*
X226535Y227130D02*Y228690D01*
X226115Y229110D01*
X225335D02*X226115D01*
X224615Y228630D02*X224135Y229110D01*
Y226710D02*Y229110D01*
X223715Y226710D02*X224615D01*
X222995Y227610D02*X221795Y229110D01*
X221495Y227610D02*X222995D01*
X221795Y226710D02*Y229110D01*
X220475Y226710D02*X219275Y229110D01*
X220775D01*
X164800Y71000D02*Y73400D01*
Y71000D02*X166000D01*
X164800Y72080D02*X165700D01*
X166720Y73400D02*X167920D01*
X168220Y73100D01*
Y72380D02*Y73100D01*
X167920Y72080D02*X168220Y72380D01*
X167020Y72080D02*X167920D01*
X167020Y71000D02*Y73400D01*
X166720Y71000D02*X167920D01*
X168220Y71300D01*
Y71780D01*
X167920Y72080D02*X168220Y71780D01*
X169240Y73400D02*X170440Y71000D01*
X168940D02*X170440D01*
X184920Y51600D02*X185700D01*
X184500Y51180D02*X184920Y51600D01*
X184500Y49620D02*Y51180D01*
Y49620D02*X184920Y49200D01*
X185700D01*
X187320D02*X187620Y49500D01*
X186720Y49200D02*X187320D01*
X186420Y49500D02*X186720Y49200D01*
X186420Y49500D02*Y51300D01*
X186720Y51600D01*
X187320Y50280D02*X187620Y50580D01*
X186420Y50280D02*X187320D01*
X186720Y51600D02*X187320D01*
X187620Y51300D01*
Y50580D02*Y51300D01*
X188340Y49500D02*X188640Y49200D01*
X189240D01*
X189540Y49500D01*
X189240Y51600D02*X189540Y51300D01*
X188640Y51600D02*X189240D01*
X188340Y51300D02*X188640Y51600D01*
Y50280D02*X189240D01*
X189540Y49500D02*Y49980D01*
Y50580D02*Y51300D01*
Y50580D02*X189240Y50280D01*
X189540Y49980D02*X189240Y50280D01*
X178720Y46500D02*X179500D01*
X178300Y46080D02*X178720Y46500D01*
X178300Y44520D02*Y46080D01*
Y44520D02*X178720Y44100D01*
X179500D01*
X180220D02*X181420D01*
X180220D02*Y45300D01*
X180520Y45000D01*
X181120D01*
X181420Y45300D01*
Y46200D01*
X181120Y46500D02*X181420Y46200D01*
X180520Y46500D02*X181120D01*
X180220Y46200D02*X180520Y46500D01*
X182440D02*X183340Y45300D01*
Y44400D02*Y45300D01*
X183040Y44100D02*X183340Y44400D01*
X182440Y44100D02*X183040D01*
X182140Y44400D02*X182440Y44100D01*
X182140Y44400D02*Y45000D01*
X182440Y45300D01*
X183340D01*
M02*
