G04 start of page 9 for group -4062 idx -4062 *
G04 Title: GNSS Firehose, soldermask *
G04 Creator: pcb 20140316 *
G04 CreationDate: Sun 19 Apr 2015 08:06:33 AM GMT UTC *
G04 For: pmonta *
G04 Format: Gerber/RS-274X *
G04 PCB-Dimensions (mil): 4640.00 3900.00 *
G04 PCB-Coordinate-Origin: lower left *
%MOIN*%
%FSLAX25Y25*%
%LNBOTTOMMASK*%
%ADD204R,0.1300X0.1300*%
%ADD203R,0.0260X0.0260*%
%ADD202C,0.0787*%
%ADD201R,0.0355X0.0355*%
%ADD200R,0.0572X0.0572*%
%ADD199C,0.0160*%
%ADD198C,0.1580*%
%ADD197C,0.0650*%
%ADD196C,0.0920*%
%ADD195C,0.0800*%
%ADD194C,0.1900*%
%ADD193C,0.1550*%
%ADD192C,0.1300*%
%ADD191C,0.0930*%
%ADD190C,0.1400*%
%ADD189C,0.0654*%
%ADD188C,0.0001*%
%ADD187C,0.0720*%
%ADD186C,0.0060*%
G54D186*X0Y390000D02*Y0D01*
Y390000D02*X464000D01*
X0Y0D02*X464000D01*
Y390000D02*Y0D01*
G54D187*X370000Y200000D03*
X360000D03*
X370000Y210000D03*
Y220000D03*
Y230000D03*
X360000Y210000D03*
Y220000D03*
Y230000D03*
Y240000D03*
Y250000D03*
X370000Y240000D03*
Y250000D03*
G54D188*G36*
X394729Y241768D02*Y235225D01*
X401272D01*
Y241768D01*
X394729D01*
G37*
G54D189*X405874Y238496D03*
X398000Y230622D03*
X405874D03*
X398000Y222748D03*
X405874D03*
X398000Y214874D03*
X405874D03*
X398000Y207000D03*
Y199126D03*
X405874Y207000D03*
Y199126D03*
G54D190*X450315Y322717D03*
Y287283D03*
G54D191*X458189Y305000D03*
G54D192*X446378D03*
G54D193*X422756D03*
G54D194*X431500Y357500D03*
G54D189*X398000Y191252D03*
X405874D03*
G54D187*X370000Y180000D03*
X360000D03*
X370000Y190000D03*
X360000D03*
G54D194*X431500Y32500D03*
G54D195*X433000Y70900D03*
X443000D03*
X453000D03*
G54D196*X418000Y65900D03*
G54D197*X392000Y104500D03*
Y96500D03*
Y88500D03*
Y80500D03*
Y120500D03*
Y112500D03*
X382000Y124500D03*
Y116500D03*
Y108500D03*
G54D198*X418000Y119500D03*
G54D197*X382000Y92500D03*
Y84500D03*
Y76500D03*
G54D198*X418000Y81500D03*
G54D195*X443000Y130100D03*
X453000D03*
G54D196*X418000Y135100D03*
G54D194*X32500Y357500D03*
Y32500D03*
G54D199*X307800Y283100D03*
X307600Y287500D03*
X296900Y283200D03*
Y287500D03*
X310300Y294000D03*
X320600Y293000D03*
X318600Y290500D03*
X320600Y288200D03*
X381500Y297839D03*
X375500Y297339D03*
X378500Y294339D03*
X335700Y342700D03*
X329000Y343100D03*
X325800Y347000D03*
X333100Y346900D03*
X339400Y346700D03*
X348700Y288200D03*
X344000Y288000D03*
X346400Y291500D03*
X348500Y295700D03*
X344300Y295600D03*
X348800Y323000D03*
X325900Y337800D03*
X382000Y330339D03*
X378500Y333339D03*
X375000Y330339D03*
X362600Y327800D03*
X318700Y295500D03*
X253300Y297800D03*
X290200Y296900D03*
X276600Y295200D03*
X282700Y305500D03*
X289100Y305300D03*
X292300Y305600D03*
X279500Y305800D03*
X302400Y314600D03*
X286000Y314300D03*
X281200D03*
X290600D03*
X261200Y285300D03*
X275000Y287900D03*
X294200Y353300D03*
X290400D03*
X286700D03*
X283100Y353400D03*
X279500D03*
X291300Y356800D03*
X287600Y357100D03*
X284100Y357200D03*
X280600Y356900D03*
X302000Y333600D03*
X288100Y330800D03*
X283700D03*
X285900Y327900D03*
X286000Y320300D03*
X290600D03*
X281300D03*
X295700Y199700D03*
X331200Y187800D03*
X295700Y190900D03*
X284400Y177700D03*
X272500Y177500D03*
X269000Y191400D03*
X258000Y197200D03*
X255100D03*
X248700Y191700D03*
X237200D03*
X266600Y198200D03*
X274600Y191600D03*
X273900Y248100D03*
X271300Y245300D03*
X268300Y248300D03*
X251300Y212700D03*
X246300D03*
X245000Y205100D03*
X241600D03*
X278900Y245300D03*
X278600Y237400D03*
X278900Y210200D03*
X278400Y225000D03*
X273600Y220800D03*
X267100Y216900D03*
X269500Y227600D03*
X273100D03*
X243300Y197900D03*
X267500Y314300D03*
X245000Y345800D03*
X264400Y333200D03*
X248900Y337000D03*
X243900Y336800D03*
X241700Y342200D03*
X236300Y343000D03*
X240100Y346800D03*
X232800Y346700D03*
X271500Y325000D03*
X263800Y282600D03*
X263100Y278000D03*
X263000Y274600D03*
X241700Y250100D03*
X238600Y250200D03*
X271300Y251200D03*
X273800Y254100D03*
X268600Y253900D03*
X249400Y252900D03*
X279000Y256000D03*
X274600Y264700D03*
X284500Y262600D03*
X237200Y258900D03*
X239800Y264800D03*
X245000Y258100D03*
X263400Y258900D03*
X267000D03*
Y262100D03*
X220300Y276500D03*
X217000Y243900D03*
X213800D03*
X217000Y250000D03*
X213800D03*
X222100Y262100D03*
X218700D03*
X211700Y259700D03*
Y256500D03*
X206800Y269100D03*
X208600Y272000D03*
X218700Y258800D03*
X209000Y280100D03*
X222100Y258900D03*
X231500Y264700D03*
X228800Y193600D03*
X228500Y258700D03*
X228800Y197400D03*
X227600Y236200D03*
X226800Y224200D03*
X223500D03*
X217300Y232900D03*
X217600Y227000D03*
X226800Y212000D03*
X223600D03*
X217300Y218400D03*
X228100Y264700D03*
X217600Y209300D03*
X211800Y224700D03*
Y229300D03*
X213700Y232900D03*
X199400Y235900D03*
X196900Y238500D03*
X193900Y199200D03*
X197400Y200700D03*
X200000Y203000D03*
X222100Y203400D03*
X192000Y191600D03*
X211800Y215200D03*
Y238900D03*
X192000Y187300D03*
Y182100D03*
X223400Y191700D03*
X212000Y198800D03*
X211800Y193600D03*
X210700Y62100D03*
X215100Y131500D03*
X215500Y126400D03*
X207800Y130500D03*
X210100Y133100D03*
X209900Y124300D03*
X218400Y133200D03*
X218100Y118000D03*
X213800Y97200D03*
X227700Y100400D03*
X223900Y94700D03*
X218400Y106400D03*
X211800Y203400D03*
X213600Y218300D03*
X203000Y89200D03*
X221800Y89300D03*
X225200Y88400D03*
X215100Y81700D03*
X306700Y108700D03*
X312600Y89500D03*
X299500Y107900D03*
X303400Y94700D03*
X295700Y88200D03*
X295800Y115200D03*
X291900Y105900D03*
X378500Y59500D03*
X351500Y50000D03*
X388000Y59500D03*
X443000Y55000D03*
X238300Y126700D03*
X240900Y143200D03*
X238300Y130400D03*
Y122800D03*
Y118700D03*
X238400Y115000D03*
X250800Y122800D03*
Y113700D03*
X257700Y137700D03*
X255300Y132900D03*
X258000Y194000D03*
X255100D03*
X257100Y170700D03*
X255200Y122200D03*
X257300Y124700D03*
X237200Y199800D03*
X235100Y204700D03*
X230300Y200800D03*
Y204500D03*
X245500Y191700D03*
X272500Y83500D03*
X269800Y74100D03*
X265700Y78600D03*
X272700Y87800D03*
X264000Y93300D03*
X269800D03*
X267800Y99600D03*
X252400Y70700D03*
X244400Y85400D03*
X254300Y86900D03*
X234000Y79000D03*
X233300Y84300D03*
X259800Y93600D03*
X250100Y93400D03*
X244700Y98400D03*
X256700Y99500D03*
X231300Y108500D03*
X238400Y111200D03*
X241300Y41200D03*
X236800Y37700D03*
X316900Y144400D03*
X325000Y145700D03*
X312300Y140800D03*
X313100Y131500D03*
X325000Y135300D03*
X379500Y140500D03*
X390000D03*
X427400Y187600D03*
X434600Y164800D03*
X351500Y132500D03*
X357300Y166000D03*
X353200D03*
X300700Y132900D03*
X300400Y143500D03*
X295900Y125800D03*
X292100Y135400D03*
X268600Y151800D03*
X272600Y155800D03*
X266000Y137800D03*
X266700Y128600D03*
X288500Y142900D03*
X285900Y145600D03*
X279000Y142100D03*
X279100Y145300D03*
X285400Y138100D03*
X276200Y140200D03*
X282700Y128700D03*
X274700Y128600D03*
X283500Y196700D03*
X283400Y200700D03*
X279100Y193200D03*
X264800Y191500D03*
X287600Y93800D03*
X275900Y100900D03*
X277300Y93200D03*
X294500Y82800D03*
X279100Y88600D03*
X281100Y94000D03*
X295900Y78800D03*
X278900D03*
X282700Y120600D03*
X266700D03*
Y112600D03*
X282700Y112500D03*
X274700Y112600D03*
Y120600D03*
X299300Y185000D03*
X269300Y173400D03*
X297200Y196000D03*
X452500Y179500D03*
X453000Y147000D03*
X452500Y202500D03*
X282100Y210100D03*
X395000Y179000D03*
X387400Y210900D03*
X387000Y218700D03*
X389400Y226800D03*
X391000Y179000D03*
X343200Y181200D03*
X340400Y176900D03*
X379400Y168800D03*
X376600Y172200D03*
X350700Y160500D03*
X348000Y164600D03*
X345100Y160700D03*
X328200Y205000D03*
X341800Y202200D03*
X337600Y202300D03*
X340800Y205800D03*
X335500Y205500D03*
X335800Y240900D03*
X340400D03*
X349000Y244500D03*
X347300Y248300D03*
X330700Y240900D03*
X325700D03*
X447500Y237500D03*
X412100Y236000D03*
X362800Y280900D03*
X357900Y278500D03*
X382100Y276300D03*
X387000Y269400D03*
X403500Y271600D03*
X387700Y274100D03*
X453000Y257000D03*
X434300Y265700D03*
X427500Y259400D03*
X284600Y227200D03*
X283800Y215000D03*
X284000Y219100D03*
X284600Y230400D03*
Y234500D03*
X284500Y238900D03*
X282700Y245300D03*
X284500Y252600D03*
X282700Y256000D03*
X263400Y262100D03*
X257000Y264900D03*
X254100Y263200D03*
X251300Y265000D03*
X243000Y264800D03*
X237200Y262100D03*
X197800Y34300D03*
X187300Y32400D03*
X193600Y78800D03*
X192100Y85600D03*
X203100Y41300D03*
X185000Y78700D03*
X176300Y72400D03*
X178000Y68600D03*
X185500Y71700D03*
X185000Y85600D03*
X164000Y28100D03*
X182800Y99600D03*
X175800Y93400D03*
X170900Y88100D03*
X170800Y81400D03*
X170600Y84900D03*
X175700Y89200D03*
X166900Y76100D03*
X167600Y80800D03*
X167200Y70100D03*
X168100Y63700D03*
X171100Y58100D03*
X158000Y113300D03*
X169200Y106000D03*
X167800Y139400D03*
X167500Y124600D03*
X149300Y36800D03*
X146726Y52500D03*
X146600Y43200D03*
X152900Y46700D03*
X115200Y69100D03*
X119800Y68100D03*
Y57000D03*
X113900Y50900D03*
X133200Y37300D03*
X128400Y37600D03*
Y52500D03*
X131900Y52400D03*
X132500Y71500D03*
Y63500D03*
X136100Y45900D03*
X125300Y46000D03*
X122600Y50800D03*
X143200Y52200D03*
X156400Y98500D03*
X134100Y98600D03*
X146600Y98400D03*
X146500Y101800D03*
X137400Y104400D03*
X121700Y78700D03*
X140500Y80000D03*
X132500D03*
X155700Y53000D03*
X148500Y63500D03*
X140500D03*
Y71500D03*
X156000Y63500D03*
Y71500D03*
X153400Y109300D03*
X148500Y71500D03*
Y80000D03*
Y87500D03*
X156000D03*
Y80000D03*
X140500Y87500D03*
X141000Y101000D03*
X132500Y87500D03*
X134000Y101800D03*
X135400Y107600D03*
X124900Y108800D03*
X132100Y150100D03*
X125200Y146900D03*
X125500Y129900D03*
Y134500D03*
X161400Y121500D03*
X161500Y142500D03*
X115700Y132800D03*
X135100Y156500D03*
X125100Y156300D03*
X120800Y146700D03*
X131600Y114000D03*
X144000Y113800D03*
X140800Y113900D03*
X124800Y118300D03*
X125200Y210200D03*
X120600Y219000D03*
X113000Y204500D03*
X120900Y209700D03*
X125100Y219500D03*
X135000Y203500D03*
Y198000D03*
X135200Y219500D03*
X132000Y213200D03*
X125600Y197500D03*
X116174Y195900D03*
X116100Y225500D03*
X134800Y113800D03*
X135000Y123500D03*
X120300Y118800D03*
X152000Y129000D03*
X146500D03*
X135000D03*
X152000Y123500D03*
Y135000D03*
X135000D03*
X140500D03*
X152000Y140500D03*
X135000D03*
X146500Y135000D03*
Y123500D03*
X140500D03*
Y129000D03*
X146500Y140500D03*
X140500D03*
X151400Y98600D03*
X151200Y101900D03*
X157000Y107700D03*
X135000Y266500D03*
Y261000D03*
X152000Y266500D03*
X146500D03*
Y261000D03*
X152000D03*
X167300Y265600D03*
X152000Y249500D03*
X146500D03*
Y255000D03*
X152000D03*
X167500Y250600D03*
X135000Y249500D03*
Y255000D03*
X140500Y266500D03*
Y261000D03*
Y255000D03*
Y249500D03*
Y203500D03*
X140800Y239900D03*
X144000Y239800D03*
X136500Y237000D03*
X140200Y236700D03*
X131900Y177000D03*
X135000Y186500D03*
X135100Y176800D03*
X152000Y203500D03*
X146500D03*
Y198000D03*
X152000D03*
X167400Y202600D03*
X140500Y198000D03*
X135000Y192000D03*
X140500D03*
Y186500D03*
X140800Y176900D03*
X144100Y176800D03*
X152000Y186500D03*
X146500D03*
Y192000D03*
X152000D03*
X167600Y187600D03*
X113100Y251600D03*
X115600Y258900D03*
X115500Y241800D03*
X120300Y244800D03*
X124900Y234600D03*
X134800Y239800D03*
X134474Y233574D03*
X122100Y278500D03*
X125500Y260500D03*
Y255900D03*
X120800Y272700D03*
X113200Y188600D03*
X116400Y178400D03*
X116100Y162500D03*
X120400Y181800D03*
X125000Y181000D03*
X124900Y171600D03*
X135500Y170600D03*
X125600Y192900D03*
X136900Y173800D03*
X140400Y173400D03*
X153700Y293100D03*
X145000Y284000D03*
X146000Y287500D03*
X146700Y295700D03*
X125000Y272900D03*
X132000Y275100D03*
X134300Y278500D03*
X137800Y279000D03*
X140600Y276700D03*
X134900Y302900D03*
X140800Y303000D03*
X143900Y302900D03*
X124900Y297900D03*
X116100Y288500D03*
X135500Y296700D03*
X136500Y300000D03*
X140200Y299700D03*
X125600Y323600D03*
Y319000D03*
X115800Y322000D03*
X112000Y280700D03*
X132200Y281000D03*
X113000Y267500D03*
X177200Y236400D03*
X168600Y240900D03*
X183800Y237100D03*
X139100Y213300D03*
X131700Y239900D03*
X124900Y244200D03*
X138900Y233600D03*
X163500Y234000D03*
X159400Y235400D03*
X155300Y235300D03*
X161900Y205700D03*
X161700Y268700D03*
Y247400D03*
X161100Y331700D03*
X161300Y310500D03*
X161900Y243300D03*
X180300Y306000D03*
X180000Y298900D03*
X184000Y302100D03*
X183300Y309900D03*
X184100Y198500D03*
Y240300D03*
X167600Y313700D03*
X167400Y328700D03*
X162200Y184100D03*
X28300Y185000D03*
X94500Y199500D03*
Y190500D03*
Y195000D03*
X103500Y199500D03*
X99000Y195000D03*
Y199500D03*
X103500Y195000D03*
Y190500D03*
X99000D03*
X84500Y189900D03*
X38400Y188300D03*
X41900Y190900D03*
X34900D03*
X84500Y198800D03*
X33100Y203300D03*
X37100D03*
X56600Y248900D03*
X52600D03*
X28300Y244100D03*
X28400Y249100D03*
X46000Y252000D03*
X38700Y251300D03*
X70000Y240000D03*
X74300D03*
X84400Y250000D03*
X96400Y243800D03*
X99500D03*
X104100Y244500D03*
X88000Y240300D03*
X84000Y240700D03*
X80500Y246900D03*
X105600Y234900D03*
X87300Y234100D03*
X107900Y231400D03*
X111600Y231300D03*
X104900Y230300D03*
X90600Y230900D03*
X99400Y209500D03*
X105700Y213700D03*
X64000Y196900D03*
X48000Y197800D03*
X49000Y200900D03*
X70500Y204100D03*
X64500Y207500D03*
X90900Y209500D03*
X84500Y202400D03*
Y205700D03*
X81300Y212600D03*
X89900Y225500D03*
X64500Y218400D03*
X60500D03*
X58000Y211400D03*
X51574Y216800D03*
X47574D03*
X64000Y221400D03*
X71600Y225500D03*
X64000Y229600D03*
X53500Y221400D03*
Y229600D03*
X45400Y225500D03*
X16500Y271000D03*
X32500Y328700D03*
X36700Y328500D03*
X47900Y260800D03*
X46700Y280500D03*
X50500Y280600D03*
X42200Y253800D03*
X48900Y263900D03*
X33200Y265300D03*
X37400D03*
X35200Y253800D03*
X53500Y284400D03*
Y292600D03*
X45400Y288500D03*
X27500Y307000D03*
Y312500D03*
X3500Y308000D03*
X16500D03*
X10000D03*
X3500Y300500D03*
X16500D03*
X10000D03*
X3100Y244900D03*
X9600D03*
X3100Y237400D03*
X9600D03*
X16100Y244900D03*
Y237400D03*
X16500Y278500D03*
X3500D03*
X10000D03*
X3500Y271000D03*
Y215500D03*
X16500D03*
X10000D03*
X3500Y208000D03*
X16500D03*
X10000D03*
X3900Y341600D03*
X16900D03*
X10400D03*
X3900Y334100D03*
X16900D03*
X10400D03*
X10000Y271000D03*
X61300Y281200D03*
X57800Y270800D03*
X64400Y270500D03*
X63900Y259900D03*
X65000Y334400D03*
X64000Y292600D03*
X70400Y267100D03*
X71100Y330100D03*
X76000Y285500D03*
X64400Y281400D03*
X81200Y275600D03*
X64000Y284400D03*
X71600Y288500D03*
X58200Y337200D03*
X226500Y349400D03*
Y353200D03*
Y357200D03*
X204200Y349500D03*
X200000Y349400D03*
X202000Y353200D03*
X204300Y356900D03*
X200300D03*
X120900Y336400D03*
X131800Y339000D03*
X125200Y336200D03*
X116500Y335000D03*
X111200Y344100D03*
X112500Y330000D03*
X113600Y315000D03*
X116200Y351500D03*
X139600Y347000D03*
X125100Y345500D03*
X135200Y345600D03*
X136700Y339000D03*
X135400Y342300D03*
X131500Y303000D03*
X125100Y307200D03*
X111600Y294600D03*
X115800Y304700D03*
X120400Y307900D03*
X135000Y329500D03*
X140500D03*
Y324000D03*
X135000D03*
X152000Y329500D03*
X146500D03*
Y324000D03*
X152000D03*
Y312500D03*
X146500D03*
Y318000D03*
X152000D03*
X135000Y312500D03*
Y318000D03*
X140500D03*
Y312500D03*
X95100Y344400D03*
X99400Y335600D03*
X90900D03*
X92700Y347100D03*
X64700Y343900D03*
X61300D03*
X64000Y347400D03*
X71600Y351500D03*
X89800D03*
X84500Y328500D03*
Y331800D03*
X81500Y337500D03*
X105600Y339800D03*
X55100Y343600D03*
X51100D03*
X53500Y347400D03*
Y355600D03*
X45400Y351500D03*
X64000Y355600D03*
X46500Y315000D03*
X52500Y312000D03*
X64000Y323000D03*
X38500Y314600D03*
X41500Y317500D03*
X56400Y312100D03*
X48500Y323700D03*
X49000Y327000D03*
X70200Y302900D03*
X84500Y316000D03*
Y313200D03*
X84000Y303400D03*
X80800Y309900D03*
X74400Y303300D03*
X35500Y317500D03*
X94500Y325500D03*
Y316500D03*
Y321000D03*
Y262500D03*
Y253500D03*
Y258000D03*
X103500Y325500D03*
Y316500D03*
X99000Y321000D03*
Y325500D03*
X103500Y321000D03*
X99000Y316500D03*
X84500Y324900D03*
X84400Y252900D03*
Y261800D03*
Y265400D03*
Y268700D03*
X107400Y294800D03*
X105500Y297900D03*
X104700Y293700D03*
X96500Y306900D03*
X88100Y303400D03*
X87400Y297200D03*
X91200Y293600D03*
X90800Y272500D03*
X89900Y288500D03*
X105000Y307400D03*
X99600Y306900D03*
X99000Y258000D03*
Y262500D03*
Y253500D03*
X99300Y272500D03*
X103500Y262500D03*
Y253500D03*
Y258000D03*
X105900Y276900D03*
X114400Y100500D03*
X115400Y76500D03*
X121200Y97100D03*
X121100Y73400D03*
X178900Y95600D03*
X174300Y85800D03*
X176300Y75800D03*
X118000Y107300D03*
X109800Y133300D03*
X109700Y122100D03*
X105400D03*
X158700Y172300D03*
X154500Y174700D03*
X143500Y173700D03*
X161800Y179700D03*
X96500Y180800D03*
X99600D03*
X104200Y181300D03*
X140900Y150300D03*
X71600Y162500D03*
X53500Y166600D03*
X45400Y162500D03*
X64000Y166600D03*
X89900Y162500D03*
X105900Y133600D03*
X107700Y168400D03*
X111700Y168300D03*
X105700Y171900D03*
X104700Y166900D03*
X86000Y87500D03*
X86200Y96700D03*
X86000Y84600D03*
X86200Y75300D03*
X85800Y67400D03*
Y58200D03*
X101100Y87100D03*
X101200Y74600D03*
X101300Y58400D03*
X97800Y50700D03*
X80100Y90900D03*
Y94200D03*
X80000Y78400D03*
Y81600D03*
Y64400D03*
Y61152D03*
X52700Y62400D03*
X40300D03*
X56400Y76600D03*
X56500Y92100D03*
X3100Y111400D03*
Y55900D03*
Y48400D03*
X3500Y89500D03*
Y82000D03*
X16100Y111400D03*
Y55900D03*
Y48400D03*
X16500Y89500D03*
Y82000D03*
X9600Y111400D03*
Y55900D03*
Y48400D03*
X10000Y89500D03*
Y82000D03*
X28400Y180100D03*
X3100Y118900D03*
X16100D03*
X9600D03*
X3500Y152500D03*
X16500D03*
X10000D03*
X3500Y145000D03*
X16500D03*
X10000D03*
X3100Y181900D03*
X16100D03*
X9600D03*
X3100Y174400D03*
X16100D03*
X9600D03*
X59500Y125200D03*
X47600D03*
X67900D03*
X88100Y177300D03*
X87400Y171100D03*
X90700Y167900D03*
X84200Y177400D03*
X83100Y124900D03*
X52700Y185000D03*
X74102Y158908D03*
X70200Y177100D03*
X74400D03*
X84500Y186900D03*
X80600Y183700D03*
X46000Y188000D03*
X56400Y186000D03*
X64000Y158400D03*
X53500D03*
G54D200*X265643Y85693D02*Y84907D01*
X308343Y89893D02*Y89107D01*
X301257Y89893D02*Y89107D01*
G54D201*X302308Y81600D02*X303292D01*
G54D200*X283500Y88693D02*Y87907D01*
X290586Y88693D02*Y87907D01*
G54D201*X302308Y76482D02*X303292D01*
G54D202*X454000Y25000D03*
G54D201*X262418Y79192D02*Y78208D01*
X257300Y79192D02*Y78208D01*
G54D203*X241374Y111100D02*X241574D01*
X245174D02*X245374D01*
X241474Y122200D02*X241674D01*
X245274D02*X245474D01*
X245074Y118600D02*X245274D01*
X241374Y114900D02*X241574D01*
X245174D02*X245374D01*
X288400Y138900D02*X288600D01*
X299900Y111400D02*Y111200D01*
Y115200D02*Y115000D01*
G54D201*X297159Y144092D02*Y143108D01*
X292041Y144092D02*Y143108D01*
G54D203*X292200Y138900D02*X292400D01*
X274200Y97900D02*X274400D01*
X278000D02*X278200D01*
X288500Y99000D02*X288700D01*
X292300D02*X292500D01*
X262474Y96700D02*X262674D01*
X266274D02*X266474D01*
X259800Y140400D02*X260000D01*
X263600D02*X263800D01*
G54D201*X257341Y145992D02*Y145008D01*
X262459Y145992D02*Y145008D01*
G54D203*X250300Y126200D02*X250500D01*
X254100D02*X254300D01*
G54D200*X240657Y138893D02*Y138107D01*
X247743Y138893D02*Y138107D01*
G54D203*X300400Y129800D02*Y129600D01*
Y126000D02*Y125800D01*
X269726Y146900D02*X269926D01*
X265926D02*X266126D01*
X272574Y151500D02*X272774D01*
X276374D02*X276574D01*
X247800Y99400D02*X248000D01*
X251600D02*X251800D01*
X246900Y87900D02*Y87700D01*
Y91700D02*Y91500D01*
X256600Y93600D02*X256800D01*
X252800D02*X253000D01*
G54D200*X251300Y80093D02*Y79307D01*
X244214Y80093D02*Y79307D01*
G54D201*X116008Y282059D02*X116992D01*
X116008Y276941D02*X116992D01*
G54D203*X217300Y252900D02*X217500D01*
X213500D02*X213700D01*
X215900Y258700D02*Y258500D01*
Y262500D02*Y262300D01*
X217183Y246800D02*X217383D01*
X213383D02*X213583D01*
X213343Y235900D02*X213543D01*
G54D200*X222174Y241193D02*Y240407D01*
G54D203*X223226Y227000D02*X223426D01*
X216983Y221100D02*X217183D01*
X217143Y235900D02*X217343D01*
G54D200*X223260Y199193D02*Y198407D01*
X216174Y199193D02*Y198407D01*
G54D203*X213183Y221100D02*X213383D01*
X224800Y258700D02*Y258500D01*
Y262500D02*Y262300D01*
G54D201*X116008Y345059D02*X116992D01*
X116008Y339941D02*X116992D01*
G54D203*X275100Y330000D02*Y329800D01*
Y333800D02*Y333600D01*
X297200Y333826D02*Y333626D01*
Y330026D02*Y329826D01*
G54D200*X245183Y217793D02*Y217007D01*
X252269Y217793D02*Y217007D01*
G54D203*X269426Y224700D02*X269626D01*
G54D200*X271483Y215593D02*Y214807D01*
G54D203*X273226Y224700D02*X273426D01*
X276426Y220800D02*X276626D01*
X280226D02*X280426D01*
X278626Y207400D02*X278826D01*
G54D200*X278569Y215593D02*Y214807D01*
G54D203*X282426Y207400D02*X282626D01*
X277926Y234500D02*X278126D01*
X281726D02*X281926D01*
X241352Y202400D02*X241552D01*
X231500Y197500D02*Y197300D01*
Y193700D02*Y193500D01*
X245152Y202400D02*X245352D01*
X252300Y197526D02*Y197326D01*
Y193726D02*Y193526D01*
X260774Y197400D02*Y197200D01*
Y193600D02*Y193400D01*
G54D200*X270857Y198593D02*Y197807D01*
X277943Y198593D02*Y197807D01*
G54D203*X278826Y248200D02*X279026D01*
X282626D02*X282826D01*
X279000Y258900D02*X279200D01*
X282800D02*X283000D01*
X269800Y258700D02*Y258500D01*
Y262500D02*Y262300D01*
X238100Y253000D02*X238300D01*
G54D200*X229260Y241193D02*Y240407D01*
G54D203*X227026Y227000D02*X227226D01*
X227026Y214800D02*X227226D01*
X234300Y258700D02*Y258500D01*
Y262500D02*Y262300D01*
X241900Y253000D02*X242100D01*
G54D200*X253607Y251583D02*X254393D01*
X253607Y258669D02*X254393D01*
G54D203*X260700Y258700D02*Y258500D01*
Y262500D02*Y262300D01*
G54D204*X7000Y115250D02*X13000D01*
X7000Y52250D02*X13000D01*
X7000Y85750D02*X13000D01*
X7000Y148750D02*X13000D01*
X7000Y178250D02*X13000D01*
G54D202*X10000Y25000D03*
G54D203*X245174Y129900D02*X245374D01*
X241474Y125800D02*X241674D01*
X245274D02*X245474D01*
X241374Y129900D02*X241574D01*
X162500Y105300D02*X162700D01*
X166300D02*X166500D01*
X121100Y104100D02*Y103900D01*
Y107900D02*Y107700D01*
X231274Y111300D02*X231474D01*
X235074D02*X235274D01*
X241274Y118600D02*X241474D01*
X234974Y118900D02*X235174D01*
X231174D02*X231374D01*
X231074Y122800D02*X231274D01*
X234874D02*X235074D01*
X231074Y126300D02*X231274D01*
X234874D02*X235074D01*
X231200Y130100D02*X231400D01*
X235000D02*X235200D01*
X231174Y115200D02*X231374D01*
X234974D02*X235174D01*
G54D200*X258557Y85693D02*Y84907D01*
G54D203*X128474Y44426D02*Y44226D01*
Y40626D02*Y40426D01*
X132926Y44074D02*Y43874D01*
Y40274D02*Y40074D01*
X167000Y83626D02*Y83426D01*
X169600Y72400D02*X169800D01*
X173400Y76000D02*X173600D01*
X169600D02*X169800D01*
X167000Y87426D02*Y87226D01*
X173400Y72400D02*X173600D01*
X223226Y214800D02*X223426D01*
X219900Y101200D02*Y101000D01*
Y97400D02*Y97200D01*
X223800Y101300D02*Y101100D01*
Y97500D02*Y97300D01*
G54D201*X116008Y217559D02*X116992D01*
X116008Y212441D02*X116992D01*
G54D204*X7000Y211750D02*X13000D01*
X7000Y241250D02*X13000D01*
X7000Y304250D02*X13000D01*
G54D202*X10000Y365000D03*
G54D204*X7000Y337750D02*X13000D01*
X7000Y274750D02*X13000D01*
M02*
