G04 start of page 2 for group 0 idx 0 *
G04 Title: GNSS Firehose, component *
G04 Creator: pcb 20140316 *
G04 CreationDate: Sat 09 May 2015 05:26:53 AM GMT UTC *
G04 For: pmonta *
G04 Format: Gerber/RS-274X *
G04 PCB-Dimensions (mil): 4640.00 3900.00 *
G04 PCB-Coordinate-Origin: lower left *
%MOIN*%
%FSLAX25Y25*%
%LNTOP*%
%ADD57C,0.1280*%
%ADD56C,0.0350*%
%ADD55C,0.0960*%
%ADD54C,0.0900*%
%ADD53C,0.0630*%
%ADD52C,0.1000*%
%ADD51C,0.0354*%
%ADD50C,0.0420*%
%ADD49C,0.0220*%
%ADD48R,0.0260X0.0260*%
%ADD47R,0.0160X0.0160*%
%ADD46R,0.1200X0.1200*%
%ADD45R,0.0280X0.0280*%
%ADD44R,0.0394X0.0394*%
%ADD43R,0.0827X0.0827*%
%ADD42R,0.0340X0.0340*%
%ADD41R,0.0300X0.0300*%
%ADD40R,0.0130X0.0130*%
%ADD39R,0.0923X0.0923*%
%ADD38R,0.0965X0.0965*%
%ADD37C,0.0200*%
%ADD36R,0.0118X0.0118*%
%ADD35R,0.0402X0.0402*%
%ADD34R,0.0098X0.0098*%
%ADD33R,0.0370X0.0370*%
%ADD32R,0.0295X0.0295*%
%ADD31R,0.0512X0.0512*%
%ADD30C,0.0394*%
%ADD29R,0.0591X0.0591*%
%ADD28R,0.0200X0.0200*%
%ADD27C,0.1480*%
%ADD26C,0.0550*%
%ADD25C,0.0820*%
%ADD24C,0.0700*%
%ADD23C,0.1800*%
%ADD22C,0.1300*%
%ADD21C,0.1100*%
%ADD20C,0.0830*%
%ADD19C,0.1200*%
%ADD18C,0.0554*%
%ADD17C,0.0620*%
%ADD16C,0.0500*%
%ADD15C,0.0180*%
%ADD14C,0.0120*%
%ADD13C,0.0100*%
%ADD12C,0.0060*%
%ADD11C,0.0001*%
G54D11*G36*
X315900Y334300D02*Y339482D01*
X322087Y339486D01*
X322240Y339523D01*
X322385Y339583D01*
X322520Y339665D01*
X322639Y339768D01*
X322742Y339887D01*
X322824Y340022D01*
X322884Y340167D01*
X322921Y340320D01*
X322930Y340477D01*
X322922Y349200D01*
X342700D01*
Y339958D01*
X332829Y339950D01*
X332676Y339913D01*
X332531Y339853D01*
X332396Y339771D01*
X332277Y339668D01*
X332174Y339549D01*
X332092Y339414D01*
X332032Y339269D01*
X331995Y339116D01*
X331986Y338959D01*
X331994Y334300D01*
X315900D01*
G37*
G36*
X341878Y297700D02*X351000D01*
Y285900D01*
X341878D01*
X341958Y286031D01*
X342018Y286176D01*
X342055Y286329D01*
X342064Y286486D01*
X342055Y297271D01*
X342018Y297424D01*
X341958Y297569D01*
X341878Y297700D01*
G37*
G36*
X327800Y327500D02*X332049D01*
X332032Y327459D01*
X331995Y327306D01*
X331986Y327149D01*
X331995Y321874D01*
X332032Y321721D01*
X332092Y321576D01*
X332174Y321441D01*
X332277Y321322D01*
X332396Y321219D01*
X332531Y321137D01*
X332676Y321077D01*
X332829Y321040D01*
X332986Y321031D01*
X343771Y321040D01*
X343924Y321077D01*
X344069Y321137D01*
X344200Y321217D01*
Y318292D01*
X344124Y318323D01*
X343971Y318360D01*
X343814Y318369D01*
X333029Y318360D01*
X332876Y318323D01*
X332731Y318263D01*
X332596Y318181D01*
X332477Y318078D01*
X332374Y317959D01*
X332292Y317824D01*
X332232Y317679D01*
X332195Y317526D01*
X332186Y317369D01*
X332195Y312094D01*
X332218Y312000D01*
X329639D01*
X329631Y325931D01*
X329594Y326084D01*
X329534Y326229D01*
X329452Y326364D01*
X329349Y326483D01*
X329230Y326586D01*
X329095Y326668D01*
X328950Y326728D01*
X328797Y326765D01*
X328640Y326774D01*
X327800Y326773D01*
Y327500D01*
G37*
G36*
X344400Y299627D02*Y292400D01*
X342059D01*
X342055Y297271D01*
X342018Y297424D01*
X341958Y297569D01*
X341876Y297704D01*
X341773Y297823D01*
X341654Y297926D01*
X341519Y298008D01*
X341374Y298068D01*
X341221Y298105D01*
X341064Y298114D01*
X335789Y298105D01*
X335636Y298068D01*
X335491Y298008D01*
X335356Y297926D01*
X335237Y297823D01*
X335134Y297704D01*
X335052Y297569D01*
X334992Y297424D01*
X334955Y297271D01*
X334946Y297114D01*
X334950Y292400D01*
X332800D01*
Y299518D01*
X332876Y299487D01*
X333029Y299450D01*
X333186Y299441D01*
X343971Y299450D01*
X344124Y299487D01*
X344269Y299547D01*
X344400Y299627D01*
G37*
G36*
X317100Y297200D02*X323141D01*
X323136Y297114D01*
X323145Y286700D01*
X317100D01*
Y297200D01*
G37*
G36*
X240606Y326700D02*X243494D01*
X243470Y326686D01*
X243351Y326583D01*
X243248Y326464D01*
X243166Y326329D01*
X243106Y326184D01*
X243069Y326031D01*
X243060Y325874D01*
X243068Y312300D01*
X234600D01*
Y321241D01*
X239771Y321245D01*
X239924Y321282D01*
X240069Y321342D01*
X240204Y321424D01*
X240323Y321527D01*
X240426Y321646D01*
X240508Y321781D01*
X240568Y321926D01*
X240605Y322079D01*
X240614Y322236D01*
X240606Y326700D01*
G37*
G36*
X226500Y327145D02*Y327000D01*
X227987D01*
X227995Y322079D01*
X228032Y321926D01*
X228092Y321781D01*
X228174Y321646D01*
X228277Y321527D01*
X228396Y321424D01*
X228531Y321342D01*
X228676Y321282D01*
X228829Y321245D01*
X228986Y321236D01*
X239000Y321245D01*
Y316500D01*
X228500D01*
X217863Y327137D01*
X226500Y327145D01*
G37*
G36*
X225048Y358900D02*X228000D01*
Y347800D01*
X225024D01*
X225055Y347929D01*
X225064Y348086D01*
X225055Y358871D01*
X225048Y358900D01*
G37*
G36*
X198200D02*X206152D01*
X206145Y358871D01*
X206136Y358714D01*
X206145Y347929D01*
X206176Y347800D01*
X198200D01*
Y358900D01*
G37*
G36*
X223800Y347095D02*Y346061D01*
X219100Y346057D01*
Y347086D01*
X223800Y347095D01*
G37*
G36*
X229800Y349400D02*X249571D01*
X249579Y340220D01*
X249616Y340067D01*
X249676Y339922D01*
X249758Y339787D01*
X249861Y339668D01*
X249980Y339565D01*
X250115Y339483D01*
X250260Y339423D01*
X250413Y339386D01*
X250570Y339377D01*
X256800Y339381D01*
Y334200D01*
X240614D01*
X240605Y339321D01*
X240568Y339474D01*
X240508Y339619D01*
X240426Y339754D01*
X240323Y339873D01*
X240204Y339976D01*
X240069Y340058D01*
X239924Y340118D01*
X239771Y340155D01*
X239614Y340164D01*
X229800Y340156D01*
Y349400D01*
G37*
G36*
X285225Y345200D02*X287275D01*
X287279Y340320D01*
X287316Y340167D01*
X287376Y340022D01*
X287458Y339887D01*
X287561Y339768D01*
X287680Y339665D01*
X287815Y339583D01*
X287960Y339523D01*
X288113Y339486D01*
X288270Y339477D01*
X294800Y339482D01*
Y328700D01*
X290100D01*
Y332800D01*
X281700D01*
Y328700D01*
X277636D01*
Y339382D01*
X284387Y339386D01*
X284540Y339423D01*
X284685Y339483D01*
X284820Y339565D01*
X284939Y339668D01*
X285042Y339787D01*
X285124Y339922D01*
X285184Y340067D01*
X285221Y340220D01*
X285230Y340377D01*
X285225Y345200D01*
G37*
G36*
X274300Y358900D02*X298000D01*
Y351121D01*
X288113Y351114D01*
X287960Y351077D01*
X287815Y351017D01*
X287680Y350935D01*
X287561Y350832D01*
X287458Y350713D01*
X287376Y350578D01*
X287316Y350433D01*
X287279Y350280D01*
X287270Y350123D01*
X287278Y342100D01*
X285228D01*
X285221Y350180D01*
X285184Y350333D01*
X285124Y350478D01*
X285042Y350613D01*
X284939Y350732D01*
X284820Y350835D01*
X284685Y350917D01*
X284540Y350977D01*
X284387Y351014D01*
X284230Y351023D01*
X274300Y351016D01*
Y358900D01*
G37*
G36*
X370500Y336339D02*X386500D01*
Y319339D01*
X384026D01*
X384018Y327114D01*
X383981Y327267D01*
X383921Y327412D01*
X383839Y327547D01*
X383736Y327666D01*
X383617Y327769D01*
X383482Y327851D01*
X383337Y327911D01*
X383184Y327948D01*
X383027Y327957D01*
X373816Y327948D01*
X373663Y327911D01*
X373518Y327851D01*
X373383Y327769D01*
X373264Y327666D01*
X373161Y327547D01*
X373079Y327412D01*
X373019Y327267D01*
X372982Y327114D01*
X372973Y326957D01*
X372981Y319339D01*
X370500D01*
Y336339D01*
G37*
G36*
Y309339D02*X372973D01*
X372982Y301209D01*
X373019Y301056D01*
X373079Y300911D01*
X373161Y300776D01*
X373264Y300657D01*
X373383Y300554D01*
X373518Y300472D01*
X373663Y300412D01*
X373816Y300375D01*
X373973Y300366D01*
X383184Y300375D01*
X383337Y300412D01*
X383482Y300472D01*
X383617Y300554D01*
X383736Y300657D01*
X383839Y300776D01*
X383921Y300911D01*
X383981Y301056D01*
X384018Y301209D01*
X384027Y301366D01*
X384018Y309339D01*
X386500D01*
Y291839D01*
X370500D01*
Y309339D01*
G37*
G54D12*X292474Y283200D02*X301526D01*
X296700Y287400D02*X301352D01*
X304474Y283100D02*X307300D01*
X289300Y287400D02*X285400D01*
X289326Y283200D02*X284100D01*
X292448Y287400D02*X297300D01*
X270600Y285300D02*X261200D01*
X271526Y284374D02*X270600Y285300D01*
X271826Y284374D02*X271526D01*
X270643Y269536D02*Y274143D01*
X268626Y270026D02*X268600Y270000D01*
X268626Y279700D02*Y270026D01*
X271826Y279752D02*X271774Y279700D01*
X272600Y273400D02*X273600Y274400D01*
X272600Y270300D02*Y273400D01*
Y270500D02*Y273100D01*
X274581Y264719D02*X274600Y264700D01*
X274581Y269536D02*Y264719D01*
X276550Y269536D02*Y274850D01*
X278519Y269536D02*Y274619D01*
X280400Y270800D02*Y274100D01*
X282400Y270000D02*Y273500D01*
X284642Y262458D02*X284500Y262600D01*
X265300Y278800D02*Y280200D01*
Y281100D02*X263800Y282600D01*
X265300Y280000D02*Y281100D01*
X265200Y275900D02*X263100Y278000D01*
X262800Y274400D02*X263000Y274600D01*
X262800Y269700D02*Y274400D01*
X266700Y277400D02*X265300Y278800D01*
X266700Y270100D02*Y277400D01*
X265200Y273300D02*Y275900D01*
X264700Y272800D02*X265200Y273300D01*
X264700Y269700D02*Y272800D01*
X283900Y287400D02*X285800D01*
X283000Y283200D02*X284300D01*
X281200Y301359D02*X280370Y300529D01*
X280978Y301137D02*X280300Y300459D01*
X276941Y295341D02*X276800Y295200D01*
X280300Y295341D02*X276941D01*
X304400Y287400D02*X307126D01*
X297900Y258500D02*X309400Y270000D01*
X290200Y258500D02*X297900D01*
X295400Y260600D02*X306600Y271800D01*
X289500Y260600D02*X295400D01*
X289535Y262458D02*X284642D01*
X304300Y294174D02*X304126Y294000D01*
X304300Y298126D02*Y294174D01*
X303900Y298200D02*X304300Y297800D01*
X307274Y294100D02*X309900D01*
X304800Y301100D02*X304463Y301437D01*
X306300Y301100D02*X304800D01*
X307000Y300400D02*X306300Y301100D01*
X307800Y300400D02*X307000D01*
X304800Y301774D02*X304300Y301274D01*
X322900Y300400D02*X307200D01*
X298900Y298200D02*X301126D01*
X290074Y297026D02*X290200Y296900D01*
X287400Y297026D02*X290074D01*
X286885Y300689D02*X287400Y300174D01*
X297900Y299200D02*X298900Y298200D01*
X299700D02*X303900D01*
X270643Y274143D02*X283900Y287400D01*
X274200Y274400D02*X283000Y283200D01*
X271826Y284400D02*Y279752D01*
X274974Y287874D02*X275000Y287900D01*
X274974Y284400D02*Y287874D01*
X273600Y274400D02*X274200D01*
X276550Y274850D02*X280300Y278600D01*
X278519Y274619D02*X281200Y277300D01*
X280400Y274100D02*X282300Y276000D01*
X282400Y273500D02*X283000Y274100D01*
X309300Y320113D02*X311513Y317900D01*
G54D13*X309600Y320800D02*X309800Y320600D01*
X308213Y321200D02*X311513Y317900D01*
G54D12*X303815Y318185D02*X304800Y317200D01*
G54D13*X301700Y320800D02*X309600D01*
X302400Y320154D02*X309259D01*
X311513Y317900D01*
X300700Y321200D02*X308213D01*
X299400Y322123D02*X307290D01*
G54D14*X300200Y322100D02*X300100Y322000D01*
G54D13*X307290Y322123D02*X311513Y317900D01*
X302600Y322300D02*X309900D01*
G54D12*X303550Y332050D02*X309300Y326300D01*
Y320113D01*
G54D13*X310100Y321500D02*X310200Y321400D01*
X305800Y321500D02*X310100D01*
X309900Y322300D02*X310400Y321800D01*
X339900Y287800D02*X343300D01*
X343200Y290400D02*X343500Y290100D01*
X339900Y290400D02*X343200D01*
X343000Y292800D02*X343400Y292400D01*
X339900Y292800D02*X343000D01*
G54D12*X343700Y221100D02*X319400D01*
G54D14*X333800Y295000D02*X337400D01*
X336900Y296000D02*X337000Y295900D01*
X334300Y298800D02*X334200Y298700D01*
X334300Y301400D02*Y298800D01*
G54D12*X334326Y187800D02*X331600D01*
G54D14*X343000Y295300D02*X340300D01*
X342200Y298800D02*X342300Y298700D01*
X342200Y301800D02*Y298800D01*
X339500Y301600D02*Y296100D01*
X336900Y301700D02*Y296000D01*
X324300D02*X321700D01*
X321300Y296400D01*
X324100Y294300D02*X321800D01*
X321500Y294000D01*
X323800Y292200D02*X321200D01*
X324200Y289900D02*X321600D01*
X321100Y290400D01*
X324100Y287600D02*X321800D01*
X321500Y287900D01*
G54D12*X325339Y302839D02*X322900Y300400D01*
X325339Y312300D02*Y302839D01*
X298705Y209295D02*X307800Y200200D01*
X289535Y209295D02*X298705D01*
X289535Y211264D02*X300036D01*
X289535Y213233D02*X300867D01*
X289535Y215202D02*X301598D01*
X300036Y211264D02*X309600Y201700D01*
X300867Y213233D02*X311300Y202800D01*
X301598Y215202D02*X313000Y203800D01*
G54D15*X282300Y224900D02*X282600Y224600D01*
X278500Y224900D02*X282300D01*
G54D12*X278500D02*X278400Y225000D01*
X282100Y224900D02*X278500D01*
X282400Y224600D02*X282100Y224900D01*
X274582Y191582D02*X274600Y191600D01*
X319400Y221100D02*X308900Y231600D01*
X305900D01*
X305800Y231500D01*
X309300Y234800D02*X307774D01*
X285400Y224600D02*X282400D01*
X285847Y225047D02*X285400Y224600D01*
X289535Y225047D02*X285847D01*
X284470Y238830D02*X284400Y238900D01*
X289535Y238830D02*X284470D01*
X289535Y248675D02*X295725D01*
X289535Y250644D02*X296256D01*
X289535Y240799D02*X294101D01*
X295000Y239900D01*
X294650Y240250D01*
X300500Y231600D02*X302552D01*
X302652Y231500D01*
X289535Y234892D02*X303118D01*
X303826Y235600D01*
X289535Y232923D02*X299177D01*
X300500Y231600D01*
X289535Y236861D02*X296413D01*
X289535Y242768D02*X297032D01*
X297500Y242300D01*
X304200Y239900D02*X295000D01*
X308800Y237400D02*X301048D01*
X300948Y237500D01*
X309800Y237400D02*X307800D01*
X300648Y242300D02*X302900D01*
X303900Y243300D01*
X313600D02*X314100Y242800D01*
X316200D01*
X316300Y242900D01*
X318899Y240799D02*X311201D01*
X303900Y243300D02*X313600D01*
X311201Y240799D02*X311000Y241000D01*
X307526D02*X305300D01*
X304200Y239900D01*
X310500Y236700D02*X309800Y237400D01*
X275900Y308000D02*Y302200D01*
X271500Y306800D02*Y299500D01*
X277619Y309719D02*X275900Y308000D01*
X279009Y309719D02*X277619D01*
X276451Y311751D02*X271500Y306800D01*
X276451Y312277D02*Y311751D01*
X265074Y298200D02*X264900Y298026D01*
X270200Y298200D02*X265074D01*
X271500Y299500D02*X270200Y298200D01*
X265200Y306000D02*X265300Y306100D01*
Y301574D02*X264900Y301174D01*
X267200Y298200D02*X265074D01*
X265300Y307600D02*Y301574D01*
X273446Y314246D02*X270100Y310900D01*
X276451Y314246D02*X273446D01*
X269415Y316215D02*X267500Y314300D01*
X275085Y316215D02*X269415D01*
X276451D02*X274815D01*
X267584Y318184D02*X265300Y315900D01*
X274516Y318184D02*X267584D01*
X276451D02*X274284D01*
X265300Y315900D02*Y307400D01*
X281200Y303100D02*Y301359D01*
X279500Y303900D02*Y305800D01*
X280300Y303100D02*X279500Y303900D01*
X284300Y303100D02*X280300D01*
X282947Y305747D02*X282700Y305500D01*
X282947Y309719D02*Y305747D01*
X285200Y304000D02*X284300Y303100D01*
X285200Y307500D02*Y304000D01*
X284916Y307784D02*X285200Y307500D01*
X286885Y309719D02*Y300689D01*
X280978Y307278D02*X279500Y305800D01*
X280978Y309719D02*Y307278D01*
G54D13*X270800Y320100D02*X262700D01*
X262900Y321100D02*X262700Y321300D01*
X270300Y321100D02*X262900D01*
X271300Y322100D02*X262800D01*
G54D12*X262400Y331200D02*Y322900D01*
X264400Y333200D02*X262400Y331200D01*
X276008Y325108D02*X271500Y325100D01*
X279008Y325108D02*X276008D01*
X282946Y324680D02*Y330046D01*
G54D14*X280977Y324680D02*Y331177D01*
X279008Y330708D02*X279500Y331200D01*
X279008Y324680D02*Y330708D01*
X274400Y321100D02*X269687D01*
X276451Y320153D02*X268740D01*
X276451Y322122D02*X270709D01*
G54D12*X282946Y330046D02*X283700Y330800D01*
G54D14*X278300Y338900D02*X278700Y338500D01*
X278300Y341100D02*Y338900D01*
X280800Y338600D02*X281100Y338300D01*
X283000Y338800D02*X283200Y338600D01*
X280800Y341300D02*Y338600D01*
X283000Y341300D02*Y338800D01*
X282800Y341700D02*X286000D01*
X282900Y343800D02*X286300D01*
X283000Y346100D02*X286000D01*
X282900Y348100D02*X285800D01*
X283800Y349500D02*X283600Y349300D01*
X283800Y351200D02*Y349500D01*
X281700Y351800D02*Y348600D01*
X279600Y351800D02*Y348600D01*
X277500Y349000D02*X277300Y348800D01*
X277500Y351600D02*Y349000D01*
X275400Y352100D02*Y349100D01*
G54D13*X323500Y347800D02*X323700Y348000D01*
X321200Y347800D02*X323500D01*
X323600Y345700D02*X323900Y345400D01*
X320900Y345700D02*X323600D01*
X323700Y343700D02*X323800Y343600D01*
X320700Y343700D02*X323700D01*
X320400Y341900D02*X324000D01*
X319400Y338600D02*X319300Y338500D01*
X319400Y341200D02*Y338600D01*
X317100Y341200D02*Y338600D01*
X334100Y335400D02*X331200D01*
X331000Y337700D02*X330900Y337600D01*
X334300Y337700D02*X331000D01*
X333600Y338100D02*X333900Y337800D01*
X333600Y340600D02*Y338100D01*
X336000Y337800D02*X336100Y337700D01*
X336000Y340400D02*Y337800D01*
X338800Y337600D02*X338900Y337500D01*
X338800Y340500D02*Y337600D01*
X341500Y340900D02*Y337500D01*
X342300Y316300D02*X342400Y316200D01*
X342300Y319000D02*Y316300D01*
X341400Y320700D02*X341100Y320400D01*
X341400Y322600D02*Y320700D01*
G54D16*X355000Y323000D02*X348600D01*
G54D13*X334800Y316600D02*X334900Y316500D01*
X334800Y319000D02*Y316600D01*
X334100Y322900D02*Y320500D01*
X334300Y324900D02*X334400Y324800D01*
X331200Y324900D02*X334300D01*
X339800Y316800D02*X339900Y316700D01*
X339800Y318700D02*Y316800D01*
X337500Y316300D02*X337400Y316200D01*
X337500Y318700D02*Y316300D01*
X338800Y320500D02*X338900Y320400D01*
X338800Y322600D02*Y320500D01*
X336500Y320100D02*X336300Y319900D01*
X336500Y322800D02*Y320100D01*
X333800Y316500D02*X334000Y316300D01*
X331800Y316500D02*X333800D01*
X331600Y314000D02*X334700D01*
X327700Y314600D02*X327400Y314300D01*
X330000Y314600D02*X327700D01*
X327400Y317300D02*X327300Y317200D01*
X330300Y317300D02*X327400D01*
X330200Y319900D02*X327500D01*
Y322300D02*X327400Y322200D01*
X330300Y322300D02*X327500D01*
X328000Y324600D02*X327800Y324400D01*
X330700Y324600D02*X328000D01*
G54D12*X295500Y308100D02*Y301800D01*
X297900Y308800D02*Y301400D01*
X295349Y311351D02*X297900Y308800D01*
X295349Y312278D02*Y311351D01*
X297900Y304300D02*Y299200D01*
X293881Y309719D02*X295500Y308100D01*
G54D14*X292791Y330709D02*X292400Y331100D01*
X292791Y324680D02*Y330709D01*
G54D12*X292792Y309719D02*X293881D01*
X299653Y314247D02*X302400Y311500D01*
X295349Y314247D02*X299653D01*
X304800Y317200D02*Y301774D01*
X302126Y333474D02*X304100Y331500D01*
X295349Y318185D02*X303815D01*
G54D14*X297400Y321200D02*X301865D01*
X295349Y320154D02*X302911D01*
X295349Y322123D02*X300942D01*
G54D12*X300784Y316216D02*X302400Y314600D01*
X295349Y316216D02*X300784D01*
X284916Y309719D02*Y307784D01*
X288854Y305546D02*X289100Y305300D01*
X288854Y309719D02*Y305546D01*
X290823Y307077D02*X292300Y305600D01*
X290823Y309719D02*Y307077D01*
X288853Y330047D02*X288100Y330800D01*
X288853Y324680D02*Y330047D01*
X286884Y326916D02*X285900Y327900D01*
X286884Y324680D02*Y326916D01*
X284915Y326915D02*X285900Y327900D01*
X284915Y324680D02*Y326915D01*
G54D14*X290822Y330722D02*X290900Y330800D01*
X290822Y324680D02*Y330722D01*
X289500Y341600D02*Y338600D01*
X286500Y341700D02*X286200Y342000D01*
X289200Y341700D02*X286500D01*
X291500Y338500D02*X291400Y338400D01*
X291500Y341300D02*Y338500D01*
X293800D02*X293400Y338100D01*
X293800Y341300D02*Y338500D01*
X286000Y341700D02*X286100Y341600D01*
X286400Y343700D02*X286100Y344000D01*
X289200Y343700D02*X286400D01*
X286500Y346000D02*X286400Y346100D01*
X289100Y346000D02*X286500D01*
X286300Y343800D02*X286400Y343700D01*
X286000Y346100D02*X286300Y345800D01*
X289000Y347900D02*X286600D01*
X288700Y351800D02*X288600Y351900D01*
X288700Y348700D02*Y351800D01*
X285800Y348100D02*X285900Y348200D01*
X290600Y348900D02*X290800Y348700D01*
X290600Y351800D02*Y348900D01*
X292600Y349300D02*X293200Y348700D01*
X297100Y349000D02*X297500Y348600D01*
X292600Y351800D02*Y349300D01*
X295000Y351800D02*Y348500D01*
X297100Y351800D02*Y349000D01*
G54D13*X381500Y320839D02*X385000D01*
X375500D02*X371500D01*
X381500Y322839D02*X385000D01*
X375500D02*X372000D01*
X381500Y324839D02*X385000D01*
X375500D02*X372000D01*
X381500Y325839D02*Y329339D01*
X379500Y325839D02*Y329339D01*
X377500Y325839D02*Y329339D01*
X375500Y325839D02*Y330339D01*
G54D12*X362800Y323000D02*Y327600D01*
X362600Y327800D01*
G54D13*X381500Y307839D02*X385500D01*
X381000Y305839D02*X385500D01*
X381500Y303839D02*X385000D01*
X381500Y302839D02*Y298839D01*
X379500Y302839D02*Y298839D01*
X377500Y302839D02*Y299339D01*
X375500Y302839D02*Y298839D01*
G54D16*X397414Y304500D02*Y301714D01*
X392500Y296800D01*
X385800D01*
X385400Y296400D01*
X422756Y305000D02*X405000D01*
X404500Y304500D01*
G54D13*X375500Y303839D02*X372000D01*
X375500Y305839D02*X372000D01*
X375500Y307839D02*X372000D01*
G54D16*X358900Y314800D02*Y305300D01*
X366400Y297800D01*
X370900D01*
G54D12*X307000Y60832D02*X307032Y60800D01*
X307000Y64800D02*Y60832D01*
X273535D02*X273567Y60800D01*
X273535Y64800D02*Y60832D01*
X303700Y71600D02*X292104D01*
X307000Y68300D02*X303700Y71600D01*
X307000Y64000D02*Y68300D01*
X290100Y87000D02*Y101400D01*
X289600Y86500D02*X290100Y87000D01*
X289400Y79200D02*X289826Y78774D01*
X289552Y78500D02*Y75474D01*
X289726Y78674D02*X289552Y78500D01*
X282600Y71400D02*X285200Y74000D01*
X292104Y71600D02*X289552Y74152D01*
Y75648D02*Y74148D01*
G54D15*X293126Y78500D02*X295500D01*
X295800Y78800D01*
X295300Y91000D02*Y88600D01*
X295700Y88200D01*
G54D12*X284100Y99500D02*X283400Y100200D01*
X284100Y94100D02*Y99500D01*
X283400Y100200D02*X282500D01*
X278300Y100500D02*X278600Y100200D01*
X281374Y101200D02*X282400Y100174D01*
X280700Y101200D02*X281374D01*
X278300Y101600D02*Y100500D01*
X275685Y104215D02*X278300Y101600D01*
X277654Y104246D02*X280700Y101200D01*
X281500Y102700D02*X284200D01*
X275685Y107608D02*Y104215D01*
X277654Y107608D02*Y104246D01*
X279623Y104577D02*X281500Y102700D01*
X279623Y107608D02*Y104577D01*
X281592Y107608D02*Y105808D01*
X283000Y104400D01*
X293500Y130100D02*X299600D01*
X297800Y128300D02*X300100Y126000D01*
X293900Y128300D02*X297800D01*
X292861Y129461D02*X293500Y130100D01*
X287692Y129461D02*X292861D01*
X293092Y127492D02*X293900Y128300D01*
X287692Y127492D02*X293092D01*
X295623Y125523D02*X295900Y125800D01*
X287692Y125523D02*X295623D01*
X295322Y115678D02*X295800Y115200D01*
X303200Y109100D02*X306300D01*
X306700Y108700D01*
X303200Y105300D02*Y101300D01*
X287692Y115678D02*X295322D01*
X283500Y81500D02*Y93500D01*
X285200Y78226D02*X285400Y78426D01*
Y101500D02*Y78426D01*
X285426Y78452D02*X285374Y78400D01*
X285200Y74000D02*Y78226D01*
G54D15*X281700Y78400D02*X279500D01*
X279100Y78800D01*
G54D12*X276300Y71400D02*X282600D01*
X273535Y68635D02*X276300Y71400D01*
X273535Y64000D02*Y68635D01*
X283500Y93500D02*X284100Y94100D01*
G54D15*X281800Y96700D02*Y94700D01*
X281100Y94000D01*
G54D12*X261700Y149300D02*Y147400D01*
X271400Y159000D02*X261700Y149300D01*
X277000Y156800D02*X263500Y143300D01*
X267800Y133600D02*Y136300D01*
Y133600D02*X267808Y133592D01*
X265839Y138139D02*X266000Y138300D01*
X265839Y133592D02*Y138139D01*
X273700Y133607D02*X273715Y133592D01*
X271700Y133638D02*X271746Y133592D01*
X269800Y133615D02*X269777Y133592D01*
X273700Y143100D02*Y133607D01*
X271700Y143900D02*Y133638D01*
X269800Y144400D02*Y133615D01*
X267800Y143500D02*Y145000D01*
X268300Y143000D02*X267800Y143500D01*
X268300Y136800D02*Y143000D01*
X267800Y136300D02*X268300Y136800D01*
X263500Y143300D02*Y140800D01*
X261700Y140908D02*X261708Y140900D01*
X261700Y147800D02*Y140908D01*
X263500Y136600D02*Y141600D01*
X263870Y136230D02*X263500Y136600D01*
X263870Y133592D02*Y136230D01*
X276400Y140000D02*X276200Y140200D01*
X276400Y138100D02*Y140000D01*
X275684Y137384D02*X276400Y138100D01*
X275684Y133592D02*Y137384D01*
X262768Y172968D02*X235400Y145600D01*
X251800Y172300D02*Y166700D01*
X253900Y171500D02*Y166500D01*
X259287Y172920D02*X257387Y171020D01*
X249900Y167200D02*X249300Y166600D01*
X251800Y166700D02*X250000Y164900D01*
X253900Y166500D02*X252300Y164900D01*
X249400Y166700D02*X249300D01*
X289600Y78500D02*Y86500D01*
X273000Y83400D02*X272937Y83463D01*
X277126Y83400D02*X273000D01*
X274900Y85426D02*X272974Y83500D01*
X274900Y87600D02*Y85426D01*
X280100Y83574D02*X280274Y83400D01*
X280100Y85100D02*Y83574D01*
X279300Y85900D02*X280100Y85100D01*
X278700Y85900D02*X279300D01*
X283000Y81000D02*X283500Y81500D01*
X276900Y81000D02*X283000D01*
X275100Y79200D02*X276900Y81000D01*
X261200Y83400D02*X261500Y83100D01*
X261200Y85800D02*Y83400D01*
X256100Y90900D02*X261200Y85800D01*
X264648Y83100D02*X272100D01*
X270200Y93700D02*X269800Y93300D01*
X256600Y90400D02*X255600Y91400D01*
X251900D01*
X251300Y90800D01*
X248700D01*
X272100Y83100D02*X272500Y83500D01*
X275300Y77600D02*X275200Y77700D01*
X275300Y73200D02*Y77600D01*
X275100Y78200D02*Y79200D01*
X272400Y70300D02*X275300Y73200D01*
X265400Y70300D02*X272400D01*
X264200Y71500D02*X265400Y70300D01*
X264200Y72400D02*Y71500D01*
G54D15*X256500Y72600D02*X254400D01*
X269900Y74200D02*X269800Y74100D01*
X269900Y78200D02*Y74200D01*
G54D12*X276300Y88300D02*X278700Y85900D01*
X276300Y91200D02*Y88300D01*
X277300Y92200D02*X276300Y91200D01*
X274900Y95500D02*Y86900D01*
X277300Y93200D02*Y92200D01*
X273700Y96700D02*X274884Y95516D01*
X273716Y107608D02*Y96684D01*
X270200Y101200D02*Y93700D01*
X273200Y94700D02*Y87700D01*
X265840Y107608D02*Y103440D01*
X263871Y104000D02*Y104629D01*
X263696Y103825D02*X263871Y104000D01*
G54D15*X254400Y72600D02*X252500Y70700D01*
G54D12*X245400Y47200D02*X235200D01*
X245300Y43952D02*X245400Y44052D01*
X227200Y65400D02*X229700Y67900D01*
Y76700D01*
X229300Y77100D01*
X227058Y81879D02*X221479D01*
X227058Y86542D02*X225200Y88400D01*
X225300Y90800D02*X224200Y91900D01*
X227050Y86550D02*X227702D01*
X229814Y84438D01*
X227058Y79321D02*X233679D01*
X232600D02*X235679D01*
X235900Y79100D01*
X229826Y84426D02*X235774D01*
X235800Y84400D01*
X221600Y89500D02*X221800Y89300D01*
X224200Y91900D02*X220900D01*
X248900Y90800D02*X225300D01*
X238600Y115000D02*X238700Y114900D01*
X238500Y111100D02*X238700Y110900D01*
X238600Y111000D02*X238700Y110900D01*
X241574Y115200D02*X238700D01*
X239200Y111500D02*X238700Y111000D01*
X258950Y108550D02*X249950D01*
X258700Y111000D02*X245248D01*
X260170Y109770D02*X258900Y108500D01*
X261708Y109770D02*X260170D01*
X259439Y111739D02*X258700Y111000D01*
X261708Y111739D02*X259439D01*
X252200Y116300D02*X249100D01*
X250808Y113708D02*X250800Y113700D01*
X249100Y116300D02*X247800Y115000D01*
X245648D01*
X252823Y115677D02*X252200Y116300D01*
X259800Y115677D02*X252823D01*
X257800Y113708D02*X250808D01*
X257208D02*X257200Y113700D01*
X261708Y113708D02*X257208D01*
X261708Y115677D02*X259123D01*
X247750Y108550D02*X250200D01*
X244500Y105300D02*X247750Y108550D01*
X241600Y111500D02*X239200D01*
X253700Y125900D02*X244848D01*
X239000Y126000D02*X238700Y126300D01*
X241600Y126000D02*X239000D01*
X255050Y127250D02*X253700Y125900D01*
X259978Y125522D02*X258200Y127300D01*
X261708Y125522D02*X259978D01*
X247700Y122100D02*X245048D01*
X247200Y118600D02*X244948D01*
X248154Y117646D02*X247200Y118600D01*
X250185Y119615D02*X247700Y122100D01*
X254900Y119615D02*X250185D01*
X257500Y117646D02*X248154D01*
X261708D02*X257154D01*
X261708Y119615D02*X254385D01*
X238900Y122400D02*X238800Y122500D01*
X241600Y122400D02*X238900D01*
X239000Y118800D02*X238900Y118900D01*
X241600Y118800D02*X239000D01*
X255716Y121584D02*X255000Y122300D01*
X261708Y121584D02*X255716D01*
X258447Y123553D02*X257300Y124700D01*
X261708Y123553D02*X258447D01*
X230300Y105300D02*X244500D01*
X247000Y102700D02*X228500D01*
X248200Y101100D02*X226700D01*
X250300Y93500D02*X227400D01*
X249400Y102300D02*X248200Y101100D01*
X264700Y102300D02*X249400D01*
X248125Y103825D02*X247000Y102700D01*
X264700Y102300D02*X265000Y102600D01*
X248125Y103825D02*X263696D01*
X269778Y101622D02*X270200Y101200D01*
X267809Y99509D02*X267800Y99500D01*
X269778Y102822D02*X269800Y102800D01*
X269778Y107608D02*Y102822D01*
Y103478D02*Y101622D01*
X271747Y96153D02*X273200Y94700D01*
X271747Y107608D02*Y96153D01*
X267809Y107608D02*Y99509D01*
X263871Y107608D02*Y104071D01*
X265840Y103440D02*X264700Y102300D01*
X269500Y161400D02*X238900Y130800D01*
X268200Y163700D02*X233200Y128700D01*
X261708Y131429D02*Y142108D01*
X267900Y166800D02*X227900Y126800D01*
X263600Y169100D02*X222900Y128400D01*
X263200Y170900D02*X220900Y128600D01*
X249300Y166700D02*X233700Y151100D01*
X250600Y165500D02*X235200Y150100D01*
X252900Y165500D02*X236400Y149000D01*
X259000Y131300D02*X257500Y132800D01*
X259000Y131000D02*Y131300D01*
X260540Y129460D02*X259000Y131000D01*
X261708Y129460D02*X260540D01*
X261708D02*X260840D01*
X258000Y129700D02*X245448D01*
X239400Y130200D02*X239100Y130500D01*
X241800Y130200D02*X239400D01*
X257300Y133000D02*X257700Y132600D01*
X254800Y133000D02*X257300D01*
X235700Y150600D02*X221400Y136300D01*
X236800Y149400D02*X222800Y135400D01*
X258250Y127250D02*X255050D01*
X260209Y127491D02*X258000Y129700D01*
X261708Y127491D02*X260209D01*
X236250Y146450D02*X223300Y133500D01*
X224150Y134350D02*X222100Y132300D01*
Y131800D01*
X223700Y136300D02*X222300Y134900D01*
Y134300D01*
X220900Y132900D01*
Y132400D01*
X297300Y169100D02*X296600D01*
X303800Y175600D02*X297300Y169100D01*
X305900Y175600D02*X297100Y166800D01*
X301800Y175600D02*X297100Y170900D01*
X299200Y184900D02*X299300Y185000D01*
X297500Y184900D02*X299200D01*
X296426Y183826D02*X297500Y184900D01*
X296426Y181100D02*Y183826D01*
X299400Y180926D02*X299574Y181100D01*
X299400Y176600D02*Y180926D01*
X298700Y175900D02*X299400Y176600D01*
X320600Y208800D02*Y167200D01*
X318500Y207600D02*Y168600D01*
X316700Y206600D02*Y169400D01*
X315000Y205000D02*Y170200D01*
X313000Y203800D02*Y170700D01*
X303800Y197500D02*Y175600D01*
X305900Y198700D02*Y175600D01*
X301800Y197000D02*Y175600D01*
X296059Y175900D02*X298700D01*
X298200Y188400D02*X295700Y190900D01*
X299174Y188400D02*X298200D01*
X297179Y193543D02*X299174Y191548D01*
X307800Y200200D02*Y173500D01*
X309600Y201700D02*Y172600D01*
X311300Y202800D02*Y171500D01*
X295412Y203388D02*X301800Y197000D01*
X293481Y197481D02*X295700Y199700D01*
X297274Y207326D02*X305900Y198700D01*
X295943Y205357D02*X303800Y197500D01*
X286250Y199450D02*X283500Y196700D01*
X289535Y199450D02*X286250D01*
X284119Y201419D02*X283400Y200700D01*
X289535Y201419D02*X284119D01*
X296712Y195512D02*X297200Y196000D01*
X289535Y195512D02*X296712D01*
X289535Y193543D02*X297179D01*
X289535Y197481D02*X293481D01*
X320600Y167200D02*X301400Y148000D01*
X318500Y168600D02*X300300Y150400D01*
X316700Y169400D02*X299700Y152400D01*
X315000Y170200D02*X299100Y154300D01*
X313000Y170700D02*X299100Y156800D01*
X311300Y171500D02*X298800Y159000D01*
X309600Y172600D02*X298400Y161400D01*
X307800Y173500D02*X298000Y163700D01*
X311126Y141974D02*X312300Y140800D01*
X278600Y148000D02*X273700Y143100D01*
X278200Y150400D02*X271700Y143900D01*
X277800Y152400D02*X269800Y144400D01*
X277100Y154300D02*X267800Y145000D01*
X298800Y159000D02*X271400D01*
X298400Y161400D02*X269500D01*
X298000Y163700D02*X268200D01*
X297100Y166800D02*X267900D01*
X281300Y143100D02*X280500Y143900D01*
X280600Y143800D02*X279100Y145300D01*
X279622Y144778D02*X279100Y145300D01*
X300300Y150400D02*X278200D01*
X299700Y152400D02*X277800D01*
X299100Y154300D02*X277100D01*
X299100Y156800D02*X277000D01*
X301400Y148000D02*X278600D01*
X285550Y145250D02*X285900Y145600D01*
X279150Y145250D02*X285550D01*
X284000Y140600D02*X283900Y140500D01*
X301100Y140600D02*X284000D01*
X279000Y139800D02*Y142100D01*
X277653Y138453D02*X279000Y139800D01*
X277653Y136947D02*Y138453D01*
Y135300D02*Y137253D01*
Y133592D02*Y135753D01*
X281300Y139900D02*Y143100D01*
X281591Y138191D02*X284000Y140600D01*
X283560Y135860D02*X285800Y138100D01*
X283560Y133592D02*Y135860D01*
X288130Y131430D02*X292100Y135400D01*
X287692Y131430D02*X288130D01*
X280450Y139050D02*X281300Y139900D01*
X279622Y138222D02*X280600Y139200D01*
X279622Y133592D02*Y138222D01*
X281591Y133592D02*Y138191D01*
X296900Y169100D02*X263600D01*
X297100Y170900D02*X263200D01*
X275500Y174052D02*X275348Y173900D01*
X275500Y180700D02*Y174052D01*
X269852Y173400D02*X272378D01*
X281074Y177500D02*X281000Y177426D01*
X269774Y177500D02*X272100D01*
X262768Y186465D02*Y173068D01*
X260799Y180701D02*X260800Y180700D01*
X260799Y186465D02*Y180701D01*
X264737Y191437D02*X264800Y191500D01*
X264737Y186465D02*Y191437D01*
X276500Y181700D02*X275500Y180700D01*
X276500Y183800D02*Y181700D01*
X274582Y186465D02*Y191582D01*
X272613Y181213D02*X272000Y180600D01*
X270644Y182544D02*X268700Y180600D01*
X272613Y186465D02*Y181213D01*
X270644Y186465D02*Y182544D01*
X266626Y186385D02*Y177500D01*
X284200D02*X284400Y177700D01*
X281074Y177500D02*X284200D01*
X290941Y177459D02*Y175900D01*
X287900Y180500D02*X290941Y177459D01*
X282100Y180500D02*X287900D01*
X280500Y182100D02*X282100Y180500D01*
X277926Y181126D02*Y177500D01*
X239140Y186465D02*Y172840D01*
X245047Y191247D02*X245500Y191700D01*
X245047Y186465D02*Y191247D01*
G54D15*X243300Y193800D02*X242850Y193350D01*
X243300Y197900D02*Y193800D01*
G54D12*X243400Y197800D02*X243300Y197900D01*
X243400Y193900D02*Y197800D01*
X242800Y193300D02*X243400Y193900D01*
X242800Y190500D02*Y193300D01*
X243800Y177600D02*Y170000D01*
X245700Y165900D02*Y174346D01*
X254892Y186465D02*Y176292D01*
X252923Y186465D02*Y177823D01*
X250954Y186465D02*Y179454D01*
X248985Y186465D02*Y182885D01*
X252923Y178600D02*Y177223D01*
X254892Y177708D02*Y175392D01*
X243078Y190222D02*X242800Y190500D01*
X247016Y190016D02*X248700Y191700D01*
X243078Y186465D02*Y190222D01*
X247016Y186465D02*Y190016D01*
X241109Y186465D02*Y172709D01*
X248985Y182885D02*X243800Y177700D01*
X245700Y174346D02*X250954Y179600D01*
X252923Y177223D02*X249900Y174200D01*
X254892Y175392D02*X251800Y172300D01*
X256861Y174461D02*X253900Y171500D01*
X249900Y174200D02*Y167200D01*
X262768Y174100D02*Y172968D01*
X259287Y173646D02*Y172920D01*
X256861Y186465D02*Y174761D01*
X258800Y186435D02*Y179500D01*
X256861Y178439D02*Y174461D01*
X259287Y177520D02*Y176794D01*
X258800Y179800D02*Y179200D01*
X259300Y178700D01*
Y177400D01*
X259287Y177387D01*
X333000Y132674D02*X332874Y132800D01*
X338252Y139200D02*X322826D01*
X332874Y132800D02*X351200D01*
X351500Y132500D01*
X329726Y132800D02*X320700D01*
X322826Y139200D02*X322074Y138448D01*
X325000Y135300D02*X322074D01*
X322000Y142452D02*Y138522D01*
X322074Y138448D01*
G54D15*X350774Y152900D02*Y155726D01*
X350500Y156000D01*
G54D12*X343000Y128000D02*X313500D01*
X340000Y126000D02*X317000D01*
X333000Y123500D02*X321608D01*
X313500Y128000D02*X313400Y128100D01*
X329500Y121500D02*X325170D01*
X325085Y121585D01*
X321608Y123500D02*X321554Y123554D01*
X321300Y132800D02*X319000D01*
X313052Y131452D02*X313100Y131500D01*
X309500Y137500D02*X309400Y137600D01*
X309500Y134000D02*X309400Y134100D01*
X309500Y137500D02*Y134200D01*
X309400Y134100D01*
X319000Y132800D02*X317800Y134000D01*
X309500D01*
X304100Y137600D02*X301100Y140600D01*
X309400Y137600D02*X304100D01*
X309400Y130626D02*X312226D01*
X313100Y131500D01*
X322000Y145600D02*X324900D01*
X325000Y145700D01*
X322174Y142278D02*X322000Y142452D01*
X318700Y142600D02*X321852D01*
X322000Y142452D01*
X316900Y144400D02*X318700Y142600D01*
X309400Y141974D02*X311126D01*
X379500Y222200D02*Y168800D01*
X376500Y225200D02*X379500Y222200D01*
X376500Y225300D02*Y225200D01*
X376750Y172250D02*X376700Y172200D01*
X376750Y214550D02*Y172250D01*
X376300Y215000D02*X376700Y214600D01*
X357500Y215000D02*X376300D01*
X347000Y225500D02*X357500Y215000D01*
X349500Y228300D02*X352500Y225300D01*
X350500Y219300D02*Y160300D01*
X345600Y219200D02*Y160600D01*
X347800Y219500D02*Y165000D01*
X376300Y225300D02*X376800Y224800D01*
X352500Y225300D02*X376300D01*
X340700Y177200D02*X340400Y176900D01*
X340700Y183500D02*Y177200D01*
X343200Y184600D02*Y181200D01*
Y183000D02*X343300Y182900D01*
X340700Y182700D02*X340800Y182600D01*
X341800Y202200D02*Y194000D01*
X343200Y192600D02*Y183000D01*
X341800Y194000D02*X343200Y192600D01*
X337600Y195400D02*X340700Y192300D01*
X337300Y187974D02*X337474Y187800D01*
X337300Y191800D02*Y187974D01*
X330700Y198400D02*X337300Y191800D01*
X340700Y192300D02*Y182700D01*
Y240600D02*X340400Y240900D01*
X340700Y233400D02*Y240600D01*
Y214000D02*Y205900D01*
X337600Y202300D02*Y195400D01*
X335700Y240800D02*X335800Y240900D01*
X335700Y233400D02*Y240800D01*
Y214000D02*Y205700D01*
X330700Y214000D02*Y198400D01*
X325700Y207600D02*X328600Y204700D01*
X325700Y214000D02*Y207600D01*
X335700Y205700D02*X335500Y205500D01*
X340700Y205900D02*X340800Y205800D01*
X347000Y238500D02*Y225500D01*
X342300Y243200D02*X347000Y238500D01*
X343700Y221100D02*X345600Y219200D01*
X349500Y239500D02*Y235000D01*
Y236000D02*Y228300D01*
X343600Y226200D02*X350500Y219300D01*
X343700Y223600D02*X347800Y219500D01*
X330700Y233400D02*Y240900D01*
X325700Y233400D02*Y240900D01*
X321300Y243200D02*X342300D01*
X318899Y240799D02*X321300Y243200D01*
X321000Y226200D02*X343600D01*
X320500Y223600D02*X343700D01*
X318200Y244800D02*X343800D01*
X317200Y246300D02*X345000D01*
X315637Y244737D02*X317200Y246300D01*
X316168Y242768D02*X318200Y244800D01*
X316100Y248400D02*X347200D01*
X314406Y246706D02*X316100Y248400D01*
X344200Y244800D02*X349500Y239500D01*
X340300Y244800D02*X344200D01*
X348700D02*X349000Y244500D01*
X346500Y244800D02*X348700D01*
X345000Y246300D02*X346500Y244800D01*
X333948Y251900D02*X348100D01*
X330500Y252200D02*X330800Y251900D01*
X316500Y252200D02*X330500D01*
X312975Y248675D02*X316500Y252200D01*
X336352Y256000D02*X337252Y256900D01*
X313800Y256000D02*X336352D01*
X319500Y278600D02*X353700D01*
X320000Y277300D02*X353500D01*
X309400Y270000D02*X370300D01*
X306600Y271800D02*X373500D01*
X282300Y276000D02*X376300D01*
X283000Y274100D02*X379800D01*
X308444Y250644D02*X313800Y256000D01*
X305300Y259500D02*X314467D01*
X308500Y265800D02*X314467D01*
X300382Y254582D02*X305300Y259500D01*
X299251Y256551D02*X308500Y265800D01*
X403200Y271800D02*X403850Y271150D01*
X389800Y271800D02*X403200D01*
X311800Y265800D02*X434300D01*
X434600Y265500D01*
X459000Y257000D02*X453000D01*
X310800Y259500D02*X427300D01*
X459000Y246764D02*X455412D01*
X450148Y241500D01*
X447000D02*Y238000D01*
X447500Y237500D01*
X347200Y248400D02*X347300Y248300D01*
X348100Y251900D02*X360000Y240000D01*
X365300Y244700D02*X370000Y240000D01*
X365300Y251400D02*Y244700D01*
X356000Y280900D02*X362800D01*
X353700Y278600D02*X356000Y280900D01*
X356300Y277300D02*X357500Y278500D01*
X352800Y277300D02*X356300D01*
X359800Y256900D02*X365300Y251400D01*
X340400Y256900D02*X359800D01*
X374100Y276000D02*X382100D01*
X378500Y274100D02*X387700D01*
X369200Y270000D02*X387000D01*
X371400Y271800D02*X391800D01*
X370300Y270000D02*X370400Y269900D01*
X406422Y230622D02*X411600Y235800D01*
X406100Y230622D02*X406422D01*
X405874D02*X407722D01*
X392700Y210900D02*X387400D01*
X402000D02*X392000D01*
X393300Y218700D02*X387000D01*
X389600Y226600D02*X389400Y226800D01*
G54D15*X391100Y173000D02*Y175900D01*
X391000Y176000D01*
X394900Y173000D02*Y175900D01*
X395000Y176000D01*
G54D12*X394600Y226600D02*X389600D01*
X402000D02*X392700D01*
X405852Y222748D02*X402000Y226600D01*
X405874Y222748D02*X405852D01*
X402000Y218700D02*X392000D01*
X405826Y214874D02*X402000Y218700D01*
X405874Y214874D02*X405826D01*
X405874Y207026D02*X402000Y210900D01*
X405874Y207000D02*Y207026D01*
X459000Y202000D02*X453000D01*
X459000Y191764D02*X454264D01*
X450000Y187500D01*
X459000Y179000D02*X453000D01*
X459000Y168764D02*X454838D01*
X450074Y164000D01*
X446600D02*X435400D01*
X434600Y164800D01*
X298446Y230954D02*X320600Y208800D01*
X310300Y236900D02*X320961Y226239D01*
X309208Y234892D02*X320500Y223600D01*
X289535Y230954D02*X298446D01*
X289535Y223078D02*X303022D01*
X289535Y221109D02*X302191D01*
X289535Y217171D02*X302829D01*
X289535Y207326D02*X297274D01*
X303022Y223078D02*X318500Y207600D01*
X302191Y221109D02*X316700Y206600D01*
X302829Y217171D02*X315000Y205000D01*
X289535Y205357D02*X295943D01*
X289535Y203388D02*X295412D01*
X286015Y228985D02*X284600Y230400D01*
X289535Y228985D02*X286015D01*
X284784Y227016D02*X284600Y227200D01*
X289535Y227016D02*X284784D01*
X284040Y219140D02*X284000Y219100D01*
X289535Y219140D02*X284040D01*
X290300Y244737D02*X315637D01*
X289535Y246706D02*X314406D01*
X295200Y248675D02*X312975D01*
X295700Y250644D02*X308444D01*
X289535Y254582D02*X300382D01*
X289535Y244737D02*X294837D01*
X289535Y256551D02*X299251D01*
X280300Y278600D02*X320700D01*
X281200Y277300D02*X321200D01*
X284513Y252613D02*X284500Y252600D01*
X289535Y252613D02*X284513D01*
G54D15*X245000Y262200D02*X245300Y262500D01*
X245000Y258100D02*Y262200D01*
G54D12*Y261500D02*Y258100D01*
X245300Y261800D02*X245000Y261500D01*
X245300Y265900D02*Y261800D01*
X245046Y266154D02*X245300Y265900D01*
X245046Y269536D02*Y266154D01*
X229294Y265994D02*X228000Y264700D01*
X228500Y260400D02*Y258700D01*
X241108Y266108D02*X239800Y264800D01*
X241108Y269536D02*Y266108D01*
X241000Y269644D02*X241108Y269536D01*
X239200Y269597D02*X239139Y269536D01*
X237200Y269566D02*X237170Y269536D01*
X235200Y269537D02*X235201Y269536D01*
X249100Y269652D02*X248984Y269536D01*
X247000Y269551D02*X247015Y269536D01*
X229294D02*Y265994D01*
X229295Y186465D02*Y175495D01*
X227326Y186465D02*Y176426D01*
X227500Y261400D02*X228500Y260400D01*
X237171Y191671D02*X237200Y191700D01*
X237171Y186465D02*Y191671D01*
X235202Y186465D02*Y171902D01*
X233349Y186349D02*Y173149D01*
X231264Y186465D02*Y174164D01*
X233300Y186398D02*X233233Y186465D01*
X225357D02*Y177157D01*
X221500Y186384D02*X221419Y186465D01*
X221500Y178800D02*Y186384D01*
X260750Y269584D02*X260798Y269536D01*
X258700Y269665D02*X258829Y269536D01*
X258700Y279900D02*Y269665D01*
X254800Y269627D02*X254891Y269536D01*
X254800Y279700D02*Y269627D01*
X252900Y269558D02*X252922Y269536D01*
X252900Y277400D02*Y269558D01*
X249100Y277500D02*Y269652D01*
X247000Y275600D02*Y269551D01*
X239200Y279200D02*Y269597D01*
X237200Y278200D02*Y269566D01*
X235200Y276300D02*Y269537D01*
X292100Y100500D02*X295100Y97500D01*
X292100Y101900D02*Y100500D01*
X284200Y102700D02*X285400Y101500D01*
X290100Y101400D02*X289300Y102200D01*
X286392Y107608D02*X292100Y101900D01*
X285608Y107608D02*X286392D01*
X285530D02*X286092D01*
X287100Y104400D02*X289400Y102100D01*
X283000Y104400D02*X287100D01*
X288029Y109771D02*X291900Y105900D01*
X287692Y109771D02*X288029D01*
X303400Y100800D02*X303300Y100900D01*
X305200Y100800D02*X303400D01*
X306300Y99700D02*X305200Y100800D01*
X306300Y93500D02*Y99700D01*
X303300Y97600D02*Y94800D01*
X304800Y92000D02*X306300Y93500D01*
X303700Y92000D02*X304800D01*
X295100Y97500D02*Y94600D01*
X303650Y91950D02*X294500Y82800D01*
X299800Y110600D02*X302000Y112800D01*
X298000Y112700D02*X300300Y115000D01*
X308553Y117647D02*X309700Y116500D01*
X287692Y117647D02*X308553D01*
X294000Y110600D02*X299800D01*
X294200Y112700D02*X298000D01*
X293191Y113709D02*X294200Y112700D01*
X292860Y111740D02*X294000Y110600D01*
X287692Y111740D02*X292860D01*
X287692Y113709D02*X293191D01*
X287692Y123554D02*X312554D01*
X287692Y121585D02*X312785D01*
X287692Y119616D02*X312484D01*
X310116Y119500D02*X310000Y119616D01*
X309700Y116500D02*X316300D01*
X311100Y115000D02*X314000D01*
X310900Y121585D02*X326615D01*
X300300Y115000D02*X314500D01*
X326615Y121585D02*X326700Y121500D01*
X309400Y123554D02*X323254D01*
X310700Y126000D02*X318900D01*
X312554Y123554D02*X312600Y123600D01*
X350500Y120500D02*X343000Y128000D01*
X349500Y116500D02*X340000Y126000D01*
X310600Y128100D02*X314700D01*
X311700D02*X311800Y128000D01*
X301600Y128100D02*X311700D01*
X299600Y130100D02*X301600Y128100D01*
X300100Y126000D02*X312400D01*
X302000Y112800D02*X310500D01*
X309800D02*X313200D01*
X341500Y84500D01*
X314500Y115000D02*X337000Y92500D01*
X339000Y100500D02*X320000Y119500D01*
X310116D01*
X339000Y96500D02*X319000Y116500D01*
X314500D01*
X349000Y102000D02*X329500Y121500D01*
X352500Y104000D02*X333000Y123500D01*
X378852Y55500D02*Y59148D01*
X382000Y55500D02*Y76500D01*
X378852Y59148D02*X378500Y59500D01*
X443000Y55000D02*Y70900D01*
X351500Y50000D02*X450500D01*
X453000Y52500D01*
Y70900D01*
X388500Y55500D02*Y59000D01*
X388000Y59500D01*
X391648Y55500D02*Y80148D01*
X392000Y80500D01*
X341500Y84500D02*X382000D01*
X337000Y92500D02*X382000D01*
X395000Y100500D02*X339000D01*
X392000Y96500D02*X339000D01*
X389500Y102000D02*X349000D01*
X385000Y104000D02*X352500D01*
X392000Y88500D02*X394000D01*
X396500Y91000D01*
Y99000D01*
X395000Y100500D01*
X392000Y104500D02*X389500Y102000D01*
X382500Y125000D02*X382000Y124500D01*
X386000Y119000D02*X384500Y120500D01*
X393000Y121500D02*X392000Y120500D01*
X384500D02*X350500D01*
X382000Y116500D02*X349500D01*
X382000Y108500D02*X383000D01*
X386000Y111500D01*
Y119000D01*
X392000Y112500D02*X387500Y108000D01*
Y106500D01*
X385000Y104000D01*
X453000Y147000D02*Y130100D01*
X443000Y145500D02*Y130100D01*
X341400Y139200D02*X350700D01*
X361500Y150000D02*X438500D01*
X443000Y145500D01*
G54D15*X354574Y152900D02*Y155974D01*
G54D12*X453000Y202000D02*X452500Y202500D01*
X453000Y179000D02*X452500Y179500D01*
X427400Y187600D02*X446752D01*
X446852Y187500D01*
X379500Y168800D02*X379900Y168400D01*
X350500Y160300D02*X350600Y160200D01*
X345600Y160600D02*X345700Y160500D01*
X379352Y144000D02*Y140648D01*
X379500Y140500D01*
X389852Y144000D02*Y140648D01*
X390000Y140500D01*
X382500Y144000D02*Y125000D01*
X393000Y144000D02*Y121500D01*
X350700Y139200D02*X361500Y150000D01*
X159400Y295000D02*X202500D01*
X160000Y293000D02*X200500D01*
X142900Y278500D02*X159400Y295000D01*
X149100Y277600D02*X159300Y287800D01*
X148800Y281800D02*X160000Y293000D01*
X141300Y284700D02*X141400Y284600D01*
X142900Y275000D02*Y278500D01*
X142400Y274500D02*X142900Y275000D01*
X144484Y271287D02*Y277484D01*
X146453Y271287D02*Y274953D01*
X149500Y278000D01*
X148422Y273422D02*X149500Y274500D01*
X148422Y271287D02*Y273422D01*
X150391Y271287D02*Y272391D01*
Y271900D02*Y273391D01*
X152360Y271287D02*Y273560D01*
X144484Y277484D02*X149000Y282000D01*
X148850Y273850D02*X158100Y283100D01*
X150391Y273391D02*X156200Y279200D01*
X158000D01*
X152360Y273560D02*X155300Y276500D01*
X227325Y275175D02*X202400Y300100D01*
X203000Y294500D02*X212850Y284650D01*
X202500Y295000D02*X203100Y294400D01*
X212500Y285000D02*X217500Y280000D01*
X233232Y273768D02*X201100Y305900D01*
X183700Y327800D02*X235200Y276300D01*
G54D14*X230000Y320300D02*X230200Y320100D01*
X230000Y322900D02*Y320300D01*
G54D12*X199100Y287800D02*X198400D01*
X203700Y283200D02*X199100Y287800D01*
X183700Y327800D02*X183750Y327750D01*
X237150Y278200D02*X185600Y329750D01*
X183913Y334487D02*X239200Y279200D01*
X247000Y275600D02*X185000Y337600D01*
G54D14*X236200Y322800D02*Y319700D01*
X238800Y335900D02*X238700Y335800D01*
X241600Y335900D02*X238800D01*
G54D12*X190600Y348000D02*X258700Y279900D01*
X254100Y297800D02*X254000Y297900D01*
X256626Y297800D02*X254100D01*
G54D14*X231400Y338400D02*X231900Y337900D01*
X231400Y341100D02*Y338400D01*
G54D12*X260750Y281850D02*X191500Y351100D01*
G54D13*X222900Y348600D02*Y344300D01*
X221100Y348700D02*Y344200D01*
X219300Y348600D02*Y343900D01*
G54D14*X247700Y348300D02*X251700D01*
G54D12*X260000Y298026D02*X259774Y297800D01*
G54D13*X219500Y329000D02*Y326500D01*
X225500Y329000D02*Y326000D01*
X223500Y329000D02*Y326000D01*
X221500Y329000D02*Y325500D01*
G54D12*X254800Y279700D02*X188900Y345600D01*
G54D13*X222900Y344300D02*X222700Y344100D01*
G54D14*X252500Y338300D02*Y341000D01*
X247500Y343400D02*X251200D01*
G54D12*X186500Y340100D02*X249100Y277500D01*
X187400Y342900D02*X252900Y277400D01*
X247013Y308287D02*X249300Y306000D01*
X247013Y318000D02*Y308287D01*
G54D14*X238500Y338000D02*X238400Y337900D01*
X241400Y338000D02*X238500D01*
X236100Y337900D02*X235900Y337700D01*
X236100Y340700D02*Y337900D01*
X233800D02*X233500Y337600D01*
X233800Y340800D02*Y337900D01*
G54D13*X226100Y352100D02*X226400Y351800D01*
X222900Y352100D02*X226100D01*
X222700Y354000D02*X225700D01*
X222900Y355900D02*X226200D01*
X222500Y358000D02*X226700D01*
X226100Y349900D02*X226200Y350000D01*
X223100Y349900D02*X226100D01*
X208800Y349000D02*X209100Y349300D01*
X205400Y349000D02*X208800D01*
X208600Y351200D02*X208800Y351400D01*
X204500Y351200D02*X208600D01*
X208000Y353400D02*X208200Y353600D01*
X204800Y353400D02*X208000D01*
X205100Y355600D02*X208400D01*
X208300Y357600D02*X208400Y357700D01*
X205400Y357600D02*X208300D01*
G54D14*X245000Y315000D02*X245100Y314900D01*
X242500Y315000D02*X245000D01*
X245600Y317700D02*X245800Y317500D01*
X242200Y317700D02*X245600D01*
X241800Y319800D02*X245700D01*
X245400Y321900D02*X245500Y322000D01*
X242200Y321900D02*X245400D01*
Y324600D02*X245500Y324500D01*
X242300Y324600D02*X245400D01*
X238400Y325300D02*X238200Y325500D01*
X242000Y325300D02*X238400D01*
X238900Y323400D02*X238600Y323700D01*
X241700Y323400D02*X238900D01*
X238400Y319600D02*X238500Y319500D01*
X238400Y322900D02*Y319600D01*
X236200Y319700D02*X236300Y319600D01*
G54D13*X230000Y324000D02*X227000D01*
X229500Y326000D02*X226500D01*
G54D14*X233900Y319900D02*X234200Y319600D01*
X233900Y322600D02*Y319900D01*
X231800Y320300D02*X232000Y320100D01*
X231800Y322800D02*Y320300D01*
G54D12*X249300Y306000D02*X265200D01*
X264900Y298026D02*X260000D01*
G54D14*X254900Y338100D02*Y340900D01*
X247600Y345700D02*X251000D01*
X238200Y338200D02*X238400Y338000D01*
X238200Y340900D02*Y338200D01*
G54D12*X152360Y334287D02*Y336860D01*
X153100Y337600D01*
X185000D01*
X154329Y334487D02*X183913D01*
X150391Y334287D02*Y337991D01*
X148422Y334287D02*Y339422D01*
X146453Y334287D02*Y341453D01*
X144484Y334287D02*Y342684D01*
X150391Y337991D02*X152500Y340100D01*
X148422Y339422D02*X151900Y342900D01*
X146453Y341453D02*X150600Y345600D01*
X144484Y342684D02*X149800Y348000D01*
X140546Y343146D02*X148500Y351100D01*
X191500D01*
X149800Y348000D02*X190600D01*
X150600Y345600D02*X188900D01*
X151900Y342900D02*X187400D01*
X152500Y340100D02*X186500D01*
X142516Y307713D02*Y304884D01*
X143100Y304300D01*
Y303300D01*
X143500Y302900D01*
X140547Y307713D02*Y303153D01*
X140700Y303000D01*
G54D15*X167574Y313674D02*X167600Y313700D01*
X164100Y310500D02*X161300D01*
X167900D02*Y313400D01*
X167600Y313700D01*
X167374Y328726D02*X167400Y328700D01*
G54D12*X176400Y327800D02*X183700D01*
X185650Y329750D02*X172450D01*
X169100Y326400D01*
X165200D01*
X164500Y322200D02*X170800D01*
X176400Y327800D01*
X165200Y326400D02*X162500Y329100D01*
X159800D01*
G54D15*X163900Y331700D02*X161100D01*
X167700D02*Y329100D01*
X167350Y328750D01*
G54D12*X159800Y329100D02*X159200Y329700D01*
X156948D01*
X156787Y329861D01*
Y327892D02*X158808D01*
X164500Y322200D01*
X223400Y269500D02*Y265500D01*
X221418Y265518D02*X220200Y264300D01*
X221418Y265900D02*Y265518D01*
X220200Y264300D02*X211600D01*
X212400Y265600D02*X211700Y266300D01*
X218900Y265600D02*X212400D01*
X219449Y269536D02*Y266149D01*
X221418Y269536D02*Y265918D01*
X211700Y266300D02*Y269300D01*
X219449Y266149D02*X218900Y265600D01*
X215500Y269547D02*X215511Y269536D01*
X217500Y269556D02*X217480Y269536D01*
X206443Y262457D02*X203700Y265200D01*
X206464Y262457D02*X206443D01*
X206100Y262821D02*X206464Y262457D01*
X206421Y262500D02*X206464Y262457D01*
X201600Y260500D02*X206452D01*
X199500Y262600D02*X201600Y260500D01*
X200500Y293000D02*X211850Y281650D01*
X206452Y260500D02*X206464Y260488D01*
X156787Y264892D02*X161108D01*
X156787Y266861D02*X159339D01*
X159700Y266500D01*
G54D15*X167574Y265874D02*X167300Y265600D01*
G54D12*X166900Y261700D02*X179100D01*
G54D15*X168200Y268400D02*Y266500D01*
X167300Y265600D01*
G54D12*X179100Y261700D02*X184000Y256800D01*
X159700Y266500D02*X162100D01*
X166900Y261700D01*
G54D15*X164400Y268400D02*X162000D01*
X161700Y268700D01*
G54D12*X211700Y269700D02*Y271200D01*
X211600Y264300D02*X206800Y269100D01*
X211700Y268900D02*Y270200D01*
X213600Y275474D02*X211974Y277100D01*
X213600Y270200D02*Y275474D01*
X208826Y279926D02*X209000Y280100D01*
X208826Y277100D02*Y279926D01*
X215500Y278000D02*Y269547D01*
X211500Y282000D02*X215500Y278000D01*
X154329Y271487D02*X181413D01*
X155300Y276500D02*X183600D01*
X157200Y279200D02*X188000D01*
X158100Y283100D02*X191200D01*
X159300Y287800D02*X198800D01*
X181413Y271487D02*X188900Y264000D01*
X183600Y276500D02*X193200Y266900D01*
X188000Y279200D02*X196300Y270900D01*
X199500Y274800D02*Y262600D01*
X191200Y283100D02*X199500Y274800D01*
X233232Y269536D02*Y273768D01*
X237200Y278200D02*X237150D01*
X231263Y264937D02*X231500Y264700D01*
X243077Y264877D02*X243000Y264800D01*
X231263Y269536D02*Y264937D01*
X243077Y269536D02*Y264877D01*
Y268223D02*X243100Y268200D01*
X210519Y258519D02*X211700Y259700D01*
X206464Y258519D02*X210519D01*
X211650Y256550D02*X211700Y256500D01*
X206464Y256550D02*X211650D01*
X210900Y272000D02*X208600D01*
X211700Y271200D02*X210900Y272000D01*
X203700Y265200D02*Y283200D01*
X196300Y270900D02*Y256600D01*
X227325Y269536D02*Y275175D01*
X222300Y274500D02*X220300Y276500D01*
X223900Y274500D02*X222300D01*
X225356Y273044D02*X223900Y274500D01*
X225356Y269536D02*Y273044D01*
X231263Y268137D02*X231300Y268100D01*
X227700Y261200D02*X224800Y264100D01*
X223400Y265500D02*X225100Y263800D01*
X217500Y280000D02*Y269556D01*
X250953Y265347D02*X251300Y265000D01*
X250953Y269536D02*Y265347D01*
X256860Y265040D02*X257000Y264900D01*
X256860Y269536D02*Y265040D01*
X250953Y268347D02*X251000Y268300D01*
X256860Y268240D02*X256900Y268200D01*
X260750Y281850D02*Y269584D01*
X180074Y298826D02*X180000Y298900D01*
X187300Y298826D02*X180074D01*
X184126Y301974D02*X184000Y302100D01*
X187300Y301974D02*X184126D01*
X180852Y306552D02*X180300Y306000D01*
X186774Y306552D02*X180852D01*
X183500Y309700D02*X183300Y309900D01*
X186774Y309700D02*X183500D01*
X187126Y306200D02*X186774Y306552D01*
X193326Y306200D02*X187126D01*
X196774Y305900D02*X196474Y306200D01*
X201100Y305900D02*X196774D01*
X187574Y299100D02*X187300Y298826D01*
X190400Y299100D02*X187574D01*
X191500Y300200D02*X190400Y299100D01*
X193326Y300200D02*X191500D01*
X196574Y300100D02*X196474Y300200D01*
X202400Y300100D02*X196574D01*
X183900Y334487D02*X183913D01*
X152200Y292000D02*X153300Y293100D01*
X160971Y310171D02*X161300Y310500D01*
X156987Y310171D02*X160971D01*
X160970Y331830D02*X161100Y331700D01*
X156987Y331830D02*X160970D01*
X130213Y327891D02*X124509D01*
X130213Y329860D02*X127614D01*
X124774Y332700D01*
G54D15*X132000Y339200D02*X131800Y339000D01*
X125200Y338900D02*Y336300D01*
X132000Y339300D02*X131750Y339050D01*
G54D12*X139100Y346500D02*X139600Y347000D01*
X134500Y341400D02*X135400Y342300D01*
G54D15*X132000Y342100D02*Y339300D01*
G54D12*X134500Y340500D02*Y341400D01*
X134300Y340300D02*X134500Y340500D01*
X134300Y337900D02*Y340300D01*
X134639Y337561D02*X134300Y337900D01*
X134639Y334287D02*Y337561D01*
X139100Y337000D02*Y346500D01*
X138577Y336477D02*X139100Y337000D01*
X138577Y334287D02*Y336477D01*
X136608Y338908D02*X136700Y339000D01*
X136608Y334287D02*Y338908D01*
X140546Y334287D02*Y343146D01*
G54D15*X135174Y345574D02*X135200Y345600D01*
X125200Y342700D02*Y345400D01*
X125100Y345500D01*
X132000Y345900D02*X134900D01*
X135200Y345600D01*
G54D12*X130213Y321984D02*X127884D01*
X127250Y321350D01*
X130213Y323953D02*X125953D01*
X125600Y323600D01*
X130213Y320015D02*X126615D01*
X125600Y319000D01*
X146274Y295274D02*X146700Y295700D01*
X143500Y295274D02*X146274D01*
G54D15*X135474Y296726D02*X135500Y296700D01*
X132200Y296400D02*X135200D01*
X135500Y296700D01*
G54D12*X124600Y283200D02*X136000D01*
X124400Y283000D02*X124600Y283200D01*
X123000Y284700D02*X141300D01*
X121300Y286400D02*X140000D01*
X140100Y286500D01*
X128170Y310170D02*X125100Y307100D01*
X130013Y310170D02*X128170D01*
G54D15*X124900Y304500D02*Y306900D01*
X125050Y307050D01*
X124900Y300700D02*Y297900D01*
G54D12*X130213Y312139D02*X124713D01*
X132671Y304371D02*X131500Y303200D01*
X132671Y307513D02*Y304371D01*
G54D15*X131500Y303000D02*Y300900D01*
X132200Y300200D01*
G54D12*X136609Y307713D02*Y304491D01*
X137100Y304000D01*
Y302100D01*
X136800Y301800D01*
Y300300D01*
X136500Y300000D01*
X138578Y301622D02*X140200Y300000D01*
X138578Y307713D02*Y301622D01*
X122100Y318500D02*X121600D01*
X124500Y316100D02*X122100Y318500D01*
X121574Y315000D02*X122800D01*
X123700Y314100D01*
X121674Y318600D02*X121574Y318500D01*
X122100Y318000D02*X121587Y318513D01*
X130190Y316100D02*X124500D01*
X123700Y314100D02*X130205D01*
X130213Y314108D01*
X130190Y316100D02*X130213Y316077D01*
Y325922D02*X121996D01*
X121574Y325500D01*
X122548Y321500D02*X122048Y322000D01*
X122698Y321350D02*X122574Y321474D01*
X127250Y321350D02*X122698D01*
X108274Y317000D02*X108212Y317062D01*
X108237Y317037D02*X111563D01*
X108212Y319031D02*X112869D01*
X108212Y321000D02*X113400D01*
X111563Y317037D02*X113600Y315000D01*
X112869Y319031D02*X116900Y315000D01*
X118426D01*
X115800Y318600D02*X118326D01*
X118426Y318500D01*
X113600Y315000D02*X113700D01*
X114800Y313900D01*
G54D15*X113700Y315000D02*X114900Y313800D01*
X115400Y313300D01*
Y311300D01*
G54D12*X113400Y321000D02*X115800Y318600D01*
X108212Y322969D02*X112769D01*
X108212Y324938D02*X112138D01*
X118326Y325400D02*X118426Y325500D01*
X112769Y322969D02*X115200Y325400D01*
X118326D01*
X112138Y324938D02*X116100Y328900D01*
X118326D01*
X118426Y329000D01*
X124509Y327891D02*X123600Y328800D01*
X121774D01*
X121574Y329000D01*
G54D15*X118574Y322000D02*X115900D01*
G54D12*X108212Y326907D02*Y330012D01*
X108963Y336037D02*Y339063D01*
X109500Y339600D01*
X108212Y330012D02*X112100Y333900D01*
X112074Y336000D02*Y336174D01*
X113300Y337400D01*
Y339600D01*
G54D15*X121300Y332700D02*Y336000D01*
X120900Y336400D01*
X98900Y339900D02*Y338500D01*
X99100Y338300D01*
Y336000D01*
X99500Y335600D01*
X102700Y339900D02*X105600D01*
X105700Y339800D01*
G54D12*X95226Y299000D02*Y297674D01*
X96100Y296800D01*
X96800D01*
X97300Y296300D01*
Y294526D01*
X97274Y294500D01*
G54D15*X102000Y293600D02*X104726D01*
G54D12*X102800Y284200D02*X98700D01*
X97500Y283000D01*
G54D15*X104126Y293626D02*X104200Y293700D01*
X105100Y300700D02*Y298300D01*
X105500Y297900D01*
X115500Y288500D02*X113000D01*
G54D12*X100600Y284200D02*X122500D01*
X123000Y284700D01*
X108200Y285400D02*X120300D01*
X121300Y286400D01*
X114800Y312126D02*X114900Y312026D01*
G54D15*X120426Y307926D02*X120400Y307900D01*
X120100Y311000D02*Y308300D01*
G54D12*X124713Y312139D02*X123574Y311000D01*
G54D15*X120100Y308300D02*X120450Y307950D01*
G54D12*X134640Y307713D02*Y303160D01*
X134900Y302900D01*
X105100Y307300D02*X105000Y307200D01*
G54D15*Y307300D02*Y304574D01*
G54D12*X104050Y308450D02*X105100Y307400D01*
X104050Y308450D03*
X114900Y308300D02*X115600Y307600D01*
X111500Y308000D02*Y306174D01*
X111700Y305974D01*
G54D15*X115400Y307500D02*Y305100D01*
X115800Y304700D01*
G54D12*X101850Y306000D02*Y304610D01*
X100240Y303000D01*
X98730D01*
X98630Y302900D01*
X161770Y205830D02*X161900Y205700D01*
G54D15*X164800D02*X162000D01*
X161950Y205650D01*
X168600Y205700D02*Y203800D01*
X167400Y202600D01*
G54D12*X156987Y205830D02*X161770D01*
X161929Y184171D02*X162000Y184100D01*
X156987Y184171D02*X161929D01*
G54D15*X164900Y184600D02*X162700D01*
X162200Y184100D01*
X167574Y202774D02*X167400Y202600D01*
G54D12*X163800D02*X166700Y199700D01*
X173600D01*
X176400Y196600D02*X164400D01*
G54D15*X167674Y187526D02*X167600Y187600D01*
X168700Y184600D02*Y186500D01*
X167700Y187500D01*
G54D12*X156787Y203861D02*X160239D01*
X161500Y202600D01*
X163800D01*
X164400Y196600D02*X159000Y202000D01*
X156895D01*
X156787Y201892D01*
X148350Y227650D02*X153600Y232900D01*
X148250Y227650D02*X148350D01*
X143850Y225450D02*X153500Y235100D01*
X140750Y224450D02*X154000Y237700D01*
X139150Y225450D02*X152900Y239200D01*
X143000Y220300D02*X154300Y231600D01*
X140100Y219500D02*X148500Y227900D01*
X144484Y219884D02*X154500Y229900D01*
X153900Y225200D02*X146500Y217800D01*
X148422Y215222D02*X155000Y221800D01*
X154800Y218700D02*X150400Y214300D01*
X143000Y219600D02*Y220300D01*
X140100Y218700D02*Y219500D01*
X143000Y211900D02*Y220300D01*
X142200Y211100D02*X143000Y211900D01*
X141300Y211100D02*X142200D01*
X140546Y210346D02*X141300Y211100D01*
X140546Y208287D02*Y210346D01*
X144484Y208287D02*Y219884D01*
X146500Y217800D02*Y208334D01*
X146453Y208287D01*
X148422D02*Y215222D01*
X150400Y214300D02*Y208296D01*
X150391Y208287D01*
X152360D02*Y212260D01*
X155300Y215200D01*
X158142Y212300D02*X154329Y208487D01*
X195026Y182100D02*X192300D01*
X195026Y187300D02*X192300D01*
X223388Y191688D02*X223400Y191700D01*
X223388Y186465D02*Y191688D01*
X215500Y189800D02*X214700Y190600D01*
X215500Y186477D02*Y189800D01*
X215512Y186465D02*X215500Y186477D01*
X213508Y186500D02*X201100D01*
X213543Y186465D02*X213508Y186500D01*
X217500Y186446D02*Y181300D01*
X217481Y186465D02*X217500Y186446D01*
X289535Y193543D02*X289578Y193500D01*
X280500Y186454D02*Y182100D01*
X280489Y186465D02*X280500Y186454D01*
X278500Y181700D02*X277926Y181126D01*
X278500Y186445D02*Y181700D01*
X278520Y186465D02*X278500Y186445D01*
X276500Y186414D02*Y182400D01*
X276551Y186465D02*X276500Y186414D01*
X266706Y186465D02*X266626Y186385D01*
X258830Y186465D02*X258800Y186435D01*
X269000Y186790D02*Y191400D01*
X268675Y186465D02*X269000Y186790D01*
X202500Y195600D02*X188000D01*
X195600Y197500D02*X193900Y199200D01*
X206200Y197500D02*X195600D01*
X198600Y199500D02*X197400Y200700D01*
X206100Y199500D02*X198600D01*
X201600Y201400D02*X200000Y203000D01*
X201000Y195600D02*X206375D01*
X184400Y198200D02*X184100Y198500D01*
X184400Y196600D02*Y198200D01*
X195026Y192400D02*X192600D01*
X198174Y192126D02*Y192400D01*
X199700Y190600D02*X198174Y192126D01*
X192600Y192400D02*Y192200D01*
X192000Y191600D01*
X206300Y201400D02*X201600D01*
X206375Y195600D02*X206464Y195511D01*
X214700Y190600D02*X199700D01*
X211742Y193542D02*X211800Y193600D01*
X206464Y193542D02*X211742D01*
X211787Y203387D02*X211800Y203400D01*
X206464Y203387D02*X211787D01*
X163900Y233300D02*X163600Y233600D01*
X156900Y232900D02*X159400Y235400D01*
X153600Y232900D02*X156900D01*
X155100Y235100D02*X155300Y235300D01*
X153500Y235100D02*X155100D01*
X152900Y239200D02*X161400D01*
X142400Y233600D02*X149800Y241000D01*
X192926Y237300D02*X187074D01*
X193276Y240798D02*X192926Y240448D01*
X206464Y240798D02*X193276D01*
X211729Y238829D02*X211800Y238900D01*
X206464Y238829D02*X211729D01*
X180200Y210100D02*X178000Y212300D01*
X158142D01*
X198100Y210100D02*X180200D01*
X186700Y213300D02*X206396D01*
X206464Y217170D02*X187830D01*
X193100Y219200D02*X206403D01*
X190500Y221800D02*X193100Y219200D01*
X206464Y221108D02*X196192D01*
X184800Y215200D02*X186700Y213300D01*
X187830Y217170D02*X186300Y218700D01*
X155300Y215200D02*X184800D01*
X186300Y218700D02*X154800D01*
X155000Y221800D02*X190500D01*
X173600Y199700D02*X181100Y207200D01*
X181600Y201800D02*X176400Y196600D01*
X194900Y201800D02*X181600D01*
X198456Y205356D02*X194900Y201800D01*
X206464Y205356D02*X198456D01*
X206339Y207200D02*X206464Y207325D01*
X181100Y207200D02*X206339D01*
G54D15*X211306Y209300D02*X211300Y209294D01*
X217600Y209300D02*X211306D01*
G54D12*X217594Y209294D02*X217600Y209300D01*
X206464Y209294D02*X217594D01*
X217585Y227015D02*X217600Y227000D01*
X206464Y227015D02*X217585D01*
X199263Y211263D02*X198100Y210100D01*
X206464Y211263D02*X199263D01*
X211799Y215201D02*X211800Y215200D01*
X206464Y215201D02*X211799D01*
X206396Y213300D02*X206464Y213232D01*
X206403Y219200D02*X206464Y219139D01*
X196192Y221108D02*X192100Y225200D01*
X206441Y223100D02*X206464Y223077D01*
X199700Y223100D02*X206441D01*
X192900Y229900D02*X199700Y223100D01*
X206464Y242767D02*X187833D01*
X206464Y244736D02*X190364D01*
X206464Y246705D02*X190995D01*
X206259Y246500D02*X206464Y246705D01*
X200400Y234900D02*X199400Y235900D01*
X199000Y232900D02*X198600Y233300D01*
X197500Y231600D02*X195100D01*
X198200Y230900D02*X197500Y231600D01*
X193900D02*X195800D01*
X206300Y234900D02*X200400D01*
X206400Y232900D02*X199000D01*
X206400Y230900D02*X198200D01*
X197000Y238600D02*X196900Y238500D01*
X201000Y238600D02*X197000D01*
X202700Y236900D02*X201000Y238600D01*
X206200Y236900D02*X202700D01*
X187833Y242767D02*X185400Y245200D01*
X190364Y244736D02*X184800Y250300D01*
X190995Y246705D02*X183300Y254400D01*
X183600Y257200D02*X192200Y248600D01*
X188900Y254100D02*X192300Y250700D01*
X188900Y264000D02*Y254100D01*
X193200Y266900D02*Y255900D01*
X211454Y225046D02*X211800Y224700D01*
X211484Y228984D02*X211800Y229300D01*
X206464Y225046D02*X211454D01*
X206464Y228984D02*X211484D01*
G54D15*X217800Y227015D02*X214200D01*
G54D12*X206390Y248600D02*X206464Y248674D01*
X206438Y248700D02*X206464Y248674D01*
X206407Y250700D02*X206464Y250643D01*
X206376Y252700D02*X206464Y252612D01*
X193200Y255900D02*X196400Y252700D01*
X198300Y254600D02*X206445D01*
X196300Y256600D02*X198300Y254600D01*
X192200Y248600D02*X206390D01*
X192300Y250700D02*X206407D01*
X196400Y252700D02*X206376D01*
X206290Y248500D02*X206464Y248674D01*
X138577Y212777D02*X139100Y213300D01*
X138577Y208287D02*Y212777D01*
X140500Y208333D02*X140546Y208287D01*
X136608Y215208D02*X140100Y218700D01*
X134639Y215839D02*X137800Y219000D01*
G54D15*X135074Y219374D02*X135200Y219500D01*
G54D12*X136608Y208287D02*Y215208D01*
X134639Y208287D02*Y215839D01*
X137800Y219400D02*X144300Y225900D01*
X140900Y224600D02*X138000Y221700D01*
X139400Y225700D02*X136900Y223200D01*
X138400Y222100D02*X138000Y221700D01*
X137800Y219000D02*Y219400D01*
G54D15*X135000Y219700D02*X135200Y219500D01*
G54D12*X138900Y233600D02*X142400D01*
G54D15*X134626Y233526D02*X134700Y233600D01*
G54D12*X136609Y244713D02*Y241491D01*
X137100Y241000D01*
Y239100D01*
X136800Y238800D01*
Y237300D01*
X138578Y244713D02*Y238622D01*
X140200Y237000D01*
G54D15*X131800Y233200D02*X134100D01*
X134474Y233574D01*
X113350Y188450D02*Y187950D01*
X115200Y186100D01*
Y184900D01*
X120000Y184800D02*Y182200D01*
G54D12*X126100Y209500D02*X125200Y210400D01*
X128600Y209500D02*X126100D01*
X130013Y208087D02*X128600Y209500D01*
X130013Y205829D02*Y208087D01*
X132670Y208487D02*Y213030D01*
G54D15*X121000Y206900D02*Y209600D01*
X120900Y209700D01*
G54D12*X132670Y213030D02*X131900Y213800D01*
G54D15*X125000Y216752D02*Y219200D01*
X132000Y219700D02*X135000D01*
X132000Y215900D02*Y213300D01*
X125000Y219200D02*X125100Y219300D01*
X125000Y212952D02*Y210600D01*
X125250Y210350D01*
X103000Y214100D02*X105200D01*
X105600Y213700D01*
X99200Y214100D02*Y210000D01*
X99550Y209650D01*
G54D12*X177426Y249526D02*X172100Y244200D01*
X177426Y250300D02*Y249526D01*
X172052Y244200D02*X172376Y244524D01*
X168700Y241000D02*X168600Y240900D01*
X172000Y241000D02*X168700D01*
X159600D02*X161900Y243300D01*
X149800Y241000D02*X159600D01*
X174500Y241200D02*X176000Y242700D01*
X178200Y242974D02*Y243600D01*
X179600Y245000D01*
X181726D01*
X181926Y245200D01*
X172588Y244736D02*X172000Y244148D01*
X161671Y247171D02*X161900Y247400D01*
X166300Y244200D02*X172052D01*
G54D15*X168200Y247400D02*Y249900D01*
X167450Y250650D01*
X164400Y247400D02*X161700D01*
G54D12*X198600Y233300D02*X163900D01*
X154300Y231600D02*X194500D01*
X154500Y229900D02*X192900D01*
X178200Y237500D02*X177200Y236500D01*
X178200Y239500D02*Y237500D01*
X175948Y242648D02*X175500Y242200D01*
X178200Y242648D02*X175948D01*
X173400Y237700D02*X173900Y238200D01*
X174500Y238800D02*Y241200D01*
X173700Y238000D02*X174500Y238800D01*
X184100Y237300D02*X183800Y237000D01*
X187000Y237300D02*X184100D01*
X184274Y240374D02*X184100Y240200D01*
X187000Y240374D02*X184274D01*
X187074Y237300D02*X187000Y237226D01*
X192100Y225200D02*X153900D01*
X154000Y237700D02*X173400D01*
X161400Y239200D02*X166400Y244200D01*
X106500Y248600D02*X111700Y243400D01*
Y242200D01*
X111800Y242100D01*
X132671Y241171D02*X131700Y240200D01*
G54D15*X131800Y237000D02*Y239800D01*
X131700Y239900D01*
G54D12*X132671Y244513D02*Y241171D01*
X128670Y247170D02*X125100Y243600D01*
G54D15*X124974Y241326D02*Y244126D01*
X124900Y244200D01*
X124974Y237526D02*Y234674D01*
X124900Y234600D01*
G54D12*X130013Y247170D02*X128670D01*
G54D15*X120326Y247874D02*Y244826D01*
X118600Y259000D02*X115700D01*
X115600Y258900D01*
X120326Y244826D02*X120300Y244800D01*
G54D12*X141400Y284700D02*X142200D01*
X136900Y282300D02*X141300D01*
X136000Y283200D02*X136900Y282300D01*
X138577Y271287D02*Y274677D01*
X136608Y271287D02*Y277808D01*
X134639Y278161D02*X134300Y278500D01*
X134639Y271287D02*Y278161D01*
X138577Y274677D02*X140600Y276700D01*
X136608Y277808D02*X137800Y279000D01*
X141200Y274500D02*X142400D01*
X140546Y273846D02*X141200Y274500D01*
X140546Y271287D02*Y273846D01*
X130195Y316095D02*X130190Y316100D01*
G54D15*X129400Y277300D02*X129800D01*
X132000Y275100D01*
X124926Y279474D02*X123074D01*
X122100Y278500D01*
X124926Y275674D02*Y273074D01*
X125000Y273000D01*
X121100Y269700D02*Y272400D01*
X120800Y272700D01*
G54D12*X241109Y172709D02*X161600Y93200D01*
X210100Y133100D02*Y129200D01*
G54D15*X179900Y99600D02*X182800D01*
G54D12*X212400Y121900D02*Y132600D01*
X218600Y136500D02*X215700Y133600D01*
Y132100D01*
X215100Y131500D01*
X222200Y137100D02*X220200Y135100D01*
Y135000D01*
X218400Y133200D01*
X222100Y131800D02*X219100Y128800D01*
Y119000D01*
X218100Y118000D01*
X220900Y132400D02*X217700Y129200D01*
Y128600D01*
X215500Y126400D01*
X202500Y126000D02*Y105400D01*
X205400Y102500D01*
X207800Y130500D02*X207000D01*
X202500Y126000D01*
X210100Y129200D02*X205600Y124700D01*
Y111400D01*
X208400Y108600D01*
X209900Y124300D02*Y119700D01*
X209200Y119000D01*
Y112000D01*
X210700Y110500D01*
G54D15*X179200Y95300D02*X178900Y95600D01*
G54D12*X217800Y164000D02*X179000D01*
X219300Y168400D02*X178200D01*
X179900Y159900D02*X169600Y149600D01*
X179000Y164000D02*X168600Y153600D01*
X178300Y168500D02*X167600Y157800D01*
X243800Y170000D02*X198600Y124800D01*
X212400Y132600D02*X245700Y165900D01*
X209500Y143200D02*Y143156D01*
X220400Y172200D02*X176800D01*
X234300Y151700D02*X219800Y137200D01*
X220800Y138200D02*X219100Y136500D01*
X218600D01*
G54D15*X168200Y142500D02*Y139800D01*
X167800Y139400D01*
G54D12*X156987Y142830D02*X161270D01*
X188000Y195600D02*X164050Y171650D01*
X158400Y172200D02*X158500Y172100D01*
X160900Y178800D02*X161800Y179700D01*
X165700Y177900D02*X184400Y196600D01*
X165000Y177200D02*X166100Y178300D01*
X200300Y179900D02*X198174Y182026D01*
X165300Y165300D02*X175200Y175200D01*
G54D15*X172974Y93300D02*X175500D01*
G54D12*X156987Y121171D02*X161971D01*
X158600Y95000D02*X162000Y98400D01*
X157700Y95000D02*X158600D01*
X157198Y94498D02*X157700Y95000D01*
X157800Y96200D02*X157100D01*
X158900Y97300D02*X157800Y96200D01*
X157198Y92823D02*Y94498D01*
X161900Y98300D02*X164800Y101200D01*
X162200Y169800D02*X164900Y172500D01*
X163100Y137300D02*X161800D01*
X165900Y134500D02*X163100Y137300D01*
X216100Y179900D02*X200300D01*
X217500Y181300D02*X216100Y179900D01*
X170900Y134500D02*X165900D01*
X180400Y153100D02*X178200Y150900D01*
X171500Y144200D02*X180400Y153100D01*
X171500Y139400D02*Y144200D01*
X173500Y177900D02*X169600Y174000D01*
Y173900D01*
X168600Y136500D02*X171500Y139400D01*
X167200Y136500D02*X168600D01*
X164400Y139300D02*X167200Y136500D01*
X169600Y173900D02*X164100Y168400D01*
X217000Y177900D02*X173500D01*
X219450Y180350D02*X217000Y177900D01*
X219450Y186465D02*Y180350D01*
X176800Y172200D02*X166100Y161500D01*
X178200Y168400D02*X176300Y166500D01*
X179000Y164000D02*X178700Y163700D01*
X183850Y147450D02*X170900Y134500D01*
X239140Y172840D02*X209500Y143200D01*
X235202Y171902D02*X212000Y148700D01*
X233349Y173149D02*X213300Y153100D01*
X185100Y148700D02*X183350Y146950D01*
X212000Y148700D02*X185100D01*
X213300Y153100D02*X180400D01*
X179900Y159900D02*X177700Y157700D01*
X217000Y159900D02*X179900D01*
X231264Y174164D02*X217000Y159900D01*
X229295Y175495D02*X217800Y164000D01*
X227326Y176426D02*X219300Y168400D01*
X225357Y177157D02*X220400Y172200D01*
X217900Y175200D02*X221500Y178800D01*
X175200Y175200D02*X217900D01*
X226200Y118900D02*X238774D01*
X223800Y115000D02*X238600D01*
X214400Y111100D02*X238500D01*
X226500Y109100D02*X230300Y105300D01*
X224800Y106400D02*X224900Y106300D01*
X228500Y102700D02*X224800Y106400D01*
X227500Y100200D02*X227700Y100400D01*
X212100Y109100D02*X226500D01*
X210600Y106400D02*X224800D01*
X207300Y109700D02*X210600Y106400D01*
X207700Y100200D02*X227500D01*
X204700Y103200D02*X207700Y100200D01*
X209600Y111600D02*X212100Y109100D01*
X238200Y126800D02*X238500Y126500D01*
X233700Y126800D02*X238200D01*
X233200Y127300D02*X233700Y126800D01*
X233200Y128700D02*Y127300D01*
X230100Y122800D02*X238900D01*
X227900Y125000D02*X230100Y122800D01*
X222900Y122200D02*X226200Y118900D01*
X222900Y128400D02*Y122200D01*
X220900Y128600D02*Y117900D01*
X227900Y126800D02*Y125000D01*
X220900Y117900D02*X223800Y115000D01*
X212400Y113100D02*X214400Y111100D01*
X212400Y122700D02*Y113100D01*
X225500Y93500D02*X223800Y95200D01*
X229000Y93500D02*X225500D01*
X170000Y93474D02*X169763Y93237D01*
X209500Y143156D02*X159167Y92823D01*
X159244Y92900D02*X159167Y92823D01*
G54D15*X164174Y121600D02*X161600D01*
X161500Y121500D01*
G54D12*X170000Y95400D02*Y93474D01*
X174200Y99600D02*X170000Y95400D01*
X176426Y99600D02*X174200D01*
X158900Y99100D02*X161000Y101200D01*
X158900Y97300D02*Y99100D01*
X160900Y137300D02*X159300Y138900D01*
X162200Y137300D02*X160900D01*
X161300Y139300D02*X164400D01*
X159739Y140861D02*X161300Y139300D01*
G54D15*X164400Y142500D02*X161500D01*
G54D12*X198600Y124800D02*Y86200D01*
X200900Y86600D02*Y87100D01*
X203000Y89200D01*
G54D15*X167974Y121600D02*Y124126D01*
X167500Y124600D01*
G54D12*X157199Y58177D02*Y55301D01*
X159168Y58177D02*Y56432D01*
X141447Y58177D02*Y56353D01*
X149300Y58154D02*X149323Y58177D01*
X125351Y92823D02*X121174Y97000D01*
X120102Y88298D02*X118700Y89700D01*
X116474Y93800D02*X120700D01*
X124200Y90300D01*
X113326Y93800D02*X109374D01*
X127077Y88298D02*X120102D01*
X126975Y88400D02*X127077Y88298D01*
X127044Y90300D02*X127077Y90267D01*
X124200Y90300D02*X127044D01*
G54D15*X101100Y89900D02*Y87300D01*
G54D12*X118000Y86300D02*X117600Y85900D01*
X123900Y86300D02*X118000D01*
X116474Y81000D02*X120600D01*
X113326D02*X109374D01*
X120600D02*X124000Y84400D01*
X139400Y92900D02*X139477Y92823D01*
X145384D02*Y95984D01*
X147353Y92823D02*Y95653D01*
X137508Y92823D02*Y94692D01*
X151291Y92823D02*Y95091D01*
X149322Y92823D02*Y95422D01*
X127037Y84400D02*X127077Y84360D01*
X124000Y84400D02*X127037D01*
X127048Y86300D02*X127077Y86329D01*
X122300Y86300D02*X127048D01*
X121854Y72546D02*X121000Y73400D01*
X127077Y72546D02*X121854D01*
X123222Y80422D02*X121300Y78500D01*
X127077Y80422D02*X123222D01*
X123039Y66639D02*X121300Y64900D01*
X127077Y64670D02*X123970D01*
X127077Y66639D02*X123039D01*
X127077Y68608D02*X120308D01*
X126969Y68500D02*X127077Y68608D01*
Y70577D02*X121577D01*
G54D15*X101226Y77374D02*Y74726D01*
X101200Y74700D01*
G54D12*X121300Y64900D02*X116674D01*
X116474Y64700D01*
X121577Y70577D02*X121400Y70400D01*
X116500D01*
X115200Y69100D01*
X120308Y68608D02*X119800Y68100D01*
X118326Y73400D02*X118300Y73426D01*
G54D15*X115474Y76574D02*X115400Y76500D01*
X118300Y76900D02*X115800D01*
X115400Y76500D01*
X118300Y73100D02*X120300D01*
X120800Y73600D01*
G54D12*X161600Y90391D02*X161723Y90268D01*
X161600Y93200D02*Y90391D01*
X164000Y90300D02*X164700Y91000D01*
X164000Y88700D02*Y90300D01*
X161723Y88299D02*X163599D01*
X166000Y88200D02*Y89000D01*
X166400Y89400D01*
X167526Y91000D02*X169826Y93300D01*
X164700Y91000D02*X167526D01*
G54D15*X179200Y92774D02*Y95300D01*
G54D12*X185000Y78700D02*X193500D01*
X178885Y79626D02*X179200Y79941D01*
X174474Y79626D02*X178885D01*
X174148Y79300D02*X174300Y79452D01*
X171400Y79300D02*X174148D01*
X185000Y85600D02*X192100D01*
X174300Y90600D02*X175700Y89200D01*
X169600Y90600D02*X174300D01*
X168400Y89400D02*X169600Y90600D01*
X166400Y89400D02*X168400D01*
X179200Y85059D02*Y89300D01*
X170600Y84900D02*X170700Y84800D01*
G54D15*X174300Y82926D02*Y85800D01*
G54D12*X166100Y84900D02*X170600D01*
X168800Y83200D02*X170600Y81400D01*
X170654Y78454D02*X171500Y79300D01*
X164900Y78454D02*X170654D01*
X167577Y80423D02*X167600Y80400D01*
X165700Y83200D02*X168800D01*
X164892Y82392D02*X165700Y83200D01*
X166922Y70578D02*X167300Y70200D01*
X164800Y70578D02*X166922D01*
X165291Y68609D02*X165900Y68000D01*
X161723Y68609D02*X165291D01*
X161723Y70578D02*X165978D01*
X161723Y66640D02*X168460D01*
X161723Y72547D02*X171547D01*
X171300Y75300D02*X171800Y75800D01*
X171365Y68609D02*X171574Y68400D01*
X170400Y75300D02*X171300D01*
X168900Y73800D02*X170400Y75300D01*
X165900Y73800D02*X168900D01*
X165184Y74516D02*X165900Y73800D01*
X161723Y74516D02*X165184D01*
X166815Y76485D02*X167600Y75700D01*
X161723Y76485D02*X166815D01*
X161723Y64671D02*X167229D01*
X164130Y86330D02*X166000Y88200D01*
X161723Y86330D02*X164130D01*
X161762Y84400D02*X161723Y84361D01*
X164200Y84400D02*X161762D01*
X161723Y80423D02*X167577D01*
X164700Y84900D02*X164200Y84400D01*
X166600Y84900D02*X164700D01*
X163400Y82392D02*X164892D01*
X165192D02*X165400Y82600D01*
X161723Y82392D02*X165192D01*
X161723Y78454D02*X165046D01*
X113326Y64700D02*X109400D01*
G54D15*X109543Y50900D02*X109243Y50600D01*
X102157D02*X97900D01*
X97800Y50700D01*
X101400Y61100D02*Y58600D01*
X101300Y58500D01*
G54D12*X131602Y52598D02*X132000Y52200D01*
X131602Y58177D02*Y52598D01*
X133571Y58177D02*Y54229D01*
X135540Y58177D02*Y54960D01*
X137509Y58177D02*Y54991D01*
X136000Y51800D02*Y49300D01*
X133571Y54229D02*X136000Y51800D01*
X135540Y54960D02*X138200Y52300D01*
X137509Y54991D02*X139400Y53100D01*
X139050Y53450D02*X139550Y52950D01*
X139478Y58177D02*Y55522D01*
G54D15*X132900Y49500D02*Y51400D01*
X131900Y52400D01*
X132900Y45700D02*X135900D01*
X136100Y45900D01*
G54D12*X136000Y49300D02*X136500Y48800D01*
X138200Y47900D02*X139900Y46200D01*
X139400Y46700D02*X139900Y46200D01*
X138200Y52300D02*Y47900D01*
X139550Y52950D02*Y50050D01*
X143000Y45400D02*X143600Y44800D01*
X143000Y46600D02*Y45400D01*
X139550Y50050D02*X143000Y46600D01*
X142800Y49600D02*X143400Y49000D01*
X142200Y49600D02*X142800D01*
X140800Y51000D02*X142200Y49600D01*
G54D15*X146700Y45926D02*Y43300D01*
Y49726D02*Y52274D01*
X146726Y52300D01*
X146700Y43300D02*X146600Y43200D01*
G54D12*X140800Y54200D02*Y51000D01*
X143300Y52300D02*X143200Y52200D01*
X143300Y54500D02*Y52300D01*
X139478Y55522D02*X140800Y54200D01*
X145200Y54026D02*X146726Y52500D01*
X145200Y54800D02*Y54026D01*
X143416Y56584D02*X145200Y54800D01*
X143416Y58177D02*Y56584D01*
X141447Y56353D02*X143300Y54500D01*
X125901Y62701D02*X122400Y59200D01*
X127077Y62701D02*X125901D01*
X127077Y60732D02*Y58177D01*
X123570Y64670D02*X121100Y62200D01*
X124000Y64670D02*X123570D01*
X127077Y58177D02*X123200Y54300D01*
X129633Y54233D02*X127600Y52200D01*
X129633Y58177D02*Y54233D01*
G54D15*X128500Y52400D02*X128400Y52500D01*
X113900Y50900D02*X109543D01*
X122526Y50726D02*X122600Y50800D01*
X128500Y49600D02*Y52400D01*
Y45800D02*X125500D01*
X125300Y46000D01*
X119800Y54200D02*Y56800D01*
Y50400D02*X122200D01*
X122550Y50750D01*
G54D12*X144100Y109300D02*X147126D01*
X144800Y110000D02*X144000Y109200D01*
X143415Y108615D02*X144100Y109300D01*
X143415Y92823D02*Y108615D01*
X144800Y111200D02*Y110000D01*
X145384Y97284D02*X146500Y98400D01*
X145384Y95816D02*Y97284D01*
X141400Y92869D02*X141446Y92823D01*
X141400Y97100D02*Y92869D01*
X141000Y97500D02*X141400Y97100D01*
X141000Y101000D02*Y97500D01*
X129700Y99300D02*X129100Y99900D01*
X129700Y98700D02*Y99300D01*
X133570Y94830D02*X129700Y98700D01*
X133570Y92823D02*Y94830D01*
X131601Y94699D02*X130400Y95900D01*
X131601Y92823D02*Y94699D01*
X125000Y101300D02*X125100Y101400D01*
X125000Y98000D02*Y101300D01*
X127100Y95900D02*X125000Y98000D01*
X130400Y95900D02*X127100D01*
X129632Y92823D02*X125351D01*
G54D15*X121500Y100300D02*Y97400D01*
X121200Y97100D01*
X117700Y100300D02*X114600D01*
X114400Y100500D01*
G54D12*X163599Y88299D02*X164000Y88700D01*
X134100Y96300D02*Y98600D01*
X134600Y101200D02*X134000Y101800D01*
X136600Y96500D02*Y100600D01*
X135539Y94861D02*X134100Y96300D01*
X137508Y95592D02*X136600Y96500D01*
X137508Y94592D02*Y95592D01*
X135539Y94561D02*Y94861D01*
Y92823D02*Y94661D01*
X139400Y92900D02*X139700Y92600D01*
X139400Y96000D02*Y92900D01*
X138200Y97200D02*X139400Y96000D01*
X136000Y101200D02*X134600D01*
X136600Y100600D02*X136000Y101200D01*
X138200Y101700D02*Y97200D01*
X140200Y103700D02*X138200Y101700D01*
Y105100D02*X137600Y104500D01*
G54D15*X135200Y107800D02*X135400Y107600D01*
X132000Y107474D02*X135074D01*
X135300Y107700D01*
G54D12*X138200Y109400D02*Y105100D01*
X137100Y110500D02*X138200Y109400D01*
X137100Y114800D02*Y110500D01*
X138578Y111922D02*X140200Y110300D01*
X138578Y116600D02*Y111922D01*
X140200Y110300D02*Y103700D01*
X146900Y113300D02*X144800Y111200D01*
X151726Y113300D02*X146900D01*
G54D15*X150600Y109300D02*X153400D01*
X155200Y113300D02*X158000D01*
X131450Y113650D02*Y111824D01*
X132000Y111274D01*
X124800Y111574D02*Y108900D01*
X124900Y108800D01*
G54D12*X155300Y97500D02*X157000Y99200D01*
Y101526D02*Y99200D01*
G54D15*Y105000D02*Y107600D01*
G54D12*X155300Y97100D02*Y97500D01*
X153260Y95060D02*X155300Y97100D01*
X157100Y96200D02*X155200Y94300D01*
X155229Y92823D02*Y94329D01*
X147600Y100700D02*X146500Y101800D01*
X148300Y100700D02*X147600D01*
X153260Y92823D02*Y95060D01*
X151291Y95091D02*X153800Y97600D01*
X149322Y95422D02*X151200Y97300D01*
X153800Y97600D02*Y100100D01*
X152500Y101400D01*
X151700D01*
X151200Y101900D01*
Y97300D02*Y98600D01*
X147353Y95653D02*X149000Y97300D01*
Y100000D01*
X148300Y100700D01*
X193100Y32400D02*X187300D01*
X195000Y34300D02*X193100Y32400D01*
X197800Y34300D02*X195000D01*
X149300Y45600D02*Y36800D01*
X166500Y45700D02*X164100Y43300D01*
Y28100D01*
X166500Y53700D02*Y45700D01*
X161723Y58477D02*X166500Y53700D01*
X161723Y60733D02*Y58477D01*
X192400Y54500D02*X190200Y52300D01*
X187759D01*
X187559Y52100D01*
X183400Y59900D02*X183300Y59800D01*
G54D15*X155600Y52700D02*X155700Y52800D01*
X168200Y56900D02*X169900D01*
X171100Y58100D01*
X155600Y46400D02*X153200D01*
X152900Y46700D01*
G54D12*X227900Y44100D02*X227800Y44200D01*
X227900Y40700D02*Y44100D01*
X228700Y39900D02*X227900Y40700D01*
X232100Y39900D02*X228700D01*
X235000Y42800D02*X232100Y39900D01*
X235000Y47400D02*Y42800D01*
X235200Y47200D02*X235000Y47400D01*
X245300Y37300D02*Y43952D01*
G54D15*X237200Y37300D02*X236800Y37700D01*
X240182Y37300D02*X237200D01*
X241100Y41500D02*X241200Y41400D01*
X241100Y44052D02*Y41500D01*
X203100Y41300D02*Y44300D01*
G54D12*X210600Y47400D02*X203148D01*
X203100Y47448D01*
Y50500D01*
X205100Y52500D01*
G54D15*X210700Y62100D02*Y57500D01*
X210600Y57400D01*
G54D12*X205100Y52500D02*Y61500D01*
X209000Y65400D01*
X227200D01*
G54D15*X171074Y58126D02*X171100Y58100D01*
G54D12*X186774Y59800D02*Y58074D01*
X185100Y56400D01*
X183600D01*
X182800Y55600D01*
Y52459D01*
X182441Y52100D01*
X192400Y64000D02*Y54500D01*
G54D15*X168200Y60700D02*Y63600D01*
X168100Y63700D01*
G54D12*X184600Y64500D02*Y62900D01*
X183400Y61700D01*
Y59900D01*
X159400Y52200D02*X159800Y51800D01*
X155230Y52670D02*X155700Y52200D01*
X159400Y53100D02*Y52200D01*
X157199Y55301D02*X159400Y53100D01*
X159168Y56432D02*X163600Y52000D01*
X155230Y58177D02*Y52670D01*
X149300Y48600D02*Y58154D01*
Y44300D02*Y49300D01*
G54D15*X155600Y50200D02*Y52700D01*
G54D12*X171026Y68000D02*X171500Y68474D01*
X171547Y72547D02*X171800Y72800D01*
X165900Y68000D02*X171026D01*
X167229Y64671D02*X168100Y63800D01*
X168460Y66640D02*X170700Y64400D01*
G54D15*X185448Y71648D02*X185500Y71700D01*
G54D12*X199400Y71000D02*X192400Y64000D01*
G54D15*X182574Y71974D02*X185122D01*
X185448Y71648D01*
G54D12*X170700Y64400D02*X173326D01*
X176474D02*X181026D01*
G54D15*X175048Y68400D02*X177800D01*
X178000Y68600D01*
G54D12*X181026Y64400D02*X181126Y64500D01*
X181000Y64400D02*Y66926D01*
X182574Y68500D01*
X221479Y81879D02*X216400Y76800D01*
Y74300D01*
X218474Y89500D02*X221600D01*
X222200Y91900D02*X219100D01*
X215326Y89500D02*Y81926D01*
X219100Y91900D02*X213800Y97200D01*
X215326Y81926D02*X215100Y81700D01*
X216400Y74300D02*X213100Y71000D01*
X199400D01*
X214921Y81879D02*X215100Y81700D01*
X214921Y81879D02*X203547D01*
X198600Y86200D02*X197400Y85000D01*
Y83700D01*
X197200Y83500D01*
X205879Y81879D02*X201821D01*
X200900Y82800D01*
X206586Y76762D02*X200138D01*
X197200Y79700D01*
X85900Y84100D02*X86100Y84300D01*
X85900Y81400D02*Y84100D01*
G54D15*X86100Y90200D02*Y87700D01*
X86000Y87600D01*
X79874Y91126D02*X80100Y90900D01*
X80252Y81552D02*X80300Y81600D01*
X79826Y81874D02*X80200Y81500D01*
X59300Y92100D02*X56700D01*
X77100Y90700D02*X79800D01*
X80050Y90950D01*
X77000Y81874D02*X79826D01*
G54D12*X86274Y81400D02*X86126Y81548D01*
X90741Y81400D02*X86274D01*
X96111Y81148D02*X95859Y81400D01*
X101226Y81148D02*X96111D01*
X101374Y81000D02*X101226Y81148D01*
X106226Y81000D02*X101374D01*
X85900Y67200D02*X85800Y67300D01*
X85900Y64374D02*Y67200D01*
X86026Y64500D02*X85900Y64374D01*
X90741Y64500D02*X86026D01*
X96133Y64774D02*X95859Y64500D01*
X101400Y64774D02*X96133D01*
X101474Y64700D02*X101400Y64774D01*
X106252Y64700D02*X101474D01*
G54D15*X86126Y78074D02*Y75374D01*
X86200Y75300D01*
X85900Y60900D02*Y58300D01*
X85800Y58200D01*
X81550Y111250D02*X67750D01*
X63100Y86859D02*Y106650D01*
X67700Y111250D01*
X79800D02*X83250D01*
X9950Y69000D02*X28300D01*
X32100D02*X40200D01*
X40300Y68900D01*
X40100Y69000D02*X44526D01*
X48326D02*X52526D01*
X52600Y68926D01*
X60326D01*
X63100Y71700D01*
G54D12*X90641Y93900D02*X86326D01*
X96085Y93574D02*X95759Y93900D01*
X101100Y93574D02*X96085D01*
X101326Y93800D02*X101100Y93574D01*
X106226Y93800D02*X101326D01*
X86100Y93674D02*Y96400D01*
X86326Y93900D02*X86100Y93674D01*
G54D15*X77100Y94500D02*X79800D01*
X80100Y94200D01*
X52600Y65126D02*Y62600D01*
X52700Y62500D01*
X40300Y65100D02*Y62500D01*
X79900Y61252D02*X80000Y61152D01*
X77000Y78074D02*X79674D01*
X80000Y78400D01*
X76900Y64726D02*X79674D01*
X80000Y64400D01*
X63100Y71700D02*Y81741D01*
X59300Y76600D02*X56400D01*
X76900Y60926D02*X79926D01*
X80076Y61076D01*
G54D12*X99300Y177200D02*Y175800D01*
X98400Y174900D01*
Y173400D01*
G54D15*X104200Y178600D02*Y181200D01*
X87526Y171226D02*X87400Y171100D01*
X90700Y170900D02*X87700D01*
X87450Y171150D01*
X94326Y168900D02*X94100D01*
G54D12*X95126Y172400D02*Y172274D01*
G54D15*X94100Y168900D02*X93100Y167900D01*
X90700D01*
X102100Y167300D02*X104100D01*
X104500Y166900D01*
X88026Y177374D02*X88100Y177300D01*
X84400Y180200D02*Y177600D01*
X84200Y177400D01*
X31841Y180100D02*X32000Y179941D01*
X28500Y180100D02*X31841D01*
X28800Y195000D02*X28900Y194900D01*
X31100D01*
X34900D02*X42100D01*
X45900D02*X52750D01*
G54D12*X70200Y177700D02*X70100Y177600D01*
X70200Y180126D02*Y177700D01*
G54D15*X45500Y162500D02*X51000D01*
X53500Y166000D02*Y158500D01*
X64000Y166000D02*Y158500D01*
X71500Y162500D02*X68000D01*
X56200Y189100D02*Y186300D01*
X56450Y186050D01*
X66100Y200200D02*X62200D01*
X62100Y200100D01*
X60250D01*
X69900Y200200D02*X72200D01*
X74400Y179800D02*Y177300D01*
X80700Y190300D02*X84100D01*
X84500Y189900D01*
X80700Y186500D02*Y183800D01*
X80600Y183700D01*
X84500Y186900D02*Y184100D01*
X84400Y184000D01*
X81700Y199700D02*X83400D01*
X84300Y198800D01*
X9950Y132000D02*X33300D01*
X37100D02*X47226D01*
X47400Y131826D01*
Y128026D02*Y125600D01*
X47600Y125400D01*
X47474Y131900D02*X47400Y131826D01*
X51700Y131900D02*X47474D01*
X59800D02*X59900Y131800D01*
Y128000D02*Y125600D01*
X83400Y128100D02*Y125200D01*
X83100Y124900D01*
X68100Y128100D02*Y125400D01*
X67900Y125200D01*
X59900Y125600D02*X59500Y125200D01*
X55500Y131900D02*X68100D01*
X68300D02*X73141D01*
X73241Y132000D01*
X78359D02*X83300D01*
X83400Y131900D01*
X89100D01*
X90500Y162500D02*X93500D01*
X89100Y131900D02*X97400Y140200D01*
X105400Y125200D02*Y122100D01*
X83250Y111250D02*X101000Y129000D01*
G54D12*X132671Y114871D02*X131600Y113800D01*
X136600Y115300D02*X137100Y114800D01*
X136600Y115600D02*Y115300D01*
X134640Y113960D02*X134800Y113800D01*
X128270Y121170D02*X124800Y117700D01*
X130013Y121170D02*X128270D01*
X134640Y118713D02*Y113960D01*
X156795Y138900D02*X156787Y138892D01*
X159300Y138900D02*X156795D01*
X156787Y140861D02*X159739D01*
X154300Y145516D02*X154329Y145487D01*
X154300Y148200D02*Y145516D01*
X155700Y149600D02*X154300Y148200D01*
X169600Y149600D02*X155700D01*
X152300Y145347D02*X152360Y145287D01*
X150200Y145478D02*X150391Y145287D01*
X148400Y145309D02*X148422Y145287D01*
X152300Y150900D02*Y145347D01*
X150200Y154800D02*Y145478D01*
X153200Y157800D02*X150200Y154800D01*
X148400Y157400D02*Y145309D01*
X155000Y153600D02*X152300Y150900D01*
X168600Y153600D02*X155000D01*
X167600Y157800D02*X153200D01*
X143500Y114300D02*X144000Y113800D01*
X143500Y115200D02*Y114300D01*
X142516Y116184D02*X143500Y115200D01*
X138500Y118635D02*X138578Y118713D01*
X136600Y118704D02*X136609Y118713D01*
X136600Y115500D02*Y118704D01*
X138578Y118713D02*Y115778D01*
X142516Y118713D02*Y116184D01*
X140547Y113953D02*X140600Y113900D01*
X140547Y118713D02*Y113953D01*
X126615Y131015D02*X125500Y129900D01*
X125953Y134953D02*X125500Y134500D01*
X130213Y131015D02*X126615D01*
X127684Y132984D02*X127000Y132300D01*
X130213Y132984D02*X127684D01*
X130213Y134953D02*X125953D01*
X130073Y141000D02*X130213Y140860D01*
X127300Y141000D02*X130073D01*
G54D15*X131900Y152900D02*Y150300D01*
X132100Y150100D01*
X131900Y156700D02*X134900D01*
X135100Y156500D01*
G54D12*X150100Y172200D02*X158400D01*
X154200Y174700D02*X154400Y174500D01*
X150300Y174700D02*X154200D01*
X149300Y178800D02*X160900D01*
X150100Y169800D02*X162200D01*
X150100Y177200D02*X165000D01*
X164100Y168400D02*X151100D01*
X152000Y165300D02*X165300D01*
X166100Y161500D02*X152500D01*
X132671Y118513D02*Y114871D01*
Y177571D02*X131900Y176800D01*
X132671Y181513D02*Y177571D01*
G54D15*X132200Y174300D02*Y176500D01*
X131900Y176800D01*
G54D12*X126100Y146300D02*X125100Y147300D01*
X125300Y150400D02*X125000Y150700D01*
G54D15*X125100Y149774D02*Y147400D01*
X125050Y147350D01*
X125100Y153574D02*Y156300D01*
G54D12*X128200Y146300D02*X126100D01*
X130013Y144487D02*X128200Y146300D01*
X130013Y142829D02*Y144487D01*
X132670Y145487D02*Y150030D01*
X124700Y143600D02*X127300Y141000D01*
X124574Y143600D02*X124700D01*
G54D15*X124800Y115374D02*Y118300D01*
G54D12*X123474Y184800D02*X123900D01*
G54D15*X125000Y178300D02*Y181000D01*
Y174500D02*Y171700D01*
X124900Y171600D01*
G54D12*X149150Y171250D02*X150100Y172200D01*
X148700Y173100D02*X150300Y174700D01*
X144200Y173700D02*X149300Y178800D01*
X147000Y174100D02*X150100Y177200D01*
X141600Y163700D02*X149500Y171600D01*
X143100Y162800D02*X150100Y169800D01*
X151100Y168400D02*X144500Y161800D01*
X146453Y159753D02*X152000Y165300D01*
X152500Y161500D02*X148400Y157400D01*
X146453Y145287D02*Y159753D01*
X144500Y161800D02*Y145303D01*
X142516Y179684D02*X143600Y178600D01*
Y177300D01*
X144100Y176800D01*
X143500Y173700D02*X144200D01*
X140100Y164500D02*X149000Y173400D01*
X138500Y165600D02*X148200Y175300D01*
X138578Y175622D02*X140200Y174000D01*
X136609Y179391D02*X137300Y178700D01*
X136609Y181713D02*Y179391D01*
X134640Y181713D02*Y177060D01*
X134900Y176800D01*
X140547Y181713D02*Y177053D01*
X140700Y176900D01*
G54D15*X135274Y170826D02*X135500Y170600D01*
X132200Y170500D02*X135400D01*
X135500Y170600D01*
G54D12*X138578Y181713D02*Y175622D01*
X137300Y174800D02*X136500Y174000D01*
X137300Y178700D02*Y174800D01*
X137100Y174600D02*X136500Y174000D01*
X142516Y181713D02*Y179684D01*
X97474Y170126D02*Y168900D01*
X96500Y171100D02*X97474Y170126D01*
X96000Y171100D02*X96500D01*
X95126Y171974D02*X96000Y171100D01*
X97400Y168974D02*X97474Y168900D01*
X91300Y180426D02*X91174Y180300D01*
X94000Y178326D02*X95126Y177200D01*
X93726D01*
X90900Y174374D01*
X101900Y179400D02*X101600Y179100D01*
X101400D01*
X99800Y177500D01*
X98574D01*
X95126Y173374D02*Y171974D01*
X98274Y173400D02*X98874D01*
X101200Y171074D01*
X95126Y173400D02*Y172274D01*
X104100Y207300D02*X104800D01*
X105500Y208000D01*
Y210274D01*
X105474Y210300D01*
X104907Y204213D02*X105113D01*
X108100Y207200D01*
X108212Y200907D02*Y204112D01*
X111500Y207400D01*
X108212Y198938D02*X111438D01*
X108212Y196969D02*X112069D01*
X108212Y195000D02*X112300D01*
X108212Y193031D02*X112269D01*
X111438Y198938D02*X115500Y203000D01*
X112069Y196969D02*X115000Y199900D01*
X115500Y203000D02*X117926D01*
X118226Y203300D01*
X115000Y199900D02*X118126D01*
X118426Y199600D01*
X112300Y195000D02*X114900Y192400D01*
X118126D01*
X118326Y192200D01*
X112269Y193031D02*X115600Y189700D01*
X117026D01*
X118326Y188400D01*
G54D15*X73700Y205200D02*X71600D01*
X70500Y204100D01*
X64700Y207800D02*X64450Y207550D01*
X73700Y201400D02*X72500Y200200D01*
X84500Y208900D02*Y205800D01*
X84400Y205700D01*
X84500Y202400D02*X84300D01*
X83700Y203000D01*
X83000D01*
X81950Y204050D01*
X80650D01*
X80600Y204100D01*
Y200300D02*X81100D01*
X81700Y199700D01*
G54D12*X124474Y206900D02*Y206726D01*
X127200Y204000D01*
X124500Y203300D02*X125800Y202000D01*
X127200Y204000D02*X130073D01*
X130213Y203860D01*
X125800Y202000D02*X130104D01*
X130213Y201891D01*
X121374Y203300D02*X124500D01*
X121574Y199600D02*X124700D01*
X125000Y199900D01*
X130191D01*
X130213Y199922D01*
X122374Y195900D02*X123500D01*
X124300Y195100D01*
X121474Y192200D02*X123000D01*
X128300Y195700D02*X129929D01*
X130213Y195984D01*
X124300Y195100D02*X127700D01*
X125600Y192900D02*X126300D01*
X127200Y193800D01*
X127700Y195100D02*X128300Y195700D01*
X125600Y197500D02*X126600D01*
X127000Y197900D01*
X130160D01*
X130213Y197953D01*
X127200Y193800D02*X129998D01*
X130213Y194015D01*
X125100Y190100D02*X130190D01*
X130213Y190077D01*
X123000Y192200D02*X125100Y190100D01*
X121474Y188400D02*X124700D01*
X125000Y188100D01*
X123900Y184800D02*X125400Y186300D01*
X130052D01*
X130213Y186139D01*
X140480Y147280D02*X141200Y148000D01*
X140480Y145220D02*Y147280D01*
X138577Y145287D02*Y148177D01*
X140600Y145341D02*X140546Y145287D01*
G54D15*X121100Y143600D02*Y146400D01*
X120800Y146700D01*
G54D12*X142100Y148000D02*X141200D01*
X138577Y148177D02*X140900Y150500D01*
X136608Y145287D02*Y152108D01*
X134639Y145287D02*Y152839D01*
X143100Y149000D02*X142100Y148000D01*
X141600Y157100D02*Y163700D01*
X140100Y158300D02*Y164500D01*
X143100Y149000D02*Y162800D01*
X138500Y160900D02*Y165600D01*
X136608Y152108D02*X141600Y157100D01*
X134639Y152839D02*X140100Y158300D01*
X136500Y158900D02*X138500Y160900D01*
X111674Y168326D02*X111700Y168300D01*
G54D15*X115500Y162500D02*X112000D01*
G54D12*X112500Y169100D02*X111700Y168300D01*
X74102Y158908D02*X136500Y158900D01*
X144500Y145303D02*X144484Y145287D01*
X124813Y123139D02*X123474Y121800D01*
X130213Y125108D02*X120292D01*
X130213Y123139D02*X124813D01*
X124623Y127077D02*X122800Y128900D01*
X130213Y127077D02*X124623D01*
G54D15*X120326Y118826D02*X120300Y118800D01*
X120000Y119100D02*X120300Y118800D01*
X120000Y121800D02*Y119100D01*
G54D12*Y125400D02*X113048D01*
X120292Y125108D02*X120000Y125400D01*
X113174Y128900D02*X113074Y129000D01*
X122800Y128900D02*X113174D01*
X122074Y132800D02*X121974Y132900D01*
X123100Y132800D02*X122074D01*
X123600Y132300D02*X123100Y132800D01*
X127000Y132300D02*X123600D01*
X123722Y136922D02*X123100Y136300D01*
X113174D02*X113074Y136400D01*
X123100Y136300D02*X113174D01*
G54D15*X105700Y136400D02*Y133800D01*
X105900Y133600D01*
X109600Y136400D02*Y133500D01*
X109800Y133300D01*
G54D12*X130213Y136922D02*X123722D01*
X130213Y138891D02*X123509D01*
X122300Y140100D02*X113174D01*
X123509Y138891D02*X122300Y140100D01*
G54D15*X118500Y132900D02*X115800D01*
X115700Y132800D01*
G54D12*X91300Y184200D02*Y180426D01*
X94000Y182700D02*Y178326D01*
X101900Y182100D02*Y179400D01*
X111400Y180800D02*Y178674D01*
G54D15*X115200Y181100D02*Y179700D01*
X116400Y178500D01*
X120000Y182200D02*X120500Y181700D01*
G54D12*X111400Y178674D02*X111700Y178374D01*
X112500Y169100D02*Y172900D01*
X111800Y173600D01*
Y175100D01*
X111700Y175200D01*
G54D15*X88026Y180300D02*Y177374D01*
X105700Y171900D02*Y173200D01*
X104200Y174700D01*
X108700Y171500D02*Y169400D01*
X107700Y168400D01*
G54D12*X113174Y140100D02*X113074Y140200D01*
G54D15*X97400D02*X105700D01*
X105800D02*X109600D01*
G54D12*X113048Y125400D02*X112948Y125300D01*
G54D15*X109474D02*Y122326D01*
X109700Y122100D01*
X101000Y129000D02*X109600D01*
G54D12*X108212Y188288D02*X111400Y185100D01*
X108212Y189093D02*Y188288D01*
X106412Y185788D02*X111400Y180800D01*
X95062Y183762D02*X94000Y182700D01*
X97031Y185788D02*Y181331D01*
X96500Y180800D01*
X99000Y185788D02*Y181400D01*
X99600Y180800D01*
X103700Y183000D02*Y181200D01*
X104200Y180700D01*
X83374Y195300D02*X89487D01*
X89787Y193031D02*X85431D01*
X85100Y192700D01*
X78300D01*
X89787Y191062D02*X85662D01*
X84500Y189900D01*
X89787Y189093D02*X86693D01*
X84500Y186900D01*
X93093Y185788D02*X92888D01*
X91300Y184200D01*
G54D15*X78700Y196600D02*X80000Y195300D01*
G54D12*X130213Y188108D02*X125008D01*
X128570Y184170D02*X125000Y180600D01*
X130013Y184170D02*X128570D01*
X125008Y188108D02*X125000Y188100D01*
G54D15*X120326Y181874D02*X120400Y181800D01*
X119226Y195900D02*X116174D01*
G54D13*X32000Y185000D02*X28500D01*
G54D15*X26500Y195000D02*X13500D01*
X25400D02*X28800D01*
X38400Y191126D02*X41674D01*
X38400Y191026D02*X38500Y191126D01*
X41674D02*X41900Y190900D01*
X38226Y191126D02*X35126D01*
X34900Y190900D01*
X38400Y188400D02*Y191026D01*
G54D13*X46500Y187500D02*X46000Y188000D01*
X46500Y185000D02*Y187500D01*
X49500Y185000D02*X52500D01*
G54D15*X48300Y197500D02*X48000Y197800D01*
X52750Y197500D02*X48300D01*
X52750Y200100D02*X49800D01*
X49000Y200900D01*
X60250Y197500D02*X63400D01*
X64000Y196900D01*
X56526Y186126D02*X56400Y186000D01*
G54D12*X60250Y194900D02*Y189676D01*
X59674Y189100D01*
X78300Y192700D02*X74300Y188700D01*
Y183374D01*
X74400Y183274D01*
X70200D01*
G54D15*X72500Y196600D02*Y199900D01*
X72200Y200200D01*
X76300Y196600D02*X78700D01*
G54D12*X33000Y207564D02*Y203400D01*
Y217800D02*X29200D01*
X33000Y203400D02*X33100Y203300D01*
X36740Y207564D02*Y203660D01*
X37100Y203300D01*
X38900Y200700D02*X34000D01*
X33100Y201600D01*
Y203000D01*
X33000Y203100D01*
X40480Y207564D02*Y202280D01*
X38900Y200700D01*
X29200Y217800D02*X26300Y214900D01*
Y209100D01*
X26000Y208800D01*
X25500Y198000D02*Y203182D01*
X26000Y203682D01*
G54D15*X64374Y207626D02*X64500Y207500D01*
G54D12*X60250Y200100D02*Y204076D01*
X60900Y204726D01*
G54D15*X64000Y229000D02*Y221500D01*
X71500Y225500D02*X68000D01*
X58100Y211500D02*X58000Y211400D01*
X60900Y211500D02*X58100D01*
X57950Y211350D01*
X64574Y218326D02*X64500Y218400D01*
X61100Y213000D02*Y215100D01*
Y215200D02*Y217800D01*
X60500Y218400D01*
X64900Y215100D02*Y218000D01*
X64400Y218500D01*
X60900Y207900D02*Y211500D01*
X64700D02*Y207800D01*
X60900Y211600D02*Y212800D01*
X61100Y213000D01*
G54D13*X51074Y216300D02*X51574Y216800D01*
X51074Y213800D02*Y216300D01*
X48074D02*X47574Y216800D01*
X48074Y213800D02*Y216300D01*
G54D15*X45500Y225500D02*X51000D01*
X53500Y229000D02*Y221500D01*
G54D12*X84500Y205700D02*X86400D01*
X89500Y202600D01*
Y201194D01*
X89787Y200907D01*
X93093Y207307D02*X90900Y209500D01*
G54D15*X84500Y212700D02*X81400D01*
X81300Y212600D01*
G54D12*X89487Y195300D02*X89787Y195000D01*
X84500Y198800D02*X84600D01*
X87100Y199500D02*Y199300D01*
X87400Y199000D01*
X84600Y198800D02*X86400Y197000D01*
X89756D01*
X89787Y196969D01*
X87400Y199000D02*X89725D01*
X89787Y198938D01*
X84500Y202400D02*Y202100D01*
X87100Y199500D01*
G54D15*X83700Y203000D02*X84500Y202200D01*
X83900Y199400D02*X84500Y198800D01*
G54D12*X96900Y204344D02*X97031Y204213D01*
X96900Y219300D02*Y204344D01*
X95000Y204275D02*X95062Y204213D01*
X95000Y220400D02*Y204275D01*
X93093Y204213D02*Y207307D01*
G54D15*X99526Y209626D02*X99400Y209500D01*
G54D12*X96400Y221800D02*X95000Y220400D01*
X107800Y206900D02*Y207000D01*
X109600Y208800D01*
Y213600D01*
X120000Y221700D02*X118700Y220400D01*
X110100D01*
X116800Y223200D02*X115400Y221800D01*
X110700Y206600D02*X113400Y209300D01*
Y213600D01*
X113500Y213700D01*
X109600Y213600D02*X109700Y213700D01*
X110100Y220400D02*X109000Y219300D01*
X96900D01*
X115400Y221800D02*X96400D01*
X25000Y324000D02*Y328000D01*
G54D15*X26000Y321000D02*X10500D01*
X52900Y320900D02*X45824D01*
X31200Y321000D02*X19774D01*
X34900D02*X42000D01*
G54D12*X32900Y332700D02*Y329100D01*
X32500Y328700D01*
X32600Y328600D02*X32500Y328700D01*
X36640Y332700D02*Y328560D01*
X40380Y332700D02*Y327280D01*
X39100Y326000D01*
X33400D01*
X32600Y326800D01*
Y328600D01*
X36640Y328560D02*X36700Y328500D01*
G54D13*X27500Y307000D02*X31500D01*
X49500Y312000D02*X52500D01*
X28000D02*X27500Y312500D01*
X31500Y312000D02*X28000D01*
G54D12*X45700D02*Y314200D01*
X46500Y315000D01*
G54D15*X41500Y317500D02*X37500D01*
X35500D02*X38074D01*
X38500Y314800D02*Y317400D01*
X38600Y317500D01*
X56200Y315100D02*Y312300D01*
X56400Y312100D01*
G54D12*X108212Y314888D02*X111400Y311700D01*
X108212Y315093D02*Y314888D01*
X107712Y311788D02*X111500Y308000D01*
X100969Y311788D02*Y309031D01*
X102938Y311788D02*Y309562D01*
X104300Y308200D01*
X104907Y311788D02*X107712D01*
X100969Y309069D02*Y308931D01*
X101850Y308050D01*
X95062Y311062D02*Y308862D01*
X94200Y308000D01*
X132670Y338130D02*X131800Y339000D01*
X132670Y334487D02*Y338130D01*
X125400Y335800D02*X125200Y336000D01*
X127000Y335800D02*X125400D01*
X130013Y332787D02*X127000Y335800D01*
X130013Y331829D02*Y332787D01*
G54D15*X116500Y334000D02*X112500Y330000D01*
X116500Y335000D02*Y334000D01*
G54D12*X112100Y333900D02*Y335974D01*
X112074Y336000D01*
X105500Y339900D02*X105600Y339800D01*
G54D15*X116000Y351500D02*X109500D01*
G54D12*X105500Y334200D02*Y335926D01*
X105213Y330213D02*X108600Y333600D01*
Y335674D01*
X108926Y336000D01*
X105500Y335926D02*X105574Y336000D01*
X94831Y340300D02*X97031Y338100D01*
X94800Y340300D02*X94831D01*
X92700Y339962D02*X95062Y337600D01*
X97031Y330213D02*Y338069D01*
X95062Y330213D02*Y337638D01*
X93093Y330213D02*Y333407D01*
X99000Y330213D02*Y335200D01*
X100969Y330213D02*Y332669D01*
X99000Y335200D02*X99400Y335600D01*
X99300Y339826D02*X99226Y339900D01*
X100969Y332669D02*X102100Y333800D01*
Y335674D01*
X102426Y336000D01*
X102938Y330213D02*Y332438D01*
X104300Y333800D01*
X104907Y330213D02*X105213D01*
X104300Y333800D02*X105100D01*
X105500Y334200D01*
X100100Y283000D02*X124400D01*
G54D15*X108626Y298500D02*Y296226D01*
X107200Y294800D01*
G54D12*X111700Y302826D02*Y298574D01*
X111774Y298500D01*
Y294774D01*
X111600Y294600D01*
X112900Y276550D02*X113250Y276900D01*
X98174Y303000D02*Y299200D01*
X98374Y299000D01*
G54D15*X94126Y294500D02*X94100D01*
G54D12*X98374Y299000D02*X100174D01*
X102300Y296874D01*
X94200Y308000D02*Y303400D01*
X94700Y302900D01*
X109300Y275100D02*Y276750D01*
X109450Y276900D01*
X116800Y285400D02*X86000D01*
G54D15*X90500Y296900D02*X87800D01*
X87500Y297200D01*
G54D12*X92700Y347100D02*Y339962D01*
X94800Y340300D02*Y344500D01*
G54D15*X71500Y351500D02*X68000D01*
X90000D02*X96000D01*
X61300Y343900D02*Y341126D01*
Y337300D02*X58700D01*
X61100Y341000D02*Y337600D01*
G54D13*X55100Y341100D02*X54600Y340600D01*
X55100Y343600D02*Y341100D01*
X51600Y343100D02*X51100Y343600D01*
X51600Y340600D02*Y343100D01*
G54D12*X32900Y342936D02*X29736D01*
X26000Y339200D01*
Y333918D01*
G54D15*X45500Y351500D02*X51000D01*
X53500Y355000D02*Y347500D01*
X64000Y355000D02*Y347500D01*
G54D12*X93093Y333407D02*X90900Y335600D01*
G54D15*X92250Y334250D01*
X64700Y344000D02*Y341126D01*
X64974Y337300D02*Y334426D01*
X84400Y325000D02*X84200D01*
X83800Y325400D01*
X81600D01*
X84400Y338500D02*X82600D01*
X81500Y337400D01*
X52750Y326100D02*X49900D01*
X49000Y327000D01*
X49250D01*
X52750Y323500D02*X48800D01*
X48700Y323600D01*
X60250Y323500D02*X63500D01*
X64000Y323000D01*
G54D12*X59674Y315100D02*Y320324D01*
X60250Y320900D01*
G54D15*X66426Y326000D02*X60450D01*
X64974Y334426D02*X65000Y334400D01*
X61000Y333574D02*Y336574D01*
G54D12*Y329900D02*Y326600D01*
X60500Y326100D01*
X79831Y319031D02*X89787D01*
Y321000D02*X83574D01*
X78700Y317900D02*X79831Y319031D01*
X74500Y313700D01*
G54D15*X76300Y322500D02*X79100D01*
X80100Y321500D01*
X72500Y326000D02*Y322500D01*
G54D12*X89787Y315093D02*X87893D01*
X86200Y313400D01*
X84900D01*
X84550Y313050D01*
X89787Y317062D02*X85562D01*
X84500Y316000D01*
G54D15*X80900Y316400D02*X84100D01*
X84500Y316000D01*
X81000Y310300D02*X80800Y310100D01*
X80900Y312600D02*Y310200D01*
X80800Y310100D01*
X84400Y310300D02*Y312900D01*
X84500Y313000D01*
G54D12*X70200Y309400D02*X74400D01*
X74413Y309413D01*
X74500Y313700D02*Y309400D01*
X89787Y322969D02*X86431D01*
X89787Y324938D02*X87562D01*
X86800Y325700D01*
X86431Y322969D02*X84600Y324800D01*
X86800Y325700D02*Y326400D01*
X86700Y326500D01*
X86400D01*
X89787Y326907D02*Y328413D01*
X87200Y331000D01*
X85200D01*
X84500Y331700D01*
G54D15*Y331800D02*Y334274D01*
X84426Y334348D01*
G54D12*X86400Y326500D02*X84400Y328500D01*
G54D15*X84500D02*X84200D01*
X83400Y329300D01*
X81600D01*
X81500Y329200D01*
X74000Y330400D02*X71400D01*
X71100Y330100D01*
X69900Y326000D02*X73400D01*
X74000Y326600D01*
G54D12*X99681Y282650D02*X97031Y280000D01*
X99750Y282650D02*X99681D01*
X76000Y285500D02*X84800D01*
X86000Y285400D02*X85900Y285500D01*
X83800D01*
X98012Y283550D02*X95062Y280600D01*
X99600Y282500D02*X100100Y283000D01*
G54D15*X81226Y275574D02*X81200Y275600D01*
G54D12*X99000Y307500D02*X99600Y306900D01*
X101850Y308050D02*Y305950D01*
X97031Y311788D02*Y307431D01*
X96500Y306900D01*
X99300Y303000D02*X98174D01*
X95026D02*X93126D01*
X95062Y311788D02*Y309062D01*
X99000Y311788D02*Y307500D01*
X95062Y309100D02*Y308962D01*
X93093Y311788D02*Y309693D01*
X91600Y308200D01*
Y306826D01*
G54D15*X64574Y281226D02*X64400Y281400D01*
X64800Y278100D02*Y281000D01*
X64300Y281500D01*
X64000Y292000D02*Y284500D01*
X71500Y288500D02*X68000D01*
X61100Y278000D02*X61000Y278100D01*
Y280900D01*
X61300Y281200D01*
G54D12*X33200Y279400D02*X29700D01*
X26800Y276500D01*
G54D15*X53500Y292000D02*Y284500D01*
G54D13*X47200Y277500D02*Y280000D01*
X46700Y280500D01*
G54D15*X50274Y280374D02*X50500Y280600D01*
G54D12*X50600Y277500D02*Y280200D01*
G54D13*Y277500D02*Y280500D01*
X50500Y280600D01*
G54D15*X45500Y288500D02*X51000D01*
G54D12*X91400Y306626D02*X91174Y306400D01*
G54D15*X88026D02*Y303474D01*
X88100Y303400D01*
G54D12*X91600Y306826D02*X91387Y306613D01*
G54D15*X87426Y297226D02*X87400Y297200D01*
G54D12*X93126Y303000D02*X90500Y300374D01*
G54D15*X94100Y294500D02*X92900Y293300D01*
X91500D01*
X91200Y293600D01*
X90500Y288500D02*X93500D01*
X74500Y306026D02*Y303500D01*
X74400Y303400D01*
X84400Y306500D02*Y303800D01*
X84000Y303400D01*
G54D12*X70200Y305926D02*Y302900D01*
X184800Y250300D02*X180574D01*
X183300Y254400D02*X171600D01*
X161108Y264892D01*
X161670Y268830D02*X161800Y268700D01*
X156987Y268830D02*X161670D01*
X156987Y247171D02*X161671D01*
G54D15*X167574Y250526D02*X167500Y250600D01*
G54D12*X200300Y187300D02*X198174D01*
X201100Y186500D02*X200300Y187300D01*
X198174Y182026D02*Y182100D01*
X143200Y291700D02*X143500Y292000D01*
X143200Y289600D02*Y291700D01*
X143626Y292000D02*X143500Y292126D01*
X140000Y286400D02*X143200Y289600D01*
X146200Y287300D02*X146300Y287400D01*
X144700Y287300D02*X146200D01*
X143300Y282300D02*X145000Y284000D01*
X141800Y282300D02*X143300D01*
X142100Y284700D02*X144700Y287300D01*
X141100Y284700D02*X142100D01*
X140600Y282300D02*X142100D01*
X150674Y292000D02*X152200D01*
X147274Y292126D02*X147400Y292000D01*
X143500Y292126D02*X147274D01*
X147526Y292000D02*X143626D01*
G54D15*X132026Y281174D02*X132200Y281000D01*
X129400Y281174D02*X132026D01*
G54D12*X97031Y267213D02*Y280031D01*
X95062Y267213D02*Y280662D01*
G54D15*X99426Y272626D02*X99300Y272500D01*
G54D12*X99000Y267213D02*Y272200D01*
X99300Y272500D01*
X100969Y267213D02*Y270569D01*
X101700Y271300D01*
Y272774D01*
X102426Y273500D01*
X102938Y267213D02*Y269638D01*
X104907Y267213D02*X104913D01*
X107800Y270100D01*
X102938Y269638D02*X104300Y271000D01*
X104400D01*
X125700Y272200D02*X125000Y272900D01*
G54D15*X124926Y272974D02*X125000Y272900D01*
G54D12*X127800Y272200D02*X125700D01*
X130013Y269987D02*X127800Y272200D01*
X130013Y268829D02*Y269987D01*
X132670Y274430D02*X132000Y275100D01*
X132670Y271487D02*Y274430D01*
X108212Y263907D02*Y267312D01*
X111300Y270400D01*
Y273226D01*
X112900Y274900D02*Y276550D01*
X108212Y261938D02*X111738D01*
X115400Y265600D01*
X118026D01*
X118426Y266000D01*
X130213Y266860D02*X127414D01*
X124574Y269700D01*
X103600Y246100D02*Y244200D01*
X104100Y243700D01*
X134640Y244713D02*Y239960D01*
X134800Y239800D01*
X130213Y249139D02*X125065D01*
X123800Y247874D01*
X108212Y259969D02*X112569D01*
X108212Y258000D02*X112500D01*
X108212Y256031D02*X112069D01*
X112569Y259969D02*X115100Y262500D01*
X112500Y258000D02*X115100Y255400D01*
X112069Y256031D02*X116500Y251600D01*
X110638Y254062D02*X113100Y251600D01*
X118126Y255200D02*X118426Y255500D01*
X115100Y255400D02*X118326D01*
X118363Y255437D01*
X108212Y251288D02*X111600Y247900D01*
X108212Y252093D02*Y251288D01*
X118126Y251700D02*X118426Y252000D01*
X116500Y251600D02*X118026D01*
X118426Y252000D01*
G54D15*X113250Y251450D02*X113550D01*
G54D12*X108212Y254062D02*X110638D01*
X115100Y262500D02*X118426D01*
X121574Y266000D02*X123500D01*
X124600Y264900D01*
X121574Y262500D02*X122400D01*
X122800Y262900D01*
X124600Y264900D02*X130204D01*
X130213Y264891D01*
X122800Y262900D02*X130191D01*
X130213Y262922D01*
Y258984D02*X127684D01*
X130213Y260953D02*X125953D01*
X125500Y260500D01*
X127684Y258984D02*X126800Y258100D01*
X124100D01*
X123300Y258900D01*
X122174D01*
X122074Y259000D01*
X130213Y257015D02*X128115D01*
X127300Y256200D01*
X125800D01*
X125500Y255900D01*
X122700Y255100D02*X121974D01*
X121574Y255500D01*
X122800Y255100D02*X121974D01*
X121787Y255287D01*
X130213Y253077D02*X124823D01*
X122800Y255100D01*
X130213Y251108D02*X124492D01*
X123600Y252000D01*
X121574D01*
X142516Y244713D02*Y242084D01*
X143200Y241400D01*
Y240000D01*
X143400Y239800D01*
X140547Y244713D02*Y239953D01*
X140600Y239900D01*
X138000Y221700D02*X120000D01*
X136900Y223200D02*X116800D01*
X95000Y220300D02*Y220400D01*
X97500Y232174D02*X97674Y232000D01*
X99000Y204213D02*Y209100D01*
X99400Y209500D01*
X100969Y204213D02*Y206869D01*
X102100Y208000D01*
Y210074D01*
X102326Y210300D01*
X102938Y204213D02*Y206138D01*
X104100Y207300D01*
X102938Y248788D02*Y246762D01*
X100969Y248788D02*Y246331D01*
X101700Y245600D01*
Y242700D01*
X100200Y241200D01*
X99174D01*
X102938Y246762D02*X103600Y246100D01*
X106500Y248600D02*X105095D01*
X104907Y248788D01*
X99000Y244300D02*X99500Y243800D01*
X97031Y244431D02*X96400Y243800D01*
X95062Y240564D02*X95226Y240400D01*
X99174Y241200D02*X98374Y240400D01*
X98474Y240500D02*Y236800D01*
X98374Y236700D01*
G54D15*X108626Y234700D02*Y232426D01*
X107600Y231400D01*
G54D12*X111774Y234700D02*Y238100D01*
X111800Y238126D01*
X99000Y248788D02*Y244300D01*
X97031Y248788D02*Y244431D01*
X95062Y248788D02*Y246962D01*
Y185788D02*Y183762D01*
X100969Y185788D02*Y183031D01*
X101900Y182100D01*
X102938Y185788D02*Y183762D01*
X103700Y183000D01*
X104907Y185788D02*X106412D01*
X108212Y191062D02*X110738D01*
X113200Y188600D01*
G54D15*X28559Y243941D02*X28400Y244100D01*
X32000Y243941D02*X28559D01*
X28441Y249059D02*X28400Y249100D01*
X32000Y249059D02*X28441D01*
X19400Y258000D02*X31226D01*
X35574D02*X38426D01*
X38500Y258074D01*
X38600Y258000D02*X42426D01*
X38800Y254326D02*Y251400D01*
X38700Y251300D01*
X38800Y254326D02*X35726D01*
X35200Y253800D01*
X38800Y254200D02*X41800D01*
X42200Y253800D01*
G54D12*X26000Y261000D02*Y265000D01*
G54D15*X21500Y258000D02*X15000D01*
G54D12*X26800Y276500D02*Y270659D01*
X33200Y269164D02*Y265300D01*
X36940Y269164D02*Y265760D01*
X34000Y262900D02*X33300Y263600D01*
Y265100D01*
X33200Y265200D01*
X36940Y265760D02*X37400Y265300D01*
X40680Y269164D02*Y264080D01*
X39500Y262900D01*
X34000D01*
G54D15*X57926Y270774D02*X57900Y270800D01*
X61274Y270774D02*Y272426D01*
X61100Y272600D01*
Y278000D01*
X60800Y270774D02*X57926D01*
X52750Y263100D02*X49700D01*
X48900Y263900D01*
G54D12*X60700Y263100D02*Y267526D01*
X60800Y267626D01*
G54D13*X46500Y251500D02*X46000Y252000D01*
G54D15*X52750Y260500D02*X48200D01*
X47900Y260800D01*
G54D12*X60250Y257900D02*Y252176D01*
X59574Y251500D01*
G54D13*X46500Y249000D02*Y251500D01*
G54D15*X49900Y249000D02*X52200D01*
X56200Y252000D02*Y249300D01*
X64674Y270774D02*X64400Y270500D01*
X64900Y274300D02*Y271000D01*
X64450Y270550D01*
X52750Y257900D02*X46300D01*
X46200Y258000D01*
X56526Y248974D02*X56600Y248900D01*
X52200Y249000D02*X52300Y248900D01*
X70874Y267574D02*X70400Y267100D01*
X60250Y260500D02*X63300D01*
X63900Y259900D01*
X60250Y263100D02*X66326D01*
X66526Y262900D01*
X56200Y249300D02*X56600Y248900D01*
X72700Y262900D02*X69674D01*
G54D12*X97700Y233500D02*Y232000D01*
X96800Y234400D02*X97700Y233500D01*
X96100Y234400D02*X96800D01*
X95200Y235300D02*X96100Y234400D01*
X95200Y236700D02*Y235300D01*
G54D15*X87474Y233926D02*X87300Y234100D01*
X87426Y234226D02*X87300Y234100D01*
X90500Y233900D02*X87500D01*
X87200Y234200D01*
G54D12*X95226Y240400D02*X93526D01*
X90500Y237374D01*
G54D15*X90700Y230800D02*X90600Y230900D01*
X90500Y225500D02*X93500D01*
X90600Y230900D02*X93100D01*
X94200Y232000D01*
G54D12*X98700Y236700D02*X99900D01*
X102300Y234300D01*
G54D15*X104800Y230300D02*X102500D01*
X102300Y230500D01*
X105600Y234900D02*Y236700D01*
X104300Y238000D01*
G54D12*X70100Y240600D02*X70000Y240500D01*
X70100Y243026D02*Y240600D01*
X74600Y250300D02*Y246274D01*
X70200D01*
X70100Y246174D01*
X74600Y252100D02*Y250100D01*
G54D15*Y242800D02*Y240300D01*
X74300Y240000D01*
X73500Y267574D02*X70874D01*
X84500Y268800D02*X84400Y268700D01*
G54D12*X87100Y268200D02*X85200D01*
X84500Y268900D01*
G54D15*X81600Y267400D02*X80000D01*
X84400Y265400D02*X83600D01*
X84400D02*X84200D01*
X84400Y261800D02*X83900D01*
X83100Y262600D01*
X83050Y262650D02*X80950D01*
X80000Y263600D01*
G54D12*X89787Y265513D02*X87100Y268200D01*
X93093Y267213D02*Y270207D01*
X90800Y272500D01*
G54D15*X84500Y272100D02*Y268800D01*
G54D12*X89787Y263907D02*Y265513D01*
Y261938D02*X88062D01*
X84600Y265400D01*
X89787Y259969D02*X86231D01*
X84400Y261800D01*
G54D15*X74000Y263900D02*X73000Y262900D01*
X83600Y265400D02*X81600Y267400D01*
X84500Y275900D02*X81500D01*
X81200Y275600D01*
X84500Y249800D02*X84400Y249900D01*
G54D12*X86593Y252093D02*X84400Y249900D01*
G54D15*X84000Y247300D02*Y249400D01*
X84450Y249850D01*
G54D12*X93093Y248788D02*X92588D01*
X91200Y247400D01*
Y243126D01*
X91074Y243000D01*
X95062Y246962D02*X93600Y245500D01*
Y242026D01*
G54D15*X87926Y240374D02*X88000Y240300D01*
X87600Y243000D02*Y240700D01*
X88000Y240300D01*
X84000Y243500D02*Y240700D01*
X80500Y249600D02*Y246900D01*
G54D12*X89787Y254062D02*X85962D01*
X84800Y252900D01*
X89787Y252093D02*X86593D01*
X78400Y255900D02*X74600Y252100D01*
G54D15*X80500Y253400D02*X83900D01*
X84400Y252900D01*
G54D12*X89787Y256031D02*X80331D01*
X89787Y258000D02*X84074D01*
X84400Y258300D01*
X80431Y256031D02*X78431D01*
X78400Y256000D01*
Y255900D01*
G54D15*X73000Y259400D02*Y262500D01*
X72600Y262900D01*
X76800Y259400D02*X77000D01*
X78000Y258400D01*
X80500D01*
X80600Y258300D01*
G54D12*X93600Y242026D02*X95226Y240400D01*
G54D15*X104300Y241800D02*Y244100D01*
X104100Y244300D01*
X113100Y251600D02*X114800Y249900D01*
Y249000D01*
X115400Y248400D01*
Y244600D02*Y241900D01*
X115500Y241800D01*
G54D12*X111300Y273226D02*X111574Y273500D01*
X107550Y269850D02*X108800Y271100D01*
Y274600D01*
X109300Y275100D01*
X111537Y273463D02*Y273537D01*
X112900Y274900D01*
X104400Y271000D02*X105400D01*
X105800Y271400D01*
Y272900D01*
G54D15*X99250Y272450D02*Y277450D01*
X99100Y277600D01*
X102900D02*X105200D01*
X105900Y276900D01*
G54D12*X105800Y272900D02*X106200Y273300D01*
G54D15*X115500Y225500D02*X112500D01*
G54D12*X111600Y231300D02*Y231500D01*
X112600Y232500D01*
Y234600D01*
X112500Y234700D01*
X361000Y364900D02*Y360900D01*
X360500Y364900D02*X362500D01*
X363000Y364400D01*
Y363400D01*
X362500Y362900D02*X363000Y363400D01*
X361000Y362900D02*X362500D01*
X364200Y361400D02*X367200Y364400D01*
X368400Y364900D02*Y360900D01*
Y364900D02*X370900Y360900D01*
Y364900D02*Y360900D01*
X372100Y363400D02*X372600D01*
X372100Y362400D02*X372600D01*
X375600Y364100D02*X376400Y364900D01*
Y360900D01*
X375600D02*X377100D01*
X378300Y361400D02*X378800Y360900D01*
X378300Y364400D02*Y361400D01*
Y364400D02*X378800Y364900D01*
X379800D01*
X380300Y364400D01*
Y361400D01*
X379800Y360900D02*X380300Y361400D01*
X378800Y360900D02*X379800D01*
X378300Y361900D02*X380300Y363900D01*
X381500Y361400D02*X382000Y360900D01*
X381500Y364400D02*Y361400D01*
Y364400D02*X382000Y364900D01*
X383000D01*
X383500Y364400D01*
Y361400D01*
X383000Y360900D02*X383500Y361400D01*
X382000Y360900D02*X383000D01*
X381500Y361900D02*X383500Y363900D01*
X384700Y364400D02*X385200Y364900D01*
X386700D01*
X387200Y364400D01*
Y363400D01*
X384700Y360900D02*X387200Y363400D01*
X384700Y360900D02*X387200D01*
X388400Y362900D02*X390400D01*
X391600Y361400D02*X392100Y360900D01*
X391600Y364400D02*Y361400D01*
Y364400D02*X392100Y364900D01*
X393100D01*
X393600Y364400D01*
Y361400D01*
X393100Y360900D02*X393600Y361400D01*
X392100Y360900D02*X393100D01*
X391600Y361900D02*X393600Y363900D01*
X394800Y364100D02*X395600Y364900D01*
Y360900D01*
X394800D02*X396300D01*
X360500Y358600D02*X362500D01*
X363000Y358100D01*
Y357100D01*
X362500Y356600D02*X363000Y357100D01*
X361000Y356600D02*X362500D01*
X361000Y358600D02*Y354600D01*
X361800Y356600D02*X363000Y354600D01*
X364200Y356800D02*X365700D01*
X364200Y354600D02*X366200D01*
X364200Y358600D02*Y354600D01*
Y358600D02*X366200D01*
X367400D02*X368400Y354600D01*
X369400Y358600D01*
X370600Y357100D02*X371100D01*
X370600Y356100D02*X371100D01*
X374100Y358100D02*X374600Y358600D01*
X376100D01*
X376600Y358100D01*
Y357100D01*
X374100Y354600D02*X376600Y357100D01*
X374100Y354600D02*X376600D01*
X377800D02*X378300D01*
X379500Y357800D02*X380300Y358600D01*
Y354600D01*
X379500D02*X381000D01*
G54D17*X370000Y200000D03*
X360000D03*
X370000Y210000D03*
Y220000D03*
Y230000D03*
X360000Y210000D03*
Y220000D03*
Y230000D03*
Y240000D03*
Y250000D03*
X370000Y240000D03*
Y250000D03*
G54D11*G36*
X395229Y241268D02*Y235725D01*
X400772D01*
Y241268D01*
X395229D01*
G37*
G54D18*X405874Y238496D03*
X398000Y230622D03*
X405874D03*
X398000Y222748D03*
X405874D03*
X398000Y214874D03*
X405874D03*
X398000Y207000D03*
Y199126D03*
X405874Y207000D03*
Y199126D03*
G54D19*X450315Y322717D03*
Y287283D03*
G54D20*X458189Y305000D03*
G54D21*X446378D03*
G54D22*X422756D03*
G54D23*X431500Y357500D03*
G54D18*X398000Y191252D03*
X405874D03*
G54D17*X370000Y180000D03*
X360000D03*
X370000Y190000D03*
X360000D03*
G54D23*X431500Y32500D03*
G54D24*X433000Y70900D03*
X443000D03*
X453000D03*
G54D25*X418000Y65900D03*
G54D26*X392000Y104500D03*
Y96500D03*
Y88500D03*
Y80500D03*
Y120500D03*
Y112500D03*
X382000Y124500D03*
Y116500D03*
Y108500D03*
G54D27*X418000Y119500D03*
G54D26*X382000Y92500D03*
Y84500D03*
Y76500D03*
G54D27*X418000Y81500D03*
G54D24*X443000Y130100D03*
X453000D03*
G54D25*X418000Y135100D03*
G54D23*X32500Y357500D03*
Y32500D03*
G54D28*X261074Y83100D02*X261274D01*
X264874D02*X265074D01*
X276700Y83400D02*X276900D01*
X280500D02*X280700D01*
X289226Y78500D02*X289426D01*
X281600Y78400D02*X281800D01*
X285400D02*X285600D01*
X295300Y91100D02*Y90900D01*
X293026Y78500D02*X293226D01*
G54D29*X304791Y58900D02*X320539D01*
G54D30*X454000Y25000D03*
G54D28*X388074Y55500D02*X388274D01*
X391874D02*X392074D01*
X378426D02*X378626D01*
X382226D02*X382426D01*
G54D29*X271326Y58900D02*X287074D01*
G54D31*X256757Y73193D02*Y72407D01*
X263843Y73193D02*Y72407D01*
G54D32*X269941Y78592D02*Y77608D01*
X275059Y78592D02*Y77608D01*
G54D28*X241100Y44026D02*Y43826D01*
G54D32*X240282Y37592D02*Y36608D01*
G54D28*X241100Y47826D02*Y47626D01*
G54D33*X234300Y47400D02*X235700D01*
X234300Y57400D02*X235700D01*
G54D28*X245400Y43826D02*Y43626D01*
G54D32*X245400Y37592D02*Y36608D01*
G54D28*X245400Y47626D02*Y47426D01*
G54D34*X287003Y123554D02*X288381D01*
X287003Y125523D02*X288381D01*
X287003Y127492D02*X288381D01*
X287003Y129461D02*X288381D01*
X287003Y131430D02*X288381D01*
X285529Y134281D02*Y132903D01*
G54D28*X309400Y130726D02*Y130526D01*
G54D34*X283560Y134281D02*Y132903D01*
X281591Y134281D02*Y132903D01*
X279622Y134281D02*Y132903D01*
X277653Y134281D02*Y132903D01*
X275684Y134281D02*Y132903D01*
X273715Y134281D02*Y132903D01*
X271746Y134281D02*Y132903D01*
X269777Y134281D02*Y132903D01*
X267808Y134281D02*Y132903D01*
X265839Y134281D02*Y132903D01*
X263870Y134281D02*Y132903D01*
G54D28*X322074Y138874D02*Y138674D01*
Y135074D02*Y134874D01*
X309400Y134526D02*Y134326D01*
Y138274D02*Y138074D01*
Y142074D02*Y141874D01*
X322000Y146426D02*Y146226D01*
Y142626D02*Y142426D01*
X337826Y139200D02*X338026D01*
X341626D02*X341826D01*
X329300Y132800D02*X329500D01*
X333100D02*X333300D01*
X378926Y144000D02*X379126D01*
X350574Y152600D02*X350774D01*
X354374D02*X354574D01*
X382726Y144000D02*X382926D01*
X389426D02*X389626D01*
X393226D02*X393426D01*
X192900Y306200D02*X193100D01*
X192900Y300200D02*X193100D01*
X187300Y298600D02*Y298400D01*
Y302400D02*Y302200D01*
G54D31*X218845Y330695D02*X224355D01*
X218845Y342505D02*X224355D01*
X209695Y356155D02*Y350645D01*
X221505Y356155D02*Y350645D01*
G54D28*X196700Y306200D02*X196900D01*
X196700Y300200D02*X196900D01*
X186774Y306326D02*Y306126D01*
Y310126D02*Y309926D01*
X132000Y346000D02*Y345800D01*
Y342200D02*Y342000D01*
X125200Y342800D02*Y342600D01*
Y339000D02*Y338800D01*
X121200Y332700D02*X121400D01*
X109400Y339600D02*X109600D01*
X102600Y339900D02*X102800D01*
X98800D02*X99000D01*
G54D35*X94004Y351500D02*X111996D01*
G54D28*X113200Y339600D02*X113400D01*
X102300Y336000D02*X102500D01*
X106100D02*X106300D01*
G54D36*X88508Y315093D02*X91066D01*
X93093Y313067D02*Y310509D01*
X95062Y313067D02*Y310509D01*
X97031Y313067D02*Y310509D01*
X99000Y313067D02*Y310509D01*
X100969Y313067D02*Y310509D01*
G54D37*X111800Y311700D03*
G54D36*X106933Y315093D02*X109491D01*
X106933Y317062D02*X109491D01*
X102938Y313067D02*Y310509D01*
X104907Y313067D02*Y310509D01*
G54D11*G36*
X93202Y326798D02*Y315202D01*
X104797D01*
Y326798D01*
X93202D01*
G37*
G36*
X95050Y324950D02*Y321550D01*
X98450D01*
Y324950D01*
X95050D01*
G37*
G36*
Y320450D02*Y317050D01*
X98450D01*
Y320450D01*
X95050D01*
G37*
G36*
X99550Y324950D02*Y321550D01*
X102950D01*
Y324950D01*
X99550D01*
G37*
G36*
Y320450D02*Y317050D01*
X102950D01*
Y320450D01*
X99550D01*
G37*
G54D36*X106933Y319031D02*X109491D01*
X106933Y321000D02*X109491D01*
X106933Y322969D02*X109491D01*
G54D28*X118474Y322000D02*X118674D01*
X122274D02*X122474D01*
G54D36*X129131Y331829D02*X130895D01*
X129131Y329860D02*X131295D01*
X129131Y327891D02*X131295D01*
X129131Y325922D02*X131295D01*
X129131Y323953D02*X131295D01*
X129131Y321984D02*X131295D01*
G54D28*X125000Y332700D02*X125200D01*
G54D36*X129131Y312139D02*X131295D01*
X129131Y310170D02*X130895D01*
X129131Y320015D02*X131295D01*
X129131Y318046D02*X131295D01*
X129131Y316077D02*X131295D01*
X129131Y314108D02*X131295D01*
X132671Y308395D02*Y306631D01*
X134640Y308795D02*Y306631D01*
X136609Y308795D02*Y306631D01*
X138578Y308795D02*Y306631D01*
X140547Y308795D02*Y306631D01*
X142516Y308795D02*Y306631D01*
X144485Y308795D02*Y306631D01*
X146454Y308795D02*Y306631D01*
X148423Y308795D02*Y306631D01*
X150392Y308795D02*Y306631D01*
X152361Y308795D02*Y306631D01*
X154330Y308395D02*Y306631D01*
X156105Y310171D02*X157869D01*
X155705Y312140D02*X157869D01*
X155705Y314109D02*X157869D01*
X155705Y316078D02*X157869D01*
X155705Y318047D02*X157869D01*
X155705Y320016D02*X157869D01*
X155705Y321985D02*X157869D01*
X155705Y323954D02*X157869D01*
G54D28*X167800Y310500D02*X168000D01*
X167600Y331700D02*X167800D01*
X164000Y310500D02*X164200D01*
X163800Y331700D02*X164000D01*
G54D36*X155705Y325923D02*X157869D01*
X155705Y327892D02*X157869D01*
X155705Y329861D02*X157869D01*
X156105Y331830D02*X157869D01*
X154329Y335369D02*Y333605D01*
X152360Y335369D02*Y333205D01*
X150391Y335369D02*Y333205D01*
X148422Y335369D02*Y333205D01*
X146453Y335369D02*Y333205D01*
X144484Y335369D02*Y333205D01*
X142515Y335369D02*Y333205D01*
X140546Y335369D02*Y333205D01*
X138577Y335369D02*Y333205D01*
X136608Y335369D02*Y333205D01*
X134639Y335369D02*Y333205D01*
X132670Y335369D02*Y333605D01*
G54D28*X241674Y111200D02*X241874D01*
X245474D02*X245674D01*
X241774Y118800D02*X241974D01*
X245574D02*X245774D01*
X241774Y122500D02*X241974D01*
X245574D02*X245774D01*
X245548Y115000D02*X245748D01*
X241748D02*X241948D01*
G54D34*X287003Y109771D02*X288381D01*
X287003Y111740D02*X288381D01*
X287003Y113709D02*X288381D01*
X287003Y115678D02*X288381D01*
X287003Y117647D02*X288381D01*
X287003Y119616D02*X288381D01*
X287003Y121585D02*X288381D01*
G54D28*X295300Y94900D02*Y94700D01*
X303200Y105400D02*Y105200D01*
Y109200D02*Y109000D01*
Y97600D02*Y97400D01*
Y101400D02*Y101200D01*
X281800Y96800D02*Y96600D01*
Y100600D02*Y100400D01*
G54D34*X261019Y123553D02*X262397D01*
X261019Y121584D02*X262397D01*
X261019Y119615D02*X262397D01*
X261019Y117646D02*X262397D01*
X261019Y115677D02*X262397D01*
X261019Y113708D02*X262397D01*
X261019Y111739D02*X262397D01*
X261019Y109770D02*X262397D01*
X261019Y131429D02*X262397D01*
X261019Y129460D02*X262397D01*
X261019Y127491D02*X262397D01*
X261019Y125522D02*X262397D01*
G54D31*X231545Y336605D02*X237055D01*
X231545Y324795D02*X237055D01*
G54D29*X261187Y322921D02*Y313079D01*
X247013Y322921D02*Y313079D01*
G54D38*X255393Y345200D02*X258935D01*
G54D37*X270100Y310900D03*
G54D28*X264900Y297800D02*Y297600D01*
Y301600D02*Y301400D01*
X256200Y297800D02*X256400D01*
X260000D02*X260200D01*
G54D37*X275900Y302200D03*
G54D34*X279009Y310605D02*Y308833D01*
X280978Y310605D02*Y308833D01*
X282947Y310605D02*Y308833D01*
G54D32*X279808Y300459D02*X280792D01*
G54D34*X275565Y312277D02*X277337D01*
G54D32*X279808Y295341D02*X280792D01*
G54D34*X292791Y325566D02*Y323794D01*
X290822Y325566D02*Y323794D01*
X288853Y325566D02*Y323794D01*
X286884Y325566D02*Y323794D01*
X284915Y325566D02*Y323794D01*
G54D28*X275200Y284400D02*X275400D01*
X271400D02*X271600D01*
X268200Y279700D02*X268400D01*
X272000D02*X272200D01*
X296874Y237500D02*X297074D01*
G54D34*X282946Y325566D02*Y323794D01*
X280977Y325566D02*Y323794D01*
X279008Y325566D02*Y323794D01*
X275565Y322122D02*X277337D01*
X275565Y320153D02*X277337D01*
X275565Y318184D02*X277337D01*
X275565Y316215D02*X277337D01*
X275565Y314246D02*X277337D01*
G54D39*X284531Y317200D02*X287269D01*
G54D11*G36*
X280950Y319350D02*Y315050D01*
X285250D01*
Y319350D01*
X280950D01*
G37*
G36*
X286550D02*Y315050D01*
X290850D01*
Y319350D01*
X286550D01*
G37*
G54D38*X275865Y345200D02*X279407D01*
G54D34*X245046Y271898D02*Y267174D01*
X243077Y271898D02*Y267174D01*
X241108Y271898D02*Y267174D01*
X239139Y271898D02*Y267174D01*
X237170Y271898D02*Y267174D01*
X235201Y271898D02*Y267174D01*
X233232Y271898D02*Y267174D01*
X231263Y271898D02*Y267174D01*
X229294Y271898D02*Y267174D01*
X227325Y271898D02*Y267174D01*
X225356Y271898D02*Y267174D01*
X223387Y271898D02*Y267174D01*
X221418Y271898D02*Y267174D01*
X219449Y271898D02*Y267174D01*
X217480Y271898D02*Y267174D01*
X215511Y271898D02*Y267174D01*
X213542Y271898D02*Y267174D01*
G54D40*X227511Y76762D02*X232117D01*
X227511Y79321D02*X232117D01*
X227511Y81879D02*X232117D01*
X227511Y84438D02*X232117D01*
G54D28*X197200Y79800D02*Y79600D01*
Y83600D02*Y83400D01*
X200900Y86700D02*Y86500D01*
Y82900D02*Y82700D01*
X203100Y44274D02*Y44074D01*
Y48074D02*Y47874D01*
G54D41*X217800Y45250D02*Y43150D01*
X222800Y45250D02*Y43150D01*
X227800Y45250D02*Y43150D01*
G54D33*X209900Y47400D02*X211300D01*
G54D28*X218700Y89500D02*X218900D01*
X214900D02*X215100D01*
G54D40*X204283Y84438D02*X208889D01*
X204283Y81879D02*X208889D01*
X204283Y79321D02*X208889D01*
X204283Y76762D02*X208889D01*
G54D41*X227800Y61650D02*Y59550D01*
X222800Y61650D02*Y59550D01*
X217800Y61650D02*Y59550D01*
G54D33*X209900Y57400D02*X211300D01*
G54D34*X204102Y225046D02*X208826D01*
X204102Y223077D02*X208826D01*
X204102Y221108D02*X208826D01*
X204102Y219139D02*X208826D01*
X204102Y217170D02*X208826D01*
X204102Y215201D02*X208826D01*
X204102Y213232D02*X208826D01*
X204102Y211263D02*X208826D01*
X204102Y209294D02*X208826D01*
X204102Y207325D02*X208826D01*
X204102Y205356D02*X208826D01*
X204102Y203387D02*X208826D01*
X204102Y201418D02*X208826D01*
X204102Y199449D02*X208826D01*
X204102Y197480D02*X208826D01*
X204102Y195511D02*X208826D01*
X204102Y193542D02*X208826D01*
X213543Y188827D02*Y184103D01*
X215512Y188827D02*Y184103D01*
X217481Y188827D02*Y184103D01*
X219450Y188827D02*Y184103D01*
X221419Y188827D02*Y184103D01*
X223388Y188827D02*Y184103D01*
X225357Y188827D02*Y184103D01*
X227326Y188827D02*Y184103D01*
X229295Y188827D02*Y184103D01*
G54D35*X94004Y288500D02*X111996D01*
G54D28*X113150Y276900D02*X113350D01*
X102300Y273300D02*X102500D01*
X106100D02*X106300D01*
X109350Y276900D02*X109550D01*
X102800Y277600D02*X103000D01*
X121000Y269700D02*X121200D01*
X124800D02*X125000D01*
X124926Y279574D02*Y279374D01*
Y275774D02*Y275574D01*
X121800Y266000D02*X122000D01*
X121800Y262500D02*X122000D01*
X121800Y255500D02*X122000D01*
X121800Y252000D02*X122000D01*
X99000Y277600D02*X99200D01*
X91800Y180300D02*X92000D01*
X94100Y232000D02*X94300D01*
X97900D02*X98100D01*
X99100Y214100D02*X99300D01*
X118000Y266000D02*X118200D01*
X118000Y262500D02*X118200D01*
X118000Y255500D02*X118200D01*
X118000Y252000D02*X118200D01*
X102900Y214100D02*X103100D01*
X108600Y234700D02*X108800D01*
X112400D02*X112600D01*
X118800Y195900D02*X119000D01*
X122600D02*X122800D01*
X119900Y184800D02*X120100D01*
X123700D02*X123900D01*
X121700Y192200D02*X121900D01*
X121700Y188400D02*X121900D01*
X125000Y216852D02*Y216652D01*
X132000Y219800D02*Y219600D01*
Y216000D02*Y215800D01*
X125000Y213052D02*Y212852D01*
X168500Y205700D02*X168700D01*
X164700D02*X164900D01*
X125000Y174600D02*Y174400D01*
X132200Y170600D02*Y170400D01*
Y174400D02*Y174200D01*
X111700Y175300D02*Y175100D01*
Y179100D02*Y178900D01*
X125000Y178400D02*Y178200D01*
X168600Y184600D02*X168800D01*
X164800D02*X165000D01*
X120900Y206900D02*X121100D01*
X124700D02*X124900D01*
X121600Y203300D02*X121800D01*
Y199600D02*X122000D01*
X94200Y168900D02*X94400D01*
X98000D02*X98200D01*
X117800Y203300D02*X118000D01*
Y199600D02*X118200D01*
X117900Y192200D02*X118100D01*
X117900Y188400D02*X118100D01*
X115200Y181200D02*Y181000D01*
Y185000D02*Y184800D01*
X104200Y174900D02*Y174700D01*
Y178700D02*Y178500D01*
G54D36*X144484Y272369D02*Y270205D01*
G54D11*G36*
X141200Y266000D02*Y261400D01*
X145800D01*
Y266000D01*
X141200D01*
G37*
G36*
X146900D02*Y261400D01*
X151500D01*
Y266000D01*
X146900D01*
G37*
G54D36*X142515Y272369D02*Y270205D01*
X140546Y272369D02*Y270205D01*
X138577Y272369D02*Y270205D01*
X136608Y272369D02*Y270205D01*
X134639Y272369D02*Y270205D01*
X132670Y272369D02*Y270605D01*
G54D28*X129400Y281200D02*Y281000D01*
Y277400D02*Y277200D01*
G54D11*G36*
X133470Y268030D02*Y247970D01*
X153530D01*
Y268030D01*
X133470D01*
G37*
G36*
X135500Y266000D02*Y261400D01*
X140100D01*
Y266000D01*
X135500D01*
G37*
G36*
Y260300D02*Y255700D01*
X140100D01*
Y260300D01*
X135500D01*
G37*
G36*
X141200D02*Y255700D01*
X145800D01*
Y260300D01*
X141200D01*
G37*
G36*
X146900Y254600D02*Y250000D01*
X151500D01*
Y254600D01*
X146900D01*
G37*
G36*
Y260300D02*Y255700D01*
X151500D01*
Y260300D01*
X146900D01*
G37*
G36*
X135500Y254600D02*Y250000D01*
X140100D01*
Y254600D01*
X135500D01*
G37*
G36*
X141200D02*Y250000D01*
X145800D01*
Y254600D01*
X141200D01*
G37*
G54D28*X180800Y250300D02*X181000D01*
X177000D02*X177200D01*
X185626Y245200D02*X185826D01*
X181826D02*X182026D01*
X168100Y268400D02*X168300D01*
X164300D02*X164500D01*
X168100Y247400D02*X168300D01*
X164300D02*X164500D01*
X178200Y243074D02*Y242874D01*
X172000Y244574D02*Y244374D01*
Y240774D02*Y240574D01*
X178200Y239274D02*Y239074D01*
X192926Y240774D02*Y240574D01*
Y236974D02*Y236774D01*
X187000Y240800D02*Y240600D01*
Y237000D02*Y236800D01*
X124026Y247874D02*X124226D01*
X124974Y237626D02*Y237426D01*
Y241426D02*Y241226D01*
X111800Y238400D02*Y238200D01*
Y242200D02*Y242000D01*
G54D36*X88508Y326907D02*X91066D01*
X88508Y324938D02*X91066D01*
X88508Y322969D02*X91066D01*
X88508Y321000D02*X91066D01*
X88508Y319031D02*X91066D01*
X88508Y317062D02*X91066D01*
G54D28*X90500Y297000D02*Y296800D01*
Y300800D02*Y300600D01*
X91700Y306400D02*X91900D01*
X90500Y234000D02*Y233800D01*
Y237800D02*Y237600D01*
X91300Y243000D02*X91500D01*
G54D36*X106933Y324938D02*X109491D01*
X106933Y326907D02*X109491D01*
X104907Y331492D02*Y328934D01*
X102938Y331492D02*Y328934D01*
X100969Y331492D02*Y328934D01*
X99000Y331492D02*Y328934D01*
X97031Y331492D02*Y328934D01*
X95062Y331492D02*Y328934D01*
X93093Y331492D02*Y328934D01*
G54D11*G36*
X133470Y331030D02*Y310970D01*
X153530D01*
Y331030D01*
X133470D01*
G37*
G36*
X135500Y329000D02*Y324400D01*
X140100D01*
Y329000D01*
X135500D01*
G37*
G36*
Y323300D02*Y318700D01*
X140100D01*
Y323300D01*
X135500D01*
G37*
G36*
X141200D02*Y318700D01*
X145800D01*
Y323300D01*
X141200D01*
G37*
G36*
Y329000D02*Y324400D01*
X145800D01*
Y329000D01*
X141200D01*
G37*
G36*
X146900D02*Y324400D01*
X151500D01*
Y329000D01*
X146900D01*
G37*
G36*
Y323300D02*Y318700D01*
X151500D01*
Y323300D01*
X146900D01*
G37*
G36*
X135500Y317600D02*Y313000D01*
X140100D01*
Y317600D01*
X135500D01*
G37*
G36*
X141200D02*Y313000D01*
X145800D01*
Y317600D01*
X141200D01*
G37*
G36*
X146900D02*Y313000D01*
X151500D01*
Y317600D01*
X146900D01*
G37*
G54D28*X120000Y311000D02*X120200D01*
X118000Y318500D02*X118200D01*
X121800D02*X122000D01*
X118000Y315000D02*X118200D01*
X121800D02*X122000D01*
X123800Y311000D02*X124000D01*
X118000Y329100D02*X118200D01*
X121800D02*X122000D01*
X118000Y325600D02*X118200D01*
X121800D02*X122000D01*
X102100Y293700D02*Y293500D01*
X94600Y299000D02*X94800D01*
X98400D02*X98600D01*
X94000Y294500D02*X94200D01*
X97800D02*X98000D01*
X102100Y297500D02*Y297300D01*
X108600Y298500D02*X108800D01*
X112400D02*X112600D01*
X111700Y302600D02*Y302400D01*
Y306400D02*Y306200D01*
X115400Y307600D02*Y307400D01*
Y311400D02*Y311200D01*
X105100Y301000D02*Y300800D01*
Y304800D02*Y304600D01*
X98400Y302900D02*X98600D01*
X94600D02*X94800D01*
X132200Y296500D02*Y296300D01*
Y300300D02*Y300100D01*
X124900Y300800D02*Y300600D01*
Y304600D02*Y304400D01*
X143500Y295700D02*Y295500D01*
Y291900D02*Y291700D01*
X150900Y292000D02*X151100D01*
X147100D02*X147300D01*
X208400Y277100D02*X208600D01*
X212200D02*X212400D01*
G54D34*X204102Y242767D02*X208826D01*
X204102Y240798D02*X208826D01*
X204102Y238829D02*X208826D01*
X204102Y236860D02*X208826D01*
X204102Y234891D02*X208826D01*
X204102Y232922D02*X208826D01*
X204102Y230953D02*X208826D01*
X204102Y228984D02*X208826D01*
X204102Y227015D02*X208826D01*
X204102Y262457D02*X208826D01*
X204102Y260488D02*X208826D01*
X204102Y258519D02*X208826D01*
X204102Y256550D02*X208826D01*
X204102Y254581D02*X208826D01*
X204102Y252612D02*X208826D01*
X204102Y250643D02*X208826D01*
X204102Y248674D02*X208826D01*
X204102Y246705D02*X208826D01*
X204102Y244736D02*X208826D01*
G54D28*X198400Y182100D02*X198600D01*
X194600D02*X194800D01*
X198400Y192400D02*X198600D01*
X194600D02*X194800D01*
X198400Y187300D02*X198600D01*
X194600D02*X194800D01*
X300926Y287400D02*X301126D01*
X292674D02*X292874D01*
X288874D02*X289074D01*
X292700Y283200D02*X292900D01*
X288900D02*X289100D01*
X301100D02*X301300D01*
G54D37*X295500Y301800D03*
G54D28*X304300Y301700D02*Y301500D01*
G54D31*X404500Y304893D02*Y304107D01*
X397414Y304893D02*Y304107D01*
G54D28*X304300Y297900D02*Y297700D01*
X287400Y296800D02*Y296600D01*
Y300600D02*Y300400D01*
X303700Y294000D02*X303900D01*
X304726Y287400D02*X304926D01*
X304900Y283200D02*X305100D01*
G54D31*X326695Y294555D02*Y289045D01*
G54D28*X307500Y294000D02*X307700D01*
G54D31*X338505Y294555D02*Y289045D01*
G54D28*X336826Y256500D02*X337026D01*
X340626D02*X340826D01*
X330374Y251900D02*X330574D01*
X334174D02*X334374D01*
G54D31*X335745Y303000D02*X341255D01*
X335745Y314810D02*X341255D01*
X335545Y336400D02*X341055D01*
X335545Y324590D02*X341055D01*
G54D29*X325687Y322821D02*Y312979D01*
X311513Y322821D02*Y312979D01*
G54D38*X313565Y345300D02*X317107D01*
G54D42*X362800Y323300D02*Y322700D01*
X355000Y323300D02*Y322700D01*
X358900Y315100D02*Y314500D01*
G54D43*X378107Y322823D02*X378893D01*
X378107Y305500D02*X378893D01*
G54D28*X446426Y187500D02*X446626D01*
X446574Y241500D02*X446774D01*
X450374D02*X450574D01*
X450226Y187500D02*X450426D01*
X446500Y164000D02*X446700D01*
X450300D02*X450500D01*
G54D44*X459000Y257984D02*Y256016D01*
Y247748D02*Y245780D01*
Y202984D02*Y201016D01*
Y192748D02*Y190780D01*
Y179984D02*Y178016D01*
Y169748D02*Y167780D01*
G54D34*X231264Y188827D02*Y184103D01*
X233233Y188827D02*Y184103D01*
X235202Y188827D02*Y184103D01*
X237171Y188827D02*Y184103D01*
X239140Y188827D02*Y184103D01*
X241109Y188827D02*Y184103D01*
X243078Y188827D02*Y184103D01*
X245047Y188827D02*Y184103D01*
X247016Y188827D02*Y184103D01*
X248985Y188827D02*Y184103D01*
X250954Y188827D02*Y184103D01*
X252923Y188827D02*Y184103D01*
X254892Y188827D02*Y184103D01*
X256861Y188827D02*Y184103D01*
G54D28*X259311Y173522D02*Y173322D01*
Y177322D02*Y177122D01*
X265900Y177500D02*X266100D01*
X269700D02*X269900D01*
G54D34*X258830Y188827D02*Y184103D01*
X260799Y188827D02*Y184103D01*
X262768Y188827D02*Y184103D01*
X264737Y188827D02*Y184103D01*
G54D28*X277600Y177700D02*X277800D01*
G54D34*X266706Y188827D02*Y184103D01*
X268675Y188827D02*Y184103D01*
X270644Y188827D02*Y184103D01*
X272613Y188827D02*Y184103D01*
X274582Y188827D02*Y184103D01*
X276551Y188827D02*Y184103D01*
X278520Y188827D02*Y184103D01*
G54D28*X281400Y177700D02*X281600D01*
G54D32*X290941Y176392D02*Y175408D01*
G54D28*X271974Y173900D02*X272174D01*
X275774D02*X275974D01*
X299600Y181100D02*X299800D01*
X295800D02*X296000D01*
G54D32*X296059Y176392D02*Y175408D01*
G54D28*X299174Y191974D02*Y191774D01*
Y188174D02*Y187974D01*
G54D34*X280489Y188827D02*Y184103D01*
X282458Y188827D02*Y184103D01*
G54D45*X325700Y217600D02*Y210400D01*
X330700Y217600D02*Y210400D01*
X335700Y217600D02*Y210400D01*
X340700Y217600D02*Y210400D01*
Y237000D02*Y229800D01*
X335700Y237000D02*Y229800D01*
X330700Y237000D02*Y229800D01*
X325700Y237000D02*Y229800D01*
G54D28*X306200Y231126D02*X306400D01*
X302400D02*X302600D01*
X300674Y237500D02*X300874D01*
Y242300D02*X301074D01*
X297074D02*X297274D01*
X308174Y234900D02*X308374D01*
X304374D02*X304574D01*
X311226Y241000D02*X311426D01*
X307426D02*X307626D01*
X337700Y187800D02*X337900D01*
X333900D02*X334100D01*
X391000Y173000D02*X391200D01*
X394800D02*X395000D01*
G54D34*X287173Y193543D02*X291897D01*
X287173Y195512D02*X291897D01*
X287173Y197481D02*X291897D01*
X287173Y199450D02*X291897D01*
X287173Y201419D02*X291897D01*
X287173Y203388D02*X291897D01*
X287173Y205357D02*X291897D01*
X287173Y207326D02*X291897D01*
X287173Y209295D02*X291897D01*
X287173Y211264D02*X291897D01*
X287173Y213233D02*X291897D01*
X287173Y215202D02*X291897D01*
X287173Y217171D02*X291897D01*
X287173Y219140D02*X291897D01*
X287173Y221109D02*X291897D01*
X287173Y223078D02*X291897D01*
X287173Y225047D02*X291897D01*
X287173Y227016D02*X291897D01*
X287173Y228985D02*X291897D01*
X287173Y230954D02*X291897D01*
X287173Y232923D02*X291897D01*
X287173Y234892D02*X291897D01*
X287173Y236861D02*X291897D01*
X287173Y238830D02*X291897D01*
X287173Y240799D02*X291897D01*
X287173Y242768D02*X291897D01*
X287173Y244737D02*X291897D01*
X287173Y246706D02*X291897D01*
X287173Y248675D02*X291897D01*
X284916Y310605D02*Y308833D01*
X286885Y310605D02*Y308833D01*
X288854Y310605D02*Y308833D01*
X290823Y310605D02*Y308833D01*
X292792Y310605D02*Y308833D01*
X294463Y312278D02*X296235D01*
X294463Y314247D02*X296235D01*
X294463Y316216D02*X296235D01*
G54D37*X302400Y311500D03*
G54D34*X294463Y318185D02*X296235D01*
X294463Y320154D02*X296235D01*
X294463Y322123D02*X296235D01*
G54D38*X293093Y345300D02*X296635D01*
G54D34*X287173Y250644D02*X291897D01*
X287173Y252613D02*X291897D01*
X287173Y254582D02*X291897D01*
X287173Y256551D02*X291897D01*
X287173Y258520D02*X291897D01*
X287173Y260489D02*X291897D01*
X287173Y262458D02*X291897D01*
X282457Y271898D02*Y267174D01*
X280488Y271898D02*Y267174D01*
X278519Y271898D02*Y267174D01*
X276550Y271898D02*Y267174D01*
X274581Y271898D02*Y267174D01*
X272612Y271898D02*Y267174D01*
X270643Y271898D02*Y267174D01*
X268674Y271898D02*Y267174D01*
X266705Y271898D02*Y267174D01*
X264736Y271898D02*Y267174D01*
X262767Y271898D02*Y267174D01*
X260798Y271898D02*Y267174D01*
X258829Y271898D02*Y267174D01*
X256860Y271898D02*Y267174D01*
X254891Y271898D02*Y267174D01*
X252922Y271898D02*Y267174D01*
X250953Y271898D02*Y267174D01*
X248984Y271898D02*Y267174D01*
X247015Y271898D02*Y267174D01*
G54D28*X1900Y132000D02*X18000D01*
G54D46*X7000Y115250D02*X13000D01*
G54D28*X1900Y69000D02*X18000D01*
G54D46*X7000Y52250D02*X13000D01*
X7000Y85750D02*X13000D01*
X7000Y148750D02*X13000D01*
X7000Y178250D02*X13000D01*
G54D30*X10000Y25000D03*
G54D28*X28200Y69000D02*X28400D01*
X32000D02*X32200D01*
X46000Y185000D02*X46200D01*
G54D32*X31508Y179941D02*X32492D01*
X31508Y185059D02*X32492D01*
G54D28*X33200Y132000D02*X33400D01*
X37000D02*X37200D01*
X47400Y128126D02*Y127926D01*
Y131926D02*Y131726D01*
X59900Y131900D02*Y131700D01*
X31000Y194900D02*X31200D01*
X34800D02*X35000D01*
X42000D02*X42200D01*
X45800D02*X46000D01*
X38500Y191100D02*Y190900D01*
Y194900D02*Y194700D01*
X56100Y189100D02*X56300D01*
G54D35*X49504Y162500D02*X67496D01*
G54D28*X49800Y185000D02*X50000D01*
G54D47*X51800Y200100D02*X53700D01*
X51800Y197500D02*X53700D01*
X51800Y194900D02*X53700D01*
X59300D02*X61200D01*
X59300Y197500D02*X61200D01*
X59300Y200100D02*X61200D01*
G54D28*X59900Y189100D02*X60100D01*
X72400Y196600D02*X72600D01*
X70200Y179900D02*Y179700D01*
Y183700D02*Y183500D01*
X74400Y179900D02*Y179700D01*
Y183700D02*Y183500D01*
X76200Y196600D02*X76400D01*
X79900Y195300D02*X80100D01*
X83700D02*X83900D01*
X84400Y180300D02*Y180100D01*
Y184100D02*Y183900D01*
X80700Y186600D02*Y186400D01*
Y190400D02*Y190200D01*
X59900Y128100D02*Y127900D01*
X77000Y78174D02*Y77974D01*
X77100Y90800D02*Y90600D01*
Y94600D02*Y94400D01*
X59200Y76600D02*X59400D01*
X63000D02*X63200D01*
X51600Y131900D02*X51800D01*
X55400D02*X55600D01*
X44426Y69000D02*X44626D01*
X48226D02*X48426D01*
X52600Y65226D02*Y65026D01*
Y69026D02*Y68826D01*
X40300Y65200D02*Y65000D01*
Y69000D02*Y68800D01*
G54D31*X102157Y50993D02*Y50207D01*
X109243Y50993D02*Y50207D01*
G54D28*X128500Y45900D02*Y45700D01*
Y49700D02*Y49500D01*
X132900Y45800D02*Y45600D01*
Y49600D02*Y49400D01*
X155600Y46500D02*Y46300D01*
Y50300D02*Y50100D01*
X168200Y57000D02*Y56800D01*
Y60800D02*Y60600D01*
X117600Y100300D02*X117800D01*
X121400D02*X121600D01*
X132000Y107574D02*Y107374D01*
Y111374D02*Y111174D01*
X124800Y111674D02*Y111474D01*
Y115474D02*Y115274D01*
X109374Y125300D02*X109574D01*
X105400D02*Y125100D01*
X113174Y125300D02*X113374D01*
X109500Y129000D02*X109700D01*
X113300D02*X113500D01*
X105400Y129100D02*Y128900D01*
X109500Y136400D02*X109700D01*
X113300D02*X113500D01*
X109500Y140200D02*X109700D01*
X113300D02*X113500D01*
X105700Y136500D02*Y136300D01*
Y140300D02*Y140100D01*
G54D36*X129131Y131015D02*X131295D01*
X129131Y129046D02*X131295D01*
X129131Y127077D02*X131295D01*
X129131Y125108D02*X131295D01*
X129131Y123139D02*X131295D01*
X129131Y121170D02*X130895D01*
X132671Y119395D02*Y117631D01*
G54D28*X102100Y167400D02*Y167200D01*
Y171200D02*Y171000D01*
X94600Y173400D02*X94800D01*
X98400D02*X98600D01*
X99200Y177200D02*X99400D01*
X95400D02*X95600D01*
X90700Y171000D02*Y170800D01*
Y174800D02*Y174600D01*
X108600Y171500D02*X108800D01*
X112400D02*X112600D01*
X88000Y180300D02*X88200D01*
X131900Y156800D02*Y156600D01*
Y153000D02*Y152800D01*
X125100Y153674D02*Y153474D01*
Y149874D02*Y149674D01*
G54D36*X129131Y142829D02*X130895D01*
G54D28*X121000Y143600D02*X121200D01*
X124800D02*X125000D01*
X118400Y132900D02*X118600D01*
X122200D02*X122400D01*
X119900Y121800D02*X120100D01*
X123700D02*X123900D01*
G54D36*X129131Y140860D02*X131295D01*
X129131Y138891D02*X131295D01*
X129131Y136922D02*X131295D01*
X129131Y134953D02*X131295D01*
X129131Y132984D02*X131295D01*
G54D28*X167874Y121600D02*X168074D01*
X168100Y142500D02*X168300D01*
X164300D02*X164500D01*
X164074Y121600D02*X164274D01*
G54D36*X156105Y121171D02*X157869D01*
X155705Y123140D02*X157869D01*
X155705Y125109D02*X157869D01*
X155705Y127078D02*X157869D01*
X155705Y129047D02*X157869D01*
X155705Y131016D02*X157869D01*
X134640Y119795D02*Y117631D01*
X136609Y119795D02*Y117631D01*
X138578Y119795D02*Y117631D01*
X140547Y119795D02*Y117631D01*
X142516Y119795D02*Y117631D01*
X144485Y119795D02*Y117631D01*
X146454Y119795D02*Y117631D01*
X148423Y119795D02*Y117631D01*
X150392Y119795D02*Y117631D01*
X152361Y119795D02*Y117631D01*
X154330Y119395D02*Y117631D01*
X155705Y132985D02*X157869D01*
X155705Y134954D02*X157869D01*
X155705Y136923D02*X157869D01*
X155705Y138892D02*X157869D01*
X155705Y140861D02*X157869D01*
G54D28*X157000Y105100D02*Y104900D01*
Y101300D02*Y101100D01*
G54D36*X156105Y142830D02*X157869D01*
X154329Y146369D02*Y144605D01*
X152360Y146369D02*Y144205D01*
X150391Y146369D02*Y144205D01*
X148422Y146369D02*Y144205D01*
X146453Y146369D02*Y144205D01*
X144484Y146369D02*Y144205D01*
X142515Y146369D02*Y144205D01*
X140546Y146369D02*Y144205D01*
X138577Y146369D02*Y144205D01*
X136608Y146369D02*Y144205D01*
X134639Y146369D02*Y144205D01*
X132670Y146369D02*Y144605D01*
G54D11*G36*
X133470Y142030D02*Y121970D01*
X153530D01*
Y142030D01*
X133470D01*
G37*
G36*
X135500Y140000D02*Y135400D01*
X140100D01*
Y140000D01*
X135500D01*
G37*
G36*
Y134300D02*Y129700D01*
X140100D01*
Y134300D01*
X135500D01*
G37*
G36*
X141200D02*Y129700D01*
X145800D01*
Y134300D01*
X141200D01*
G37*
G36*
Y140000D02*Y135400D01*
X145800D01*
Y140000D01*
X141200D01*
G37*
G36*
X146900D02*Y135400D01*
X151500D01*
Y140000D01*
X146900D01*
G37*
G36*
Y134300D02*Y129700D01*
X151500D01*
Y134300D01*
X146900D01*
G37*
G36*
X135500Y128600D02*Y124000D01*
X140100D01*
Y128600D01*
X135500D01*
G37*
G36*
X141200D02*Y124000D01*
X145800D01*
Y128600D01*
X141200D01*
G37*
G36*
X146900D02*Y124000D01*
X151500D01*
Y128600D01*
X146900D01*
G37*
G54D28*X241674Y126300D02*X241874D01*
X245474D02*X245674D01*
X241674Y130200D02*X241874D01*
X245474D02*X245674D01*
G54D34*X155229Y93512D02*Y92134D01*
X153260Y93512D02*Y92134D01*
X151291Y93512D02*Y92134D01*
X149322Y93512D02*Y92134D01*
G54D28*X151300Y113300D02*X151500D01*
X155100D02*X155300D01*
X150500Y109300D02*X150700D01*
X146700D02*X146900D01*
X176000Y99600D02*X176200D01*
X179800D02*X180000D01*
X173000Y93300D02*X173200D01*
X169200D02*X169400D01*
G54D32*X73241Y132492D02*Y131508D01*
X78359Y132492D02*Y131508D01*
G54D28*X68100Y128200D02*Y128000D01*
Y132000D02*Y131800D01*
X83400Y128200D02*Y128000D01*
Y132000D02*Y131800D01*
G54D34*X147353Y93512D02*Y92134D01*
X145384Y93512D02*Y92134D01*
X143415Y93512D02*Y92134D01*
X141446Y93512D02*Y92134D01*
X139477Y93512D02*Y92134D01*
X137508Y93512D02*Y92134D01*
G54D37*X129100Y99900D03*
X125100Y101400D03*
G54D34*X135539Y93512D02*Y92134D01*
X133570Y93512D02*Y92134D01*
X131601Y93512D02*Y92134D01*
X129632Y93512D02*Y92134D01*
G54D32*X95759Y94392D02*Y93408D01*
X90641Y94392D02*Y93408D01*
G54D28*X101100Y93800D02*Y93600D01*
X86100Y94100D02*Y93900D01*
G54D34*X263871Y108297D02*Y106919D01*
X265840Y108297D02*Y106919D01*
X267809Y108297D02*Y106919D01*
X269778Y108297D02*Y106919D01*
X271747Y108297D02*Y106919D01*
X273716Y108297D02*Y106919D01*
G54D11*G36*
X264858Y130442D02*Y110758D01*
X284542D01*
Y130442D01*
X264858D01*
G37*
G36*
X266950Y128350D02*Y121850D01*
X273450D01*
Y128350D01*
X266950D01*
G37*
G36*
Y119350D02*Y112850D01*
X273450D01*
Y119350D01*
X266950D01*
G37*
G36*
X275950Y128350D02*Y121850D01*
X282450D01*
Y128350D01*
X275950D01*
G37*
G36*
Y119350D02*Y112850D01*
X282450D01*
Y119350D01*
X275950D01*
G37*
G54D34*X275685Y108297D02*Y106919D01*
G54D37*X272000Y180600D03*
X268700D03*
X260800Y180700D03*
G54D34*X277654Y108297D02*Y106919D01*
X279623Y108297D02*Y106919D01*
G54D37*X278800Y100200D03*
G54D34*X281592Y108297D02*Y106919D01*
X283561Y108297D02*Y106919D01*
X285530Y108297D02*Y106919D01*
G54D28*X59200Y92100D02*X59400D01*
X63000D02*X63200D01*
G54D32*X62608Y81741D02*X63592D01*
X62608Y86859D02*X63592D01*
G54D28*X76900Y61026D02*Y60826D01*
Y64826D02*Y64626D01*
G54D32*X95859Y81892D02*Y80908D01*
G54D28*X101226Y77474D02*Y77274D01*
Y81274D02*Y81074D01*
G54D32*X90741Y81892D02*Y80908D01*
G54D28*X86126Y78174D02*Y77974D01*
Y81974D02*Y81774D01*
G54D32*X95859Y64992D02*Y64008D01*
G54D28*X101400Y61200D02*Y61000D01*
Y65000D02*Y64800D01*
G54D32*X90741Y64992D02*Y64008D01*
G54D28*X85900Y61000D02*Y60800D01*
Y64800D02*Y64600D01*
X101100Y90000D02*Y89800D01*
X86100Y90300D02*Y90100D01*
G54D34*X126388Y70577D02*X127766D01*
X126388Y68608D02*X127766D01*
X126388Y66639D02*X127766D01*
X126388Y64670D02*X127766D01*
G54D37*X118700Y89700D03*
X117600Y85900D03*
G54D34*X126388Y62701D02*X127766D01*
G54D37*X121100Y62200D03*
G54D34*X126388Y60732D02*X127766D01*
G54D37*X122400Y59200D03*
G54D34*X129633Y58866D02*Y57488D01*
X131602Y58866D02*Y57488D01*
X133571Y58866D02*Y57488D01*
X135540Y58866D02*Y57488D01*
X137509Y58866D02*Y57488D01*
X139478Y58866D02*Y57488D01*
X141447Y58866D02*Y57488D01*
G54D11*G36*
X133600Y70700D02*Y64700D01*
X139600D01*
Y70700D01*
X133600D01*
G37*
G54D34*X126388Y90267D02*X127766D01*
X126388Y88298D02*X127766D01*
X126388Y86329D02*X127766D01*
X126388Y84360D02*X127766D01*
X126388Y82391D02*X127766D01*
X126388Y80422D02*X127766D01*
X126388Y78453D02*X127766D01*
X126388Y76484D02*X127766D01*
X126388Y74515D02*X127766D01*
X126388Y72546D02*X127766D01*
G54D37*X123200Y54300D03*
X136200Y49300D03*
X139900Y46200D03*
X143400Y49000D03*
X143600Y44800D03*
G54D34*X143416Y58866D02*Y57488D01*
X145385Y58866D02*Y57488D01*
G54D11*G36*
X130227Y89673D02*Y61327D01*
X158573D01*
Y89673D01*
X130227D01*
G37*
G36*
X133600Y86300D02*Y80300D01*
X139600D01*
Y86300D01*
X133600D01*
G37*
G36*
X141400D02*Y80300D01*
X147400D01*
Y86300D01*
X141400D01*
G37*
G36*
X133600Y78500D02*Y72500D01*
X139600D01*
Y78500D01*
X133600D01*
G37*
G36*
X141400D02*Y72500D01*
X147400D01*
Y78500D01*
X141400D01*
G37*
G36*
Y70700D02*Y64700D01*
X147400D01*
Y70700D01*
X141400D01*
G37*
G54D34*X161034Y68609D02*X162412D01*
X161034Y70578D02*X162412D01*
X161034Y72547D02*X162412D01*
X161034Y74516D02*X162412D01*
X161034Y76485D02*X162412D01*
X161034Y78454D02*X162412D01*
X161034Y80423D02*X162412D01*
G54D37*X171800Y72800D03*
G54D28*X171148Y68400D02*X171348D01*
G54D37*X171800Y75800D03*
G54D28*X146700Y46026D02*Y45826D01*
Y49826D02*Y49626D01*
G54D34*X147354Y58866D02*Y57488D01*
X161034Y60733D02*X162412D01*
X161034Y62702D02*X162412D01*
X161034Y64671D02*X162412D01*
X161034Y66640D02*X162412D01*
X149323Y58866D02*Y57488D01*
X151292Y58866D02*Y57488D01*
G54D11*G36*
X149200Y70700D02*Y64700D01*
X155200D01*
Y70700D01*
X149200D01*
G37*
G54D34*X153261Y58866D02*Y57488D01*
X155230Y58866D02*Y57488D01*
X157199Y58866D02*Y57488D01*
X159168Y58866D02*Y57488D01*
G54D37*X159800Y51800D03*
X163600Y52000D03*
G54D34*X161034Y82392D02*X162412D01*
X161034Y84361D02*X162412D01*
X161034Y86330D02*X162412D01*
X161034Y88299D02*X162412D01*
X161034Y90268D02*X162412D01*
X159167Y93512D02*Y92134D01*
X157198Y93512D02*Y92134D01*
G54D11*G36*
X149200Y86300D02*Y80300D01*
X155200D01*
Y86300D01*
X149200D01*
G37*
G36*
Y78500D02*Y72500D01*
X155200D01*
Y78500D01*
X149200D01*
G37*
G54D32*X187159Y52592D02*Y51608D01*
X182041Y52592D02*Y51608D01*
G54D28*X187000Y59800D02*X187200D01*
X183200D02*X183400D01*
X184500Y64500D02*X184700D01*
X180700D02*X180900D01*
X176700Y64400D02*X176900D01*
X172900D02*X173100D01*
X174948Y68400D02*X175148D01*
X182574Y72074D02*Y71874D01*
Y68274D02*Y68074D01*
G54D36*X129131Y186139D02*X131295D01*
X129131Y184170D02*X130895D01*
G54D37*X111400Y185100D03*
G54D35*X94004Y162500D02*X111996D01*
G54D36*X129131Y190077D02*X131295D01*
X129131Y188108D02*X131295D01*
X132671Y182395D02*Y180631D01*
X134640Y182795D02*Y180631D01*
X136609Y182795D02*Y180631D01*
X155705Y199923D02*X157869D01*
X155705Y201892D02*X157869D01*
X155705Y203861D02*X157869D01*
X156105Y205830D02*X157869D01*
X154329Y209369D02*Y207605D01*
X152360Y209369D02*Y207205D01*
X150391Y209369D02*Y207205D01*
X148422Y209369D02*Y207205D01*
X146453Y209369D02*Y207205D01*
X144484Y209369D02*Y207205D01*
X138578Y182795D02*Y180631D01*
X140547Y182795D02*Y180631D01*
X142516Y182795D02*Y180631D01*
X144485Y182795D02*Y180631D01*
X146454Y182795D02*Y180631D01*
X148423Y182795D02*Y180631D01*
X150392Y182795D02*Y180631D01*
X152361Y182795D02*Y180631D01*
X154330Y182395D02*Y180631D01*
G54D11*G36*
X133470Y205030D02*Y184970D01*
X153530D01*
Y205030D01*
X133470D01*
G37*
G36*
X135500Y203000D02*Y198400D01*
X140100D01*
Y203000D01*
X135500D01*
G37*
G36*
Y197300D02*Y192700D01*
X140100D01*
Y197300D01*
X135500D01*
G37*
G36*
X141200D02*Y192700D01*
X145800D01*
Y197300D01*
X141200D01*
G37*
G36*
Y203000D02*Y198400D01*
X145800D01*
Y203000D01*
X141200D01*
G37*
G36*
X146900D02*Y198400D01*
X151500D01*
Y203000D01*
X146900D01*
G37*
G36*
Y197300D02*Y192700D01*
X151500D01*
Y197300D01*
X146900D01*
G37*
G36*
X135500Y191600D02*Y187000D01*
X140100D01*
Y191600D01*
X135500D01*
G37*
G36*
X141200D02*Y187000D01*
X145800D01*
Y191600D01*
X141200D01*
G37*
G36*
X146900D02*Y187000D01*
X151500D01*
Y191600D01*
X146900D01*
G37*
G54D36*X142515Y209369D02*Y207205D01*
X140546Y209369D02*Y207205D01*
X138577Y209369D02*Y207205D01*
X136608Y209369D02*Y207205D01*
X134639Y209369D02*Y207205D01*
X132670Y209369D02*Y207605D01*
G54D28*X102300Y210300D02*X102500D01*
X106100D02*X106300D01*
X109600Y213700D02*X109800D01*
X113400D02*X113600D01*
X80600Y200400D02*Y200200D01*
Y204200D02*Y204000D01*
X84500Y212800D02*Y212600D01*
Y209000D02*Y208800D01*
G54D37*X164800Y101200D03*
X161000D03*
G54D28*X174300Y83026D02*Y82826D01*
G54D32*X178708Y85059D02*X179692D01*
X178708Y79941D02*X179692D01*
G54D28*X179200Y92874D02*Y92674D01*
Y89074D02*Y88874D01*
X174300Y79226D02*Y79026D01*
X119800Y50500D02*Y50300D01*
Y54300D02*Y54100D01*
X116900Y64700D02*X117100D01*
X113100D02*X113300D01*
X116900Y81000D02*X117100D01*
X113100D02*X113300D01*
X109300D02*X109500D01*
X105500D02*X105700D01*
X118300Y77000D02*Y76800D01*
Y73200D02*Y73000D01*
X109352Y64700D02*X109552D01*
X105552D02*X105752D01*
X116900Y93800D02*X117100D01*
X113100D02*X113300D01*
X109400D02*X109600D01*
X105600D02*X105800D01*
X77000Y81974D02*Y81774D01*
G54D36*X129131Y205829D02*X130895D01*
X129131Y203860D02*X131295D01*
X129131Y201891D02*X131295D01*
X129131Y199922D02*X131295D01*
X129131Y197953D02*X131295D01*
X129131Y195984D02*X131295D01*
X129131Y194015D02*X131295D01*
X129131Y192046D02*X131295D01*
X156105Y184171D02*X157869D01*
X155705Y186140D02*X157869D01*
X155705Y188109D02*X157869D01*
X155705Y190078D02*X157869D01*
X155705Y192047D02*X157869D01*
X155705Y194016D02*X157869D01*
X155705Y195985D02*X157869D01*
X155705Y197954D02*X157869D01*
X156105Y247171D02*X157869D01*
X155705Y249140D02*X157869D01*
X155705Y251109D02*X157869D01*
X155705Y253078D02*X157869D01*
X155705Y255047D02*X157869D01*
X155705Y257016D02*X157869D01*
X155705Y258985D02*X157869D01*
X155705Y260954D02*X157869D01*
X129131Y268829D02*X130895D01*
X129131Y266860D02*X131295D01*
X129131Y264891D02*X131295D01*
X129131Y262922D02*X131295D01*
X129131Y260953D02*X131295D01*
X129131Y258984D02*X131295D01*
X129131Y257015D02*X131295D01*
X129131Y255046D02*X131295D01*
G54D28*X131800Y233300D02*Y233100D01*
Y237100D02*Y236900D01*
G54D36*X132671Y245395D02*Y243631D01*
X134640Y245795D02*Y243631D01*
X136609Y245795D02*Y243631D01*
X138578Y245795D02*Y243631D01*
X140547Y245795D02*Y243631D01*
X142516Y245795D02*Y243631D01*
X144485Y245795D02*Y243631D01*
X146454Y245795D02*Y243631D01*
X148423Y245795D02*Y243631D01*
X150392Y245795D02*Y243631D01*
X152361Y245795D02*Y243631D01*
X154330Y245395D02*Y243631D01*
X155705Y262923D02*X157869D01*
X155705Y264892D02*X157869D01*
X155705Y266861D02*X157869D01*
X156105Y268830D02*X157869D01*
X154329Y272369D02*Y270605D01*
X152360Y272369D02*Y270205D01*
X150391Y272369D02*Y270205D01*
X148422Y272369D02*Y270205D01*
X146453Y272369D02*Y270205D01*
G54D37*X111600Y247900D03*
G54D35*X94004Y225500D02*X111996D01*
G54D28*X102300Y230600D02*Y230400D01*
X115400Y244700D02*Y244500D01*
Y248500D02*Y248300D01*
X102300Y234400D02*Y234200D01*
X94800Y236700D02*X95000D01*
X98600D02*X98800D01*
Y240400D02*X99000D01*
X95000D02*X95200D01*
X104300Y238100D02*Y237900D01*
Y241900D02*Y241700D01*
G54D36*X129131Y253077D02*X131295D01*
X129131Y251108D02*X131295D01*
X129131Y249139D02*X131295D01*
X129131Y247170D02*X130895D01*
G54D28*X118500Y259000D02*X118700D01*
X122300D02*X122500D01*
X120226Y247874D02*X120426D01*
X1900Y195000D02*X18000D01*
X25500Y195100D02*Y194900D01*
Y198900D02*Y198700D01*
G54D32*X25508Y203682D02*X26492D01*
G54D46*X7000Y211750D02*X13000D01*
G54D28*X1900Y258000D02*X18000D01*
G54D46*X7000Y241250D02*X13000D01*
G54D48*X33000Y208233D02*Y206894D01*
Y218469D02*Y217131D01*
G54D32*X25508Y208800D02*X26492D01*
G54D48*X36740Y208233D02*Y206894D01*
X40480Y208233D02*Y206894D01*
Y218469D02*Y217131D01*
G54D28*X60900Y204200D02*Y204000D01*
Y208000D02*Y207800D01*
X60800Y211500D02*X61000D01*
X64600D02*X64800D01*
X61000Y215100D02*X61200D01*
X64800D02*X65000D01*
X66000Y200200D02*X66200D01*
X47574Y213800D02*X47774D01*
X51374D02*X51574D01*
G54D35*X49504Y225500D02*X67496D01*
G54D36*X88508Y200907D02*X91066D01*
X88508Y198938D02*X91066D01*
X88508Y196969D02*X91066D01*
X88508Y195000D02*X91066D01*
X88508Y193031D02*X91066D01*
X88508Y191062D02*X91066D01*
X100969Y205492D02*Y202934D01*
X99000Y205492D02*Y202934D01*
X97031Y205492D02*Y202934D01*
X95062Y205492D02*Y202934D01*
X93093Y205492D02*Y202934D01*
G54D11*G36*
X95050Y194450D02*Y191050D01*
X98450D01*
Y194450D01*
X95050D01*
G37*
G54D28*X69800Y200200D02*X70000D01*
X73700Y205300D02*Y205100D01*
Y201500D02*Y201300D01*
G54D36*X106933Y189093D02*X109491D01*
X106933Y191062D02*X109491D01*
X106933Y193031D02*X109491D01*
X88508Y189093D02*X91066D01*
X93093Y187067D02*Y184509D01*
X95062Y187067D02*Y184509D01*
X97031Y187067D02*Y184509D01*
X99000Y187067D02*Y184509D01*
X100969Y187067D02*Y184509D01*
X102938Y187067D02*Y184509D01*
X104907Y187067D02*Y184509D01*
X106933Y195000D02*X109491D01*
X106933Y196969D02*X109491D01*
X106933Y198938D02*X109491D01*
X106933Y200907D02*X109491D01*
X104907Y205492D02*Y202934D01*
X102938Y205492D02*Y202934D01*
G54D11*G36*
X93202Y200798D02*Y189202D01*
X104797D01*
Y200798D01*
X93202D01*
G37*
G36*
X95050Y198950D02*Y195550D01*
X98450D01*
Y198950D01*
X95050D01*
G37*
G36*
X99550D02*Y195550D01*
X102950D01*
Y198950D01*
X99550D01*
G37*
G36*
Y194450D02*Y191050D01*
X102950D01*
Y194450D01*
X99550D01*
G37*
G54D36*X106933Y252093D02*X109491D01*
X106933Y254062D02*X109491D01*
X106933Y256031D02*X109491D01*
X88508Y263907D02*X91066D01*
G54D28*X84500Y276000D02*Y275800D01*
Y272200D02*Y272000D01*
G54D36*X88508Y261938D02*X91066D01*
X88508Y259969D02*X91066D01*
X88508Y258000D02*X91066D01*
G54D28*X76700Y259400D02*X76900D01*
X80000Y263700D02*Y263500D01*
Y267500D02*Y267300D01*
X74000Y267800D02*Y267600D01*
Y264000D02*Y263800D01*
G54D36*X106933Y258000D02*X109491D01*
X106933Y259969D02*X109491D01*
X106933Y261938D02*X109491D01*
X106933Y263907D02*X109491D01*
X104907Y268492D02*Y265934D01*
X102938Y268492D02*Y265934D01*
X100969Y268492D02*Y265934D01*
X99000Y268492D02*Y265934D01*
X97031Y268492D02*Y265934D01*
X95062Y268492D02*Y265934D01*
X93093Y268492D02*Y265934D01*
G54D11*G36*
X93202Y263798D02*Y252202D01*
X104797D01*
Y263798D01*
X93202D01*
G37*
G54D36*X88508Y256031D02*X91066D01*
X88508Y254062D02*X91066D01*
X88508Y252093D02*X91066D01*
X93093Y250067D02*Y247509D01*
X95062Y250067D02*Y247509D01*
X97031Y250067D02*Y247509D01*
X99000Y250067D02*Y247509D01*
X100969Y250067D02*Y247509D01*
X102938Y250067D02*Y247509D01*
X104907Y250067D02*Y247509D01*
G54D11*G36*
X95050Y261950D02*Y258550D01*
X98450D01*
Y261950D01*
X95050D01*
G37*
G36*
Y257450D02*Y254050D01*
X98450D01*
Y257450D01*
X95050D01*
G37*
G36*
X99550Y261950D02*Y258550D01*
X102950D01*
Y261950D01*
X99550D01*
G37*
G36*
Y257450D02*Y254050D01*
X102950D01*
Y257450D01*
X99550D01*
G37*
G54D28*X69900Y262900D02*X70100D01*
Y242800D02*Y242600D01*
Y246600D02*Y246400D01*
X72900Y259400D02*X73100D01*
X80500Y258300D02*X80700D01*
X84300D02*X84500D01*
X80500Y253500D02*Y253300D01*
Y249700D02*Y249500D01*
X84000Y243600D02*Y243400D01*
Y247400D02*Y247200D01*
X87500Y243000D02*X87700D01*
X74600Y242900D02*Y242700D01*
Y246700D02*Y246500D01*
X1900Y321000D02*X18000D01*
G54D46*X7000Y304250D02*X13000D01*
G54D30*X10000Y365000D03*
G54D46*X7000Y337750D02*X13000D01*
G54D28*X25000Y321100D02*Y320900D01*
Y324900D02*Y324700D01*
G54D32*X25508Y329000D02*X26492D01*
X25508Y334118D02*X26492D01*
G54D28*X49400Y312000D02*X49600D01*
X38500Y317400D02*Y317200D01*
Y321200D02*Y321000D01*
X42000D02*X42200D01*
X45800D02*X46000D01*
G54D47*X51800Y320900D02*X53700D01*
X59300D02*X61200D01*
G54D28*X59900Y315100D02*X60100D01*
X56100D02*X56300D01*
X84400Y306500D02*Y306300D01*
X87900Y306400D02*X88100D01*
X70200Y306026D02*Y305826D01*
X74500Y306126D02*Y305926D01*
X84400Y310300D02*Y310100D01*
X70200Y309826D02*Y309626D01*
X74500Y309926D02*Y309726D01*
X80900Y312700D02*Y312500D01*
Y316500D02*Y316300D01*
X80000Y321500D02*X80200D01*
X83800D02*X84000D01*
G54D47*X51800Y326100D02*X53700D01*
X59300D02*X61200D01*
G54D28*X61000Y330000D02*Y329800D01*
G54D47*X51800Y323500D02*X53700D01*
X59300D02*X61200D01*
G54D28*X72400Y322500D02*X72600D01*
X76200D02*X76400D01*
X61100Y337300D02*X61300D01*
X64900D02*X65100D01*
X61000Y341000D02*X61200D01*
X64800D02*X65000D01*
X66000Y326000D02*X66200D01*
X69800D02*X70000D01*
X74000Y330500D02*Y330300D01*
Y326700D02*Y326500D01*
X81500Y325500D02*Y325300D01*
Y329300D02*Y329100D01*
X84400Y338700D02*Y338500D01*
Y334900D02*Y334700D01*
X54900Y340600D02*X55100D01*
X61000Y333800D02*Y333600D01*
G54D48*X32900Y333369D02*Y332031D01*
X36640Y333369D02*Y332031D01*
X40380Y333369D02*Y332031D01*
Y343606D02*Y342267D01*
X32900Y343606D02*Y342267D01*
G54D28*X51100Y340600D02*X51300D01*
G54D35*X49504Y351500D02*X67496D01*
G54D46*X7000Y274750D02*X13000D01*
G54D32*X31008Y306941D02*X31992D01*
X31008Y312059D02*X31992D01*
G54D28*X31000Y321000D02*X31200D01*
X34800D02*X35000D01*
G54D32*X26308Y271259D02*X27292D01*
G54D28*X45600Y312000D02*X45800D01*
X46000Y249000D02*X46200D01*
X49800D02*X50000D01*
X46100Y258000D02*X46300D01*
X46700Y277500D02*X46900D01*
X38800Y258100D02*Y257900D01*
G54D48*X40680Y269833D02*Y268494D01*
Y280069D02*Y278731D01*
G54D47*X51800Y263100D02*X53700D01*
X51800Y260500D02*X53700D01*
X51800Y257900D02*X53700D01*
G54D28*X50500Y277500D02*X50700D01*
X42300Y258000D02*X42500D01*
X38800Y254300D02*Y254100D01*
G54D48*X36940Y269833D02*Y268494D01*
G54D47*X59300Y257900D02*X61200D01*
X59300Y260500D02*X61200D01*
X59300Y263100D02*X61200D01*
G54D28*X66100Y262900D02*X66300D01*
X59900Y252000D02*X60100D01*
X56100D02*X56300D01*
X26000Y258100D02*Y257900D01*
X35100Y258000D02*X35300D01*
X26000Y261900D02*Y261700D01*
G54D32*X31508Y243941D02*X32492D01*
X31508Y249059D02*X32492D01*
G54D28*X31300Y258000D02*X31500D01*
G54D48*X33200Y269833D02*Y268494D01*
Y280069D02*Y278731D01*
G54D32*X26308Y266141D02*X27292D01*
G54D28*X61200Y267000D02*Y266800D01*
Y270800D02*Y270600D01*
X60900Y278100D02*X61100D01*
X64700D02*X64900D01*
X61000Y274300D02*X61200D01*
X64800D02*X65000D01*
G54D35*X49504Y288500D02*X67496D01*
G54D49*X307800Y283100D03*
X296900Y283200D03*
X307600Y287500D03*
X296900D03*
X310300Y294000D03*
X318700Y295500D03*
X318600Y290500D03*
X320600Y293000D03*
Y288200D03*
X381500Y297839D03*
X375500Y297339D03*
X378500Y294339D03*
X325900Y337800D03*
X335700Y342700D03*
X329000Y343100D03*
X325800Y347000D03*
X333100Y346900D03*
X339400Y346700D03*
X382000Y330339D03*
X378500Y333339D03*
X375000Y330339D03*
X348800Y323000D03*
X362600Y327800D03*
X294200Y353300D03*
X290400D03*
X286700D03*
X283100Y353400D03*
X279500D03*
X291300Y356800D03*
X287600Y357100D03*
X284100Y357200D03*
X280600Y356900D03*
X267500Y314300D03*
X264400Y333200D03*
X271500Y325000D03*
X302400Y314600D03*
X286000Y314300D03*
X281200D03*
X290600D03*
X302000Y333600D03*
X288100Y330800D03*
X283700D03*
X285900Y327900D03*
X286000Y320300D03*
X290600D03*
X281300D03*
X289100Y305300D03*
X290200Y296900D03*
X292300Y305600D03*
X282700Y305500D03*
X276600Y295200D03*
X279500Y305800D03*
X253300Y297800D03*
X261200Y285300D03*
X263800Y282600D03*
X263100Y278000D03*
X263000Y274600D03*
X275000Y287900D03*
X153700Y293100D03*
X145000Y284000D03*
X146000Y287500D03*
X146700Y295700D03*
X125000Y272900D03*
X132000Y275100D03*
X134300Y278500D03*
X137800Y279000D03*
X140600Y276700D03*
X135500Y296700D03*
X152000Y266500D03*
X140500D03*
X146500D03*
X140500Y261000D03*
X146500D03*
X152000D03*
X135000D03*
X125500Y260500D03*
X135000Y255000D03*
X140500D03*
X146500D03*
X152000D03*
X125500Y255900D03*
X112000Y280700D03*
X132200Y281000D03*
X113000Y267500D03*
X122100Y278500D03*
X116100Y288500D03*
X120800Y272700D03*
X135000Y266500D03*
X134800Y239800D03*
X134474Y233574D03*
X135200Y219500D03*
X136500Y237000D03*
X132000Y213200D03*
X113100Y251600D03*
X115600Y258900D03*
X111600Y231300D03*
X115500Y241800D03*
X116174Y195900D03*
X116100Y225500D03*
X120300Y244800D03*
X124900Y234600D03*
X120900Y209700D03*
X125100Y219500D03*
X125600Y197500D03*
Y192900D03*
X177200Y236400D03*
X168600Y240900D03*
X183800Y237100D03*
X163500Y234000D03*
X159400Y235400D03*
X155300Y235300D03*
X152000Y249500D03*
X146500D03*
X140200Y236700D03*
X161900Y205700D03*
X161700Y268700D03*
Y247400D03*
X161100Y331700D03*
X161300Y310500D03*
X161900Y243300D03*
X180300Y306000D03*
X180000Y298900D03*
X184000Y302100D03*
X183300Y309900D03*
X184100Y198500D03*
Y240300D03*
X167600Y313700D03*
X167500Y250600D03*
X167300Y265600D03*
X167600Y187600D03*
X167400Y202600D03*
Y328700D03*
X134900Y302900D03*
X140800Y303000D03*
X143900Y302900D03*
X124900Y297900D03*
X125600Y323600D03*
Y319000D03*
X115800Y322000D03*
X136500Y300000D03*
X140200Y299700D03*
X245000Y345800D03*
X248900Y337000D03*
X243900Y336800D03*
X241700Y342200D03*
X236300Y343000D03*
X240100Y346800D03*
X232800Y346700D03*
X241700Y250100D03*
X249400Y252900D03*
X245000Y258100D03*
X238600Y250200D03*
X237200Y258900D03*
X239800Y264800D03*
X251300Y212700D03*
X246300D03*
X245000Y205100D03*
X241600D03*
X243300Y197900D03*
X248700Y191700D03*
X237200D03*
X295700Y199700D03*
X331200Y187800D03*
X295700Y190900D03*
X284400Y177700D03*
X278900Y245300D03*
X278600Y237400D03*
X278900Y210200D03*
X284500Y262600D03*
X273900Y248100D03*
X271300Y245300D03*
X268300Y248300D03*
X271300Y251200D03*
X273800Y254100D03*
X268600Y253900D03*
X279000Y256000D03*
X263400Y258900D03*
X267000D03*
Y262100D03*
X273600Y220800D03*
X267100Y216900D03*
X269500Y227600D03*
X273100D03*
X278400Y225000D03*
X272500Y177500D03*
X269000Y191400D03*
X258000Y197200D03*
X255100D03*
X266600Y198200D03*
X274600Y191600D03*
Y264700D03*
X220300Y276500D03*
X217000Y243900D03*
X213800D03*
X217000Y250000D03*
X213800D03*
X222100Y262100D03*
X218700D03*
X211700Y259700D03*
Y256500D03*
X206800Y269100D03*
X208600Y272000D03*
X218700Y258800D03*
X209000Y280100D03*
X222100Y258900D03*
X231500Y264700D03*
X228800Y193600D03*
X228500Y258700D03*
X228800Y197400D03*
X227600Y236200D03*
X226800Y224200D03*
X223500D03*
X217300Y232900D03*
X217600Y227000D03*
X226800Y212000D03*
X223600D03*
X217300Y218400D03*
X228100Y264700D03*
X217600Y209300D03*
X211800Y224700D03*
Y229300D03*
X213700Y232900D03*
X199400Y235900D03*
X196900Y238500D03*
X193900Y199200D03*
X197400Y200700D03*
X200000Y203000D03*
X222100Y203400D03*
X192000Y191600D03*
X211800Y215200D03*
Y238900D03*
X226500Y349400D03*
Y353200D03*
Y357200D03*
X204200Y349500D03*
X200000Y349400D03*
X202000Y353200D03*
X204300Y356900D03*
X200300D03*
X120900Y336400D03*
X131800Y339000D03*
X125200Y336200D03*
X116500Y335000D03*
X111200Y344100D03*
X112500Y330000D03*
X113600Y315000D03*
X116200Y351500D03*
X139600Y347000D03*
X125100Y345500D03*
X135200Y345600D03*
X136700Y339000D03*
X135400Y342300D03*
X131500Y303000D03*
X125100Y307200D03*
X111600Y294600D03*
X115800Y304700D03*
X120400Y307900D03*
X135000Y329500D03*
X140500D03*
Y324000D03*
X135000D03*
X152000Y329500D03*
X146500D03*
Y324000D03*
X152000D03*
Y312500D03*
X146500D03*
Y318000D03*
X152000D03*
X135000Y312500D03*
Y318000D03*
X140500D03*
Y312500D03*
X139100Y213300D03*
X131700Y239900D03*
X124900Y244200D03*
X138900Y233600D03*
X135000Y249500D03*
Y203500D03*
Y186500D03*
Y198000D03*
Y192000D03*
X140500Y249500D03*
Y203500D03*
Y198000D03*
Y192000D03*
Y186500D03*
X140800Y239900D03*
X144000Y239800D03*
X152000Y203500D03*
X146500D03*
Y198000D03*
X152000D03*
Y186500D03*
X146500D03*
Y192000D03*
X152000D03*
X113200Y188600D03*
X116400Y178400D03*
X120400Y181800D03*
X125000Y181000D03*
X227700Y100400D03*
X223900Y94700D03*
X218400Y106400D03*
X221800Y89300D03*
X225200Y88400D03*
X215100Y131500D03*
X218400Y133200D03*
X207800Y130500D03*
X210100Y133100D03*
X218100Y118000D03*
X215500Y126400D03*
X209900Y124300D03*
X213800Y97200D03*
X131900Y177000D03*
X125200Y210200D03*
X120600Y219000D03*
X113000Y204500D03*
X135100Y176800D03*
X140800Y176900D03*
X140400Y173400D03*
X144100Y176800D03*
X124900Y171600D03*
X116100Y162500D03*
X135500Y170600D03*
X136900Y173800D03*
X161400Y121500D03*
X157000Y107700D03*
X167800Y139400D03*
X167500Y124600D03*
X161500Y142500D03*
X140500Y140500D03*
X152000D03*
X135000D03*
Y123500D03*
X124800Y118300D03*
X152000Y123500D03*
X151400Y98600D03*
X151200Y101900D03*
X192000Y187300D03*
Y182100D03*
X223400Y191700D03*
X212000Y198800D03*
X211800Y193600D03*
Y203400D03*
X213600Y218300D03*
X306700Y108700D03*
X312600Y89500D03*
X299500Y107900D03*
X303400Y94700D03*
X295700Y88200D03*
X295800Y115200D03*
X291900Y105900D03*
X378500Y59500D03*
X351500Y50000D03*
X388000Y59500D03*
X443000Y55000D03*
X238300Y126700D03*
X240900Y143200D03*
X238300Y130400D03*
Y122800D03*
Y118700D03*
X238400Y115000D03*
X250800Y122800D03*
Y113700D03*
X257700Y137700D03*
X255300Y132900D03*
X258000Y194000D03*
X255100D03*
X257100Y170700D03*
X255200Y122200D03*
X257300Y124700D03*
X237200Y199800D03*
X235100Y204700D03*
X230300Y200800D03*
Y204500D03*
X245500Y191700D03*
X272500Y83500D03*
X269800Y74100D03*
X265700Y78600D03*
X272700Y87800D03*
X264000Y93300D03*
X269800D03*
X267800Y99600D03*
X252400Y70700D03*
X244400Y85400D03*
X254300Y86900D03*
X235900Y79100D03*
X235800Y84400D03*
X259800Y93600D03*
X250100Y93400D03*
X244700Y98400D03*
X256700Y99500D03*
X231300Y108500D03*
X238400Y111200D03*
X241300Y41200D03*
X236800Y37700D03*
X316900Y144400D03*
X325000Y145700D03*
X312300Y140800D03*
X313100Y131500D03*
X325000Y135300D03*
X379500Y140500D03*
X390000D03*
X427400Y187600D03*
X434600Y164800D03*
X395000Y176000D03*
X391000D03*
X351500Y132500D03*
X354600Y156000D03*
X350500D03*
X300700Y132900D03*
X300400Y143500D03*
X295900Y125800D03*
X292100Y135400D03*
X268600Y151800D03*
X272600Y155800D03*
X266000Y137800D03*
X266700Y128600D03*
X288500Y142900D03*
X285900Y145600D03*
X279000Y142100D03*
X279100Y145300D03*
X285400Y138100D03*
X276200Y140200D03*
X282700Y128700D03*
X274700Y128600D03*
X283500Y196700D03*
X283400Y200700D03*
X279100Y193200D03*
X264800Y191500D03*
X287600Y93800D03*
X275900Y100900D03*
X277300Y93200D03*
X294500Y82800D03*
X279100Y88600D03*
X281100Y94000D03*
X295900Y78800D03*
X278900D03*
X282700Y120600D03*
X266700D03*
Y112600D03*
X282700Y112500D03*
X274700Y112600D03*
Y120600D03*
X299300Y185000D03*
X269300Y173400D03*
X297200Y196000D03*
X335800Y240900D03*
X340400D03*
X349000Y244500D03*
X347300Y248300D03*
X362800Y280900D03*
X357900Y278500D03*
X350700Y160500D03*
X348000Y164600D03*
X345100Y160700D03*
X343200Y181200D03*
X340400Y176900D03*
X328200Y205000D03*
X341800Y202200D03*
X337600Y202300D03*
X340800Y205800D03*
X335500Y205500D03*
X330700Y240900D03*
X325700D03*
X348700Y288200D03*
X346400Y291500D03*
X348500Y295700D03*
X344300Y295600D03*
X344000Y288000D03*
X379400Y168800D03*
X387400Y210900D03*
X376600Y172200D03*
X387000Y218700D03*
X389400Y226800D03*
X382100Y276300D03*
X387000Y269400D03*
X387700Y274100D03*
X403500Y271600D03*
X447500Y237500D03*
X412100Y236000D03*
X453000Y257000D03*
X434300Y265700D03*
X427500Y259400D03*
X453000Y147000D03*
X452500Y179500D03*
Y202500D03*
X282100Y210100D03*
X284600Y227200D03*
X283800Y215000D03*
X284000Y219100D03*
X284600Y230400D03*
Y234500D03*
X284500Y238900D03*
Y252600D03*
X282700Y256000D03*
Y245300D03*
X263400Y262100D03*
X257000Y264900D03*
X251300Y265000D03*
X243000Y264800D03*
X254100Y263200D03*
X237200Y262100D03*
X197800Y34300D03*
X187300Y32400D03*
X193600Y78800D03*
X192100Y85600D03*
X203100Y41300D03*
X203000Y89200D03*
X185000Y78700D03*
X176300Y72400D03*
X178000Y68600D03*
X185500Y71700D03*
X210700Y62100D03*
X215100Y81700D03*
X185000Y85600D03*
X164000Y28100D03*
X182800Y99600D03*
X175800Y93400D03*
X170900Y88100D03*
X170800Y81400D03*
X170600Y84900D03*
X175700Y89200D03*
X166900Y76100D03*
X167600Y80800D03*
X167200Y70100D03*
X168100Y63700D03*
X171100Y58100D03*
X158000Y113300D03*
X169200Y106000D03*
X135400Y107600D03*
X124900Y108800D03*
X156400Y98500D03*
X156000Y87500D03*
Y63500D03*
Y80000D03*
Y71500D03*
X149300Y36800D03*
X153400Y109300D03*
X146726Y52500D03*
X146600Y43200D03*
X152900Y46700D03*
X133200Y37300D03*
X128400Y37600D03*
Y52500D03*
X131900Y52400D03*
X155700Y53000D03*
X136100Y45900D03*
X125300Y46000D03*
X122600Y50800D03*
X132100Y150100D03*
X125200Y146900D03*
X125500Y129900D03*
Y134500D03*
X115700Y132800D03*
X120800Y146700D03*
X120300Y118800D03*
X135100Y156500D03*
X125100Y156300D03*
X135000Y129000D03*
Y135000D03*
X131600Y114000D03*
X144000Y113800D03*
X140800Y113900D03*
X134800Y113800D03*
X140500Y123500D03*
Y129000D03*
Y135000D03*
X152000Y129000D03*
Y135000D03*
X146500D03*
Y129000D03*
Y123500D03*
Y140500D03*
X114400Y100500D03*
X115400Y76500D03*
X115200Y69100D03*
X113900Y50900D03*
X121100Y73400D03*
X121700Y78700D03*
X119800Y68100D03*
Y57000D03*
X86000Y87500D03*
X86200Y96700D03*
X86000Y84600D03*
X86200Y75300D03*
X85800Y67400D03*
Y58200D03*
X101100Y87100D03*
X101200Y74600D03*
X101300Y58400D03*
X97800Y50700D03*
X80100Y90900D03*
Y94200D03*
X80000Y64400D03*
Y78400D03*
Y81600D03*
Y61152D03*
X52700Y62400D03*
X40300D03*
X56400Y76600D03*
X56500Y92100D03*
X3100Y111400D03*
Y55900D03*
Y48400D03*
X3500Y89500D03*
Y82000D03*
X16100Y111400D03*
Y55900D03*
Y48400D03*
X16500Y89500D03*
Y82000D03*
X9600Y111400D03*
Y55900D03*
Y48400D03*
X10000Y89500D03*
Y82000D03*
X178900Y95600D03*
X174300Y85800D03*
X176300Y75800D03*
X121200Y97100D03*
X148500Y63500D03*
X132500D03*
X140500D03*
Y87500D03*
X143200Y52200D03*
X140500Y71500D03*
Y80000D03*
X132500Y71500D03*
Y80000D03*
Y87500D03*
X148500Y71500D03*
Y80000D03*
Y87500D03*
X134100Y98600D03*
X146600Y98400D03*
X141000Y101000D03*
X134000Y101800D03*
X146500D03*
X137400Y104400D03*
X162200Y184100D03*
X28300Y185000D03*
X56400Y186000D03*
X94500Y199500D03*
Y190500D03*
Y195000D03*
X84500Y198800D03*
Y202400D03*
Y205700D03*
X103500Y199500D03*
X99000Y195000D03*
Y199500D03*
X103500Y195000D03*
X99400Y209500D03*
X105700Y213700D03*
X103500Y190500D03*
X99000D03*
X84500Y189900D03*
Y186900D03*
X90900Y209500D03*
X81300Y212600D03*
X37100Y203300D03*
X38400Y188300D03*
X41900Y190900D03*
X34900D03*
X56600Y248900D03*
X52600D03*
X28300Y244100D03*
X28400Y249100D03*
X46000Y252000D03*
X38700Y251300D03*
X70000Y240000D03*
X74300D03*
X84400Y250000D03*
X96400Y243800D03*
X99500D03*
X104100Y244500D03*
X88000Y240300D03*
X84000Y240700D03*
X80500Y246900D03*
X105600Y234900D03*
X87300Y234100D03*
X90600Y230900D03*
X89900Y225500D03*
X107900Y231400D03*
X104900Y230300D03*
X64500Y218400D03*
X60500D03*
X64000Y221400D03*
X71600Y225500D03*
X64000Y229600D03*
X53500Y221400D03*
Y229600D03*
X45400Y225500D03*
X64000Y196900D03*
X70500Y204100D03*
X64500Y207500D03*
X58000Y211400D03*
X48000Y197800D03*
X49000Y200900D03*
X33100Y203300D03*
X51574Y216800D03*
X47574D03*
X118000Y107300D03*
X109800Y133300D03*
X109700Y122100D03*
X105400D03*
X83100Y124900D03*
X158700Y172300D03*
X87400Y171100D03*
X90700Y167900D03*
X89900Y162500D03*
X154500Y174700D03*
X143500Y173700D03*
X161800Y179700D03*
X96500Y180800D03*
X99600D03*
X104200Y181300D03*
X88100Y177300D03*
X84200Y177400D03*
X140900Y150300D03*
X105900Y133600D03*
X107700Y168400D03*
X111700Y168300D03*
X105700Y171900D03*
X104700Y166900D03*
X28400Y180100D03*
X3100Y118900D03*
X16100D03*
X9600D03*
X3500Y152500D03*
X16500D03*
X10000D03*
X3500Y145000D03*
X16500D03*
X10000D03*
X3100Y181900D03*
X16100D03*
X9600D03*
X3100Y174400D03*
X16100D03*
X9600D03*
X59500Y125200D03*
X47600D03*
X46000Y188000D03*
X53500Y158400D03*
Y166600D03*
X45400Y162500D03*
X52700Y185000D03*
X74102Y158908D03*
X70200Y177100D03*
X71600Y162500D03*
X64000Y166600D03*
X80600Y183700D03*
X74400Y177100D03*
X67900Y125200D03*
X64000Y158400D03*
X16500Y271000D03*
X32500Y328700D03*
X36700Y328500D03*
X47900Y260800D03*
X46700Y280500D03*
X50500Y280600D03*
X42200Y253800D03*
X48900Y263900D03*
X33200Y265300D03*
X37400D03*
X35200Y253800D03*
X53500Y284400D03*
Y292600D03*
X45400Y288500D03*
X27500Y307000D03*
Y312500D03*
X3500Y308000D03*
X16500D03*
X10000D03*
X3500Y300500D03*
X16500D03*
X10000D03*
X3100Y244900D03*
X9600D03*
X3100Y237400D03*
X9600D03*
X16100Y244900D03*
Y237400D03*
X16500Y278500D03*
X3500D03*
X10000D03*
X3500Y271000D03*
Y215500D03*
X16500D03*
X10000D03*
X3500Y208000D03*
X16500D03*
X10000D03*
X3900Y341600D03*
X16900D03*
X10400D03*
X3900Y334100D03*
X16900D03*
X10400D03*
X10000Y271000D03*
X61300Y281200D03*
X57800Y270800D03*
X64400Y270500D03*
X63900Y259900D03*
X65000Y334400D03*
X64000Y292600D03*
X70400Y267100D03*
X71100Y330100D03*
X76000Y285500D03*
X64400Y281400D03*
X81200Y275600D03*
X64000Y284400D03*
X71600Y288500D03*
X58200Y337200D03*
X95100Y344400D03*
X99400Y335600D03*
X90900D03*
X92700Y347100D03*
X64700Y343900D03*
X61300D03*
X64000Y347400D03*
X71600Y351500D03*
X89800D03*
X84500Y328500D03*
Y331800D03*
X81500Y337500D03*
X105600Y339800D03*
X55100Y343600D03*
X51100D03*
X53500Y347400D03*
Y355600D03*
X45400Y351500D03*
X64000Y355600D03*
X46500Y315000D03*
X52500Y312000D03*
X64000Y323000D03*
X38500Y314600D03*
X41500Y317500D03*
X56400Y312100D03*
X48500Y323700D03*
X49000Y327000D03*
X70200Y302900D03*
X84500Y316000D03*
Y313200D03*
X84000Y303400D03*
X80800Y309900D03*
X74400Y303300D03*
X35500Y317500D03*
X94500Y325500D03*
Y316500D03*
Y321000D03*
Y262500D03*
Y253500D03*
Y258000D03*
X103500Y325500D03*
Y316500D03*
X99000Y321000D03*
Y325500D03*
X103500Y321000D03*
X99000Y316500D03*
X84500Y324900D03*
X84400Y252900D03*
Y261800D03*
Y265400D03*
Y268700D03*
X107400Y294800D03*
X105500Y297900D03*
X104700Y293700D03*
X96500Y306900D03*
X88100Y303400D03*
X87400Y297200D03*
X91200Y293600D03*
X90800Y272500D03*
X89900Y288500D03*
X105000Y307400D03*
X99600Y306900D03*
X99000Y258000D03*
Y262500D03*
Y253500D03*
X99300Y272500D03*
X103500Y262500D03*
Y253500D03*
Y258000D03*
X105900Y276900D03*
G54D14*G54D50*G54D51*G54D52*G54D53*G54D54*G54D21*G54D55*G54D51*G54D50*G54D55*G54D16*G54D17*G54D56*G54D57*G54D56*G54D57*G54D16*G54D17*G54D55*M02*
