G04 start of page 12 for group -4015 idx -4015 *
G04 Title: GNSS Firehose, toppaste *
G04 Creator: pcb 20140316 *
G04 CreationDate: Sat 04 Apr 2015 01:48:27 AM GMT UTC *
G04 For: pmonta *
G04 Format: Gerber/RS-274X *
G04 PCB-Dimensions (mil): 4640.00 3900.00 *
G04 PCB-Coordinate-Origin: lower left *
%MOIN*%
%FSLAX25Y25*%
%LNTOPPASTE*%
%ADD230R,0.0370X0.0370*%
%ADD229R,0.0300X0.0300*%
%ADD228R,0.0260X0.0260*%
%ADD227R,0.0130X0.0130*%
%ADD226R,0.0827X0.0827*%
%ADD225R,0.0340X0.0340*%
%ADD224R,0.0394X0.0394*%
%ADD223R,0.0280X0.0280*%
%ADD222R,0.0160X0.0160*%
%ADD221R,0.0402X0.0402*%
%ADD220R,0.0118X0.0118*%
%ADD219R,0.0965X0.0965*%
%ADD218R,0.0295X0.0295*%
%ADD217R,0.0591X0.0591*%
%ADD216C,0.0200*%
%ADD215R,0.0512X0.0512*%
%ADD214C,0.0001*%
%ADD213R,0.0098X0.0098*%
%ADD212R,0.0197X0.0197*%
G54D212*X241600Y111893D02*Y111107D01*
X244748Y111893D02*Y111107D01*
X241600Y119193D02*Y118407D01*
X244748Y119193D02*Y118407D01*
X241600Y122793D02*Y122007D01*
X244748Y122793D02*Y122007D01*
X241600Y126393D02*Y125607D01*
X244748Y126393D02*Y125607D01*
X241800Y130593D02*Y129807D01*
X244948Y130593D02*Y129807D01*
X241574Y115593D02*Y114807D01*
X244722Y115593D02*Y114807D01*
X292700Y78893D02*Y78107D01*
X289552Y78893D02*Y78107D01*
X282226Y78793D02*Y78007D01*
X285374Y78793D02*Y78007D01*
G54D213*X287003Y109771D02*X288381D01*
X287003Y111740D02*X288381D01*
X287003Y113709D02*X288381D01*
X287003Y115678D02*X288381D01*
X287003Y117647D02*X288381D01*
X287003Y119616D02*X288381D01*
X287003Y121585D02*X288381D01*
X287003Y123554D02*X288381D01*
X287003Y125523D02*X288381D01*
X287003Y127492D02*X288381D01*
X287003Y129461D02*X288381D01*
X287003Y131430D02*X288381D01*
X261019Y131429D02*X262397D01*
X261019Y129460D02*X262397D01*
X261019Y127491D02*X262397D01*
X261019Y125522D02*X262397D01*
X261019Y123553D02*X262397D01*
X261019Y121584D02*X262397D01*
X261019Y119615D02*X262397D01*
X261019Y117646D02*X262397D01*
X261019Y115677D02*X262397D01*
X261019Y113708D02*X262397D01*
X261019Y111739D02*X262397D01*
X261019Y109770D02*X262397D01*
X285529Y134281D02*Y132903D01*
X283560Y134281D02*Y132903D01*
X281591Y134281D02*Y132903D01*
X279622Y134281D02*Y132903D01*
X277653Y134281D02*Y132903D01*
X275684Y134281D02*Y132903D01*
X273715Y134281D02*Y132903D01*
X271746Y134281D02*Y132903D01*
X269777Y134281D02*Y132903D01*
X267808Y134281D02*Y132903D01*
X265839Y134281D02*Y132903D01*
X263870Y134281D02*Y132903D01*
X263871Y108297D02*Y106919D01*
X265840Y108297D02*Y106919D01*
X267809Y108297D02*Y106919D01*
X269778Y108297D02*Y106919D01*
X271747Y108297D02*Y106919D01*
X273716Y108297D02*Y106919D01*
X275685Y108297D02*Y106919D01*
X277654Y108297D02*Y106919D01*
X279623Y108297D02*Y106919D01*
X281592Y108297D02*Y106919D01*
X283561Y108297D02*Y106919D01*
X285530Y108297D02*Y106919D01*
G54D214*G36*
X266950Y128350D02*Y121850D01*
X273450D01*
Y128350D01*
X266950D01*
G37*
G36*
Y119350D02*Y112850D01*
X273450D01*
Y119350D01*
X266950D01*
G37*
G36*
X275950Y128350D02*Y121850D01*
X282450D01*
Y128350D01*
X275950D01*
G37*
G36*
Y119350D02*Y112850D01*
X282450D01*
Y119350D01*
X275950D01*
G37*
G54D212*X446852Y187893D02*Y187107D01*
X450000Y187893D02*Y187107D01*
X446926Y164393D02*Y163607D01*
X450074Y164393D02*Y163607D01*
X301352Y287793D02*Y287007D01*
X304500Y287793D02*Y287007D01*
X292448Y287793D02*Y287007D01*
X289300Y287793D02*Y287007D01*
X292474Y283593D02*Y282807D01*
X289326Y283593D02*Y282807D01*
X301526Y283593D02*Y282807D01*
X304674Y283593D02*Y282807D01*
X447000Y241893D02*Y241107D01*
X450148Y241893D02*Y241107D01*
G54D215*X326695Y294555D02*Y289045D01*
X338505Y294555D02*Y289045D01*
G54D216*X270100Y310900D03*
G54D212*X264507Y298026D02*X265293D01*
X264507Y301174D02*X265293D01*
X256626Y298193D02*Y297407D01*
X259774Y298193D02*Y297407D01*
G54D215*X231545Y336605D02*X237055D01*
X231545Y324795D02*X237055D01*
G54D217*X261187Y322921D02*Y313079D01*
X247013Y322921D02*Y313079D01*
G54D216*X295500Y301800D03*
X275900Y302200D03*
G54D213*X279009Y310605D02*Y308833D01*
X280978Y310605D02*Y308833D01*
X282947Y310605D02*Y308833D01*
X284916Y310605D02*Y308833D01*
X286885Y310605D02*Y308833D01*
X288854Y310605D02*Y308833D01*
X290823Y310605D02*Y308833D01*
X292792Y310605D02*Y308833D01*
X292791Y325566D02*Y323794D01*
X290822Y325566D02*Y323794D01*
X288853Y325566D02*Y323794D01*
X286884Y325566D02*Y323794D01*
X284915Y325566D02*Y323794D01*
X282946Y325566D02*Y323794D01*
X280977Y325566D02*Y323794D01*
X279008Y325566D02*Y323794D01*
X294463Y312278D02*X296235D01*
X294463Y314247D02*X296235D01*
X294463Y316216D02*X296235D01*
X294463Y318185D02*X296235D01*
X294463Y320154D02*X296235D01*
X294463Y322123D02*X296235D01*
X275565Y322122D02*X277337D01*
X275565Y320153D02*X277337D01*
X275565Y318184D02*X277337D01*
X275565Y316215D02*X277337D01*
X275565Y314246D02*X277337D01*
X275565Y312277D02*X277337D01*
G54D214*G36*
X280950Y319350D02*Y315050D01*
X285250D01*
Y319350D01*
X280950D01*
G37*
G36*
X286550D02*Y315050D01*
X290850D01*
Y319350D01*
X286550D01*
G37*
G54D212*X303907Y301274D02*X304693D01*
X303907Y298126D02*X304693D01*
G54D218*X279808Y295341D02*X280792D01*
X279808Y300459D02*X280792D01*
G54D212*X287007Y297026D02*X287793D01*
X287007Y300174D02*X287793D01*
G54D219*X255393Y345200D02*X258935D01*
X275865D02*X279407D01*
G54D217*X304791Y58900D02*X320539D01*
X271326D02*X287074D01*
G54D212*X59626Y78293D02*Y77507D01*
X62774Y78293D02*Y77507D01*
X59626Y90993D02*Y90207D01*
X62774Y90993D02*Y90207D01*
G54D218*X73041Y132592D02*Y131608D01*
X78159Y132592D02*Y131608D01*
X62108Y81700D02*X63092D01*
X62108Y86818D02*X63092D01*
G54D212*X76507Y61252D02*X77293D01*
X76507Y64400D02*X77293D01*
X146207Y46452D02*X146993D01*
X146207Y49600D02*X146993D01*
G54D213*X204102Y262457D02*X208826D01*
X204102Y260488D02*X208826D01*
X204102Y258519D02*X208826D01*
X204102Y256550D02*X208826D01*
X204102Y254581D02*X208826D01*
X204102Y252612D02*X208826D01*
X204102Y250643D02*X208826D01*
X204102Y248674D02*X208826D01*
X204102Y246705D02*X208826D01*
X204102Y244736D02*X208826D01*
X204102Y242767D02*X208826D01*
X204102Y240798D02*X208826D01*
X204102Y238829D02*X208826D01*
X204102Y236860D02*X208826D01*
X204102Y234891D02*X208826D01*
X204102Y232922D02*X208826D01*
X204102Y230953D02*X208826D01*
X204102Y228984D02*X208826D01*
X204102Y227015D02*X208826D01*
X204102Y225046D02*X208826D01*
X204102Y223077D02*X208826D01*
X204102Y221108D02*X208826D01*
X204102Y219139D02*X208826D01*
X204102Y217170D02*X208826D01*
X204102Y215201D02*X208826D01*
X204102Y213232D02*X208826D01*
X204102Y211263D02*X208826D01*
X204102Y209294D02*X208826D01*
X204102Y207325D02*X208826D01*
X204102Y205356D02*X208826D01*
X204102Y203387D02*X208826D01*
X204102Y201418D02*X208826D01*
X204102Y199449D02*X208826D01*
X204102Y197480D02*X208826D01*
X204102Y195511D02*X208826D01*
X204102Y193542D02*X208826D01*
X287173Y193543D02*X291897D01*
X287173Y195512D02*X291897D01*
X287173Y197481D02*X291897D01*
X287173Y199450D02*X291897D01*
X287173Y201419D02*X291897D01*
X287173Y203388D02*X291897D01*
X287173Y205357D02*X291897D01*
X287173Y207326D02*X291897D01*
X287173Y209295D02*X291897D01*
X287173Y211264D02*X291897D01*
X287173Y213233D02*X291897D01*
X287173Y215202D02*X291897D01*
X287173Y217171D02*X291897D01*
X287173Y219140D02*X291897D01*
X287173Y221109D02*X291897D01*
X287173Y223078D02*X291897D01*
X287173Y225047D02*X291897D01*
X287173Y227016D02*X291897D01*
X287173Y228985D02*X291897D01*
X287173Y230954D02*X291897D01*
X287173Y232923D02*X291897D01*
X287173Y234892D02*X291897D01*
X287173Y236861D02*X291897D01*
X287173Y238830D02*X291897D01*
X287173Y240799D02*X291897D01*
X287173Y242768D02*X291897D01*
X287173Y244737D02*X291897D01*
X287173Y246706D02*X291897D01*
X287173Y248675D02*X291897D01*
X287173Y250644D02*X291897D01*
X287173Y252613D02*X291897D01*
X287173Y254582D02*X291897D01*
X287173Y256551D02*X291897D01*
X287173Y258520D02*X291897D01*
X287173Y260489D02*X291897D01*
X287173Y262458D02*X291897D01*
X213543Y188827D02*Y184103D01*
X215512Y188827D02*Y184103D01*
X217481Y188827D02*Y184103D01*
X219450Y188827D02*Y184103D01*
X221419Y188827D02*Y184103D01*
X223388Y188827D02*Y184103D01*
X225357Y188827D02*Y184103D01*
X227326Y188827D02*Y184103D01*
X229295Y188827D02*Y184103D01*
X231264Y188827D02*Y184103D01*
X233233Y188827D02*Y184103D01*
X235202Y188827D02*Y184103D01*
X237171Y188827D02*Y184103D01*
X239140Y188827D02*Y184103D01*
X241109Y188827D02*Y184103D01*
X243078Y188827D02*Y184103D01*
X245047Y188827D02*Y184103D01*
X247016Y188827D02*Y184103D01*
X248985Y188827D02*Y184103D01*
X250954Y188827D02*Y184103D01*
X252923Y188827D02*Y184103D01*
X254892Y188827D02*Y184103D01*
X256861Y188827D02*Y184103D01*
X258830Y188827D02*Y184103D01*
X260799Y188827D02*Y184103D01*
X262768Y188827D02*Y184103D01*
X264737Y188827D02*Y184103D01*
X266706Y188827D02*Y184103D01*
X268675Y188827D02*Y184103D01*
X270644Y188827D02*Y184103D01*
X272613Y188827D02*Y184103D01*
X274582Y188827D02*Y184103D01*
X276551Y188827D02*Y184103D01*
X278520Y188827D02*Y184103D01*
X280489Y188827D02*Y184103D01*
X282458Y188827D02*Y184103D01*
X282457Y271898D02*Y267174D01*
X280488Y271898D02*Y267174D01*
X278519Y271898D02*Y267174D01*
X276550Y271898D02*Y267174D01*
X274581Y271898D02*Y267174D01*
X272612Y271898D02*Y267174D01*
X270643Y271898D02*Y267174D01*
X268674Y271898D02*Y267174D01*
X266705Y271898D02*Y267174D01*
X264736Y271898D02*Y267174D01*
X262767Y271898D02*Y267174D01*
X260798Y271898D02*Y267174D01*
X258829Y271898D02*Y267174D01*
X256860Y271898D02*Y267174D01*
X254891Y271898D02*Y267174D01*
X252922Y271898D02*Y267174D01*
X250953Y271898D02*Y267174D01*
X248984Y271898D02*Y267174D01*
X247015Y271898D02*Y267174D01*
X245046Y271898D02*Y267174D01*
X243077Y271898D02*Y267174D01*
X241108Y271898D02*Y267174D01*
X239139Y271898D02*Y267174D01*
X237170Y271898D02*Y267174D01*
X235201Y271898D02*Y267174D01*
X233232Y271898D02*Y267174D01*
X231263Y271898D02*Y267174D01*
X229294Y271898D02*Y267174D01*
X227325Y271898D02*Y267174D01*
X225356Y271898D02*Y267174D01*
X223387Y271898D02*Y267174D01*
X221418Y271898D02*Y267174D01*
X219449Y271898D02*Y267174D01*
X217480Y271898D02*Y267174D01*
X215511Y271898D02*Y267174D01*
X213542Y271898D02*Y267174D01*
X126388Y90267D02*X127766D01*
X126388Y88298D02*X127766D01*
X126388Y86329D02*X127766D01*
X126388Y84360D02*X127766D01*
X126388Y82391D02*X127766D01*
X126388Y80422D02*X127766D01*
X126388Y78453D02*X127766D01*
X126388Y76484D02*X127766D01*
X126388Y74515D02*X127766D01*
X126388Y72546D02*X127766D01*
X126388Y70577D02*X127766D01*
X126388Y68608D02*X127766D01*
X126388Y66639D02*X127766D01*
X126388Y64670D02*X127766D01*
X126388Y62701D02*X127766D01*
X126388Y60732D02*X127766D01*
X161034Y60733D02*X162412D01*
X161034Y62702D02*X162412D01*
X161034Y64671D02*X162412D01*
X161034Y66640D02*X162412D01*
X161034Y68609D02*X162412D01*
X161034Y70578D02*X162412D01*
X161034Y72547D02*X162412D01*
X161034Y74516D02*X162412D01*
X161034Y76485D02*X162412D01*
X161034Y78454D02*X162412D01*
X161034Y80423D02*X162412D01*
X161034Y82392D02*X162412D01*
X161034Y84361D02*X162412D01*
X161034Y86330D02*X162412D01*
X161034Y88299D02*X162412D01*
X161034Y90268D02*X162412D01*
X129633Y58866D02*Y57488D01*
X131602Y58866D02*Y57488D01*
X133571Y58866D02*Y57488D01*
X135540Y58866D02*Y57488D01*
X137509Y58866D02*Y57488D01*
X139478Y58866D02*Y57488D01*
X141447Y58866D02*Y57488D01*
X143416Y58866D02*Y57488D01*
X145385Y58866D02*Y57488D01*
X147354Y58866D02*Y57488D01*
X149323Y58866D02*Y57488D01*
X151292Y58866D02*Y57488D01*
X153261Y58866D02*Y57488D01*
X155230Y58866D02*Y57488D01*
X157199Y58866D02*Y57488D01*
X159168Y58866D02*Y57488D01*
X159167Y93512D02*Y92134D01*
X157198Y93512D02*Y92134D01*
X155229Y93512D02*Y92134D01*
X153260Y93512D02*Y92134D01*
X151291Y93512D02*Y92134D01*
X149322Y93512D02*Y92134D01*
X147353Y93512D02*Y92134D01*
X145384Y93512D02*Y92134D01*
X143415Y93512D02*Y92134D01*
X141446Y93512D02*Y92134D01*
X139477Y93512D02*Y92134D01*
X137508Y93512D02*Y92134D01*
X135539Y93512D02*Y92134D01*
X133570Y93512D02*Y92134D01*
X131601Y93512D02*Y92134D01*
X129632Y93512D02*Y92134D01*
G54D214*G36*
X133600Y86300D02*Y80300D01*
X139600D01*
Y86300D01*
X133600D01*
G37*
G36*
X141400D02*Y80300D01*
X147400D01*
Y86300D01*
X141400D01*
G37*
G36*
X149200D02*Y80300D01*
X155200D01*
Y86300D01*
X149200D01*
G37*
G36*
X133600Y78500D02*Y72500D01*
X139600D01*
Y78500D01*
X133600D01*
G37*
G36*
X141400D02*Y72500D01*
X147400D01*
Y78500D01*
X141400D01*
G37*
G36*
X149200D02*Y72500D01*
X155200D01*
Y78500D01*
X149200D01*
G37*
G36*
X133600Y70700D02*Y64700D01*
X139600D01*
Y70700D01*
X133600D01*
G37*
G36*
X141400D02*Y64700D01*
X147400D01*
Y70700D01*
X141400D01*
G37*
G36*
X149200D02*Y64700D01*
X155200D01*
Y70700D01*
X149200D01*
G37*
G54D212*X46426Y312393D02*Y311607D01*
X49574Y312393D02*Y311607D01*
G54D218*X31008Y306941D02*X31992D01*
X31008Y312059D02*X31992D01*
G54D212*X46426Y249393D02*Y248607D01*
X49574Y249393D02*Y248607D01*
G54D218*X31508Y243941D02*X32492D01*
X31508Y249059D02*X32492D01*
G54D212*X46426Y185393D02*Y184607D01*
X49574Y185393D02*Y184607D01*
G54D218*X31508Y179941D02*X32492D01*
X31508Y185059D02*X32492D01*
G54D220*X129131Y205829D02*X130895D01*
X129131Y203860D02*X131295D01*
X129131Y201891D02*X131295D01*
X129131Y199922D02*X131295D01*
X129131Y197953D02*X131295D01*
X129131Y195984D02*X131295D01*
X129131Y194015D02*X131295D01*
X129131Y192046D02*X131295D01*
X129131Y190077D02*X131295D01*
X129131Y188108D02*X131295D01*
X129131Y186139D02*X131295D01*
X129131Y184170D02*X130895D01*
X156105Y184171D02*X157869D01*
X155705Y186140D02*X157869D01*
X155705Y188109D02*X157869D01*
X155705Y190078D02*X157869D01*
X155705Y192047D02*X157869D01*
X155705Y194016D02*X157869D01*
X155705Y195985D02*X157869D01*
X155705Y197954D02*X157869D01*
X155705Y199923D02*X157869D01*
X155705Y201892D02*X157869D01*
X155705Y203861D02*X157869D01*
X156105Y205830D02*X157869D01*
X132671Y182395D02*Y180631D01*
X134640Y182795D02*Y180631D01*
X136609Y182795D02*Y180631D01*
X138578Y182795D02*Y180631D01*
X140547Y182795D02*Y180631D01*
X142516Y182795D02*Y180631D01*
X144485Y182795D02*Y180631D01*
X146454Y182795D02*Y180631D01*
X148423Y182795D02*Y180631D01*
X150392Y182795D02*Y180631D01*
X152361Y182795D02*Y180631D01*
X154330Y182395D02*Y180631D01*
X154329Y209369D02*Y207605D01*
X152360Y209369D02*Y207205D01*
X150391Y209369D02*Y207205D01*
X148422Y209369D02*Y207205D01*
X146453Y209369D02*Y207205D01*
X144484Y209369D02*Y207205D01*
X142515Y209369D02*Y207205D01*
X140546Y209369D02*Y207205D01*
X138577Y209369D02*Y207205D01*
X136608Y209369D02*Y207205D01*
X134639Y209369D02*Y207205D01*
X132670Y209369D02*Y207605D01*
G54D214*G36*
X135500Y203000D02*Y198400D01*
X140100D01*
Y203000D01*
X135500D01*
G37*
G36*
X141200D02*Y198400D01*
X145800D01*
Y203000D01*
X141200D01*
G37*
G36*
X146900D02*Y198400D01*
X151500D01*
Y203000D01*
X146900D01*
G37*
G36*
X135500Y197300D02*Y192700D01*
X140100D01*
Y197300D01*
X135500D01*
G37*
G36*
X141200D02*Y192700D01*
X145800D01*
Y197300D01*
X141200D01*
G37*
G36*
X146900D02*Y192700D01*
X151500D01*
Y197300D01*
X146900D01*
G37*
G36*
X135500Y191600D02*Y187000D01*
X140100D01*
Y191600D01*
X135500D01*
G37*
G36*
X141200D02*Y187000D01*
X145800D01*
Y191600D01*
X141200D01*
G37*
G36*
X146900D02*Y187000D01*
X151500D01*
Y191600D01*
X146900D01*
G37*
G54D212*X69007Y128626D02*X69793D01*
X69007Y131774D02*X69793D01*
X81533Y128800D02*X82319D01*
X81533Y131948D02*X82319D01*
G54D218*X95759Y94392D02*Y93408D01*
X90641Y94392D02*Y93408D01*
X95859Y81892D02*Y80908D01*
X90741Y81892D02*Y80908D01*
X95859Y64992D02*Y64008D01*
X90741Y64992D02*Y64008D01*
G54D216*X118700Y89700D03*
X117600Y85900D03*
X121100Y62200D03*
G54D212*X24607Y320926D02*X25393D01*
X24607Y324074D02*X25393D01*
G54D216*X111400Y311700D03*
G54D212*X25607Y257926D02*X26393D01*
X25607Y261074D02*X26393D01*
G54D216*X111600Y247900D03*
G54D212*X25107Y194926D02*X25893D01*
X25107Y198074D02*X25893D01*
G54D216*X111400Y185100D03*
G54D212*X176426Y99993D02*Y99207D01*
X179574Y99993D02*Y99207D01*
X151726Y113693D02*Y112907D01*
X154874Y113693D02*Y112907D01*
X150274Y109693D02*Y108907D01*
X147126Y109693D02*Y108907D01*
G54D216*X129100Y99900D03*
X125100Y101400D03*
G54D212*X100707Y90426D02*X101493D01*
X100707Y93574D02*X101493D01*
X85707Y90526D02*X86493D01*
X85707Y93674D02*X86493D01*
X100833Y78000D02*X101619D01*
X100833Y81148D02*X101619D01*
X85733Y78400D02*X86519D01*
X85733Y81548D02*X86519D01*
X101007Y61626D02*X101793D01*
X101007Y64774D02*X101793D01*
X85507Y61226D02*X86293D01*
X85507Y64374D02*X86293D01*
G54D216*X272000Y180600D03*
X268700D03*
X260800Y180700D03*
G54D212*X193326Y306593D02*Y305807D01*
X196474Y306593D02*Y305807D01*
X193326Y300593D02*Y299807D01*
X196474Y300593D02*Y299807D01*
X180574Y250693D02*Y249907D01*
X177426Y250693D02*Y249907D01*
X185400Y245593D02*Y244807D01*
X182252Y245593D02*Y244807D01*
G54D216*X278800Y100200D03*
X302400Y311500D03*
G54D215*X218845Y330695D02*X224355D01*
X218845Y342505D02*X224355D01*
X209695Y356155D02*Y350645D01*
X221505Y356155D02*Y350645D01*
G54D212*X33626Y132393D02*Y131607D01*
X36774Y132393D02*Y131607D01*
X28526Y69193D02*Y68407D01*
X31674Y69193D02*Y68407D01*
G54D221*X49504Y352500D02*X67496D01*
X94004D02*X111996D01*
X49504Y289500D02*X67496D01*
X94004D02*X111996D01*
X49504Y226500D02*X67496D01*
X94004D02*X111996D01*
X49504Y163500D02*X67496D01*
X94004D02*X111996D01*
G54D218*X187159Y52592D02*Y51608D01*
X182041Y52592D02*Y51608D01*
G54D216*X123200Y54300D03*
X122400Y59200D03*
X136200Y49300D03*
X139900Y46200D03*
X143400Y49000D03*
X143600Y44800D03*
X171800Y72800D03*
Y75800D03*
X159800Y51800D03*
X163600Y52000D03*
X164800Y101200D03*
X161000D03*
G54D212*X47107Y128752D02*X47893D01*
X47107Y131900D02*X47893D01*
X59407Y128626D02*X60193D01*
X59407Y131774D02*X60193D01*
X52026Y132293D02*Y131507D01*
X55174Y132293D02*Y131507D01*
X294907Y91326D02*X295693D01*
X294907Y94474D02*X295693D01*
X261500Y83493D02*Y82707D01*
X264648Y83493D02*Y82707D01*
X277126Y83793D02*Y83007D01*
X280274Y83793D02*Y83007D01*
G54D215*X256757Y73193D02*Y72407D01*
X263843Y73193D02*Y72407D01*
G54D212*X281407Y97026D02*X282193D01*
X281407Y100174D02*X282193D01*
G54D218*X269941Y78592D02*Y77608D01*
X275059Y78592D02*Y77608D01*
G54D212*X321681Y138448D02*X322467D01*
X321681Y135300D02*X322467D01*
X309107Y131452D02*X309893D01*
X309107Y134600D02*X309893D01*
X321507Y144600D02*X322293D01*
X321507Y141452D02*X322293D01*
X309007Y137600D02*X309793D01*
X309007Y140748D02*X309793D01*
X302807Y103926D02*X303593D01*
X302807Y107074D02*X303593D01*
X302807Y97826D02*X303593D01*
X302807Y100974D02*X303593D01*
X173907Y82600D02*X174693D01*
X173907Y79452D02*X174693D01*
G54D218*X178708Y85059D02*X179692D01*
X178708Y79941D02*X179692D01*
G54D212*X178807Y92448D02*X179593D01*
X178807Y89300D02*X179593D01*
G54D220*X129131Y268829D02*X130895D01*
X129131Y266860D02*X131295D01*
X129131Y264891D02*X131295D01*
X129131Y262922D02*X131295D01*
X129131Y260953D02*X131295D01*
X129131Y258984D02*X131295D01*
X129131Y257015D02*X131295D01*
X129131Y255046D02*X131295D01*
X129131Y253077D02*X131295D01*
X129131Y251108D02*X131295D01*
X129131Y249139D02*X131295D01*
X129131Y247170D02*X130895D01*
X156105Y247171D02*X157869D01*
X155705Y249140D02*X157869D01*
X155705Y251109D02*X157869D01*
X155705Y253078D02*X157869D01*
X155705Y255047D02*X157869D01*
X155705Y257016D02*X157869D01*
X155705Y258985D02*X157869D01*
X155705Y260954D02*X157869D01*
X155705Y262923D02*X157869D01*
X155705Y264892D02*X157869D01*
X155705Y266861D02*X157869D01*
X156105Y268830D02*X157869D01*
X132671Y245395D02*Y243631D01*
X134640Y245795D02*Y243631D01*
X136609Y245795D02*Y243631D01*
X138578Y245795D02*Y243631D01*
X140547Y245795D02*Y243631D01*
X142516Y245795D02*Y243631D01*
X144485Y245795D02*Y243631D01*
X146454Y245795D02*Y243631D01*
X148423Y245795D02*Y243631D01*
X150392Y245795D02*Y243631D01*
X152361Y245795D02*Y243631D01*
X154330Y245395D02*Y243631D01*
X154329Y272369D02*Y270605D01*
X152360Y272369D02*Y270205D01*
X150391Y272369D02*Y270205D01*
X148422Y272369D02*Y270205D01*
X146453Y272369D02*Y270205D01*
X144484Y272369D02*Y270205D01*
X142515Y272369D02*Y270205D01*
X140546Y272369D02*Y270205D01*
X138577Y272369D02*Y270205D01*
X136608Y272369D02*Y270205D01*
X134639Y272369D02*Y270205D01*
X132670Y272369D02*Y270605D01*
G54D214*G36*
X135500Y266000D02*Y261400D01*
X140100D01*
Y266000D01*
X135500D01*
G37*
G36*
X141200D02*Y261400D01*
X145800D01*
Y266000D01*
X141200D01*
G37*
G36*
X146900D02*Y261400D01*
X151500D01*
Y266000D01*
X146900D01*
G37*
G36*
X135500Y260300D02*Y255700D01*
X140100D01*
Y260300D01*
X135500D01*
G37*
G36*
X141200D02*Y255700D01*
X145800D01*
Y260300D01*
X141200D01*
G37*
G36*
X146900D02*Y255700D01*
X151500D01*
Y260300D01*
X146900D01*
G37*
G36*
X135500Y254600D02*Y250000D01*
X140100D01*
Y254600D01*
X135500D01*
G37*
G36*
X141200D02*Y250000D01*
X145800D01*
Y254600D01*
X141200D01*
G37*
G36*
X146900D02*Y250000D01*
X151500D01*
Y254600D01*
X146900D01*
G37*
G54D212*X131407Y233526D02*X132193D01*
X131407Y236674D02*X132193D01*
X208826Y277493D02*Y276707D01*
X211974Y277493D02*Y276707D01*
X186381Y306552D02*X187167D01*
X186381Y309700D02*X187167D01*
X186907Y298826D02*X187693D01*
X186907Y301974D02*X187693D01*
G54D220*X88508Y326907D02*X91066D01*
X88508Y324938D02*X91066D01*
X88508Y322969D02*X91066D01*
X88508Y321000D02*X91066D01*
X88508Y319031D02*X91066D01*
X88508Y317062D02*X91066D01*
X88508Y315093D02*X91066D01*
X106933D02*X109491D01*
X106933Y317062D02*X109491D01*
X106933Y319031D02*X109491D01*
X106933Y321000D02*X109491D01*
X106933Y322969D02*X109491D01*
X106933Y324938D02*X109491D01*
X106933Y326907D02*X109491D01*
X93093Y313067D02*Y310509D01*
X95062Y313067D02*Y310509D01*
X97031Y313067D02*Y310509D01*
X99000Y313067D02*Y310509D01*
X100969Y313067D02*Y310509D01*
X102938Y313067D02*Y310509D01*
X104907Y313067D02*Y310509D01*
Y331492D02*Y328934D01*
X102938Y331492D02*Y328934D01*
X100969Y331492D02*Y328934D01*
X99000Y331492D02*Y328934D01*
X97031Y331492D02*Y328934D01*
X95062Y331492D02*Y328934D01*
X93093Y331492D02*Y328934D01*
G54D214*G36*
X95050Y324950D02*Y321550D01*
X98450D01*
Y324950D01*
X95050D01*
G37*
G36*
Y320450D02*Y317050D01*
X98450D01*
Y320450D01*
X95050D01*
G37*
G36*
X99550Y324950D02*Y321550D01*
X102950D01*
Y324950D01*
X99550D01*
G37*
G36*
Y320450D02*Y317050D01*
X102950D01*
Y320450D01*
X99550D01*
G37*
G54D212*X338252Y139593D02*Y138807D01*
X341400Y139593D02*Y138807D01*
X329726Y133193D02*Y132407D01*
X332874Y133193D02*Y132407D01*
X119407Y50726D02*X120193D01*
X119407Y53874D02*X120193D01*
X116474Y94193D02*Y93407D01*
X113326Y94193D02*Y93407D01*
X109374Y94193D02*Y93407D01*
X106226Y94193D02*Y93407D01*
X116474Y81393D02*Y80607D01*
X113326Y81393D02*Y80607D01*
X109374Y81393D02*Y80607D01*
X106226Y81393D02*Y80607D01*
X116474Y65093D02*Y64307D01*
X113326Y65093D02*Y64307D01*
X109400Y65093D02*Y64307D01*
X106252Y65093D02*Y64307D01*
X117907Y76574D02*X118693D01*
X117907Y73426D02*X118693D01*
X76607Y81548D02*X77393D01*
X76607Y78400D02*X77393D01*
X76707Y91026D02*X77493D01*
X76707Y94174D02*X77493D01*
G54D215*X102157Y50993D02*Y50207D01*
X109243Y50993D02*Y50207D01*
G54D212*X118026Y100693D02*Y99907D01*
X121174Y100693D02*Y99907D01*
X128107Y46826D02*X128893D01*
X128107Y49974D02*X128893D01*
X132507Y46626D02*X133293D01*
X132507Y49774D02*X133293D01*
X131507Y156374D02*X132293D01*
X131507Y153226D02*X132293D01*
X167548Y121793D02*Y121007D01*
X164400Y121793D02*Y121007D01*
X167248Y142993D02*Y142207D01*
X164100Y142993D02*Y142207D01*
X131607Y107800D02*X132393D01*
X131607Y110948D02*X132393D01*
X124407Y111900D02*X125193D01*
X124407Y115048D02*X125193D01*
X124707Y153148D02*X125493D01*
X124707Y150000D02*X125493D01*
X121426Y143993D02*Y143207D01*
X124574Y143993D02*Y143207D01*
X118826Y133293D02*Y132507D01*
X121974Y133293D02*Y132507D01*
X120326Y122193D02*Y121407D01*
X123474Y122193D02*Y121407D01*
X109800Y125693D02*Y124907D01*
X112948Y125693D02*Y124907D01*
X109926Y129393D02*Y128607D01*
X113074Y129393D02*Y128607D01*
X105007Y125626D02*X105793D01*
X105007Y128774D02*X105793D01*
X109926Y136793D02*Y136007D01*
X113074Y136793D02*Y136007D01*
X109926Y140593D02*Y139807D01*
X113074Y140593D02*Y139807D01*
X105207Y137226D02*X105993D01*
X105207Y140374D02*X105993D01*
G54D220*X129131Y142829D02*X130895D01*
X129131Y140860D02*X131295D01*
X129131Y138891D02*X131295D01*
X129131Y136922D02*X131295D01*
X129131Y134953D02*X131295D01*
X129131Y132984D02*X131295D01*
X129131Y131015D02*X131295D01*
X129131Y129046D02*X131295D01*
X129131Y127077D02*X131295D01*
X129131Y125108D02*X131295D01*
X129131Y123139D02*X131295D01*
X129131Y121170D02*X130895D01*
X156105Y121171D02*X157869D01*
X155705Y123140D02*X157869D01*
X155705Y125109D02*X157869D01*
X155705Y127078D02*X157869D01*
X155705Y129047D02*X157869D01*
X155705Y131016D02*X157869D01*
X155705Y132985D02*X157869D01*
X155705Y134954D02*X157869D01*
X155705Y136923D02*X157869D01*
X155705Y138892D02*X157869D01*
X155705Y140861D02*X157869D01*
X156105Y142830D02*X157869D01*
X132671Y119395D02*Y117631D01*
X134640Y119795D02*Y117631D01*
X136609Y119795D02*Y117631D01*
X138578Y119795D02*Y117631D01*
X140547Y119795D02*Y117631D01*
X142516Y119795D02*Y117631D01*
X144485Y119795D02*Y117631D01*
X146454Y119795D02*Y117631D01*
X148423Y119795D02*Y117631D01*
X150392Y119795D02*Y117631D01*
X152361Y119795D02*Y117631D01*
X154330Y119395D02*Y117631D01*
X154329Y146369D02*Y144605D01*
X152360Y146369D02*Y144205D01*
X150391Y146369D02*Y144205D01*
X148422Y146369D02*Y144205D01*
X146453Y146369D02*Y144205D01*
X144484Y146369D02*Y144205D01*
X142515Y146369D02*Y144205D01*
X140546Y146369D02*Y144205D01*
X138577Y146369D02*Y144205D01*
X136608Y146369D02*Y144205D01*
X134639Y146369D02*Y144205D01*
X132670Y146369D02*Y144605D01*
G54D214*G36*
X135500Y140000D02*Y135400D01*
X140100D01*
Y140000D01*
X135500D01*
G37*
G36*
X141200D02*Y135400D01*
X145800D01*
Y140000D01*
X141200D01*
G37*
G36*
X146900D02*Y135400D01*
X151500D01*
Y140000D01*
X146900D01*
G37*
G36*
X135500Y134300D02*Y129700D01*
X140100D01*
Y134300D01*
X135500D01*
G37*
G36*
X141200D02*Y129700D01*
X145800D01*
Y134300D01*
X141200D01*
G37*
G36*
X146900D02*Y129700D01*
X151500D01*
Y134300D01*
X146900D01*
G37*
G36*
X135500Y128600D02*Y124000D01*
X140100D01*
Y128600D01*
X135500D01*
G37*
G36*
X141200D02*Y124000D01*
X145800D01*
Y128600D01*
X141200D01*
G37*
G36*
X146900D02*Y124000D01*
X151500D01*
Y128600D01*
X146900D01*
G37*
G54D212*X40907Y65826D02*X41693D01*
X40907Y68974D02*X41693D01*
X51107Y65952D02*X51893D01*
X51107Y69100D02*X51893D01*
X44852Y69493D02*Y68707D01*
X48000Y69493D02*Y68707D01*
X186774Y60193D02*Y59407D01*
X183626Y60193D02*Y59407D01*
X184274Y64893D02*Y64107D01*
X181126Y64893D02*Y64107D01*
X182181Y71648D02*X182967D01*
X182181Y68500D02*X182967D01*
X176474Y64793D02*Y64007D01*
X173326Y64793D02*Y64007D01*
X174722Y68793D02*Y68007D01*
X171574Y68793D02*Y68007D01*
X172974Y93693D02*Y92907D01*
X169826Y93693D02*Y92907D01*
X155207Y46726D02*X155993D01*
X155207Y49874D02*X155993D01*
X156607Y104674D02*X157393D01*
X156607Y101526D02*X157393D01*
X167707Y58126D02*X168493D01*
X167707Y61274D02*X168493D01*
G54D222*X51800Y200100D02*X53700D01*
X51800Y197500D02*X53700D01*
X51800Y194900D02*X53700D01*
X59300D02*X61200D01*
X59300Y197500D02*X61200D01*
X59300Y200100D02*X61200D01*
G54D220*X88508Y200907D02*X91066D01*
X88508Y198938D02*X91066D01*
X88508Y196969D02*X91066D01*
X88508Y195000D02*X91066D01*
X88508Y193031D02*X91066D01*
X88508Y191062D02*X91066D01*
X88508Y189093D02*X91066D01*
X106933D02*X109491D01*
X106933Y191062D02*X109491D01*
X106933Y193031D02*X109491D01*
X106933Y195000D02*X109491D01*
X106933Y196969D02*X109491D01*
X106933Y198938D02*X109491D01*
X106933Y200907D02*X109491D01*
X93093Y187067D02*Y184509D01*
X95062Y187067D02*Y184509D01*
X97031Y187067D02*Y184509D01*
X99000Y187067D02*Y184509D01*
X100969Y187067D02*Y184509D01*
X102938Y187067D02*Y184509D01*
X104907Y187067D02*Y184509D01*
Y205492D02*Y202934D01*
X102938Y205492D02*Y202934D01*
X100969Y205492D02*Y202934D01*
X99000Y205492D02*Y202934D01*
X97031Y205492D02*Y202934D01*
X95062Y205492D02*Y202934D01*
X93093Y205492D02*Y202934D01*
G54D214*G36*
X95050Y198950D02*Y195550D01*
X98450D01*
Y198950D01*
X95050D01*
G37*
G36*
Y194450D02*Y191050D01*
X98450D01*
Y194450D01*
X95050D01*
G37*
G36*
X99550Y198950D02*Y195550D01*
X102950D01*
Y198950D01*
X99550D01*
G37*
G36*
Y194450D02*Y191050D01*
X102950D01*
Y194450D01*
X99550D01*
G37*
G54D222*X51800Y263100D02*X53700D01*
X51800Y260500D02*X53700D01*
X51800Y257900D02*X53700D01*
X59300D02*X61200D01*
X59300Y260500D02*X61200D01*
X59300Y263100D02*X61200D01*
G54D220*X88508Y263907D02*X91066D01*
X88508Y261938D02*X91066D01*
X88508Y259969D02*X91066D01*
X88508Y258000D02*X91066D01*
X88508Y256031D02*X91066D01*
X88508Y254062D02*X91066D01*
X88508Y252093D02*X91066D01*
X106933D02*X109491D01*
X106933Y254062D02*X109491D01*
X106933Y256031D02*X109491D01*
X106933Y258000D02*X109491D01*
X106933Y259969D02*X109491D01*
X106933Y261938D02*X109491D01*
X106933Y263907D02*X109491D01*
X93093Y250067D02*Y247509D01*
X95062Y250067D02*Y247509D01*
X97031Y250067D02*Y247509D01*
X99000Y250067D02*Y247509D01*
X100969Y250067D02*Y247509D01*
X102938Y250067D02*Y247509D01*
X104907Y250067D02*Y247509D01*
Y268492D02*Y265934D01*
X102938Y268492D02*Y265934D01*
X100969Y268492D02*Y265934D01*
X99000Y268492D02*Y265934D01*
X97031Y268492D02*Y265934D01*
X95062Y268492D02*Y265934D01*
X93093Y268492D02*Y265934D01*
G54D214*G36*
X95050Y261950D02*Y258550D01*
X98450D01*
Y261950D01*
X95050D01*
G37*
G36*
Y257450D02*Y254050D01*
X98450D01*
Y257450D01*
X95050D01*
G37*
G36*
X99550Y261950D02*Y258550D01*
X102950D01*
Y261950D01*
X99550D01*
G37*
G36*
Y257450D02*Y254050D01*
X102950D01*
Y257450D01*
X99550D01*
G37*
G54D222*X51800Y326100D02*X53700D01*
X51800Y323500D02*X53700D01*
X51800Y320900D02*X53700D01*
X59300D02*X61200D01*
X59300Y323500D02*X61200D01*
X59300Y326100D02*X61200D01*
G54D220*X129131Y331829D02*X130895D01*
X129131Y329860D02*X131295D01*
X129131Y327891D02*X131295D01*
X129131Y325922D02*X131295D01*
X129131Y323953D02*X131295D01*
X129131Y321984D02*X131295D01*
X129131Y320015D02*X131295D01*
X129131Y318046D02*X131295D01*
X129131Y316077D02*X131295D01*
X129131Y314108D02*X131295D01*
X129131Y312139D02*X131295D01*
X129131Y310170D02*X130895D01*
X156105Y310171D02*X157869D01*
X155705Y312140D02*X157869D01*
X155705Y314109D02*X157869D01*
X155705Y316078D02*X157869D01*
X155705Y318047D02*X157869D01*
X155705Y320016D02*X157869D01*
X155705Y321985D02*X157869D01*
X155705Y323954D02*X157869D01*
X155705Y325923D02*X157869D01*
X155705Y327892D02*X157869D01*
X155705Y329861D02*X157869D01*
X156105Y331830D02*X157869D01*
X132671Y308395D02*Y306631D01*
X134640Y308795D02*Y306631D01*
X136609Y308795D02*Y306631D01*
X138578Y308795D02*Y306631D01*
X140547Y308795D02*Y306631D01*
X142516Y308795D02*Y306631D01*
X144485Y308795D02*Y306631D01*
X146454Y308795D02*Y306631D01*
X148423Y308795D02*Y306631D01*
X150392Y308795D02*Y306631D01*
X152361Y308795D02*Y306631D01*
X154330Y308395D02*Y306631D01*
X154329Y335369D02*Y333605D01*
X152360Y335369D02*Y333205D01*
X150391Y335369D02*Y333205D01*
X148422Y335369D02*Y333205D01*
X146453Y335369D02*Y333205D01*
X144484Y335369D02*Y333205D01*
X142515Y335369D02*Y333205D01*
X140546Y335369D02*Y333205D01*
X138577Y335369D02*Y333205D01*
X136608Y335369D02*Y333205D01*
X134639Y335369D02*Y333205D01*
X132670Y335369D02*Y333605D01*
G54D214*G36*
X135500Y329000D02*Y324400D01*
X140100D01*
Y329000D01*
X135500D01*
G37*
G36*
X141200D02*Y324400D01*
X145800D01*
Y329000D01*
X141200D01*
G37*
G36*
X146900D02*Y324400D01*
X151500D01*
Y329000D01*
X146900D01*
G37*
G36*
X135500Y323300D02*Y318700D01*
X140100D01*
Y323300D01*
X135500D01*
G37*
G36*
X141200D02*Y318700D01*
X145800D01*
Y323300D01*
X141200D01*
G37*
G36*
X146900D02*Y318700D01*
X151500D01*
Y323300D01*
X146900D01*
G37*
G36*
X135500Y317600D02*Y313000D01*
X140100D01*
Y317600D01*
X135500D01*
G37*
G36*
X141200D02*Y313000D01*
X145800D01*
Y317600D01*
X141200D01*
G37*
G36*
X146900D02*Y313000D01*
X151500D01*
Y317600D01*
X146900D01*
G37*
G54D212*X38107Y317926D02*X38893D01*
X38107Y321074D02*X38893D01*
X61426Y337393D02*Y336607D01*
X64574Y337393D02*Y336607D01*
X31426Y321393D02*Y320607D01*
X34574Y321393D02*Y320607D01*
X61426Y341393D02*Y340607D01*
X64574Y341393D02*Y340607D01*
X59674Y315493D02*Y314707D01*
X56526Y315493D02*Y314707D01*
X60607Y330426D02*X61393D01*
X60607Y333574D02*X61393D01*
X42426Y321393D02*Y320607D01*
X45574Y321393D02*Y320607D01*
X42426Y258393D02*Y257607D01*
X45574Y258393D02*Y257607D01*
X32426Y258393D02*Y257607D01*
X35574Y258393D02*Y257607D01*
X38307Y254926D02*X39093D01*
X38307Y258074D02*X39093D01*
X60407Y267626D02*X61193D01*
X60407Y270774D02*X61193D01*
X61326Y278493D02*Y277707D01*
X64474Y278493D02*Y277707D01*
X61426Y274693D02*Y273907D01*
X64574Y274693D02*Y273907D01*
X66526Y263293D02*Y262507D01*
X69674Y263293D02*Y262507D01*
X73607Y267374D02*X74393D01*
X73607Y264226D02*X74393D01*
X72926Y260893D02*Y260107D01*
X76074Y260893D02*Y260107D01*
X80426Y258893D02*Y258107D01*
X83574Y258893D02*Y258107D01*
X102426Y273693D02*Y272907D01*
X105574Y273693D02*Y272907D01*
X108426Y273693D02*Y272907D01*
X111574Y273693D02*Y272907D01*
X100707Y230826D02*X101493D01*
X100707Y233974D02*X101493D01*
X95226Y237093D02*Y236307D01*
X98374Y237093D02*Y236307D01*
Y240793D02*Y240007D01*
X95226Y240793D02*Y240007D01*
X90107Y234226D02*X90893D01*
X90107Y237374D02*X90893D01*
X69707Y243026D02*X70493D01*
X69707Y246174D02*X70493D01*
X108626Y235093D02*Y234307D01*
X111774Y235093D02*Y234307D01*
X84107Y275574D02*X84893D01*
X84107Y272426D02*X84893D01*
X114607Y245926D02*X115393D01*
X114607Y249074D02*X115393D01*
X80607Y249926D02*X81393D01*
X80607Y253074D02*X81393D01*
X102574Y277993D02*Y277207D01*
X99426Y277993D02*Y277207D01*
X103607Y237926D02*X104393D01*
X103607Y241074D02*X104393D01*
X79607Y263926D02*X80393D01*
X79607Y267074D02*X80393D01*
X84107Y244226D02*X84893D01*
X84107Y247374D02*X84893D01*
X31726Y195293D02*Y194507D01*
X34874Y195293D02*Y194507D01*
X42326Y195293D02*Y194507D01*
X45474Y195293D02*Y194507D01*
X38107Y191626D02*X38893D01*
X38107Y194774D02*X38893D01*
X59674Y189493D02*Y188707D01*
X56526Y189493D02*Y188707D01*
X59674Y252393D02*Y251607D01*
X56526Y252393D02*Y251607D01*
X60507Y204726D02*X61293D01*
X60507Y207874D02*X61293D01*
X61226Y211893D02*Y211107D01*
X64374Y211893D02*Y211107D01*
X61426Y215493D02*Y214707D01*
X64574Y215493D02*Y214707D01*
X66426Y200593D02*Y199807D01*
X69574Y200593D02*Y199807D01*
X73307Y204874D02*X74093D01*
X73307Y201726D02*X74093D01*
X72826Y198093D02*Y197307D01*
X75974Y198093D02*Y197307D01*
X80226Y195693D02*Y194907D01*
X83374Y195693D02*Y194907D01*
X102326Y210693D02*Y209907D01*
X105474Y210693D02*Y209907D01*
X108526Y210693D02*Y209907D01*
X111674Y210693D02*Y209907D01*
X100807Y167926D02*X101593D01*
X100807Y171074D02*X101593D01*
X95126Y173793D02*Y173007D01*
X98274Y173793D02*Y173007D01*
Y177593D02*Y176807D01*
X95126Y177593D02*Y176807D01*
X90507Y171226D02*X91293D01*
X90507Y174374D02*X91293D01*
X69807Y180126D02*X70593D01*
X69807Y183274D02*X70593D01*
X108526Y172393D02*Y171607D01*
X111674Y172393D02*Y171607D01*
X66426Y326393D02*Y325607D01*
X69574Y326393D02*Y325607D01*
X121626Y333093D02*Y332307D01*
X124774Y333093D02*Y332307D01*
X120426Y311393D02*Y310607D01*
X123574Y311393D02*Y310607D01*
X87926Y243393D02*Y242607D01*
X91074Y243393D02*Y242607D01*
X118926Y259393D02*Y258607D01*
X122074Y259393D02*Y258607D01*
X121426Y270093D02*Y269307D01*
X124574Y270093D02*Y269307D01*
X120652Y248267D02*Y247481D01*
X123800Y248267D02*Y247481D01*
X124581Y237852D02*X125367D01*
X124581Y241000D02*X125367D01*
X124533Y278548D02*X125319D01*
X124533Y275400D02*X125319D01*
X167674Y268993D02*Y268207D01*
X164526Y268993D02*Y268207D01*
X167474Y247893D02*Y247107D01*
X164326Y247893D02*Y247107D01*
X129007Y281174D02*X129793D01*
X129007Y278026D02*X129793D01*
X74207Y243126D02*X74993D01*
X74207Y246274D02*X74993D01*
X111407Y238126D02*X112193D01*
X111407Y241274D02*X112193D01*
X88026Y180693D02*Y179907D01*
X91174Y180693D02*Y179907D01*
X119226Y196293D02*Y195507D01*
X122374Y196293D02*Y195507D01*
X121326Y207293D02*Y206507D01*
X124474Y207293D02*Y206507D01*
X120326Y185193D02*Y184407D01*
X123474Y185193D02*Y184407D01*
X124807Y216126D02*X125593D01*
X124807Y212978D02*X125593D01*
X124607Y174926D02*X125393D01*
X124607Y178074D02*X125393D01*
X131807Y170826D02*X132593D01*
X131807Y173974D02*X132593D01*
X131607Y219374D02*X132393D01*
X131607Y216226D02*X132393D01*
X167674Y184593D02*Y183807D01*
X164526Y184593D02*Y183807D01*
X167574Y206093D02*Y205307D01*
X164426Y206093D02*Y205307D01*
X111307Y175226D02*X112093D01*
X111307Y178374D02*X112093D01*
X74007Y180126D02*X74793D01*
X74007Y183274D02*X74793D01*
X118426Y329393D02*Y328607D01*
X121574Y329393D02*Y328607D01*
X118426Y325893D02*Y325107D01*
X121574Y325893D02*Y325107D01*
X118426Y318893D02*Y318107D01*
X121574Y318893D02*Y318107D01*
X118426Y315393D02*Y314607D01*
X121574Y315393D02*Y314607D01*
X118426Y266393D02*Y265607D01*
X121574Y266393D02*Y265607D01*
X118426Y262893D02*Y262107D01*
X121574Y262893D02*Y262107D01*
X118426Y255893D02*Y255107D01*
X121574Y255893D02*Y255107D01*
X118426Y252393D02*Y251607D01*
X121574Y252393D02*Y251607D01*
X94526Y232393D02*Y231607D01*
X97674Y232393D02*Y231607D01*
X94326Y169293D02*Y168507D01*
X97474Y169293D02*Y168507D01*
X118226Y203693D02*Y202907D01*
X121374Y203693D02*Y202907D01*
X118426Y199993D02*Y199207D01*
X121574Y199993D02*Y199207D01*
X118326Y192593D02*Y191807D01*
X121474Y192593D02*Y191807D01*
X118326Y188793D02*Y188007D01*
X121474Y188793D02*Y188007D01*
X108926Y336393D02*Y335607D01*
X112074Y336393D02*Y335607D01*
X102426Y336393D02*Y335607D01*
X105574Y336393D02*Y335607D01*
X72926Y323393D02*Y322607D01*
X76074Y323393D02*Y322607D01*
X101007Y293626D02*X101793D01*
X101007Y296774D02*X101793D01*
X108626Y298893D02*Y298107D01*
X111774Y298893D02*Y298107D01*
X111307Y302826D02*X112093D01*
X111307Y305974D02*X112093D01*
X73607Y330074D02*X74393D01*
X73607Y326926D02*X74393D01*
X79926Y321893D02*Y321107D01*
X83074Y321893D02*Y321107D01*
X95226Y299393D02*Y298607D01*
X98374Y299393D02*Y298607D01*
X98174Y303393D02*Y302607D01*
X95026Y303393D02*Y302607D01*
X90107Y297226D02*X90893D01*
X90107Y300374D02*X90893D01*
X94126Y294893D02*Y294107D01*
X97274Y294893D02*Y294107D01*
X84007Y307426D02*X84793D01*
X84007Y310574D02*X84793D01*
X114507Y308878D02*X115293D01*
X114507Y312026D02*X115293D01*
X84033Y337496D02*X84819D01*
X84033Y334348D02*X84819D01*
X81107Y325726D02*X81893D01*
X81107Y328874D02*X81893D01*
X103807Y300926D02*X104593D01*
X103807Y304074D02*X104593D01*
X80607Y312926D02*X81393D01*
X80607Y316074D02*X81393D01*
X102374Y340293D02*Y339507D01*
X99226Y340293D02*Y339507D01*
X167574Y310893D02*Y310107D01*
X164426Y310893D02*Y310107D01*
X167374Y332093D02*Y331307D01*
X164226Y332093D02*Y331307D01*
X131607Y345574D02*X132393D01*
X131607Y342426D02*X132393D01*
X124807Y342174D02*X125593D01*
X124807Y339026D02*X125593D01*
X131807Y296726D02*X132593D01*
X131807Y299874D02*X132593D01*
X124507Y301226D02*X125293D01*
X124507Y304374D02*X125293D01*
X88026Y306793D02*Y306007D01*
X91174Y306793D02*Y306007D01*
X69807Y306252D02*X70593D01*
X69807Y309400D02*X70593D01*
X74107Y306352D02*X74893D01*
X74107Y309500D02*X74893D01*
X118900Y322393D02*Y321607D01*
X122048Y322393D02*Y321607D01*
X84107Y181226D02*X84893D01*
X84107Y184374D02*X84893D01*
X114407Y182726D02*X115193D01*
X114407Y185874D02*X115193D01*
X102674Y214493D02*Y213707D01*
X99526Y214493D02*Y213707D01*
X80407Y186826D02*X81193D01*
X80407Y189974D02*X81193D01*
X103807Y175026D02*X104593D01*
X103807Y178174D02*X104593D01*
X80207Y200626D02*X80993D01*
X80207Y203774D02*X80993D01*
X84107Y212374D02*X84893D01*
X84107Y209226D02*X84893D01*
X177807Y242648D02*X178593D01*
X177807Y239500D02*X178593D01*
X171607Y244148D02*X172393D01*
X171607Y241000D02*X172393D01*
X192533Y240448D02*X193319D01*
X192533Y237300D02*X193319D01*
X337252Y257293D02*Y256507D01*
X340400Y257293D02*Y256507D01*
X330800Y252293D02*Y251507D01*
X333948Y252293D02*Y251507D01*
G54D215*X335745Y303000D02*X341255D01*
X335745Y314810D02*X341255D01*
G54D212*X186607Y240374D02*X187393D01*
X186607Y237226D02*X187393D01*
X274974Y284793D02*Y284007D01*
X271826Y284793D02*Y284007D01*
X143107Y295274D02*X143893D01*
X143107Y292126D02*X143893D01*
X150674Y292393D02*Y291607D01*
X147526Y292393D02*Y291607D01*
X268626Y280093D02*Y279307D01*
X271774Y280093D02*Y279307D01*
X198174Y182493D02*Y181707D01*
X195026Y182493D02*Y181707D01*
X266626Y177893D02*Y177107D01*
X269774Y177893D02*Y177107D01*
X278026Y178093D02*Y177307D01*
X281174Y178093D02*Y177307D01*
X198174Y192793D02*Y192007D01*
X195026Y192793D02*Y192007D01*
X259507Y174526D02*X260293D01*
X259507Y177674D02*X260293D01*
X272200Y174293D02*Y173507D01*
X275348Y174293D02*Y173507D01*
X198174Y187693D02*Y186907D01*
X195026Y187693D02*Y186907D01*
X299574Y181493D02*Y180707D01*
X296426Y181493D02*Y180707D01*
G54D218*X296059Y176392D02*Y175408D01*
X290941Y176392D02*Y175408D01*
G54D212*X298781Y191548D02*X299567D01*
X298781Y188400D02*X299567D01*
X307274Y294393D02*Y293607D01*
X304126Y294393D02*Y293607D01*
G54D217*X325687Y322821D02*Y312979D01*
X311513Y322821D02*Y312979D01*
G54D219*X313565Y345300D02*X317107D01*
X293093D02*X296635D01*
G54D215*X335545Y336400D02*X341055D01*
X335545Y324590D02*X341055D01*
G54D212*X337474Y188193D02*Y187407D01*
X334326Y188193D02*Y187407D01*
G54D223*X325700Y217600D02*Y210400D01*
X330700Y217600D02*Y210400D01*
X335700Y217600D02*Y210400D01*
X340700Y217600D02*Y210400D01*
Y237000D02*Y229800D01*
X335700Y237000D02*Y229800D01*
X330700Y237000D02*Y229800D01*
X325700Y237000D02*Y229800D01*
G54D212*X379352Y144393D02*Y143607D01*
X382500Y144393D02*Y143607D01*
X389852Y144393D02*Y143607D01*
X393000Y144393D02*Y143607D01*
X388500Y55893D02*Y55107D01*
X391648Y55893D02*Y55107D01*
X378852Y55893D02*Y55107D01*
X382000Y55893D02*Y55107D01*
X197607Y80026D02*X198393D01*
X197607Y83174D02*X198393D01*
G54D224*X459000Y257984D02*Y256016D01*
Y247748D02*Y245780D01*
Y202984D02*Y201016D01*
Y192748D02*Y190780D01*
Y179984D02*Y178016D01*
Y169748D02*Y167780D01*
G54D215*X404500Y304893D02*Y304107D01*
X397414Y304893D02*Y304107D01*
G54D225*X362800Y323300D02*Y322700D01*
X355000Y323300D02*Y322700D01*
X358900Y315100D02*Y314500D01*
G54D226*X378107Y322823D02*X378893D01*
X378107Y305500D02*X378893D01*
G54D212*X305974Y231519D02*Y230733D01*
X302826Y231519D02*Y230733D01*
X307048Y235293D02*Y234507D01*
X303900Y235293D02*Y234507D01*
X300948Y237893D02*Y237107D01*
X297800Y237893D02*Y237107D01*
X311000Y241393D02*Y240607D01*
X307852Y241393D02*Y240607D01*
X300648Y242693D02*Y241907D01*
X297500Y242693D02*Y241907D01*
X202707Y44300D02*X203493D01*
X202707Y47448D02*X203493D01*
X202007Y86174D02*X202793D01*
X202007Y83026D02*X202793D01*
X218474Y89893D02*Y89107D01*
X215326Y89893D02*Y89107D01*
G54D227*X224755Y76762D02*X229361D01*
X224755Y79321D02*X229361D01*
X224755Y81879D02*X229361D01*
X224755Y84438D02*X229361D01*
X207039D02*X211645D01*
X207039Y81879D02*X211645D01*
X207039Y79321D02*X211645D01*
X207039Y76762D02*X211645D01*
G54D228*X33000Y208233D02*Y206894D01*
X36740Y208233D02*Y206894D01*
X40480Y208233D02*Y206894D01*
Y218469D02*Y217131D01*
X33000Y218469D02*Y217131D01*
G54D218*X25508Y203682D02*X26492D01*
X25508Y208800D02*X26492D01*
G54D228*X33200Y269833D02*Y268494D01*
X36940Y269833D02*Y268494D01*
X40680Y269833D02*Y268494D01*
Y280069D02*Y278731D01*
X33200Y280069D02*Y278731D01*
G54D218*X26308Y265541D02*X27292D01*
X26308Y270659D02*X27292D01*
G54D228*X41031Y331820D02*X42369D01*
X41031Y335560D02*X42369D01*
X41031Y339300D02*X42369D01*
X30794D02*X32133D01*
X30794Y331820D02*X32133D01*
G54D218*X25508Y328800D02*X26492D01*
X25508Y333918D02*X26492D01*
G54D212*X48000Y214193D02*Y213407D01*
X51148Y214193D02*Y213407D01*
X47126Y277893D02*Y277107D01*
X50274Y277893D02*Y277107D01*
X51526Y340993D02*Y340207D01*
X54674Y340993D02*Y340207D01*
X240707Y44052D02*X241493D01*
X240707Y47200D02*X241493D01*
X245007Y44052D02*X245793D01*
X245007Y47200D02*X245793D01*
G54D218*X240182Y37792D02*Y36808D01*
X245300Y37792D02*Y36808D01*
G54D229*X227800Y61650D02*Y59550D01*
X222800Y61650D02*Y59550D01*
X217800Y61650D02*Y59550D01*
Y45250D02*Y43150D01*
X222800Y45250D02*Y43150D01*
X227800Y45250D02*Y43150D01*
G54D230*X209900Y57400D02*X211300D01*
X209900Y47400D02*X211300D01*
X234300D02*X235700D01*
X234300Y57400D02*X235700D01*
M02*
