G04 start of page 12 for group -4014 idx -4014 *
G04 Title: (unknown), bottompaste *
G04 Creator: pcb 20110918 *
G04 CreationDate: Thu 31 May 2012 11:38:54 AM GMT UTC *
G04 For: pmonta *
G04 Format: Gerber/RS-274X *
G04 PCB-Dimensions: 400000 320000 *
G04 PCB-Coordinate-Origin: lower left *
%MOIN*%
%FSLAX25Y25*%
%LNBOTTOMPASTE*%
%ADD192R,0.0512X0.0512*%
%ADD191R,0.0197X0.0197*%
G54D191*X292907Y292774D02*X293693D01*
X292907Y289626D02*X293693D01*
X270807Y289500D02*X271593D01*
X270807Y292648D02*X271593D01*
X259407Y223926D02*X260193D01*
X259407Y227074D02*X260193D01*
X269426Y224293D02*Y223507D01*
X272574Y224293D02*Y223507D01*
X250307Y223926D02*X251093D01*
X250307Y227074D02*X251093D01*
G54D192*X261483Y180593D02*Y179807D01*
X268569Y180593D02*Y179807D01*
G54D191*X268852Y199893D02*Y199107D01*
X272000Y199893D02*Y199107D01*
X269052Y172793D02*Y172007D01*
X272200Y172793D02*Y172007D01*
G54D192*X213260Y164193D02*Y163407D01*
X206174Y164193D02*Y163407D01*
G54D191*X206917Y201293D02*Y200507D01*
X203769Y201293D02*Y200507D01*
X206957Y212193D02*Y211407D01*
X203809Y212193D02*Y211407D01*
X206757Y186493D02*Y185707D01*
X203609Y186493D02*Y185707D01*
G54D192*X260857Y163593D02*Y162807D01*
X267943Y163593D02*Y162807D01*
G54D191*X250381Y161974D02*X251167D01*
X250381Y158826D02*X251167D01*
X221107Y162074D02*X221893D01*
X221107Y158926D02*X221893D01*
X241907Y162100D02*X242693D01*
X241907Y158952D02*X242693D01*
G54D192*X243607Y216583D02*X244393D01*
X243607Y223669D02*X244393D01*
G54D191*X205507Y223926D02*X206293D01*
X205507Y227074D02*X206293D01*
X266852Y186193D02*Y185407D01*
X270000Y186193D02*Y185407D01*
X223907Y223926D02*X224693D01*
X223907Y227074D02*X224693D01*
X214407Y223926D02*X215193D01*
X214407Y227074D02*X215193D01*
X231778Y167793D02*Y167007D01*
X234926Y167793D02*Y167007D01*
X259852Y190093D02*Y189307D01*
X263000Y190093D02*Y189307D01*
X213652Y180193D02*Y179407D01*
X216800Y180193D02*Y179407D01*
X213652Y192393D02*Y191607D01*
X216800Y192393D02*Y191607D01*
X269252Y213593D02*Y212807D01*
X272400Y213593D02*Y212807D01*
G54D192*X219260Y206193D02*Y205407D01*
X212174Y206193D02*Y205407D01*
X235183Y182793D02*Y182007D01*
X242269Y182793D02*Y182007D01*
G54D191*X230974Y80093D02*Y79307D01*
X227826Y80093D02*Y79307D01*
X256026Y92893D02*Y92107D01*
X259174Y92893D02*Y92107D01*
X255826Y80993D02*Y80207D01*
X258974Y80993D02*Y80207D01*
X263626Y112193D02*Y111407D01*
X266774Y112193D02*Y111407D01*
X252326Y70493D02*Y69707D01*
X255474Y70493D02*Y69707D01*
X263926Y64393D02*Y63607D01*
X267074Y64393D02*Y63607D01*
X218526Y103693D02*Y102907D01*
X221674Y103693D02*Y102907D01*
X230974Y93293D02*Y92507D01*
X227826Y93293D02*Y92507D01*
X263826Y57793D02*Y57007D01*
X266974Y57793D02*Y57007D01*
X263626Y105793D02*Y105007D01*
X266774Y105793D02*Y105007D01*
X243026Y65493D02*Y64707D01*
X246174Y65493D02*Y64707D01*
G54D192*X216657Y111893D02*Y111107D01*
X223743Y111893D02*Y111107D01*
G54D191*X244052Y97893D02*Y97107D01*
X247200Y97893D02*Y97107D01*
X236300Y98093D02*Y97307D01*
X239448Y98093D02*Y97307D01*
X243426Y71893D02*Y71107D01*
X246574Y71893D02*Y71107D01*
X207074Y218293D02*Y217507D01*
X203926Y218293D02*Y217507D01*
X228526Y218393D02*Y217607D01*
X231674Y218393D02*Y217607D01*
M02*
