G04 start of page 3 for group 1 idx 3 *
G04 Title: (unknown), solder *
G04 Creator: pcb 20140316 *
G04 CreationDate: Sat 17 May 2014 08:59:42 AM GMT UTC *
G04 For: pmonta *
G04 Format: Gerber/RS-274X *
G04 PCB-Dimensions (mil): 4200.00 3400.00 *
G04 PCB-Coordinate-Origin: lower left *
%MOIN*%
%FSLAX25Y25*%
%LNBOTTOM*%
%ADD86C,0.0354*%
%ADD85C,0.0420*%
%ADD84C,0.0400*%
%ADD83C,0.1280*%
%ADD82C,0.0350*%
%ADD81C,0.1250*%
%ADD80C,0.1000*%
%ADD79C,0.1100*%
%ADD78C,0.0960*%
%ADD77C,0.0150*%
%ADD76C,0.0250*%
%ADD75R,0.0512X0.0512*%
%ADD74R,0.0197X0.0197*%
%ADD73R,0.0295X0.0295*%
%ADD72C,0.0394*%
%ADD71R,0.1200X0.1200*%
%ADD70C,0.0554*%
%ADD69C,0.0001*%
%ADD68C,0.0620*%
%ADD67C,0.0600*%
%ADD66C,0.1480*%
%ADD65C,0.0820*%
%ADD64C,0.0550*%
%ADD63C,0.1450*%
%ADD62C,0.1200*%
%ADD61C,0.0830*%
%ADD60C,0.1300*%
%ADD59C,0.1800*%
%ADD58C,0.0800*%
%ADD57C,0.0180*%
%ADD56C,0.0060*%
G54D56*X147600Y152100D02*Y122700D01*
X150200Y153000D02*Y120400D01*
X141000Y147700D02*Y128700D01*
X140200Y148500D02*X141000Y147700D01*
X140200Y148700D02*Y148500D01*
X143500Y128100D02*Y148700D01*
X137900Y147300D02*Y130700D01*
X135300Y128100D01*
Y123700D01*
X141000Y128700D02*X137900Y125600D01*
X150200Y120400D02*X149200Y119400D01*
X140900Y125500D02*X143500Y128100D01*
X158700Y147300D02*X168800D01*
X170300Y154600D02*X161900D01*
X161800Y154700D01*
X165000Y167100D02*X154400Y156500D01*
Y149800D01*
X154500Y149700D01*
X147600Y122700D02*X143200Y118300D01*
Y93400D01*
X146800Y89800D01*
X149200Y119400D02*Y86400D01*
Y86500D02*Y83400D01*
X146750Y89850D02*Y82150D01*
X132600Y121000D02*Y94800D01*
X137900Y125600D02*Y92200D01*
X144000Y77300D02*X137100Y84200D01*
X146500Y78000D02*X138400Y86100D01*
X137400Y79400D02*X137600D01*
X141000Y76000D01*
X146500Y76800D02*Y78000D01*
X144000Y76100D02*Y77300D01*
X151900Y74300D02*X151200Y73600D01*
X146600Y73400D02*Y73500D01*
X144000Y76100D01*
X153200Y74300D02*X151900D01*
X154300Y75400D02*X153200Y74300D01*
X182400Y59700D02*X179900Y62200D01*
X170500D02*X170400Y62100D01*
X180150Y61950D02*X179850Y62250D01*
X170550D01*
X170400Y62100D01*
X154300Y78300D02*Y75400D01*
X203800Y96000D02*X203700Y96100D01*
X195800Y95500D02*Y115700D01*
X195700Y91600D02*Y91800D01*
X192800Y94700D01*
Y116700D01*
X150600Y77500D02*X151200Y76900D01*
X150600Y78300D02*Y77500D01*
X146750Y82150D02*X150600Y78300D01*
X149200Y83400D02*X154300Y78300D01*
X127400Y165100D02*Y114900D01*
X130800Y149400D02*Y128700D01*
X135300Y123700D02*X132600Y121000D01*
X129500Y150700D02*X130800Y149400D01*
X143200Y160000D02*X150200Y153000D01*
X145200Y154500D02*X147600Y152100D01*
X142300Y154500D02*X145200D01*
X136500Y148700D02*X137900Y147300D01*
X136500Y149000D02*Y148700D01*
X130900Y154400D02*X129500Y153000D01*
Y150700D01*
X130800Y128700D02*X129600Y127500D01*
Y95900D01*
Y90700D01*
X129200Y90300D01*
Y81600D01*
X129700Y81100D01*
X127400Y115100D02*X123000Y110700D01*
Y103700D01*
X127100Y99600D01*
Y94800D01*
Y95000D02*Y94600D01*
X127400Y94300D01*
Y82800D01*
X132600Y94700D02*X137000Y90300D01*
X137900Y92200D02*X138400Y91700D01*
Y86100D01*
X137100Y90200D02*Y84200D01*
Y90200D02*X136850Y90450D01*
X87600Y143000D02*Y84000D01*
X96400Y148700D02*Y89000D01*
X99100Y146400D02*Y85700D01*
X91300Y146700D02*X87600Y143000D01*
X91300Y147600D02*Y146700D01*
X96400Y89100D02*Y84000D01*
X108600Y139100D02*Y116300D01*
X111700Y142200D02*X108600Y139100D01*
X111700Y143300D02*Y142200D01*
X106700Y154000D02*X99100Y146400D01*
X112500Y133600D02*Y118600D01*
X101900Y154200D02*X96400Y148700D01*
X74102Y133908D02*Y142098D01*
X70200Y146000D01*
Y152500D01*
X70100Y152600D01*
X101900Y160100D02*Y154200D01*
X101300Y160700D02*X101900Y160100D01*
X91300Y177000D02*Y147400D01*
X93100Y178800D02*X91300Y177000D01*
X129600Y81200D02*X133950Y76850D01*
X127400Y83700D02*Y78400D01*
X129800Y76000D02*X127400Y78400D01*
X134000Y73500D02*X134100Y73600D01*
X136100Y58100D02*X137400Y59400D01*
X132600Y78200D02*X134000Y76800D01*
X134100Y73600D02*X133100D01*
X130700Y76000D01*
X129800D01*
X112500Y112400D02*Y78200D01*
X108600Y116300D02*X112500Y112400D01*
Y118600D02*X118600Y112500D01*
Y104600D01*
X116300Y102300D01*
Y79500D01*
X112500Y78200D02*X115700Y75000D01*
X116300Y79500D02*X119300Y76500D01*
X115700Y59800D02*Y59400D01*
G54D57*X119800Y43100D02*Y31800D01*
X113900Y34200D02*Y25900D01*
X115200Y35500D02*X113900Y34200D01*
X115200Y44100D02*Y35500D01*
G54D56*X138250Y181550D02*Y185550D01*
X136800Y187000D01*
Y192100D01*
X137500Y192800D01*
X137400Y192700D02*X137700Y193000D01*
Y203700D01*
X136700Y204700D01*
X139600Y207900D02*X138900Y208600D01*
X136700Y204700D02*Y211800D01*
X139100Y188200D02*Y190500D01*
X139600Y191000D01*
Y207900D01*
G54D57*X116500Y187500D02*Y183000D01*
X113000Y179500D01*
X116500Y192559D02*X119159D01*
X120600Y194000D01*
G54D56*X136700Y211800D02*X136500Y212000D01*
X70000Y215500D02*Y235300D01*
X76100Y241400D01*
Y260400D01*
X76000Y260500D01*
X142700Y260300D02*X145200Y257800D01*
X142800Y256700D02*X143700Y255800D01*
X138800Y246200D02*X137600Y247400D01*
G54D57*X116500Y252000D02*Y246000D01*
X113000Y242500D01*
X116500Y257059D02*X113359D01*
X112000Y255700D01*
G54D56*X137600Y247400D02*Y253800D01*
X134300Y253500D02*Y253900D01*
X136200Y255800D01*
X135700Y255300D02*X137100Y256700D01*
X142800D01*
X137600Y253800D02*X137800Y254000D01*
X140700Y251800D02*X140600Y251700D01*
G54D57*X128474Y15852D02*Y13374D01*
X128300Y13200D01*
X132926Y15500D02*Y12726D01*
X132900Y12700D01*
X128474Y19000D02*Y27226D01*
X128400Y27300D01*
X132926Y18648D02*Y26274D01*
X132000Y27200D01*
X223260Y173800D02*Y176940D01*
X222100Y178100D01*
X216174Y173800D02*X212100D01*
X223652Y189800D02*Y187052D01*
X226800Y189800D02*Y187000D01*
G54D56*X234400Y197000D02*X232100Y194700D01*
X222600D01*
G54D57*X223652Y187052D02*X223600Y187000D01*
X231500Y172074D02*X228926D01*
X228800Y172200D01*
X231500Y172426D02*X228926D01*
X228800Y172300D01*
X216757Y196100D02*Y193943D01*
X217300Y193400D01*
G54D56*X222600Y194700D02*X215200Y187300D01*
G54D57*X213600Y193300D02*Y196091D01*
X213609Y196100D01*
X228800Y168900D02*X231474D01*
X231500Y168926D01*
X223652Y202000D02*Y199352D01*
X223500Y199200D01*
X226800Y202000D02*Y199200D01*
X229260Y215800D02*Y212860D01*
X227600Y211200D01*
G54D56*X234400Y222800D02*Y197000D01*
G54D57*X216917Y210900D02*Y208283D01*
X217300Y207900D01*
X238526Y225274D02*X238600Y225200D01*
X222174Y215800D02*X215000D01*
X213900Y216900D01*
Y218900D01*
X213809Y221800D02*Y218991D01*
X213900Y218900D01*
X218700Y233800D02*X216026D01*
X216957Y221800D02*Y218943D01*
X217000Y218900D01*
X213926Y227900D02*Y225026D01*
X213900Y225000D01*
X217074Y227900D02*Y225074D01*
X217000Y225000D01*
X213769Y210900D02*Y207969D01*
X213700Y207900D01*
X216026Y233800D02*X215900Y233926D01*
G54D56*X217800Y253300D02*X224000D01*
X214900Y245100D02*Y246600D01*
X212100Y249400D01*
G54D57*X218700Y237100D02*X215926D01*
X215900Y237074D01*
X222100Y233900D02*X224726D01*
X224800Y233826D01*
G54D56*X228500Y233700D02*Y228700D01*
G54D57*X234300Y233926D02*X237174D01*
X237200Y233900D01*
G54D56*X228500Y228700D02*X234400Y222800D01*
G54D57*X238526Y228000D02*Y225274D01*
X222100Y237100D02*X224774D01*
X224800Y237074D01*
X237200Y237100D02*X234326D01*
X234300Y237074D01*
G54D56*X230700Y17600D02*X218800D01*
X240200Y22100D02*X236100D01*
X235000Y19800D02*X219900D01*
X218200Y21500D01*
X228300Y26500D02*X232700Y22100D01*
X236700D01*
X218800Y17600D02*X217200Y19200D01*
X217100Y15500D02*X215300D01*
X213800Y14000D01*
X209200D01*
X207700Y15500D01*
X216200Y13500D02*X214700Y12000D01*
X206400D01*
X174500Y21800D02*Y39400D01*
X170500Y43400D01*
X184800Y21500D02*X183800Y20500D01*
X183900Y20600D02*X182800Y19500D01*
X177900D01*
X177300Y20100D01*
X180400Y22000D02*Y51900D01*
X182400Y53900D02*Y59700D01*
X180400Y51900D02*X180950Y52450D01*
X180800Y52300D02*X182400Y53900D01*
X170750Y43150D02*X170450Y43450D01*
Y57250D01*
X170500Y57300D01*
X174500Y18600D02*Y22400D01*
X206400Y12000D02*X204900Y13500D01*
X182400D01*
X182100Y13200D01*
X179100D01*
X178800Y13500D01*
X207700Y15500D02*X183400D01*
X184200D02*X180500D01*
X218200Y21500D02*X184800D01*
X217200Y19200D02*X191000D01*
X189500Y17700D01*
X175400D01*
X174500Y18600D01*
X184500Y24300D02*X189000D01*
X191200Y26500D01*
X228300D01*
X195800Y115700D02*X205600Y125500D01*
X192800Y116700D02*X204600Y128500D01*
X198900Y160700D02*X192600Y167000D01*
Y167400D01*
X181200Y167100D02*X165000D01*
X168800Y147300D02*X191200Y169700D01*
X169200Y154600D02*X172600D01*
X192300Y174300D01*
X192100Y178000D02*X181200Y167100D01*
X196900Y213500D02*Y218500D01*
X186900Y228500D01*
X189700Y216800D02*X187900Y218600D01*
X199400Y210900D02*X191900D01*
X189700Y213100D01*
Y216800D01*
X187900Y218600D02*X182500D01*
X202600Y190700D02*Y232800D01*
X163500Y209000D02*Y216700D01*
X161900Y218300D01*
X163300Y228500D02*X155200Y220400D01*
Y210400D01*
X155300Y210300D01*
X159300D02*X159400Y210400D01*
X180300Y216400D02*Y207900D01*
X177400Y205000D01*
X160900D01*
X159300Y206600D01*
Y210300D01*
X191200Y169700D02*X196700D01*
X197500Y170500D01*
Y175600D01*
X197400Y175700D01*
X200000Y178000D02*X192100D01*
X192300Y174300D02*X193800D01*
X193900Y174200D01*
X215200Y187300D02*X206000D01*
X203500Y189800D01*
X204150Y189150D02*X202600Y190700D01*
X186900Y228500D02*X163300D01*
X182500Y218600D02*X180300Y216400D01*
X171000Y255800D02*X196100D01*
X171200Y244100D02*X169100Y246200D01*
X174000Y247000D02*X169200Y251800D01*
X145200Y257800D02*X213300D01*
X196100Y255800D02*X197800Y254100D01*
X206800Y244100D02*X171200D01*
X208600Y247000D02*X174000D01*
X143700Y255800D02*X172100D01*
X213300Y257800D02*X217800Y253300D01*
X202600Y232800D02*X214900Y245100D01*
X212100Y249400D02*X202500D01*
X197100Y254800D01*
X169100Y246200D02*X138800D01*
X169200Y251800D02*X140700D01*
X112100Y191600D02*X108150Y187650D01*
X108200Y187700D02*X106000Y185500D01*
X102300Y180000D02*X101300Y179000D01*
X112100Y195400D02*Y191600D01*
X115300Y206200D02*X114500D01*
X129800Y186600D02*X130900Y185500D01*
X141500Y184600D02*X143200Y182900D01*
X141500Y210300D02*Y184600D01*
X140200Y211600D02*X141500Y210300D01*
X140200Y211700D02*Y211600D01*
X136500Y212000D02*Y211300D01*
X102300Y197000D02*Y180000D01*
X93100Y195700D02*Y178800D01*
X96700Y199300D02*X93100Y195700D01*
X111600Y206300D02*X102300Y197000D01*
X96700Y205000D02*Y199300D01*
X130900Y185500D02*Y154400D01*
X128100Y165800D02*X127400Y165100D01*
X128100Y174800D02*Y165800D01*
X127600Y175300D02*X128100Y174800D01*
X127600Y196500D02*Y175300D01*
X143200Y182900D02*Y160000D01*
X137900Y158900D02*X142300Y154500D01*
X137900Y181200D02*Y158900D01*
X138200Y181500D02*X137900Y181200D01*
X106700Y159800D02*Y154000D01*
X106000Y160500D02*X106700Y159800D01*
X106000Y185500D02*Y160500D01*
X101300Y179000D02*Y160700D01*
X129500Y186900D02*X129900Y186500D01*
X129500Y189700D02*Y186900D01*
X127100Y197000D02*X127600Y196500D01*
X127100Y228600D02*Y197000D01*
X127700Y229200D02*X127100Y228600D01*
X127700Y237100D02*Y229200D01*
X129600Y249000D02*X130000Y248600D01*
X129600Y264700D02*Y249000D01*
X130600Y212000D02*X129500Y213100D01*
X130000Y248600D02*Y217100D01*
X129100Y216200D01*
Y213500D01*
X129600Y213000D01*
X284600Y299500D02*X285200Y300100D01*
X281500Y299500D02*X284600D01*
X279200Y297200D02*Y287000D01*
X285200Y300100D02*X289800D01*
X292000Y297200D02*X287200D01*
X281200Y302648D02*X276048D01*
X276000Y302600D01*
X287900Y297200D02*X279200D01*
X282100Y294400D02*Y282000D01*
X281600Y260600D02*X281700D01*
X271900Y259400D02*Y259500D01*
X270900Y260500D01*
X261200Y260300D02*X257000D01*
X263800Y257600D02*X256400D01*
X281700Y260600D02*X283100Y259200D01*
Y253400D01*
X287200Y249300D01*
X290000Y257700D02*Y246000D01*
X263100Y253000D02*X256000D01*
X263000Y249600D02*X255600D01*
X294200Y300100D02*X298400D01*
X292100Y297200D02*X296700D01*
X298400Y300100D02*X298800Y299700D01*
X302900D01*
X308100Y302900D02*X303426D01*
X303300Y302774D01*
X296700Y297200D02*X305000Y288900D01*
Y283800D01*
G54D58*X340600Y280000D02*X296700Y323900D01*
X287600D01*
G54D56*X279200Y279400D02*X283400Y275200D01*
X282100Y282000D02*X285300Y278800D01*
X283400Y275200D02*X285500D01*
X293500Y278800D02*X295000Y277300D01*
G54D58*X362756Y280000D02*X340600D01*
X349000D02*X373000D01*
G54D56*X295000Y277300D02*Y274800D01*
X295200Y274600D01*
X285300Y278800D02*X288800D01*
X288000D02*X293500D01*
X285500Y275200D02*X285600Y275100D01*
X288300Y278800D02*Y275300D01*
X288800Y274800D01*
X279200Y289200D02*Y283800D01*
Y283700D02*Y279400D01*
X256400Y257600D02*X191100Y322900D01*
X279200Y283800D02*X279100Y283700D01*
X256000Y253000D02*X189800Y319200D01*
X255600Y249600D02*X189300Y315900D01*
X249100Y253700D02*X189400Y313400D01*
X247500Y251600D02*X188900Y310200D01*
X257000Y260300D02*X192000Y325300D01*
X145600D01*
X191100Y322900D02*X148100D01*
X189800Y319200D02*X147300D01*
X189300Y315900D02*X146500D01*
X188900Y310200D02*X163800D01*
G54D57*X255100Y172200D02*X252400D01*
X252300Y172100D01*
X258000Y172200D02*X260548D01*
X260774Y171974D01*
X270857Y173200D02*X266800D01*
G54D56*X271200Y163700D02*X269000Y165900D01*
Y166400D01*
X323000Y160700D02*X198900D01*
G54D57*X255100Y172300D02*X252452D01*
X252300Y172452D01*
X255100Y169000D02*X252348D01*
X252300Y168952D01*
X258000Y172300D02*X260748D01*
X260774Y172326D01*
X258000Y169000D02*X260600D01*
X260774Y168826D01*
X277943Y173200D02*Y169357D01*
X279100Y168200D01*
X279052Y185048D02*X278900Y185200D01*
X278852Y209500D02*Y212148D01*
X278600Y212400D01*
X278900Y220300D02*Y222848D01*
X279252Y223200D01*
X279000Y231000D02*Y233474D01*
X279426Y233900D01*
G54D56*X287200Y249300D02*Y218000D01*
G54D57*X282574Y233900D02*Y231126D01*
X282700Y231000D01*
X282400Y220600D02*X282700Y220300D01*
G54D56*X289800Y245800D02*Y213300D01*
X290000Y246000D02*X289800Y245800D01*
Y214600D02*Y200700D01*
X287200Y218000D02*X285700Y216500D01*
G54D57*X282400Y223200D02*Y220600D01*
X282000Y209500D02*X284600D01*
X283600Y190200D02*X283800Y190000D01*
X282200Y182400D02*Y179300D01*
X282300Y179200D01*
G54D56*X331600Y162800D02*X330700Y163700D01*
X271200D01*
X275800Y156200D02*X324500D01*
X322700Y160700D02*X328600D01*
X283200Y151900D02*X324700D01*
G54D57*X279052Y182400D02*Y185048D01*
X271383Y191700D02*X267300D01*
X267100Y191900D01*
X251300Y191431D02*X252269Y192400D01*
X251300Y187700D02*Y191431D01*
X273000Y199700D02*Y202500D01*
X273100Y202600D01*
X269852Y199700D02*Y202248D01*
X269500Y202600D01*
X274300Y195900D02*X274400Y195800D01*
X276852D01*
G54D56*X270300Y208400D02*Y212400D01*
X268400Y214300D01*
X255200D01*
X245000Y224500D01*
Y229500D01*
G54D57*X269774Y240600D02*X269800Y240574D01*
G54D56*X248800Y231100D02*X249100Y231400D01*
Y253700D01*
X245000Y229500D02*X247500Y232000D01*
Y251600D01*
G54D57*X254100Y238200D02*Y233769D01*
X254000Y233669D01*
X263400Y237100D02*X260726D01*
X267000D02*X269774D01*
X269800Y237074D01*
X260726Y237100D02*X260700Y237074D01*
G54D56*X289800Y200700D02*X287200Y198100D01*
X283400D01*
X281400Y200100D01*
Y203200D01*
G54D57*X280000Y195800D02*X282300D01*
X284000Y194100D01*
X278569Y190200D02*X283600D01*
G54D56*X272100Y152500D02*X275800Y156200D01*
X281000Y149700D02*X283200Y151900D01*
X205600Y125500D02*X304500D01*
X204600Y128500D02*X307800D01*
G54D57*X285300Y118400D02*Y121226D01*
X285226Y121300D01*
X249500Y227900D02*X252683D01*
X254000Y226583D01*
X263374Y233926D02*X263400Y233900D01*
X267000D02*X269774D01*
G54D56*X285700Y216500D02*X255900D01*
X247400Y225000D01*
G54D57*X269774Y233900D02*X269800Y233926D01*
X260700D02*X263374D01*
X241674Y228000D02*Y225126D01*
X241700Y225100D01*
G54D56*X247400Y225000D02*Y229700D01*
X249000Y231300D01*
G54D57*X244926Y177400D02*Y180026D01*
X245000Y180100D01*
X241778Y177400D02*Y179922D01*
X241600Y180100D01*
X246300Y187700D02*Y191283D01*
X245183Y192400D01*
G54D56*X184100Y173500D02*Y211700D01*
X183800Y212000D01*
X281400Y203200D02*X278900Y205700D01*
X273000D01*
X270300Y208400D01*
X115400Y206200D02*Y204000D01*
X96800Y224100D02*X92900Y220200D01*
X96800Y251100D02*Y224100D01*
X97250Y251550D02*X96800Y251100D01*
X92900Y208800D02*X96700Y205000D01*
X92900Y220200D02*Y208800D01*
X103800Y258100D02*X97000Y251300D01*
X103800Y260900D02*Y258100D01*
X111600Y268700D02*X103800Y260900D01*
X111600Y269600D02*Y268700D01*
X127400Y237400D02*X127700Y237100D01*
X127400Y268300D02*Y237400D01*
X128150Y269050D02*X127400Y268300D01*
X132800Y267900D02*X129500Y264600D01*
X135000Y267900D02*X132800D01*
X140200Y273100D02*X135000Y267900D01*
X140200Y274700D02*Y273100D01*
X134100Y275000D02*X128100Y269000D01*
X136500Y275000D02*X134100D01*
X141800Y264300D02*Y267400D01*
X143700Y269300D01*
X209100D01*
X146500Y261700D02*X205800D01*
X206900Y260600D01*
X222100D01*
X167100Y310200D02*X161300D01*
X155900Y304800D01*
X156800Y305700D02*X152900Y301800D01*
X149700Y313400D02*X148800D01*
X149400D02*X189400D01*
X142800Y307400D02*X96100D01*
X148200Y315900D02*X145900D01*
X148400Y319200D02*X145200D01*
X145900Y315900D02*X140500Y310500D01*
X138300Y323300D02*X139600Y322000D01*
X145200Y319200D02*X140100Y314100D01*
X136800D01*
X145400Y322900D02*X139800Y317300D01*
X152900Y301800D02*X108400D01*
X148800Y313400D02*X142800Y307400D01*
X140500Y310500D02*X130900D01*
X128200Y313200D01*
G54D57*X116500Y310000D02*Y315000D01*
G54D56*X128200Y313200D02*Y322000D01*
X129500Y323300D01*
X138300D01*
X136800Y314100D02*X136700Y314000D01*
X139800Y317300D02*X135400D01*
X149100Y322900D02*X145400D01*
G54D57*X116500Y323500D02*X113000D01*
X116500Y320059D02*X112159D01*
G54D56*X70000Y278700D02*Y295700D01*
X75700Y301400D01*
X108400Y301800D02*X106600Y303600D01*
X90900D01*
X87700Y306800D01*
X75700Y301400D02*Y320600D01*
X80400Y325300D01*
X87700Y306800D02*Y317100D01*
X92700Y322100D01*
X96100Y307400D02*X94900Y308600D01*
Y319200D02*X95100Y319400D01*
G54D57*X113000Y323500D02*X112500Y323000D01*
X112159Y320059D02*X111200Y319100D01*
G54D59*X387500Y327500D03*
G54D60*X400315Y297717D03*
Y262283D03*
G54D61*X408189Y280000D03*
G54D62*X396378D03*
G54D63*X372756D03*
G54D64*X372000Y98000D03*
G54D65*X385000Y106000D03*
G54D66*X397000Y98000D03*
G54D64*X362000Y93000D03*
G54D67*X343000Y97000D03*
G54D64*X372000Y88000D03*
X362000Y83000D03*
Y73000D03*
Y63000D03*
X372000Y78000D03*
Y68000D03*
Y58000D03*
G54D65*X385000Y45000D03*
G54D66*X397000Y53000D03*
G54D59*X387500Y12500D03*
G54D64*X362000Y53000D03*
G54D67*X343000Y54000D03*
Y64000D03*
Y87000D03*
G54D68*X239600Y29700D03*
Y39700D03*
G54D69*G36*
X361555Y223494D02*Y217951D01*
X367098D01*
Y223494D01*
X361555D01*
G37*
G54D70*X372200Y220722D03*
X364326Y212848D03*
X372200D03*
Y204974D03*
Y197100D03*
Y189226D03*
X364326Y204974D03*
Y197100D03*
Y189226D03*
Y181352D03*
Y173478D03*
X372200Y181352D03*
Y173478D03*
G54D68*X405800Y153000D03*
X395800D03*
X405800Y163000D03*
X395800D03*
X405800Y173000D03*
X395800D03*
X405800Y183000D03*
X395800D03*
Y193000D03*
Y203000D03*
Y213000D03*
Y223000D03*
X405800Y193000D03*
Y203000D03*
Y213000D03*
Y223000D03*
G54D59*X32500Y12500D03*
Y327500D03*
G54D71*X7000Y27250D02*X13000D01*
X7000Y60750D02*X13000D01*
G54D72*X10000Y10000D03*
G54D71*X7000Y90250D02*X13000D01*
X7000Y123750D02*X13000D01*
X7000Y153250D02*X13000D01*
X7000Y186750D02*X13000D01*
X7000Y279250D02*X13000D01*
X7000Y216250D02*X13000D01*
X7000Y249750D02*X13000D01*
X7000Y312750D02*X13000D01*
G54D72*X10000Y330000D03*
G54D73*X116008Y314941D02*X116992D01*
X116008Y192559D02*X116992D01*
X116008Y187441D02*X116992D01*
G54D74*X294926Y87893D02*Y87107D01*
X298074Y87893D02*Y87107D01*
G54D75*X226657Y121893D02*Y121107D01*
X233743Y121893D02*Y121107D01*
G54D74*X132533Y18648D02*X133319D01*
X132533Y15500D02*X133319D01*
G54D72*X410000Y10000D03*
G54D74*X128081Y19000D02*X128867D01*
X128081Y15852D02*X128867D01*
G54D73*X116008Y257059D02*X116992D01*
X116008Y251941D02*X116992D01*
G54D75*X270857Y173593D02*Y172807D01*
X277943Y173593D02*Y172807D01*
G54D74*X260381Y171974D02*X261167D01*
X260381Y168826D02*X261167D01*
X251907Y172100D02*X252693D01*
X241778Y177793D02*Y177007D01*
X244926Y177793D02*Y177007D01*
G54D75*X245183Y192793D02*Y192007D01*
X252269Y192793D02*Y192007D01*
G54D74*X251907Y168952D02*X252693D01*
X223652Y190193D02*Y189407D01*
Y202393D02*Y201607D01*
X226800Y190193D02*Y189407D01*
Y202393D02*Y201607D01*
X269407Y233926D02*X270193D01*
X279426Y234293D02*Y233507D01*
X282574Y234293D02*Y233507D01*
X260307Y233926D02*X261093D01*
X269407Y237074D02*X270193D01*
X260307D02*X261093D01*
G54D75*X253607Y226583D02*X254393D01*
X253607Y233669D02*X254393D01*
G54D74*X279252Y223593D02*Y222807D01*
X282400Y223593D02*Y222807D01*
G54D75*X271483Y190593D02*Y189807D01*
X278569Y190593D02*Y189807D01*
G54D74*X279052Y182793D02*Y182007D01*
X282200Y182793D02*Y182007D01*
X278852Y209893D02*Y209107D01*
X282000Y209893D02*Y209107D01*
X276852Y196193D02*Y195407D01*
X280000Y196193D02*Y195407D01*
X269852Y200093D02*Y199307D01*
X273000Y200093D02*Y199307D01*
X215507Y233926D02*X216293D01*
X215507Y237074D02*X216293D01*
X224407Y233926D02*X225193D01*
X217074Y228293D02*Y227507D01*
G54D75*X229260Y216193D02*Y215407D01*
X222174Y216193D02*Y215407D01*
G54D74*X233907Y233926D02*X234693D01*
X233907Y237074D02*X234693D01*
X224407D02*X225193D01*
X213926Y228293D02*Y227507D01*
X238526Y228393D02*Y227607D01*
X241674Y228393D02*Y227607D01*
X285326Y121793D02*Y121007D01*
X288474Y121793D02*Y121007D01*
G54D75*X307843Y114793D02*Y114007D01*
X300757Y114793D02*Y114007D01*
G54D73*X292508Y115559D02*X293492D01*
G54D74*X296526Y107493D02*Y106707D01*
X299674Y107493D02*Y106707D01*
G54D73*X292508Y110441D02*X293492D01*
G54D74*X302907Y302774D02*X303693D01*
X302907Y299626D02*X303693D01*
X280807Y299500D02*X281593D01*
X280807Y302648D02*X281593D01*
X216957Y222193D02*Y221407D01*
X213809Y222193D02*Y221407D01*
X216917Y211293D02*Y210507D01*
X213769Y211293D02*Y210507D01*
X216757Y196493D02*Y195707D01*
X213609Y196493D02*Y195707D01*
G54D75*X223260Y174193D02*Y173407D01*
X216174Y174193D02*Y173407D01*
G54D74*X231107Y172074D02*X231893D01*
X231107Y168926D02*X231893D01*
G54D73*X116008Y320059D02*X116992D01*
G54D76*X35000Y166400D03*
X42000D03*
X38500Y163900D03*
X46000Y163000D03*
X84500Y164900D03*
X99000Y165500D03*
X94500D03*
X103500D03*
X140800Y151900D03*
X115600Y154800D03*
X70100Y152600D03*
X125000Y155700D03*
X131900Y151800D03*
X124900Y147000D03*
X115400Y143200D03*
X111700Y143300D03*
X115500Y138500D03*
X79800Y145300D03*
X64000Y142500D03*
X53500D03*
X52500Y160000D03*
X53500Y134500D03*
X79500Y138500D03*
X45500D03*
X71500D03*
X64000Y134500D03*
X90500Y138500D03*
X116174Y170900D03*
X125600Y167900D03*
X113200Y163600D03*
X140500Y161500D03*
Y167000D03*
X103500Y170000D03*
X99000D03*
Y174500D03*
X103500D03*
X94500D03*
Y170000D03*
X146500Y173000D03*
X135000D03*
X140500D03*
X113000Y179500D03*
X146500Y167000D03*
X135000D03*
X120400Y156800D03*
X146500Y161500D03*
X135000D03*
X90700Y142900D03*
X87400Y146100D03*
X74102Y133908D03*
X81000Y130500D03*
X59700Y100600D03*
X69200Y100800D03*
X81600Y101000D03*
X104400Y142900D03*
X107700Y143400D03*
X105700Y146900D03*
X105500Y109500D03*
X105300Y98000D03*
X109700Y97100D03*
X109800Y108300D03*
X106200Y91100D03*
X74400Y152426D03*
X80800Y159000D03*
X84600Y153700D03*
X84500Y161900D03*
X88100Y152300D03*
X104200Y155700D03*
X99600Y155800D03*
X96500D03*
X56400Y161000D03*
X81300Y187600D03*
X84500Y180700D03*
Y177400D03*
Y173800D03*
X58000Y186400D03*
X49000Y175900D03*
X48000Y172800D03*
X28500Y160000D03*
Y155100D03*
X64500Y182500D03*
X70500Y179100D03*
X64000Y171900D03*
X60500Y193400D03*
X38500Y189000D03*
X42500D03*
X64500Y193400D03*
X90900Y184500D03*
X99400D03*
X25500Y183000D03*
X125200Y185400D03*
X131900Y188700D03*
X120800Y121700D03*
X124900Y122500D03*
X125000Y130900D03*
X135100Y131500D03*
X140900Y125300D03*
X132000Y125700D03*
X135000Y110000D03*
X125500Y109500D03*
X116074Y107900D03*
X259900Y147100D03*
X272100Y152500D03*
X281000Y149700D03*
X270700Y156000D03*
X192300Y157100D03*
Y162300D03*
X167400Y177600D03*
X200000Y178000D03*
X197400Y175700D03*
X152000Y173000D03*
X228800Y172200D03*
X184100Y173500D03*
X193900Y174200D03*
X222100Y178100D03*
X241600Y180100D03*
X245000D03*
X213600Y193300D03*
X283800Y190000D03*
X282500Y179200D03*
X283400Y175700D03*
X283500Y171700D03*
X161900Y180700D03*
X279100Y168200D03*
X167600Y162600D03*
X152000Y161500D03*
X161800Y154700D03*
X162200Y159100D03*
X152000Y167000D03*
X192600Y167400D03*
X211800Y178400D03*
X212100Y173800D03*
X211800Y168600D03*
X228800Y168900D03*
X140400Y148400D03*
X136900Y148800D03*
X135500Y145600D03*
X144100Y151800D03*
X135100D03*
X143500Y148700D03*
X133000Y138500D03*
X123000D03*
X154500Y149700D03*
X158700Y147300D03*
X194900Y131600D03*
X248700Y166700D03*
X223400D03*
X245500D03*
X269000Y166400D03*
X255100Y169000D03*
X258000D03*
X264800Y166500D03*
X244400Y316100D03*
X251700Y316200D03*
X247900Y312400D03*
X253300Y311600D03*
X255500Y306200D03*
X287100Y289600D03*
X260500Y306400D03*
X276000Y302600D03*
X282100Y294400D03*
X214100Y317600D03*
X228600Y304400D03*
X211800Y190200D03*
X237200Y166700D03*
X217600Y202000D03*
Y184300D03*
X211800Y199700D03*
X243300Y172900D03*
X211800Y213900D03*
X211700Y231500D03*
Y234700D03*
X211800Y204300D03*
X218700Y237100D03*
X222100D03*
X237200D03*
X213800Y225000D03*
X217000D03*
X213800Y218900D03*
X217000D03*
X213700Y207900D03*
X297100Y289600D03*
X292100D03*
X292000Y297200D03*
X289800Y300100D03*
X294200D03*
X308100Y302900D03*
X286700Y326200D03*
X290200Y326500D03*
X285600Y322700D03*
X289200D03*
X293700Y326400D03*
X297400Y326100D03*
X292800Y322600D03*
X296500D03*
X300300D03*
X287100Y283600D03*
X279100Y283700D03*
X265600Y267300D03*
X285600Y275100D03*
X282900Y264500D03*
X288800Y274800D03*
X241700Y288400D03*
X246000D03*
X250300D03*
X243500Y285100D03*
X247700Y285200D03*
X251800Y285000D03*
X274600Y166600D03*
X278900Y185200D03*
X278400Y200000D03*
X273100Y202600D03*
X269500D03*
X278600Y212400D03*
X274300Y195900D03*
X278900Y220300D03*
X266800Y173200D03*
X267100Y191900D03*
X255100Y172200D03*
X258000D03*
X282700Y220300D03*
X284500Y213900D03*
X284600Y209500D03*
Y205400D03*
Y202200D03*
X284000Y194100D03*
X284500Y237600D03*
X274600Y239700D03*
X245000Y233100D03*
X239800Y239800D03*
X228100Y239700D03*
X243000Y239800D03*
X231500Y239700D03*
X249600Y227900D03*
X279000Y231000D03*
X282700D03*
X284500Y227600D03*
X267000Y233900D03*
X263400D03*
Y237100D03*
X267000D03*
X254100Y238200D03*
X251300Y240000D03*
X257000Y239900D03*
X71100Y305100D03*
X64000Y298000D03*
Y323500D03*
X81500Y312500D03*
X90900Y310600D03*
X99400D03*
X92700Y322100D03*
X95100Y319400D03*
X99000Y323500D03*
X84500Y306800D03*
Y303500D03*
Y299900D03*
X99000Y331500D03*
X90000Y327500D03*
X140200Y274700D03*
X136500Y275000D03*
X135500Y271700D03*
X143900Y277900D03*
X140800Y278000D03*
X120400Y282900D03*
X115600Y280900D03*
X125100Y282200D03*
X112000Y255700D03*
X124900Y273100D03*
X134900Y277900D03*
X131500Y278000D03*
X132000Y250100D03*
X131700Y214900D03*
X161800Y222400D03*
Y243700D03*
X132200Y256000D03*
X125000Y248000D03*
X124900Y218600D03*
X120600Y194000D03*
X135200Y320600D03*
X125100Y320000D03*
X105600Y314800D03*
X116500Y310000D03*
X125200Y311300D03*
X120900Y311400D03*
X135400Y317300D03*
X136700Y314000D03*
X131800D03*
X139600Y322000D03*
X116000Y327500D03*
X109000Y331500D03*
Y323500D03*
X112500Y323000D03*
X111200Y319100D03*
X116174Y297000D03*
X125600Y294000D03*
Y298600D03*
X113600Y290000D03*
X112500Y305000D03*
X167400Y303700D03*
X167600Y288700D03*
X152000Y299000D03*
X146500D03*
Y304500D03*
X152000D03*
X161100Y306700D03*
X140500Y287500D03*
X135000D03*
X140500Y293000D03*
X135000D03*
Y299000D03*
X140500D03*
Y304500D03*
X135000D03*
X152000Y293000D03*
X146500D03*
Y287500D03*
X152000D03*
X161300Y285500D03*
X99000Y291500D03*
Y300500D03*
X94500Y296000D03*
X99000D03*
X94500Y300500D03*
X103500Y296000D03*
Y291500D03*
Y300500D03*
X94500Y291500D03*
X84500Y291000D03*
X87400Y272200D03*
X88100Y278400D03*
X78300Y270900D03*
X105700Y273000D03*
X104200Y281800D03*
X99600Y281900D03*
X96500D03*
X74400Y278526D03*
X80800Y285100D03*
X84600Y279800D03*
X56400Y287100D03*
X84500Y288000D03*
X70000Y278700D03*
X10000Y183000D03*
X16500D03*
X3500D03*
X10000Y190500D03*
X16500D03*
X3500D03*
X9600Y149400D03*
Y212400D03*
Y219900D03*
X16100Y149400D03*
X9600Y156900D03*
X3100D03*
Y149400D03*
Y212400D03*
Y219900D03*
X16100Y156900D03*
Y212400D03*
Y219900D03*
X10000Y246000D03*
Y253500D03*
X10400Y309100D03*
Y316600D03*
X10000Y275500D03*
Y283000D03*
X16900Y316600D03*
X3900D03*
X16500Y246000D03*
Y253500D03*
X16900Y309100D03*
X16500Y275500D03*
Y283000D03*
X3500Y246000D03*
Y253500D03*
X3900Y309100D03*
X3500Y275500D03*
Y283000D03*
X35500Y292500D03*
X29200Y243000D03*
X28400Y224100D03*
Y219100D03*
X41500Y292500D03*
X42300Y252100D03*
X38500Y290300D03*
X27500Y287500D03*
Y282000D03*
X49000Y302000D03*
X52300Y223900D03*
X56600D03*
X61300Y256200D03*
X48500Y298700D03*
X52500Y287000D03*
X46500Y290000D03*
X25000Y309000D03*
X38500Y315000D03*
X42500D03*
X64600Y309100D03*
X58900Y312000D03*
X61300Y318900D03*
X64700D03*
X64000Y331500D03*
X45500Y327500D03*
X53500Y331500D03*
X71500Y327500D03*
X53500Y323500D03*
X331600Y162800D03*
X328600Y160700D03*
X297600Y166200D03*
X360500Y120300D03*
X311800Y120800D03*
X338500Y316300D03*
X332500Y316400D03*
X336000Y313500D03*
X331600Y312200D03*
X327600Y306600D03*
X323700Y306800D03*
X353500Y314500D03*
X357000Y317500D03*
X360500Y314500D03*
X331600Y235200D03*
X331100Y229000D03*
X297100Y283600D03*
X292100D03*
X317300Y267300D03*
X315400Y263200D03*
X317300Y260700D03*
X315300Y258200D03*
X317300Y255900D03*
X314500Y200100D03*
X305000Y283800D03*
X354000Y281500D03*
X357000Y278500D03*
X360000Y282000D03*
X298400Y274900D03*
X296300Y266200D03*
X295200Y274600D03*
X295700Y174700D03*
X295500Y220400D03*
X354000Y258400D03*
X340800Y268300D03*
X339300Y265600D03*
X340700Y263000D03*
X339500Y260200D03*
X125600Y172500D03*
X120900Y184700D03*
X146500Y178500D03*
X140500D03*
X152000D03*
X135000D03*
X135200Y194500D03*
X125100Y193900D03*
X105600Y188700D03*
X133000Y201500D03*
X123000D03*
X124800Y210000D03*
X115300Y206200D03*
X111600Y206300D03*
X115500Y201500D03*
X116074Y233900D03*
X122100Y253500D03*
X120800Y247700D03*
X113000Y242500D03*
X120300Y219800D03*
X115500Y217800D03*
X113100Y226600D03*
X123000Y264500D03*
X115500D03*
X111600Y269600D03*
X140600Y251700D03*
X141800Y264300D03*
X146500Y261700D03*
X142500Y260900D03*
X137800Y254000D03*
X134300Y253500D03*
X90600Y205900D03*
X87300Y209100D03*
X80700Y222000D03*
X84500Y216700D03*
X88000Y215300D03*
X104300Y205900D03*
X105600Y209900D03*
X104100Y219300D03*
X99500Y218800D03*
X96400D03*
X107600Y206400D03*
X90500Y201500D03*
X217300Y207900D03*
Y193400D03*
X223500Y199200D03*
X226800D03*
X223600Y187000D03*
X226800D03*
X222100Y233900D03*
Y260600D03*
X224000Y253300D03*
X218700Y233800D03*
X228500Y233700D03*
X238600Y225200D03*
X241700Y225100D03*
X227600Y211200D03*
X196900Y213500D03*
X199400Y210900D03*
X246300Y187700D03*
X251300D03*
X209000Y255100D03*
X214300Y268900D03*
X209100Y269300D03*
X208600Y247000D03*
X206800Y244100D03*
X237200Y233900D03*
X268600Y228900D03*
X273800Y229100D03*
X271300Y226200D03*
X268300Y223300D03*
X271300Y220300D03*
X273900Y223100D03*
X275200Y256500D03*
X281600Y260600D03*
X263000Y249600D03*
X263100Y253000D03*
X263800Y257600D03*
X261200Y260300D03*
X140200Y211700D03*
X136500Y212000D03*
X134474Y208574D03*
X144000Y214800D03*
X134800D03*
X138900Y208600D03*
X140800Y214900D03*
X140500Y224500D03*
X135000D03*
X133000Y264500D03*
X125500Y230900D03*
X167500Y225600D03*
X152000Y230000D03*
X146500D03*
X140500D03*
X135000D03*
X125500Y235500D03*
X135000Y236000D03*
X140500D03*
X146500Y224500D03*
X167300Y240600D03*
X152000Y236000D03*
X146500D03*
Y241500D03*
X152000D03*
X140500D03*
X135000D03*
X152000Y224500D03*
X161900Y218300D03*
X155300Y210300D03*
X159400Y210400D03*
X163500Y209000D03*
X184100Y215300D03*
X183800Y212100D03*
X184600Y237400D03*
X84400Y236800D03*
X63900Y234900D03*
X81200Y250600D03*
X84400Y243700D03*
Y240400D03*
X105500Y251700D03*
X90800Y247500D03*
X99300D03*
X84400Y224900D03*
Y227900D03*
X99000Y228500D03*
Y237500D03*
X94500Y233000D03*
X99000D03*
X94500Y228500D03*
Y237500D03*
X103500Y233000D03*
Y228500D03*
Y237500D03*
X91200Y268600D03*
X104200Y268700D03*
X107200Y269800D03*
X90500Y264500D03*
X74300Y215426D03*
X70000Y215500D03*
X78300Y207700D03*
X64000Y205500D03*
X78000Y199500D03*
X80500Y202500D03*
X71500Y201500D03*
X82500Y198000D03*
X45500Y201500D03*
X53500Y205500D03*
Y197500D03*
X64000D03*
X34900Y229400D03*
X38400Y226900D03*
X41900Y229400D03*
X48900Y238900D03*
X47900Y235800D03*
X46000Y227000D03*
X76000Y260500D03*
X64000Y268500D03*
X53500D03*
X71500Y264500D03*
X53500Y260500D03*
X64000D03*
X38500Y252000D03*
X45500Y264500D03*
X64400Y245500D03*
Y256400D03*
X70400Y242100D03*
X57800Y245800D03*
X185500Y46700D03*
X177300Y43600D03*
X175800Y47500D03*
X171100Y33100D03*
X269600Y43700D03*
X285200Y43600D03*
X190400Y33600D03*
X229615Y29428D03*
X210500Y48700D03*
X135000Y115500D03*
X140500D03*
X146500D03*
X140500Y110000D03*
X146500D03*
X152000Y115500D03*
Y110000D03*
X167300Y114600D03*
X161600Y117500D03*
X293000Y106700D03*
X303400Y108400D03*
X293000Y119000D03*
X313500Y114600D03*
X285300Y118400D03*
X203700Y96100D03*
Y92300D03*
X195700Y91600D03*
X195800Y95500D03*
X293000Y84400D03*
X294300Y75000D03*
X301000Y100800D03*
X300900Y90400D03*
X152000Y98500D03*
X146500D03*
Y104000D03*
X152000D03*
X167500Y99600D03*
X162000Y96500D03*
X135000Y98500D03*
Y104000D03*
X140500D03*
Y98500D03*
X120300Y93800D03*
X134800Y88800D03*
X140800Y88900D03*
X144000Y88800D03*
X124800Y84000D03*
X125500Y104900D03*
X135400Y82600D03*
X137400Y79400D03*
X146500Y76800D03*
X134000D03*
X141000Y76000D03*
X152900Y21700D03*
X143200Y27200D03*
X155700Y27400D03*
X146700Y18900D03*
X146726Y27300D03*
X156000Y38500D03*
X132500D03*
X140500D03*
X148500D03*
X125700Y21800D03*
X136300Y21100D03*
X113900Y25900D03*
X128300Y13200D03*
X132900Y12700D03*
X180500Y15500D03*
X180400Y22000D03*
X184500Y24300D03*
X177300Y20100D03*
X175600Y50800D03*
X168100Y38700D03*
X167600Y50700D03*
X167500Y47100D03*
X156000Y55000D03*
Y62500D03*
X173174Y69674D03*
X157000Y82600D03*
X179100Y69900D03*
X170500Y57300D03*
X170400Y62100D03*
X174200Y60000D03*
X167600Y55400D03*
X156000Y46500D03*
X148500D03*
X140500D03*
X151200Y76900D03*
X151400Y73600D03*
X132500Y62500D03*
X140500D03*
X148500D03*
X146600Y73400D03*
X140500Y55000D03*
X148500D03*
X51500Y38400D03*
X41200Y38300D03*
X3500Y57000D03*
X9600Y23400D03*
X3100D03*
X9600Y30900D03*
X3100D03*
X16100Y23400D03*
Y30900D03*
X10000Y57000D03*
X16500D03*
X56800Y65400D03*
X56400Y52900D03*
X132500Y55000D03*
X134100Y73600D03*
X123400Y71000D03*
X121700Y53700D03*
X131600Y88900D03*
X124800Y92600D03*
X132500Y46500D03*
X122600Y25800D03*
X119800Y31800D03*
Y43100D03*
X115200Y44100D03*
X115400Y51500D03*
X121100Y48400D03*
X132000Y27200D03*
X128400Y27300D03*
X97000Y65200D03*
X86100Y50800D03*
X78400Y28900D03*
X97800Y25700D03*
X85900Y33700D03*
X101200Y33800D03*
X80000Y36152D03*
X85800Y42300D03*
X80000Y39400D03*
X101200Y50300D03*
X80000Y56600D03*
Y53400D03*
X10000Y64500D03*
Y120000D03*
Y127500D03*
X9600Y86400D03*
Y93900D03*
X16500Y64500D03*
Y120000D03*
Y127500D03*
X16100Y86400D03*
Y93900D03*
X47200Y100800D03*
X3500Y64500D03*
Y120000D03*
Y127500D03*
X3100Y86400D03*
Y93900D03*
G54D77*G54D78*G54D79*G54D68*G54D80*G54D81*G54D82*G54D68*G54D83*G54D82*G54D84*G54D82*G54D68*G54D83*G54D78*G54D82*G54D84*G54D85*G54D86*G54D85*G54D78*M02*
