M48
INCH
T150C0.015
T149C0.128
T148C0.035
T147C0.050
T146C0.096
T145C0.125
T144C0.100
T143C0.062
T142C0.110
T141C0.035
T140C0.042
%
T150
X000310Y024490
X000310Y023740
X000310Y018190
X000310Y017440
X000310Y011890
X000310Y011140
X000310Y005590
X000310Y004840
X000350Y030800
X000350Y030050
X000350Y027850
X000350Y027100
X000350Y021550
X000350Y020800
X000350Y015250
X000350Y014500
X000350Y008950
X000350Y008200
X000390Y034160
X000390Y033410
X000960Y024490
X000960Y023740
X000960Y018190
X000960Y017440
X000960Y011890
X000960Y011140
X000960Y005590
X000960Y004840
X001000Y030800
X001000Y030050
X001000Y027850
X001000Y027100
X001000Y021550
X001000Y020800
X001000Y015250
X001000Y014500
X001000Y008950
X001000Y008200
X001040Y034160
X001040Y033410
X001610Y024490
X001610Y023740
X001610Y018190
X001610Y017440
X001610Y011890
X001610Y011140
X001610Y005590
X001610Y004840
X001650Y030800
X001650Y030050
X001650Y027850
X001650Y027100
X001650Y021550
X001650Y020800
X001650Y015250
X001650Y014500
X001650Y008950
X001650Y008200
X001690Y034160
X001690Y033410
X002750Y031250
X002750Y030700
X002840Y024910
X002840Y024410
X002850Y018500
X002850Y018010
X003250Y032870
X003310Y020330
X003320Y026530
X003490Y019090
X003520Y025380
X003550Y031750
X003670Y032850
X003710Y020330
X003740Y026530
X003840Y018840
X003850Y031480
X003870Y025130
X004030Y006250
X004150Y031750
X004190Y019090
X004220Y025380
X004550Y035150
X004550Y028850
X004550Y022550
X004550Y016250
X004600Y025200
X004600Y018800
X004650Y031500
X004670Y028050
X004757Y021680
X004760Y012540
X004790Y026080
X004800Y019780
X004850Y032370
X004890Y026390
X004900Y032700
X004900Y020090
X005050Y028060
X005110Y034360
X005157Y021680
X005250Y031200
X005250Y018500
X005260Y024890
X005270Y006250
X005350Y035550
X005350Y034750
X005350Y029250
X005350Y028450
X005350Y022950
X005350Y022150
X005350Y016650
X005350Y015850
X005510Y034360
X005640Y031210
X005640Y018600
X005640Y007660
X005660Y024890
X005670Y009210
X005780Y027080
X005800Y021140
X005860Y033720
X005950Y012520
X006050Y021840
X006130Y034390
X006130Y028120
X006390Y025990
X006400Y035550
X006400Y034750
X006400Y032300
X006400Y029250
X006400Y028450
X006400Y022950
X006400Y022150
X006400Y019690
X006400Y016650
X006400Y015850
X006440Y028140
X006440Y027050
X006450Y021840
X006450Y020750
X006470Y034390
X006500Y033440
X006790Y012520
X007000Y024000
X007020Y030320
X007020Y017730
X007040Y026710
X007050Y020410
X007110Y033010
X007150Y035150
X007150Y028850
X007150Y022550
X007150Y016250
X007410Y015891
X007430Y024000
X007440Y030340
X007440Y017730
X007600Y028550
X008000Y008160
X008000Y007840
X008000Y006440
X008000Y006115
X008010Y009420
X008010Y009090
X008050Y024690
X008060Y018370
X008080Y031010
X008120Y027560
X008130Y021260
X008150Y033750
X008310Y012490
X008400Y024070
X008420Y017740
X008440Y026870
X008440Y026540
X008440Y026180
X008440Y025290
X008440Y024990
X008450Y033180
X008450Y032850
X008450Y032490
X008450Y031600
X008450Y031300
X008450Y030380
X008450Y020570
X008450Y020240
X008450Y019880
X008450Y018990
X008450Y018690
X008580Y006730
X008580Y005820
X008600Y008760
X008600Y008440
X008620Y009660
X008620Y007530
X008730Y023410
X008740Y029720
X008740Y017110
X008800Y024030
X008810Y030340
X008810Y017730
X009000Y035150
X009050Y028850
X009050Y022550
X009050Y016250
X009060Y023090
X009070Y016790
X009080Y027250
X009090Y033560
X009090Y020950
X009120Y029360
X009270Y034710
X009450Y032550
X009450Y032100
X009450Y031650
X009450Y026250
X009450Y025800
X009450Y025350
X009450Y019950
X009450Y019500
X009450Y019050
X009510Y034440
X009640Y024380
X009650Y030690
X009650Y018080
X009780Y005070
X009900Y032550
X009900Y032100
X009900Y031650
X009900Y026250
X009900Y025800
X009900Y025350
X009900Y019950
X009900Y019500
X009900Y019050
X009930Y027250
X009940Y033560
X009940Y020950
X009950Y024380
X009960Y030690
X009960Y018080
X010110Y008730
X010120Y007470
X010130Y005850
X010350Y032550
X010350Y032100
X010350Y031650
X010350Y026250
X010350Y025800
X010350Y025350
X010350Y019950
X010350Y019500
X010350Y019050
X010410Y024430
X010420Y018120
X010440Y029370
X010450Y016690
X010480Y023030
X010500Y030720
X010540Y012210
X010550Y029790
X010560Y033980
X010560Y023490
X010560Y021370
X010570Y017190
X010590Y027690
X010590Y013360
X010740Y029480
X010770Y016840
X010790Y023140
X010970Y012210
X010980Y013330
X011120Y034410
X011160Y029460
X011160Y023130
X011170Y016830
X011200Y028070
X011250Y033000
X011300Y026750
X011300Y020450
X011310Y025160
X011320Y018860
X011360Y031500
X011390Y005090
X011440Y010050
X011520Y006910
X011540Y007650
X011550Y028850
X011550Y024180
X011550Y022550
X011550Y016250
X011560Y025890
X011570Y013280
X011580Y030470
X011590Y032200
X011600Y035150
X011617Y019590
X011640Y017850
X011650Y033500
X011800Y010730
X011980Y006810
X011980Y005680
X012030Y024480
X012030Y011880
X012040Y030790
X012040Y018180
X012060Y021900
X012080Y027270
X012080Y014670
X012090Y033640
X012090Y020970
X012110Y007340
X012120Y009710
X012170Y007870
X012210Y027850
X012260Y005080
X012480Y011830
X012490Y029790
X012490Y024420
X012490Y023460
X012490Y017160
X012490Y010880
X012500Y027300
X012500Y018100
X012510Y034550
X012510Y030720
X012510Y021930
X012510Y015630
X012520Y033630
X012520Y021040
X012520Y014710
X012530Y004600
X012550Y026050
X012550Y025590
X012550Y013450
X012550Y012990
X012560Y032360
X012560Y031900
X012560Y019750
X012560Y019290
X012840Y005250
X012840Y003760
X013150Y030300
X013160Y011400
X013170Y023990
X013180Y033900
X013190Y017680
X013190Y005240
X013200Y027510
X013200Y021330
X013210Y015010
X013220Y028100
X013250Y008750
X013250Y008000
X013250Y007150
X013250Y006350
X013320Y003730
X013400Y010180
X013410Y009860
X013430Y027850
X013447Y023357
X013480Y023980
X013480Y011380
X013490Y030290
X013500Y032950
X013500Y032400
X013500Y031800
X013500Y031250
X013500Y026650
X013500Y026100
X013500Y025500
X013500Y024950
X013500Y020350
X013500Y019800
X013500Y019200
X013500Y018650
X013500Y014050
X013500Y013500
X013500Y012900
X013500Y012350
X013510Y017680
X013510Y015650
X013520Y034560
X013520Y021950
X013540Y034230
X013540Y010760
X013550Y029670
X013550Y017060
X013610Y004590
X013650Y030000
X013650Y023700
X013670Y033900
X013690Y017380
X013740Y010440
X013780Y027900
X013890Y023360
X013910Y021330
X013960Y034700
X014020Y029970
X014020Y023670
X014040Y017340
X014050Y032950
X014050Y032400
X014050Y031800
X014050Y031250
X014050Y026650
X014050Y026100
X014050Y025500
X014050Y024950
X014050Y020350
X014050Y019800
X014050Y019200
X014050Y018650
X014050Y014050
X014050Y013500
X014050Y012900
X014050Y012350
X014050Y008750
X014050Y008000
X014050Y007150
X014050Y006350
X014060Y027670
X014080Y030300
X014080Y023990
X014080Y017690
X014080Y011390
X014090Y015030
X014100Y010100
X014320Y005220
X014350Y017370
X014390Y030290
X014400Y023980
X014400Y011380
X014410Y017680
X014500Y028400
X014600Y028750
X014650Y032950
X014650Y032400
X014650Y031800
X014650Y031250
X014650Y026650
X014650Y026100
X014650Y025500
X014650Y024950
X014650Y020350
X014650Y019800
X014650Y019200
X014650Y018650
X014650Y014050
X014650Y013500
X014650Y012900
X014650Y012350
X014650Y010180
X014660Y009840
X014660Y004320
X014670Y029570
X014673Y005230
X014850Y008750
X014850Y008000
X014850Y007150
X014850Y006350
X014930Y003680
X015120Y010190
X015140Y009860
X015200Y032950
X015200Y032400
X015200Y031800
X015200Y031250
X015200Y026650
X015200Y026100
X015200Y025500
X015200Y024950
X015200Y020350
X015200Y019800
X015200Y019200
X015200Y018650
X015200Y014050
X015200Y013500
X015200Y012900
X015200Y012350
X015290Y004670
X015340Y010930
X015370Y029310
X015450Y017470
X015530Y023530
X015570Y005280
X015600Y008750
X015600Y008000
X015600Y007150
X015600Y006350
X015640Y009860
X015700Y010760
X015800Y011330
X015870Y017230
X015940Y023540
X016110Y033170
X016130Y031050
X016150Y014250
X016150Y012150
X016170Y026870
X016170Y024740
X016180Y017970
X016190Y024330
X016190Y020570
X016220Y018410
X016350Y023400
X016400Y002810
X016710Y007610
X016730Y026560
X016730Y007020
X016740Y032870
X016740Y020260
X016750Y025060
X016750Y012460
X016760Y031370
X016760Y018760
X016760Y008080
X016780Y013940
X016810Y006370
X016860Y024090
X016900Y010580
X017060Y008490
X017080Y008140
X017090Y008810
X017110Y005810
X017430Y008580
X017570Y008920
X017580Y009340
X017610Y007580
X017620Y007240
X017720Y023650
X017800Y006860
X017890Y009560
X018000Y029890
X018030Y030600
X018280Y009960
X018330Y030990
X018380Y023710
X018400Y030210
X018410Y024030
X018410Y019850
X018500Y008560
X018500Y007870
X018550Y007170
X018730Y003240
X019200Y019160
X019200Y018730
X019210Y018210
X019210Y008560
X019360Y007880
X019390Y019920
X019690Y023850
X019740Y020070
X019780Y003430
X019940Y023590
X020000Y034940
X020000Y020300
X020030Y035690
X020200Y035320
X020300Y008920
X020310Y004130
X020420Y034950
X020430Y035690
X020680Y026910
X020780Y013050
X020860Y027200
X020900Y028010
X020990Y012430
X021010Y013310
X021070Y006210
X021170Y025970
X021170Y025650
X021180Y023890
X021180Y022930
X021180Y022470
X021180Y021520
X021180Y020340
X021180Y019360
X021210Y019880
X021360Y021830
X021370Y023290
X021380Y025000
X021380Y024390
X021380Y009720
X021510Y013150
X021510Y008170
X021550Y012640
X021700Y025000
X021700Y024390
X021730Y023290
X021730Y021840
X021760Y022700
X021760Y020930
X021810Y011800
X021840Y013320
X021870Y026210
X021870Y025880
X022030Y027650
X022180Y008930
X022210Y026210
X022210Y025890
X022210Y020310
X022340Y019170
X022350Y022420
X022360Y021200
X022390Y009470
X022480Y010640
X022520Y008840
X022650Y035720
X022650Y035320
X022650Y034940
X022680Y022420
X022680Y021200
X022760Y023620
X022770Y010040
X022810Y026470
X022850Y025870
X022880Y019720
X022880Y019390
X023030Y020450
X023030Y020080
X023150Y026470
X023280Y034670
X023287Y010820
X023330Y008430
X023400Y007900
X023510Y020470
X023630Y034300
X023680Y003770
X023720Y026210
X023720Y025890
X023720Y019980
X023720Y019170
X023860Y025020
X023877Y011890
X023880Y011490
X023890Y013080
X023890Y012670
X023890Y012280
X023890Y011090
X023980Y026480
X024010Y034680
X024090Y014320
X024130Y004130
X024160Y020510
X024170Y034220
X024170Y025010
X024300Y026480
X024330Y019790
X024390Y033680
X024450Y008600
X024470Y009840
X024500Y034580
X024500Y025810
X024500Y020510
X024550Y019170
X024630Y021270
X024870Y019170
X024890Y033700
X024960Y025290
X025030Y009340
X025080Y012280
X025080Y011370
X025130Y026500
X025130Y021270
X025240Y007070
X025330Y029780
X025410Y026320
X025430Y008690
X025510Y019720
X025510Y019400
X025520Y012220
X025530Y013290
X025670Y009950
X025700Y026490
X025730Y012470
X025780Y013800
X025800Y019720
X025800Y019400
X025800Y017190
X025980Y009360
X026120Y028530
X026300Y027460
X026310Y027800
X026340Y026210
X026340Y025890
X026380Y028260
X026400Y009330
X026440Y033320
X026480Y019150
X026570Y007860
X026590Y013800
X026670Y012860
X026670Y012060
X026670Y011260
X026680Y019820
X026700Y026210
X026700Y025890
X026710Y021690
X026750Y031430
X026780Y009960
X026830Y024830
X026860Y025390
X026860Y015180
X026900Y019140
X026940Y017340
X026950Y022760
X026980Y009330
X026980Y007410
X027130Y025120
X027130Y024530
X027150Y032500
X027240Y017750
X027250Y008350
X027260Y015580
X027270Y008780
X027310Y022760
X027360Y022080
X027380Y025410
X027390Y024810
X027460Y026470
X027460Y019160
X027470Y012860
X027470Y012060
X027470Y011260
X027500Y028790
X027590Y010090
X027620Y014020
X027680Y029520
X027730Y009320
X027840Y022500
X027860Y023740
X027890Y024530
X027890Y021020
X027900Y025600
X027900Y014210
X027910Y019320
X027910Y014530
X027910Y007880
X027940Y008840
X027950Y035340
X027950Y030580
X028060Y035690
X028110Y009400
X028120Y031430
X028130Y032030
X028210Y021010
X028270Y030550
X028270Y025600
X028270Y024530
X028270Y012870
X028270Y012060
X028270Y011250
X028310Y035340
X028340Y020070
X028350Y019670
X028370Y033080
X028380Y021500
X028400Y021910
X028410Y035720
X028440Y017770
X028450Y026260
X028450Y025260
X028450Y023890
X028460Y023450
X028460Y023040
X028460Y022720
X028540Y013810
X028590Y032790
X028590Y014560
X028600Y032030
X028600Y031430
X028670Y035330
X028760Y035710
X028760Y009380
X028810Y033080
X028850Y014290
X028910Y030530
X029020Y029690
X029040Y035330
X029060Y032030
X029060Y031430
X029130Y035680
X029190Y010590
X029210Y013540
X029230Y030560
X029420Y035330
X029450Y008280
X029570Y019970
X029570Y019090
X029570Y008820
X029580Y011520
X029580Y007880
X029590Y012580
X029690Y028750
X029690Y028320
X029720Y019600
X029930Y018500
X029950Y010790
X030020Y014350
X030070Y013290
X030200Y033360
X030240Y031460
X030340Y009470
X030670Y010870
X030750Y028750
X030760Y028310
X031020Y029400
X031230Y014080
X031260Y008950
X031310Y013150
X031690Y014440
X031860Y029050
X031870Y029550
X032060Y029300
X032060Y028820
X032500Y014570
X032500Y013530
X032570Y024090
X032580Y034700
X032590Y033780
X032820Y020500
X032900Y034310
X033070Y024090
X033120Y018780
X033310Y034690
X033550Y020550
X033570Y034270
X033580Y024090
X033760Y020230
X033940Y034670
X034040Y024090
X034040Y017690
X034080Y020580
X034180Y020220
X034320Y018120
X034400Y028800
X034430Y029560
X034510Y016070
X034640Y029150
X034730Y024830
X034800Y016460
X034850Y029570
X034870Y028820
X034880Y032300
X034900Y024450
X035070Y016050
X035150Y013250
X035150Y005000
X035320Y016600
X035730Y016600
X035790Y027850
X036260Y032780
X036280Y028090
X037500Y033034
X037550Y029734
X037660Y017220
X037850Y033334
X037850Y029434
X037850Y005950
X037940Y016880
X037950Y014050
X038150Y029784
X038200Y033034
X038210Y027630
X038700Y026940
X038700Y021870
X038740Y021090
X038770Y027410
X038800Y005950
X038940Y022680
X039000Y014050
X039100Y017900
X039500Y017900
X040350Y027160
X041210Y023600
X042740Y018760
X042750Y025940
X043430Y026570
X043460Y016480
X044300Y005500
X044750Y023750
X045250Y020250
X045250Y017950
X045300Y025700
X045300Y014700
T148
X038200Y012450
X038200Y011650
X038200Y010850
X038200Y009250
X038200Y008450
X038200Y007650
X039200Y012050
X039200Y011250
X039200Y010450
X039200Y009650
X039200Y008850
X039200Y008050
T141
X039800Y023850
X039800Y023062
X039800Y022275
X039800Y021487
X039800Y020700
X039800Y019913
X039800Y019125
X040587Y023850
X040587Y023062
X040587Y022275
X040587Y021487
X040587Y020700
X040587Y019913
X040587Y019125
T140
X036000Y025000
X036000Y024000
X036000Y023000
X036000Y022000
X036000Y021000
X036000Y020000
X036000Y019000
X036000Y018000
X037000Y025000
X037000Y024000
X037000Y023000
X037000Y022000
X037000Y021000
X037000Y020000
X037000Y019000
X037000Y018000
T147
X043300Y007090
X044300Y013010
X044300Y007090
X045300Y013010
X045300Y007090
T143
X041800Y013510
X041800Y006590
X045819Y030500
T146
X003250Y035750
X003250Y003250
X043150Y035750
X043150Y003250
T144
X044638Y030500
T142
X045032Y032272
X045032Y028728
T145
X042276Y030500
T149
X041800Y011950
X041800Y008150
M30
