G04 start of page 12 for group -4015 idx -4015 *
G04 Title: GNSS Firehose, toppaste *
G04 Creator: pcb 20140316 *
G04 CreationDate: Tue 12 May 2015 06:45:23 AM GMT UTC *
G04 For: pmonta *
G04 Format: Gerber/RS-274X *
G04 PCB-Dimensions (mil): 4640.00 3900.00 *
G04 PCB-Coordinate-Origin: lower left *
%MOIN*%
%FSLAX25Y25*%
%LNTOPPASTE*%
%ADD238R,0.0370X0.0370*%
%ADD237R,0.0300X0.0300*%
%ADD236R,0.0260X0.0260*%
%ADD235R,0.0130X0.0130*%
%ADD234R,0.0827X0.0827*%
%ADD233R,0.0340X0.0340*%
%ADD232R,0.0394X0.0394*%
%ADD231R,0.0280X0.0280*%
%ADD230R,0.0160X0.0160*%
%ADD229R,0.0402X0.0402*%
%ADD228R,0.0118X0.0118*%
%ADD227R,0.0965X0.0965*%
%ADD226R,0.0295X0.0295*%
%ADD225R,0.0591X0.0591*%
%ADD224C,0.0200*%
%ADD223R,0.0512X0.0512*%
%ADD222C,0.0001*%
%ADD221R,0.0098X0.0098*%
%ADD220R,0.0200X0.0200*%
G54D220*X241674Y111200D02*X241874D01*
X245474D02*X245674D01*
X241774Y118800D02*X241974D01*
X245574D02*X245774D01*
X241774Y122500D02*X241974D01*
X245574D02*X245774D01*
X241674Y126300D02*X241874D01*
X245474D02*X245674D01*
X241674Y130200D02*X241874D01*
X245474D02*X245674D01*
X241748Y115000D02*X241948D01*
X245548D02*X245748D01*
X293026Y78500D02*X293226D01*
X289226D02*X289426D01*
X281600Y78400D02*X281800D01*
X285400D02*X285600D01*
G54D221*X287003Y109771D02*X288381D01*
X287003Y111740D02*X288381D01*
X287003Y113709D02*X288381D01*
X287003Y115678D02*X288381D01*
X287003Y117647D02*X288381D01*
X287003Y119616D02*X288381D01*
X287003Y121585D02*X288381D01*
X287003Y123554D02*X288381D01*
X287003Y125523D02*X288381D01*
X287003Y127492D02*X288381D01*
X287003Y129461D02*X288381D01*
X287003Y131430D02*X288381D01*
X261019Y131429D02*X262397D01*
X261019Y129460D02*X262397D01*
X261019Y127491D02*X262397D01*
X261019Y125522D02*X262397D01*
X261019Y123553D02*X262397D01*
X261019Y121584D02*X262397D01*
X261019Y119615D02*X262397D01*
X261019Y117646D02*X262397D01*
X261019Y115677D02*X262397D01*
X261019Y113708D02*X262397D01*
X261019Y111739D02*X262397D01*
X261019Y109770D02*X262397D01*
X285529Y134281D02*Y132903D01*
X283560Y134281D02*Y132903D01*
X281591Y134281D02*Y132903D01*
X279622Y134281D02*Y132903D01*
X277653Y134281D02*Y132903D01*
X275684Y134281D02*Y132903D01*
X273715Y134281D02*Y132903D01*
X271746Y134281D02*Y132903D01*
X269777Y134281D02*Y132903D01*
X267808Y134281D02*Y132903D01*
X265839Y134281D02*Y132903D01*
X263870Y134281D02*Y132903D01*
X263871Y108297D02*Y106919D01*
X265840Y108297D02*Y106919D01*
X267809Y108297D02*Y106919D01*
X269778Y108297D02*Y106919D01*
X271747Y108297D02*Y106919D01*
X273716Y108297D02*Y106919D01*
X275685Y108297D02*Y106919D01*
X277654Y108297D02*Y106919D01*
X279623Y108297D02*Y106919D01*
X281592Y108297D02*Y106919D01*
X283561Y108297D02*Y106919D01*
X285530Y108297D02*Y106919D01*
G54D222*G36*
X266950Y128350D02*Y121850D01*
X273450D01*
Y128350D01*
X266950D01*
G37*
G36*
Y119350D02*Y112850D01*
X273450D01*
Y119350D01*
X266950D01*
G37*
G36*
X275950Y128350D02*Y121850D01*
X282450D01*
Y128350D01*
X275950D01*
G37*
G36*
Y119350D02*Y112850D01*
X282450D01*
Y119350D01*
X275950D01*
G37*
G54D220*X446426Y187500D02*X446626D01*
X450226D02*X450426D01*
X446500Y164000D02*X446700D01*
X450300D02*X450500D01*
X300926Y287400D02*X301126D01*
X304726D02*X304926D01*
X292674D02*X292874D01*
X288874D02*X289074D01*
X292700Y283200D02*X292900D01*
X288900D02*X289100D01*
X301100D02*X301300D01*
X304900D02*X305100D01*
X446574Y241500D02*X446774D01*
X450374D02*X450574D01*
G54D223*X326695Y294555D02*Y289045D01*
X338505Y294555D02*Y289045D01*
G54D224*X270100Y310900D03*
G54D220*X264900Y297800D02*Y297600D01*
Y301600D02*Y301400D01*
X256200Y297800D02*X256400D01*
X260000D02*X260200D01*
G54D223*X231545Y336605D02*X237055D01*
X231545Y324795D02*X237055D01*
G54D225*X261187Y322921D02*Y313079D01*
X247013Y322921D02*Y313079D01*
G54D224*X295500Y301800D03*
X275900Y302200D03*
G54D221*X279009Y310605D02*Y308833D01*
X280978Y310605D02*Y308833D01*
X282947Y310605D02*Y308833D01*
X284916Y310605D02*Y308833D01*
X286885Y310605D02*Y308833D01*
X288854Y310605D02*Y308833D01*
X290823Y310605D02*Y308833D01*
X292792Y310605D02*Y308833D01*
X292791Y325566D02*Y323794D01*
X290822Y325566D02*Y323794D01*
X288853Y325566D02*Y323794D01*
X286884Y325566D02*Y323794D01*
X284915Y325566D02*Y323794D01*
X282946Y325566D02*Y323794D01*
X280977Y325566D02*Y323794D01*
X279008Y325566D02*Y323794D01*
X294463Y312278D02*X296235D01*
X294463Y314247D02*X296235D01*
X294463Y316216D02*X296235D01*
X294463Y318185D02*X296235D01*
X294463Y320154D02*X296235D01*
X294463Y322123D02*X296235D01*
X275565Y322122D02*X277337D01*
X275565Y320153D02*X277337D01*
X275565Y318184D02*X277337D01*
X275565Y316215D02*X277337D01*
X275565Y314246D02*X277337D01*
X275565Y312277D02*X277337D01*
G54D222*G36*
X280950Y319350D02*Y315050D01*
X285250D01*
Y319350D01*
X280950D01*
G37*
G36*
X286550D02*Y315050D01*
X290850D01*
Y319350D01*
X286550D01*
G37*
G54D220*X304300Y301700D02*Y301500D01*
Y297900D02*Y297700D01*
G54D226*X279808Y295341D02*X280792D01*
X279808Y300459D02*X280792D01*
G54D220*X287400Y296800D02*Y296600D01*
Y300600D02*Y300400D01*
G54D227*X255393Y345200D02*X258935D01*
X275865D02*X279407D01*
G54D225*X304791Y58900D02*X320539D01*
X271326D02*X287074D01*
G54D220*X59200Y92100D02*X59400D01*
X63000D02*X63200D01*
G54D226*X73241Y132492D02*Y131508D01*
X78359Y132492D02*Y131508D01*
X62608Y81741D02*X63592D01*
X62608Y86859D02*X63592D01*
G54D220*X76900Y61026D02*Y60826D01*
Y64826D02*Y64626D01*
X146700Y46026D02*Y45826D01*
Y49826D02*Y49626D01*
G54D221*X126388Y90267D02*X127766D01*
X126388Y88298D02*X127766D01*
X126388Y86329D02*X127766D01*
X126388Y84360D02*X127766D01*
X126388Y82391D02*X127766D01*
X126388Y80422D02*X127766D01*
X126388Y78453D02*X127766D01*
X126388Y76484D02*X127766D01*
X126388Y74515D02*X127766D01*
X126388Y72546D02*X127766D01*
X126388Y70577D02*X127766D01*
X126388Y68608D02*X127766D01*
X126388Y66639D02*X127766D01*
X126388Y64670D02*X127766D01*
X126388Y62701D02*X127766D01*
X126388Y60732D02*X127766D01*
X161034Y60733D02*X162412D01*
X161034Y62702D02*X162412D01*
X161034Y64671D02*X162412D01*
X161034Y66640D02*X162412D01*
X161034Y68609D02*X162412D01*
X161034Y70578D02*X162412D01*
X161034Y72547D02*X162412D01*
X161034Y74516D02*X162412D01*
X161034Y76485D02*X162412D01*
X161034Y78454D02*X162412D01*
X161034Y80423D02*X162412D01*
X161034Y82392D02*X162412D01*
X161034Y84361D02*X162412D01*
X161034Y86330D02*X162412D01*
X161034Y88299D02*X162412D01*
X161034Y90268D02*X162412D01*
X129633Y58866D02*Y57488D01*
X131602Y58866D02*Y57488D01*
X133571Y58866D02*Y57488D01*
X135540Y58866D02*Y57488D01*
X137509Y58866D02*Y57488D01*
X139478Y58866D02*Y57488D01*
X141447Y58866D02*Y57488D01*
X143416Y58866D02*Y57488D01*
X145385Y58866D02*Y57488D01*
X147354Y58866D02*Y57488D01*
X149323Y58866D02*Y57488D01*
X151292Y58866D02*Y57488D01*
X153261Y58866D02*Y57488D01*
X155230Y58866D02*Y57488D01*
X157199Y58866D02*Y57488D01*
X159168Y58866D02*Y57488D01*
X159167Y93512D02*Y92134D01*
X157198Y93512D02*Y92134D01*
X155229Y93512D02*Y92134D01*
X153260Y93512D02*Y92134D01*
X151291Y93512D02*Y92134D01*
X149322Y93512D02*Y92134D01*
X147353Y93512D02*Y92134D01*
X145384Y93512D02*Y92134D01*
X143415Y93512D02*Y92134D01*
X141446Y93512D02*Y92134D01*
X139477Y93512D02*Y92134D01*
X137508Y93512D02*Y92134D01*
X135539Y93512D02*Y92134D01*
X133570Y93512D02*Y92134D01*
X131601Y93512D02*Y92134D01*
X129632Y93512D02*Y92134D01*
G54D222*G36*
X133600Y86300D02*Y80300D01*
X139600D01*
Y86300D01*
X133600D01*
G37*
G36*
X141400D02*Y80300D01*
X147400D01*
Y86300D01*
X141400D01*
G37*
G36*
X149200D02*Y80300D01*
X155200D01*
Y86300D01*
X149200D01*
G37*
G36*
X133600Y78500D02*Y72500D01*
X139600D01*
Y78500D01*
X133600D01*
G37*
G36*
X141400D02*Y72500D01*
X147400D01*
Y78500D01*
X141400D01*
G37*
G36*
X149200D02*Y72500D01*
X155200D01*
Y78500D01*
X149200D01*
G37*
G36*
X133600Y70700D02*Y64700D01*
X139600D01*
Y70700D01*
X133600D01*
G37*
G36*
X141400D02*Y64700D01*
X147400D01*
Y70700D01*
X141400D01*
G37*
G36*
X149200D02*Y64700D01*
X155200D01*
Y70700D01*
X149200D01*
G37*
G54D220*X45600Y312000D02*X45800D01*
X49400D02*X49600D01*
G54D226*X31008Y306941D02*X31992D01*
X31008Y312059D02*X31992D01*
G54D220*X46000Y249000D02*X46200D01*
X49800D02*X50000D01*
G54D226*X31508Y243941D02*X32492D01*
X31508Y249059D02*X32492D01*
G54D220*X46000Y185000D02*X46200D01*
X49800D02*X50000D01*
G54D226*X31508Y179941D02*X32492D01*
X31508Y185059D02*X32492D01*
G54D228*X129131Y205829D02*X130895D01*
X129131Y203860D02*X131295D01*
X129131Y201891D02*X131295D01*
X129131Y199922D02*X131295D01*
X129131Y197953D02*X131295D01*
X129131Y195984D02*X131295D01*
X129131Y194015D02*X131295D01*
X129131Y192046D02*X131295D01*
X129131Y190077D02*X131295D01*
X129131Y188108D02*X131295D01*
X129131Y186139D02*X131295D01*
X129131Y184170D02*X130895D01*
X156105Y184171D02*X157869D01*
X155705Y186140D02*X157869D01*
X155705Y188109D02*X157869D01*
X155705Y190078D02*X157869D01*
X155705Y192047D02*X157869D01*
X155705Y194016D02*X157869D01*
X155705Y195985D02*X157869D01*
X155705Y197954D02*X157869D01*
X155705Y199923D02*X157869D01*
X155705Y201892D02*X157869D01*
X155705Y203861D02*X157869D01*
X156105Y205830D02*X157869D01*
X132671Y182395D02*Y180631D01*
X134640Y182795D02*Y180631D01*
X136609Y182795D02*Y180631D01*
X138578Y182795D02*Y180631D01*
X140547Y182795D02*Y180631D01*
X142516Y182795D02*Y180631D01*
X144485Y182795D02*Y180631D01*
X146454Y182795D02*Y180631D01*
X148423Y182795D02*Y180631D01*
X150392Y182795D02*Y180631D01*
X152361Y182795D02*Y180631D01*
X154330Y182395D02*Y180631D01*
X154329Y209369D02*Y207605D01*
X152360Y209369D02*Y207205D01*
X150391Y209369D02*Y207205D01*
X148422Y209369D02*Y207205D01*
X146453Y209369D02*Y207205D01*
X144484Y209369D02*Y207205D01*
X142515Y209369D02*Y207205D01*
X140546Y209369D02*Y207205D01*
X138577Y209369D02*Y207205D01*
X136608Y209369D02*Y207205D01*
X134639Y209369D02*Y207205D01*
X132670Y209369D02*Y207605D01*
G54D222*G36*
X135500Y203000D02*Y198400D01*
X140100D01*
Y203000D01*
X135500D01*
G37*
G36*
X141200D02*Y198400D01*
X145800D01*
Y203000D01*
X141200D01*
G37*
G36*
X146900D02*Y198400D01*
X151500D01*
Y203000D01*
X146900D01*
G37*
G36*
X135500Y197300D02*Y192700D01*
X140100D01*
Y197300D01*
X135500D01*
G37*
G36*
X141200D02*Y192700D01*
X145800D01*
Y197300D01*
X141200D01*
G37*
G36*
X146900D02*Y192700D01*
X151500D01*
Y197300D01*
X146900D01*
G37*
G36*
X135500Y191600D02*Y187000D01*
X140100D01*
Y191600D01*
X135500D01*
G37*
G36*
X141200D02*Y187000D01*
X145800D01*
Y191600D01*
X141200D01*
G37*
G36*
X146900D02*Y187000D01*
X151500D01*
Y191600D01*
X146900D01*
G37*
G54D220*X68100Y128200D02*Y128000D01*
Y132000D02*Y131800D01*
X83400Y128200D02*Y128000D01*
Y132000D02*Y131800D01*
G54D226*X95759Y94392D02*Y93408D01*
X90641Y94392D02*Y93408D01*
X95859Y81892D02*Y80908D01*
X90741Y81892D02*Y80908D01*
X95859Y64992D02*Y64008D01*
X90741Y64992D02*Y64008D01*
G54D224*X118700Y89700D03*
X117600Y85900D03*
X121100Y62200D03*
G54D220*X25000Y321100D02*Y320900D01*
Y324900D02*Y324700D01*
G54D224*X111800Y311700D03*
G54D220*X26000Y258100D02*Y257900D01*
Y261900D02*Y261700D01*
G54D224*X111600Y247900D03*
G54D220*X25500Y195100D02*Y194900D01*
Y198900D02*Y198700D01*
G54D224*X111400Y185100D03*
G54D220*X176000Y99600D02*X176200D01*
X179800D02*X180000D01*
X151300Y113300D02*X151500D01*
X155100D02*X155300D01*
X150500Y109300D02*X150700D01*
X146700D02*X146900D01*
G54D224*X129100Y99900D03*
X125100Y101400D03*
G54D220*X101100Y90000D02*Y89800D01*
Y93800D02*Y93600D01*
X86100Y90300D02*Y90100D01*
Y94100D02*Y93900D01*
X101226Y77474D02*Y77274D01*
Y81274D02*Y81074D01*
X86126Y78174D02*Y77974D01*
Y81974D02*Y81774D01*
X101400Y61200D02*Y61000D01*
Y65000D02*Y64800D01*
X85900Y61000D02*Y60800D01*
Y64800D02*Y64600D01*
G54D224*X272000Y180600D03*
X268700D03*
X260800Y180700D03*
G54D220*X192900Y306200D02*X193100D01*
X196700D02*X196900D01*
X192900Y300200D02*X193100D01*
X196700D02*X196900D01*
X180800Y250300D02*X181000D01*
X177000D02*X177200D01*
X185626Y245200D02*X185826D01*
X181826D02*X182026D01*
G54D224*X278800Y100200D03*
X302400Y311500D03*
G54D223*X218845Y330695D02*X224355D01*
X218845Y342505D02*X224355D01*
X209695Y356155D02*Y350645D01*
X221505Y356155D02*Y350645D01*
G54D220*X33200Y132000D02*X33400D01*
X37000D02*X37200D01*
X28200Y69000D02*X28400D01*
X32000D02*X32200D01*
G54D229*X94004Y288500D02*X111996D01*
X94004Y225500D02*X111996D01*
X94004Y162500D02*X111996D01*
G54D226*X187159Y52592D02*Y51608D01*
X182041Y52592D02*Y51608D01*
G54D224*X123200Y54300D03*
X122400Y59200D03*
X136200Y49300D03*
X139900Y46200D03*
X143400Y49000D03*
X143600Y44800D03*
X171800Y72800D03*
Y75800D03*
X159800Y51800D03*
X163600Y52000D03*
X164800Y101200D03*
X161000D03*
G54D220*X47400Y128126D02*Y127926D01*
Y131926D02*Y131726D01*
X59900Y128100D02*Y127900D01*
Y131900D02*Y131700D01*
X51600Y131900D02*X51800D01*
X55400D02*X55600D01*
X295300Y91100D02*Y90900D01*
Y94900D02*Y94700D01*
X261074Y83100D02*X261274D01*
X264874D02*X265074D01*
X276700Y83400D02*X276900D01*
X280500D02*X280700D01*
G54D223*X256757Y73193D02*Y72407D01*
X263843Y73193D02*Y72407D01*
G54D220*X281800Y96800D02*Y96600D01*
Y100600D02*Y100400D01*
G54D226*X269941Y78592D02*Y77608D01*
X275059Y78592D02*Y77608D01*
G54D220*X322074Y138874D02*Y138674D01*
Y135074D02*Y134874D01*
X309400Y130726D02*Y130526D01*
Y134526D02*Y134326D01*
Y138274D02*Y138074D01*
Y142074D02*Y141874D01*
X303200Y105400D02*Y105200D01*
Y109200D02*Y109000D01*
Y97600D02*Y97400D01*
Y101400D02*Y101200D01*
X174300Y83026D02*Y82826D01*
Y79226D02*Y79026D01*
G54D226*X178708Y85059D02*X179692D01*
X178708Y79941D02*X179692D01*
G54D220*X179200Y92874D02*Y92674D01*
Y89074D02*Y88874D01*
G54D228*X129131Y268829D02*X130895D01*
X129131Y266860D02*X131295D01*
X129131Y264891D02*X131295D01*
X129131Y262922D02*X131295D01*
X129131Y260953D02*X131295D01*
X129131Y258984D02*X131295D01*
X129131Y257015D02*X131295D01*
X129131Y255046D02*X131295D01*
X129131Y253077D02*X131295D01*
X129131Y251108D02*X131295D01*
X129131Y249139D02*X131295D01*
X129131Y247170D02*X130895D01*
X156105Y247171D02*X157869D01*
X155705Y249140D02*X157869D01*
X155705Y251109D02*X157869D01*
X155705Y253078D02*X157869D01*
X155705Y255047D02*X157869D01*
X155705Y257016D02*X157869D01*
X155705Y258985D02*X157869D01*
X155705Y260954D02*X157869D01*
X155705Y262923D02*X157869D01*
X155705Y264892D02*X157869D01*
X155705Y266861D02*X157869D01*
X156105Y268830D02*X157869D01*
X132671Y245395D02*Y243631D01*
X134640Y245795D02*Y243631D01*
X136609Y245795D02*Y243631D01*
X138578Y245795D02*Y243631D01*
X140547Y245795D02*Y243631D01*
X142516Y245795D02*Y243631D01*
X144485Y245795D02*Y243631D01*
X146454Y245795D02*Y243631D01*
X148423Y245795D02*Y243631D01*
X150392Y245795D02*Y243631D01*
X152361Y245795D02*Y243631D01*
X154330Y245395D02*Y243631D01*
X154329Y272369D02*Y270605D01*
X152360Y272369D02*Y270205D01*
X150391Y272369D02*Y270205D01*
X148422Y272369D02*Y270205D01*
X146453Y272369D02*Y270205D01*
X144484Y272369D02*Y270205D01*
X142515Y272369D02*Y270205D01*
X140546Y272369D02*Y270205D01*
X138577Y272369D02*Y270205D01*
X136608Y272369D02*Y270205D01*
X134639Y272369D02*Y270205D01*
X132670Y272369D02*Y270605D01*
G54D222*G36*
X135500Y266000D02*Y261400D01*
X140100D01*
Y266000D01*
X135500D01*
G37*
G36*
X141200D02*Y261400D01*
X145800D01*
Y266000D01*
X141200D01*
G37*
G36*
X146900D02*Y261400D01*
X151500D01*
Y266000D01*
X146900D01*
G37*
G36*
X135500Y260300D02*Y255700D01*
X140100D01*
Y260300D01*
X135500D01*
G37*
G36*
X141200D02*Y255700D01*
X145800D01*
Y260300D01*
X141200D01*
G37*
G36*
X146900D02*Y255700D01*
X151500D01*
Y260300D01*
X146900D01*
G37*
G36*
X135500Y254600D02*Y250000D01*
X140100D01*
Y254600D01*
X135500D01*
G37*
G36*
X141200D02*Y250000D01*
X145800D01*
Y254600D01*
X141200D01*
G37*
G36*
X146900D02*Y250000D01*
X151500D01*
Y254600D01*
X146900D01*
G37*
G54D220*X131800Y233300D02*Y233100D01*
Y237100D02*Y236900D01*
X208400Y277100D02*X208600D01*
X212200D02*X212400D01*
X186774Y306326D02*Y306126D01*
Y310126D02*Y309926D01*
X187300Y298600D02*Y298400D01*
Y302400D02*Y302200D01*
G54D228*X88508Y326907D02*X91066D01*
X88508Y324938D02*X91066D01*
X88508Y322969D02*X91066D01*
X88508Y321000D02*X91066D01*
X88508Y319031D02*X91066D01*
X88508Y317062D02*X91066D01*
X88508Y315093D02*X91066D01*
X106933D02*X109491D01*
X106933Y317062D02*X109491D01*
X106933Y319031D02*X109491D01*
X106933Y321000D02*X109491D01*
X106933Y322969D02*X109491D01*
X106933Y324938D02*X109491D01*
X106933Y326907D02*X109491D01*
X93093Y313067D02*Y310509D01*
X95062Y313067D02*Y310509D01*
X97031Y313067D02*Y310509D01*
X99000Y313067D02*Y310509D01*
X100969Y313067D02*Y310509D01*
X102938Y313067D02*Y310509D01*
X104907Y313067D02*Y310509D01*
Y331492D02*Y328934D01*
X102938Y331492D02*Y328934D01*
X100969Y331492D02*Y328934D01*
X99000Y331492D02*Y328934D01*
X97031Y331492D02*Y328934D01*
X95062Y331492D02*Y328934D01*
X93093Y331492D02*Y328934D01*
G54D222*G36*
X95050Y324950D02*Y321550D01*
X98450D01*
Y324950D01*
X95050D01*
G37*
G36*
Y320450D02*Y317050D01*
X98450D01*
Y320450D01*
X95050D01*
G37*
G36*
X99550Y324950D02*Y321550D01*
X102950D01*
Y324950D01*
X99550D01*
G37*
G36*
Y320450D02*Y317050D01*
X102950D01*
Y320450D01*
X99550D01*
G37*
G54D220*X337826Y139200D02*X338026D01*
X341626D02*X341826D01*
X329300Y132800D02*X329500D01*
X333100D02*X333300D01*
X119800Y50500D02*Y50300D01*
Y54300D02*Y54100D01*
X116900Y93800D02*X117100D01*
X113100D02*X113300D01*
X109400D02*X109600D01*
X105600D02*X105800D01*
X116900Y81000D02*X117100D01*
X113100D02*X113300D01*
X109300D02*X109500D01*
X105500D02*X105700D01*
X116900Y64700D02*X117100D01*
X113100D02*X113300D01*
X109352D02*X109552D01*
X105552D02*X105752D01*
X118300Y77000D02*Y76800D01*
Y73200D02*Y73000D01*
X77000Y81974D02*Y81774D01*
Y78174D02*Y77974D01*
X77100Y90800D02*Y90600D01*
Y94600D02*Y94400D01*
G54D223*X102157Y50993D02*Y50207D01*
X109243Y50993D02*Y50207D01*
G54D220*X117600Y100300D02*X117800D01*
X121400D02*X121600D01*
X128500Y45900D02*Y45700D01*
Y49700D02*Y49500D01*
X132900Y45800D02*Y45600D01*
Y49600D02*Y49400D01*
X131900Y156800D02*Y156600D01*
Y153000D02*Y152800D01*
X167874Y121600D02*X168074D01*
X164074D02*X164274D01*
X168100Y142500D02*X168300D01*
X164300D02*X164500D01*
X132000Y107574D02*Y107374D01*
Y111374D02*Y111174D01*
X124800Y111674D02*Y111474D01*
Y115474D02*Y115274D01*
X125100Y153674D02*Y153474D01*
Y149874D02*Y149674D01*
X121000Y143600D02*X121200D01*
X124800D02*X125000D01*
X118400Y132900D02*X118600D01*
X122200D02*X122400D01*
X119900Y121800D02*X120100D01*
X123700D02*X123900D01*
X109374Y125300D02*X109574D01*
X113174D02*X113374D01*
X109500Y129000D02*X109700D01*
X113300D02*X113500D01*
X105400Y125300D02*Y125100D01*
Y129100D02*Y128900D01*
X109500Y136400D02*X109700D01*
X113300D02*X113500D01*
X109500Y140200D02*X109700D01*
X113300D02*X113500D01*
X105700Y136500D02*Y136300D01*
Y140300D02*Y140100D01*
G54D228*X129131Y142829D02*X130895D01*
X129131Y140860D02*X131295D01*
X129131Y138891D02*X131295D01*
X129131Y136922D02*X131295D01*
X129131Y134953D02*X131295D01*
X129131Y132984D02*X131295D01*
X129131Y131015D02*X131295D01*
X129131Y129046D02*X131295D01*
X129131Y127077D02*X131295D01*
X129131Y125108D02*X131295D01*
X129131Y123139D02*X131295D01*
X129131Y121170D02*X130895D01*
X156105Y121171D02*X157869D01*
X155705Y123140D02*X157869D01*
X155705Y125109D02*X157869D01*
X155705Y127078D02*X157869D01*
X155705Y129047D02*X157869D01*
X155705Y131016D02*X157869D01*
X155705Y132985D02*X157869D01*
X155705Y134954D02*X157869D01*
X155705Y136923D02*X157869D01*
X155705Y138892D02*X157869D01*
X155705Y140861D02*X157869D01*
X156105Y142830D02*X157869D01*
X132671Y119395D02*Y117631D01*
X134640Y119795D02*Y117631D01*
X136609Y119795D02*Y117631D01*
X138578Y119795D02*Y117631D01*
X140547Y119795D02*Y117631D01*
X142516Y119795D02*Y117631D01*
X144485Y119795D02*Y117631D01*
X146454Y119795D02*Y117631D01*
X148423Y119795D02*Y117631D01*
X150392Y119795D02*Y117631D01*
X152361Y119795D02*Y117631D01*
X154330Y119395D02*Y117631D01*
X154329Y146369D02*Y144605D01*
X152360Y146369D02*Y144205D01*
X150391Y146369D02*Y144205D01*
X148422Y146369D02*Y144205D01*
X146453Y146369D02*Y144205D01*
X144484Y146369D02*Y144205D01*
X142515Y146369D02*Y144205D01*
X140546Y146369D02*Y144205D01*
X138577Y146369D02*Y144205D01*
X136608Y146369D02*Y144205D01*
X134639Y146369D02*Y144205D01*
X132670Y146369D02*Y144605D01*
G54D222*G36*
X135500Y140000D02*Y135400D01*
X140100D01*
Y140000D01*
X135500D01*
G37*
G36*
X141200D02*Y135400D01*
X145800D01*
Y140000D01*
X141200D01*
G37*
G36*
X146900D02*Y135400D01*
X151500D01*
Y140000D01*
X146900D01*
G37*
G36*
X135500Y134300D02*Y129700D01*
X140100D01*
Y134300D01*
X135500D01*
G37*
G36*
X141200D02*Y129700D01*
X145800D01*
Y134300D01*
X141200D01*
G37*
G36*
X146900D02*Y129700D01*
X151500D01*
Y134300D01*
X146900D01*
G37*
G36*
X135500Y128600D02*Y124000D01*
X140100D01*
Y128600D01*
X135500D01*
G37*
G36*
X141200D02*Y124000D01*
X145800D01*
Y128600D01*
X141200D01*
G37*
G36*
X146900D02*Y124000D01*
X151500D01*
Y128600D01*
X146900D01*
G37*
G54D220*X44426Y69000D02*X44626D01*
X48226D02*X48426D01*
X187000Y59800D02*X187200D01*
X183200D02*X183400D01*
X184500Y64500D02*X184700D01*
X180700D02*X180900D01*
X182574Y72074D02*Y71874D01*
Y68274D02*Y68074D01*
X176700Y64400D02*X176900D01*
X172900D02*X173100D01*
X174948Y68400D02*X175148D01*
X171148D02*X171348D01*
X173000Y93300D02*X173200D01*
X169200D02*X169400D01*
X155600Y46500D02*Y46300D01*
Y50300D02*Y50100D01*
X157000Y105100D02*Y104900D01*
Y101300D02*Y101100D01*
X168200Y57000D02*Y56800D01*
Y60800D02*Y60600D01*
G54D230*X51800Y200100D02*X53700D01*
X51800Y197500D02*X53700D01*
X51800Y194900D02*X53700D01*
X59300D02*X61200D01*
X59300Y197500D02*X61200D01*
X59300Y200100D02*X61200D01*
G54D228*X88508Y200907D02*X91066D01*
X88508Y198938D02*X91066D01*
X88508Y196969D02*X91066D01*
X88508Y195000D02*X91066D01*
X88508Y193031D02*X91066D01*
X88508Y191062D02*X91066D01*
X88508Y189093D02*X91066D01*
X106933D02*X109491D01*
X106933Y191062D02*X109491D01*
X106933Y193031D02*X109491D01*
X106933Y195000D02*X109491D01*
X106933Y196969D02*X109491D01*
X106933Y198938D02*X109491D01*
X106933Y200907D02*X109491D01*
X93093Y187067D02*Y184509D01*
X95062Y187067D02*Y184509D01*
X97031Y187067D02*Y184509D01*
X99000Y187067D02*Y184509D01*
X100969Y187067D02*Y184509D01*
X102938Y187067D02*Y184509D01*
X104907Y187067D02*Y184509D01*
Y205492D02*Y202934D01*
X102938Y205492D02*Y202934D01*
X100969Y205492D02*Y202934D01*
X99000Y205492D02*Y202934D01*
X97031Y205492D02*Y202934D01*
X95062Y205492D02*Y202934D01*
X93093Y205492D02*Y202934D01*
G54D222*G36*
X95050Y198950D02*Y195550D01*
X98450D01*
Y198950D01*
X95050D01*
G37*
G36*
Y194450D02*Y191050D01*
X98450D01*
Y194450D01*
X95050D01*
G37*
G36*
X99550Y198950D02*Y195550D01*
X102950D01*
Y198950D01*
X99550D01*
G37*
G36*
Y194450D02*Y191050D01*
X102950D01*
Y194450D01*
X99550D01*
G37*
G54D230*X51800Y263100D02*X53700D01*
X51800Y260500D02*X53700D01*
X51800Y257900D02*X53700D01*
X59300D02*X61200D01*
X59300Y260500D02*X61200D01*
X59300Y263100D02*X61200D01*
G54D228*X88508Y263907D02*X91066D01*
X88508Y261938D02*X91066D01*
X88508Y259969D02*X91066D01*
X88508Y258000D02*X91066D01*
X88508Y256031D02*X91066D01*
X88508Y254062D02*X91066D01*
X88508Y252093D02*X91066D01*
X106933D02*X109491D01*
X106933Y254062D02*X109491D01*
X106933Y256031D02*X109491D01*
X106933Y258000D02*X109491D01*
X106933Y259969D02*X109491D01*
X106933Y261938D02*X109491D01*
X106933Y263907D02*X109491D01*
X93093Y250067D02*Y247509D01*
X95062Y250067D02*Y247509D01*
X97031Y250067D02*Y247509D01*
X99000Y250067D02*Y247509D01*
X100969Y250067D02*Y247509D01*
X102938Y250067D02*Y247509D01*
X104907Y250067D02*Y247509D01*
Y268492D02*Y265934D01*
X102938Y268492D02*Y265934D01*
X100969Y268492D02*Y265934D01*
X99000Y268492D02*Y265934D01*
X97031Y268492D02*Y265934D01*
X95062Y268492D02*Y265934D01*
X93093Y268492D02*Y265934D01*
G54D222*G36*
X95050Y261950D02*Y258550D01*
X98450D01*
Y261950D01*
X95050D01*
G37*
G36*
Y257450D02*Y254050D01*
X98450D01*
Y257450D01*
X95050D01*
G37*
G36*
X99550Y261950D02*Y258550D01*
X102950D01*
Y261950D01*
X99550D01*
G37*
G36*
Y257450D02*Y254050D01*
X102950D01*
Y257450D01*
X99550D01*
G37*
G54D230*X51800Y326100D02*X53700D01*
X51800Y323500D02*X53700D01*
X51800Y320900D02*X53700D01*
X59300D02*X61200D01*
X59300Y323500D02*X61200D01*
X59300Y326100D02*X61200D01*
G54D228*X129131Y331829D02*X130895D01*
X129131Y329860D02*X131295D01*
X129131Y327891D02*X131295D01*
X129131Y325922D02*X131295D01*
X129131Y323953D02*X131295D01*
X129131Y321984D02*X131295D01*
X129131Y320015D02*X131295D01*
X129131Y318046D02*X131295D01*
X129131Y316077D02*X131295D01*
X129131Y314108D02*X131295D01*
X129131Y312139D02*X131295D01*
X129131Y310170D02*X130895D01*
X156105Y310171D02*X157869D01*
X155705Y312140D02*X157869D01*
X155705Y314109D02*X157869D01*
X155705Y316078D02*X157869D01*
X155705Y318047D02*X157869D01*
X155705Y320016D02*X157869D01*
X155705Y321985D02*X157869D01*
X155705Y323954D02*X157869D01*
X155705Y325923D02*X157869D01*
X155705Y327892D02*X157869D01*
X155705Y329861D02*X157869D01*
X156105Y331830D02*X157869D01*
X132671Y308395D02*Y306631D01*
X134640Y308795D02*Y306631D01*
X136609Y308795D02*Y306631D01*
X138578Y308795D02*Y306631D01*
X140547Y308795D02*Y306631D01*
X142516Y308795D02*Y306631D01*
X144485Y308795D02*Y306631D01*
X146454Y308795D02*Y306631D01*
X148423Y308795D02*Y306631D01*
X150392Y308795D02*Y306631D01*
X152361Y308795D02*Y306631D01*
X154330Y308395D02*Y306631D01*
X154329Y335369D02*Y333605D01*
X152360Y335369D02*Y333205D01*
X150391Y335369D02*Y333205D01*
X148422Y335369D02*Y333205D01*
X146453Y335369D02*Y333205D01*
X144484Y335369D02*Y333205D01*
X142515Y335369D02*Y333205D01*
X140546Y335369D02*Y333205D01*
X138577Y335369D02*Y333205D01*
X136608Y335369D02*Y333205D01*
X134639Y335369D02*Y333205D01*
X132670Y335369D02*Y333605D01*
G54D222*G36*
X135500Y329000D02*Y324400D01*
X140100D01*
Y329000D01*
X135500D01*
G37*
G36*
X141200D02*Y324400D01*
X145800D01*
Y329000D01*
X141200D01*
G37*
G36*
X146900D02*Y324400D01*
X151500D01*
Y329000D01*
X146900D01*
G37*
G36*
X135500Y323300D02*Y318700D01*
X140100D01*
Y323300D01*
X135500D01*
G37*
G36*
X141200D02*Y318700D01*
X145800D01*
Y323300D01*
X141200D01*
G37*
G36*
X146900D02*Y318700D01*
X151500D01*
Y323300D01*
X146900D01*
G37*
G36*
X135500Y317600D02*Y313000D01*
X140100D01*
Y317600D01*
X135500D01*
G37*
G36*
X141200D02*Y313000D01*
X145800D01*
Y317600D01*
X141200D01*
G37*
G36*
X146900D02*Y313000D01*
X151500D01*
Y317600D01*
X146900D01*
G37*
G54D220*X38500Y317400D02*Y317200D01*
Y321200D02*Y321000D01*
X61100Y337300D02*X61300D01*
X64900D02*X65100D01*
X31000Y321000D02*X31200D01*
X34800D02*X35000D01*
X61000Y341000D02*X61200D01*
X64800D02*X65000D01*
X59900Y315100D02*X60100D01*
X56100D02*X56300D01*
X61000Y330000D02*Y329800D01*
Y333800D02*Y333600D01*
X42000Y321000D02*X42200D01*
X45800D02*X46000D01*
X42300Y258000D02*X42500D01*
X46100D02*X46300D01*
X31300D02*X31500D01*
X35100D02*X35300D01*
X38800Y254300D02*Y254100D01*
Y258100D02*Y257900D01*
X61200Y267000D02*Y266800D01*
Y270800D02*Y270600D01*
X60900Y278100D02*X61100D01*
X64700D02*X64900D01*
X61000Y274300D02*X61200D01*
X64800D02*X65000D01*
X66100Y262900D02*X66300D01*
X69900D02*X70100D01*
X72900Y259400D02*X73100D01*
X76700D02*X76900D01*
X80500Y258300D02*X80700D01*
X84300D02*X84500D01*
X102300Y273300D02*X102500D01*
X106100D02*X106300D01*
X109350Y276900D02*X109550D01*
X113150D02*X113350D01*
X102300Y230600D02*Y230400D01*
Y234400D02*Y234200D01*
X94800Y236700D02*X95000D01*
X98600D02*X98800D01*
Y240400D02*X99000D01*
X95000D02*X95200D01*
X90500Y234000D02*Y233800D01*
Y237800D02*Y237600D01*
X70100Y242800D02*Y242600D01*
Y246600D02*Y246400D01*
X84500Y276000D02*Y275800D01*
Y272200D02*Y272000D01*
X115400Y244700D02*Y244500D01*
Y248500D02*Y248300D01*
X80500Y249700D02*Y249500D01*
Y253500D02*Y253300D01*
X102800Y277600D02*X103000D01*
X99000D02*X99200D01*
X104300Y238100D02*Y237900D01*
Y241900D02*Y241700D01*
X80000Y263700D02*Y263500D01*
Y267500D02*Y267300D01*
X84000Y243600D02*Y243400D01*
Y247400D02*Y247200D01*
X31000Y194900D02*X31200D01*
X34800D02*X35000D01*
X42000D02*X42200D01*
X45800D02*X46000D01*
X38500Y191100D02*Y190900D01*
Y194900D02*Y194700D01*
X59900Y189100D02*X60100D01*
X56100D02*X56300D01*
X59900Y252000D02*X60100D01*
X56100D02*X56300D01*
X60900Y204200D02*Y204000D01*
Y208000D02*Y207800D01*
X60800Y211500D02*X61000D01*
X64600D02*X64800D01*
X61000Y215100D02*X61200D01*
X64800D02*X65000D01*
X66000Y200200D02*X66200D01*
X69800D02*X70000D01*
X73700Y205300D02*Y205100D01*
Y201500D02*Y201300D01*
X72400Y196600D02*X72600D01*
X76200D02*X76400D01*
X79900Y195300D02*X80100D01*
X83700D02*X83900D01*
X102300Y210300D02*X102500D01*
X106100D02*X106300D01*
X109600Y213700D02*X109800D01*
X113400D02*X113600D01*
X102100Y167400D02*Y167200D01*
Y171200D02*Y171000D01*
X94600Y173400D02*X94800D01*
X98400D02*X98600D01*
X99200Y177200D02*X99400D01*
X95400D02*X95600D01*
X90700Y171000D02*Y170800D01*
Y174800D02*Y174600D01*
X70200Y179900D02*Y179700D01*
Y183700D02*Y183500D01*
X108600Y171500D02*X108800D01*
X112400D02*X112600D01*
X66000Y326000D02*X66200D01*
X69800D02*X70000D01*
X121200Y332700D02*X121400D01*
X125000D02*X125200D01*
X120000Y311000D02*X120200D01*
X123800D02*X124000D01*
X87500Y243000D02*X87700D01*
X91300D02*X91500D01*
X118500Y259000D02*X118700D01*
X122300D02*X122500D01*
X121000Y269700D02*X121200D01*
X124800D02*X125000D01*
X120226Y247874D02*X120426D01*
X124026D02*X124226D01*
X124974Y237626D02*Y237426D01*
Y241426D02*Y241226D01*
X124926Y279574D02*Y279374D01*
Y275774D02*Y275574D01*
X168100Y268400D02*X168300D01*
X164300D02*X164500D01*
X168100Y247400D02*X168300D01*
X164300D02*X164500D01*
X129400Y281200D02*Y281000D01*
Y277400D02*Y277200D01*
X74600Y242900D02*Y242700D01*
Y246700D02*Y246500D01*
X111800Y238400D02*Y238200D01*
Y242200D02*Y242000D01*
X88000Y180300D02*X88200D01*
X91800D02*X92000D01*
X118800Y195900D02*X119000D01*
X122600D02*X122800D01*
X120900Y206900D02*X121100D01*
X124700D02*X124900D01*
X119900Y184800D02*X120100D01*
X123700D02*X123900D01*
X125000Y216852D02*Y216652D01*
Y213052D02*Y212852D01*
Y174600D02*Y174400D01*
Y178400D02*Y178200D01*
X132200Y170600D02*Y170400D01*
Y174400D02*Y174200D01*
X132000Y219800D02*Y219600D01*
Y216000D02*Y215800D01*
X168600Y184600D02*X168800D01*
X164800D02*X165000D01*
X168500Y205700D02*X168700D01*
X164700D02*X164900D01*
X111700Y175300D02*Y175100D01*
Y179100D02*Y178900D01*
X74400Y179900D02*Y179700D01*
Y183700D02*Y183500D01*
X118000Y329100D02*X118200D01*
X121800D02*X122000D01*
X118000Y325600D02*X118200D01*
X121800D02*X122000D01*
X118000Y318500D02*X118200D01*
X121800D02*X122000D01*
X118000Y315000D02*X118200D01*
X121800D02*X122000D01*
X118000Y266000D02*X118200D01*
X121800D02*X122000D01*
X118000Y262500D02*X118200D01*
X121800D02*X122000D01*
X118000Y255500D02*X118200D01*
X121800D02*X122000D01*
X118000Y252000D02*X118200D01*
X121800D02*X122000D01*
X94100Y232000D02*X94300D01*
X97900D02*X98100D01*
X94200Y168900D02*X94400D01*
X98000D02*X98200D01*
X117800Y203300D02*X118000D01*
X121600D02*X121800D01*
X118000Y199600D02*X118200D01*
X121800D02*X122000D01*
X117900Y192200D02*X118100D01*
X121700D02*X121900D01*
X117900Y188400D02*X118100D01*
X121700D02*X121900D01*
X109400Y339600D02*X109600D01*
X113200D02*X113400D01*
X102300Y336000D02*X102500D01*
X106100D02*X106300D01*
X72400Y322500D02*X72600D01*
X76200D02*X76400D01*
X102100Y293700D02*Y293500D01*
Y297500D02*Y297300D01*
X108600Y298500D02*X108800D01*
X112400D02*X112600D01*
X111700Y302600D02*Y302400D01*
Y306400D02*Y306200D01*
X74000Y330500D02*Y330300D01*
Y326700D02*Y326500D01*
X94600Y299000D02*X94800D01*
X98400D02*X98600D01*
X90500Y297000D02*Y296800D01*
Y300800D02*Y300600D01*
X94000Y294500D02*X94200D01*
X97800D02*X98000D01*
X84400Y306500D02*Y306300D01*
Y310300D02*Y310100D01*
X115400Y307600D02*Y307400D01*
Y311400D02*Y311200D01*
X84400Y338700D02*Y338500D01*
Y334900D02*Y334700D01*
X81500Y325500D02*Y325300D01*
Y329300D02*Y329100D01*
X105100Y301000D02*Y300800D01*
Y304800D02*Y304600D01*
X80900Y312700D02*Y312500D01*
Y316500D02*Y316300D01*
X102600Y339900D02*X102800D01*
X98800D02*X99000D01*
X167800Y310500D02*X168000D01*
X164000D02*X164200D01*
X167600Y331700D02*X167800D01*
X163800D02*X164000D01*
X132000Y346000D02*Y345800D01*
Y342200D02*Y342000D01*
X125200Y342800D02*Y342600D01*
Y339000D02*Y338800D01*
X132200Y296500D02*Y296300D01*
Y300300D02*Y300100D01*
X124900Y300800D02*Y300600D01*
Y304600D02*Y304400D01*
X87900Y306400D02*X88100D01*
X91700D02*X91900D01*
X70200Y306026D02*Y305826D01*
Y309826D02*Y309626D01*
X74500Y306126D02*Y305926D01*
Y309926D02*Y309726D01*
X118474Y322000D02*X118674D01*
X122274D02*X122474D01*
X84400Y180300D02*Y180100D01*
Y184100D02*Y183900D01*
X115200Y181200D02*Y181000D01*
Y185000D02*Y184800D01*
X102900Y214100D02*X103100D01*
X99100D02*X99300D01*
X80700Y186600D02*Y186400D01*
Y190400D02*Y190200D01*
X104200Y174900D02*Y174700D01*
Y178700D02*Y178500D01*
X80600Y200400D02*Y200200D01*
Y204200D02*Y204000D01*
X84500Y212800D02*Y212600D01*
Y209000D02*Y208800D01*
X178200Y243074D02*Y242874D01*
Y239274D02*Y239074D01*
X172000Y244574D02*Y244374D01*
Y240774D02*Y240574D01*
X192926Y240774D02*Y240574D01*
Y236974D02*Y236774D01*
X336826Y256500D02*X337026D01*
X340626D02*X340826D01*
X330374Y251900D02*X330574D01*
X334174D02*X334374D01*
G54D223*X335745Y303000D02*X341255D01*
X335745Y314810D02*X341255D01*
G54D220*X187000Y240800D02*Y240600D01*
Y237000D02*Y236800D01*
X275200Y284400D02*X275400D01*
X271400D02*X271600D01*
X143500Y295700D02*Y295500D01*
Y291900D02*Y291700D01*
X150900Y292000D02*X151100D01*
X147100D02*X147300D01*
X268200Y279700D02*X268400D01*
X272000D02*X272200D01*
X198400Y182100D02*X198600D01*
X194600D02*X194800D01*
X265900Y177500D02*X266100D01*
X269700D02*X269900D01*
X277600Y177700D02*X277800D01*
X281400D02*X281600D01*
X198400Y192400D02*X198600D01*
X194600D02*X194800D01*
X259311Y173522D02*Y173322D01*
Y177322D02*Y177122D01*
X271974Y173900D02*X272174D01*
X275774D02*X275974D01*
X198400Y187300D02*X198600D01*
X194600D02*X194800D01*
X299600Y181100D02*X299800D01*
X295800D02*X296000D01*
G54D226*X296059Y176392D02*Y175408D01*
X290941Y176392D02*Y175408D01*
G54D220*X299174Y191974D02*Y191774D01*
Y188174D02*Y187974D01*
X307500Y294000D02*X307700D01*
X303700D02*X303900D01*
G54D225*X325687Y322821D02*Y312979D01*
X311513Y322821D02*Y312979D01*
G54D227*X313565Y345300D02*X317107D01*
X293093D02*X296635D01*
G54D223*X335545Y336400D02*X341055D01*
X335545Y324590D02*X341055D01*
G54D220*X337700Y187800D02*X337900D01*
X333900D02*X334100D01*
G54D231*X325700Y217600D02*Y210400D01*
X330700Y217600D02*Y210400D01*
X335700Y217600D02*Y210400D01*
X340700Y217600D02*Y210400D01*
Y237000D02*Y229800D01*
X335700Y237000D02*Y229800D01*
X330700Y237000D02*Y229800D01*
X325700Y237000D02*Y229800D01*
G54D220*X378926Y144000D02*X379126D01*
X382726D02*X382926D01*
X389426D02*X389626D01*
X393226D02*X393426D01*
X388074Y55500D02*X388274D01*
X391874D02*X392074D01*
X378426D02*X378626D01*
X382226D02*X382426D01*
X197200Y79800D02*Y79600D01*
Y83600D02*Y83400D01*
G54D232*X459000Y257984D02*Y256016D01*
Y247748D02*Y245780D01*
Y202984D02*Y201016D01*
Y192748D02*Y190780D01*
Y179984D02*Y178016D01*
Y169748D02*Y167780D01*
G54D223*X404500Y304893D02*Y304107D01*
X397414Y304893D02*Y304107D01*
G54D233*X362800Y323300D02*Y322700D01*
X355000Y323300D02*Y322700D01*
X358900Y315100D02*Y314500D01*
G54D234*X378107Y322823D02*X378893D01*
X378107Y305500D02*X378893D01*
G54D220*X306200Y231126D02*X306400D01*
X302400D02*X302600D01*
X308174Y234900D02*X308374D01*
X304374D02*X304574D01*
X300674Y237500D02*X300874D01*
X296874D02*X297074D01*
X311226Y241000D02*X311426D01*
X307426D02*X307626D01*
X300874Y242300D02*X301074D01*
X297074D02*X297274D01*
X203100Y44274D02*Y44074D01*
Y48074D02*Y47874D01*
X200900Y86700D02*Y86500D01*
Y82900D02*Y82700D01*
X218700Y89500D02*X218900D01*
X214900D02*X215100D01*
G54D235*X227511Y76762D02*X232117D01*
X227511Y79321D02*X232117D01*
X227511Y81879D02*X232117D01*
X227511Y84438D02*X232117D01*
X204283D02*X208889D01*
X204283Y81879D02*X208889D01*
X204283Y79321D02*X208889D01*
X204283Y76762D02*X208889D01*
G54D236*X33000Y208233D02*Y206894D01*
X36740Y208233D02*Y206894D01*
X40480Y208233D02*Y206894D01*
Y218469D02*Y217131D01*
X33000Y218469D02*Y217131D01*
G54D226*X25508Y203682D02*X26492D01*
X25508Y208800D02*X26492D01*
G54D236*X33200Y269833D02*Y268494D01*
X36940Y269833D02*Y268494D01*
X40680Y269833D02*Y268494D01*
Y280069D02*Y278731D01*
X33200Y280069D02*Y278731D01*
G54D226*X26308Y266141D02*X27292D01*
X26308Y271259D02*X27292D01*
G54D236*X32900Y333369D02*Y332031D01*
X36640Y333369D02*Y332031D01*
X40380Y333369D02*Y332031D01*
Y343606D02*Y342267D01*
X32900Y343606D02*Y342267D01*
G54D226*X25508Y329000D02*X26492D01*
X25508Y334118D02*X26492D01*
G54D220*X47574Y213800D02*X47774D01*
X51374D02*X51574D01*
X46700Y277500D02*X46900D01*
X50500D02*X50700D01*
X51100Y340600D02*X51300D01*
X54900D02*X55100D01*
X241100Y44026D02*Y43826D01*
Y47826D02*Y47626D01*
X245400Y43826D02*Y43626D01*
Y47626D02*Y47426D01*
G54D226*X240282Y37592D02*Y36608D01*
X245400Y37592D02*Y36608D01*
G54D237*X227800Y61650D02*Y59550D01*
X222800Y61650D02*Y59550D01*
X217800Y61650D02*Y59550D01*
Y45250D02*Y43150D01*
X222800Y45250D02*Y43150D01*
X227800Y45250D02*Y43150D01*
G54D238*X209900Y57400D02*X211300D01*
X209900Y47400D02*X211300D01*
X234300D02*X235700D01*
X234300Y57400D02*X235700D01*
G54D220*X322000Y146426D02*Y146226D01*
Y142626D02*Y142426D01*
X52600Y65226D02*Y65026D01*
Y69026D02*Y68826D01*
X40300Y65200D02*Y65000D01*
Y69000D02*Y68800D01*
X59200Y76600D02*X59400D01*
X63000D02*X63200D01*
X98400Y302900D02*X98600D01*
X94600D02*X94800D01*
G54D229*X49504Y162500D02*X67496D01*
X49504Y225500D02*X67496D01*
X49504Y288500D02*X67496D01*
X49504Y351500D02*X67496D01*
X94004D02*X111996D01*
G54D220*X80000Y321500D02*X80200D01*
X83800D02*X84000D01*
X74000Y267800D02*Y267600D01*
Y264000D02*Y263800D01*
X108600Y234700D02*X108800D01*
X112400D02*X112600D01*
G54D221*X204102Y262457D02*X208826D01*
X204102Y260488D02*X208826D01*
X204102Y258519D02*X208826D01*
X204102Y256550D02*X208826D01*
X204102Y254581D02*X208826D01*
X204102Y252612D02*X208826D01*
X204102Y250643D02*X208826D01*
X204102Y248674D02*X208826D01*
X204102Y246705D02*X208826D01*
X204102Y244736D02*X208826D01*
X204102Y242767D02*X208826D01*
X204102Y240798D02*X208826D01*
X204102Y238829D02*X208826D01*
X204102Y236860D02*X208826D01*
X204102Y234891D02*X208826D01*
X204102Y232922D02*X208826D01*
X204102Y230953D02*X208826D01*
X204102Y228984D02*X208826D01*
X204102Y227015D02*X208826D01*
X204102Y225046D02*X208826D01*
X204102Y223077D02*X208826D01*
X204102Y221108D02*X208826D01*
X204102Y219139D02*X208826D01*
X204102Y217170D02*X208826D01*
X204102Y215201D02*X208826D01*
X204102Y213232D02*X208826D01*
X204102Y211263D02*X208826D01*
X204102Y209294D02*X208826D01*
X204102Y207325D02*X208826D01*
X204102Y205356D02*X208826D01*
X204102Y203387D02*X208826D01*
X204102Y201418D02*X208826D01*
X204102Y199449D02*X208826D01*
X204102Y197480D02*X208826D01*
X204102Y195511D02*X208826D01*
X204102Y193542D02*X208826D01*
X287173Y193543D02*X291897D01*
X287173Y195512D02*X291897D01*
X287173Y197481D02*X291897D01*
X287173Y199450D02*X291897D01*
X287173Y201419D02*X291897D01*
X287173Y203388D02*X291897D01*
X287173Y205357D02*X291897D01*
X287173Y207326D02*X291897D01*
X287173Y209295D02*X291897D01*
X287173Y211264D02*X291897D01*
X287173Y213233D02*X291897D01*
X287173Y215202D02*X291897D01*
X287173Y217171D02*X291897D01*
X287173Y219140D02*X291897D01*
X287173Y221109D02*X291897D01*
X287173Y223078D02*X291897D01*
X287173Y225047D02*X291897D01*
X287173Y227016D02*X291897D01*
X287173Y228985D02*X291897D01*
X287173Y230954D02*X291897D01*
X287173Y232923D02*X291897D01*
X287173Y234892D02*X291897D01*
X287173Y236861D02*X291897D01*
X287173Y238830D02*X291897D01*
X287173Y240799D02*X291897D01*
X287173Y242768D02*X291897D01*
X287173Y244737D02*X291897D01*
X287173Y246706D02*X291897D01*
X287173Y248675D02*X291897D01*
X287173Y250644D02*X291897D01*
X287173Y252613D02*X291897D01*
X287173Y254582D02*X291897D01*
X287173Y256551D02*X291897D01*
X287173Y258520D02*X291897D01*
X287173Y260489D02*X291897D01*
X287173Y262458D02*X291897D01*
X213543Y188827D02*Y184103D01*
X215512Y188827D02*Y184103D01*
X217481Y188827D02*Y184103D01*
X219450Y188827D02*Y184103D01*
X221419Y188827D02*Y184103D01*
X223388Y188827D02*Y184103D01*
X225357Y188827D02*Y184103D01*
X227326Y188827D02*Y184103D01*
X229295Y188827D02*Y184103D01*
X231264Y188827D02*Y184103D01*
X233233Y188827D02*Y184103D01*
X235202Y188827D02*Y184103D01*
X237171Y188827D02*Y184103D01*
X239140Y188827D02*Y184103D01*
X241109Y188827D02*Y184103D01*
X243078Y188827D02*Y184103D01*
X245047Y188827D02*Y184103D01*
X247016Y188827D02*Y184103D01*
X248985Y188827D02*Y184103D01*
X250954Y188827D02*Y184103D01*
X252923Y188827D02*Y184103D01*
X254892Y188827D02*Y184103D01*
X256861Y188827D02*Y184103D01*
X258830Y188827D02*Y184103D01*
X260799Y188827D02*Y184103D01*
X262768Y188827D02*Y184103D01*
X264737Y188827D02*Y184103D01*
X266706Y188827D02*Y184103D01*
X268675Y188827D02*Y184103D01*
X270644Y188827D02*Y184103D01*
X272613Y188827D02*Y184103D01*
X274582Y188827D02*Y184103D01*
X276551Y188827D02*Y184103D01*
X278520Y188827D02*Y184103D01*
X280489Y188827D02*Y184103D01*
X282458Y188827D02*Y184103D01*
X282457Y271898D02*Y267174D01*
X280488Y271898D02*Y267174D01*
X278519Y271898D02*Y267174D01*
X276550Y271898D02*Y267174D01*
X274581Y271898D02*Y267174D01*
X272612Y271898D02*Y267174D01*
X270643Y271898D02*Y267174D01*
X268674Y271898D02*Y267174D01*
X266705Y271898D02*Y267174D01*
X264736Y271898D02*Y267174D01*
X262767Y271898D02*Y267174D01*
X260798Y271898D02*Y267174D01*
X258829Y271898D02*Y267174D01*
X256860Y271898D02*Y267174D01*
X254891Y271898D02*Y267174D01*
X252922Y271898D02*Y267174D01*
X250953Y271898D02*Y267174D01*
X248984Y271898D02*Y267174D01*
X247015Y271898D02*Y267174D01*
X245046Y271898D02*Y267174D01*
X243077Y271898D02*Y267174D01*
X241108Y271898D02*Y267174D01*
X239139Y271898D02*Y267174D01*
X237170Y271898D02*Y267174D01*
X235201Y271898D02*Y267174D01*
X233232Y271898D02*Y267174D01*
X231263Y271898D02*Y267174D01*
X229294Y271898D02*Y267174D01*
X227325Y271898D02*Y267174D01*
X225356Y271898D02*Y267174D01*
X223387Y271898D02*Y267174D01*
X221418Y271898D02*Y267174D01*
X219449Y271898D02*Y267174D01*
X217480Y271898D02*Y267174D01*
X215511Y271898D02*Y267174D01*
X213542Y271898D02*Y267174D01*
G54D220*X350574Y152600D02*X350774D01*
X354374D02*X354574D01*
X391000Y173000D02*X391200D01*
X394800D02*X395000D01*
M02*
