G04 start of page 8 for group -4062 idx -4062 *
G04 Title: (unknown), soldermask *
G04 Creator: pcb 20110918 *
G04 CreationDate: Thu 31 May 2012 11:38:54 AM GMT UTC *
G04 For: pmonta *
G04 Format: Gerber/RS-274X *
G04 PCB-Dimensions: 400000 320000 *
G04 PCB-Coordinate-Origin: lower left *
%MOIN*%
%FSLAX25Y25*%
%LNBOTTOMMASK*%
%ADD170R,0.1300X0.1300*%
%ADD169R,0.0572X0.0572*%
%ADD168R,0.0257X0.0257*%
%ADD167C,0.1650*%
%ADD166C,0.0280*%
%ADD165C,0.0654*%
%ADD164C,0.1580*%
%ADD163C,0.0920*%
%ADD162C,0.0700*%
%ADD161C,0.0650*%
%ADD160C,0.0660*%
%ADD159C,0.0001*%
%ADD158C,0.1550*%
%ADD157C,0.1300*%
%ADD156C,0.0930*%
%ADD155C,0.1400*%
G54D155*X380315Y287717D03*
Y252283D03*
G54D156*X388189Y270000D03*
G54D157*X376378D03*
G54D158*X352756D03*
G54D159*G36*
X340700Y233500D02*Y226900D01*
X347300D01*
Y233500D01*
X340700D01*
G37*
G54D160*X344000Y220200D03*
Y210200D03*
G54D161*X352000Y88000D03*
X342000Y83000D03*
G54D162*X323000Y87000D03*
G54D161*X352000Y78000D03*
G54D163*X365000Y96000D03*
G54D164*X377000Y88000D03*
G54D161*X342000Y73000D03*
G54D162*X323000Y77000D03*
G54D161*X352000Y68000D03*
Y58000D03*
Y48000D03*
G54D163*X365000Y35000D03*
G54D164*X377000Y43000D03*
G54D161*X342000Y63000D03*
Y53000D03*
Y43000D03*
G54D162*X323000Y44000D03*
Y54000D03*
G54D159*G36*
X385476Y166772D02*Y160228D01*
X392020D01*
Y166772D01*
X385476D01*
G37*
G54D165*X380874Y163500D03*
X388748Y171374D03*
X380874D03*
X388748Y179248D03*
X380874D03*
X388748Y187122D03*
Y194996D03*
Y202870D03*
Y210744D03*
X380874Y187122D03*
Y194996D03*
Y202870D03*
Y210744D03*
G54D166*X3000Y191500D03*
X13000D03*
X123000D03*
X113000D03*
X103000D03*
X93000D03*
X83000D03*
X73000D03*
X63000D03*
X53000D03*
X43000D03*
X33000D03*
X23000D03*
X73000Y128500D03*
X69800Y135300D03*
X63000Y128500D03*
X53000D03*
X43000D03*
X23000D03*
X33000D03*
X3000D03*
X13000D03*
X68300Y197700D03*
X123000Y128500D03*
X113000D03*
X103000D03*
X93000D03*
X83000D03*
X184900Y121600D03*
X285500Y210400D03*
X285700Y164700D03*
X304500Y190100D03*
X260700Y146000D03*
X288900Y109100D03*
G54D167*X350000Y305000D03*
G54D166*X344000Y248400D03*
X174600Y227400D03*
G54D167*X33000Y305000D03*
G54D166*Y254500D03*
X13000D03*
X68300Y260900D03*
X218600Y294400D03*
X3000Y254500D03*
X53000D03*
X43000D03*
X23000D03*
X123000D03*
X113000D03*
X103000D03*
X93000D03*
X83000D03*
X73000D03*
X63000D03*
G54D167*X350000Y15000D03*
G54D166*X87800Y38300D03*
G54D167*X33000Y15000D03*
G54D166*X96200Y81100D03*
X200500Y38700D03*
G54D168*X292907Y292774D02*X293693D01*
X292907Y289626D02*X293693D01*
X270807Y292648D02*X271593D01*
X270807Y289500D02*X271593D01*
X250307Y223926D02*X251093D01*
X250307Y227074D02*X251093D01*
G54D169*X243607Y216583D02*X244393D01*
X243607Y223669D02*X244393D01*
G54D168*X259407Y223926D02*X260193D01*
X259407Y227074D02*X260193D01*
X269426Y224293D02*Y223507D01*
X272574Y224293D02*Y223507D01*
X269252Y213593D02*Y212807D01*
X272400Y213593D02*Y212807D01*
X228526Y218393D02*Y217607D01*
X231674Y218393D02*Y217607D01*
G54D169*X261483Y180593D02*Y179807D01*
X268569Y180593D02*Y179807D01*
G54D168*X266852Y186193D02*Y185407D01*
X270000Y186193D02*Y185407D01*
X231778Y167793D02*Y167007D01*
X234926Y167793D02*Y167007D01*
X268852Y199893D02*Y199107D01*
X272000Y199893D02*Y199107D01*
X259852Y190093D02*Y189307D01*
X263000Y190093D02*Y189307D01*
G54D169*X235183Y182793D02*Y182007D01*
X242269Y182793D02*Y182007D01*
G54D168*X269052Y172793D02*Y172007D01*
X272200Y172793D02*Y172007D01*
X252326Y70493D02*Y69707D01*
X255474Y70493D02*Y69707D01*
X263926Y64393D02*Y63607D01*
X267074Y64393D02*Y63607D01*
X255826Y80993D02*Y80207D01*
X258974Y80993D02*Y80207D01*
X243026Y65493D02*Y64707D01*
X243426Y71893D02*Y71107D01*
X246174Y65493D02*Y64707D01*
X246574Y71893D02*Y71107D01*
X263826Y57793D02*Y57007D01*
X266974Y57793D02*Y57007D01*
X244052Y97893D02*Y97107D01*
X247200Y97893D02*Y97107D01*
X256026Y92893D02*Y92107D01*
X259174Y92893D02*Y92107D01*
X263626Y105793D02*Y105007D01*
X266774Y105793D02*Y105007D01*
X205507Y223926D02*X206293D01*
X205507Y227074D02*X206293D01*
G54D169*X213260Y164193D02*Y163407D01*
X206174Y164193D02*Y163407D01*
G54D168*X221107Y162074D02*X221893D01*
X221107Y158926D02*X221893D01*
X206917Y201293D02*Y200507D01*
X203769Y201293D02*Y200507D01*
X206957Y212193D02*Y211407D01*
X203809Y212193D02*Y211407D01*
X206757Y186493D02*Y185707D01*
X203609Y186493D02*Y185707D01*
X213652Y180193D02*Y179407D01*
X216800Y180193D02*Y179407D01*
X213652Y192393D02*Y191607D01*
X216800Y192393D02*Y191607D01*
G54D169*X219260Y206193D02*Y205407D01*
X212174Y206193D02*Y205407D01*
G54D168*X223907Y223926D02*X224693D01*
X223907Y227074D02*X224693D01*
X214407Y223926D02*X215193D01*
X214407Y227074D02*X215193D01*
X207074Y218293D02*Y217507D01*
X203926Y218293D02*Y217507D01*
X250381Y161974D02*X251167D01*
X250381Y158826D02*X251167D01*
X241907Y162100D02*X242693D01*
X241907Y158952D02*X242693D01*
G54D169*X260857Y163593D02*Y162807D01*
X267943Y163593D02*Y162807D01*
G54D168*X218526Y103693D02*Y102907D01*
X221674Y103693D02*Y102907D01*
X230974Y93293D02*Y92507D01*
X227826Y93293D02*Y92507D01*
X236300Y98093D02*Y97307D01*
X239448Y98093D02*Y97307D01*
G54D169*X223743Y111893D02*Y111107D01*
G54D168*X263626Y112193D02*Y111407D01*
X266774Y112193D02*Y111407D01*
X230974Y80093D02*Y79307D01*
X227826Y80093D02*Y79307D01*
G54D169*X216657Y111893D02*Y111107D01*
G54D170*X7050Y17250D02*X13050D01*
X7050Y50750D02*X13050D01*
X7050Y80250D02*X13050D01*
X7050Y113750D02*X13050D01*
X7050Y176750D02*X13050D01*
X7050Y143250D02*X13050D01*
X7050Y206250D02*X13050D01*
X7050Y239750D02*X13050D01*
X7050Y269250D02*X13050D01*
X7050Y302750D02*X13050D01*
M02*
