G04 start of page 12 for group -4015 idx -4015 *
G04 Title: (unknown), toppaste *
G04 Creator: pcb 20140316 *
G04 CreationDate: Tue 20 May 2014 05:08:16 AM GMT UTC *
G04 For: pmonta *
G04 Format: Gerber/RS-274X *
G04 PCB-Dimensions (mil): 4200.00 3400.00 *
G04 PCB-Coordinate-Origin: lower left *
%MOIN*%
%FSLAX25Y25*%
%LNTOPPASTE*%
%ADD217R,0.0098X0.0098*%
%ADD216R,0.0402X0.0402*%
%ADD215C,0.0200*%
%ADD214R,0.0827X0.0827*%
%ADD213R,0.0370X0.0370*%
%ADD212R,0.0300X0.0300*%
%ADD211R,0.0160X0.0160*%
%ADD210C,0.0001*%
%ADD209R,0.0118X0.0118*%
%ADD208R,0.0295X0.0295*%
%ADD207R,0.0591X0.0591*%
%ADD206R,0.0965X0.0965*%
%ADD205R,0.0512X0.0512*%
%ADD204R,0.0197X0.0197*%
%ADD203R,0.0280X0.0280*%
G54D203*X325700Y192600D02*Y185400D01*
X330700Y192600D02*Y185400D01*
X335700Y192600D02*Y185400D01*
X340700Y192600D02*Y185400D01*
Y212000D02*Y204800D01*
X335700Y212000D02*Y204800D01*
X330700Y212000D02*Y204800D01*
X325700Y212000D02*Y204800D01*
G54D204*X337474Y163193D02*Y162407D01*
X334326Y163193D02*Y162407D01*
G54D205*X335545Y311400D02*X341055D01*
X335545Y299590D02*X341055D01*
G54D206*X313565Y320300D02*X317107D01*
X293093D02*X296635D01*
G54D207*X325687Y297821D02*Y287979D01*
X311513Y297821D02*Y287979D01*
G54D204*X307274Y269393D02*Y268607D01*
X304126Y269393D02*Y268607D01*
X298781Y166548D02*X299567D01*
X298781Y163400D02*X299567D01*
G54D208*X296059Y151392D02*Y150408D01*
X290941Y151392D02*Y150408D01*
G54D204*X299574Y156493D02*Y155707D01*
X296426Y156493D02*Y155707D01*
X198174Y162693D02*Y161907D01*
X195026Y162693D02*Y161907D01*
X272200Y149293D02*Y148507D01*
X275348Y149293D02*Y148507D01*
X259507Y149526D02*X260293D01*
X259507Y152674D02*X260293D01*
X198174Y167793D02*Y167007D01*
X195026Y167793D02*Y167007D01*
X278026Y153093D02*Y152307D01*
X281174Y153093D02*Y152307D01*
X266626Y152893D02*Y152107D01*
X269774Y152893D02*Y152107D01*
X198174Y157493D02*Y156707D01*
X195026Y157493D02*Y156707D01*
X268626Y255093D02*Y254307D01*
X271774Y255093D02*Y254307D01*
X150674Y267393D02*Y266607D01*
X147526Y267393D02*Y266607D01*
X143107Y270274D02*X143893D01*
X143107Y267126D02*X143893D01*
X274974Y259793D02*Y259007D01*
X271826Y259793D02*Y259007D01*
X186607Y215374D02*X187393D01*
X186607Y212226D02*X187393D01*
G54D205*X335745Y278000D02*X341255D01*
X335745Y289810D02*X341255D01*
G54D204*X330800Y227293D02*Y226507D01*
X333948Y227293D02*Y226507D01*
X337252Y232293D02*Y231507D01*
X340400Y232293D02*Y231507D01*
X192533Y215448D02*X193319D01*
X192533Y212300D02*X193319D01*
X171607Y219148D02*X172393D01*
X171607Y216000D02*X172393D01*
X177807Y217648D02*X178593D01*
X177807Y214500D02*X178593D01*
X84107Y187374D02*X84893D01*
X84107Y184226D02*X84893D01*
X80207Y175626D02*X80993D01*
X80207Y178774D02*X80993D01*
X103807Y150026D02*X104593D01*
X103807Y153174D02*X104593D01*
X80407Y161826D02*X81193D01*
X80407Y164974D02*X81193D01*
X102674Y189493D02*Y188707D01*
X99526Y189493D02*Y188707D01*
X114407Y157726D02*X115193D01*
X114407Y160874D02*X115193D01*
X84107Y156226D02*X84893D01*
X84107Y159374D02*X84893D01*
X118900Y297393D02*Y296607D01*
X122048Y297393D02*Y296607D01*
X74107Y281352D02*X74893D01*
X74107Y284500D02*X74893D01*
X69807Y281252D02*X70593D01*
X69807Y284400D02*X70593D01*
X88026Y281793D02*Y281007D01*
X91174Y281793D02*Y281007D01*
X124507Y276226D02*X125293D01*
X124507Y279374D02*X125293D01*
X131807Y271726D02*X132593D01*
X131807Y274874D02*X132593D01*
X124807Y317174D02*X125593D01*
X124807Y314026D02*X125593D01*
X131607Y320574D02*X132393D01*
X131607Y317426D02*X132393D01*
X167374Y307093D02*Y306307D01*
X164226Y307093D02*Y306307D01*
X167574Y285893D02*Y285107D01*
X164426Y285893D02*Y285107D01*
X102374Y315293D02*Y314507D01*
X99226Y315293D02*Y314507D01*
X80607Y287926D02*X81393D01*
X80607Y291074D02*X81393D01*
X103807Y275926D02*X104593D01*
X103807Y279074D02*X104593D01*
X81107Y300726D02*X81893D01*
X81107Y303874D02*X81893D01*
X84033Y312496D02*X84819D01*
X84033Y309348D02*X84819D01*
X114507Y283878D02*X115293D01*
X114507Y287026D02*X115293D01*
X84007Y282426D02*X84793D01*
X84007Y285574D02*X84793D01*
X94126Y269893D02*Y269107D01*
X97274Y269893D02*Y269107D01*
X90107Y272226D02*X90893D01*
X90107Y275374D02*X90893D01*
X98174Y278393D02*Y277607D01*
X95026Y278393D02*Y277607D01*
X95226Y274393D02*Y273607D01*
X98374Y274393D02*Y273607D01*
X79926Y296893D02*Y296107D01*
X83074Y296893D02*Y296107D01*
X73607Y305074D02*X74393D01*
X73607Y301926D02*X74393D01*
X111307Y277826D02*X112093D01*
X111307Y280974D02*X112093D01*
X108626Y273893D02*Y273107D01*
X111774Y273893D02*Y273107D01*
X101007Y268626D02*X101793D01*
X101007Y271774D02*X101793D01*
X72926Y298393D02*Y297607D01*
X76074Y298393D02*Y297607D01*
X102426Y311393D02*Y310607D01*
X105574Y311393D02*Y310607D01*
X108926Y311393D02*Y310607D01*
X112074Y311393D02*Y310607D01*
X118326Y163793D02*Y163007D01*
X121474Y163793D02*Y163007D01*
X118326Y167593D02*Y166807D01*
X121474Y167593D02*Y166807D01*
X118426Y174993D02*Y174207D01*
X121574Y174993D02*Y174207D01*
X118226Y178693D02*Y177907D01*
X121374Y178693D02*Y177907D01*
X94326Y144293D02*Y143507D01*
X97474Y144293D02*Y143507D01*
X94526Y207393D02*Y206607D01*
X97674Y207393D02*Y206607D01*
X118426Y227393D02*Y226607D01*
X121574Y227393D02*Y226607D01*
X118426Y230893D02*Y230107D01*
X121574Y230893D02*Y230107D01*
X118426Y237893D02*Y237107D01*
X121574Y237893D02*Y237107D01*
X118426Y241393D02*Y240607D01*
X121574Y241393D02*Y240607D01*
X118426Y290393D02*Y289607D01*
X121574Y290393D02*Y289607D01*
X118426Y293893D02*Y293107D01*
X121574Y293893D02*Y293107D01*
X118426Y300893D02*Y300107D01*
X121574Y300893D02*Y300107D01*
X118426Y304393D02*Y303607D01*
X121574Y304393D02*Y303607D01*
X74007Y155126D02*X74793D01*
X74007Y158274D02*X74793D01*
X111307Y150226D02*X112093D01*
X111307Y153374D02*X112093D01*
X167574Y181093D02*Y180307D01*
X164426Y181093D02*Y180307D01*
X167674Y159593D02*Y158807D01*
X164526Y159593D02*Y158807D01*
X131607Y194374D02*X132393D01*
X131607Y191226D02*X132393D01*
X131807Y145826D02*X132593D01*
X131807Y148974D02*X132593D01*
X124607Y149926D02*X125393D01*
X124607Y153074D02*X125393D01*
X124807Y191126D02*X125593D01*
X124807Y187978D02*X125593D01*
X120326Y160193D02*Y159407D01*
X123474Y160193D02*Y159407D01*
X121326Y182293D02*Y181507D01*
X124474Y182293D02*Y181507D01*
X119226Y171293D02*Y170507D01*
X122374Y171293D02*Y170507D01*
X88026Y155693D02*Y154907D01*
X91174Y155693D02*Y154907D01*
X111407Y213126D02*X112193D01*
X111407Y216274D02*X112193D01*
X74207Y218126D02*X74993D01*
X74207Y221274D02*X74993D01*
X129007Y256174D02*X129793D01*
X129007Y253026D02*X129793D01*
X167474Y222893D02*Y222107D01*
X164326Y222893D02*Y222107D01*
X167674Y243993D02*Y243207D01*
X164526Y243993D02*Y243207D01*
X124533Y253548D02*X125319D01*
X124533Y250400D02*X125319D01*
X124581Y212852D02*X125367D01*
X124581Y216000D02*X125367D01*
X120652Y223267D02*Y222481D01*
X123800Y223267D02*Y222481D01*
X121426Y245093D02*Y244307D01*
X124574Y245093D02*Y244307D01*
X118926Y234393D02*Y233607D01*
X122074Y234393D02*Y233607D01*
X87926Y218393D02*Y217607D01*
X91074Y218393D02*Y217607D01*
X120426Y286393D02*Y285607D01*
X123574Y286393D02*Y285607D01*
X121626Y308093D02*Y307307D01*
X124774Y308093D02*Y307307D01*
X66426Y301393D02*Y300607D01*
X69574Y301393D02*Y300607D01*
X108526Y147393D02*Y146607D01*
X111674Y147393D02*Y146607D01*
X69807Y155126D02*X70593D01*
X69807Y158274D02*X70593D01*
X90507Y146226D02*X91293D01*
X90507Y149374D02*X91293D01*
X98274Y152593D02*Y151807D01*
X95126Y152593D02*Y151807D01*
Y148793D02*Y148007D01*
X98274Y148793D02*Y148007D01*
X100807Y142926D02*X101593D01*
X100807Y146074D02*X101593D01*
X108526Y185693D02*Y184907D01*
X111674Y185693D02*Y184907D01*
X102326Y185693D02*Y184907D01*
X105474Y185693D02*Y184907D01*
X80226Y170693D02*Y169907D01*
X83374Y170693D02*Y169907D01*
X72826Y173093D02*Y172307D01*
X75974Y173093D02*Y172307D01*
X73307Y179874D02*X74093D01*
X73307Y176726D02*X74093D01*
X66426Y175593D02*Y174807D01*
X69574Y175593D02*Y174807D01*
X61426Y190493D02*Y189707D01*
X64574Y190493D02*Y189707D01*
X61226Y186893D02*Y186107D01*
X64374Y186893D02*Y186107D01*
X60507Y179726D02*X61293D01*
X60507Y182874D02*X61293D01*
X59674Y227393D02*Y226607D01*
X56526Y227393D02*Y226607D01*
X59674Y164493D02*Y163707D01*
X56526Y164493D02*Y163707D01*
X38107Y166626D02*X38893D01*
X38107Y169774D02*X38893D01*
X42326Y170293D02*Y169507D01*
X45474Y170293D02*Y169507D01*
X31726Y170293D02*Y169507D01*
X34874Y170293D02*Y169507D01*
X84107Y219226D02*X84893D01*
X84107Y222374D02*X84893D01*
X79607Y238926D02*X80393D01*
X79607Y242074D02*X80393D01*
X103607Y212926D02*X104393D01*
X103607Y216074D02*X104393D01*
X102574Y252993D02*Y252207D01*
X99426Y252993D02*Y252207D01*
X80607Y224926D02*X81393D01*
X80607Y228074D02*X81393D01*
X114607Y220926D02*X115393D01*
X114607Y224074D02*X115393D01*
X84107Y250574D02*X84893D01*
X84107Y247426D02*X84893D01*
X108626Y210093D02*Y209307D01*
X111774Y210093D02*Y209307D01*
X69707Y218026D02*X70493D01*
X69707Y221174D02*X70493D01*
X90107Y209226D02*X90893D01*
X90107Y212374D02*X90893D01*
X98374Y215793D02*Y215007D01*
X95226Y215793D02*Y215007D01*
Y212093D02*Y211307D01*
X98374Y212093D02*Y211307D01*
X100707Y205826D02*X101493D01*
X100707Y208974D02*X101493D01*
X108426Y248693D02*Y247907D01*
X111574Y248693D02*Y247907D01*
X102426Y248693D02*Y247907D01*
X105574Y248693D02*Y247907D01*
X80426Y233893D02*Y233107D01*
X83574Y233893D02*Y233107D01*
X72926Y235893D02*Y235107D01*
X76074Y235893D02*Y235107D01*
X73607Y242374D02*X74393D01*
X73607Y239226D02*X74393D01*
X66526Y238293D02*Y237507D01*
X69674Y238293D02*Y237507D01*
X61426Y249693D02*Y248907D01*
X64574Y249693D02*Y248907D01*
X61326Y253493D02*Y252707D01*
X64474Y253493D02*Y252707D01*
X60407Y242626D02*X61193D01*
X60407Y245774D02*X61193D01*
X38307Y229926D02*X39093D01*
X38307Y233074D02*X39093D01*
X32426Y233393D02*Y232607D01*
X35574Y233393D02*Y232607D01*
X42426Y233393D02*Y232607D01*
X45574Y233393D02*Y232607D01*
X42426Y296393D02*Y295607D01*
X45574Y296393D02*Y295607D01*
X60607Y305426D02*X61393D01*
X60607Y308574D02*X61393D01*
X59674Y290493D02*Y289707D01*
X56526Y290493D02*Y289707D01*
X61426Y316393D02*Y315607D01*
X64574Y316393D02*Y315607D01*
X31426Y296393D02*Y295607D01*
X34574Y296393D02*Y295607D01*
X61426Y312393D02*Y311607D01*
X64574Y312393D02*Y311607D01*
X38107Y292926D02*X38893D01*
X38107Y296074D02*X38893D01*
G54D209*X129131Y306829D02*X130895D01*
X129131Y304860D02*X131295D01*
X129131Y302891D02*X131295D01*
X129131Y300922D02*X131295D01*
X129131Y298953D02*X131295D01*
X129131Y296984D02*X131295D01*
X129131Y295015D02*X131295D01*
X129131Y293046D02*X131295D01*
X129131Y291077D02*X131295D01*
X129131Y289108D02*X131295D01*
X129131Y287139D02*X131295D01*
X129131Y285170D02*X130895D01*
X156105Y285171D02*X157869D01*
X155705Y287140D02*X157869D01*
X155705Y289109D02*X157869D01*
X155705Y291078D02*X157869D01*
X155705Y293047D02*X157869D01*
X155705Y295016D02*X157869D01*
X155705Y296985D02*X157869D01*
X155705Y298954D02*X157869D01*
X155705Y300923D02*X157869D01*
X155705Y302892D02*X157869D01*
X155705Y304861D02*X157869D01*
X156105Y306830D02*X157869D01*
X132671Y283395D02*Y281631D01*
X134640Y283795D02*Y281631D01*
X136609Y283795D02*Y281631D01*
X138578Y283795D02*Y281631D01*
X140547Y283795D02*Y281631D01*
X142516Y283795D02*Y281631D01*
X144485Y283795D02*Y281631D01*
X146454Y283795D02*Y281631D01*
X148423Y283795D02*Y281631D01*
X150392Y283795D02*Y281631D01*
X152361Y283795D02*Y281631D01*
X154330Y283395D02*Y281631D01*
X154329Y310369D02*Y308605D01*
X152360Y310369D02*Y308205D01*
X150391Y310369D02*Y308205D01*
X148422Y310369D02*Y308205D01*
X146453Y310369D02*Y308205D01*
X144484Y310369D02*Y308205D01*
X142515Y310369D02*Y308205D01*
X140546Y310369D02*Y308205D01*
X138577Y310369D02*Y308205D01*
X136608Y310369D02*Y308205D01*
X134639Y310369D02*Y308205D01*
X132670Y310369D02*Y308605D01*
G54D210*G36*
X135500Y304000D02*Y299400D01*
X140100D01*
Y304000D01*
X135500D01*
G37*
G36*
X141200D02*Y299400D01*
X145800D01*
Y304000D01*
X141200D01*
G37*
G36*
X146900D02*Y299400D01*
X151500D01*
Y304000D01*
X146900D01*
G37*
G36*
X135500Y298300D02*Y293700D01*
X140100D01*
Y298300D01*
X135500D01*
G37*
G36*
X141200D02*Y293700D01*
X145800D01*
Y298300D01*
X141200D01*
G37*
G36*
X146900D02*Y293700D01*
X151500D01*
Y298300D01*
X146900D01*
G37*
G36*
X135500Y292600D02*Y288000D01*
X140100D01*
Y292600D01*
X135500D01*
G37*
G36*
X141200D02*Y288000D01*
X145800D01*
Y292600D01*
X141200D01*
G37*
G36*
X146900D02*Y288000D01*
X151500D01*
Y292600D01*
X146900D01*
G37*
G54D211*X51800Y301100D02*X53700D01*
X51800Y298500D02*X53700D01*
X51800Y295900D02*X53700D01*
X59300D02*X61200D01*
X59300Y298500D02*X61200D01*
X59300Y301100D02*X61200D01*
G54D209*X88508Y238907D02*X91066D01*
X88508Y236938D02*X91066D01*
X88508Y234969D02*X91066D01*
X88508Y233000D02*X91066D01*
X88508Y231031D02*X91066D01*
X88508Y229062D02*X91066D01*
X88508Y227093D02*X91066D01*
X106933D02*X109491D01*
X106933Y229062D02*X109491D01*
X106933Y231031D02*X109491D01*
X106933Y233000D02*X109491D01*
X106933Y234969D02*X109491D01*
X106933Y236938D02*X109491D01*
X106933Y238907D02*X109491D01*
X93093Y225067D02*Y222509D01*
X95062Y225067D02*Y222509D01*
X97031Y225067D02*Y222509D01*
X99000Y225067D02*Y222509D01*
X100969Y225067D02*Y222509D01*
X102938Y225067D02*Y222509D01*
X104907Y225067D02*Y222509D01*
Y243492D02*Y240934D01*
X102938Y243492D02*Y240934D01*
X100969Y243492D02*Y240934D01*
X99000Y243492D02*Y240934D01*
X97031Y243492D02*Y240934D01*
X95062Y243492D02*Y240934D01*
X93093Y243492D02*Y240934D01*
G54D210*G36*
X95050Y236950D02*Y233550D01*
X98450D01*
Y236950D01*
X95050D01*
G37*
G36*
Y232450D02*Y229050D01*
X98450D01*
Y232450D01*
X95050D01*
G37*
G36*
X99550Y236950D02*Y233550D01*
X102950D01*
Y236950D01*
X99550D01*
G37*
G36*
Y232450D02*Y229050D01*
X102950D01*
Y232450D01*
X99550D01*
G37*
G54D211*X51800Y238100D02*X53700D01*
X51800Y235500D02*X53700D01*
X51800Y232900D02*X53700D01*
X59300D02*X61200D01*
X59300Y235500D02*X61200D01*
X59300Y238100D02*X61200D01*
G54D209*X88508Y175907D02*X91066D01*
X88508Y173938D02*X91066D01*
X88508Y171969D02*X91066D01*
X88508Y170000D02*X91066D01*
X88508Y168031D02*X91066D01*
X88508Y166062D02*X91066D01*
X88508Y164093D02*X91066D01*
X106933D02*X109491D01*
X106933Y166062D02*X109491D01*
X106933Y168031D02*X109491D01*
X106933Y170000D02*X109491D01*
X106933Y171969D02*X109491D01*
X106933Y173938D02*X109491D01*
X106933Y175907D02*X109491D01*
X93093Y162067D02*Y159509D01*
X95062Y162067D02*Y159509D01*
X97031Y162067D02*Y159509D01*
X99000Y162067D02*Y159509D01*
X100969Y162067D02*Y159509D01*
X102938Y162067D02*Y159509D01*
X104907Y162067D02*Y159509D01*
Y180492D02*Y177934D01*
X102938Y180492D02*Y177934D01*
X100969Y180492D02*Y177934D01*
X99000Y180492D02*Y177934D01*
X97031Y180492D02*Y177934D01*
X95062Y180492D02*Y177934D01*
X93093Y180492D02*Y177934D01*
G54D210*G36*
X95050Y173950D02*Y170550D01*
X98450D01*
Y173950D01*
X95050D01*
G37*
G36*
Y169450D02*Y166050D01*
X98450D01*
Y169450D01*
X95050D01*
G37*
G36*
X99550Y173950D02*Y170550D01*
X102950D01*
Y173950D01*
X99550D01*
G37*
G36*
Y169450D02*Y166050D01*
X102950D01*
Y169450D01*
X99550D01*
G37*
G54D211*X51800Y175100D02*X53700D01*
X51800Y172500D02*X53700D01*
X51800Y169900D02*X53700D01*
X59300D02*X61200D01*
X59300Y172500D02*X61200D01*
X59300Y175100D02*X61200D01*
G54D204*X167707Y33126D02*X168493D01*
X167707Y36274D02*X168493D01*
X156607Y79674D02*X157393D01*
X156607Y76526D02*X157393D01*
X155207Y21726D02*X155993D01*
X155207Y24874D02*X155993D01*
X172974Y68693D02*Y67907D01*
X169826Y68693D02*Y67907D01*
X174722Y43793D02*Y43007D01*
X171574Y43793D02*Y43007D01*
X176474Y39793D02*Y39007D01*
X173326Y39793D02*Y39007D01*
X182181Y46648D02*X182967D01*
X182181Y43500D02*X182967D01*
X184274Y39893D02*Y39107D01*
X181126Y39893D02*Y39107D01*
X187048Y32093D02*Y31307D01*
X183900Y32093D02*Y31307D01*
X44852Y44493D02*Y43707D01*
X48000Y44493D02*Y43707D01*
X51107Y40952D02*X51893D01*
X51107Y44100D02*X51893D01*
X40907Y40826D02*X41693D01*
X40907Y43974D02*X41693D01*
G54D209*X129131Y117829D02*X130895D01*
X129131Y115860D02*X131295D01*
X129131Y113891D02*X131295D01*
X129131Y111922D02*X131295D01*
X129131Y109953D02*X131295D01*
X129131Y107984D02*X131295D01*
X129131Y106015D02*X131295D01*
X129131Y104046D02*X131295D01*
X129131Y102077D02*X131295D01*
X129131Y100108D02*X131295D01*
X129131Y98139D02*X131295D01*
X129131Y96170D02*X130895D01*
X156105Y96171D02*X157869D01*
X155705Y98140D02*X157869D01*
X155705Y100109D02*X157869D01*
X155705Y102078D02*X157869D01*
X155705Y104047D02*X157869D01*
X155705Y106016D02*X157869D01*
X155705Y107985D02*X157869D01*
X155705Y109954D02*X157869D01*
X155705Y111923D02*X157869D01*
X155705Y113892D02*X157869D01*
X155705Y115861D02*X157869D01*
X156105Y117830D02*X157869D01*
X132671Y94395D02*Y92631D01*
X134640Y94795D02*Y92631D01*
X136609Y94795D02*Y92631D01*
X138578Y94795D02*Y92631D01*
X140547Y94795D02*Y92631D01*
X142516Y94795D02*Y92631D01*
X144485Y94795D02*Y92631D01*
X146454Y94795D02*Y92631D01*
X148423Y94795D02*Y92631D01*
X150392Y94795D02*Y92631D01*
X152361Y94795D02*Y92631D01*
X154330Y94395D02*Y92631D01*
X154329Y121369D02*Y119605D01*
X152360Y121369D02*Y119205D01*
X150391Y121369D02*Y119205D01*
X148422Y121369D02*Y119205D01*
X146453Y121369D02*Y119205D01*
X144484Y121369D02*Y119205D01*
X142515Y121369D02*Y119205D01*
X140546Y121369D02*Y119205D01*
X138577Y121369D02*Y119205D01*
X136608Y121369D02*Y119205D01*
X134639Y121369D02*Y119205D01*
X132670Y121369D02*Y119605D01*
G54D210*G36*
X135500Y115000D02*Y110400D01*
X140100D01*
Y115000D01*
X135500D01*
G37*
G36*
X141200D02*Y110400D01*
X145800D01*
Y115000D01*
X141200D01*
G37*
G36*
X146900D02*Y110400D01*
X151500D01*
Y115000D01*
X146900D01*
G37*
G36*
X135500Y109300D02*Y104700D01*
X140100D01*
Y109300D01*
X135500D01*
G37*
G36*
X141200D02*Y104700D01*
X145800D01*
Y109300D01*
X141200D01*
G37*
G36*
X146900D02*Y104700D01*
X151500D01*
Y109300D01*
X146900D01*
G37*
G36*
X135500Y103600D02*Y99000D01*
X140100D01*
Y103600D01*
X135500D01*
G37*
G36*
X141200D02*Y99000D01*
X145800D01*
Y103600D01*
X141200D01*
G37*
G36*
X146900D02*Y99000D01*
X151500D01*
Y103600D01*
X146900D01*
G37*
G54D204*X105207Y112226D02*X105993D01*
X105207Y115374D02*X105993D01*
X109926Y115593D02*Y114807D01*
X113074Y115593D02*Y114807D01*
X109926Y111793D02*Y111007D01*
X113074Y111793D02*Y111007D01*
X105007Y100626D02*X105793D01*
X105007Y103774D02*X105793D01*
X109926Y104393D02*Y103607D01*
X113074Y104393D02*Y103607D01*
X109800Y100693D02*Y99907D01*
X112948Y100693D02*Y99907D01*
X120326Y97193D02*Y96407D01*
X123474Y97193D02*Y96407D01*
X118826Y108293D02*Y107507D01*
X121974Y108293D02*Y107507D01*
X121426Y118993D02*Y118207D01*
X124574Y118993D02*Y118207D01*
X124707Y128148D02*X125493D01*
X124707Y125000D02*X125493D01*
X124407Y86900D02*X125193D01*
X124407Y90048D02*X125193D01*
X131607Y82800D02*X132393D01*
X131607Y85948D02*X132393D01*
X167248Y117993D02*Y117207D01*
X164100Y117993D02*Y117207D01*
X167548Y96793D02*Y96007D01*
X164400Y96793D02*Y96007D01*
X131507Y131374D02*X132293D01*
X131507Y128226D02*X132293D01*
X132507Y21626D02*X133293D01*
X132507Y24774D02*X133293D01*
X128107Y21826D02*X128893D01*
X128107Y24974D02*X128893D01*
X118026Y75693D02*Y74907D01*
X121174Y75693D02*Y74907D01*
G54D205*X102157Y25993D02*Y25207D01*
X109243Y25993D02*Y25207D01*
G54D204*X76707Y66026D02*X77493D01*
X76707Y69174D02*X77493D01*
X76607Y56548D02*X77393D01*
X76607Y53400D02*X77393D01*
X117907Y51574D02*X118693D01*
X117907Y48426D02*X118693D01*
X109400Y40093D02*Y39307D01*
X106252Y40093D02*Y39307D01*
X116474Y40093D02*Y39307D01*
X113326Y40093D02*Y39307D01*
X109374Y56393D02*Y55607D01*
X106226Y56393D02*Y55607D01*
X116474Y56393D02*Y55607D01*
X113326Y56393D02*Y55607D01*
X109374Y69193D02*Y68407D01*
X106226Y69193D02*Y68407D01*
X116474Y69193D02*Y68407D01*
X113326Y69193D02*Y68407D01*
X119407Y25726D02*X120193D01*
X119407Y28874D02*X120193D01*
X329726Y108193D02*Y107407D01*
X332874Y108193D02*Y107407D01*
X338252Y114593D02*Y113807D01*
X341400Y114593D02*Y113807D01*
G54D209*X88508Y301907D02*X91066D01*
X88508Y299938D02*X91066D01*
X88508Y297969D02*X91066D01*
X88508Y296000D02*X91066D01*
X88508Y294031D02*X91066D01*
X88508Y292062D02*X91066D01*
X88508Y290093D02*X91066D01*
X106933D02*X109491D01*
X106933Y292062D02*X109491D01*
X106933Y294031D02*X109491D01*
X106933Y296000D02*X109491D01*
X106933Y297969D02*X109491D01*
X106933Y299938D02*X109491D01*
X106933Y301907D02*X109491D01*
X93093Y288067D02*Y285509D01*
X95062Y288067D02*Y285509D01*
X97031Y288067D02*Y285509D01*
X99000Y288067D02*Y285509D01*
X100969Y288067D02*Y285509D01*
X102938Y288067D02*Y285509D01*
X104907Y288067D02*Y285509D01*
Y306492D02*Y303934D01*
X102938Y306492D02*Y303934D01*
X100969Y306492D02*Y303934D01*
X99000Y306492D02*Y303934D01*
X97031Y306492D02*Y303934D01*
X95062Y306492D02*Y303934D01*
X93093Y306492D02*Y303934D01*
G54D210*G36*
X95050Y299950D02*Y296550D01*
X98450D01*
Y299950D01*
X95050D01*
G37*
G36*
Y295450D02*Y292050D01*
X98450D01*
Y295450D01*
X95050D01*
G37*
G36*
X99550Y299950D02*Y296550D01*
X102950D01*
Y299950D01*
X99550D01*
G37*
G36*
Y295450D02*Y292050D01*
X102950D01*
Y295450D01*
X99550D01*
G37*
G54D212*X227000Y42650D02*Y40550D01*
X222000Y42650D02*Y40550D01*
X217000Y42650D02*Y40550D01*
Y26250D02*Y24150D01*
X222000Y26250D02*Y24150D01*
X227000Y26250D02*Y24150D01*
G54D213*X209100Y38400D02*X210500D01*
X209100Y28400D02*X210500D01*
X233500D02*X234900D01*
X233500Y38400D02*X234900D01*
G54D204*X186907Y273826D02*X187693D01*
X186907Y276974D02*X187693D01*
X186381Y281552D02*X187167D01*
X186381Y284700D02*X187167D01*
X208826Y252493D02*Y251707D01*
X211974Y252493D02*Y251707D01*
X131407Y208526D02*X132193D01*
X131407Y211674D02*X132193D01*
G54D209*X129131Y243829D02*X130895D01*
X129131Y241860D02*X131295D01*
X129131Y239891D02*X131295D01*
X129131Y237922D02*X131295D01*
X129131Y235953D02*X131295D01*
X129131Y233984D02*X131295D01*
X129131Y232015D02*X131295D01*
X129131Y230046D02*X131295D01*
X129131Y228077D02*X131295D01*
X129131Y226108D02*X131295D01*
X129131Y224139D02*X131295D01*
X129131Y222170D02*X130895D01*
X156105Y222171D02*X157869D01*
X155705Y224140D02*X157869D01*
X155705Y226109D02*X157869D01*
X155705Y228078D02*X157869D01*
X155705Y230047D02*X157869D01*
X155705Y232016D02*X157869D01*
X155705Y233985D02*X157869D01*
X155705Y235954D02*X157869D01*
X155705Y237923D02*X157869D01*
X155705Y239892D02*X157869D01*
X155705Y241861D02*X157869D01*
X156105Y243830D02*X157869D01*
X132671Y220395D02*Y218631D01*
X134640Y220795D02*Y218631D01*
X136609Y220795D02*Y218631D01*
X138578Y220795D02*Y218631D01*
X140547Y220795D02*Y218631D01*
X142516Y220795D02*Y218631D01*
X144485Y220795D02*Y218631D01*
X146454Y220795D02*Y218631D01*
X148423Y220795D02*Y218631D01*
X150392Y220795D02*Y218631D01*
X152361Y220795D02*Y218631D01*
X154330Y220395D02*Y218631D01*
X154329Y247369D02*Y245605D01*
X152360Y247369D02*Y245205D01*
X150391Y247369D02*Y245205D01*
X148422Y247369D02*Y245205D01*
X146453Y247369D02*Y245205D01*
X144484Y247369D02*Y245205D01*
X142515Y247369D02*Y245205D01*
X140546Y247369D02*Y245205D01*
X138577Y247369D02*Y245205D01*
X136608Y247369D02*Y245205D01*
X134639Y247369D02*Y245205D01*
X132670Y247369D02*Y245605D01*
G54D210*G36*
X135500Y241000D02*Y236400D01*
X140100D01*
Y241000D01*
X135500D01*
G37*
G36*
X141200D02*Y236400D01*
X145800D01*
Y241000D01*
X141200D01*
G37*
G36*
X146900D02*Y236400D01*
X151500D01*
Y241000D01*
X146900D01*
G37*
G36*
X135500Y235300D02*Y230700D01*
X140100D01*
Y235300D01*
X135500D01*
G37*
G36*
X141200D02*Y230700D01*
X145800D01*
Y235300D01*
X141200D01*
G37*
G36*
X146900D02*Y230700D01*
X151500D01*
Y235300D01*
X146900D01*
G37*
G36*
X135500Y229600D02*Y225000D01*
X140100D01*
Y229600D01*
X135500D01*
G37*
G36*
X141200D02*Y225000D01*
X145800D01*
Y229600D01*
X141200D01*
G37*
G36*
X146900D02*Y225000D01*
X151500D01*
Y229600D01*
X146900D01*
G37*
G54D204*X178807Y67448D02*X179593D01*
X178807Y64300D02*X179593D01*
G54D208*X178708Y60059D02*X179692D01*
X178708Y54941D02*X179692D01*
G54D204*X173907Y57600D02*X174693D01*
X173907Y54452D02*X174693D01*
G54D214*X356607Y307161D02*X357393D01*
X356607Y289838D02*X357393D01*
G54D204*X302807Y72826D02*X303593D01*
X302807Y75974D02*X303593D01*
X302807Y78926D02*X303593D01*
X302807Y82074D02*X303593D01*
X309007Y112600D02*X309793D01*
X309007Y115748D02*X309793D01*
X321507Y119600D02*X322293D01*
X321507Y116452D02*X322293D01*
X309107Y106452D02*X309893D01*
X309107Y109600D02*X309893D01*
X321681Y113448D02*X322467D01*
X321681Y110300D02*X322467D01*
G54D208*X269941Y53592D02*Y52608D01*
X275059Y53592D02*Y52608D01*
G54D204*X281407Y72026D02*X282193D01*
X281407Y75174D02*X282193D01*
G54D205*X256757Y48193D02*Y47407D01*
X263843Y48193D02*Y47407D01*
G54D204*X277126Y58793D02*Y58007D01*
X280274Y58793D02*Y58007D01*
X261500Y58493D02*Y57707D01*
X264648Y58493D02*Y57707D01*
X294907Y66326D02*X295693D01*
X294907Y69474D02*X295693D01*
X52026Y107293D02*Y106507D01*
X55174Y107293D02*Y106507D01*
X59407Y103626D02*X60193D01*
X59407Y106774D02*X60193D01*
X47107Y103752D02*X47893D01*
X47107Y106900D02*X47893D01*
G54D215*X161000Y76200D03*
X164800D03*
X163600Y27000D03*
X159800Y26800D03*
X171800Y50800D03*
Y47800D03*
X143600Y19800D03*
X143400Y24000D03*
X139900Y21200D03*
X136200Y24300D03*
X122400Y34200D03*
X123200Y29300D03*
G54D208*X197141Y28192D02*Y27208D01*
X192023Y28192D02*Y27208D01*
X197318Y35092D02*Y34108D01*
X192200Y35092D02*Y34108D01*
X239382Y18792D02*Y17808D01*
X244500Y18792D02*Y17808D01*
G54D216*X94004Y138500D02*X111996D01*
X49504D02*X67496D01*
X94004Y201500D02*X111996D01*
X49504D02*X67496D01*
X94004Y264500D02*X111996D01*
X49504D02*X67496D01*
X94004Y327500D02*X111996D01*
X49504D02*X67496D01*
G54D204*X28526Y44193D02*Y43407D01*
X31674Y44193D02*Y43407D01*
X33626Y107393D02*Y106607D01*
X36774Y107393D02*Y106607D01*
G54D205*X209695Y331155D02*Y325645D01*
X221505Y331155D02*Y325645D01*
X218845Y305695D02*X224355D01*
X218845Y317505D02*X224355D01*
G54D215*X302400Y286500D03*
X278800Y75200D03*
G54D204*X185400Y220593D02*Y219807D01*
X182252Y220593D02*Y219807D01*
X180574Y225693D02*Y224907D01*
X177426Y225693D02*Y224907D01*
X193326Y275593D02*Y274807D01*
X196474Y275593D02*Y274807D01*
X193326Y281593D02*Y280807D01*
X196474Y281593D02*Y280807D01*
G54D215*X244800Y153700D03*
X260800Y155700D03*
X268700Y155600D03*
X272000D03*
G54D204*X85507Y36226D02*X86293D01*
X85507Y39374D02*X86293D01*
X101007Y36626D02*X101793D01*
X101007Y39774D02*X101793D01*
X85733Y53400D02*X86519D01*
X85733Y56548D02*X86519D01*
X100833Y53000D02*X101619D01*
X100833Y56148D02*X101619D01*
X85707Y65526D02*X86493D01*
X85707Y68674D02*X86493D01*
X100707Y65426D02*X101493D01*
X100707Y68574D02*X101493D01*
G54D215*X125100Y76400D03*
X129100Y74900D03*
G54D204*X244207Y25052D02*X244993D01*
X244207Y28200D02*X244993D01*
X239907Y25052D02*X240693D01*
X239907Y28200D02*X240693D01*
X150274Y84693D02*Y83907D01*
X147126Y84693D02*Y83907D01*
X151726Y88693D02*Y87907D01*
X154874Y88693D02*Y87907D01*
X176426Y74993D02*Y74207D01*
X179574Y74993D02*Y74207D01*
G54D215*X111400Y160100D03*
G54D204*X25107Y169926D02*X25893D01*
X25107Y173074D02*X25893D01*
G54D215*X111600Y222900D03*
G54D204*X25607Y239926D02*X26393D01*
X25607Y243074D02*X26393D01*
X25607Y232926D02*X26393D01*
X25607Y236074D02*X26393D01*
G54D215*X111400Y286700D03*
G54D204*X24607Y302926D02*X25393D01*
X24607Y306074D02*X25393D01*
X24607Y295926D02*X25393D01*
X24607Y299074D02*X25393D01*
G54D215*X121100Y37200D03*
X117600Y60900D03*
X118700Y64700D03*
G54D208*X95859Y39992D02*Y39008D01*
X90741Y39992D02*Y39008D01*
X95859Y56892D02*Y55908D01*
X90741Y56892D02*Y55908D01*
X95759Y69392D02*Y68408D01*
X90641Y69392D02*Y68408D01*
G54D204*X81533Y103800D02*X82319D01*
X81533Y106948D02*X82319D01*
X69007Y103626D02*X69793D01*
X69007Y106774D02*X69793D01*
G54D209*X129131Y180829D02*X130895D01*
X129131Y178860D02*X131295D01*
X129131Y176891D02*X131295D01*
X129131Y174922D02*X131295D01*
X129131Y172953D02*X131295D01*
X129131Y170984D02*X131295D01*
X129131Y169015D02*X131295D01*
X129131Y167046D02*X131295D01*
X129131Y165077D02*X131295D01*
X129131Y163108D02*X131295D01*
X129131Y161139D02*X131295D01*
X129131Y159170D02*X130895D01*
X156105Y159171D02*X157869D01*
X155705Y161140D02*X157869D01*
X155705Y163109D02*X157869D01*
X155705Y165078D02*X157869D01*
X155705Y167047D02*X157869D01*
X155705Y169016D02*X157869D01*
X155705Y170985D02*X157869D01*
X155705Y172954D02*X157869D01*
X155705Y174923D02*X157869D01*
X155705Y176892D02*X157869D01*
X155705Y178861D02*X157869D01*
X156105Y180830D02*X157869D01*
X132671Y157395D02*Y155631D01*
X134640Y157795D02*Y155631D01*
X136609Y157795D02*Y155631D01*
X138578Y157795D02*Y155631D01*
X140547Y157795D02*Y155631D01*
X142516Y157795D02*Y155631D01*
X144485Y157795D02*Y155631D01*
X146454Y157795D02*Y155631D01*
X148423Y157795D02*Y155631D01*
X150392Y157795D02*Y155631D01*
X152361Y157795D02*Y155631D01*
X154330Y157395D02*Y155631D01*
X154329Y184369D02*Y182605D01*
X152360Y184369D02*Y182205D01*
X150391Y184369D02*Y182205D01*
X148422Y184369D02*Y182205D01*
X146453Y184369D02*Y182205D01*
X144484Y184369D02*Y182205D01*
X142515Y184369D02*Y182205D01*
X140546Y184369D02*Y182205D01*
X138577Y184369D02*Y182205D01*
X136608Y184369D02*Y182205D01*
X134639Y184369D02*Y182205D01*
X132670Y184369D02*Y182605D01*
G54D210*G36*
X135500Y178000D02*Y173400D01*
X140100D01*
Y178000D01*
X135500D01*
G37*
G36*
X141200D02*Y173400D01*
X145800D01*
Y178000D01*
X141200D01*
G37*
G36*
X146900D02*Y173400D01*
X151500D01*
Y178000D01*
X146900D01*
G37*
G36*
X135500Y172300D02*Y167700D01*
X140100D01*
Y172300D01*
X135500D01*
G37*
G36*
X141200D02*Y167700D01*
X145800D01*
Y172300D01*
X141200D01*
G37*
G36*
X146900D02*Y167700D01*
X151500D01*
Y172300D01*
X146900D01*
G37*
G36*
X135500Y166600D02*Y162000D01*
X140100D01*
Y166600D01*
X135500D01*
G37*
G36*
X141200D02*Y162000D01*
X145800D01*
Y166600D01*
X141200D01*
G37*
G36*
X146900D02*Y162000D01*
X151500D01*
Y166600D01*
X146900D01*
G37*
G54D208*X31508Y154941D02*X32492D01*
X31508Y160059D02*X32492D01*
G54D204*X38926Y186393D02*Y185607D01*
X42074Y186393D02*Y185607D01*
X46426Y160393D02*Y159607D01*
X49574Y160393D02*Y159607D01*
G54D208*X31508Y218941D02*X32492D01*
X31508Y224059D02*X32492D01*
G54D204*X38926Y249393D02*Y248607D01*
X42074Y249393D02*Y248607D01*
X46426Y224393D02*Y223607D01*
X49574Y224393D02*Y223607D01*
G54D208*X31008Y281941D02*X31992D01*
X31008Y287059D02*X31992D01*
G54D204*X38926Y312393D02*Y311607D01*
X42074Y312393D02*Y311607D01*
X46426Y287393D02*Y286607D01*
X49574Y287393D02*Y286607D01*
X25107Y176926D02*X25893D01*
X25107Y180074D02*X25893D01*
G54D217*X126388Y65267D02*X127766D01*
X126388Y63298D02*X127766D01*
X126388Y61329D02*X127766D01*
X126388Y59360D02*X127766D01*
X126388Y57391D02*X127766D01*
X126388Y55422D02*X127766D01*
X126388Y53453D02*X127766D01*
X126388Y51484D02*X127766D01*
X126388Y49515D02*X127766D01*
X126388Y47546D02*X127766D01*
X126388Y45577D02*X127766D01*
X126388Y43608D02*X127766D01*
X126388Y41639D02*X127766D01*
X126388Y39670D02*X127766D01*
X126388Y37701D02*X127766D01*
X126388Y35732D02*X127766D01*
X161034Y35733D02*X162412D01*
X161034Y37702D02*X162412D01*
X161034Y39671D02*X162412D01*
X161034Y41640D02*X162412D01*
X161034Y43609D02*X162412D01*
X161034Y45578D02*X162412D01*
X161034Y47547D02*X162412D01*
X161034Y49516D02*X162412D01*
X161034Y51485D02*X162412D01*
X161034Y53454D02*X162412D01*
X161034Y55423D02*X162412D01*
X161034Y57392D02*X162412D01*
X161034Y59361D02*X162412D01*
X161034Y61330D02*X162412D01*
X161034Y63299D02*X162412D01*
X161034Y65268D02*X162412D01*
X129633Y33866D02*Y32488D01*
X131602Y33866D02*Y32488D01*
X133571Y33866D02*Y32488D01*
X135540Y33866D02*Y32488D01*
X137509Y33866D02*Y32488D01*
X139478Y33866D02*Y32488D01*
X141447Y33866D02*Y32488D01*
X143416Y33866D02*Y32488D01*
X145385Y33866D02*Y32488D01*
X147354Y33866D02*Y32488D01*
X149323Y33866D02*Y32488D01*
X151292Y33866D02*Y32488D01*
X153261Y33866D02*Y32488D01*
X155230Y33866D02*Y32488D01*
X157199Y33866D02*Y32488D01*
X159168Y33866D02*Y32488D01*
X159167Y68512D02*Y67134D01*
X157198Y68512D02*Y67134D01*
X155229Y68512D02*Y67134D01*
X153260Y68512D02*Y67134D01*
X151291Y68512D02*Y67134D01*
X149322Y68512D02*Y67134D01*
X147353Y68512D02*Y67134D01*
X145384Y68512D02*Y67134D01*
X143415Y68512D02*Y67134D01*
X141446Y68512D02*Y67134D01*
X139477Y68512D02*Y67134D01*
X137508Y68512D02*Y67134D01*
X135539Y68512D02*Y67134D01*
X133570Y68512D02*Y67134D01*
X131601Y68512D02*Y67134D01*
X129632Y68512D02*Y67134D01*
G54D210*G36*
X133600Y61300D02*Y55300D01*
X139600D01*
Y61300D01*
X133600D01*
G37*
G36*
X141400D02*Y55300D01*
X147400D01*
Y61300D01*
X141400D01*
G37*
G36*
X149200D02*Y55300D01*
X155200D01*
Y61300D01*
X149200D01*
G37*
G36*
X133600Y53500D02*Y47500D01*
X139600D01*
Y53500D01*
X133600D01*
G37*
G36*
X141400D02*Y47500D01*
X147400D01*
Y53500D01*
X141400D01*
G37*
G36*
X149200D02*Y47500D01*
X155200D01*
Y53500D01*
X149200D01*
G37*
G36*
X133600Y45700D02*Y39700D01*
X139600D01*
Y45700D01*
X133600D01*
G37*
G36*
X141400D02*Y39700D01*
X147400D01*
Y45700D01*
X141400D01*
G37*
G36*
X149200D02*Y39700D01*
X155200D01*
Y45700D01*
X149200D01*
G37*
G54D217*X204102Y237457D02*X208826D01*
X204102Y235488D02*X208826D01*
X204102Y233519D02*X208826D01*
X204102Y231550D02*X208826D01*
X204102Y229581D02*X208826D01*
X204102Y227612D02*X208826D01*
X204102Y225643D02*X208826D01*
X204102Y223674D02*X208826D01*
X204102Y221705D02*X208826D01*
X204102Y219736D02*X208826D01*
X204102Y217767D02*X208826D01*
X204102Y215798D02*X208826D01*
X204102Y213829D02*X208826D01*
X204102Y211860D02*X208826D01*
X204102Y209891D02*X208826D01*
X204102Y207922D02*X208826D01*
X204102Y205953D02*X208826D01*
X204102Y203984D02*X208826D01*
X204102Y202015D02*X208826D01*
X204102Y200046D02*X208826D01*
X204102Y198077D02*X208826D01*
X204102Y196108D02*X208826D01*
X204102Y194139D02*X208826D01*
X204102Y192170D02*X208826D01*
X204102Y190201D02*X208826D01*
X204102Y188232D02*X208826D01*
X204102Y186263D02*X208826D01*
X204102Y184294D02*X208826D01*
X204102Y182325D02*X208826D01*
X204102Y180356D02*X208826D01*
X204102Y178387D02*X208826D01*
X204102Y176418D02*X208826D01*
X204102Y174449D02*X208826D01*
X204102Y172480D02*X208826D01*
X204102Y170511D02*X208826D01*
X204102Y168542D02*X208826D01*
X287173Y168543D02*X291897D01*
X287173Y170512D02*X291897D01*
X287173Y172481D02*X291897D01*
X287173Y174450D02*X291897D01*
X287173Y176419D02*X291897D01*
X287173Y178388D02*X291897D01*
X287173Y180357D02*X291897D01*
X287173Y182326D02*X291897D01*
X287173Y184295D02*X291897D01*
X287173Y186264D02*X291897D01*
X287173Y188233D02*X291897D01*
X287173Y190202D02*X291897D01*
X287173Y192171D02*X291897D01*
X287173Y194140D02*X291897D01*
X287173Y196109D02*X291897D01*
X287173Y198078D02*X291897D01*
X287173Y200047D02*X291897D01*
X287173Y202016D02*X291897D01*
X287173Y203985D02*X291897D01*
X287173Y205954D02*X291897D01*
X287173Y207923D02*X291897D01*
X287173Y209892D02*X291897D01*
X287173Y211861D02*X291897D01*
X287173Y213830D02*X291897D01*
X287173Y215799D02*X291897D01*
X287173Y217768D02*X291897D01*
X287173Y219737D02*X291897D01*
X287173Y221706D02*X291897D01*
X287173Y223675D02*X291897D01*
X287173Y225644D02*X291897D01*
X287173Y227613D02*X291897D01*
X287173Y229582D02*X291897D01*
X287173Y231551D02*X291897D01*
X287173Y233520D02*X291897D01*
X287173Y235489D02*X291897D01*
X287173Y237458D02*X291897D01*
X213543Y163827D02*Y159103D01*
X215512Y163827D02*Y159103D01*
X217481Y163827D02*Y159103D01*
X219450Y163827D02*Y159103D01*
X221419Y163827D02*Y159103D01*
X223388Y163827D02*Y159103D01*
X225357Y163827D02*Y159103D01*
X227326Y163827D02*Y159103D01*
X229295Y163827D02*Y159103D01*
X231264Y163827D02*Y159103D01*
X233233Y163827D02*Y159103D01*
X235202Y163827D02*Y159103D01*
X237171Y163827D02*Y159103D01*
X239140Y163827D02*Y159103D01*
X241109Y163827D02*Y159103D01*
X243078Y163827D02*Y159103D01*
X245047Y163827D02*Y159103D01*
X247016Y163827D02*Y159103D01*
X248985Y163827D02*Y159103D01*
X250954Y163827D02*Y159103D01*
X252923Y163827D02*Y159103D01*
X254892Y163827D02*Y159103D01*
X256861Y163827D02*Y159103D01*
X258830Y163827D02*Y159103D01*
X260799Y163827D02*Y159103D01*
X262768Y163827D02*Y159103D01*
X264737Y163827D02*Y159103D01*
X266706Y163827D02*Y159103D01*
X268675Y163827D02*Y159103D01*
X270644Y163827D02*Y159103D01*
X272613Y163827D02*Y159103D01*
X274582Y163827D02*Y159103D01*
X276551Y163827D02*Y159103D01*
X278520Y163827D02*Y159103D01*
X280489Y163827D02*Y159103D01*
X282458Y163827D02*Y159103D01*
X282457Y246898D02*Y242174D01*
X280488Y246898D02*Y242174D01*
X278519Y246898D02*Y242174D01*
X276550Y246898D02*Y242174D01*
X274581Y246898D02*Y242174D01*
X272612Y246898D02*Y242174D01*
X270643Y246898D02*Y242174D01*
X268674Y246898D02*Y242174D01*
X266705Y246898D02*Y242174D01*
X264736Y246898D02*Y242174D01*
X262767Y246898D02*Y242174D01*
X260798Y246898D02*Y242174D01*
X258829Y246898D02*Y242174D01*
X256860Y246898D02*Y242174D01*
X254891Y246898D02*Y242174D01*
X252922Y246898D02*Y242174D01*
X250953Y246898D02*Y242174D01*
X248984Y246898D02*Y242174D01*
X247015Y246898D02*Y242174D01*
X245046Y246898D02*Y242174D01*
X243077Y246898D02*Y242174D01*
X241108Y246898D02*Y242174D01*
X239139Y246898D02*Y242174D01*
X237170Y246898D02*Y242174D01*
X235201Y246898D02*Y242174D01*
X233232Y246898D02*Y242174D01*
X231263Y246898D02*Y242174D01*
X229294Y246898D02*Y242174D01*
X227325Y246898D02*Y242174D01*
X225356Y246898D02*Y242174D01*
X223387Y246898D02*Y242174D01*
X221418Y246898D02*Y242174D01*
X219449Y246898D02*Y242174D01*
X217480Y246898D02*Y242174D01*
X215511Y246898D02*Y242174D01*
X213542Y246898D02*Y242174D01*
G54D204*X146207Y21452D02*X146993D01*
X146207Y24600D02*X146993D01*
X76507Y36252D02*X77293D01*
X76507Y39400D02*X77293D01*
G54D208*X62108Y56700D02*X63092D01*
X62108Y61818D02*X63092D01*
X73041Y107592D02*Y106608D01*
X78159Y107592D02*Y106608D01*
G54D204*X59626Y65993D02*Y65207D01*
X62774Y65993D02*Y65207D01*
X59626Y53293D02*Y52507D01*
X62774Y53293D02*Y52507D01*
G54D207*X299158Y35800D02*X314906D01*
X265693D02*X281441D01*
G54D216*X213004Y12500D02*X230996D01*
X213004Y54900D02*X230996D01*
G54D206*X255393Y320200D02*X258935D01*
X275865D02*X279407D01*
G54D204*X287007Y272026D02*X287793D01*
X287007Y275174D02*X287793D01*
G54D208*X279808Y270341D02*X280792D01*
X279808Y275459D02*X280792D01*
G54D204*X303907Y276274D02*X304693D01*
X303907Y273126D02*X304693D01*
G54D217*X279009Y285605D02*Y283833D01*
X280978Y285605D02*Y283833D01*
X282947Y285605D02*Y283833D01*
X284916Y285605D02*Y283833D01*
X286885Y285605D02*Y283833D01*
X288854Y285605D02*Y283833D01*
X290823Y285605D02*Y283833D01*
X292792Y285605D02*Y283833D01*
X292791Y300566D02*Y298794D01*
X290822Y300566D02*Y298794D01*
X288853Y300566D02*Y298794D01*
X286884Y300566D02*Y298794D01*
X284915Y300566D02*Y298794D01*
X282946Y300566D02*Y298794D01*
X280977Y300566D02*Y298794D01*
X279008Y300566D02*Y298794D01*
X294463Y287278D02*X296235D01*
X294463Y289247D02*X296235D01*
X294463Y291216D02*X296235D01*
X294463Y293185D02*X296235D01*
X294463Y295154D02*X296235D01*
X294463Y297123D02*X296235D01*
X275565Y297122D02*X277337D01*
X275565Y295153D02*X277337D01*
X275565Y293184D02*X277337D01*
X275565Y291215D02*X277337D01*
X275565Y289246D02*X277337D01*
X275565Y287277D02*X277337D01*
G54D210*G36*
X280950Y294350D02*Y290050D01*
X285250D01*
Y294350D01*
X280950D01*
G37*
G36*
X286550D02*Y290050D01*
X290850D01*
Y294350D01*
X286550D01*
G37*
G54D215*X275900Y277200D03*
X295500Y276800D03*
G54D207*X261187Y297921D02*Y288079D01*
X247013Y297921D02*Y288079D01*
G54D205*X231545Y311605D02*X237055D01*
X231545Y299795D02*X237055D01*
G54D204*X256626Y273193D02*Y272407D01*
X259774Y273193D02*Y272407D01*
X264507Y273026D02*X265293D01*
X264507Y276174D02*X265293D01*
G54D215*X270100Y285900D03*
G54D205*X326695Y269555D02*Y264045D01*
X338505Y269555D02*Y264045D01*
G54D208*X347959Y332692D02*Y331708D01*
X342841Y332692D02*Y331708D01*
G54D204*X356174Y332593D02*Y331807D01*
X353026Y332593D02*Y331807D01*
X301526Y258593D02*Y257807D01*
X304674Y258593D02*Y257807D01*
X292474Y258593D02*Y257807D01*
X289326Y258593D02*Y257807D01*
X292448Y262793D02*Y262007D01*
X289300Y262793D02*Y262007D01*
X301352Y262793D02*Y262007D01*
X304500Y262793D02*Y262007D01*
X314567Y241093D02*Y240307D01*
X317715Y241093D02*Y240307D01*
G54D208*X322582Y240992D02*Y240008D01*
X327700Y240992D02*Y240008D01*
X322482Y235492D02*Y234508D01*
X327600Y235492D02*Y234508D01*
G54D204*X314467Y234893D02*Y234107D01*
X317615Y234893D02*Y234107D01*
G54D217*X287003Y84771D02*X288381D01*
X287003Y86740D02*X288381D01*
X287003Y88709D02*X288381D01*
X287003Y90678D02*X288381D01*
X287003Y92647D02*X288381D01*
X287003Y94616D02*X288381D01*
X287003Y96585D02*X288381D01*
X287003Y98554D02*X288381D01*
X287003Y100523D02*X288381D01*
X287003Y102492D02*X288381D01*
X287003Y104461D02*X288381D01*
X287003Y106430D02*X288381D01*
X261019Y106429D02*X262397D01*
X261019Y104460D02*X262397D01*
X261019Y102491D02*X262397D01*
X261019Y100522D02*X262397D01*
X261019Y98553D02*X262397D01*
X261019Y96584D02*X262397D01*
X261019Y94615D02*X262397D01*
X261019Y92646D02*X262397D01*
X261019Y90677D02*X262397D01*
X261019Y88708D02*X262397D01*
X261019Y86739D02*X262397D01*
X261019Y84770D02*X262397D01*
X285529Y109281D02*Y107903D01*
X283560Y109281D02*Y107903D01*
X281591Y109281D02*Y107903D01*
X279622Y109281D02*Y107903D01*
X277653Y109281D02*Y107903D01*
X275684Y109281D02*Y107903D01*
X273715Y109281D02*Y107903D01*
X271746Y109281D02*Y107903D01*
X269777Y109281D02*Y107903D01*
X267808Y109281D02*Y107903D01*
X265839Y109281D02*Y107903D01*
X263870Y109281D02*Y107903D01*
X263871Y83297D02*Y81919D01*
X265840Y83297D02*Y81919D01*
X267809Y83297D02*Y81919D01*
X269778Y83297D02*Y81919D01*
X271747Y83297D02*Y81919D01*
X273716Y83297D02*Y81919D01*
X275685Y83297D02*Y81919D01*
X277654Y83297D02*Y81919D01*
X279623Y83297D02*Y81919D01*
X281592Y83297D02*Y81919D01*
X283561Y83297D02*Y81919D01*
X285530Y83297D02*Y81919D01*
G54D210*G36*
X266950Y103350D02*Y96850D01*
X273450D01*
Y103350D01*
X266950D01*
G37*
G36*
Y94350D02*Y87850D01*
X273450D01*
Y94350D01*
X266950D01*
G37*
G36*
X275950Y103350D02*Y96850D01*
X282450D01*
Y103350D01*
X275950D01*
G37*
G36*
Y94350D02*Y87850D01*
X282450D01*
Y94350D01*
X275950D01*
G37*
G54D204*X282226Y53793D02*Y53007D01*
X285374Y53793D02*Y53007D01*
X292700Y53893D02*Y53107D01*
X289552Y53893D02*Y53107D01*
G54D208*X354959Y33192D02*Y32208D01*
X349841Y33192D02*Y32208D01*
G54D204*X241574Y90593D02*Y89807D01*
X244722Y90593D02*Y89807D01*
X241800Y105593D02*Y104807D01*
X244948Y105593D02*Y104807D01*
X241600Y101393D02*Y100607D01*
X244748Y101393D02*Y100607D01*
X241600Y97793D02*Y97007D01*
X244748Y97793D02*Y97007D01*
X241600Y94193D02*Y93407D01*
X244748Y94193D02*Y93407D01*
X241600Y86893D02*Y86107D01*
X244748Y86893D02*Y86107D01*
M02*
