G04 start of page 2 for group 0 idx 0 *
G04 Title: (unknown), component *
G04 Creator: pcb 20140316 *
G04 CreationDate: Tue 20 May 2014 05:08:15 AM GMT UTC *
G04 For: pmonta *
G04 Format: Gerber/RS-274X *
G04 PCB-Dimensions (mil): 4200.00 3400.00 *
G04 PCB-Coordinate-Origin: lower left *
%MOIN*%
%FSLAX25Y25*%
%LNTOP*%
%ADD55C,0.0400*%
%ADD54C,0.1280*%
%ADD53C,0.0350*%
%ADD52C,0.0420*%
%ADD51C,0.1250*%
%ADD50C,0.0960*%
%ADD49C,0.1000*%
%ADD48C,0.1100*%
%ADD47C,0.0354*%
%ADD46C,0.0150*%
%ADD45C,0.0250*%
%ADD44R,0.0160X0.0160*%
%ADD43R,0.1200X0.1200*%
%ADD42R,0.0200X0.0200*%
%ADD41R,0.0280X0.0280*%
%ADD40R,0.0118X0.0118*%
%ADD39C,0.0394*%
%ADD38R,0.0402X0.0402*%
%ADD37R,0.0370X0.0370*%
%ADD36R,0.0300X0.0300*%
%ADD35R,0.1043X0.1043*%
%ADD34R,0.0591X0.0591*%
%ADD33C,0.0200*%
%ADD32R,0.0965X0.0965*%
%ADD31R,0.0098X0.0098*%
%ADD30R,0.0197X0.0197*%
%ADD29R,0.0295X0.0295*%
%ADD28R,0.0827X0.0827*%
%ADD27R,0.0512X0.0512*%
%ADD26C,0.0600*%
%ADD25C,0.1480*%
%ADD24C,0.0820*%
%ADD23C,0.0550*%
%ADD22C,0.0620*%
%ADD21C,0.1450*%
%ADD20C,0.1800*%
%ADD19C,0.1200*%
%ADD18C,0.0830*%
%ADD17C,0.1300*%
%ADD16C,0.0554*%
%ADD15C,0.0120*%
%ADD14C,0.0100*%
%ADD13C,0.0060*%
%ADD12C,0.0180*%
%ADD11C,0.0001*%
G54D11*G36*
X274300Y333900D02*X298000D01*
Y326121D01*
X288113Y326114D01*
X287960Y326077D01*
X287815Y326017D01*
X287680Y325935D01*
X287561Y325832D01*
X287458Y325713D01*
X287376Y325578D01*
X287316Y325433D01*
X287279Y325280D01*
X287270Y325123D01*
X287278Y317100D01*
X285228D01*
X285221Y325180D01*
X285184Y325333D01*
X285124Y325478D01*
X285042Y325613D01*
X284939Y325732D01*
X284820Y325835D01*
X284685Y325917D01*
X284540Y325977D01*
X284387Y326014D01*
X284230Y326023D01*
X274300Y326016D01*
Y333900D01*
G37*
G36*
X285225Y320200D02*X287275D01*
X287279Y315320D01*
X287316Y315167D01*
X287376Y315022D01*
X287458Y314887D01*
X287561Y314768D01*
X287680Y314665D01*
X287815Y314583D01*
X287960Y314523D01*
X288113Y314486D01*
X288270Y314477D01*
X294800Y314482D01*
Y303700D01*
X290100D01*
Y307800D01*
X281700D01*
Y303700D01*
X277636D01*
Y314382D01*
X284387Y314386D01*
X284540Y314423D01*
X284685Y314483D01*
X284820Y314565D01*
X284939Y314668D01*
X285042Y314787D01*
X285124Y314922D01*
X285184Y315067D01*
X285221Y315220D01*
X285230Y315377D01*
X285225Y320200D01*
G37*
G36*
X229800Y324400D02*X249571D01*
X249579Y315220D01*
X249616Y315067D01*
X249676Y314922D01*
X249758Y314787D01*
X249861Y314668D01*
X249980Y314565D01*
X250115Y314483D01*
X250260Y314423D01*
X250413Y314386D01*
X250570Y314377D01*
X256800Y314381D01*
Y309200D01*
X240614D01*
X240605Y314321D01*
X240568Y314474D01*
X240508Y314619D01*
X240426Y314754D01*
X240323Y314873D01*
X240204Y314976D01*
X240069Y315058D01*
X239924Y315118D01*
X239771Y315155D01*
X239614Y315164D01*
X229800Y315156D01*
Y324400D01*
G37*
G36*
X349000Y293500D02*X351474D01*
X351482Y285547D01*
X351519Y285394D01*
X351579Y285249D01*
X351661Y285114D01*
X351764Y284995D01*
X351883Y284892D01*
X352018Y284810D01*
X352163Y284750D01*
X352316Y284713D01*
X352473Y284704D01*
X361684Y284713D01*
X361837Y284750D01*
X361982Y284810D01*
X362117Y284892D01*
X362236Y284995D01*
X362339Y285114D01*
X362421Y285249D01*
X362481Y285394D01*
X362518Y285547D01*
X362527Y285704D01*
X362518Y293500D01*
X365000D01*
Y282834D01*
X364885Y282557D01*
X364582Y281295D01*
X364480Y280000D01*
X364582Y278705D01*
X364885Y277443D01*
X365000Y277166D01*
Y276000D01*
X349000D01*
Y293500D01*
G37*
G36*
Y320500D02*X365000D01*
Y303500D01*
X362526D01*
X362518Y311452D01*
X362481Y311605D01*
X362421Y311750D01*
X362339Y311885D01*
X362236Y312004D01*
X362117Y312107D01*
X361982Y312189D01*
X361837Y312249D01*
X361684Y312286D01*
X361527Y312295D01*
X352316Y312286D01*
X352163Y312249D01*
X352018Y312189D01*
X351883Y312107D01*
X351764Y312004D01*
X351661Y311885D01*
X351579Y311750D01*
X351519Y311605D01*
X351482Y311452D01*
X351473Y311295D01*
X351482Y303500D01*
X349000D01*
Y320500D01*
G37*
G36*
X317100Y272200D02*X323141D01*
X323136Y272114D01*
X323145Y261700D01*
X317100D01*
Y272200D01*
G37*
G36*
X344400Y274627D02*Y267400D01*
X342059D01*
X342055Y272271D01*
X342018Y272424D01*
X341958Y272569D01*
X341876Y272704D01*
X341773Y272823D01*
X341654Y272926D01*
X341519Y273008D01*
X341374Y273068D01*
X341221Y273105D01*
X341064Y273114D01*
X335789Y273105D01*
X335636Y273068D01*
X335491Y273008D01*
X335356Y272926D01*
X335237Y272823D01*
X335134Y272704D01*
X335052Y272569D01*
X334992Y272424D01*
X334955Y272271D01*
X334946Y272114D01*
X334950Y267400D01*
X332800D01*
Y274518D01*
X332876Y274487D01*
X333029Y274450D01*
X333186Y274441D01*
X343971Y274450D01*
X344124Y274487D01*
X344269Y274547D01*
X344400Y274627D01*
G37*
G36*
X327800Y302500D02*X332049D01*
X332032Y302459D01*
X331995Y302306D01*
X331986Y302149D01*
X331995Y296874D01*
X332032Y296721D01*
X332092Y296576D01*
X332174Y296441D01*
X332277Y296322D01*
X332396Y296219D01*
X332531Y296137D01*
X332676Y296077D01*
X332829Y296040D01*
X332986Y296031D01*
X343771Y296040D01*
X343924Y296077D01*
X344069Y296137D01*
X344200Y296217D01*
Y293292D01*
X344124Y293323D01*
X343971Y293360D01*
X343814Y293369D01*
X333029Y293360D01*
X332876Y293323D01*
X332731Y293263D01*
X332596Y293181D01*
X332477Y293078D01*
X332374Y292959D01*
X332292Y292824D01*
X332232Y292679D01*
X332195Y292526D01*
X332186Y292369D01*
X332195Y287094D01*
X332218Y287000D01*
X329639D01*
X329631Y300931D01*
X329594Y301084D01*
X329534Y301229D01*
X329452Y301364D01*
X329349Y301483D01*
X329230Y301586D01*
X329095Y301668D01*
X328950Y301728D01*
X328797Y301765D01*
X328640Y301774D01*
X327800Y301773D01*
Y302500D01*
G37*
G36*
X341878Y272700D02*X351000D01*
Y260900D01*
X341878D01*
X341958Y261031D01*
X342018Y261176D01*
X342055Y261329D01*
X342064Y261486D01*
X342055Y272271D01*
X342018Y272424D01*
X341958Y272569D01*
X341878Y272700D01*
G37*
G36*
X315900Y309300D02*Y314482D01*
X322087Y314486D01*
X322240Y314523D01*
X322385Y314583D01*
X322520Y314665D01*
X322639Y314768D01*
X322742Y314887D01*
X322824Y315022D01*
X322884Y315167D01*
X322921Y315320D01*
X322930Y315477D01*
X322922Y324200D01*
X342700D01*
Y314958D01*
X332829Y314950D01*
X332676Y314913D01*
X332531Y314853D01*
X332396Y314771D01*
X332277Y314668D01*
X332174Y314549D01*
X332092Y314414D01*
X332032Y314269D01*
X331995Y314116D01*
X331986Y313959D01*
X331994Y309300D01*
X315900D01*
G37*
G36*
X223800Y322095D02*Y321061D01*
X219100Y321057D01*
Y322086D01*
X223800Y322095D01*
G37*
G36*
X225048Y333900D02*X228000D01*
Y322800D01*
X225024D01*
X225055Y322929D01*
X225064Y323086D01*
X225055Y333871D01*
X225048Y333900D01*
G37*
G36*
X226500Y302145D02*Y302000D01*
X227987D01*
X227995Y297079D01*
X228032Y296926D01*
X228092Y296781D01*
X228174Y296646D01*
X228277Y296527D01*
X228396Y296424D01*
X228531Y296342D01*
X228676Y296282D01*
X228829Y296245D01*
X228986Y296236D01*
X239000Y296245D01*
Y291500D01*
X228500D01*
X217863Y302137D01*
X226500Y302145D01*
G37*
G36*
X240606Y301700D02*X243494D01*
X243470Y301686D01*
X243351Y301583D01*
X243248Y301464D01*
X243166Y301329D01*
X243106Y301184D01*
X243069Y301031D01*
X243060Y300874D01*
X243068Y287300D01*
X234600D01*
Y296241D01*
X239771Y296245D01*
X239924Y296282D01*
X240069Y296342D01*
X240204Y296424D01*
X240323Y296527D01*
X240426Y296646D01*
X240508Y296781D01*
X240568Y296926D01*
X240605Y297079D01*
X240614Y297236D01*
X240606Y301700D01*
G37*
G36*
X198200Y333900D02*X206152D01*
X206145Y333871D01*
X206136Y333714D01*
X206145Y322929D01*
X206176Y322800D01*
X198200D01*
Y333900D01*
G37*
G54D12*X135074Y194374D02*X135200Y194500D01*
X132000D01*
X131900Y194400D01*
G54D13*X139400Y200700D02*X136900Y198200D01*
X97800D01*
G54D12*X90500Y201500D02*X93500D01*
X115500D02*X112500D01*
G54D13*X140900Y199600D02*X138000Y196700D01*
X137800Y194400D02*X144300Y200900D01*
X140100Y194500D02*X148500Y202900D01*
X143000Y194600D02*Y195300D01*
X148250Y202650D02*X148350D01*
X138000Y196700D02*X99300D01*
X95000Y195300D02*Y195400D01*
X97800Y198200D01*
X96900Y194300D02*X99300Y196700D01*
X137800Y194000D02*Y194400D01*
G54D12*X125200Y193800D02*X125100Y193900D01*
X125200Y191074D02*Y193800D01*
X125100Y191326D02*X125200Y191426D01*
G54D13*X125800Y187900D02*X125100Y188600D01*
G54D12*X125200Y185400D02*Y187978D01*
G54D13*X126100Y184500D02*X125200Y185400D01*
X95000Y195400D02*Y179275D01*
X95062Y179213D01*
X96900Y194300D02*Y179344D01*
X97031Y179213D01*
G54D12*X121326Y184274D02*X120900Y184700D01*
X121326Y181900D02*Y184274D01*
G54D13*X124474Y181900D02*Y181726D01*
X138577Y187777D02*X139100Y188300D01*
X96900Y144474D02*X97474Y143900D01*
X97400Y143974D02*X97474Y143900D01*
X96500Y146100D02*X97474Y145126D01*
Y143900D01*
G54D12*X101200Y142926D02*X104374D01*
X93100Y142900D02*X90700D01*
X94100Y143900D02*X93100Y142900D01*
X94326Y143900D02*X94100D01*
G54D13*X95126Y148374D02*Y146974D01*
G54D12*X90500Y138500D02*X93500D01*
G54D13*X95126Y146974D02*X96000Y146100D01*
X96500D01*
G54D12*X87526Y146226D02*X87400Y146100D01*
X90900Y146226D02*X87526D01*
G54D13*X95126Y147400D02*Y147274D01*
Y148400D02*Y147274D01*
X93726Y152200D02*X90900Y149374D01*
X95126Y152200D02*X93726D01*
X94000Y153326D02*X95126Y152200D01*
X91300Y155426D02*X91174Y155300D01*
X98274Y152200D02*Y148400D01*
X98574Y152500D02*X98274Y152200D01*
X99800Y152500D02*X98574D01*
X101400Y154100D02*X99800Y152500D01*
X101600Y154100D02*X101400D01*
X101900Y154400D02*X101600Y154100D01*
X100969Y158031D02*X101900Y157100D01*
X100969Y160788D02*Y158031D01*
X108212Y164093D02*Y163288D01*
X111400Y160100D01*
X99000Y156400D02*X99600Y155800D01*
X97031Y156331D02*X96500Y155800D01*
G54D12*X114800Y157726D02*Y155600D01*
X115600Y154800D01*
G54D13*X99000Y160788D02*Y156400D01*
X97031Y160788D02*Y156331D01*
X94000Y157700D02*Y153326D01*
X95062Y158762D02*X94000Y157700D01*
X95062Y160788D02*Y158762D01*
G54D12*X88026Y152374D02*X88100Y152300D01*
X88026Y155300D02*Y152374D01*
X84500Y153800D02*X84600Y153700D01*
X84500Y156226D02*Y153800D01*
X80800Y161826D02*Y159000D01*
G54D13*X85100Y167700D02*X78300D01*
X91300Y159200D02*Y155426D01*
X92888Y160788D02*X91300Y159200D01*
X93093Y160788D02*X92888D01*
G54D12*X84300Y159574D02*X84500Y159374D01*
X84300Y161700D02*Y159574D01*
G54D13*X86693Y164093D02*X84500Y161900D01*
X89787Y164093D02*X86693D01*
G54D12*X108526Y147000D02*Y144226D01*
X104200Y150026D02*Y148400D01*
X105700Y146900D01*
G54D13*X98874Y148400D02*X101200Y146074D01*
X98274Y148400D02*X98874D01*
X74102Y133908D02*X136500Y133900D01*
X138500Y135900D01*
Y140600D01*
X140100Y133300D02*Y139500D01*
G54D12*X108526Y144226D02*X107700Y143400D01*
X104374Y142926D02*X104400Y142900D01*
X115500Y138500D02*X112000D01*
X81074Y164700D02*X80800Y164974D01*
X84300Y164700D02*X81074D01*
G54D13*X85662Y166062D02*X84500Y164900D01*
X89787Y166062D02*X85662D01*
X85431Y168031D02*X85100Y167700D01*
X89787Y168031D02*X85431D01*
G54D12*X99526Y184626D02*X99400Y184500D01*
X99526Y189100D02*Y184626D01*
G54D13*X102100Y185074D02*X102326Y185300D01*
X102100Y183000D02*Y185074D01*
X99000Y184100D02*X99400Y184500D01*
G54D12*X105200Y189100D02*X105600Y188700D01*
X102674Y189100D02*X105200D01*
G54D13*X105500Y185274D02*X105474Y185300D01*
X100969Y181869D02*X102100Y183000D01*
X105113Y179213D02*X108100Y182200D01*
X104907Y179213D02*X105113D01*
X105500Y183000D02*Y185274D01*
X104800Y182300D02*X105500Y183000D01*
X104100Y182300D02*X104800D01*
X102938Y181138D02*X104100Y182300D01*
X102938Y179213D02*Y181138D01*
X100969Y179213D02*Y181869D01*
X99000Y179213D02*Y184100D01*
X93093Y182307D02*X90900Y184500D01*
X93093Y179213D02*Y182307D01*
G54D12*X83900Y174400D02*X84500Y173800D01*
X81600Y174400D02*X83900D01*
G54D13*X84500Y173800D02*X84600D01*
G54D12*X80600Y175400D02*X81600Y174400D01*
X80600Y175626D02*Y175400D01*
G54D13*X89500Y176194D02*X89787Y175907D01*
X89725Y174000D02*X89787Y173938D01*
X87400Y174000D02*X89725D01*
X87100Y174300D02*X87400Y174000D01*
X87100Y174500D02*Y174300D01*
X89756Y172000D02*X89787Y171969D01*
X89487Y170300D02*X89787Y170000D01*
X86400Y172000D02*X89756D01*
X83374Y170300D02*X89487D01*
X84600Y173800D02*X86400Y172000D01*
G54D12*X84500Y184226D02*Y180700D01*
X84274Y187600D02*X84500Y187374D01*
X81300Y187600D02*X84274D01*
G54D13*X89500Y177600D02*Y176194D01*
X86400Y180700D02*X89500Y177600D01*
X84500Y180700D02*X86400D01*
X84500Y177100D02*X87100Y174500D01*
G54D12*X83700Y178000D02*X84500Y177200D01*
X82900Y178000D02*X83700D01*
X82126Y178774D02*X82900Y178000D01*
X80600Y178774D02*X82126D01*
G54D13*X84500Y177400D02*Y177100D01*
G54D12*X131900Y151800D02*Y149274D01*
G54D13*X132671Y156513D02*Y152571D01*
X131900Y151800D01*
G54D12*Y149274D02*X132200Y148974D01*
X125000Y155700D02*Y153074D01*
G54D13*X130213Y163108D02*X125008D01*
X125000Y163100D01*
X130013Y159170D02*X128570D01*
X125000Y155600D01*
G54D12*X114800Y160874D02*Y162000D01*
X113200Y163600D01*
G54D13*X127700Y170100D02*X128300Y170700D01*
X124700Y174600D02*X125000Y174900D01*
X121574Y174600D02*X124700D01*
X124300Y170100D02*X127700D01*
X123500Y170900D02*X124300Y170100D01*
X122374Y170900D02*X123500D01*
X130191Y174900D02*X130213Y174922D01*
X125000Y174900D02*X130191D01*
X130104Y177000D02*X130213Y176891D01*
X125800Y177000D02*X130104D01*
X130073Y179000D02*X130213Y178860D01*
X127200Y179000D02*X130073D01*
X124474Y181726D02*X127200Y179000D01*
X130013Y180829D02*Y183087D01*
X128600Y184500D01*
X126100D01*
X115600Y164700D02*X117026D01*
X112269Y168031D02*X115600Y164700D01*
X108212Y168031D02*X112269D01*
X118126Y167400D02*X118326Y167200D01*
X114900Y167400D02*X118126D01*
X108212Y166062D02*X110738D01*
X112300Y170000D02*X114900Y167400D01*
X108212Y170000D02*X112300D01*
X108212Y171969D02*X112069D01*
X108212Y173938D02*X111438D01*
X124500Y178300D02*X125800Y177000D01*
X121374Y178300D02*X124500D01*
X117926Y178000D02*X118226Y178300D01*
X115500Y178000D02*X117926D01*
X118126Y174900D02*X118426Y174600D01*
X115000Y174900D02*X118126D01*
X112069Y171969D02*X115000Y174900D01*
X111438Y173938D02*X115500Y178000D01*
X111500Y185126D02*X111674Y185300D01*
X108100Y184874D02*X108526Y185300D01*
X111500Y182400D02*Y185126D01*
X108212Y179112D02*X111500Y182400D01*
X108212Y175907D02*Y179112D01*
X108100Y182200D02*Y184874D01*
X140546Y183287D02*Y185346D01*
X141300Y186100D01*
X142200D01*
X143000Y186900D01*
Y195300D01*
X134639Y190839D02*X137800Y194000D01*
X136608Y190208D02*X140100Y193700D01*
Y194500D01*
X132670Y190930D02*X131900Y191700D01*
G54D12*Y188700D02*Y191126D01*
G54D13*X132670Y188030D02*X131900Y188800D01*
G54D12*Y191126D02*X132000Y191226D01*
G54D13*X132670Y183487D02*Y188030D01*
X134639Y183287D02*Y190839D01*
X136608Y183287D02*Y190208D01*
X138577Y183287D02*Y187777D01*
X74600Y227100D02*Y225100D01*
X78400Y230900D02*X74600Y227100D01*
X70200Y221274D02*X70100Y221174D01*
X74600Y221274D02*X70200D01*
X74600Y225300D02*Y221274D01*
X78431Y231031D02*X78400Y231000D01*
G54D12*X56526Y227100D02*Y223974D01*
X56600Y223900D01*
X90700Y205800D02*X90600Y205900D01*
X93200Y205800D02*X90700D01*
X94400Y207000D02*X93200Y205800D01*
X94526Y207000D02*X94400D01*
X87426Y209226D02*X87300Y209100D01*
X90500Y209226D02*X87426D01*
X87474Y208926D02*X87300Y209100D01*
X64000Y205000D02*Y197500D01*
X53500Y205000D02*Y197500D01*
G54D13*X95200Y211700D02*Y210300D01*
X96100Y209400D01*
X84074Y233000D02*X83574Y233500D01*
X86231Y234969D02*X84400Y236800D01*
X89787Y233000D02*X84074D01*
X89787Y234969D02*X86231D01*
X89787Y236938D02*X88062D01*
G54D12*X81326Y237600D02*X80000Y238926D01*
X78426Y235500D02*X80426Y233500D01*
X76074Y235500D02*X78426D01*
X83100Y237600D02*X81326D01*
X83900Y236800D02*X83100Y237600D01*
X84400Y236800D02*X83900D01*
X74000Y239200D02*X72700Y237900D01*
X72926Y235500D02*X72900Y235526D01*
Y237900D01*
G54D13*X93600Y217026D02*X95226Y215400D01*
X93526D02*X90500Y212374D01*
X95226Y215400D02*X93526D01*
X95062Y215564D02*X95226Y215400D01*
X93600Y220500D02*Y217026D01*
X95062Y221962D02*X93600Y220500D01*
X95062Y223788D02*Y221962D01*
X91200Y222400D02*Y218126D01*
X92588Y223788D02*X91200Y222400D01*
X93093Y223788D02*X92588D01*
X91200Y218126D02*X91074Y218000D01*
G54D12*X87926Y215374D02*X88000Y215300D01*
X87926Y218000D02*Y215374D01*
X84500Y219226D02*Y216700D01*
X74600Y215726D02*X74300Y215426D01*
X74600Y218126D02*Y215726D01*
G54D13*X70100Y218026D02*Y215600D01*
X70000Y215500D01*
X78400Y231000D02*Y230900D01*
X80431Y231031D02*X78431D01*
X89787D02*X80331D01*
X86593Y227093D02*X84400Y224900D01*
X85962Y229062D02*X84800Y227900D01*
G54D12*X84500Y224800D02*X84400Y224900D01*
X84500Y222374D02*Y224800D01*
G54D13*X89787Y227093D02*X86593D01*
X89787Y229062D02*X85962D01*
G54D12*X81000Y222300D02*X80700Y222000D01*
X81000Y224926D02*Y222300D01*
X81174Y227900D02*X81000Y228074D01*
X84400Y227900D02*X81174D01*
G54D13*X88062Y236938D02*X84600Y240400D01*
X89787Y240513D02*X87100Y243200D01*
X89787Y238907D02*Y240513D01*
X85200Y243200D02*X84500Y243900D01*
X87100Y243200D02*X85200D01*
G54D12*X84400Y240400D02*X84200D01*
X84400D02*X83600D01*
X82000Y242000D01*
X80074D01*
X80000Y242074D01*
X120652Y220152D02*X120300Y219800D01*
X120652Y222874D02*Y220152D01*
G54D13*X125065Y224139D02*X123800Y222874D01*
X130213Y224139D02*X125065D01*
X123600Y227000D02*X121574D01*
X124492Y226108D02*X123600Y227000D01*
X130213Y226108D02*X124492D01*
G54D12*X125100Y218600D02*Y216126D01*
X124974Y216000D01*
G54D13*X130013Y222170D02*X128670D01*
X132671Y219513D02*Y216171D01*
X131700Y215200D01*
X128670Y222170D02*X125100Y218600D01*
X121974Y230100D02*X121787Y230287D01*
X121974Y230100D02*X121574Y230500D01*
X118326Y230400D02*X118363Y230437D01*
X115100Y230400D02*X118326D01*
X118126Y230200D02*X118426Y230500D01*
X122800Y230100D02*X121974D01*
X122700D02*X121974D01*
X124823Y228077D02*X122800Y230100D01*
X125800Y231200D02*X125500Y230900D01*
G54D12*X118826Y233900D02*X118926Y234000D01*
G54D13*X115100Y237500D02*X118426D01*
X112569Y234969D02*X115100Y237500D01*
X130213Y228077D02*X124823D01*
X122174Y233900D02*X122074Y234000D01*
X123300Y233900D02*X122174D01*
X124100Y233100D02*X123300Y233900D01*
X126800Y233100D02*X124100D01*
X130213Y235953D02*X125953D01*
X127300Y231200D02*X125800D01*
X128115Y232015D02*X127300Y231200D01*
X130213Y232015D02*X128115D01*
X127684Y233984D02*X126800Y233100D01*
X130213Y233984D02*X127684D01*
G54D12*X131800Y208526D02*X134626D01*
X134700Y208600D01*
X131700Y214900D02*Y211774D01*
X131800Y211674D01*
G54D13*X139150Y200450D02*X152900Y214200D01*
X142400Y208600D02*X149800Y216000D01*
X140750Y199450D02*X154000Y212700D01*
X143000Y195300D02*X154300Y206600D01*
X143850Y200450D02*X153500Y210100D01*
X148350Y202650D02*X153600Y207900D01*
X138900Y208600D02*X142400D01*
X153500Y210100D02*X155100D01*
X155300Y210300D01*
X153600Y207900D02*X156900D01*
X159400Y210400D01*
X163900Y208300D02*X163600Y208600D01*
G54D12*X115600Y217900D02*X115500Y217800D01*
X115600Y219300D02*Y217900D01*
X115000Y219900D02*X115600Y219300D01*
X115000Y220926D02*Y219900D01*
X114700Y224374D02*X115000Y224074D01*
X114700Y225300D02*Y224374D01*
X113550Y226450D02*X114700Y225300D01*
X113250Y226450D02*X113550D01*
G54D13*X118026Y226600D02*X118426Y227000D01*
X116500Y226600D02*X118026D01*
G54D12*X116074Y233900D02*X118826D01*
G54D13*X110638Y229062D02*X113100Y226600D01*
X108212Y229062D02*X110638D01*
X108212Y231031D02*X112069D01*
X108212Y233000D02*X112500D01*
X108212Y227093D02*Y226288D01*
X111600Y222900D01*
X112069Y231031D02*X116500Y226600D01*
X112500Y233000D02*X115100Y230400D01*
X118126Y226700D02*X118426Y227000D01*
X108212Y234969D02*X112569D01*
X108212Y236938D02*X111738D01*
X105095Y223600D02*X104907Y223788D01*
X106500Y223600D02*X105095D01*
X111800Y218300D02*X106500Y223600D01*
X111800Y216274D02*Y218300D01*
X111774Y213100D02*X111800Y213126D01*
X111774Y209700D02*Y213100D01*
X111600Y209526D02*X111774Y209700D01*
X111600Y206300D02*Y209526D01*
G54D12*X108626Y207426D02*X107600Y206400D01*
X108626Y209700D02*Y207426D01*
G54D13*X98374Y211700D02*X101100Y208974D01*
X98474Y211800D02*X98374Y211700D01*
X98474Y215500D02*Y211800D01*
X99174Y216200D02*X98374Y215400D01*
X100200Y216200D02*X99174D01*
X97500Y207174D02*X97674Y207000D01*
G54D12*X104226Y205826D02*X104300Y205900D01*
X101100Y205826D02*X104226D01*
X105300Y210200D02*X105600Y209900D01*
X105300Y211600D02*Y210200D01*
X104000Y212900D02*X105300Y211600D01*
X104000Y212926D02*Y212900D01*
G54D13*X96100Y209400D02*X96800D01*
X97700Y208500D01*
Y207000D01*
G54D12*X104050Y216124D02*X104000Y216074D01*
X104050Y218750D02*Y216124D01*
G54D13*X103600Y219200D02*X104100Y218700D01*
X101700Y217700D02*X100200Y216200D01*
X101700Y220600D02*Y217700D01*
X100969Y221331D02*X101700Y220600D01*
X100969Y223788D02*Y221331D01*
X99000Y219300D02*X99500Y218800D01*
X99000Y223788D02*Y219300D01*
X103600Y221100D02*Y219200D01*
X102938Y221762D02*X103600Y221100D01*
X102938Y223788D02*Y221762D01*
X97031Y219431D02*X96400Y218800D01*
X97031Y223788D02*Y219431D01*
X115400Y240600D02*X118026D01*
X111738Y236938D02*X115400Y240600D01*
X108212Y238907D02*Y242312D01*
X111300Y248226D02*X111574Y248500D01*
X111300Y245400D02*Y248226D01*
X108212Y242312D02*X111300Y245400D01*
X107800Y247874D02*X108426Y248500D01*
X107800Y245100D02*Y247874D01*
X104913Y242213D02*X107800Y245100D01*
X102938Y242213D02*Y244638D01*
X104907Y242213D02*X104913D01*
X105200Y248126D02*X105574Y248500D01*
X105200Y246800D02*Y248126D01*
X104400Y246000D02*X105200Y246800D01*
G54D12*X104700Y252500D02*X105500Y251700D01*
X122100Y253500D02*X124878D01*
X124926Y253548D01*
Y250400D02*Y247974D01*
X125000Y247900D01*
G54D13*X125700Y247200D02*X125000Y247900D01*
G54D12*X102574Y252500D02*X104700D01*
X99426D02*Y247626D01*
G54D13*X95062Y242213D02*Y255662D01*
X97031Y242213D02*Y255031D01*
X104300Y246000D02*X104400D01*
X102938Y244638D02*X104300Y246000D01*
X101700Y247774D02*X102426Y248500D01*
X101700Y246300D02*Y247774D01*
X99000Y247200D02*X99300Y247500D01*
X100969Y245569D02*X101700Y246300D01*
X100969Y242213D02*Y245569D01*
X99000Y242213D02*Y247200D01*
X93093Y245207D02*X90800Y247500D01*
X93093Y242213D02*Y245207D01*
G54D12*X99426Y247626D02*X99300Y247500D01*
X81226Y250574D02*X81200Y250600D01*
X84500Y250574D02*X81226D01*
X84500Y243800D02*X84400Y243700D01*
X84500Y247426D02*Y243800D01*
G54D13*X140546Y246287D02*Y248846D01*
X141200Y249500D01*
X142400D01*
X142900Y250000D01*
X138577Y246287D02*Y249677D01*
X140600Y251700D01*
X142900Y250000D02*Y253500D01*
X134639Y246287D02*Y253161D01*
X132670Y246487D02*Y249430D01*
X130013Y243829D02*Y244987D01*
X127800Y247200D01*
X125700D01*
X134639Y253161D02*X134300Y253500D01*
G54D12*X129400Y256174D02*X132026D01*
X132200Y256000D01*
X129400Y253026D02*Y252700D01*
X132000Y250100D01*
G54D13*X132670Y249430D02*X132000Y250100D01*
X136608Y246287D02*Y252808D01*
X137800Y254000D01*
G54D12*X72800Y235626D02*X72926Y235500D01*
X74000Y239226D02*Y239100D01*
X70874Y242574D02*X70400Y242100D01*
X73500Y242574D02*X70874D01*
X60250Y238100D02*X66326D01*
X63300Y235500D02*X63900Y234900D01*
X60250Y235500D02*X63300D01*
G54D13*X60700Y242526D02*X60800Y242626D01*
X60700Y238100D02*Y242526D01*
G54D12*X72700Y237900D02*X69674D01*
G54D13*X60250Y227176D02*X59574Y226500D01*
X60250Y232900D02*Y227176D01*
G54D12*X48200Y235500D02*X47900Y235800D01*
X52750Y235500D02*X48200D01*
X52650Y233000D02*X52750Y232900D01*
X45574Y233000D02*X52650D01*
X49700Y238100D02*X48900Y238900D01*
X52750Y238100D02*X49700D01*
G54D14*X46500Y224000D02*Y226500D01*
G54D12*X49574Y224000D02*X52200D01*
X52300Y223900D01*
G54D14*X46500Y226500D02*X46000Y227000D01*
G54D12*X38600Y233000D02*X42426D01*
X41500Y229800D02*X41900Y229400D01*
X38500Y229800D02*X41500D01*
X38500Y227000D02*X38400Y226900D01*
X38500Y229926D02*Y227000D01*
X32000Y224059D02*X28441D01*
X28400Y224100D01*
X32000Y218941D02*X28559D01*
X28400Y219100D01*
X35426Y229926D02*X34900Y229400D01*
X38500Y229926D02*X35426D01*
X38426Y233000D02*X38500Y233074D01*
X35574Y233000D02*X38426D01*
X20600D02*X32426D01*
G54D13*X26000Y236000D02*Y240000D01*
G54D12*Y243074D02*X29126D01*
X29200Y243000D01*
G54D14*X39000Y249000D02*Y251500D01*
X38500Y252000D01*
G54D12*X42074Y249000D02*Y251874D01*
X42300Y252100D01*
X66326Y238100D02*X66526Y237900D01*
X64674Y245774D02*X64400Y245500D01*
X64674Y249400D02*Y245774D01*
X64574Y256226D02*X64400Y256400D01*
X64574Y253000D02*Y256226D01*
X61326Y249400D02*X61426Y249300D01*
Y246400D01*
X60800Y245774D01*
X57926D01*
X57900Y245800D01*
X61326Y253100D02*Y249400D01*
X61300Y256200D02*Y253126D01*
X61326Y253100D01*
G54D13*X125953Y235953D02*X125500Y235500D01*
X130191Y237900D02*X130213Y237922D01*
X130204Y239900D02*X130213Y239891D01*
X122800Y237900D02*X130191D01*
X124600Y239900D02*X130204D01*
X123500Y241000D02*X124600Y239900D01*
X122400Y237500D02*X122800Y237900D01*
X121574Y237500D02*X122400D01*
X121574Y241000D02*X123500D01*
X118026Y240600D02*X118426Y241000D01*
G54D12*X161800Y243700D02*X164426D01*
G54D13*X156987Y243830D02*X161670D01*
X161800Y243700D01*
G54D12*X164426D02*X164526Y243600D01*
G54D13*X152900Y214200D02*X161400D01*
X154000Y212700D02*X173400D01*
X173900Y213200D01*
X149800Y216000D02*X159600D01*
X172000D02*X168700D01*
X168600Y215900D01*
X161400Y214200D02*X166400Y219200D01*
X159600Y216000D02*X161900Y218300D01*
G54D12*X161800Y222400D02*X164226D01*
X164326Y222500D01*
G54D13*X156987Y222171D02*X161671D01*
X161900Y222400D01*
X184274Y215374D02*X184100Y215200D01*
X166300Y219200D02*X172052D01*
X171600Y229400D02*X161108Y239892D01*
X183300Y229400D02*X171600D01*
X184800Y225300D02*X180574D01*
X177426D02*Y224526D01*
X172100Y219200D01*
X172588Y219736D02*X172000Y219148D01*
X172052Y219200D02*X172376Y219524D01*
X174500Y216200D02*X176000Y217700D01*
X175948Y217648D02*X175500Y217200D01*
X184100Y212300D02*X183800Y212000D01*
X182252Y219400D02*X179952D01*
X178200Y217648D01*
X175948D01*
X173700Y213000D02*X174500Y213800D01*
Y216200D01*
X178200Y214500D02*Y212500D01*
X177200Y211500D01*
X185100Y123700D02*X183350Y121950D01*
X183850Y122450D02*X170900Y109500D01*
X171500Y114400D02*Y119200D01*
X140600Y120341D02*X140546Y120287D01*
X142100Y123000D02*X141200D01*
X144500Y120303D02*X144484Y120287D01*
X148400Y120309D02*X148422Y120287D01*
X150200Y120478D02*X150391Y120287D01*
X152300Y120347D02*X152360Y120287D01*
X154300Y123200D02*Y120516D01*
X154329Y120487D01*
X156787Y115861D02*X159739D01*
X156987Y117830D02*X161270D01*
X159739Y115861D02*X161300Y114300D01*
X160900Y112300D02*X159300Y113900D01*
G54D12*X164100Y117600D02*X161700D01*
X161600Y117500D01*
G54D13*X161270Y117830D02*X161600Y117500D01*
X161300Y114300D02*X164400D01*
X159300Y113900D02*X156795D01*
X156787Y113892D01*
X162200Y112300D02*X160900D01*
X163100D02*X161800D01*
X140547Y93713D02*Y88953D01*
X140600Y88900D01*
X142516Y91184D02*X143500Y90200D01*
X130013Y96170D02*X128270D01*
X124800Y92700D01*
X132671Y93513D02*Y89871D01*
G54D12*X167548Y96400D02*Y99552D01*
X167500Y99600D01*
X164400Y96400D02*X162100D01*
X162000Y96500D01*
G54D13*X156987Y96171D02*X161971D01*
X162200Y96400D01*
X167200Y111500D02*X168600D01*
X171500Y114400D01*
X170900Y109500D02*X165900D01*
X163100Y112300D01*
G54D12*X167248Y117600D02*Y114652D01*
X167300Y114600D01*
G54D13*X164400Y114300D02*X167200Y111500D01*
X143600Y152300D02*X144100Y151800D01*
X143600Y153600D02*Y152300D01*
X142516Y154684D02*X143600Y153600D01*
X142516Y156713D02*Y154684D01*
X137100Y149600D02*X136500Y149000D01*
X138578Y150622D02*X140200Y149000D01*
X140547Y152053D02*X140700Y151900D01*
X137300Y149800D02*X136500Y149000D01*
X138578Y156713D02*Y150622D01*
X140547Y156713D02*Y152053D01*
X134640Y152060D02*X134900Y151800D01*
X134640Y156713D02*Y152060D01*
X136609Y156713D02*Y154391D01*
X137300Y153700D01*
Y149800D01*
X138500Y140600D02*X148200Y150300D01*
X147000Y149100D02*X150100Y152200D01*
X143500Y148700D02*X144200D01*
X149300Y153800D01*
X149150Y146250D02*X150100Y147200D01*
X140100Y139500D02*X149000Y148400D01*
X141600Y138700D02*X149500Y146600D01*
G54D12*X104300Y153274D02*X104200Y153174D01*
X104300Y155600D02*Y153274D01*
G54D13*X111400Y153674D02*X111700Y153374D01*
X111400Y155800D02*Y153674D01*
X106412Y160788D02*X111400Y155800D01*
X104907Y160788D02*X106412D01*
X103700Y156200D02*X104200Y155700D01*
X103700Y158000D02*Y156200D01*
X102938Y158762D02*X103700Y158000D01*
X102938Y160788D02*Y158762D01*
X101900Y157100D02*Y154400D01*
X130052Y161300D02*X130213Y161139D01*
X130190Y165100D02*X130213Y165077D01*
X125400Y161300D02*X130052D01*
X123900Y159800D02*X125400Y161300D01*
X123474Y159800D02*X123900D01*
X124700Y163400D02*X125000Y163100D01*
X121474Y163400D02*X124700D01*
X125100Y165100D02*X130190D01*
X123000Y167200D02*X125100Y165100D01*
X121474Y167200D02*X123000D01*
X129998Y168800D02*X130213Y169015D01*
X129929Y170700D02*X130213Y170984D01*
X128300Y170700D02*X129929D01*
X127200Y168800D02*X129998D01*
X126300Y167900D02*X127200Y168800D01*
X125600Y167900D02*X126300D01*
X130160Y172900D02*X130213Y172953D01*
X127000Y172900D02*X130160D01*
X126600Y172500D02*X127000Y172900D01*
X125600Y172500D02*X126600D01*
G54D12*X125000Y147100D02*X124900Y147000D01*
X125000Y149926D02*Y147100D01*
X135274Y145826D02*X135500Y145600D01*
X132200Y145826D02*X135274D01*
G54D13*X111674Y143326D02*X111700Y143300D01*
X111674Y147000D02*Y143326D01*
X111700Y147026D02*X111674Y147000D01*
X111700Y150226D02*Y147026D01*
G54D12*X119226Y170900D02*X116174D01*
X120326Y156874D02*X120400Y156800D01*
X120326Y159800D02*Y156874D01*
X113700Y163100D02*X113400Y163400D01*
G54D13*X117026Y164700D02*X118326Y163400D01*
X110738Y166062D02*X113200Y163600D01*
X144500Y136800D02*Y120303D01*
X146453Y120287D02*Y134753D01*
X148400Y132400D02*Y120309D01*
X150200Y129800D02*Y120478D01*
X152300Y125900D02*Y120347D01*
X152500Y136500D02*X148400Y132400D01*
X166100Y136500D02*X152500D01*
X153200Y132800D02*X150200Y129800D01*
X152000Y140300D02*X165300D01*
X164100Y143400D02*X151100D01*
X146453Y134753D02*X152000Y140300D01*
X151100Y143400D02*X144500Y136800D01*
X167600Y132800D02*X153200D01*
X143100Y137800D02*X150100Y144800D01*
X178300Y143500D02*X167600Y132800D01*
X179000Y139000D02*X168600Y128600D01*
X179900Y134900D02*X169600Y124600D01*
X179900Y134900D02*X177700Y132700D01*
X168600Y128600D02*X155000D01*
X152300Y125900D01*
X169600Y124600D02*X155700D01*
X154300Y123200D01*
X171500Y119200D02*X180400Y128100D01*
X178200Y125900D01*
X143100Y124000D02*Y137800D01*
X136608Y127108D02*X141600Y132100D01*
Y138700D01*
X143100Y124000D02*X142100Y123000D01*
X140480Y122280D02*X141200Y123000D01*
G54D12*X131900Y128226D02*Y125800D01*
X132000Y125700D01*
G54D13*X132670Y125030D02*X132000Y125700D01*
G54D12*X125100Y125000D02*Y122700D01*
X124900Y122500D01*
G54D13*X126100Y121300D02*X125100Y122300D01*
X132670Y120487D02*Y125030D01*
X130013Y117829D02*Y119487D01*
X128200Y121300D01*
X126100D01*
X184400Y171600D02*Y173200D01*
X184100Y173500D01*
X165700Y152900D02*X184400Y171600D01*
G54D12*X161900Y180700D02*X164426D01*
G54D13*X161770Y180830D02*X161900Y180700D01*
G54D12*X162200Y159100D02*X164426D01*
G54D13*X161929Y159171D02*X162000Y159100D01*
G54D12*X164426D02*X164526Y159200D01*
G54D13*X156987Y180830D02*X161770D01*
X150100Y144800D02*X162200D01*
X164900Y147500D01*
X150100Y152200D02*X165000D01*
X149300Y153800D02*X160900D01*
X161800Y154700D01*
X156987Y159171D02*X161929D01*
X165000Y152200D02*X166100Y153300D01*
X148700Y148100D02*X150300Y149700D01*
X154200D01*
X154400Y149500D01*
X150100Y147200D02*X158400D01*
X158500Y147100D01*
X248985Y161465D02*Y157885D01*
X244800Y153700D01*
X239140Y161465D02*Y147840D01*
X241109Y161465D02*Y147709D01*
X252923Y161465D02*Y152823D01*
X254892Y161465D02*Y151292D01*
X239140Y147840D02*X209500Y118200D01*
X254892Y151292D02*X207300Y103700D01*
X250954Y154454D02*X202000Y105500D01*
X252923Y152823D02*X204700Y104600D01*
X256861Y149761D02*X209600Y102500D01*
X209500Y118200D02*Y118156D01*
X241109Y147709D02*X161600Y68200D01*
X233200Y103700D02*Y102300D01*
X233700Y101800D01*
X238200D01*
X238500Y101500D01*
X220900Y92900D02*X223800Y90000D01*
X238600D01*
X238700Y89900D01*
X222900Y103400D02*Y97200D01*
X226200Y93900D01*
X238774D01*
X202000Y105500D02*Y69000D01*
X204700Y104600D02*Y78200D01*
X207700Y75200D01*
X227500D01*
X227700Y75400D01*
X247000Y77700D02*X228500D01*
X224800Y81400D01*
X207300Y84700D02*X210600Y81400D01*
X224800D01*
X230300Y80300D02*X244500D01*
X207300Y103700D02*Y84700D01*
X224800Y81400D02*X224900Y81300D01*
X238600Y86000D02*X238700Y85900D01*
X209600Y102500D02*Y86600D01*
X212100Y84100D01*
X226500D01*
X244500Y80300D02*X247750Y83550D01*
X250200D01*
X226500Y84100D02*X230300Y80300D01*
X212400Y97700D02*Y88100D01*
X214400Y86100D01*
X238500D01*
X238700Y85900D01*
X220900Y103600D02*Y92900D01*
X262768Y148068D02*X212400Y97700D01*
X263200Y145900D02*X220900Y103600D01*
X263600Y144100D02*X222900Y103400D01*
X267900Y141800D02*X227900Y101800D01*
X261700Y124300D02*Y122400D01*
X227900Y101800D02*Y100000D01*
X230100Y97800D01*
X238900D01*
X259900Y149526D02*Y148800D01*
X258000Y146900D01*
X268200Y138700D02*X233200Y103700D01*
X269500Y136400D02*X238900Y105800D01*
X267800Y111300D02*X268300Y111800D01*
Y118000D01*
X267800Y118500D01*
X261700Y122800D02*Y115908D01*
X261708Y115900D01*
X263500Y118300D02*Y115800D01*
X267800Y108600D02*X267808Y108592D01*
X267800Y108600D02*Y111300D01*
Y118500D02*Y120000D01*
G54D12*X74400Y155126D02*Y152426D01*
G54D13*Y158274D02*X70200D01*
X74300Y158374D02*X74400Y158274D01*
X74300Y163700D02*Y158374D01*
X70200Y155126D02*Y152700D01*
X70100Y152600D01*
G54D12*X71500Y138500D02*X68000D01*
G54D13*X78300Y167700D02*X74300Y163700D01*
G54D12*X77826Y172700D02*X80226Y170300D01*
X75974Y172700D02*X77826D01*
X71274Y179874D02*X70500Y179100D01*
X73700Y179874D02*X71274D01*
X72826Y174874D02*X72500Y175200D01*
X72826Y172700D02*Y174874D01*
X72174Y175200D02*X73700Y176726D01*
X69574Y175200D02*X72174D01*
X71500Y201500D02*X68000D01*
G54D13*X60250Y164676D02*X59674Y164100D01*
X60250Y169900D02*Y164676D01*
Y175100D02*Y179076D01*
G54D12*X66326Y175100D02*X66426Y175200D01*
X63400Y172500D02*X64000Y171900D01*
X60250Y172500D02*X63400D01*
X60250Y175100D02*X66326D01*
X49800D02*X49000Y175900D01*
X52750Y175100D02*X49800D01*
X48300Y172500D02*X48000Y172800D01*
X52750Y172500D02*X48300D01*
X45474Y169900D02*X52750D01*
G54D13*X60250Y179076D02*X60900Y179726D01*
G54D12*X56526Y161126D02*X56400Y161000D01*
G54D14*X46500Y162500D02*X46000Y163000D01*
G54D12*X56526Y164100D02*Y161126D01*
X64374Y182626D02*X64500Y182500D01*
X64374Y186500D02*Y182626D01*
X64574Y193326D02*X64500Y193400D01*
X64574Y190100D02*Y193326D01*
X64000Y142000D02*Y134500D01*
X58100Y186500D02*X58000Y186400D01*
X61226Y186500D02*X58100D01*
X61226D02*Y189900D01*
X60900Y186174D02*X61226Y186500D01*
G54D14*X42000Y186000D02*Y188500D01*
X42500Y189000D01*
G54D12*X61426Y192474D02*X60500Y193400D01*
X61426Y190100D02*Y192474D01*
X61226Y189900D02*X61426Y190100D01*
X45500Y201500D02*X51000D01*
X60900Y182874D02*Y186174D01*
G54D14*X49500Y160000D02*X52500D01*
X46500D02*Y162500D01*
G54D12*X53500Y142000D02*Y134500D01*
X45500Y138500D02*X51000D01*
X38500Y166526D02*X38600Y166626D01*
X38500Y163900D02*Y166526D01*
X35226Y166626D02*X35000Y166400D01*
X38326Y166626D02*X35226D01*
X41774D02*X42000Y166400D01*
X38500Y166626D02*X41774D01*
X42200Y169774D02*X42326Y169900D01*
X38500Y169774D02*X42200D01*
X38374Y169900D02*X38500Y169774D01*
G54D14*X39000Y186000D02*Y188500D01*
X38500Y189000D01*
G54D12*X34874Y169900D02*X38374D01*
X105400Y100626D02*Y98100D01*
X105300Y98000D01*
X99137Y103837D02*X81600Y86300D01*
X81550Y86250D02*X67750D01*
X62800Y81300D01*
X105374Y103800D02*X105400Y103774D01*
X109926Y104000D02*X105700D01*
X105500Y103800D01*
X109800Y100300D02*X105900D01*
X105400Y100800D01*
X69200D02*Y103426D01*
X69400Y103626D01*
X81600Y101000D02*Y103474D01*
X81926Y103800D01*
X105337Y103837D02*X99137D01*
X109800Y100300D02*Y97200D01*
X109700Y97100D01*
G54D13*X124813Y98139D02*X123474Y96800D01*
G54D12*X105600Y112226D02*Y109600D01*
X105500Y109500D01*
X108500Y112100D02*X105700D01*
X105600Y112200D01*
X109926Y115200D02*X105774D01*
X105574Y115400D02*X105774Y115200D01*
X95000Y115500D02*X105474D01*
X109926Y111400D02*X109200D01*
X108500Y112100D01*
X110000Y111400D02*Y108500D01*
X109800Y108300D01*
X81926Y106948D02*X86448D01*
X57800Y106900D02*X72841D01*
X73041Y107100D01*
X78159D02*X81700D01*
X81889Y106911D01*
X86448Y106948D02*X95000Y115500D01*
G54D13*X134640Y93713D02*Y88960D01*
X134800Y88800D01*
X132671Y89871D02*X131600Y88800D01*
X134639Y120287D02*Y127839D01*
X140100Y133300D01*
G54D12*X131800Y131626D02*X131900Y131726D01*
X125000Y128400D02*X125100Y128500D01*
G54D13*X125300Y125400D02*X125000Y125700D01*
X132670Y127830D02*X131800Y128700D01*
X136608Y120287D02*Y127108D01*
X138577Y120287D02*Y123177D01*
X140480Y120220D02*Y122280D01*
X138577Y123177D02*X140900Y125500D01*
X124000Y59400D02*X127037D01*
X127077Y59360D01*
Y55422D02*X123222D01*
X113326Y56000D02*X109374D01*
X116474D02*X120600D01*
X106226D02*X101374D01*
X101226Y56148D01*
X96111D01*
X95859Y56400D01*
X123222Y55422D02*X121300Y53500D01*
G54D12*X118300Y51574D02*X115474D01*
X115400Y51500D01*
G54D13*X101226Y53000D02*Y50326D01*
X101200Y50300D01*
G54D12*X101226Y52900D02*Y50326D01*
G54D13*X120600Y56000D02*X124000Y59400D01*
X120308Y43608D02*X119800Y43100D01*
X116500Y45400D02*X115200Y44100D01*
X121400Y45400D02*X116500D01*
X113326Y39700D02*X109400D01*
X106252D02*X101474D01*
X101400Y39774D01*
X96133D01*
X95859Y39500D01*
X116674Y39900D02*X116474Y39700D01*
X121300Y39900D02*X116674D01*
X121100Y48400D02*X118326D01*
X118300Y48426D01*
X121854Y47546D02*X121000Y48400D01*
G54D12*X121200D02*X118500D01*
G54D13*X126969Y43500D02*X127077Y43608D01*
Y45577D02*X121577D01*
X127077Y43608D02*X120308D01*
X121577Y45577D02*X121400Y45400D01*
X127077Y41639D02*X123039D01*
X127077Y39670D02*X123970D01*
X123039Y41639D02*X121300Y39900D01*
X124000Y39670D02*X123570D01*
X127077Y47546D02*X121854D01*
X127077Y37701D02*X125901D01*
G54D12*X31626Y170000D02*X31726Y169900D01*
X24500Y170000D02*X31626D01*
G54D13*X25500Y173000D02*Y177000D01*
Y180000D02*Y183000D01*
G54D14*X32000Y160000D02*X28500D01*
G54D12*Y155100D02*X31841D01*
X32000Y154941D01*
X15300Y107000D02*X33626D01*
X28526Y43800D02*X15200D01*
X15100Y43900D01*
X51600Y38500D02*X51500Y38400D01*
X58400Y44100D02*X62800Y48500D01*
X52100Y44100D02*X58400D01*
X48000D02*X52200D01*
X62700Y48400D02*X62500Y48200D01*
X62774Y48474D02*X61800Y47500D01*
X51600Y41052D02*Y38500D01*
X44752Y44000D02*X44852Y44100D01*
X41400Y40926D02*Y38500D01*
X41200Y38300D01*
X40400Y44000D02*X44752D01*
X40374D02*X40400Y43974D01*
X31674Y43800D02*X41126D01*
X41300Y43974D01*
X59626Y52900D02*X56700D01*
X62774Y53100D02*Y48474D01*
Y53200D02*Y56526D01*
X62600Y56700D01*
X36774Y107000D02*X47400D01*
X47500Y106900D01*
X47200Y100800D02*Y103452D01*
X47500Y103752D01*
Y106900D02*X52026D01*
X55174D02*X59674D01*
X59800Y106774D01*
X59700Y100600D02*Y103526D01*
X59800Y103626D01*
X62800Y81300D02*Y65126D01*
Y65626D02*Y62018D01*
X62600Y61818D01*
X62800Y65626D02*X62774Y65600D01*
X59626D02*X57000D01*
X56800Y65400D01*
X79900Y36252D02*X80000Y36152D01*
X76900Y36252D02*X79900D01*
X76900Y39400D02*X80000D01*
G54D13*X90741Y39500D02*X86026D01*
X85900Y39374D01*
Y42200D01*
Y36226D02*Y33700D01*
G54D12*X101400Y36500D02*Y34000D01*
X85900Y36200D02*Y33700D01*
G54D13*Y42200D02*X85800Y42300D01*
G54D12*X80252Y56552D02*X80300Y56600D01*
X76900Y53400D02*X79900D01*
X76900Y56552D02*X80052D01*
X79874Y66126D02*X80100Y65900D01*
X76900Y66126D02*X79874D01*
G54D13*X86126Y53400D02*Y50826D01*
X86100Y50800D01*
G54D12*X86126Y53700D02*Y50826D01*
G54D13*X90741Y56400D02*X86274D01*
X86126Y56548D01*
X85900Y56400D02*Y59100D01*
X86100Y59300D01*
G54D12*X80100Y69000D02*X77274D01*
G54D13*X90641Y68900D02*X86326D01*
X86100Y68674D01*
G54D12*X77274Y69000D02*X77100Y69174D01*
X86100Y65526D02*Y63200D01*
G54D13*Y68674D02*Y71400D01*
G54D12*Y63200D02*X86200Y63100D01*
G54D13*X122300Y61300D02*X127048D01*
X127077Y61329D01*
X124200Y65300D02*X127044D01*
X127077Y65267D01*
X126975Y63400D02*X127077Y63298D01*
X120102D01*
X118700Y64700D01*
X129632Y67823D02*X125351D01*
X123900Y61300D02*X118000D01*
X117600Y60900D01*
X113326Y68800D02*X109374D01*
X116474D02*X120700D01*
X106226D02*X101326D01*
X101100Y68574D01*
X96085D01*
X95759Y68900D01*
G54D12*X101100Y65426D02*Y63000D01*
X101200Y62900D01*
G54D13*X135539Y67823D02*Y69661D01*
Y69561D02*Y69861D01*
X134100Y71300D01*
X134600Y76200D02*X134000Y76800D01*
X134100Y71300D02*Y73600D01*
X130400Y70900D02*X127100D01*
X131601Y67823D02*Y69699D01*
X130400Y70900D01*
X133570Y67823D02*Y69830D01*
X129700Y73700D01*
Y74300D01*
X129100Y74900D01*
X120700Y68800D02*X124200Y65300D01*
G54D12*X118026Y75300D02*X115700D01*
X115500Y75500D01*
X121174Y75300D02*Y72126D01*
X121200Y72100D01*
G54D13*X125351Y67823D02*X121174Y72000D01*
X127100Y70900D02*X125000Y73000D01*
Y76300D01*
X125100Y76400D01*
G54D12*X171074Y33126D02*X171100Y33100D01*
X168100Y33126D02*X171074D01*
G54D13*X159168Y33177D02*Y31432D01*
X181026Y39400D02*X181126Y39500D01*
X176474Y39400D02*X181026D01*
X170700D02*X173326D01*
X168460Y41640D02*X170700Y39400D01*
X161723Y41640D02*X168460D01*
X161723Y39671D02*X167229D01*
G54D12*X168100Y38700D02*Y36274D01*
G54D13*X167229Y39671D02*X168100Y38800D01*
X161723Y35733D02*Y33477D01*
X181000Y41926D02*X182574Y43500D01*
G54D12*X185448Y46648D02*X185500Y46700D01*
X182574Y46648D02*X185448D01*
X177100Y43400D02*X177300Y43600D01*
X174722Y43400D02*X177100D01*
G54D13*X171365Y43609D02*X171574Y43400D01*
X161723Y45578D02*X165978D01*
X164800D02*X166922D01*
X167300Y45200D01*
X161723Y47547D02*X171547D01*
X171800Y47800D01*
X161723Y43609D02*X165291D01*
X165900Y43000D01*
X171026D01*
X171500Y43474D01*
X171400Y54300D02*X174148D01*
X174300Y54452D01*
X165900Y48800D02*X168900D01*
X170400Y50300D01*
X171300D01*
X171800Y50800D01*
X164100Y18300D02*Y3100D01*
G54D12*X155574Y21700D02*X155600Y21726D01*
X152900Y21700D02*X155574D01*
X146548Y21400D02*X146600Y21452D01*
X146700Y21400D02*X146624Y21476D01*
G54D13*X149300Y19300D02*Y24300D01*
G54D12*X146726Y24726D02*X146600Y24600D01*
X146700Y18900D02*Y21400D01*
G54D13*X149300Y20600D02*Y11800D01*
G54D12*X125700Y21800D02*X128474D01*
X128500Y21826D01*
X122526Y25726D02*X122600Y25800D01*
X119800Y25726D02*X122526D01*
X128400Y25074D02*X128500Y24974D01*
X97900Y25600D02*X97800Y25700D01*
X102157Y25600D02*X97900D01*
X109543Y25900D02*X109243Y25600D01*
G54D13*X101400Y36626D02*Y34000D01*
X101200Y33800D01*
G54D12*X113900Y25900D02*X109543D01*
X119800Y31800D02*Y28874D01*
X132800Y21526D02*X132900Y21626D01*
X132887Y21613D02*X135787D01*
X136300Y21100D01*
G54D13*X131602Y27598D02*X132000Y27200D01*
X129633Y29233D02*X127600Y27200D01*
G54D12*X128400Y27300D02*Y25074D01*
X132900Y24774D02*Y26300D01*
X132000Y27200D01*
X155700Y27400D02*Y24974D01*
X155600Y24874D01*
G54D13*X155230Y33177D02*Y27670D01*
X155700Y27200D01*
X149300Y23600D02*Y33154D01*
X149323Y33177D01*
G54D12*X146726Y27300D02*Y24726D01*
G54D13*X145200Y29026D02*X146726Y27500D01*
X159168Y31432D02*X163600Y27000D01*
X159400Y28100D02*Y27200D01*
X166500Y28700D02*Y20700D01*
X164100Y18300D01*
X157199Y33177D02*Y30301D01*
X159400Y28100D01*
Y27200D02*X159800Y26800D01*
X141447Y33177D02*Y31353D01*
X143416Y33177D02*Y31584D01*
X141447Y31353D02*X143300Y29500D01*
X143416Y31584D02*X145200Y29800D01*
Y29026D01*
X139478Y30522D02*X140800Y29200D01*
X143300Y29500D02*Y27300D01*
X143200Y27200D01*
X140800Y29200D02*Y26000D01*
X139478Y33177D02*Y30522D01*
X137509Y33177D02*Y29991D01*
X139400Y28100D01*
X135540Y29960D02*X138200Y27300D01*
X133571Y29229D02*X136000Y26800D01*
Y24300D01*
X136500Y23800D01*
X140800Y26000D02*X142200Y24600D01*
X142800D01*
X143400Y24000D01*
X139550Y25050D02*X143000Y21600D01*
X139050Y28450D02*X139550Y27950D01*
Y25050D01*
X139400Y21700D02*X139900Y21200D01*
X143000Y21600D02*Y20400D01*
X143600Y19800D01*
X138200Y27300D02*Y22900D01*
X139900Y21200D01*
X135540Y33177D02*Y29960D01*
X133571Y33177D02*Y29229D01*
X131602Y33177D02*Y27598D01*
X129633Y33177D02*Y29233D01*
X123570Y39670D02*X121100Y37200D01*
X127077Y35732D02*Y33177D01*
X123200Y29300D01*
X125901Y37701D02*X122400Y34200D01*
G54D12*X240300Y25052D02*Y22500D01*
G54D13*X244500Y18300D02*Y24952D01*
X244600Y25052D01*
Y28200D02*X234400D01*
G54D12*X240300Y22500D02*X240400Y22400D01*
X239382Y18300D02*X236400D01*
G54D13*X234400Y28200D02*X234200Y28400D01*
Y23800D01*
X231300Y20900D01*
X227900D01*
X227100Y21700D01*
Y25100D01*
X227000Y25200D01*
G54D12*X236400Y18300D02*X236000Y18700D01*
X209400Y12500D02*X234900D01*
X235000Y12400D01*
G54D13*X180000Y10000D02*X191700D01*
X197100Y15400D01*
Y27659D01*
X197141Y27700D01*
X209800Y28400D02*X206500D01*
X192023Y27700D02*X191048D01*
X197800Y9300D02*X195000D01*
X193100Y7400D01*
X187300D01*
X174474Y54626D02*X178885D01*
X179200Y54941D01*
Y60059D02*Y64300D01*
G54D12*Y67448D02*Y69800D01*
X179100Y69900D01*
X174300Y57600D02*Y59900D01*
X174200Y60000D01*
G54D13*X185000Y60600D02*X192100D01*
X170000Y70400D02*Y68474D01*
X209500Y118156D02*X159167Y67823D01*
X202000Y69000D02*X205100Y65900D01*
X170000Y68474D02*X169763Y68237D01*
X161600Y68200D02*Y65391D01*
X161723Y65268D01*
Y53454D02*X165046D01*
X161723Y57392D02*X165192D01*
X165400Y57600D01*
X161723Y55423D02*X167577D01*
X167600Y55400D01*
X164900Y53454D02*X170654D01*
X171500Y54300D01*
G54D12*X209100Y55000D02*X221900D01*
X222000Y54900D01*
X234800D01*
G54D13*X185000Y53700D02*X193500D01*
X181000Y39400D02*Y41926D01*
G54D12*X209800Y38400D02*X205700D01*
X205600Y38300D01*
G54D13*X183700Y31700D02*X184274Y32274D01*
Y39500D01*
X206500Y28400D02*X200400Y34500D01*
X197418D01*
X197318Y34600D01*
X192200D02*X189948D01*
X187048Y31700D01*
X191048Y27700D02*X187048Y31700D01*
X161723Y33477D02*X166500Y28700D01*
X241600Y86500D02*X239200D01*
X238700Y86000D01*
X241574Y90200D02*X238700D01*
X241600Y93800D02*X239000D01*
X238900Y93900D01*
X241600Y97400D02*X238900D01*
X238800Y97500D01*
X241600Y101000D02*X239000D01*
X238700Y101300D01*
X241800Y105200D02*X239400D01*
X239100Y105500D01*
X248200Y76100D02*X226700D01*
X250300Y68500D02*X227400D01*
X229000D02*X225500D01*
X223800Y70200D01*
X205100Y65900D02*X256100D01*
X149000Y75000D02*X148300Y75700D01*
X147600D02*X146500Y76800D01*
X145384Y67823D02*Y70984D01*
X141000Y76000D02*Y72500D01*
X141400Y72100D01*
Y67869D01*
X141446Y67823D01*
X145384Y70816D02*Y72284D01*
X146500Y73400D01*
X143415Y67823D02*Y83615D01*
X137508Y67823D02*Y69692D01*
X139400Y67900D02*X139477Y67823D01*
X138200Y72200D02*X139400Y71000D01*
Y67900D01*
X137508Y69592D02*Y70592D01*
X139400Y67900D02*X139700Y67600D01*
X140200Y78700D02*X138200Y76700D01*
Y72200D01*
X137508Y70592D02*X136600Y71500D01*
Y75600D01*
X136000Y76200D01*
X134600D01*
X149000Y72300D02*Y75000D01*
X151700Y76400D02*X151200Y76900D01*
X152500Y76400D02*X151700D01*
X147353Y70653D02*X149000Y72300D01*
X151200D02*Y73600D01*
X149322Y70422D02*X151200Y72300D01*
X149322Y67823D02*Y70422D01*
X151291Y70091D02*X153800Y72600D01*
X151291Y67823D02*Y70091D01*
X148300Y75700D02*X147600D01*
X159244Y67900D02*X159167Y67823D01*
X155229D02*Y69329D01*
X157100Y71200D02*X155200Y69300D01*
X158600Y70000D02*X162000Y73400D01*
X153260Y70060D02*X155300Y72100D01*
X158900Y72300D02*Y74100D01*
Y72300D02*X157800Y71200D01*
X157100D01*
X155300Y72100D02*Y72500D01*
X157000Y74200D01*
X158900Y74100D02*X161000Y76200D01*
X161900Y73300D02*X164800Y76200D01*
G54D12*X157074Y82600D02*Y79774D01*
G54D13*X153800Y75100D02*X152500Y76400D01*
X153800Y72600D02*Y75100D01*
G54D12*X157000Y79326D02*X156926Y79400D01*
G54D13*X157000Y76526D02*Y74200D01*
G54D12*X154874Y88300D02*X157500D01*
G54D13*X142516Y93713D02*Y91184D01*
X143500Y90200D02*Y89300D01*
X144000Y88800D01*
X151726Y88300D02*X146900D01*
X144800Y86200D01*
X140200Y85300D02*Y78700D01*
X143415Y83615D02*X144100Y84300D01*
X144800Y86200D02*Y85000D01*
X144000Y84200D01*
X144100Y84300D02*X147126D01*
G54D12*X150274D02*X152800D01*
X121426Y118600D02*Y121074D01*
X120800Y121700D01*
G54D13*X124574Y118600D02*X124700D01*
X127300Y116000D01*
X130073D01*
X130213Y115860D01*
Y113891D02*X123509D01*
X122300Y115100D01*
X113174D01*
X113074Y115200D01*
G54D12*X105474Y115500D02*X105600Y115374D01*
G54D13*X130213Y111922D02*X123722D01*
X123100Y111300D01*
X113174D01*
X113074Y111400D01*
X130213Y109953D02*X125953D01*
X125500Y109500D01*
G54D12*X132000Y82800D02*X135200D01*
X135400Y82600D01*
X124800Y86900D02*Y84000D01*
X131600Y88900D02*Y86348D01*
X132000Y85948D01*
G54D13*X136600Y90500D02*Y93704D01*
X136609Y93713D01*
X138500Y93635D02*X138578Y93713D01*
X136600Y90600D02*Y90300D01*
X138578Y93713D02*Y90778D01*
Y91600D02*Y86922D01*
X138200Y84400D02*Y80100D01*
X137600Y79500D01*
X138578Y86922D02*X140200Y85300D01*
X137100Y85500D02*X138200Y84400D01*
X136600Y90300D02*X137100Y89800D01*
G54D12*X124800Y90048D02*Y92600D01*
G54D13*X137100Y89800D02*Y85500D01*
G54D12*X120326Y96800D02*Y93826D01*
X120300Y93800D01*
X118826Y107900D02*X116074D01*
G54D13*X122074Y107800D02*X121974Y107900D01*
X122800Y103900D02*X113174D01*
X113074Y104000D01*
X120000Y100400D02*X113048D01*
X112948Y100300D01*
X130213Y107984D02*X127684D01*
X127000Y107300D01*
X123600D01*
X123100Y107800D01*
X122074D01*
X130213Y106015D02*X126615D01*
X125500Y104900D01*
X130213Y102077D02*X124623D01*
X122800Y103900D01*
X130213Y100108D02*X120292D01*
X120000Y100400D01*
X130213Y98139D02*X124813D01*
X147353Y67823D02*Y70653D01*
X157198Y67823D02*Y69498D01*
X157700Y70000D01*
X158600D01*
X153260Y67823D02*Y70060D01*
G54D12*X167700Y50800D02*X167600Y50700D01*
G54D13*X161723Y51485D02*X166815D01*
X167600Y50700D01*
X161723Y49516D02*X165184D01*
X165900Y48800D01*
X165700Y58200D02*X168800D01*
X170600Y56400D01*
X166100Y59900D02*X170600D01*
X170700Y59800D01*
X163400Y57392D02*X164892D01*
X165700Y58200D01*
X166600Y59900D02*X164700D01*
X164200Y59400D01*
X164130Y61330D02*X166000Y63200D01*
X164200Y59400D02*X161762D01*
X161723Y61330D02*X164130D01*
X161762Y59400D02*X161723Y59361D01*
Y63299D02*X163599D01*
X164000Y63700D01*
Y65300D01*
X164700Y66000D01*
X166000Y63200D02*Y64000D01*
X164700Y66000D02*X167526D01*
X169826Y68300D01*
X166000Y64000D02*X166400Y64400D01*
X168400D01*
X169600Y65600D01*
X174300D01*
X175700Y64200D01*
G54D12*X179574Y74600D02*X182100D01*
X182200Y74700D01*
X172974Y68300D02*X175500D01*
G54D13*X176426Y74600D02*X174200D01*
X170000Y70400D01*
X154500Y204900D02*X192900D01*
X192100Y200200D02*X153900D01*
X154300Y206600D02*X194500D01*
X198600Y208300D02*X163900D01*
X155000Y196800D02*X190500D01*
X186300Y193700D02*X154800D01*
X155300Y190200D02*X184800D01*
X186700Y188300D01*
X178000Y187300D02*X158142D01*
X180200Y185100D02*X178000Y187300D01*
X187074Y212300D02*X187000Y212226D01*
Y212300D02*X184100D01*
X197000Y213600D02*X196900Y213500D01*
X187000Y215374D02*X184274D01*
X138578Y213622D02*X140200Y212000D01*
X140547Y214953D02*X140600Y214900D01*
X143200Y215000D02*X143400Y214800D01*
X143200Y216400D02*Y215000D01*
X142516Y217084D02*X143200Y216400D01*
X138578Y219713D02*Y213622D01*
X140547Y219713D02*Y214953D01*
X142516Y219713D02*Y217084D01*
X136800Y213800D02*Y212300D01*
X134640Y214960D02*X134800Y214800D01*
G54D12*X131900Y131374D02*X134974D01*
X135100Y131500D01*
G54D13*X137100Y214100D02*X136800Y213800D01*
X137100Y216000D02*Y214100D01*
X136609Y216491D02*X137100Y216000D01*
X136609Y219713D02*Y216491D01*
X134640Y219713D02*Y214960D01*
G54D12*X125000Y210200D02*X124800Y210000D01*
X125000Y212926D02*Y210200D01*
X125100Y128148D02*Y130800D01*
X125000Y130900D01*
G54D13*X156895Y177000D02*X156787Y176892D01*
X159000Y177000D02*X156895D01*
X160239Y178861D02*X161500Y177600D01*
X156787Y178861D02*X160239D01*
X176400Y171600D02*X164400D01*
X166700Y174700D02*X173600D01*
X164400Y171600D02*X159000Y177000D01*
X163800Y177600D02*X166700Y174700D01*
X161500Y177600D02*X163800D01*
G54D12*X167574Y177774D02*X167400Y177600D01*
X167574Y180700D02*Y177774D01*
G54D13*X188000Y170600D02*X164050Y146650D01*
X195026Y162300D02*X192300D01*
X195026Y157100D02*X192300D01*
X158142Y187300D02*X154329Y183487D01*
X152360Y183287D02*Y187260D01*
X155300Y190200D01*
X154800Y193700D02*X150400Y189300D01*
X148422Y190222D02*X155000Y196800D01*
X150400Y183296D02*X150391Y183287D01*
X150400Y189300D02*Y183296D01*
X148422Y183287D02*Y190222D01*
X146500Y183334D02*X146453Y183287D01*
X146500Y192800D02*Y183334D01*
X153900Y200200D02*X146500Y192800D01*
X144484Y194884D02*X154500Y204900D01*
X144484Y183287D02*Y194884D01*
X140500Y183333D02*X140546Y183287D01*
X190500Y196800D02*X193100Y194200D01*
X187830Y192170D02*X186300Y193700D01*
X186700Y188300D02*X206396D01*
X206464Y188232D01*
Y186263D02*X199263D01*
X198100Y185100D01*
X180200D01*
X181100Y182200D02*X206339D01*
X206464Y182325D01*
Y180356D02*X198456D01*
X194900Y176800D01*
X181600D01*
X206300Y176400D02*X201600D01*
X200000Y178000D01*
X206100Y174500D02*X198600D01*
X197400Y175700D01*
X219450Y161465D02*Y155350D01*
X217000Y152900D01*
X217481Y161465D02*X217500Y161446D01*
Y156300D01*
X216100Y154900D01*
X200300D01*
X198174Y157026D01*
X213543Y161465D02*X213508Y161500D01*
X215512Y161465D02*X215500Y161477D01*
Y164800D01*
X214700Y165600D01*
X198174Y157026D02*Y157100D01*
X213508Y161500D02*X201100D01*
X214700Y165600D02*X199700D01*
X206375Y170600D02*X206464Y170511D01*
Y168542D02*X211742D01*
X211800Y168600D01*
X201100Y161500D02*X200300Y162300D01*
X198174D01*
X199700Y165600D02*X198174Y167126D01*
Y167400D01*
X195026D02*X192600D01*
X201000Y170600D02*X206375D01*
X206200Y172500D02*X195600D01*
X193900Y174200D01*
X202500Y170600D02*X188000D01*
X206464Y178387D02*X211787D01*
X211800Y178400D01*
X217000Y152900D02*X173500D01*
X181600Y176800D02*X176400Y171600D01*
X173600Y174700D02*X181100Y182200D01*
X175200Y150200D02*X217900D01*
X220400Y147200D02*X176800D01*
X219300Y143400D02*X178200D01*
X176300Y141500D01*
X217900Y150200D02*X221500Y153800D01*
G54D12*X217600Y184300D02*X211306D01*
X211300Y184294D01*
X217800Y202015D02*X214200D01*
G54D13*X206464Y200046D02*X211454D01*
X211800Y199700D01*
X225357Y152157D02*X220400Y147200D01*
X227326Y151426D02*X219300Y143400D01*
X229295Y150495D02*X217800Y139000D01*
X179000D01*
X217000Y134900D02*X179900D01*
X213300Y128100D02*X180400D01*
X212000Y123700D02*X185100D01*
X231264Y149164D02*X217000Y134900D01*
X233349Y148149D02*X213300Y128100D01*
X235202Y146902D02*X212000Y123700D01*
X179000Y139000D02*X178700Y138700D01*
X176800Y147200D02*X166100Y136500D01*
X165300Y140300D02*X175200Y150200D01*
X169600Y148900D02*X164100Y143400D01*
X169600Y149000D02*Y148900D01*
X173500Y152900D02*X169600Y149000D01*
G54D12*X167674Y162526D02*X167600Y162600D01*
X167674Y159200D02*Y162526D01*
G54D13*X192900Y204900D02*X199700Y198100D01*
X206441D01*
X206464Y196108D02*X196192D01*
X192100Y200200D01*
X193100Y194200D02*X206403D01*
X206464Y192170D02*X187830D01*
X206403Y194200D02*X206464Y194139D01*
Y190201D02*X211799D01*
X211800Y190200D01*
X206464Y184294D02*X217594D01*
X217600Y184300D01*
X206464Y213829D02*X211729D01*
X211800Y213900D01*
X206200Y211900D02*X202700D01*
X201000Y213600D01*
X197000D01*
X206441Y198100D02*X206464Y198077D01*
Y202015D02*X217585D01*
X217600Y202000D01*
X206464Y203984D02*X211484D01*
X211800Y204300D01*
X206464Y215798D02*X193276D01*
X206464Y217767D02*X187833D01*
X193276Y215798D02*X192926Y215448D01*
Y212300D02*X187074D01*
X193900Y206600D02*X195800D01*
X206400Y205900D02*X198200D01*
X197500Y206600D01*
X195100D01*
X206400Y207900D02*X199000D01*
X198600Y208300D01*
X206300Y209900D02*X200400D01*
X199400Y210900D01*
X221500Y153800D02*Y161384D01*
X225357Y161465D02*Y152157D01*
X227326Y161465D02*Y151426D01*
X229295Y161465D02*Y150495D01*
X221500Y161384D02*X221419Y161465D01*
X233300Y161398D02*X233233Y161465D01*
X250954D02*Y154454D01*
X256861Y161465D02*Y149761D01*
X262768Y161465D02*Y148068D01*
X231264Y161465D02*Y149164D01*
X233349Y161349D02*Y148149D01*
X235202Y161465D02*Y146902D01*
X237171Y161465D02*Y166671D01*
X237200Y166700D01*
X223388Y161465D02*Y166688D01*
X223400Y166700D01*
X281074Y152500D02*X284200D01*
X297100Y145900D02*X263200D01*
X296900Y144100D02*X263600D01*
X284200Y152500D02*X284400Y152700D01*
X276500Y158800D02*Y156700D01*
X275500Y155700D01*
Y149052D01*
X275348Y148900D01*
X297100Y141800D02*X267900D01*
X299200Y159900D02*X299300Y160000D01*
X301800Y172000D02*Y150600D01*
X303800Y172500D02*Y150600D01*
X297300Y144100D01*
X296600D01*
X289535Y178388D02*X295412D01*
X301800Y172000D01*
X289535Y180357D02*X295943D01*
X303800Y172500D01*
X289535Y182326D02*X297274D01*
X305900Y173700D01*
Y150600D01*
X315000Y180000D02*Y145200D01*
X316700Y181600D02*Y144400D01*
X318500Y182600D02*Y143600D01*
X320600Y183800D02*Y142200D01*
X289535Y192171D02*X302829D01*
X289535Y196109D02*X302191D01*
X289535Y198078D02*X303022D01*
X289535Y205954D02*X298446D01*
X302829Y192171D02*X315000Y180000D01*
X302191Y196109D02*X316700Y181600D01*
X303022Y198078D02*X318500Y182600D01*
X298446Y205954D02*X320600Y183800D01*
X296059Y150900D02*X298700D01*
X299400Y151600D01*
Y155926D01*
X301800Y150600D02*X297100Y145900D01*
X299400Y155926D02*X299574Y156100D01*
X296426D02*Y158826D01*
X297500Y159900D01*
X299200D01*
X305900Y150600D02*X297100Y141800D01*
X307800Y148500D02*X298000Y138700D01*
X309600Y147600D02*X298400Y136400D01*
X311300Y146500D02*X298800Y134000D01*
X313000Y145700D02*X299100Y131800D01*
X315000Y145200D02*X299100Y129300D01*
X316700Y144400D02*X299700Y127400D01*
X318500Y143600D02*X300300Y125400D01*
X298000Y138700D02*X268200D01*
X298400Y136400D02*X269500D01*
X299100Y131800D02*X277000D01*
X299100Y129300D02*X277100D01*
X299700Y127400D02*X277800D01*
X300300Y125400D02*X278200D01*
X298800Y134000D02*X271400D01*
X261700Y124300D01*
X154329Y309487D02*X183913D01*
X183900D02*X183913D01*
X153100Y312600D02*X185000D01*
X152500Y315100D02*X186500D01*
X151900Y317900D02*X187400D01*
X150600Y320600D02*X188900D01*
X149800Y323000D02*X190600D01*
X148500Y326100D02*X191500D01*
G54D14*X205400Y332600D02*X208300D01*
X208400Y332700D01*
X205100Y330600D02*X208400D01*
X204800Y328400D02*X208000D01*
X208200Y328600D01*
X204500Y326200D02*X208600D01*
X208800Y326400D01*
X205400Y324000D02*X208800D01*
X209100Y324300D01*
G54D13*X126615Y295015D02*X125600Y294000D01*
X130213Y295015D02*X126615D01*
X118326Y293600D02*X118426Y293500D01*
X115800Y293600D02*X118326D01*
X125953Y298953D02*X125600Y298600D01*
X130213Y298953D02*X125953D01*
X127250Y296350D02*X122698D01*
X127884Y296984D02*X127250Y296350D01*
X130213Y296984D02*X127884D01*
X122100Y293000D02*X121587Y293513D01*
X122698Y296350D02*X122574Y296474D01*
X122548Y296500D02*X122048Y297000D01*
X121774Y303800D02*X121574Y304000D01*
X123600Y303800D02*X121774D01*
X124509Y302891D02*X123600Y303800D01*
X121996Y300922D02*X121574Y300500D01*
X130213Y300922D02*X121996D01*
X127614Y304860D02*X124774Y307700D01*
X130213Y304860D02*X127614D01*
X130013Y307787D02*X127000Y310800D01*
X125400D01*
X125200Y311000D01*
X112100Y310974D02*X112074Y311000D01*
X112100Y308900D02*Y310974D01*
G54D12*X116500Y310000D02*Y309000D01*
X121626Y307700D02*Y310674D01*
X120900Y311400D01*
G54D13*X130013Y306829D02*Y307787D01*
X115200Y300400D02*X118326D01*
X112769Y297969D02*X115200Y300400D01*
X113400Y296000D02*X115800Y293600D01*
X116900Y290000D02*X118426D01*
X112869Y294031D02*X116900Y290000D01*
X114800Y287126D02*X114900Y287026D01*
X114800Y288900D02*Y287126D01*
X113700Y290000D02*X114800Y288900D01*
X113600Y290000D02*X113700D01*
X185650Y304750D02*X172450D01*
X170800Y297200D02*X176400Y302800D01*
X172450Y304750D02*X169100Y301400D01*
X164500Y297200D02*X170800D01*
G54D12*X167574Y288674D02*X167600Y288700D01*
X167574Y285500D02*Y288674D01*
X164426Y285500D02*X161300D01*
G54D13*X160971Y285171D02*X161300Y285500D01*
X156987Y285171D02*X160971D01*
X184126Y276974D02*X184000Y277100D01*
X187300Y273826D02*X180074D01*
X180000Y273900D01*
X183500Y284700D02*X183300Y284900D01*
X186774Y281552D02*X180852D01*
X180300Y281000D01*
X176400Y302800D02*X183700D01*
X183750Y302750D01*
X130213Y302891D02*X124509D01*
X156787Y302892D02*X158808D01*
X164500Y297200D01*
X165200Y301400D02*X162500Y304100D01*
X169100Y301400D02*X165200D01*
G54D12*X167374Y303726D02*X167400Y303700D01*
X167374Y306700D02*Y303726D01*
G54D13*X130195Y291095D02*X130190Y291100D01*
X156948Y304700D02*X156787Y304861D01*
X159200Y304700D02*X156948D01*
X159800Y304100D02*X159200Y304700D01*
X162500Y304100D02*X159800D01*
G54D12*X164226Y306700D02*X161100D01*
G54D13*X156987Y306830D02*X160970D01*
X161100Y306700D01*
X147526Y267000D02*X143626D01*
X143500Y267126D01*
X147274D01*
X147400Y267000D01*
X143500Y270274D02*X146274D01*
X146700Y270700D01*
X150674Y267000D02*X152200D01*
X153300Y268100D01*
X141100Y259700D02*X142100D01*
X144700Y262300D01*
X146200D01*
X146300Y262400D01*
X141800Y257300D02*X143300D01*
X145000Y259000D01*
X140000Y261400D02*X143200Y264600D01*
Y266700D01*
X143500Y267000D01*
G54D15*X231400Y316100D02*Y313400D01*
X231900Y312900D01*
X233800Y315800D02*Y312900D01*
X233500Y312600D01*
X236100Y315700D02*Y312900D01*
X235900Y312700D01*
X238200Y315900D02*Y313200D01*
X238400Y313000D01*
X241400D02*X238500D01*
X238400Y312900D01*
Y297900D02*Y294600D01*
X238500Y294500D01*
X241700Y298400D02*X238900D01*
X238600Y298700D01*
X242000Y300300D02*X238400D01*
X238200Y300500D01*
X242300Y299600D02*X245400D01*
X245500Y299500D01*
X242200Y296900D02*X245400D01*
X245500Y297000D01*
X241800Y294800D02*X245700D01*
G54D13*X262400Y306200D02*Y297900D01*
G54D14*X262900Y296100D02*X262700Y296300D01*
G54D15*X242200Y292700D02*X245600D01*
X245800Y292500D01*
X242500Y290000D02*X245000D01*
X245100Y289900D01*
G54D13*X247013Y293000D02*Y283287D01*
X249300Y281000D01*
X265200D01*
G54D15*X241600Y310900D02*X238800D01*
X238700Y310800D01*
G54D13*X264400Y308200D02*X262400Y306200D01*
G54D15*X247700Y323300D02*X251700D01*
X247600Y320700D02*X251000D01*
X247500Y318400D02*X251200D01*
X254900Y313100D02*Y315900D01*
X252500Y313300D02*Y316000D01*
X230000Y297900D02*Y295300D01*
X230200Y295100D01*
X231800Y297800D02*Y295300D01*
X232000Y295100D01*
X233900Y297600D02*Y294900D01*
X234200Y294600D01*
X236200Y297800D02*Y294700D01*
X236300Y294600D01*
G54D14*X221500Y304000D02*Y300500D01*
X223500Y304000D02*Y301000D01*
X225500Y304000D02*Y301000D01*
X229500D02*X226500D01*
X230000Y299000D02*X227000D01*
X219300Y323600D02*Y318900D01*
X221100Y323700D02*Y319200D01*
X222900Y323600D02*Y319300D01*
X222700Y319100D01*
X222500Y333000D02*X226700D01*
X222900Y330900D02*X226200D01*
X222700Y329000D02*X225700D01*
X222900Y327100D02*X226100D01*
X226400Y326800D01*
X223100Y324900D02*X226100D01*
X226200Y325000D01*
G54D13*X260750Y256850D02*X191500Y326100D01*
G54D14*X219500Y304000D02*Y301500D01*
G54D13*X190600Y323000D02*X258700Y254900D01*
X254800Y254700D02*X188900Y320600D01*
X191500Y275200D02*X190400Y274100D01*
X187400Y317900D02*X252900Y252400D01*
X186500Y315100D02*X249100Y252500D01*
X247000Y250600D02*X185000Y312600D01*
X190400Y274100D02*X187574D01*
X187300Y273826D01*
X193326Y281200D02*X187126D01*
X186774Y281552D01*
X183913Y309487D02*X239200Y254200D01*
X237200Y253200D02*X237150D01*
X185600Y304750D01*
X183700Y302800D02*X235200Y251300D01*
X187300Y276974D02*X184126D01*
X233232Y248768D02*X201100Y280900D01*
X227325Y250175D02*X202400Y275100D01*
X201100Y280900D02*X196774D01*
X196474Y281200D01*
X202400Y275100D02*X196574D01*
X196474Y275200D01*
X193326D02*X191500D01*
X186774Y284700D02*X183500D01*
G54D12*X135174Y320574D02*X135200Y320600D01*
X132100D02*X135200D01*
G54D13*X134639Y309287D02*Y312561D01*
X134300Y312900D01*
Y315300D01*
X134500Y315500D01*
Y316400D01*
X135400Y317300D01*
G54D12*X125200Y319900D02*X125100Y320000D01*
X125200Y317174D02*Y319900D01*
X125000Y317326D02*X125200Y317526D01*
G54D13*X126000Y313800D02*X125100Y314700D01*
G54D12*X125200Y314026D02*Y311300D01*
X132000Y317426D02*Y314200D01*
X131800Y314000D01*
G54D13*X132670Y313130D02*X131800Y314000D01*
X132670Y309487D02*Y313130D01*
X140546Y318146D02*X148500Y326100D01*
X144484Y317684D02*X149800Y323000D01*
X146453Y316453D02*X150600Y320600D01*
X148422Y314422D02*X151900Y317900D01*
X150391Y312991D02*X152500Y315100D01*
X152360Y311860D02*X153100Y312600D01*
X152360Y309287D02*Y311860D01*
X130190Y291100D02*X130213Y291077D01*
X130205Y289100D02*X130213Y289108D01*
X123700Y289100D02*X130205D01*
X122800Y290000D02*X123700Y289100D01*
X130190Y291100D02*X124500D01*
X121574Y290000D02*X122800D01*
X124500Y291100D02*X122100Y293500D01*
X121600D01*
X130013Y285170D02*X128170D01*
X140546Y309287D02*Y318146D01*
X139100Y312000D02*Y321500D01*
X139600Y322000D01*
X144484Y309287D02*Y317684D01*
X146453Y309287D02*Y316453D01*
X148422Y309287D02*Y314422D01*
X150391Y309287D02*Y312991D01*
X136608Y309287D02*Y313908D01*
X136700Y314000D01*
X138577Y309287D02*Y311477D01*
X139100Y312000D01*
X241108Y244536D02*Y241108D01*
X239800Y239800D01*
X206259Y221500D02*X206464Y221705D01*
X206290Y223500D02*X206464Y223674D01*
X206390Y223600D02*X206464Y223674D01*
X206376Y227700D02*X206464Y227612D01*
X206407Y225700D02*X206464Y225643D01*
X206438Y223700D02*X206464Y223674D01*
X289535Y225644D02*X296256D01*
X289535Y227613D02*X284513D01*
X284500Y227600D01*
X289535Y223675D02*X295725D01*
X289535Y213830D02*X284470D01*
X284400Y213900D01*
X289535Y219737D02*X294837D01*
X221418Y240518D02*X220200Y239300D01*
X223400Y244500D02*Y240500D01*
X225100Y238800D01*
X227700Y233600D02*Y236200D01*
X224800Y239100D01*
X231263Y243137D02*X231300Y243100D01*
X220200Y239300D02*X211600D01*
X206800Y244100D01*
X211700Y244700D02*Y246200D01*
X210900Y247000D01*
X208600D01*
X206464Y231550D02*X211650D01*
X211700Y231500D01*
X206464Y233519D02*X210519D01*
X211700Y234700D01*
X231263Y244536D02*Y239937D01*
X231500Y239700D01*
X245300Y236800D02*X245000Y236500D01*
Y233100D01*
G54D12*Y237200D01*
X245300Y237500D01*
G54D13*X256860Y240040D02*X257000Y239900D01*
X250953Y244536D02*Y240347D01*
X251300Y240000D01*
X245046Y244536D02*Y241154D01*
X245300Y240900D01*
Y236800D01*
X243077Y243223D02*X243100Y243200D01*
X243077Y244536D02*Y239877D01*
X243000Y239800D01*
X160000Y268000D02*X200500D01*
X159300Y262800D02*X198800D01*
X158100Y258100D02*X191200D01*
X157200Y254200D02*X188000D01*
X199100Y262800D02*X198400D01*
X200500Y268000D02*X211850Y256650D01*
X191200Y258100D02*X199500Y249800D01*
X188000Y254200D02*X196300Y245900D01*
X203700Y258200D02*X199100Y262800D01*
X183600Y251500D02*X193200Y241900D01*
X159400Y270000D02*X202500D01*
X203100Y269400D01*
X203000Y269500D02*X212850Y259650D01*
X155300Y251500D02*X183600D01*
X154329Y246487D02*X181413D01*
X152360Y248560D02*X155300Y251500D01*
X152360Y246287D02*Y248560D01*
X181413Y246487D02*X188900Y239000D01*
X156200Y254200D02*X158000D01*
X150391Y248391D02*X156200Y254200D01*
X148850Y248850D02*X158100Y258100D01*
X149100Y252600D02*X159300Y262800D01*
X148800Y256800D02*X160000Y268000D01*
X148422Y248422D02*X149500Y249500D01*
X150391Y246900D02*Y248391D01*
Y246287D02*Y247391D01*
X148422Y246287D02*Y248422D01*
X146453Y246287D02*Y249953D01*
X149500Y253000D01*
X144484Y252484D02*X149000Y257000D01*
X144484Y246287D02*Y252484D01*
X142900Y253500D02*X159400Y270000D01*
X166900Y236700D02*X179100D01*
X162100Y241500D02*X166900Y236700D01*
G54D12*X167574Y240874D02*X167300Y240600D01*
X167574Y243500D02*Y240874D01*
Y225526D02*X167500Y225600D01*
X167574Y222500D02*Y225526D01*
G54D13*X159700Y241500D02*X162100D01*
X159339Y241861D02*X159700Y241500D01*
X156787Y241861D02*X159339D01*
X156787Y239892D02*X161108D01*
X206464Y221705D02*X190995D01*
X183300Y229400D01*
X206464Y219736D02*X190364D01*
X184800Y225300D01*
X187833Y217767D02*X185400Y220200D01*
X212500Y260000D02*X217500Y255000D01*
Y244556D01*
X211500Y257000D02*X215500Y253000D01*
X213600Y250474D02*X211974Y252100D01*
X215500Y253000D02*Y244547D01*
X213600Y245200D02*Y250474D01*
X211700Y243900D02*Y245200D01*
X208826Y252100D02*Y254926D01*
X203700Y240200D02*Y258200D01*
X208826Y254926D02*X209000Y255100D01*
X215500Y244547D02*X215511Y244536D01*
X212400Y240600D02*X211700Y241300D01*
Y244300D01*
X206421Y237500D02*X206464Y237457D01*
X206452Y235500D02*X206464Y235488D01*
X206100Y237821D02*X206464Y237457D01*
X201600Y235500D02*X206452D01*
X206464Y237457D02*X206443D01*
X203700Y240200D01*
X199500Y249800D02*Y237600D01*
X201600Y235500D01*
X196300Y245900D02*Y231600D01*
X198300Y229600D01*
X193200Y230900D02*X196400Y227700D01*
X198300Y229600D02*X206445D01*
X196400Y227700D02*X206376D01*
X192300Y225700D02*X206407D01*
X192200Y223600D02*X206390D01*
X193200Y241900D02*Y230900D01*
X188900Y239000D02*Y229100D01*
X192300Y225700D01*
X183600Y232200D02*X192200Y223600D01*
X179100Y236700D02*X184000Y231800D01*
X241000Y244644D02*X241108Y244536D01*
X217500Y244556D02*X217480Y244536D01*
X229294D02*Y240994D01*
X228000Y239700D01*
X221418Y244536D02*Y240918D01*
X219449Y244536D02*Y241149D01*
X218900Y240600D01*
X212400D01*
X221418Y240900D02*Y240518D01*
X225356Y244536D02*Y248044D01*
X233232Y244536D02*Y248768D01*
X227325Y244536D02*Y250175D01*
X225356Y248044D02*X223900Y249500D01*
X222300D01*
X220300Y251500D01*
X235200Y251300D02*Y244537D01*
X235201Y244536D01*
X237200Y253200D02*Y244566D01*
X237170Y244536D01*
X239200Y254200D02*Y244597D01*
X239139Y244536D01*
X247000Y250600D02*Y244551D01*
X249100Y252500D02*Y244652D01*
X248984Y244536D01*
X247000Y244551D02*X247015Y244536D01*
X258700Y254900D02*Y244665D01*
X258829Y244536D01*
X260750Y256850D02*Y244584D01*
X260798Y244536D01*
X262800Y244700D02*Y249400D01*
X264700Y244700D02*Y247800D01*
X265200Y248300D01*
Y250900D01*
X262800Y249400D02*X263000Y249600D01*
X265200Y250900D02*X263100Y253000D01*
X265300Y255000D02*Y256100D01*
X263800Y257600D01*
X266700Y252400D02*X265300Y253800D01*
Y255200D01*
X270600Y260300D02*X261200D01*
X266700Y245100D02*Y252400D01*
X271826Y259400D02*Y254752D01*
X271774Y254700D01*
X268626D02*Y245026D01*
X271826Y259374D02*X271526D01*
X270600Y260300D01*
X274974Y259400D02*Y262874D01*
X275000Y262900D01*
X272600Y245300D02*Y248400D01*
X273600Y249400D01*
X274200D01*
X252900Y252400D02*Y244558D01*
X254800Y254700D02*Y244627D01*
X252900Y244558D02*X252922Y244536D01*
X254800Y244627D02*X254891Y244536D01*
X256860Y243240D02*X256900Y243200D01*
X250953Y243347D02*X251000Y243300D01*
X256860Y244536D02*Y240040D01*
X256626Y272800D02*X254100D01*
X254000Y272900D01*
X282400Y245000D02*Y248500D01*
X283000Y249100D01*
X280400Y245800D02*Y249100D01*
X282300Y251000D01*
X289326Y258200D02*X284100D01*
X289300Y262400D02*X285400D01*
X283000Y258200D02*X284300D01*
X283900Y262400D02*X285800D01*
X272600Y245500D02*Y248100D01*
X268626Y245026D02*X268600Y245000D01*
X278519Y244536D02*Y249619D01*
X270643Y244536D02*Y249143D01*
X278519Y249619D02*X281200Y252300D01*
X276550Y244536D02*Y249850D01*
X280300Y253600D01*
X274200Y249400D02*X283000Y258200D01*
X270643Y249143D02*X283900Y262400D01*
X314467Y240600D02*X314567Y240700D01*
X314467Y240800D02*X314567Y240700D01*
X322382D02*X322582Y240500D01*
X317715Y240700D02*X322382D01*
X322441Y240641D01*
X314367Y234400D02*X314467Y234500D01*
X308500Y240800D02*X314467D01*
X305300Y234500D02*X314467D01*
X314533Y234567D01*
X321982Y234500D02*X322482Y235000D01*
X327600D02*X330541D01*
X330741Y235200D01*
X317615Y234500D02*X321982D01*
X322482Y235000D01*
X289535Y231551D02*X299251D01*
X308500Y240800D01*
X289535Y229582D02*X300382D01*
X305300Y234500D01*
X295700Y225644D02*X308444D01*
X313800Y231000D01*
X295200Y223675D02*X312975D01*
X316500Y227200D01*
X289535Y221706D02*X314406D01*
X316100Y223400D01*
X315637Y219737D02*X317200Y221300D01*
X290300Y219737D02*X315637D01*
X289535Y217768D02*X316168D01*
X318200Y219800D01*
X289535Y215799D02*X317899D01*
X327700Y240500D02*X331341D01*
X316500Y227200D02*X330500D01*
X330800Y226900D01*
X316100Y223400D02*X347200D01*
X317200Y221300D02*X345000D01*
X347200Y223400D02*X347300Y223300D01*
X345000Y221300D02*X346500Y219800D01*
X348700D01*
X349000Y219500D01*
X344200Y219800D02*X349500Y214500D01*
X342300Y218200D02*X347000Y213500D01*
X318200Y219800D02*X343800D01*
X317300Y215799D02*X318899D01*
X321300Y218200D01*
X342300D01*
X335700Y215800D02*X335800Y215900D01*
X340700Y215600D02*X340400Y215900D01*
X340300Y219800D02*X344200D01*
X138578Y276622D02*X140200Y275000D01*
X136800Y275300D02*X136500Y275000D01*
X136800Y276800D02*Y275300D01*
X138578Y282713D02*Y276622D01*
X137100Y277100D02*X136800Y276800D01*
X137100Y279000D02*Y277100D01*
X136609Y279491D02*X137100Y279000D01*
X136609Y282713D02*Y279491D01*
X134640Y278160D02*X134900Y277900D01*
X134640Y282713D02*Y278160D01*
X140547Y278153D02*X140700Y278000D01*
X143100Y278300D02*X143500Y277900D01*
X143100Y279300D02*Y278300D01*
X142516Y279884D02*X143100Y279300D01*
X140547Y282713D02*Y278153D01*
X142516Y282713D02*Y279884D01*
G54D12*X121426Y247074D02*X120800Y247700D01*
X120426Y282926D02*X120400Y282900D01*
X120426Y286000D02*Y282926D01*
G54D13*X124713Y287139D02*X123574Y286000D01*
X124400Y258000D02*X124600Y258200D01*
G54D12*X121426Y244700D02*Y247074D01*
G54D13*X127414Y241860D02*X124574Y244700D01*
X130213Y241860D02*X127414D01*
G54D12*X125100Y282200D02*Y279574D01*
G54D13*X128170Y285170D02*X125100Y282100D01*
G54D12*Y279574D02*X124900Y279374D01*
Y276226D02*Y273100D01*
G54D13*X124600Y258200D02*X136000D01*
X136900Y257300D01*
X141300D01*
X138700Y261400D02*X138900D01*
X141400Y259700D02*X142200D01*
X140600Y257300D02*X142100D01*
X130213Y287139D02*X124713D01*
G54D12*X135474Y271726D02*X135500Y271700D01*
X132200Y271726D02*X135474D01*
X131500Y278000D02*Y275574D01*
X132200Y274874D01*
G54D13*X132671Y282513D02*Y279371D01*
X131500Y278200D01*
G54D12*X104126Y268626D02*X104200Y268700D01*
G54D13*X111774Y269774D02*X111600Y269600D01*
G54D12*X101400Y268626D02*X104126D01*
G54D13*X99200Y259700D02*X141500D01*
X100100Y258000D02*X124400D01*
G54D12*X115500Y264500D02*X113000D01*
G54D13*X98050Y258550D02*X98012D01*
X85700Y261400D02*X140000D01*
X100174Y274000D02*X102300Y271874D01*
X98174Y274200D02*X98374Y274000D01*
G54D12*X108626Y271226D02*X107200Y269800D01*
X108626Y273500D02*Y271226D01*
G54D13*X98374Y274000D02*X100174D01*
G54D12*X105300Y273400D02*X105700Y273000D01*
X105300Y274500D02*Y273400D01*
X104200Y275600D02*X105300Y274500D01*
X104200Y275926D02*Y275600D01*
G54D13*X99300Y278000D02*X98174D01*
X100000Y278700D02*X99300Y278000D01*
X100000Y279100D02*Y278700D01*
X101850Y280950D02*X100000Y279100D01*
X101850Y283050D02*Y280950D01*
X100969Y283931D02*X101850Y283050D01*
X100969Y284069D02*Y283931D01*
G54D12*X104200Y281800D02*Y279074D01*
G54D13*X97031Y286788D02*Y282431D01*
X95062Y286788D02*Y284062D01*
X99000Y282500D02*X99600Y281900D01*
X99000Y286788D02*Y282500D01*
X104300Y281900D02*X104200Y281800D01*
X104300Y283200D02*Y281900D01*
X102938Y284562D02*X104300Y283200D01*
X100969Y286788D02*Y284031D01*
X111774Y273500D02*Y269774D01*
X111700Y273574D02*X111774Y273500D01*
X111700Y277826D02*Y273574D01*
X111500Y281174D02*X111700Y280974D01*
X111500Y283000D02*Y281174D01*
X107712Y286788D02*X111500Y283000D01*
G54D12*X115350Y281350D02*X115600Y281100D01*
X115350Y282850D02*Y281350D01*
G54D13*X115600Y282600D02*Y280900D01*
G54D12*X114900Y283300D02*X115350Y282850D01*
X114900Y283800D02*Y283300D01*
G54D13*X115600Y282600D01*
X114900Y283878D02*Y283300D01*
G54D12*X91500Y268300D02*X91200Y268600D01*
X87426Y272226D02*X87400Y272200D01*
X90500Y272226D02*X87426D01*
X92900Y268300D02*X91500D01*
X90500Y264500D02*X93500D01*
X94100Y269500D02*X92900Y268300D01*
X94126Y269500D02*X94100D01*
G54D13*X76000Y260500D02*X84800D01*
G54D12*X71500Y264500D02*X68000D01*
G54D13*X84800Y260500D02*X85700Y261400D01*
X97300Y269526D02*X97274Y269500D01*
X97300Y271300D02*Y269526D01*
X96800Y271800D02*X97300Y271300D01*
X96100Y271800D02*X96800D01*
X95226Y272674D02*X96100Y271800D01*
X95226Y274000D02*Y272674D01*
X98174Y278000D02*Y274200D01*
X97550Y258150D02*X97650D01*
X99200Y259700D01*
X99600Y257500D02*X100100Y258000D01*
X99750Y257650D02*X99681D01*
X98012Y258550D02*X95062Y255600D01*
X99681Y257650D02*X97031Y255000D01*
X93126Y278000D02*X90500Y275374D01*
X95026Y278000D02*X93126D01*
X93900Y279126D02*X95026Y278000D01*
X93900Y282800D02*Y279126D01*
G54D12*X91174Y282774D02*X91750Y283350D01*
X91174Y281400D02*Y282774D01*
G54D13*X91600Y283200D02*Y281826D01*
X93093Y284693D02*X91600Y283200D01*
X95062Y283962D02*X93900Y282800D01*
X95062Y284100D02*Y283962D01*
X97031Y282431D02*X96500Y281900D01*
G54D12*X74500Y278626D02*X74400Y278526D01*
X74500Y281352D02*Y278626D01*
X84400Y280000D02*X84600Y279800D01*
X84400Y282426D02*Y280000D01*
G54D13*X91600Y281826D02*X91387Y281613D01*
G54D12*X88026Y278474D02*X88100Y278400D01*
X88026Y281400D02*Y278474D01*
G54D13*X91400Y281626D02*X91174Y281400D01*
X70200Y281252D02*Y278900D01*
X70000Y278700D01*
X86800Y300700D02*Y301400D01*
X87562Y299938D02*X86800Y300700D01*
X89787Y299938D02*X87562D01*
X89787Y303413D02*X87200Y306000D01*
X89787Y301907D02*Y303413D01*
X86431Y297969D02*X84600Y299800D01*
X89787Y297969D02*X86431D01*
X85562Y292062D02*X84500Y291000D01*
X89787Y292062D02*X85562D01*
X84900Y288400D02*X84550Y288050D01*
X86200Y288400D02*X84900D01*
X87893Y290093D02*X86200Y288400D01*
X89787Y290093D02*X87893D01*
X108212Y296000D02*X113400D01*
X108212Y294031D02*X112869D01*
X104907Y286788D02*X107712D01*
X102938D02*Y284562D01*
G54D12*X114900Y287300D02*X114800Y287200D01*
X114900Y288800D02*Y287300D01*
X113700Y290000D02*X114900Y288800D01*
G54D13*X111563Y292037D02*X113600Y290000D01*
X108237Y292037D02*X111563D01*
X108212Y289888D02*X111400Y286700D01*
X108274Y292000D02*X108212Y292062D01*
Y290093D02*Y289888D01*
G54D12*X83674Y300726D02*X84500Y299900D01*
X81500Y300726D02*X83674D01*
X81500Y303874D02*X84026D01*
G54D13*X83574Y296000D02*X83074Y296500D01*
X89787Y296000D02*X83574D01*
G54D12*X84026Y303874D02*X84300Y303600D01*
G54D13*X86400Y301500D02*X84400Y303500D01*
X86700Y301500D02*X86400D01*
X86800Y301400D02*X86700Y301500D01*
G54D12*X90900Y310600D02*X92250Y309250D01*
G54D13*X93093Y308407D02*X90900Y310600D01*
X93093Y305213D02*Y308407D01*
X92700Y322100D02*Y314962D01*
X79831Y294031D02*X89787D01*
G54D12*X71100Y305100D02*X73974D01*
X72926Y298000D02*Y300852D01*
X69574Y301000D02*X73074D01*
X72926Y300852D02*X74000Y301926D01*
X73074Y301000D02*X74000Y301926D01*
X71500Y327500D02*X68000D01*
X64000Y331000D02*Y323500D01*
X53500Y331000D02*Y323500D01*
X45500Y327500D02*X51000D01*
G54D13*X70200Y284400D02*X74400D01*
G54D12*X84350Y285624D02*X84400Y285574D01*
G54D13*X93093Y286788D02*Y284693D01*
G54D12*X84350Y287850D02*Y285624D01*
X81000Y285300D02*X80800Y285100D01*
X81000Y287926D02*Y285300D01*
X81024Y291050D02*X81000Y291074D01*
X84550Y291050D02*X81024D01*
X73974Y305100D02*X74000Y305074D01*
G54D13*X74500Y288700D02*Y284400D01*
X79831Y294031D02*X74500Y288700D01*
X74400Y284400D02*X74413Y284413D01*
G54D12*X78426Y298000D02*X79926Y296500D01*
X76074Y298000D02*X78426D01*
G54D13*X78700Y292900D02*X79831Y294031D01*
G54D12*X99000Y327500D02*X99500Y327000D01*
X109000Y331000D02*Y327500D01*
X116000D02*X109500D01*
X109000Y323500D02*Y326500D01*
X108500Y327000D01*
X99000Y331000D02*Y323500D01*
X90000Y327500D02*X96000D01*
G54D13*X85200Y306000D02*X84500Y306700D01*
X87200Y306000D02*X85200D01*
G54D12*X84500Y309274D02*X84426Y309348D01*
X84500Y306800D02*Y309274D01*
X84422Y312500D02*X84426Y312496D01*
X81500Y312500D02*X84422D01*
G54D13*X108212Y305012D02*X112100Y308900D01*
X105213Y305213D02*X108600Y308600D01*
X104907Y305213D02*X105213D01*
X108600Y310674D02*X108926Y311000D01*
X108600Y308600D02*Y310674D01*
X104300Y308800D02*X105100D01*
X102938Y307438D02*X104300Y308800D01*
X102938Y305213D02*Y307438D01*
G54D12*X116500Y309000D02*X112500Y305000D01*
G54D13*X105500Y310926D02*X105574Y311000D01*
X105500Y309200D02*Y310926D01*
X105100Y308800D02*X105500Y309200D01*
X102100Y310674D02*X102426Y311000D01*
X102100Y308800D02*Y310674D01*
X100969Y307669D02*X102100Y308800D01*
X100969Y305213D02*Y307669D01*
G54D12*X102374Y314900D02*X105600D01*
X99400Y314600D02*X99300Y314700D01*
G54D13*X105500Y314900D02*X105600Y314800D01*
X102374Y314900D02*X105500D01*
X99300Y314826D02*X99226Y314900D01*
X121674Y293600D02*X121574Y293500D01*
G54D12*X118900Y297000D02*X116174D01*
G54D13*X108212Y299938D02*X112138D01*
X118326Y300400D02*X118426Y300500D01*
X108212Y297969D02*X112769D01*
X108212Y301907D02*Y305012D01*
X118326Y303900D02*X118426Y304000D01*
X116100Y303900D02*X118326D01*
X112138Y299938D02*X116100Y303900D01*
G54D12*X99400Y310600D02*Y314600D01*
G54D13*X99300Y310500D02*Y314826D01*
X99000Y310200D02*X99400Y310600D01*
X99000Y305213D02*Y310200D01*
X95062Y305213D02*Y312638D01*
X97031Y305213D02*Y313069D01*
X94800Y315300D02*Y319500D01*
X92700Y314962D02*X95062Y312600D01*
X94800Y315300D02*X94831D01*
X97031Y313100D01*
G54D12*X56400Y289974D02*X56426Y290000D01*
X56400Y287100D02*Y289974D01*
X56500Y290074D02*X56526Y290100D01*
G54D14*X49500Y287000D02*X52500D01*
X46500D02*Y290000D01*
G54D13*X59674Y290100D02*Y295324D01*
G54D12*X48800Y298500D02*X48700Y298600D01*
X52750Y298500D02*X48800D01*
X45674Y295900D02*X45574Y296000D01*
X52750Y295900D02*X45674D01*
X49000Y302000D02*X49250D01*
G54D14*X39000Y312000D02*Y314500D01*
X38500Y315000D01*
X42500D02*Y312500D01*
X42000Y312000D01*
G54D12*X49900Y301100D02*X49000Y302000D01*
X52750Y301100D02*X49900D01*
X64700Y316126D02*X64574Y316000D01*
Y309126D02*X64600Y309100D01*
X64574Y312000D02*Y309126D01*
X64000Y268000D02*Y260500D01*
X64700Y319000D02*Y316126D01*
X61300D02*X61426Y316000D01*
Y312000D02*X58900D01*
X61426D02*Y316000D01*
X61000Y311574D02*X61426Y312000D01*
X61000Y308574D02*Y311574D01*
X61300Y318900D02*Y316126D01*
G54D13*X59674Y295324D02*X60250Y295900D01*
G54D12*X53500Y268000D02*Y260500D01*
X45500Y264500D02*X51000D01*
X60450Y301000D02*X60250Y301200D01*
X66426Y301000D02*X60450D01*
G54D13*X60250Y304676D02*X61000Y305426D01*
X60250Y301100D02*Y304676D01*
G54D12*X63500Y298500D02*X64000Y298000D01*
X60250Y298500D02*X63500D01*
X38500Y290300D02*Y292926D01*
X38074Y292500D02*X38500Y292926D01*
X35500Y292500D02*X38074D01*
X38926D02*X38500Y292926D01*
X41500Y292500D02*X38926D01*
X31426Y296000D02*X20000D01*
X34648Y296074D02*X34574Y296000D01*
X38500Y296074D02*X34648D01*
X38574Y296000D02*X38500Y296074D01*
X42426Y296000D02*X38574D01*
X26000D02*X10500D01*
G54D14*X31500Y287000D02*X28000D01*
X27500Y287500D01*
Y282000D02*X31500D01*
G54D13*X25000Y299000D02*Y303000D01*
Y306000D02*Y309000D01*
G54D12*X21500Y233000D02*X15000D01*
X26500Y170000D02*X13500D01*
G54D13*X289535Y237458D02*X284642D01*
X289500Y235600D02*X295400D01*
X306600Y246800D01*
X290200Y233500D02*X297900D01*
X309400Y245000D01*
X284642Y237458D02*X284500Y237600D01*
X274581Y244536D02*Y239719D01*
X274600Y239700D01*
G54D15*X321800Y262600D02*X321500Y262900D01*
X324100Y262600D02*X321800D01*
X321600Y264900D02*X321100Y265400D01*
X324200Y264900D02*X321600D01*
X323800Y267200D02*X321200D01*
X321800Y269300D02*X321500Y269000D01*
X321700Y271000D02*X321300Y271400D01*
G54D13*X292448Y262400D02*X297300D01*
X296700D02*X301352D01*
X292474Y258200D02*X301526D01*
X304400Y262400D02*X307126D01*
X304474Y258100D02*X307300D01*
G54D15*X334300Y276400D02*Y273800D01*
X334200Y273700D01*
X336900Y276700D02*Y271000D01*
X337000Y270900D01*
X339500Y276600D02*Y271100D01*
X342200Y276800D02*Y273800D01*
X342300Y273700D01*
X343000Y270300D02*X340300D01*
X333800Y270000D02*X337400D01*
G54D14*X339900Y267800D02*X343000D01*
X339900Y265400D02*X343200D01*
X343500Y265100D01*
X339900Y262800D02*X343300D01*
X343000Y267800D02*X343400Y267400D01*
G54D15*X324100Y269300D02*X321800D01*
X324300Y271000D02*X321700D01*
G54D13*X307274Y269100D02*X309900D01*
X304800Y276774D02*X304300Y276274D01*
X307800Y275400D02*X307000D01*
X306300Y276100D01*
X304800D01*
X304463Y276437D01*
X304300Y273126D02*Y269174D01*
X304126Y269000D01*
X283000Y249100D02*X379800D01*
X306600Y246800D02*X373500D01*
X309400Y245000D02*X370300D01*
X281200Y252300D02*X321200D01*
X280300Y253600D02*X320700D01*
X370300Y245000D02*X370400Y244900D01*
X371400Y246800D02*X391800D01*
X369200Y245000D02*X387000D01*
X378500Y249100D02*X387700D01*
X374100Y251000D02*X382100D01*
X282300D02*X376300D01*
X320000Y252300D02*X353500D01*
X352800D02*X356300D01*
X357500Y253500D01*
X319500Y253600D02*X353700D01*
X356000Y255900D01*
X362800D01*
X313800Y231000D02*X336352D01*
X337252Y231900D01*
X333948Y226900D02*X348100D01*
X340400Y231900D02*X359800D01*
X365300Y226400D01*
Y219700D01*
X370000Y215000D01*
X348100Y226900D02*X360000Y215000D01*
X325339Y287300D02*Y277839D01*
X322900Y275400D01*
X307200D01*
X304800Y292200D02*Y276774D01*
X297900Y283800D02*Y276400D01*
X295500Y283100D02*Y276800D01*
G54D14*X330700Y299600D02*X328000D01*
X330300Y297300D02*X327500D01*
X327400Y297200D01*
X328000Y299600D02*X327800Y299400D01*
X331200Y299900D02*X334300D01*
X334400Y299800D01*
X334100Y297900D02*Y295500D01*
X330200Y294900D02*X327500D01*
X330300Y292300D02*X327400D01*
X327300Y292200D01*
X330000Y289600D02*X327700D01*
X327400Y289300D01*
X336500Y297800D02*Y295100D01*
X336300Y294900D01*
X338800Y297600D02*Y295500D01*
X338900Y295400D01*
X341400Y297600D02*Y295700D01*
X341100Y295400D01*
X331600Y289000D02*X334700D01*
X331800Y291500D02*X333800D01*
X334000Y291300D01*
X334800Y294000D02*Y291600D01*
X334900Y291500D01*
X337500Y293700D02*Y291300D01*
X337400Y291200D01*
X339800Y293700D02*Y291800D01*
X339900Y291700D01*
X342300Y294000D02*Y291300D01*
X342400Y291200D01*
G54D15*X295349Y297123D02*X300942D01*
X300200Y297100D02*X300100Y297000D01*
X295349Y295154D02*X302911D01*
X297400Y296200D02*X301865D01*
G54D13*X295349Y293185D02*X303815D01*
X304800Y292200D01*
X295349Y291216D02*X300784D01*
X302400Y289600D01*
X295349Y289247D02*X299653D01*
X302400Y286500D01*
X295349Y287278D02*Y286351D01*
X297900Y283800D01*
G54D14*X299400Y297123D02*X307290D01*
X302600Y297300D02*X309900D01*
X307290Y297123D02*X311513Y292900D01*
X308213Y296200D02*X311513Y292900D01*
X309259Y295154D02*X311513Y292900D01*
X309600Y295800D02*X309800Y295600D01*
G54D13*X309300Y295113D02*X311513Y292900D01*
G54D14*X300700Y296200D02*X308213D01*
X302400Y295154D02*X309259D01*
X301700Y295800D02*X309600D01*
X305800Y296500D02*X310100D01*
X309900Y297300D02*X310400Y296800D01*
X310100Y296500D02*X310200Y296400D01*
G54D13*X309300Y301300D02*Y295113D01*
G54D15*X292791Y305709D02*X292400Y306100D01*
G54D13*X292792Y284719D02*X293881D01*
X295500Y283100D01*
G54D15*X293800Y316300D02*Y313500D01*
X293400Y313100D01*
X291500Y316300D02*Y313500D01*
X291400Y313400D01*
X289500Y316600D02*Y313600D01*
X275400Y327100D02*Y324100D01*
X277500Y326600D02*Y324000D01*
X277300Y323800D01*
X279600Y326800D02*Y323600D01*
X281700Y326800D02*Y323600D01*
X283800Y326200D02*Y324500D01*
X283600Y324300D01*
X282900Y323100D02*X285800D01*
X285900Y323200D01*
X283000Y321100D02*X286000D01*
X286300Y320800D01*
X282900Y318800D02*X286300D01*
X286400Y318700D01*
X286100Y319000D01*
X282800Y316700D02*X286000D01*
X286100Y316600D01*
X283000Y316300D02*Y313800D01*
X283200Y313600D01*
X280800Y316300D02*Y313600D01*
X281100Y313300D01*
X278300Y316100D02*Y313900D01*
X278700Y313500D01*
X286500Y316700D02*X286200Y317000D01*
X297100Y326800D02*Y324000D01*
X297500Y323600D01*
X295000Y326800D02*Y323500D01*
X292600Y326800D02*Y324300D01*
X293200Y323700D01*
X290600Y326800D02*Y323900D01*
X290800Y323700D01*
X288700D02*Y326800D01*
X288600Y326900D01*
X289000Y322900D02*X286600D01*
X289100Y321000D02*X286500D01*
X286400Y321100D01*
X289200Y318700D02*X286400D01*
X289200Y316700D02*X286500D01*
X290822Y299680D02*Y305722D01*
X290900Y305800D01*
X292791Y299680D02*Y305709D01*
G54D13*X288853Y299680D02*Y305047D01*
X288100Y305800D01*
X284915Y299680D02*Y301915D01*
X285900Y302900D01*
X286884Y299680D02*Y301916D01*
X285900Y302900D01*
G54D15*X279008Y299680D02*Y305708D01*
X279500Y306200D01*
X280977Y299680D02*Y306177D01*
G54D13*X282946Y299680D02*Y305046D01*
X283700Y305800D01*
X276451Y287277D02*Y286751D01*
X279009Y284719D02*X277619D01*
G54D14*X354000Y292000D02*X350500D01*
X360000D02*X364000D01*
X354000Y290000D02*X350500D01*
X359500D02*X364000D01*
X354000Y288000D02*X350500D01*
X360000D02*X363500D01*
X354000Y287000D02*Y283000D01*
X356000Y287000D02*Y283500D01*
X358000Y287000D02*Y283000D01*
X360000Y287000D02*Y283000D01*
G54D13*X276451Y291215D02*X274815D01*
X290823Y284719D02*Y282077D01*
X280978Y284719D02*Y282278D01*
X284916Y284719D02*Y282784D01*
X285200Y282500D01*
X277619Y284719D02*X275900Y283000D01*
X286885Y284719D02*Y275689D01*
X285200Y282500D02*Y279000D01*
X284300Y278100D01*
X280978Y282278D02*X279500Y280800D01*
X284300Y278100D02*X280300D01*
X279500Y278900D01*
Y280800D01*
X282947Y280747D02*X282700Y280500D01*
X282947Y284719D02*Y280747D01*
X281200Y278100D02*Y276359D01*
X275900Y283000D02*Y277200D01*
X280978Y276137D02*X280300Y275459D01*
Y270341D02*X276941D01*
X276800Y270200D01*
X290823Y282077D02*X292300Y280600D01*
X286885Y275689D02*X287400Y275174D01*
Y272026D02*X290074D01*
X290200Y271900D01*
X288854Y284719D02*Y280546D01*
X289100Y280300D01*
X297900Y279300D02*Y274200D01*
X281200Y276359D02*X280370Y275529D01*
X297900Y274200D02*X298900Y273200D01*
X301126D01*
X301200Y273126D01*
X301100Y273200D02*X305226D01*
G54D14*X354000Y305000D02*X350000D01*
X354000Y307000D02*X350500D01*
X354000Y309000D02*X350500D01*
X354000Y310000D02*Y314500D01*
X356000Y310000D02*Y313500D01*
X358000Y310000D02*Y313500D01*
X360000Y310000D02*Y313500D01*
Y309000D02*X363500D01*
X360000Y307000D02*X363500D01*
X360000Y305000D02*X363500D01*
G54D13*X302126Y308474D02*X304100Y306500D01*
X303550Y307050D02*X309300Y301300D01*
G54D14*X317100Y316200D02*Y313600D01*
X319400Y316200D02*Y313600D01*
X319300Y313500D01*
X320400Y316900D02*X324000D01*
X320700Y318700D02*X323700D01*
X323800Y318600D01*
X320900Y320700D02*X323600D01*
X323900Y320400D01*
X321200Y322800D02*X323500D01*
X323700Y323000D01*
G54D13*X347959Y332200D02*X353026D01*
X342841D02*X339900D01*
X339700Y332000D01*
X356174Y332200D02*X359000D01*
G54D14*X341500Y315900D02*Y312500D01*
X338800Y315500D02*Y312600D01*
X338900Y312500D01*
X336000Y315400D02*Y312800D01*
X336100Y312700D01*
X333600Y315600D02*Y313100D01*
X333900Y312800D01*
X334300Y312700D02*X331000D01*
X330900Y312600D01*
X334100Y310400D02*X331200D01*
G54D15*X276451Y297122D02*X270709D01*
G54D13*X279008Y300108D02*X276008D01*
X276000Y300100D01*
G54D15*X276451Y295153D02*X268740D01*
X274400Y296100D02*X269687D01*
G54D14*X271300Y297100D02*X262800D01*
X270300Y296100D02*X262900D01*
X270800Y295100D02*X262700D01*
G54D13*X276451Y293184D02*X274284D01*
X274516D02*X267584D01*
X275085Y291215D02*X269415D01*
X276451Y289246D02*X273446D01*
X267584Y293184D02*X265300Y290900D01*
X269415Y291215D02*X267500Y289300D01*
X273446Y289246D02*X270100Y285900D01*
X265300Y290900D02*Y282400D01*
Y282600D02*Y276574D01*
X264900Y276174D01*
X265200Y281000D02*X265300Y281100D01*
X267200Y273200D02*X265074D01*
X271500Y274500D02*X270200Y273200D01*
X265074D01*
X276451Y286751D02*X271500Y281800D01*
Y274500D01*
X265074Y273200D02*X264900Y273026D01*
X260000D01*
X259774Y272800D01*
X265074Y273200D02*X264900Y273026D01*
X405874Y182000D02*Y182026D01*
X402000Y185900D01*
X405874Y189874D02*X405826D01*
X402000Y193700D01*
X405874Y197748D02*X405852D01*
X405874Y205622D02*X407722D01*
X406100D02*X406422D01*
X411600Y210800D01*
Y238400D01*
X403300Y246700D01*
X389800Y246800D02*X403200D01*
X403850Y246150D01*
X405852Y197748D02*X402000Y201600D01*
X392700D01*
X394600D02*X389600D01*
X389400Y201800D01*
X352500Y200300D02*X376300D01*
X376800Y199800D01*
X376500Y200200D02*X379500Y197200D01*
X402000Y185900D02*X392000D01*
X402000Y193700D02*X392000D01*
X393300D02*X387000D01*
X392700Y185900D02*X387400D01*
X357500Y190000D02*X376300D01*
X376700Y189600D01*
X319600Y196100D02*X343700D01*
X345600Y194200D01*
X343700Y198600D02*X347800Y194500D01*
X343600Y201200D02*X350500Y194300D01*
X349500Y203300D02*X352500Y200300D01*
X347000Y200500D02*X357500Y190000D01*
X247016Y161465D02*Y165016D01*
X248700Y166700D01*
X243078Y161465D02*Y165222D01*
X245047Y161465D02*Y166247D01*
X245500Y166700D01*
X243078Y165222D02*X242800Y165500D01*
Y168300D01*
X243400Y168900D01*
Y172800D01*
G54D12*X243300Y172900D02*Y168800D01*
X242850Y168350D01*
G54D13*X243400Y172800D02*X243300Y172900D01*
X274582Y161465D02*Y166582D01*
X274600Y166600D01*
X268675Y161465D02*X269000Y161790D01*
Y166400D01*
X258830Y161465D02*X258800Y161435D01*
X266706Y161465D02*X266626Y161385D01*
X264737Y161465D02*Y166437D01*
X264800Y166500D01*
X276551Y161465D02*X276500Y161414D01*
X278520Y161465D02*X278500Y161445D01*
X280489Y161465D02*X280500Y161454D01*
X258800Y161435D02*Y154500D01*
X259900Y153400D01*
Y152674D01*
X266626Y161385D02*Y152500D01*
X260799Y161465D02*Y155701D01*
X260800Y155700D01*
X269774Y152500D02*X272100D01*
X281074D02*X281000Y152426D01*
X269852Y148400D02*X272378D01*
X276500Y161414D02*Y157400D01*
X270644Y161465D02*Y157544D01*
X268700Y155600D01*
X272613Y161465D02*Y156213D01*
X272000Y155600D01*
X278500Y161445D02*Y156700D01*
X280500Y161454D02*Y157100D01*
X278500Y156700D02*X277926Y156126D01*
X280500Y157100D02*X282100Y155500D01*
X287900D01*
X290941Y152459D01*
Y150900D01*
X277926Y156126D02*Y152500D01*
X313000Y178800D02*Y145700D01*
X311300Y177800D02*Y146500D01*
X309600Y176700D02*Y147600D01*
X307800Y175200D02*Y148500D01*
X289535Y200047D02*X285847D01*
X289535Y202016D02*X284784D01*
X284600Y202200D01*
X289535Y203985D02*X286015D01*
X284600Y205400D01*
X285847Y200047D02*X285400Y199600D01*
X282400D01*
X282100Y199900D01*
X278500D01*
X278400Y200000D01*
G54D12*X278500Y199900D02*X282300D01*
X282600Y199600D01*
G54D13*X289535Y194140D02*X284040D01*
X284000Y194100D01*
X289535Y190202D02*X301598D01*
X289535Y188233D02*X300867D01*
X289535Y186264D02*X300036D01*
X289535Y184295D02*X298705D01*
X301598Y190202D02*X313000Y178800D01*
X300867Y188233D02*X311300Y177800D01*
X300036Y186264D02*X309600Y176700D01*
X298705Y184295D02*X307800Y175200D01*
X289535Y172481D02*X293481D01*
X289535Y170512D02*X296712D01*
X297200Y171000D01*
X293481Y172481D02*X295700Y174700D01*
X289535Y176419D02*X284119D01*
X283400Y175700D01*
X289535Y174450D02*X286250D01*
X283500Y171700D01*
X289535Y207923D02*X307777D01*
X319600Y196100D01*
X289535Y209892D02*X309208D01*
X320500Y198600D01*
X289535Y211861D02*X310339D01*
X321000Y201200D01*
X325700Y208400D02*Y215900D01*
X330700Y208400D02*Y215900D01*
X335700Y208400D02*Y215800D01*
X340700Y208400D02*Y215600D01*
X349500Y211000D02*Y203300D01*
Y214500D02*Y210000D01*
X347000Y213500D02*Y200500D01*
X289535Y168543D02*X289578Y168500D01*
X289535Y168543D02*X297179D01*
X299174Y166548D01*
Y163400D02*X298200D01*
X295700Y165900D01*
X320500Y198600D02*X343700D01*
X321000Y201200D02*X343600D01*
X335700Y189000D02*Y180700D01*
X335500Y180500D01*
X325700Y189000D02*Y182600D01*
X328600Y179700D01*
X330700Y189000D02*Y173400D01*
X345600Y194200D02*Y135600D01*
X341800Y169000D02*X343200Y167600D01*
Y158000D01*
X345600Y135600D02*X345700Y135500D01*
X347800Y135600D02*X348000Y135400D01*
X347800Y194500D02*Y135600D01*
X350500Y194300D02*Y135300D01*
X350600Y135200D01*
X340700Y167300D02*Y157700D01*
X340800Y157600D01*
X343200Y158000D02*X343300Y157900D01*
X343200Y159600D02*Y156200D01*
X340700Y158500D02*Y152200D01*
X340400Y151900D01*
X334326Y162800D02*X331600D01*
X330700Y173400D02*X337300Y166800D01*
Y162974D01*
X337600Y170400D02*X340700Y167300D01*
X337300Y162974D02*X337474Y162800D01*
X337600Y177300D02*Y170400D01*
X340700Y189000D02*Y180900D01*
X340800Y180800D01*
X341800Y177200D02*Y169000D01*
X376750Y189550D02*Y147250D01*
X376700Y147200D01*
X376500Y200300D02*Y200200D01*
X379500Y197200D02*Y143800D01*
X379900Y143400D01*
X261708Y92646D02*X257154D01*
X261708Y90677D02*X259123D01*
X261708Y86739D02*X259439D01*
X258700Y86000D01*
X261708Y88708D02*X257208D01*
X257200Y88700D01*
X261708Y84770D02*X260170D01*
X258900Y83500D01*
X261708Y106429D02*Y117108D01*
X265839Y108592D02*Y113139D01*
X266000Y113300D01*
X263870Y108592D02*Y111230D01*
X263500Y111600D01*
Y116600D01*
X277000Y131800D02*X263500Y118300D01*
X277100Y129300D02*X267800Y120000D01*
X277800Y127400D02*X269800Y119400D01*
X278200Y125400D02*X271700Y118900D01*
X278600Y123000D02*X273700Y118100D01*
X269800Y119400D02*Y108615D01*
X271700Y118900D02*Y108638D01*
X271746Y108592D01*
X273700Y118100D02*Y108607D01*
X273715Y108592D01*
X269800Y108615D02*X269777Y108592D01*
X265840Y82608D02*Y78440D01*
X263871Y82608D02*Y79071D01*
Y79029D02*X263779D01*
X263400Y78650D01*
X265840Y78440D02*X264200Y76800D01*
X265000Y77600D01*
X269778Y82608D02*Y77822D01*
X269800Y77800D01*
X267809Y82608D02*Y74509D01*
X269778Y78478D02*Y76622D01*
X267809Y74509D02*X267800Y74500D01*
X269778Y76622D02*X270200Y76200D01*
X261708Y104460D02*X260840D01*
X261708Y102491D02*X260209D01*
X258250Y102250D02*X255050D01*
X253700Y100900D01*
X260209Y102491D02*X258000Y104700D01*
X259978Y100522D02*X258200Y102300D01*
X260540Y104460D02*X259000Y106000D01*
X261708Y100522D02*X259978D01*
X261708Y94615D02*X254385D01*
X261708Y98553D02*X258447D01*
X257300Y99700D01*
X261708Y96584D02*X255716D01*
X255000Y97300D01*
X261708Y104460D02*X260540D01*
X259000Y106000D02*Y106300D01*
X257500Y107800D01*
X254300Y108000D02*X257300D01*
X257700Y107600D01*
X257800Y88708D02*X250808D01*
X259800Y90677D02*X252823D01*
X250808Y88708D02*X250800Y88700D01*
X258700Y86000D02*X245248D01*
X244748Y86500D01*
X252823Y90677D02*X252200Y91300D01*
X249100D01*
X248000Y90200D01*
X244722D01*
X257500Y92646D02*X248154D01*
X258950Y83550D02*X249950D01*
X263575Y78825D02*X248125D01*
X247000Y77700D01*
X264700Y77300D02*X249400D01*
X248200Y76100D01*
X248154Y92646D02*X247200Y93600D01*
X250185Y94615D02*X247700Y97100D01*
X245048D01*
X244748Y97400D01*
X247200Y93600D02*X244948D01*
X244748Y93800D01*
X254900Y94615D02*X250185D01*
X253700Y100900D02*X244848D01*
X244748Y101000D01*
X258000Y104700D02*X245448D01*
X244948Y105200D01*
G54D12*X281500Y71900D02*Y69300D01*
G54D13*X283000Y56000D02*X283500Y56500D01*
Y68500D01*
X284100Y69100D01*
Y74500D01*
X285400Y76500D02*Y53426D01*
X289600Y53500D02*Y61500D01*
X290100Y62000D01*
Y76400D01*
X303650Y66950D02*X294500Y57800D01*
G54D12*X295700Y66200D02*Y63200D01*
X279526Y53900D02*X281726D01*
X282226Y53400D01*
G54D13*X285426Y53452D02*X285374Y53400D01*
X285200Y53226D02*X285400Y53426D01*
G54D12*X269900Y53200D02*Y49200D01*
G54D13*X275300Y48200D02*Y52600D01*
X275200Y52700D01*
X264648Y58100D02*X272100D01*
G54D12*X269900Y49200D02*X269800Y49100D01*
G54D13*X275100Y53200D02*Y54200D01*
X276900Y56000D01*
X283000D01*
G54D12*X256500Y47600D02*X254400D01*
G54D13*X264200Y47400D02*Y46500D01*
X265400Y45300D01*
X272400D01*
X275300Y48200D01*
G54D12*X254400Y47600D02*X252500Y45700D01*
G54D13*X256100Y65900D02*X261200Y60800D01*
Y58400D01*
X261500Y58100D01*
X277654Y82608D02*Y79246D01*
X275685Y82608D02*Y79215D01*
X277654Y79246D02*X280700Y76200D01*
X275685Y79215D02*X278300Y76600D01*
Y75500D01*
X278600Y75200D01*
X280700Y76200D02*X281374D01*
X273716Y82608D02*Y71684D01*
X289552Y53500D02*Y50474D01*
X285200Y49000D02*Y53226D01*
X289552Y50648D02*Y49148D01*
X303700Y46600D02*X292104D01*
X289552Y49152D01*
X273535Y39000D02*Y43635D01*
X276300Y46400D01*
X282600D01*
X285200Y49000D01*
X273535Y39800D02*Y35832D01*
X273567Y35800D01*
X271747Y82608D02*Y71153D01*
X273200Y69700D01*
Y62700D01*
X270200Y76200D02*Y68700D01*
X269800Y68300D01*
X273700Y71700D02*X274884Y70516D01*
X274900Y70500D02*Y61900D01*
X277300Y68200D02*Y67200D01*
X276300Y66200D01*
Y63300D01*
X274900Y62600D02*Y60426D01*
X272974Y58500D01*
X272100Y58100D02*X272500Y58500D01*
X277126Y58400D02*X273000D01*
X272937Y58463D01*
X276300Y63300D02*X278700Y60900D01*
X279300D01*
X280100Y60100D01*
Y58574D01*
X280274Y58400D01*
X281374Y76200D02*X282400Y75174D01*
X286392Y82608D02*X292100Y76900D01*
Y75500D01*
X295100Y72500D01*
X283400Y75200D02*X282500D01*
X284100Y74500D02*X283400Y75200D01*
X303600Y76200D02*Y78600D01*
X303400Y75800D02*X303300Y75900D01*
Y72600D02*Y69800D01*
X295100Y72500D02*Y69600D01*
X285530Y82608D02*X286092D01*
X285608D02*X286392D01*
X290100Y76400D02*X289300Y77200D01*
X312554Y98554D02*X312600Y98600D01*
X310700Y101000D02*X318900D01*
X322200Y104300D01*
X309400Y98554D02*X323254D01*
X314700Y103100D02*X317900Y106300D01*
X309500Y106452D02*X313052D01*
X313100Y106500D01*
X309900Y115800D02*X312300D01*
X320700Y107800D02*X318000Y110500D01*
X310100D01*
X320600Y142200D02*X301400Y123000D01*
X310100Y110500D02*X309500Y109900D01*
X287692Y96585D02*X312785D01*
X287692Y94616D02*X312484D01*
X312600Y94500D01*
X287692Y92647D02*X308553D01*
X309700Y91500D01*
X316300D01*
X316500Y91700D01*
X300300Y90000D02*X313000D01*
X311100D02*X314000D01*
X302000Y87800D02*X310500D01*
X313000Y90000D02*X313100Y90100D01*
X314000Y90000D02*X315100Y88900D01*
X325000D01*
X312300Y87100D02*X325100D01*
X310500Y87800D02*X311200Y87100D01*
X313700D01*
X310900Y96585D02*X326615D01*
X326700Y96500D01*
X287692Y98554D02*X312554D01*
X297800Y103300D02*X300100Y101000D01*
X312400D01*
X301600Y103100D02*X311700D01*
X311800Y103000D01*
X310600Y103100D02*X314700D01*
X310000Y115700D02*X310100Y115600D01*
X309500Y109600D02*Y112500D01*
X309400Y112600D01*
X304100D01*
X301100Y115600D01*
X321900Y119600D02*X324800D01*
X322074Y113448D02*Y116278D01*
X321900Y116452D01*
X319448D01*
X316600Y119300D01*
X324800Y119600D02*X324900Y119700D01*
X322074Y110300D02*X325000D01*
D03*
X322826Y114200D02*X322074Y113448D01*
X329726Y107800D02*X320700D01*
X338252Y114200D02*X322826D01*
X341400D02*Y107400D01*
X341900Y106900D01*
X323254Y98554D02*X324100Y99400D01*
X333000Y97000D02*Y107674D01*
X332874Y107800D01*
G54D12*X292700Y53500D02*X294726D01*
X294926Y53700D01*
G54D13*X289726Y53674D02*X289552Y53500D01*
X289400Y54200D02*X289826Y53774D01*
X352000Y53000D02*X345900D01*
X307000Y39000D02*Y43300D01*
X303700Y46600D01*
X307000Y39800D02*Y35832D01*
X307032Y35800D01*
X319700Y48900D02*X317900Y50700D01*
X328500Y45300D02*X324900Y48900D01*
X319700D01*
X329300Y48000D02*X325800Y51500D01*
X322400D01*
X322300Y51600D01*
X345600Y32600D02*X349741D01*
X349841Y32700D01*
X354959D02*Y36341D01*
X354400Y36900D01*
X345900Y53000D02*X338200Y45300D01*
X328500D01*
X337300Y48000D02*X329300D01*
X362000Y58000D02*X347300D01*
X337300Y48000D01*
X352000Y63000D02*X342000D01*
X333000Y64000D02*X336000D01*
X336100Y68900D02*X323700D01*
X323600Y69000D01*
X362000Y68000D02*X339900D01*
X362000Y78000D02*X346300D01*
X344000Y75700D01*
X352000Y83000D02*X342300D01*
X339000Y79700D01*
X362000Y88000D02*X343300D01*
X340400Y90900D01*
X352000Y93000D02*X345600D01*
X339500Y95700D02*X343000D01*
X345700Y93000D01*
X327000Y81400D02*X328700Y79700D01*
X334300D01*
X342000Y63000D02*X336100Y68900D01*
X339900Y68000D02*X336100Y71800D01*
X327100D01*
X326700Y72200D01*
X339000Y79700D02*X331200D01*
X328100Y92000D02*X339300D01*
X341250Y90050D01*
X336500Y81800D02*X339400Y84700D01*
X325000Y88900D02*X328100Y92000D01*
X325100Y87100D02*X330400Y81800D01*
X336500D01*
X316700Y81400D02*X327000D01*
X336000Y64000D02*X340000Y60000D01*
X344000Y75700D02*X312800D01*
X312600Y75900D01*
X303200Y82100D02*X305600D01*
X306700Y81000D01*
X303700Y67000D02*X304800D01*
X306300Y68500D01*
Y74700D01*
X305200Y75800D01*
X303400D01*
X299800Y85600D02*X302000Y87800D01*
X287692Y90678D02*X295322D01*
X287692Y88709D02*X293191D01*
X287692Y86740D02*X292860D01*
X298000Y87700D02*X300300Y90000D01*
X295322Y90678D02*X295800Y90200D01*
X293191Y88709D02*X294200Y87700D01*
X298000D01*
X292860Y86740D02*X294000Y85600D01*
X299800D01*
X287692Y84771D02*X288029D01*
X291900Y80900D01*
X287100Y79400D02*X289400Y77100D01*
X281592Y82608D02*Y80808D01*
X283000Y79400D01*
X287100D01*
X279623Y82608D02*Y79577D01*
X281500Y77700D01*
X284200D01*
X285400Y76500D01*
X287692Y100523D02*X295623D01*
X295900Y100800D01*
X287692Y102492D02*X293092D01*
X293900Y103300D01*
X297800D01*
X287692Y104461D02*X292861D01*
X293500Y105100D01*
X299600D01*
X301600Y103100D01*
X287692Y106430D02*X288130D01*
X292100Y110400D01*
X283560Y108592D02*Y110860D01*
X285800Y113100D01*
X301100Y115600D02*X284000D01*
X283900Y115500D01*
X301400Y123000D02*X278600D01*
X276400Y113100D02*Y115000D01*
X276200Y115200D01*
X279000Y114800D02*Y117100D01*
X277653Y108592D02*Y110753D01*
X275684Y108592D02*Y112384D01*
X277653Y110300D02*Y112253D01*
X279622Y108592D02*Y113222D01*
X275684Y112384D02*X276400Y113100D01*
X279622Y113222D02*X280600Y114200D01*
X277653Y111947D02*Y113453D01*
X279000Y114800D01*
X281591Y108592D02*Y113191D01*
X284100Y115700D01*
X280450Y114050D02*X281300Y114900D01*
X279622Y119778D02*X279100Y120300D01*
X280600Y118800D02*X279100Y120300D01*
X281300Y114900D02*Y118100D01*
X280500Y118900D01*
X279150Y120250D02*X285550D01*
X285900Y120600D01*
G54D16*X398000Y205622D03*
X405874D03*
X398000Y197748D03*
Y189874D03*
Y182000D03*
Y174126D03*
X405874Y197748D03*
Y189874D03*
Y182000D03*
Y174126D03*
Y166252D03*
G54D17*X400315Y262283D03*
G54D18*X408189Y280000D03*
G54D19*X396378D03*
G54D11*G36*
X395229Y216268D02*Y210725D01*
X400772D01*
Y216268D01*
X395229D01*
G37*
G54D16*X405874Y213496D03*
G54D20*X387500Y327500D03*
G54D17*X400315Y297717D03*
G54D21*X372756Y280000D03*
G54D22*X370000Y215000D03*
Y225000D03*
G54D16*X398000Y166252D03*
G54D22*X370000Y155000D03*
X360000D03*
X370000Y165000D03*
X360000D03*
X370000Y175000D03*
X360000D03*
X370000Y185000D03*
X360000D03*
X370000Y195000D03*
X360000D03*
X370000Y205000D03*
X360000D03*
Y215000D03*
G54D23*X362000Y98000D03*
X352000Y93000D03*
X362000Y88000D03*
X352000Y83000D03*
X362000Y78000D03*
X352000Y73000D03*
G54D24*X375000Y106000D03*
G54D25*X387000Y98000D03*
G54D22*X360000Y225000D03*
G54D20*X32500Y327500D03*
G54D22*X180000Y10000D03*
X170000D03*
G54D20*X387500Y12500D03*
X32500D03*
G54D23*X362000Y68000D03*
X352000Y63000D03*
G54D26*X333000Y64000D03*
Y87000D03*
Y97000D03*
G54D23*X362000Y58000D03*
G54D24*X375000Y45000D03*
G54D25*X387000Y53000D03*
G54D23*X352000D03*
G54D26*X333000Y54000D03*
G54D27*X335545Y311400D02*X341055D01*
X335545Y299590D02*X341055D01*
X335745Y278000D02*X341255D01*
X335745Y289810D02*X341255D01*
G54D28*X356607Y307161D02*X357393D01*
X356607Y289838D02*X357393D01*
G54D27*X338505Y269555D02*Y264045D01*
G54D29*X347959Y332692D02*Y331708D01*
X342841Y332692D02*Y331708D01*
G54D30*X356174Y332593D02*Y331807D01*
X353026Y332593D02*Y331807D01*
G54D31*X287173Y213830D02*X291897D01*
X287173Y215799D02*X291897D01*
X287173Y217768D02*X291897D01*
X287173Y219737D02*X291897D01*
X287173Y221706D02*X291897D01*
X287173Y223675D02*X291897D01*
X287173Y225644D02*X291897D01*
X287173Y227613D02*X291897D01*
X287173Y229582D02*X291897D01*
X287173Y231551D02*X291897D01*
X287173Y233520D02*X291897D01*
X287173Y235489D02*X291897D01*
X287173Y237458D02*X291897D01*
X282457Y246898D02*Y242174D01*
X280488Y246898D02*Y242174D01*
X278519Y246898D02*Y242174D01*
G54D30*X314567Y241093D02*Y240307D01*
X314467Y234893D02*Y234107D01*
X317715Y241093D02*Y240307D01*
X317615Y234893D02*Y234107D01*
G54D29*X322582Y240992D02*Y240008D01*
X327700Y240992D02*Y240008D01*
X322482Y235492D02*Y234508D01*
X327600Y235492D02*Y234508D01*
G54D31*X276550Y246898D02*Y242174D01*
X274581Y246898D02*Y242174D01*
X272612Y246898D02*Y242174D01*
X270643Y246898D02*Y242174D01*
X268674Y246898D02*Y242174D01*
X266705Y246898D02*Y242174D01*
X264736Y246898D02*Y242174D01*
X262767Y246898D02*Y242174D01*
X260798Y246898D02*Y242174D01*
X258829Y246898D02*Y242174D01*
X256860Y246898D02*Y242174D01*
X254891Y246898D02*Y242174D01*
X252922Y246898D02*Y242174D01*
X250953Y246898D02*Y242174D01*
X248984Y246898D02*Y242174D01*
X247015Y246898D02*Y242174D01*
X245046Y246898D02*Y242174D01*
X243077Y246898D02*Y242174D01*
X241108Y246898D02*Y242174D01*
X239139Y246898D02*Y242174D01*
G54D32*X313565Y320300D02*X317107D01*
X293093D02*X296635D01*
X255393Y320200D02*X258935D01*
X275865D02*X279407D01*
G54D31*X279009Y285605D02*Y283833D01*
X280978Y285605D02*Y283833D01*
X282947Y285605D02*Y283833D01*
X284916Y285605D02*Y283833D01*
X286885Y285605D02*Y283833D01*
X288854Y285605D02*Y283833D01*
X290823Y285605D02*Y283833D01*
X292791Y300566D02*Y298794D01*
X290822Y300566D02*Y298794D01*
X288853Y300566D02*Y298794D01*
X286884Y300566D02*Y298794D01*
X284915Y300566D02*Y298794D01*
X282946Y300566D02*Y298794D01*
X280977Y300566D02*Y298794D01*
X279008Y300566D02*Y298794D01*
X275565Y297122D02*X277337D01*
X275565Y295153D02*X277337D01*
X275565Y293184D02*X277337D01*
X275565Y291215D02*X277337D01*
X275565Y289246D02*X277337D01*
X275565Y287277D02*X277337D01*
G54D33*X270100Y285900D03*
G54D34*X261187Y297921D02*Y288079D01*
X247013Y297921D02*Y288079D01*
G54D31*X292792Y285605D02*Y283833D01*
X294463Y289247D02*X296235D01*
X294463Y291216D02*X296235D01*
X294463Y293185D02*X296235D01*
X294463Y295154D02*X296235D01*
X294463Y297123D02*X296235D01*
G54D35*X283931Y292200D02*X287869D01*
G54D11*G36*
X280950Y294350D02*Y290050D01*
X285250D01*
Y294350D01*
X280950D01*
G37*
G36*
X286550D02*Y290050D01*
X290850D01*
Y294350D01*
X286550D01*
G37*
G54D34*X325687Y297821D02*Y287979D01*
X311513Y297821D02*Y287979D01*
G54D27*X326695Y269555D02*Y264045D01*
G54D30*X287007Y272026D02*X287793D01*
X287007Y275174D02*X287793D01*
G54D29*X279808Y270341D02*X280792D01*
X279808Y275459D02*X280792D01*
G54D33*X275900Y277200D03*
G54D30*X256626Y273193D02*Y272407D01*
X259774Y273193D02*Y272407D01*
X264507Y273026D02*X265293D01*
X264507Y276174D02*X265293D01*
X307274Y269393D02*Y268607D01*
X304126Y269393D02*Y268607D01*
G54D33*X302400Y286500D03*
G54D30*X303907Y276274D02*X304693D01*
X303907Y273126D02*X304693D01*
G54D31*X294463Y287278D02*X296235D01*
G54D33*X295500Y276800D03*
G54D30*X301526Y258593D02*Y257807D01*
X304674Y258593D02*Y257807D01*
X301352Y262793D02*Y262007D01*
X304500Y262793D02*Y262007D01*
X292474Y258593D02*Y257807D01*
X289326Y258593D02*Y257807D01*
X292448Y262793D02*Y262007D01*
X289300Y262793D02*Y262007D01*
X182181Y46648D02*X182967D01*
X182181Y43500D02*X182967D01*
X174722Y43793D02*Y43007D01*
X171574Y43793D02*Y43007D01*
X176474Y39793D02*Y39007D01*
X173326Y39793D02*Y39007D01*
X184274Y39893D02*Y39107D01*
X181126Y39893D02*Y39107D01*
X187048Y32093D02*Y31307D01*
X183900Y32093D02*Y31307D01*
G54D29*X197141Y28192D02*Y27208D01*
X192023Y28192D02*Y27208D01*
G54D30*X146207Y21452D02*X146993D01*
X146207Y24600D02*X146993D01*
G54D29*X197318Y35092D02*Y34108D01*
X192200Y35092D02*Y34108D01*
G54D30*X172974Y68693D02*Y67907D01*
X173907Y57600D02*X174693D01*
X173907Y54452D02*X174693D01*
X169826Y68693D02*Y67907D01*
X178807Y67448D02*X179593D01*
X178807Y64300D02*X179593D01*
G54D29*X178708Y60059D02*X179692D01*
X178708Y54941D02*X179692D01*
G54D33*X171800Y50800D03*
Y47800D03*
G54D30*X176426Y74993D02*Y74207D01*
X179574Y74993D02*Y74207D01*
G54D36*X227000Y42650D02*Y40550D01*
X222000Y42650D02*Y40550D01*
Y26250D02*Y24150D01*
X227000Y26250D02*Y24150D01*
X217000Y42650D02*Y40550D01*
Y26250D02*Y24150D01*
G54D37*X209100Y38400D02*X210500D01*
X209100Y28400D02*X210500D01*
X233500D02*X234900D01*
G54D38*X213004Y12500D02*X230996D01*
G54D37*X233500Y38400D02*X234900D01*
G54D34*X299158Y35800D02*X314906D01*
X265693D02*X281441D01*
G54D29*X354959Y33192D02*Y32208D01*
X349841Y33192D02*Y32208D01*
X239382Y18792D02*Y17808D01*
G54D30*X239907Y25052D02*X240693D01*
X239907Y28200D02*X240693D01*
G54D29*X244500Y18792D02*Y17808D01*
G54D30*X244207Y25052D02*X244993D01*
X244207Y28200D02*X244993D01*
G54D39*X410000Y10000D03*
G54D30*X302807Y72826D02*X303593D01*
X281407Y72026D02*X282193D01*
X281407Y75174D02*X282193D01*
X294907Y66326D02*X295693D01*
X294907Y69474D02*X295693D01*
X282226Y53793D02*Y53007D01*
X285374Y53793D02*Y53007D01*
X292700Y53893D02*Y53107D01*
X289552Y53893D02*Y53107D01*
X302807Y75974D02*X303593D01*
X302807Y78926D02*X303593D01*
X302807Y82074D02*X303593D01*
G54D33*X278800Y75200D03*
G54D31*X275685Y83297D02*Y81919D01*
X277654Y83297D02*Y81919D01*
X279623Y83297D02*Y81919D01*
X281592Y83297D02*Y81919D01*
X283561Y83297D02*Y81919D01*
X285530Y83297D02*Y81919D01*
X287003Y84771D02*X288381D01*
X287003Y86740D02*X288381D01*
X287003Y88709D02*X288381D01*
X287003Y90678D02*X288381D01*
X287003Y92647D02*X288381D01*
X287003Y94616D02*X288381D01*
X287003Y96585D02*X288381D01*
X287003Y98554D02*X288381D01*
X287003Y100523D02*X288381D01*
X287003Y102492D02*X288381D01*
X287003Y104461D02*X288381D01*
G54D11*G36*
X275950Y103350D02*Y96850D01*
X282450D01*
Y103350D01*
X275950D01*
G37*
G36*
Y94350D02*Y87850D01*
X282450D01*
Y94350D01*
X275950D01*
G37*
G54D30*X241574Y90593D02*Y89807D01*
X241600Y86893D02*Y86107D01*
X244722Y90593D02*Y89807D01*
X244748Y86893D02*Y86107D01*
G54D27*X256757Y48193D02*Y47407D01*
X263843Y48193D02*Y47407D01*
G54D38*X213004Y54900D02*X230996D01*
G54D29*X269941Y53592D02*Y52608D01*
X275059Y53592D02*Y52608D01*
G54D30*X277126Y58793D02*Y58007D01*
X280274Y58793D02*Y58007D01*
X261500Y58493D02*Y57707D01*
X264648Y58493D02*Y57707D01*
G54D31*X261019Y104460D02*X262397D01*
X261019Y102491D02*X262397D01*
X261019Y100522D02*X262397D01*
X261019Y98553D02*X262397D01*
X261019Y96584D02*X262397D01*
X261019Y94615D02*X262397D01*
X261019Y92646D02*X262397D01*
X261019Y90677D02*X262397D01*
X261019Y88708D02*X262397D01*
X261019Y86739D02*X262397D01*
X261019Y84770D02*X262397D01*
X263871Y83297D02*Y81919D01*
X265840Y83297D02*Y81919D01*
X267809Y83297D02*Y81919D01*
X269778Y83297D02*Y81919D01*
X271747Y83297D02*Y81919D01*
X273716Y83297D02*Y81919D01*
G54D11*G36*
X264858Y105442D02*Y85758D01*
X284542D01*
Y105442D01*
X264858D01*
G37*
G36*
X266950Y103350D02*Y96850D01*
X273450D01*
Y103350D01*
X266950D01*
G37*
G36*
Y94350D02*Y87850D01*
X273450D01*
Y94350D01*
X266950D01*
G37*
G54D30*X241800Y105593D02*Y104807D01*
X244948Y105593D02*Y104807D01*
X241600Y101393D02*Y100607D01*
X244748Y101393D02*Y100607D01*
Y94193D02*Y93407D01*
X241600Y97793D02*Y97007D01*
X244748Y97793D02*Y97007D01*
X241600Y94193D02*Y93407D01*
X268626Y255093D02*Y254307D01*
X271774Y255093D02*Y254307D01*
X274974Y259793D02*Y259007D01*
X271826Y259793D02*Y259007D01*
G54D31*X237170Y246898D02*Y242174D01*
X235201Y246898D02*Y242174D01*
X233232Y246898D02*Y242174D01*
X223387Y246898D02*Y242174D01*
X221418Y246898D02*Y242174D01*
X219449Y246898D02*Y242174D01*
X217480Y246898D02*Y242174D01*
X215511Y246898D02*Y242174D01*
G54D30*X208826Y252493D02*Y251707D01*
X211974Y252493D02*Y251707D01*
G54D31*X204102Y237457D02*X208826D01*
X204102Y235488D02*X208826D01*
X204102Y233519D02*X208826D01*
X204102Y231550D02*X208826D01*
X231263Y246898D02*Y242174D01*
X229294Y246898D02*Y242174D01*
X227325Y246898D02*Y242174D01*
X225356Y246898D02*Y242174D01*
X213542Y246898D02*Y242174D01*
G54D30*X167374Y307093D02*Y306307D01*
X164226Y307093D02*Y306307D01*
G54D40*X155705Y296985D02*X157869D01*
X155705Y298954D02*X157869D01*
X155705Y300923D02*X157869D01*
X155705Y302892D02*X157869D01*
X155705Y304861D02*X157869D01*
X156105Y306830D02*X157869D01*
X154329Y310369D02*Y308605D01*
X134640Y283795D02*Y281631D01*
X136609Y283795D02*Y281631D01*
X138578Y283795D02*Y281631D01*
X140547Y283795D02*Y281631D01*
X142516Y283795D02*Y281631D01*
X144485Y283795D02*Y281631D01*
X146454Y283795D02*Y281631D01*
X148423Y283795D02*Y281631D01*
X150392Y283795D02*Y281631D01*
X152361Y283795D02*Y281631D01*
X154330Y283395D02*Y281631D01*
G54D30*X167574Y285893D02*Y285107D01*
X164426Y285893D02*Y285107D01*
G54D40*X156105Y285171D02*X157869D01*
X155705Y287140D02*X157869D01*
X155705Y289109D02*X157869D01*
X155705Y291078D02*X157869D01*
X155705Y293047D02*X157869D01*
X155705Y295016D02*X157869D01*
X152360Y310369D02*Y308205D01*
X150391Y310369D02*Y308205D01*
X148422Y310369D02*Y308205D01*
X146453Y310369D02*Y308205D01*
X144484Y310369D02*Y308205D01*
G54D27*X209695Y331155D02*Y325645D01*
X221505Y331155D02*Y325645D01*
X218845Y305695D02*X224355D01*
X218845Y317505D02*X224355D01*
X231545Y311605D02*X237055D01*
X231545Y299795D02*X237055D01*
G54D40*X142515Y310369D02*Y308205D01*
X140546Y310369D02*Y308205D01*
X138577Y310369D02*Y308205D01*
X136608Y310369D02*Y308205D01*
X134639Y310369D02*Y308205D01*
G54D11*G36*
X132870Y306630D02*Y285370D01*
X154130D01*
Y306630D01*
X132870D01*
G37*
G36*
X135500Y304000D02*Y299400D01*
X140100D01*
Y304000D01*
X135500D01*
G37*
G36*
Y298300D02*Y293700D01*
X140100D01*
Y298300D01*
X135500D01*
G37*
G36*
X141200D02*Y293700D01*
X145800D01*
Y298300D01*
X141200D01*
G37*
G36*
Y304000D02*Y299400D01*
X145800D01*
Y304000D01*
X141200D01*
G37*
G36*
X146900D02*Y299400D01*
X151500D01*
Y304000D01*
X146900D01*
G37*
G36*
Y298300D02*Y293700D01*
X151500D01*
Y298300D01*
X146900D01*
G37*
G36*
X135500Y292600D02*Y288000D01*
X140100D01*
Y292600D01*
X135500D01*
G37*
G36*
X141200D02*Y288000D01*
X145800D01*
Y292600D01*
X141200D01*
G37*
G36*
X146900D02*Y288000D01*
X151500D01*
Y292600D01*
X146900D01*
G37*
G54D30*X150674Y267393D02*Y266607D01*
X147526Y267393D02*Y266607D01*
X143107Y270274D02*X143893D01*
X143107Y267126D02*X143893D01*
X131807Y271726D02*X132593D01*
X131807Y274874D02*X132593D01*
X186907Y273826D02*X187693D01*
X186907Y276974D02*X187693D01*
X186381Y281552D02*X187167D01*
X186381Y284700D02*X187167D01*
X193326Y275593D02*Y274807D01*
X196474Y275593D02*Y274807D01*
X193326Y281593D02*Y280807D01*
X196474Y281593D02*Y280807D01*
X167674Y243993D02*Y243207D01*
X164526Y243993D02*Y243207D01*
G54D40*X155705Y239892D02*X157869D01*
X155705Y241861D02*X157869D01*
X156105Y243830D02*X157869D01*
X154329Y247369D02*Y245605D01*
X152360Y247369D02*Y245205D01*
X150391Y247369D02*Y245205D01*
X148422Y247369D02*Y245205D01*
X146453Y247369D02*Y245205D01*
X144484Y247369D02*Y245205D01*
X142515Y247369D02*Y245205D01*
X140546Y247369D02*Y245205D01*
X138577Y247369D02*Y245205D01*
X136608Y247369D02*Y245205D01*
X134639Y247369D02*Y245205D01*
G54D30*X198174Y162693D02*Y161907D01*
Y167793D02*Y167007D01*
Y157493D02*Y156707D01*
X195026Y162693D02*Y161907D01*
Y167793D02*Y167007D01*
Y157493D02*Y156707D01*
G54D31*X204102Y176418D02*X208826D01*
X204102Y170511D02*X208826D01*
X204102Y168542D02*X208826D01*
G54D30*X186607Y215374D02*X187393D01*
X186607Y212226D02*X187393D01*
X192533Y215448D02*X193319D01*
X192533Y212300D02*X193319D01*
X185400Y220593D02*Y219807D01*
G54D31*X204102Y229581D02*X208826D01*
X204102Y227612D02*X208826D01*
X204102Y225643D02*X208826D01*
X204102Y223674D02*X208826D01*
X204102Y221705D02*X208826D01*
X204102Y219736D02*X208826D01*
X204102Y217767D02*X208826D01*
X204102Y215798D02*X208826D01*
X204102Y213829D02*X208826D01*
X204102Y211860D02*X208826D01*
X204102Y209891D02*X208826D01*
X204102Y207922D02*X208826D01*
X204102Y205953D02*X208826D01*
X204102Y203984D02*X208826D01*
G54D30*X167574Y181093D02*Y180307D01*
X164426Y181093D02*Y180307D01*
X167674Y159593D02*Y158807D01*
X164526Y159593D02*Y158807D01*
G54D40*X156105Y159171D02*X157869D01*
X155705Y161140D02*X157869D01*
X155705Y163109D02*X157869D01*
X155705Y165078D02*X157869D01*
X155705Y167047D02*X157869D01*
G54D30*X131607Y194374D02*X132393D01*
X131607Y191226D02*X132393D01*
G54D40*X134640Y157795D02*Y155631D01*
X136609Y157795D02*Y155631D01*
X138578Y157795D02*Y155631D01*
X140547Y157795D02*Y155631D01*
X142516Y157795D02*Y155631D01*
X144485Y157795D02*Y155631D01*
X146454Y157795D02*Y155631D01*
X148423Y157795D02*Y155631D01*
X150392Y157795D02*Y155631D01*
X152361Y157795D02*Y155631D01*
X154330Y157395D02*Y155631D01*
X155705Y169016D02*X157869D01*
X155705Y170985D02*X157869D01*
X155705Y172954D02*X157869D01*
X155705Y174923D02*X157869D01*
X155705Y176892D02*X157869D01*
X155705Y178861D02*X157869D01*
X156105Y180830D02*X157869D01*
X154329Y184369D02*Y182605D01*
X152360Y184369D02*Y182205D01*
X150391Y184369D02*Y182205D01*
X148422Y184369D02*Y182205D01*
X146453Y184369D02*Y182205D01*
X144484Y184369D02*Y182205D01*
X142515Y184369D02*Y182205D01*
X140546Y184369D02*Y182205D01*
X138577Y184369D02*Y182205D01*
X136608Y184369D02*Y182205D01*
X134639Y184369D02*Y182205D01*
G54D11*G36*
X132870Y180630D02*Y159370D01*
X154130D01*
Y180630D01*
X132870D01*
G37*
G36*
X135500Y178000D02*Y173400D01*
X140100D01*
Y178000D01*
X135500D01*
G37*
G36*
Y172300D02*Y167700D01*
X140100D01*
Y172300D01*
X135500D01*
G37*
G36*
X141200D02*Y167700D01*
X145800D01*
Y172300D01*
X141200D01*
G37*
G36*
Y178000D02*Y173400D01*
X145800D01*
Y178000D01*
X141200D01*
G37*
G36*
X146900D02*Y173400D01*
X151500D01*
Y178000D01*
X146900D01*
G37*
G36*
Y172300D02*Y167700D01*
X151500D01*
Y172300D01*
X146900D01*
G37*
G36*
X135500Y166600D02*Y162000D01*
X140100D01*
Y166600D01*
X135500D01*
G37*
G36*
X141200D02*Y162000D01*
X145800D01*
Y166600D01*
X141200D01*
G37*
G36*
X146900D02*Y162000D01*
X151500D01*
Y166600D01*
X146900D01*
G37*
G54D30*X171607Y219148D02*X172393D01*
X167474Y222893D02*Y222107D01*
X171607Y216000D02*X172393D01*
X177807Y217648D02*X178593D01*
X177807Y214500D02*X178593D01*
X164326Y222893D02*Y222107D01*
G54D40*X156105Y222171D02*X157869D01*
X155705Y224140D02*X157869D01*
X155705Y226109D02*X157869D01*
X155705Y228078D02*X157869D01*
G54D30*X182252Y220593D02*Y219807D01*
X180574Y225693D02*Y224907D01*
X177426Y225693D02*Y224907D01*
G54D40*X155705Y230047D02*X157869D01*
X155705Y232016D02*X157869D01*
X155705Y233985D02*X157869D01*
X155705Y235954D02*X157869D01*
X155705Y237923D02*X157869D01*
X146454Y220795D02*Y218631D01*
X148423Y220795D02*Y218631D01*
X150392Y220795D02*Y218631D01*
X152361Y220795D02*Y218631D01*
X154330Y220395D02*Y218631D01*
G54D11*G36*
X146900Y235300D02*Y230700D01*
X151500D01*
Y235300D01*
X146900D01*
G37*
G36*
Y229600D02*Y225000D01*
X151500D01*
Y229600D01*
X146900D01*
G37*
G54D40*X134640Y220795D02*Y218631D01*
X136609Y220795D02*Y218631D01*
X138578Y220795D02*Y218631D01*
X140547Y220795D02*Y218631D01*
X142516Y220795D02*Y218631D01*
X144485Y220795D02*Y218631D01*
G54D11*G36*
X132870Y243630D02*Y222370D01*
X154130D01*
Y243630D01*
X132870D01*
G37*
G36*
X135500Y241000D02*Y236400D01*
X140100D01*
Y241000D01*
X135500D01*
G37*
G36*
X141200D02*Y236400D01*
X145800D01*
Y241000D01*
X141200D01*
G37*
G36*
X146900D02*Y236400D01*
X151500D01*
Y241000D01*
X146900D01*
G37*
G36*
X141200Y235300D02*Y230700D01*
X145800D01*
Y235300D01*
X141200D01*
G37*
G36*
Y229600D02*Y225000D01*
X145800D01*
Y229600D01*
X141200D01*
G37*
G36*
X135500Y235300D02*Y230700D01*
X140100D01*
Y235300D01*
X135500D01*
G37*
G36*
Y229600D02*Y225000D01*
X140100D01*
Y229600D01*
X135500D01*
G37*
G54D31*X204102Y202015D02*X208826D01*
X204102Y200046D02*X208826D01*
X204102Y198077D02*X208826D01*
X204102Y196108D02*X208826D01*
X204102Y194139D02*X208826D01*
X204102Y192170D02*X208826D01*
X204102Y190201D02*X208826D01*
X204102Y188232D02*X208826D01*
X204102Y186263D02*X208826D01*
X204102Y184294D02*X208826D01*
X204102Y182325D02*X208826D01*
X204102Y180356D02*X208826D01*
X204102Y174449D02*X208826D01*
X204102Y172480D02*X208826D01*
X204102Y178387D02*X208826D01*
X213543Y163827D02*Y159103D01*
X215512Y163827D02*Y159103D01*
X217481Y163827D02*Y159103D01*
X219450Y163827D02*Y159103D01*
X221419Y163827D02*Y159103D01*
X223388Y163827D02*Y159103D01*
X225357Y163827D02*Y159103D01*
X227326Y163827D02*Y159103D01*
X229295Y163827D02*Y159103D01*
X231264Y163827D02*Y159103D01*
X233233Y163827D02*Y159103D01*
X235202Y163827D02*Y159103D01*
X237171Y163827D02*Y159103D01*
G54D41*X325700Y192600D02*Y185400D01*
Y212000D02*Y204800D01*
X335700Y192600D02*Y185400D01*
X340700Y192600D02*Y185400D01*
Y212000D02*Y204800D01*
X335700Y212000D02*Y204800D01*
G54D30*X330800Y227293D02*Y226507D01*
X333948Y227293D02*Y226507D01*
X337252Y232293D02*Y231507D01*
X340400Y232293D02*Y231507D01*
G54D41*X330700Y192600D02*Y185400D01*
Y212000D02*Y204800D01*
G54D30*X329726Y108193D02*Y107407D01*
X332874Y108193D02*Y107407D01*
X337474Y163193D02*Y162407D01*
X334326Y163193D02*Y162407D01*
X338252Y114593D02*Y113807D01*
X341400Y114593D02*Y113807D01*
X298781Y163400D02*X299567D01*
G54D29*X296059Y151392D02*Y150408D01*
G54D30*X299574Y156493D02*Y155707D01*
X296426Y156493D02*Y155707D01*
G54D29*X290941Y151392D02*Y150408D01*
G54D30*X272200Y149293D02*Y148507D01*
X275348Y149293D02*Y148507D01*
X278026Y153093D02*Y152307D01*
X281174Y153093D02*Y152307D01*
G54D31*X270644Y163827D02*Y159103D01*
X272613Y163827D02*Y159103D01*
X274582Y163827D02*Y159103D01*
X276551Y163827D02*Y159103D01*
X278520Y163827D02*Y159103D01*
X280489Y163827D02*Y159103D01*
X282458Y163827D02*Y159103D01*
G54D30*X309007Y112600D02*X309793D01*
X309007Y115748D02*X309793D01*
X321507Y119600D02*X322293D01*
X321507Y116452D02*X322293D01*
X309107Y106452D02*X309893D01*
X309107Y109600D02*X309893D01*
X321681Y113448D02*X322467D01*
X321681Y110300D02*X322467D01*
G54D31*X287003Y106430D02*X288381D01*
X285529Y109281D02*Y107903D01*
X283560Y109281D02*Y107903D01*
X281591Y109281D02*Y107903D01*
X279622Y109281D02*Y107903D01*
X277653Y109281D02*Y107903D01*
X275684Y109281D02*Y107903D01*
X273715Y109281D02*Y107903D01*
X271746Y109281D02*Y107903D01*
X269777Y109281D02*Y107903D01*
X261019Y106429D02*X262397D01*
X267808Y109281D02*Y107903D01*
X265839Y109281D02*Y107903D01*
X263870Y109281D02*Y107903D01*
G54D30*X259507Y149526D02*X260293D01*
G54D33*X260800Y155700D03*
G54D30*X259507Y152674D02*X260293D01*
X266626Y152893D02*Y152107D01*
X269774Y152893D02*Y152107D01*
G54D33*X268700Y155600D03*
X272000D03*
X244800Y153700D03*
G54D31*X239140Y163827D02*Y159103D01*
X241109Y163827D02*Y159103D01*
X243078Y163827D02*Y159103D01*
X245047Y163827D02*Y159103D01*
X247016Y163827D02*Y159103D01*
X248985Y163827D02*Y159103D01*
X250954Y163827D02*Y159103D01*
X252923Y163827D02*Y159103D01*
X254892Y163827D02*Y159103D01*
X256861Y163827D02*Y159103D01*
X258830Y163827D02*Y159103D01*
X260799Y163827D02*Y159103D01*
X262768Y163827D02*Y159103D01*
X264737Y163827D02*Y159103D01*
X266706Y163827D02*Y159103D01*
X268675Y163827D02*Y159103D01*
G54D30*X298781Y166548D02*X299567D01*
G54D31*X287173Y168543D02*X291897D01*
X287173Y170512D02*X291897D01*
X287173Y172481D02*X291897D01*
X287173Y174450D02*X291897D01*
X287173Y176419D02*X291897D01*
X287173Y178388D02*X291897D01*
X287173Y180357D02*X291897D01*
X287173Y182326D02*X291897D01*
X287173Y184295D02*X291897D01*
X287173Y186264D02*X291897D01*
X287173Y188233D02*X291897D01*
X287173Y190202D02*X291897D01*
X287173Y192171D02*X291897D01*
X287173Y194140D02*X291897D01*
X287173Y196109D02*X291897D01*
X287173Y198078D02*X291897D01*
X287173Y200047D02*X291897D01*
X287173Y202016D02*X291897D01*
X287173Y203985D02*X291897D01*
X287173Y205954D02*X291897D01*
X287173Y207923D02*X291897D01*
X287173Y209892D02*X291897D01*
X287173Y211861D02*X291897D01*
G54D42*X1900Y170000D02*X18000D01*
G54D43*X7000Y186750D02*X13000D01*
X7000Y216250D02*X13000D01*
G54D30*X25607Y239926D02*X26393D01*
G54D42*X1900Y233000D02*X18000D01*
G54D43*X7000Y249750D02*X13000D01*
G54D30*X25607Y243074D02*X26393D01*
X25607Y232926D02*X26393D01*
X25607Y236074D02*X26393D01*
G54D29*X31508Y218941D02*X32492D01*
X31508Y224059D02*X32492D01*
G54D30*X25107Y176926D02*X25893D01*
X25107Y180074D02*X25893D01*
G54D42*X1900Y107000D02*X18000D01*
G54D43*X7000Y90250D02*X13000D01*
X7000Y123750D02*X13000D01*
X7000Y153250D02*X13000D01*
G54D30*X25107Y169926D02*X25893D01*
X25107Y173074D02*X25893D01*
G54D42*X1900Y296000D02*X18000D01*
G54D43*X7000Y279250D02*X13000D01*
G54D30*X24607Y302926D02*X25393D01*
X24607Y306074D02*X25393D01*
X24607Y295926D02*X25393D01*
X24607Y299074D02*X25393D01*
G54D29*X31008Y281941D02*X31992D01*
X31008Y287059D02*X31992D01*
G54D30*X46426Y287393D02*Y286607D01*
X49574Y287393D02*Y286607D01*
X38926Y312393D02*Y311607D01*
X42074Y312393D02*Y311607D01*
G54D43*X7000Y312750D02*X13000D01*
G54D39*X10000Y330000D03*
G54D42*X1900Y44000D02*X18000D01*
G54D43*X7000Y60750D02*X13000D01*
G54D30*X28526Y44193D02*Y43407D01*
X31674Y44193D02*Y43407D01*
G54D43*X7000Y27250D02*X13000D01*
G54D39*X10000Y10000D03*
G54D30*X114407Y157726D02*X115193D01*
X114407Y160874D02*X115193D01*
X118326Y163793D02*Y163007D01*
X120326Y160193D02*Y159407D01*
X131407Y208526D02*X132193D01*
X131407Y211674D02*X132193D01*
G54D40*X129131Y180829D02*X130895D01*
X129131Y178860D02*X131295D01*
X129131Y176891D02*X131295D01*
X129131Y174922D02*X131295D01*
X129131Y172953D02*X131295D01*
X132670Y184369D02*Y182605D01*
X129131Y170984D02*X131295D01*
X129131Y169015D02*X131295D01*
X129131Y167046D02*X131295D01*
X129131Y165077D02*X131295D01*
X129131Y163108D02*X131295D01*
X129131Y161139D02*X131295D01*
X129131Y159170D02*X130895D01*
G54D30*X103807Y150026D02*X104593D01*
X103807Y153174D02*X104593D01*
X94326Y144293D02*Y143507D01*
X97474Y144293D02*Y143507D01*
X100807Y142926D02*X101593D01*
X100807Y146074D02*X101593D01*
X91174Y155693D02*Y154907D01*
X90507Y146226D02*X91293D01*
X90507Y149374D02*X91293D01*
X95126Y148793D02*Y148007D01*
X98274Y148793D02*Y148007D01*
G54D38*X94004Y138500D02*X111996D01*
G54D40*X106933Y164093D02*X109491D01*
X106933Y166062D02*X109491D01*
X106933Y168031D02*X109491D01*
X106933Y170000D02*X109491D01*
X106933Y171969D02*X109491D01*
X106933Y173938D02*X109491D01*
X106933Y175907D02*X109491D01*
G54D11*G36*
X92602Y176398D02*Y163602D01*
X105397D01*
Y176398D01*
X92602D01*
G37*
G36*
X95050Y173950D02*Y170550D01*
X98450D01*
Y173950D01*
X95050D01*
G37*
G36*
Y169450D02*Y166050D01*
X98450D01*
Y169450D01*
X95050D01*
G37*
G36*
X99550Y173950D02*Y170550D01*
X102950D01*
Y173950D01*
X99550D01*
G37*
G36*
Y169450D02*Y166050D01*
X102950D01*
Y169450D01*
X99550D01*
G37*
G54D38*X94004Y201500D02*X111996D01*
G54D30*X88026Y155693D02*Y154907D01*
G54D40*X93093Y162067D02*Y159509D01*
X95062Y162067D02*Y159509D01*
X97031Y162067D02*Y159509D01*
X99000Y162067D02*Y159509D01*
X100969Y162067D02*Y159509D01*
X102938Y162067D02*Y159509D01*
X104907Y162067D02*Y159509D01*
G54D30*X111307Y150226D02*X112093D01*
X111307Y153374D02*X112093D01*
X111674Y147393D02*Y146607D01*
X108526Y147393D02*Y146607D01*
X131807Y145826D02*X132593D01*
X131807Y148974D02*X132593D01*
X124607Y149926D02*X125393D01*
X124607Y153074D02*X125393D01*
G54D33*X111400Y160100D03*
G54D40*X132671Y157395D02*Y155631D01*
G54D30*X59674Y164493D02*Y163707D01*
X56526Y164493D02*Y163707D01*
G54D38*X49504Y138500D02*X67496D01*
G54D30*X49574Y160393D02*Y159607D01*
X46426Y160393D02*Y159607D01*
X98274Y152593D02*Y151807D01*
X95126Y152593D02*Y151807D01*
G54D40*X88508Y175907D02*X91066D01*
X88508Y173938D02*X91066D01*
X88508Y171969D02*X91066D01*
X88508Y170000D02*X91066D01*
X88508Y168031D02*X91066D01*
X88508Y166062D02*X91066D01*
X88508Y164093D02*X91066D01*
X104907Y180492D02*Y177934D01*
X102938Y180492D02*Y177934D01*
X100969Y180492D02*Y177934D01*
X99000Y180492D02*Y177934D01*
X97031Y180492D02*Y177934D01*
X95062Y180492D02*Y177934D01*
X93093Y180492D02*Y177934D01*
G54D30*X80226Y170693D02*Y169907D01*
X72826Y173093D02*Y172307D01*
X75974Y173093D02*Y172307D01*
X69574Y175593D02*Y174807D01*
X66426Y175593D02*Y174807D01*
X61426Y190493D02*Y189707D01*
X64574Y190493D02*Y189707D01*
X64374Y186893D02*Y186107D01*
X61226Y186893D02*Y186107D01*
G54D38*X49504Y201500D02*X67496D01*
G54D30*X60507Y179726D02*X61293D01*
G54D44*X59300Y169900D02*X61200D01*
X59300Y172500D02*X61200D01*
X59300Y175100D02*X61200D01*
G54D30*X60507Y182874D02*X61293D01*
G54D44*X51800Y175100D02*X53700D01*
X51800Y172500D02*X53700D01*
X51800Y169900D02*X53700D01*
G54D30*X38107Y166626D02*X38893D01*
X38107Y169774D02*X38893D01*
X42326Y170293D02*Y169507D01*
X45474Y170293D02*Y169507D01*
X31726Y170293D02*Y169507D01*
X34874Y170293D02*Y169507D01*
G54D29*X31508Y154941D02*X32492D01*
X31508Y160059D02*X32492D01*
G54D30*X38926Y186393D02*Y185607D01*
X42074Y186393D02*Y185607D01*
X52026Y107293D02*Y106507D01*
X47107Y103752D02*X47893D01*
X47107Y106900D02*X47893D01*
X33626Y107393D02*Y106607D01*
X36774Y107393D02*Y106607D01*
X55174Y107293D02*Y106507D01*
X59407Y103626D02*X60193D01*
X69007D02*X69793D01*
X69007Y106774D02*X69793D01*
X59407D02*X60193D01*
X81533Y103800D02*X82319D01*
X81533Y106948D02*X82319D01*
G54D29*X73041Y107592D02*Y106608D01*
X78159Y107592D02*Y106608D01*
G54D40*X88508Y301907D02*X91066D01*
X88508Y299938D02*X91066D01*
X88508Y297969D02*X91066D01*
X88508Y296000D02*X91066D01*
X106933Y290093D02*X109491D01*
X106933Y292062D02*X109491D01*
X106933Y294031D02*X109491D01*
X106933Y296000D02*X109491D01*
X106933Y297969D02*X109491D01*
X106933Y299938D02*X109491D01*
X106933Y301907D02*X109491D01*
X88508Y294031D02*X91066D01*
X88508Y292062D02*X91066D01*
X88508Y290093D02*X91066D01*
X93093Y288067D02*Y285509D01*
X95062Y288067D02*Y285509D01*
X97031Y288067D02*Y285509D01*
X99000Y288067D02*Y285509D01*
X100969Y288067D02*Y285509D01*
X102938Y288067D02*Y285509D01*
X104907Y288067D02*Y285509D01*
G54D38*X94004Y264500D02*X111996D01*
G54D33*X111400Y286700D03*
G54D40*X104907Y306492D02*Y303934D01*
X102938Y306492D02*Y303934D01*
X100969Y306492D02*Y303934D01*
X99000Y306492D02*Y303934D01*
X97031Y306492D02*Y303934D01*
X95062Y306492D02*Y303934D01*
X93093Y306492D02*Y303934D01*
G54D11*G36*
X92602Y302398D02*Y289602D01*
X105397D01*
Y302398D01*
X92602D01*
G37*
G36*
X95050Y299950D02*Y296550D01*
X98450D01*
Y299950D01*
X95050D01*
G37*
G36*
Y295450D02*Y292050D01*
X98450D01*
Y295450D01*
X95050D01*
G37*
G36*
X99550Y299950D02*Y296550D01*
X102950D01*
Y299950D01*
X99550D01*
G37*
G36*
Y295450D02*Y292050D01*
X102950D01*
Y295450D01*
X99550D01*
G37*
G54D44*X51800Y238100D02*X53700D01*
X51800Y235500D02*X53700D01*
X51800Y232900D02*X53700D01*
X59300D02*X61200D01*
X59300Y235500D02*X61200D01*
X59300Y238100D02*X61200D01*
G54D38*X49504Y264500D02*X67496D01*
G54D30*X38926Y249393D02*Y248607D01*
X42074Y249393D02*Y248607D01*
X46426Y224393D02*Y223607D01*
X49574Y224393D02*Y223607D01*
G54D11*G36*
X95050Y236950D02*Y233550D01*
X98450D01*
Y236950D01*
X95050D01*
G37*
G36*
Y232450D02*Y229050D01*
X98450D01*
Y232450D01*
X95050D01*
G37*
G36*
X99550Y236950D02*Y233550D01*
X102950D01*
Y236950D01*
X99550D01*
G37*
G36*
Y232450D02*Y229050D01*
X102950D01*
Y232450D01*
X99550D01*
G37*
G54D33*X111600Y222900D03*
G54D40*X129131Y243829D02*X130895D01*
X132670Y247369D02*Y245605D01*
X129131Y241860D02*X131295D01*
X129131Y239891D02*X131295D01*
X129131Y237922D02*X131295D01*
X129131Y235953D02*X131295D01*
X129131Y233984D02*X131295D01*
X129131Y232015D02*X131295D01*
X129131Y230046D02*X131295D01*
X129131Y228077D02*X131295D01*
X129131Y226108D02*X131295D01*
X129131Y224139D02*X131295D01*
X129131Y222170D02*X130895D01*
X132671Y220395D02*Y218631D01*
G54D30*X80407Y164974D02*X81193D01*
X80407Y161826D02*X81193D01*
X84107Y156226D02*X84893D01*
X84107Y159374D02*X84893D01*
X74007Y155126D02*X74793D01*
X74007Y158274D02*X74793D01*
X69807Y155126D02*X70593D01*
X69807Y158274D02*X70593D01*
X83374Y170693D02*Y169907D01*
X85507Y36226D02*X86293D01*
X76507Y36252D02*X77293D01*
X76507Y39400D02*X77293D01*
X85507Y39374D02*X86293D01*
X85733Y53400D02*X86519D01*
X85733Y56548D02*X86519D01*
X85707Y65526D02*X86493D01*
X85707Y68674D02*X86493D01*
X121474Y163793D02*Y163007D01*
X123474Y160193D02*Y159407D01*
G54D33*X122400Y34200D03*
X123200Y29300D03*
X121100Y37200D03*
X125100Y76400D03*
G54D30*X101007Y36626D02*X101793D01*
X101007Y39774D02*X101793D01*
G54D29*X95859Y39992D02*Y39008D01*
G54D30*X100833Y53000D02*X101619D01*
X100833Y56148D02*X101619D01*
X100707Y65426D02*X101493D01*
X100707Y68574D02*X101493D01*
G54D29*X95759Y69392D02*Y68408D01*
X90641Y69392D02*Y68408D01*
X90741Y39992D02*Y39008D01*
X95859Y56892D02*Y55908D01*
X90741Y56892D02*Y55908D01*
X62108Y56700D02*X63092D01*
G54D30*X59626Y53293D02*Y52507D01*
X62774Y53293D02*Y52507D01*
G54D29*X62108Y61818D02*X63092D01*
G54D30*X59626Y65993D02*Y65207D01*
X62774Y65993D02*Y65207D01*
G54D33*X129100Y74900D03*
X117600Y60900D03*
X118700Y64700D03*
G54D31*X126388Y65267D02*X127766D01*
X126388Y63298D02*X127766D01*
X126388Y61329D02*X127766D01*
X126388Y59360D02*X127766D01*
X126388Y57391D02*X127766D01*
X126388Y55422D02*X127766D01*
X131601Y68512D02*Y67134D01*
X129632Y68512D02*Y67134D01*
X126388Y53453D02*X127766D01*
X126388Y51484D02*X127766D01*
X126388Y49515D02*X127766D01*
X126388Y47546D02*X127766D01*
X126388Y45577D02*X127766D01*
X126388Y43608D02*X127766D01*
X126388Y41639D02*X127766D01*
X126388Y39670D02*X127766D01*
X126388Y37701D02*X127766D01*
X126388Y35732D02*X127766D01*
X129633Y33866D02*Y32488D01*
X131602Y33866D02*Y32488D01*
G54D30*X84107Y187374D02*X84893D01*
X84107Y184226D02*X84893D01*
X80207Y175626D02*X80993D01*
X80207Y178774D02*X80993D01*
X73307Y179874D02*X74093D01*
X73307Y176726D02*X74093D01*
X102674Y189493D02*Y188707D01*
X108526Y185693D02*Y184907D01*
X111674Y185693D02*Y184907D01*
X102326Y185693D02*Y184907D01*
X105474Y185693D02*Y184907D01*
X118326Y167593D02*Y166807D01*
X121474Y167593D02*Y166807D01*
X118426Y174993D02*Y174207D01*
X121574Y174993D02*Y174207D01*
X118226Y178693D02*Y177907D01*
X121374Y178693D02*Y177907D01*
X124807Y191126D02*X125593D01*
X124807Y187978D02*X125593D01*
X121326Y182293D02*Y181507D01*
X124474Y182293D02*Y181507D01*
X119226Y171293D02*Y170507D01*
X122374Y171293D02*Y170507D01*
X124581Y212852D02*X125367D01*
X124581Y216000D02*X125367D01*
X120652Y223267D02*Y222481D01*
X123800Y223267D02*Y222481D01*
X114607Y220926D02*X115393D01*
X114607Y224074D02*X115393D01*
X99526Y189493D02*Y188707D01*
X94526Y207393D02*Y206607D01*
X97674Y207393D02*Y206607D01*
X100707Y205826D02*X101493D01*
X108626Y210093D02*Y209307D01*
X111774Y210093D02*Y209307D01*
X111407Y213126D02*X112193D01*
X103607Y212926D02*X104393D01*
X111407Y216274D02*X112193D01*
X103607Y216074D02*X104393D01*
X98374Y215793D02*Y215007D01*
X95226Y215793D02*Y215007D01*
X90107Y209226D02*X90893D01*
X90107Y212374D02*X90893D01*
X95226Y212093D02*Y211307D01*
X98374Y212093D02*Y211307D01*
X100707Y208974D02*X101493D01*
G54D40*X99000Y225067D02*Y222509D01*
X100969Y225067D02*Y222509D01*
X102938Y225067D02*Y222509D01*
X104907Y225067D02*Y222509D01*
G54D30*X74207Y218126D02*X74993D01*
X74207Y221274D02*X74993D01*
X69707Y218026D02*X70493D01*
X69707Y221174D02*X70493D01*
X87926Y218393D02*Y217607D01*
X91074Y218393D02*Y217607D01*
X84107Y219226D02*X84893D01*
X84107Y222374D02*X84893D01*
X80607Y224926D02*X81393D01*
G54D40*X93093Y225067D02*Y222509D01*
X95062Y225067D02*Y222509D01*
X97031Y225067D02*Y222509D01*
G54D30*X74107Y281352D02*X74893D01*
X74107Y284500D02*X74893D01*
X69807Y281252D02*X70593D01*
X69807Y284400D02*X70593D01*
X59674Y290493D02*Y289707D01*
X56526Y290493D02*Y289707D01*
X88026Y281793D02*Y281007D01*
X91174Y281793D02*Y281007D01*
X80607Y287926D02*X81393D01*
X80607Y291074D02*X81393D01*
X84007Y282426D02*X84793D01*
X84007Y285574D02*X84793D01*
X94126Y269893D02*Y269107D01*
X97274Y269893D02*Y269107D01*
X98174Y278393D02*Y277607D01*
X95026Y278393D02*Y277607D01*
X95226Y274393D02*Y273607D01*
X98374Y274393D02*Y273607D01*
X90107Y272226D02*X90893D01*
X90107Y275374D02*X90893D01*
X101007Y268626D02*X101793D01*
X101007Y271774D02*X101793D01*
X81107Y300726D02*X81893D01*
X79926Y296893D02*Y296107D01*
X83074Y296893D02*Y296107D01*
X81107Y303874D02*X81893D01*
X84033Y312496D02*X84819D01*
X84033Y309348D02*X84819D01*
X73607Y305074D02*X74393D01*
X73607Y301926D02*X74393D01*
X76074Y298393D02*Y297607D01*
X72926Y298393D02*Y297607D01*
X66426Y301393D02*Y300607D01*
X69574Y301393D02*Y300607D01*
X60607Y305426D02*X61393D01*
X60607Y308574D02*X61393D01*
X61426Y316393D02*Y315607D01*
X64574Y316393D02*Y315607D01*
X61426Y312393D02*Y311607D01*
X64574Y312393D02*Y311607D01*
X38107Y292926D02*X38893D01*
G54D44*X51800Y301100D02*X53700D01*
G54D30*X45574Y296393D02*Y295607D01*
G54D44*X51800Y298500D02*X53700D01*
X51800Y295900D02*X53700D01*
X59300D02*X61200D01*
X59300Y298500D02*X61200D01*
X59300Y301100D02*X61200D01*
G54D30*X42426Y296393D02*Y295607D01*
X31426Y296393D02*Y295607D01*
X34574Y296393D02*Y295607D01*
X38107Y296074D02*X38893D01*
G54D38*X49504Y327500D02*X67496D01*
G54D30*X118426Y227393D02*Y226607D01*
X121574Y227393D02*Y226607D01*
Y241393D02*Y240607D01*
X121426Y245093D02*Y244307D01*
X118426Y230893D02*Y230107D01*
X121574Y230893D02*Y230107D01*
X118426Y237893D02*Y237107D01*
X121574Y237893D02*Y237107D01*
X118926Y234393D02*Y233607D01*
X122074Y234393D02*Y233607D01*
X129007Y256174D02*X129793D01*
X129007Y253026D02*X129793D01*
X124533Y253548D02*X125319D01*
X124533Y250400D02*X125319D01*
X124574Y245093D02*Y244307D01*
X102574Y252993D02*Y252207D01*
X99426Y252993D02*Y252207D01*
X108426Y248693D02*Y247907D01*
X111574Y248693D02*Y247907D01*
X102426Y248693D02*Y247907D01*
X105574Y248693D02*Y247907D01*
X118426Y241393D02*Y240607D01*
G54D40*X106933Y238907D02*X109491D01*
G54D30*X79607Y238926D02*X80393D01*
X79607Y242074D02*X80393D01*
X84107Y250574D02*X84893D01*
X84107Y247426D02*X84893D01*
G54D40*X88508Y238907D02*X91066D01*
X104907Y243492D02*Y240934D01*
X102938Y243492D02*Y240934D01*
X100969Y243492D02*Y240934D01*
X99000Y243492D02*Y240934D01*
X97031Y243492D02*Y240934D01*
X95062Y243492D02*Y240934D01*
X93093Y243492D02*Y240934D01*
X88508Y236938D02*X91066D01*
X88508Y234969D02*X91066D01*
X88508Y233000D02*X91066D01*
X88508Y231031D02*X91066D01*
X88508Y229062D02*X91066D01*
X88508Y227093D02*X91066D01*
X106933D02*X109491D01*
X106933Y229062D02*X109491D01*
X106933Y231031D02*X109491D01*
X106933Y233000D02*X109491D01*
X106933Y234969D02*X109491D01*
X106933Y236938D02*X109491D01*
G54D11*G36*
X92602Y239398D02*Y226602D01*
X105397D01*
Y239398D01*
X92602D01*
G37*
G54D30*X124507Y276226D02*X125293D01*
X103807Y275926D02*X104593D01*
X103807Y279074D02*X104593D01*
X111307Y277826D02*X112093D01*
X124507Y279374D02*X125293D01*
X111307Y280974D02*X112093D01*
X108626Y273893D02*Y273107D01*
X111774Y273893D02*Y273107D01*
X124807Y317174D02*X125593D01*
X131607Y320574D02*X132393D01*
X131607Y317426D02*X132393D01*
X124807Y314026D02*X125593D01*
X102374Y315293D02*Y314507D01*
X99226Y315293D02*Y314507D01*
X102426Y311393D02*Y310607D01*
X105574Y311393D02*Y310607D01*
X108926Y311393D02*Y310607D01*
X112074Y311393D02*Y310607D01*
G54D38*X94004Y327500D02*X111996D01*
G54D30*X118900Y297393D02*Y296607D01*
X122048Y297393D02*Y296607D01*
X118426Y293893D02*Y293107D01*
X121574Y293893D02*Y293107D01*
X114507Y283878D02*X115293D01*
X114507Y287026D02*X115293D01*
X118426Y290393D02*Y289607D01*
X121574Y290393D02*Y289607D01*
X120426Y286393D02*Y285607D01*
X118426Y300893D02*Y300107D01*
X121574Y300893D02*Y300107D01*
X118426Y304393D02*Y303607D01*
X121574Y304393D02*Y303607D01*
X123574Y286393D02*Y285607D01*
X121626Y308093D02*Y307307D01*
X124774Y308093D02*Y307307D01*
G54D40*X129131Y306829D02*X130895D01*
X132670Y310369D02*Y308605D01*
X129131Y304860D02*X131295D01*
X129131Y302891D02*X131295D01*
X129131Y300922D02*X131295D01*
X129131Y298953D02*X131295D01*
X129131Y296984D02*X131295D01*
X129131Y295015D02*X131295D01*
X129131Y293046D02*X131295D01*
X129131Y291077D02*X131295D01*
X129131Y289108D02*X131295D01*
X129131Y287139D02*X131295D01*
X129131Y285170D02*X130895D01*
X132671Y283395D02*Y281631D01*
G54D30*X80607Y228074D02*X81393D01*
X80426Y233893D02*Y233107D01*
X83574Y233893D02*Y233107D01*
X72926Y235893D02*Y235107D01*
X76074Y235893D02*Y235107D01*
X73607Y242374D02*X74393D01*
X73607Y239226D02*X74393D01*
X66526Y238293D02*Y237507D01*
X69674Y238293D02*Y237507D01*
X59674Y227393D02*Y226607D01*
X56526Y227393D02*Y226607D01*
X61426Y249693D02*Y248907D01*
X64574Y249693D02*Y248907D01*
X61326Y253493D02*Y252707D01*
X64474Y253493D02*Y252707D01*
X60407Y242626D02*X61193D01*
X60407Y245774D02*X61193D01*
X38307Y229926D02*X39093D01*
X38307Y233074D02*X39093D01*
X32426Y233393D02*Y232607D01*
X35574Y233393D02*Y232607D01*
X42426Y233393D02*Y232607D01*
X45574Y233393D02*Y232607D01*
G54D33*X143600Y19800D03*
X143400Y24000D03*
X139900Y21200D03*
X136200Y24300D03*
G54D30*X155207Y21726D02*X155993D01*
X155207Y24874D02*X155993D01*
G54D33*X163600Y27000D03*
X159800Y26800D03*
G54D30*X132507Y21626D02*X133293D01*
X132507Y24774D02*X133293D01*
X128107Y21826D02*X128893D01*
X128107Y24974D02*X128893D01*
X119407Y25726D02*X120193D01*
X119407Y28874D02*X120193D01*
X167707Y33126D02*X168493D01*
X167707Y36274D02*X168493D01*
G54D31*X161034Y35733D02*X162412D01*
X161034Y37702D02*X162412D01*
X161034Y39671D02*X162412D01*
X161034Y41640D02*X162412D01*
X161034Y43609D02*X162412D01*
X161034Y45578D02*X162412D01*
X133571Y33866D02*Y32488D01*
X135540Y33866D02*Y32488D01*
X137509Y33866D02*Y32488D01*
X139478Y33866D02*Y32488D01*
X141447Y33866D02*Y32488D01*
X143416Y33866D02*Y32488D01*
X145385Y33866D02*Y32488D01*
X147354Y33866D02*Y32488D01*
X149323Y33866D02*Y32488D01*
X151292Y33866D02*Y32488D01*
X153261Y33866D02*Y32488D01*
X155230Y33866D02*Y32488D01*
X157199Y33866D02*Y32488D01*
X159168Y33866D02*Y32488D01*
G54D11*G36*
X133600Y45700D02*Y39700D01*
X139600D01*
Y45700D01*
X133600D01*
G37*
G36*
X141400D02*Y39700D01*
X147400D01*
Y45700D01*
X141400D01*
G37*
G36*
X149200D02*Y39700D01*
X155200D01*
Y45700D01*
X149200D01*
G37*
G54D40*X129131Y117829D02*X130895D01*
X129131Y115860D02*X131295D01*
X129131Y113891D02*X131295D01*
X129131Y111922D02*X131295D01*
X129131Y109953D02*X131295D01*
X129131Y107984D02*X131295D01*
X129131Y106015D02*X131295D01*
X156105Y96171D02*X157869D01*
X155705Y98140D02*X157869D01*
X155705Y100109D02*X157869D01*
X155705Y102078D02*X157869D01*
X155705Y104047D02*X157869D01*
X155705Y106016D02*X157869D01*
X155705Y107985D02*X157869D01*
G54D30*X167548Y96793D02*Y96007D01*
X164400Y96793D02*Y96007D01*
G54D11*G36*
X132870Y117630D02*Y96370D01*
X154130D01*
Y117630D01*
X132870D01*
G37*
G36*
X135500Y115000D02*Y110400D01*
X140100D01*
Y115000D01*
X135500D01*
G37*
G36*
Y109300D02*Y104700D01*
X140100D01*
Y109300D01*
X135500D01*
G37*
G36*
X141200D02*Y104700D01*
X145800D01*
Y109300D01*
X141200D01*
G37*
G36*
Y115000D02*Y110400D01*
X145800D01*
Y115000D01*
X141200D01*
G37*
G36*
X146900D02*Y110400D01*
X151500D01*
Y115000D01*
X146900D01*
G37*
G36*
Y109300D02*Y104700D01*
X151500D01*
Y109300D01*
X146900D01*
G37*
G36*
X135500Y103600D02*Y99000D01*
X140100D01*
Y103600D01*
X135500D01*
G37*
G36*
X141200D02*Y99000D01*
X145800D01*
Y103600D01*
X141200D01*
G37*
G36*
X146900D02*Y99000D01*
X151500D01*
Y103600D01*
X146900D01*
G37*
G54D40*X155705Y109954D02*X157869D01*
X155705Y111923D02*X157869D01*
X155705Y113892D02*X157869D01*
X155705Y115861D02*X157869D01*
X156105Y117830D02*X157869D01*
G54D30*X167248Y117993D02*Y117207D01*
X164100Y117993D02*Y117207D01*
G54D40*X154329Y121369D02*Y119605D01*
X152360Y121369D02*Y119205D01*
X150391Y121369D02*Y119205D01*
X148422Y121369D02*Y119205D01*
X146453Y121369D02*Y119205D01*
X144484Y121369D02*Y119205D01*
X142515Y121369D02*Y119205D01*
X140546Y121369D02*Y119205D01*
X138577Y121369D02*Y119205D01*
X136608Y121369D02*Y119205D01*
X134639Y121369D02*Y119205D01*
X132670Y121369D02*Y119605D01*
X134640Y94795D02*Y92631D01*
X136609Y94795D02*Y92631D01*
X138578Y94795D02*Y92631D01*
X140547Y94795D02*Y92631D01*
X142516Y94795D02*Y92631D01*
X144485Y94795D02*Y92631D01*
X146454Y94795D02*Y92631D01*
X148423Y94795D02*Y92631D01*
X150392Y94795D02*Y92631D01*
X152361Y94795D02*Y92631D01*
X154330Y94395D02*Y92631D01*
G54D30*X150274Y84693D02*Y83907D01*
X147126Y84693D02*Y83907D01*
X151726Y88693D02*Y87907D01*
X154874Y88693D02*Y87907D01*
G54D40*X129131Y104046D02*X131295D01*
G54D30*X131507Y131374D02*X132293D01*
X131507Y128226D02*X132293D01*
G54D40*X129131Y102077D02*X131295D01*
X129131Y100108D02*X131295D01*
X129131Y98139D02*X131295D01*
X129131Y96170D02*X130895D01*
X132671Y94395D02*Y92631D01*
G54D30*X131607Y82800D02*X132393D01*
X131607Y85948D02*X132393D01*
X124407Y86900D02*X125193D01*
X124407Y90048D02*X125193D01*
X105207Y112226D02*X105993D01*
X105007Y100626D02*X105793D01*
X105007Y103774D02*X105793D01*
X105207Y115374D02*X105993D01*
X109926Y115593D02*Y114807D01*
Y111793D02*Y111007D01*
Y104393D02*Y103607D01*
X109800Y100693D02*Y99907D01*
X113074Y115593D02*Y114807D01*
Y111793D02*Y111007D01*
X118826Y108293D02*Y107507D01*
X113074Y104393D02*Y103607D01*
X112948Y100693D02*Y99907D01*
X120326Y97193D02*Y96407D01*
X123474Y97193D02*Y96407D01*
X121974Y108293D02*Y107507D01*
X121426Y118993D02*Y118207D01*
X124574Y118993D02*Y118207D01*
X124707Y128148D02*X125493D01*
X124707Y125000D02*X125493D01*
X118026Y75693D02*Y74907D01*
X121174Y75693D02*Y74907D01*
X117907Y51574D02*X118693D01*
X117907Y48426D02*X118693D01*
X109374Y56393D02*Y55607D01*
Y69193D02*Y68407D01*
X106226Y56393D02*Y55607D01*
Y69193D02*Y68407D01*
X116474Y56393D02*Y55607D01*
X113326Y56393D02*Y55607D01*
X116474Y69193D02*Y68407D01*
X113326Y69193D02*Y68407D01*
X44852Y44493D02*Y43707D01*
X48000Y44493D02*Y43707D01*
X51107Y40952D02*X51893D01*
X51107Y44100D02*X51893D01*
X40907Y40826D02*X41693D01*
X40907Y43974D02*X41693D01*
X76707Y66026D02*X77493D01*
X76707Y69174D02*X77493D01*
X76607Y56548D02*X77393D01*
X76607Y53400D02*X77393D01*
G54D27*X102157Y25993D02*Y25207D01*
X109243Y25993D02*Y25207D01*
G54D30*X109400Y40093D02*Y39307D01*
X106252Y40093D02*Y39307D01*
X116474Y40093D02*Y39307D01*
X113326Y40093D02*Y39307D01*
X156607Y79674D02*X157393D01*
X156607Y76526D02*X157393D01*
G54D33*X161000Y76200D03*
X164800D03*
G54D31*X161034Y47547D02*X162412D01*
X161034Y49516D02*X162412D01*
X161034Y51485D02*X162412D01*
X161034Y53454D02*X162412D01*
X161034Y55423D02*X162412D01*
X161034Y57392D02*X162412D01*
X161034Y59361D02*X162412D01*
X161034Y61330D02*X162412D01*
X161034Y63299D02*X162412D01*
X161034Y65268D02*X162412D01*
X159167Y68512D02*Y67134D01*
X157198Y68512D02*Y67134D01*
X155229Y68512D02*Y67134D01*
X153260Y68512D02*Y67134D01*
X151291Y68512D02*Y67134D01*
X149322Y68512D02*Y67134D01*
X147353Y68512D02*Y67134D01*
X145384Y68512D02*Y67134D01*
X143415Y68512D02*Y67134D01*
X141446Y68512D02*Y67134D01*
X139477Y68512D02*Y67134D01*
X137508Y68512D02*Y67134D01*
X135539Y68512D02*Y67134D01*
X133570Y68512D02*Y67134D01*
G54D11*G36*
X130227Y64673D02*Y36327D01*
X158573D01*
Y64673D01*
X130227D01*
G37*
G36*
X133600Y61300D02*Y55300D01*
X139600D01*
Y61300D01*
X133600D01*
G37*
G36*
Y53500D02*Y47500D01*
X139600D01*
Y53500D01*
X133600D01*
G37*
G36*
X141400D02*Y47500D01*
X147400D01*
Y53500D01*
X141400D01*
G37*
G36*
Y61300D02*Y55300D01*
X147400D01*
Y61300D01*
X141400D01*
G37*
G36*
X149200D02*Y55300D01*
X155200D01*
Y61300D01*
X149200D01*
G37*
G36*
Y53500D02*Y47500D01*
X155200D01*
Y53500D01*
X149200D01*
G37*
G54D45*X81200Y250600D03*
X64400Y256400D03*
X38500Y252000D03*
X42300Y252100D03*
X61300Y256200D03*
X84400Y243700D03*
X64400Y245500D03*
X90800Y247500D03*
X99300D03*
X70400Y242100D03*
X57800Y245800D03*
X74400Y278526D03*
X80800Y285100D03*
X84600Y279800D03*
X56400Y287100D03*
X70000Y278700D03*
X84500Y288000D03*
X76000Y260500D03*
X64000Y268500D03*
X71500Y264500D03*
X64000Y260500D03*
X90500Y264500D03*
X52500Y287000D03*
X46000Y227000D03*
X45500Y264500D03*
X53500Y268500D03*
Y260500D03*
X91200Y268600D03*
X87400Y272200D03*
X88100Y278400D03*
X104200Y268700D03*
Y281800D03*
X99600Y281900D03*
X96500D03*
X99000Y291500D03*
X103500Y296000D03*
X99000D03*
X103500Y291500D03*
X94500Y296000D03*
Y300500D03*
Y291500D03*
X99000Y300500D03*
X103500D03*
X99400Y310600D03*
X92700Y322100D03*
X95100Y319400D03*
X99000Y331500D03*
Y323500D03*
X74400Y152426D03*
X80800Y159000D03*
X84600Y153700D03*
X88100Y152300D03*
X87400Y146100D03*
X84500Y161900D03*
Y164900D03*
X81300Y187600D03*
X84500Y180700D03*
Y177400D03*
Y173800D03*
X70500Y179100D03*
X71500Y138500D03*
X56400Y161000D03*
X52500Y160000D03*
X46000Y163000D03*
X64500Y182500D03*
X64000Y171900D03*
X60500Y193400D03*
X64500D03*
X48000Y172800D03*
X64000Y142500D03*
X53500D03*
X45500Y138500D03*
X53500Y134500D03*
X64000D03*
X10000Y183000D03*
X16500D03*
X3500D03*
X10000Y190500D03*
X16500D03*
X3500D03*
X9600Y149400D03*
X10000Y127500D03*
X16100Y149400D03*
X16500Y127500D03*
X3100Y149400D03*
X3500Y127500D03*
X9600Y156900D03*
X3100D03*
X16100D03*
X58000Y186400D03*
X25500Y183000D03*
X38500Y189000D03*
X42500D03*
X49000Y175900D03*
X35000Y166400D03*
X42000D03*
X38500Y163900D03*
X28500Y160000D03*
Y155100D03*
X90600Y205900D03*
X87300Y209100D03*
X74300Y215426D03*
X84500Y216700D03*
X88000Y215300D03*
X70000Y215500D03*
X70100Y152600D03*
X74102Y133908D03*
X64000Y205500D03*
X53500D03*
Y197500D03*
X64000D03*
X45500Y201500D03*
X71500D03*
X90500D03*
X104300Y205900D03*
X105600Y209900D03*
X104100Y219300D03*
X99500Y218800D03*
X96400D03*
X99000Y237500D03*
X94500D03*
X99000Y228500D03*
X103500Y233000D03*
X99000D03*
X103500Y228500D03*
Y237500D03*
X51500Y38400D03*
X56800Y65400D03*
X56400Y52900D03*
X41200Y38300D03*
X85900Y33700D03*
X80000Y36152D03*
X85800Y42300D03*
X80000Y39400D03*
X47200Y100800D03*
X59700Y100600D03*
X69200Y100800D03*
X81600Y101000D03*
X86100Y50800D03*
Y59300D03*
Y71400D03*
X86200Y63100D03*
X80000Y56600D03*
X80100Y69200D03*
Y65900D03*
X80000Y53400D03*
X80700Y222000D03*
X84400Y224900D03*
Y227900D03*
Y240400D03*
Y236800D03*
X48900Y238900D03*
X47900Y235800D03*
X63900Y234900D03*
X34900Y229400D03*
X41900D03*
X38400Y226900D03*
X28400Y224100D03*
Y219100D03*
X52300Y223900D03*
X56600D03*
X10000Y57000D03*
X16500D03*
X3500D03*
X10000Y64500D03*
X16500D03*
X3500D03*
X9600Y23400D03*
Y30900D03*
X10000Y120000D03*
X9600Y86400D03*
Y93900D03*
X16100Y23400D03*
Y30900D03*
X16500Y120000D03*
X16100Y86400D03*
Y93900D03*
X3100Y23400D03*
Y30900D03*
X3500Y120000D03*
X3100Y86400D03*
Y93900D03*
X94500Y233000D03*
Y228500D03*
X97800Y25700D03*
X101200Y33800D03*
Y50300D03*
Y62900D03*
X105500Y109500D03*
X105300Y98000D03*
X115400Y51500D03*
X121100Y48400D03*
X118000Y82300D03*
X115400Y75400D03*
X71100Y305100D03*
X64600Y309100D03*
X81500Y312500D03*
X90900Y310600D03*
X84500Y306800D03*
Y303500D03*
X49000Y302000D03*
X48500Y298700D03*
X64000Y298000D03*
X46500Y290000D03*
X84500Y299900D03*
Y291000D03*
X10000Y246000D03*
X16500D03*
X3500D03*
X10000Y253500D03*
X16500D03*
X3500D03*
X9600Y212400D03*
X10000Y275500D03*
Y283000D03*
X3100Y212400D03*
X3500Y275500D03*
Y283000D03*
X16100Y219900D03*
X16500Y275500D03*
Y283000D03*
X29200Y243000D03*
X35500Y292500D03*
X41500D03*
X38500Y290300D03*
X10400Y309100D03*
X16900D03*
X3900D03*
X10400Y316600D03*
X16900D03*
X3900D03*
X25000Y309000D03*
X27500Y287500D03*
Y282000D03*
X38500Y315000D03*
X42500D03*
X64000Y331500D03*
X45500Y327500D03*
X53500Y331500D03*
X71500Y327500D03*
X90000D03*
X58900Y312000D03*
X61300Y318900D03*
X64700D03*
X53500Y323500D03*
X64000D03*
X16100Y212400D03*
X9600Y219900D03*
X3100D03*
X167600Y162600D03*
X192600Y167400D03*
X211800Y168600D03*
X223400Y166700D03*
X269800Y148400D03*
X299300Y160000D03*
X140400Y148400D03*
X136900Y148800D03*
X140800Y151900D03*
X135100Y151800D03*
X135500Y145600D03*
X146500Y178500D03*
X140500D03*
X152000D03*
X135000D03*
X217300Y193400D03*
X223600Y187000D03*
X200000Y178000D03*
X193900Y174200D03*
X211800Y178400D03*
X212100Y173800D03*
X144100Y151800D03*
X140500Y161500D03*
X135000D03*
X152000Y167000D03*
X146500D03*
X140500D03*
X135000D03*
X152000Y173000D03*
Y161500D03*
X146500Y173000D03*
Y161500D03*
X116174Y170900D03*
X125600Y172500D03*
X135000Y173000D03*
X140500D03*
X184100Y173500D03*
X192300Y157100D03*
Y162300D03*
X197400Y175700D03*
X283400D03*
X230300Y175800D03*
X213600Y193300D03*
X283800Y190000D03*
X282100Y185100D03*
X222100Y178100D03*
X226800Y187000D03*
X241600Y180100D03*
X230300Y179500D03*
X235100Y179700D03*
X237200Y174800D03*
X328200Y180000D03*
X185500Y46700D03*
X177300Y43600D03*
X175800Y47500D03*
X171100Y33100D03*
X174200Y60000D03*
X170600Y59900D03*
X170800Y56400D03*
X170900Y63100D03*
X168100Y38700D03*
X187300Y7400D03*
X168800Y80600D03*
X175700Y64200D03*
X175500Y68300D03*
X182200Y74700D03*
X185000Y60600D03*
X192100D03*
X157000Y82600D03*
X152900Y21700D03*
X156000Y46500D03*
Y55000D03*
Y38500D03*
Y62500D03*
X143200Y27200D03*
X140500Y38500D03*
X148500D03*
X132500Y62500D03*
X140500D03*
X134100Y73600D03*
X132500Y38500D03*
Y55000D03*
Y46500D03*
X148500Y62500D03*
X140500Y55000D03*
X148500D03*
Y46500D03*
X140500D03*
X146600Y73400D03*
X146700Y18900D03*
X125700Y21800D03*
X113900Y25900D03*
X122600Y25800D03*
X119800Y31800D03*
X136300Y21100D03*
X119800Y43100D03*
X115200Y44100D03*
X121700Y53700D03*
X128300Y13200D03*
X132900Y12700D03*
X175600Y50800D03*
X209100Y55000D03*
X234800Y54900D03*
X185000Y53700D03*
X193600Y53800D03*
X205600Y38300D03*
X236000Y18700D03*
X240400Y22400D03*
X209400Y12500D03*
X235000Y12400D03*
X197800Y9300D03*
X224800Y81400D03*
X223700Y70100D03*
X227700Y75400D03*
X151200Y76900D03*
X151400Y73600D03*
X167500Y99600D03*
X167300Y114600D03*
X146500Y76800D03*
X135000Y115500D03*
X140500D03*
Y110000D03*
X135000D03*
X152000Y115500D03*
X146500D03*
Y110000D03*
X152000D03*
Y98500D03*
X146500D03*
Y104000D03*
X152000D03*
X120800Y121700D03*
X125000Y130900D03*
X135100Y131500D03*
X125500Y109500D03*
X116074Y107900D03*
X109800Y108300D03*
X125500Y104900D03*
X109700Y97100D03*
X135000Y98500D03*
Y104000D03*
X140500D03*
Y98500D03*
X120300Y93800D03*
X124800Y84000D03*
X144000Y88800D03*
X134800D03*
X140800Y88900D03*
X135400Y82600D03*
X137400Y79400D03*
X134000Y76800D03*
X141000Y76000D03*
X135200Y194500D03*
X167400Y177600D03*
X125100Y193900D03*
X120900Y184700D03*
X134474Y208574D03*
X134800Y214800D03*
X140200Y211700D03*
X136500Y212000D03*
X144000Y214800D03*
X140800Y214900D03*
X184100Y215300D03*
X183800Y212100D03*
X196900Y213500D03*
X199400Y210900D03*
X168600Y215900D03*
X177200Y211500D03*
X245000Y233100D03*
X237200Y233900D03*
X249600Y227900D03*
X238600Y225200D03*
X222100Y233900D03*
X218700Y233800D03*
X209000Y255100D03*
X208600Y247000D03*
X206800Y244100D03*
X211700Y234700D03*
X239800Y239800D03*
X228100Y239700D03*
X228500Y233700D03*
X231500Y239700D03*
X211700Y231500D03*
X220300Y251500D03*
X179100Y69900D03*
X281500Y69400D03*
X238700Y85900D03*
Y89900D03*
X238774Y93900D03*
X238900Y97800D03*
Y105800D03*
Y101700D03*
X232874Y83200D03*
X277300Y68200D03*
X275900Y75900D03*
X279600Y53800D03*
X295126D03*
X317900Y51000D03*
X322000Y51700D03*
X294500Y57800D03*
X323900Y69100D03*
X295700Y63200D03*
X279400Y63400D03*
X303400Y69700D03*
X312600Y64500D03*
X287600Y68800D03*
X326400Y71900D03*
X345600Y32600D03*
X354400Y36900D03*
X340000Y60000D03*
X312500Y94300D03*
X312600Y75900D03*
X313100Y106500D03*
X312300Y115800D03*
X303200Y85200D03*
X306700Y81100D03*
X316500Y91700D03*
X316700Y81400D03*
X324900Y119700D03*
X325000Y110300D03*
X316900Y119400D03*
X341500Y107100D03*
X279100Y120300D03*
X285900Y120600D03*
X288500Y117900D03*
X300700Y107900D03*
X276200Y115200D03*
X300200Y118500D03*
X285800Y113100D03*
X279000Y117100D03*
X265800Y113300D03*
X257800Y113000D03*
X240900Y118200D03*
X272600Y130800D03*
X268600Y126800D03*
X267800Y74600D03*
X269800Y68300D03*
X272700Y62800D03*
X265700Y53600D03*
X269800Y49100D03*
X272500Y58500D03*
X255200Y97200D03*
X250800Y88700D03*
Y97800D03*
X256700Y74500D03*
X244700Y73400D03*
X250300Y68400D03*
X254300Y61900D03*
X244500Y61300D03*
X252400Y45700D03*
X259800Y68600D03*
X264000Y68300D03*
X237200Y166700D03*
X248700D03*
X274600Y166600D03*
X266800Y173200D03*
X278900Y185200D03*
X255100Y172200D03*
X258000D03*
X295700Y174700D03*
X297200Y171000D03*
X245000Y180100D03*
X335500Y180500D03*
X340800Y180800D03*
X337600Y177300D03*
X341800Y177200D03*
X269000Y166400D03*
X295700Y165900D03*
X278400Y200000D03*
X227600Y211200D03*
X246300Y187700D03*
X251300D03*
X273100Y202600D03*
X269500D03*
X267100Y191900D03*
X274300Y195900D03*
X284000Y194100D03*
X284600Y205400D03*
Y202200D03*
X211800Y213900D03*
X217600Y202000D03*
X217300Y207900D03*
X213700D03*
X211800Y204300D03*
X218700Y237100D03*
X222100D03*
X213800Y225000D03*
Y218900D03*
X217000Y225000D03*
Y218900D03*
X223500Y199200D03*
X226800D03*
X211800Y190200D03*
X217600Y184300D03*
X211800Y199700D03*
X284500Y237600D03*
X279000Y231000D03*
X282700D03*
X284500Y227600D03*
X274600Y239700D03*
X254100Y238200D03*
X251300Y240000D03*
X257000Y239900D03*
X263400Y237100D03*
X267000D03*
Y233900D03*
X263400D03*
X268600Y228900D03*
X273800Y229100D03*
X271300Y226200D03*
X268300Y223300D03*
X241700Y225100D03*
X237200Y237100D03*
X243000Y239800D03*
X278600Y212400D03*
X278900Y220300D03*
X271300D03*
X282700D03*
X284500Y213900D03*
X284600Y209500D03*
X273900Y223100D03*
X275000Y262900D03*
X263000Y249600D03*
X263100Y253000D03*
X263800Y257600D03*
X261200Y260300D03*
X276800Y270200D03*
X254000Y272900D03*
X243300Y172900D03*
X228800Y172200D03*
Y168900D03*
X245500Y166700D03*
X255100Y169000D03*
X258000D03*
X264800Y166500D03*
X279100Y168200D03*
X283500Y171700D03*
X258000Y146900D03*
X272100Y152500D03*
X284400Y152700D03*
X345100Y135700D03*
X348000Y139600D03*
X350700Y135500D03*
X292100Y110400D03*
X317900Y106300D03*
X322200Y104300D03*
X291900Y80900D03*
X339600Y84700D03*
X295900Y100800D03*
X324100Y99400D03*
X326400Y96500D03*
X339500Y95700D03*
X295800Y90200D03*
X274700Y87600D03*
X282700Y87500D03*
X266700Y87600D03*
X257300Y99700D03*
X255300Y107900D03*
X274700Y95600D03*
Y103600D03*
X282700Y103700D03*
X266700Y103600D03*
Y95600D03*
X282700D03*
X354000Y281500D03*
X360000Y282000D03*
X357000Y278500D03*
X353500Y314500D03*
X357000Y317500D03*
X360500Y314500D03*
X339700Y332000D03*
X359000Y332200D03*
X339400Y321700D03*
X333100Y321900D03*
X335700Y317700D03*
X325800Y322000D03*
X329000Y318100D03*
X325900Y312800D03*
X281000Y295300D03*
X291000D03*
X281000Y289300D03*
X286000Y295300D03*
Y289300D03*
X285900Y302900D03*
X276000Y300100D03*
X283700Y305800D03*
X288100D03*
X302000Y308600D03*
X291000Y289300D03*
X302400Y289600D03*
X267500Y289300D03*
X279500Y280800D03*
X292300Y280600D03*
X290200Y271900D03*
X289100Y280300D03*
X282700Y280500D03*
X280600Y331900D03*
X284100Y332200D03*
X287600Y332100D03*
X291300Y331800D03*
X279500Y328400D03*
X283100D03*
X286700Y328300D03*
X290400D03*
X294200D03*
X240100Y321800D03*
X241700Y317200D03*
X243900Y311800D03*
X248900Y312000D03*
X264400Y308200D03*
X245000Y320800D03*
X320600Y263200D03*
X318600Y265500D03*
X296900Y262500D03*
Y258200D03*
X307126Y262400D03*
X307400Y258200D03*
X320600Y268000D03*
X318700Y270500D03*
X309900Y269100D03*
X232800Y321700D03*
X236300Y318000D03*
X226500Y324400D03*
X200300Y331900D03*
X204300D03*
X226500Y332200D03*
X202000Y328200D03*
X226500D03*
X200000Y324400D03*
X183300Y284900D03*
X184000Y277100D03*
X180000Y273900D03*
X180300Y281000D03*
X204200Y324500D03*
X344300Y270600D03*
X348500Y270700D03*
X346400Y266500D03*
X344000Y263000D03*
X348700Y263200D03*
X357900Y253500D03*
X387700Y249100D03*
X387000Y244400D03*
X382100Y251300D03*
X362800Y255900D03*
X389400Y201800D03*
X387000Y193700D03*
X387400Y185900D03*
X331341Y240500D03*
X330741Y235200D03*
X347300Y223300D03*
X349000Y219500D03*
X325700Y215900D03*
X330700D03*
X340400D03*
X335800D03*
X331600Y162800D03*
X340400Y151900D03*
X343200Y156200D03*
X376600Y147200D03*
X379400Y143800D03*
X354800Y145500D03*
X358000Y145400D03*
X383000Y157900D03*
X386500Y157800D03*
X116074Y233900D03*
X125500Y230900D03*
Y235500D03*
X113100Y226600D03*
X124800Y210000D03*
X120300Y219800D03*
X124900Y218600D03*
X122100Y253500D03*
X120800Y247700D03*
X113000Y242500D03*
X125000Y248000D03*
X105500Y251700D03*
X112000Y255700D03*
X115500Y217800D03*
X111600Y206300D03*
X107600Y206400D03*
X115500Y201500D03*
X167300Y240600D03*
X167500Y225600D03*
X161900Y218300D03*
X161800Y222400D03*
Y243700D03*
X152000Y236000D03*
X146500D03*
Y241500D03*
X152000D03*
X140500Y224500D03*
X135000D03*
X131700Y214900D03*
X140500Y230000D03*
X135000D03*
Y236000D03*
X140500D03*
Y241500D03*
X135000D03*
X152000Y230000D03*
X146500D03*
Y224500D03*
X152000D03*
X138900Y208600D03*
X155300Y210300D03*
X159400Y210400D03*
X163500Y209000D03*
X140600Y251700D03*
X137800Y254000D03*
X134300Y253500D03*
X132000Y250100D03*
X132200Y256000D03*
X146700Y270700D03*
X146000Y262500D03*
X145000Y259000D03*
X153300Y268100D03*
X124900Y147000D03*
X105700Y146900D03*
X90700Y142900D03*
X104400D03*
X111700Y143300D03*
X107700Y143400D03*
X90500Y138500D03*
X115500D03*
X99600Y155800D03*
X96500D03*
X90900Y184500D03*
X105600Y188700D03*
X99400Y184500D03*
X103500Y170000D03*
X99000Y174500D03*
X103500D03*
X99000Y165500D03*
X94500Y170000D03*
X99000D03*
X94500Y165500D03*
Y174500D03*
X113000Y179500D03*
X120600Y194000D03*
X125200Y185400D03*
X131900Y188700D03*
X139100Y188300D03*
X125600Y167900D03*
X113200Y163600D03*
X103500Y165500D03*
X143500Y148700D03*
X154500Y149700D03*
X158700Y147300D03*
X140900Y125300D03*
X124900Y122500D03*
X132000Y125700D03*
X161800Y154700D03*
X162200Y159100D03*
X161900Y180700D03*
X161600Y117500D03*
X120400Y156800D03*
X104200Y155700D03*
X115600Y154800D03*
X125000Y155700D03*
X131900Y151800D03*
X131600Y88900D03*
X124800Y92600D03*
X121200Y72100D03*
X162000Y96500D03*
X155700Y27400D03*
X167300Y45200D03*
X156400Y73600D03*
X152800Y84300D03*
X157500Y88300D03*
X167600Y55800D03*
Y51100D03*
X164000Y3100D03*
X146726Y27300D03*
X149300Y11800D03*
X132000Y27200D03*
X128400Y27300D03*
X140200Y274700D03*
X136500Y275000D03*
X134900Y277900D03*
X131500Y278000D03*
X135500Y271700D03*
X143900Y277900D03*
X140800Y278000D03*
X140500Y293000D03*
X135000D03*
Y287500D03*
X135200Y320600D03*
X125100Y320000D03*
X105600Y314800D03*
X135400Y317300D03*
X136700Y314000D03*
X131800D03*
X139600Y322000D03*
X116000Y327500D03*
X109000Y331500D03*
Y323500D03*
X112500Y323000D03*
X111200Y319100D03*
X167400Y303700D03*
X161100Y306700D03*
X167600Y288700D03*
X161300Y285500D03*
X152000Y293000D03*
X146500D03*
Y287500D03*
X152000D03*
X135000Y299000D03*
Y304500D03*
X146500Y299000D03*
X140500Y287500D03*
Y299000D03*
Y304500D03*
X152000Y299000D03*
X146500Y304500D03*
X152000D03*
X116174Y297000D03*
X125600Y294000D03*
Y298600D03*
X120400Y282900D03*
X115600Y280900D03*
X125100Y282200D03*
X124900Y273100D03*
X105700Y273000D03*
X111600Y269600D03*
X107200Y269800D03*
X113600Y290000D03*
X112500Y305000D03*
X115500Y264500D03*
X116500Y310000D03*
X125200Y311300D03*
X120900Y311400D03*
G54D46*G54D47*G54D48*G54D22*G54D49*G54D47*G54D50*G54D48*G54D51*G54D52*G54D47*G54D52*G54D53*G54D22*G54D54*G54D52*G54D50*G54D52*G54D50*G54D53*G54D55*G54D53*G54D22*G54D54*G54D53*G54D55*M02*
