G04 start of page 11 for group -4078 idx -4078 *
G04 Title: (unknown), bottomsilk *
G04 Creator: pcb 20140316 *
G04 CreationDate: Tue 20 May 2014 05:08:16 AM GMT UTC *
G04 For: pmonta *
G04 Format: Gerber/RS-274X *
G04 PCB-Dimensions (mil): 4200.00 3400.00 *
G04 PCB-Coordinate-Origin: lower left *
%MOIN*%
%FSLAX25Y25*%
%LNBOTTOMSILK*%
%ADD202C,0.0050*%
%ADD201C,0.0080*%
G54D201*X256755Y230519D02*Y229733D01*
X251245Y230519D02*Y229733D01*
X248333Y189645D02*X249119D01*
X248333Y195155D02*X249119D01*
X225324Y218555D02*X226110D01*
X225324Y213045D02*X226110D01*
X247364Y51945D02*X248150D01*
X247364Y57455D02*X248150D01*
X261707Y57545D02*X262493D01*
X261707Y63055D02*X262493D01*
X304407Y67255D02*X305193D01*
X304407Y61745D02*X305193D01*
X286650Y60545D02*X287436D01*
X286650Y66055D02*X287436D01*
X219324Y176555D02*X220110D01*
X219324Y171045D02*X220110D01*
X274633Y187445D02*X275419D01*
X274633Y192955D02*X275419D01*
X274007Y170445D02*X274793D01*
X274007Y175955D02*X274793D01*
X243807Y110745D02*X244593D01*
X243807Y116255D02*X244593D01*
G54D202*X127000Y189000D02*Y191400D01*
X125800D02*X127000D01*
X126100Y190320D02*X127000D01*
X123880Y189000D02*X125080D01*
X123880D02*X123580Y189300D01*
Y190020D01*
X123880Y190320D02*X123580Y190020D01*
X123880Y190320D02*X124780D01*
Y189000D02*Y191400D01*
X123880D02*X125080D01*
X123880D02*X123580Y191100D01*
Y190620D02*Y191100D01*
X123880Y190320D02*X123580Y190620D01*
X122860Y190920D02*X122380Y191400D01*
Y189000D02*Y191400D01*
X121960Y189000D02*X122860D01*
X121240Y191100D02*X120940Y191400D01*
X120340D02*X120940D01*
X120340D02*X120040Y191100D01*
X120340Y189000D02*X120040Y189300D01*
X120340Y189000D02*X120940D01*
X121240Y189300D02*X120940Y189000D01*
X120340Y190320D02*X120940D01*
X120040Y190620D02*Y191100D01*
Y189300D02*Y190020D01*
X120340Y190320D01*
X120040Y190620D02*X120340Y190320D01*
X126300Y255900D02*Y258300D01*
X125100D02*X126300D01*
X125400Y257220D02*X126300D01*
X123180Y255900D02*X124380D01*
X123180D02*X122880Y256200D01*
Y256920D01*
X123180Y257220D02*X122880Y256920D01*
X123180Y257220D02*X124080D01*
Y255900D02*Y258300D01*
X123180D02*X124380D01*
X123180D02*X122880Y258000D01*
Y257520D02*Y258000D01*
X123180Y257220D02*X122880Y257520D01*
X122160Y257820D02*X121680Y258300D01*
Y255900D02*Y258300D01*
X121260Y255900D02*X122160D01*
X120540Y258000D02*X120240Y258300D01*
X119340D02*X120240D01*
X119340D02*X119040Y258000D01*
Y257400D02*Y258000D01*
X120540Y255900D02*X119040Y257400D01*
Y255900D02*X120540D01*
X182300Y49400D02*X183080D01*
X183500Y49820D02*X183080Y49400D01*
X183500Y49820D02*Y51380D01*
X183080Y51800D01*
X182300D02*X183080D01*
X180680D02*X180380Y51500D01*
X180680Y51800D02*X181280D01*
X181580Y51500D02*X181280Y51800D01*
X181580Y49700D02*Y51500D01*
Y49700D02*X181280Y49400D01*
X180680Y50720D02*X180380Y50420D01*
X180680Y50720D02*X181580D01*
X180680Y49400D02*X181280D01*
X180680D02*X180380Y49700D01*
Y50420D01*
X179660Y51500D02*X179360Y51800D01*
X178760D02*X179360D01*
X178760D02*X178460Y51500D01*
X178760Y49400D02*X178460Y49700D01*
X178760Y49400D02*X179360D01*
X179660Y49700D02*X179360Y49400D01*
X178760Y50720D02*X179360D01*
X178460Y51020D02*Y51500D01*
Y49700D02*Y50420D01*
X178760Y50720D01*
X178460Y51020D02*X178760Y50720D01*
X181900Y45900D02*X182680D01*
X183100Y46320D02*X182680Y45900D01*
X183100Y46320D02*Y47880D01*
X182680Y48300D01*
X181900D02*X182680D01*
X179980D02*X181180D01*
Y47100D02*Y48300D01*
Y47100D02*X180880Y47400D01*
X180280D02*X180880D01*
X180280D02*X179980Y47100D01*
Y46200D02*Y47100D01*
X180280Y45900D02*X179980Y46200D01*
X180280Y45900D02*X180880D01*
X181180Y46200D02*X180880Y45900D01*
X178960D02*X178060Y47100D01*
Y48000D01*
X178360Y48300D02*X178060Y48000D01*
X178360Y48300D02*X178960D01*
X179260Y48000D02*X178960Y48300D01*
X179260Y47400D02*Y48000D01*
Y47400D02*X178960Y47100D01*
X178060D02*X178960D01*
X163288Y59672D02*X164068D01*
X164488Y60092D02*X164068Y59672D01*
X164488Y60092D02*Y61652D01*
X164068Y62072D01*
X163288D02*X164068D01*
X161668D02*X161368Y61772D01*
X161668Y62072D02*X162268D01*
X162568Y61772D02*X162268Y62072D01*
X162568Y59972D02*Y61772D01*
Y59972D02*X162268Y59672D01*
X161668Y60992D02*X161368Y60692D01*
X161668Y60992D02*X162568D01*
X161668Y59672D02*X162268D01*
X161668D02*X161368Y59972D01*
Y60692D01*
X159448Y62072D02*X160648D01*
Y60872D02*Y62072D01*
Y60872D02*X160348Y61172D01*
X159748D02*X160348D01*
X159748D02*X159448Y60872D01*
Y59972D02*Y60872D01*
X159748Y59672D02*X159448Y59972D01*
X159748Y59672D02*X160348D01*
X160648Y59972D02*X160348Y59672D01*
X169600Y83300D02*Y85700D01*
X168400D02*X169600D01*
X168700Y84620D02*X169600D01*
X166480Y83300D02*X167680D01*
X166480D02*X166180Y83600D01*
Y84320D01*
X166480Y84620D02*X166180Y84320D01*
X166480Y84620D02*X167380D01*
Y83300D02*Y85700D01*
X166480D02*X167680D01*
X166480D02*X166180Y85400D01*
Y84920D02*Y85400D01*
X166480Y84620D02*X166180Y84920D01*
X165160Y83300D02*X163960Y85700D01*
X165460D01*
X124826Y14826D02*Y17226D01*
X123626D02*X124826D01*
X123926Y16146D02*X124826D01*
X121706Y14826D02*X122906D01*
X121706D02*X121406Y15126D01*
Y15846D01*
X121706Y16146D02*X121406Y15846D01*
X121706Y16146D02*X122606D01*
Y14826D02*Y17226D01*
X121706D02*X122906D01*
X121706D02*X121406Y16926D01*
Y16446D02*Y16926D01*
X121706Y16146D02*X121406Y16446D01*
X120686Y15726D02*X119486Y17226D01*
X119186Y15726D02*X120686D01*
X119486Y14826D02*Y17226D01*
X142278Y15326D02*Y17726D01*
X141078D02*X142278D01*
X141378Y16646D02*X142278D01*
X139158Y15326D02*X140358D01*
X139158D02*X138858Y15626D01*
Y16346D01*
X139158Y16646D02*X138858Y16346D01*
X139158Y16646D02*X140058D01*
Y15326D02*Y17726D01*
X139158D02*X140358D01*
X139158D02*X138858Y17426D01*
Y16946D02*Y17426D01*
X139158Y16646D02*X138858Y16946D01*
X136938Y17726D02*X138138D01*
Y16526D02*Y17726D01*
Y16526D02*X137838Y16826D01*
X137238D02*X137838D01*
X137238D02*X136938Y16526D01*
Y15626D02*Y16526D01*
X137238Y15326D02*X136938Y15626D01*
X137238Y15326D02*X137838D01*
X138138Y15626D02*X137838Y15326D01*
X129900Y79900D02*Y82300D01*
X128700D02*X129900D01*
X129000Y81220D02*X129900D01*
X126780Y79900D02*X127980D01*
X126780D02*X126480Y80200D01*
Y80920D01*
X126780Y81220D02*X126480Y80920D01*
X126780Y81220D02*X127680D01*
Y79900D02*Y82300D01*
X126780D02*X127980D01*
X126780D02*X126480Y82000D01*
Y81520D02*Y82000D01*
X126780Y81220D02*X126480Y81520D01*
X125460Y79900D02*X124560Y81100D01*
Y82000D01*
X124860Y82300D02*X124560Y82000D01*
X124860Y82300D02*X125460D01*
X125760Y82000D02*X125460Y82300D01*
X125760Y81400D02*Y82000D01*
Y81400D02*X125460Y81100D01*
X124560D02*X125460D01*
X126700Y315600D02*Y318000D01*
X125500D02*X126700D01*
X125800Y316920D02*X126700D01*
X123580Y315600D02*X124780D01*
X123580D02*X123280Y315900D01*
Y316620D01*
X123580Y316920D02*X123280Y316620D01*
X123580Y316920D02*X124480D01*
Y315600D02*Y318000D01*
X123580D02*X124780D01*
X123580D02*X123280Y317700D01*
Y317220D02*Y317700D01*
X123580Y316920D02*X123280Y317220D01*
X122560Y317520D02*X122080Y318000D01*
Y315600D02*Y318000D01*
X121660Y315600D02*X122560D01*
X120940Y317520D02*X120460Y318000D01*
Y315600D02*Y318000D01*
X120040Y315600D02*X120940D01*
X395616Y151807D02*X396396D01*
X396816Y152227D02*X396396Y151807D01*
X396816Y152227D02*Y153787D01*
X396396Y154207D01*
X395616D02*X396396D01*
X394896Y153907D02*X394596Y154207D01*
X393696D02*X394596D01*
X393696D02*X393396Y153907D01*
Y153307D02*Y153907D01*
X394896Y151807D02*X393396Y153307D01*
Y151807D02*X394896D01*
X392676Y152707D02*X391476Y154207D01*
X391176Y152707D02*X392676D01*
X391476Y151807D02*Y154207D01*
X390156Y151807D02*X389256Y153007D01*
Y153907D01*
X389556Y154207D02*X389256Y153907D01*
X389556Y154207D02*X390156D01*
X390456Y153907D02*X390156Y154207D01*
X390456Y153307D02*Y153907D01*
Y153307D02*X390156Y153007D01*
X389256D02*X390156D01*
X307200Y303178D02*X307980D01*
X308400Y303598D02*X307980Y303178D01*
X308400Y303598D02*Y305158D01*
X307980Y305578D01*
X307200D02*X307980D01*
X306480Y305098D02*X306000Y305578D01*
Y303178D02*Y305578D01*
X305580Y303178D02*X306480D01*
X304560D02*X303660Y304378D01*
Y305278D01*
X303960Y305578D02*X303660Y305278D01*
X303960Y305578D02*X304560D01*
X304860Y305278D02*X304560Y305578D01*
X304860Y304678D02*Y305278D01*
Y304678D02*X304560Y304378D01*
X303660D02*X304560D01*
X302640Y303178D02*X301740Y304378D01*
Y305278D01*
X302040Y305578D02*X301740Y305278D01*
X302040Y305578D02*X302640D01*
X302940Y305278D02*X302640Y305578D01*
X302940Y304678D02*Y305278D01*
Y304678D02*X302640Y304378D01*
X301740D02*X302640D01*
X271200Y304400D02*X271980D01*
X272400Y304820D02*X271980Y304400D01*
X272400Y304820D02*Y306380D01*
X271980Y306800D01*
X271200D02*X271980D01*
X270480Y306320D02*X270000Y306800D01*
Y304400D02*Y306800D01*
X269580Y304400D02*X270480D01*
X268560D02*X267660Y305600D01*
Y306500D01*
X267960Y306800D02*X267660Y306500D01*
X267960Y306800D02*X268560D01*
X268860Y306500D02*X268560Y306800D01*
X268860Y305900D02*Y306500D01*
Y305900D02*X268560Y305600D01*
X267660D02*X268560D01*
X266640Y304400D02*X265440Y306800D01*
X266940D01*
X210069Y209404D02*X210849D01*
X211269Y209824D02*X210849Y209404D01*
X211269Y209824D02*Y211384D01*
X210849Y211804D01*
X210069D02*X210849D01*
X209349Y211324D02*X208869Y211804D01*
Y209404D02*Y211804D01*
X208449Y209404D02*X209349D01*
X206529Y211804D02*X207729D01*
Y210604D02*Y211804D01*
Y210604D02*X207429Y210904D01*
X206829D02*X207429D01*
X206829D02*X206529Y210604D01*
Y209704D02*Y210604D01*
X206829Y209404D02*X206529Y209704D01*
X206829Y209404D02*X207429D01*
X207729Y209704D02*X207429Y209404D01*
X205509D02*X204309Y211804D01*
X205809D01*
X209923Y220604D02*X210703D01*
X211123Y221024D02*X210703Y220604D01*
X211123Y221024D02*Y222584D01*
X210703Y223004D01*
X209923D02*X210703D01*
X209203Y222524D02*X208723Y223004D01*
Y220604D02*Y223004D01*
X208303Y220604D02*X209203D01*
X206383Y223004D02*X207583D01*
Y221804D02*Y223004D01*
Y221804D02*X207283Y222104D01*
X206683D02*X207283D01*
X206683D02*X206383Y221804D01*
Y220904D02*Y221804D01*
X206683Y220604D02*X206383Y220904D01*
X206683Y220604D02*X207283D01*
X207583Y220904D02*X207283Y220604D01*
X205363D02*X204463Y221804D01*
Y222704D01*
X204763Y223004D02*X204463Y222704D01*
X204763Y223004D02*X205363D01*
X205663Y222704D02*X205363Y223004D01*
X205663Y222104D02*Y222704D01*
Y222104D02*X205363Y221804D01*
X204463D02*X205363D01*
X290788Y232649D02*X291568D01*
X291988Y233069D02*X291568Y232649D01*
X291988Y233069D02*Y234629D01*
X291568Y235049D01*
X290788D02*X291568D01*
X290068Y234569D02*X289588Y235049D01*
Y232649D02*Y235049D01*
X289168Y232649D02*X290068D01*
X287548Y235049D02*X287248Y234749D01*
X287548Y235049D02*X288148D01*
X288448Y234749D02*X288148Y235049D01*
X288448Y232949D02*Y234749D01*
Y232949D02*X288148Y232649D01*
X287548Y233969D02*X287248Y233669D01*
X287548Y233969D02*X288448D01*
X287548Y232649D02*X288148D01*
X287548D02*X287248Y232949D01*
Y233669D01*
X286528Y233549D02*X285328Y235049D01*
X285028Y233549D02*X286528D01*
X285328Y232649D02*Y235049D01*
X266220Y187220D02*X267000D01*
X267420Y187640D02*X267000Y187220D01*
X267420Y187640D02*Y189200D01*
X267000Y189620D01*
X266220D02*X267000D01*
X265500Y189140D02*X265020Y189620D01*
Y187220D02*Y189620D01*
X264600Y187220D02*X265500D01*
X262980Y189620D02*X262680Y189320D01*
X262980Y189620D02*X263580D01*
X263880Y189320D02*X263580Y189620D01*
X263880Y187520D02*Y189320D01*
Y187520D02*X263580Y187220D01*
X262980Y188540D02*X262680Y188240D01*
X262980Y188540D02*X263880D01*
X262980Y187220D02*X263580D01*
X262980D02*X262680Y187520D01*
Y188240D01*
X261060Y189620D02*X260760Y189320D01*
X261060Y189620D02*X261660D01*
X261960Y189320D02*X261660Y189620D01*
X261960Y187520D02*Y189320D01*
Y187520D02*X261660Y187220D01*
X261060Y188540D02*X260760Y188240D01*
X261060Y188540D02*X261960D01*
X261060Y187220D02*X261660D01*
X261060D02*X260760Y187520D01*
Y188240D01*
X276162Y180599D02*X276942D01*
X277362Y181019D02*X276942Y180599D01*
X277362Y181019D02*Y182579D01*
X276942Y182999D01*
X276162D02*X276942D01*
X275442Y182519D02*X274962Y182999D01*
Y180599D02*Y182999D01*
X274542Y180599D02*X275442D01*
X272922Y182999D02*X272622Y182699D01*
X272922Y182999D02*X273522D01*
X273822Y182699D02*X273522Y182999D01*
X273822Y180899D02*Y182699D01*
Y180899D02*X273522Y180599D01*
X272922Y181919D02*X272622Y181619D01*
X272922Y181919D02*X273822D01*
X272922Y180599D02*X273522D01*
X272922D02*X272622Y180899D01*
Y181619D01*
X271902Y180899D02*X271602Y180599D01*
X271902Y180899D02*Y181379D01*
X271482Y181799D01*
X271122D02*X271482D01*
X271122D02*X270702Y181379D01*
Y180899D02*Y181379D01*
X271002Y180599D02*X270702Y180899D01*
X271002Y180599D02*X271602D01*
X271902Y182219D02*X271482Y181799D01*
X271902Y182219D02*Y182699D01*
X271602Y182999D01*
X271002D02*X271602D01*
X271002D02*X270702Y182699D01*
Y182219D02*Y182699D01*
X271122Y181799D02*X270702Y182219D01*
X253723Y176400D02*X254503D01*
X254923Y176820D02*X254503Y176400D01*
X254923Y176820D02*Y178380D01*
X254503Y178800D01*
X253723D02*X254503D01*
X253003Y178320D02*X252523Y178800D01*
Y176400D02*Y178800D01*
X252103Y176400D02*X253003D01*
X251383Y177300D02*X250183Y178800D01*
X249883Y177300D02*X251383D01*
X250183Y176400D02*Y178800D01*
X249163Y177300D02*X247963Y178800D01*
X247663Y177300D02*X249163D01*
X247963Y176400D02*Y178800D01*
X209945Y194463D02*X210725D01*
X211145Y194883D02*X210725Y194463D01*
X211145Y194883D02*Y196443D01*
X210725Y196863D01*
X209945D02*X210725D01*
X209225Y196383D02*X208745Y196863D01*
Y194463D02*Y196863D01*
X208325Y194463D02*X209225D01*
X206705Y196863D02*X206405Y196563D01*
X206705Y196863D02*X207305D01*
X207605Y196563D02*X207305Y196863D01*
X207605Y194763D02*Y196563D01*
Y194763D02*X207305Y194463D01*
X206705Y195783D02*X206405Y195483D01*
X206705Y195783D02*X207605D01*
X206705Y194463D02*X207305D01*
X206705D02*X206405Y194763D01*
Y195483D01*
X205685Y194763D02*X205385Y194463D01*
X205685Y194763D02*Y196563D01*
X205385Y196863D01*
X204785D02*X205385D01*
X204785D02*X204485Y196563D01*
Y194763D02*Y196563D01*
X204785Y194463D02*X204485Y194763D01*
X204785Y194463D02*X205385D01*
X205685Y195063D02*X204485Y196263D01*
X234933Y188536D02*X235713D01*
X236133Y188956D02*X235713Y188536D01*
X236133Y188956D02*Y190516D01*
X235713Y190936D01*
X234933D02*X235713D01*
X234213Y190456D02*X233733Y190936D01*
Y188536D02*Y190936D01*
X233313Y188536D02*X234213D01*
X232593Y189436D02*X231393Y190936D01*
X231093Y189436D02*X232593D01*
X231393Y188536D02*Y190936D01*
X229173D02*X230373D01*
Y189736D02*Y190936D01*
Y189736D02*X230073Y190036D01*
X229473D02*X230073D01*
X229473D02*X229173Y189736D01*
Y188836D02*Y189736D01*
X229473Y188536D02*X229173Y188836D01*
X229473Y188536D02*X230073D01*
X230373Y188836D02*X230073Y188536D01*
X235013Y200997D02*X235793D01*
X236213Y201417D02*X235793Y200997D01*
X236213Y201417D02*Y202977D01*
X235793Y203397D01*
X235013D02*X235793D01*
X234293Y202917D02*X233813Y203397D01*
Y200997D02*Y203397D01*
X233393Y200997D02*X234293D01*
X232673Y201897D02*X231473Y203397D01*
X231173Y201897D02*X232673D01*
X231473Y200997D02*Y203397D01*
X229553D02*X229253Y203097D01*
X229553Y203397D02*X230153D01*
X230453Y203097D02*X230153Y203397D01*
X230453Y201297D02*Y203097D01*
Y201297D02*X230153Y200997D01*
X229553Y202317D02*X229253Y202017D01*
X229553Y202317D02*X230453D01*
X229553Y200997D02*X230153D01*
X229553D02*X229253Y201297D01*
Y202017D01*
X239056Y214670D02*X239836D01*
X240256Y215090D02*X239836Y214670D01*
X240256Y215090D02*Y216650D01*
X239836Y217070D01*
X239056D02*X239836D01*
X238336Y216590D02*X237856Y217070D01*
Y214670D02*Y217070D01*
X237436Y214670D02*X238336D01*
X235816Y217070D02*X235516Y216770D01*
X235816Y217070D02*X236416D01*
X236716Y216770D02*X236416Y217070D01*
X236716Y214970D02*Y216770D01*
Y214970D02*X236416Y214670D01*
X235816Y215990D02*X235516Y215690D01*
X235816Y215990D02*X236716D01*
X235816Y214670D02*X236416D01*
X235816D02*X235516Y214970D01*
Y215690D01*
X234796Y216770D02*X234496Y217070D01*
X233596D02*X234496D01*
X233596D02*X233296Y216770D01*
Y216170D02*Y216770D01*
X234796Y214670D02*X233296Y216170D01*
Y214670D02*X234796D01*
X275382Y208076D02*X276162D01*
X276582Y208496D02*X276162Y208076D01*
X276582Y208496D02*Y210056D01*
X276162Y210476D01*
X275382D02*X276162D01*
X274662Y209996D02*X274182Y210476D01*
Y208076D02*Y210476D01*
X273762Y208076D02*X274662D01*
X272142Y210476D02*X271842Y210176D01*
X272142Y210476D02*X272742D01*
X273042Y210176D02*X272742Y210476D01*
X273042Y208376D02*Y210176D01*
Y208376D02*X272742Y208076D01*
X272142Y209396D02*X271842Y209096D01*
X272142Y209396D02*X273042D01*
X272142Y208076D02*X272742D01*
X272142D02*X271842Y208376D01*
Y209096D01*
X270822Y208076D02*X269622Y210476D01*
X271122D01*
X258091Y220069D02*X258871D01*
X259291Y220489D02*X258871Y220069D01*
X259291Y220489D02*Y222049D01*
X258871Y222469D01*
X258091D02*X258871D01*
X257371Y221989D02*X256891Y222469D01*
Y220069D02*Y222469D01*
X256471Y220069D02*X257371D01*
X255751Y220969D02*X254551Y222469D01*
X254251Y220969D02*X255751D01*
X254551Y220069D02*Y222469D01*
X253531Y220369D02*X253231Y220069D01*
X253531Y220369D02*Y220849D01*
X253111Y221269D01*
X252751D02*X253111D01*
X252751D02*X252331Y220849D01*
Y220369D02*Y220849D01*
X252631Y220069D02*X252331Y220369D01*
X252631Y220069D02*X253231D01*
X253531Y221689D02*X253111Y221269D01*
X253531Y221689D02*Y222169D01*
X253231Y222469D01*
X252631D02*X253231D01*
X252631D02*X252331Y222169D01*
Y221689D02*Y222169D01*
X252751Y221269D02*X252331Y221689D01*
X266379Y198763D02*X267159D01*
X267579Y199183D02*X267159Y198763D01*
X267579Y199183D02*Y200743D01*
X267159Y201163D01*
X266379D02*X267159D01*
X265659Y200683D02*X265179Y201163D01*
Y198763D02*Y201163D01*
X264759Y198763D02*X265659D01*
X264039Y199663D02*X262839Y201163D01*
X262539Y199663D02*X264039D01*
X262839Y198763D02*Y201163D01*
X261819Y200683D02*X261339Y201163D01*
Y198763D02*Y201163D01*
X260919Y198763D02*X261819D01*
X252054Y196407D02*X252834D01*
X253254Y196827D02*X252834Y196407D01*
X253254Y196827D02*Y198387D01*
X252834Y198807D01*
X252054D02*X252834D01*
X251334Y198327D02*X250854Y198807D01*
Y196407D02*Y198807D01*
X250434Y196407D02*X251334D01*
X249714Y197307D02*X248514Y198807D01*
X248214Y197307D02*X249714D01*
X248514Y196407D02*Y198807D01*
X247494Y198507D02*X247194Y198807D01*
X246294D02*X247194D01*
X246294D02*X245994Y198507D01*
Y197907D02*Y198507D01*
X247494Y196407D02*X245994Y197907D01*
Y196407D02*X247494D01*
X242398Y220850D02*X243178D01*
X243598Y221270D02*X243178Y220850D01*
X243598Y221270D02*Y222830D01*
X243178Y223250D01*
X242398D02*X243178D01*
X241678Y222770D02*X241198Y223250D01*
Y220850D02*Y223250D01*
X240778Y220850D02*X241678D01*
X240058Y221750D02*X238858Y223250D01*
X238558Y221750D02*X240058D01*
X238858Y220850D02*Y223250D01*
X237838Y222950D02*X237538Y223250D01*
X236938D02*X237538D01*
X236938D02*X236638Y222950D01*
X236938Y220850D02*X236638Y221150D01*
X236938Y220850D02*X237538D01*
X237838Y221150D02*X237538Y220850D01*
X236938Y222170D02*X237538D01*
X236638Y222470D02*Y222950D01*
Y221150D02*Y221870D01*
X236938Y222170D01*
X236638Y222470D02*X236938Y222170D01*
X271376Y239820D02*X272156D01*
X272576Y240240D02*X272156Y239820D01*
X272576Y240240D02*Y241800D01*
X272156Y242220D01*
X271376D02*X272156D01*
X270656Y241740D02*X270176Y242220D01*
Y239820D02*Y242220D01*
X269756Y239820D02*X270656D01*
X268136Y242220D02*X267836Y241920D01*
X268136Y242220D02*X268736D01*
X269036Y241920D02*X268736Y242220D01*
X269036Y240120D02*Y241920D01*
Y240120D02*X268736Y239820D01*
X268136Y241140D02*X267836Y240840D01*
X268136Y241140D02*X269036D01*
X268136Y239820D02*X268736D01*
X268136D02*X267836Y240120D01*
Y240840D01*
X267116Y241920D02*X266816Y242220D01*
X266216D02*X266816D01*
X266216D02*X265916Y241920D01*
X266216Y239820D02*X265916Y240120D01*
X266216Y239820D02*X266816D01*
X267116Y240120D02*X266816Y239820D01*
X266216Y241140D02*X266816D01*
X265916Y241440D02*Y241920D01*
Y240120D02*Y240840D01*
X266216Y241140D01*
X265916Y241440D02*X266216Y241140D01*
X262928Y241474D02*X263708D01*
X264128Y241894D02*X263708Y241474D01*
X264128Y241894D02*Y243454D01*
X263708Y243874D01*
X262928D02*X263708D01*
X262208Y243394D02*X261728Y243874D01*
Y241474D02*Y243874D01*
X261308Y241474D02*X262208D01*
X259688Y243874D02*X259388Y243574D01*
X259688Y243874D02*X260288D01*
X260588Y243574D02*X260288Y243874D01*
X260588Y241774D02*Y243574D01*
Y241774D02*X260288Y241474D01*
X259688Y242794D02*X259388Y242494D01*
X259688Y242794D02*X260588D01*
X259688Y241474D02*X260288D01*
X259688D02*X259388Y241774D01*
Y242494D01*
X258668Y243394D02*X258188Y243874D01*
Y241474D02*Y243874D01*
X257768Y241474D02*X258668D01*
X215211Y239600D02*X215991D01*
X216411Y240020D02*X215991Y239600D01*
X216411Y240020D02*Y241580D01*
X215991Y242000D01*
X215211D02*X215991D01*
X214491Y241520D02*X214011Y242000D01*
Y239600D02*Y242000D01*
X213591Y239600D02*X214491D01*
X211671Y242000D02*X212871D01*
Y240800D02*Y242000D01*
Y240800D02*X212571Y241100D01*
X211971D02*X212571D01*
X211971D02*X211671Y240800D01*
Y239900D02*Y240800D01*
X211971Y239600D02*X211671Y239900D01*
X211971Y239600D02*X212571D01*
X212871Y239900D02*X212571Y239600D01*
X210951Y239900D02*X210651Y239600D01*
X210951Y239900D02*Y241700D01*
X210651Y242000D01*
X210051D02*X210651D01*
X210051D02*X209751Y241700D01*
Y239900D02*Y241700D01*
X210051Y239600D02*X209751Y239900D01*
X210051Y239600D02*X210651D01*
X210951Y240200D02*X209751Y241400D01*
X237377Y241074D02*X238157D01*
X238577Y241494D02*X238157Y241074D01*
X238577Y241494D02*Y243054D01*
X238157Y243474D01*
X237377D02*X238157D01*
X236657Y242994D02*X236177Y243474D01*
Y241074D02*Y243474D01*
X235757Y241074D02*X236657D01*
X233837Y243474D02*X235037D01*
Y242274D02*Y243474D01*
Y242274D02*X234737Y242574D01*
X234137D02*X234737D01*
X234137D02*X233837Y242274D01*
Y241374D02*Y242274D01*
X234137Y241074D02*X233837Y241374D01*
X234137Y241074D02*X234737D01*
X235037Y241374D02*X234737Y241074D01*
X233117Y242994D02*X232637Y243474D01*
Y241074D02*Y243474D01*
X232217Y241074D02*X233117D01*
X225428Y239491D02*X226208D01*
X226628Y239911D02*X226208Y239491D01*
X226628Y239911D02*Y241471D01*
X226208Y241891D01*
X225428D02*X226208D01*
X224708Y241411D02*X224228Y241891D01*
Y239491D02*Y241891D01*
X223808Y239491D02*X224708D01*
X221888Y241891D02*X223088D01*
Y240691D02*Y241891D01*
Y240691D02*X222788Y240991D01*
X222188D02*X222788D01*
X222188D02*X221888Y240691D01*
Y239791D02*Y240691D01*
X222188Y239491D02*X221888Y239791D01*
X222188Y239491D02*X222788D01*
X223088Y239791D02*X222788Y239491D01*
X221168Y241591D02*X220868Y241891D01*
X219968D02*X220868D01*
X219968D02*X219668Y241591D01*
Y240991D02*Y241591D01*
X221168Y239491D02*X219668Y240991D01*
Y239491D02*X221168D01*
X225335Y226710D02*X226115D01*
X226535Y227130D02*X226115Y226710D01*
X226535Y227130D02*Y228690D01*
X226115Y229110D01*
X225335D02*X226115D01*
X224615Y228630D02*X224135Y229110D01*
Y226710D02*Y229110D01*
X223715Y226710D02*X224615D01*
X222995Y227610D02*X221795Y229110D01*
X221495Y227610D02*X222995D01*
X221795Y226710D02*Y229110D01*
X220475Y226710D02*X219275Y229110D01*
X220775D01*
X219721Y167062D02*X220501D01*
X220921Y167482D02*X220501Y167062D01*
X220921Y167482D02*Y169042D01*
X220501Y169462D01*
X219721D02*X220501D01*
X219001Y168982D02*X218521Y169462D01*
Y167062D02*Y169462D01*
X218101Y167062D02*X219001D01*
X216181Y169462D02*X217381D01*
Y168262D02*Y169462D01*
Y168262D02*X217081Y168562D01*
X216481D02*X217081D01*
X216481D02*X216181Y168262D01*
Y167362D02*Y168262D01*
X216481Y167062D02*X216181Y167362D01*
X216481Y167062D02*X217081D01*
X217381Y167362D02*X217081Y167062D01*
X215461Y167362D02*X215161Y167062D01*
X215461Y167362D02*Y167842D01*
X215041Y168262D01*
X214681D02*X215041D01*
X214681D02*X214261Y167842D01*
Y167362D02*Y167842D01*
X214561Y167062D02*X214261Y167362D01*
X214561Y167062D02*X215161D01*
X215461Y168682D02*X215041Y168262D01*
X215461Y168682D02*Y169162D01*
X215161Y169462D01*
X214561D02*X215161D01*
X214561D02*X214261Y169162D01*
Y168682D02*Y169162D01*
X214681Y168262D02*X214261Y168682D01*
X262919Y162336D02*X263699D01*
X264119Y162756D02*X263699Y162336D01*
X264119Y162756D02*Y164316D01*
X263699Y164736D01*
X262919D02*X263699D01*
X262199Y164256D02*X261719Y164736D01*
Y162336D02*Y164736D01*
X261299Y162336D02*X262199D01*
X259379Y164736D02*X260579D01*
Y163536D02*Y164736D01*
Y163536D02*X260279Y163836D01*
X259679D02*X260279D01*
X259679D02*X259379Y163536D01*
Y162636D02*Y163536D01*
X259679Y162336D02*X259379Y162636D01*
X259679Y162336D02*X260279D01*
X260579Y162636D02*X260279Y162336D01*
X258659Y164436D02*X258359Y164736D01*
X257759D02*X258359D01*
X257759D02*X257459Y164436D01*
X257759Y162336D02*X257459Y162636D01*
X257759Y162336D02*X258359D01*
X258659Y162636D02*X258359Y162336D01*
X257759Y163656D02*X258359D01*
X257459Y163956D02*Y164436D01*
Y162636D02*Y163356D01*
X257759Y163656D01*
X257459Y163956D02*X257759Y163656D01*
X234014Y164242D02*X234794D01*
X235214Y164662D02*X234794Y164242D01*
X235214Y164662D02*Y166222D01*
X234794Y166642D01*
X234014D02*X234794D01*
X233294Y166162D02*X232814Y166642D01*
Y164242D02*Y166642D01*
X232394Y164242D02*X233294D01*
X230474Y166642D02*X231674D01*
Y165442D02*Y166642D01*
Y165442D02*X231374Y165742D01*
X230774D02*X231374D01*
X230774D02*X230474Y165442D01*
Y164542D02*Y165442D01*
X230774Y164242D02*X230474Y164542D01*
X230774Y164242D02*X231374D01*
X231674Y164542D02*X231374Y164242D01*
X228554Y166642D02*X229754D01*
Y165442D02*Y166642D01*
Y165442D02*X229454Y165742D01*
X228854D02*X229454D01*
X228854D02*X228554Y165442D01*
Y164542D02*Y165442D01*
X228854Y164242D02*X228554Y164542D01*
X228854Y164242D02*X229454D01*
X229754Y164542D02*X229454Y164242D01*
X254301Y162082D02*X255081D01*
X255501Y162502D02*X255081Y162082D01*
X255501Y162502D02*Y164062D01*
X255081Y164482D01*
X254301D02*X255081D01*
X253581Y164002D02*X253101Y164482D01*
Y162082D02*Y164482D01*
X252681Y162082D02*X253581D01*
X250761Y164482D02*X251961D01*
Y163282D02*Y164482D01*
Y163282D02*X251661Y163582D01*
X251061D02*X251661D01*
X251061D02*X250761Y163282D01*
Y162382D02*Y163282D01*
X251061Y162082D02*X250761Y162382D01*
X251061Y162082D02*X251661D01*
X251961Y162382D02*X251661Y162082D01*
X249141Y164482D02*X248841Y164182D01*
X249141Y164482D02*X249741D01*
X250041Y164182D02*X249741Y164482D01*
X250041Y162382D02*Y164182D01*
Y162382D02*X249741Y162082D01*
X249141Y163402D02*X248841Y163102D01*
X249141Y163402D02*X250041D01*
X249141Y162082D02*X249741D01*
X249141D02*X248841Y162382D01*
Y163102D01*
X288490Y196491D02*X289270D01*
X289690Y196911D02*X289270Y196491D01*
X289690Y196911D02*Y198471D01*
X289270Y198891D01*
X288490D02*X289270D01*
X287770Y198411D02*X287290Y198891D01*
Y196491D02*Y198891D01*
X286870Y196491D02*X287770D01*
X286150Y197391D02*X284950Y198891D01*
X284650Y197391D02*X286150D01*
X284950Y196491D02*Y198891D01*
X283630Y196491D02*X282730Y197691D01*
Y198591D01*
X283030Y198891D02*X282730Y198591D01*
X283030Y198891D02*X283630D01*
X283930Y198591D02*X283630Y198891D01*
X283930Y197991D02*Y198591D01*
Y197991D02*X283630Y197691D01*
X282730D02*X283630D01*
X290486Y221966D02*X291266D01*
X291686Y222386D02*X291266Y221966D01*
X291686Y222386D02*Y223946D01*
X291266Y224366D01*
X290486D02*X291266D01*
X289766Y223886D02*X289286Y224366D01*
Y221966D02*Y224366D01*
X288866Y221966D02*X289766D01*
X287246Y224366D02*X286946Y224066D01*
X287246Y224366D02*X287846D01*
X288146Y224066D02*X287846Y224366D01*
X288146Y222266D02*Y224066D01*
Y222266D02*X287846Y221966D01*
X287246Y223286D02*X286946Y222986D01*
X287246Y223286D02*X288146D01*
X287246Y221966D02*X287846D01*
X287246D02*X286946Y222266D01*
Y222986D01*
X285026Y224366D02*X286226D01*
Y223166D02*Y224366D01*
Y223166D02*X285926Y223466D01*
X285326D02*X285926D01*
X285326D02*X285026Y223166D01*
Y222266D02*Y223166D01*
X285326Y221966D02*X285026Y222266D01*
X285326Y221966D02*X285926D01*
X286226Y222266D02*X285926Y221966D01*
X287796Y169666D02*X288576D01*
X288996Y170086D02*X288576Y169666D01*
X288996Y170086D02*Y171646D01*
X288576Y172066D01*
X287796D02*X288576D01*
X287076Y171586D02*X286596Y172066D01*
Y169666D02*Y172066D01*
X286176Y169666D02*X287076D01*
X284256Y172066D02*X285456D01*
Y170866D02*Y172066D01*
Y170866D02*X285156Y171166D01*
X284556D02*X285156D01*
X284556D02*X284256Y170866D01*
Y169966D02*Y170866D01*
X284556Y169666D02*X284256Y169966D01*
X284556Y169666D02*X285156D01*
X285456Y169966D02*X285156Y169666D01*
X283536Y170566D02*X282336Y172066D01*
X282036Y170566D02*X283536D01*
X282336Y169666D02*Y172066D01*
X284126Y126492D02*X284906D01*
X285326Y126912D02*X284906Y126492D01*
X285326Y126912D02*Y128472D01*
X284906Y128892D01*
X284126D02*X284906D01*
X283406Y128412D02*X282926Y128892D01*
Y126492D02*Y128892D01*
X282506Y126492D02*X283406D01*
X281786Y126792D02*X281486Y126492D01*
X281786Y126792D02*Y127272D01*
X281366Y127692D01*
X281006D02*X281366D01*
X281006D02*X280586Y127272D01*
Y126792D02*Y127272D01*
X280886Y126492D02*X280586Y126792D01*
X280886Y126492D02*X281486D01*
X281786Y128112D02*X281366Y127692D01*
X281786Y128112D02*Y128592D01*
X281486Y128892D01*
X280886D02*X281486D01*
X280886D02*X280586Y128592D01*
Y128112D02*Y128592D01*
X281006Y127692D02*X280586Y128112D01*
X278666Y128892D02*X279866D01*
Y127692D02*Y128892D01*
Y127692D02*X279566Y127992D01*
X278966D02*X279566D01*
X278966D02*X278666Y127692D01*
Y126792D02*Y127692D01*
X278966Y126492D02*X278666Y126792D01*
X278966Y126492D02*X279566D01*
X279866Y126792D02*X279566Y126492D01*
X301100Y110800D02*X301880D01*
X302300Y111220D02*X301880Y110800D01*
X302300Y111220D02*Y112780D01*
X301880Y113200D01*
X301100D02*X301880D01*
X300380Y112900D02*X300080Y113200D01*
X299180D02*X300080D01*
X299180D02*X298880Y112900D01*
Y112300D02*Y112900D01*
X300380Y110800D02*X298880Y112300D01*
Y110800D02*X300380D01*
X298160Y112900D02*X297860Y113200D01*
X296960D02*X297860D01*
X296960D02*X296660Y112900D01*
Y112300D02*Y112900D01*
X298160Y110800D02*X296660Y112300D01*
Y110800D02*X298160D01*
X295640D02*X294440Y113200D01*
X295940D01*
X298800Y121700D02*Y124100D01*
X297600D02*X298800D01*
X297900Y123020D02*X298800D01*
X295680Y121700D02*X296880D01*
X295680D02*X295380Y122000D01*
Y122720D01*
X295680Y123020D02*X295380Y122720D01*
X295680Y123020D02*X296580D01*
Y121700D02*Y124100D01*
X295680D02*X296880D01*
X295680D02*X295380Y123800D01*
Y123320D02*Y123800D01*
X295680Y123020D02*X295380Y123320D01*
X294660Y123800D02*X294360Y124100D01*
X293760D02*X294360D01*
X293760D02*X293460Y123800D01*
X293760Y121700D02*X293460Y122000D01*
X293760Y121700D02*X294360D01*
X294660Y122000D02*X294360Y121700D01*
X293760Y123020D02*X294360D01*
X293460Y123320D02*Y123800D01*
Y122000D02*Y122720D01*
X293760Y123020D01*
X293460Y123320D02*X293760Y123020D01*
X367237Y139753D02*X368017D01*
X368437Y140173D02*X368017Y139753D01*
X368437Y140173D02*Y141733D01*
X368017Y142153D01*
X367237D02*X368017D01*
X366517Y141853D02*X366217Y142153D01*
X365317D02*X366217D01*
X365317D02*X365017Y141853D01*
Y141253D02*Y141853D01*
X366517Y139753D02*X365017Y141253D01*
Y139753D02*X366517D01*
X364297Y140653D02*X363097Y142153D01*
X362797Y140653D02*X364297D01*
X363097Y139753D02*Y142153D01*
X362077Y140053D02*X361777Y139753D01*
X362077Y140053D02*Y140533D01*
X361657Y140953D01*
X361297D02*X361657D01*
X361297D02*X360877Y140533D01*
Y140053D02*Y140533D01*
X361177Y139753D02*X360877Y140053D01*
X361177Y139753D02*X361777D01*
X362077Y141373D02*X361657Y140953D01*
X362077Y141373D02*Y141853D01*
X361777Y142153D01*
X361177D02*X361777D01*
X361177D02*X360877Y141853D01*
Y141373D02*Y141853D01*
X361297Y140953D02*X360877Y141373D01*
X308700Y87800D02*X309480D01*
X309900Y88220D02*X309480Y87800D01*
X309900Y88220D02*Y89780D01*
X309480Y90200D01*
X308700D02*X309480D01*
X307980Y89900D02*X307680Y90200D01*
X306780D02*X307680D01*
X306780D02*X306480Y89900D01*
Y89300D02*Y89900D01*
X307980Y87800D02*X306480Y89300D01*
Y87800D02*X307980D01*
X305760Y89720D02*X305280Y90200D01*
Y87800D02*Y90200D01*
X304860Y87800D02*X305760D01*
X303840D02*X302940Y89000D01*
Y89900D01*
X303240Y90200D02*X302940Y89900D01*
X303240Y90200D02*X303840D01*
X304140Y89900D02*X303840Y90200D01*
X304140Y89300D02*Y89900D01*
Y89300D02*X303840Y89000D01*
X302940D02*X303840D01*
X308926Y100600D02*X309706D01*
X310126Y101020D02*X309706Y100600D01*
X310126Y101020D02*Y102580D01*
X309706Y103000D01*
X308926D02*X309706D01*
X308206Y102700D02*X307906Y103000D01*
X307006D02*X307906D01*
X307006D02*X306706Y102700D01*
Y102100D02*Y102700D01*
X308206Y100600D02*X306706Y102100D01*
Y100600D02*X308206D01*
X305986Y102520D02*X305506Y103000D01*
Y100600D02*Y103000D01*
X305086Y100600D02*X305986D01*
X304366Y100900D02*X304066Y100600D01*
X304366Y100900D02*Y101380D01*
X303946Y101800D01*
X303586D02*X303946D01*
X303586D02*X303166Y101380D01*
Y100900D02*Y101380D01*
X303466Y100600D02*X303166Y100900D01*
X303466Y100600D02*X304066D01*
X304366Y102220D02*X303946Y101800D01*
X304366Y102220D02*Y102700D01*
X304066Y103000D01*
X303466D02*X304066D01*
X303466D02*X303166Y102700D01*
Y102220D02*Y102700D01*
X303586Y101800D02*X303166Y102220D01*
X248043Y118613D02*X248823D01*
X249243Y119033D02*X248823Y118613D01*
X249243Y119033D02*Y120593D01*
X248823Y121013D01*
X248043D02*X248823D01*
X247323Y120533D02*X246843Y121013D01*
Y118613D02*Y121013D01*
X246423Y118613D02*X247323D01*
X245403D02*X244503Y119813D01*
Y120713D01*
X244803Y121013D02*X244503Y120713D01*
X244803Y121013D02*X245403D01*
X245703Y120713D02*X245403Y121013D01*
X245703Y120113D02*Y120713D01*
Y120113D02*X245403Y119813D01*
X244503D02*X245403D01*
X243783Y120713D02*X243483Y121013D01*
X242883D02*X243483D01*
X242883D02*X242583Y120713D01*
X242883Y118613D02*X242583Y118913D01*
X242883Y118613D02*X243483D01*
X243783Y118913D02*X243483Y118613D01*
X242883Y119933D02*X243483D01*
X242583Y120233D02*Y120713D01*
Y118913D02*Y119633D01*
X242883Y119933D01*
X242583Y120233D02*X242883Y119933D01*
X253276Y106450D02*X254476D01*
X253276D02*X252976Y106150D01*
Y105550D02*Y106150D01*
X253276Y105250D02*X252976Y105550D01*
X253276Y105250D02*X254176D01*
Y104050D02*Y106450D01*
X253696Y105250D02*X252976Y104050D01*
X252256Y105970D02*X251776Y106450D01*
Y104050D02*Y106450D01*
X251356Y104050D02*X252256D01*
X250636Y105970D02*X250156Y106450D01*
Y104050D02*Y106450D01*
X249736Y104050D02*X250636D01*
X248716D02*X247516Y106450D01*
X249016D01*
X260768Y125950D02*X261968D01*
X260768D02*X260468Y125650D01*
Y125050D02*Y125650D01*
X260768Y124750D02*X260468Y125050D01*
X260768Y124750D02*X261668D01*
Y123550D02*Y125950D01*
X261188Y124750D02*X260468Y123550D01*
X259448D02*X258548Y124750D01*
Y125650D01*
X258848Y125950D02*X258548Y125650D01*
X258848Y125950D02*X259448D01*
X259748Y125650D02*X259448Y125950D01*
X259748Y125050D02*Y125650D01*
Y125050D02*X259448Y124750D01*
X258548D02*X259448D01*
X257828Y123850D02*X257528Y123550D01*
X257828Y123850D02*Y124330D01*
X257408Y124750D01*
X257048D02*X257408D01*
X257048D02*X256628Y124330D01*
Y123850D02*Y124330D01*
X256928Y123550D02*X256628Y123850D01*
X256928Y123550D02*X257528D01*
X257828Y125170D02*X257408Y124750D01*
X257828Y125170D02*Y125650D01*
X257528Y125950D01*
X256928D02*X257528D01*
X256928D02*X256628Y125650D01*
Y125170D02*Y125650D01*
X257048Y124750D02*X256628Y125170D01*
X272076Y117250D02*X272856D01*
X273276Y117670D02*X272856Y117250D01*
X273276Y117670D02*Y119230D01*
X272856Y119650D01*
X272076D02*X272856D01*
X271356Y119170D02*X270876Y119650D01*
Y117250D02*Y119650D01*
X270456Y117250D02*X271356D01*
X269736Y117550D02*X269436Y117250D01*
X269736Y117550D02*Y118030D01*
X269316Y118450D01*
X268956D02*X269316D01*
X268956D02*X268536Y118030D01*
Y117550D02*Y118030D01*
X268836Y117250D02*X268536Y117550D01*
X268836Y117250D02*X269436D01*
X269736Y118870D02*X269316Y118450D01*
X269736Y118870D02*Y119350D01*
X269436Y119650D01*
X268836D02*X269436D01*
X268836D02*X268536Y119350D01*
Y118870D02*Y119350D01*
X268956Y118450D02*X268536Y118870D01*
X266916Y119650D02*X266616Y119350D01*
X266916Y119650D02*X267516D01*
X267816Y119350D02*X267516Y119650D01*
X267816Y117550D02*Y119350D01*
Y117550D02*X267516Y117250D01*
X266916Y118570D02*X266616Y118270D01*
X266916Y118570D02*X267816D01*
X266916Y117250D02*X267516D01*
X266916D02*X266616Y117550D01*
Y118270D01*
X257100Y114900D02*X257880D01*
X258300Y115320D02*X257880Y114900D01*
X258300Y115320D02*Y116880D01*
X257880Y117300D01*
X257100D02*X257880D01*
X256380Y116820D02*X255900Y117300D01*
Y114900D02*Y117300D01*
X255480Y114900D02*X256380D01*
X254760Y115200D02*X254460Y114900D01*
X254760Y115200D02*Y115680D01*
X254340Y116100D01*
X253980D02*X254340D01*
X253980D02*X253560Y115680D01*
Y115200D02*Y115680D01*
X253860Y114900D02*X253560Y115200D01*
X253860Y114900D02*X254460D01*
X254760Y116520D02*X254340Y116100D01*
X254760Y116520D02*Y117000D01*
X254460Y117300D01*
X253860D02*X254460D01*
X253860D02*X253560Y117000D01*
Y116520D02*Y117000D01*
X253980Y116100D02*X253560Y116520D01*
X252840Y115800D02*X251640Y117300D01*
X251340Y115800D02*X252840D01*
X251640Y114900D02*Y117300D01*
X263250Y101750D02*X264030D01*
X264450Y102170D02*X264030Y101750D01*
X264450Y102170D02*Y103730D01*
X264030Y104150D01*
X263250D02*X264030D01*
X262530Y103670D02*X262050Y104150D01*
Y101750D02*Y104150D01*
X261630Y101750D02*X262530D01*
X260910Y102050D02*X260610Y101750D01*
X260910Y102050D02*Y102530D01*
X260490Y102950D01*
X260130D02*X260490D01*
X260130D02*X259710Y102530D01*
Y102050D02*Y102530D01*
X260010Y101750D02*X259710Y102050D01*
X260010Y101750D02*X260610D01*
X260910Y103370D02*X260490Y102950D01*
X260910Y103370D02*Y103850D01*
X260610Y104150D01*
X260010D02*X260610D01*
X260010D02*X259710Y103850D01*
Y103370D02*Y103850D01*
X260130Y102950D02*X259710Y103370D01*
X258990Y103850D02*X258690Y104150D01*
X258090D02*X258690D01*
X258090D02*X257790Y103850D01*
X258090Y101750D02*X257790Y102050D01*
X258090Y101750D02*X258690D01*
X258990Y102050D02*X258690Y101750D01*
X258090Y103070D02*X258690D01*
X257790Y103370D02*Y103850D01*
Y102050D02*Y102770D01*
X258090Y103070D01*
X257790Y103370D02*X258090Y103070D01*
X264976Y74850D02*X265756D01*
X266176Y75270D02*X265756Y74850D01*
X266176Y75270D02*Y76830D01*
X265756Y77250D01*
X264976D02*X265756D01*
X264256Y76770D02*X263776Y77250D01*
Y74850D02*Y77250D01*
X263356Y74850D02*X264256D01*
X262636Y75150D02*X262336Y74850D01*
X262636Y75150D02*Y75630D01*
X262216Y76050D01*
X261856D02*X262216D01*
X261856D02*X261436Y75630D01*
Y75150D02*Y75630D01*
X261736Y74850D02*X261436Y75150D01*
X261736Y74850D02*X262336D01*
X262636Y76470D02*X262216Y76050D01*
X262636Y76470D02*Y76950D01*
X262336Y77250D01*
X261736D02*X262336D01*
X261736D02*X261436Y76950D01*
Y76470D02*Y76950D01*
X261856Y76050D02*X261436Y76470D01*
X260716Y76950D02*X260416Y77250D01*
X259516D02*X260416D01*
X259516D02*X259216Y76950D01*
Y76350D02*Y76950D01*
X260716Y74850D02*X259216Y76350D01*
Y74850D02*X260716D01*
X270950Y101150D02*X272150D01*
X270950D02*X270650Y100850D01*
Y100250D02*Y100850D01*
X270950Y99950D02*X270650Y100250D01*
X270950Y99950D02*X271850D01*
Y98750D02*Y101150D01*
X271370Y99950D02*X270650Y98750D01*
X269930Y100670D02*X269450Y101150D01*
Y98750D02*Y101150D01*
X269030Y98750D02*X269930D01*
X268310Y100670D02*X267830Y101150D01*
Y98750D02*Y101150D01*
X267410Y98750D02*X268310D01*
X265790Y101150D02*X265490Y100850D01*
X265790Y101150D02*X266390D01*
X266690Y100850D02*X266390Y101150D01*
X266690Y99050D02*Y100850D01*
Y99050D02*X266390Y98750D01*
X265790Y100070D02*X265490Y99770D01*
X265790Y100070D02*X266690D01*
X265790Y98750D02*X266390D01*
X265790D02*X265490Y99050D01*
Y99770D01*
X263576Y98150D02*X264776D01*
X263576D02*X263276Y97850D01*
Y97250D02*Y97850D01*
X263576Y96950D02*X263276Y97250D01*
X263576Y96950D02*X264476D01*
Y95750D02*Y98150D01*
X263996Y96950D02*X263276Y95750D01*
X262556Y97670D02*X262076Y98150D01*
Y95750D02*Y98150D01*
X261656Y95750D02*X262556D01*
X260936Y97670D02*X260456Y98150D01*
Y95750D02*Y98150D01*
X260036Y95750D02*X260936D01*
X258116Y98150D02*X259316D01*
Y96950D02*Y98150D01*
Y96950D02*X259016Y97250D01*
X258416D02*X259016D01*
X258416D02*X258116Y96950D01*
Y96050D02*Y96950D01*
X258416Y95750D02*X258116Y96050D01*
X258416Y95750D02*X259016D01*
X259316Y96050D02*X259016Y95750D01*
X259276Y90950D02*X260476D01*
X259276D02*X258976Y90650D01*
Y90050D02*Y90650D01*
X259276Y89750D02*X258976Y90050D01*
X259276Y89750D02*X260176D01*
Y88550D02*Y90950D01*
X259696Y89750D02*X258976Y88550D01*
X258256Y90470D02*X257776Y90950D01*
Y88550D02*Y90950D01*
X257356Y88550D02*X258256D01*
X256636Y90650D02*X256336Y90950D01*
X255436D02*X256336D01*
X255436D02*X255136Y90650D01*
Y90050D02*Y90650D01*
X256636Y88550D02*X255136Y90050D01*
Y88550D02*X256636D01*
X254416Y90650D02*X254116Y90950D01*
X253216D02*X254116D01*
X253216D02*X252916Y90650D01*
Y90050D02*Y90650D01*
X254416Y88550D02*X252916Y90050D01*
Y88550D02*X254416D01*
X259276Y94850D02*X260476D01*
X259276D02*X258976Y94550D01*
Y93950D02*Y94550D01*
X259276Y93650D02*X258976Y93950D01*
X259276Y93650D02*X260176D01*
Y92450D02*Y94850D01*
X259696Y93650D02*X258976Y92450D01*
X258256Y94370D02*X257776Y94850D01*
Y92450D02*Y94850D01*
X257356Y92450D02*X258256D01*
X256636Y94370D02*X256156Y94850D01*
Y92450D02*Y94850D01*
X255736Y92450D02*X256636D01*
X255016Y93350D02*X253816Y94850D01*
X253516Y93350D02*X255016D01*
X253816Y92450D02*Y94850D01*
X258176Y86950D02*X259376D01*
X258176D02*X257876Y86650D01*
Y86050D02*Y86650D01*
X258176Y85750D02*X257876Y86050D01*
X258176Y85750D02*X259076D01*
Y84550D02*Y86950D01*
X258596Y85750D02*X257876Y84550D01*
X257156Y86470D02*X256676Y86950D01*
Y84550D02*Y86950D01*
X256256Y84550D02*X257156D01*
X255536Y86470D02*X255056Y86950D01*
Y84550D02*Y86950D01*
X254636Y84550D02*X255536D01*
X253916Y86650D02*X253616Y86950D01*
X252716D02*X253616D01*
X252716D02*X252416Y86650D01*
Y86050D02*Y86650D01*
X253916Y84550D02*X252416Y86050D01*
Y84550D02*X253916D01*
X261159Y50700D02*X262359D01*
X261159D02*X260859Y50400D01*
Y49800D02*Y50400D01*
X261159Y49500D02*X260859Y49800D01*
X261159Y49500D02*X262059D01*
Y48300D02*Y50700D01*
X261579Y49500D02*X260859Y48300D01*
X259839D02*X258939Y49500D01*
Y50400D01*
X259239Y50700D02*X258939Y50400D01*
X259239Y50700D02*X259839D01*
X260139Y50400D02*X259839Y50700D01*
X260139Y49800D02*Y50400D01*
Y49800D02*X259839Y49500D01*
X258939D02*X259839D01*
X257919Y48300D02*X257019Y49500D01*
Y50400D01*
X257319Y50700D02*X257019Y50400D01*
X257319Y50700D02*X257919D01*
X258219Y50400D02*X257919Y50700D01*
X258219Y49800D02*Y50400D01*
Y49800D02*X257919Y49500D01*
X257019D02*X257919D01*
X249393Y47850D02*X250173D01*
X250593Y48270D02*X250173Y47850D01*
X250593Y48270D02*Y49830D01*
X250173Y50250D01*
X249393D02*X250173D01*
X248673Y49950D02*X248373Y50250D01*
X247473D02*X248373D01*
X247473D02*X247173Y49950D01*
Y49350D02*Y49950D01*
X248673Y47850D02*X247173Y49350D01*
Y47850D02*X248673D01*
X246453Y49950D02*X246153Y50250D01*
X245253D02*X246153D01*
X245253D02*X244953Y49950D01*
Y49350D02*Y49950D01*
X246453Y47850D02*X244953Y49350D01*
Y47850D02*X246453D01*
X243033Y50250D02*X244233D01*
Y49050D02*Y50250D01*
Y49050D02*X243933Y49350D01*
X243333D02*X243933D01*
X243333D02*X243033Y49050D01*
Y48150D02*Y49050D01*
X243333Y47850D02*X243033Y48150D01*
X243333Y47850D02*X243933D01*
X244233Y48150D02*X243933Y47850D01*
X274350Y52750D02*X275130D01*
X275550Y53170D02*X275130Y52750D01*
X275550Y53170D02*Y54730D01*
X275130Y55150D01*
X274350D02*X275130D01*
X273630Y54850D02*X273330Y55150D01*
X272430D02*X273330D01*
X272430D02*X272130Y54850D01*
Y54250D02*Y54850D01*
X273630Y52750D02*X272130Y54250D01*
Y52750D02*X273630D01*
X271410Y54670D02*X270930Y55150D01*
Y52750D02*Y55150D01*
X270510Y52750D02*X271410D01*
X268890Y55150D02*X268590Y54850D01*
X268890Y55150D02*X269490D01*
X269790Y54850D02*X269490Y55150D01*
X269790Y53050D02*Y54850D01*
Y53050D02*X269490Y52750D01*
X268890Y54070D02*X268590Y53770D01*
X268890Y54070D02*X269790D01*
X268890Y52750D02*X269490D01*
X268890D02*X268590Y53050D01*
Y53770D01*
X301300Y72600D02*X302080D01*
X302500Y73020D02*X302080Y72600D01*
X302500Y73020D02*Y74580D01*
X302080Y75000D01*
X301300D02*X302080D01*
X300580Y74700D02*X300280Y75000D01*
X299380D02*X300280D01*
X299380D02*X299080Y74700D01*
Y74100D02*Y74700D01*
X300580Y72600D02*X299080Y74100D01*
Y72600D02*X300580D01*
X298360Y74700D02*X298060Y75000D01*
X297160D02*X298060D01*
X297160D02*X296860Y74700D01*
Y74100D02*Y74700D01*
X298360Y72600D02*X296860Y74100D01*
Y72600D02*X298360D01*
X296140Y72900D02*X295840Y72600D01*
X296140Y72900D02*Y73380D01*
X295720Y73800D01*
X295360D02*X295720D01*
X295360D02*X294940Y73380D01*
Y72900D02*Y73380D01*
X295240Y72600D02*X294940Y72900D01*
X295240Y72600D02*X295840D01*
X296140Y74220D02*X295720Y73800D01*
X296140Y74220D02*Y74700D01*
X295840Y75000D01*
X295240D02*X295840D01*
X295240D02*X294940Y74700D01*
Y74220D02*Y74700D01*
X295360Y73800D02*X294940Y74220D01*
X321400Y63500D02*X322180D01*
X322600Y63920D02*X322180Y63500D01*
X322600Y63920D02*Y65480D01*
X322180Y65900D01*
X321400D02*X322180D01*
X320680Y65600D02*X320380Y65900D01*
X319480D02*X320380D01*
X319480D02*X319180Y65600D01*
Y65000D02*Y65600D01*
X320680Y63500D02*X319180Y65000D01*
Y63500D02*X320680D01*
X318460Y65420D02*X317980Y65900D01*
Y63500D02*Y65900D01*
X317560Y63500D02*X318460D01*
X316540D02*X315340Y65900D01*
X316840D01*
X284450Y75850D02*X285230D01*
X285650Y76270D02*X285230Y75850D01*
X285650Y76270D02*Y77830D01*
X285230Y78250D01*
X284450D02*X285230D01*
X283730Y77950D02*X283430Y78250D01*
X282530D02*X283430D01*
X282530D02*X282230Y77950D01*
Y77350D02*Y77950D01*
X283730Y75850D02*X282230Y77350D01*
Y75850D02*X283730D01*
X281510Y77950D02*X281210Y78250D01*
X280310D02*X281210D01*
X280310D02*X280010Y77950D01*
Y77350D02*Y77950D01*
X281510Y75850D02*X280010Y77350D01*
Y75850D02*X281510D01*
X279290Y77950D02*X278990Y78250D01*
X278390D02*X278990D01*
X278390D02*X278090Y77950D01*
X278390Y75850D02*X278090Y76150D01*
X278390Y75850D02*X278990D01*
X279290Y76150D02*X278990Y75850D01*
X278390Y77170D02*X278990D01*
X278090Y77470D02*Y77950D01*
Y76150D02*Y76870D01*
X278390Y77170D01*
X278090Y77470D02*X278390Y77170D01*
X311852Y52950D02*Y55350D01*
X310652D02*X311852D01*
X310952Y54270D02*X311852D01*
X308732Y52950D02*X309932D01*
X308732D02*X308432Y53250D01*
Y53970D01*
X308732Y54270D02*X308432Y53970D01*
X308732Y54270D02*X309632D01*
Y52950D02*Y55350D01*
X308732D02*X309932D01*
X308732D02*X308432Y55050D01*
Y54570D02*Y55050D01*
X308732Y54270D02*X308432Y54570D01*
X307712Y54870D02*X307232Y55350D01*
Y52950D02*Y55350D01*
X306812Y52950D02*X307712D01*
X289702Y56500D02*X290482D01*
X290902Y56920D02*X290482Y56500D01*
X290902Y56920D02*Y58480D01*
X290482Y58900D01*
X289702D02*X290482D01*
X288982Y58600D02*X288682Y58900D01*
X287782D02*X288682D01*
X287782D02*X287482Y58600D01*
Y58000D02*Y58600D01*
X288982Y56500D02*X287482Y58000D01*
Y56500D02*X288982D01*
X286762Y58600D02*X286462Y58900D01*
X285562D02*X286462D01*
X285562D02*X285262Y58600D01*
Y58000D02*Y58600D01*
X286762Y56500D02*X285262Y58000D01*
Y56500D02*X286762D01*
X283642Y58900D02*X283342Y58600D01*
X283642Y58900D02*X284242D01*
X284542Y58600D02*X284242Y58900D01*
X284542Y56800D02*Y58600D01*
Y56800D02*X284242Y56500D01*
X283642Y57820D02*X283342Y57520D01*
X283642Y57820D02*X284542D01*
X283642Y56500D02*X284242D01*
X283642D02*X283342Y56800D01*
Y57520D01*
X262800Y64400D02*X263580D01*
X264000Y64820D02*X263580Y64400D01*
X264000Y64820D02*Y66380D01*
X263580Y66800D01*
X262800D02*X263580D01*
X262080Y66500D02*X261780Y66800D01*
X260880D02*X261780D01*
X260880D02*X260580Y66500D01*
Y65900D02*Y66500D01*
X262080Y64400D02*X260580Y65900D01*
Y64400D02*X262080D01*
X259860Y66500D02*X259560Y66800D01*
X258660D02*X259560D01*
X258660D02*X258360Y66500D01*
Y65900D02*Y66500D01*
X259860Y64400D02*X258360Y65900D01*
Y64400D02*X259860D01*
X257640Y65300D02*X256440Y66800D01*
X256140Y65300D02*X257640D01*
X256440Y64400D02*Y66800D01*
X243100Y63200D02*X243880D01*
X244300Y63620D02*X243880Y63200D01*
X244300Y63620D02*Y65180D01*
X243880Y65600D01*
X243100D02*X243880D01*
X242380Y65300D02*X242080Y65600D01*
X241180D02*X242080D01*
X241180D02*X240880Y65300D01*
Y64700D02*Y65300D01*
X242380Y63200D02*X240880Y64700D01*
Y63200D02*X242380D01*
X240160Y65300D02*X239860Y65600D01*
X238960D02*X239860D01*
X238960D02*X238660Y65300D01*
Y64700D02*Y65300D01*
X240160Y63200D02*X238660Y64700D01*
Y63200D02*X240160D01*
X237940Y65300D02*X237640Y65600D01*
X236740D02*X237640D01*
X236740D02*X236440Y65300D01*
Y64700D02*Y65300D01*
X237940Y63200D02*X236440Y64700D01*
Y63200D02*X237940D01*
X233000Y72800D02*X234200D01*
X233000D02*X232700Y72500D01*
Y71900D02*Y72500D01*
X233000Y71600D02*X232700Y71900D01*
X233000Y71600D02*X233900D01*
Y70400D02*Y72800D01*
X233420Y71600D02*X232700Y70400D01*
X231980Y72320D02*X231500Y72800D01*
Y70400D02*Y72800D01*
X231080Y70400D02*X231980D01*
X230360Y70700D02*X230060Y70400D01*
X230360Y70700D02*Y72500D01*
X230060Y72800D01*
X229460D02*X230060D01*
X229460D02*X229160Y72500D01*
Y70700D02*Y72500D01*
X229460Y70400D02*X229160Y70700D01*
X229460Y70400D02*X230060D01*
X230360Y71000D02*X229160Y72200D01*
X228140Y70400D02*X226940Y72800D01*
X228440D01*
X215574Y75800D02*X216774D01*
X215574D02*X215274Y75500D01*
Y74900D02*Y75500D01*
X215574Y74600D02*X215274Y74900D01*
X215574Y74600D02*X216474D01*
Y73400D02*Y75800D01*
X215994Y74600D02*X215274Y73400D01*
X214554Y75320D02*X214074Y75800D01*
Y73400D02*Y75800D01*
X213654Y73400D02*X214554D01*
X212934Y73700D02*X212634Y73400D01*
X212934Y73700D02*Y75500D01*
X212634Y75800D01*
X212034D02*X212634D01*
X212034D02*X211734Y75500D01*
Y73700D02*Y75500D01*
X212034Y73400D02*X211734Y73700D01*
X212034Y73400D02*X212634D01*
X212934Y74000D02*X211734Y75200D01*
X210114Y75800D02*X209814Y75500D01*
X210114Y75800D02*X210714D01*
X211014Y75500D02*X210714Y75800D01*
X211014Y73700D02*Y75500D01*
Y73700D02*X210714Y73400D01*
X210114Y74720D02*X209814Y74420D01*
X210114Y74720D02*X211014D01*
X210114Y73400D02*X210714D01*
X210114D02*X209814Y73700D01*
Y74420D01*
X228126Y106700D02*X229326D01*
X228126D02*X227826Y106400D01*
Y105800D02*Y106400D01*
X228126Y105500D02*X227826Y105800D01*
X228126Y105500D02*X229026D01*
Y104300D02*Y106700D01*
X228546Y105500D02*X227826Y104300D01*
X227106Y106220D02*X226626Y106700D01*
Y104300D02*Y106700D01*
X226206Y104300D02*X227106D01*
X225486Y106400D02*X225186Y106700D01*
X224286D02*X225186D01*
X224286D02*X223986Y106400D01*
Y105800D02*Y106400D01*
X225486Y104300D02*X223986Y105800D01*
Y104300D02*X225486D01*
X223266Y106220D02*X222786Y106700D01*
Y104300D02*Y106700D01*
X222366Y104300D02*X223266D01*
X227876Y102750D02*X229076D01*
X227876D02*X227576Y102450D01*
Y101850D02*Y102450D01*
X227876Y101550D02*X227576Y101850D01*
X227876Y101550D02*X228776D01*
Y100350D02*Y102750D01*
X228296Y101550D02*X227576Y100350D01*
X226856Y102270D02*X226376Y102750D01*
Y100350D02*Y102750D01*
X225956Y100350D02*X226856D01*
X225236Y102450D02*X224936Y102750D01*
X224036D02*X224936D01*
X224036D02*X223736Y102450D01*
Y101850D02*Y102450D01*
X225236Y100350D02*X223736Y101850D01*
Y100350D02*X225236D01*
X223016Y100650D02*X222716Y100350D01*
X223016Y100650D02*Y102450D01*
X222716Y102750D01*
X222116D02*X222716D01*
X222116D02*X221816Y102450D01*
Y100650D02*Y102450D01*
X222116Y100350D02*X221816Y100650D01*
X222116Y100350D02*X222716D01*
X223016Y100950D02*X221816Y102150D01*
X227650Y99150D02*X228850D01*
X227650D02*X227350Y98850D01*
Y98250D02*Y98850D01*
X227650Y97950D02*X227350Y98250D01*
X227650Y97950D02*X228550D01*
Y96750D02*Y99150D01*
X228070Y97950D02*X227350Y96750D01*
X226630Y98670D02*X226150Y99150D01*
Y96750D02*Y99150D01*
X225730Y96750D02*X226630D01*
X225010Y98670D02*X224530Y99150D01*
Y96750D02*Y99150D01*
X224110Y96750D02*X225010D01*
X223090D02*X222190Y97950D01*
Y98850D01*
X222490Y99150D02*X222190Y98850D01*
X222490Y99150D02*X223090D01*
X223390Y98850D02*X223090Y99150D01*
X223390Y98250D02*Y98850D01*
Y98250D02*X223090Y97950D01*
X222190D02*X223090D01*
X227976Y95250D02*X229176D01*
X227976D02*X227676Y94950D01*
Y94350D02*Y94950D01*
X227976Y94050D02*X227676Y94350D01*
X227976Y94050D02*X228876D01*
Y92850D02*Y95250D01*
X228396Y94050D02*X227676Y92850D01*
X226956Y94770D02*X226476Y95250D01*
Y92850D02*Y95250D01*
X226056Y92850D02*X226956D01*
X225336Y94770D02*X224856Y95250D01*
Y92850D02*Y95250D01*
X224436Y92850D02*X225336D01*
X223716Y93150D02*X223416Y92850D01*
X223716Y93150D02*Y93630D01*
X223296Y94050D01*
X222936D02*X223296D01*
X222936D02*X222516Y93630D01*
Y93150D02*Y93630D01*
X222816Y92850D02*X222516Y93150D01*
X222816Y92850D02*X223416D01*
X223716Y94470D02*X223296Y94050D01*
X223716Y94470D02*Y94950D01*
X223416Y95250D01*
X222816D02*X223416D01*
X222816D02*X222516Y94950D01*
Y94470D02*Y94950D01*
X222936Y94050D02*X222516Y94470D01*
X252250Y77150D02*X253030D01*
X253450Y77570D02*X253030Y77150D01*
X253450Y77570D02*Y79130D01*
X253030Y79550D01*
X252250D02*X253030D01*
X251530Y79070D02*X251050Y79550D01*
Y77150D02*Y79550D01*
X250630Y77150D02*X251530D01*
X249910Y77450D02*X249610Y77150D01*
X249910Y77450D02*Y77930D01*
X249490Y78350D01*
X249130D02*X249490D01*
X249130D02*X248710Y77930D01*
Y77450D02*Y77930D01*
X249010Y77150D02*X248710Y77450D01*
X249010Y77150D02*X249610D01*
X249910Y78770D02*X249490Y78350D01*
X249910Y78770D02*Y79250D01*
X249610Y79550D01*
X249010D02*X249610D01*
X249010D02*X248710Y79250D01*
Y78770D02*Y79250D01*
X249130Y78350D02*X248710Y78770D01*
X247690Y77150D02*X246490Y79550D01*
X247990D01*
X228376Y91150D02*X229576D01*
X228376D02*X228076Y90850D01*
Y90250D02*Y90850D01*
X228376Y89950D02*X228076Y90250D01*
X228376Y89950D02*X229276D01*
Y88750D02*Y91150D01*
X228796Y89950D02*X228076Y88750D01*
X227356Y90670D02*X226876Y91150D01*
Y88750D02*Y91150D01*
X226456Y88750D02*X227356D01*
X225736Y90850D02*X225436Y91150D01*
X224536D02*X225436D01*
X224536D02*X224236Y90850D01*
Y90250D02*Y90850D01*
X225736Y88750D02*X224236Y90250D01*
Y88750D02*X225736D01*
X223516Y90850D02*X223216Y91150D01*
X222616D02*X223216D01*
X222616D02*X222316Y90850D01*
X222616Y88750D02*X222316Y89050D01*
X222616Y88750D02*X223216D01*
X223516Y89050D02*X223216Y88750D01*
X222616Y90070D02*X223216D01*
X222316Y90370D02*Y90850D01*
Y89050D02*Y89770D01*
X222616Y90070D01*
X222316Y90370D02*X222616Y90070D01*
X227976Y87150D02*X229176D01*
X227976D02*X227676Y86850D01*
Y86250D02*Y86850D01*
X227976Y85950D02*X227676Y86250D01*
X227976Y85950D02*X228876D01*
Y84750D02*Y87150D01*
X228396Y85950D02*X227676Y84750D01*
X226956Y86670D02*X226476Y87150D01*
Y84750D02*Y87150D01*
X226056Y84750D02*X226956D01*
X225336Y86670D02*X224856Y87150D01*
Y84750D02*Y87150D01*
X224436Y84750D02*X225336D01*
X223716Y86850D02*X223416Y87150D01*
X222816D02*X223416D01*
X222816D02*X222516Y86850D01*
X222816Y84750D02*X222516Y85050D01*
X222816Y84750D02*X223416D01*
X223716Y85050D02*X223416Y84750D01*
X222816Y86070D02*X223416D01*
X222516Y86370D02*Y86850D01*
Y85050D02*Y85770D01*
X222816Y86070D01*
X222516Y86370D02*X222816Y86070D01*
M02*
