G04 start of page 14 for group -3984 idx -3984 *
G04 Title: GNSS Firehose, fab *
G04 Creator: pcb 20140316 *
G04 CreationDate: Tue 12 May 2015 06:45:23 AM GMT UTC *
G04 For: pmonta *
G04 Format: Gerber/RS-274X *
G04 PCB-Dimensions (mil): 4640.00 3900.00 *
G04 PCB-Coordinate-Origin: lower left *
%MOIN*%
%FSLAX25Y25*%
%LNFAB*%
%ADD245C,0.0100*%
%ADD244C,0.0075*%
%ADD243C,0.0060*%
%ADD242R,0.0080X0.0080*%
G54D242*X418000Y124300D02*Y114700D01*
X413200Y119500D02*X422800D01*
X416400Y121100D02*X419600D01*
X416400D02*Y117900D01*
X419600D01*
Y121100D02*Y117900D01*
X414800Y122700D02*X421200D01*
X414800D02*Y116300D01*
X421200D01*
Y122700D02*Y116300D01*
X418000Y86300D02*Y76700D01*
X413200Y81500D02*X422800D01*
X416400Y83100D02*X419600D01*
X416400D02*Y79900D01*
X419600D01*
Y83100D02*Y79900D01*
X414800Y84700D02*X421200D01*
X414800D02*Y78300D01*
X421200D01*
Y84700D02*Y78300D01*
X15000Y406050D02*Y396450D01*
X10200Y401250D02*X19800D01*
X13400Y402850D02*X16600D01*
X13400D02*Y399650D01*
X16600D01*
Y402850D02*Y399650D01*
X11800Y404450D02*X18200D01*
X11800D02*Y398050D01*
X18200D01*
Y404450D02*Y398050D01*
G54D243*X135000Y403500D02*X136500Y400500D01*
X138000Y403500D01*
X136500Y400500D02*Y397500D01*
X139800Y400800D02*X142050D01*
X139800Y397500D02*X142800D01*
X139800Y403500D02*Y397500D01*
Y403500D02*X142800D01*
X147600D02*X148350Y402750D01*
X145350Y403500D02*X147600D01*
X144600Y402750D02*X145350Y403500D01*
X144600Y402750D02*Y401250D01*
X145350Y400500D01*
X147600D01*
X148350Y399750D01*
Y398250D01*
X147600Y397500D02*X148350Y398250D01*
X145350Y397500D02*X147600D01*
X144600Y398250D02*X145350Y397500D01*
X98000Y402750D02*X98750Y403500D01*
X101000D01*
X101750Y402750D01*
Y401250D01*
X98000Y397500D02*X101750Y401250D01*
X98000Y397500D02*X101750D01*
X45000Y398250D02*X45750Y397500D01*
X45000Y402750D02*Y398250D01*
Y402750D02*X45750Y403500D01*
X47250D01*
X48000Y402750D01*
Y398250D01*
X47250Y397500D02*X48000Y398250D01*
X45750Y397500D02*X47250D01*
X45000Y399000D02*X48000Y402000D01*
X49800Y397500D02*X50550D01*
X52350Y402300D02*X53550Y403500D01*
Y397500D01*
X52350D02*X54600D01*
X56400Y402750D02*X57150Y403500D01*
X59400D01*
X60150Y402750D01*
Y401250D01*
X56400Y397500D02*X60150Y401250D01*
X56400Y397500D02*X60150D01*
X61950Y398250D02*X62700Y397500D01*
X61950Y399450D02*Y398250D01*
Y399450D02*X63000Y400500D01*
X63900D01*
X64950Y399450D01*
Y398250D01*
X64200Y397500D02*X64950Y398250D01*
X62700Y397500D02*X64200D01*
X61950Y401550D02*X63000Y400500D01*
X61950Y402750D02*Y401550D01*
Y402750D02*X62700Y403500D01*
X64200D01*
X64950Y402750D01*
Y401550D01*
X63900Y400500D02*X64950Y401550D01*
X422756Y305000D02*Y300200D01*
Y305000D02*X426916Y307400D01*
X422756Y305000D02*X418596Y307400D01*
X421156Y305000D02*G75*G03X424356Y305000I1600J0D01*G01*
G75*G03X421156Y305000I-1600J0D01*G01*
X419556D02*G75*G03X425956Y305000I3200J0D01*G01*
G75*G03X419556Y305000I-3200J0D01*G01*
X15000Y416250D02*Y411450D01*
Y416250D02*X19160Y418650D01*
X15000Y416250D02*X10840Y418650D01*
X13400Y416250D02*G75*G03X16600Y416250I1600J0D01*G01*
G75*G03X13400Y416250I-1600J0D01*G01*
X11800D02*G75*G03X18200Y416250I3200J0D01*G01*
G75*G03X11800Y416250I-3200J0D01*G01*
X135000Y418500D02*X136500Y415500D01*
X138000Y418500D01*
X136500Y415500D02*Y412500D01*
X139800Y415800D02*X142050D01*
X139800Y412500D02*X142800D01*
X139800Y418500D02*Y412500D01*
Y418500D02*X142800D01*
X147600D02*X148350Y417750D01*
X145350Y418500D02*X147600D01*
X144600Y417750D02*X145350Y418500D01*
X144600Y417750D02*Y416250D01*
X145350Y415500D01*
X147600D01*
X148350Y414750D01*
Y413250D01*
X147600Y412500D02*X148350Y413250D01*
X145350Y412500D02*X147600D01*
X144600Y413250D02*X145350Y412500D01*
X98000Y417300D02*X99200Y418500D01*
Y412500D01*
X98000D02*X100250D01*
X45000Y413250D02*X45750Y412500D01*
X45000Y417750D02*Y413250D01*
Y417750D02*X45750Y418500D01*
X47250D01*
X48000Y417750D01*
Y413250D01*
X47250Y412500D02*X48000Y413250D01*
X45750Y412500D02*X47250D01*
X45000Y414000D02*X48000Y417000D01*
X49800Y412500D02*X50550D01*
X52350Y417300D02*X53550Y418500D01*
Y412500D01*
X52350D02*X54600D01*
X56400Y417300D02*X57600Y418500D01*
Y412500D01*
X56400D02*X58650D01*
X60450Y413250D02*X61200Y412500D01*
X60450Y417750D02*Y413250D01*
Y417750D02*X61200Y418500D01*
X62700D01*
X63450Y417750D01*
Y413250D01*
X62700Y412500D02*X63450Y413250D01*
X61200Y412500D02*X62700D01*
X60450Y414000D02*X63450Y417000D01*
X448715Y324317D02*X451915D01*
X448715D02*Y321117D01*
X451915D01*
Y324317D02*Y321117D01*
X447115Y325917D02*X453515D01*
X447115D02*Y319517D01*
X453515D01*
Y325917D02*Y319517D01*
X448715Y288883D02*X451915D01*
X448715D02*Y285683D01*
X451915D01*
Y288883D02*Y285683D01*
X447115Y290483D02*X453515D01*
X447115D02*Y284083D01*
X453515D01*
Y290483D02*Y284083D01*
X13400Y432850D02*X16600D01*
X13400D02*Y429650D01*
X16600D01*
Y432850D02*Y429650D01*
X11800Y434450D02*X18200D01*
X11800D02*Y428050D01*
X18200D01*
Y434450D02*Y428050D01*
X135000Y433500D02*X136500Y430500D01*
X138000Y433500D01*
X136500Y430500D02*Y427500D01*
X139800Y430800D02*X142050D01*
X139800Y427500D02*X142800D01*
X139800Y433500D02*Y427500D01*
Y433500D02*X142800D01*
X147600D02*X148350Y432750D01*
X145350Y433500D02*X147600D01*
X144600Y432750D02*X145350Y433500D01*
X144600Y432750D02*Y431250D01*
X145350Y430500D01*
X147600D01*
X148350Y429750D01*
Y428250D01*
X147600Y427500D02*X148350Y428250D01*
X145350Y427500D02*X147600D01*
X144600Y428250D02*X145350Y427500D01*
X98000Y432750D02*X98750Y433500D01*
X101000D01*
X101750Y432750D01*
Y431250D01*
X98000Y427500D02*X101750Y431250D01*
X98000Y427500D02*X101750D01*
X45000Y428250D02*X45750Y427500D01*
X45000Y432750D02*Y428250D01*
Y432750D02*X45750Y433500D01*
X47250D01*
X48000Y432750D01*
Y428250D01*
X47250Y427500D02*X48000Y428250D01*
X45750Y427500D02*X47250D01*
X45000Y429000D02*X48000Y432000D01*
X49800Y427500D02*X50550D01*
X52350Y432300D02*X53550Y433500D01*
Y427500D01*
X52350D02*X54600D01*
X56400Y428250D02*X57150Y427500D01*
X56400Y432750D02*Y428250D01*
Y432750D02*X57150Y433500D01*
X58650D01*
X59400Y432750D01*
Y428250D01*
X58650Y427500D02*X59400Y428250D01*
X57150Y427500D02*X58650D01*
X56400Y429000D02*X59400Y432000D01*
X61200Y428250D02*X61950Y427500D01*
X61200Y432750D02*Y428250D01*
Y432750D02*X61950Y433500D01*
X63450D01*
X64200Y432750D01*
Y428250D01*
X63450Y427500D02*X64200Y428250D01*
X61950Y427500D02*X63450D01*
X61200Y429000D02*X64200Y432000D01*
X31700Y357500D02*G75*G03X33300Y357500I800J0D01*G01*
G75*G03X31700Y357500I-800J0D01*G01*
X30100D02*G75*G03X34900Y357500I2400J0D01*G01*
G75*G03X30100Y357500I-2400J0D01*G01*
X31700Y32500D02*G75*G03X33300Y32500I800J0D01*G01*
G75*G03X31700Y32500I-800J0D01*G01*
X30100D02*G75*G03X34900Y32500I2400J0D01*G01*
G75*G03X30100Y32500I-2400J0D01*G01*
X430700D02*G75*G03X432300Y32500I800J0D01*G01*
G75*G03X430700Y32500I-800J0D01*G01*
X429100D02*G75*G03X433900Y32500I2400J0D01*G01*
G75*G03X429100Y32500I-2400J0D01*G01*
X430700Y357500D02*G75*G03X432300Y357500I800J0D01*G01*
G75*G03X430700Y357500I-800J0D01*G01*
X429100D02*G75*G03X433900Y357500I2400J0D01*G01*
G75*G03X429100Y357500I-2400J0D01*G01*
X14200Y446250D02*G75*G03X15800Y446250I800J0D01*G01*
G75*G03X14200Y446250I-800J0D01*G01*
X12600D02*G75*G03X17400Y446250I2400J0D01*G01*
G75*G03X12600Y446250I-2400J0D01*G01*
X135000Y448500D02*X136500Y445500D01*
X138000Y448500D01*
X136500Y445500D02*Y442500D01*
X139800Y445800D02*X142050D01*
X139800Y442500D02*X142800D01*
X139800Y448500D02*Y442500D01*
Y448500D02*X142800D01*
X147600D02*X148350Y447750D01*
X145350Y448500D02*X147600D01*
X144600Y447750D02*X145350Y448500D01*
X144600Y447750D02*Y446250D01*
X145350Y445500D01*
X147600D01*
X148350Y444750D01*
Y443250D01*
X147600Y442500D02*X148350Y443250D01*
X145350Y442500D02*X147600D01*
X144600Y443250D02*X145350Y442500D01*
X98000Y444750D02*X101000Y448500D01*
X98000Y444750D02*X101750D01*
X101000Y448500D02*Y442500D01*
X45000Y443250D02*X45750Y442500D01*
X45000Y447750D02*Y443250D01*
Y447750D02*X45750Y448500D01*
X47250D01*
X48000Y447750D01*
Y443250D01*
X47250Y442500D02*X48000Y443250D01*
X45750Y442500D02*X47250D01*
X45000Y444000D02*X48000Y447000D01*
X49800Y442500D02*X50550D01*
X52350Y443250D02*X53100Y442500D01*
X52350Y447750D02*Y443250D01*
Y447750D02*X53100Y448500D01*
X54600D01*
X55350Y447750D01*
Y443250D01*
X54600Y442500D02*X55350Y443250D01*
X53100Y442500D02*X54600D01*
X52350Y444000D02*X55350Y447000D01*
X57900Y442500D02*X60150Y445500D01*
Y447750D02*Y445500D01*
X59400Y448500D02*X60150Y447750D01*
X57900Y448500D02*X59400D01*
X57150Y447750D02*X57900Y448500D01*
X57150Y447750D02*Y446250D01*
X57900Y445500D01*
X60150D01*
X64200Y448500D02*X64950Y447750D01*
X62700Y448500D02*X64200D01*
X61950Y447750D02*X62700Y448500D01*
X61950Y447750D02*Y443250D01*
X62700Y442500D01*
X64200Y445800D02*X64950Y445050D01*
X61950Y445800D02*X64200D01*
X62700Y442500D02*X64200D01*
X64950Y443250D01*
Y445050D02*Y443250D01*
X443978Y307400D02*X448778Y302600D01*
X443978D02*X448778Y307400D01*
X444778Y306600D02*X447978D01*
X444778D02*Y303400D01*
X447978D01*
Y306600D02*Y303400D01*
X12600Y463650D02*X17400Y458850D01*
X12600D02*X17400Y463650D01*
X13400Y462850D02*X16600D01*
X13400D02*Y459650D01*
X16600D01*
Y462850D02*Y459650D01*
X135000Y463500D02*X136500Y460500D01*
X138000Y463500D01*
X136500Y460500D02*Y457500D01*
X139800Y460800D02*X142050D01*
X139800Y457500D02*X142800D01*
X139800Y463500D02*Y457500D01*
Y463500D02*X142800D01*
X147600D02*X148350Y462750D01*
X145350Y463500D02*X147600D01*
X144600Y462750D02*X145350Y463500D01*
X144600Y462750D02*Y461250D01*
X145350Y460500D01*
X147600D01*
X148350Y459750D01*
Y458250D01*
X147600Y457500D02*X148350Y458250D01*
X145350Y457500D02*X147600D01*
X144600Y458250D02*X145350Y457500D01*
X98000Y462300D02*X99200Y463500D01*
Y457500D01*
X98000D02*X100250D01*
X45000Y458250D02*X45750Y457500D01*
X45000Y462750D02*Y458250D01*
Y462750D02*X45750Y463500D01*
X47250D01*
X48000Y462750D01*
Y458250D01*
X47250Y457500D02*X48000Y458250D01*
X45750Y457500D02*X47250D01*
X45000Y459000D02*X48000Y462000D01*
X49800Y457500D02*X50550D01*
X52350Y458250D02*X53100Y457500D01*
X52350Y462750D02*Y458250D01*
Y462750D02*X53100Y463500D01*
X54600D01*
X55350Y462750D01*
Y458250D01*
X54600Y457500D02*X55350Y458250D01*
X53100Y457500D02*X54600D01*
X52350Y459000D02*X55350Y462000D01*
X57900Y457500D02*X60150Y460500D01*
Y462750D02*Y460500D01*
X59400Y463500D02*X60150Y462750D01*
X57900Y463500D02*X59400D01*
X57150Y462750D02*X57900Y463500D01*
X57150Y462750D02*Y461250D01*
X57900Y460500D01*
X60150D01*
X61950Y458250D02*X62700Y457500D01*
X61950Y462750D02*Y458250D01*
Y462750D02*X62700Y463500D01*
X64200D01*
X64950Y462750D01*
Y458250D01*
X64200Y457500D02*X64950Y458250D01*
X62700Y457500D02*X64200D01*
X61950Y459000D02*X64950Y462000D01*
X458189Y308200D02*Y301800D01*
X454989Y305000D02*X461389D01*
X456589Y306600D02*X459789D01*
X456589D02*Y303400D01*
X459789D01*
Y306600D02*Y303400D01*
X15000Y479450D02*Y473050D01*
X11800Y476250D02*X18200D01*
X13400Y477850D02*X16600D01*
X13400D02*Y474650D01*
X16600D01*
Y477850D02*Y474650D01*
X135000Y478500D02*X136500Y475500D01*
X138000Y478500D01*
X136500Y475500D02*Y472500D01*
X139800Y475800D02*X142050D01*
X139800Y472500D02*X142800D01*
X139800Y478500D02*Y472500D01*
Y478500D02*X142800D01*
X147600D02*X148350Y477750D01*
X145350Y478500D02*X147600D01*
X144600Y477750D02*X145350Y478500D01*
X144600Y477750D02*Y476250D01*
X145350Y475500D01*
X147600D01*
X148350Y474750D01*
Y473250D01*
X147600Y472500D02*X148350Y473250D01*
X145350Y472500D02*X147600D01*
X144600Y473250D02*X145350Y472500D01*
X98000Y477300D02*X99200Y478500D01*
Y472500D01*
X98000D02*X100250D01*
X45000Y473250D02*X45750Y472500D01*
X45000Y477750D02*Y473250D01*
Y477750D02*X45750Y478500D01*
X47250D01*
X48000Y477750D01*
Y473250D01*
X47250Y472500D02*X48000Y473250D01*
X45750Y472500D02*X47250D01*
X45000Y474000D02*X48000Y477000D01*
X49800Y472500D02*X50550D01*
X52350Y473250D02*X53100Y472500D01*
X52350Y477750D02*Y473250D01*
Y477750D02*X53100Y478500D01*
X54600D01*
X55350Y477750D01*
Y473250D01*
X54600Y472500D02*X55350Y473250D01*
X53100Y472500D02*X54600D01*
X52350Y474000D02*X55350Y477000D01*
X59400Y478500D02*X60150Y477750D01*
X57900Y478500D02*X59400D01*
X57150Y477750D02*X57900Y478500D01*
X57150Y477750D02*Y473250D01*
X57900Y472500D01*
X59400Y475800D02*X60150Y475050D01*
X57150Y475800D02*X59400D01*
X57900Y472500D02*X59400D01*
X60150Y473250D01*
Y475050D02*Y473250D01*
X61950Y477750D02*X62700Y478500D01*
X64200D01*
X64950Y477750D01*
X64200Y472500D02*X64950Y473250D01*
X62700Y472500D02*X64200D01*
X61950Y473250D02*X62700Y472500D01*
Y475800D02*X64200D01*
X64950Y477750D02*Y476550D01*
Y475050D02*Y473250D01*
Y475050D02*X64200Y475800D01*
X64950Y476550D02*X64200Y475800D01*
X418000Y135100D02*Y131900D01*
Y135100D02*X420773Y136700D01*
X418000Y135100D02*X415227Y136700D01*
X416400Y135100D02*G75*G03X419600Y135100I1600J0D01*G01*
G75*G03X416400Y135100I-1600J0D01*G01*
X418000Y65900D02*Y62700D01*
Y65900D02*X420773Y67500D01*
X418000Y65900D02*X415227Y67500D01*
X416400Y65900D02*G75*G03X419600Y65900I1600J0D01*G01*
G75*G03X416400Y65900I-1600J0D01*G01*
X15000Y491250D02*Y488050D01*
Y491250D02*X17773Y492850D01*
X15000Y491250D02*X12227Y492850D01*
X13400Y491250D02*G75*G03X16600Y491250I1600J0D01*G01*
G75*G03X13400Y491250I-1600J0D01*G01*
X135000Y493500D02*X136500Y490500D01*
X138000Y493500D01*
X136500Y490500D02*Y487500D01*
X139800Y490800D02*X142050D01*
X139800Y487500D02*X142800D01*
X139800Y493500D02*Y487500D01*
Y493500D02*X142800D01*
X147600D02*X148350Y492750D01*
X145350Y493500D02*X147600D01*
X144600Y492750D02*X145350Y493500D01*
X144600Y492750D02*Y491250D01*
X145350Y490500D01*
X147600D01*
X148350Y489750D01*
Y488250D01*
X147600Y487500D02*X148350Y488250D01*
X145350Y487500D02*X147600D01*
X144600Y488250D02*X145350Y487500D01*
X98000Y492750D02*X98750Y493500D01*
X101000D01*
X101750Y492750D01*
Y491250D01*
X98000Y487500D02*X101750Y491250D01*
X98000Y487500D02*X101750D01*
X45000Y488250D02*X45750Y487500D01*
X45000Y492750D02*Y488250D01*
Y492750D02*X45750Y493500D01*
X47250D01*
X48000Y492750D01*
Y488250D01*
X47250Y487500D02*X48000Y488250D01*
X45750Y487500D02*X47250D01*
X45000Y489000D02*X48000Y492000D01*
X49800Y487500D02*X50550D01*
X52350Y488250D02*X53100Y487500D01*
X52350Y492750D02*Y488250D01*
Y492750D02*X53100Y493500D01*
X54600D01*
X55350Y492750D01*
Y488250D01*
X54600Y487500D02*X55350Y488250D01*
X53100Y487500D02*X54600D01*
X52350Y489000D02*X55350Y492000D01*
X59400Y493500D02*X60150Y492750D01*
X57900Y493500D02*X59400D01*
X57150Y492750D02*X57900Y493500D01*
X57150Y492750D02*Y488250D01*
X57900Y487500D01*
X59400Y490800D02*X60150Y490050D01*
X57150Y490800D02*X59400D01*
X57900Y487500D02*X59400D01*
X60150Y488250D01*
Y490050D02*Y488250D01*
X61950Y492750D02*X62700Y493500D01*
X64950D01*
X65700Y492750D01*
Y491250D01*
X61950Y487500D02*X65700Y491250D01*
X61950Y487500D02*X65700D01*
X441400Y131700D02*X444600D01*
X441400D02*Y128500D01*
X444600D01*
Y131700D02*Y128500D01*
X451400Y131700D02*X454600D01*
X451400D02*Y128500D01*
X454600D01*
Y131700D02*Y128500D01*
X431400Y72500D02*X434600D01*
X431400D02*Y69300D01*
X434600D01*
Y72500D02*Y69300D01*
X441400Y72500D02*X444600D01*
X441400D02*Y69300D01*
X444600D01*
Y72500D02*Y69300D01*
X451400Y72500D02*X454600D01*
X451400D02*Y69300D01*
X454600D01*
Y72500D02*Y69300D01*
X13400Y507850D02*X16600D01*
X13400D02*Y504650D01*
X16600D01*
Y507850D02*Y504650D01*
X135000Y508500D02*X136500Y505500D01*
X138000Y508500D01*
X136500Y505500D02*Y502500D01*
X139800Y505800D02*X142050D01*
X139800Y502500D02*X142800D01*
X139800Y508500D02*Y502500D01*
Y508500D02*X142800D01*
X147600D02*X148350Y507750D01*
X145350Y508500D02*X147600D01*
X144600Y507750D02*X145350Y508500D01*
X144600Y507750D02*Y506250D01*
X145350Y505500D01*
X147600D01*
X148350Y504750D01*
Y503250D01*
X147600Y502500D02*X148350Y503250D01*
X145350Y502500D02*X147600D01*
X144600Y503250D02*X145350Y502500D01*
X98000Y508500D02*X101000D01*
X98000D02*Y505500D01*
X98750Y506250D01*
X100250D01*
X101000Y505500D01*
Y503250D01*
X100250Y502500D02*X101000Y503250D01*
X98750Y502500D02*X100250D01*
X98000Y503250D02*X98750Y502500D01*
X45000Y503250D02*X45750Y502500D01*
X45000Y507750D02*Y503250D01*
Y507750D02*X45750Y508500D01*
X47250D01*
X48000Y507750D01*
Y503250D01*
X47250Y502500D02*X48000Y503250D01*
X45750Y502500D02*X47250D01*
X45000Y504000D02*X48000Y507000D01*
X49800Y502500D02*X50550D01*
X52350Y503250D02*X53100Y502500D01*
X52350Y507750D02*Y503250D01*
Y507750D02*X53100Y508500D01*
X54600D01*
X55350Y507750D01*
Y503250D01*
X54600Y502500D02*X55350Y503250D01*
X53100Y502500D02*X54600D01*
X52350Y504000D02*X55350Y507000D01*
X57150Y508500D02*X60150D01*
X57150D02*Y505500D01*
X57900Y506250D01*
X59400D01*
X60150Y505500D01*
Y503250D01*
X59400Y502500D02*X60150Y503250D01*
X57900Y502500D02*X59400D01*
X57150Y503250D02*X57900Y502500D01*
X61950Y503250D02*X62700Y502500D01*
X61950Y507750D02*Y503250D01*
Y507750D02*X62700Y508500D01*
X64200D01*
X64950Y507750D01*
Y503250D01*
X64200Y502500D02*X64950Y503250D01*
X62700Y502500D02*X64200D01*
X61950Y504000D02*X64950Y507000D01*
X369200Y180000D02*G75*G03X370800Y180000I800J0D01*G01*
G75*G03X369200Y180000I-800J0D01*G01*
X359200D02*G75*G03X360800Y180000I800J0D01*G01*
G75*G03X359200Y180000I-800J0D01*G01*
X369200Y190000D02*G75*G03X370800Y190000I800J0D01*G01*
G75*G03X369200Y190000I-800J0D01*G01*
X359200D02*G75*G03X360800Y190000I800J0D01*G01*
G75*G03X359200Y190000I-800J0D01*G01*
X369200Y200000D02*G75*G03X370800Y200000I800J0D01*G01*
G75*G03X369200Y200000I-800J0D01*G01*
X359200D02*G75*G03X360800Y200000I800J0D01*G01*
G75*G03X359200Y200000I-800J0D01*G01*
X369200Y210000D02*G75*G03X370800Y210000I800J0D01*G01*
G75*G03X369200Y210000I-800J0D01*G01*
X359200D02*G75*G03X360800Y210000I800J0D01*G01*
G75*G03X359200Y210000I-800J0D01*G01*
X369200Y220000D02*G75*G03X370800Y220000I800J0D01*G01*
G75*G03X369200Y220000I-800J0D01*G01*
X359200D02*G75*G03X360800Y220000I800J0D01*G01*
G75*G03X359200Y220000I-800J0D01*G01*
X369200Y230000D02*G75*G03X370800Y230000I800J0D01*G01*
G75*G03X369200Y230000I-800J0D01*G01*
X359200D02*G75*G03X360800Y230000I800J0D01*G01*
G75*G03X359200Y230000I-800J0D01*G01*
X369200Y240000D02*G75*G03X370800Y240000I800J0D01*G01*
G75*G03X369200Y240000I-800J0D01*G01*
X359200D02*G75*G03X360800Y240000I800J0D01*G01*
G75*G03X359200Y240000I-800J0D01*G01*
X369200Y250000D02*G75*G03X370800Y250000I800J0D01*G01*
G75*G03X369200Y250000I-800J0D01*G01*
X359200D02*G75*G03X360800Y250000I800J0D01*G01*
G75*G03X359200Y250000I-800J0D01*G01*
X14200Y521250D02*G75*G03X15800Y521250I800J0D01*G01*
G75*G03X14200Y521250I-800J0D01*G01*
X135000Y523500D02*X136500Y520500D01*
X138000Y523500D01*
X136500Y520500D02*Y517500D01*
X139800Y520800D02*X142050D01*
X139800Y517500D02*X142800D01*
X139800Y523500D02*Y517500D01*
Y523500D02*X142800D01*
X147600D02*X148350Y522750D01*
X145350Y523500D02*X147600D01*
X144600Y522750D02*X145350Y523500D01*
X144600Y522750D02*Y521250D01*
X145350Y520500D01*
X147600D01*
X148350Y519750D01*
Y518250D01*
X147600Y517500D02*X148350Y518250D01*
X145350Y517500D02*X147600D01*
X144600Y518250D02*X145350Y517500D01*
X98000Y522300D02*X99200Y523500D01*
Y517500D01*
X98000D02*X100250D01*
X104300Y523500D02*X105050Y522750D01*
X102800Y523500D02*X104300D01*
X102050Y522750D02*X102800Y523500D01*
X102050Y522750D02*Y518250D01*
X102800Y517500D01*
X104300Y520800D02*X105050Y520050D01*
X102050Y520800D02*X104300D01*
X102800Y517500D02*X104300D01*
X105050Y518250D01*
Y520050D02*Y518250D01*
X45000D02*X45750Y517500D01*
X45000Y522750D02*Y518250D01*
Y522750D02*X45750Y523500D01*
X47250D01*
X48000Y522750D01*
Y518250D01*
X47250Y517500D02*X48000Y518250D01*
X45750Y517500D02*X47250D01*
X45000Y519000D02*X48000Y522000D01*
X49800Y517500D02*X50550D01*
X52350Y518250D02*X53100Y517500D01*
X52350Y522750D02*Y518250D01*
Y522750D02*X53100Y523500D01*
X54600D01*
X55350Y522750D01*
Y518250D01*
X54600Y517500D02*X55350Y518250D01*
X53100Y517500D02*X54600D01*
X52350Y519000D02*X55350Y522000D01*
X57150Y519750D02*X60150Y523500D01*
X57150Y519750D02*X60900D01*
X60150Y523500D02*Y517500D01*
X62700Y522750D02*X63450Y523500D01*
X65700D01*
X66450Y522750D01*
Y521250D01*
X62700Y517500D02*X66450Y521250D01*
X62700Y517500D02*X66450D01*
X390800Y121700D02*X393200Y119300D01*
X390800D02*X393200Y121700D01*
X390800Y113700D02*X393200Y111300D01*
X390800D02*X393200Y113700D01*
X390800Y105700D02*X393200Y103300D01*
X390800D02*X393200Y105700D01*
X390800Y97700D02*X393200Y95300D01*
X390800D02*X393200Y97700D01*
X390800Y89700D02*X393200Y87300D01*
X390800D02*X393200Y89700D01*
X390800Y81700D02*X393200Y79300D01*
X390800D02*X393200Y81700D01*
X380800Y125700D02*X383200Y123300D01*
X380800D02*X383200Y125700D01*
X380800Y117700D02*X383200Y115300D01*
X380800D02*X383200Y117700D01*
X380800Y109700D02*X383200Y107300D01*
X380800D02*X383200Y109700D01*
X380800Y93700D02*X383200Y91300D01*
X380800D02*X383200Y93700D01*
X380800Y85700D02*X383200Y83300D01*
X380800D02*X383200Y85700D01*
X380800Y77700D02*X383200Y75300D01*
X380800D02*X383200Y77700D01*
X396800Y239696D02*X399200Y237296D01*
X396800D02*X399200Y239696D01*
X404674D02*X407074Y237296D01*
X404674D02*X407074Y239696D01*
X396800Y231822D02*X399200Y229422D01*
X396800D02*X399200Y231822D01*
X404674D02*X407074Y229422D01*
X404674D02*X407074Y231822D01*
X396800Y223948D02*X399200Y221548D01*
X396800D02*X399200Y223948D01*
X404674D02*X407074Y221548D01*
X404674D02*X407074Y223948D01*
X396800Y216074D02*X399200Y213674D01*
X396800D02*X399200Y216074D01*
X404674D02*X407074Y213674D01*
X404674D02*X407074Y216074D01*
X396800Y208200D02*X399200Y205800D01*
X396800D02*X399200Y208200D01*
X404674D02*X407074Y205800D01*
X404674D02*X407074Y208200D01*
X396800Y200326D02*X399200Y197926D01*
X396800D02*X399200Y200326D01*
X404674D02*X407074Y197926D01*
X404674D02*X407074Y200326D01*
X396800Y192452D02*X399200Y190052D01*
X396800D02*X399200Y192452D01*
X404674D02*X407074Y190052D01*
X404674D02*X407074Y192452D01*
X13800Y537450D02*X16200Y535050D01*
X13800D02*X16200Y537450D01*
X135000Y538500D02*X136500Y535500D01*
X138000Y538500D01*
X136500Y535500D02*Y532500D01*
X139800Y535800D02*X142050D01*
X139800Y532500D02*X142800D01*
X139800Y538500D02*Y532500D01*
Y538500D02*X142800D01*
X147600D02*X148350Y537750D01*
X145350Y538500D02*X147600D01*
X144600Y537750D02*X145350Y538500D01*
X144600Y537750D02*Y536250D01*
X145350Y535500D01*
X147600D01*
X148350Y534750D01*
Y533250D01*
X147600Y532500D02*X148350Y533250D01*
X145350Y532500D02*X147600D01*
X144600Y533250D02*X145350Y532500D01*
X98000Y537750D02*X98750Y538500D01*
X101000D01*
X101750Y537750D01*
Y536250D01*
X98000Y532500D02*X101750Y536250D01*
X98000Y532500D02*X101750D01*
X105800Y538500D02*X106550Y537750D01*
X104300Y538500D02*X105800D01*
X103550Y537750D02*X104300Y538500D01*
X103550Y537750D02*Y533250D01*
X104300Y532500D01*
X105800Y535800D02*X106550Y535050D01*
X103550Y535800D02*X105800D01*
X104300Y532500D02*X105800D01*
X106550Y533250D01*
Y535050D02*Y533250D01*
X45000D02*X45750Y532500D01*
X45000Y537750D02*Y533250D01*
Y537750D02*X45750Y538500D01*
X47250D01*
X48000Y537750D01*
Y533250D01*
X47250Y532500D02*X48000Y533250D01*
X45750Y532500D02*X47250D01*
X45000Y534000D02*X48000Y537000D01*
X49800Y532500D02*X50550D01*
X52350Y533250D02*X53100Y532500D01*
X52350Y537750D02*Y533250D01*
Y537750D02*X53100Y538500D01*
X54600D01*
X55350Y537750D01*
Y533250D01*
X54600Y532500D02*X55350Y533250D01*
X53100Y532500D02*X54600D01*
X52350Y534000D02*X55350Y537000D01*
X57150Y537750D02*X57900Y538500D01*
X59400D01*
X60150Y537750D01*
X59400Y532500D02*X60150Y533250D01*
X57900Y532500D02*X59400D01*
X57150Y533250D02*X57900Y532500D01*
Y535800D02*X59400D01*
X60150Y537750D02*Y536550D01*
Y535050D02*Y533250D01*
Y535050D02*X59400Y535800D01*
X60150Y536550D02*X59400Y535800D01*
X61950Y538500D02*X64950D01*
X61950D02*Y535500D01*
X62700Y536250D01*
X64200D01*
X64950Y535500D01*
Y533250D01*
X64200Y532500D02*X64950Y533250D01*
X62700Y532500D02*X64200D01*
X61950Y533250D02*X62700Y532500D01*
X238300Y128300D02*Y125100D01*
X236700Y126700D02*X239900D01*
X299300Y186600D02*Y183400D01*
X297700Y185000D02*X300900D01*
X306700Y110300D02*Y107100D01*
X305100Y108700D02*X308300D01*
X287600Y95400D02*Y92200D01*
X286000Y93800D02*X289200D01*
X272500Y85100D02*Y81900D01*
X270900Y83500D02*X274100D01*
X275900Y102500D02*Y99300D01*
X274300Y100900D02*X277500D01*
X252400Y72300D02*Y69100D01*
X250800Y70700D02*X254000D01*
X269800Y75700D02*Y72500D01*
X268200Y74100D02*X271400D01*
X265700Y80200D02*Y77000D01*
X264100Y78600D02*X267300D01*
X277300Y94800D02*Y91600D01*
X275700Y93200D02*X278900D01*
X264000Y94900D02*Y91700D01*
X262400Y93300D02*X265600D01*
X259800Y95200D02*Y92000D01*
X258200Y93600D02*X261400D01*
X244400Y87000D02*Y83800D01*
X242800Y85400D02*X246000D01*
X312600Y91100D02*Y87900D01*
X311000Y89500D02*X314200D01*
X294500Y84400D02*Y81200D01*
X292900Y82800D02*X296100D01*
X254300Y88500D02*Y85300D01*
X252700Y86900D02*X255900D01*
X299500Y109500D02*Y106300D01*
X297900Y107900D02*X301100D01*
X300700Y134500D02*Y131300D01*
X299100Y132900D02*X302300D01*
X303400Y96300D02*Y93100D01*
X301800Y94700D02*X305000D01*
X272700Y89400D02*Y86200D01*
X271100Y87800D02*X274300D01*
X279100Y90200D02*Y87000D01*
X277500Y88600D02*X280700D01*
X268600Y153400D02*Y150200D01*
X267000Y151800D02*X270200D01*
X272600Y157400D02*Y154200D01*
X271000Y155800D02*X274200D01*
X227700Y102000D02*Y98800D01*
X226100Y100400D02*X229300D01*
X223900Y96300D02*Y93100D01*
X222300Y94700D02*X225500D01*
X218400Y108000D02*Y104800D01*
X216800Y106400D02*X220000D01*
X250100Y95000D02*Y91800D01*
X248500Y93400D02*X251700D01*
X244700Y100000D02*Y96800D01*
X243100Y98400D02*X246300D01*
X256700Y101100D02*Y97900D01*
X255100Y99500D02*X258300D01*
X250800Y124400D02*Y121200D01*
X249200Y122800D02*X252400D01*
X240900Y144800D02*Y141600D01*
X239300Y143200D02*X242500D01*
X288500Y144500D02*Y141300D01*
X286900Y142900D02*X290100D01*
X285900Y147200D02*Y144000D01*
X284300Y145600D02*X287500D01*
X316900Y146000D02*Y142800D01*
X315300Y144400D02*X318500D01*
X312300Y142400D02*Y139200D01*
X310700Y140800D02*X313900D01*
X313100Y133100D02*Y129900D01*
X311500Y131500D02*X314700D01*
X231300Y110100D02*Y106900D01*
X229700Y108500D02*X232900D01*
X238300Y132000D02*Y128800D01*
X236700Y130400D02*X239900D01*
X238300Y124400D02*Y121200D01*
X236700Y122800D02*X239900D01*
X238300Y120300D02*Y117100D01*
X236700Y118700D02*X239900D01*
X238400Y116600D02*Y113400D01*
X236800Y115000D02*X240000D01*
X238400Y112800D02*Y109600D01*
X236800Y111200D02*X240000D01*
X279000Y143700D02*Y140500D01*
X277400Y142100D02*X280600D01*
X279100Y146900D02*Y143700D01*
X277500Y145300D02*X280700D01*
X269800Y94900D02*Y91700D01*
X268200Y93300D02*X271400D01*
X250800Y115300D02*Y112100D01*
X249200Y113700D02*X252400D01*
X257700Y139300D02*Y136100D01*
X256100Y137700D02*X259300D01*
X266000Y139400D02*Y136200D01*
X264400Y137800D02*X267600D01*
X255200Y123800D02*Y120600D01*
X253600Y122200D02*X256800D01*
X267800Y101200D02*Y98000D01*
X266200Y99600D02*X269400D01*
X285400Y139700D02*Y136500D01*
X283800Y138100D02*X287000D01*
X325000Y136900D02*Y133700D01*
X323400Y135300D02*X326600D01*
X300400Y145100D02*Y141900D01*
X298800Y143500D02*X302000D01*
X197800Y35900D02*Y32700D01*
X196200Y34300D02*X199400D01*
X187300Y34000D02*Y30800D01*
X185700Y32400D02*X188900D01*
X193600Y80400D02*Y77200D01*
X192000Y78800D02*X195200D01*
X192100Y87200D02*Y84000D01*
X190500Y85600D02*X193700D01*
X185000Y80300D02*Y77100D01*
X183400Y78700D02*X186600D01*
X185000Y87200D02*Y84000D01*
X183400Y85600D02*X186600D01*
X149300Y38400D02*Y35200D01*
X147700Y36800D02*X150900D01*
X164000Y29700D02*Y26500D01*
X162400Y28100D02*X165600D01*
X182800Y101200D02*Y98000D01*
X181200Y99600D02*X184400D01*
X175800Y95000D02*Y91800D01*
X174200Y93400D02*X177400D01*
X170900Y89700D02*Y86500D01*
X169300Y88100D02*X172500D01*
X170800Y83000D02*Y79800D01*
X169200Y81400D02*X172400D01*
X170600Y86500D02*Y83300D01*
X169000Y84900D02*X172200D01*
X175700Y90800D02*Y87600D01*
X174100Y89200D02*X177300D01*
X269300Y175000D02*Y171800D01*
X267700Y173400D02*X270900D01*
X328200Y206600D02*Y203400D01*
X326600Y205000D02*X329800D01*
X379400Y170400D02*Y167200D01*
X377800Y168800D02*X381000D01*
X376600Y173800D02*Y170600D01*
X375000Y172200D02*X378200D01*
X350700Y162100D02*Y158900D01*
X349100Y160500D02*X352300D01*
X348000Y166200D02*Y163000D01*
X346400Y164600D02*X349600D01*
X345100Y162300D02*Y159100D01*
X343500Y160700D02*X346700D01*
X295700Y89800D02*Y86600D01*
X294100Y88200D02*X297300D01*
X276200Y141800D02*Y138600D01*
X274600Y140200D02*X277800D01*
X237200Y201400D02*Y198200D01*
X235600Y199800D02*X238800D01*
X235100Y206300D02*Y203100D01*
X233500Y204700D02*X236700D01*
X295900Y80400D02*Y77200D01*
X294300Y78800D02*X297500D01*
X278900Y80400D02*Y77200D01*
X277300Y78800D02*X280500D01*
X281100Y95600D02*Y92400D01*
X279500Y94000D02*X282700D01*
X230300Y202400D02*Y199200D01*
X228700Y200800D02*X231900D01*
X230300Y206100D02*Y202900D01*
X228700Y204500D02*X231900D01*
X343200Y182800D02*Y179600D01*
X341600Y181200D02*X344800D01*
X340400Y178500D02*Y175300D01*
X338800Y176900D02*X342000D01*
X341800Y203800D02*Y200600D01*
X340200Y202200D02*X343400D01*
X337600Y203900D02*Y200700D01*
X336000Y202300D02*X339200D01*
X335800Y242500D02*Y239300D01*
X334200Y240900D02*X337400D01*
X340400Y242500D02*Y239300D01*
X338800Y240900D02*X342000D01*
X340800Y207400D02*Y204200D01*
X339200Y205800D02*X342400D01*
X335500Y207100D02*Y203900D01*
X333900Y205500D02*X337100D01*
X330700Y242500D02*Y239300D01*
X329100Y240900D02*X332300D01*
X325700Y242500D02*Y239300D01*
X324100Y240900D02*X327300D01*
X297200Y197600D02*Y194400D01*
X295600Y196000D02*X298800D01*
X349000Y246100D02*Y242900D01*
X347400Y244500D02*X350600D01*
X347300Y249900D02*Y246700D01*
X345700Y248300D02*X348900D01*
X362800Y282500D02*Y279300D01*
X361200Y280900D02*X364400D01*
X357900Y280100D02*Y276900D01*
X356300Y278500D02*X359500D01*
X452500Y181100D02*Y177900D01*
X450900Y179500D02*X454100D01*
X452500Y204100D02*Y200900D01*
X450900Y202500D02*X454100D01*
X387400Y212500D02*Y209300D01*
X385800Y210900D02*X389000D01*
X387000Y220300D02*Y217100D01*
X385400Y218700D02*X388600D01*
X389400Y228400D02*Y225200D01*
X387800Y226800D02*X391000D01*
X382100Y277900D02*Y274700D01*
X380500Y276300D02*X383700D01*
X387000Y271000D02*Y267800D01*
X385400Y269400D02*X388600D01*
X387700Y275700D02*Y272500D01*
X386100Y274100D02*X389300D01*
X177200Y238000D02*Y234800D01*
X175600Y236400D02*X178800D01*
X168600Y242500D02*Y239300D01*
X167000Y240900D02*X170200D01*
X180300Y307600D02*Y304400D01*
X178700Y306000D02*X181900D01*
X180000Y300500D02*Y297300D01*
X178400Y298900D02*X181600D01*
X153700Y294700D02*Y291500D01*
X152100Y293100D02*X155300D01*
X145000Y285600D02*Y282400D01*
X143400Y284000D02*X146600D01*
X146000Y289100D02*Y285900D01*
X144400Y287500D02*X147600D01*
X184000Y303700D02*Y300500D01*
X182400Y302100D02*X185600D01*
X183300Y311500D02*Y308300D01*
X181700Y309900D02*X184900D01*
X146700Y297300D02*Y294100D01*
X145100Y295700D02*X148300D01*
X220300Y278100D02*Y274900D01*
X218700Y276500D02*X221900D01*
X307800Y284700D02*Y281500D01*
X306200Y283100D02*X309400D01*
X307600Y289100D02*Y285900D01*
X306000Y287500D02*X309200D01*
X296900Y284800D02*Y281600D01*
X295300Y283200D02*X298500D01*
X296900Y289100D02*Y285900D01*
X295300Y287500D02*X298500D01*
X447500Y239100D02*Y235900D01*
X445900Y237500D02*X449100D01*
X226500Y351000D02*Y347800D01*
X224900Y349400D02*X228100D01*
X226500Y354800D02*Y351600D01*
X224900Y353200D02*X228100D01*
X226500Y358800D02*Y355600D01*
X224900Y357200D02*X228100D01*
X204200Y351100D02*Y347900D01*
X202600Y349500D02*X205800D01*
X200000Y351000D02*Y347800D01*
X198400Y349400D02*X201600D01*
X202000Y354800D02*Y351600D01*
X200400Y353200D02*X203600D01*
X204300Y358500D02*Y355300D01*
X202700Y356900D02*X205900D01*
X200300Y358500D02*Y355300D01*
X198700Y356900D02*X201900D01*
X267500Y315900D02*Y312700D01*
X265900Y314300D02*X269100D01*
X310300Y295600D02*Y292400D01*
X308700Y294000D02*X311900D01*
X325900Y339400D02*Y336200D01*
X324300Y337800D02*X327500D01*
X335700Y344300D02*Y341100D01*
X334100Y342700D02*X337300D01*
X329000Y344700D02*Y341500D01*
X327400Y343100D02*X330600D01*
X325800Y348600D02*Y345400D01*
X324200Y347000D02*X327400D01*
X333100Y348500D02*Y345300D01*
X331500Y346900D02*X334700D01*
X339400Y348300D02*Y345100D01*
X337800Y346700D02*X341000D01*
X453000Y258600D02*Y255400D01*
X451400Y257000D02*X454600D01*
X348700Y289800D02*Y286600D01*
X347100Y288200D02*X350300D01*
X344000Y289600D02*Y286400D01*
X342400Y288000D02*X345600D01*
X346400Y293100D02*Y289900D01*
X344800Y291500D02*X348000D01*
X348500Y297300D02*Y294100D01*
X346900Y295700D02*X350100D01*
X344300Y297200D02*Y294000D01*
X342700Y295600D02*X345900D01*
X318700Y297100D02*Y293900D01*
X317100Y295500D02*X320300D01*
X320600Y294600D02*Y291400D01*
X319000Y293000D02*X322200D01*
X318600Y292100D02*Y288900D01*
X317000Y290500D02*X320200D01*
X320600Y289800D02*Y286600D01*
X319000Y288200D02*X322200D01*
X245000Y347400D02*Y344200D01*
X243400Y345800D02*X246600D01*
X264400Y334800D02*Y331600D01*
X262800Y333200D02*X266000D01*
X248900Y338600D02*Y335400D01*
X247300Y337000D02*X250500D01*
X243900Y338400D02*Y335200D01*
X242300Y336800D02*X245500D01*
X253300Y299400D02*Y296200D01*
X251700Y297800D02*X254900D01*
X241700Y343800D02*Y340600D01*
X240100Y342200D02*X243300D01*
X236300Y344600D02*Y341400D01*
X234700Y343000D02*X237900D01*
X240100Y348400D02*Y345200D01*
X238500Y346800D02*X241700D01*
X232800Y348300D02*Y345100D01*
X231200Y346700D02*X234400D01*
X294200Y354900D02*Y351700D01*
X292600Y353300D02*X295800D01*
X290400Y354900D02*Y351700D01*
X288800Y353300D02*X292000D01*
X286700Y354900D02*Y351700D01*
X285100Y353300D02*X288300D01*
X283100Y355000D02*Y351800D01*
X281500Y353400D02*X284700D01*
X279500Y355000D02*Y351800D01*
X277900Y353400D02*X281100D01*
X291300Y358400D02*Y355200D01*
X289700Y356800D02*X292900D01*
X287600Y358700D02*Y355500D01*
X286000Y357100D02*X289200D01*
X284100Y358800D02*Y355600D01*
X282500Y357200D02*X285700D01*
X280600Y358500D02*Y355300D01*
X279000Y356900D02*X282200D01*
X282700Y307100D02*Y303900D01*
X281100Y305500D02*X284300D01*
X289100Y306900D02*Y303700D01*
X287500Y305300D02*X290700D01*
X271500Y326600D02*Y323400D01*
X269900Y325000D02*X273100D01*
X290200Y298500D02*Y295300D01*
X288600Y296900D02*X291800D01*
X276600Y296800D02*Y293600D01*
X275000Y295200D02*X278200D01*
X292300Y307200D02*Y304000D01*
X290700Y305600D02*X293900D01*
X279500Y307400D02*Y304200D01*
X277900Y305800D02*X281100D01*
X302400Y316200D02*Y313000D01*
X300800Y314600D02*X304000D01*
X302000Y335200D02*Y332000D01*
X300400Y333600D02*X303600D01*
X288100Y332400D02*Y329200D01*
X286500Y330800D02*X289700D01*
X283700Y332400D02*Y329200D01*
X282100Y330800D02*X285300D01*
X285900Y329500D02*Y326300D01*
X284300Y327900D02*X287500D01*
X255300Y134500D02*Y131300D01*
X253700Y132900D02*X256900D01*
X257300Y126300D02*Y123100D01*
X255700Y124700D02*X258900D01*
X166900Y77700D02*Y74500D01*
X165300Y76100D02*X168500D01*
X158000Y114900D02*Y111700D01*
X156400Y113300D02*X159600D01*
X153400Y110900D02*Y107700D01*
X151800Y109300D02*X155000D01*
X169200Y107600D02*Y104400D01*
X167600Y106000D02*X170800D01*
X156400Y100100D02*Y96900D01*
X154800Y98500D02*X158000D01*
X114400Y102100D02*Y98900D01*
X112800Y100500D02*X116000D01*
X121200Y98700D02*Y95500D01*
X119600Y97100D02*X122800D01*
X118000Y108900D02*Y105700D01*
X116400Y107300D02*X119600D01*
X139100Y214900D02*Y211700D01*
X137500Y213300D02*X140700D01*
X86000Y89100D02*Y85900D01*
X84400Y87500D02*X87600D01*
X101100Y88700D02*Y85500D01*
X99500Y87100D02*X102700D01*
X80100Y92500D02*Y89300D01*
X78500Y90900D02*X81700D01*
X80100Y95800D02*Y92600D01*
X78500Y94200D02*X81700D01*
X86200Y98300D02*Y95100D01*
X84600Y96700D02*X87800D01*
X86000Y86200D02*Y83000D01*
X84400Y84600D02*X87600D01*
X283500Y198300D02*Y195100D01*
X281900Y196700D02*X285100D01*
X283400Y202300D02*Y199100D01*
X281800Y200700D02*X285000D01*
X282100Y211700D02*Y208500D01*
X280500Y210100D02*X283700D01*
X279100Y194800D02*Y191600D01*
X277500Y193200D02*X280700D01*
X192000Y188900D02*Y185700D01*
X190400Y187300D02*X193600D01*
X192000Y183700D02*Y180500D01*
X190400Y182100D02*X193600D01*
X80000Y66000D02*Y62800D01*
X78400Y64400D02*X81600D01*
X80000Y80000D02*Y76800D01*
X78400Y78400D02*X81600D01*
X80000Y83200D02*Y80000D01*
X78400Y81600D02*X81600D01*
X101200Y76200D02*Y73000D01*
X99600Y74600D02*X102800D01*
X86200Y76900D02*Y73700D01*
X84600Y75300D02*X87800D01*
X85800Y69000D02*Y65800D01*
X84200Y67400D02*X87400D01*
X80000Y62752D02*Y59552D01*
X78400Y61152D02*X81600D01*
X101300Y60000D02*Y56800D01*
X99700Y58400D02*X102900D01*
X85800Y59800D02*Y56600D01*
X84200Y58200D02*X87400D01*
X133200Y38900D02*Y35700D01*
X131600Y37300D02*X134800D01*
X128400Y39200D02*Y36000D01*
X126800Y37600D02*X130000D01*
X128400Y54100D02*Y50900D01*
X126800Y52500D02*X130000D01*
X131900Y54000D02*Y50800D01*
X130300Y52400D02*X133500D01*
X146726Y54100D02*Y50900D01*
X145126Y52500D02*X148326D01*
X146600Y44800D02*Y41600D01*
X145000Y43200D02*X148200D01*
X167600Y82400D02*Y79200D01*
X166000Y80800D02*X169200D01*
X167200Y71700D02*Y68500D01*
X165600Y70100D02*X168800D01*
X168100Y65300D02*Y62100D01*
X166500Y63700D02*X169700D01*
X155700Y54600D02*Y51400D01*
X154100Y53000D02*X157300D01*
X121100Y75000D02*Y71800D01*
X119500Y73400D02*X122700D01*
X115400Y78100D02*Y74900D01*
X113800Y76500D02*X117000D01*
X131600Y115600D02*Y112400D01*
X130000Y114000D02*X133200D01*
X161400Y123100D02*Y119900D01*
X159800Y121500D02*X163000D01*
X161500Y144100D02*Y140900D01*
X159900Y142500D02*X163100D01*
X132100Y151700D02*Y148500D01*
X130500Y150100D02*X133700D01*
X125200Y148500D02*Y145300D01*
X123600Y146900D02*X126800D01*
X161900Y207300D02*Y204100D01*
X160300Y205700D02*X163500D01*
X162200Y185700D02*Y182500D01*
X160600Y184100D02*X163800D01*
X131900Y178600D02*Y175400D01*
X130300Y177000D02*X133500D01*
X125200Y211800D02*Y208600D01*
X123600Y210200D02*X126800D01*
X120600Y220600D02*Y217400D01*
X119000Y219000D02*X122200D01*
X112000Y282300D02*Y279100D01*
X110400Y280700D02*X113600D01*
X132200Y282600D02*Y279400D01*
X130600Y281000D02*X133800D01*
X161700Y270300D02*Y267100D01*
X160100Y268700D02*X163300D01*
X161700Y249000D02*Y245800D01*
X160100Y247400D02*X163300D01*
X131700Y241500D02*Y238300D01*
X130100Y239900D02*X133300D01*
X124900Y245800D02*Y242600D01*
X123300Y244200D02*X126500D01*
X125000Y274500D02*Y271300D01*
X123400Y272900D02*X126600D01*
X132000Y276700D02*Y273500D01*
X130400Y275100D02*X133600D01*
X120900Y338000D02*Y334800D01*
X119300Y336400D02*X122500D01*
X161100Y333300D02*Y330100D01*
X159500Y331700D02*X162700D01*
X161300Y312100D02*Y308900D01*
X159700Y310500D02*X162900D01*
X131800Y340600D02*Y337400D01*
X130200Y339000D02*X133400D01*
X131500Y304600D02*Y301400D01*
X129900Y303000D02*X133100D01*
X125100Y308800D02*Y305600D01*
X123500Y307200D02*X126700D01*
X125200Y337800D02*Y334600D01*
X123600Y336200D02*X126800D01*
X111200Y345700D02*Y342500D01*
X109600Y344100D02*X112800D01*
X264800Y193100D02*Y189900D01*
X263200Y191500D02*X266400D01*
X231500Y266300D02*Y263100D01*
X229900Y264700D02*X233100D01*
X284600Y228800D02*Y225600D01*
X283000Y227200D02*X286200D01*
X284600Y232000D02*Y228800D01*
X283000Y230400D02*X286200D01*
X284600Y236100D02*Y232900D01*
X283000Y234500D02*X286200D01*
X284500Y240500D02*Y237300D01*
X282900Y238900D02*X286100D01*
X284500Y254200D02*Y251000D01*
X282900Y252600D02*X286100D01*
X282700Y257600D02*Y254400D01*
X281100Y256000D02*X284300D01*
X283800Y216600D02*Y213400D01*
X282200Y215000D02*X285400D01*
X284000Y220700D02*Y217500D01*
X282400Y219100D02*X285600D01*
X282700Y246900D02*Y243700D01*
X281100Y245300D02*X284300D01*
X263400Y263700D02*Y260500D01*
X261800Y262100D02*X265000D01*
X257000Y266500D02*Y263300D01*
X255400Y264900D02*X258600D01*
X251300Y266600D02*Y263400D01*
X249700Y265000D02*X252900D01*
X243000Y266400D02*Y263200D01*
X241400Y264800D02*X244600D01*
X254100D02*Y261600D01*
X252500Y263200D02*X255700D01*
X258000Y195600D02*Y192400D01*
X256400Y194000D02*X259600D01*
X255100Y195600D02*Y192400D01*
X253500Y194000D02*X256700D01*
X245500Y193300D02*Y190100D01*
X243900Y191700D02*X247100D01*
X223400Y193300D02*Y190100D01*
X221800Y191700D02*X225000D01*
X228800Y195200D02*Y192000D01*
X227200Y193600D02*X230400D01*
X212000Y200400D02*Y197200D01*
X210400Y198800D02*X213600D01*
X211800Y195200D02*Y192000D01*
X210200Y193600D02*X213400D01*
X211800Y205000D02*Y201800D01*
X210200Y203400D02*X213400D01*
X213600Y219900D02*Y216700D01*
X212000Y218300D02*X215200D01*
X211800Y226300D02*Y223100D01*
X210200Y224700D02*X213400D01*
X211800Y230900D02*Y227700D01*
X210200Y229300D02*X213400D01*
X213700Y234500D02*Y231300D01*
X212100Y232900D02*X215300D01*
X237200Y263700D02*Y260500D01*
X235600Y262100D02*X238800D01*
X217000Y245500D02*Y242300D01*
X215400Y243900D02*X218600D01*
X213800Y245500D02*Y242300D01*
X212200Y243900D02*X215400D01*
X217000Y251600D02*Y248400D01*
X215400Y250000D02*X218600D01*
X213800Y251600D02*Y248400D01*
X212200Y250000D02*X215400D01*
X222100Y263700D02*Y260500D01*
X220500Y262100D02*X223700D01*
X218700Y263700D02*Y260500D01*
X217100Y262100D02*X220300D01*
X211700Y261300D02*Y258100D01*
X210100Y259700D02*X213300D01*
X211700Y258100D02*Y254900D01*
X210100Y256500D02*X213300D01*
X295800Y116800D02*Y113600D01*
X294200Y115200D02*X297400D01*
X295900Y127400D02*Y124200D01*
X294300Y125800D02*X297500D01*
X291900Y107500D02*Y104300D01*
X290300Y105900D02*X293500D01*
X292100Y137000D02*Y133800D01*
X290500Y135400D02*X293700D01*
X59500Y126800D02*Y123600D01*
X57900Y125200D02*X61100D01*
X47600Y126800D02*Y123600D01*
X46000Y125200D02*X49200D01*
X28400Y181700D02*Y178500D01*
X26800Y180100D02*X30000D01*
X61300Y282800D02*Y279600D01*
X59700Y281200D02*X62900D01*
X56600Y250500D02*Y247300D01*
X55000Y248900D02*X58200D01*
X52600Y250500D02*Y247300D01*
X51000Y248900D02*X54200D01*
X28300Y245700D02*Y242500D01*
X26700Y244100D02*X29900D01*
X28400Y250700D02*Y247500D01*
X26800Y249100D02*X30000D01*
X57800Y272400D02*Y269200D01*
X56200Y270800D02*X59400D01*
X27500Y308600D02*Y305400D01*
X25900Y307000D02*X29100D01*
X116500Y336600D02*Y333400D01*
X114900Y335000D02*X118100D01*
X113000Y206100D02*Y202900D01*
X111400Y204500D02*X114600D01*
X113000Y269100D02*Y265900D01*
X111400Y267500D02*X114600D01*
X46000Y189600D02*Y186400D01*
X44400Y188000D02*X47600D01*
X52700Y186600D02*Y183400D01*
X51100Y185000D02*X54300D01*
X28300Y186600D02*Y183400D01*
X26700Y185000D02*X29900D01*
X46000Y253600D02*Y250400D01*
X44400Y252000D02*X47600D01*
X46500Y316600D02*Y313400D01*
X44900Y315000D02*X48100D01*
X52500Y313600D02*Y310400D01*
X50900Y312000D02*X54100D01*
X27500Y314100D02*Y310900D01*
X25900Y312500D02*X29100D01*
X112500Y331600D02*Y328400D01*
X110900Y330000D02*X114100D01*
X3100Y120500D02*Y117300D01*
X1500Y118900D02*X4700D01*
X16100Y120500D02*Y117300D01*
X14500Y118900D02*X17700D01*
X9600Y120500D02*Y117300D01*
X8000Y118900D02*X11200D01*
X3100Y113000D02*Y109800D01*
X1500Y111400D02*X4700D01*
X16100Y113000D02*Y109800D01*
X14500Y111400D02*X17700D01*
X9600Y113000D02*Y109800D01*
X8000Y111400D02*X11200D01*
X3500Y154100D02*Y150900D01*
X1900Y152500D02*X5100D01*
X16500Y154100D02*Y150900D01*
X14900Y152500D02*X18100D01*
X10000Y154100D02*Y150900D01*
X8400Y152500D02*X11600D01*
X3500Y146600D02*Y143400D01*
X1900Y145000D02*X5100D01*
X16500Y146600D02*Y143400D01*
X14900Y145000D02*X18100D01*
X10000Y146600D02*Y143400D01*
X8400Y145000D02*X11600D01*
X3100Y57500D02*Y54300D01*
X1500Y55900D02*X4700D01*
X16100Y57500D02*Y54300D01*
X14500Y55900D02*X17700D01*
X9600Y57500D02*Y54300D01*
X8000Y55900D02*X11200D01*
X3100Y50000D02*Y46800D01*
X1500Y48400D02*X4700D01*
X16100Y50000D02*Y46800D01*
X14500Y48400D02*X17700D01*
X9600Y50000D02*Y46800D01*
X8000Y48400D02*X11200D01*
X3500Y91100D02*Y87900D01*
X1900Y89500D02*X5100D01*
X16500Y91100D02*Y87900D01*
X14900Y89500D02*X18100D01*
X10000Y91100D02*Y87900D01*
X8400Y89500D02*X11600D01*
X3500Y83600D02*Y80400D01*
X1900Y82000D02*X5100D01*
X16500Y83600D02*Y80400D01*
X14900Y82000D02*X18100D01*
X10000Y83600D02*Y80400D01*
X8400Y82000D02*X11600D01*
X3500Y309600D02*Y306400D01*
X1900Y308000D02*X5100D01*
X16500Y309600D02*Y306400D01*
X14900Y308000D02*X18100D01*
X10000Y309600D02*Y306400D01*
X8400Y308000D02*X11600D01*
X3500Y302100D02*Y298900D01*
X1900Y300500D02*X5100D01*
X16500Y302100D02*Y298900D01*
X14900Y300500D02*X18100D01*
X10000Y302100D02*Y298900D01*
X8400Y300500D02*X11600D01*
X3900Y343200D02*Y340000D01*
X2300Y341600D02*X5500D01*
X16900Y343200D02*Y340000D01*
X15300Y341600D02*X18500D01*
X10400Y343200D02*Y340000D01*
X8800Y341600D02*X12000D01*
X3900Y335700D02*Y332500D01*
X2300Y334100D02*X5500D01*
X16900Y335700D02*Y332500D01*
X15300Y334100D02*X18500D01*
X10400Y335700D02*Y332500D01*
X8800Y334100D02*X12000D01*
X3100Y246500D02*Y243300D01*
X1500Y244900D02*X4700D01*
X16100Y246500D02*Y243300D01*
X14500Y244900D02*X17700D01*
X9600Y246500D02*Y243300D01*
X8000Y244900D02*X11200D01*
X3100Y239000D02*Y235800D01*
X1500Y237400D02*X4700D01*
X16100Y239000D02*Y235800D01*
X14500Y237400D02*X17700D01*
X9600Y239000D02*Y235800D01*
X8000Y237400D02*X11200D01*
X3500Y280100D02*Y276900D01*
X1900Y278500D02*X5100D01*
X16500Y280100D02*Y276900D01*
X14900Y278500D02*X18100D01*
X10000Y280100D02*Y276900D01*
X8400Y278500D02*X11600D01*
X3500Y272600D02*Y269400D01*
X1900Y271000D02*X5100D01*
X16500Y272600D02*Y269400D01*
X14900Y271000D02*X18100D01*
X10000Y272600D02*Y269400D01*
X8400Y271000D02*X11600D01*
X3100Y183500D02*Y180300D01*
X1500Y181900D02*X4700D01*
X16100Y183500D02*Y180300D01*
X14500Y181900D02*X17700D01*
X9600Y183500D02*Y180300D01*
X8000Y181900D02*X11200D01*
X3100Y176000D02*Y172800D01*
X1500Y174400D02*X4700D01*
X16100Y176000D02*Y172800D01*
X14500Y174400D02*X17700D01*
X9600Y176000D02*Y172800D01*
X8000Y174400D02*X11200D01*
X3500Y217100D02*Y213900D01*
X1900Y215500D02*X5100D01*
X16500Y217100D02*Y213900D01*
X14900Y215500D02*X18100D01*
X10000Y217100D02*Y213900D01*
X8400Y215500D02*X11600D01*
X3500Y209600D02*Y206400D01*
X1900Y208000D02*X5100D01*
X16500Y209600D02*Y206400D01*
X14900Y208000D02*X18100D01*
X10000Y209600D02*Y206400D01*
X8400Y208000D02*X11600D01*
X178900Y97200D02*Y94000D01*
X177300Y95600D02*X180500D01*
X174300Y87400D02*Y84200D01*
X172700Y85800D02*X175900D01*
X176300Y77400D02*Y74200D01*
X174700Y75800D02*X177900D01*
X295700Y201300D02*Y198100D01*
X294100Y199700D02*X297300D01*
X139600Y348600D02*Y345400D01*
X138000Y347000D02*X141200D01*
X136700Y340600D02*Y337400D01*
X135100Y339000D02*X138300D01*
X135400Y343900D02*Y340700D01*
X133800Y342300D02*X137000D01*
X95100Y346000D02*Y342800D01*
X93500Y344400D02*X96700D01*
X92700Y348700D02*Y345500D01*
X91100Y347100D02*X94300D01*
X70200Y304500D02*Y301300D01*
X68600Y302900D02*X71800D01*
X261200Y286900D02*Y283700D01*
X259600Y285300D02*X262800D01*
X263800Y284200D02*Y281000D01*
X262200Y282600D02*X265400D01*
X263100Y279600D02*Y276400D01*
X261500Y278000D02*X264700D01*
X263000Y276200D02*Y273000D01*
X261400Y274600D02*X264600D01*
X241700Y251700D02*Y248500D01*
X240100Y250100D02*X243300D01*
X238600Y251800D02*Y248600D01*
X237000Y250200D02*X240200D01*
X228500Y260300D02*Y257100D01*
X226900Y258700D02*X230100D01*
X206800Y270700D02*Y267500D01*
X205200Y269100D02*X208400D01*
X208600Y273600D02*Y270400D01*
X207000Y272000D02*X210200D01*
X134300Y280100D02*Y276900D01*
X132700Y278500D02*X135900D01*
X137800Y280600D02*Y277400D01*
X136200Y279000D02*X139400D01*
X140600Y278300D02*Y275100D01*
X139000Y276700D02*X142200D01*
X76000Y287100D02*Y283900D01*
X74400Y285500D02*X77600D01*
X70000Y241600D02*Y238400D01*
X68400Y240000D02*X71600D01*
X163500Y235600D02*Y232400D01*
X161900Y234000D02*X165100D01*
X199400Y237500D02*Y234300D01*
X197800Y235900D02*X201000D01*
X196900Y240100D02*Y236900D01*
X195300Y238500D02*X198500D01*
X159400Y237000D02*Y233800D01*
X157800Y235400D02*X161000D01*
X155300Y236900D02*Y233700D01*
X153700Y235300D02*X156900D01*
X161900Y244900D02*Y241700D01*
X160300Y243300D02*X163500D01*
X138900Y235200D02*Y232000D01*
X137300Y233600D02*X140500D01*
X193900Y200800D02*Y197600D01*
X192300Y199200D02*X195500D01*
X197400Y202300D02*Y199100D01*
X195800Y200700D02*X199000D01*
X200000Y204600D02*Y201400D01*
X198400Y203000D02*X201600D01*
X158700Y173900D02*Y170700D01*
X157100Y172300D02*X160300D01*
X154500Y176300D02*Y173100D01*
X152900Y174700D02*X156100D01*
X161800Y181300D02*Y178100D01*
X160200Y179700D02*X163400D01*
X140900Y151900D02*Y148700D01*
X139300Y150300D02*X142500D01*
X143500Y175300D02*Y172100D01*
X141900Y173700D02*X145100D01*
X275000Y289500D02*Y286300D01*
X273400Y287900D02*X276600D01*
X209000Y281700D02*Y278500D01*
X207400Y280100D02*X210600D01*
X183800Y238700D02*Y235500D01*
X182200Y237100D02*X185400D01*
X184100Y200100D02*Y196900D01*
X182500Y198500D02*X185700D01*
X74102Y160508D02*Y157308D01*
X72502Y158908D02*X75702D01*
X70200Y178700D02*Y175500D01*
X68600Y177100D02*X71800D01*
X184100Y241900D02*Y238700D01*
X182500Y240300D02*X185700D01*
X295700Y192500D02*Y189300D01*
X294100Y190900D02*X297300D01*
X284400Y179300D02*Y176100D01*
X282800Y177700D02*X286000D01*
X272500Y179100D02*Y175900D01*
X270900Y177500D02*X274100D01*
X331200Y189400D02*Y186200D01*
X329600Y187800D02*X332800D01*
X269000Y193000D02*Y189800D01*
X267400Y191400D02*X270600D01*
X192000Y193200D02*Y190000D01*
X190400Y191600D02*X193600D01*
X273900Y249700D02*Y246500D01*
X272300Y248100D02*X275500D01*
X271300Y246900D02*Y243700D01*
X269700Y245300D02*X272900D01*
X268300Y249900D02*Y246700D01*
X266700Y248300D02*X269900D01*
X271300Y252800D02*Y249600D01*
X269700Y251200D02*X272900D01*
X273800Y255700D02*Y252500D01*
X272200Y254100D02*X275400D01*
X268600Y255500D02*Y252300D01*
X267000Y253900D02*X270200D01*
X251300Y214300D02*Y211100D01*
X249700Y212700D02*X252900D01*
X246300Y214300D02*Y211100D01*
X244700Y212700D02*X247900D01*
X227600Y237800D02*Y234600D01*
X226000Y236200D02*X229200D01*
X279000Y257600D02*Y254400D01*
X277400Y256000D02*X280600D01*
X278900Y246900D02*Y243700D01*
X277300Y245300D02*X280500D01*
X249400Y254500D02*Y251300D01*
X247800Y252900D02*X251000D01*
X218700Y260400D02*Y257200D01*
X217100Y258800D02*X220300D01*
X222100Y260500D02*Y257300D01*
X220500Y258900D02*X223700D01*
X237200Y260500D02*Y257300D01*
X235600Y258900D02*X238800D01*
X263400Y260500D02*Y257300D01*
X261800Y258900D02*X265000D01*
X245000Y206700D02*Y203500D01*
X243400Y205100D02*X246600D01*
X241600Y206700D02*Y203500D01*
X240000Y205100D02*X243200D01*
X273600Y222400D02*Y219200D01*
X272000Y220800D02*X275200D01*
X278600Y239000D02*Y235800D01*
X277000Y237400D02*X280200D01*
X278900Y211800D02*Y208600D01*
X277300Y210200D02*X280500D01*
X267100Y218500D02*Y215300D01*
X265500Y216900D02*X268700D01*
X269500Y229200D02*Y226000D01*
X267900Y227600D02*X271100D01*
X273100Y229200D02*Y226000D01*
X271500Y227600D02*X274700D01*
X258000Y198800D02*Y195600D01*
X256400Y197200D02*X259600D01*
X255100Y198800D02*Y195600D01*
X253500Y197200D02*X256700D01*
X266600Y199800D02*Y196600D01*
X265000Y198200D02*X268200D01*
X228800Y199000D02*Y195800D01*
X227200Y197400D02*X230400D01*
X226800Y213600D02*Y210400D01*
X225200Y212000D02*X228400D01*
X223600Y213600D02*Y210400D01*
X222000Y212000D02*X225200D01*
X226800Y225800D02*Y222600D01*
X225200Y224200D02*X228400D01*
X223500Y225800D02*Y222600D01*
X221900Y224200D02*X225100D01*
X222100Y205000D02*Y201800D01*
X220500Y203400D02*X223700D01*
X217300Y220000D02*Y216800D01*
X215700Y218400D02*X218900D01*
X217300Y234500D02*Y231300D01*
X215700Y232900D02*X218900D01*
X121700Y80300D02*Y77100D01*
X120100Y78700D02*X123300D01*
X115200Y70700D02*Y67500D01*
X113600Y69100D02*X116800D01*
X119800Y69700D02*Y66500D01*
X118200Y68100D02*X121400D01*
X119800Y58600D02*Y55400D01*
X118200Y57000D02*X121400D01*
X97800Y52300D02*Y49100D01*
X96200Y50700D02*X99400D01*
X113900Y52500D02*Y49300D01*
X112300Y50900D02*X115500D01*
X134100Y100200D02*Y97000D01*
X132500Y98600D02*X135700D01*
X146600Y100000D02*Y96800D01*
X145000Y98400D02*X148200D01*
X136100Y47500D02*Y44300D01*
X134500Y45900D02*X137700D01*
X125300Y47600D02*Y44400D01*
X123700Y46000D02*X126900D01*
X143200Y53800D02*Y50600D01*
X141600Y52200D02*X144800D01*
X141000Y102600D02*Y99400D01*
X139400Y101000D02*X142600D01*
X134000Y103400D02*Y100200D01*
X132400Y101800D02*X135600D01*
X146500Y103400D02*Y100200D01*
X144900Y101800D02*X148100D01*
X137400Y106000D02*Y102800D01*
X135800Y104400D02*X139000D01*
X109800Y134900D02*Y131700D01*
X108200Y133300D02*X111400D01*
X109700Y123700D02*Y120500D01*
X108100Y122100D02*X111300D01*
X105400Y123700D02*Y120500D01*
X103800Y122100D02*X107000D01*
X105900Y135200D02*Y132000D01*
X104300Y133600D02*X107500D01*
X115700Y134400D02*Y131200D01*
X114100Y132800D02*X117300D01*
X125500Y131500D02*Y128300D01*
X123900Y129900D02*X127100D01*
X125500Y136100D02*Y132900D01*
X123900Y134500D02*X127100D01*
X135100Y158100D02*Y154900D01*
X133500Y156500D02*X136700D01*
X167800Y141000D02*Y137800D01*
X166200Y139400D02*X169400D01*
X167500Y126200D02*Y123000D01*
X165900Y124600D02*X169100D01*
X135400Y109200D02*Y106000D01*
X133800Y107600D02*X137000D01*
X124900Y110400D02*Y107200D01*
X123300Y108800D02*X126500D01*
X125100Y157900D02*Y154700D01*
X123500Y156300D02*X126700D01*
X120800Y148300D02*Y145100D01*
X119200Y146700D02*X122400D01*
X144000Y115400D02*Y112200D01*
X142400Y113800D02*X145600D01*
X140800Y115500D02*Y112300D01*
X139200Y113900D02*X142400D01*
X134800Y115400D02*Y112200D01*
X133200Y113800D02*X136400D01*
X120300Y120400D02*Y117200D01*
X118700Y118800D02*X121900D01*
X151400Y100200D02*Y97000D01*
X149800Y98600D02*X153000D01*
X151200Y103500D02*Y100300D01*
X149600Y101900D02*X152800D01*
X171100Y59700D02*Y56500D01*
X169500Y58100D02*X172700D01*
X152900Y48300D02*Y45100D01*
X151300Y46700D02*X154500D01*
X157000Y109300D02*Y106100D01*
X155400Y107700D02*X158600D01*
X176300Y74000D02*Y70800D01*
X174700Y72400D02*X177900D01*
X178000Y70200D02*Y67000D01*
X176400Y68600D02*X179600D01*
X185500Y73300D02*Y70100D01*
X183900Y71700D02*X187100D01*
X64000Y324600D02*Y321400D01*
X62400Y323000D02*X65600D01*
X48500Y325300D02*Y322100D01*
X46900Y323700D02*X50100D01*
X49000Y328600D02*Y325400D01*
X47400Y327000D02*X50600D01*
X84500Y317600D02*Y314400D01*
X82900Y316000D02*X86100D01*
X84500Y314800D02*Y311600D01*
X82900Y313200D02*X86100D01*
X99400Y337200D02*Y334000D01*
X97800Y335600D02*X101000D01*
X90900Y337200D02*Y334000D01*
X89300Y335600D02*X92500D01*
X113600Y316600D02*Y313400D01*
X112000Y315000D02*X115200D01*
X64700Y345500D02*Y342300D01*
X63100Y343900D02*X66300D01*
X61300Y345500D02*Y342300D01*
X59700Y343900D02*X62900D01*
X38500Y316200D02*Y313000D01*
X36900Y314600D02*X40100D01*
X41500Y319100D02*Y315900D01*
X39900Y317500D02*X43100D01*
X35500Y319100D02*Y315900D01*
X33900Y317500D02*X37100D01*
X84500Y326500D02*Y323300D01*
X82900Y324900D02*X86100D01*
X84500Y330100D02*Y326900D01*
X82900Y328500D02*X86100D01*
X84500Y333400D02*Y330200D01*
X82900Y331800D02*X86100D01*
X107400Y296400D02*Y293200D01*
X105800Y294800D02*X109000D01*
X111600Y296200D02*Y293000D01*
X110000Y294600D02*X113200D01*
X56400Y313700D02*Y310500D01*
X54800Y312100D02*X58000D01*
X81500Y339100D02*Y335900D01*
X79900Y337500D02*X83100D01*
X115800Y306300D02*Y303100D01*
X114200Y304700D02*X117400D01*
X105600Y341400D02*Y338200D01*
X104000Y339800D02*X107200D01*
X96500Y308500D02*Y305300D01*
X94900Y306900D02*X98100D01*
X99600Y308500D02*Y305300D01*
X98000Y306900D02*X101200D01*
X88100Y305000D02*Y301800D01*
X86500Y303400D02*X89700D01*
X84000Y305000D02*Y301800D01*
X82400Y303400D02*X85600D01*
X80800Y311500D02*Y308300D01*
X79200Y309900D02*X82400D01*
X74400Y304900D02*Y301700D01*
X72800Y303300D02*X76000D01*
X105500Y299500D02*Y296300D01*
X103900Y297900D02*X107100D01*
X104700Y295300D02*Y292100D01*
X103100Y293700D02*X106300D01*
X87400Y298800D02*Y295600D01*
X85800Y297200D02*X89000D01*
X91200Y295200D02*Y292000D01*
X89600Y293600D02*X92800D01*
X120400Y309500D02*Y306300D01*
X118800Y307900D02*X122000D01*
X134900Y304500D02*Y301300D01*
X133300Y302900D02*X136500D01*
X140800Y304600D02*Y301400D01*
X139200Y303000D02*X142400D01*
X143900Y304500D02*Y301300D01*
X142300Y302900D02*X145500D01*
X125100Y347100D02*Y343900D01*
X123500Y345500D02*X126700D01*
X124900Y299500D02*Y296300D01*
X123300Y297900D02*X126500D01*
X135500Y298300D02*Y295100D01*
X133900Y296700D02*X137100D01*
X167600Y315300D02*Y312100D01*
X166000Y313700D02*X169200D01*
X167400Y330300D02*Y327100D01*
X165800Y328700D02*X169000D01*
X135200Y347200D02*Y344000D01*
X133600Y345600D02*X136800D01*
X125600Y325200D02*Y322000D01*
X124000Y323600D02*X127200D01*
X125600Y320600D02*Y317400D01*
X124000Y319000D02*X127200D01*
X115800Y323600D02*Y320400D01*
X114200Y322000D02*X117400D01*
X63900Y261500D02*Y258300D01*
X62300Y259900D02*X65500D01*
X47900Y262400D02*Y259200D01*
X46300Y260800D02*X49500D01*
X48900Y265500D02*Y262300D01*
X47300Y263900D02*X50500D01*
X70400Y268700D02*Y265500D01*
X68800Y267100D02*X72000D01*
X84400Y254500D02*Y251300D01*
X82800Y252900D02*X86000D01*
X84400Y251600D02*Y248400D01*
X82800Y250000D02*X86000D01*
X99300Y274100D02*Y270900D01*
X97700Y272500D02*X100900D01*
X90800Y274100D02*Y270900D01*
X89200Y272500D02*X92400D01*
X113100Y253200D02*Y250000D01*
X111500Y251600D02*X114700D01*
X64400Y283000D02*Y279800D01*
X62800Y281400D02*X66000D01*
X64400Y272100D02*Y268900D01*
X62800Y270500D02*X66000D01*
X84400Y263400D02*Y260200D01*
X82800Y261800D02*X86000D01*
X84400Y267000D02*Y263800D01*
X82800Y265400D02*X86000D01*
X84400Y270300D02*Y267100D01*
X82800Y268700D02*X86000D01*
X107900Y233000D02*Y229800D01*
X106300Y231400D02*X109500D01*
X111600Y232900D02*Y229700D01*
X110000Y231300D02*X113200D01*
X81200Y277200D02*Y274000D01*
X79600Y275600D02*X82800D01*
X115500Y243400D02*Y240200D01*
X113900Y241800D02*X117100D01*
X105900Y278500D02*Y275300D01*
X104300Y276900D02*X107500D01*
X96400Y245400D02*Y242200D01*
X94800Y243800D02*X98000D01*
X99500Y245400D02*Y242200D01*
X97900Y243800D02*X101100D01*
X104100Y246100D02*Y242900D01*
X102500Y244500D02*X105700D01*
X88000Y241900D02*Y238700D01*
X86400Y240300D02*X89600D01*
X84000Y242300D02*Y239100D01*
X82400Y240700D02*X85600D01*
X80500Y248500D02*Y245300D01*
X78900Y246900D02*X82100D01*
X105600Y236500D02*Y233300D01*
X104000Y234900D02*X107200D01*
X104900Y231900D02*Y228700D01*
X103300Y230300D02*X106500D01*
X87300Y235700D02*Y232500D01*
X85700Y234100D02*X88900D01*
X90600Y232500D02*Y229300D01*
X89000Y230900D02*X92200D01*
X120300Y246400D02*Y243200D01*
X118700Y244800D02*X121900D01*
X134800Y241400D02*Y238200D01*
X133200Y239800D02*X136400D01*
X140800Y241500D02*Y238300D01*
X139200Y239900D02*X142400D01*
X144000Y241400D02*Y238200D01*
X142400Y239800D02*X145600D01*
X122100Y280100D02*Y276900D01*
X120500Y278500D02*X123700D01*
X124900Y236200D02*Y233000D01*
X123300Y234600D02*X126500D01*
X134474Y235174D02*Y231974D01*
X132874Y233574D02*X136074D01*
X167500Y252200D02*Y249000D01*
X165900Y250600D02*X169100D01*
X167300Y267200D02*Y264000D01*
X165700Y265600D02*X168900D01*
X125500Y262100D02*Y258900D01*
X123900Y260500D02*X127100D01*
X125500Y257500D02*Y254300D01*
X123900Y255900D02*X127100D01*
X115600Y260500D02*Y257300D01*
X114000Y258900D02*X117200D01*
X64000Y198500D02*Y195300D01*
X62400Y196900D02*X65600D01*
X48000Y199400D02*Y196200D01*
X46400Y197800D02*X49600D01*
X49000Y202500D02*Y199300D01*
X47400Y200900D02*X50600D01*
X70500Y205700D02*Y202500D01*
X68900Y204100D02*X72100D01*
X84500Y191500D02*Y188300D01*
X82900Y189900D02*X86100D01*
X84500Y188500D02*Y185300D01*
X82900Y186900D02*X86100D01*
X99400Y211100D02*Y207900D01*
X97800Y209500D02*X101000D01*
X90900Y211100D02*Y207900D01*
X89300Y209500D02*X92500D01*
X113200Y190200D02*Y187000D01*
X111600Y188600D02*X114800D01*
X64500Y220000D02*Y216800D01*
X62900Y218400D02*X66100D01*
X60500Y220000D02*Y216800D01*
X58900Y218400D02*X62100D01*
X64500Y209100D02*Y205900D01*
X62900Y207500D02*X66100D01*
X58000Y213000D02*Y209800D01*
X56400Y211400D02*X59600D01*
X84500Y200400D02*Y197200D01*
X82900Y198800D02*X86100D01*
X84500Y204000D02*Y200800D01*
X82900Y202400D02*X86100D01*
X84500Y207300D02*Y204100D01*
X82900Y205700D02*X86100D01*
X107700Y170000D02*Y166800D01*
X106100Y168400D02*X109300D01*
X111700Y169900D02*Y166700D01*
X110100Y168300D02*X113300D01*
X56400Y187600D02*Y184400D01*
X54800Y186000D02*X58000D01*
X81300Y214200D02*Y211000D01*
X79700Y212600D02*X82900D01*
X116400Y180000D02*Y176800D01*
X114800Y178400D02*X118000D01*
X105700Y215300D02*Y212100D01*
X104100Y213700D02*X107300D01*
X96500Y182400D02*Y179200D01*
X94900Y180800D02*X98100D01*
X99600Y182400D02*Y179200D01*
X98000Y180800D02*X101200D01*
X104200Y182900D02*Y179700D01*
X102600Y181300D02*X105800D01*
X88100Y178900D02*Y175700D01*
X86500Y177300D02*X89700D01*
X84200Y179000D02*Y175800D01*
X82600Y177400D02*X85800D01*
X80600Y185300D02*Y182100D01*
X79000Y183700D02*X82200D01*
X105700Y173500D02*Y170300D01*
X104100Y171900D02*X107300D01*
X104700Y168500D02*Y165300D01*
X103100Y166900D02*X106300D01*
X87400Y172700D02*Y169500D01*
X85800Y171100D02*X89000D01*
X90700Y169500D02*Y166300D01*
X89100Y167900D02*X92300D01*
X120400Y183400D02*Y180200D01*
X118800Y181800D02*X122000D01*
X135100Y178400D02*Y175200D01*
X133500Y176800D02*X136700D01*
X140800Y178500D02*Y175300D01*
X139200Y176900D02*X142400D01*
X144100Y178400D02*Y175200D01*
X142500Y176800D02*X145700D01*
X120900Y211300D02*Y208100D01*
X119300Y209700D02*X122500D01*
X125100Y221100D02*Y217900D01*
X123500Y219500D02*X126700D01*
X124900Y173200D02*Y170000D01*
X123300Y171600D02*X126500D01*
X135500Y172200D02*Y169000D01*
X133900Y170600D02*X137100D01*
X167600Y189200D02*Y186000D01*
X166000Y187600D02*X169200D01*
X167400Y204200D02*Y201000D01*
X165800Y202600D02*X169000D01*
X135200Y221100D02*Y217900D01*
X133600Y219500D02*X136800D01*
X125600Y199100D02*Y195900D01*
X124000Y197500D02*X127200D01*
X125600Y194500D02*Y191300D01*
X124000Y192900D02*X127200D01*
X116174Y197500D02*Y194300D01*
X114574Y195900D02*X117774D01*
X74400Y178700D02*Y175500D01*
X72800Y177100D02*X76000D01*
X136500Y301600D02*Y298400D01*
X134900Y300000D02*X138100D01*
X140200Y301300D02*Y298100D01*
X138600Y299700D02*X141800D01*
X136500Y238600D02*Y235400D01*
X134900Y237000D02*X138100D01*
X140200Y238300D02*Y235100D01*
X138600Y236700D02*X141800D01*
X136900Y175400D02*Y172200D01*
X135300Y173800D02*X138500D01*
X140400Y175000D02*Y171800D01*
X138800Y173400D02*X142000D01*
X71100Y331700D02*Y328500D01*
X69500Y330100D02*X72700D01*
X228100Y266300D02*Y263100D01*
X226500Y264700D02*X229700D01*
X239800Y266400D02*Y263200D01*
X238200Y264800D02*X241400D01*
X245000Y259700D02*Y256500D01*
X243400Y258100D02*X246600D01*
X274600Y266300D02*Y263100D01*
X273000Y264700D02*X276200D01*
X284500Y264200D02*Y261000D01*
X282900Y262600D02*X286100D01*
X243300Y199500D02*Y196300D01*
X241700Y197900D02*X244900D01*
X278400Y226600D02*Y223400D01*
X276800Y225000D02*X280000D01*
X274600Y193200D02*Y190000D01*
X273000Y191600D02*X276200D01*
X248700Y193300D02*Y190100D01*
X247100Y191700D02*X250300D01*
X217600Y210900D02*Y207700D01*
X216000Y209300D02*X219200D01*
X217600Y228600D02*Y225400D01*
X216000Y227000D02*X219200D01*
X237200Y193300D02*Y190100D01*
X235600Y191700D02*X238800D01*
X211800Y216800D02*Y213600D01*
X210200Y215200D02*X213400D01*
X211800Y240500D02*Y237300D01*
X210200Y238900D02*X213400D01*
X378500Y61100D02*Y57900D01*
X376900Y59500D02*X380100D01*
X388000Y61100D02*Y57900D01*
X386400Y59500D02*X389600D01*
X379500Y142100D02*Y138900D01*
X377900Y140500D02*X381100D01*
X390000Y142100D02*Y138900D01*
X388400Y140500D02*X391600D01*
X453000Y148600D02*Y145400D01*
X451400Y147000D02*X454600D01*
X443000Y56600D02*Y53400D01*
X441400Y55000D02*X444600D01*
X351500Y134100D02*Y130900D01*
X349900Y132500D02*X353100D01*
X351500Y51600D02*Y48400D01*
X349900Y50000D02*X353100D01*
X382000Y331939D02*Y328739D01*
X380400Y330339D02*X383600D01*
X378500Y334939D02*Y331739D01*
X376900Y333339D02*X380100D01*
X375000Y331939D02*Y328739D01*
X373400Y330339D02*X376600D01*
X381500Y299439D02*Y296239D01*
X379900Y297839D02*X383100D01*
X378500Y295939D02*Y292739D01*
X376900Y294339D02*X380100D01*
X375500Y298939D02*Y295739D01*
X373900Y297339D02*X377100D01*
X33100Y204900D02*Y201700D01*
X31500Y203300D02*X34700D01*
X37100Y204900D02*Y201700D01*
X35500Y203300D02*X38700D01*
X51574Y218400D02*Y215200D01*
X49974Y216800D02*X53174D01*
X47574Y218400D02*Y215200D01*
X45974Y216800D02*X49174D01*
X46700Y282100D02*Y278900D01*
X45100Y280500D02*X48300D01*
X50500Y282200D02*Y279000D01*
X48900Y280600D02*X52100D01*
X33200Y266900D02*Y263700D01*
X31600Y265300D02*X34800D01*
X37400Y266900D02*Y263700D01*
X35800Y265300D02*X39000D01*
X32500Y330300D02*Y327100D01*
X30900Y328700D02*X34100D01*
X36700Y330100D02*Y326900D01*
X35100Y328500D02*X38300D01*
X55100Y345200D02*Y342000D01*
X53500Y343600D02*X56700D01*
X51100Y345200D02*Y342000D01*
X49500Y343600D02*X52700D01*
X403500Y273200D02*Y270000D01*
X401900Y271600D02*X405100D01*
X412100Y237600D02*Y234400D01*
X410500Y236000D02*X413700D01*
X434300Y267300D02*Y264100D01*
X432700Y265700D02*X435900D01*
X427500Y261000D02*Y257800D01*
X425900Y259400D02*X429100D01*
X427400Y189200D02*Y186000D01*
X425800Y187600D02*X429000D01*
X434600Y166400D02*Y163200D01*
X433000Y164800D02*X436200D01*
X348800Y324600D02*Y321400D01*
X347200Y323000D02*X350400D01*
X362600Y329400D02*Y326200D01*
X361000Y327800D02*X364200D01*
X241300Y42800D02*Y39600D01*
X239700Y41200D02*X242900D01*
X236800Y39300D02*Y36100D01*
X235200Y37700D02*X238400D01*
X210700Y63700D02*Y60500D01*
X209100Y62100D02*X212300D01*
X203100Y42900D02*Y39700D01*
X201500Y41300D02*X204700D01*
X203000Y90800D02*Y87600D01*
X201400Y89200D02*X204600D01*
X221800Y90900D02*Y87700D01*
X220200Y89300D02*X223400D01*
X225200Y90000D02*Y86800D01*
X223600Y88400D02*X226800D01*
X215100Y83300D02*Y80100D01*
X213500Y81700D02*X216700D01*
X235900Y80700D02*Y77500D01*
X234300Y79100D02*X237500D01*
X235800Y86000D02*Y82800D01*
X234200Y84400D02*X237400D01*
X215100Y133100D02*Y129900D01*
X213500Y131500D02*X216700D01*
X218400Y134800D02*Y131600D01*
X216800Y133200D02*X220000D01*
X218100Y119600D02*Y116400D01*
X216500Y118000D02*X219700D01*
X215500Y128000D02*Y124800D01*
X213900Y126400D02*X217100D01*
X207800Y132100D02*Y128900D01*
X206200Y130500D02*X209400D01*
X210100Y134700D02*Y131500D01*
X208500Y133100D02*X211700D01*
X209900Y125900D02*Y122700D01*
X208300Y124300D02*X211500D01*
X213800Y98800D02*Y95600D01*
X212200Y97200D02*X215400D01*
X325000Y147300D02*Y144100D01*
X323400Y145700D02*X326600D01*
X52700Y64000D02*Y60800D01*
X51100Y62400D02*X54300D01*
X40300Y64000D02*Y60800D01*
X38700Y62400D02*X41900D01*
X56400Y78200D02*Y75000D01*
X54800Y76600D02*X58000D01*
X56500Y93700D02*Y90500D01*
X54900Y92100D02*X58100D01*
X83100Y126500D02*Y123300D01*
X81500Y124900D02*X84700D01*
X67900Y126800D02*Y123600D01*
X66300Y125200D02*X69500D01*
X65000Y336000D02*Y332800D01*
X63400Y334400D02*X66600D01*
X105000Y309000D02*Y305800D01*
X103400Y307400D02*X106600D01*
X38700Y252900D02*Y249700D01*
X37100Y251300D02*X40300D01*
X42200Y255400D02*Y252200D01*
X40600Y253800D02*X43800D01*
X35200Y255400D02*Y252200D01*
X33600Y253800D02*X36800D01*
X38400Y189900D02*Y186700D01*
X36800Y188300D02*X40000D01*
X41900Y192500D02*Y189300D01*
X40300Y190900D02*X43500D01*
X34900Y192500D02*Y189300D01*
X33300Y190900D02*X36500D01*
X64000Y160000D02*Y156800D01*
X62400Y158400D02*X65600D01*
X53500Y160000D02*Y156800D01*
X51900Y158400D02*X55100D01*
X71600Y164100D02*Y160900D01*
X70000Y162500D02*X73200D01*
X53500Y168200D02*Y165000D01*
X51900Y166600D02*X55100D01*
X45400Y164100D02*Y160900D01*
X43800Y162500D02*X47000D01*
X64000Y168200D02*Y165000D01*
X62400Y166600D02*X65600D01*
X64000Y223000D02*Y219800D01*
X62400Y221400D02*X65600D01*
X53500Y223000D02*Y219800D01*
X51900Y221400D02*X55100D01*
X71600Y227100D02*Y223900D01*
X70000Y225500D02*X73200D01*
X53500Y231200D02*Y228000D01*
X51900Y229600D02*X55100D01*
X45400Y227100D02*Y223900D01*
X43800Y225500D02*X47000D01*
X64000Y231200D02*Y228000D01*
X62400Y229600D02*X65600D01*
X64000Y286000D02*Y282800D01*
X62400Y284400D02*X65600D01*
X53500Y286000D02*Y282800D01*
X51900Y284400D02*X55100D01*
X71600Y290100D02*Y286900D01*
X70000Y288500D02*X73200D01*
X53500Y294200D02*Y291000D01*
X51900Y292600D02*X55100D01*
X45400Y290100D02*Y286900D01*
X43800Y288500D02*X47000D01*
X64000Y294200D02*Y291000D01*
X62400Y292600D02*X65600D01*
X64000Y349000D02*Y345800D01*
X62400Y347400D02*X65600D01*
X53500Y349000D02*Y345800D01*
X51900Y347400D02*X55100D01*
X71600Y353100D02*Y349900D01*
X70000Y351500D02*X73200D01*
X53500Y357200D02*Y354000D01*
X51900Y355600D02*X55100D01*
X45400Y353100D02*Y349900D01*
X43800Y351500D02*X47000D01*
X64000Y357200D02*Y354000D01*
X62400Y355600D02*X65600D01*
X89800Y353100D02*Y349900D01*
X88200Y351500D02*X91400D01*
X116200Y353100D02*Y349900D01*
X114600Y351500D02*X117800D01*
X89900Y290100D02*Y286900D01*
X88300Y288500D02*X91500D01*
X116100Y290100D02*Y286900D01*
X114500Y288500D02*X117700D01*
X89900Y227100D02*Y223900D01*
X88300Y225500D02*X91500D01*
X116100Y227100D02*Y223900D01*
X114500Y225500D02*X117700D01*
X89900Y164100D02*Y160900D01*
X88300Y162500D02*X91500D01*
X116100Y164100D02*Y160900D01*
X114500Y162500D02*X117700D01*
X74300Y241600D02*Y238400D01*
X72700Y240000D02*X75900D01*
X120800Y274300D02*Y271100D01*
X119200Y272700D02*X122400D01*
X125000Y182600D02*Y179400D01*
X123400Y181000D02*X126600D01*
X132000Y214800D02*Y211600D01*
X130400Y213200D02*X133600D01*
X124800Y119900D02*Y116700D01*
X123200Y118300D02*X126400D01*
X122600Y52400D02*Y49200D01*
X121000Y50800D02*X124200D01*
X267000Y260500D02*Y257300D01*
X265400Y258900D02*X268600D01*
X267000Y263700D02*Y260500D01*
X265400Y262100D02*X268600D01*
X257100Y172300D02*Y169100D01*
X255500Y170700D02*X258700D01*
X58200Y338800D02*Y335600D01*
X56600Y337200D02*X59800D01*
X354600Y157600D02*Y154400D01*
X353000Y156000D02*X356200D01*
X350500Y157600D02*Y154400D01*
X348900Y156000D02*X352100D01*
X395000Y177600D02*Y174400D01*
X393400Y176000D02*X396600D01*
X391000Y177600D02*Y174400D01*
X389400Y176000D02*X392600D01*
X15000Y552850D02*Y549650D01*
X13400Y551250D02*X16600D01*
X135000Y553500D02*X136500Y550500D01*
X138000Y553500D01*
X136500Y550500D02*Y547500D01*
X139800Y550800D02*X142050D01*
X139800Y547500D02*X142800D01*
X139800Y553500D02*Y547500D01*
Y553500D02*X142800D01*
X147600D02*X148350Y552750D01*
X145350Y553500D02*X147600D01*
X144600Y552750D02*X145350Y553500D01*
X144600Y552750D02*Y551250D01*
X145350Y550500D01*
X147600D01*
X148350Y549750D01*
Y548250D01*
X147600Y547500D02*X148350Y548250D01*
X145350Y547500D02*X147600D01*
X144600Y548250D02*X145350Y547500D01*
X98750D02*X101750Y553500D01*
X98000D02*X101750D01*
X105800D02*X106550Y552750D01*
X104300Y553500D02*X105800D01*
X103550Y552750D02*X104300Y553500D01*
X103550Y552750D02*Y548250D01*
X104300Y547500D01*
X105800Y550800D02*X106550Y550050D01*
X103550Y550800D02*X105800D01*
X104300Y547500D02*X105800D01*
X106550Y548250D01*
Y550050D02*Y548250D01*
X108350Y553500D02*X111350D01*
X108350D02*Y550500D01*
X109100Y551250D01*
X110600D01*
X111350Y550500D01*
Y548250D01*
X110600Y547500D02*X111350Y548250D01*
X109100Y547500D02*X110600D01*
X108350Y548250D02*X109100Y547500D01*
X45000Y548250D02*X45750Y547500D01*
X45000Y552750D02*Y548250D01*
Y552750D02*X45750Y553500D01*
X47250D01*
X48000Y552750D01*
Y548250D01*
X47250Y547500D02*X48000Y548250D01*
X45750Y547500D02*X47250D01*
X45000Y549000D02*X48000Y552000D01*
X49800Y547500D02*X50550D01*
X52350Y548250D02*X53100Y547500D01*
X52350Y552750D02*Y548250D01*
Y552750D02*X53100Y553500D01*
X54600D01*
X55350Y552750D01*
Y548250D01*
X54600Y547500D02*X55350Y548250D01*
X53100Y547500D02*X54600D01*
X52350Y549000D02*X55350Y552000D01*
X57150Y552300D02*X58350Y553500D01*
Y547500D01*
X57150D02*X59400D01*
X61200Y552750D02*X61950Y553500D01*
X64200D01*
X64950Y552750D01*
Y551250D01*
X61200Y547500D02*X64950Y551250D01*
X61200Y547500D02*X64950D01*
X286000Y314300D02*Y312700D01*
Y314300D02*X287387Y315100D01*
X286000Y314300D02*X284613Y315100D01*
X286000Y320300D02*Y318700D01*
Y320300D02*X287387Y321100D01*
X286000Y320300D02*X284613Y321100D01*
X281200Y314300D02*Y312700D01*
Y314300D02*X282587Y315100D01*
X281200Y314300D02*X279813Y315100D01*
X290600Y314300D02*Y312700D01*
Y314300D02*X291987Y315100D01*
X290600Y314300D02*X289213Y315100D01*
X290600Y320300D02*Y318700D01*
Y320300D02*X291987Y321100D01*
X290600Y320300D02*X289213Y321100D01*
X281300Y320300D02*Y318700D01*
Y320300D02*X282687Y321100D01*
X281300Y320300D02*X279913Y321100D01*
X282700Y120600D02*Y119000D01*
Y120600D02*X284087Y121400D01*
X282700Y120600D02*X281313Y121400D01*
X266700Y120600D02*Y119000D01*
Y120600D02*X268087Y121400D01*
X266700Y120600D02*X265313Y121400D01*
X266700Y112600D02*Y111000D01*
Y112600D02*X268087Y113400D01*
X266700Y112600D02*X265313Y113400D01*
X266700Y128600D02*Y127000D01*
Y128600D02*X268087Y129400D01*
X266700Y128600D02*X265313Y129400D01*
X282700Y128700D02*Y127100D01*
Y128700D02*X284087Y129500D01*
X282700Y128700D02*X281313Y129500D01*
X282700Y112500D02*Y110900D01*
Y112500D02*X284087Y113300D01*
X282700Y112500D02*X281313Y113300D01*
X274700Y112600D02*Y111000D01*
Y112600D02*X276087Y113400D01*
X274700Y112600D02*X273313Y113400D01*
X274700Y128600D02*Y127000D01*
Y128600D02*X276087Y129400D01*
X274700Y128600D02*X273313Y129400D01*
X274700Y120600D02*Y119000D01*
Y120600D02*X276087Y121400D01*
X274700Y120600D02*X273313Y121400D01*
X148500Y63500D02*Y61900D01*
Y63500D02*X149887Y64300D01*
X148500Y63500D02*X147113Y64300D01*
X140500Y63500D02*Y61900D01*
Y63500D02*X141887Y64300D01*
X140500Y63500D02*X139113Y64300D01*
X140500Y71500D02*Y69900D01*
Y71500D02*X141887Y72300D01*
X140500Y71500D02*X139113Y72300D01*
X148500Y71500D02*Y69900D01*
Y71500D02*X149887Y72300D01*
X148500Y71500D02*X147113Y72300D01*
X148500Y80000D02*Y78400D01*
Y80000D02*X149887Y80800D01*
X148500Y80000D02*X147113Y80800D01*
X140500Y80000D02*Y78400D01*
Y80000D02*X141887Y80800D01*
X140500Y80000D02*X139113Y80800D01*
X132500Y71500D02*Y69900D01*
Y71500D02*X133887Y72300D01*
X132500Y71500D02*X131113Y72300D01*
X132500Y80000D02*Y78400D01*
Y80000D02*X133887Y80800D01*
X132500Y80000D02*X131113Y80800D01*
X148500Y87500D02*Y85900D01*
Y87500D02*X149887Y88300D01*
X148500Y87500D02*X147113Y88300D01*
X140500Y87500D02*Y85900D01*
Y87500D02*X141887Y88300D01*
X140500Y87500D02*X139113Y88300D01*
X132500Y63500D02*Y61900D01*
Y63500D02*X133887Y64300D01*
X132500Y63500D02*X131113Y64300D01*
X132500Y87500D02*Y85900D01*
Y87500D02*X133887Y88300D01*
X132500Y87500D02*X131113Y88300D01*
X152000Y129000D02*Y127400D01*
Y129000D02*X153387Y129800D01*
X152000Y129000D02*X150613Y129800D01*
X152000Y135000D02*Y133400D01*
Y135000D02*X153387Y135800D01*
X152000Y135000D02*X150613Y135800D01*
X146500Y135000D02*Y133400D01*
Y135000D02*X147887Y135800D01*
X146500Y135000D02*X145113Y135800D01*
X146500Y129000D02*Y127400D01*
Y129000D02*X147887Y129800D01*
X146500Y129000D02*X145113Y129800D01*
X146500Y123500D02*Y121900D01*
Y123500D02*X147887Y124300D01*
X146500Y123500D02*X145113Y124300D01*
X140500Y123500D02*Y121900D01*
Y123500D02*X141887Y124300D01*
X140500Y123500D02*X139113Y124300D01*
X140500Y129000D02*Y127400D01*
Y129000D02*X141887Y129800D01*
X140500Y129000D02*X139113Y129800D01*
X135000Y129000D02*Y127400D01*
Y129000D02*X136387Y129800D01*
X135000Y129000D02*X133613Y129800D01*
X135000Y135000D02*Y133400D01*
Y135000D02*X136387Y135800D01*
X135000Y135000D02*X133613Y135800D01*
X140500Y135000D02*Y133400D01*
Y135000D02*X141887Y135800D01*
X140500Y135000D02*X139113Y135800D01*
X146500Y140500D02*Y138900D01*
Y140500D02*X147887Y141300D01*
X146500Y140500D02*X145113Y141300D01*
X140500Y140500D02*Y138900D01*
Y140500D02*X141887Y141300D01*
X140500Y140500D02*X139113Y141300D01*
X135000Y123500D02*Y121900D01*
Y123500D02*X136387Y124300D01*
X135000Y123500D02*X133613Y124300D01*
X152000Y123500D02*Y121900D01*
Y123500D02*X153387Y124300D01*
X152000Y123500D02*X150613Y124300D01*
X152000Y140500D02*Y138900D01*
Y140500D02*X153387Y141300D01*
X152000Y140500D02*X150613Y141300D01*
X135000Y140500D02*Y138900D01*
Y140500D02*X136387Y141300D01*
X135000Y140500D02*X133613Y141300D01*
X156000Y87500D02*Y85900D01*
Y87500D02*X157387Y88300D01*
X156000Y87500D02*X154613Y88300D01*
X156000Y63500D02*Y61900D01*
Y63500D02*X157387Y64300D01*
X156000Y63500D02*X154613Y64300D01*
X156000Y80000D02*Y78400D01*
Y80000D02*X157387Y80800D01*
X156000Y80000D02*X154613Y80800D01*
X156000Y71500D02*Y69900D01*
Y71500D02*X157387Y72300D01*
X156000Y71500D02*X154613Y72300D01*
X94500Y325500D02*Y323900D01*
Y325500D02*X95887Y326300D01*
X94500Y325500D02*X93113Y326300D01*
X103500Y325500D02*Y323900D01*
Y325500D02*X104887Y326300D01*
X103500Y325500D02*X102113Y326300D01*
X103500Y316500D02*Y314900D01*
Y316500D02*X104887Y317300D01*
X103500Y316500D02*X102113Y317300D01*
X94500Y316500D02*Y314900D01*
Y316500D02*X95887Y317300D01*
X94500Y316500D02*X93113Y317300D01*
X99000Y321000D02*Y319400D01*
Y321000D02*X100387Y321800D01*
X99000Y321000D02*X97613Y321800D01*
X94500Y321000D02*Y319400D01*
Y321000D02*X95887Y321800D01*
X94500Y321000D02*X93113Y321800D01*
X99000Y325500D02*Y323900D01*
Y325500D02*X100387Y326300D01*
X99000Y325500D02*X97613Y326300D01*
X103500Y321000D02*Y319400D01*
Y321000D02*X104887Y321800D01*
X103500Y321000D02*X102113Y321800D01*
X99000Y316500D02*Y314900D01*
Y316500D02*X100387Y317300D01*
X99000Y316500D02*X97613Y317300D01*
X135000Y329500D02*Y327900D01*
Y329500D02*X136387Y330300D01*
X135000Y329500D02*X133613Y330300D01*
X152000Y329500D02*Y327900D01*
Y329500D02*X153387Y330300D01*
X152000Y329500D02*X150613Y330300D01*
X152000Y312500D02*Y310900D01*
Y312500D02*X153387Y313300D01*
X152000Y312500D02*X150613Y313300D01*
X135000Y312500D02*Y310900D01*
Y312500D02*X136387Y313300D01*
X135000Y312500D02*X133613Y313300D01*
X140500Y329500D02*Y327900D01*
Y329500D02*X141887Y330300D01*
X140500Y329500D02*X139113Y330300D01*
X146500Y329500D02*Y327900D01*
Y329500D02*X147887Y330300D01*
X146500Y329500D02*X145113Y330300D01*
X140500Y324000D02*Y322400D01*
Y324000D02*X141887Y324800D01*
X140500Y324000D02*X139113Y324800D01*
X135000Y324000D02*Y322400D01*
Y324000D02*X136387Y324800D01*
X135000Y324000D02*X133613Y324800D01*
X135000Y318000D02*Y316400D01*
Y318000D02*X136387Y318800D01*
X135000Y318000D02*X133613Y318800D01*
X140500Y318000D02*Y316400D01*
Y318000D02*X141887Y318800D01*
X140500Y318000D02*X139113Y318800D01*
X140500Y312500D02*Y310900D01*
Y312500D02*X141887Y313300D01*
X140500Y312500D02*X139113Y313300D01*
X146500Y312500D02*Y310900D01*
Y312500D02*X147887Y313300D01*
X146500Y312500D02*X145113Y313300D01*
X146500Y318000D02*Y316400D01*
Y318000D02*X147887Y318800D01*
X146500Y318000D02*X145113Y318800D01*
X146500Y324000D02*Y322400D01*
Y324000D02*X147887Y324800D01*
X146500Y324000D02*X145113Y324800D01*
X152000Y324000D02*Y322400D01*
Y324000D02*X153387Y324800D01*
X152000Y324000D02*X150613Y324800D01*
X152000Y318000D02*Y316400D01*
Y318000D02*X153387Y318800D01*
X152000Y318000D02*X150613Y318800D01*
X94500Y262500D02*Y260900D01*
Y262500D02*X95887Y263300D01*
X94500Y262500D02*X93113Y263300D01*
X103500Y262500D02*Y260900D01*
Y262500D02*X104887Y263300D01*
X103500Y262500D02*X102113Y263300D01*
X103500Y253500D02*Y251900D01*
Y253500D02*X104887Y254300D01*
X103500Y253500D02*X102113Y254300D01*
X94500Y253500D02*Y251900D01*
Y253500D02*X95887Y254300D01*
X94500Y253500D02*X93113Y254300D01*
X99000Y258000D02*Y256400D01*
Y258000D02*X100387Y258800D01*
X99000Y258000D02*X97613Y258800D01*
X94500Y258000D02*Y256400D01*
Y258000D02*X95887Y258800D01*
X94500Y258000D02*X93113Y258800D01*
X99000Y262500D02*Y260900D01*
Y262500D02*X100387Y263300D01*
X99000Y262500D02*X97613Y263300D01*
X103500Y258000D02*Y256400D01*
Y258000D02*X104887Y258800D01*
X103500Y258000D02*X102113Y258800D01*
X99000Y253500D02*Y251900D01*
Y253500D02*X100387Y254300D01*
X99000Y253500D02*X97613Y254300D01*
X135000Y266500D02*Y264900D01*
Y266500D02*X136387Y267300D01*
X135000Y266500D02*X133613Y267300D01*
X152000Y266500D02*Y264900D01*
Y266500D02*X153387Y267300D01*
X152000Y266500D02*X150613Y267300D01*
X152000Y249500D02*Y247900D01*
Y249500D02*X153387Y250300D01*
X152000Y249500D02*X150613Y250300D01*
X135000Y249500D02*Y247900D01*
Y249500D02*X136387Y250300D01*
X135000Y249500D02*X133613Y250300D01*
X140500Y266500D02*Y264900D01*
Y266500D02*X141887Y267300D01*
X140500Y266500D02*X139113Y267300D01*
X146500Y266500D02*Y264900D01*
Y266500D02*X147887Y267300D01*
X146500Y266500D02*X145113Y267300D01*
X140500Y261000D02*Y259400D01*
Y261000D02*X141887Y261800D01*
X140500Y261000D02*X139113Y261800D01*
X135000Y261000D02*Y259400D01*
Y261000D02*X136387Y261800D01*
X135000Y261000D02*X133613Y261800D01*
X135000Y255000D02*Y253400D01*
Y255000D02*X136387Y255800D01*
X135000Y255000D02*X133613Y255800D01*
X140500Y255000D02*Y253400D01*
Y255000D02*X141887Y255800D01*
X140500Y255000D02*X139113Y255800D01*
X140500Y249500D02*Y247900D01*
Y249500D02*X141887Y250300D01*
X140500Y249500D02*X139113Y250300D01*
X146500Y249500D02*Y247900D01*
Y249500D02*X147887Y250300D01*
X146500Y249500D02*X145113Y250300D01*
X146500Y255000D02*Y253400D01*
Y255000D02*X147887Y255800D01*
X146500Y255000D02*X145113Y255800D01*
X146500Y261000D02*Y259400D01*
Y261000D02*X147887Y261800D01*
X146500Y261000D02*X145113Y261800D01*
X152000Y261000D02*Y259400D01*
Y261000D02*X153387Y261800D01*
X152000Y261000D02*X150613Y261800D01*
X152000Y255000D02*Y253400D01*
Y255000D02*X153387Y255800D01*
X152000Y255000D02*X150613Y255800D01*
X94500Y199500D02*Y197900D01*
Y199500D02*X95887Y200300D01*
X94500Y199500D02*X93113Y200300D01*
X103500Y199500D02*Y197900D01*
Y199500D02*X104887Y200300D01*
X103500Y199500D02*X102113Y200300D01*
X103500Y190500D02*Y188900D01*
Y190500D02*X104887Y191300D01*
X103500Y190500D02*X102113Y191300D01*
X94500Y190500D02*Y188900D01*
Y190500D02*X95887Y191300D01*
X94500Y190500D02*X93113Y191300D01*
X99000Y195000D02*Y193400D01*
Y195000D02*X100387Y195800D01*
X99000Y195000D02*X97613Y195800D01*
X94500Y195000D02*Y193400D01*
Y195000D02*X95887Y195800D01*
X94500Y195000D02*X93113Y195800D01*
X99000Y199500D02*Y197900D01*
Y199500D02*X100387Y200300D01*
X99000Y199500D02*X97613Y200300D01*
X103500Y195000D02*Y193400D01*
Y195000D02*X104887Y195800D01*
X103500Y195000D02*X102113Y195800D01*
X99000Y190500D02*Y188900D01*
Y190500D02*X100387Y191300D01*
X99000Y190500D02*X97613Y191300D01*
X135000Y203500D02*Y201900D01*
Y203500D02*X136387Y204300D01*
X135000Y203500D02*X133613Y204300D01*
X152000Y203500D02*Y201900D01*
Y203500D02*X153387Y204300D01*
X152000Y203500D02*X150613Y204300D01*
X152000Y186500D02*Y184900D01*
Y186500D02*X153387Y187300D01*
X152000Y186500D02*X150613Y187300D01*
X135000Y186500D02*Y184900D01*
Y186500D02*X136387Y187300D01*
X135000Y186500D02*X133613Y187300D01*
X140500Y203500D02*Y201900D01*
Y203500D02*X141887Y204300D01*
X140500Y203500D02*X139113Y204300D01*
X146500Y203500D02*Y201900D01*
Y203500D02*X147887Y204300D01*
X146500Y203500D02*X145113Y204300D01*
X140500Y198000D02*Y196400D01*
Y198000D02*X141887Y198800D01*
X140500Y198000D02*X139113Y198800D01*
X135000Y198000D02*Y196400D01*
Y198000D02*X136387Y198800D01*
X135000Y198000D02*X133613Y198800D01*
X135000Y192000D02*Y190400D01*
Y192000D02*X136387Y192800D01*
X135000Y192000D02*X133613Y192800D01*
X140500Y192000D02*Y190400D01*
Y192000D02*X141887Y192800D01*
X140500Y192000D02*X139113Y192800D01*
X140500Y186500D02*Y184900D01*
Y186500D02*X141887Y187300D01*
X140500Y186500D02*X139113Y187300D01*
X146500Y186500D02*Y184900D01*
Y186500D02*X147887Y187300D01*
X146500Y186500D02*X145113Y187300D01*
X146500Y192000D02*Y190400D01*
Y192000D02*X147887Y192800D01*
X146500Y192000D02*X145113Y192800D01*
X146500Y198000D02*Y196400D01*
Y198000D02*X147887Y198800D01*
X146500Y198000D02*X145113Y198800D01*
X152000Y198000D02*Y196400D01*
Y198000D02*X153387Y198800D01*
X152000Y198000D02*X150613Y198800D01*
X152000Y192000D02*Y190400D01*
Y192000D02*X153387Y192800D01*
X152000Y192000D02*X150613Y192800D01*
X15000Y566250D02*Y564650D01*
Y566250D02*X16387Y567050D01*
X15000Y566250D02*X13613Y567050D01*
X135000Y568500D02*X136500Y565500D01*
X138000Y568500D01*
X136500Y565500D02*Y562500D01*
X139800Y565800D02*X142050D01*
X139800Y562500D02*X142800D01*
X139800Y568500D02*Y562500D01*
Y568500D02*X142800D01*
X147600D02*X148350Y567750D01*
X145350Y568500D02*X147600D01*
X144600Y567750D02*X145350Y568500D01*
X144600Y567750D02*Y566250D01*
X145350Y565500D01*
X147600D01*
X148350Y564750D01*
Y563250D01*
X147600Y562500D02*X148350Y563250D01*
X145350Y562500D02*X147600D01*
X144600Y563250D02*X145350Y562500D01*
X98000Y567300D02*X99200Y568500D01*
Y562500D01*
X98000D02*X100250D01*
X102050Y567750D02*X102800Y568500D01*
X105050D01*
X105800Y567750D01*
Y566250D01*
X102050Y562500D02*X105800Y566250D01*
X102050Y562500D02*X105800D01*
X107600Y567750D02*X108350Y568500D01*
X110600D01*
X111350Y567750D01*
Y566250D01*
X107600Y562500D02*X111350Y566250D01*
X107600Y562500D02*X111350D01*
X45000Y563250D02*X45750Y562500D01*
X45000Y567750D02*Y563250D01*
Y567750D02*X45750Y568500D01*
X47250D01*
X48000Y567750D01*
Y563250D01*
X47250Y562500D02*X48000Y563250D01*
X45750Y562500D02*X47250D01*
X45000Y564000D02*X48000Y567000D01*
X49800Y562500D02*X50550D01*
X52350Y563250D02*X53100Y562500D01*
X52350Y567750D02*Y563250D01*
Y567750D02*X53100Y568500D01*
X54600D01*
X55350Y567750D01*
Y563250D01*
X54600Y562500D02*X55350Y563250D01*
X53100Y562500D02*X54600D01*
X52350Y564000D02*X55350Y567000D01*
X57150Y567300D02*X58350Y568500D01*
Y562500D01*
X57150D02*X59400D01*
X61200Y563250D02*X61950Y562500D01*
X61200Y567750D02*Y563250D01*
Y567750D02*X61950Y568500D01*
X63450D01*
X64200Y567750D01*
Y563250D01*
X63450Y562500D02*X64200Y563250D01*
X61950Y562500D02*X63450D01*
X61200Y564000D02*X64200Y567000D01*
X3000Y583500D02*X3750Y582750D01*
X750Y583500D02*X3000D01*
X0Y582750D02*X750Y583500D01*
X0Y582750D02*Y581250D01*
X750Y580500D01*
X3000D01*
X3750Y579750D01*
Y578250D01*
X3000Y577500D02*X3750Y578250D01*
X750Y577500D02*X3000D01*
X0Y578250D02*X750Y577500D01*
X5550Y580500D02*Y578250D01*
X6300Y577500D01*
X8550Y580500D02*Y576000D01*
X7800Y575250D02*X8550Y576000D01*
X6300Y575250D02*X7800D01*
X5550Y576000D02*X6300Y575250D01*
Y577500D02*X7800D01*
X8550Y578250D01*
X11100Y579750D02*Y577500D01*
Y579750D02*X11850Y580500D01*
X12600D01*
X13350Y579750D01*
Y577500D01*
Y579750D02*X14100Y580500D01*
X14850D01*
X15600Y579750D01*
Y577500D01*
X10350Y580500D02*X11100Y579750D01*
X17400Y583500D02*Y577500D01*
Y578250D02*X18150Y577500D01*
X19650D01*
X20400Y578250D01*
Y579750D02*Y578250D01*
X19650Y580500D02*X20400Y579750D01*
X18150Y580500D02*X19650D01*
X17400Y579750D02*X18150Y580500D01*
X22200Y579750D02*Y578250D01*
Y579750D02*X22950Y580500D01*
X24450D01*
X25200Y579750D01*
Y578250D01*
X24450Y577500D02*X25200Y578250D01*
X22950Y577500D02*X24450D01*
X22200Y578250D02*X22950Y577500D01*
X27000Y583500D02*Y578250D01*
X27750Y577500D01*
X0Y574250D02*X29250D01*
X41750Y583500D02*Y577500D01*
X43700Y583500D02*X44750Y582450D01*
Y578550D01*
X43700Y577500D02*X44750Y578550D01*
X41000Y577500D02*X43700D01*
X41000Y583500D02*X43700D01*
G54D244*X46550Y582000D02*Y581850D01*
G54D243*Y579750D02*Y577500D01*
X50300Y580500D02*X51050Y579750D01*
X48800Y580500D02*X50300D01*
X48050Y579750D02*X48800Y580500D01*
X48050Y579750D02*Y578250D01*
X48800Y577500D01*
X51050Y580500D02*Y578250D01*
X51800Y577500D01*
X48800D02*X50300D01*
X51050Y578250D01*
X54350Y579750D02*Y577500D01*
Y579750D02*X55100Y580500D01*
X55850D01*
X56600Y579750D01*
Y577500D01*
Y579750D02*X57350Y580500D01*
X58100D01*
X58850Y579750D01*
Y577500D01*
X53600Y580500D02*X54350Y579750D01*
X60650Y577500D02*X61400D01*
X65900Y578250D02*X66650Y577500D01*
X65900Y582750D02*X66650Y583500D01*
X65900Y582750D02*Y578250D01*
X68450Y583500D02*X69950D01*
X69200D02*Y577500D01*
X68450D02*X69950D01*
X72500Y579750D02*Y577500D01*
Y579750D02*X73250Y580500D01*
X74000D01*
X74750Y579750D01*
Y577500D01*
X71750Y580500D02*X72500Y579750D01*
X77300Y580500D02*X79550D01*
X76550Y579750D02*X77300Y580500D01*
X76550Y579750D02*Y578250D01*
X77300Y577500D01*
X79550D01*
X81350Y583500D02*Y577500D01*
Y579750D02*X82100Y580500D01*
X83600D01*
X84350Y579750D01*
Y577500D01*
X86150Y583500D02*X86900Y582750D01*
Y578250D01*
X86150Y577500D02*X86900Y578250D01*
X41000Y574250D02*X88700D01*
X96050Y577500D02*X98000D01*
X95000Y578550D02*X96050Y577500D01*
X95000Y582450D02*Y578550D01*
Y582450D02*X96050Y583500D01*
X98000D01*
X99800Y579750D02*Y578250D01*
Y579750D02*X100550Y580500D01*
X102050D01*
X102800Y579750D01*
Y578250D01*
X102050Y577500D02*X102800Y578250D01*
X100550Y577500D02*X102050D01*
X99800Y578250D02*X100550Y577500D01*
X104600Y580500D02*Y578250D01*
X105350Y577500D01*
X106850D01*
X107600Y578250D01*
Y580500D02*Y578250D01*
X110150Y579750D02*Y577500D01*
Y579750D02*X110900Y580500D01*
X111650D01*
X112400Y579750D01*
Y577500D01*
X109400Y580500D02*X110150Y579750D01*
X114950Y583500D02*Y578250D01*
X115700Y577500D01*
X114200Y581250D02*X115700D01*
X95000Y574250D02*X117200D01*
X130750Y583500D02*Y577500D01*
X130000Y583500D02*X133000D01*
X133750Y582750D01*
Y581250D01*
X133000Y580500D02*X133750Y581250D01*
X130750Y580500D02*X133000D01*
X135550Y583500D02*Y578250D01*
X136300Y577500D01*
X140050Y580500D02*X140800Y579750D01*
X138550Y580500D02*X140050D01*
X137800Y579750D02*X138550Y580500D01*
X137800Y579750D02*Y578250D01*
X138550Y577500D01*
X140800Y580500D02*Y578250D01*
X141550Y577500D01*
X138550D02*X140050D01*
X140800Y578250D01*
X144100Y583500D02*Y578250D01*
X144850Y577500D01*
X143350Y581250D02*X144850D01*
X147100Y577500D02*X149350D01*
X146350Y578250D02*X147100Y577500D01*
X146350Y579750D02*Y578250D01*
Y579750D02*X147100Y580500D01*
X148600D01*
X149350Y579750D01*
X146350Y579000D02*X149350D01*
Y579750D02*Y579000D01*
X154150Y583500D02*Y577500D01*
X153400D02*X154150Y578250D01*
X151900Y577500D02*X153400D01*
X151150Y578250D02*X151900Y577500D01*
X151150Y579750D02*Y578250D01*
Y579750D02*X151900Y580500D01*
X153400D01*
X154150Y579750D01*
X157450Y580500D02*Y579750D01*
Y578250D02*Y577500D01*
X155950Y582750D02*Y582000D01*
Y582750D02*X156700Y583500D01*
X158200D01*
X158950Y582750D01*
Y582000D01*
X157450Y580500D02*X158950Y582000D01*
X130000Y574250D02*X160750D01*
X0Y598500D02*X3000D01*
X1500D02*Y592500D01*
X4800Y598500D02*Y592500D01*
Y594750D02*X5550Y595500D01*
X7050D01*
X7800Y594750D01*
Y592500D01*
X10350D02*X12600D01*
X9600Y593250D02*X10350Y592500D01*
X9600Y594750D02*Y593250D01*
Y594750D02*X10350Y595500D01*
X11850D01*
X12600Y594750D01*
X9600Y594000D02*X12600D01*
Y594750D02*Y594000D01*
X15150Y594750D02*Y592500D01*
Y594750D02*X15900Y595500D01*
X17400D01*
X14400D02*X15150Y594750D01*
X19950Y592500D02*X22200D01*
X19200Y593250D02*X19950Y592500D01*
X19200Y594750D02*Y593250D01*
Y594750D02*X19950Y595500D01*
X21450D01*
X22200Y594750D01*
X19200Y594000D02*X22200D01*
Y594750D02*Y594000D01*
X28950Y595500D02*X29700Y594750D01*
X27450Y595500D02*X28950D01*
X26700Y594750D02*X27450Y595500D01*
X26700Y594750D02*Y593250D01*
X27450Y592500D01*
X29700Y595500D02*Y593250D01*
X30450Y592500D01*
X27450D02*X28950D01*
X29700Y593250D01*
X33000Y594750D02*Y592500D01*
Y594750D02*X33750Y595500D01*
X35250D01*
X32250D02*X33000Y594750D01*
X37800Y592500D02*X40050D01*
X37050Y593250D02*X37800Y592500D01*
X37050Y594750D02*Y593250D01*
Y594750D02*X37800Y595500D01*
X39300D01*
X40050Y594750D01*
X37050Y594000D02*X40050D01*
Y594750D02*Y594000D01*
X44550Y597300D02*X45750Y598500D01*
Y592500D01*
X44550D02*X46800D01*
X48600Y597750D02*X49350Y598500D01*
X51600D01*
X52350Y597750D01*
Y596250D01*
X48600Y592500D02*X52350Y596250D01*
X48600Y592500D02*X52350D01*
X59850Y598500D02*Y592500D01*
X59100D02*X59850Y593250D01*
X57600Y592500D02*X59100D01*
X56850Y593250D02*X57600Y592500D01*
X56850Y594750D02*Y593250D01*
Y594750D02*X57600Y595500D01*
X59100D01*
X59850Y594750D01*
G54D244*X61650Y597000D02*Y596850D01*
G54D243*Y594750D02*Y592500D01*
X63900Y597750D02*Y592500D01*
Y597750D02*X64650Y598500D01*
X65400D01*
X63150Y595500D02*X64650D01*
X67650Y597750D02*Y592500D01*
Y597750D02*X68400Y598500D01*
X69150D01*
X66900Y595500D02*X68400D01*
X71400Y592500D02*X73650D01*
X70650Y593250D02*X71400Y592500D01*
X70650Y594750D02*Y593250D01*
Y594750D02*X71400Y595500D01*
X72900D01*
X73650Y594750D01*
X70650Y594000D02*X73650D01*
Y594750D02*Y594000D01*
X76200Y594750D02*Y592500D01*
Y594750D02*X76950Y595500D01*
X78450D01*
X75450D02*X76200Y594750D01*
X81000Y592500D02*X83250D01*
X80250Y593250D02*X81000Y592500D01*
X80250Y594750D02*Y593250D01*
Y594750D02*X81000Y595500D01*
X82500D01*
X83250Y594750D01*
X80250Y594000D02*X83250D01*
Y594750D02*Y594000D01*
X85800Y594750D02*Y592500D01*
Y594750D02*X86550Y595500D01*
X87300D01*
X88050Y594750D01*
Y592500D01*
X85050Y595500D02*X85800Y594750D01*
X90600Y598500D02*Y593250D01*
X91350Y592500D01*
X89850Y596250D02*X91350D01*
X98550Y598500D02*Y592500D01*
X97800D02*X98550Y593250D01*
X96300Y592500D02*X97800D01*
X95550Y593250D02*X96300Y592500D01*
X95550Y594750D02*Y593250D01*
Y594750D02*X96300Y595500D01*
X97800D01*
X98550Y594750D01*
X101100D02*Y592500D01*
Y594750D02*X101850Y595500D01*
X103350D01*
X100350D02*X101100Y594750D01*
G54D244*X105150Y597000D02*Y596850D01*
G54D243*Y594750D02*Y592500D01*
X106650Y598500D02*Y593250D01*
X107400Y592500D01*
X108900Y598500D02*Y593250D01*
X109650Y592500D01*
X114600D02*X116850D01*
X117600Y593250D01*
X116850Y594000D02*X117600Y593250D01*
X114600Y594000D02*X116850D01*
X113850Y594750D02*X114600Y594000D01*
X113850Y594750D02*X114600Y595500D01*
X116850D01*
X117600Y594750D01*
X113850Y593250D02*X114600Y592500D01*
G54D244*X119400Y597000D02*Y596850D01*
G54D243*Y594750D02*Y592500D01*
X120900Y595500D02*X123900D01*
X120900Y592500D02*X123900Y595500D01*
X120900Y592500D02*X123900D01*
X126450D02*X128700D01*
X125700Y593250D02*X126450Y592500D01*
X125700Y594750D02*Y593250D01*
Y594750D02*X126450Y595500D01*
X127950D01*
X128700Y594750D01*
X125700Y594000D02*X128700D01*
Y594750D02*Y594000D01*
X131250Y592500D02*X133500D01*
X134250Y593250D01*
X133500Y594000D02*X134250Y593250D01*
X131250Y594000D02*X133500D01*
X130500Y594750D02*X131250Y594000D01*
X130500Y594750D02*X131250Y595500D01*
X133500D01*
X134250Y594750D01*
X130500Y593250D02*X131250Y592500D01*
X138750Y595500D02*Y593250D01*
X139500Y592500D01*
X141000D01*
X141750Y593250D01*
Y595500D02*Y593250D01*
X144300Y592500D02*X146550D01*
X147300Y593250D01*
X146550Y594000D02*X147300Y593250D01*
X144300Y594000D02*X146550D01*
X143550Y594750D02*X144300Y594000D01*
X143550Y594750D02*X144300Y595500D01*
X146550D01*
X147300Y594750D01*
X143550Y593250D02*X144300Y592500D01*
X149850D02*X152100D01*
X149100Y593250D02*X149850Y592500D01*
X149100Y594750D02*Y593250D01*
Y594750D02*X149850Y595500D01*
X151350D01*
X152100Y594750D01*
X149100Y594000D02*X152100D01*
Y594750D02*Y594000D01*
X156900Y598500D02*Y592500D01*
X156150D02*X156900Y593250D01*
X154650Y592500D02*X156150D01*
X153900Y593250D02*X154650Y592500D01*
X153900Y594750D02*Y593250D01*
Y594750D02*X154650Y595500D01*
X156150D01*
X156900Y594750D01*
G54D244*X161400Y597000D02*Y596850D01*
G54D243*Y594750D02*Y592500D01*
X163650Y594750D02*Y592500D01*
Y594750D02*X164400Y595500D01*
X165150D01*
X165900Y594750D01*
Y592500D01*
X162900Y595500D02*X163650Y594750D01*
X171150Y598500D02*Y593250D01*
X171900Y592500D01*
X170400Y596250D02*X171900D01*
X173400Y598500D02*Y592500D01*
Y594750D02*X174150Y595500D01*
X175650D01*
X176400Y594750D01*
Y592500D01*
G54D244*X178200Y597000D02*Y596850D01*
G54D243*Y594750D02*Y592500D01*
X180450D02*X182700D01*
X183450Y593250D01*
X182700Y594000D02*X183450Y593250D01*
X180450Y594000D02*X182700D01*
X179700Y594750D02*X180450Y594000D01*
X179700Y594750D02*X180450Y595500D01*
X182700D01*
X183450Y594750D01*
X179700Y593250D02*X180450Y592500D01*
X187950Y598500D02*Y593250D01*
X188700Y592500D01*
X192450Y595500D02*X193200Y594750D01*
X190950Y595500D02*X192450D01*
X190200Y594750D02*X190950Y595500D01*
X190200Y594750D02*Y593250D01*
X190950Y592500D01*
X193200Y595500D02*Y593250D01*
X193950Y592500D01*
X190950D02*X192450D01*
X193200Y593250D01*
X195750Y595500D02*Y593250D01*
X196500Y592500D01*
X198750Y595500D02*Y591000D01*
X198000Y590250D02*X198750Y591000D01*
X196500Y590250D02*X198000D01*
X195750Y591000D02*X196500Y590250D01*
Y592500D02*X198000D01*
X198750Y593250D01*
X200550Y594750D02*Y593250D01*
Y594750D02*X201300Y595500D01*
X202800D01*
X203550Y594750D01*
Y593250D01*
X202800Y592500D02*X203550Y593250D01*
X201300Y592500D02*X202800D01*
X200550Y593250D02*X201300Y592500D01*
X205350Y595500D02*Y593250D01*
X206100Y592500D01*
X207600D01*
X208350Y593250D01*
Y595500D02*Y593250D01*
X210900Y598500D02*Y593250D01*
X211650Y592500D01*
X210150Y596250D02*X211650D01*
X213150Y591000D02*X214650Y592500D01*
X219900D02*X222150Y595500D01*
Y597750D02*Y595500D01*
X221400Y598500D02*X222150Y597750D01*
X219900Y598500D02*X221400D01*
X219150Y597750D02*X219900Y598500D01*
X219150Y597750D02*Y596250D01*
X219900Y595500D01*
X222150D01*
X223950Y594750D02*X226950Y598500D01*
X223950Y594750D02*X227700D01*
X226950Y598500D02*Y592500D01*
X230250D02*X233250Y598500D01*
X229500D02*X233250D01*
X237750D02*Y592500D01*
Y594750D02*X238500Y595500D01*
X240000D01*
X240750Y594750D01*
Y592500D01*
X242550Y594750D02*Y593250D01*
Y594750D02*X243300Y595500D01*
X244800D01*
X245550Y594750D01*
Y593250D01*
X244800Y592500D02*X245550Y593250D01*
X243300Y592500D02*X244800D01*
X242550Y593250D02*X243300Y592500D01*
X247350Y598500D02*Y593250D01*
X248100Y592500D01*
X250350D02*X252600D01*
X249600Y593250D02*X250350Y592500D01*
X249600Y594750D02*Y593250D01*
Y594750D02*X250350Y595500D01*
X251850D01*
X252600Y594750D01*
X249600Y594000D02*X252600D01*
Y594750D02*Y594000D01*
X255150Y592500D02*X257400D01*
X258150Y593250D01*
X257400Y594000D02*X258150Y593250D01*
X255150Y594000D02*X257400D01*
X254400Y594750D02*X255150Y594000D01*
X254400Y594750D02*X255150Y595500D01*
X257400D01*
X258150Y594750D01*
X254400Y593250D02*X255150Y592500D01*
X263400Y598500D02*Y593250D01*
X264150Y592500D01*
X262650Y596250D02*X264150D01*
X265650Y594750D02*Y593250D01*
Y594750D02*X266400Y595500D01*
X267900D01*
X268650Y594750D01*
Y593250D01*
X267900Y592500D02*X268650Y593250D01*
X266400Y592500D02*X267900D01*
X265650Y593250D02*X266400Y592500D01*
X271200Y598500D02*Y593250D01*
X271950Y592500D01*
X270450Y596250D02*X271950D01*
X275700Y595500D02*X276450Y594750D01*
X274200Y595500D02*X275700D01*
X273450Y594750D02*X274200Y595500D01*
X273450Y594750D02*Y593250D01*
X274200Y592500D01*
X276450Y595500D02*Y593250D01*
X277200Y592500D01*
X274200D02*X275700D01*
X276450Y593250D01*
X279000Y598500D02*Y593250D01*
X279750Y592500D01*
G54D245*X0Y390000D02*X464000D01*
X0D02*Y0D01*
X464000Y390000D02*Y0D01*
X0D02*X464000D01*
G54D243*X200000Y403500D02*Y397500D01*
Y403500D02*X202250Y400500D01*
X204500Y403500D01*
Y397500D01*
X208550Y400500D02*X209300Y399750D01*
X207050Y400500D02*X208550D01*
X206300Y399750D02*X207050Y400500D01*
X206300Y399750D02*Y398250D01*
X207050Y397500D01*
X209300Y400500D02*Y398250D01*
X210050Y397500D01*
X207050D02*X208550D01*
X209300Y398250D01*
X211850Y400500D02*X214850Y397500D01*
X211850D02*X214850Y400500D01*
G54D244*X216650Y402000D02*Y401850D01*
G54D243*Y399750D02*Y397500D01*
X218900Y399750D02*Y397500D01*
Y399750D02*X219650Y400500D01*
X220400D01*
X221150Y399750D01*
Y397500D01*
Y399750D02*X221900Y400500D01*
X222650D01*
X223400Y399750D01*
Y397500D01*
X218150Y400500D02*X218900Y399750D01*
X225200Y400500D02*Y398250D01*
X225950Y397500D01*
X227450D01*
X228200Y398250D01*
Y400500D02*Y398250D01*
X230750Y399750D02*Y397500D01*
Y399750D02*X231500Y400500D01*
X232250D01*
X233000Y399750D01*
Y397500D01*
Y399750D02*X233750Y400500D01*
X234500D01*
X235250Y399750D01*
Y397500D01*
X230000Y400500D02*X230750Y399750D01*
X240500Y403500D02*Y397500D01*
X242450Y403500D02*X243500Y402450D01*
Y398550D01*
X242450Y397500D02*X243500Y398550D01*
X239750Y397500D02*X242450D01*
X239750Y403500D02*X242450D01*
G54D244*X245300Y402000D02*Y401850D01*
G54D243*Y399750D02*Y397500D01*
X247550Y399750D02*Y397500D01*
Y399750D02*X248300Y400500D01*
X249050D01*
X249800Y399750D01*
Y397500D01*
Y399750D02*X250550Y400500D01*
X251300D01*
X252050Y399750D01*
Y397500D01*
X246800Y400500D02*X247550Y399750D01*
X254600Y397500D02*X256850D01*
X253850Y398250D02*X254600Y397500D01*
X253850Y399750D02*Y398250D01*
Y399750D02*X254600Y400500D01*
X256100D01*
X256850Y399750D01*
X253850Y399000D02*X256850D01*
Y399750D02*Y399000D01*
X259400Y399750D02*Y397500D01*
Y399750D02*X260150Y400500D01*
X260900D01*
X261650Y399750D01*
Y397500D01*
X258650Y400500D02*X259400Y399750D01*
X264200Y397500D02*X266450D01*
X267200Y398250D01*
X266450Y399000D02*X267200Y398250D01*
X264200Y399000D02*X266450D01*
X263450Y399750D02*X264200Y399000D01*
X263450Y399750D02*X264200Y400500D01*
X266450D01*
X267200Y399750D01*
X263450Y398250D02*X264200Y397500D01*
G54D244*X269000Y402000D02*Y401850D01*
G54D243*Y399750D02*Y397500D01*
X270500Y399750D02*Y398250D01*
Y399750D02*X271250Y400500D01*
X272750D01*
X273500Y399750D01*
Y398250D01*
X272750Y397500D02*X273500Y398250D01*
X271250Y397500D02*X272750D01*
X270500Y398250D02*X271250Y397500D01*
X276050Y399750D02*Y397500D01*
Y399750D02*X276800Y400500D01*
X277550D01*
X278300Y399750D01*
Y397500D01*
X275300Y400500D02*X276050Y399750D01*
X280850Y397500D02*X283100D01*
X283850Y398250D01*
X283100Y399000D02*X283850Y398250D01*
X280850Y399000D02*X283100D01*
X280100Y399750D02*X280850Y399000D01*
X280100Y399750D02*X280850Y400500D01*
X283100D01*
X283850Y399750D01*
X280100Y398250D02*X280850Y397500D01*
X285650Y401250D02*X286400D01*
X285650Y399750D02*X286400D01*
X290900D02*X293900Y403500D01*
X290900Y399750D02*X294650D01*
X293900Y403500D02*Y397500D01*
X298700Y403500D02*X299450Y402750D01*
X297200Y403500D02*X298700D01*
X296450Y402750D02*X297200Y403500D01*
X296450Y402750D02*Y398250D01*
X297200Y397500D01*
X298700Y400800D02*X299450Y400050D01*
X296450Y400800D02*X298700D01*
X297200Y397500D02*X298700D01*
X299450Y398250D01*
Y400050D02*Y398250D01*
X301250Y399750D02*X304250Y403500D01*
X301250Y399750D02*X305000D01*
X304250Y403500D02*Y397500D01*
X306800Y398250D02*X307550Y397500D01*
X306800Y402750D02*Y398250D01*
Y402750D02*X307550Y403500D01*
X309050D01*
X309800Y402750D01*
Y398250D01*
X309050Y397500D02*X309800Y398250D01*
X307550Y397500D02*X309050D01*
X306800Y399000D02*X309800Y402000D01*
X311600Y397500D02*X312350D01*
X314150Y398250D02*X314900Y397500D01*
X314150Y402750D02*Y398250D01*
Y402750D02*X314900Y403500D01*
X316400D01*
X317150Y402750D01*
Y398250D01*
X316400Y397500D02*X317150Y398250D01*
X314900Y397500D02*X316400D01*
X314150Y399000D02*X317150Y402000D01*
X318950Y398250D02*X319700Y397500D01*
X318950Y402750D02*Y398250D01*
Y402750D02*X319700Y403500D01*
X321200D01*
X321950Y402750D01*
Y398250D01*
X321200Y397500D02*X321950Y398250D01*
X319700Y397500D02*X321200D01*
X318950Y399000D02*X321950Y402000D01*
X323750Y398250D02*X324500Y397500D01*
X323750Y402750D02*Y398250D01*
Y402750D02*X324500Y403500D01*
X326000D01*
X326750Y402750D01*
Y398250D01*
X326000Y397500D02*X326750Y398250D01*
X324500Y397500D02*X326000D01*
X323750Y399000D02*X326750Y402000D01*
X328550Y398250D02*X329300Y397500D01*
X328550Y402750D02*Y398250D01*
Y402750D02*X329300Y403500D01*
X330800D01*
X331550Y402750D01*
Y398250D01*
X330800Y397500D02*X331550Y398250D01*
X329300Y397500D02*X330800D01*
X328550Y399000D02*X331550Y402000D01*
X333350Y398250D02*X334100Y397500D01*
X333350Y402750D02*Y398250D01*
Y402750D02*X334100Y403500D01*
X335600D01*
X336350Y402750D01*
Y398250D01*
X335600Y397500D02*X336350Y398250D01*
X334100Y397500D02*X335600D01*
X333350Y399000D02*X336350Y402000D01*
X338150Y398250D02*X338900Y397500D01*
X338150Y402750D02*Y398250D01*
Y402750D02*X338900Y403500D01*
X340400D01*
X341150Y402750D01*
Y398250D01*
X340400Y397500D02*X341150Y398250D01*
X338900Y397500D02*X340400D01*
X338150Y399000D02*X341150Y402000D01*
X346400Y399750D02*Y397500D01*
Y399750D02*X347150Y400500D01*
X347900D01*
X348650Y399750D01*
Y397500D01*
Y399750D02*X349400Y400500D01*
X350150D01*
X350900Y399750D01*
Y397500D01*
X345650Y400500D02*X346400Y399750D01*
G54D244*X352700Y402000D02*Y401850D01*
G54D243*Y399750D02*Y397500D01*
X354200Y403500D02*Y398250D01*
X354950Y397500D01*
X357200D02*X359450D01*
X360200Y398250D01*
X359450Y399000D02*X360200Y398250D01*
X357200Y399000D02*X359450D01*
X356450Y399750D02*X357200Y399000D01*
X356450Y399750D02*X357200Y400500D01*
X359450D01*
X360200Y399750D01*
X356450Y398250D02*X357200Y397500D01*
X364700Y400500D02*Y398250D01*
X365450Y397500D01*
X366200D01*
X366950Y398250D01*
Y400500D02*Y398250D01*
X367700Y397500D01*
X368450D01*
X369200Y398250D01*
Y400500D02*Y398250D01*
G54D244*X371000Y402000D02*Y401850D01*
G54D243*Y399750D02*Y397500D01*
X375500Y403500D02*Y397500D01*
X374750D02*X375500Y398250D01*
X373250Y397500D02*X374750D01*
X372500Y398250D02*X373250Y397500D01*
X372500Y399750D02*Y398250D01*
Y399750D02*X373250Y400500D01*
X374750D01*
X375500Y399750D01*
X378050Y397500D02*X380300D01*
X377300Y398250D02*X378050Y397500D01*
X377300Y399750D02*Y398250D01*
Y399750D02*X378050Y400500D01*
X379550D01*
X380300Y399750D01*
X377300Y399000D02*X380300D01*
Y399750D02*Y399000D01*
X382100Y396000D02*X383600Y397500D01*
X388100Y402750D02*X388850Y403500D01*
X390350D01*
X391100Y402750D01*
X390350Y397500D02*X391100Y398250D01*
X388850Y397500D02*X390350D01*
X388100Y398250D02*X388850Y397500D01*
Y400800D02*X390350D01*
X391100Y402750D02*Y401550D01*
Y400050D02*Y398250D01*
Y400050D02*X390350Y400800D01*
X391100Y401550D02*X390350Y400800D01*
X393650Y397500D02*X395900Y400500D01*
Y402750D02*Y400500D01*
X395150Y403500D02*X395900Y402750D01*
X393650Y403500D02*X395150D01*
X392900Y402750D02*X393650Y403500D01*
X392900Y402750D02*Y401250D01*
X393650Y400500D01*
X395900D01*
X397700Y398250D02*X398450Y397500D01*
X397700Y402750D02*Y398250D01*
Y402750D02*X398450Y403500D01*
X399950D01*
X400700Y402750D01*
Y398250D01*
X399950Y397500D02*X400700Y398250D01*
X398450Y397500D02*X399950D01*
X397700Y399000D02*X400700Y402000D01*
X402500Y398250D02*X403250Y397500D01*
X402500Y402750D02*Y398250D01*
Y402750D02*X403250Y403500D01*
X404750D01*
X405500Y402750D01*
Y398250D01*
X404750Y397500D02*X405500Y398250D01*
X403250Y397500D02*X404750D01*
X402500Y399000D02*X405500Y402000D01*
X407300Y397500D02*X408050D01*
X409850Y398250D02*X410600Y397500D01*
X409850Y402750D02*Y398250D01*
Y402750D02*X410600Y403500D01*
X412100D01*
X412850Y402750D01*
Y398250D01*
X412100Y397500D02*X412850Y398250D01*
X410600Y397500D02*X412100D01*
X409850Y399000D02*X412850Y402000D01*
X414650Y398250D02*X415400Y397500D01*
X414650Y402750D02*Y398250D01*
Y402750D02*X415400Y403500D01*
X416900D01*
X417650Y402750D01*
Y398250D01*
X416900Y397500D02*X417650Y398250D01*
X415400Y397500D02*X416900D01*
X414650Y399000D02*X417650Y402000D01*
X419450Y398250D02*X420200Y397500D01*
X419450Y402750D02*Y398250D01*
Y402750D02*X420200Y403500D01*
X421700D01*
X422450Y402750D01*
Y398250D01*
X421700Y397500D02*X422450Y398250D01*
X420200Y397500D02*X421700D01*
X419450Y399000D02*X422450Y402000D01*
X424250Y398250D02*X425000Y397500D01*
X424250Y402750D02*Y398250D01*
Y402750D02*X425000Y403500D01*
X426500D01*
X427250Y402750D01*
Y398250D01*
X426500Y397500D02*X427250Y398250D01*
X425000Y397500D02*X426500D01*
X424250Y399000D02*X427250Y402000D01*
X429050Y398250D02*X429800Y397500D01*
X429050Y402750D02*Y398250D01*
Y402750D02*X429800Y403500D01*
X431300D01*
X432050Y402750D01*
Y398250D01*
X431300Y397500D02*X432050Y398250D01*
X429800Y397500D02*X431300D01*
X429050Y399000D02*X432050Y402000D01*
X433850Y398250D02*X434600Y397500D01*
X433850Y402750D02*Y398250D01*
Y402750D02*X434600Y403500D01*
X436100D01*
X436850Y402750D01*
Y398250D01*
X436100Y397500D02*X436850Y398250D01*
X434600Y397500D02*X436100D01*
X433850Y399000D02*X436850Y402000D01*
X442100Y399750D02*Y397500D01*
Y399750D02*X442850Y400500D01*
X443600D01*
X444350Y399750D01*
Y397500D01*
Y399750D02*X445100Y400500D01*
X445850D01*
X446600Y399750D01*
Y397500D01*
X441350Y400500D02*X442100Y399750D01*
G54D244*X448400Y402000D02*Y401850D01*
G54D243*Y399750D02*Y397500D01*
X449900Y403500D02*Y398250D01*
X450650Y397500D01*
X452900D02*X455150D01*
X455900Y398250D01*
X455150Y399000D02*X455900Y398250D01*
X452900Y399000D02*X455150D01*
X452150Y399750D02*X452900Y399000D01*
X452150Y399750D02*X452900Y400500D01*
X455150D01*
X455900Y399750D01*
X452150Y398250D02*X452900Y397500D01*
X460400Y403500D02*Y397500D01*
Y399750D02*X461150Y400500D01*
X462650D01*
X463400Y399750D01*
Y397500D01*
G54D244*X465200Y402000D02*Y401850D01*
G54D243*Y399750D02*Y397500D01*
X468950Y400500D02*X469700Y399750D01*
X467450Y400500D02*X468950D01*
X466700Y399750D02*X467450Y400500D01*
X466700Y399750D02*Y398250D01*
X467450Y397500D01*
X468950D01*
X469700Y398250D01*
X466700Y396000D02*X467450Y395250D01*
X468950D01*
X469700Y396000D01*
Y400500D02*Y396000D01*
X471500Y403500D02*Y397500D01*
Y399750D02*X472250Y400500D01*
X473750D01*
X474500Y399750D01*
Y397500D01*
X28525Y-9500D02*X31525D01*
X32275Y-8750D01*
Y-6950D02*Y-8750D01*
X31525Y-6200D02*X32275Y-6950D01*
X29275Y-6200D02*X31525D01*
X29275Y-3500D02*Y-9500D01*
X28525Y-3500D02*X31525D01*
X32275Y-4250D01*
Y-5450D01*
X31525Y-6200D02*X32275Y-5450D01*
X34075Y-7250D02*Y-8750D01*
Y-7250D02*X34825Y-6500D01*
X36325D01*
X37075Y-7250D01*
Y-8750D01*
X36325Y-9500D02*X37075Y-8750D01*
X34825Y-9500D02*X36325D01*
X34075Y-8750D02*X34825Y-9500D01*
X41125Y-6500D02*X41875Y-7250D01*
X39625Y-6500D02*X41125D01*
X38875Y-7250D02*X39625Y-6500D01*
X38875Y-7250D02*Y-8750D01*
X39625Y-9500D01*
X41875Y-6500D02*Y-8750D01*
X42625Y-9500D01*
X39625D02*X41125D01*
X41875Y-8750D01*
X45175Y-7250D02*Y-9500D01*
Y-7250D02*X45925Y-6500D01*
X47425D01*
X44425D02*X45175Y-7250D01*
X52225Y-3500D02*Y-9500D01*
X51475D02*X52225Y-8750D01*
X49975Y-9500D02*X51475D01*
X49225Y-8750D02*X49975Y-9500D01*
X49225Y-7250D02*Y-8750D01*
Y-7250D02*X49975Y-6500D01*
X51475D01*
X52225Y-7250D01*
X56725D02*Y-8750D01*
Y-7250D02*X57475Y-6500D01*
X58975D01*
X59725Y-7250D01*
Y-8750D01*
X58975Y-9500D02*X59725Y-8750D01*
X57475Y-9500D02*X58975D01*
X56725Y-8750D02*X57475Y-9500D01*
X61525Y-6500D02*Y-8750D01*
X62275Y-9500D01*
X63775D01*
X64525Y-8750D01*
Y-6500D02*Y-8750D01*
X67075Y-3500D02*Y-8750D01*
X67825Y-9500D01*
X66325Y-5750D02*X67825D01*
X69325Y-3500D02*Y-8750D01*
X70075Y-9500D01*
G54D244*X71575Y-5000D02*Y-5150D01*
G54D243*Y-7250D02*Y-9500D01*
X73825Y-7250D02*Y-9500D01*
Y-7250D02*X74575Y-6500D01*
X75325D01*
X76075Y-7250D01*
Y-9500D01*
X73075Y-6500D02*X73825Y-7250D01*
X78625Y-9500D02*X80875D01*
X77875Y-8750D02*X78625Y-9500D01*
X77875Y-7250D02*Y-8750D01*
Y-7250D02*X78625Y-6500D01*
X80125D01*
X80875Y-7250D01*
X77875Y-8000D02*X80875D01*
Y-7250D02*Y-8000D01*
G54D244*X85375Y-5000D02*Y-5150D01*
G54D243*Y-7250D02*Y-9500D01*
X87625D02*X89875D01*
X90625Y-8750D01*
X89875Y-8000D02*X90625Y-8750D01*
X87625Y-8000D02*X89875D01*
X86875Y-7250D02*X87625Y-8000D01*
X86875Y-7250D02*X87625Y-6500D01*
X89875D01*
X90625Y-7250D01*
X86875Y-8750D02*X87625Y-9500D01*
X95875Y-3500D02*Y-8750D01*
X96625Y-9500D01*
X95125Y-5750D02*X96625D01*
X98125Y-3500D02*Y-9500D01*
Y-7250D02*X98875Y-6500D01*
X100375D01*
X101125Y-7250D01*
Y-9500D01*
X103675D02*X105925D01*
X102925Y-8750D02*X103675Y-9500D01*
X102925Y-7250D02*Y-8750D01*
Y-7250D02*X103675Y-6500D01*
X105175D01*
X105925Y-7250D01*
X102925Y-8000D02*X105925D01*
Y-7250D02*Y-8000D01*
X111175Y-6500D02*X113425D01*
X110425Y-7250D02*X111175Y-6500D01*
X110425Y-7250D02*Y-8750D01*
X111175Y-9500D01*
X113425D01*
X115975D02*X118225D01*
X115225Y-8750D02*X115975Y-9500D01*
X115225Y-7250D02*Y-8750D01*
Y-7250D02*X115975Y-6500D01*
X117475D01*
X118225Y-7250D01*
X115225Y-8000D02*X118225D01*
Y-7250D02*Y-8000D01*
X120775Y-7250D02*Y-9500D01*
Y-7250D02*X121525Y-6500D01*
X122275D01*
X123025Y-7250D01*
Y-9500D01*
X120025Y-6500D02*X120775Y-7250D01*
X125575Y-3500D02*Y-8750D01*
X126325Y-9500D01*
X124825Y-5750D02*X126325D01*
X128575Y-9500D02*X130825D01*
X127825Y-8750D02*X128575Y-9500D01*
X127825Y-7250D02*Y-8750D01*
Y-7250D02*X128575Y-6500D01*
X130075D01*
X130825Y-7250D01*
X127825Y-8000D02*X130825D01*
Y-7250D02*Y-8000D01*
X133375Y-7250D02*Y-9500D01*
Y-7250D02*X134125Y-6500D01*
X135625D01*
X132625D02*X133375Y-7250D01*
X137425Y-3500D02*Y-8750D01*
X138175Y-9500D01*
G54D244*X139675Y-5000D02*Y-5150D01*
G54D243*Y-7250D02*Y-9500D01*
X141925Y-7250D02*Y-9500D01*
Y-7250D02*X142675Y-6500D01*
X143425D01*
X144175Y-7250D01*
Y-9500D01*
X141175Y-6500D02*X141925Y-7250D01*
X146725Y-9500D02*X148975D01*
X145975Y-8750D02*X146725Y-9500D01*
X145975Y-7250D02*Y-8750D01*
Y-7250D02*X146725Y-6500D01*
X148225D01*
X148975Y-7250D01*
X145975Y-8000D02*X148975D01*
Y-7250D02*Y-8000D01*
X153475Y-7250D02*Y-8750D01*
Y-7250D02*X154225Y-6500D01*
X155725D01*
X156475Y-7250D01*
Y-8750D01*
X155725Y-9500D02*X156475Y-8750D01*
X154225Y-9500D02*X155725D01*
X153475Y-8750D02*X154225Y-9500D01*
X159025Y-4250D02*Y-9500D01*
Y-4250D02*X159775Y-3500D01*
X160525D01*
X158275Y-6500D02*X159775D01*
X165475Y-3500D02*Y-8750D01*
X166225Y-9500D01*
X164725Y-5750D02*X166225D01*
X167725Y-3500D02*Y-9500D01*
Y-7250D02*X168475Y-6500D01*
X169975D01*
X170725Y-7250D01*
Y-9500D01*
G54D244*X172525Y-5000D02*Y-5150D01*
G54D243*Y-7250D02*Y-9500D01*
X174775D02*X177025D01*
X177775Y-8750D01*
X177025Y-8000D02*X177775Y-8750D01*
X174775Y-8000D02*X177025D01*
X174025Y-7250D02*X174775Y-8000D01*
X174025Y-7250D02*X174775Y-6500D01*
X177025D01*
X177775Y-7250D01*
X174025Y-8750D02*X174775Y-9500D01*
X182275Y-8750D02*X183025Y-9500D01*
X182275Y-7550D02*Y-8750D01*
Y-7550D02*X183325Y-6500D01*
X184225D01*
X185275Y-7550D01*
Y-8750D01*
X184525Y-9500D02*X185275Y-8750D01*
X183025Y-9500D02*X184525D01*
X182275Y-5450D02*X183325Y-6500D01*
X182275Y-4250D02*Y-5450D01*
Y-4250D02*X183025Y-3500D01*
X184525D01*
X185275Y-4250D01*
Y-5450D01*
X184225Y-6500D02*X185275Y-5450D01*
X187075Y-9500D02*X187825D01*
X189625Y-8750D02*X190375Y-9500D01*
X189625Y-4250D02*Y-8750D01*
Y-4250D02*X190375Y-3500D01*
X191875D01*
X192625Y-4250D01*
Y-8750D01*
X191875Y-9500D02*X192625Y-8750D01*
X190375Y-9500D02*X191875D01*
X189625Y-8000D02*X192625Y-5000D01*
X194425Y-8750D02*X195175Y-9500D01*
X194425Y-4250D02*Y-8750D01*
Y-4250D02*X195175Y-3500D01*
X196675D01*
X197425Y-4250D01*
Y-8750D01*
X196675Y-9500D02*X197425Y-8750D01*
X195175Y-9500D02*X196675D01*
X194425Y-8000D02*X197425Y-5000D01*
X199225Y-8750D02*X199975Y-9500D01*
X199225Y-4250D02*Y-8750D01*
Y-4250D02*X199975Y-3500D01*
X201475D01*
X202225Y-4250D01*
Y-8750D01*
X201475Y-9500D02*X202225Y-8750D01*
X199975Y-9500D02*X201475D01*
X199225Y-8000D02*X202225Y-5000D01*
X204025Y-8750D02*X204775Y-9500D01*
X204025Y-4250D02*Y-8750D01*
Y-4250D02*X204775Y-3500D01*
X206275D01*
X207025Y-4250D01*
Y-8750D01*
X206275Y-9500D02*X207025Y-8750D01*
X204775Y-9500D02*X206275D01*
X204025Y-8000D02*X207025Y-5000D01*
X208825Y-8750D02*X209575Y-9500D01*
X208825Y-4250D02*Y-8750D01*
Y-4250D02*X209575Y-3500D01*
X211075D01*
X211825Y-4250D01*
Y-8750D01*
X211075Y-9500D02*X211825Y-8750D01*
X209575Y-9500D02*X211075D01*
X208825Y-8000D02*X211825Y-5000D01*
X213625Y-8750D02*X214375Y-9500D01*
X213625Y-4250D02*Y-8750D01*
Y-4250D02*X214375Y-3500D01*
X215875D01*
X216625Y-4250D01*
Y-8750D01*
X215875Y-9500D02*X216625Y-8750D01*
X214375Y-9500D02*X215875D01*
X213625Y-8000D02*X216625Y-5000D01*
X221875Y-7250D02*Y-9500D01*
Y-7250D02*X222625Y-6500D01*
X223375D01*
X224125Y-7250D01*
Y-9500D01*
Y-7250D02*X224875Y-6500D01*
X225625D01*
X226375Y-7250D01*
Y-9500D01*
X221125Y-6500D02*X221875Y-7250D01*
G54D244*X228175Y-5000D02*Y-5150D01*
G54D243*Y-7250D02*Y-9500D01*
X229675Y-3500D02*Y-8750D01*
X230425Y-9500D01*
X235375Y-7250D02*Y-9500D01*
Y-7250D02*X236125Y-6500D01*
X237625D01*
X234625D02*X235375Y-7250D01*
X240175Y-9500D02*X242425D01*
X239425Y-8750D02*X240175Y-9500D01*
X239425Y-7250D02*Y-8750D01*
Y-7250D02*X240175Y-6500D01*
X241675D01*
X242425Y-7250D01*
X239425Y-8000D02*X242425D01*
Y-7250D02*Y-8000D01*
X244975Y-6500D02*X247225D01*
X244225Y-7250D02*X244975Y-6500D01*
X244225Y-7250D02*Y-8750D01*
X244975Y-9500D01*
X247225D01*
X249775Y-3500D02*Y-8750D01*
X250525Y-9500D01*
X249025Y-5750D02*X250525D01*
X254275Y-6500D02*X255025Y-7250D01*
X252775Y-6500D02*X254275D01*
X252025Y-7250D02*X252775Y-6500D01*
X252025Y-7250D02*Y-8750D01*
X252775Y-9500D01*
X255025Y-6500D02*Y-8750D01*
X255775Y-9500D01*
X252775D02*X254275D01*
X255025Y-8750D01*
X258325Y-7250D02*Y-9500D01*
Y-7250D02*X259075Y-6500D01*
X259825D01*
X260575Y-7250D01*
Y-9500D01*
X257575Y-6500D02*X258325Y-7250D01*
X264625Y-6500D02*X265375Y-7250D01*
X263125Y-6500D02*X264625D01*
X262375Y-7250D02*X263125Y-6500D01*
X262375Y-7250D02*Y-8750D01*
X263125Y-9500D01*
X264625D01*
X265375Y-8750D01*
X262375Y-11000D02*X263125Y-11750D01*
X264625D01*
X265375Y-11000D01*
Y-6500D02*Y-11000D01*
X267175Y-3500D02*Y-8750D01*
X267925Y-9500D01*
X270175D02*X272425D01*
X269425Y-8750D02*X270175Y-9500D01*
X269425Y-7250D02*Y-8750D01*
Y-7250D02*X270175Y-6500D01*
X271675D01*
X272425Y-7250D01*
X269425Y-8000D02*X272425D01*
Y-7250D02*Y-8000D01*
X276925Y-6500D02*X279925D01*
X284425Y-8750D02*X285175Y-9500D01*
X284425Y-4250D02*Y-8750D01*
Y-4250D02*X285175Y-3500D01*
X286675D01*
X287425Y-4250D01*
Y-8750D01*
X286675Y-9500D02*X287425Y-8750D01*
X285175Y-9500D02*X286675D01*
X284425Y-8000D02*X287425Y-5000D01*
X289225Y-11000D02*X290725Y-9500D01*
X292525Y-8750D02*X293275Y-9500D01*
X292525Y-4250D02*Y-8750D01*
Y-4250D02*X293275Y-3500D01*
X294775D01*
X295525Y-4250D01*
Y-8750D01*
X294775Y-9500D02*X295525Y-8750D01*
X293275Y-9500D02*X294775D01*
X292525Y-8000D02*X295525Y-5000D01*
X300775Y-3500D02*Y-8750D01*
X301525Y-9500D01*
X300025Y-5750D02*X301525D01*
X303025Y-7250D02*Y-8750D01*
Y-7250D02*X303775Y-6500D01*
X305275D01*
X306025Y-7250D01*
Y-8750D01*
X305275Y-9500D02*X306025Y-8750D01*
X303775Y-9500D02*X305275D01*
X303025Y-8750D02*X303775Y-9500D01*
X310525Y-7250D02*X313525Y-3500D01*
X310525Y-7250D02*X314275D01*
X313525Y-3500D02*Y-9500D01*
X318325Y-3500D02*X319075Y-4250D01*
X316825Y-3500D02*X318325D01*
X316075Y-4250D02*X316825Y-3500D01*
X316075Y-4250D02*Y-8750D01*
X316825Y-9500D01*
X318325Y-6200D02*X319075Y-6950D01*
X316075Y-6200D02*X318325D01*
X316825Y-9500D02*X318325D01*
X319075Y-8750D01*
Y-6950D02*Y-8750D01*
X320875Y-7250D02*X323875Y-3500D01*
X320875Y-7250D02*X324625D01*
X323875Y-3500D02*Y-9500D01*
X326425Y-8750D02*X327175Y-9500D01*
X326425Y-4250D02*Y-8750D01*
Y-4250D02*X327175Y-3500D01*
X328675D01*
X329425Y-4250D01*
Y-8750D01*
X328675Y-9500D02*X329425Y-8750D01*
X327175Y-9500D02*X328675D01*
X326425Y-8000D02*X329425Y-5000D01*
X331225Y-9500D02*X331975D01*
X333775Y-8750D02*X334525Y-9500D01*
X333775Y-4250D02*Y-8750D01*
Y-4250D02*X334525Y-3500D01*
X336025D01*
X336775Y-4250D01*
Y-8750D01*
X336025Y-9500D02*X336775Y-8750D01*
X334525Y-9500D02*X336025D01*
X333775Y-8000D02*X336775Y-5000D01*
X338575Y-8750D02*X339325Y-9500D01*
X338575Y-4250D02*Y-8750D01*
Y-4250D02*X339325Y-3500D01*
X340825D01*
X341575Y-4250D01*
Y-8750D01*
X340825Y-9500D02*X341575Y-8750D01*
X339325Y-9500D02*X340825D01*
X338575Y-8000D02*X341575Y-5000D01*
X343375Y-8750D02*X344125Y-9500D01*
X343375Y-4250D02*Y-8750D01*
Y-4250D02*X344125Y-3500D01*
X345625D01*
X346375Y-4250D01*
Y-8750D01*
X345625Y-9500D02*X346375Y-8750D01*
X344125Y-9500D02*X345625D01*
X343375Y-8000D02*X346375Y-5000D01*
X348175Y-8750D02*X348925Y-9500D01*
X348175Y-4250D02*Y-8750D01*
Y-4250D02*X348925Y-3500D01*
X350425D01*
X351175Y-4250D01*
Y-8750D01*
X350425Y-9500D02*X351175Y-8750D01*
X348925Y-9500D02*X350425D01*
X348175Y-8000D02*X351175Y-5000D01*
X352975Y-8750D02*X353725Y-9500D01*
X352975Y-4250D02*Y-8750D01*
Y-4250D02*X353725Y-3500D01*
X355225D01*
X355975Y-4250D01*
Y-8750D01*
X355225Y-9500D02*X355975Y-8750D01*
X353725Y-9500D02*X355225D01*
X352975Y-8000D02*X355975Y-5000D01*
X357775Y-8750D02*X358525Y-9500D01*
X357775Y-4250D02*Y-8750D01*
Y-4250D02*X358525Y-3500D01*
X360025D01*
X360775Y-4250D01*
Y-8750D01*
X360025Y-9500D02*X360775Y-8750D01*
X358525Y-9500D02*X360025D01*
X357775Y-8000D02*X360775Y-5000D01*
X362575Y-11000D02*X364075Y-9500D01*
X365875Y-4250D02*X366625Y-3500D01*
X368125D01*
X368875Y-4250D01*
X368125Y-9500D02*X368875Y-8750D01*
X366625Y-9500D02*X368125D01*
X365875Y-8750D02*X366625Y-9500D01*
Y-6200D02*X368125D01*
X368875Y-4250D02*Y-5450D01*
Y-6950D02*Y-8750D01*
Y-6950D02*X368125Y-6200D01*
X368875Y-5450D02*X368125Y-6200D01*
X371425Y-9500D02*X373675Y-6500D01*
Y-4250D02*Y-6500D01*
X372925Y-3500D02*X373675Y-4250D01*
X371425Y-3500D02*X372925D01*
X370675Y-4250D02*X371425Y-3500D01*
X370675Y-4250D02*Y-5750D01*
X371425Y-6500D01*
X373675D01*
X375475Y-8750D02*X376225Y-9500D01*
X375475Y-4250D02*Y-8750D01*
Y-4250D02*X376225Y-3500D01*
X377725D01*
X378475Y-4250D01*
Y-8750D01*
X377725Y-9500D02*X378475Y-8750D01*
X376225Y-9500D02*X377725D01*
X375475Y-8000D02*X378475Y-5000D01*
X380275Y-8750D02*X381025Y-9500D01*
X380275Y-4250D02*Y-8750D01*
Y-4250D02*X381025Y-3500D01*
X382525D01*
X383275Y-4250D01*
Y-8750D01*
X382525Y-9500D02*X383275Y-8750D01*
X381025Y-9500D02*X382525D01*
X380275Y-8000D02*X383275Y-5000D01*
X385075Y-9500D02*X385825D01*
X387625Y-8750D02*X388375Y-9500D01*
X387625Y-4250D02*Y-8750D01*
Y-4250D02*X388375Y-3500D01*
X389875D01*
X390625Y-4250D01*
Y-8750D01*
X389875Y-9500D02*X390625Y-8750D01*
X388375Y-9500D02*X389875D01*
X387625Y-8000D02*X390625Y-5000D01*
X392425Y-8750D02*X393175Y-9500D01*
X392425Y-4250D02*Y-8750D01*
Y-4250D02*X393175Y-3500D01*
X394675D01*
X395425Y-4250D01*
Y-8750D01*
X394675Y-9500D02*X395425Y-8750D01*
X393175Y-9500D02*X394675D01*
X392425Y-8000D02*X395425Y-5000D01*
X397225Y-8750D02*X397975Y-9500D01*
X397225Y-4250D02*Y-8750D01*
Y-4250D02*X397975Y-3500D01*
X399475D01*
X400225Y-4250D01*
Y-8750D01*
X399475Y-9500D02*X400225Y-8750D01*
X397975Y-9500D02*X399475D01*
X397225Y-8000D02*X400225Y-5000D01*
X402025Y-8750D02*X402775Y-9500D01*
X402025Y-4250D02*Y-8750D01*
Y-4250D02*X402775Y-3500D01*
X404275D01*
X405025Y-4250D01*
Y-8750D01*
X404275Y-9500D02*X405025Y-8750D01*
X402775Y-9500D02*X404275D01*
X402025Y-8000D02*X405025Y-5000D01*
X406825Y-8750D02*X407575Y-9500D01*
X406825Y-4250D02*Y-8750D01*
Y-4250D02*X407575Y-3500D01*
X409075D01*
X409825Y-4250D01*
Y-8750D01*
X409075Y-9500D02*X409825Y-8750D01*
X407575Y-9500D02*X409075D01*
X406825Y-8000D02*X409825Y-5000D01*
X411625Y-8750D02*X412375Y-9500D01*
X411625Y-4250D02*Y-8750D01*
Y-4250D02*X412375Y-3500D01*
X413875D01*
X414625Y-4250D01*
Y-8750D01*
X413875Y-9500D02*X414625Y-8750D01*
X412375Y-9500D02*X413875D01*
X411625Y-8000D02*X414625Y-5000D01*
X419875Y-7250D02*Y-9500D01*
Y-7250D02*X420625Y-6500D01*
X421375D01*
X422125Y-7250D01*
Y-9500D01*
Y-7250D02*X422875Y-6500D01*
X423625D01*
X424375Y-7250D01*
Y-9500D01*
X419125Y-6500D02*X419875Y-7250D01*
G54D244*X426175Y-5000D02*Y-5150D01*
G54D243*Y-7250D02*Y-9500D01*
X427675Y-3500D02*Y-8750D01*
X428425Y-9500D01*
X430675D02*X432925D01*
X433675Y-8750D01*
X432925Y-8000D02*X433675Y-8750D01*
X430675Y-8000D02*X432925D01*
X429925Y-7250D02*X430675Y-8000D01*
X429925Y-7250D02*X430675Y-6500D01*
X432925D01*
X433675Y-7250D01*
X429925Y-8750D02*X430675Y-9500D01*
X200750Y418500D02*Y412500D01*
X202700Y418500D02*X203750Y417450D01*
Y413550D01*
X202700Y412500D02*X203750Y413550D01*
X200000Y412500D02*X202700D01*
X200000Y418500D02*X202700D01*
X207800Y415500D02*X208550Y414750D01*
X206300Y415500D02*X207800D01*
X205550Y414750D02*X206300Y415500D01*
X205550Y414750D02*Y413250D01*
X206300Y412500D01*
X208550Y415500D02*Y413250D01*
X209300Y412500D01*
X206300D02*X207800D01*
X208550Y413250D01*
X211850Y418500D02*Y413250D01*
X212600Y412500D01*
X211100Y416250D02*X212600D01*
X214850Y412500D02*X217100D01*
X214100Y413250D02*X214850Y412500D01*
X214100Y414750D02*Y413250D01*
Y414750D02*X214850Y415500D01*
X216350D01*
X217100Y414750D01*
X214100Y414000D02*X217100D01*
Y414750D02*Y414000D01*
X218900Y416250D02*X219650D01*
X218900Y414750D02*X219650D01*
X224150Y418500D02*X227150D01*
X225650D02*Y412500D01*
X228950Y415500D02*Y413250D01*
X229700Y412500D01*
X231200D01*
X231950Y413250D01*
Y415500D02*Y413250D01*
X234500Y412500D02*X236750D01*
X233750Y413250D02*X234500Y412500D01*
X233750Y414750D02*Y413250D01*
Y414750D02*X234500Y415500D01*
X236000D01*
X236750Y414750D01*
X233750Y414000D02*X236750D01*
Y414750D02*Y414000D01*
X241250Y417300D02*X242450Y418500D01*
Y412500D01*
X241250D02*X243500D01*
X245300Y417750D02*X246050Y418500D01*
X248300D01*
X249050Y417750D01*
Y416250D01*
X245300Y412500D02*X249050Y416250D01*
X245300Y412500D02*X249050D01*
X253550Y418500D02*Y412500D01*
Y418500D02*X255800Y415500D01*
X258050Y418500D01*
Y412500D01*
X262100Y415500D02*X262850Y414750D01*
X260600Y415500D02*X262100D01*
X259850Y414750D02*X260600Y415500D01*
X259850Y414750D02*Y413250D01*
X260600Y412500D01*
X262850Y415500D02*Y413250D01*
X263600Y412500D01*
X260600D02*X262100D01*
X262850Y413250D01*
X265400Y415500D02*Y413250D01*
X266150Y412500D01*
X268400Y415500D02*Y411000D01*
X267650Y410250D02*X268400Y411000D01*
X266150Y410250D02*X267650D01*
X265400Y411000D02*X266150Y410250D01*
Y412500D02*X267650D01*
X268400Y413250D01*
X272900Y417750D02*X273650Y418500D01*
X275900D01*
X276650Y417750D01*
Y416250D01*
X272900Y412500D02*X276650Y416250D01*
X272900Y412500D02*X276650D01*
X278450Y413250D02*X279200Y412500D01*
X278450Y417750D02*Y413250D01*
Y417750D02*X279200Y418500D01*
X280700D01*
X281450Y417750D01*
Y413250D01*
X280700Y412500D02*X281450Y413250D01*
X279200Y412500D02*X280700D01*
X278450Y414000D02*X281450Y417000D01*
X283250Y417300D02*X284450Y418500D01*
Y412500D01*
X283250D02*X285500D01*
X287300Y418500D02*X290300D01*
X287300D02*Y415500D01*
X288050Y416250D01*
X289550D01*
X290300Y415500D01*
Y413250D01*
X289550Y412500D02*X290300Y413250D01*
X288050Y412500D02*X289550D01*
X287300Y413250D02*X288050Y412500D01*
X294800Y413250D02*X295550Y412500D01*
X294800Y417750D02*Y413250D01*
Y417750D02*X295550Y418500D01*
X297050D01*
X297800Y417750D01*
Y413250D01*
X297050Y412500D02*X297800Y413250D01*
X295550Y412500D02*X297050D01*
X294800Y414000D02*X297800Y417000D01*
X301850Y418500D02*X302600Y417750D01*
X300350Y418500D02*X301850D01*
X299600Y417750D02*X300350Y418500D01*
X299600Y417750D02*Y413250D01*
X300350Y412500D01*
X301850Y415800D02*X302600Y415050D01*
X299600Y415800D02*X301850D01*
X300350Y412500D02*X301850D01*
X302600Y413250D01*
Y415050D02*Y413250D01*
X304400Y416250D02*X305150D01*
X304400Y414750D02*X305150D01*
X306950D02*X309950Y418500D01*
X306950Y414750D02*X310700D01*
X309950Y418500D02*Y412500D01*
X312500Y418500D02*X315500D01*
X312500D02*Y415500D01*
X313250Y416250D01*
X314750D01*
X315500Y415500D01*
Y413250D01*
X314750Y412500D02*X315500Y413250D01*
X313250Y412500D02*X314750D01*
X312500Y413250D02*X313250Y412500D01*
X317300Y416250D02*X318050D01*
X317300Y414750D02*X318050D01*
X319850Y417750D02*X320600Y418500D01*
X322850D01*
X323600Y417750D01*
Y416250D01*
X319850Y412500D02*X323600Y416250D01*
X319850Y412500D02*X323600D01*
X325400Y417750D02*X326150Y418500D01*
X327650D01*
X328400Y417750D01*
X327650Y412500D02*X328400Y413250D01*
X326150Y412500D02*X327650D01*
X325400Y413250D02*X326150Y412500D01*
Y415800D02*X327650D01*
X328400Y417750D02*Y416550D01*
Y415050D02*Y413250D01*
Y415050D02*X327650Y415800D01*
X328400Y416550D02*X327650Y415800D01*
X332900Y417000D02*Y412500D01*
Y417000D02*X333950Y418500D01*
X335600D01*
X336650Y417000D01*
Y412500D01*
X332900Y415500D02*X336650D01*
X338450Y418500D02*Y412500D01*
Y418500D02*X340700Y415500D01*
X342950Y418500D01*
Y412500D01*
X350450Y418500D02*X351200Y417750D01*
X348200Y418500D02*X350450D01*
X347450Y417750D02*X348200Y418500D01*
X347450Y417750D02*Y413250D01*
X348200Y412500D01*
X350450D01*
X351200Y413250D01*
Y414750D02*Y413250D01*
X350450Y415500D02*X351200Y414750D01*
X348950Y415500D02*X350450D01*
X353000Y418500D02*Y412500D01*
Y418500D02*X355250Y415500D01*
X357500Y418500D01*
Y412500D01*
X359300Y418500D02*X362300D01*
X360800D02*Y412500D01*
X366800Y418500D02*Y413250D01*
X367550Y412500D01*
X369050D01*
X369800Y413250D01*
Y418500D02*Y413250D01*
X371600Y418500D02*X374600D01*
X373100D02*Y412500D01*
X377450D02*X379400D01*
X376400Y413550D02*X377450Y412500D01*
X376400Y417450D02*Y413550D01*
Y417450D02*X377450Y418500D01*
X379400D01*
X200000Y432000D02*Y427500D01*
Y432000D02*X201050Y433500D01*
X202700D01*
X203750Y432000D01*
Y427500D01*
X200000Y430500D02*X203750D01*
X205550D02*Y428250D01*
X206300Y427500D01*
X207800D01*
X208550Y428250D01*
Y430500D02*Y428250D01*
X211100Y433500D02*Y428250D01*
X211850Y427500D01*
X210350Y431250D02*X211850D01*
X213350Y433500D02*Y427500D01*
Y429750D02*X214100Y430500D01*
X215600D01*
X216350Y429750D01*
Y427500D01*
X218150Y429750D02*Y428250D01*
Y429750D02*X218900Y430500D01*
X220400D01*
X221150Y429750D01*
Y428250D01*
X220400Y427500D02*X221150Y428250D01*
X218900Y427500D02*X220400D01*
X218150Y428250D02*X218900Y427500D01*
X223700Y429750D02*Y427500D01*
Y429750D02*X224450Y430500D01*
X225950D01*
X222950D02*X223700Y429750D01*
X227750Y431250D02*X228500D01*
X227750Y429750D02*X228500D01*
X233750Y433500D02*Y427500D01*
X233000Y433500D02*X236000D01*
X236750Y432750D01*
Y431250D01*
X236000Y430500D02*X236750Y431250D01*
X233750Y430500D02*X236000D01*
X239300Y427500D02*X241550D01*
X238550Y428250D02*X239300Y427500D01*
X238550Y429750D02*Y428250D01*
Y429750D02*X239300Y430500D01*
X240800D01*
X241550Y429750D01*
X238550Y429000D02*X241550D01*
Y429750D02*Y429000D01*
X244100Y433500D02*Y428250D01*
X244850Y427500D01*
X243350Y431250D02*X244850D01*
X247100Y427500D02*X249350D01*
X246350Y428250D02*X247100Y427500D01*
X246350Y429750D02*Y428250D01*
Y429750D02*X247100Y430500D01*
X248600D01*
X249350Y429750D01*
X246350Y429000D02*X249350D01*
Y429750D02*Y429000D01*
X251900Y429750D02*Y427500D01*
Y429750D02*X252650Y430500D01*
X254150D01*
X251150D02*X251900Y429750D01*
X258650Y433500D02*Y427500D01*
Y433500D02*X260900Y430500D01*
X263150Y433500D01*
Y427500D01*
X264950Y429750D02*Y428250D01*
Y429750D02*X265700Y430500D01*
X267200D01*
X267950Y429750D01*
Y428250D01*
X267200Y427500D02*X267950Y428250D01*
X265700Y427500D02*X267200D01*
X264950Y428250D02*X265700Y427500D01*
X270500Y429750D02*Y427500D01*
Y429750D02*X271250Y430500D01*
X272000D01*
X272750Y429750D01*
Y427500D01*
X269750Y430500D02*X270500Y429750D01*
X275300Y433500D02*Y428250D01*
X276050Y427500D01*
X274550Y431250D02*X276050D01*
X279800Y430500D02*X280550Y429750D01*
X278300Y430500D02*X279800D01*
X277550Y429750D02*X278300Y430500D01*
X277550Y429750D02*Y428250D01*
X278300Y427500D01*
X280550Y430500D02*Y428250D01*
X281300Y427500D01*
X278300D02*X279800D01*
X280550Y428250D01*
X200000Y448500D02*X203000D01*
X201500D02*Y442500D01*
G54D244*X204800Y447000D02*Y446850D01*
G54D243*Y444750D02*Y442500D01*
X207050Y448500D02*Y443250D01*
X207800Y442500D01*
X206300Y446250D02*X207800D01*
X209300Y448500D02*Y443250D01*
X210050Y442500D01*
X212300D02*X214550D01*
X211550Y443250D02*X212300Y442500D01*
X211550Y444750D02*Y443250D01*
Y444750D02*X212300Y445500D01*
X213800D01*
X214550Y444750D01*
X211550Y444000D02*X214550D01*
Y444750D02*Y444000D01*
X216350Y446250D02*X217100D01*
X216350Y444750D02*X217100D01*
X224600Y448500D02*X225350Y447750D01*
X222350Y448500D02*X224600D01*
X221600Y447750D02*X222350Y448500D01*
X221600Y447750D02*Y443250D01*
X222350Y442500D01*
X224600D01*
X225350Y443250D01*
Y444750D02*Y443250D01*
X224600Y445500D02*X225350Y444750D01*
X223100Y445500D02*X224600D01*
X227150Y448500D02*Y442500D01*
Y448500D02*X230900Y442500D01*
Y448500D02*Y442500D01*
X235700Y448500D02*X236450Y447750D01*
X233450Y448500D02*X235700D01*
X232700Y447750D02*X233450Y448500D01*
X232700Y447750D02*Y446250D01*
X233450Y445500D01*
X235700D01*
X236450Y444750D01*
Y443250D01*
X235700Y442500D02*X236450Y443250D01*
X233450Y442500D02*X235700D01*
X232700Y443250D02*X233450Y442500D01*
X241250Y448500D02*X242000Y447750D01*
X239000Y448500D02*X241250D01*
X238250Y447750D02*X239000Y448500D01*
X238250Y447750D02*Y446250D01*
X239000Y445500D01*
X241250D01*
X242000Y444750D01*
Y443250D01*
X241250Y442500D02*X242000Y443250D01*
X239000Y442500D02*X241250D01*
X238250Y443250D02*X239000Y442500D01*
X246500Y448500D02*Y442500D01*
Y448500D02*X249500D01*
X246500Y445800D02*X248750D01*
G54D244*X251300Y447000D02*Y446850D01*
G54D243*Y444750D02*Y442500D01*
X253550Y444750D02*Y442500D01*
Y444750D02*X254300Y445500D01*
X255800D01*
X252800D02*X253550Y444750D01*
X258350Y442500D02*X260600D01*
X257600Y443250D02*X258350Y442500D01*
X257600Y444750D02*Y443250D01*
Y444750D02*X258350Y445500D01*
X259850D01*
X260600Y444750D01*
X257600Y444000D02*X260600D01*
Y444750D02*Y444000D01*
X262400Y448500D02*Y442500D01*
Y444750D02*X263150Y445500D01*
X264650D01*
X265400Y444750D01*
Y442500D01*
X267200Y444750D02*Y443250D01*
Y444750D02*X267950Y445500D01*
X269450D01*
X270200Y444750D01*
Y443250D01*
X269450Y442500D02*X270200Y443250D01*
X267950Y442500D02*X269450D01*
X267200Y443250D02*X267950Y442500D01*
X272750D02*X275000D01*
X275750Y443250D01*
X275000Y444000D02*X275750Y443250D01*
X272750Y444000D02*X275000D01*
X272000Y444750D02*X272750Y444000D01*
X272000Y444750D02*X272750Y445500D01*
X275000D01*
X275750Y444750D01*
X272000Y443250D02*X272750Y442500D01*
X278300D02*X280550D01*
X277550Y443250D02*X278300Y442500D01*
X277550Y444750D02*Y443250D01*
Y444750D02*X278300Y445500D01*
X279800D01*
X280550Y444750D01*
X277550Y444000D02*X280550D01*
Y444750D02*Y444000D01*
X285050Y445500D02*X288050D01*
X292550Y448500D02*Y442500D01*
Y448500D02*X295550D01*
X292550Y445800D02*X294800D01*
X299600Y445500D02*X300350Y444750D01*
X298100Y445500D02*X299600D01*
X297350Y444750D02*X298100Y445500D01*
X297350Y444750D02*Y443250D01*
X298100Y442500D01*
X300350Y445500D02*Y443250D01*
X301100Y442500D01*
X298100D02*X299600D01*
X300350Y443250D01*
X302900Y448500D02*Y442500D01*
Y443250D02*X303650Y442500D01*
X305150D01*
X305900Y443250D01*
Y444750D02*Y443250D01*
X305150Y445500D02*X305900Y444750D01*
X303650Y445500D02*X305150D01*
X302900Y444750D02*X303650Y445500D01*
X308450Y444750D02*Y442500D01*
Y444750D02*X309200Y445500D01*
X310700D01*
X307700D02*X308450Y444750D01*
G54D244*X312500Y447000D02*Y446850D01*
G54D243*Y444750D02*Y442500D01*
X314750Y445500D02*X317000D01*
X314000Y444750D02*X314750Y445500D01*
X314000Y444750D02*Y443250D01*
X314750Y442500D01*
X317000D01*
X321050Y445500D02*X321800Y444750D01*
X319550Y445500D02*X321050D01*
X318800Y444750D02*X319550Y445500D01*
X318800Y444750D02*Y443250D01*
X319550Y442500D01*
X321800Y445500D02*Y443250D01*
X322550Y442500D01*
X319550D02*X321050D01*
X321800Y443250D01*
X325100Y448500D02*Y443250D01*
X325850Y442500D01*
X324350Y446250D02*X325850D01*
G54D244*X327350Y447000D02*Y446850D01*
G54D243*Y444750D02*Y442500D01*
X328850Y444750D02*Y443250D01*
Y444750D02*X329600Y445500D01*
X331100D01*
X331850Y444750D01*
Y443250D01*
X331100Y442500D02*X331850Y443250D01*
X329600Y442500D02*X331100D01*
X328850Y443250D02*X329600Y442500D01*
X334400Y444750D02*Y442500D01*
Y444750D02*X335150Y445500D01*
X335900D01*
X336650Y444750D01*
Y442500D01*
X333650Y445500D02*X334400Y444750D01*
X341900Y448500D02*Y442500D01*
X343850Y448500D02*X344900Y447450D01*
Y443550D01*
X343850Y442500D02*X344900Y443550D01*
X341150Y442500D02*X343850D01*
X341150Y448500D02*X343850D01*
X347450Y444750D02*Y442500D01*
Y444750D02*X348200Y445500D01*
X349700D01*
X346700D02*X347450Y444750D01*
X353750Y445500D02*X354500Y444750D01*
X352250Y445500D02*X353750D01*
X351500Y444750D02*X352250Y445500D01*
X351500Y444750D02*Y443250D01*
X352250Y442500D01*
X354500Y445500D02*Y443250D01*
X355250Y442500D01*
X352250D02*X353750D01*
X354500Y443250D01*
X357050Y445500D02*Y443250D01*
X357800Y442500D01*
X358550D01*
X359300Y443250D01*
Y445500D02*Y443250D01*
X360050Y442500D01*
X360800D01*
X361550Y443250D01*
Y445500D02*Y443250D01*
G54D244*X363350Y447000D02*Y446850D01*
G54D243*Y444750D02*Y442500D01*
X365600Y444750D02*Y442500D01*
Y444750D02*X366350Y445500D01*
X367100D01*
X367850Y444750D01*
Y442500D01*
X364850Y445500D02*X365600Y444750D01*
X371900Y445500D02*X372650Y444750D01*
X370400Y445500D02*X371900D01*
X369650Y444750D02*X370400Y445500D01*
X369650Y444750D02*Y443250D01*
X370400Y442500D01*
X371900D01*
X372650Y443250D01*
X369650Y441000D02*X370400Y440250D01*
X371900D01*
X372650Y441000D01*
Y445500D02*Y441000D01*
M02*
