G04 start of page 9 for group -4079 idx -4079 *
G04 Title: GNSS Firehose, topsilk *
G04 Creator: pcb 20140316 *
G04 CreationDate: Sun 19 Apr 2015 08:06:33 AM GMT UTC *
G04 For: pmonta *
G04 Format: Gerber/RS-274X *
G04 PCB-Dimensions (mil): 4640.00 3900.00 *
G04 PCB-Coordinate-Origin: lower left *
%MOIN*%
%FSLAX25Y25*%
%LNTOPSILK*%
%ADD14C,0.0200*%
G54D14*X140500Y192000D03*
Y186500D03*
Y140500D03*
Y135000D03*
Y129000D03*
Y123500D03*
X146500Y192000D03*
Y186500D03*
Y140500D03*
Y135000D03*
Y129000D03*
Y123500D03*
X152000Y192000D03*
Y186500D03*
Y140500D03*
Y135000D03*
Y129000D03*
Y123500D03*
X135000Y140500D03*
Y135000D03*
Y129000D03*
Y123500D03*
X266700Y128600D03*
Y120600D03*
Y112600D03*
X274700Y128600D03*
X282700Y128700D03*
Y120600D03*
X274700D03*
Y112600D03*
X282700Y112500D03*
X140500Y87500D03*
Y80000D03*
X148500Y87500D03*
X156000D03*
X148500Y80000D03*
X156000D03*
X132500Y87500D03*
Y80000D03*
Y71500D03*
Y63500D03*
X140500Y71500D03*
Y63500D03*
X148500Y71500D03*
Y63500D03*
X156000Y71500D03*
Y63500D03*
X281300Y320300D03*
X286000D03*
X290600D03*
Y314300D03*
X286000D03*
X281200D03*
X94500Y262500D03*
X99000D03*
Y258000D03*
Y253500D03*
Y199500D03*
Y195000D03*
Y190500D03*
X103500Y262500D03*
Y258000D03*
Y253500D03*
Y199500D03*
Y195000D03*
Y190500D03*
X94500Y258000D03*
Y253500D03*
Y199500D03*
Y195000D03*
Y190500D03*
Y321000D03*
X99000D03*
X103500D03*
X94500Y316500D03*
X99000D03*
X103500D03*
X94500Y325500D03*
X99000D03*
X103500D03*
X135000Y329500D03*
X140500D03*
X146500D03*
X152000D03*
Y324000D03*
Y318000D03*
Y312500D03*
X146500Y324000D03*
Y318000D03*
Y312500D03*
X140500Y324000D03*
X135000D03*
Y318000D03*
X140500D03*
Y312500D03*
X135000D03*
Y266500D03*
Y261000D03*
Y255000D03*
X140500Y266500D03*
X146500D03*
X152000D03*
X140500Y261000D03*
X146500D03*
X152000D03*
X140500Y255000D03*
X146500D03*
X152000D03*
X140500Y249500D03*
X146500D03*
X152000D03*
X135000D03*
Y203500D03*
Y198000D03*
X140500Y203500D03*
X146500D03*
X152000D03*
X140500Y198000D03*
X146500D03*
X152000D03*
X135000Y192000D03*
Y186500D03*
M02*
