G04 start of page 13 for group -3984 idx -3984 *
G04 Title: (unknown), fab *
G04 Creator: pcb 20110918 *
G04 CreationDate: Thu 31 May 2012 11:38:54 AM GMT UTC *
G04 For: pmonta *
G04 Format: Gerber/RS-274X *
G04 PCB-Dimensions: 400000 320000 *
G04 PCB-Coordinate-Origin: lower left *
%MOIN*%
%FSLAX25Y25*%
%LNFAB*%
%ADD196C,0.0100*%
%ADD195C,0.0075*%
%ADD194C,0.0060*%
%ADD193R,0.0080X0.0080*%
G54D193*X376200Y43000D02*G75*G03X377800Y43000I800J0D01*G01*
G75*G03X376200Y43000I-800J0D01*G01*
X374600D02*G75*G03X379400Y43000I2400J0D01*G01*
G75*G03X374600Y43000I-2400J0D01*G01*
X376200Y88000D02*G75*G03X377800Y88000I800J0D01*G01*
G75*G03X376200Y88000I-800J0D01*G01*
X374600D02*G75*G03X379400Y88000I2400J0D01*G01*
G75*G03X374600Y88000I-2400J0D01*G01*
X14200Y331250D02*G75*G03X15800Y331250I800J0D01*G01*
G75*G03X14200Y331250I-800J0D01*G01*
X12600D02*G75*G03X17400Y331250I2400J0D01*G01*
G75*G03X12600Y331250I-2400J0D01*G01*
G54D194*X135000Y333500D02*X136500Y330500D01*
X138000Y333500D01*
X136500Y330500D02*Y327500D01*
X139800Y330800D02*X142050D01*
X139800Y327500D02*X142800D01*
X139800Y333500D02*Y327500D01*
Y333500D02*X142800D01*
X147600D02*X148350Y332750D01*
X145350Y333500D02*X147600D01*
X144600Y332750D02*X145350Y333500D01*
X144600Y332750D02*Y331250D01*
X145350Y330500D01*
X147600D01*
X148350Y329750D01*
Y328250D01*
X147600Y327500D02*X148350Y328250D01*
X145350Y327500D02*X147600D01*
X144600Y328250D02*X145350Y327500D01*
X98000Y332750D02*X98750Y333500D01*
X101000D01*
X101750Y332750D01*
Y331250D01*
X98000Y327500D02*X101750Y331250D01*
X98000Y327500D02*X101750D01*
X45000Y328250D02*X45750Y327500D01*
X45000Y332750D02*Y328250D01*
Y332750D02*X45750Y333500D01*
X47250D01*
X48000Y332750D01*
Y328250D01*
X47250Y327500D02*X48000Y328250D01*
X45750Y327500D02*X47250D01*
X45000Y329000D02*X48000Y332000D01*
X49800Y327500D02*X50550D01*
X52350Y332300D02*X53550Y333500D01*
Y327500D01*
X52350D02*X54600D01*
X56400Y332750D02*X57150Y333500D01*
X59400D01*
X60150Y332750D01*
Y331250D01*
X56400Y327500D02*X60150Y331250D01*
X56400Y327500D02*X60150D01*
X61950Y328250D02*X62700Y327500D01*
X61950Y329450D02*Y328250D01*
Y329450D02*X63000Y330500D01*
X63900D01*
X64950Y329450D01*
Y328250D01*
X64200Y327500D02*X64950Y328250D01*
X62700Y327500D02*X64200D01*
X61950Y331550D02*X63000Y330500D01*
X61950Y332750D02*Y331550D01*
Y332750D02*X62700Y333500D01*
X64200D01*
X64950Y332750D01*
Y331550D01*
X63900Y330500D02*X64950Y331550D01*
X350356Y272400D02*X355156Y267600D01*
X350356D02*X355156Y272400D01*
X351156Y271600D02*X354356D01*
X351156D02*Y268400D01*
X354356D01*
Y271600D02*Y268400D01*
X347600Y307400D02*X352400Y302600D01*
X347600D02*X352400Y307400D01*
X348400Y306600D02*X351600D01*
X348400D02*Y303400D01*
X351600D01*
Y306600D02*Y303400D01*
X347600Y17400D02*X352400Y12600D01*
X347600D02*X352400Y17400D01*
X348400Y16600D02*X351600D01*
X348400D02*Y13400D01*
X351600D01*
Y16600D02*Y13400D01*
X30600Y307400D02*X35400Y302600D01*
X30600D02*X35400Y307400D01*
X31400Y306600D02*X34600D01*
X31400D02*Y303400D01*
X34600D01*
Y306600D02*Y303400D01*
X30600Y17400D02*X35400Y12600D01*
X30600D02*X35400Y17400D01*
X31400Y16600D02*X34600D01*
X31400D02*Y13400D01*
X34600D01*
Y16600D02*Y13400D01*
X12600Y348650D02*X17400Y343850D01*
X12600D02*X17400Y348650D01*
X13400Y347850D02*X16600D01*
X13400D02*Y344650D01*
X16600D01*
Y347850D02*Y344650D01*
X135000Y348500D02*X136500Y345500D01*
X138000Y348500D01*
X136500Y345500D02*Y342500D01*
X139800Y345800D02*X142050D01*
X139800Y342500D02*X142800D01*
X139800Y348500D02*Y342500D01*
Y348500D02*X142800D01*
X147600D02*X148350Y347750D01*
X145350Y348500D02*X147600D01*
X144600Y347750D02*X145350Y348500D01*
X144600Y347750D02*Y346250D01*
X145350Y345500D01*
X147600D01*
X148350Y344750D01*
Y343250D01*
X147600Y342500D02*X148350Y343250D01*
X145350Y342500D02*X147600D01*
X144600Y343250D02*X145350Y342500D01*
X98000Y348500D02*X101000D01*
X98000D02*Y345500D01*
X98750Y346250D01*
X100250D01*
X101000Y345500D01*
Y343250D01*
X100250Y342500D02*X101000Y343250D01*
X98750Y342500D02*X100250D01*
X98000Y343250D02*X98750Y342500D01*
X45000Y343250D02*X45750Y342500D01*
X45000Y347750D02*Y343250D01*
Y347750D02*X45750Y348500D01*
X47250D01*
X48000Y347750D01*
Y343250D01*
X47250Y342500D02*X48000Y343250D01*
X45750Y342500D02*X47250D01*
X45000Y344000D02*X48000Y347000D01*
X49800Y342500D02*X50550D01*
X52350Y347300D02*X53550Y348500D01*
Y342500D01*
X52350D02*X54600D01*
X56400Y347750D02*X57150Y348500D01*
X59400D01*
X60150Y347750D01*
Y346250D01*
X56400Y342500D02*X60150Y346250D01*
X56400Y342500D02*X60150D01*
X61950Y348500D02*X64950D01*
X61950D02*Y345500D01*
X62700Y346250D01*
X64200D01*
X64950Y345500D01*
Y343250D01*
X64200Y342500D02*X64950Y343250D01*
X62700Y342500D02*X64200D01*
X61950Y343250D02*X62700Y342500D01*
X380315Y290917D02*Y284517D01*
X377115Y287717D02*X383515D01*
X378715Y289317D02*X381915D01*
X378715D02*Y286117D01*
X381915D01*
Y289317D02*Y286117D01*
X380315Y255483D02*Y249083D01*
X377115Y252283D02*X383515D01*
X378715Y253883D02*X381915D01*
X378715D02*Y250683D01*
X381915D01*
Y253883D02*Y250683D01*
X15000Y364450D02*Y358050D01*
X11800Y361250D02*X18200D01*
X13400Y362850D02*X16600D01*
X13400D02*Y359650D01*
X16600D01*
Y362850D02*Y359650D01*
X135000Y363500D02*X136500Y360500D01*
X138000Y363500D01*
X136500Y360500D02*Y357500D01*
X139800Y360800D02*X142050D01*
X139800Y357500D02*X142800D01*
X139800Y363500D02*Y357500D01*
Y363500D02*X142800D01*
X147600D02*X148350Y362750D01*
X145350Y363500D02*X147600D01*
X144600Y362750D02*X145350Y363500D01*
X144600Y362750D02*Y361250D01*
X145350Y360500D01*
X147600D01*
X148350Y359750D01*
Y358250D01*
X147600Y357500D02*X148350Y358250D01*
X145350Y357500D02*X147600D01*
X144600Y358250D02*X145350Y357500D01*
X98000Y362750D02*X98750Y363500D01*
X101000D01*
X101750Y362750D01*
Y361250D01*
X98000Y357500D02*X101750Y361250D01*
X98000Y357500D02*X101750D01*
X45000Y358250D02*X45750Y357500D01*
X45000Y362750D02*Y358250D01*
Y362750D02*X45750Y363500D01*
X47250D01*
X48000Y362750D01*
Y358250D01*
X47250Y357500D02*X48000Y358250D01*
X45750Y357500D02*X47250D01*
X45000Y359000D02*X48000Y362000D01*
X49800Y357500D02*X50550D01*
X52350Y362300D02*X53550Y363500D01*
Y357500D01*
X52350D02*X54600D01*
X56400Y362300D02*X57600Y363500D01*
Y357500D01*
X56400D02*X58650D01*
X60450Y358250D02*X61200Y357500D01*
X60450Y362750D02*Y358250D01*
Y362750D02*X61200Y363500D01*
X62700D01*
X63450Y362750D01*
Y358250D01*
X62700Y357500D02*X63450Y358250D01*
X61200Y357500D02*X62700D01*
X60450Y359000D02*X63450Y362000D01*
X376378Y270000D02*Y266800D01*
Y270000D02*X379151Y271600D01*
X376378Y270000D02*X373605Y271600D01*
X374778Y270000D02*G75*G03X377978Y270000I1600J0D01*G01*
G75*G03X374778Y270000I-1600J0D01*G01*
X15000Y376250D02*Y373050D01*
Y376250D02*X17773Y377850D01*
X15000Y376250D02*X12227Y377850D01*
X13400Y376250D02*G75*G03X16600Y376250I1600J0D01*G01*
G75*G03X13400Y376250I-1600J0D01*G01*
X135000Y378500D02*X136500Y375500D01*
X138000Y378500D01*
X136500Y375500D02*Y372500D01*
X139800Y375800D02*X142050D01*
X139800Y372500D02*X142800D01*
X139800Y378500D02*Y372500D01*
Y378500D02*X142800D01*
X147600D02*X148350Y377750D01*
X145350Y378500D02*X147600D01*
X144600Y377750D02*X145350Y378500D01*
X144600Y377750D02*Y376250D01*
X145350Y375500D01*
X147600D01*
X148350Y374750D01*
Y373250D01*
X147600Y372500D02*X148350Y373250D01*
X145350Y372500D02*X147600D01*
X144600Y373250D02*X145350Y372500D01*
X98000Y377300D02*X99200Y378500D01*
Y372500D01*
X98000D02*X100250D01*
X45000Y373250D02*X45750Y372500D01*
X45000Y377750D02*Y373250D01*
Y377750D02*X45750Y378500D01*
X47250D01*
X48000Y377750D01*
Y373250D01*
X47250Y372500D02*X48000Y373250D01*
X45750Y372500D02*X47250D01*
X45000Y374000D02*X48000Y377000D01*
X49800Y372500D02*X50550D01*
X52350Y377300D02*X53550Y378500D01*
Y372500D01*
X52350D02*X54600D01*
X56400Y373250D02*X57150Y372500D01*
X56400Y377750D02*Y373250D01*
Y377750D02*X57150Y378500D01*
X58650D01*
X59400Y377750D01*
Y373250D01*
X58650Y372500D02*X59400Y373250D01*
X57150Y372500D02*X58650D01*
X56400Y374000D02*X59400Y377000D01*
X61200Y373250D02*X61950Y372500D01*
X61200Y377750D02*Y373250D01*
Y377750D02*X61950Y378500D01*
X63450D01*
X64200Y377750D01*
Y373250D01*
X63450Y372500D02*X64200Y373250D01*
X61950Y372500D02*X63450D01*
X61200Y374000D02*X64200Y377000D01*
X386589Y271600D02*X389789D01*
X386589D02*Y268400D01*
X389789D01*
Y271600D02*Y268400D01*
X363400Y36600D02*X366600D01*
X363400D02*Y33400D01*
X366600D01*
Y36600D02*Y33400D01*
X363400Y97600D02*X366600D01*
X363400D02*Y94400D01*
X366600D01*
Y97600D02*Y94400D01*
X13400Y392850D02*X16600D01*
X13400D02*Y389650D01*
X16600D01*
Y392850D02*Y389650D01*
X135000Y393500D02*X136500Y390500D01*
X138000Y393500D01*
X136500Y390500D02*Y387500D01*
X139800Y390800D02*X142050D01*
X139800Y387500D02*X142800D01*
X139800Y393500D02*Y387500D01*
Y393500D02*X142800D01*
X147600D02*X148350Y392750D01*
X145350Y393500D02*X147600D01*
X144600Y392750D02*X145350Y393500D01*
X144600Y392750D02*Y391250D01*
X145350Y390500D01*
X147600D01*
X148350Y389750D01*
Y388250D01*
X147600Y387500D02*X148350Y388250D01*
X145350Y387500D02*X147600D01*
X144600Y388250D02*X145350Y387500D01*
X98000Y392750D02*X98750Y393500D01*
X100250D01*
X101000Y392750D01*
X100250Y387500D02*X101000Y388250D01*
X98750Y387500D02*X100250D01*
X98000Y388250D02*X98750Y387500D01*
Y390800D02*X100250D01*
X101000Y392750D02*Y391550D01*
Y390050D02*Y388250D01*
Y390050D02*X100250Y390800D01*
X101000Y391550D02*X100250Y390800D01*
X45000Y388250D02*X45750Y387500D01*
X45000Y392750D02*Y388250D01*
Y392750D02*X45750Y393500D01*
X47250D01*
X48000Y392750D01*
Y388250D01*
X47250Y387500D02*X48000Y388250D01*
X45750Y387500D02*X47250D01*
X45000Y389000D02*X48000Y392000D01*
X49800Y387500D02*X50550D01*
X52350Y388250D02*X53100Y387500D01*
X52350Y392750D02*Y388250D01*
Y392750D02*X53100Y393500D01*
X54600D01*
X55350Y392750D01*
Y388250D01*
X54600Y387500D02*X55350Y388250D01*
X53100Y387500D02*X54600D01*
X52350Y389000D02*X55350Y392000D01*
X59400Y393500D02*X60150Y392750D01*
X57900Y393500D02*X59400D01*
X57150Y392750D02*X57900Y393500D01*
X57150Y392750D02*Y388250D01*
X57900Y387500D01*
X59400Y390800D02*X60150Y390050D01*
X57150Y390800D02*X59400D01*
X57900Y387500D02*X59400D01*
X60150Y388250D01*
Y390050D02*Y388250D01*
X61950Y392750D02*X62700Y393500D01*
X64950D01*
X65700Y392750D01*
Y391250D01*
X61950Y387500D02*X65700Y391250D01*
X61950Y387500D02*X65700D01*
X322200Y44000D02*G75*G03X323800Y44000I800J0D01*G01*
G75*G03X322200Y44000I-800J0D01*G01*
Y54000D02*G75*G03X323800Y54000I800J0D01*G01*
G75*G03X322200Y54000I-800J0D01*G01*
Y77000D02*G75*G03X323800Y77000I800J0D01*G01*
G75*G03X322200Y77000I-800J0D01*G01*
Y87000D02*G75*G03X323800Y87000I800J0D01*G01*
G75*G03X322200Y87000I-800J0D01*G01*
X14200Y406250D02*G75*G03X15800Y406250I800J0D01*G01*
G75*G03X14200Y406250I-800J0D01*G01*
X135000Y408500D02*X136500Y405500D01*
X138000Y408500D01*
X136500Y405500D02*Y402500D01*
X139800Y405800D02*X142050D01*
X139800Y402500D02*X142800D01*
X139800Y408500D02*Y402500D01*
Y408500D02*X142800D01*
X147600D02*X148350Y407750D01*
X145350Y408500D02*X147600D01*
X144600Y407750D02*X145350Y408500D01*
X144600Y407750D02*Y406250D01*
X145350Y405500D01*
X147600D01*
X148350Y404750D01*
Y403250D01*
X147600Y402500D02*X148350Y403250D01*
X145350Y402500D02*X147600D01*
X144600Y403250D02*X145350Y402500D01*
X98000Y404750D02*X101000Y408500D01*
X98000Y404750D02*X101750D01*
X101000Y408500D02*Y402500D01*
X45000Y403250D02*X45750Y402500D01*
X45000Y407750D02*Y403250D01*
Y407750D02*X45750Y408500D01*
X47250D01*
X48000Y407750D01*
Y403250D01*
X47250Y402500D02*X48000Y403250D01*
X45750Y402500D02*X47250D01*
X45000Y404000D02*X48000Y407000D01*
X49800Y402500D02*X50550D01*
X52350Y403250D02*X53100Y402500D01*
X52350Y407750D02*Y403250D01*
Y407750D02*X53100Y408500D01*
X54600D01*
X55350Y407750D01*
Y403250D01*
X54600Y402500D02*X55350Y403250D01*
X53100Y402500D02*X54600D01*
X52350Y404000D02*X55350Y407000D01*
X57150Y404750D02*X60150Y408500D01*
X57150Y404750D02*X60900D01*
X60150Y408500D02*Y402500D01*
X62700Y403250D02*X63450Y402500D01*
X62700Y407750D02*Y403250D01*
Y407750D02*X63450Y408500D01*
X64950D01*
X65700Y407750D01*
Y403250D01*
X64950Y402500D02*X65700Y403250D01*
X63450Y402500D02*X64950D01*
X62700Y404000D02*X65700Y407000D01*
X342800Y231400D02*X345200Y229000D01*
X342800D02*X345200Y231400D01*
X342800Y221400D02*X345200Y219000D01*
X342800D02*X345200Y221400D01*
X342800Y211400D02*X345200Y209000D01*
X342800D02*X345200Y211400D01*
X13800Y422450D02*X16200Y420050D01*
X13800D02*X16200Y422450D01*
X135000Y423500D02*X136500Y420500D01*
X138000Y423500D01*
X136500Y420500D02*Y417500D01*
X139800Y420800D02*X142050D01*
X139800Y417500D02*X142800D01*
X139800Y423500D02*Y417500D01*
Y423500D02*X142800D01*
X147600D02*X148350Y422750D01*
X145350Y423500D02*X147600D01*
X144600Y422750D02*X145350Y423500D01*
X144600Y422750D02*Y421250D01*
X145350Y420500D01*
X147600D01*
X148350Y419750D01*
Y418250D01*
X147600Y417500D02*X148350Y418250D01*
X145350Y417500D02*X147600D01*
X144600Y418250D02*X145350Y417500D01*
X98000Y422750D02*X98750Y423500D01*
X100250D01*
X101000Y422750D01*
X100250Y417500D02*X101000Y418250D01*
X98750Y417500D02*X100250D01*
X98000Y418250D02*X98750Y417500D01*
Y420800D02*X100250D01*
X101000Y422750D02*Y421550D01*
Y420050D02*Y418250D01*
Y420050D02*X100250Y420800D01*
X101000Y421550D02*X100250Y420800D01*
X45000Y418250D02*X45750Y417500D01*
X45000Y422750D02*Y418250D01*
Y422750D02*X45750Y423500D01*
X47250D01*
X48000Y422750D01*
Y418250D01*
X47250Y417500D02*X48000Y418250D01*
X45750Y417500D02*X47250D01*
X45000Y419000D02*X48000Y422000D01*
X49800Y417500D02*X50550D01*
X52350Y418250D02*X53100Y417500D01*
X52350Y422750D02*Y418250D01*
Y422750D02*X53100Y423500D01*
X54600D01*
X55350Y422750D01*
Y418250D01*
X54600Y417500D02*X55350Y418250D01*
X53100Y417500D02*X54600D01*
X52350Y419000D02*X55350Y422000D01*
X57150Y422750D02*X57900Y423500D01*
X59400D01*
X60150Y422750D01*
X59400Y417500D02*X60150Y418250D01*
X57900Y417500D02*X59400D01*
X57150Y418250D02*X57900Y417500D01*
Y420800D02*X59400D01*
X60150Y422750D02*Y421550D01*
Y420050D02*Y418250D01*
Y420050D02*X59400Y420800D01*
X60150Y421550D02*X59400Y420800D01*
X61950Y418250D02*X62700Y417500D01*
X61950Y419450D02*Y418250D01*
Y419450D02*X63000Y420500D01*
X63900D01*
X64950Y419450D01*
Y418250D01*
X64200Y417500D02*X64950Y418250D01*
X62700Y417500D02*X64200D01*
X61950Y421550D02*X63000Y420500D01*
X61950Y422750D02*Y421550D01*
Y422750D02*X62700Y423500D01*
X64200D01*
X64950Y422750D01*
Y421550D01*
X63900Y420500D02*X64950Y421550D01*
X352000Y89600D02*Y86400D01*
X350400Y88000D02*X353600D01*
X342000Y84600D02*Y81400D01*
X340400Y83000D02*X343600D01*
X352000Y79600D02*Y76400D01*
X350400Y78000D02*X353600D01*
X342000Y74600D02*Y71400D01*
X340400Y73000D02*X343600D01*
X352000Y69600D02*Y66400D01*
X350400Y68000D02*X353600D01*
X342000Y64600D02*Y61400D01*
X340400Y63000D02*X343600D01*
X352000Y59600D02*Y56400D01*
X350400Y58000D02*X353600D01*
X342000Y54600D02*Y51400D01*
X340400Y53000D02*X343600D01*
X352000Y49600D02*Y46400D01*
X350400Y48000D02*X353600D01*
X342000Y44600D02*Y41400D01*
X340400Y43000D02*X343600D01*
X388748Y165100D02*Y161900D01*
X387148Y163500D02*X390348D01*
X380874Y165100D02*Y161900D01*
X379274Y163500D02*X382474D01*
X388748Y172974D02*Y169774D01*
X387148Y171374D02*X390348D01*
X380874Y172974D02*Y169774D01*
X379274Y171374D02*X382474D01*
X388748Y180848D02*Y177648D01*
X387148Y179248D02*X390348D01*
X380874Y180848D02*Y177648D01*
X379274Y179248D02*X382474D01*
X388748Y188722D02*Y185522D01*
X387148Y187122D02*X390348D01*
X380874Y188722D02*Y185522D01*
X379274Y187122D02*X382474D01*
X388748Y196596D02*Y193396D01*
X387148Y194996D02*X390348D01*
X380874Y196596D02*Y193396D01*
X379274Y194996D02*X382474D01*
X388748Y204470D02*Y201270D01*
X387148Y202870D02*X390348D01*
X380874Y204470D02*Y201270D01*
X379274Y202870D02*X382474D01*
X388748Y212344D02*Y209144D01*
X387148Y210744D02*X390348D01*
X380874Y212344D02*Y209144D01*
X379274Y210744D02*X382474D01*
X15000Y437850D02*Y434650D01*
X13400Y436250D02*X16600D01*
X135000Y438500D02*X136500Y435500D01*
X138000Y438500D01*
X136500Y435500D02*Y432500D01*
X139800Y435800D02*X142050D01*
X139800Y432500D02*X142800D01*
X139800Y438500D02*Y432500D01*
Y438500D02*X142800D01*
X147600D02*X148350Y437750D01*
X145350Y438500D02*X147600D01*
X144600Y437750D02*X145350Y438500D01*
X144600Y437750D02*Y436250D01*
X145350Y435500D01*
X147600D01*
X148350Y434750D01*
Y433250D01*
X147600Y432500D02*X148350Y433250D01*
X145350Y432500D02*X147600D01*
X144600Y433250D02*X145350Y432500D01*
X98000Y437750D02*X98750Y438500D01*
X101000D01*
X101750Y437750D01*
Y436250D01*
X98000Y432500D02*X101750Y436250D01*
X98000Y432500D02*X101750D01*
X103550Y434750D02*X106550Y438500D01*
X103550Y434750D02*X107300D01*
X106550Y438500D02*Y432500D01*
X45000Y433250D02*X45750Y432500D01*
X45000Y437750D02*Y433250D01*
Y437750D02*X45750Y438500D01*
X47250D01*
X48000Y437750D01*
Y433250D01*
X47250Y432500D02*X48000Y433250D01*
X45750Y432500D02*X47250D01*
X45000Y434000D02*X48000Y437000D01*
X49800Y432500D02*X50550D01*
X52350Y433250D02*X53100Y432500D01*
X52350Y437750D02*Y433250D01*
Y437750D02*X53100Y438500D01*
X54600D01*
X55350Y437750D01*
Y433250D01*
X54600Y432500D02*X55350Y433250D01*
X53100Y432500D02*X54600D01*
X52350Y434000D02*X55350Y437000D01*
X57150Y437750D02*X57900Y438500D01*
X59400D01*
X60150Y437750D01*
X59400Y432500D02*X60150Y433250D01*
X57900Y432500D02*X59400D01*
X57150Y433250D02*X57900Y432500D01*
Y435800D02*X59400D01*
X60150Y437750D02*Y436550D01*
Y435050D02*Y433250D01*
Y435050D02*X59400Y435800D01*
X60150Y436550D02*X59400Y435800D01*
X61950Y438500D02*X64950D01*
X61950D02*Y435500D01*
X62700Y436250D01*
X64200D01*
X64950Y435500D01*
Y433250D01*
X64200Y432500D02*X64950Y433250D01*
X62700Y432500D02*X64200D01*
X61950Y433250D02*X62700Y432500D01*
X201600Y221600D02*Y220000D01*
Y221600D02*X202987Y222400D01*
X201600Y221600D02*X200213Y222400D01*
X201800Y194200D02*Y192600D01*
Y194200D02*X203187Y195000D01*
X201800Y194200D02*X200413Y195000D01*
X201800Y203900D02*Y202300D01*
Y203900D02*X203187Y204700D01*
X201800Y203900D02*X200413Y204700D01*
X201800Y189700D02*Y188100D01*
Y189700D02*X203187Y190500D01*
X201800Y189700D02*X200413Y190500D01*
X201800Y180200D02*Y178600D01*
Y180200D02*X203187Y181000D01*
X201800Y180200D02*X200413Y181000D01*
X201800Y168400D02*Y166800D01*
Y168400D02*X203187Y169200D01*
X201800Y168400D02*X200413Y169200D01*
X201600Y158500D02*Y156900D01*
Y158500D02*X202987Y159300D01*
X201600Y158500D02*X200213Y159300D01*
X213400Y156800D02*Y155200D01*
Y156800D02*X214787Y157600D01*
X213400Y156800D02*X212013Y157600D01*
X227200Y156700D02*Y155100D01*
Y156700D02*X228587Y157500D01*
X227200Y156700D02*X225813Y157500D01*
X321600Y225200D02*Y223600D01*
Y225200D02*X322987Y226000D01*
X321600Y225200D02*X320213Y226000D01*
X321100Y219000D02*Y217400D01*
Y219000D02*X322487Y219800D01*
X321100Y219000D02*X319713Y219800D01*
X234400Y306100D02*Y304500D01*
Y306100D02*X235787Y306900D01*
X234400Y306100D02*X233013Y306900D01*
X241700Y306200D02*Y304600D01*
Y306200D02*X243087Y307000D01*
X241700Y306200D02*X240313Y307000D01*
X237900Y302400D02*Y300800D01*
Y302400D02*X239287Y303200D01*
X237900Y302400D02*X236513Y303200D01*
X243300Y301600D02*Y300000D01*
Y301600D02*X244687Y302400D01*
X243300Y301600D02*X241913Y302400D01*
X277100Y279600D02*Y278000D01*
Y279600D02*X278487Y280400D01*
X277100Y279600D02*X275713Y280400D01*
X287100Y279600D02*Y278000D01*
Y279600D02*X288487Y280400D01*
X287100Y279600D02*X285713Y280400D01*
X287100Y273600D02*Y272000D01*
Y273600D02*X288487Y274400D01*
X287100Y273600D02*X285713Y274400D01*
X277100Y273600D02*Y272000D01*
Y273600D02*X278487Y274400D01*
X277100Y273600D02*X275713Y274400D01*
X282100Y279600D02*Y278000D01*
Y279600D02*X283487Y280400D01*
X282100Y279600D02*X280713Y280400D01*
X282100Y273600D02*Y272000D01*
Y273600D02*X283487Y274400D01*
X282100Y273600D02*X280713Y274400D01*
X269100Y273700D02*Y272100D01*
Y273700D02*X270487Y274500D01*
X269100Y273700D02*X267713Y274500D01*
X255600Y257300D02*Y255700D01*
Y257300D02*X256987Y258100D01*
X255600Y257300D02*X254213Y258100D01*
X282000Y287200D02*Y285600D01*
Y287200D02*X283387Y288000D01*
X282000Y287200D02*X280613Y288000D01*
X279800Y290100D02*Y288500D01*
Y290100D02*X281187Y290900D01*
X279800Y290100D02*X278413Y290900D01*
X284200Y290100D02*Y288500D01*
Y290100D02*X285587Y290900D01*
X284200Y290100D02*X282813Y290900D01*
X298100Y292900D02*Y291300D01*
Y292900D02*X299487Y293700D01*
X298100Y292900D02*X296713Y293700D01*
X254300Y55700D02*Y54100D01*
Y55700D02*X255687Y56500D01*
X254300Y55700D02*X252913Y56500D01*
X244200Y55500D02*Y53900D01*
Y55500D02*X245587Y56300D01*
X244200Y55500D02*X242813Y56300D01*
X230200Y53000D02*Y51400D01*
Y53000D02*X231587Y53800D01*
X230200Y53000D02*X228813Y53800D01*
X234600Y50800D02*Y49200D01*
Y50800D02*X235987Y51600D01*
X234600Y50800D02*X233213Y51600D01*
X237200Y48600D02*Y47000D01*
Y48600D02*X238587Y49400D01*
X237200Y48600D02*X235813Y49400D01*
X240200Y46300D02*Y44700D01*
Y46300D02*X241587Y47100D01*
X240200Y46300D02*X238813Y47100D01*
X243100Y44100D02*Y42500D01*
Y44100D02*X244487Y44900D01*
X243100Y44100D02*X241713Y44900D01*
X246000Y41900D02*Y40300D01*
Y41900D02*X247387Y42700D01*
X246000Y41900D02*X244613Y42700D01*
X248500Y39700D02*Y38100D01*
Y39700D02*X249887Y40500D01*
X248500Y39700D02*X247113Y40500D01*
X251500Y37500D02*Y35900D01*
Y37500D02*X252887Y38300D01*
X251500Y37500D02*X250113Y38300D01*
X232600Y55700D02*Y54100D01*
Y55700D02*X233987Y56500D01*
X232600Y55700D02*X231213Y56500D01*
X245500Y296200D02*Y294600D01*
Y296200D02*X246887Y297000D01*
X245500Y296200D02*X244113Y297000D01*
X250500Y296400D02*Y294800D01*
Y296400D02*X251887Y297200D01*
X250500Y296400D02*X249113Y297200D01*
X328500Y306300D02*Y304700D01*
Y306300D02*X329887Y307100D01*
X328500Y306300D02*X327113Y307100D01*
X322500Y306400D02*Y304800D01*
Y306400D02*X323887Y307200D01*
X322500Y306400D02*X321113Y307200D01*
X326000Y303500D02*Y301900D01*
Y303500D02*X327387Y304300D01*
X326000Y303500D02*X324613Y304300D01*
X321600Y302200D02*Y300600D01*
Y302200D02*X322987Y303000D01*
X321600Y302200D02*X320213Y303000D01*
X317600Y296600D02*Y295000D01*
Y296600D02*X318987Y297400D01*
X317600Y296600D02*X316213Y297400D01*
X313700Y296800D02*Y295200D01*
Y296800D02*X315087Y297600D01*
X313700Y296800D02*X312313Y297600D01*
X307300Y257300D02*Y255700D01*
Y257300D02*X308687Y258100D01*
X307300Y257300D02*X305913Y258100D01*
X295000Y273800D02*Y272200D01*
Y273800D02*X296387Y274600D01*
X295000Y273800D02*X293613Y274600D01*
X275600Y265100D02*Y263500D01*
Y265100D02*X276987Y265900D01*
X275600Y265100D02*X274213Y265900D01*
X288400Y264900D02*Y263300D01*
Y264900D02*X289787Y265700D01*
X288400Y264900D02*X287013Y265700D01*
X272900Y254500D02*Y252900D01*
Y254500D02*X274287Y255300D01*
X272900Y254500D02*X271513Y255300D01*
X286300Y256200D02*Y254600D01*
Y256200D02*X287687Y257000D01*
X286300Y256200D02*X284913Y257000D01*
X266000Y292600D02*Y291000D01*
Y292600D02*X267387Y293400D01*
X266000Y292600D02*X264613Y293400D01*
X272100Y284400D02*Y282800D01*
Y284400D02*X273487Y285200D01*
X272100Y284400D02*X270713Y285200D01*
X285200Y264600D02*Y263000D01*
Y264600D02*X286587Y265400D01*
X285200Y264600D02*X283813Y265400D01*
X278800Y264800D02*Y263200D01*
Y264800D02*X280187Y265600D01*
X278800Y264800D02*X277413Y265600D01*
X305400Y253200D02*Y251600D01*
Y253200D02*X306787Y254000D01*
X305400Y253200D02*X304013Y254000D01*
X307300Y250700D02*Y249100D01*
Y250700D02*X308687Y251500D01*
X307300Y250700D02*X305913Y251500D01*
X305300Y248200D02*Y246600D01*
Y248200D02*X306687Y249000D01*
X305300Y248200D02*X303913Y249000D01*
X307300Y245900D02*Y244300D01*
Y245900D02*X308687Y246700D01*
X307300Y245900D02*X305913Y246700D01*
X324500Y258200D02*Y256600D01*
Y258200D02*X325887Y259000D01*
X324500Y258200D02*X323113Y259000D01*
X327700Y257200D02*Y255600D01*
Y257200D02*X329087Y258000D01*
X327700Y257200D02*X326313Y258000D01*
X330800Y258200D02*Y256600D01*
Y258200D02*X332187Y259000D01*
X330800Y258200D02*X329413Y259000D01*
X330800Y254800D02*Y253200D01*
Y254800D02*X332187Y255600D01*
X330800Y254800D02*X329413Y255600D01*
X329300Y252100D02*Y250500D01*
Y252100D02*X330687Y252900D01*
X329300Y252100D02*X327913Y252900D01*
X330700Y249500D02*Y247900D01*
Y249500D02*X332087Y250300D01*
X330700Y249500D02*X329313Y250300D01*
X329500Y246700D02*Y245100D01*
Y246700D02*X330887Y247500D01*
X329500Y246700D02*X328113Y247500D01*
X276700Y316200D02*Y314600D01*
Y316200D02*X278087Y317000D01*
X276700Y316200D02*X275313Y317000D01*
X280200Y316500D02*Y314900D01*
Y316500D02*X281587Y317300D01*
X280200Y316500D02*X278813Y317300D01*
X283700Y316400D02*Y314800D01*
Y316400D02*X285087Y317200D01*
X283700Y316400D02*X282313Y317200D01*
X287400Y316100D02*Y314500D01*
Y316100D02*X288787Y316900D01*
X287400Y316100D02*X286013Y316900D01*
X275600Y312700D02*Y311100D01*
Y312700D02*X276987Y313500D01*
X275600Y312700D02*X274213Y313500D01*
X279200Y312700D02*Y311100D01*
Y312700D02*X280587Y313500D01*
X279200Y312700D02*X277813Y313500D01*
X282800Y312600D02*Y311000D01*
Y312600D02*X284187Y313400D01*
X282800Y312600D02*X281413Y313400D01*
X286500Y312600D02*Y311000D01*
Y312600D02*X287887Y313400D01*
X286500Y312600D02*X285113Y313400D01*
X290300Y312600D02*Y311000D01*
Y312600D02*X291687Y313400D01*
X290300Y312600D02*X288913Y313400D01*
X204100Y307600D02*Y306000D01*
Y307600D02*X205487Y308400D01*
X204100Y307600D02*X202713Y308400D01*
X223400Y307800D02*Y306200D01*
Y307800D02*X224787Y308600D01*
X223400Y307800D02*X222013Y308600D01*
X201700Y224800D02*Y223200D01*
Y224800D02*X203087Y225600D01*
X201700Y224800D02*X200313Y225600D01*
X207600Y192000D02*Y190400D01*
Y192000D02*X208987Y192800D01*
X207600Y192000D02*X206213Y192800D01*
X207600Y174300D02*Y172700D01*
Y174300D02*X208987Y175100D01*
X207600Y174300D02*X206213Y175100D01*
X235200Y156600D02*Y155000D01*
Y156600D02*X236587Y157400D01*
X235200Y156600D02*X233813Y157400D01*
X238700Y156700D02*Y155100D01*
Y156700D02*X240087Y157500D01*
X238700Y156700D02*X237313Y157500D01*
X254500Y156600D02*Y155000D01*
Y156600D02*X255887Y157400D01*
X254500Y156600D02*X253113Y157400D01*
X264600Y156600D02*Y155000D01*
Y156600D02*X265987Y157400D01*
X264600Y156600D02*X263213Y157400D01*
X274200Y164400D02*Y162800D01*
Y164400D02*X275587Y165200D01*
X274200Y164400D02*X272813Y165200D01*
X274200Y168000D02*Y166400D01*
Y168000D02*X275587Y168800D01*
X274200Y168000D02*X272813Y168800D01*
X274200Y184100D02*Y182500D01*
Y184100D02*X275587Y184900D01*
X274200Y184100D02*X272813Y184900D01*
X268400Y190000D02*Y188400D01*
Y190000D02*X269787Y190800D01*
X268400Y190000D02*X267013Y190800D01*
X233300Y162900D02*Y161300D01*
Y162900D02*X234687Y163700D01*
X233300Y162900D02*X231913Y163700D01*
X274200Y192000D02*Y190400D01*
Y192000D02*X275587Y192800D01*
X274200Y192000D02*X272813Y192800D01*
X274100Y195400D02*Y193800D01*
Y195400D02*X275487Y196200D01*
X274100Y195400D02*X272713Y196200D01*
X274400Y203900D02*Y202300D01*
Y203900D02*X275787Y204700D01*
X274400Y203900D02*X273013Y204700D01*
X274400Y217600D02*Y216000D01*
Y217600D02*X275787Y218400D01*
X274400Y217600D02*X273013Y218400D01*
X274500Y227600D02*Y226000D01*
Y227600D02*X275887Y228400D01*
X274500Y227600D02*X273113Y228400D01*
X264600Y229700D02*Y228100D01*
Y229700D02*X265987Y230500D01*
X264600Y229700D02*X263213Y230500D01*
X246900Y229700D02*Y228100D01*
Y229700D02*X248287Y230500D01*
X246900Y229700D02*X245513Y230500D01*
X241300Y229800D02*Y228200D01*
Y229800D02*X242687Y230600D01*
X241300Y229800D02*X239913Y230600D01*
X235000Y223100D02*Y221500D01*
Y223100D02*X236387Y223900D01*
X235000Y223100D02*X233613Y223900D01*
X233100Y229700D02*Y228100D01*
Y229700D02*X234487Y230500D01*
X233100Y229700D02*X231713Y230500D01*
X229800Y229800D02*Y228200D01*
Y229800D02*X231187Y230600D01*
X229800Y229800D02*X228413Y230600D01*
X221300Y229600D02*Y228000D01*
Y229600D02*X222687Y230400D01*
X221300Y229600D02*X219913Y230400D01*
X218100Y229700D02*Y228100D01*
Y229700D02*X219487Y230500D01*
X218100Y229700D02*X216713Y230500D01*
X61100Y295100D02*Y293500D01*
Y295100D02*X62487Y295900D01*
X61100Y295100D02*X59713Y295900D01*
X54600Y299100D02*Y297500D01*
Y299100D02*X55987Y299900D01*
X54600Y299100D02*X53213Y299900D01*
X130400Y138400D02*Y136800D01*
Y138400D02*X131787Y139200D01*
X130400Y138400D02*X129013Y139200D01*
X126900Y138800D02*Y137200D01*
Y138800D02*X128287Y139600D01*
X126900Y138800D02*X125513Y139600D01*
X130200Y201700D02*Y200100D01*
Y201700D02*X131587Y202500D01*
X130200Y201700D02*X128813Y202500D01*
X126500Y202000D02*Y200400D01*
Y202000D02*X127887Y202800D01*
X126500Y202000D02*X125113Y202800D01*
X130200Y264700D02*Y263100D01*
Y264700D02*X131587Y265500D01*
X130200Y264700D02*X128813Y265500D01*
X126500Y265000D02*Y263400D01*
Y265000D02*X127887Y265800D01*
X126500Y265000D02*X125113Y265800D01*
X64400Y142426D02*Y140826D01*
Y142426D02*X65787Y143226D01*
X64400Y142426D02*X63013Y143226D01*
X3000Y191500D02*Y189900D01*
Y191500D02*X4387Y192300D01*
X3000Y191500D02*X1613Y192300D01*
X123000Y191500D02*Y189900D01*
Y191500D02*X124387Y192300D01*
X123000Y191500D02*X121613Y192300D01*
X113000Y191500D02*Y189900D01*
Y191500D02*X114387Y192300D01*
X113000Y191500D02*X111613Y192300D01*
X103000Y191500D02*Y189900D01*
Y191500D02*X104387Y192300D01*
X103000Y191500D02*X101613Y192300D01*
X93000Y191500D02*Y189900D01*
Y191500D02*X94387Y192300D01*
X93000Y191500D02*X91613Y192300D01*
X83000Y191500D02*Y189900D01*
Y191500D02*X84387Y192300D01*
X83000Y191500D02*X81613Y192300D01*
X73000Y191500D02*Y189900D01*
Y191500D02*X74387Y192300D01*
X73000Y191500D02*X71613Y192300D01*
X63000Y191500D02*Y189900D01*
Y191500D02*X64387Y192300D01*
X63000Y191500D02*X61613Y192300D01*
X53000Y191500D02*Y189900D01*
Y191500D02*X54387Y192300D01*
X53000Y191500D02*X51613Y192300D01*
X43000Y191500D02*Y189900D01*
Y191500D02*X44387Y192300D01*
X43000Y191500D02*X41613Y192300D01*
X23000Y191500D02*Y189900D01*
Y191500D02*X24387Y192300D01*
X23000Y191500D02*X21613Y192300D01*
X33000Y191500D02*Y189900D01*
Y191500D02*X34387Y192300D01*
X33000Y191500D02*X31613Y192300D01*
X13000Y191500D02*Y189900D01*
Y191500D02*X14387Y192300D01*
X13000Y191500D02*X11613Y192300D01*
X106174Y160900D02*Y159300D01*
Y160900D02*X107561Y161700D01*
X106174Y160900D02*X104787Y161700D01*
X115600Y157900D02*Y156300D01*
Y157900D02*X116987Y158700D01*
X115600Y157900D02*X114213Y158700D01*
X115600Y162500D02*Y160900D01*
Y162500D02*X116987Y163300D01*
X115600Y162500D02*X114213Y163300D01*
X125200Y184500D02*Y182900D01*
Y184500D02*X126587Y185300D01*
X125200Y184500D02*X123813Y185300D01*
X121900Y141800D02*Y140200D01*
Y141800D02*X123287Y142600D01*
X121900Y141800D02*X120513Y142600D01*
X157400Y167600D02*Y166000D01*
Y167600D02*X158787Y168400D01*
X157400Y167600D02*X156013Y168400D01*
X157600Y152600D02*Y151000D01*
Y152600D02*X158987Y153400D01*
X157600Y152600D02*X156213Y153400D01*
X125500Y135600D02*Y134000D01*
Y135600D02*X126887Y136400D01*
X125500Y135600D02*X124113Y136400D01*
X121900Y178200D02*Y176600D01*
Y178200D02*X123287Y179000D01*
X121900Y178200D02*X120513Y179000D01*
X115100Y175200D02*Y173600D01*
Y175200D02*X116487Y176000D01*
X115100Y175200D02*X113713Y176000D01*
X114800Y145900D02*Y144300D01*
Y145900D02*X116187Y146700D01*
X114800Y145900D02*X113413Y146700D01*
X114900Y137000D02*Y135400D01*
Y137000D02*X116287Y137800D01*
X114900Y137000D02*X113513Y137800D01*
X115100Y183900D02*Y182300D01*
Y183900D02*X116487Y184700D01*
X115100Y183900D02*X113713Y184700D01*
X110900Y174700D02*Y173100D01*
Y174700D02*X112287Y175500D01*
X110900Y174700D02*X109513Y175500D01*
X151600Y149300D02*Y147700D01*
Y149300D02*X152987Y150100D01*
X151600Y149300D02*X150213Y150100D01*
X151500Y170700D02*Y169100D01*
Y170700D02*X152887Y171500D01*
X151500Y170700D02*X150113Y171500D01*
X134100Y141800D02*Y140200D01*
Y141800D02*X135487Y142600D01*
X134100Y141800D02*X132713Y142600D01*
X130800Y141900D02*Y140300D01*
Y141900D02*X132187Y142700D01*
X130800Y141900D02*X129413Y142700D01*
X125100Y141800D02*Y140200D01*
Y141800D02*X126487Y142600D01*
X125100Y141800D02*X123713Y142600D01*
X110400Y146800D02*Y145200D01*
Y146800D02*X111787Y147600D01*
X110400Y146800D02*X109013Y147600D01*
X80700Y132900D02*Y131300D01*
Y132900D02*X82087Y133700D01*
X80700Y132900D02*X79313Y133700D01*
X77400Y136100D02*Y134500D01*
Y136100D02*X78787Y136900D01*
X77400Y136100D02*X76013Y136900D01*
X94400Y132900D02*Y131300D01*
Y132900D02*X95787Y133700D01*
X94400Y132900D02*X93013Y133700D01*
X95700Y136900D02*Y135300D01*
Y136900D02*X97087Y137700D01*
X95700Y136900D02*X94313Y137700D01*
X70800Y149000D02*Y147400D01*
Y149000D02*X72187Y149800D01*
X70800Y149000D02*X69413Y149800D01*
X74600Y143700D02*Y142100D01*
Y143700D02*X75987Y144500D01*
X74600Y143700D02*X73213Y144500D01*
X78100Y142300D02*Y140700D01*
Y142300D02*X79487Y143100D01*
X78100Y142300D02*X76713Y143100D01*
X94200Y145700D02*Y144100D01*
Y145700D02*X95587Y146500D01*
X94200Y145700D02*X92813Y146500D01*
X89600Y145800D02*Y144200D01*
Y145800D02*X90987Y146600D01*
X89600Y145800D02*X88213Y146600D01*
X86500Y145800D02*Y144200D01*
Y145800D02*X87887Y146600D01*
X86500Y145800D02*X85113Y146600D01*
X95600Y178700D02*Y177100D01*
Y178700D02*X96987Y179500D01*
X95600Y178700D02*X94213Y179500D01*
X105600Y144800D02*Y143200D01*
Y144800D02*X106987Y145600D01*
X105600Y144800D02*X104213Y145600D01*
X71300Y177600D02*Y176000D01*
Y177600D02*X72687Y178400D01*
X71300Y177600D02*X69913Y178400D01*
X46400Y151000D02*Y149400D01*
Y151000D02*X47787Y151800D01*
X46400Y151000D02*X45013Y151800D01*
X105400Y133200D02*Y131600D01*
Y133200D02*X106787Y134000D01*
X105400Y133200D02*X104013Y134000D01*
X101700Y133300D02*Y131700D01*
Y133300D02*X103087Y134100D01*
X101700Y133300D02*X100313Y134100D01*
X109900Y133400D02*Y131800D01*
Y133400D02*X111287Y134200D01*
X109900Y133400D02*X108513Y134200D01*
X97700Y133400D02*Y131800D01*
Y133400D02*X99087Y134200D01*
X97700Y133400D02*X96313Y134200D01*
X111400Y141100D02*Y139500D01*
Y141100D02*X112787Y141900D01*
X111400Y141100D02*X110013Y141900D01*
X74500Y170700D02*Y169100D01*
Y170700D02*X75887Y171500D01*
X74500Y170700D02*X73113Y171500D01*
X74500Y167400D02*Y165800D01*
Y167400D02*X75887Y168200D01*
X74500Y167400D02*X73113Y168200D01*
X74500Y163800D02*Y162200D01*
Y163800D02*X75887Y164600D01*
X74500Y163800D02*X73113Y164600D01*
X25000Y156400D02*Y154800D01*
Y156400D02*X26387Y157200D01*
X25000Y156400D02*X23613Y157200D01*
X32000Y156400D02*Y154800D01*
Y156400D02*X33387Y157200D01*
X32000Y156400D02*X30613Y157200D01*
X28500Y153900D02*Y152300D01*
Y153900D02*X29887Y154700D01*
X28500Y153900D02*X27113Y154700D01*
X48000Y176400D02*Y174800D01*
Y176400D02*X49387Y177200D01*
X48000Y176400D02*X46613Y177200D01*
X54500Y172500D02*Y170900D01*
Y172500D02*X55887Y173300D01*
X54500Y172500D02*X53113Y173300D01*
X50500Y183400D02*Y181800D01*
Y183400D02*X51887Y184200D01*
X50500Y183400D02*X49113Y184200D01*
X54500Y183400D02*Y181800D01*
Y183400D02*X55887Y184200D01*
X54500Y183400D02*X53113Y184200D01*
X103200Y153600D02*Y152000D01*
Y153600D02*X104587Y154400D01*
X103200Y153600D02*X101813Y154400D01*
X80900Y174500D02*Y172900D01*
Y174500D02*X82287Y175300D01*
X80900Y174500D02*X79513Y175300D01*
X89400Y174500D02*Y172900D01*
Y174500D02*X90787Y175300D01*
X89400Y174500D02*X88013Y175300D01*
X74500Y151900D02*Y150300D01*
Y151900D02*X75887Y152700D01*
X74500Y151900D02*X73113Y152700D01*
X74500Y154900D02*Y153300D01*
Y154900D02*X75887Y155700D01*
X74500Y154900D02*X73113Y155700D01*
X60500Y169100D02*Y167500D01*
Y169100D02*X61887Y169900D01*
X60500Y169100D02*X59113Y169900D01*
X39000Y165900D02*Y164300D01*
Y165900D02*X40387Y166700D01*
X39000Y165900D02*X37613Y166700D01*
X38000Y162800D02*Y161200D01*
Y162800D02*X39387Y163600D01*
X38000Y162800D02*X36613Y163600D01*
X54000Y161900D02*Y160300D01*
Y161900D02*X55387Y162700D01*
X54000Y161900D02*X52613Y162700D01*
X106074Y223900D02*Y222300D01*
Y223900D02*X107461Y224700D01*
X106074Y223900D02*X104687Y224700D01*
X115500Y220900D02*Y219300D01*
Y220900D02*X116887Y221700D01*
X115500Y220900D02*X114113Y221700D01*
X115500Y225500D02*Y223900D01*
Y225500D02*X116887Y226300D01*
X115500Y225500D02*X114113Y226300D01*
X122100Y245800D02*Y244200D01*
Y245800D02*X123487Y246600D01*
X122100Y245800D02*X120713Y246600D01*
X121600Y204800D02*Y203200D01*
Y204800D02*X122987Y205600D01*
X121600Y204800D02*X120213Y205600D01*
X157300Y230600D02*Y229000D01*
Y230600D02*X158687Y231400D01*
X157300Y230600D02*X155913Y231400D01*
X157500Y215600D02*Y214000D01*
Y215600D02*X158887Y216400D01*
X157500Y215600D02*X156113Y216400D01*
X124474Y198574D02*Y196974D01*
Y198574D02*X125861Y199374D01*
X124474Y198574D02*X123087Y199374D01*
X121800Y241200D02*Y239600D01*
Y241200D02*X123187Y242000D01*
X121800Y241200D02*X120413Y242000D01*
X115000Y238100D02*Y236500D01*
Y238100D02*X116387Y238900D01*
X115000Y238100D02*X113613Y238900D01*
X114700Y208900D02*Y207300D01*
Y208900D02*X116087Y209700D01*
X114700Y208900D02*X113313Y209700D01*
X114800Y200000D02*Y198400D01*
Y200000D02*X116187Y200800D01*
X114800Y200000D02*X113413Y200800D01*
X112100Y243500D02*Y241900D01*
Y243500D02*X113487Y244300D01*
X112100Y243500D02*X110713Y244300D01*
X110800Y237700D02*Y236100D01*
Y237700D02*X112187Y238500D01*
X110800Y237700D02*X109413Y238500D01*
X151500Y212300D02*Y210700D01*
Y212300D02*X152887Y213100D01*
X151500Y212300D02*X150113Y213100D01*
X151400Y233700D02*Y232100D01*
Y233700D02*X152787Y234500D01*
X151400Y233700D02*X150013Y234500D01*
X134000Y204800D02*Y203200D01*
Y204800D02*X135387Y205600D01*
X134000Y204800D02*X132613Y205600D01*
X130800Y204900D02*Y203300D01*
Y204900D02*X132187Y205700D01*
X130800Y204900D02*X129413Y205700D01*
X124800Y204800D02*Y203200D01*
Y204800D02*X126187Y205600D01*
X124800Y204800D02*X123413Y205600D01*
X110300Y209800D02*Y208200D01*
Y209800D02*X111687Y210600D01*
X110300Y209800D02*X108913Y210600D01*
X80600Y195900D02*Y194300D01*
Y195900D02*X81987Y196700D01*
X80600Y195900D02*X79213Y196700D01*
X77300Y199100D02*Y197500D01*
Y199100D02*X78687Y199900D01*
X77300Y199100D02*X75913Y199900D01*
X94300Y195900D02*Y194300D01*
Y195900D02*X95687Y196700D01*
X94300Y195900D02*X92913Y196700D01*
X95600Y199900D02*Y198300D01*
Y199900D02*X96987Y200700D01*
X95600Y199900D02*X94213Y200700D01*
X64300Y205426D02*Y203826D01*
Y205426D02*X65687Y206226D01*
X64300Y205426D02*X62913Y206226D01*
X70700Y212000D02*Y210400D01*
Y212000D02*X72087Y212800D01*
X70700Y212000D02*X69313Y212800D01*
X74500Y206700D02*Y205100D01*
Y206700D02*X75887Y207500D01*
X74500Y206700D02*X73113Y207500D01*
X78000Y205300D02*Y203700D01*
Y205300D02*X79387Y206100D01*
X78000Y205300D02*X76613Y206100D01*
X94100Y208700D02*Y207100D01*
Y208700D02*X95487Y209500D01*
X94100Y208700D02*X92713Y209500D01*
X89500Y208800D02*Y207200D01*
Y208800D02*X90887Y209600D01*
X89500Y208800D02*X88113Y209600D01*
X86400Y208800D02*Y207200D01*
Y208800D02*X87787Y209600D01*
X86400Y208800D02*X85013Y209600D01*
X95500Y241700D02*Y240100D01*
Y241700D02*X96887Y242500D01*
X95500Y241700D02*X94113Y242500D01*
X105500Y207800D02*Y206200D01*
Y207800D02*X106887Y208600D01*
X105500Y207800D02*X104113Y208600D01*
X71200Y240600D02*Y239000D01*
Y240600D02*X72587Y241400D01*
X71200Y240600D02*X69813Y241400D01*
X46300Y214000D02*Y212400D01*
Y214000D02*X47687Y214800D01*
X46300Y214000D02*X44913Y214800D01*
X105300Y196200D02*Y194600D01*
Y196200D02*X106687Y197000D01*
X105300Y196200D02*X103913Y197000D01*
X101600Y196300D02*Y194700D01*
Y196300D02*X102987Y197100D01*
X101600Y196300D02*X100213Y197100D01*
X109800Y196400D02*Y194800D01*
Y196400D02*X111187Y197200D01*
X109800Y196400D02*X108413Y197200D01*
X97600Y196400D02*Y194800D01*
Y196400D02*X98987Y197200D01*
X97600Y196400D02*X96213Y197200D01*
X111300Y204100D02*Y202500D01*
Y204100D02*X112687Y204900D01*
X111300Y204100D02*X109913Y204900D01*
X74400Y233700D02*Y232100D01*
Y233700D02*X75787Y234500D01*
X74400Y233700D02*X73013Y234500D01*
X74400Y230400D02*Y228800D01*
Y230400D02*X75787Y231200D01*
X74400Y230400D02*X73013Y231200D01*
X74400Y226800D02*Y225200D01*
Y226800D02*X75787Y227600D01*
X74400Y226800D02*X73013Y227600D01*
X24900Y219400D02*Y217800D01*
Y219400D02*X26287Y220200D01*
X24900Y219400D02*X23513Y220200D01*
X31900Y219400D02*Y217800D01*
Y219400D02*X33287Y220200D01*
X31900Y219400D02*X30513Y220200D01*
X28400Y216900D02*Y215300D01*
Y216900D02*X29787Y217700D01*
X28400Y216900D02*X27013Y217700D01*
X47900Y239400D02*Y237800D01*
Y239400D02*X49287Y240200D01*
X47900Y239400D02*X46513Y240200D01*
X54400Y235500D02*Y233900D01*
Y235500D02*X55787Y236300D01*
X54400Y235500D02*X53013Y236300D01*
X50400Y246400D02*Y244800D01*
Y246400D02*X51787Y247200D01*
X50400Y246400D02*X49013Y247200D01*
X54400Y246400D02*Y244800D01*
Y246400D02*X55787Y247200D01*
X54400Y246400D02*X53013Y247200D01*
X103100Y216600D02*Y215000D01*
Y216600D02*X104487Y217400D01*
X103100Y216600D02*X101713Y217400D01*
X80800Y237500D02*Y235900D01*
Y237500D02*X82187Y238300D01*
X80800Y237500D02*X79413Y238300D01*
X89300Y237500D02*Y235900D01*
Y237500D02*X90687Y238300D01*
X89300Y237500D02*X87913Y238300D01*
X74400Y214900D02*Y213300D01*
Y214900D02*X75787Y215700D01*
X74400Y214900D02*X73013Y215700D01*
X74400Y217900D02*Y216300D01*
Y217900D02*X75787Y218700D01*
X74400Y217900D02*X73013Y218700D01*
X60400Y232100D02*Y230500D01*
Y232100D02*X61787Y232900D01*
X60400Y232100D02*X59013Y232900D01*
X38900Y228900D02*Y227300D01*
Y228900D02*X40287Y229700D01*
X38900Y228900D02*X37513Y229700D01*
X37900Y225800D02*Y224200D01*
Y225800D02*X39287Y226600D01*
X37900Y225800D02*X36513Y226600D01*
X53900Y224900D02*Y223300D01*
Y224900D02*X55287Y225700D01*
X53900Y224900D02*X52513Y225700D01*
X142000Y157000D02*Y155400D01*
Y157000D02*X143387Y157800D01*
X142000Y157000D02*X140613Y157800D01*
X142000Y163000D02*Y161400D01*
Y163000D02*X143387Y163800D01*
X142000Y163000D02*X140613Y163800D01*
X136500Y163000D02*Y161400D01*
Y163000D02*X137887Y163800D01*
X136500Y163000D02*X135113Y163800D01*
X136500Y157000D02*Y155400D01*
Y157000D02*X137887Y157800D01*
X136500Y157000D02*X135113Y157800D01*
X136500Y151500D02*Y149900D01*
Y151500D02*X137887Y152300D01*
X136500Y151500D02*X135113Y152300D01*
X130500Y151500D02*Y149900D01*
Y151500D02*X131887Y152300D01*
X130500Y151500D02*X129113Y152300D01*
X130500Y157000D02*Y155400D01*
Y157000D02*X131887Y157800D01*
X130500Y157000D02*X129113Y157800D01*
X125000Y157000D02*Y155400D01*
Y157000D02*X126387Y157800D01*
X125000Y157000D02*X123613Y157800D01*
X125000Y163000D02*Y161400D01*
Y163000D02*X126387Y163800D01*
X125000Y163000D02*X123613Y163800D01*
X130500Y163000D02*Y161400D01*
Y163000D02*X131887Y163800D01*
X130500Y163000D02*X129113Y163800D01*
X136500Y168500D02*Y166900D01*
Y168500D02*X137887Y169300D01*
X136500Y168500D02*X135113Y169300D01*
X130500Y168500D02*Y166900D01*
Y168500D02*X131887Y169300D01*
X130500Y168500D02*X129113Y169300D01*
X125000Y151500D02*Y149900D01*
Y151500D02*X126387Y152300D01*
X125000Y151500D02*X123613Y152300D01*
X142000Y151500D02*Y149900D01*
Y151500D02*X143387Y152300D01*
X142000Y151500D02*X140613Y152300D01*
X142000Y168500D02*Y166900D01*
Y168500D02*X143387Y169300D01*
X142000Y168500D02*X140613Y169300D01*
X125000Y168500D02*Y166900D01*
Y168500D02*X126387Y169300D01*
X125000Y168500D02*X123613Y169300D01*
X89000Y155500D02*Y153900D01*
Y155500D02*X90387Y156300D01*
X89000Y155500D02*X87613Y156300D01*
X93500Y160000D02*Y158400D01*
Y160000D02*X94887Y160800D01*
X93500Y160000D02*X92113Y160800D01*
X89000Y164500D02*Y162900D01*
Y164500D02*X90387Y165300D01*
X89000Y164500D02*X87613Y165300D01*
X84500Y160000D02*Y158400D01*
Y160000D02*X85887Y160800D01*
X84500Y160000D02*X83113Y160800D01*
X89000Y160000D02*Y158400D01*
Y160000D02*X90387Y160800D01*
X89000Y160000D02*X87613Y160800D01*
X84500Y155500D02*Y153900D01*
Y155500D02*X85887Y156300D01*
X84500Y155500D02*X83113Y156300D01*
X93500Y155500D02*Y153900D01*
Y155500D02*X94887Y156300D01*
X93500Y155500D02*X92113Y156300D01*
X93500Y164500D02*Y162900D01*
Y164500D02*X94887Y165300D01*
X93500Y164500D02*X92113Y165300D01*
X84500Y164500D02*Y162900D01*
Y164500D02*X85887Y165300D01*
X84500Y164500D02*X83113Y165300D01*
X142000Y220000D02*Y218400D01*
Y220000D02*X143387Y220800D01*
X142000Y220000D02*X140613Y220800D01*
X142000Y226000D02*Y224400D01*
Y226000D02*X143387Y226800D01*
X142000Y226000D02*X140613Y226800D01*
X136500Y226000D02*Y224400D01*
Y226000D02*X137887Y226800D01*
X136500Y226000D02*X135113Y226800D01*
X136500Y220000D02*Y218400D01*
Y220000D02*X137887Y220800D01*
X136500Y220000D02*X135113Y220800D01*
X136500Y214500D02*Y212900D01*
Y214500D02*X137887Y215300D01*
X136500Y214500D02*X135113Y215300D01*
X130500Y214500D02*Y212900D01*
Y214500D02*X131887Y215300D01*
X130500Y214500D02*X129113Y215300D01*
X130500Y220000D02*Y218400D01*
Y220000D02*X131887Y220800D01*
X130500Y220000D02*X129113Y220800D01*
X125000Y220000D02*Y218400D01*
Y220000D02*X126387Y220800D01*
X125000Y220000D02*X123613Y220800D01*
X125000Y226000D02*Y224400D01*
Y226000D02*X126387Y226800D01*
X125000Y226000D02*X123613Y226800D01*
X130500Y226000D02*Y224400D01*
Y226000D02*X131887Y226800D01*
X130500Y226000D02*X129113Y226800D01*
X136500Y231500D02*Y229900D01*
Y231500D02*X137887Y232300D01*
X136500Y231500D02*X135113Y232300D01*
X130500Y231500D02*Y229900D01*
Y231500D02*X131887Y232300D01*
X130500Y231500D02*X129113Y232300D01*
X125000Y214500D02*Y212900D01*
Y214500D02*X126387Y215300D01*
X125000Y214500D02*X123613Y215300D01*
X142000Y214500D02*Y212900D01*
Y214500D02*X143387Y215300D01*
X142000Y214500D02*X140613Y215300D01*
X142000Y231500D02*Y229900D01*
Y231500D02*X143387Y232300D01*
X142000Y231500D02*X140613Y232300D01*
X125000Y231500D02*Y229900D01*
Y231500D02*X126387Y232300D01*
X125000Y231500D02*X123613Y232300D01*
X89000Y218500D02*Y216900D01*
Y218500D02*X90387Y219300D01*
X89000Y218500D02*X87613Y219300D01*
X93500Y223000D02*Y221400D01*
Y223000D02*X94887Y223800D01*
X93500Y223000D02*X92113Y223800D01*
X89000Y227500D02*Y225900D01*
Y227500D02*X90387Y228300D01*
X89000Y227500D02*X87613Y228300D01*
X84500Y223000D02*Y221400D01*
Y223000D02*X85887Y223800D01*
X84500Y223000D02*X83113Y223800D01*
X89000Y223000D02*Y221400D01*
Y223000D02*X90387Y223800D01*
X89000Y223000D02*X87613Y223800D01*
X84500Y218500D02*Y216900D01*
Y218500D02*X85887Y219300D01*
X84500Y218500D02*X83113Y219300D01*
X93500Y218500D02*Y216900D01*
Y218500D02*X94887Y219300D01*
X93500Y218500D02*X92113Y219300D01*
X93500Y227500D02*Y225900D01*
Y227500D02*X94887Y228300D01*
X93500Y227500D02*X92113Y228300D01*
X84500Y227500D02*Y225900D01*
Y227500D02*X85887Y228300D01*
X84500Y227500D02*X83113Y228300D01*
X106174Y287000D02*Y285400D01*
Y287000D02*X107561Y287800D01*
X106174Y287000D02*X104787Y287800D01*
X115600Y284000D02*Y282400D01*
Y284000D02*X116987Y284800D01*
X115600Y284000D02*X114213Y284800D01*
X115600Y288600D02*Y287000D01*
Y288600D02*X116987Y289400D01*
X115600Y288600D02*X114213Y289400D01*
X125200Y310600D02*Y309000D01*
Y310600D02*X126587Y311400D01*
X125200Y310600D02*X123813Y311400D01*
X3000Y128500D02*Y126900D01*
Y128500D02*X4387Y129300D01*
X3000Y128500D02*X1613Y129300D01*
X123000Y128500D02*Y126900D01*
Y128500D02*X124387Y129300D01*
X123000Y128500D02*X121613Y129300D01*
X113000Y128500D02*Y126900D01*
Y128500D02*X114387Y129300D01*
X113000Y128500D02*X111613Y129300D01*
X103000Y128500D02*Y126900D01*
Y128500D02*X104387Y129300D01*
X103000Y128500D02*X101613Y129300D01*
X93000Y128500D02*Y126900D01*
Y128500D02*X94387Y129300D01*
X93000Y128500D02*X91613Y129300D01*
X83000Y128500D02*Y126900D01*
Y128500D02*X84387Y129300D01*
X83000Y128500D02*X81613Y129300D01*
X73000Y128500D02*Y126900D01*
Y128500D02*X74387Y129300D01*
X73000Y128500D02*X71613Y129300D01*
X63000Y128500D02*Y126900D01*
Y128500D02*X64387Y129300D01*
X63000Y128500D02*X61613Y129300D01*
X53000Y128500D02*Y126900D01*
Y128500D02*X54387Y129300D01*
X53000Y128500D02*X51613Y129300D01*
X43000Y128500D02*Y126900D01*
Y128500D02*X44387Y129300D01*
X43000Y128500D02*X41613Y129300D01*
X23000Y128500D02*Y126900D01*
Y128500D02*X24387Y129300D01*
X23000Y128500D02*X21613Y129300D01*
X33000Y128500D02*Y126900D01*
Y128500D02*X34387Y129300D01*
X33000Y128500D02*X31613Y129300D01*
X13000Y128500D02*Y126900D01*
Y128500D02*X14387Y129300D01*
X13000Y128500D02*X11613Y129300D01*
X3000Y254500D02*Y252900D01*
Y254500D02*X4387Y255300D01*
X3000Y254500D02*X1613Y255300D01*
X123000Y254500D02*Y252900D01*
Y254500D02*X124387Y255300D01*
X123000Y254500D02*X121613Y255300D01*
X113000Y254500D02*Y252900D01*
Y254500D02*X114387Y255300D01*
X113000Y254500D02*X111613Y255300D01*
X103000Y254500D02*Y252900D01*
Y254500D02*X104387Y255300D01*
X103000Y254500D02*X101613Y255300D01*
X93000Y254500D02*Y252900D01*
Y254500D02*X94387Y255300D01*
X93000Y254500D02*X91613Y255300D01*
X83000Y254500D02*Y252900D01*
Y254500D02*X84387Y255300D01*
X83000Y254500D02*X81613Y255300D01*
X73000Y254500D02*Y252900D01*
Y254500D02*X74387Y255300D01*
X73000Y254500D02*X71613Y255300D01*
X63000Y254500D02*Y252900D01*
Y254500D02*X64387Y255300D01*
X63000Y254500D02*X61613Y255300D01*
X53000Y254500D02*Y252900D01*
Y254500D02*X54387Y255300D01*
X53000Y254500D02*X51613Y255300D01*
X43000Y254500D02*Y252900D01*
Y254500D02*X44387Y255300D01*
X43000Y254500D02*X41613Y255300D01*
X23000Y254500D02*Y252900D01*
Y254500D02*X24387Y255300D01*
X23000Y254500D02*X21613Y255300D01*
X121700Y267900D02*Y266300D01*
Y267900D02*X123087Y268700D01*
X121700Y267900D02*X120313Y268700D01*
X157400Y293700D02*Y292100D01*
Y293700D02*X158787Y294500D01*
X157400Y293700D02*X156013Y294500D01*
X157600Y278700D02*Y277100D01*
Y278700D02*X158987Y279500D01*
X157600Y278700D02*X156213Y279500D01*
X125500Y261700D02*Y260100D01*
Y261700D02*X126887Y262500D01*
X125500Y261700D02*X124113Y262500D01*
X121900Y304300D02*Y302700D01*
Y304300D02*X123287Y305100D01*
X121900Y304300D02*X120513Y305100D01*
X115100Y301200D02*Y299600D01*
Y301200D02*X116487Y302000D01*
X115100Y301200D02*X113713Y302000D01*
X114800Y272000D02*Y270400D01*
Y272000D02*X116187Y272800D01*
X114800Y272000D02*X113413Y272800D01*
X114900Y263100D02*Y261500D01*
Y263100D02*X116287Y263900D01*
X114900Y263100D02*X113513Y263900D01*
X115100Y310000D02*Y308400D01*
Y310000D02*X116487Y310800D01*
X115100Y310000D02*X113713Y310800D01*
X110900Y300800D02*Y299200D01*
Y300800D02*X112287Y301600D01*
X110900Y300800D02*X109513Y301600D01*
X151600Y275400D02*Y273800D01*
Y275400D02*X152987Y276200D01*
X151600Y275400D02*X150213Y276200D01*
X151500Y296800D02*Y295200D01*
Y296800D02*X152887Y297600D01*
X151500Y296800D02*X150113Y297600D01*
X133900Y267900D02*Y266300D01*
Y267900D02*X135287Y268700D01*
X133900Y267900D02*X132513Y268700D01*
X130800Y268000D02*Y266400D01*
Y268000D02*X132187Y268800D01*
X130800Y268000D02*X129413Y268800D01*
X124900Y267900D02*Y266300D01*
Y267900D02*X126287Y268700D01*
X124900Y267900D02*X123513Y268700D01*
X110400Y272900D02*Y271300D01*
Y272900D02*X111787Y273700D01*
X110400Y272900D02*X109013Y273700D01*
X142000Y283000D02*Y281400D01*
Y283000D02*X143387Y283800D01*
X142000Y283000D02*X140613Y283800D01*
X142000Y289000D02*Y287400D01*
Y289000D02*X143387Y289800D01*
X142000Y289000D02*X140613Y289800D01*
X136500Y289000D02*Y287400D01*
Y289000D02*X137887Y289800D01*
X136500Y289000D02*X135113Y289800D01*
X136500Y283000D02*Y281400D01*
Y283000D02*X137887Y283800D01*
X136500Y283000D02*X135113Y283800D01*
X136500Y277500D02*Y275900D01*
Y277500D02*X137887Y278300D01*
X136500Y277500D02*X135113Y278300D01*
X130500Y277500D02*Y275900D01*
Y277500D02*X131887Y278300D01*
X130500Y277500D02*X129113Y278300D01*
X130500Y283000D02*Y281400D01*
Y283000D02*X131887Y283800D01*
X130500Y283000D02*X129113Y283800D01*
X125000Y283000D02*Y281400D01*
Y283000D02*X126387Y283800D01*
X125000Y283000D02*X123613Y283800D01*
X125000Y289000D02*Y287400D01*
Y289000D02*X126387Y289800D01*
X125000Y289000D02*X123613Y289800D01*
X130500Y289000D02*Y287400D01*
Y289000D02*X131887Y289800D01*
X130500Y289000D02*X129113Y289800D01*
X136500Y294500D02*Y292900D01*
Y294500D02*X137887Y295300D01*
X136500Y294500D02*X135113Y295300D01*
X130500Y294500D02*Y292900D01*
Y294500D02*X131887Y295300D01*
X130500Y294500D02*X129113Y295300D01*
X125000Y277500D02*Y275900D01*
Y277500D02*X126387Y278300D01*
X125000Y277500D02*X123613Y278300D01*
X142000Y277500D02*Y275900D01*
Y277500D02*X143387Y278300D01*
X142000Y277500D02*X140613Y278300D01*
X142000Y294500D02*Y292900D01*
Y294500D02*X143387Y295300D01*
X142000Y294500D02*X140613Y295300D01*
X125000Y294500D02*Y292900D01*
Y294500D02*X126387Y295300D01*
X125000Y294500D02*X123613Y295300D01*
X81200Y258600D02*Y257000D01*
Y258600D02*X82587Y259400D01*
X81200Y258600D02*X79813Y259400D01*
X77400Y262200D02*Y260600D01*
Y262200D02*X78787Y263000D01*
X77400Y262200D02*X76013Y263000D01*
X94200Y258700D02*Y257100D01*
Y258700D02*X95587Y259500D01*
X94200Y258700D02*X92813Y259500D01*
X95700Y263000D02*Y261400D01*
Y263000D02*X97087Y263800D01*
X95700Y263000D02*X94313Y263800D01*
X64400Y268526D02*Y266926D01*
Y268526D02*X65787Y269326D01*
X64400Y268526D02*X63013Y269326D01*
X70800Y275100D02*Y273500D01*
Y275100D02*X72187Y275900D01*
X70800Y275100D02*X69413Y275900D01*
X74600Y269800D02*Y268200D01*
Y269800D02*X75987Y270600D01*
X74600Y269800D02*X73213Y270600D01*
X78100Y268400D02*Y266800D01*
Y268400D02*X79487Y269200D01*
X78100Y268400D02*X76713Y269200D01*
X94200Y271800D02*Y270200D01*
Y271800D02*X95587Y272600D01*
X94200Y271800D02*X92813Y272600D01*
X89600Y271900D02*Y270300D01*
Y271900D02*X90987Y272700D01*
X89600Y271900D02*X88213Y272700D01*
X86500Y271900D02*Y270300D01*
Y271900D02*X87887Y272700D01*
X86500Y271900D02*X85113Y272700D01*
X95600Y304800D02*Y303200D01*
Y304800D02*X96987Y305600D01*
X95600Y304800D02*X94213Y305600D01*
X105600Y270900D02*Y269300D01*
Y270900D02*X106987Y271700D01*
X105600Y270900D02*X104213Y271700D01*
X71500Y302500D02*Y300900D01*
Y302500D02*X72887Y303300D01*
X71500Y302500D02*X70113Y303300D01*
X46400Y277100D02*Y275500D01*
Y277100D02*X47787Y277900D01*
X46400Y277100D02*X45013Y277900D01*
X10000Y173000D02*Y171400D01*
Y173000D02*X11387Y173800D01*
X10000Y173000D02*X8613Y173800D01*
X16500Y173000D02*Y171400D01*
Y173000D02*X17887Y173800D01*
X16500Y173000D02*X15113Y173800D01*
X3500Y173000D02*Y171400D01*
Y173000D02*X4887Y173800D01*
X3500Y173000D02*X2113Y173800D01*
X10000Y180500D02*Y178900D01*
Y180500D02*X11387Y181300D01*
X10000Y180500D02*X8613Y181300D01*
X16500Y180500D02*Y178900D01*
Y180500D02*X17887Y181300D01*
X16500Y180500D02*X15113Y181300D01*
X3500Y180500D02*Y178900D01*
Y180500D02*X4887Y181300D01*
X3500Y180500D02*X2113Y181300D01*
X9600Y139400D02*Y137800D01*
Y139400D02*X10987Y140200D01*
X9600Y139400D02*X8213Y140200D01*
X16100Y139400D02*Y137800D01*
Y139400D02*X17487Y140200D01*
X16100Y139400D02*X14713Y140200D01*
X3100Y139400D02*Y137800D01*
Y139400D02*X4487Y140200D01*
X3100Y139400D02*X1713Y140200D01*
X9600Y146900D02*Y145300D01*
Y146900D02*X10987Y147700D01*
X9600Y146900D02*X8213Y147700D01*
X16100Y146900D02*Y145300D01*
Y146900D02*X17487Y147700D01*
X16100Y146900D02*X14713Y147700D01*
X3100Y146900D02*Y145300D01*
Y146900D02*X4487Y147700D01*
X3100Y146900D02*X1713Y147700D01*
X10000Y236000D02*Y234400D01*
Y236000D02*X11387Y236800D01*
X10000Y236000D02*X8613Y236800D01*
X16500Y236000D02*Y234400D01*
Y236000D02*X17887Y236800D01*
X16500Y236000D02*X15113Y236800D01*
X3500Y236000D02*Y234400D01*
Y236000D02*X4887Y236800D01*
X3500Y236000D02*X2113Y236800D01*
X10000Y243500D02*Y241900D01*
Y243500D02*X11387Y244300D01*
X10000Y243500D02*X8613Y244300D01*
X16500Y243500D02*Y241900D01*
Y243500D02*X17887Y244300D01*
X16500Y243500D02*X15113Y244300D01*
X3500Y243500D02*Y241900D01*
Y243500D02*X4887Y244300D01*
X3500Y243500D02*X2113Y244300D01*
X9600Y202400D02*Y200800D01*
Y202400D02*X10987Y203200D01*
X9600Y202400D02*X8213Y203200D01*
X16100Y202400D02*Y200800D01*
Y202400D02*X17487Y203200D01*
X16100Y202400D02*X14713Y203200D01*
X3100Y202400D02*Y200800D01*
Y202400D02*X4487Y203200D01*
X3100Y202400D02*X1713Y203200D01*
X9600Y209900D02*Y208300D01*
Y209900D02*X10987Y210700D01*
X9600Y209900D02*X8213Y210700D01*
X16100Y209900D02*Y208300D01*
Y209900D02*X17487Y210700D01*
X16100Y209900D02*X14713Y210700D01*
X3100Y209900D02*Y208300D01*
Y209900D02*X4487Y210700D01*
X3100Y209900D02*X1713Y210700D01*
X105600Y259700D02*Y258100D01*
Y259700D02*X106987Y260500D01*
X105600Y259700D02*X104213Y260500D01*
X101600Y259600D02*Y258000D01*
Y259600D02*X102987Y260400D01*
X101600Y259600D02*X100213Y260400D01*
X110200Y260000D02*Y258400D01*
Y260000D02*X111587Y260800D01*
X110200Y260000D02*X108813Y260800D01*
X97200Y259800D02*Y258200D01*
Y259800D02*X98587Y260600D01*
X97200Y259800D02*X95813Y260600D01*
X111400Y267200D02*Y265600D01*
Y267200D02*X112787Y268000D01*
X111400Y267200D02*X110013Y268000D01*
X74500Y296800D02*Y295200D01*
Y296800D02*X75887Y297600D01*
X74500Y296800D02*X73113Y297600D01*
X74500Y293500D02*Y291900D01*
Y293500D02*X75887Y294300D01*
X74500Y293500D02*X73113Y294300D01*
X74500Y289900D02*Y288300D01*
Y289900D02*X75887Y290700D01*
X74500Y289900D02*X73113Y290700D01*
X89000Y281500D02*Y279900D01*
Y281500D02*X90387Y282300D01*
X89000Y281500D02*X87613Y282300D01*
X93500Y286000D02*Y284400D01*
Y286000D02*X94887Y286800D01*
X93500Y286000D02*X92113Y286800D01*
X89000Y290500D02*Y288900D01*
Y290500D02*X90387Y291300D01*
X89000Y290500D02*X87613Y291300D01*
X84500Y286000D02*Y284400D01*
Y286000D02*X85887Y286800D01*
X84500Y286000D02*X83113Y286800D01*
X89000Y286000D02*Y284400D01*
Y286000D02*X90387Y286800D01*
X89000Y286000D02*X87613Y286800D01*
X84500Y281500D02*Y279900D01*
Y281500D02*X85887Y282300D01*
X84500Y281500D02*X83113Y282300D01*
X93500Y281500D02*Y279900D01*
Y281500D02*X94887Y282300D01*
X93500Y281500D02*X92113Y282300D01*
X93500Y290500D02*Y288900D01*
Y290500D02*X94887Y291300D01*
X93500Y290500D02*X92113Y291300D01*
X84500Y290500D02*Y288900D01*
Y290500D02*X85887Y291300D01*
X84500Y290500D02*X83113Y291300D01*
X10400Y299100D02*Y297500D01*
Y299100D02*X11787Y299900D01*
X10400Y299100D02*X9013Y299900D01*
X16900Y299100D02*Y297500D01*
Y299100D02*X18287Y299900D01*
X16900Y299100D02*X15513Y299900D01*
X3900Y299100D02*Y297500D01*
Y299100D02*X5287Y299900D01*
X3900Y299100D02*X2513Y299900D01*
X10400Y306600D02*Y305000D01*
Y306600D02*X11787Y307400D01*
X10400Y306600D02*X9013Y307400D01*
X16900Y306600D02*Y305000D01*
Y306600D02*X18287Y307400D01*
X16900Y306600D02*X15513Y307400D01*
X3900Y306600D02*Y305000D01*
Y306600D02*X5287Y307400D01*
X3900Y306600D02*X2513Y307400D01*
X33000Y254500D02*Y252900D01*
Y254500D02*X34387Y255300D01*
X33000Y254500D02*X31613Y255300D01*
X10000Y265500D02*Y263900D01*
Y265500D02*X11387Y266300D01*
X10000Y265500D02*X8613Y266300D01*
X16500Y265500D02*Y263900D01*
Y265500D02*X17887Y266300D01*
X16500Y265500D02*X15113Y266300D01*
X3500Y265500D02*Y263900D01*
Y265500D02*X4887Y266300D01*
X3500Y265500D02*X2113Y266300D01*
X10000Y273000D02*Y271400D01*
Y273000D02*X11387Y273800D01*
X10000Y273000D02*X8613Y273800D01*
X16500Y273000D02*Y271400D01*
Y273000D02*X17887Y273800D01*
X16500Y273000D02*X15113Y273800D01*
X3500Y273000D02*Y271400D01*
Y273000D02*X4887Y273800D01*
X3500Y273000D02*X2113Y273800D01*
X13000Y254500D02*Y252900D01*
Y254500D02*X14387Y255300D01*
X13000Y254500D02*X11613Y255300D01*
X25500Y282500D02*Y280900D01*
Y282500D02*X26887Y283300D01*
X25500Y282500D02*X24113Y283300D01*
X31500Y282500D02*Y280900D01*
Y282500D02*X32887Y283300D01*
X31500Y282500D02*X30113Y283300D01*
X28500Y280300D02*Y278700D01*
Y280300D02*X29887Y281100D01*
X28500Y280300D02*X27113Y281100D01*
X48900Y302000D02*Y300400D01*
Y302000D02*X50287Y302800D01*
X48900Y302000D02*X47513Y302800D01*
X51300Y308900D02*Y307300D01*
Y308900D02*X52687Y309700D01*
X51300Y308900D02*X49913Y309700D01*
X54700Y308900D02*Y307300D01*
Y308900D02*X56087Y309700D01*
X54700Y308900D02*X53313Y309700D01*
X103600Y280000D02*Y278400D01*
Y280000D02*X104987Y280800D01*
X103600Y280000D02*X102213Y280800D01*
X80900Y300600D02*Y299000D01*
Y300600D02*X82287Y301400D01*
X80900Y300600D02*X79513Y301400D01*
X89400Y300600D02*Y299000D01*
Y300600D02*X90787Y301400D01*
X89400Y300600D02*X88013Y301400D01*
X74500Y278000D02*Y276400D01*
Y278000D02*X75887Y278800D01*
X74500Y278000D02*X73113Y278800D01*
X74500Y281000D02*Y279400D01*
Y281000D02*X75887Y281800D01*
X74500Y281000D02*X73113Y281800D01*
X39000Y292000D02*Y290400D01*
Y292000D02*X40387Y292800D01*
X39000Y292000D02*X37613Y292800D01*
X38500Y288700D02*Y287100D01*
Y288700D02*X39887Y289500D01*
X38500Y288700D02*X37113Y289500D01*
X54000Y288000D02*Y286400D01*
Y288000D02*X55387Y288800D01*
X54000Y288000D02*X52613Y288800D01*
X175500Y36700D02*Y35100D01*
Y36700D02*X176887Y37500D01*
X175500Y36700D02*X174113Y37500D01*
X167300Y33600D02*Y32000D01*
Y33600D02*X168687Y34400D01*
X167300Y33600D02*X165913Y34400D01*
X165800Y37500D02*Y35900D01*
Y37500D02*X167187Y38300D01*
X165800Y37500D02*X164413Y38300D01*
X163174Y59674D02*Y58074D01*
Y59674D02*X164561Y60474D01*
X163174Y59674D02*X161787Y60474D01*
X150000Y63000D02*Y61400D01*
Y63000D02*X151387Y63800D01*
X150000Y63000D02*X148613Y63800D01*
X142900Y11700D02*Y10100D01*
Y11700D02*X144287Y12500D01*
X142900Y11700D02*X141513Y12500D01*
X161100Y23100D02*Y21500D01*
Y23100D02*X162487Y23900D01*
X161100Y23100D02*X159713Y23900D01*
X41500Y28400D02*Y26800D01*
Y28400D02*X42887Y29200D01*
X41500Y28400D02*X40113Y29200D01*
X31200Y28300D02*Y26700D01*
Y28300D02*X32587Y29100D01*
X31200Y28300D02*X29813Y29100D01*
X146000Y36500D02*Y34900D01*
Y36500D02*X147387Y37300D01*
X146000Y36500D02*X144613Y37300D01*
X146000Y45000D02*Y43400D01*
Y45000D02*X147387Y45800D01*
X146000Y45000D02*X144613Y45800D01*
X146000Y28500D02*Y26900D01*
Y28500D02*X147387Y29300D01*
X146000Y28500D02*X144613Y29300D01*
X146000Y52500D02*Y50900D01*
Y52500D02*X147387Y53300D01*
X146000Y52500D02*X144613Y53300D01*
X146100Y62800D02*Y61200D01*
Y62800D02*X147487Y63600D01*
X146100Y62800D02*X144713Y63600D01*
X157400Y56800D02*Y55200D01*
Y56800D02*X158787Y57600D01*
X157400Y56800D02*X156013Y57600D01*
X157400Y36900D02*Y35300D01*
Y36900D02*X158787Y37700D01*
X157400Y36900D02*X156013Y37700D01*
X157400Y29200D02*Y27600D01*
Y29200D02*X158787Y30000D01*
X157400Y29200D02*X156013Y30000D01*
X145400Y17600D02*Y16000D01*
Y17600D02*X146787Y18400D01*
X145400Y17600D02*X144013Y18400D01*
X141200Y66900D02*Y65300D01*
Y66900D02*X142587Y67700D01*
X141200Y66900D02*X139813Y67700D01*
X141400Y63600D02*Y62000D01*
Y63600D02*X142787Y64400D01*
X141400Y63600D02*X140013Y64400D01*
X10000Y47000D02*Y45400D01*
Y47000D02*X11387Y47800D01*
X10000Y47000D02*X8613Y47800D01*
X16500Y47000D02*Y45400D01*
Y47000D02*X17887Y47800D01*
X16500Y47000D02*X15113Y47800D01*
X3500Y47000D02*Y45400D01*
Y47000D02*X4887Y47800D01*
X3500Y47000D02*X2113Y47800D01*
X10000Y54500D02*Y52900D01*
Y54500D02*X11387Y55300D01*
X10000Y54500D02*X8613Y55300D01*
X16500Y54500D02*Y52900D01*
Y54500D02*X17887Y55300D01*
X16500Y54500D02*X15113Y55300D01*
X3500Y54500D02*Y52900D01*
Y54500D02*X4887Y55300D01*
X3500Y54500D02*X2113Y55300D01*
X9600Y13400D02*Y11800D01*
Y13400D02*X10987Y14200D01*
X9600Y13400D02*X8213Y14200D01*
X16100Y13400D02*Y11800D01*
Y13400D02*X17487Y14200D01*
X16100Y13400D02*X14713Y14200D01*
X3100Y13400D02*Y11800D01*
Y13400D02*X4487Y14200D01*
X3100Y13400D02*X1713Y14200D01*
X9600Y20900D02*Y19300D01*
Y20900D02*X10987Y21700D01*
X9600Y20900D02*X8213Y21700D01*
X16100Y20900D02*Y19300D01*
Y20900D02*X17487Y21700D01*
X16100Y20900D02*X14713Y21700D01*
X3100Y20900D02*Y19300D01*
Y20900D02*X4487Y21700D01*
X3100Y20900D02*X1713Y21700D01*
X10000Y110000D02*Y108400D01*
Y110000D02*X11387Y110800D01*
X10000Y110000D02*X8613Y110800D01*
X16500Y110000D02*Y108400D01*
Y110000D02*X17887Y110800D01*
X16500Y110000D02*X15113Y110800D01*
X3500Y110000D02*Y108400D01*
Y110000D02*X4887Y110800D01*
X3500Y110000D02*X2113Y110800D01*
X10000Y117500D02*Y115900D01*
Y117500D02*X11387Y118300D01*
X10000Y117500D02*X8613Y118300D01*
X16500Y117500D02*Y115900D01*
Y117500D02*X17887Y118300D01*
X16500Y117500D02*X15113Y118300D01*
X3500Y117500D02*Y115900D01*
Y117500D02*X4887Y118300D01*
X3500Y117500D02*X2113Y118300D01*
X9600Y76400D02*Y74800D01*
Y76400D02*X10987Y77200D01*
X9600Y76400D02*X8213Y77200D01*
X16100Y76400D02*Y74800D01*
Y76400D02*X17487Y77200D01*
X16100Y76400D02*X14713Y77200D01*
X3100Y76400D02*Y74800D01*
Y76400D02*X4487Y77200D01*
X3100Y76400D02*X1713Y77200D01*
X9600Y83900D02*Y82300D01*
Y83900D02*X10987Y84700D01*
X9600Y83900D02*X8213Y84700D01*
X16100Y83900D02*Y82300D01*
Y83900D02*X17487Y84700D01*
X16100Y83900D02*X14713Y84700D01*
X3100Y83900D02*Y82300D01*
Y83900D02*X4487Y84700D01*
X3100Y83900D02*X1713Y84700D01*
X125000Y105500D02*Y103900D01*
Y105500D02*X126387Y106300D01*
X125000Y105500D02*X123613Y106300D01*
X142000Y105500D02*Y103900D01*
Y105500D02*X143387Y106300D01*
X142000Y105500D02*X140613Y106300D01*
X142000Y88500D02*Y86900D01*
Y88500D02*X143387Y89300D01*
X142000Y88500D02*X140613Y89300D01*
X125000Y88500D02*Y86900D01*
Y88500D02*X126387Y89300D01*
X125000Y88500D02*X123613Y89300D01*
X130500Y105500D02*Y103900D01*
Y105500D02*X131887Y106300D01*
X130500Y105500D02*X129113Y106300D01*
X136500Y105500D02*Y103900D01*
Y105500D02*X137887Y106300D01*
X136500Y105500D02*X135113Y106300D01*
X130500Y100000D02*Y98400D01*
Y100000D02*X131887Y100800D01*
X130500Y100000D02*X129113Y100800D01*
X125000Y100000D02*Y98400D01*
Y100000D02*X126387Y100800D01*
X125000Y100000D02*X123613Y100800D01*
X125000Y94000D02*Y92400D01*
Y94000D02*X126387Y94800D01*
X125000Y94000D02*X123613Y94800D01*
X130500Y94000D02*Y92400D01*
Y94000D02*X131887Y94800D01*
X130500Y94000D02*X129113Y94800D01*
X130500Y88500D02*Y86900D01*
Y88500D02*X131887Y89300D01*
X130500Y88500D02*X129113Y89300D01*
X136500Y88500D02*Y86900D01*
Y88500D02*X137887Y89300D01*
X136500Y88500D02*X135113Y89300D01*
X136500Y94000D02*Y92400D01*
Y94000D02*X137887Y94800D01*
X136500Y94000D02*X135113Y94800D01*
X136500Y100000D02*Y98400D01*
Y100000D02*X137887Y100800D01*
X136500Y100000D02*X135113Y100800D01*
X142000Y100000D02*Y98400D01*
Y100000D02*X143387Y100800D01*
X142000Y100000D02*X140613Y100800D01*
X142000Y94000D02*Y92400D01*
Y94000D02*X143387Y94800D01*
X142000Y94000D02*X140613Y94800D01*
X110300Y83800D02*Y82200D01*
Y83800D02*X111687Y84600D01*
X110300Y83800D02*X108913Y84600D01*
X124800Y78800D02*Y77200D01*
Y78800D02*X126187Y79600D01*
X124800Y78800D02*X123413Y79600D01*
X130800Y78900D02*Y77300D01*
Y78900D02*X132187Y79700D01*
X130800Y78900D02*X129413Y79700D01*
X134000Y78800D02*Y77200D01*
Y78800D02*X135387Y79600D01*
X134000Y78800D02*X132613Y79600D01*
X151400Y107700D02*Y106100D01*
Y107700D02*X152787Y108500D01*
X151400Y107700D02*X150013Y108500D01*
X151500Y86300D02*Y84700D01*
Y86300D02*X152887Y87100D01*
X151500Y86300D02*X150113Y87100D01*
X110800Y111700D02*Y110100D01*
Y111700D02*X112187Y112500D01*
X110800Y111700D02*X109413Y112500D01*
X115000Y120900D02*Y119300D01*
Y120900D02*X116387Y121700D01*
X115000Y120900D02*X113613Y121700D01*
X114800Y74000D02*Y72400D01*
Y74000D02*X116187Y74800D01*
X114800Y74000D02*X113413Y74800D01*
X114700Y82900D02*Y81300D01*
Y82900D02*X116087Y83700D01*
X114700Y82900D02*X113313Y83700D01*
X115000Y112200D02*Y110600D01*
Y112200D02*X116387Y113000D01*
X115000Y112200D02*X113613Y113000D01*
X121800Y115200D02*Y113600D01*
Y115200D02*X123187Y116000D01*
X121800Y115200D02*X120413Y116000D01*
X125400Y72600D02*Y71000D01*
Y72600D02*X126787Y73400D01*
X125400Y72600D02*X124013Y73400D01*
X157500Y89600D02*Y88000D01*
Y89600D02*X158887Y90400D01*
X157500Y89600D02*X156113Y90400D01*
X157300Y104600D02*Y103000D01*
Y104600D02*X158687Y105400D01*
X157300Y104600D02*X155913Y105400D01*
X121600Y78800D02*Y77200D01*
Y78800D02*X122987Y79600D01*
X121600Y78800D02*X120213Y79600D01*
X125100Y121500D02*Y119900D01*
Y121500D02*X126487Y122300D01*
X125100Y121500D02*X123713Y122300D01*
X115500Y99500D02*Y97900D01*
Y99500D02*X116887Y100300D01*
X115500Y99500D02*X114113Y100300D01*
X115500Y94900D02*Y93300D01*
Y94900D02*X116887Y95700D01*
X115500Y94900D02*X114113Y95700D01*
X106074Y97900D02*Y96300D01*
Y97900D02*X107461Y98700D01*
X106074Y97900D02*X104687Y98700D01*
X95500Y99500D02*Y97900D01*
Y99500D02*X96887Y100300D01*
X95500Y99500D02*X94113Y100300D01*
X95300Y88000D02*Y86400D01*
Y88000D02*X96687Y88800D01*
X95300Y88000D02*X93913Y88800D01*
X99700Y87100D02*Y85500D01*
Y87100D02*X101087Y87900D01*
X99700Y87100D02*X98313Y87900D01*
X99800Y98300D02*Y96700D01*
Y98300D02*X101187Y99100D01*
X99800Y98300D02*X98413Y99100D01*
X127400Y69400D02*Y67800D01*
Y69400D02*X128787Y70200D01*
X127400Y69400D02*X126013Y70200D01*
X136500Y66800D02*Y65200D01*
Y66800D02*X137887Y67600D01*
X136500Y66800D02*X135113Y67600D01*
X133400Y63400D02*Y61800D01*
Y63400D02*X134787Y64200D01*
X133400Y63400D02*X132013Y64200D01*
X124000Y66800D02*Y65200D01*
Y66800D02*X125387Y67600D01*
X124000Y66800D02*X122613Y67600D01*
X119400Y63300D02*Y61700D01*
Y63300D02*X120787Y64100D01*
X119400Y63300D02*X118013Y64100D01*
X131000Y66000D02*Y64400D01*
Y66000D02*X132387Y66800D01*
X131000Y66000D02*X129613Y66800D01*
X131000Y17400D02*Y15800D01*
Y17400D02*X132387Y18200D01*
X131000Y17400D02*X129613Y18200D01*
X118900Y17600D02*Y16000D01*
Y17600D02*X120287Y18400D01*
X118900Y17600D02*X117513Y18400D01*
X122400Y17600D02*Y16000D01*
Y17600D02*X123787Y18400D01*
X122400Y17600D02*X121013Y18400D01*
X134200Y17400D02*Y15800D01*
Y17400D02*X135587Y18200D01*
X134200Y17400D02*X132813Y18200D01*
X115700Y11800D02*Y10200D01*
Y11800D02*X117087Y12600D01*
X115700Y11800D02*X114313Y12600D01*
X125600Y11800D02*Y10200D01*
Y11800D02*X126987Y12600D01*
X125600Y11800D02*X124213Y12600D01*
X131700Y11500D02*Y9900D01*
Y11500D02*X133087Y12300D01*
X131700Y11500D02*X130313Y12300D01*
X122500Y52500D02*Y50900D01*
Y52500D02*X123887Y53300D01*
X122500Y52500D02*X121113Y53300D01*
X122500Y28500D02*Y26900D01*
Y28500D02*X123887Y29300D01*
X122500Y28500D02*X121113Y29300D01*
X130500Y52500D02*Y50900D01*
Y52500D02*X131887Y53300D01*
X130500Y52500D02*X129113Y53300D01*
X138500Y52500D02*Y50900D01*
Y52500D02*X139887Y53300D01*
X138500Y52500D02*X137113Y53300D01*
X122500Y45000D02*Y43400D01*
Y45000D02*X123887Y45800D01*
X122500Y45000D02*X121113Y45800D01*
X122500Y36500D02*Y34900D01*
Y36500D02*X123887Y37300D01*
X122500Y36500D02*X121113Y37300D01*
X130500Y45000D02*Y43400D01*
Y45000D02*X131887Y45800D01*
X130500Y45000D02*X129113Y45800D01*
X138500Y45000D02*Y43400D01*
Y45000D02*X139887Y45800D01*
X138500Y45000D02*X137113Y45800D01*
X138500Y36500D02*Y34900D01*
Y36500D02*X139887Y37300D01*
X138500Y36500D02*X137113Y37300D01*
X130500Y36500D02*Y34900D01*
Y36500D02*X131887Y37300D01*
X130500Y36500D02*X129113Y37300D01*
X130500Y28500D02*Y26900D01*
Y28500D02*X131887Y29300D01*
X130500Y28500D02*X129113Y29300D01*
X138500Y28500D02*Y26900D01*
Y28500D02*X139887Y29300D01*
X138500Y28500D02*X137113Y29300D01*
X136600Y63400D02*Y61800D01*
Y63400D02*X137987Y64200D01*
X136600Y63400D02*X135213Y64200D01*
X124100Y63600D02*Y62000D01*
Y63600D02*X125487Y64400D01*
X124100Y63600D02*X122713Y64400D01*
X105500Y41600D02*Y40000D01*
Y41600D02*X106887Y42400D01*
X105500Y41600D02*X104113Y42400D01*
X113400Y61000D02*Y59400D01*
Y61000D02*X114787Y61800D01*
X113400Y61000D02*X112013Y61800D01*
X87100Y26200D02*Y24600D01*
Y26200D02*X88487Y27000D01*
X87100Y26200D02*X85713Y27000D01*
X87100Y29700D02*Y28100D01*
Y29700D02*X88487Y30500D01*
X87100Y29700D02*X85713Y30500D01*
X87000Y58600D02*Y57000D01*
Y58600D02*X88387Y59400D01*
X87000Y58600D02*X85613Y59400D01*
X87000Y55200D02*Y53600D01*
Y55200D02*X88387Y56000D01*
X87000Y55200D02*X85613Y56000D01*
X87100Y50100D02*Y48500D01*
Y50100D02*X88487Y50900D01*
X87100Y50100D02*X85713Y50900D01*
X87100Y46900D02*Y45300D01*
Y46900D02*X88487Y47700D01*
X87100Y46900D02*X85713Y47700D01*
X103900Y15900D02*Y14300D01*
Y15900D02*X105287Y16700D01*
X103900Y15900D02*X102513Y16700D01*
X87800Y15700D02*Y14100D01*
Y15700D02*X89187Y16500D01*
X87800Y15700D02*X86413Y16500D01*
X112600Y15800D02*Y14200D01*
Y15800D02*X113987Y16600D01*
X112600Y15800D02*X111213Y16600D01*
X109800Y21800D02*Y20200D01*
Y21800D02*X111187Y22600D01*
X109800Y21800D02*X108413Y22600D01*
X109800Y33100D02*Y31500D01*
Y33100D02*X111187Y33900D01*
X109800Y33100D02*X108413Y33900D01*
X105200Y34100D02*Y32500D01*
Y34100D02*X106587Y34900D01*
X105200Y34100D02*X103813Y34900D01*
X111700Y43700D02*Y42100D01*
Y43700D02*X113087Y44500D01*
X111700Y43700D02*X110313Y44500D01*
X111200Y38500D02*Y36900D01*
Y38500D02*X112587Y39300D01*
X111200Y38500D02*X109813Y39300D01*
X92900Y25700D02*Y24100D01*
Y25700D02*X94287Y26500D01*
X92900Y25700D02*X91513Y26500D01*
X92900Y29900D02*Y28300D01*
Y29900D02*X94287Y30700D01*
X92900Y29900D02*X91513Y30700D01*
X92900Y46000D02*Y44400D01*
Y46000D02*X94287Y46800D01*
X92900Y46000D02*X91513Y46800D01*
X92800Y50200D02*Y48600D01*
Y50200D02*X94187Y51000D01*
X92800Y50200D02*X91413Y51000D01*
X92800Y54900D02*Y53300D01*
Y54900D02*X94187Y55700D01*
X92800Y54900D02*X91413Y55700D01*
X92800Y58800D02*Y57200D01*
Y58800D02*X94187Y59600D01*
X92800Y58800D02*X91413Y59600D01*
X203700Y208800D02*Y207200D01*
Y208800D02*X205087Y209600D01*
X203700Y208800D02*X202313Y209600D01*
X207300Y208800D02*Y207200D01*
Y208800D02*X208687Y209600D01*
X207300Y208800D02*X205913Y209600D01*
X203700Y197900D02*Y196300D01*
Y197900D02*X205087Y198700D01*
X203700Y197900D02*X202313Y198700D01*
X207300Y197900D02*Y196300D01*
Y197900D02*X208687Y198700D01*
X207300Y197900D02*X205913Y198700D01*
X203700Y183400D02*Y181800D01*
Y183400D02*X205087Y184200D01*
X203700Y183400D02*X202313Y184200D01*
X207300Y183400D02*Y181800D01*
Y183400D02*X208687Y184200D01*
X207300Y183400D02*X205913Y184200D01*
X212100Y168100D02*Y166500D01*
Y168100D02*X213487Y168900D01*
X212100Y168100D02*X210713Y168900D01*
X202400Y163900D02*Y162300D01*
Y163900D02*X203787Y164700D01*
X202400Y163900D02*X201013Y164700D01*
X213500Y189200D02*Y187600D01*
Y189200D02*X214887Y190000D01*
X213500Y189200D02*X212113Y190000D01*
X216800Y189200D02*Y187600D01*
Y189200D02*X218187Y190000D01*
X216800Y189200D02*X215413Y190000D01*
X213600Y177000D02*Y175400D01*
Y177000D02*X214987Y177800D01*
X213600Y177000D02*X212213Y177800D01*
X216800Y177000D02*Y175400D01*
Y177000D02*X218187Y177800D01*
X216800Y177000D02*X215413Y177800D01*
X218800Y162200D02*Y160600D01*
Y162200D02*X220187Y163000D01*
X218800Y162200D02*X217413Y163000D01*
X218800Y158800D02*Y157200D01*
Y158800D02*X220187Y159600D01*
X218800Y158800D02*X217413Y159600D01*
X270000Y158600D02*Y157000D01*
Y158600D02*X271387Y159400D01*
X270000Y158600D02*X268613Y159400D01*
X256800Y163200D02*Y161600D01*
Y163200D02*X258187Y164000D01*
X256800Y163200D02*X255413Y164000D01*
X245100Y158800D02*Y157200D01*
Y158800D02*X246487Y159600D01*
X245100Y158800D02*X243713Y159600D01*
X245100Y162200D02*Y160600D01*
Y162200D02*X246487Y163000D01*
X245100Y162200D02*X243713Y163000D01*
X248000Y162200D02*Y160600D01*
Y162200D02*X249387Y163000D01*
X248000Y162200D02*X246613Y163000D01*
X248000Y158800D02*Y157200D01*
Y158800D02*X249387Y159600D01*
X248000Y158800D02*X246613Y159600D01*
X263100Y192600D02*Y191000D01*
Y192600D02*X264487Y193400D01*
X263100Y192600D02*X261713Y193400D01*
X259500Y192600D02*Y191000D01*
Y192600D02*X260887Y193400D01*
X259500Y192600D02*X258113Y193400D01*
X257100Y181900D02*Y180300D01*
Y181900D02*X258487Y182700D01*
X257100Y181900D02*X255713Y182700D01*
X274000Y179500D02*Y177900D01*
Y179500D02*X275387Y180300D01*
X274000Y179500D02*X272613Y180300D01*
X274000Y175200D02*Y173600D01*
Y175200D02*X275387Y176000D01*
X274000Y175200D02*X272613Y176000D01*
X274300Y199600D02*Y198000D01*
Y199600D02*X275687Y200400D01*
X274300Y199600D02*X272913Y200400D01*
X268900Y175200D02*Y173600D01*
Y175200D02*X270287Y176000D01*
X268900Y175200D02*X267513Y176000D01*
X268600Y202400D02*Y200800D01*
Y202400D02*X269987Y203200D01*
X268600Y202400D02*X267213Y203200D01*
X264300Y185900D02*Y184300D01*
Y185900D02*X265687Y186700D01*
X264300Y185900D02*X262913Y186700D01*
X231600Y170100D02*Y168500D01*
Y170100D02*X232987Y170900D01*
X231600Y170100D02*X230213Y170900D01*
X235000Y170100D02*Y168500D01*
Y170100D02*X236387Y170900D01*
X235000Y170100D02*X233613Y170900D01*
X243900Y227900D02*Y226300D01*
Y227900D02*X245287Y228700D01*
X243900Y227900D02*X242513Y228700D01*
X257000Y227100D02*Y225500D01*
Y227100D02*X258387Y227900D01*
X257000Y227100D02*X255613Y227900D01*
X257000Y223900D02*Y222300D01*
Y223900D02*X258387Y224700D01*
X257000Y223900D02*X255613Y224700D01*
X253400Y227100D02*Y225500D01*
Y227100D02*X254787Y227900D01*
X253400Y227100D02*X252013Y227900D01*
X253400Y223900D02*Y222300D01*
Y223900D02*X254787Y224700D01*
X253400Y223900D02*X252013Y224700D01*
X227100Y227100D02*Y225500D01*
Y227100D02*X228487Y227900D01*
X227100Y227100D02*X225713Y227900D01*
X227200Y223900D02*Y222300D01*
Y223900D02*X228587Y224700D01*
X227200Y223900D02*X225813Y224700D01*
X212100Y227100D02*Y225500D01*
Y227100D02*X213487Y227900D01*
X212100Y227100D02*X210713Y227900D01*
X212100Y223900D02*Y222300D01*
Y223900D02*X213487Y224700D01*
X212100Y223900D02*X210713Y224700D01*
X208700Y227100D02*Y225500D01*
Y227100D02*X210087Y227900D01*
X208700Y227100D02*X207313Y227900D01*
X208700Y223800D02*Y222200D01*
Y223800D02*X210087Y224600D01*
X208700Y223800D02*X207313Y224600D01*
X239600Y217900D02*Y216300D01*
Y217900D02*X240987Y218700D01*
X239600Y217900D02*X238213Y218700D01*
X273000Y210200D02*Y208600D01*
Y210200D02*X274387Y211000D01*
X273000Y210200D02*X271613Y211000D01*
X268900Y210300D02*Y208700D01*
Y210300D02*X270287Y211100D01*
X268900Y210300D02*X267513Y211100D01*
X273100Y220900D02*Y219300D01*
Y220900D02*X274487Y221700D01*
X273100Y220900D02*X271713Y221700D01*
X269000Y221000D02*Y219400D01*
Y221000D02*X270387Y221800D01*
X269000Y221000D02*X267613Y221800D01*
X217600Y201200D02*Y199600D01*
Y201200D02*X218987Y202000D01*
X217600Y201200D02*X216213Y202000D01*
X259600Y33700D02*Y32100D01*
Y33700D02*X260987Y34500D01*
X259600Y33700D02*X258213Y34500D01*
X275200Y33600D02*Y32000D01*
Y33600D02*X276587Y34400D01*
X275200Y33600D02*X273813Y34400D01*
X212600Y63500D02*Y61900D01*
Y63500D02*X213987Y64300D01*
X212600Y63500D02*X211213Y64300D01*
X184800Y62600D02*Y61000D01*
Y62600D02*X186187Y63400D01*
X184800Y62600D02*X183413Y63400D01*
X183600Y51400D02*Y49800D01*
Y51400D02*X184987Y52200D01*
X183600Y51400D02*X182213Y52200D01*
X186300Y51300D02*Y49700D01*
Y51300D02*X187687Y52100D01*
X186300Y51300D02*X184913Y52100D01*
X198500Y49000D02*Y47400D01*
Y49000D02*X199887Y49800D01*
X198500Y49000D02*X197113Y49800D01*
X204300Y104500D02*Y102900D01*
Y104500D02*X205687Y105300D01*
X204300Y104500D02*X202913Y105300D01*
X204300Y100400D02*Y98800D01*
Y100400D02*X205687Y101200D01*
X204300Y100400D02*X202913Y101200D01*
X204400Y96500D02*Y94900D01*
Y96500D02*X205787Y97300D01*
X204400Y96500D02*X203013Y97300D01*
X204300Y92500D02*Y90900D01*
Y92500D02*X205687Y93300D01*
X204300Y92500D02*X202913Y93300D01*
X204300Y88700D02*Y87100D01*
Y88700D02*X205687Y89500D01*
X204300Y88700D02*X202913Y89500D01*
X204400Y85000D02*Y83400D01*
Y85000D02*X205787Y85800D01*
X204400Y85000D02*X203013Y85800D01*
X204400Y81200D02*Y79600D01*
Y81200D02*X205787Y82000D01*
X204400Y81200D02*X203013Y82000D01*
X204300Y77300D02*Y75700D01*
Y77300D02*X205687Y78100D01*
X204300Y77300D02*X202913Y78100D01*
X188174Y73700D02*Y72100D01*
Y73700D02*X189561Y74500D01*
X188174Y73700D02*X186787Y74500D01*
X193700Y86100D02*Y84500D01*
Y86100D02*X195087Y86900D01*
X193700Y86100D02*X192313Y86900D01*
X193700Y82300D02*Y80700D01*
Y82300D02*X195087Y83100D01*
X193700Y82300D02*X192313Y83100D01*
X214900Y84000D02*Y82400D01*
Y84000D02*X216287Y84800D01*
X214900Y84000D02*X213513Y84800D01*
X215000Y80800D02*Y79200D01*
Y80800D02*X216387Y81600D01*
X215000Y80800D02*X213613Y81600D01*
X236300Y177700D02*Y176100D01*
Y177700D02*X237687Y178500D01*
X236300Y177700D02*X234913Y178500D01*
X241300Y177700D02*Y176100D01*
Y177700D02*X242687Y178500D01*
X241300Y177700D02*X239913Y178500D01*
X231700Y278400D02*Y276800D01*
Y278400D02*X233087Y279200D01*
X231700Y278400D02*X230313Y279200D01*
X236000Y278400D02*Y276800D01*
Y278400D02*X237387Y279200D01*
X236000Y278400D02*X234613Y279200D01*
X240300Y278400D02*Y276800D01*
Y278400D02*X241687Y279200D01*
X240300Y278400D02*X238913Y279200D01*
X233500Y275100D02*Y273500D01*
Y275100D02*X234887Y275900D01*
X233500Y275100D02*X232113Y275900D01*
X237700Y275200D02*Y273600D01*
Y275200D02*X239087Y276000D01*
X237700Y275200D02*X236313Y276000D01*
X241800Y275000D02*Y273400D01*
Y275000D02*X243187Y275800D01*
X241800Y275000D02*X240413Y275800D01*
X258600Y218900D02*Y217300D01*
Y218900D02*X259987Y219700D01*
X258600Y218900D02*X257213Y219700D01*
X263800Y219100D02*Y217500D01*
Y219100D02*X265187Y219900D01*
X263800Y219100D02*X262413Y219900D01*
X261300Y216200D02*Y214600D01*
Y216200D02*X262687Y217000D01*
X261300Y216200D02*X259913Y217000D01*
X258300Y213300D02*Y211700D01*
Y213300D02*X259687Y214100D01*
X258300Y213300D02*X256913Y214100D01*
X261300Y210300D02*Y208700D01*
Y210300D02*X262687Y211100D01*
X261300Y210300D02*X259913Y211100D01*
X263900Y213100D02*Y211500D01*
Y213100D02*X265287Y213900D01*
X263900Y213100D02*X262513Y213900D01*
X182600Y157400D02*Y155800D01*
Y157400D02*X183987Y158200D01*
X182600Y157400D02*X181213Y158200D01*
X182600Y152400D02*Y150800D01*
Y152400D02*X183987Y153200D01*
X182600Y152400D02*X181213Y153200D01*
X182600Y147200D02*Y145600D01*
Y147200D02*X183987Y148000D01*
X182600Y147200D02*X181213Y148000D01*
X332400Y159000D02*Y157400D01*
Y159000D02*X333787Y159800D01*
X332400Y159000D02*X331013Y159800D01*
X337500Y158900D02*Y157300D01*
Y158900D02*X338887Y159700D01*
X337500Y158900D02*X336113Y159700D01*
X327400Y196500D02*Y194900D01*
Y196500D02*X328787Y197300D01*
X327400Y196500D02*X326013Y197300D01*
X322100Y196400D02*Y194800D01*
Y196400D02*X323487Y197200D01*
X322100Y196400D02*X320713Y197200D01*
X259000Y156400D02*Y154800D01*
Y156400D02*X260387Y157200D01*
X259000Y156400D02*X257613Y157200D01*
X321600Y152800D02*Y151200D01*
Y152800D02*X322987Y153600D01*
X321600Y152800D02*X320213Y153600D01*
X318600Y150700D02*Y149100D01*
Y150700D02*X319987Y151500D01*
X318600Y150700D02*X317213Y151500D01*
X249900Y137100D02*Y135500D01*
Y137100D02*X251287Y137900D01*
X249900Y137100D02*X248513Y137900D01*
X259100Y136800D02*Y135200D01*
Y136800D02*X260487Y137600D01*
X259100Y136800D02*X257713Y137600D01*
X274300Y135000D02*Y133400D01*
Y135000D02*X275687Y135800D01*
X274300Y135000D02*X272913Y135800D01*
X262100Y142500D02*Y140900D01*
Y142500D02*X263487Y143300D01*
X262100Y142500D02*X260713Y143300D01*
X271000Y139700D02*Y138100D01*
Y139700D02*X272387Y140500D01*
X271000Y139700D02*X269613Y140500D01*
X287600Y156200D02*Y154600D01*
Y156200D02*X288987Y157000D01*
X287600Y156200D02*X286213Y157000D01*
X337300Y197000D02*Y195400D01*
Y197000D02*X338687Y197800D01*
X337300Y197000D02*X335913Y197800D01*
X332300Y199400D02*Y197800D01*
Y199400D02*X333687Y200200D01*
X332300Y199400D02*X330913Y200200D01*
X242600Y102600D02*Y101000D01*
Y102600D02*X243987Y103400D01*
X242600Y102600D02*X241213Y103400D01*
X254400Y102600D02*Y101000D01*
Y102600D02*X255787Y103400D01*
X254400Y102600D02*X253013Y103400D01*
X258300Y102600D02*Y101000D01*
Y102600D02*X259687Y103400D01*
X258300Y102600D02*X256913Y103400D01*
X225400Y99300D02*Y97700D01*
Y99300D02*X226787Y100100D01*
X225400Y99300D02*X224013Y100100D01*
X225500Y87400D02*Y85800D01*
Y87400D02*X226887Y88200D01*
X225500Y87400D02*X224113Y88200D01*
X225500Y75700D02*Y74100D01*
Y75700D02*X226887Y76500D01*
X225500Y75700D02*X224113Y76500D01*
X261600Y69700D02*Y68100D01*
Y69700D02*X262987Y70500D01*
X261600Y69700D02*X260213Y70500D01*
X261600Y89400D02*Y87800D01*
Y89400D02*X262987Y90200D01*
X261600Y89400D02*X260213Y90200D01*
X261600Y99500D02*Y97900D01*
Y99500D02*X262987Y100300D01*
X261600Y99500D02*X260213Y100300D01*
X234700Y66500D02*Y64900D01*
Y66500D02*X236087Y67300D01*
X234700Y66500D02*X233313Y67300D01*
X255400Y96400D02*Y94800D01*
Y96400D02*X256787Y97200D01*
X255400Y96400D02*X254013Y97200D01*
X255500Y75700D02*Y74100D01*
Y75700D02*X256887Y76500D01*
X255500Y75700D02*X254113Y76500D01*
X243500Y79000D02*Y77400D01*
Y79000D02*X244887Y79800D01*
X243500Y79000D02*X242113Y79800D01*
X243500Y84500D02*Y82900D01*
Y84500D02*X244887Y85300D01*
X243500Y84500D02*X242113Y85300D01*
X243500Y90000D02*Y88400D01*
Y90000D02*X244887Y90800D01*
X243500Y90000D02*X242113Y90800D01*
X249000Y84500D02*Y82900D01*
Y84500D02*X250387Y85300D01*
X249000Y84500D02*X247613Y85300D01*
X238000Y84500D02*Y82900D01*
Y84500D02*X239387Y85300D01*
X238000Y84500D02*X236613Y85300D01*
X238000Y79000D02*Y77400D01*
Y79000D02*X239387Y79800D01*
X238000Y79000D02*X236613Y79800D01*
X249000Y79000D02*Y77400D01*
Y79000D02*X250387Y79800D01*
X249000Y79000D02*X247613Y79800D01*
X249000Y90000D02*Y88400D01*
Y90000D02*X250387Y90800D01*
X249000Y90000D02*X247613Y90800D01*
X238000Y90000D02*Y88400D01*
Y90000D02*X239387Y90800D01*
X238000Y90000D02*X236613Y90800D01*
X231600Y96400D02*Y94800D01*
Y96400D02*X232987Y97200D01*
X231600Y96400D02*X230213Y97200D01*
X209800Y57300D02*Y55700D01*
Y57300D02*X211187Y58100D01*
X209800Y57300D02*X208413Y58100D01*
X209800Y54400D02*Y52800D01*
Y54400D02*X211187Y55200D01*
X209800Y54400D02*X208413Y55200D01*
X231700Y73000D02*Y71400D01*
Y73000D02*X233087Y73800D01*
X231700Y73000D02*X230313Y73800D01*
X234900Y73000D02*Y71400D01*
Y73000D02*X236287Y73800D01*
X234900Y73000D02*X233513Y73800D01*
X229400Y38948D02*Y37348D01*
Y38948D02*X230787Y39748D01*
X229400Y38948D02*X228013Y39748D01*
X180400Y23600D02*Y22000D01*
Y23600D02*X181787Y24400D01*
X180400Y23600D02*X179013Y24400D01*
X202000Y6200D02*Y4600D01*
Y6200D02*X203387Y7000D01*
X202000Y6200D02*X200613Y7000D01*
X213300Y13500D02*Y11900D01*
Y13500D02*X214687Y14300D01*
X213300Y13500D02*X211913Y14300D01*
X215500Y35900D02*Y34300D01*
Y35900D02*X216887Y36700D01*
X215500Y35900D02*X214113Y36700D01*
X220000Y43100D02*Y41500D01*
Y43100D02*X221387Y43900D01*
X220000Y43100D02*X218613Y43900D01*
X223500Y54100D02*Y52500D01*
Y54100D02*X224887Y54900D01*
X223500Y54100D02*X222113Y54900D01*
X236300Y94700D02*Y93100D01*
Y94700D02*X237687Y95500D01*
X236300Y94700D02*X234913Y95500D01*
X239500Y94700D02*Y93100D01*
Y94700D02*X240887Y95500D01*
X239500Y94700D02*X238113Y95500D01*
X247252Y94700D02*Y93100D01*
Y94700D02*X248639Y95500D01*
X247252Y94700D02*X245865Y95500D01*
X244052Y94700D02*Y93100D01*
Y94700D02*X245439Y95500D01*
X244052Y94700D02*X242665Y95500D01*
X243400Y74400D02*Y72800D01*
Y74400D02*X244787Y75200D01*
X243400Y74400D02*X242013Y75200D01*
X246700Y74400D02*Y72800D01*
Y74400D02*X248087Y75200D01*
X246700Y74400D02*X245313Y75200D01*
X263700Y108900D02*Y107300D01*
Y108900D02*X265087Y109700D01*
X263700Y108900D02*X262313Y109700D01*
X266900Y108900D02*Y107300D01*
Y108900D02*X268287Y109700D01*
X266900Y108900D02*X265513Y109700D01*
X263700Y102500D02*Y100900D01*
Y102500D02*X265087Y103300D01*
X263700Y102500D02*X262313Y103300D01*
X266900Y102500D02*Y100900D01*
Y102500D02*X268287Y103300D01*
X266900Y102500D02*X265513Y103300D01*
X263700Y60200D02*Y58600D01*
Y60200D02*X265087Y61000D01*
X263700Y60200D02*X262313Y61000D01*
X266900Y60300D02*Y58700D01*
Y60300D02*X268287Y61100D01*
X266900Y60300D02*X265513Y61100D01*
X263800Y66900D02*Y65300D01*
Y66900D02*X265187Y67700D01*
X263800Y66900D02*X262413Y67700D01*
X267000Y67000D02*Y65400D01*
Y67000D02*X268387Y67800D01*
X267000Y67000D02*X265613Y67800D01*
X242900Y68000D02*Y66400D01*
Y68000D02*X244287Y68800D01*
X242900Y68000D02*X241513Y68800D01*
X246200Y67900D02*Y66300D01*
Y67900D02*X247587Y68700D01*
X246200Y67900D02*X244813Y68700D01*
X252400Y67200D02*Y65600D01*
Y67200D02*X253787Y68000D01*
X252400Y67200D02*X251013Y68000D01*
X255600Y67200D02*Y65600D01*
Y67200D02*X256987Y68000D01*
X255600Y67200D02*X254213Y68000D01*
X227400Y82800D02*Y81200D01*
Y82800D02*X228787Y83600D01*
X227400Y82800D02*X226013Y83600D01*
X231700Y82700D02*Y81100D01*
Y82700D02*X233087Y83500D01*
X231700Y82700D02*X230313Y83500D01*
X227500Y90200D02*Y88600D01*
Y90200D02*X228887Y91000D01*
X227500Y90200D02*X226113Y91000D01*
X231300Y90200D02*Y88600D01*
Y90200D02*X232687Y91000D01*
X231300Y90200D02*X229913Y91000D01*
X259300Y95200D02*Y93600D01*
Y95200D02*X260687Y96000D01*
X259300Y95200D02*X257913Y96000D01*
X255800Y89800D02*Y88200D01*
Y89800D02*X257187Y90600D01*
X255800Y89800D02*X254413Y90600D01*
X255400Y83300D02*Y81700D01*
Y83300D02*X256787Y84100D01*
X255400Y83300D02*X254013Y84100D01*
X259200Y83400D02*Y81800D01*
Y83400D02*X260587Y84200D01*
X259200Y83400D02*X257813Y84200D01*
X218400Y106100D02*Y104500D01*
Y106100D02*X219787Y106900D01*
X218400Y106100D02*X217013Y106900D01*
X222100Y106100D02*Y104500D01*
Y106100D02*X223487Y106900D01*
X222100Y106100D02*X220713Y106900D01*
X281200Y72700D02*Y71100D01*
Y72700D02*X282587Y73500D01*
X281200Y72700D02*X279813Y73500D01*
X279900Y62100D02*Y60500D01*
Y62100D02*X281287Y62900D01*
X279900Y62100D02*X278513Y62900D01*
X276100Y91600D02*Y90000D01*
Y91600D02*X277487Y92400D01*
X276100Y91600D02*X274713Y92400D01*
X276000Y102800D02*Y101200D01*
Y102800D02*X277387Y103600D01*
X276000Y102800D02*X274613Y103600D01*
X180700Y68400D02*Y66800D01*
Y68400D02*X182087Y69200D01*
X180700Y68400D02*X179313Y69200D01*
X215100Y76400D02*Y74800D01*
Y76400D02*X216487Y77200D01*
X215100Y76400D02*X213713Y77200D01*
X186200Y70100D02*Y68500D01*
Y70100D02*X187587Y70900D01*
X186200Y70100D02*X184813Y70900D01*
X185700Y81600D02*Y80000D01*
Y81600D02*X187087Y82400D01*
X185700Y81600D02*X184313Y82400D01*
X185800Y85500D02*Y83900D01*
Y85500D02*X187187Y86300D01*
X185800Y85500D02*X184413Y86300D01*
X159100Y205900D02*Y204300D01*
Y205900D02*X160487Y206700D01*
X159100Y205900D02*X157713Y206700D01*
X166900Y204600D02*Y203000D01*
Y204600D02*X168287Y205400D01*
X166900Y204600D02*X165513Y205400D01*
X174100Y205300D02*Y203700D01*
Y205300D02*X175487Y206100D01*
X174100Y205300D02*X172713Y206100D01*
X60100Y142600D02*Y141000D01*
Y142600D02*X61487Y143400D01*
X60100Y142600D02*X58713Y143400D01*
X60200Y123900D02*Y122300D01*
Y123900D02*X61587Y124700D01*
X60200Y123900D02*X58813Y124700D01*
X174100Y163500D02*Y161900D01*
Y163500D02*X175487Y164300D01*
X174100Y163500D02*X172713Y164300D01*
X173800Y202100D02*Y200500D01*
Y202100D02*X175187Y202900D01*
X173800Y202100D02*X172413Y202900D01*
X360400Y234600D02*Y233000D01*
Y234600D02*X361787Y235400D01*
X360400Y234600D02*X359013Y235400D01*
X363600Y236900D02*Y235300D01*
Y236900D02*X364987Y237700D01*
X363600Y236900D02*X362213Y237700D01*
X369900Y239100D02*Y237500D01*
Y239100D02*X371287Y239900D01*
X369900Y239100D02*X368513Y239900D01*
X366100Y241500D02*Y239900D01*
Y241500D02*X367487Y242300D01*
X366100Y241500D02*X364713Y242300D01*
X366100Y195100D02*Y193500D01*
Y195100D02*X367487Y195900D01*
X366100Y195100D02*X364713Y195900D01*
X369900Y179300D02*Y177700D01*
Y179300D02*X371287Y180100D01*
X369900Y179300D02*X368513Y180100D01*
X363700Y171300D02*Y169700D01*
Y171300D02*X365087Y172100D01*
X363700Y171300D02*X362313Y172100D01*
X360300Y187200D02*Y185600D01*
Y187200D02*X361687Y188000D01*
X360300Y187200D02*X358913Y188000D01*
X315800Y112900D02*Y111300D01*
Y112900D02*X317187Y113700D01*
X315800Y112900D02*X314413Y113700D01*
X308000Y127500D02*Y125900D01*
Y127500D02*X309387Y128300D01*
X308000Y127500D02*X306613Y128300D01*
X314200Y127500D02*Y125900D01*
Y127500D02*X315587Y128300D01*
X314200Y127500D02*X312813Y128300D01*
X306000Y116800D02*Y115200D01*
Y116800D02*X307387Y117600D01*
X306000Y116800D02*X304613Y117600D01*
X199000Y245100D02*Y243500D01*
Y245100D02*X200387Y245900D01*
X199000Y245100D02*X197613Y245900D01*
X222500Y240600D02*Y239000D01*
Y240600D02*X223887Y241400D01*
X222500Y240600D02*X221113Y241400D01*
X204300Y258900D02*Y257300D01*
Y258900D02*X205687Y259700D01*
X204300Y258900D02*X202913Y259700D01*
X212100Y250600D02*Y249000D01*
Y250600D02*X213487Y251400D01*
X212100Y250600D02*X210713Y251400D01*
X214000Y243300D02*Y241700D01*
Y243300D02*X215387Y244100D01*
X214000Y243300D02*X212613Y244100D01*
X199100Y259300D02*Y257700D01*
Y259300D02*X200487Y260100D01*
X199100Y259300D02*X197713Y260100D01*
X265200Y246500D02*Y244900D01*
Y246500D02*X266587Y247300D01*
X265200Y246500D02*X263813Y247300D01*
X276000Y247900D02*Y246300D01*
Y247900D02*X277387Y248700D01*
X276000Y247900D02*X274613Y248700D01*
X284900Y245000D02*Y243400D01*
Y245000D02*X286287Y245800D01*
X284900Y245000D02*X283513Y245800D01*
X312300Y75200D02*Y73600D01*
Y75200D02*X313687Y76000D01*
X312300Y75200D02*X310913Y76000D01*
X350500Y110300D02*Y108700D01*
Y110300D02*X351887Y111100D01*
X350500Y110300D02*X349113Y111100D01*
X160500Y47300D02*Y45700D01*
Y47300D02*X161887Y48100D01*
X160500Y47300D02*X159113Y48100D01*
X160400Y52100D02*Y50500D01*
Y52100D02*X161787Y52900D01*
X160400Y52100D02*X159013Y52900D01*
X337700Y29600D02*Y28000D01*
Y29600D02*X339087Y30400D01*
X337700Y29600D02*X336313Y30400D01*
X335200Y26800D02*Y25200D01*
Y26800D02*X336587Y27600D01*
X335200Y26800D02*X333813Y27600D01*
X332800Y23500D02*Y21900D01*
Y23500D02*X334187Y24300D01*
X332800Y23500D02*X331413Y24300D01*
X330500Y20100D02*Y18500D01*
Y20100D02*X331887Y20900D01*
X330500Y20100D02*X329113Y20900D01*
X328000Y15800D02*Y14200D01*
Y15800D02*X329387Y16600D01*
X328000Y15800D02*X326613Y16600D01*
X170500Y5500D02*Y3900D01*
Y5500D02*X171887Y6300D01*
X170500Y5500D02*X169113Y6300D01*
X170400Y12000D02*Y10400D01*
Y12000D02*X171787Y12800D01*
X170400Y12000D02*X169013Y12800D01*
X174500Y14300D02*Y12700D01*
Y14300D02*X175887Y15100D01*
X174500Y14300D02*X173113Y15100D01*
X167300Y10100D02*Y8500D01*
Y10100D02*X168687Y10900D01*
X167300Y10100D02*X165913Y10900D01*
X133500Y138700D02*Y137100D01*
Y138700D02*X134887Y139500D01*
X133500Y138700D02*X132113Y139500D01*
X130900Y115300D02*Y113700D01*
Y115300D02*X132287Y116100D01*
X130900Y115300D02*X129513Y116100D01*
X151800Y144700D02*Y143100D01*
Y144700D02*X153187Y145500D01*
X151800Y144700D02*X150413Y145500D01*
X144500Y139700D02*Y138100D01*
Y139700D02*X145887Y140500D01*
X144500Y139700D02*X143113Y140500D01*
X148700Y137300D02*Y135700D01*
Y137300D02*X150087Y138100D01*
X148700Y137300D02*X147313Y138100D01*
X190000Y168000D02*Y166400D01*
Y168000D02*X191387Y168800D01*
X190000Y168000D02*X188613Y168800D01*
X187400Y165700D02*Y164100D01*
Y165700D02*X188787Y166500D01*
X187400Y165700D02*X186013Y166500D01*
X183900Y164200D02*Y162600D01*
Y164200D02*X185287Y165000D01*
X183900Y164200D02*X182513Y165000D01*
X129100Y178200D02*Y176600D01*
Y178200D02*X130487Y179000D01*
X129100Y178200D02*X127713Y179000D01*
X128900Y198600D02*Y197000D01*
Y198600D02*X130287Y199400D01*
X128900Y198600D02*X127513Y199400D01*
X151900Y208300D02*Y206700D01*
Y208300D02*X153287Y209100D01*
X151900Y208300D02*X150513Y209100D01*
X145300Y200300D02*Y198700D01*
Y200300D02*X146687Y201100D01*
X145300Y200300D02*X143913Y201100D01*
X149400Y200400D02*Y198800D01*
Y200400D02*X150787Y201200D01*
X149400Y200400D02*X148013Y201200D01*
X186900Y203500D02*Y201900D01*
Y203500D02*X188287Y204300D01*
X186900Y203500D02*X185513Y204300D01*
X189400Y200900D02*Y199300D01*
Y200900D02*X190787Y201700D01*
X189400Y200900D02*X188013Y201700D01*
X153500Y199000D02*Y197400D01*
Y199000D02*X154887Y199800D01*
X153500Y199000D02*X152113Y199800D01*
X60000Y205500D02*Y203900D01*
Y205500D02*X61387Y206300D01*
X60000Y205500D02*X58613Y206300D01*
X66000Y250500D02*Y248900D01*
Y250500D02*X67387Y251300D01*
X66000Y250500D02*X64613Y251300D01*
X130600Y241700D02*Y240100D01*
Y241700D02*X131987Y242500D01*
X130600Y241700D02*X129213Y242500D01*
X127800Y244000D02*Y242400D01*
Y244000D02*X129187Y244800D01*
X127800Y244000D02*X126413Y244800D01*
X124300Y243500D02*Y241900D01*
Y243500D02*X125687Y244300D01*
X124300Y243500D02*X122913Y244300D01*
X131800Y254300D02*Y252700D01*
Y254300D02*X133187Y255100D01*
X131800Y254300D02*X130413Y255100D01*
X136500Y251700D02*Y250100D01*
Y251700D02*X137887Y252500D01*
X136500Y251700D02*X135113Y252500D01*
X132500Y250900D02*Y249300D01*
Y250900D02*X133887Y251700D01*
X132500Y250900D02*X131113Y251700D01*
X198600Y237000D02*Y235400D01*
Y237000D02*X199987Y237800D01*
X198600Y237000D02*X197213Y237800D01*
X196800Y234100D02*Y232500D01*
Y234100D02*X198187Y234900D01*
X196800Y234100D02*X195413Y234900D01*
X218500Y223700D02*Y222100D01*
Y223700D02*X219887Y224500D01*
X218500Y223700D02*X217113Y224500D01*
X203700Y215200D02*Y213600D01*
Y215200D02*X205087Y216000D01*
X203700Y215200D02*X202313Y216000D01*
X207200Y215200D02*Y213600D01*
Y215200D02*X208587Y216000D01*
X207200Y215200D02*X205813Y216000D01*
X228600Y215200D02*Y213600D01*
Y215200D02*X229987Y216000D01*
X228600Y215200D02*X227213Y216000D01*
X231700Y215100D02*Y213500D01*
Y215100D02*X233087Y215900D01*
X231700Y215100D02*X230313Y215900D01*
X253000Y239600D02*Y238000D01*
Y239600D02*X254387Y240400D01*
X253000Y239600D02*X251613Y240400D01*
X253100Y243000D02*Y241400D01*
Y243000D02*X254487Y243800D01*
X253100Y243000D02*X251713Y243800D01*
X253800Y247600D02*Y246000D01*
Y247600D02*X255187Y248400D01*
X253800Y247600D02*X252413Y248400D01*
X280000Y247700D02*Y246100D01*
Y247700D02*X281387Y248500D01*
X280000Y247700D02*X278613Y248500D01*
X271600Y250600D02*Y249000D01*
Y250600D02*X272987Y251400D01*
X271600Y250600D02*X270213Y251400D01*
X251200Y250300D02*Y248700D01*
Y250300D02*X252587Y251100D01*
X251200Y250300D02*X249813Y251100D01*
X60000Y268700D02*Y267100D01*
Y268700D02*X61387Y269500D01*
X60000Y268700D02*X58613Y269500D01*
X82700Y312100D02*Y310500D01*
Y312100D02*X84087Y312900D01*
X82700Y312100D02*X81313Y312900D01*
X85100Y309400D02*Y307800D01*
Y309400D02*X86487Y310200D01*
X85100Y309400D02*X83713Y310200D01*
X125400Y307300D02*Y305700D01*
Y307300D02*X126787Y308100D01*
X125400Y307300D02*X124013Y308100D01*
X126700Y304000D02*Y302400D01*
Y304000D02*X128087Y304800D01*
X126700Y304000D02*X125313Y304800D01*
X129600Y312000D02*Y310400D01*
Y312000D02*X130987Y312800D01*
X129600Y312000D02*X128213Y312800D01*
X69800Y135300D02*Y133700D01*
Y135300D02*X71187Y136100D01*
X69800Y135300D02*X68413Y136100D01*
X68300Y197700D02*Y196100D01*
Y197700D02*X69687Y198500D01*
X68300Y197700D02*X66913Y198500D01*
X68300Y260900D02*Y259300D01*
Y260900D02*X69687Y261700D01*
X68300Y260900D02*X66913Y261700D01*
X96200Y81100D02*Y79500D01*
Y81100D02*X97587Y81900D01*
X96200Y81100D02*X94813Y81900D01*
X87800Y38300D02*Y36700D01*
Y38300D02*X89187Y39100D01*
X87800Y38300D02*X86413Y39100D01*
X200500Y38700D02*Y37100D01*
Y38700D02*X201887Y39500D01*
X200500Y38700D02*X199113Y39500D01*
X174600Y227400D02*Y225800D01*
Y227400D02*X175987Y228200D01*
X174600Y227400D02*X173213Y228200D01*
X184900Y121600D02*Y120000D01*
Y121600D02*X186287Y122400D01*
X184900Y121600D02*X183513Y122400D01*
X288900Y109100D02*Y107500D01*
Y109100D02*X290287Y109900D01*
X288900Y109100D02*X287513Y109900D01*
X304500Y190100D02*Y188500D01*
Y190100D02*X305887Y190900D01*
X304500Y190100D02*X303113Y190900D01*
X344000Y248400D02*Y246800D01*
Y248400D02*X345387Y249200D01*
X344000Y248400D02*X342613Y249200D01*
X218600Y294400D02*Y292800D01*
Y294400D02*X219987Y295200D01*
X218600Y294400D02*X217213Y295200D01*
X260700Y146000D02*Y144400D01*
Y146000D02*X262087Y146800D01*
X260700Y146000D02*X259313Y146800D01*
X285700Y164700D02*Y163100D01*
Y164700D02*X287087Y165500D01*
X285700Y164700D02*X284313Y165500D01*
X285500Y210400D02*Y208800D01*
Y210400D02*X286887Y211200D01*
X285500Y210400D02*X284113Y211200D01*
X216215Y19528D02*Y17928D01*
Y19528D02*X217602Y20328D01*
X216215Y19528D02*X214828Y20328D01*
X219615Y19428D02*Y17828D01*
Y19428D02*X221002Y20228D01*
X219615Y19428D02*X218228Y20228D01*
X165600Y40800D02*Y39200D01*
Y40800D02*X166987Y41600D01*
X165600Y40800D02*X164213Y41600D01*
X157300Y40300D02*Y38700D01*
Y40300D02*X158687Y41100D01*
X157300Y40300D02*X155913Y41100D01*
X157500Y49800D02*Y48200D01*
Y49800D02*X158887Y50600D01*
X157500Y49800D02*X156113Y50600D01*
X157600Y45400D02*Y43800D01*
Y45400D02*X158987Y46200D01*
X157600Y45400D02*X156213Y46200D01*
X164200Y50000D02*Y48400D01*
Y50000D02*X165587Y50800D01*
X164200Y50000D02*X162813Y50800D01*
X169100Y59900D02*Y58300D01*
Y59900D02*X170487Y60700D01*
X169100Y59900D02*X167713Y60700D01*
X15000Y451250D02*Y449650D01*
Y451250D02*X16387Y452050D01*
X15000Y451250D02*X13613Y452050D01*
X135000Y453500D02*X136500Y450500D01*
X138000Y453500D01*
X136500Y450500D02*Y447500D01*
X139800Y450800D02*X142050D01*
X139800Y447500D02*X142800D01*
X139800Y453500D02*Y447500D01*
Y453500D02*X142800D01*
X147600D02*X148350Y452750D01*
X145350Y453500D02*X147600D01*
X144600Y452750D02*X145350Y453500D01*
X144600Y452750D02*Y451250D01*
X145350Y450500D01*
X147600D01*
X148350Y449750D01*
Y448250D01*
X147600Y447500D02*X148350Y448250D01*
X145350Y447500D02*X147600D01*
X144600Y448250D02*X145350Y447500D01*
X98000Y448250D02*X98750Y447500D01*
X98000Y449450D02*Y448250D01*
Y449450D02*X99050Y450500D01*
X99950D01*
X101000Y449450D01*
Y448250D01*
X100250Y447500D02*X101000Y448250D01*
X98750Y447500D02*X100250D01*
X98000Y451550D02*X99050Y450500D01*
X98000Y452750D02*Y451550D01*
Y452750D02*X98750Y453500D01*
X100250D01*
X101000Y452750D01*
Y451550D01*
X99950Y450500D02*X101000Y451550D01*
X102800Y449750D02*X105800Y453500D01*
X102800Y449750D02*X106550D01*
X105800Y453500D02*Y447500D01*
X110600Y453500D02*X111350Y452750D01*
X109100Y453500D02*X110600D01*
X108350Y452750D02*X109100Y453500D01*
X108350Y452750D02*Y448250D01*
X109100Y447500D01*
X110600Y450800D02*X111350Y450050D01*
X108350Y450800D02*X110600D01*
X109100Y447500D02*X110600D01*
X111350Y448250D01*
Y450050D02*Y448250D01*
X45000D02*X45750Y447500D01*
X45000Y452750D02*Y448250D01*
Y452750D02*X45750Y453500D01*
X47250D01*
X48000Y452750D01*
Y448250D01*
X47250Y447500D02*X48000Y448250D01*
X45750Y447500D02*X47250D01*
X45000Y449000D02*X48000Y452000D01*
X49800Y447500D02*X50550D01*
X52350Y448250D02*X53100Y447500D01*
X52350Y452750D02*Y448250D01*
Y452750D02*X53100Y453500D01*
X54600D01*
X55350Y452750D01*
Y448250D01*
X54600Y447500D02*X55350Y448250D01*
X53100Y447500D02*X54600D01*
X52350Y449000D02*X55350Y452000D01*
X57150Y452300D02*X58350Y453500D01*
Y447500D01*
X57150D02*X59400D01*
X61200Y453500D02*X64200D01*
X61200D02*Y450500D01*
X61950Y451250D01*
X63450D01*
X64200Y450500D01*
Y448250D01*
X63450Y447500D02*X64200Y448250D01*
X61950Y447500D02*X63450D01*
X61200Y448250D02*X61950Y447500D01*
X3000Y468500D02*X3750Y467750D01*
X750Y468500D02*X3000D01*
X0Y467750D02*X750Y468500D01*
X0Y467750D02*Y466250D01*
X750Y465500D01*
X3000D01*
X3750Y464750D01*
Y463250D01*
X3000Y462500D02*X3750Y463250D01*
X750Y462500D02*X3000D01*
X0Y463250D02*X750Y462500D01*
X5550Y465500D02*Y463250D01*
X6300Y462500D01*
X8550Y465500D02*Y461000D01*
X7800Y460250D02*X8550Y461000D01*
X6300Y460250D02*X7800D01*
X5550Y461000D02*X6300Y460250D01*
Y462500D02*X7800D01*
X8550Y463250D01*
X11100Y464750D02*Y462500D01*
Y464750D02*X11850Y465500D01*
X12600D01*
X13350Y464750D01*
Y462500D01*
Y464750D02*X14100Y465500D01*
X14850D01*
X15600Y464750D01*
Y462500D01*
X10350Y465500D02*X11100Y464750D01*
X17400Y468500D02*Y462500D01*
Y463250D02*X18150Y462500D01*
X19650D01*
X20400Y463250D01*
Y464750D02*Y463250D01*
X19650Y465500D02*X20400Y464750D01*
X18150Y465500D02*X19650D01*
X17400Y464750D02*X18150Y465500D01*
X22200Y464750D02*Y463250D01*
Y464750D02*X22950Y465500D01*
X24450D01*
X25200Y464750D01*
Y463250D01*
X24450Y462500D02*X25200Y463250D01*
X22950Y462500D02*X24450D01*
X22200Y463250D02*X22950Y462500D01*
X27000Y468500D02*Y463250D01*
X27750Y462500D01*
X0Y459250D02*X29250D01*
X41750Y468500D02*Y462500D01*
X43700Y468500D02*X44750Y467450D01*
Y463550D01*
X43700Y462500D02*X44750Y463550D01*
X41000Y462500D02*X43700D01*
X41000Y468500D02*X43700D01*
G54D195*X46550Y467000D02*Y466850D01*
G54D194*Y464750D02*Y462500D01*
X50300Y465500D02*X51050Y464750D01*
X48800Y465500D02*X50300D01*
X48050Y464750D02*X48800Y465500D01*
X48050Y464750D02*Y463250D01*
X48800Y462500D01*
X51050Y465500D02*Y463250D01*
X51800Y462500D01*
X48800D02*X50300D01*
X51050Y463250D01*
X54350Y464750D02*Y462500D01*
Y464750D02*X55100Y465500D01*
X55850D01*
X56600Y464750D01*
Y462500D01*
Y464750D02*X57350Y465500D01*
X58100D01*
X58850Y464750D01*
Y462500D01*
X53600Y465500D02*X54350Y464750D01*
X60650Y462500D02*X61400D01*
X65900Y463250D02*X66650Y462500D01*
X65900Y467750D02*X66650Y468500D01*
X65900Y467750D02*Y463250D01*
X68450Y468500D02*X69950D01*
X69200D02*Y462500D01*
X68450D02*X69950D01*
X72500Y464750D02*Y462500D01*
Y464750D02*X73250Y465500D01*
X74000D01*
X74750Y464750D01*
Y462500D01*
X71750Y465500D02*X72500Y464750D01*
X77300Y465500D02*X79550D01*
X76550Y464750D02*X77300Y465500D01*
X76550Y464750D02*Y463250D01*
X77300Y462500D01*
X79550D01*
X81350Y468500D02*Y462500D01*
Y464750D02*X82100Y465500D01*
X83600D01*
X84350Y464750D01*
Y462500D01*
X86150Y468500D02*X86900Y467750D01*
Y463250D01*
X86150Y462500D02*X86900Y463250D01*
X41000Y459250D02*X88700D01*
X96050Y462500D02*X98000D01*
X95000Y463550D02*X96050Y462500D01*
X95000Y467450D02*Y463550D01*
Y467450D02*X96050Y468500D01*
X98000D01*
X99800Y464750D02*Y463250D01*
Y464750D02*X100550Y465500D01*
X102050D01*
X102800Y464750D01*
Y463250D01*
X102050Y462500D02*X102800Y463250D01*
X100550Y462500D02*X102050D01*
X99800Y463250D02*X100550Y462500D01*
X104600Y465500D02*Y463250D01*
X105350Y462500D01*
X106850D01*
X107600Y463250D01*
Y465500D02*Y463250D01*
X110150Y464750D02*Y462500D01*
Y464750D02*X110900Y465500D01*
X111650D01*
X112400Y464750D01*
Y462500D01*
X109400Y465500D02*X110150Y464750D01*
X114950Y468500D02*Y463250D01*
X115700Y462500D01*
X114200Y466250D02*X115700D01*
X95000Y459250D02*X117200D01*
X130750Y468500D02*Y462500D01*
X130000Y468500D02*X133000D01*
X133750Y467750D01*
Y466250D01*
X133000Y465500D02*X133750Y466250D01*
X130750Y465500D02*X133000D01*
X135550Y468500D02*Y463250D01*
X136300Y462500D01*
X140050Y465500D02*X140800Y464750D01*
X138550Y465500D02*X140050D01*
X137800Y464750D02*X138550Y465500D01*
X137800Y464750D02*Y463250D01*
X138550Y462500D01*
X140800Y465500D02*Y463250D01*
X141550Y462500D01*
X138550D02*X140050D01*
X140800Y463250D01*
X144100Y468500D02*Y463250D01*
X144850Y462500D01*
X143350Y466250D02*X144850D01*
X147100Y462500D02*X149350D01*
X146350Y463250D02*X147100Y462500D01*
X146350Y464750D02*Y463250D01*
Y464750D02*X147100Y465500D01*
X148600D01*
X149350Y464750D01*
X146350Y464000D02*X149350D01*
Y464750D02*Y464000D01*
X154150Y468500D02*Y462500D01*
X153400D02*X154150Y463250D01*
X151900Y462500D02*X153400D01*
X151150Y463250D02*X151900Y462500D01*
X151150Y464750D02*Y463250D01*
Y464750D02*X151900Y465500D01*
X153400D01*
X154150Y464750D01*
X157450Y465500D02*Y464750D01*
Y463250D02*Y462500D01*
X155950Y467750D02*Y467000D01*
Y467750D02*X156700Y468500D01*
X158200D01*
X158950Y467750D01*
Y467000D01*
X157450Y465500D02*X158950Y467000D01*
X130000Y459250D02*X160750D01*
X0Y483500D02*X3000D01*
X1500D02*Y477500D01*
X4800Y483500D02*Y477500D01*
Y479750D02*X5550Y480500D01*
X7050D01*
X7800Y479750D01*
Y477500D01*
X10350D02*X12600D01*
X9600Y478250D02*X10350Y477500D01*
X9600Y479750D02*Y478250D01*
Y479750D02*X10350Y480500D01*
X11850D01*
X12600Y479750D01*
X9600Y479000D02*X12600D01*
Y479750D02*Y479000D01*
X15150Y479750D02*Y477500D01*
Y479750D02*X15900Y480500D01*
X17400D01*
X14400D02*X15150Y479750D01*
X19950Y477500D02*X22200D01*
X19200Y478250D02*X19950Y477500D01*
X19200Y479750D02*Y478250D01*
Y479750D02*X19950Y480500D01*
X21450D01*
X22200Y479750D01*
X19200Y479000D02*X22200D01*
Y479750D02*Y479000D01*
X28950Y480500D02*X29700Y479750D01*
X27450Y480500D02*X28950D01*
X26700Y479750D02*X27450Y480500D01*
X26700Y479750D02*Y478250D01*
X27450Y477500D01*
X29700Y480500D02*Y478250D01*
X30450Y477500D01*
X27450D02*X28950D01*
X29700Y478250D01*
X33000Y479750D02*Y477500D01*
Y479750D02*X33750Y480500D01*
X35250D01*
X32250D02*X33000Y479750D01*
X37800Y477500D02*X40050D01*
X37050Y478250D02*X37800Y477500D01*
X37050Y479750D02*Y478250D01*
Y479750D02*X37800Y480500D01*
X39300D01*
X40050Y479750D01*
X37050Y479000D02*X40050D01*
Y479750D02*Y479000D01*
X45300Y477500D02*X47550Y480500D01*
Y482750D02*Y480500D01*
X46800Y483500D02*X47550Y482750D01*
X45300Y483500D02*X46800D01*
X44550Y482750D02*X45300Y483500D01*
X44550Y482750D02*Y481250D01*
X45300Y480500D01*
X47550D01*
X55050Y483500D02*Y477500D01*
X54300D02*X55050Y478250D01*
X52800Y477500D02*X54300D01*
X52050Y478250D02*X52800Y477500D01*
X52050Y479750D02*Y478250D01*
Y479750D02*X52800Y480500D01*
X54300D01*
X55050Y479750D01*
G54D195*X56850Y482000D02*Y481850D01*
G54D194*Y479750D02*Y477500D01*
X59100Y482750D02*Y477500D01*
Y482750D02*X59850Y483500D01*
X60600D01*
X58350Y480500D02*X59850D01*
X62850Y482750D02*Y477500D01*
Y482750D02*X63600Y483500D01*
X64350D01*
X62100Y480500D02*X63600D01*
X66600Y477500D02*X68850D01*
X65850Y478250D02*X66600Y477500D01*
X65850Y479750D02*Y478250D01*
Y479750D02*X66600Y480500D01*
X68100D01*
X68850Y479750D01*
X65850Y479000D02*X68850D01*
Y479750D02*Y479000D01*
X71400Y479750D02*Y477500D01*
Y479750D02*X72150Y480500D01*
X73650D01*
X70650D02*X71400Y479750D01*
X76200Y477500D02*X78450D01*
X75450Y478250D02*X76200Y477500D01*
X75450Y479750D02*Y478250D01*
Y479750D02*X76200Y480500D01*
X77700D01*
X78450Y479750D01*
X75450Y479000D02*X78450D01*
Y479750D02*Y479000D01*
X81000Y479750D02*Y477500D01*
Y479750D02*X81750Y480500D01*
X82500D01*
X83250Y479750D01*
Y477500D01*
X80250Y480500D02*X81000Y479750D01*
X85800Y483500D02*Y478250D01*
X86550Y477500D01*
X85050Y481250D02*X86550D01*
X93750Y483500D02*Y477500D01*
X93000D02*X93750Y478250D01*
X91500Y477500D02*X93000D01*
X90750Y478250D02*X91500Y477500D01*
X90750Y479750D02*Y478250D01*
Y479750D02*X91500Y480500D01*
X93000D01*
X93750Y479750D01*
X96300D02*Y477500D01*
Y479750D02*X97050Y480500D01*
X98550D01*
X95550D02*X96300Y479750D01*
G54D195*X100350Y482000D02*Y481850D01*
G54D194*Y479750D02*Y477500D01*
X101850Y483500D02*Y478250D01*
X102600Y477500D01*
X104100Y483500D02*Y478250D01*
X104850Y477500D01*
X109800D02*X112050D01*
X112800Y478250D01*
X112050Y479000D02*X112800Y478250D01*
X109800Y479000D02*X112050D01*
X109050Y479750D02*X109800Y479000D01*
X109050Y479750D02*X109800Y480500D01*
X112050D01*
X112800Y479750D01*
X109050Y478250D02*X109800Y477500D01*
G54D195*X114600Y482000D02*Y481850D01*
G54D194*Y479750D02*Y477500D01*
X116100Y480500D02*X119100D01*
X116100Y477500D02*X119100Y480500D01*
X116100Y477500D02*X119100D01*
X121650D02*X123900D01*
X120900Y478250D02*X121650Y477500D01*
X120900Y479750D02*Y478250D01*
Y479750D02*X121650Y480500D01*
X123150D01*
X123900Y479750D01*
X120900Y479000D02*X123900D01*
Y479750D02*Y479000D01*
X126450Y477500D02*X128700D01*
X129450Y478250D01*
X128700Y479000D02*X129450Y478250D01*
X126450Y479000D02*X128700D01*
X125700Y479750D02*X126450Y479000D01*
X125700Y479750D02*X126450Y480500D01*
X128700D01*
X129450Y479750D01*
X125700Y478250D02*X126450Y477500D01*
X133950Y480500D02*Y478250D01*
X134700Y477500D01*
X136200D01*
X136950Y478250D01*
Y480500D02*Y478250D01*
X139500Y477500D02*X141750D01*
X142500Y478250D01*
X141750Y479000D02*X142500Y478250D01*
X139500Y479000D02*X141750D01*
X138750Y479750D02*X139500Y479000D01*
X138750Y479750D02*X139500Y480500D01*
X141750D01*
X142500Y479750D01*
X138750Y478250D02*X139500Y477500D01*
X145050D02*X147300D01*
X144300Y478250D02*X145050Y477500D01*
X144300Y479750D02*Y478250D01*
Y479750D02*X145050Y480500D01*
X146550D01*
X147300Y479750D01*
X144300Y479000D02*X147300D01*
Y479750D02*Y479000D01*
X152100Y483500D02*Y477500D01*
X151350D02*X152100Y478250D01*
X149850Y477500D02*X151350D01*
X149100Y478250D02*X149850Y477500D01*
X149100Y479750D02*Y478250D01*
Y479750D02*X149850Y480500D01*
X151350D01*
X152100Y479750D01*
G54D195*X156600Y482000D02*Y481850D01*
G54D194*Y479750D02*Y477500D01*
X158850Y479750D02*Y477500D01*
Y479750D02*X159600Y480500D01*
X160350D01*
X161100Y479750D01*
Y477500D01*
X158100Y480500D02*X158850Y479750D01*
X166350Y483500D02*Y478250D01*
X167100Y477500D01*
X165600Y481250D02*X167100D01*
X168600Y483500D02*Y477500D01*
Y479750D02*X169350Y480500D01*
X170850D01*
X171600Y479750D01*
Y477500D01*
G54D195*X173400Y482000D02*Y481850D01*
G54D194*Y479750D02*Y477500D01*
X175650D02*X177900D01*
X178650Y478250D01*
X177900Y479000D02*X178650Y478250D01*
X175650Y479000D02*X177900D01*
X174900Y479750D02*X175650Y479000D01*
X174900Y479750D02*X175650Y480500D01*
X177900D01*
X178650Y479750D01*
X174900Y478250D02*X175650Y477500D01*
X183150Y483500D02*Y478250D01*
X183900Y477500D01*
X187650Y480500D02*X188400Y479750D01*
X186150Y480500D02*X187650D01*
X185400Y479750D02*X186150Y480500D01*
X185400Y479750D02*Y478250D01*
X186150Y477500D01*
X188400Y480500D02*Y478250D01*
X189150Y477500D01*
X186150D02*X187650D01*
X188400Y478250D01*
X190950Y480500D02*Y478250D01*
X191700Y477500D01*
X193950Y480500D02*Y476000D01*
X193200Y475250D02*X193950Y476000D01*
X191700Y475250D02*X193200D01*
X190950Y476000D02*X191700Y475250D01*
Y477500D02*X193200D01*
X193950Y478250D01*
X195750Y479750D02*Y478250D01*
Y479750D02*X196500Y480500D01*
X198000D01*
X198750Y479750D01*
Y478250D01*
X198000Y477500D02*X198750Y478250D01*
X196500Y477500D02*X198000D01*
X195750Y478250D02*X196500Y477500D01*
X200550Y480500D02*Y478250D01*
X201300Y477500D01*
X202800D01*
X203550Y478250D01*
Y480500D02*Y478250D01*
X206100Y483500D02*Y478250D01*
X206850Y477500D01*
X205350Y481250D02*X206850D01*
X208350Y476000D02*X209850Y477500D01*
X214350Y478250D02*X215100Y477500D01*
X214350Y479450D02*Y478250D01*
Y479450D02*X215400Y480500D01*
X216300D01*
X217350Y479450D01*
Y478250D01*
X216600Y477500D02*X217350Y478250D01*
X215100Y477500D02*X216600D01*
X214350Y481550D02*X215400Y480500D01*
X214350Y482750D02*Y481550D01*
Y482750D02*X215100Y483500D01*
X216600D01*
X217350Y482750D01*
Y481550D01*
X216300Y480500D02*X217350Y481550D01*
X219900Y477500D02*X222150Y480500D01*
Y482750D02*Y480500D01*
X221400Y483500D02*X222150Y482750D01*
X219900Y483500D02*X221400D01*
X219150Y482750D02*X219900Y483500D01*
X219150Y482750D02*Y481250D01*
X219900Y480500D01*
X222150D01*
X223950Y478250D02*X224700Y477500D01*
X223950Y482750D02*Y478250D01*
Y482750D02*X224700Y483500D01*
X226200D01*
X226950Y482750D01*
Y478250D01*
X226200Y477500D02*X226950Y478250D01*
X224700Y477500D02*X226200D01*
X223950Y479000D02*X226950Y482000D01*
X231450Y483500D02*Y477500D01*
Y479750D02*X232200Y480500D01*
X233700D01*
X234450Y479750D01*
Y477500D01*
X236250Y479750D02*Y478250D01*
Y479750D02*X237000Y480500D01*
X238500D01*
X239250Y479750D01*
Y478250D01*
X238500Y477500D02*X239250Y478250D01*
X237000Y477500D02*X238500D01*
X236250Y478250D02*X237000Y477500D01*
X241050Y483500D02*Y478250D01*
X241800Y477500D01*
X244050D02*X246300D01*
X243300Y478250D02*X244050Y477500D01*
X243300Y479750D02*Y478250D01*
Y479750D02*X244050Y480500D01*
X245550D01*
X246300Y479750D01*
X243300Y479000D02*X246300D01*
Y479750D02*Y479000D01*
X248850Y477500D02*X251100D01*
X251850Y478250D01*
X251100Y479000D02*X251850Y478250D01*
X248850Y479000D02*X251100D01*
X248100Y479750D02*X248850Y479000D01*
X248100Y479750D02*X248850Y480500D01*
X251100D01*
X251850Y479750D01*
X248100Y478250D02*X248850Y477500D01*
X257100Y483500D02*Y478250D01*
X257850Y477500D01*
X256350Y481250D02*X257850D01*
X259350Y479750D02*Y478250D01*
Y479750D02*X260100Y480500D01*
X261600D01*
X262350Y479750D01*
Y478250D01*
X261600Y477500D02*X262350Y478250D01*
X260100Y477500D02*X261600D01*
X259350Y478250D02*X260100Y477500D01*
X264900Y483500D02*Y478250D01*
X265650Y477500D01*
X264150Y481250D02*X265650D01*
X269400Y480500D02*X270150Y479750D01*
X267900Y480500D02*X269400D01*
X267150Y479750D02*X267900Y480500D01*
X267150Y479750D02*Y478250D01*
X267900Y477500D01*
X270150Y480500D02*Y478250D01*
X270900Y477500D01*
X267900D02*X269400D01*
X270150Y478250D01*
X272700Y483500D02*Y478250D01*
X273450Y477500D01*
G54D196*X0Y320000D02*X400000D01*
X0D02*Y0D01*
X400000Y320000D02*Y0D01*
X0D02*X400000D01*
G54D194*X200000Y333500D02*Y327500D01*
Y333500D02*X202250Y330500D01*
X204500Y333500D01*
Y327500D01*
X208550Y330500D02*X209300Y329750D01*
X207050Y330500D02*X208550D01*
X206300Y329750D02*X207050Y330500D01*
X206300Y329750D02*Y328250D01*
X207050Y327500D01*
X209300Y330500D02*Y328250D01*
X210050Y327500D01*
X207050D02*X208550D01*
X209300Y328250D01*
X211850Y330500D02*X214850Y327500D01*
X211850D02*X214850Y330500D01*
G54D195*X216650Y332000D02*Y331850D01*
G54D194*Y329750D02*Y327500D01*
X218900Y329750D02*Y327500D01*
Y329750D02*X219650Y330500D01*
X220400D01*
X221150Y329750D01*
Y327500D01*
Y329750D02*X221900Y330500D01*
X222650D01*
X223400Y329750D01*
Y327500D01*
X218150Y330500D02*X218900Y329750D01*
X225200Y330500D02*Y328250D01*
X225950Y327500D01*
X227450D01*
X228200Y328250D01*
Y330500D02*Y328250D01*
X230750Y329750D02*Y327500D01*
Y329750D02*X231500Y330500D01*
X232250D01*
X233000Y329750D01*
Y327500D01*
Y329750D02*X233750Y330500D01*
X234500D01*
X235250Y329750D01*
Y327500D01*
X230000Y330500D02*X230750Y329750D01*
X240500Y333500D02*Y327500D01*
X242450Y333500D02*X243500Y332450D01*
Y328550D01*
X242450Y327500D02*X243500Y328550D01*
X239750Y327500D02*X242450D01*
X239750Y333500D02*X242450D01*
G54D195*X245300Y332000D02*Y331850D01*
G54D194*Y329750D02*Y327500D01*
X247550Y329750D02*Y327500D01*
Y329750D02*X248300Y330500D01*
X249050D01*
X249800Y329750D01*
Y327500D01*
Y329750D02*X250550Y330500D01*
X251300D01*
X252050Y329750D01*
Y327500D01*
X246800Y330500D02*X247550Y329750D01*
X254600Y327500D02*X256850D01*
X253850Y328250D02*X254600Y327500D01*
X253850Y329750D02*Y328250D01*
Y329750D02*X254600Y330500D01*
X256100D01*
X256850Y329750D01*
X253850Y329000D02*X256850D01*
Y329750D02*Y329000D01*
X259400Y329750D02*Y327500D01*
Y329750D02*X260150Y330500D01*
X260900D01*
X261650Y329750D01*
Y327500D01*
X258650Y330500D02*X259400Y329750D01*
X264200Y327500D02*X266450D01*
X267200Y328250D01*
X266450Y329000D02*X267200Y328250D01*
X264200Y329000D02*X266450D01*
X263450Y329750D02*X264200Y329000D01*
X263450Y329750D02*X264200Y330500D01*
X266450D01*
X267200Y329750D01*
X263450Y328250D02*X264200Y327500D01*
G54D195*X269000Y332000D02*Y331850D01*
G54D194*Y329750D02*Y327500D01*
X270500Y329750D02*Y328250D01*
Y329750D02*X271250Y330500D01*
X272750D01*
X273500Y329750D01*
Y328250D01*
X272750Y327500D02*X273500Y328250D01*
X271250Y327500D02*X272750D01*
X270500Y328250D02*X271250Y327500D01*
X276050Y329750D02*Y327500D01*
Y329750D02*X276800Y330500D01*
X277550D01*
X278300Y329750D01*
Y327500D01*
X275300Y330500D02*X276050Y329750D01*
X280850Y327500D02*X283100D01*
X283850Y328250D01*
X283100Y329000D02*X283850Y328250D01*
X280850Y329000D02*X283100D01*
X280100Y329750D02*X280850Y329000D01*
X280100Y329750D02*X280850Y330500D01*
X283100D01*
X283850Y329750D01*
X280100Y328250D02*X280850Y327500D01*
X285650Y331250D02*X286400D01*
X285650Y329750D02*X286400D01*
X290900D02*X293900Y333500D01*
X290900Y329750D02*X294650D01*
X293900Y333500D02*Y327500D01*
X296450Y328250D02*X297200Y327500D01*
X296450Y332750D02*Y328250D01*
Y332750D02*X297200Y333500D01*
X298700D01*
X299450Y332750D01*
Y328250D01*
X298700Y327500D02*X299450Y328250D01*
X297200Y327500D02*X298700D01*
X296450Y329000D02*X299450Y332000D01*
X301250Y328250D02*X302000Y327500D01*
X301250Y332750D02*Y328250D01*
Y332750D02*X302000Y333500D01*
X303500D01*
X304250Y332750D01*
Y328250D01*
X303500Y327500D02*X304250Y328250D01*
X302000Y327500D02*X303500D01*
X301250Y329000D02*X304250Y332000D01*
X306050Y328250D02*X306800Y327500D01*
X306050Y332750D02*Y328250D01*
Y332750D02*X306800Y333500D01*
X308300D01*
X309050Y332750D01*
Y328250D01*
X308300Y327500D02*X309050Y328250D01*
X306800Y327500D02*X308300D01*
X306050Y329000D02*X309050Y332000D01*
X310850Y327500D02*X311600D01*
X313400Y328250D02*X314150Y327500D01*
X313400Y332750D02*Y328250D01*
Y332750D02*X314150Y333500D01*
X315650D01*
X316400Y332750D01*
Y328250D01*
X315650Y327500D02*X316400Y328250D01*
X314150Y327500D02*X315650D01*
X313400Y329000D02*X316400Y332000D01*
X318200Y328250D02*X318950Y327500D01*
X318200Y332750D02*Y328250D01*
Y332750D02*X318950Y333500D01*
X320450D01*
X321200Y332750D01*
Y328250D01*
X320450Y327500D02*X321200Y328250D01*
X318950Y327500D02*X320450D01*
X318200Y329000D02*X321200Y332000D01*
X323000Y328250D02*X323750Y327500D01*
X323000Y332750D02*Y328250D01*
Y332750D02*X323750Y333500D01*
X325250D01*
X326000Y332750D01*
Y328250D01*
X325250Y327500D02*X326000Y328250D01*
X323750Y327500D02*X325250D01*
X323000Y329000D02*X326000Y332000D01*
X327800Y328250D02*X328550Y327500D01*
X327800Y332750D02*Y328250D01*
Y332750D02*X328550Y333500D01*
X330050D01*
X330800Y332750D01*
Y328250D01*
X330050Y327500D02*X330800Y328250D01*
X328550Y327500D02*X330050D01*
X327800Y329000D02*X330800Y332000D01*
X332600Y328250D02*X333350Y327500D01*
X332600Y332750D02*Y328250D01*
Y332750D02*X333350Y333500D01*
X334850D01*
X335600Y332750D01*
Y328250D01*
X334850Y327500D02*X335600Y328250D01*
X333350Y327500D02*X334850D01*
X332600Y329000D02*X335600Y332000D01*
X337400Y328250D02*X338150Y327500D01*
X337400Y332750D02*Y328250D01*
Y332750D02*X338150Y333500D01*
X339650D01*
X340400Y332750D01*
Y328250D01*
X339650Y327500D02*X340400Y328250D01*
X338150Y327500D02*X339650D01*
X337400Y329000D02*X340400Y332000D01*
X345650Y329750D02*Y327500D01*
Y329750D02*X346400Y330500D01*
X347150D01*
X347900Y329750D01*
Y327500D01*
Y329750D02*X348650Y330500D01*
X349400D01*
X350150Y329750D01*
Y327500D01*
X344900Y330500D02*X345650Y329750D01*
G54D195*X351950Y332000D02*Y331850D01*
G54D194*Y329750D02*Y327500D01*
X353450Y333500D02*Y328250D01*
X354200Y327500D01*
X356450D02*X358700D01*
X359450Y328250D01*
X358700Y329000D02*X359450Y328250D01*
X356450Y329000D02*X358700D01*
X355700Y329750D02*X356450Y329000D01*
X355700Y329750D02*X356450Y330500D01*
X358700D01*
X359450Y329750D01*
X355700Y328250D02*X356450Y327500D01*
X363950Y330500D02*Y328250D01*
X364700Y327500D01*
X365450D01*
X366200Y328250D01*
Y330500D02*Y328250D01*
X366950Y327500D01*
X367700D01*
X368450Y328250D01*
Y330500D02*Y328250D01*
G54D195*X370250Y332000D02*Y331850D01*
G54D194*Y329750D02*Y327500D01*
X374750Y333500D02*Y327500D01*
X374000D02*X374750Y328250D01*
X372500Y327500D02*X374000D01*
X371750Y328250D02*X372500Y327500D01*
X371750Y329750D02*Y328250D01*
Y329750D02*X372500Y330500D01*
X374000D01*
X374750Y329750D01*
X377300Y327500D02*X379550D01*
X376550Y328250D02*X377300Y327500D01*
X376550Y329750D02*Y328250D01*
Y329750D02*X377300Y330500D01*
X378800D01*
X379550Y329750D01*
X376550Y329000D02*X379550D01*
Y329750D02*Y329000D01*
X381350Y326000D02*X382850Y327500D01*
X387350Y332750D02*X388100Y333500D01*
X389600D01*
X390350Y332750D01*
X389600Y327500D02*X390350Y328250D01*
X388100Y327500D02*X389600D01*
X387350Y328250D02*X388100Y327500D01*
Y330800D02*X389600D01*
X390350Y332750D02*Y331550D01*
Y330050D02*Y328250D01*
Y330050D02*X389600Y330800D01*
X390350Y331550D02*X389600Y330800D01*
X392150Y332750D02*X392900Y333500D01*
X395150D01*
X395900Y332750D01*
Y331250D01*
X392150Y327500D02*X395900Y331250D01*
X392150Y327500D02*X395900D01*
X397700Y328250D02*X398450Y327500D01*
X397700Y332750D02*Y328250D01*
Y332750D02*X398450Y333500D01*
X399950D01*
X400700Y332750D01*
Y328250D01*
X399950Y327500D02*X400700Y328250D01*
X398450Y327500D02*X399950D01*
X397700Y329000D02*X400700Y332000D01*
X402500Y328250D02*X403250Y327500D01*
X402500Y332750D02*Y328250D01*
Y332750D02*X403250Y333500D01*
X404750D01*
X405500Y332750D01*
Y328250D01*
X404750Y327500D02*X405500Y328250D01*
X403250Y327500D02*X404750D01*
X402500Y329000D02*X405500Y332000D01*
X407300Y327500D02*X408050D01*
X409850Y328250D02*X410600Y327500D01*
X409850Y332750D02*Y328250D01*
Y332750D02*X410600Y333500D01*
X412100D01*
X412850Y332750D01*
Y328250D01*
X412100Y327500D02*X412850Y328250D01*
X410600Y327500D02*X412100D01*
X409850Y329000D02*X412850Y332000D01*
X414650Y328250D02*X415400Y327500D01*
X414650Y332750D02*Y328250D01*
Y332750D02*X415400Y333500D01*
X416900D01*
X417650Y332750D01*
Y328250D01*
X416900Y327500D02*X417650Y328250D01*
X415400Y327500D02*X416900D01*
X414650Y329000D02*X417650Y332000D01*
X419450Y328250D02*X420200Y327500D01*
X419450Y332750D02*Y328250D01*
Y332750D02*X420200Y333500D01*
X421700D01*
X422450Y332750D01*
Y328250D01*
X421700Y327500D02*X422450Y328250D01*
X420200Y327500D02*X421700D01*
X419450Y329000D02*X422450Y332000D01*
X424250Y328250D02*X425000Y327500D01*
X424250Y332750D02*Y328250D01*
Y332750D02*X425000Y333500D01*
X426500D01*
X427250Y332750D01*
Y328250D01*
X426500Y327500D02*X427250Y328250D01*
X425000Y327500D02*X426500D01*
X424250Y329000D02*X427250Y332000D01*
X429050Y328250D02*X429800Y327500D01*
X429050Y332750D02*Y328250D01*
Y332750D02*X429800Y333500D01*
X431300D01*
X432050Y332750D01*
Y328250D01*
X431300Y327500D02*X432050Y328250D01*
X429800Y327500D02*X431300D01*
X429050Y329000D02*X432050Y332000D01*
X433850Y328250D02*X434600Y327500D01*
X433850Y332750D02*Y328250D01*
Y332750D02*X434600Y333500D01*
X436100D01*
X436850Y332750D01*
Y328250D01*
X436100Y327500D02*X436850Y328250D01*
X434600Y327500D02*X436100D01*
X433850Y329000D02*X436850Y332000D01*
X442100Y329750D02*Y327500D01*
Y329750D02*X442850Y330500D01*
X443600D01*
X444350Y329750D01*
Y327500D01*
Y329750D02*X445100Y330500D01*
X445850D01*
X446600Y329750D01*
Y327500D01*
X441350Y330500D02*X442100Y329750D01*
G54D195*X448400Y332000D02*Y331850D01*
G54D194*Y329750D02*Y327500D01*
X449900Y333500D02*Y328250D01*
X450650Y327500D01*
X452900D02*X455150D01*
X455900Y328250D01*
X455150Y329000D02*X455900Y328250D01*
X452900Y329000D02*X455150D01*
X452150Y329750D02*X452900Y329000D01*
X452150Y329750D02*X452900Y330500D01*
X455150D01*
X455900Y329750D01*
X452150Y328250D02*X452900Y327500D01*
X460400Y333500D02*Y327500D01*
Y329750D02*X461150Y330500D01*
X462650D01*
X463400Y329750D01*
Y327500D01*
G54D195*X465200Y332000D02*Y331850D01*
G54D194*Y329750D02*Y327500D01*
X468950Y330500D02*X469700Y329750D01*
X467450Y330500D02*X468950D01*
X466700Y329750D02*X467450Y330500D01*
X466700Y329750D02*Y328250D01*
X467450Y327500D01*
X468950D01*
X469700Y328250D01*
X466700Y326000D02*X467450Y325250D01*
X468950D01*
X469700Y326000D01*
Y330500D02*Y326000D01*
X471500Y333500D02*Y327500D01*
Y329750D02*X472250Y330500D01*
X473750D01*
X474500Y329750D01*
Y327500D01*
X0Y-9500D02*X3000D01*
X3750Y-8750D01*
Y-6950D02*Y-8750D01*
X3000Y-6200D02*X3750Y-6950D01*
X750Y-6200D02*X3000D01*
X750Y-3500D02*Y-9500D01*
X0Y-3500D02*X3000D01*
X3750Y-4250D01*
Y-5450D01*
X3000Y-6200D02*X3750Y-5450D01*
X5550Y-7250D02*Y-8750D01*
Y-7250D02*X6300Y-6500D01*
X7800D01*
X8550Y-7250D01*
Y-8750D01*
X7800Y-9500D02*X8550Y-8750D01*
X6300Y-9500D02*X7800D01*
X5550Y-8750D02*X6300Y-9500D01*
X12600Y-6500D02*X13350Y-7250D01*
X11100Y-6500D02*X12600D01*
X10350Y-7250D02*X11100Y-6500D01*
X10350Y-7250D02*Y-8750D01*
X11100Y-9500D01*
X13350Y-6500D02*Y-8750D01*
X14100Y-9500D01*
X11100D02*X12600D01*
X13350Y-8750D01*
X16650Y-7250D02*Y-9500D01*
Y-7250D02*X17400Y-6500D01*
X18900D01*
X15900D02*X16650Y-7250D01*
X23700Y-3500D02*Y-9500D01*
X22950D02*X23700Y-8750D01*
X21450Y-9500D02*X22950D01*
X20700Y-8750D02*X21450Y-9500D01*
X20700Y-7250D02*Y-8750D01*
Y-7250D02*X21450Y-6500D01*
X22950D01*
X23700Y-7250D01*
X28200D02*Y-8750D01*
Y-7250D02*X28950Y-6500D01*
X30450D01*
X31200Y-7250D01*
Y-8750D01*
X30450Y-9500D02*X31200Y-8750D01*
X28950Y-9500D02*X30450D01*
X28200Y-8750D02*X28950Y-9500D01*
X33000Y-6500D02*Y-8750D01*
X33750Y-9500D01*
X35250D01*
X36000Y-8750D01*
Y-6500D02*Y-8750D01*
X38550Y-3500D02*Y-8750D01*
X39300Y-9500D01*
X37800Y-5750D02*X39300D01*
X40800Y-3500D02*Y-8750D01*
X41550Y-9500D01*
G54D195*X43050Y-5000D02*Y-5150D01*
G54D194*Y-7250D02*Y-9500D01*
X45300Y-7250D02*Y-9500D01*
Y-7250D02*X46050Y-6500D01*
X46800D01*
X47550Y-7250D01*
Y-9500D01*
X44550Y-6500D02*X45300Y-7250D01*
X50100Y-9500D02*X52350D01*
X49350Y-8750D02*X50100Y-9500D01*
X49350Y-7250D02*Y-8750D01*
Y-7250D02*X50100Y-6500D01*
X51600D01*
X52350Y-7250D01*
X49350Y-8000D02*X52350D01*
Y-7250D02*Y-8000D01*
G54D195*X56850Y-5000D02*Y-5150D01*
G54D194*Y-7250D02*Y-9500D01*
X59100D02*X61350D01*
X62100Y-8750D01*
X61350Y-8000D02*X62100Y-8750D01*
X59100Y-8000D02*X61350D01*
X58350Y-7250D02*X59100Y-8000D01*
X58350Y-7250D02*X59100Y-6500D01*
X61350D01*
X62100Y-7250D01*
X58350Y-8750D02*X59100Y-9500D01*
X67350Y-3500D02*Y-8750D01*
X68100Y-9500D01*
X66600Y-5750D02*X68100D01*
X69600Y-3500D02*Y-9500D01*
Y-7250D02*X70350Y-6500D01*
X71850D01*
X72600Y-7250D01*
Y-9500D01*
X75150D02*X77400D01*
X74400Y-8750D02*X75150Y-9500D01*
X74400Y-7250D02*Y-8750D01*
Y-7250D02*X75150Y-6500D01*
X76650D01*
X77400Y-7250D01*
X74400Y-8000D02*X77400D01*
Y-7250D02*Y-8000D01*
X82650Y-6500D02*X84900D01*
X81900Y-7250D02*X82650Y-6500D01*
X81900Y-7250D02*Y-8750D01*
X82650Y-9500D01*
X84900D01*
X87450D02*X89700D01*
X86700Y-8750D02*X87450Y-9500D01*
X86700Y-7250D02*Y-8750D01*
Y-7250D02*X87450Y-6500D01*
X88950D01*
X89700Y-7250D01*
X86700Y-8000D02*X89700D01*
Y-7250D02*Y-8000D01*
X92250Y-7250D02*Y-9500D01*
Y-7250D02*X93000Y-6500D01*
X93750D01*
X94500Y-7250D01*
Y-9500D01*
X91500Y-6500D02*X92250Y-7250D01*
X97050Y-3500D02*Y-8750D01*
X97800Y-9500D01*
X96300Y-5750D02*X97800D01*
X100050Y-9500D02*X102300D01*
X99300Y-8750D02*X100050Y-9500D01*
X99300Y-7250D02*Y-8750D01*
Y-7250D02*X100050Y-6500D01*
X101550D01*
X102300Y-7250D01*
X99300Y-8000D02*X102300D01*
Y-7250D02*Y-8000D01*
X104850Y-7250D02*Y-9500D01*
Y-7250D02*X105600Y-6500D01*
X107100D01*
X104100D02*X104850Y-7250D01*
X108900Y-3500D02*Y-8750D01*
X109650Y-9500D01*
G54D195*X111150Y-5000D02*Y-5150D01*
G54D194*Y-7250D02*Y-9500D01*
X113400Y-7250D02*Y-9500D01*
Y-7250D02*X114150Y-6500D01*
X114900D01*
X115650Y-7250D01*
Y-9500D01*
X112650Y-6500D02*X113400Y-7250D01*
X118200Y-9500D02*X120450D01*
X117450Y-8750D02*X118200Y-9500D01*
X117450Y-7250D02*Y-8750D01*
Y-7250D02*X118200Y-6500D01*
X119700D01*
X120450Y-7250D01*
X117450Y-8000D02*X120450D01*
Y-7250D02*Y-8000D01*
X124950Y-7250D02*Y-8750D01*
Y-7250D02*X125700Y-6500D01*
X127200D01*
X127950Y-7250D01*
Y-8750D01*
X127200Y-9500D02*X127950Y-8750D01*
X125700Y-9500D02*X127200D01*
X124950Y-8750D02*X125700Y-9500D01*
X130500Y-4250D02*Y-9500D01*
Y-4250D02*X131250Y-3500D01*
X132000D01*
X129750Y-6500D02*X131250D01*
X136950Y-3500D02*Y-8750D01*
X137700Y-9500D01*
X136200Y-5750D02*X137700D01*
X139200Y-3500D02*Y-9500D01*
Y-7250D02*X139950Y-6500D01*
X141450D01*
X142200Y-7250D01*
Y-9500D01*
G54D195*X144000Y-5000D02*Y-5150D01*
G54D194*Y-7250D02*Y-9500D01*
X146250D02*X148500D01*
X149250Y-8750D01*
X148500Y-8000D02*X149250Y-8750D01*
X146250Y-8000D02*X148500D01*
X145500Y-7250D02*X146250Y-8000D01*
X145500Y-7250D02*X146250Y-6500D01*
X148500D01*
X149250Y-7250D01*
X145500Y-8750D02*X146250Y-9500D01*
X153750Y-8750D02*X154500Y-9500D01*
X153750Y-7550D02*Y-8750D01*
Y-7550D02*X154800Y-6500D01*
X155700D01*
X156750Y-7550D01*
Y-8750D01*
X156000Y-9500D02*X156750Y-8750D01*
X154500Y-9500D02*X156000D01*
X153750Y-5450D02*X154800Y-6500D01*
X153750Y-4250D02*Y-5450D01*
Y-4250D02*X154500Y-3500D01*
X156000D01*
X156750Y-4250D01*
Y-5450D01*
X155700Y-6500D02*X156750Y-5450D01*
X158550Y-9500D02*X159300D01*
X161100Y-8750D02*X161850Y-9500D01*
X161100Y-4250D02*Y-8750D01*
Y-4250D02*X161850Y-3500D01*
X163350D01*
X164100Y-4250D01*
Y-8750D01*
X163350Y-9500D02*X164100Y-8750D01*
X161850Y-9500D02*X163350D01*
X161100Y-8000D02*X164100Y-5000D01*
X165900Y-8750D02*X166650Y-9500D01*
X165900Y-4250D02*Y-8750D01*
Y-4250D02*X166650Y-3500D01*
X168150D01*
X168900Y-4250D01*
Y-8750D01*
X168150Y-9500D02*X168900Y-8750D01*
X166650Y-9500D02*X168150D01*
X165900Y-8000D02*X168900Y-5000D01*
X170700Y-8750D02*X171450Y-9500D01*
X170700Y-4250D02*Y-8750D01*
Y-4250D02*X171450Y-3500D01*
X172950D01*
X173700Y-4250D01*
Y-8750D01*
X172950Y-9500D02*X173700Y-8750D01*
X171450Y-9500D02*X172950D01*
X170700Y-8000D02*X173700Y-5000D01*
X175500Y-8750D02*X176250Y-9500D01*
X175500Y-4250D02*Y-8750D01*
Y-4250D02*X176250Y-3500D01*
X177750D01*
X178500Y-4250D01*
Y-8750D01*
X177750Y-9500D02*X178500Y-8750D01*
X176250Y-9500D02*X177750D01*
X175500Y-8000D02*X178500Y-5000D01*
X180300Y-8750D02*X181050Y-9500D01*
X180300Y-4250D02*Y-8750D01*
Y-4250D02*X181050Y-3500D01*
X182550D01*
X183300Y-4250D01*
Y-8750D01*
X182550Y-9500D02*X183300Y-8750D01*
X181050Y-9500D02*X182550D01*
X180300Y-8000D02*X183300Y-5000D01*
X185100Y-8750D02*X185850Y-9500D01*
X185100Y-4250D02*Y-8750D01*
Y-4250D02*X185850Y-3500D01*
X187350D01*
X188100Y-4250D01*
Y-8750D01*
X187350Y-9500D02*X188100Y-8750D01*
X185850Y-9500D02*X187350D01*
X185100Y-8000D02*X188100Y-5000D01*
X193350Y-7250D02*Y-9500D01*
Y-7250D02*X194100Y-6500D01*
X194850D01*
X195600Y-7250D01*
Y-9500D01*
Y-7250D02*X196350Y-6500D01*
X197100D01*
X197850Y-7250D01*
Y-9500D01*
X192600Y-6500D02*X193350Y-7250D01*
G54D195*X199650Y-5000D02*Y-5150D01*
G54D194*Y-7250D02*Y-9500D01*
X201150Y-3500D02*Y-8750D01*
X201900Y-9500D01*
X206850Y-7250D02*Y-9500D01*
Y-7250D02*X207600Y-6500D01*
X209100D01*
X206100D02*X206850Y-7250D01*
X211650Y-9500D02*X213900D01*
X210900Y-8750D02*X211650Y-9500D01*
X210900Y-7250D02*Y-8750D01*
Y-7250D02*X211650Y-6500D01*
X213150D01*
X213900Y-7250D01*
X210900Y-8000D02*X213900D01*
Y-7250D02*Y-8000D01*
X216450Y-6500D02*X218700D01*
X215700Y-7250D02*X216450Y-6500D01*
X215700Y-7250D02*Y-8750D01*
X216450Y-9500D01*
X218700D01*
X221250Y-3500D02*Y-8750D01*
X222000Y-9500D01*
X220500Y-5750D02*X222000D01*
X225750Y-6500D02*X226500Y-7250D01*
X224250Y-6500D02*X225750D01*
X223500Y-7250D02*X224250Y-6500D01*
X223500Y-7250D02*Y-8750D01*
X224250Y-9500D01*
X226500Y-6500D02*Y-8750D01*
X227250Y-9500D01*
X224250D02*X225750D01*
X226500Y-8750D01*
X229800Y-7250D02*Y-9500D01*
Y-7250D02*X230550Y-6500D01*
X231300D01*
X232050Y-7250D01*
Y-9500D01*
X229050Y-6500D02*X229800Y-7250D01*
X236100Y-6500D02*X236850Y-7250D01*
X234600Y-6500D02*X236100D01*
X233850Y-7250D02*X234600Y-6500D01*
X233850Y-7250D02*Y-8750D01*
X234600Y-9500D01*
X236100D01*
X236850Y-8750D01*
X233850Y-11000D02*X234600Y-11750D01*
X236100D01*
X236850Y-11000D01*
Y-6500D02*Y-11000D01*
X238650Y-3500D02*Y-8750D01*
X239400Y-9500D01*
X241650D02*X243900D01*
X240900Y-8750D02*X241650Y-9500D01*
X240900Y-7250D02*Y-8750D01*
Y-7250D02*X241650Y-6500D01*
X243150D01*
X243900Y-7250D01*
X240900Y-8000D02*X243900D01*
Y-7250D02*Y-8000D01*
X248400Y-6500D02*X251400D01*
X255900Y-8750D02*X256650Y-9500D01*
X255900Y-4250D02*Y-8750D01*
Y-4250D02*X256650Y-3500D01*
X258150D01*
X258900Y-4250D01*
Y-8750D01*
X258150Y-9500D02*X258900Y-8750D01*
X256650Y-9500D02*X258150D01*
X255900Y-8000D02*X258900Y-5000D01*
X260700Y-11000D02*X262200Y-9500D01*
X264000Y-8750D02*X264750Y-9500D01*
X264000Y-4250D02*Y-8750D01*
Y-4250D02*X264750Y-3500D01*
X266250D01*
X267000Y-4250D01*
Y-8750D01*
X266250Y-9500D02*X267000Y-8750D01*
X264750Y-9500D02*X266250D01*
X264000Y-8000D02*X267000Y-5000D01*
X272250Y-3500D02*Y-8750D01*
X273000Y-9500D01*
X271500Y-5750D02*X273000D01*
X274500Y-7250D02*Y-8750D01*
Y-7250D02*X275250Y-6500D01*
X276750D01*
X277500Y-7250D01*
Y-8750D01*
X276750Y-9500D02*X277500Y-8750D01*
X275250Y-9500D02*X276750D01*
X274500Y-8750D02*X275250Y-9500D01*
X282000Y-7250D02*X285000Y-3500D01*
X282000Y-7250D02*X285750D01*
X285000Y-3500D02*Y-9500D01*
X287550Y-8750D02*X288300Y-9500D01*
X287550Y-4250D02*Y-8750D01*
Y-4250D02*X288300Y-3500D01*
X289800D01*
X290550Y-4250D01*
Y-8750D01*
X289800Y-9500D02*X290550Y-8750D01*
X288300Y-9500D02*X289800D01*
X287550Y-8000D02*X290550Y-5000D01*
X292350Y-8750D02*X293100Y-9500D01*
X292350Y-4250D02*Y-8750D01*
Y-4250D02*X293100Y-3500D01*
X294600D01*
X295350Y-4250D01*
Y-8750D01*
X294600Y-9500D02*X295350Y-8750D01*
X293100Y-9500D02*X294600D01*
X292350Y-8000D02*X295350Y-5000D01*
X297150Y-8750D02*X297900Y-9500D01*
X297150Y-4250D02*Y-8750D01*
Y-4250D02*X297900Y-3500D01*
X299400D01*
X300150Y-4250D01*
Y-8750D01*
X299400Y-9500D02*X300150Y-8750D01*
X297900Y-9500D02*X299400D01*
X297150Y-8000D02*X300150Y-5000D01*
X301950Y-9500D02*X302700D01*
X304500Y-8750D02*X305250Y-9500D01*
X304500Y-4250D02*Y-8750D01*
Y-4250D02*X305250Y-3500D01*
X306750D01*
X307500Y-4250D01*
Y-8750D01*
X306750Y-9500D02*X307500Y-8750D01*
X305250Y-9500D02*X306750D01*
X304500Y-8000D02*X307500Y-5000D01*
X309300Y-8750D02*X310050Y-9500D01*
X309300Y-4250D02*Y-8750D01*
Y-4250D02*X310050Y-3500D01*
X311550D01*
X312300Y-4250D01*
Y-8750D01*
X311550Y-9500D02*X312300Y-8750D01*
X310050Y-9500D02*X311550D01*
X309300Y-8000D02*X312300Y-5000D01*
X314100Y-8750D02*X314850Y-9500D01*
X314100Y-4250D02*Y-8750D01*
Y-4250D02*X314850Y-3500D01*
X316350D01*
X317100Y-4250D01*
Y-8750D01*
X316350Y-9500D02*X317100Y-8750D01*
X314850Y-9500D02*X316350D01*
X314100Y-8000D02*X317100Y-5000D01*
X318900Y-8750D02*X319650Y-9500D01*
X318900Y-4250D02*Y-8750D01*
Y-4250D02*X319650Y-3500D01*
X321150D01*
X321900Y-4250D01*
Y-8750D01*
X321150Y-9500D02*X321900Y-8750D01*
X319650Y-9500D02*X321150D01*
X318900Y-8000D02*X321900Y-5000D01*
X323700Y-8750D02*X324450Y-9500D01*
X323700Y-4250D02*Y-8750D01*
Y-4250D02*X324450Y-3500D01*
X325950D01*
X326700Y-4250D01*
Y-8750D01*
X325950Y-9500D02*X326700Y-8750D01*
X324450Y-9500D02*X325950D01*
X323700Y-8000D02*X326700Y-5000D01*
X328500Y-8750D02*X329250Y-9500D01*
X328500Y-4250D02*Y-8750D01*
Y-4250D02*X329250Y-3500D01*
X330750D01*
X331500Y-4250D01*
Y-8750D01*
X330750Y-9500D02*X331500Y-8750D01*
X329250Y-9500D02*X330750D01*
X328500Y-8000D02*X331500Y-5000D01*
X333300Y-11000D02*X334800Y-9500D01*
X336600Y-4250D02*X337350Y-3500D01*
X338850D01*
X339600Y-4250D01*
X338850Y-9500D02*X339600Y-8750D01*
X337350Y-9500D02*X338850D01*
X336600Y-8750D02*X337350Y-9500D01*
Y-6200D02*X338850D01*
X339600Y-4250D02*Y-5450D01*
Y-6950D02*Y-8750D01*
Y-6950D02*X338850Y-6200D01*
X339600Y-5450D02*X338850Y-6200D01*
X341400Y-4250D02*X342150Y-3500D01*
X344400D01*
X345150Y-4250D01*
Y-5750D01*
X341400Y-9500D02*X345150Y-5750D01*
X341400Y-9500D02*X345150D01*
X346950Y-8750D02*X347700Y-9500D01*
X346950Y-4250D02*Y-8750D01*
Y-4250D02*X347700Y-3500D01*
X349200D01*
X349950Y-4250D01*
Y-8750D01*
X349200Y-9500D02*X349950Y-8750D01*
X347700Y-9500D02*X349200D01*
X346950Y-8000D02*X349950Y-5000D01*
X351750Y-8750D02*X352500Y-9500D01*
X351750Y-4250D02*Y-8750D01*
Y-4250D02*X352500Y-3500D01*
X354000D01*
X354750Y-4250D01*
Y-8750D01*
X354000Y-9500D02*X354750Y-8750D01*
X352500Y-9500D02*X354000D01*
X351750Y-8000D02*X354750Y-5000D01*
X356550Y-9500D02*X357300D01*
X359100Y-8750D02*X359850Y-9500D01*
X359100Y-4250D02*Y-8750D01*
Y-4250D02*X359850Y-3500D01*
X361350D01*
X362100Y-4250D01*
Y-8750D01*
X361350Y-9500D02*X362100Y-8750D01*
X359850Y-9500D02*X361350D01*
X359100Y-8000D02*X362100Y-5000D01*
X363900Y-8750D02*X364650Y-9500D01*
X363900Y-4250D02*Y-8750D01*
Y-4250D02*X364650Y-3500D01*
X366150D01*
X366900Y-4250D01*
Y-8750D01*
X366150Y-9500D02*X366900Y-8750D01*
X364650Y-9500D02*X366150D01*
X363900Y-8000D02*X366900Y-5000D01*
X368700Y-8750D02*X369450Y-9500D01*
X368700Y-4250D02*Y-8750D01*
Y-4250D02*X369450Y-3500D01*
X370950D01*
X371700Y-4250D01*
Y-8750D01*
X370950Y-9500D02*X371700Y-8750D01*
X369450Y-9500D02*X370950D01*
X368700Y-8000D02*X371700Y-5000D01*
X373500Y-8750D02*X374250Y-9500D01*
X373500Y-4250D02*Y-8750D01*
Y-4250D02*X374250Y-3500D01*
X375750D01*
X376500Y-4250D01*
Y-8750D01*
X375750Y-9500D02*X376500Y-8750D01*
X374250Y-9500D02*X375750D01*
X373500Y-8000D02*X376500Y-5000D01*
X378300Y-8750D02*X379050Y-9500D01*
X378300Y-4250D02*Y-8750D01*
Y-4250D02*X379050Y-3500D01*
X380550D01*
X381300Y-4250D01*
Y-8750D01*
X380550Y-9500D02*X381300Y-8750D01*
X379050Y-9500D02*X380550D01*
X378300Y-8000D02*X381300Y-5000D01*
X383100Y-8750D02*X383850Y-9500D01*
X383100Y-4250D02*Y-8750D01*
Y-4250D02*X383850Y-3500D01*
X385350D01*
X386100Y-4250D01*
Y-8750D01*
X385350Y-9500D02*X386100Y-8750D01*
X383850Y-9500D02*X385350D01*
X383100Y-8000D02*X386100Y-5000D01*
X391350Y-7250D02*Y-9500D01*
Y-7250D02*X392100Y-6500D01*
X392850D01*
X393600Y-7250D01*
Y-9500D01*
Y-7250D02*X394350Y-6500D01*
X395100D01*
X395850Y-7250D01*
Y-9500D01*
X390600Y-6500D02*X391350Y-7250D01*
G54D195*X397650Y-5000D02*Y-5150D01*
G54D194*Y-7250D02*Y-9500D01*
X399150Y-3500D02*Y-8750D01*
X399900Y-9500D01*
X402150D02*X404400D01*
X405150Y-8750D01*
X404400Y-8000D02*X405150Y-8750D01*
X402150Y-8000D02*X404400D01*
X401400Y-7250D02*X402150Y-8000D01*
X401400Y-7250D02*X402150Y-6500D01*
X404400D01*
X405150Y-7250D01*
X401400Y-8750D02*X402150Y-9500D01*
X200750Y348500D02*Y342500D01*
X202700Y348500D02*X203750Y347450D01*
Y343550D01*
X202700Y342500D02*X203750Y343550D01*
X200000Y342500D02*X202700D01*
X200000Y348500D02*X202700D01*
X207800Y345500D02*X208550Y344750D01*
X206300Y345500D02*X207800D01*
X205550Y344750D02*X206300Y345500D01*
X205550Y344750D02*Y343250D01*
X206300Y342500D01*
X208550Y345500D02*Y343250D01*
X209300Y342500D01*
X206300D02*X207800D01*
X208550Y343250D01*
X211850Y348500D02*Y343250D01*
X212600Y342500D01*
X211100Y346250D02*X212600D01*
X214850Y342500D02*X217100D01*
X214100Y343250D02*X214850Y342500D01*
X214100Y344750D02*Y343250D01*
Y344750D02*X214850Y345500D01*
X216350D01*
X217100Y344750D01*
X214100Y344000D02*X217100D01*
Y344750D02*Y344000D01*
X218900Y346250D02*X219650D01*
X218900Y344750D02*X219650D01*
X224150Y348500D02*X227150D01*
X225650D02*Y342500D01*
X228950Y348500D02*Y342500D01*
Y344750D02*X229700Y345500D01*
X231200D01*
X231950Y344750D01*
Y342500D01*
X233750Y345500D02*Y343250D01*
X234500Y342500D01*
X236000D01*
X236750Y343250D01*
Y345500D02*Y343250D01*
X241250Y347750D02*X242000Y348500D01*
X243500D01*
X244250Y347750D01*
X243500Y342500D02*X244250Y343250D01*
X242000Y342500D02*X243500D01*
X241250Y343250D02*X242000Y342500D01*
Y345800D02*X243500D01*
X244250Y347750D02*Y346550D01*
Y345050D02*Y343250D01*
Y345050D02*X243500Y345800D01*
X244250Y346550D02*X243500Y345800D01*
X246050Y347300D02*X247250Y348500D01*
Y342500D01*
X246050D02*X248300D01*
X252800Y348500D02*Y342500D01*
Y348500D02*X255050Y345500D01*
X257300Y348500D01*
Y342500D01*
X261350Y345500D02*X262100Y344750D01*
X259850Y345500D02*X261350D01*
X259100Y344750D02*X259850Y345500D01*
X259100Y344750D02*Y343250D01*
X259850Y342500D01*
X262100Y345500D02*Y343250D01*
X262850Y342500D01*
X259850D02*X261350D01*
X262100Y343250D01*
X264650Y345500D02*Y343250D01*
X265400Y342500D01*
X267650Y345500D02*Y341000D01*
X266900Y340250D02*X267650Y341000D01*
X265400Y340250D02*X266900D01*
X264650Y341000D02*X265400Y340250D01*
Y342500D02*X266900D01*
X267650Y343250D01*
X272150Y347750D02*X272900Y348500D01*
X275150D01*
X275900Y347750D01*
Y346250D01*
X272150Y342500D02*X275900Y346250D01*
X272150Y342500D02*X275900D01*
X277700Y343250D02*X278450Y342500D01*
X277700Y347750D02*Y343250D01*
Y347750D02*X278450Y348500D01*
X279950D01*
X280700Y347750D01*
Y343250D01*
X279950Y342500D02*X280700Y343250D01*
X278450Y342500D02*X279950D01*
X277700Y344000D02*X280700Y347000D01*
X282500Y347300D02*X283700Y348500D01*
Y342500D01*
X282500D02*X284750D01*
X286550Y347750D02*X287300Y348500D01*
X289550D01*
X290300Y347750D01*
Y346250D01*
X286550Y342500D02*X290300Y346250D01*
X286550Y342500D02*X290300D01*
X294800Y347300D02*X296000Y348500D01*
Y342500D01*
X294800D02*X297050D01*
X298850Y347300D02*X300050Y348500D01*
Y342500D01*
X298850D02*X301100D01*
X302900Y346250D02*X303650D01*
X302900Y344750D02*X303650D01*
X305450Y347750D02*X306200Y348500D01*
X307700D01*
X308450Y347750D01*
X307700Y342500D02*X308450Y343250D01*
X306200Y342500D02*X307700D01*
X305450Y343250D02*X306200Y342500D01*
Y345800D02*X307700D01*
X308450Y347750D02*Y346550D01*
Y345050D02*Y343250D01*
Y345050D02*X307700Y345800D01*
X308450Y346550D02*X307700Y345800D01*
X310250Y343250D02*X311000Y342500D01*
X310250Y344450D02*Y343250D01*
Y344450D02*X311300Y345500D01*
X312200D01*
X313250Y344450D01*
Y343250D01*
X312500Y342500D02*X313250Y343250D01*
X311000Y342500D02*X312500D01*
X310250Y346550D02*X311300Y345500D01*
X310250Y347750D02*Y346550D01*
Y347750D02*X311000Y348500D01*
X312500D01*
X313250Y347750D01*
Y346550D01*
X312200Y345500D02*X313250Y346550D01*
X315050Y346250D02*X315800D01*
X315050Y344750D02*X315800D01*
X317600Y348500D02*X320600D01*
X317600D02*Y345500D01*
X318350Y346250D01*
X319850D01*
X320600Y345500D01*
Y343250D01*
X319850Y342500D02*X320600Y343250D01*
X318350Y342500D02*X319850D01*
X317600Y343250D02*X318350Y342500D01*
X322400Y344750D02*X325400Y348500D01*
X322400Y344750D02*X326150D01*
X325400Y348500D02*Y342500D01*
X330650Y347000D02*Y342500D01*
Y347000D02*X331700Y348500D01*
X333350D01*
X334400Y347000D01*
Y342500D01*
X330650Y345500D02*X334400D01*
X336200Y348500D02*Y342500D01*
Y348500D02*X338450Y345500D01*
X340700Y348500D01*
Y342500D01*
X348200Y348500D02*X348950Y347750D01*
X345950Y348500D02*X348200D01*
X345200Y347750D02*X345950Y348500D01*
X345200Y347750D02*Y343250D01*
X345950Y342500D01*
X348200D01*
X348950Y343250D01*
Y344750D02*Y343250D01*
X348200Y345500D02*X348950Y344750D01*
X346700Y345500D02*X348200D01*
X350750Y348500D02*Y342500D01*
Y348500D02*X353000Y345500D01*
X355250Y348500D01*
Y342500D01*
X357050Y348500D02*X360050D01*
X358550D02*Y342500D01*
X364550Y348500D02*Y343250D01*
X365300Y342500D01*
X366800D01*
X367550Y343250D01*
Y348500D02*Y343250D01*
X369350Y348500D02*X372350D01*
X370850D02*Y342500D01*
X375200D02*X377150D01*
X374150Y343550D02*X375200Y342500D01*
X374150Y347450D02*Y343550D01*
Y347450D02*X375200Y348500D01*
X377150D01*
X200000Y362000D02*Y357500D01*
Y362000D02*X201050Y363500D01*
X202700D01*
X203750Y362000D01*
Y357500D01*
X200000Y360500D02*X203750D01*
X205550D02*Y358250D01*
X206300Y357500D01*
X207800D01*
X208550Y358250D01*
Y360500D02*Y358250D01*
X211100Y363500D02*Y358250D01*
X211850Y357500D01*
X210350Y361250D02*X211850D01*
X213350Y363500D02*Y357500D01*
Y359750D02*X214100Y360500D01*
X215600D01*
X216350Y359750D01*
Y357500D01*
X218150Y359750D02*Y358250D01*
Y359750D02*X218900Y360500D01*
X220400D01*
X221150Y359750D01*
Y358250D01*
X220400Y357500D02*X221150Y358250D01*
X218900Y357500D02*X220400D01*
X218150Y358250D02*X218900Y357500D01*
X223700Y359750D02*Y357500D01*
Y359750D02*X224450Y360500D01*
X225950D01*
X222950D02*X223700Y359750D01*
X227750Y361250D02*X228500D01*
X227750Y359750D02*X228500D01*
X233750Y363500D02*Y357500D01*
X233000Y363500D02*X236000D01*
X236750Y362750D01*
Y361250D01*
X236000Y360500D02*X236750Y361250D01*
X233750Y360500D02*X236000D01*
X239300Y357500D02*X241550D01*
X238550Y358250D02*X239300Y357500D01*
X238550Y359750D02*Y358250D01*
Y359750D02*X239300Y360500D01*
X240800D01*
X241550Y359750D01*
X238550Y359000D02*X241550D01*
Y359750D02*Y359000D01*
X244100Y363500D02*Y358250D01*
X244850Y357500D01*
X243350Y361250D02*X244850D01*
X247100Y357500D02*X249350D01*
X246350Y358250D02*X247100Y357500D01*
X246350Y359750D02*Y358250D01*
Y359750D02*X247100Y360500D01*
X248600D01*
X249350Y359750D01*
X246350Y359000D02*X249350D01*
Y359750D02*Y359000D01*
X251900Y359750D02*Y357500D01*
Y359750D02*X252650Y360500D01*
X254150D01*
X251150D02*X251900Y359750D01*
X258650Y363500D02*Y357500D01*
Y363500D02*X260900Y360500D01*
X263150Y363500D01*
Y357500D01*
X264950Y359750D02*Y358250D01*
Y359750D02*X265700Y360500D01*
X267200D01*
X267950Y359750D01*
Y358250D01*
X267200Y357500D02*X267950Y358250D01*
X265700Y357500D02*X267200D01*
X264950Y358250D02*X265700Y357500D01*
X270500Y359750D02*Y357500D01*
Y359750D02*X271250Y360500D01*
X272000D01*
X272750Y359750D01*
Y357500D01*
X269750Y360500D02*X270500Y359750D01*
X275300Y363500D02*Y358250D01*
X276050Y357500D01*
X274550Y361250D02*X276050D01*
X279800Y360500D02*X280550Y359750D01*
X278300Y360500D02*X279800D01*
X277550Y359750D02*X278300Y360500D01*
X277550Y359750D02*Y358250D01*
X278300Y357500D01*
X280550Y360500D02*Y358250D01*
X281300Y357500D01*
X278300D02*X279800D01*
X280550Y358250D01*
X200000Y378500D02*X203000D01*
X201500D02*Y372500D01*
G54D195*X204800Y377000D02*Y376850D01*
G54D194*Y374750D02*Y372500D01*
X207050Y378500D02*Y373250D01*
X207800Y372500D01*
X206300Y376250D02*X207800D01*
X209300Y378500D02*Y373250D01*
X210050Y372500D01*
X212300D02*X214550D01*
X211550Y373250D02*X212300Y372500D01*
X211550Y374750D02*Y373250D01*
Y374750D02*X212300Y375500D01*
X213800D01*
X214550Y374750D01*
X211550Y374000D02*X214550D01*
Y374750D02*Y374000D01*
X216350Y376250D02*X217100D01*
X216350Y374750D02*X217100D01*
X221600Y373250D02*X222350Y372500D01*
X221600Y377750D02*X222350Y378500D01*
X221600Y377750D02*Y373250D01*
X224150Y375500D02*Y373250D01*
X224900Y372500D01*
X226400D01*
X227150Y373250D01*
Y375500D02*Y373250D01*
X229700Y374750D02*Y372500D01*
Y374750D02*X230450Y375500D01*
X231200D01*
X231950Y374750D01*
Y372500D01*
X228950Y375500D02*X229700Y374750D01*
X233750Y378500D02*Y372500D01*
Y374750D02*X236000Y372500D01*
X233750Y374750D02*X235250Y376250D01*
X238550Y374750D02*Y372500D01*
Y374750D02*X239300Y375500D01*
X240050D01*
X240800Y374750D01*
Y372500D01*
X237800Y375500D02*X238550Y374750D01*
X242600D02*Y373250D01*
Y374750D02*X243350Y375500D01*
X244850D01*
X245600Y374750D01*
Y373250D01*
X244850Y372500D02*X245600Y373250D01*
X243350Y372500D02*X244850D01*
X242600Y373250D02*X243350Y372500D01*
X247400Y375500D02*Y373250D01*
X248150Y372500D01*
X248900D01*
X249650Y373250D01*
Y375500D02*Y373250D01*
X250400Y372500D01*
X251150D01*
X251900Y373250D01*
Y375500D02*Y373250D01*
X254450Y374750D02*Y372500D01*
Y374750D02*X255200Y375500D01*
X255950D01*
X256700Y374750D01*
Y372500D01*
X253700Y375500D02*X254450Y374750D01*
X258500Y378500D02*X259250Y377750D01*
Y373250D01*
X258500Y372500D02*X259250Y373250D01*
X263750Y375500D02*X266750D01*
X271250Y378500D02*Y372500D01*
Y378500D02*X274250D01*
X271250Y375800D02*X273500D01*
X278300Y375500D02*X279050Y374750D01*
X276800Y375500D02*X278300D01*
X276050Y374750D02*X276800Y375500D01*
X276050Y374750D02*Y373250D01*
X276800Y372500D01*
X279050Y375500D02*Y373250D01*
X279800Y372500D01*
X276800D02*X278300D01*
X279050Y373250D01*
X281600Y378500D02*Y372500D01*
Y373250D02*X282350Y372500D01*
X283850D01*
X284600Y373250D01*
Y374750D02*Y373250D01*
X283850Y375500D02*X284600Y374750D01*
X282350Y375500D02*X283850D01*
X281600Y374750D02*X282350Y375500D01*
X287150Y374750D02*Y372500D01*
Y374750D02*X287900Y375500D01*
X289400D01*
X286400D02*X287150Y374750D01*
G54D195*X291200Y377000D02*Y376850D01*
G54D194*Y374750D02*Y372500D01*
X293450Y375500D02*X295700D01*
X292700Y374750D02*X293450Y375500D01*
X292700Y374750D02*Y373250D01*
X293450Y372500D01*
X295700D01*
X299750Y375500D02*X300500Y374750D01*
X298250Y375500D02*X299750D01*
X297500Y374750D02*X298250Y375500D01*
X297500Y374750D02*Y373250D01*
X298250Y372500D01*
X300500Y375500D02*Y373250D01*
X301250Y372500D01*
X298250D02*X299750D01*
X300500Y373250D01*
X303800Y378500D02*Y373250D01*
X304550Y372500D01*
X303050Y376250D02*X304550D01*
G54D195*X306050Y377000D02*Y376850D01*
G54D194*Y374750D02*Y372500D01*
X307550Y374750D02*Y373250D01*
Y374750D02*X308300Y375500D01*
X309800D01*
X310550Y374750D01*
Y373250D01*
X309800Y372500D02*X310550Y373250D01*
X308300Y372500D02*X309800D01*
X307550Y373250D02*X308300Y372500D01*
X313100Y374750D02*Y372500D01*
Y374750D02*X313850Y375500D01*
X314600D01*
X315350Y374750D01*
Y372500D01*
X312350Y375500D02*X313100Y374750D01*
X320600Y378500D02*Y372500D01*
X322550Y378500D02*X323600Y377450D01*
Y373550D01*
X322550Y372500D02*X323600Y373550D01*
X319850Y372500D02*X322550D01*
X319850Y378500D02*X322550D01*
X326150Y374750D02*Y372500D01*
Y374750D02*X326900Y375500D01*
X328400D01*
X325400D02*X326150Y374750D01*
X332450Y375500D02*X333200Y374750D01*
X330950Y375500D02*X332450D01*
X330200Y374750D02*X330950Y375500D01*
X330200Y374750D02*Y373250D01*
X330950Y372500D01*
X333200Y375500D02*Y373250D01*
X333950Y372500D01*
X330950D02*X332450D01*
X333200Y373250D01*
X335750Y375500D02*Y373250D01*
X336500Y372500D01*
X337250D01*
X338000Y373250D01*
Y375500D02*Y373250D01*
X338750Y372500D01*
X339500D01*
X340250Y373250D01*
Y375500D02*Y373250D01*
G54D195*X342050Y377000D02*Y376850D01*
G54D194*Y374750D02*Y372500D01*
X344300Y374750D02*Y372500D01*
Y374750D02*X345050Y375500D01*
X345800D01*
X346550Y374750D01*
Y372500D01*
X343550Y375500D02*X344300Y374750D01*
X350600Y375500D02*X351350Y374750D01*
X349100Y375500D02*X350600D01*
X348350Y374750D02*X349100Y375500D01*
X348350Y374750D02*Y373250D01*
X349100Y372500D01*
X350600D01*
X351350Y373250D01*
X348350Y371000D02*X349100Y370250D01*
X350600D01*
X351350Y371000D01*
Y375500D02*Y371000D01*
M02*
