G04 start of page 13 for group -4014 idx -4014 *
G04 Title: GNSS Firehose, bottompaste *
G04 Creator: pcb 20140316 *
G04 CreationDate: Tue 12 May 2015 06:45:23 AM GMT UTC *
G04 For: pmonta *
G04 Format: Gerber/RS-274X *
G04 PCB-Dimensions (mil): 4640.00 3900.00 *
G04 PCB-Coordinate-Origin: lower left *
%MOIN*%
%FSLAX25Y25*%
%LNBOTTOMPASTE*%
%ADD241R,0.0295X0.0295*%
%ADD240R,0.0200X0.0200*%
%ADD239R,0.0512X0.0512*%
G54D239*X258557Y85693D02*Y84907D01*
X265643Y85693D02*Y84907D01*
G54D240*X241374Y111100D02*X241574D01*
X245174D02*X245374D01*
X231274Y111300D02*X231474D01*
X235074D02*X235274D01*
X241274Y118600D02*X241474D01*
X245074D02*X245274D01*
X241474Y122200D02*X241674D01*
X245274D02*X245474D01*
X241474Y125800D02*X241674D01*
X245274D02*X245474D01*
X241374Y129900D02*X241574D01*
X245174D02*X245374D01*
X231174Y118900D02*X231374D01*
X234974D02*X235174D01*
X231074Y122800D02*X231274D01*
X234874D02*X235074D01*
X231074Y126300D02*X231274D01*
X234874D02*X235074D01*
X231200Y130100D02*X231400D01*
X235000D02*X235200D01*
X241374Y114900D02*X241574D01*
X245174D02*X245374D01*
X231174Y115200D02*X231374D01*
X234974D02*X235174D01*
X167000Y87426D02*Y87226D01*
Y83626D02*Y83426D01*
G54D239*X308343Y89893D02*Y89107D01*
X301257Y89893D02*Y89107D01*
G54D241*X116008Y345059D02*X116992D01*
X116008Y339941D02*X116992D01*
X116008Y282059D02*X116992D01*
X116008Y276941D02*X116992D01*
X116008Y217559D02*X116992D01*
X116008Y212441D02*X116992D01*
G54D240*X128474Y44426D02*Y44226D01*
Y40626D02*Y40426D01*
X132926Y44074D02*Y43874D01*
Y40274D02*Y40074D01*
X162500Y105300D02*X162700D01*
X166300D02*X166500D01*
X121100Y104100D02*Y103900D01*
Y107900D02*Y107700D01*
X262474Y96700D02*X262674D01*
X266274D02*X266474D01*
X250300Y126200D02*X250500D01*
X254100D02*X254300D01*
X259800Y140400D02*X260000D01*
X263600D02*X263800D01*
X269900Y146900D02*X270100D01*
X266100D02*X266300D01*
X247800Y99400D02*X248000D01*
X251600D02*X251800D01*
G54D241*X257041Y145992D02*Y145008D01*
X262159Y145992D02*Y145008D01*
X302308Y76482D02*X303292D01*
X302308Y81600D02*X303292D01*
G54D240*X300400Y129800D02*Y129600D01*
Y126000D02*Y125800D01*
X299900Y111400D02*Y111200D01*
Y115200D02*Y115000D01*
X246900Y87900D02*Y87700D01*
Y91700D02*Y91500D01*
X274200Y97900D02*X274400D01*
X278000D02*X278200D01*
X256600Y93600D02*X256800D01*
X252800D02*X253000D01*
G54D239*X244214Y80093D02*Y79307D01*
X251300Y80093D02*Y79307D01*
G54D241*X262418Y79192D02*Y78208D01*
X257300Y79192D02*Y78208D01*
X297159Y144092D02*Y143108D01*
X292041Y144092D02*Y143108D01*
G54D239*X283500Y88693D02*Y87907D01*
X290586Y88693D02*Y87907D01*
G54D240*X288400Y138900D02*X288600D01*
X292200D02*X292400D01*
X288500Y99000D02*X288700D01*
X292300D02*X292500D01*
X219900Y101200D02*Y101000D01*
Y97400D02*Y97200D01*
X223800Y101300D02*Y101100D01*
Y97500D02*Y97300D01*
X238100Y253000D02*X238300D01*
X241900D02*X242100D01*
X217300Y252900D02*X217500D01*
X213500D02*X213700D01*
G54D239*X240657Y138893D02*Y138107D01*
X247743Y138893D02*Y138107D01*
G54D240*X272574Y151500D02*X272774D01*
X276374D02*X276574D01*
G54D239*X245183Y217793D02*Y217007D01*
X252269Y217793D02*Y217007D01*
X229260Y241193D02*Y240407D01*
X222174Y241193D02*Y240407D01*
G54D240*X278826Y248200D02*X279026D01*
X282626D02*X282826D01*
X223226Y227000D02*X223426D01*
X227026D02*X227226D01*
X223226Y214800D02*X223426D01*
X227026D02*X227226D01*
X269426Y224700D02*X269626D01*
X273226D02*X273426D01*
X241352Y202400D02*X241552D01*
X245152D02*X245352D01*
X224800Y258700D02*Y258500D01*
Y262500D02*Y262300D01*
X234300Y258700D02*Y258500D01*
Y262500D02*Y262300D01*
X276426Y220800D02*X276626D01*
X280226D02*X280426D01*
X215900Y258700D02*Y258500D01*
Y262500D02*Y262300D01*
G54D239*X253607Y251583D02*X254393D01*
X253607Y258669D02*X254393D01*
G54D240*X173400Y72400D02*X173600D01*
X169600D02*X169800D01*
X173400Y76000D02*X173600D01*
X169600D02*X169800D01*
X252300Y197526D02*Y197326D01*
Y193726D02*Y193526D01*
X231500Y197500D02*Y197300D01*
Y193700D02*Y193500D01*
X260774Y197400D02*Y197200D01*
Y193600D02*Y193400D01*
G54D239*X270857Y198593D02*Y197807D01*
X277943Y198593D02*Y197807D01*
G54D240*X216983Y221100D02*X217183D01*
X213183D02*X213383D01*
X217183Y246800D02*X217383D01*
X213383D02*X213583D01*
X217143Y235900D02*X217343D01*
X213343D02*X213543D01*
G54D239*X223260Y199193D02*Y198407D01*
X216174Y199193D02*Y198407D01*
G54D240*X278626Y207400D02*X278826D01*
X282426D02*X282626D01*
X277926Y234500D02*X278126D01*
X281726D02*X281926D01*
G54D239*X271483Y215593D02*Y214807D01*
X278569Y215593D02*Y214807D01*
G54D240*X260700Y258700D02*Y258500D01*
Y262500D02*Y262300D01*
X279000Y258900D02*X279200D01*
X282800D02*X283000D01*
X269800Y258700D02*Y258500D01*
Y262500D02*Y262300D01*
X275100Y330000D02*Y329800D01*
Y333800D02*Y333600D01*
X297200Y333826D02*Y333626D01*
Y330026D02*Y329826D01*
M02*
