G04 start of page 2 for group 0 idx 0 *
G04 Title: (unknown), component *
G04 Creator: pcb 20110918 *
G04 CreationDate: Thu 31 May 2012 11:38:54 AM GMT UTC *
G04 For: pmonta *
G04 Format: Gerber/RS-274X *
G04 PCB-Dimensions: 400000 320000 *
G04 PCB-Coordinate-Origin: lower left *
%MOIN*%
%FSLAX25Y25*%
%LNTOP*%
%ADD48C,0.0354*%
%ADD47C,0.1280*%
%ADD46C,0.0400*%
%ADD45C,0.0350*%
%ADD44C,0.0380*%
%ADD43C,0.1000*%
%ADD42C,0.0620*%
%ADD41C,0.1100*%
%ADD40C,0.1250*%
%ADD39C,0.0150*%
%ADD38C,0.0250*%
%ADD37R,0.0160X0.0160*%
%ADD36R,0.1200X0.1200*%
%ADD35R,0.0200X0.0200*%
%ADD34R,0.0370X0.0370*%
%ADD33R,0.0300X0.0300*%
%ADD32R,0.0118X0.0118*%
%ADD31R,0.1043X0.1043*%
%ADD30R,0.0098X0.0098*%
%ADD29R,0.0591X0.0591*%
%ADD28R,0.0965X0.0965*%
%ADD27R,0.0512X0.0512*%
%ADD26R,0.0295X0.0295*%
%ADD25R,0.0197X0.0197*%
%ADD24R,0.0280X0.0280*%
%ADD23C,0.0554*%
%ADD22C,0.1480*%
%ADD21C,0.0820*%
%ADD20C,0.0550*%
%ADD19C,0.0600*%
%ADD18C,0.1450*%
%ADD17C,0.1200*%
%ADD16C,0.0830*%
%ADD15C,0.1300*%
%ADD14C,0.0120*%
%ADD13C,0.0060*%
%ADD12C,0.0180*%
%ADD11C,0.0001*%
G54D11*G36*
X242207Y285900D02*X244880D01*
X244848Y285864D01*
X244766Y285729D01*
X244706Y285584D01*
X244669Y285431D01*
X244660Y285274D01*
X244667Y272900D01*
X229900D01*
Y280907D01*
X229996Y280824D01*
X230131Y280742D01*
X230276Y280682D01*
X230429Y280645D01*
X230586Y280636D01*
X241371Y280645D01*
X241524Y280682D01*
X241669Y280742D01*
X241804Y280824D01*
X241923Y280927D01*
X242026Y281046D01*
X242108Y281181D01*
X242168Y281326D01*
X242205Y281479D01*
X242214Y281636D01*
X242207Y285900D01*
G37*
G36*
X231600Y308400D02*X245671D01*
X245679Y299520D01*
X245716Y299367D01*
X245776Y299222D01*
X245858Y299087D01*
X245961Y298968D01*
X246080Y298865D01*
X246215Y298783D01*
X246360Y298723D01*
X246513Y298686D01*
X246670Y298677D01*
X253800Y298682D01*
Y294300D01*
X242212D01*
X242205Y298721D01*
X242168Y298874D01*
X242108Y299019D01*
X242026Y299154D01*
X241923Y299273D01*
X241804Y299376D01*
X241669Y299458D01*
X241524Y299518D01*
X241371Y299555D01*
X241214Y299564D01*
X231600Y299556D01*
Y308400D01*
G37*
G36*
X319130Y285900D02*X321087D01*
X321095Y281479D01*
X321132Y281326D01*
X321192Y281181D01*
X321274Y281046D01*
X321377Y280927D01*
X321496Y280824D01*
X321631Y280742D01*
X321776Y280682D01*
X321929Y280645D01*
X322086Y280636D01*
X332871Y280645D01*
X333024Y280682D01*
X333169Y280742D01*
X333304Y280824D01*
X333423Y280927D01*
X333526Y281046D01*
X333608Y281181D01*
X333668Y281326D01*
X333705Y281479D01*
X333714Y281636D01*
X333707Y285900D01*
X335200D01*
Y273600D01*
X333912D01*
X333905Y278016D01*
X333868Y278169D01*
X333808Y278314D01*
X333726Y278449D01*
X333623Y278568D01*
X333504Y278671D01*
X333369Y278753D01*
X333224Y278813D01*
X333071Y278850D01*
X332914Y278859D01*
X322129Y278850D01*
X321976Y278813D01*
X321831Y278753D01*
X321696Y278671D01*
X321577Y278568D01*
X321474Y278449D01*
X321392Y278314D01*
X321332Y278169D01*
X321295Y278016D01*
X321286Y277859D01*
X321293Y273600D01*
X319438D01*
X319431Y285331D01*
X319394Y285484D01*
X319334Y285629D01*
X319252Y285764D01*
X319149Y285883D01*
X319130Y285900D01*
G37*
G36*
X270400Y318200D02*X294100D01*
Y310321D01*
X284013Y310314D01*
X283860Y310277D01*
X283715Y310217D01*
X283580Y310135D01*
X283461Y310032D01*
X283358Y309913D01*
X283276Y309778D01*
X283216Y309633D01*
X283179Y309480D01*
X283170Y309323D01*
X283177Y301400D01*
X281328D01*
X281321Y309480D01*
X281284Y309633D01*
X281224Y309778D01*
X281142Y309913D01*
X281039Y310032D01*
X280920Y310135D01*
X280785Y310217D01*
X280640Y310277D01*
X280487Y310314D01*
X280330Y310323D01*
X270400Y310316D01*
Y318200D01*
G37*
G36*
X331200Y308500D02*Y299563D01*
X321929Y299555D01*
X321776Y299518D01*
X321631Y299458D01*
X321496Y299376D01*
X321377Y299273D01*
X321274Y299154D01*
X321192Y299019D01*
X321132Y298874D01*
X321095Y298721D01*
X321086Y298564D01*
X321092Y294900D01*
X309300D01*
Y298680D01*
X317987Y298686D01*
X318140Y298723D01*
X318285Y298783D01*
X318420Y298865D01*
X318539Y298968D01*
X318642Y299087D01*
X318724Y299222D01*
X318784Y299367D01*
X318821Y299520D01*
X318830Y299677D01*
X318822Y308500D01*
X331200D01*
G37*
G36*
X281325Y304500D02*X283175D01*
X283179Y299520D01*
X283216Y299367D01*
X283276Y299222D01*
X283358Y299087D01*
X283461Y298968D01*
X283580Y298865D01*
X283715Y298783D01*
X283860Y298723D01*
X284013Y298686D01*
X284170Y298677D01*
X290900Y298682D01*
Y288000D01*
X286200D01*
Y292100D01*
X277800D01*
Y288000D01*
X273736D01*
Y298682D01*
X280487Y298686D01*
X280640Y298723D01*
X280785Y298783D01*
X280920Y298865D01*
X281039Y298968D01*
X281142Y299087D01*
X281224Y299222D01*
X281284Y299367D01*
X281321Y299520D01*
X281330Y299677D01*
X281325Y304500D01*
G37*
G36*
X303800Y254900D02*X308876D01*
X308845Y254771D01*
X308836Y254614D01*
X308845Y244400D01*
X303800D01*
Y254900D01*
G37*
G36*
X332300Y259940D02*Y244600D01*
X327763D01*
X327755Y254771D01*
X327718Y254924D01*
X327658Y255069D01*
X327576Y255204D01*
X327473Y255323D01*
X327354Y255426D01*
X327219Y255508D01*
X327074Y255568D01*
X326921Y255605D01*
X326764Y255614D01*
X322900Y255607D01*
Y259932D01*
X332300Y259940D01*
G37*
G36*
X80800Y193500D02*X83800D01*
Y189500D01*
X80800D01*
Y193500D01*
G37*
G36*
Y130500D02*X83800D01*
Y126500D01*
X80800D01*
Y130500D01*
G37*
G36*
Y256500D02*X83800D01*
Y252500D01*
X80800D01*
Y256500D01*
G37*
G36*
X41900Y193500D02*X43900D01*
Y189500D01*
X41900D01*
Y193500D01*
G37*
G36*
X1000D02*X43000D01*
Y189500D01*
X1000D01*
Y193500D01*
G37*
G36*
Y130500D02*X43000D01*
Y126500D01*
X1000D01*
Y130500D01*
G37*
G36*
Y256500D02*X43000D01*
Y252500D01*
X1000D01*
Y256500D01*
G37*
G36*
X82000Y193500D02*X126200D01*
Y189500D01*
X82000D01*
Y193500D01*
G37*
G36*
Y130500D02*X126200D01*
Y126500D01*
X82000D01*
Y130500D01*
G37*
G36*
Y256500D02*X126200D01*
Y252500D01*
X82000D01*
Y256500D01*
G37*
G36*
X42900Y193500D02*X82100D01*
Y189500D01*
X42900D01*
Y193500D01*
G37*
G36*
X41900Y130500D02*X43900D01*
Y126500D01*
X41900D01*
Y130500D01*
G37*
G36*
X42900D02*X82100D01*
Y126500D01*
X42900D01*
Y130500D01*
G37*
G36*
X41900Y256500D02*X43900D01*
Y252500D01*
X41900D01*
Y256500D01*
G37*
G36*
X42900D02*X82100D01*
Y252500D01*
X42900D01*
Y256500D01*
G37*
G54D12*X74500Y299274D02*X74426Y299348D01*
X74422Y302500D02*X74426Y302496D01*
X71500Y302500D02*X74422D01*
X74500Y296800D02*Y299274D01*
X73674Y290726D02*X74500Y289900D01*
X71500Y290726D02*X73674D01*
X74026Y293874D02*X74300Y293600D01*
X71500Y293874D02*X74026D01*
G54D13*X75200Y296000D02*X74500Y296700D01*
G54D12*X63974Y295100D02*X64000Y295074D01*
X61100Y295100D02*X63974D01*
X62926Y290852D02*X64000Y291926D01*
X62926Y288000D02*Y290852D01*
X63074Y291000D02*X64000Y291926D01*
X59574Y291000D02*X63074D01*
G54D13*X64500Y278700D02*Y274400D01*
X64400D02*X64413Y274413D01*
X60200Y274400D02*X64400D01*
G54D12*X64500Y268626D02*X64400Y268526D01*
X64500Y271352D02*Y268626D01*
G54D13*X60200Y271252D02*Y268900D01*
X60000Y268700D01*
X69831Y284031D02*X64500Y278700D01*
X68700Y282900D02*X69831Y284031D01*
G54D12*X71000Y277926D02*Y275300D01*
X68426Y288000D02*X69926Y286500D01*
X66074Y288000D02*X68426D01*
X74400Y270000D02*X74600Y269800D01*
X74400Y272426D02*Y270000D01*
X71024Y281050D02*X71000Y281074D01*
X74550Y281050D02*X71024D01*
X74350Y275624D02*X74400Y275574D01*
X74350Y277850D02*Y275624D01*
X71000Y275300D02*X70800Y275100D01*
G54D13*X74900Y278400D02*X74550Y278050D01*
X76200Y278400D02*X74900D01*
X77893Y280093D02*X76200Y278400D01*
X75562Y282062D02*X74500Y281000D01*
X79787Y282062D02*X75562D01*
X79787Y280093D02*X77893D01*
X73574Y286000D02*X73074Y286500D01*
X79787Y286000D02*X73574D01*
X69831Y284031D02*X79787D01*
X76400Y291500D02*X74400Y293500D01*
X77200Y296000D02*X75200D01*
X79787Y293413D02*X77200Y296000D01*
X79787Y291907D02*Y293413D01*
X76700Y291500D02*X76400D01*
X76431Y287969D02*X74600Y289800D01*
X76800Y291400D02*X76700Y291500D01*
X76800Y290700D02*Y291400D01*
X77562Y289938D02*X76800Y290700D01*
X79787Y289938D02*X77562D01*
X79787Y287969D02*X76431D01*
G54D12*X80900Y300600D02*X82250Y299250D01*
G54D13*X83093Y298407D02*X80900Y300600D01*
X83093Y295213D02*Y298407D01*
X85062Y295213D02*Y302638D01*
X82700Y305000D01*
Y312100D01*
X84800Y305300D02*Y309500D01*
G54D12*X94126Y258626D02*X94200Y258700D01*
X91400Y258626D02*X94126D01*
G54D13*X87300Y259526D02*X87274Y259500D01*
X87300Y261300D02*Y259526D01*
X86800Y261800D02*X87300Y261300D01*
X88374Y264000D02*X90174D01*
X88174Y264200D02*X88374Y264000D01*
X90174D02*X92300Y261874D01*
G54D12*X95300Y263400D02*X95700Y263000D01*
X95300Y264500D02*Y263400D01*
X94200Y265600D02*X95300Y264500D01*
X94200Y265926D02*Y265600D01*
G54D13*X105126Y267400D02*Y263600D01*
X89000Y276788D02*Y272500D01*
X90969Y276788D02*Y274031D01*
X94300Y271900D02*X94200Y271800D01*
X94300Y273200D02*Y271900D01*
X92938Y274562D02*X94300Y273200D01*
X92938Y276788D02*Y274562D01*
X105226Y260074D02*X105600Y259700D01*
X105226Y263500D02*Y260074D01*
X105126Y263600D02*X105226Y263500D01*
X101700Y267826D02*Y263574D01*
X101774Y259774D02*X101600Y259600D01*
X101774Y263500D02*Y259774D01*
X101700Y263574D02*X101774Y263500D01*
G54D12*X98626Y261226D02*X97200Y259800D01*
X98626Y263500D02*Y261226D01*
G54D13*X101500Y271174D02*X101700Y270974D01*
X101500Y273000D02*Y271174D01*
X97712Y276788D02*X101500Y273000D01*
X94907Y276788D02*X97712D01*
G54D12*X105350Y271350D02*X105600Y271100D01*
X105350Y272850D02*Y271350D01*
X104900Y273300D02*X105350Y272850D01*
X104900Y273800D02*Y273300D01*
G54D13*X105600Y272600D01*
X104900Y273878D02*Y273300D01*
G54D12*X81500Y258300D02*X81200Y258600D01*
X82900Y258300D02*X81500D01*
X84100Y259500D02*X82900Y258300D01*
X84126Y259500D02*X84100D01*
X77426Y262226D02*X77400Y262200D01*
X80500Y262226D02*X77426D01*
G54D13*X83126Y268000D02*X80500Y265374D01*
G54D12*X78026Y268474D02*X78100Y268400D01*
X78026Y271400D02*Y268474D01*
G54D13*X81400Y271626D02*X81174Y271400D01*
X86100Y261800D02*X86800D01*
X85226Y262674D02*X86100Y261800D01*
X85226Y264000D02*Y262674D01*
X88174Y268000D02*Y264200D01*
X85026Y268000D02*X83126D01*
X89300D02*X88174D01*
X83900Y269126D02*X85026Y268000D01*
X83900Y272800D02*Y269126D01*
G54D12*X81174Y271400D02*Y272774D01*
G54D13*X81600Y271826D02*X81387Y271613D01*
X81600Y273200D02*Y271826D01*
G54D12*X81174Y272774D02*X81750Y273350D01*
G54D13*X83093Y274693D02*X81600Y273200D01*
X83093Y276788D02*Y274693D01*
X85062Y274100D02*Y273962D01*
X87031Y276788D02*Y272431D01*
X85062Y276788D02*Y274062D01*
X91850Y273050D02*Y270950D01*
X90969Y273931D02*X91850Y273050D01*
G54D12*X94200Y271800D02*Y269074D01*
G54D13*X90969Y274069D02*Y273931D01*
X85062Y273962D02*X83900Y272800D01*
X87031Y272431D02*X86500Y271900D01*
X90000Y268700D02*X89300Y268000D01*
X90000Y269100D02*Y268700D01*
X91850Y270950D02*X90000Y269100D01*
X89000Y272500D02*X89600Y271900D01*
X128578Y203622D02*X130200Y202000D01*
X130547Y204953D02*X130600Y204900D01*
X132516Y207084D02*X133200Y206400D01*
X128900Y198600D02*X132400D01*
X128578Y209713D02*Y203622D01*
X130547Y209713D02*Y204953D01*
X132516Y209713D02*Y207084D01*
X126800Y203800D02*Y202300D01*
X127100Y204100D02*X126800Y203800D01*
X127100Y206000D02*Y204100D01*
X126609Y206491D02*X127100Y206000D01*
X126609Y209713D02*Y206491D01*
X124640Y204960D02*X124800Y204800D01*
X124640Y209713D02*Y204960D01*
G54D12*X110652Y210152D02*X110300Y209800D01*
X110500Y203300D02*X111300Y204100D01*
X107974Y203300D02*X110500D01*
X115000Y200200D02*X114800Y200000D01*
X121800Y198526D02*X124626D01*
X124700Y198600D01*
X115000Y202926D02*Y200200D01*
X121800Y201974D02*X122100Y201674D01*
X121800Y204700D02*Y201974D01*
G54D13*X122671Y205571D02*X121900Y204800D01*
X122671Y209513D02*Y205571D01*
G54D12*X114700Y206374D02*X115000Y206074D01*
X114700Y208900D02*Y206374D01*
X109200Y197000D02*X109800Y196400D01*
X109200Y198100D02*Y197000D01*
X107974Y199326D02*X109200Y198100D01*
X107974Y199500D02*Y199326D01*
X110652Y212874D02*Y210152D01*
G54D13*X114700Y208700D02*Y209400D01*
X115065Y214139D02*X113800Y212874D01*
X120213Y214139D02*X115065D01*
X119843Y212000D02*X120013Y212170D01*
X117300Y212000D02*X119843D01*
X114700Y209400D02*X117300Y212000D01*
X120213Y216108D02*X114492D01*
X113600Y217000D02*X111574D01*
X114492Y216108D02*X113600Y217000D01*
X111974Y220100D02*X111787Y220287D01*
X112800Y220100D02*X111974D01*
X114823Y218077D02*X112800Y220100D01*
X112700D02*X111974D01*
X120213Y218077D02*X114823D01*
X111974Y220100D02*X111574Y220500D01*
X115800Y221200D02*X115500Y220900D01*
X117300Y221200D02*X115800D01*
X118115Y222015D02*X117300Y221200D01*
X120213Y222015D02*X118115D01*
X133200Y205000D02*X133400Y204800D01*
X133200Y206400D02*Y205000D01*
X132400Y198600D02*X139800Y206000D01*
X143500Y200100D02*X145100D01*
X145300Y200300D01*
X143600Y197900D02*X146900D01*
X149400Y200400D01*
X153900Y198300D02*X153600Y198600D01*
G54D12*X105600Y207900D02*X105500Y207800D01*
X105600Y209300D02*Y207900D01*
X105000Y209900D02*X105600Y209300D01*
X105000Y210926D02*Y209900D01*
G54D13*X95095Y213600D02*X94907Y213788D01*
X96500Y213600D02*X95095D01*
X101800Y208300D02*X96500Y213600D01*
X101800Y206274D02*Y208300D01*
G54D12*X94050Y208750D02*Y206124D01*
G54D13*X93600Y209200D02*X94100Y208700D01*
X93600Y211100D02*Y209200D01*
X92938Y211762D02*X93600Y211100D01*
X92938Y213788D02*Y211762D01*
X91700Y210600D02*Y207700D01*
X90969Y211331D02*X91700Y210600D01*
X90969Y213788D02*Y211331D01*
X87031Y213788D02*Y209431D01*
X89000Y209300D02*X89500Y208800D01*
X89000Y213788D02*Y209300D01*
G54D12*X104700Y214374D02*X105000Y214074D01*
X104700Y215300D02*Y214374D01*
X103550Y216450D02*X104700Y215300D01*
X103250Y216450D02*X103550D01*
G54D13*X100638Y219062D02*X103100Y216600D01*
X102069Y221031D02*X106500Y216600D01*
X108326Y220400D02*X108363Y220437D01*
X105100Y220400D02*X108326D01*
X102500Y223000D02*X105100Y220400D01*
X108126Y220200D02*X108426Y220500D01*
X108026Y216600D02*X108426Y217000D01*
X106500Y216600D02*X108026D01*
X108126Y216700D02*X108426Y217000D01*
X101774Y203100D02*X101800Y203126D01*
X104663Y203137D02*X104826Y203300D01*
X101774Y199700D02*Y203100D01*
X104663Y199663D02*Y203137D01*
X105300Y199026D02*X104826Y199500D01*
X105300Y196200D02*Y199026D01*
X101600Y199526D02*X101774Y199700D01*
X101600Y196300D02*Y199526D01*
G54D12*X98626Y199700D02*Y197426D01*
G54D13*X88374Y201700D02*X91100Y198974D01*
X87500Y197174D02*X87674Y197000D01*
X86100Y199400D02*X86800D01*
X87700Y198500D01*
Y197000D01*
X88474Y201800D02*X88374Y201700D01*
X88474Y205500D02*Y201800D01*
X89174Y206200D02*X88374Y205400D01*
X90200Y206200D02*X89174D01*
X91700Y207700D02*X90200Y206200D01*
X87031Y209431D02*X86400Y208800D01*
G54D12*X98626Y197426D02*X97600Y196400D01*
X94226Y195826D02*X94300Y195900D01*
X91100Y195826D02*X94226D01*
X95300Y200200D02*X95600Y199900D01*
X95300Y201600D02*Y200200D01*
X94000Y202900D02*X95300Y201600D01*
X94000Y202926D02*Y202900D01*
X94050Y206124D02*X94000Y206074D01*
G54D13*X64600Y217100D02*Y215100D01*
X68400Y220900D02*X64600Y217100D01*
X68400Y221000D02*Y220900D01*
X68431Y221031D02*X68400Y221000D01*
G54D12*X62800Y225626D02*X62926Y225500D01*
X62900Y225526D01*
Y227900D01*
X64000Y229226D02*Y229100D01*
X66074Y225500D02*X68426D01*
X64000Y229200D02*X62700Y227900D01*
G54D13*X83600Y207026D02*X85226Y205400D01*
X83526D01*
X85062Y205564D02*X85226Y205400D01*
G54D12*X77926Y205374D02*X78000Y205300D01*
X77926Y208000D02*Y205374D01*
X74500Y209226D02*Y206700D01*
G54D13*X83600Y210500D02*Y207026D01*
X81200Y208126D02*X81074Y208000D01*
X81200Y212400D02*Y208126D01*
X82588Y213788D02*X81200Y212400D01*
X83093Y213788D02*X82588D01*
X83526Y205400D02*X80500Y202374D01*
X85062Y211962D02*X83600Y210500D01*
X85062Y213788D02*Y211962D01*
G54D12*X80700Y195800D02*X80600Y195900D01*
X83200Y195800D02*X80700D01*
X77426Y199226D02*X77300Y199100D01*
X80500Y199226D02*X77426D01*
X77474Y198926D02*X77300Y199100D01*
X84400Y197000D02*X83200Y195800D01*
X84526Y197000D02*X84400D01*
G54D13*X85200Y201700D02*Y200300D01*
X86100Y199400D01*
X74074Y223000D02*X73574Y223500D01*
X79787Y223000D02*X74074D01*
X76231Y224969D02*X74400Y226800D01*
X79787Y224969D02*X76231D01*
X79787Y226938D02*X78062D01*
G54D12*X68426Y225500D02*X70426Y223500D01*
G54D13*X60200Y211274D02*X60100Y211174D01*
X64600Y211274D02*X60200D01*
X64600Y215300D02*Y211274D01*
G54D12*Y205726D02*X64300Y205426D01*
X64600Y208126D02*Y205726D01*
G54D13*X60100Y208026D02*Y205600D01*
X60000Y205500D01*
X70431Y221031D02*X68431D01*
X79787D02*X70331D01*
X76593Y217093D02*X74400Y214900D01*
G54D12*X74500Y214800D02*X74400Y214900D01*
X74500Y212374D02*Y214800D01*
G54D13*X79787Y217093D02*X76593D01*
X75962Y219062D02*X74800Y217900D01*
X79787Y219062D02*X75962D01*
G54D12*X71000Y212300D02*X70700Y212000D01*
X71000Y214926D02*Y212300D01*
X71174Y217900D02*X71000Y218074D01*
X74400Y217900D02*X71174D01*
G54D13*X144329Y236487D02*X171413D01*
X146787Y229892D02*X151108D01*
X142360Y238560D02*X145300Y241500D01*
X146200Y244200D02*X148000D01*
X140391Y238391D02*X146200Y244200D01*
X138850Y238850D02*X148100Y248100D01*
X138422Y238422D02*X139500Y239500D01*
X142360Y236287D02*Y238560D01*
X140391Y236900D02*Y238391D01*
Y236287D02*Y237391D01*
X139100Y242600D02*X149300Y252800D01*
X138800Y246800D02*X150000Y258000D01*
X132900Y243500D02*X149400Y260000D01*
X132100Y247300D02*X136500Y251700D01*
X138422Y236287D02*Y238422D01*
X136453Y236287D02*Y239953D01*
X139500Y243000D01*
X134484Y242484D02*X139000Y247000D01*
X134484Y236287D02*Y242484D01*
X151108Y229892D02*X169500Y211500D01*
X169800Y204600D02*X166900D01*
X164500Y206200D02*X166000Y207700D01*
X169752D01*
X169819Y207767D02*X169752Y207700D01*
X162588Y209736D02*X162000Y209148D01*
Y206000D02*X159200D01*
X159100Y205900D01*
X156300Y209200D02*X162052D01*
X162376Y209524D01*
X163700Y203000D02*X164500Y203800D01*
X142900Y204200D02*X151400D01*
X144000Y202700D02*X163400D01*
X163900Y203200D01*
X139800Y206000D02*X149600D01*
X164500Y203800D02*Y206200D01*
X151400Y204200D02*X156400Y209200D01*
X149600Y206000D02*X151900Y208300D01*
X78062Y226938D02*X74600Y230400D01*
X79787Y230513D02*X77100Y233200D01*
X79787Y228907D02*Y230513D01*
X75200Y233200D02*X74500Y233900D01*
X77100Y233200D02*X75200D01*
G54D12*X74500Y233800D02*X74400Y233700D01*
X74500Y237426D02*Y233800D01*
X56326Y228100D02*X56526Y227900D01*
X54674Y235774D02*X54400Y235500D01*
X54674Y239400D02*Y235774D01*
X54574Y246226D02*X54400Y246400D01*
X54574Y243000D02*Y246226D01*
X50250Y228100D02*X56326D01*
X60874Y232574D02*X60400Y232100D01*
X63500Y232574D02*X60874D01*
G54D13*X50700Y232526D02*X50800Y232626D01*
X50700Y228100D02*Y232526D01*
G54D12*X53300Y225500D02*X53900Y224900D01*
X50250Y225500D02*X53300D01*
X62700Y227900D02*X59674D01*
X47913Y239387D02*X47900Y239400D01*
X51513Y239387D02*X47913D01*
X51526Y239400D02*Y242900D01*
X50800Y238674D02*X51526Y239400D01*
X50800Y235774D02*Y238674D01*
X51426Y245374D02*X50600Y246200D01*
X51426Y243000D02*Y245374D01*
X51526Y242900D02*X51426Y243000D01*
X50426Y246374D02*X50400Y246400D01*
X46526Y214226D02*X46300Y214000D01*
X46526Y217100D02*Y214226D01*
G54D13*X50250Y217176D02*X49574Y216500D01*
X50250Y222900D02*Y217176D01*
G54D12*X42650Y223000D02*X42750Y222900D01*
X38200Y225500D02*X37900Y225800D01*
X42750Y225500D02*X38200D01*
X39700Y228100D02*X38900Y228900D01*
X42750Y228100D02*X39700D01*
X35574Y223000D02*X42650D01*
X28600D02*X32426D01*
X31500Y219800D02*X31900Y219400D01*
X28500Y219800D02*X31500D01*
X25426Y219926D02*X24900Y219400D01*
X28500Y219926D02*X25426D01*
X28500Y217000D02*X28400Y216900D01*
X28500Y219926D02*Y217000D01*
X28426Y223000D02*X28500Y223074D01*
X25574Y223000D02*X28426D01*
X10600D02*X22426D01*
X71226Y240574D02*X71200Y240600D01*
X74500Y240574D02*X71226D01*
G54D13*X66000Y250500D02*X74800D01*
X75700Y251400D01*
G54D12*X71326Y227600D02*X70000Y228926D01*
X73100Y227600D02*X71326D01*
X73900Y226800D02*X73100Y227600D01*
X74400Y226800D02*X73900D01*
X74400Y230400D02*X74200D01*
X74400D02*X73600D01*
X72000Y232000D01*
X70074D01*
X70000Y232074D01*
G54D13*X98212Y219062D02*X100638D01*
X98212Y221031D02*X102069D01*
X98212Y223000D02*X102500D01*
X98212Y224969D02*X102569D01*
X98212Y226938D02*X101738D01*
X101300Y238226D02*X101574Y238500D01*
X101300Y235400D02*Y238226D01*
X98212Y232312D02*X101300Y235400D01*
X97800Y237874D02*X98426Y238500D01*
X97800Y235100D02*Y237874D01*
X98212Y228907D02*Y232312D01*
X94913Y232213D02*X97800Y235100D01*
X94907Y232213D02*X94913D01*
X95200Y236800D02*Y238126D01*
X94400Y236000D02*X95200Y236800D01*
X94300Y236000D02*X94400D01*
X92938Y234638D02*X94300Y236000D01*
G54D12*X94700Y242500D02*X95500Y241700D01*
X92574Y242500D02*X94700D01*
X89426D02*Y237626D01*
G54D13*X85062Y232213D02*Y245662D01*
X87031Y232213D02*Y245031D01*
X95200Y238126D02*X95574Y238500D01*
X91700Y237774D02*X92426Y238500D01*
X91700Y236300D02*Y237774D01*
X90969Y235569D02*X91700Y236300D01*
X89000Y237200D02*X89300Y237500D01*
G54D12*X89426Y237626D02*X89300Y237500D01*
G54D13*X92938Y232213D02*Y234638D01*
X90969Y232213D02*Y235569D01*
X89000Y232213D02*Y237200D01*
X83093Y232213D02*Y235207D01*
X80800Y237500D01*
X75700Y251400D02*X129000D01*
X128700D02*X128900D01*
X87031Y245031D02*X88800Y246800D01*
G54D12*X119400Y246174D02*X121726D01*
X122100Y245800D01*
G54D13*X126000Y248200D02*X126900Y247300D01*
X131300D01*
X128900Y251400D02*X131800Y254300D01*
X132200Y249700D02*X133100Y250600D01*
X130600Y247300D02*X132100D01*
X89200Y249700D02*X131500D01*
X90100Y248000D02*X114400D01*
X114600Y248200D01*
X126000D01*
X131400Y249700D02*X132200D01*
X85062Y245662D02*X87900Y248500D01*
X87550Y248150D02*X87650D01*
X89200Y249700D01*
X87900Y245900D02*X88000D01*
X90100Y248000D01*
X89600Y247500D02*X90100Y248000D01*
G54D12*X112100Y243500D02*X114878D01*
X114926Y243548D01*
Y240400D02*Y238174D01*
X115100Y238000D01*
G54D13*X130546Y236287D02*Y238846D01*
X131200Y239500D01*
X128577Y239677D02*X130600Y241700D01*
X131200Y239500D02*X132400D01*
X132900Y240000D01*
Y243500D01*
G54D12*X121826Y241526D02*X121650Y241350D01*
X119400Y243026D02*X119974D01*
X121700Y241300D01*
G54D13*X124639Y236287D02*Y243161D01*
X124300Y243500D01*
X126608Y236287D02*Y242808D01*
X127800Y244000D01*
X128577Y236287D02*Y239677D01*
G54D12*X54700Y306126D02*X54574Y306000D01*
Y299126D02*X54600Y299100D01*
X54574Y302000D02*Y299126D01*
X54700Y309000D02*Y306126D01*
X51300D02*X51426Y306000D01*
X51300Y308900D02*Y306126D01*
X51426Y302000D02*Y306000D01*
Y302000D02*X48900D01*
X51000Y301574D02*X51426Y302000D01*
X51000Y298574D02*Y301574D01*
G54D13*X50250Y294676D02*X51000Y295426D01*
X50250Y291100D02*Y294676D01*
G54D12*X28500Y280300D02*Y282926D01*
X28074Y282500D02*X28500Y282926D01*
X25500Y282500D02*X28074D01*
X28926D02*X28500Y282926D01*
X31500Y282500D02*X28926D01*
X21426Y286000D02*X10000D01*
X24648Y286074D02*X24574Y286000D01*
X28500Y286074D02*X24648D01*
X28574Y286000D02*X28500Y286074D01*
X32426Y286000D02*X28574D01*
X46400Y279974D02*X46426Y280000D01*
X46500Y280074D02*X46526Y280100D01*
G54D13*X49674D02*Y285324D01*
G54D12*X46400Y277100D02*Y279974D01*
X38800Y288500D02*X38700Y288600D01*
X42750Y288500D02*X38800D01*
X35674Y285900D02*X35574Y286000D01*
X42750Y285900D02*X35674D01*
G54D13*X49674Y285324D02*X50250Y285900D01*
G54D12*X50450Y291000D02*X50250Y291200D01*
X56426Y291000D02*X50450D01*
X53500Y288500D02*X54000Y288000D01*
X50250Y288500D02*X53500D01*
X39000Y292000D02*X39250D01*
X39900Y291100D02*X39000Y292000D01*
X42750Y291100D02*X39900D01*
G54D13*X160800Y287200D02*X166400Y292800D01*
X159100Y291400D02*X155200D01*
X162450Y294750D02*X159100Y291400D01*
G54D12*X157374Y293726D02*X157400Y293700D01*
X157374Y296700D02*Y293726D01*
X154096Y296830D02*X154226Y296700D01*
X151800Y296830D02*X154096D01*
G54D13*X151470D02*X151500Y296800D01*
X146948Y294700D02*X146787Y294861D01*
X149200Y294700D02*X146948D01*
X146987Y296830D02*X151470D01*
X149800Y294100D02*X149200Y294700D01*
X152500Y294100D02*X149800D01*
X155200Y291400D02*X152500Y294100D01*
G54D12*X157574Y278674D02*X157600Y278700D01*
X157574Y275500D02*Y278674D01*
X151700Y275500D02*X154426D01*
G54D13*X151371Y275171D02*X151600Y275400D01*
X146987Y275171D02*X151371D01*
X154500Y287200D02*X160800D01*
X148808Y292892D02*X154500Y287200D01*
X146787Y292892D02*X148808D01*
X116615Y285015D02*X115600Y284000D01*
X117250Y286350D02*X112698D01*
X117884Y286984D02*X117250Y286350D01*
X120213Y285015D02*X116615D01*
X120195Y281095D02*X120190Y281100D01*
X114500D01*
X112100Y283500D01*
X115953Y288953D02*X115600Y288600D01*
X120213Y288953D02*X115953D01*
X120213Y290922D02*X111996D01*
X112100Y283000D02*X111587Y283513D01*
X111674Y283600D02*X111574Y283500D01*
X112698Y286350D02*X112574Y286474D01*
X112548Y286500D02*X112048Y287000D01*
X111996Y290922D02*X111574Y290500D01*
X112100Y283500D02*X111600D01*
X120213Y286984D02*X117884D01*
G54D12*X108900Y287000D02*X106174D01*
G54D13*X105800Y283600D02*X108326D01*
X106900Y280000D02*X108426D01*
G54D12*X110426Y272926D02*X110400Y272900D01*
X110426Y276000D02*Y272926D01*
X114900Y266226D02*Y263100D01*
X114700Y269574D02*X114900Y269374D01*
X114700Y271900D02*Y269574D01*
X111200Y267400D02*X111400Y267200D01*
G54D13*X117970Y275170D02*X114800Y272000D01*
X120013Y275170D02*X117970D01*
X114713Y277139D02*X113574Y276000D01*
X120213Y277139D02*X114713D01*
G54D12*X108274Y267400D02*X111200D01*
X108374Y261826D02*X110200Y260000D01*
X108374Y263500D02*Y261826D01*
G54D13*X105600Y272600D02*Y270900D01*
G54D12*X125474Y261726D02*X125500Y261700D01*
X122200Y261726D02*X125474D01*
X122000Y265074D02*X122200Y264874D01*
X122000Y267900D02*Y265074D01*
G54D13*X124640Y268160D02*X124900Y267900D01*
X124640Y272713D02*Y268160D01*
X122671Y268571D02*X122000Y267900D01*
X122671Y272513D02*Y268571D01*
X130547Y268153D02*X130700Y268000D01*
X130547Y272713D02*Y268153D01*
X133100Y268300D02*X133500Y267900D01*
X133100Y269300D02*Y268300D01*
X132516Y269884D02*X133100Y269300D01*
X132516Y272713D02*Y269884D01*
G54D12*X111626Y300074D02*X110900Y300800D01*
X111626Y297700D02*Y300074D01*
G54D13*X111774Y293800D02*X111574Y294000D01*
X113600Y293800D02*X111774D01*
X114509Y292891D02*X113600Y293800D01*
X102100Y300974D02*X102074Y301000D01*
X102100Y298900D02*Y300974D01*
X98212Y295012D02*X102100Y298900D01*
X98212Y291907D02*Y295012D01*
X98600Y300674D02*X98926Y301000D01*
X98600Y298600D02*Y300674D01*
X95213Y295213D02*X98600Y298600D01*
X94907Y295213D02*X95213D01*
X98212Y289938D02*X102138D01*
X98212Y287969D02*X102769D01*
X98212Y286000D02*X103400D01*
X98212Y284031D02*X102869D01*
X98237Y282037D02*X101563D01*
X98274Y282000D02*X98212Y282062D01*
X95500Y300926D02*X95574Y301000D01*
X95500Y299200D02*Y300926D01*
X95100Y298800D02*X95500Y299200D01*
X94300Y298800D02*X95100D01*
X92938Y297438D02*X94300Y298800D01*
X92938Y295213D02*Y297438D01*
X92100Y300674D02*X92426Y301000D01*
X92100Y298800D02*Y300674D01*
X90969Y297669D02*X92100Y298800D01*
X90969Y295213D02*Y297669D01*
G54D12*X92374Y304900D02*X95600D01*
X89400Y304600D02*X89300Y304700D01*
G54D13*X95500Y304900D02*X95600Y304800D01*
X92374Y304900D02*X95500D01*
X89300Y304826D02*X89226Y304900D01*
X87031Y303069D02*X84800Y305300D01*
G54D12*X89400Y300600D02*Y304600D01*
G54D13*X89300Y300500D02*Y304826D01*
X89000Y300200D02*X89400Y300600D01*
X89000Y295213D02*Y300200D01*
X87031Y295213D02*Y303069D01*
G54D12*X104900Y277300D02*X104800Y277200D01*
G54D13*Y277126D02*X104900Y277026D01*
G54D12*Y278800D02*Y277300D01*
G54D13*X104800Y278900D02*Y277126D01*
G54D12*X103700Y280000D02*X104900Y278800D01*
G54D13*X112800Y280000D02*X113700Y279100D01*
X111574Y280000D02*X112800D01*
X103700D02*X104800Y278900D01*
X103600Y280000D02*X103700D01*
X108326Y293900D02*X108426Y294000D01*
X106100Y293900D02*X108326D01*
X102138Y289938D02*X106100Y293900D01*
X108326Y290400D02*X108426Y290500D01*
X105200Y290400D02*X108326D01*
X102769Y287969D02*X105200Y290400D01*
X108326Y283600D02*X108426Y283500D01*
X103400Y286000D02*X105800Y283600D01*
X102869Y284031D02*X106900Y280000D01*
X101563Y282037D02*X103600Y280000D01*
X120190Y281100D02*X120213Y281077D01*
X120205Y279100D02*X120213Y279108D01*
X113700Y279100D02*X120205D01*
G54D12*X121950Y307376D02*X122000Y307426D01*
X121950Y304250D02*Y307376D01*
G54D13*X122670Y303530D02*X121900Y304300D01*
X122670Y299487D02*Y303530D01*
G54D12*X115000Y303826D02*X115200Y304026D01*
X115000Y301300D02*Y303826D01*
G54D13*X116000Y300300D02*X115100Y301200D01*
X117600Y300300D02*X116000D01*
X120013Y297887D02*X117600Y300300D01*
X120013Y296829D02*Y297887D01*
X117614Y294860D02*X114774Y297700D01*
X120213Y294860D02*X117614D01*
X120213Y292891D02*X114509D01*
X134484Y299287D02*Y307684D01*
X136453Y299287D02*Y306453D01*
X138422Y304422D02*X141900Y307900D01*
X138422Y299287D02*Y304422D01*
X140391Y299287D02*Y302991D01*
X142500Y305100D01*
X142360Y301860D02*X143100Y302600D01*
X142360Y299287D02*Y301860D01*
X130546Y299287D02*Y308146D01*
X124500Y306400D02*X125400Y307300D01*
X126608Y303908D02*X126700Y304000D01*
X128577Y299287D02*Y301477D01*
X129100Y302000D01*
X124639Y302561D02*X124300Y302900D01*
X124639Y299287D02*Y302561D01*
X124300Y302900D02*Y305300D01*
X124500Y305500D01*
Y306400D01*
X126608Y299287D02*Y303908D01*
X129100Y302000D02*Y311500D01*
X129600Y312000D01*
X173608Y292892D02*X225200Y241300D01*
X175539Y294861D02*X227200Y243200D01*
X192500Y260000D02*X193100Y259400D01*
X193000Y259500D02*X202850Y249650D01*
X193700Y248200D02*X189100Y252800D01*
X188400D01*
X173913Y299487D02*X229200Y244200D01*
X175000Y302600D02*X237000Y240600D01*
X176500Y305100D02*X239100Y242500D01*
X177400Y307900D02*X242900Y242400D01*
X178900Y310600D02*X244800Y244700D01*
X211400Y240700D02*Y247348D01*
X198826Y244926D02*X199000Y245100D01*
X211400Y247348D02*X211452Y247400D01*
X218900Y245100D02*X216600Y247400D01*
X214600D01*
X217026Y241700D02*X215600D01*
X214000Y243300D01*
X211400Y247600D02*Y249900D01*
X212100Y250600D01*
X180600Y313000D02*X248700Y244900D01*
X181500Y316100D02*X250750Y246850D01*
G54D14*X248300Y302600D02*X248400Y302500D01*
X249900Y297700D02*Y300400D01*
X249700Y300600D01*
G54D13*X248613Y267687D02*X250900Y265400D01*
G54D14*X237800Y282200D02*Y279100D01*
X237900Y279000D01*
X240000Y282300D02*Y279000D01*
X240100Y278900D01*
X243300Y282800D02*X240500D01*
X240200Y283100D01*
X243600Y284700D02*X240000D01*
X239800Y284900D01*
X243900Y307400D02*X247900D01*
X248100Y307200D01*
X244400Y304800D02*X247800D01*
X244600Y302600D02*X248300D01*
X244600Y300100D02*X247300D01*
X247700Y300500D01*
X251900Y297600D02*Y300400D01*
X252100Y300600D01*
X233000Y300500D02*Y297800D01*
X247700Y297700D02*Y300400D01*
X247800Y300500D01*
X243900Y284000D02*X247000D01*
X247100Y283900D01*
X243800Y281300D02*X247000D01*
X247100Y281400D01*
X243400Y279200D02*X247300D01*
X243800Y277100D02*X247200D01*
X247400Y276900D01*
X244100Y274400D02*X246600D01*
X246700Y274300D01*
G54D13*X248613Y277400D02*Y267687D01*
X212359Y307800D02*X217426D01*
X207241D02*X204300D01*
X204100Y307600D01*
X220574Y307800D02*X223400D01*
X173700Y292800D02*X173750Y292750D01*
X201526Y256300D02*X199800D01*
X199000Y257100D01*
Y259200D01*
X199100Y259300D01*
G54D14*X233000Y297800D02*X233500Y297300D01*
X235400Y300200D02*Y297300D01*
X235100Y297000D01*
X237700Y300100D02*Y297300D01*
X237500Y297100D01*
X239800Y300300D02*Y297600D01*
X240000Y297400D01*
X243000D02*X240100D01*
X240000Y297300D01*
X243200Y295300D02*X240400D01*
X240300Y295200D01*
X231600Y282300D02*Y279700D01*
X231800Y279500D01*
X233400Y282200D02*Y279700D01*
X233600Y279500D01*
X235500Y282000D02*Y279300D01*
X235800Y279000D01*
G54D13*X181200Y248100D02*X189500Y239800D01*
X218700Y245300D02*X220300Y243700D01*
Y241700D01*
X217200Y241526D02*X217026Y241700D01*
X204874Y256300D02*Y258926D01*
X204800Y259000D01*
X209500Y250574D02*X207374Y252700D01*
X204226D02*X202800D01*
X201700Y253800D01*
Y256274D01*
X201726Y256300D01*
X198826Y242100D02*Y244926D01*
X203600Y240474D02*X201974Y242100D01*
X202500Y250000D02*X207500Y245000D01*
X201500Y247000D02*X205500Y243000D01*
X190500Y258000D02*X201850Y246650D01*
X221400Y241700D02*X222500Y240600D01*
X217800Y239900D02*X217500D01*
X223200Y235500D02*Y237900D01*
X222700Y238400D01*
X219300D01*
X217800Y239900D01*
X217500D02*X217200Y240200D01*
X217300Y238200D02*X216400Y239100D01*
X217200Y240200D02*Y241526D01*
X217300Y235200D02*Y238200D01*
X215400Y236000D02*Y237700D01*
X214800Y238300D01*
X216550Y238950D02*X216100Y239400D01*
X215500D01*
X214800Y240100D01*
Y238300D02*X211000D01*
X209500Y239800D01*
X203600Y235200D02*Y240474D01*
X201700Y236200D02*X200900Y237000D01*
X198600D01*
X220174Y241700D02*X221400D01*
X209500Y239800D02*Y250574D01*
X214800Y240100D02*X212000D01*
X211400Y240700D01*
X225200Y241300D02*Y234537D01*
X225201Y234536D01*
X227200Y243200D02*Y234566D01*
X227170Y234536D01*
X207500Y234556D02*X207480Y234536D01*
X221263D02*Y229637D01*
X221300Y229600D01*
X219294Y234536D02*Y230994D01*
X218000Y229700D01*
X217700Y223600D02*Y226200D01*
X213400Y234500D02*Y230500D01*
X215100Y228800D01*
X217700Y226200D02*X214800Y229100D01*
X229200Y244200D02*Y234597D01*
X229139Y234536D01*
X231000Y234644D02*X231108Y234536D01*
Y231108D01*
X229800Y229800D01*
X233077Y234536D02*Y229723D01*
X233100Y229700D01*
X235046Y234536D02*Y231154D01*
X235300Y230900D01*
Y226800D01*
X235000Y226500D01*
Y223100D01*
G54D12*Y227200D01*
X235300Y227500D01*
G54D13*X207500Y245000D02*Y234556D01*
X205500Y243000D02*Y234547D01*
X205511Y234536D01*
X211418D02*Y230918D01*
X209449Y234536D02*Y231149D01*
X208900Y230600D01*
X211418Y230900D02*Y230518D01*
X210200Y229300D01*
X196259Y211500D02*X196464Y211705D01*
X196290Y213500D02*X196464Y213674D01*
X196438Y213700D02*X196464Y213674D01*
X182200Y213600D02*X196390D01*
X196464Y213674D01*
X196376Y217700D02*X196464Y217612D01*
Y221550D02*X201550D01*
X201600Y221600D01*
X196464Y223519D02*X200419D01*
X201700Y224800D01*
X196407Y215700D02*X196464Y215643D01*
X186400Y217700D02*X196376D01*
X182300Y215700D02*X196407D01*
X196421Y227500D02*X196464Y227457D01*
X196452Y225500D02*X196464Y225488D01*
X196100Y227821D02*X196464Y227457D01*
X196443D01*
X189500Y239800D02*Y227600D01*
X191600Y225500D01*
X186300Y235900D02*Y221600D01*
X183200Y231900D02*Y220900D01*
X186300Y221600D02*X188300Y219600D01*
X183200Y220900D02*X186400Y217700D01*
X178900Y229000D02*Y219100D01*
X169100Y226700D02*X174000Y221800D01*
X188300Y219600D02*X196445D01*
X178900Y219100D02*X182300Y215700D01*
X173600Y222200D02*X182200Y213600D01*
X169500Y211500D02*X196259D01*
X196464Y209736D02*X162588D01*
X196464Y207767D02*X169819D01*
X196464Y203829D02*X201729D01*
X196464Y205798D02*X183276D01*
X201729Y203829D02*X201800Y203900D01*
X183276Y205798D02*X182926Y205448D01*
Y202300D02*X177074D01*
X177000Y202226D01*
Y205374D02*X174274D01*
X174100Y205200D01*
X177000Y202300D02*X174100D01*
X191000Y203600D02*X187000D01*
X186900Y203500D01*
X178000Y244200D02*X186300Y235900D01*
X173600Y241500D02*X183200Y231900D01*
X171413Y236487D02*X178900Y229000D01*
X191600Y225500D02*X196452D01*
X201700Y231300D02*Y234300D01*
X196443Y227457D02*X193700Y230200D01*
X201600Y229300D02*X196800Y234100D01*
X201700Y233900D02*Y235200D01*
Y234700D02*Y236200D01*
G54D12*X151700Y149200D02*X151600Y149300D01*
G54D13*X151471Y149171D02*X151600Y149300D01*
X155000Y142200D02*X156100Y143300D01*
X150900Y143800D02*X151800Y144700D01*
G54D12*X157674Y152526D02*X157600Y152600D01*
X157674Y149200D02*Y152526D01*
G54D13*X126609Y146713D02*Y144391D01*
X127300Y143700D01*
Y139800D01*
X126500Y139000D01*
X133100Y127800D02*X140100Y134800D01*
X130100Y123300D02*Y129500D01*
X139000Y138400D01*
X131600Y128700D02*X139500Y136600D01*
X139150Y136250D02*X140100Y137200D01*
X137000Y139100D02*X140100Y142200D01*
X133500Y138700D02*X134200D01*
X139300Y143800D01*
X138700Y138100D02*X140300Y139700D01*
G54D12*X154526Y149200D02*X151700D01*
G54D13*X146987Y149171D02*X151471D01*
G54D12*X154276Y170550D02*X154426Y170700D01*
X151650Y170550D02*X154276D01*
X157574Y167774D02*X157400Y167600D01*
X157574Y170700D02*Y167774D01*
G54D13*X151370Y170830D02*X151500Y170700D01*
X146987Y170830D02*X151370D01*
X140100Y142200D02*X155000D01*
X140100Y134800D02*X152200D01*
X140300Y139700D02*X144200D01*
X144400Y139500D01*
X140100Y137200D02*X148400D01*
X152200Y134800D02*X154900Y137500D01*
X139300Y143800D02*X150900D01*
X148400Y137200D02*X148500Y137100D01*
X174400Y161600D02*Y163200D01*
X174100Y163500D01*
X155700Y142900D02*X174400Y161600D01*
X178000Y160600D02*X154050Y136650D01*
X130546Y173287D02*Y175346D01*
X131300Y176100D01*
X132200D01*
X133000Y176900D01*
X124639Y173287D02*Y180839D01*
X126608Y173287D02*Y180208D01*
X128577Y173287D02*Y177677D01*
X129100Y178200D01*
X182900Y194900D02*X189700Y188100D01*
X196441D01*
X183100Y184200D02*X196403D01*
X196464Y184139D01*
Y182170D02*X177830D01*
X176300Y183700D01*
X186192Y186108D02*X182100Y190200D01*
X180500Y186800D02*X183100Y184200D01*
X174100Y202300D02*X173800Y202000D01*
X196200Y201900D02*X192700D01*
X191000Y203600D01*
X196300Y199900D02*X190400D01*
X189400Y200900D01*
X144300Y196600D02*X184500D01*
X188600Y198300D02*X153900D01*
X156900Y226700D02*X169100D01*
X152100Y231500D02*X156900Y226700D01*
G54D12*X157574Y230874D02*X157300Y230600D01*
G54D13*X208900D02*X202400D01*
X201700Y231300D01*
X210200Y229300D02*X201600D01*
G54D12*X157574Y233500D02*Y230874D01*
G54D13*X149700Y231500D02*X152100D01*
G54D12*X151600Y233500D02*X151400Y233700D01*
X154426Y233500D02*X151600D01*
G54D13*X151270Y233830D02*X151400Y233700D01*
X149339Y231861D02*X149700Y231500D01*
X146787Y231861D02*X149339D01*
X146987Y233830D02*X151270D01*
G54D12*X157574Y215526D02*X157500Y215600D01*
X157574Y212500D02*Y215526D01*
X151700Y212500D02*X151500Y212300D01*
X154426Y212500D02*X151700D01*
G54D13*X151371Y212171D02*X151500Y212300D01*
X146987Y212171D02*X151371D01*
X129400Y190700D02*X126900Y188200D01*
X130900Y189600D02*X128000Y186700D01*
X127800Y184400D02*X134300Y190900D01*
X130100Y184500D02*X138500Y192900D01*
X133000Y184600D02*Y185300D01*
X138250Y192650D02*X138350D01*
X133000Y176900D02*Y185300D01*
X124639Y180839D02*X127800Y184000D01*
X126608Y180208D02*X130100Y183700D01*
Y184500D01*
X127800Y184000D02*Y184400D01*
X129150Y190450D02*X142900Y204200D01*
X130750Y189450D02*X144000Y202700D01*
X133000Y185300D02*X144300Y196600D01*
X133850Y190450D02*X143500Y200100D01*
X138350Y192650D02*X143600Y197900D01*
X196441Y188100D02*X196464Y188077D01*
G54D12*X207800Y192015D02*X204200D01*
G54D13*X183900Y196600D02*X185800D01*
X196400Y195900D02*X188200D01*
X187500Y196600D01*
X185100D01*
X196400Y197900D02*X189000D01*
X188600Y198300D01*
X207481Y151465D02*X207500Y151446D01*
Y146300D01*
X206100Y144900D01*
X203543Y151465D02*X203508Y151500D01*
X205512Y151465D02*X205500Y151477D01*
Y154800D01*
X204700Y155600D01*
X260644Y151465D02*Y146056D01*
X260700Y146000D01*
X203508Y151500D02*X191100D01*
X204700Y155600D02*X189700D01*
X191100Y151500D02*X190300Y152300D01*
X206100Y144900D02*X190300D01*
X188174Y147026D01*
Y147100D01*
X185026D02*X184926Y147200D01*
X190300Y152300D02*X188174D01*
X189700Y155600D02*X188174Y157126D01*
Y157400D01*
X185026D02*X182600D01*
X185026Y152300D02*X184926Y152400D01*
X182600D01*
X184926Y147200D02*X182600D01*
X191000Y160600D02*X196375D01*
X196464Y160511D01*
X196300Y166400D02*X191600D01*
X190000Y168000D01*
X196100Y164500D02*X188600D01*
X187400Y165700D01*
X196200Y162500D02*X185600D01*
X183900Y164200D01*
X192500Y160600D02*X178000D01*
X237000Y240600D02*Y234551D01*
X237015Y234536D01*
X239100Y242500D02*Y234652D01*
X238984Y234536D01*
X242900Y234558D02*X242922Y234536D01*
X242900Y242400D02*Y234558D01*
X244800Y244700D02*Y234627D01*
X244891Y234536D01*
X240953D02*Y229847D01*
X241000Y229800D01*
X248700Y244900D02*Y234665D01*
X250750Y246850D02*Y234584D01*
X250798Y234536D01*
X248700Y234665D02*X248829Y234536D01*
X246860D02*Y229740D01*
X264581Y234536D02*Y229719D01*
X264600Y229700D01*
X262600Y235500D02*Y238100D01*
X258626Y235026D02*X258600Y235000D01*
X260600Y235100D02*Y239200D01*
X262600Y238100D02*X264100Y239600D01*
X261826Y244752D02*X261774Y244700D01*
X258626D02*Y235026D01*
X260600Y239200D02*X264000Y242600D01*
X246860Y229740D02*X246900Y229700D01*
X252800Y234700D02*Y239400D01*
X254700Y234700D02*Y237800D01*
X255200Y238300D01*
X252800Y239400D02*X253000Y239600D01*
X255200Y238300D02*Y240900D01*
X253100Y243000D01*
X255300Y245000D02*Y246100D01*
X256700Y235100D02*Y242400D01*
X255300Y243800D01*
Y245200D01*
X144329Y299487D02*X173913D01*
X143100Y302600D02*X175000D01*
X142500Y305100D02*X176500D01*
X141900Y307900D02*X177400D01*
X140600Y310600D02*X178900D01*
X139800Y313000D02*X180600D01*
X138500Y316100D02*X181500D01*
X150000Y258000D02*X190500D01*
X149300Y252800D02*X188800D01*
X148100Y248100D02*X181200D01*
X147200Y244200D02*X178000D01*
X145300Y241500D02*X173600D01*
X175650Y294750D02*X162450D01*
X166400Y292800D02*X173700D01*
X149400Y260000D02*X192500D01*
X193700Y230200D02*Y248200D01*
G54D12*X125174Y310574D02*X125200Y310600D01*
X122000Y310574D02*X125174D01*
X115200Y309900D02*X115100Y310000D01*
X115200Y307174D02*Y309900D01*
G54D13*X130546Y308146D02*X138500Y316100D01*
X134484Y307684D02*X139800Y313000D01*
X136453Y306453D02*X140600Y310600D01*
X128578Y266622D02*X130200Y265000D01*
X128578Y272713D02*Y266622D01*
X126800Y265300D02*X126500Y265000D01*
X126800Y266800D02*Y265300D01*
X127100Y267100D02*X126800Y266800D01*
X127100Y269000D02*Y267100D01*
X126609Y269491D02*X127100Y269000D01*
X126609Y272713D02*Y269491D01*
G54D12*X111426Y237074D02*X110800Y237700D01*
X111426Y234700D02*Y237074D01*
G54D13*X117414Y231860D02*X114574Y234700D01*
X120213Y231860D02*X117414D01*
X115500Y237600D02*X115000Y238100D01*
X117100Y237600D02*X115500D01*
X120013Y234687D02*X117100Y237600D01*
X120013Y233829D02*Y234687D01*
X122670Y240330D02*X121800Y241200D01*
X122670Y236487D02*Y240330D01*
X115953Y225953D02*X115500Y225500D01*
X112174Y223900D02*X112074Y224000D01*
X113300Y223900D02*X112174D01*
X114100Y223100D02*X113300Y223900D01*
G54D12*X108826D02*X108926Y224000D01*
X106074Y223900D02*X108826D01*
G54D13*X120213Y225953D02*X115953D01*
X116800Y223100D02*X114100D01*
X117684Y223984D02*X116800Y223100D01*
X120213Y223984D02*X117684D01*
X120191Y227900D02*X120213Y227922D01*
X120204Y229900D02*X120213Y229891D01*
X112800Y227900D02*X120191D01*
X114600Y229900D02*X120204D01*
X113500Y231000D02*X114600Y229900D01*
X111574Y231000D02*X113500D01*
X112400Y227500D02*X112800Y227900D01*
X111574Y227500D02*X112400D01*
X105100D02*X108426D01*
X102569Y224969D02*X105100Y227500D01*
X108026Y230600D02*X108426Y231000D01*
X105400Y230600D02*X108026D01*
X101738Y226938D02*X105400Y230600D01*
X295951Y221551D02*X299700Y225300D01*
X297918Y219582D02*X299300Y218200D01*
X304726D01*
X304826Y218300D01*
X299700Y225300D02*X304726D01*
X307974Y218300D02*X312341D01*
X312841Y218800D01*
X317959D02*X320900D01*
X289700Y212200D02*X322300D01*
X326100Y216000D01*
X288700Y210700D02*X329000D01*
X279535Y209737D02*X284837D01*
X285500Y210400D01*
X279600Y207800D02*X324100D01*
X279700Y205800D02*X322600D01*
X324100Y207800D02*X326300Y205600D01*
X304726Y225300D02*X304826Y225400D01*
X307974D02*X312641D01*
X312841Y225200D01*
X317959D02*X321600D01*
X320900Y218800D02*X321100Y219000D01*
X326100Y216000D02*Y226748D01*
X329452Y230100D01*
X332600D02*X343900D01*
X344000Y230200D01*
Y210200D02*X332648D01*
X332548Y210300D01*
X329000Y210700D02*X329400Y210300D01*
X279535Y221551D02*X295951D01*
X279535Y219582D02*X297918D01*
X286256Y215644D02*X289700Y212200D01*
X280200Y223500D02*X287900D01*
X285725Y213675D02*X288700Y210700D01*
X279535Y215644D02*X286256D01*
X279535Y213675D02*X285725D01*
X279535Y217613D02*X274413D01*
X274400Y217600D01*
X279535Y227458D02*X274642D01*
X274500Y227600D01*
X279500Y225600D02*X285400D01*
X296600Y236800D01*
X287900Y223500D02*X299400Y235000D01*
X223300Y151398D02*X223233Y151465D01*
X238985D02*Y136185D01*
X240954Y151465D02*Y135854D01*
X242923Y151465D02*Y135223D01*
X244892Y151465D02*Y134392D01*
X231109Y151465D02*Y134654D01*
X246861Y151465D02*Y133461D01*
X249900Y139526D02*Y137100D01*
X248830Y151465D02*X248800Y151435D01*
Y144500D01*
X249900Y143400D01*
Y142674D01*
X235047Y151465D02*Y156447D01*
X235200Y156600D01*
X237016Y151465D02*Y155016D01*
X238700Y156700D01*
X233078Y151465D02*Y155222D01*
X232800Y155500D01*
Y158300D01*
X233400Y158900D01*
Y162800D01*
X233300Y162900D01*
G54D12*Y158800D01*
X232850Y158350D01*
G54D13*X252768Y151465D02*Y136368D01*
X256626Y151385D02*Y142500D01*
X254737Y151465D02*Y156363D01*
X254500Y156600D01*
X258675Y151465D02*X259000Y151790D01*
Y156400D01*
X256706Y151465D02*X256626Y151385D01*
X279535Y184140D02*X274240D01*
X279535Y182171D02*X293029D01*
X274240Y184140D02*X274200Y184100D01*
X279535Y192016D02*X274216D01*
X274200Y192000D01*
X279535Y193985D02*X275515D01*
X274100Y195400D01*
X279535Y190047D02*X275847D01*
X279535Y195954D02*X288746D01*
X279535Y203830D02*X274470D01*
X274400Y203900D01*
X275400Y189600D02*X272400D01*
X272100Y189900D01*
X268500D01*
X268400Y190000D01*
G54D12*X268500Y189900D02*X272300D01*
X272600Y189600D01*
G54D13*X291598Y180202D02*X303000Y168800D01*
X290867Y178233D02*X301300Y167800D01*
X290036Y176264D02*X299600Y166700D01*
X288705Y174295D02*X297800Y165200D01*
X287674Y172326D02*X296400Y163600D01*
X286443Y170357D02*X294600Y162200D01*
X288746Y195954D02*X315000Y169700D01*
X317000Y182400D02*X319500Y179900D01*
X315100Y193200D02*Y182100D01*
X319500Y177700D01*
X313300Y192300D02*Y181100D01*
X319200Y175200D01*
X293622Y188078D02*X313100Y168600D01*
X292391Y186109D02*X311300Y167200D01*
X293029Y182171D02*X309100Y166100D01*
X279535Y180202D02*X291598D01*
X279535Y178233D02*X290867D01*
X279535Y176264D02*X290036D01*
X279535Y174295D02*X288705D01*
X279535Y172326D02*X287674D01*
X279535Y170357D02*X286443D01*
X279535Y158543D02*X279578Y158500D01*
X283500D01*
X279535Y162481D02*X283481D01*
X283500Y158500D02*X284700Y159700D01*
Y160500D01*
X283481Y162481D02*X285700Y164700D01*
X284700Y160500D02*X286048Y161848D01*
X287574D01*
Y158700D02*X287600Y158674D01*
Y156200D01*
X275847Y190047D02*X275400Y189600D01*
X279535Y188078D02*X293622D01*
X279535Y186109D02*X292391D01*
X317000Y193900D02*Y182400D01*
X279700Y201800D02*X309100D01*
X317000Y193900D01*
X279700Y199900D02*X308400D01*
X315100Y193200D01*
X279600Y197900D02*X307700D01*
X313300Y192300D01*
X303000Y168800D02*Y135700D01*
X301300Y167800D02*Y136500D01*
X299600Y166700D02*Y137600D01*
X297800Y165200D02*Y138500D01*
X296400Y163600D02*Y139800D01*
X294600Y162200D02*Y140900D01*
X292900Y161000D02*Y142000D01*
X315050Y169650D02*Y135550D01*
X315000Y136850D02*X315050Y136900D01*
X315000Y133900D02*Y136600D01*
X315050Y136650D01*
Y135550D02*X315000Y135500D01*
X313100Y168600D02*Y135600D01*
X311300Y167200D02*Y135600D01*
X309100Y166100D02*Y135600D01*
X275781Y166419D02*X274200Y168000D01*
X279535Y168388D02*X285512D01*
X292900Y161000D01*
X279535Y164450D02*X274250D01*
X274200Y164400D01*
X279535Y166419D02*X275781D01*
X264582Y151465D02*Y156582D01*
X264600Y156600D01*
X266551Y151465D02*X266500Y151414D01*
Y147400D01*
X268520Y151465D02*X268500Y151445D01*
Y146700D01*
X267926Y146126D01*
X270489Y151465D02*X270500Y151454D01*
Y147100D01*
X259774Y142500D02*X262100D01*
X271074D02*X271000Y142426D01*
X261426Y136800D02*X259100D01*
X266500Y147400D02*X264400Y145300D01*
Y139400D01*
X264574Y139226D01*
Y136800D01*
X267926Y146126D02*Y142500D01*
X271000Y142426D02*Y139700D01*
X270500Y147100D02*X272100Y145500D01*
X277900D01*
X280941Y142459D01*
Y140900D01*
X286059D02*X286200Y140759D01*
Y138800D01*
X282500Y135100D01*
X279874D01*
X276726D02*X276626Y135000D01*
X274300D01*
X322400Y187400D02*X322100Y187700D01*
X319500Y179900D02*X348600D01*
X319500Y177700D02*X348400D01*
X319200Y175200D02*X347600D01*
X322100Y187700D02*Y196400D01*
X327400Y187400D02*Y196500D01*
X322600Y205800D02*X325600Y202800D01*
X332300Y199400D02*X332400Y199300D01*
X337300Y197000D02*X337400Y196900D01*
Y187400D01*
X332400Y199300D02*Y187400D01*
Y168000D02*Y159000D01*
X337400Y168000D02*X337500Y167900D01*
Y158900D01*
X322400Y160100D02*Y168000D01*
X327400D02*X327474Y167926D01*
Y152800D01*
X324326D02*X321600D01*
X322400Y160300D02*Y158300D01*
X318600Y154500D01*
Y150700D01*
X380874Y179248D02*X370052D01*
X370000Y179300D01*
X380874Y171374D02*X363674D01*
X363600Y171300D01*
X360422Y187122D02*X360400Y187100D01*
X380874Y187122D02*X360422D01*
X380874Y194996D02*X366304D01*
X366300Y195000D01*
X356900Y184500D02*Y122200D01*
X355200Y182000D02*Y122900D01*
X353500Y175000D02*Y123500D01*
X351600Y174500D02*Y124000D01*
X349400Y173400D02*Y124100D01*
X326300Y205600D02*X351500D01*
X325600Y202800D02*X349600D01*
X351500Y205600D02*X356900Y200200D01*
Y183900D01*
X349600Y202800D02*X353700Y198700D01*
X348600Y179900D02*X350400Y178100D01*
X348400Y177700D02*X350100Y176000D01*
X347600Y175200D02*X348400Y174400D01*
X348300Y174500D02*X349400Y173400D01*
X353700Y198700D02*Y183500D01*
X355200Y182000D01*
X350300Y178200D02*X353500Y175000D01*
X349950Y176150D02*X351600Y174500D01*
G54D12*X264840Y279453D02*X264194Y278806D01*
G54D14*X266809Y281422D02*X262787Y277400D01*
X264840Y279453D02*X262787Y277400D01*
X265787Y280400D02*X262787Y277400D01*
X263400Y281400D02*X267500D01*
X264200Y278500D02*X264000Y278300D01*
X272551Y281422D02*X266809D01*
X272551Y279453D02*X264840D01*
X270500Y280400D02*X265787D01*
X267500Y281400D02*X267800Y281100D01*
X275108Y283980D02*Y290008D01*
X275600Y290500D01*
X277077Y283980D02*Y290477D01*
G54D13*X275108Y284408D02*X272108D01*
X272100Y284400D01*
G54D14*X268400Y278500D02*X264200D01*
X268200Y282300D02*X264200D01*
G54D13*X266000Y292600D02*X264000Y290600D01*
Y282300D01*
X286923Y269019D02*Y266377D01*
X284954Y269019D02*Y264846D01*
X285200Y264600D01*
X286923Y266377D02*X288400Y264900D01*
X291449Y271578D02*Y266151D01*
X294000Y263600D01*
X282985Y269019D02*Y259989D01*
X283500Y259474D01*
Y256326D02*X286174D01*
X286300Y256200D01*
X281016Y269019D02*Y267084D01*
X281300Y266800D01*
Y263300D01*
X280400Y262400D01*
X297200Y275300D02*Y260674D01*
X297300Y260574D01*
X294000Y263600D02*Y258500D01*
X295000Y257500D01*
X297226D01*
X297300Y257426D01*
X297200Y257500D02*X301326D01*
X301526Y257300D01*
X304674D02*X307300D01*
G54D12*X299011Y279454D02*X301382Y277082D01*
G54D14*X299011Y279454D02*X301932Y276532D01*
X297042Y281423D02*X301532Y276932D01*
X297965Y280500D02*X300432Y278032D01*
X300700Y281400D02*X296300D01*
X296200Y281300D01*
X295200Y278600D02*X300500D01*
X295400Y282400D02*X299800D01*
X299900Y282300D01*
G54D13*X298226Y292774D02*X300200Y290800D01*
Y282400D01*
G54D14*X286922Y283980D02*Y290022D01*
G54D13*X284953Y283980D02*Y289347D01*
X284200Y290100D01*
G54D14*X286922Y290022D02*X287000Y290100D01*
X288891Y283980D02*Y290009D01*
X288500Y290400D01*
G54D13*X281015Y283980D02*Y286215D01*
X279046Y283980D02*Y289346D01*
X279800Y290100D01*
X281015Y286215D02*X282000Y287200D01*
X282984Y286216D02*X282000Y287200D01*
X282984Y283980D02*Y286216D01*
G54D14*X279100Y305400D02*X282100D01*
X282400Y305100D01*
X279000Y303100D02*X282400D01*
X282500Y303000D02*X282200Y303300D01*
X282400Y303100D02*X282500Y303000D01*
X285300D02*X282500D01*
X285300Y301000D02*X282600D01*
X282300Y301300D01*
X278900Y301000D02*X282100D01*
X282200Y300900D01*
X279100Y300600D02*Y298100D01*
X279300Y297900D01*
X285600Y300900D02*Y297900D01*
X276900Y300600D02*Y297900D01*
X277200Y297600D01*
X274400Y300400D02*Y298200D01*
X274800Y297800D01*
X285200Y305300D02*X282600D01*
X282500Y305400D01*
X289900Y300600D02*Y297800D01*
X289500Y297400D01*
X287600Y300600D02*Y297800D01*
X287500Y297700D01*
X291449Y281423D02*X297042D01*
X291449Y279454D02*X299011D01*
X293500Y280500D02*X297965D01*
G54D13*X291449Y275516D02*X293284D01*
X295000Y273800D01*
X291449Y277485D02*X293515D01*
X294700Y276300D01*
X296200D01*
X297200Y275300D01*
G54D14*X271500Y311400D02*Y308400D01*
X273600Y310900D02*Y308300D01*
X273400Y308100D01*
X275700Y311100D02*Y307900D01*
X277800Y311100D02*Y307900D01*
X279900Y310500D02*Y308800D01*
X279700Y308600D01*
X279000Y307400D02*X281900D01*
X282000Y307500D01*
X293200Y311100D02*Y308300D01*
X293600Y307900D01*
X291100Y311100D02*Y307800D01*
X288700Y311100D02*Y308600D01*
X289300Y308000D01*
X286700Y311100D02*Y308200D01*
X286900Y308000D01*
X284800D02*Y311100D01*
X284700Y311200D01*
X285100Y307200D02*X282700D01*
X310500Y300300D02*Y298000D01*
X311100Y297400D01*
X312900Y300000D02*Y297600D01*
X315000Y300000D02*Y297700D01*
X315300Y297400D01*
X312900Y297600D02*X313400Y297100D01*
X317000Y300200D02*Y297100D01*
X317100Y300800D02*X320400D01*
X320500Y300700D01*
X320200Y302600D02*X320500Y302900D01*
X316900Y302600D02*X320200D01*
X316900Y304500D02*X319800D01*
X320200Y304900D01*
X316700Y306900D02*X320000D01*
X320200Y306700D01*
X319800Y295800D02*X323000D01*
X323300Y295500D01*
X323700Y301700D02*Y297600D01*
X325900Y297300D02*X326100Y297100D01*
X320200Y297600D02*X323700D01*
X323900Y297800D01*
X323700Y297600D02*X323800Y297500D01*
X325900Y300800D02*Y297300D01*
X328100Y300400D02*Y297600D01*
X328600Y297100D01*
X330500Y300400D02*Y297400D01*
X330900Y297000D01*
X323400Y282800D02*Y276500D01*
X323500Y276400D01*
X325700Y282900D02*Y276800D01*
X325600Y276700D01*
X327700Y282900D02*Y276700D01*
X328000Y276400D01*
X329700Y282800D02*Y276700D01*
X329800Y276600D01*
X334500Y276900D02*X332200D01*
X334600Y274600D02*X332100D01*
X332000Y274700D01*
X331900Y282500D02*Y276200D01*
X334400Y285100D02*X331800D01*
X331700Y285000D01*
X334000Y282900D02*X331800D01*
X331700Y282800D01*
X323200Y285100D02*X320800D01*
X320700Y285000D01*
X323100Y282400D02*X320800D01*
X320700Y282500D01*
X323200Y277000D02*X321000D01*
X320800Y277200D01*
X323100Y274400D02*X320800D01*
X320500Y274700D01*
X320200Y274300D02*X317200D01*
X317100Y274400D01*
X319900Y276300D02*X316700D01*
X316600Y276400D01*
G54D13*X315339Y277300D02*Y267839D01*
X312900Y265400D01*
X297200D01*
G54D14*X320000Y278300D02*X317600D01*
X319800Y280800D02*X317300D01*
X319500Y282700D02*X317400D01*
X317000Y283100D01*
X319500Y284500D02*X317400D01*
X317600Y278300D02*X317400Y278500D01*
X323800Y256600D02*Y253700D01*
X325700Y256100D02*Y253200D01*
X328900Y253300D02*X325900D01*
X325600Y253000D01*
X329000Y251000D02*X326200D01*
X326000Y251200D01*
X328500Y249000D02*X325800D01*
X325700Y248900D01*
X328300Y247300D02*X325300D01*
X328300Y245000D02*X325600D01*
X325300Y245300D01*
X331700Y262200D02*Y259100D01*
X331600Y259000D01*
X329900Y261700D02*Y258900D01*
X329700Y258700D01*
X327600Y261600D02*Y259200D01*
X328100Y258700D01*
X325700Y261500D02*Y259000D01*
X325900Y258800D01*
X323400Y261700D02*Y259700D01*
X323900Y259200D01*
X311000Y253700D02*X308400D01*
X308000Y254100D01*
X310800Y252000D02*X308500D01*
X308200Y251700D01*
X310500Y249900D02*X307900D01*
X310900Y247600D02*X308300D01*
X307800Y248100D01*
G54D13*X273648Y247300D02*X275400D01*
X276000Y247900D01*
X279300Y244800D02*Y247000D01*
X280000Y247700D01*
G54D14*X310800Y245300D02*X308500D01*
X308200Y245600D01*
G54D13*X273000Y239100D02*X369800D01*
X296600Y236800D02*X363500D01*
X299400Y235000D02*X360300D01*
X360400Y234900D01*
X272300Y241000D02*X366300D01*
X269600Y258400D02*X268800Y257600D01*
X266674D01*
X266500Y257426D01*
X261600D01*
X261374Y257200D01*
X258226D02*X255700D01*
X255600Y257300D01*
X250900Y265400D02*X266800D01*
X272551Y277484D02*X270384D01*
X269400Y276500D01*
X268100D01*
X266900Y275300D01*
X272551Y275515D02*X270915D01*
X272551Y266551D02*X269600Y263600D01*
X266900Y267000D02*Y260974D01*
X266500Y260574D01*
X266800Y265400D02*X266900Y265500D01*
X269600Y263600D02*Y258400D01*
X266900Y275300D02*Y266800D01*
X272551Y271577D02*Y266551D01*
X270915Y275515D02*X269100Y273700D01*
X277078Y260437D02*X276400Y259759D01*
Y254641D02*X273041D01*
X272900Y254500D01*
X277078Y269019D02*Y266578D01*
X279047Y269019D02*Y265047D01*
X278800Y264800D01*
X277078Y266578D02*X275600Y265100D01*
X280400Y262400D02*X276400D01*
X275600Y263200D01*
X277300Y262400D02*Y260659D01*
X276470Y259829D01*
X275600Y263200D02*Y265100D01*
X271200Y242800D02*X277300D01*
X279300Y244800D01*
X282448D02*X284700D01*
X284900Y245000D01*
X272400Y235000D02*Y238500D01*
X270400Y235800D02*Y239100D01*
X272300Y241000D01*
X268000Y239600D02*X271200Y242800D01*
X272400Y238500D02*X273000Y239100D01*
X264100Y239600D02*X268000D01*
X264000Y242600D02*X268100D01*
X270300Y244800D01*
Y247100D01*
X270500Y247300D01*
X270650Y247450D02*Y249650D01*
X271600Y250600D01*
X264974Y249400D02*Y246726D01*
X265200Y246500D01*
X261826Y249400D02*Y244752D01*
Y249374D02*X261526D01*
X260600Y250300D01*
X255300Y246100D02*X253800Y247600D01*
X260600Y250300D02*X251200D01*
X144500Y194900D02*X182900D01*
X182100Y190200D02*X143900D01*
X145000Y186800D02*X180500D01*
X176300Y183700D02*X144800D01*
X145300Y180200D02*X174800D01*
X196464Y186108D02*X186192D01*
X174800Y180200D02*X176700Y178300D01*
X196396D01*
X188100Y175100D02*X170200D01*
X171100Y172200D02*X196339D01*
X188456Y170356D02*X184900Y166800D01*
X171600D01*
X196396Y178300D02*X196464Y178232D01*
Y180201D02*X201799D01*
X201800Y180200D01*
X196464Y190046D02*X201654D01*
X201800Y189900D01*
X196464Y193984D02*X201784D01*
X201800Y194000D01*
X196464Y192015D02*X207585D01*
X207600Y192000D01*
X149000Y167000D02*X146895D01*
X146787Y168861D02*X150239D01*
X154400Y161600D02*X149000Y167000D01*
X151500Y167600D02*X153800D01*
X150239Y168861D02*X151500Y167600D01*
X166400Y161600D02*X154400D01*
X171600Y166800D02*X166400Y161600D01*
X156700Y164700D02*X163600D01*
X153800Y167600D02*X156700Y164700D01*
X163600D02*X171100Y172200D01*
X168000Y177300D02*X148142D01*
X170200Y175100D02*X168000Y177300D01*
X196464Y176263D02*X189263D01*
X188100Y175100D01*
X196339Y172200D02*X196464Y172325D01*
Y170356D02*X188456D01*
X196464Y158542D02*X201558D01*
X201600Y158500D01*
X196464Y168387D02*X201787D01*
X201800Y168400D01*
X196464Y174294D02*X207594D01*
X207600Y174300D01*
G54D12*X201306D01*
X201300Y174294D01*
G54D13*X122670Y177430D02*X121900Y178200D01*
X122670Y173487D02*Y177430D01*
X168300Y133500D02*X157600Y122800D01*
X169000Y129000D02*X158600Y118600D01*
X169900Y124900D02*X159600Y114600D01*
X169900Y124900D02*X167700Y122700D01*
X175100Y113700D02*X173350Y111950D01*
X169000Y129000D02*X168700Y128700D01*
X168200Y133400D02*X166300Y131500D01*
X166800Y137200D02*X156100Y126500D01*
X155300Y130300D02*X165200Y140200D01*
X159600Y138900D02*X154100Y133400D01*
X159600Y139000D02*Y138900D01*
X163500Y142900D02*X159600Y139000D01*
X156100Y126500D02*X142500D01*
X143200Y122800D02*X140200Y119800D01*
X142000Y130300D02*X155300D01*
X154100Y133400D02*X141100D01*
X128500Y130600D02*X138200Y140300D01*
G54D12*X124974Y121374D02*X125100Y121500D01*
G54D13*X126500Y123900D02*X128500Y125900D01*
Y130600D01*
X124639Y117839D02*X130100Y123300D01*
X133100Y114000D02*Y127800D01*
X126608Y117108D02*X131600Y122100D01*
Y128700D01*
X130480Y110220D02*Y112280D01*
X124639Y110287D02*Y117839D01*
X126608Y110287D02*Y117108D01*
X128577Y110287D02*Y113177D01*
X130900Y115500D01*
X133100Y114000D02*X132100Y113000D01*
X131200D01*
X130480Y112280D02*X131200Y113000D01*
G54D12*X108674Y137000D02*Y134626D01*
G54D13*X119843Y149000D02*X120013Y149170D01*
X117400Y149000D02*X119843D01*
X120052Y151300D02*X120213Y151139D01*
X114800Y146400D02*X117400Y149000D01*
X114800Y145900D02*Y146400D01*
X113900Y149800D02*X115400Y151300D01*
X113474Y149800D02*X113900D01*
X115400Y151300D02*X120052D01*
X120205Y153100D02*X120213Y153108D01*
X115000Y153100D02*X120205D01*
X114700Y153400D02*X115000Y153100D01*
G54D12*X109226Y160900D02*X106174D01*
G54D13*X112374D02*X113500D01*
X108126Y164900D02*X108426Y164600D01*
X107926Y168000D02*X108226Y168300D01*
X119998Y158800D02*X120213Y159015D01*
X117200Y158800D02*X119998D01*
X119929Y160700D02*X120213Y160984D01*
X118300Y160700D02*X119929D01*
X117700Y160100D02*X118300Y160700D01*
X114300Y160100D02*X117700D01*
X113500Y160900D02*X114300Y160100D01*
X120160Y162900D02*X120213Y162953D01*
X117000Y162900D02*X120160D01*
X120191Y164900D02*X120213Y164922D01*
X116600Y162500D02*X117000Y162900D01*
X115600Y162500D02*X116600D01*
X115000Y164900D02*X120191D01*
X114700Y164600D02*X115000Y164900D01*
X111574Y164600D02*X114700D01*
X111374Y168300D02*X114500D01*
X120104Y167000D02*X120213Y166891D01*
X115800Y167000D02*X120104D01*
X114500Y168300D02*X115800Y167000D01*
X120073Y169000D02*X120213Y168860D01*
X117200Y169000D02*X120073D01*
X114474Y171726D02*X117200Y169000D01*
X114474Y171900D02*Y171726D01*
X115800Y174400D02*X115100Y175100D01*
X117100Y174400D02*X115800D01*
X120013Y171487D02*X117100Y174400D01*
X120013Y170829D02*Y171487D01*
X111474Y153400D02*X114700D01*
X113000Y157200D02*X115100Y155100D01*
X111474Y157200D02*X113000D01*
X116300Y157900D02*X117200Y158800D01*
X115600Y157900D02*X116300D01*
X120190Y155100D02*X120213Y155077D01*
X115100Y155100D02*X120190D01*
X107026Y154700D02*X108326Y153400D01*
X105600Y154700D02*X107026D01*
X108126Y157400D02*X108326Y157200D01*
X180700Y68400D02*Y71274D01*
X180726Y71300D01*
X183874D02*X185000D01*
X186200Y70100D01*
X188100Y86100D02*X186400D01*
X185800Y85500D01*
X188100Y82300D02*X186400D01*
X185700Y81600D01*
X151723Y53299D02*X153299D01*
X155600Y55600D01*
X156200D01*
X157400Y56800D01*
X151723Y49361D02*X157361D01*
X151723Y47392D02*X155192D01*
X155400Y47600D01*
X157361Y49361D02*X157400Y49400D01*
G54D12*X164300Y47600D02*Y49900D01*
X164200Y50000D01*
G54D13*X151723Y51330D02*X155530D01*
X156300Y52100D01*
X160400D01*
X169200Y50059D02*Y54300D01*
G54D12*Y57448D02*Y59800D01*
X169100Y59900D01*
G54D13*X151723Y25733D02*Y23477D01*
X160600Y14600D01*
X173800D01*
X173900Y14500D01*
X139300Y13600D02*Y23154D01*
X139323Y23177D01*
X151723Y43454D02*X155046D01*
X155400Y43100D01*
X159200D01*
X155400Y47600D02*X160300D01*
X158900Y43100D02*X160200D01*
X160300Y47600D02*X160550Y47350D01*
X151723Y41485D02*X156115D01*
X157300Y40300D01*
X160300Y47100D02*X160500Y47300D01*
X160400D02*X160450Y47250D01*
X160200Y43100D02*X161400Y44300D01*
G54D12*X160026Y40800D02*X157800D01*
X157300Y40300D01*
X163174Y40800D02*X165500D01*
G54D13*X161400Y44300D02*X164148D01*
X164300Y44452D01*
X164474Y44626D02*X168885D01*
X169200Y44941D01*
X146895Y167000D02*X146787Y166892D01*
X148142Y177300D02*X144329Y173487D01*
X142360Y177260D02*X145300Y180200D01*
X142360Y173287D02*Y177260D01*
X140400Y173296D02*X140391Y173287D01*
X140400Y179300D02*Y173296D01*
X138422Y173287D02*Y180222D01*
X136500Y173334D02*X136453Y173287D01*
X136500Y182800D02*Y173334D01*
X134484Y173287D02*Y184884D01*
X130500Y173333D02*X130546Y173287D01*
X144800Y183700D02*X140400Y179300D01*
X138422Y180222D02*X145000Y186800D01*
X143900Y190200D02*X136500Y182800D01*
X134484Y184884D02*X144500Y194900D01*
G54D12*X125074Y184374D02*X125200Y184500D01*
X122000Y184374D02*X125074D01*
X121900Y181126D02*X122000Y181226D01*
X121900Y178200D02*Y181126D01*
X115200Y183800D02*X115100Y183900D01*
X115200Y181074D02*Y183800D01*
X115100Y177826D02*X115200Y177926D01*
X115100Y175100D02*Y177826D01*
G54D13*X126900Y188200D02*X87800D01*
X128000Y186700D02*X89300D01*
X87800Y188200D02*X85000Y185400D01*
Y169275D01*
X85062Y169213D01*
X89300Y186700D02*X86900Y184300D01*
Y169344D01*
X87031Y169213D01*
X134500Y126800D02*Y110303D01*
X136453Y110287D02*Y124753D01*
X142500Y126500D02*X138400Y122400D01*
X133600Y142300D02*X134100Y141800D01*
X133600Y143600D02*Y142300D01*
X132516Y144684D02*X133600Y143600D01*
X132516Y146713D02*Y144684D01*
X127100Y139600D02*X126500Y139000D01*
X128578Y140622D02*X130200Y139000D01*
X128578Y146713D02*Y140622D01*
G54D12*X115000Y137100D02*X114900Y137000D01*
X115000Y139926D02*Y137100D01*
X121950Y139224D02*X122200Y138974D01*
X121950Y141750D02*Y139224D01*
X110326Y146874D02*X110400Y146800D01*
X110326Y149800D02*Y146874D01*
X115000Y145700D02*X114800Y145900D01*
X111300Y141200D02*X111400Y141100D01*
X108574Y141200D02*X111300D01*
X122200Y135826D02*X125274D01*
X108674Y134626D02*X109900Y133400D01*
X111326Y174274D02*X110900Y174700D01*
X111326Y171900D02*Y174274D01*
G54D13*X101500Y175126D02*X101674Y175300D01*
X101500Y172400D02*Y175126D01*
X102269Y158031D02*X105600Y154700D01*
X98212Y158031D02*X102269D01*
X104900Y157400D02*X108126D01*
X102300Y160000D02*X104900Y157400D01*
X100738Y156062D02*X103200Y153600D01*
X98212Y160000D02*X102300D01*
X105000Y164900D02*X108126D01*
X102069Y161969D02*X105000Y164900D01*
X98212Y161969D02*X102069D01*
X98212Y163938D02*X101438D01*
X105500Y168000D02*X107926D01*
X101438Y163938D02*X105500Y168000D01*
X98212Y169112D02*X101500Y172400D01*
X98212Y165907D02*Y169112D01*
Y156062D02*X100738D01*
X94907Y150788D02*X96412D01*
X92938D02*Y148762D01*
X85062Y150788D02*Y148762D01*
X85126Y138374D02*Y136974D01*
X86000Y136100D01*
X86500D01*
X87474Y135126D01*
Y133900D01*
X82888Y150788D02*X81300Y149200D01*
X83093Y150788D02*X82888D01*
G54D12*X115000Y143074D02*Y145700D01*
X94300Y143274D02*X94200Y143174D01*
X94300Y145600D02*Y143274D01*
G54D13*X101400Y143674D02*X101700Y143374D01*
X101400Y145800D02*Y143674D01*
X93700Y146200D02*X94200Y145700D01*
G54D12*X103700Y153100D02*X103400Y153400D01*
X103700Y150874D02*Y153100D01*
Y146700D02*X105600Y144800D01*
X103700Y147726D02*Y146700D01*
G54D13*X105526Y133326D02*X105400Y133200D01*
X105526Y137000D02*Y133326D01*
X105426Y137100D02*X105526Y137000D01*
X105426Y141200D02*Y137100D01*
X101700Y140226D02*Y137026D01*
G54D12*X91200Y132926D02*X94374D01*
G54D13*X87400Y133974D02*X87474Y133900D01*
X88874Y138400D02*X91200Y136074D01*
X88274Y138400D02*X88874D01*
X88274Y142200D02*Y138400D01*
X91900Y144400D02*X91600Y144100D01*
X86900Y134474D02*X87474Y133900D01*
X85126Y137400D02*Y137274D01*
G54D12*X94200Y140026D02*Y138400D01*
X94374Y132926D02*X94400Y132900D01*
G54D13*X101674Y133326D02*X101700Y133300D01*
G54D12*X98526Y134226D02*X97700Y133400D01*
X98526Y137000D02*Y134226D01*
X94200Y138400D02*X95700Y136900D01*
G54D13*X101674Y137000D02*Y133326D01*
X101700Y137026D02*X101674Y137000D01*
X60200Y123900D02*X126500D01*
G54D12*X64400Y145126D02*Y142426D01*
X78026Y142374D02*X78100Y142300D01*
X78026Y145300D02*Y142374D01*
X74500Y143800D02*X74600Y143700D01*
G54D13*X60200Y145126D02*Y142700D01*
X60100Y142600D01*
G54D12*X74500Y146226D02*Y143800D01*
G54D13*X64400Y148274D02*X60200D01*
X64300Y148374D02*X64400Y148274D01*
X64300Y153700D02*Y148374D01*
X50250Y154676D02*X49674Y154100D01*
X50250Y159900D02*Y154676D01*
X96412Y150788D02*X101400Y145800D01*
X93700Y148000D02*Y146200D01*
X92938Y148762D02*X93700Y148000D01*
X91900Y147100D02*Y144400D01*
X90969Y148031D02*X91900Y147100D01*
X90969Y150788D02*Y148031D01*
X89000Y150788D02*Y146400D01*
X87031Y150788D02*Y146331D01*
G54D12*X83100Y132900D02*X80700D01*
X84100Y133900D02*X83100Y132900D01*
X84326Y133900D02*X84100D01*
X77526Y136226D02*X77400Y136100D01*
X80900Y136226D02*X77526D01*
G54D13*X85126Y138400D02*Y137274D01*
X83726Y142200D02*X80900Y139374D01*
X88574Y142500D02*X88274Y142200D01*
X89800Y142500D02*X88574D01*
X91400Y144100D02*X89800Y142500D01*
X91600Y144100D02*X91400D01*
X89000Y146400D02*X89600Y145800D01*
X87031Y146331D02*X86500Y145800D01*
X85126Y142200D02*X83726D01*
X84000Y143326D02*X85126Y142200D01*
X84000Y147700D02*Y143326D01*
X85062Y148762D02*X84000Y147700D01*
X81300Y145426D02*X81174Y145300D01*
X81300Y149200D02*Y145426D01*
G54D12*X74300Y149574D02*X74500Y149374D01*
X46526Y151126D02*X46400Y151000D01*
X46526Y154100D02*Y151126D01*
X74300Y151700D02*Y149574D01*
X70800Y151826D02*Y149000D01*
X71074Y154700D02*X70800Y154974D01*
X74300Y154700D02*X71074D01*
G54D13*X76693Y154093D02*X74500Y151900D01*
X79787Y154093D02*X76693D01*
X75662Y156062D02*X74500Y154900D01*
X79787Y156062D02*X75662D01*
X68300Y157700D02*X64300Y153700D01*
X75100Y157700D02*X68300D01*
X75431Y158031D02*X75100Y157700D01*
X79787Y158031D02*X75431D01*
G54D12*X89526Y174626D02*X89400Y174500D01*
X89526Y179100D02*Y174626D01*
G54D13*X92100Y175074D02*X92326Y175300D01*
X90969Y171869D02*X92100Y173000D01*
X89000Y174100D02*X89400Y174500D01*
X89000Y169213D02*Y174100D01*
X98100Y174874D02*X98526Y175300D01*
X98100Y172200D02*Y174874D01*
X83093Y172307D02*X80900Y174500D01*
X95113Y169213D02*X98100Y172200D01*
X94800Y172300D02*X95500Y173000D01*
X94100Y172300D02*X94800D01*
X92938Y171138D02*X94100Y172300D01*
X92938Y169213D02*Y171138D01*
G54D12*X95200Y179100D02*X95600Y178700D01*
X92674Y179100D02*X95200D01*
G54D13*X95500Y175274D02*X95474Y175300D01*
X95500Y173000D02*Y175274D01*
X92100Y173000D02*Y175074D01*
X94907Y169213D02*X95113D01*
X90969D02*Y171869D01*
X83093Y169213D02*Y172307D01*
X50250Y169076D02*X50900Y169726D01*
G54D12*X54374Y172626D02*X54500Y172500D01*
G54D13*X50250Y165100D02*Y169076D01*
G54D12*Y165100D02*X56326D01*
X39800D02*X39000Y165900D01*
X42750Y165100D02*X39800D01*
X38300Y162500D02*X38000Y162800D01*
X42750Y162500D02*X38300D01*
X61274Y169874D02*X60500Y169100D01*
X63700Y169874D02*X61274D01*
X62826Y164874D02*X62500Y165200D01*
X62174D02*X63700Y166726D01*
X59574Y165200D02*X62174D01*
X56326Y165100D02*X56426Y165200D01*
X73900Y164400D02*X74500Y163800D01*
X71600Y164400D02*X73900D01*
X73700Y168000D02*X74500Y167200D01*
G54D13*Y163800D02*X74600D01*
G54D12*X72126Y168774D02*X72900Y168000D01*
X74500Y174226D02*Y170700D01*
X74274Y177600D02*X74500Y177374D01*
X71300Y177600D02*X74274D01*
X70600Y168774D02*X72126D01*
X70600Y165400D02*X71600Y164400D01*
X70600Y165626D02*Y165400D01*
X72900Y168000D02*X73700D01*
X67826Y162700D02*X70226Y160300D01*
X65974Y162700D02*X67826D01*
X62826D02*Y164874D01*
G54D13*X79500Y166194D02*X79787Y165907D01*
X79725Y164000D02*X79787Y163938D01*
X77400Y164000D02*X79725D01*
X79500Y167600D02*Y166194D01*
X76400Y170700D02*X79500Y167600D01*
X74500Y170700D02*X76400D01*
X77100Y164300D02*X77400Y164000D01*
X77100Y164500D02*Y164300D01*
X74500Y167100D02*X77100Y164500D01*
X74500Y167400D02*Y167100D01*
X74600Y163800D02*X76400Y162000D01*
X79756D02*X79787Y161969D01*
X76400Y162000D02*X79756D01*
X79487Y160300D02*X79787Y160000D01*
X73374Y160300D02*X79487D01*
G54D12*X54374Y176500D02*Y172626D01*
X48100Y176500D02*X48000Y176400D01*
X51226Y176500D02*X48100D01*
X50900Y176174D02*X51226Y176500D01*
X50900Y172874D02*Y176174D01*
X54574Y183326D02*X54500Y183400D01*
X54574Y180100D02*Y183326D01*
X51426Y182474D02*X50500Y183400D01*
X51426Y180100D02*Y182474D01*
X51226Y179900D02*X51426Y180100D01*
X51226Y176500D02*Y179900D01*
X50250Y162500D02*X53400D01*
X28500Y156526D02*X28600Y156626D01*
X28500Y153900D02*Y156526D01*
X25226Y156626D02*X25000Y156400D01*
X28326Y156626D02*X25226D01*
X31774D02*X32000Y156400D01*
X28500Y156626D02*X31774D01*
X35474Y159900D02*X42750D01*
X32200Y159774D02*X32326Y159900D01*
X28500Y159774D02*X32200D01*
X28374Y159900D02*X28500Y159774D01*
X24874Y159900D02*X28374D01*
X21626Y160000D02*X21726Y159900D01*
X14500Y160000D02*X21626D01*
X53400Y162500D02*X54000Y161900D01*
X52800Y62300D02*X84300Y93800D01*
X70200Y97100D02*X78500Y105400D01*
X16600Y97100D02*X70200D01*
X41600Y28500D02*X41500Y28400D01*
X41600Y31052D02*Y28500D01*
X31400Y30926D02*Y28500D01*
X31200Y28300D01*
X52800Y38500D02*Y62300D01*
X48400Y34100D02*X52800Y38500D01*
X42100Y34100D02*X48400D01*
X38000D02*X42200D01*
X34752Y34000D02*X34852Y34100D01*
X30400Y34000D02*X34752D01*
X30374D02*X30400Y33974D01*
X11800Y34000D02*X30374D01*
G54D13*X96274Y50200D02*X92800D01*
X103374D02*X99422D01*
X103326Y46000D02*X99374D01*
X93000Y54700D02*X92800Y54900D01*
X96126Y54700D02*X93000D01*
X96226Y58800D02*X92800D01*
X103326D02*X99374D01*
X99474Y54500D02*X99274Y54700D01*
X103226Y54500D02*X99474D01*
X103326Y29700D02*X99400D01*
X106674Y29900D02*X106474Y29700D01*
X111300Y29900D02*X106674D01*
X113039Y31639D02*X111300Y29900D01*
X112954Y37546D02*X111300Y39200D01*
X113222Y45422D02*X111300Y43500D01*
X110600Y46000D02*X114000Y49400D01*
X106474Y46000D02*X110600D01*
X111200Y50200D02*X112300Y51300D01*
X106522Y50200D02*X111200D01*
X111700Y54500D02*X112800Y53400D01*
X106374Y54500D02*X111700D01*
X110700Y58800D02*X114200Y55300D01*
X106474Y58800D02*X110700D01*
G54D12*X78500Y105400D02*X95574D01*
X84300Y93800D02*X95374D01*
X95400Y93774D01*
X95600Y102226D02*Y99600D01*
X95500Y99500D01*
X95400Y90626D02*Y88100D01*
X95300Y88000D01*
X99926Y94000D02*X95700D01*
X99800Y90300D02*X95900D01*
X95400Y90800D01*
X99800Y90300D02*Y87200D01*
X99700Y87100D01*
X95700Y94000D02*X95500Y93800D01*
X99926Y101400D02*X99200D01*
X98500Y102100D01*
X95700D01*
X95600Y102200D01*
X100000Y101400D02*Y98500D01*
X99800Y98300D01*
X99926Y105200D02*X95774D01*
X95574Y105400D02*X95774Y105200D01*
G54D13*X112300Y105100D02*X103174D01*
X103074Y105200D01*
G54D12*X108826Y97900D02*X106074D01*
G54D13*X113100Y101300D02*X103174D01*
X103074Y101400D01*
X112800Y93900D02*X103174D01*
X103074Y94000D01*
X110000Y90400D02*X103048D01*
X102948Y90300D01*
X112800Y53400D02*X116975D01*
X112300Y51300D02*X117048D01*
X117077Y51329D01*
X114000Y49400D02*X117037D01*
X117077Y49360D01*
G54D12*X113426Y61026D02*X113400Y61000D01*
G54D13*X116975Y53400D02*X117077Y53298D01*
Y45422D02*X113222D01*
X117077Y37546D02*X112954D01*
X125539Y57823D02*Y59661D01*
Y59561D02*Y59861D01*
X124100Y61300D01*
Y63600D01*
X126000Y66200D02*X124600D01*
X124000Y66800D01*
G54D12*X87052Y46852D02*X87100Y46900D01*
X83900Y46852D02*X87052D01*
X87000Y50000D02*X87100Y50100D01*
X83900Y50000D02*X87000D01*
X86826Y58600D02*X86800Y58574D01*
X87000Y58600D02*X86826D01*
X86974Y58574D02*X87000Y58600D01*
X83800Y58574D02*X86974D01*
X86774Y55426D02*X87000Y55200D01*
X83800Y55426D02*X86774D01*
G54D13*X96226Y46000D02*X92900D01*
X116969Y33500D02*X117077Y33608D01*
Y31639D02*X113039D01*
G54D12*X105526Y41574D02*X105500Y41600D01*
X108300Y41574D02*X105526D01*
X108374Y38500D02*X108300Y38426D01*
X111200Y38500D02*X108374D01*
G54D13*X117077Y35577D02*X111577D01*
X117077Y33608D02*X110308D01*
X109800Y33100D01*
X106500Y35400D02*X105200Y34100D01*
X111400Y35400D02*X106500D01*
X111577Y35577D02*X111400Y35400D01*
X119633Y23177D02*Y18333D01*
X118900Y17600D01*
X121602Y23177D02*Y18398D01*
X122400Y17600D01*
G54D12*X118500Y17200D02*X118900Y17600D01*
X122900Y14774D02*Y17100D01*
X122400Y17600D01*
X122900Y11626D02*X125426D01*
X125600Y11800D01*
X87900Y15600D02*X87800Y15700D01*
X92157Y15600D02*X87900D01*
X118500Y14974D02*Y17200D01*
X115700Y11800D02*X118474D01*
X118500Y11826D01*
X112526Y15726D02*X112600Y15800D01*
X109800Y15726D02*X112526D01*
X99543Y15900D02*X99243Y15600D01*
X103900Y15900D02*X99543D01*
X109800Y21800D02*Y18874D01*
G54D13*X117077Y29670D02*X113970D01*
X109700Y25400D01*
X93100Y25500D02*X92900Y25700D01*
X96226Y25500D02*X93100D01*
G54D12*X87000Y26300D02*X87100Y26200D01*
X84000Y26300D02*X87000D01*
X86848Y29448D02*X87100Y29700D01*
X84000Y29448D02*X86848D01*
G54D13*X93100Y29700D02*X92900Y29900D01*
X96252Y29700D02*X93100D01*
X99474Y25400D02*X99374Y25500D01*
X103326Y25400D02*X99474D01*
X109700D02*X106474D01*
X238985Y136185D02*X228700Y125900D01*
X240954Y135854D02*X230700Y125600D01*
X242923Y135223D02*X232700Y125000D01*
X244892Y134392D02*X234600Y124100D01*
X246861Y133461D02*X236500Y123100D01*
X252768Y136368D02*X238600Y122200D01*
X228700Y107170D02*X228732Y107138D01*
X230700Y107139D02*X230701Y107138D01*
X232700Y107168D02*X232670Y107138D01*
X236500Y107246D02*X236608Y107138D01*
X234600Y107177D02*X234639Y107138D01*
X228700Y125900D02*Y107170D01*
X230700Y125600D02*Y107139D01*
X232700Y125000D02*Y107168D01*
X234600Y124100D02*Y107177D01*
X236500Y123100D02*Y107246D01*
X238600Y122200D02*Y107161D01*
X238577Y107138D01*
X255000Y115100D02*X252400Y112500D01*
X255200Y117400D02*X250400Y112600D01*
X255000Y119500D02*X248400Y112900D01*
X255200Y121800D02*X246400Y113000D01*
X254900Y124300D02*X244400Y113800D01*
X248400Y112900D02*Y107160D01*
X248422Y107138D01*
X246400Y113000D02*Y107191D01*
X246453Y107138D01*
X244400Y113800D02*Y107222D01*
X244484Y107138D01*
X254400Y126800D02*X240600Y113000D01*
Y107192D01*
X240546Y107138D01*
X242515D02*X242600Y107053D01*
Y102600D01*
X256299Y61862D02*Y57301D01*
X254330Y61862D02*Y55730D01*
X255400Y96400D02*X256299Y97299D01*
X255500Y75700D02*X255560Y75640D01*
X266138Y69733D02*X266105Y69700D01*
X261600D01*
X255560Y75640D02*X266138D01*
Y89423D02*X266115Y89400D01*
X261600D01*
X266138Y99268D02*X266106Y99300D01*
X261600D01*
X266138Y97299D02*X260401D01*
X259900Y97800D01*
X256800D01*
X256250Y97250D01*
X266138Y93361D02*X273161D01*
X270900Y91392D02*X272308D01*
X276100Y91600D02*Y89026D01*
X276326Y88800D01*
X274710Y83516D02*X276426Y81800D01*
X276226Y88900D02*X276413Y88713D01*
X273900Y89800D02*Y86900D01*
X275200Y85600D01*
X266138Y91392D02*X271008D01*
X266138Y81547D02*X269553D01*
X270700Y80400D01*
X266138Y83516D02*X274710D01*
X275200Y85600D02*X278500D01*
X279500Y86600D01*
Y88700D01*
X279600Y88800D01*
X292100Y81800D02*X301500Y91200D01*
X266138Y95330D02*X271608D01*
X274900Y95100D02*X286600D01*
X271400Y95330D02*X272630D01*
X273161Y93361D02*X274900Y95100D01*
X272630Y95330D02*X274100Y96800D01*
X278800D01*
X279500Y97500D01*
Y100000D01*
X279474Y88800D02*X286700D01*
X272308Y91392D02*X273900Y89800D01*
X285700Y95100D02*X289200D01*
X288800Y100000D02*X290500D01*
X285400Y88800D02*X287400D01*
X301500Y91200D02*Y98500D01*
X281559Y76400D02*Y73059D01*
X281200Y72700D01*
X270700Y80400D02*Y71574D01*
X277000Y65274D01*
X276426Y76415D02*X276441Y76400D01*
X276426Y81800D02*Y76415D01*
X279574Y81800D02*X288800D01*
X287800D02*X292100D01*
X312500Y64500D02*X323000Y54000D01*
X337400Y29800D02*X337300Y29700D01*
X398200Y1800D02*X397800Y2200D01*
X398200Y1800D02*X395700Y4300D01*
G54D12*X396750Y3250D02*X395400Y4600D01*
G54D13*X312500Y64500D02*Y75000D01*
X312300Y75200D01*
X342000Y63000D02*Y63100D01*
X346600Y67700D01*
Y96841D01*
X337400Y102700D02*Y29800D01*
X335000Y102700D02*Y27200D01*
X332800Y102800D02*Y24100D01*
X330500Y102900D02*Y20300D01*
X327950Y102650D02*Y15550D01*
X328000Y15500D01*
X303000Y135700D02*X280300Y113000D01*
X301300Y136500D02*X279900Y115100D01*
X280300Y113000D02*X258200D01*
X279900Y115100D02*X255000D01*
X299600Y137600D02*X279400Y117400D01*
X255200D01*
X297800Y138500D02*X278800Y119500D01*
X296400Y139800D02*X278400Y121800D01*
X294600Y140900D02*X278000Y124300D01*
X292900Y142000D02*X277700Y126800D01*
X278800Y119500D02*X255000D01*
X278400Y121800D02*X255200D01*
X278000Y124300D02*X254900D01*
X277700Y126800D02*X254400D01*
X258200Y113000D02*X256400Y111200D01*
Y107240D01*
X256298Y107138D01*
X252400Y107178D02*X252360Y107138D01*
X254329D02*X254400Y107067D01*
Y102600D01*
X250400Y107147D02*X250391Y107138D01*
X252400Y112500D02*Y107178D01*
X250400Y112600D02*Y107147D01*
X258267Y107138D02*X258300Y107105D01*
Y102600D01*
X276000Y102800D02*Y100278D01*
X276278Y100000D01*
X279426D02*X286600D01*
X286100D02*X289400D01*
X289200Y95100D02*X309900Y115800D01*
X287400Y88800D02*X309800Y111200D01*
X290500Y100000D02*X303700Y113200D01*
Y114500D01*
X301500Y98500D02*X315800Y112800D01*
X309500Y110900D02*X315000Y116400D01*
X309700Y115600D02*X311300Y117200D01*
X303700Y114500D02*X306000Y116800D01*
X314700Y116100D02*X319700Y121100D01*
Y129200D01*
X311300Y117200D02*Y137000D01*
X308000Y127500D02*Y130600D01*
X309100Y131700D01*
Y136400D01*
X319700Y129200D02*X315000Y133900D01*
X314200Y127500D02*Y129800D01*
X313100Y130900D01*
Y137500D01*
X350941Y106300D02*Y109859D01*
X346600Y96841D02*X356059Y106300D01*
X350941Y109859D02*X350500Y110300D01*
X356900Y122200D02*X337700Y103000D01*
X355200Y122900D02*X335100Y102800D01*
X353500Y123500D02*X333000Y103000D01*
X351600Y124000D02*X330500Y102900D01*
X333100Y103100D02*X332800Y102800D01*
X349400Y124100D02*X328100Y102800D01*
X338000Y103300D02*X337400Y102700D01*
X335400Y103100D02*X335000Y102700D01*
X328300Y103000D02*X327950Y102650D01*
X207000Y142900D02*X163500D01*
X165200Y140200D02*X207900D01*
X210400Y137200D02*X166800D01*
X209300Y133400D02*X168200D01*
X207800Y129000D02*X169000D01*
G54D12*X163174Y57100D02*Y59674D01*
X160026Y56800D02*X157402D01*
G54D13*X145700Y62400D02*X146100Y62800D01*
X143800Y65100D02*X142500Y66400D01*
X143800Y62600D02*Y65100D01*
X145700Y61400D02*Y62400D01*
X143260Y58960D02*X145700Y61400D01*
X143260Y57823D02*Y58960D01*
X141291Y60091D02*X143800Y62600D01*
X141291Y57823D02*Y60091D01*
G54D12*X151500Y86300D02*X154300D01*
X154400Y86400D01*
X157548D02*Y89552D01*
X157500Y89600D01*
X154000Y107700D02*X154100Y107600D01*
X157248D02*Y104652D01*
X157300Y104600D01*
G54D13*X146987Y86171D02*X151371D01*
X149739Y105861D02*X151300Y104300D01*
X150900Y102300D02*X149300Y103900D01*
X146795D01*
X146787Y103892D01*
X146987Y107830D02*X151370D01*
X146787Y105861D02*X149739D01*
X157600Y122800D02*X143200D01*
X158600Y118600D02*X145000D01*
X142300Y115900D01*
X159600Y114600D02*X145700D01*
X142300Y115900D02*Y110347D01*
X142360Y110287D01*
X145700Y114600D02*X144300Y113200D01*
Y110516D01*
X144329Y110487D01*
X136453Y124753D02*X142000Y130300D01*
X141100Y133400D02*X134500Y126800D01*
G54D12*X125274Y135826D02*X125500Y135600D01*
G54D13*X130547Y142053D02*X130700Y141900D01*
X130547Y146713D02*Y142053D01*
X124640Y142060D02*X124900Y141800D01*
X122671Y142471D02*X122000Y141800D01*
X124640Y146713D02*Y142060D01*
X122671Y146513D02*Y142471D01*
G54D12*X111426Y111074D02*X110800Y111700D01*
X115100Y120800D02*X115000Y120900D01*
Y112200D02*Y114900D01*
G54D13*X117400Y111900D02*X115300D01*
X115000Y112200D01*
G54D12*Y114900D02*X115100Y115000D01*
Y118148D02*Y120800D01*
X121800Y115200D02*Y118126D01*
X121900Y118226D01*
Y121374D02*X124974D01*
G54D13*X138400Y122400D02*Y110309D01*
X140200Y119800D02*Y110478D01*
X122670Y110487D02*Y114330D01*
X121800Y115200D01*
X130200Y75300D02*Y68700D01*
G54D12*X122000Y72800D02*X125200D01*
X125400Y72600D01*
G54D13*X127100Y75500D02*X128200Y74400D01*
Y70100D01*
X127600Y69500D01*
G54D12*X114800Y76900D02*Y74000D01*
X121900Y78800D02*Y76048D01*
X122000Y75948D01*
X114700Y82900D02*Y80148D01*
X114800Y80048D01*
G54D13*X122671Y83513D02*Y79671D01*
X121900Y78900D01*
X126600Y80600D02*Y80300D01*
X127100Y79800D01*
Y75500D01*
X128578Y81600D02*Y76922D01*
X130200Y75300D01*
X130547Y83713D02*Y78953D01*
X130600Y78900D01*
X132516Y83713D02*Y81184D01*
X124640Y83713D02*Y78960D01*
X124800Y78800D01*
X126600Y80500D02*Y83704D01*
X126609Y83713D01*
X128500Y83635D02*X128578Y83713D01*
X141700Y66400D02*X141200Y66900D01*
X142500Y66400D02*X141700D01*
X138300Y65700D02*X137600D01*
X132516Y81184D02*X133500Y80200D01*
Y79300D01*
X134000Y78800D01*
X133415Y57823D02*Y63385D01*
X133400Y63400D01*
X131000Y66000D02*Y62500D01*
X131400Y62100D01*
Y57869D01*
X131446Y57823D01*
X137353D02*Y60653D01*
X135384Y57823D02*Y60984D01*
Y60816D02*Y62284D01*
X136500Y63400D01*
X128578Y83713D02*Y80778D01*
X127508Y57823D02*Y59692D01*
X128200Y66700D02*Y62200D01*
X127508Y59592D02*Y60592D01*
X119632Y57823D02*Y63068D01*
X119400Y63300D01*
X114200Y55300D02*X117044D01*
G54D12*X116574Y63900D02*X118800D01*
X119400Y63300D01*
X113426Y63900D02*Y61026D01*
G54D13*X117044Y55300D02*X117077Y55267D01*
X129400Y57900D02*X129477Y57823D01*
X129400Y61000D02*Y57900D01*
X129700Y57600D01*
X130200Y68700D02*X128200Y66700D01*
Y62200D02*X129400Y61000D01*
X127508Y60592D02*X126600Y61500D01*
Y65600D01*
X126000Y66200D01*
G54D12*X110326Y86800D02*Y83826D01*
X110300Y83800D01*
X111426Y108600D02*Y111074D01*
G54D13*X110292Y90108D02*X110000Y90400D01*
X112074Y97800D02*X111974Y97900D01*
X120013Y107829D02*Y109287D01*
X117400Y111900D01*
X120073Y106000D02*X120213Y105860D01*
X114574Y108600D02*X114700D01*
X117300Y106000D01*
X120073D01*
X120213Y103891D02*X113509D01*
X112300Y105100D01*
X130600Y110341D02*X130546Y110287D01*
X134500Y110303D02*X134484Y110287D01*
X138400Y110309D02*X138422Y110287D01*
X140200Y110478D02*X140391Y110287D01*
X120213Y101922D02*X113722D01*
X120213Y99953D02*X115953D01*
X120213Y97984D02*X117684D01*
X113722Y101922D02*X113100Y101300D01*
X115953Y99953D02*X115500Y99500D01*
X117684Y97984D02*X117000Y97300D01*
X113600D01*
X113100Y97800D01*
X112074D01*
X120213Y96015D02*X116615D01*
X115500Y94900D01*
X120213Y92077D02*X114623D01*
X112800Y93900D01*
X120213Y90108D02*X110292D01*
X120213Y88139D02*X114813D01*
X113474Y86800D01*
X120013Y86170D02*X117970D01*
X114700Y82900D01*
X231109Y134654D02*X151723Y55268D01*
X160900Y99500D02*X155900D01*
X153100Y102300D01*
X151800D01*
X216900Y76900D02*X215600D01*
X215100Y76400D01*
X229140Y135540D02*X151500Y57900D01*
G54D12*X151400Y107700D02*X154000D01*
G54D13*X151371Y86171D02*X151500Y86300D01*
X151370Y107830D02*X151500Y107700D01*
X151300Y104300D02*X154400D01*
X152200Y102300D02*X150900D01*
X207000Y124900D02*X169900D01*
X203300Y118100D02*X170400D01*
X202000Y113700D02*X175100D01*
X173850Y112450D02*X160900Y99500D01*
X154400Y104300D02*X157200Y101500D01*
X158600D01*
X161500Y104400D01*
Y109200D01*
X170400Y118100D01*
X168200Y115900D01*
X209450Y151465D02*Y145350D01*
X211500Y143800D02*Y151384D01*
X211419Y151465D01*
X213388D02*Y156788D01*
X213400Y156800D01*
X209450Y145350D02*X207000Y142900D01*
X207900Y140200D02*X211500Y143800D01*
X229140Y151465D02*Y135540D01*
X227171Y151465D02*Y156671D01*
X227200Y156700D01*
X215357Y142157D02*X210400Y137200D01*
X217326Y141426D02*X209300Y133400D01*
X219295Y140495D02*X207800Y129000D01*
X215357Y151465D02*Y142157D01*
X217326Y151465D02*Y141426D01*
X219295Y151465D02*Y140495D01*
X221264Y151465D02*Y139164D01*
X223349Y151349D02*Y138149D01*
X225202Y151465D02*Y136902D01*
X221264Y139164D02*X207000Y124900D01*
X223349Y138149D02*X203300Y118100D01*
X225202Y136902D02*X202000Y113700D01*
X215500Y78600D02*X213100D01*
X212000Y77500D01*
Y76200D01*
X215200Y78600D02*X216300D01*
X217300Y79600D01*
X220839D01*
X220862Y79577D01*
Y77608D02*X217608D01*
X216900Y76900D01*
X149244Y57900D02*X149167Y57823D01*
X151500Y57900D02*X149244D01*
G54D12*X150074Y63074D02*X150000Y63000D01*
X150074Y65900D02*Y63074D01*
X147000Y65826D02*X146926Y65900D01*
X147000Y63900D02*Y65826D01*
X146100Y63000D02*X147000Y63900D01*
X146100Y62800D02*Y63000D01*
X161074Y23126D02*X161100Y23100D01*
X158100Y23126D02*X161074D01*
G54D13*X167300Y10100D02*X149800D01*
G54D12*X175448Y36648D02*X175500Y36700D01*
X172574Y36648D02*X175448D01*
G54D13*X171000Y31926D02*X172574Y33500D01*
X171000Y29400D02*Y31926D01*
X171026Y29400D02*X171126Y29500D01*
X166474Y29400D02*X171026D01*
G54D12*X167100Y33400D02*X167300Y33600D01*
X164722Y33400D02*X167100D01*
X165500Y37200D02*X165800Y37500D01*
X163174Y37200D02*X165500D01*
G54D13*X173600Y18100D02*X173700Y18200D01*
Y21700D01*
X174274Y22274D01*
Y29500D01*
X170400Y12000D02*Y5600D01*
X170500Y5500D01*
G54D12*X158100Y28500D02*X157400Y29200D01*
X158100Y26274D02*Y28500D01*
G54D13*X160700Y29400D02*X163326D01*
X157171Y29671D02*X157200Y29700D01*
X158460Y31640D02*X160700Y29400D01*
X161365Y33609D02*X161574Y33400D01*
X151723Y31640D02*X158460D01*
X151723Y33609D02*X161365D01*
X151723Y29671D02*X157171D01*
G54D12*X157700Y37200D02*X157400Y36900D01*
X160026Y37200D02*X157700D01*
G54D13*X157100Y36600D02*X157400Y36900D01*
X154500Y36600D02*X157100D01*
G54D12*X157626Y45326D02*X157600Y45300D01*
G54D13*X157477Y45423D02*X157600Y45300D01*
X151723Y45423D02*X157477D01*
X153478Y35578D02*X154500Y36600D01*
X151723Y35578D02*X153478D01*
X139000Y65000D02*X138300Y65700D01*
X139000Y62300D02*Y65000D01*
X141200Y62300D02*Y63600D01*
X139322Y60422D02*X141200Y62300D01*
X137353Y60653D02*X139000Y62300D01*
X139322Y57823D02*Y60422D01*
X137600Y65700D02*X136500Y66800D01*
G54D12*X145600Y17400D02*X145400Y17600D01*
X145600Y14874D02*Y17400D01*
G54D13*X145230Y17770D02*X145400Y17600D01*
X145230Y23177D02*Y17770D01*
X131447Y23177D02*Y17747D01*
X131200Y17500D01*
X133416Y23177D02*Y18184D01*
X134200Y17400D01*
G54D12*X134374Y14700D02*Y17226D01*
X134200Y17400D01*
X131700Y11500D02*X134322D01*
X134374Y11552D01*
X145574Y11700D02*X145600Y11726D01*
X142900Y11700D02*X145574D01*
G54D13*X149800Y10100D02*X147100Y7400D01*
X141200D02*X139300Y9300D01*
Y14300D01*
X147100Y7400D02*X141200D01*
X248423Y44323D02*X246000Y41900D01*
X256299Y51401D02*X265500Y42200D01*
X250392Y41592D02*X248500Y39700D01*
X252000Y38000D02*X251500Y37500D01*
X258268Y53932D02*X269800Y42400D01*
X277000Y62126D02*X279874D01*
X279900Y62100D01*
G54D12*X259600Y33700D02*X261800D01*
X262300Y33200D01*
G54D13*X265500Y33252D02*X265448Y33200D01*
X265324Y33076D02*Y30224D01*
X269800Y42400D02*Y33474D01*
G54D12*X272774Y33300D02*X274800D01*
X275000Y33500D01*
G54D13*X265500Y42200D02*Y33252D01*
X269800Y33474D02*X269626Y33300D01*
X265324Y30224D02*X258100Y23000D01*
X256367D01*
X251667Y18300D01*
X269626Y33300D02*Y30274D01*
X276400Y23500D01*
X279932D01*
X285132Y18300D01*
X248423Y61862D02*Y44323D01*
X250392Y61862D02*Y41592D01*
X252361Y61862D02*Y57361D01*
X252000Y57000D01*
Y38000D01*
X258268Y61862D02*Y53932D01*
X256299Y57301D02*X256700Y56900D01*
Y54300D01*
X256300Y53900D01*
Y51400D01*
X254330Y55730D02*X254300Y55700D01*
X220862Y95329D02*X216071D01*
X211700Y99700D01*
X220862Y99267D02*X220895Y99300D01*
X220862Y97298D02*X220864Y97300D01*
X206626Y96400D02*X204500D01*
X204400Y96500D01*
X206626Y92300D02*X204500D01*
X204300Y92500D01*
X206626Y88500D02*X204500D01*
X204300Y88700D01*
X220895Y99300D02*X225400D01*
X220915Y87400D02*X225500D01*
X220900Y97336D02*X220936Y97300D01*
X224100D01*
X224400Y97000D01*
X230300D01*
X220862Y93360D02*X210834D01*
X220862Y91391D02*X215191D01*
X220862Y89422D02*X215822D01*
X210834Y93360D02*X209774Y92300D01*
Y96400D01*
Y88500D02*Y84752D01*
X209826Y84700D01*
X215191Y91391D02*X212300Y88500D01*
X209774D01*
X215822Y89422D02*X211800Y85400D01*
Y83026D01*
X220862Y83515D02*X215385D01*
X214900Y84000D01*
X220862Y81546D02*X215746D01*
X215000Y80800D01*
X220862Y87453D02*X220915Y87400D01*
X220862Y75639D02*X220923Y75700D01*
X225500D01*
X206678Y84700D02*X204700D01*
X204400Y85000D01*
X191248Y86100D02*X193700D01*
X191248Y82300D02*X193700D01*
X206726Y81100D02*X204500D01*
X204400Y81200D01*
X211800Y83026D02*X209874Y81100D01*
X209687Y80913D02*Y77487D01*
X206726Y77300D02*X204300D01*
X206995Y72200D02*X202500Y67705D01*
G54D12*X202505D01*
X207000Y72200D01*
G54D13*X212600Y65900D02*Y63500D01*
X213870Y73670D02*X212400Y72200D01*
X215253Y71701D02*X212600Y69048D01*
X209687Y77487D02*X209874Y77300D01*
X212000Y76500D02*Y75500D01*
X211200Y74700D01*
X212400Y72200D02*X206995D01*
G54D12*X207000D02*X212330D01*
X213800Y73670D01*
G54D13*X206626Y104300D02*X204500D01*
X204300Y104500D01*
X206600Y100300D02*X204400D01*
X204300Y100400D01*
X211700Y99700D02*X210348D01*
X209748Y100300D01*
Y104274D01*
X209774Y104300D01*
X211200Y74700D02*X195700D01*
X194000Y76400D01*
X191548D01*
X191348Y76600D01*
X188200D02*Y73726D01*
X188174Y73700D01*
X220862Y73670D02*X213870D01*
X220862Y71701D02*X215253D01*
G54D12*X213800Y73670D02*X214400D01*
G54D13*X202548Y67752D02*X194126D01*
X193374Y67000D01*
X190226D02*Y62748D01*
X190374Y62600D01*
X187226D02*X184800D01*
G54D12*X192138Y55895D02*X192043Y55800D01*
X184957D02*Y52643D01*
Y55700D02*Y52757D01*
Y52643D02*X186300Y51300D01*
X184957Y52757D02*X183600Y51400D01*
X209100Y13600D02*X213200D01*
X184700Y23600D02*X180400D01*
G54D13*X184500Y13400D02*X184700Y13600D01*
X184650Y13550D02*X184600Y13600D01*
X180000D01*
G54D12*X213200D02*X213300Y13500D01*
X219589Y19454D02*X219615Y19428D01*
X219589Y22228D02*Y19454D01*
X216441Y19754D02*X216215Y19528D01*
X216441Y22228D02*Y19754D01*
X201900Y10400D02*Y6300D01*
X202000Y6200D01*
G54D13*X180000Y13600D02*X176748Y16852D01*
Y18100D01*
G54D12*X202500Y55895D02*X192138D01*
X201441Y49000D02*X198500D01*
X202300Y55895D02*X204005D01*
X206800Y53100D01*
X209800Y57300D02*X204700D01*
X209800Y54400D02*X205100D01*
X206800Y53100D02*Y49241D01*
X206559Y49000D01*
X215382Y54100D02*X215082Y54400D01*
X210000D01*
X213600Y47343D02*X215057Y48800D01*
X215500Y35900D02*X213600Y37800D01*
Y40257D01*
X215057Y48800D02*X220100D01*
X220500Y54100D02*X223500D01*
X220500D02*X220100Y53700D01*
Y48800D01*
Y45652D02*X220000Y45552D01*
Y43100D01*
G54D13*X236609Y61862D02*Y56609D01*
X238578Y61862D02*Y54778D01*
X234600Y50800D01*
X240547Y61862D02*Y51947D01*
X237200Y48600D01*
X236609Y56609D02*X233000Y53000D01*
X230200D01*
X232671Y61862D02*Y55771D01*
X232600Y55700D01*
X230700Y57500D02*Y61800D01*
X234640Y61862D02*X234700Y61922D01*
Y66500D01*
X246454Y61862D02*Y47454D01*
X243100Y44100D01*
X242000Y48100D02*X240200Y46300D01*
X242516Y61862D02*Y57316D01*
X242000Y56800D01*
Y49700D01*
Y49800D02*Y48100D01*
X244485Y61862D02*Y55785D01*
X244200Y55500D01*
X230300Y97000D02*X230900Y96400D01*
X231600D01*
X230700Y44000D02*Y40248D01*
X229400Y38948D01*
X225200Y41889D02*X226459D01*
X229400Y38948D01*
X225200Y47007D02*X226100Y47907D01*
X230700Y47148D02*X227900Y49948D01*
X226100Y47907D02*Y55500D01*
X227900Y49948D02*Y54700D01*
X226100Y55500D02*X228700Y58100D01*
X227900Y54700D02*X230700Y57500D01*
X228700Y58100D02*Y61900D01*
G54D15*X380315Y287717D03*
Y252283D03*
G54D16*X388189Y270000D03*
G54D17*X376378D03*
G54D18*X352756D03*
G54D11*G36*
X341000Y233200D02*Y227200D01*
X347000D01*
Y233200D01*
X341000D01*
G37*
G54D19*X344000Y220200D03*
Y210200D03*
G54D20*X352000Y88000D03*
X342000Y83000D03*
G54D19*X323000Y87000D03*
G54D20*X352000Y78000D03*
G54D21*X365000Y96000D03*
G54D22*X377000Y88000D03*
G54D20*X342000Y73000D03*
G54D19*X323000Y77000D03*
G54D20*X352000Y68000D03*
Y58000D03*
Y48000D03*
G54D21*X365000Y35000D03*
G54D22*X377000Y43000D03*
G54D20*X342000Y63000D03*
Y53000D03*
Y43000D03*
G54D19*X323000Y44000D03*
Y54000D03*
G54D11*G36*
X385976Y166272D02*Y160728D01*
X391520D01*
Y166272D01*
X385976D01*
G37*
G54D23*X380874Y163500D03*
X388748Y171374D03*
X380874D03*
X388748Y179248D03*
X380874D03*
X388748Y187122D03*
Y194996D03*
Y202870D03*
Y210744D03*
X380874Y187122D03*
Y194996D03*
Y202870D03*
Y210744D03*
G54D24*X337400Y191000D02*Y183800D01*
X332400Y191000D02*Y183800D01*
X327400Y191000D02*Y183800D01*
G54D25*X329400Y210693D02*Y209907D01*
X332548Y210693D02*Y209907D01*
G54D24*X322400Y171600D02*Y164400D01*
X327400Y171600D02*Y164400D01*
X332400Y171600D02*Y164400D01*
X337400Y171600D02*Y164400D01*
X322400Y191000D02*Y183800D01*
G54D25*X304826Y225793D02*Y225007D01*
Y218693D02*Y217907D01*
X307974Y218693D02*Y217907D01*
Y225793D02*Y225007D01*
X329452Y230493D02*Y229707D01*
X332600Y230493D02*Y229707D01*
G54D26*X312841Y225692D02*Y224708D01*
X317959Y225692D02*Y224708D01*
X312841Y219292D02*Y218308D01*
X317959Y219292D02*Y218308D01*
G54D27*X324645Y296005D02*X330155D01*
G54D28*X309465Y304500D02*X313007D01*
X288993D02*X292535D01*
X251493D02*X255035D01*
X271965D02*X275507D01*
G54D27*X233145Y296005D02*X238655D01*
G54D29*X262787Y282321D02*Y272479D01*
X248613Y282321D02*Y272479D01*
G54D27*X233145Y284195D02*X238655D01*
G54D30*X275109Y269905D02*Y268133D01*
X275108Y284866D02*Y283094D01*
X271665Y281422D02*X273437D01*
X271665Y279453D02*X273437D01*
X271665Y277484D02*X273437D01*
X271665Y275515D02*X273437D01*
X271665Y273546D02*X273437D01*
X271665Y271577D02*X273437D01*
G54D31*X280031Y276500D02*X283969D01*
G54D11*G36*
X277050Y278650D02*Y274350D01*
X281350D01*
Y278650D01*
X277050D01*
G37*
G36*
X282650D02*Y274350D01*
X286950D01*
Y278650D01*
X282650D01*
G37*
G54D27*X324645Y284195D02*X330155D01*
G54D29*X315487Y282221D02*Y272379D01*
G54D27*X324845Y263490D02*X330355D01*
X324845Y275300D02*X330355D01*
G54D30*X277078Y269905D02*Y268133D01*
X279047Y269905D02*Y268133D01*
X281016Y269905D02*Y268133D01*
X282985Y269905D02*Y268133D01*
X284954Y269905D02*Y268133D01*
X286923Y269905D02*Y268133D01*
X288892Y269905D02*Y268133D01*
X281015Y284866D02*Y283094D01*
X279046Y284866D02*Y283094D01*
X277077Y284866D02*Y283094D01*
G54D29*X301313Y282221D02*Y272379D01*
G54D30*X288891Y284866D02*Y283094D01*
X286922Y284866D02*Y283094D01*
X284953Y284866D02*Y283094D01*
X282984Y284866D02*Y283094D01*
X290563Y271578D02*X292335D01*
X290563Y273547D02*X292335D01*
X290563Y275516D02*X292335D01*
X290563Y277485D02*X292335D01*
X290563Y279454D02*X292335D01*
X290563Y281423D02*X292335D01*
G54D25*X283107Y256326D02*X283893D01*
X283107Y259474D02*X283893D01*
G54D26*X275908Y254641D02*X276892D01*
X275908Y259759D02*X276892D01*
G54D25*X296907Y260574D02*X297693D01*
X296907Y257426D02*X297693D01*
X304674Y257693D02*Y256907D01*
X301526Y257693D02*Y256907D01*
G54D27*X312395Y252055D02*Y246545D01*
X324205Y252055D02*Y246545D01*
G54D25*X279300Y245193D02*Y244407D01*
X270500Y247693D02*Y246907D01*
X273648Y247693D02*Y246907D01*
X282448Y245193D02*Y244407D01*
G54D30*X252767Y236898D02*Y232174D01*
X250798Y236898D02*Y232174D01*
X248829Y236898D02*Y232174D01*
X246860Y236898D02*Y232174D01*
X244891Y236898D02*Y232174D01*
X242922Y236898D02*Y232174D01*
X240953Y236898D02*Y232174D01*
X238984Y236898D02*Y232174D01*
X237015Y236898D02*Y232174D01*
X235046Y236898D02*Y232174D01*
X233077Y236898D02*Y232174D01*
X231108Y236898D02*Y232174D01*
X229139Y236898D02*Y232174D01*
X227170Y236898D02*Y232174D01*
G54D25*X258226Y257593D02*Y256807D01*
X261374Y257593D02*Y256807D01*
X266107Y257426D02*X266893D01*
X266107Y260574D02*X266893D01*
G54D30*X277173Y215644D02*X281897D01*
X277173Y217613D02*X281897D01*
X277173Y219582D02*X281897D01*
X277173Y221551D02*X281897D01*
X277173Y223520D02*X281897D01*
X277173Y225489D02*X281897D01*
X277173Y227458D02*X281897D01*
G54D25*X258626Y245093D02*Y244307D01*
X261774Y245093D02*Y244307D01*
X264974Y249793D02*Y249007D01*
X261826Y249793D02*Y249007D01*
G54D30*X272457Y236898D02*Y232174D01*
X270488Y236898D02*Y232174D01*
X268519Y236898D02*Y232174D01*
X266550Y236898D02*Y232174D01*
X264581Y236898D02*Y232174D01*
X262612Y236898D02*Y232174D01*
X260643Y236898D02*Y232174D01*
X258674Y236898D02*Y232174D01*
X256705Y236898D02*Y232174D01*
X254736Y236898D02*Y232174D01*
X277173Y164450D02*X281897D01*
X277173Y166419D02*X281897D01*
X277173Y168388D02*X281897D01*
X277173Y170357D02*X281897D01*
X277173Y172326D02*X281897D01*
X277173Y174295D02*X281897D01*
X277173Y176264D02*X281897D01*
X277173Y178233D02*X281897D01*
X277173Y180202D02*X281897D01*
X277173Y182171D02*X281897D01*
X277173Y184140D02*X281897D01*
X277173Y186109D02*X281897D01*
X277173Y188078D02*X281897D01*
X277173Y190047D02*X281897D01*
X277173Y192016D02*X281897D01*
X277173Y193985D02*X281897D01*
X277173Y195954D02*X281897D01*
X277173Y197923D02*X281897D01*
X277173Y199892D02*X281897D01*
X277173Y201861D02*X281897D01*
X277173Y203830D02*X281897D01*
X277173Y205799D02*X281897D01*
X277173Y207768D02*X281897D01*
X277173Y209737D02*X281897D01*
X277173Y211706D02*X281897D01*
X277173Y213675D02*X281897D01*
G54D29*X277258Y18300D02*X293006D01*
X243793D02*X259541D01*
G54D25*X262300Y33593D02*Y32807D01*
X265448Y33593D02*Y32807D01*
X272774Y33693D02*Y32907D01*
X269626Y33693D02*Y32907D01*
G54D26*X281559Y76892D02*Y75908D01*
X276441Y76892D02*Y75908D01*
G54D25*X276607Y62126D02*X277393D01*
X276607Y65274D02*X277393D01*
G54D30*X263677Y69733D02*X268599D01*
X263677Y71702D02*X268599D01*
X263677Y73671D02*X268599D01*
X263677Y75640D02*X268599D01*
X263677Y77609D02*X268599D01*
X263677Y79578D02*X268599D01*
X263677Y81547D02*X268599D01*
X242516Y64323D02*Y59401D01*
X244485Y64323D02*Y59401D01*
X246454Y64323D02*Y59401D01*
X248423Y64323D02*Y59401D01*
X250392Y64323D02*Y59401D01*
X252361Y64323D02*Y59401D01*
X254330Y64323D02*Y59401D01*
X256299Y64323D02*Y59401D01*
X258268Y64323D02*Y59401D01*
G54D25*X279474Y89193D02*Y88407D01*
X276326Y89193D02*Y88407D01*
X279426Y100393D02*Y99607D01*
X276278Y100393D02*Y99607D01*
X279574Y82193D02*Y81407D01*
X276426Y82193D02*Y81407D01*
G54D30*X263677Y83516D02*X268599D01*
X263677Y85485D02*X268599D01*
X263677Y87454D02*X268599D01*
X263677Y89423D02*X268599D01*
X263677Y91392D02*X268599D01*
X263677Y93361D02*X268599D01*
X263677Y95330D02*X268599D01*
X263677Y97299D02*X268599D01*
X263677Y99268D02*X268599D01*
X258267Y109599D02*Y104677D01*
X256298Y109599D02*Y104677D01*
X254329Y109599D02*Y104677D01*
X116388Y55267D02*X117766D01*
X116388Y53298D02*X117766D01*
X116388Y51329D02*X117766D01*
X116388Y49360D02*X117766D01*
X116388Y47391D02*X117766D01*
X116388Y45422D02*X117766D01*
G54D25*X113426Y64293D02*Y63507D01*
X116574Y64293D02*Y63507D01*
G54D30*X143260Y58512D02*Y57134D01*
X141291Y58512D02*Y57134D01*
X139322Y58512D02*Y57134D01*
X137353Y58512D02*Y57134D01*
X135384Y58512D02*Y57134D01*
X133415Y58512D02*Y57134D01*
X131446Y58512D02*Y57134D01*
X129477Y58512D02*Y57134D01*
X127508Y58512D02*Y57134D01*
X125539Y58512D02*Y57134D01*
X123570Y58512D02*Y57134D01*
X121601Y58512D02*Y57134D01*
X119632Y58512D02*Y57134D01*
X131447Y23866D02*Y22488D01*
X133416Y23866D02*Y22488D01*
X135385Y23866D02*Y22488D01*
X137354Y23866D02*Y22488D01*
X139323Y23866D02*Y22488D01*
X141292Y23866D02*Y22488D01*
X143261Y23866D02*Y22488D01*
G54D11*G36*
X120227Y54673D02*Y26327D01*
X148573D01*
Y54673D01*
X120227D01*
G37*
G36*
X123600Y51300D02*Y45300D01*
X129600D01*
Y51300D01*
X123600D01*
G37*
G36*
Y43500D02*Y37500D01*
X129600D01*
Y43500D01*
X123600D01*
G37*
G36*
X131400D02*Y37500D01*
X137400D01*
Y43500D01*
X131400D01*
G37*
G36*
Y51300D02*Y45300D01*
X137400D01*
Y51300D01*
X131400D01*
G37*
G36*
X139200D02*Y45300D01*
X145200D01*
Y51300D01*
X139200D01*
G37*
G36*
Y43500D02*Y37500D01*
X145200D01*
Y43500D01*
X139200D01*
G37*
G36*
X123600Y35700D02*Y29700D01*
X129600D01*
Y35700D01*
X123600D01*
G37*
G36*
X131400D02*Y29700D01*
X137400D01*
Y35700D01*
X131400D01*
G37*
G36*
X139200D02*Y29700D01*
X145200D01*
Y35700D01*
X139200D01*
G37*
G54D32*X119131Y107829D02*X120895D01*
X119131Y105860D02*X121295D01*
X119131Y103891D02*X121295D01*
X119131Y101922D02*X121295D01*
X119131Y99953D02*X121295D01*
X119131Y97984D02*X121295D01*
G54D25*X114707Y118148D02*X115493D01*
X121507Y121374D02*X122293D01*
X121507Y118226D02*X122293D01*
X114707Y115000D02*X115493D01*
G54D32*X119131Y96015D02*X121295D01*
X119131Y94046D02*X121295D01*
X119131Y92077D02*X121295D01*
X119131Y90108D02*X121295D01*
X119131Y88139D02*X121295D01*
X119131Y86170D02*X120895D01*
X122671Y84395D02*Y82631D01*
G54D25*X121607Y72800D02*X122393D01*
X121607Y75948D02*X122393D01*
G54D32*X124640Y84795D02*Y82631D01*
X126609Y84795D02*Y82631D01*
X128578Y84795D02*Y82631D01*
X130547Y84795D02*Y82631D01*
G54D11*G36*
X125500Y93600D02*Y89000D01*
X130100D01*
Y93600D01*
X125500D01*
G37*
G54D25*X110326Y87193D02*Y86407D01*
X108826Y98293D02*Y97507D01*
X111974Y98293D02*Y97507D01*
X113474Y87193D02*Y86407D01*
X114407Y76900D02*X115193D01*
X114407Y80048D02*X115193D01*
G54D32*X144329Y111369D02*Y109605D01*
X142360Y111369D02*Y109205D01*
X140391Y111369D02*Y109205D01*
X138422Y111369D02*Y109205D01*
X136453Y111369D02*Y109205D01*
X134484Y111369D02*Y109205D01*
X132515Y111369D02*Y109205D01*
X130546Y111369D02*Y109205D01*
X128577Y111369D02*Y109205D01*
X126608Y111369D02*Y109205D01*
X124639Y111369D02*Y109205D01*
X122670Y111369D02*Y109605D01*
G54D25*X111426Y108993D02*Y108207D01*
X114574Y108993D02*Y108207D01*
G54D32*X132516Y84795D02*Y82631D01*
X134485Y84795D02*Y82631D01*
X136454Y84795D02*Y82631D01*
X138423Y84795D02*Y82631D01*
X140392Y84795D02*Y82631D01*
X142361Y84795D02*Y82631D01*
X144330Y84395D02*Y82631D01*
G54D11*G36*
X122870Y107630D02*Y86370D01*
X144130D01*
Y107630D01*
X122870D01*
G37*
G36*
X125500Y105000D02*Y100400D01*
X130100D01*
Y105000D01*
X125500D01*
G37*
G36*
Y99300D02*Y94700D01*
X130100D01*
Y99300D01*
X125500D01*
G37*
G36*
X131200D02*Y94700D01*
X135800D01*
Y99300D01*
X131200D01*
G37*
G36*
Y93600D02*Y89000D01*
X135800D01*
Y93600D01*
X131200D01*
G37*
G36*
X136900D02*Y89000D01*
X141500D01*
Y93600D01*
X136900D01*
G37*
G36*
X131200Y105000D02*Y100400D01*
X135800D01*
Y105000D01*
X131200D01*
G37*
G36*
X136900D02*Y100400D01*
X141500D01*
Y105000D01*
X136900D01*
G37*
G36*
Y99300D02*Y94700D01*
X141500D01*
Y99300D01*
X136900D01*
G37*
G54D25*X95207Y102226D02*X95993D01*
X99926Y101793D02*Y101007D01*
X103074Y101793D02*Y101007D01*
X95207Y105374D02*X95993D01*
X99926Y105593D02*Y104807D01*
X103074Y105593D02*Y104807D01*
X95007Y90626D02*X95793D01*
X95007Y93774D02*X95793D01*
X99926Y94393D02*Y93607D01*
X103074Y94393D02*Y93607D01*
X99800Y90693D02*Y89907D01*
X102948Y90693D02*Y89907D01*
G54D30*X116388Y43453D02*X117766D01*
X116388Y41484D02*X117766D01*
X116388Y39515D02*X117766D01*
X116388Y37546D02*X117766D01*
X116388Y35577D02*X117766D01*
X116388Y33608D02*X117766D01*
X116388Y31639D02*X117766D01*
G54D25*X107907Y41574D02*X108693D01*
X106474Y46393D02*Y45607D01*
X103326Y46393D02*Y45607D01*
X107907Y38426D02*X108693D01*
G54D30*X116388Y29670D02*X117766D01*
X116388Y27701D02*X117766D01*
X116388Y25732D02*X117766D01*
X119633Y23866D02*Y22488D01*
X121602Y23866D02*Y22488D01*
X123571Y23866D02*Y22488D01*
X125540Y23866D02*Y22488D01*
X127509Y23866D02*Y22488D01*
X129478Y23866D02*Y22488D01*
G54D25*X122507Y11626D02*X123293D01*
X118107Y11826D02*X118893D01*
X133981Y11552D02*X134767D01*
X83407Y55426D02*X84193D01*
X83407Y58574D02*X84193D01*
X83507Y46852D02*X84293D01*
X83507Y50000D02*X84293D01*
X83607Y26300D02*X84393D01*
X83607Y29448D02*X84393D01*
X122507Y14774D02*X123293D01*
X118107Y14974D02*X118893D01*
X133981Y14700D02*X134767D01*
G54D27*X92157Y15993D02*Y15207D01*
X99243Y15993D02*Y15207D01*
G54D25*X109407Y15726D02*X110193D01*
X99374Y25893D02*Y25107D01*
X96226Y25893D02*Y25107D01*
X99400Y30093D02*Y29307D01*
X96252Y30093D02*Y29307D01*
X106474Y25793D02*Y25007D01*
X103326Y25793D02*Y25007D01*
X106474Y30093D02*Y29307D01*
X103326Y30093D02*Y29307D01*
X109407Y18874D02*X110193D01*
X99422Y50593D02*Y49807D01*
X106522Y50593D02*Y49807D01*
X103374Y50593D02*Y49807D01*
X106374Y54893D02*Y54107D01*
X103226Y54893D02*Y54107D01*
X96274Y50593D02*Y49807D01*
X99374Y46393D02*Y45607D01*
X96226Y46393D02*Y45607D01*
X99274Y55093D02*Y54307D01*
X96126Y55093D02*Y54307D01*
X99374Y59193D02*Y58407D01*
X96226Y59193D02*Y58407D01*
X106474Y59193D02*Y58407D01*
X103326Y59193D02*Y58407D01*
X207374Y253093D02*Y252307D01*
X211452Y247793D02*Y247007D01*
X214600Y247793D02*Y247007D01*
G54D30*X219294Y236898D02*Y232174D01*
G54D25*X217026Y242093D02*Y241307D01*
X220174Y242093D02*Y241307D01*
X198826Y242493D02*Y241707D01*
X201974Y242493D02*Y241707D01*
X204226Y253093D02*Y252307D01*
X204674Y256693D02*Y255907D01*
G54D26*X212359Y308292D02*Y307308D01*
X207241Y308292D02*Y307308D01*
G54D25*X220574Y308193D02*Y307407D01*
X217426Y308193D02*Y307407D01*
X201526Y256693D02*Y255907D01*
X157374Y297093D02*Y296307D01*
X154226Y297093D02*Y296307D01*
X157574Y275893D02*Y275107D01*
X154426Y275893D02*Y275107D01*
G54D30*X194102Y227457D02*X198826D01*
X194102Y225488D02*X198826D01*
X217325Y236898D02*Y232174D01*
X215356Y236898D02*Y232174D01*
X213387Y236898D02*Y232174D01*
X211418Y236898D02*Y232174D01*
X209449Y236898D02*Y232174D01*
X203542Y236898D02*Y232174D01*
X207480Y236898D02*Y232174D01*
X205511Y236898D02*Y232174D01*
X194102Y170356D02*X198826D01*
X194102Y168387D02*X198826D01*
X194102Y166418D02*X198826D01*
G54D25*X188174Y147493D02*Y146707D01*
X185026Y147493D02*Y146707D01*
X157674Y149593D02*Y148807D01*
X154526Y149593D02*Y148807D01*
G54D32*X146105Y149171D02*X147869D01*
X145705Y151140D02*X147869D01*
X145705Y153109D02*X147869D01*
X145705Y155078D02*X147869D01*
X145705Y157047D02*X147869D01*
X145705Y159016D02*X147869D01*
X145705Y160985D02*X147869D01*
X145705Y162954D02*X147869D01*
X145705Y164923D02*X147869D01*
X145705Y166892D02*X147869D01*
X145705Y168861D02*X147869D01*
X146105Y170830D02*X147869D01*
G54D30*X194102Y164449D02*X198826D01*
X194102Y162480D02*X198826D01*
X194102Y160511D02*X198826D01*
X194102Y158542D02*X198826D01*
G54D25*X188174Y152693D02*Y151907D01*
X185026Y152693D02*Y151907D01*
X188174Y157793D02*Y157007D01*
X185026Y157793D02*Y157007D01*
G54D30*X203543Y153827D02*Y149103D01*
X205512Y153827D02*Y149103D01*
X207481Y153827D02*Y149103D01*
X209450Y153827D02*Y149103D01*
X211419Y153827D02*Y149103D01*
X213388Y153827D02*Y149103D01*
X215357Y153827D02*Y149103D01*
X217326Y153827D02*Y149103D01*
G54D25*X176607Y202226D02*X177393D01*
X182533Y202300D02*X183319D01*
G54D30*X194102Y201860D02*X198826D01*
X194102Y199891D02*X198826D01*
X194102Y213674D02*X198826D01*
X194102Y211705D02*X198826D01*
X194102Y209736D02*X198826D01*
X194102Y207767D02*X198826D01*
X194102Y205798D02*X198826D01*
X194102Y203829D02*X198826D01*
X194102Y197922D02*X198826D01*
X194102Y195953D02*X198826D01*
X194102Y193984D02*X198826D01*
X194102Y192015D02*X198826D01*
X194102Y190046D02*X198826D01*
X194102Y188077D02*X198826D01*
X194102Y186108D02*X198826D01*
X194102Y184139D02*X198826D01*
X194102Y182170D02*X198826D01*
X194102Y180201D02*X198826D01*
X194102Y178232D02*X198826D01*
X194102Y176263D02*X198826D01*
X194102Y174294D02*X198826D01*
X194102Y172325D02*X198826D01*
G54D25*X176607Y205374D02*X177393D01*
X182533Y205448D02*X183319D01*
X169407Y207748D02*X170193D01*
X169407Y204600D02*X170193D01*
G54D30*X194102Y223519D02*X198826D01*
X194102Y221550D02*X198826D01*
X194102Y219581D02*X198826D01*
X194102Y217612D02*X198826D01*
X194102Y215643D02*X198826D01*
X225201Y236898D02*Y232174D01*
X223232Y236898D02*Y232174D01*
X221263Y236898D02*Y232174D01*
G54D25*X121407Y198526D02*X122193D01*
X121407Y201674D02*X122193D01*
X161607Y209148D02*X162393D01*
X161607Y206000D02*X162393D01*
G54D32*X146105Y212171D02*X147869D01*
X145705Y214140D02*X147869D01*
X145705Y216109D02*X147869D01*
X145705Y218078D02*X147869D01*
X145705Y220047D02*X147869D01*
X145705Y222016D02*X147869D01*
X144330Y210395D02*Y208631D01*
X119131Y222015D02*X121295D01*
X119131Y220046D02*X121295D01*
X119131Y218077D02*X121295D01*
X119131Y216108D02*X121295D01*
X119131Y214139D02*X121295D01*
X119131Y212170D02*X120895D01*
X122671Y210395D02*Y208631D01*
X124640Y210795D02*Y208631D01*
X126609Y210795D02*Y208631D01*
X128578Y210795D02*Y208631D01*
X130547Y210795D02*Y208631D01*
X132516Y210795D02*Y208631D01*
X134485Y210795D02*Y208631D01*
X136454Y210795D02*Y208631D01*
X138423Y210795D02*Y208631D01*
X140392Y210795D02*Y208631D01*
X142361Y210795D02*Y208631D01*
G54D11*G36*
X122870Y233630D02*Y212370D01*
X144130D01*
Y233630D01*
X122870D01*
G37*
G36*
X125500Y231000D02*Y226400D01*
X130100D01*
Y231000D01*
X125500D01*
G37*
G36*
Y225300D02*Y220700D01*
X130100D01*
Y225300D01*
X125500D01*
G37*
G36*
X131200D02*Y220700D01*
X135800D01*
Y225300D01*
X131200D01*
G37*
G36*
Y231000D02*Y226400D01*
X135800D01*
Y231000D01*
X131200D01*
G37*
G36*
X136900D02*Y226400D01*
X141500D01*
Y231000D01*
X136900D01*
G37*
G36*
Y225300D02*Y220700D01*
X141500D01*
Y225300D01*
X136900D01*
G37*
G36*
X125500Y219600D02*Y215000D01*
X130100D01*
Y219600D01*
X125500D01*
G37*
G36*
X131200D02*Y215000D01*
X135800D01*
Y219600D01*
X131200D01*
G37*
G36*
X136900D02*Y215000D01*
X141500D01*
Y219600D01*
X136900D01*
G37*
G54D32*X96933Y280093D02*X99491D01*
X90969Y278067D02*Y275509D01*
X92938Y278067D02*Y275509D01*
X94907Y278067D02*Y275509D01*
X96933Y282062D02*X99491D01*
X83093Y278067D02*Y275509D01*
X85062Y278067D02*Y275509D01*
X87031Y278067D02*Y275509D01*
X89000Y278067D02*Y275509D01*
X96933Y284031D02*X99491D01*
X96933Y286000D02*X99491D01*
X96933Y287969D02*X99491D01*
X96933Y289938D02*X99491D01*
X96933Y291907D02*X99491D01*
X94907Y296492D02*Y293934D01*
X92938Y296492D02*Y293934D01*
X90969Y296492D02*Y293934D01*
X89000Y296492D02*Y293934D01*
X87031Y296492D02*Y293934D01*
X85062Y296492D02*Y293934D01*
X83093Y296492D02*Y293934D01*
G54D11*G36*
X82602Y292398D02*Y279602D01*
X95398D01*
Y292398D01*
X82602D01*
G37*
G36*
X85050Y289950D02*Y286550D01*
X88450D01*
Y289950D01*
X85050D01*
G37*
G36*
Y285450D02*Y282050D01*
X88450D01*
Y285450D01*
X85050D01*
G37*
G36*
X89550Y289950D02*Y286550D01*
X92950D01*
Y289950D01*
X89550D01*
G37*
G36*
Y285450D02*Y282050D01*
X92950D01*
Y285450D01*
X89550D01*
G37*
G54D25*X157674Y233993D02*Y233207D01*
G54D32*X145705Y223985D02*X147869D01*
X145705Y225954D02*X147869D01*
X145705Y227923D02*X147869D01*
X145705Y229892D02*X147869D01*
X145705Y231861D02*X147869D01*
X146105Y233830D02*X147869D01*
X144329Y237369D02*Y235605D01*
X142360Y237369D02*Y235205D01*
X119131Y233829D02*X120895D01*
X119131Y231860D02*X121295D01*
X119131Y229891D02*X121295D01*
X119131Y227922D02*X121295D01*
X119131Y225953D02*X121295D01*
X119131Y223984D02*X121295D01*
X140391Y237369D02*Y235205D01*
X138422Y237369D02*Y235205D01*
X136453Y237369D02*Y235205D01*
X134484Y237369D02*Y235205D01*
X132515Y237369D02*Y235205D01*
X130546Y237369D02*Y235205D01*
X128577Y237369D02*Y235205D01*
X126608Y237369D02*Y235205D01*
X124639Y237369D02*Y235205D01*
X122670Y237369D02*Y235605D01*
G54D25*X327474Y153193D02*Y152407D01*
X324326Y153193D02*Y152407D01*
G54D30*X277173Y158543D02*X281897D01*
G54D26*X350941Y106792D02*Y105808D01*
X356059Y106792D02*Y105808D01*
X201441Y49492D02*Y48508D01*
X206559Y49492D02*Y48508D01*
G54D27*X213207Y47343D02*X213993D01*
X199745Y67705D02*X205255D01*
X199745Y55895D02*X205255D01*
G54D26*X215382Y54592D02*Y53608D01*
X220500Y54592D02*Y53608D01*
G54D25*X212207Y65900D02*X212993D01*
X212207Y69048D02*X212993D01*
G54D26*X224708Y41889D02*X225692D01*
G54D25*X230307Y44000D02*X231093D01*
G54D27*X213207Y40257D02*X213993D01*
G54D26*X224708Y47007D02*X225692D01*
G54D25*X230307Y47148D02*X231093D01*
X219707Y45652D02*X220493D01*
X219707Y48800D02*X220493D01*
G54D27*X184957Y56193D02*Y55407D01*
X192043Y56193D02*Y55407D01*
G54D25*X183874Y71693D02*Y70907D01*
X180726Y71693D02*Y70907D01*
X190226Y67393D02*Y66607D01*
X193374Y67393D02*Y66607D01*
X187226Y62993D02*Y62207D01*
X190374Y62993D02*Y62207D01*
X191248Y86493D02*Y85707D01*
X188100Y86493D02*Y85707D01*
X191248Y82693D02*Y81907D01*
X191348Y76993D02*Y76207D01*
X188100Y82693D02*Y81907D01*
X188200Y76993D02*Y76207D01*
G54D33*X201900Y27850D02*Y25750D01*
X196900Y27850D02*Y25750D01*
X191900Y27850D02*Y25750D01*
Y11450D02*Y9350D01*
X196900Y11450D02*Y9350D01*
X201900Y11450D02*Y9350D01*
G54D34*X184000Y23600D02*X185400D01*
X184000Y13600D02*X185400D01*
X208400D02*X209800D01*
X208400Y23600D02*X209800D01*
G54D25*X219589Y22621D02*Y21835D01*
X216441Y22621D02*Y21835D01*
G54D30*X151034Y25733D02*X152412D01*
X151034Y27702D02*X152412D01*
X151034Y29671D02*X152412D01*
X151034Y31640D02*X152412D01*
X151034Y33609D02*X152412D01*
X145230Y23866D02*Y22488D01*
G54D25*X145207Y11726D02*X145993D01*
X145207Y14874D02*X145993D01*
G54D30*X147199Y23866D02*Y22488D01*
X149168Y23866D02*Y22488D01*
G54D25*X157707Y23126D02*X158493D01*
X157707Y26274D02*X158493D01*
G54D30*X151034Y39516D02*X152412D01*
X151034Y41485D02*X152412D01*
X151034Y43454D02*X152412D01*
X151034Y45423D02*X152412D01*
X151034Y47392D02*X152412D01*
X151034Y49361D02*X152412D01*
X151034Y51330D02*X152412D01*
X151034Y53299D02*X152412D01*
X151034Y55268D02*X152412D01*
X147198Y58512D02*Y57134D01*
X145229Y58512D02*Y57134D01*
G54D25*X163174Y57193D02*Y56407D01*
X160026Y57193D02*Y56407D01*
X168807Y57448D02*X169593D01*
X168807Y54300D02*X169593D01*
G54D26*X168708Y50059D02*X169692D01*
X168708Y44941D02*X169692D01*
G54D25*X163907Y47600D02*X164693D01*
X163907Y44452D02*X164693D01*
G54D30*X151034Y35578D02*X152412D01*
X151034Y37547D02*X152412D01*
G54D25*X163174Y41193D02*Y40407D01*
X160026Y41193D02*Y40407D01*
X163174Y37593D02*Y36807D01*
X160026Y37593D02*Y36807D01*
X164722Y33793D02*Y33007D01*
X161574Y33793D02*Y33007D01*
X166474Y29793D02*Y29007D01*
X163326Y29793D02*Y29007D01*
X172181Y36648D02*X172967D01*
X172181Y33500D02*X172967D01*
X174274Y29893D02*Y29107D01*
X171126Y29893D02*Y29107D01*
X176748Y18493D02*Y17707D01*
X173600Y18493D02*Y17707D01*
G54D30*X149167Y58512D02*Y57134D01*
G54D25*X150074Y66293D02*Y65507D01*
X146926Y66293D02*Y65507D01*
G54D32*X146105Y86171D02*X147869D01*
X145705Y88140D02*X147869D01*
X145705Y90109D02*X147869D01*
X145705Y92078D02*X147869D01*
G54D25*X157548Y86793D02*Y86007D01*
X154400Y86793D02*Y86007D01*
G54D32*X145705Y94047D02*X147869D01*
X145705Y96016D02*X147869D01*
X145705Y97985D02*X147869D01*
X145705Y99954D02*X147869D01*
X145705Y101923D02*X147869D01*
X145705Y103892D02*X147869D01*
X145705Y105861D02*X147869D01*
X146105Y107830D02*X147869D01*
G54D25*X157248Y107993D02*Y107207D01*
X154100Y107993D02*Y107207D01*
X287181Y161848D02*X287967D01*
X287181Y158700D02*X287967D01*
G54D26*X286059Y141392D02*Y140408D01*
X280941Y141392D02*Y140408D01*
G54D25*X279874Y135493D02*Y134707D01*
X276726Y135493D02*Y134707D01*
X261426Y137193D02*Y136407D01*
X264574Y137193D02*Y136407D01*
X267926Y142893D02*Y142107D01*
X271074Y142893D02*Y142107D01*
G54D30*X266551Y153827D02*Y149103D01*
X268520Y153827D02*Y149103D01*
X270489Y153827D02*Y149103D01*
X272458Y153827D02*Y149103D01*
G54D25*X249507Y139526D02*X250293D01*
X249507Y142674D02*X250293D01*
G54D30*X219295Y153827D02*Y149103D01*
X221264Y153827D02*Y149103D01*
X223233Y153827D02*Y149103D01*
X225202Y153827D02*Y149103D01*
X227171Y153827D02*Y149103D01*
X229140Y153827D02*Y149103D01*
X231109Y153827D02*Y149103D01*
X233078Y153827D02*Y149103D01*
X235047Y153827D02*Y149103D01*
X237016Y153827D02*Y149103D01*
X238985Y153827D02*Y149103D01*
X240954Y153827D02*Y149103D01*
X242923Y153827D02*Y149103D01*
X244892Y153827D02*Y149103D01*
X246861Y153827D02*Y149103D01*
X248830Y153827D02*Y149103D01*
X250799Y153827D02*Y149103D01*
X252768Y153827D02*Y149103D01*
X254737Y153827D02*Y149103D01*
G54D25*X256626Y142893D02*Y142107D01*
X259774Y142893D02*Y142107D01*
G54D30*X277173Y160512D02*X281897D01*
X277173Y162481D02*X281897D01*
X256706Y153827D02*Y149103D01*
X258675Y153827D02*Y149103D01*
X260644Y153827D02*Y149103D01*
X262613Y153827D02*Y149103D01*
X264582Y153827D02*Y149103D01*
X218401Y99267D02*X223323D01*
X218401Y97298D02*X223323D01*
X218401Y95329D02*X223323D01*
X218401Y93360D02*X223323D01*
X218401Y91391D02*X223323D01*
X218401Y89422D02*X223323D01*
X218401Y87453D02*X223323D01*
G54D25*X206600Y100693D02*Y99907D01*
X206626Y104693D02*Y103907D01*
Y96793D02*Y96007D01*
G54D30*X252360Y109599D02*Y104677D01*
X250391Y109599D02*Y104677D01*
X248422Y109599D02*Y104677D01*
X246453Y109599D02*Y104677D01*
X244484Y109599D02*Y104677D01*
X242515Y109599D02*Y104677D01*
X240546Y109599D02*Y104677D01*
X238577Y109599D02*Y104677D01*
X236608Y109599D02*Y104677D01*
X234639Y109599D02*Y104677D01*
X232670Y109599D02*Y104677D01*
X230701Y109599D02*Y104677D01*
X228732Y109599D02*Y104677D01*
X218401Y81546D02*X223323D01*
X218401Y79577D02*X223323D01*
X218401Y77608D02*X223323D01*
X218401Y75639D02*X223323D01*
X218401Y73670D02*X223323D01*
X218401Y71701D02*X223323D01*
X218401Y69732D02*X223323D01*
X228733Y64323D02*Y59401D01*
X230702Y64323D02*Y59401D01*
X232671Y64323D02*Y59401D01*
X218401Y85484D02*X223323D01*
X218401Y83515D02*X223323D01*
G54D25*X206626Y92693D02*Y91907D01*
Y88893D02*Y88107D01*
X206678Y85093D02*Y84307D01*
X206726Y81493D02*Y80707D01*
X209874Y81493D02*Y80707D01*
Y77693D02*Y76907D01*
X206726Y77693D02*Y76907D01*
G54D30*X234640Y64323D02*Y59401D01*
X236609Y64323D02*Y59401D01*
X238578Y64323D02*Y59401D01*
X240547Y64323D02*Y59401D01*
G54D11*G36*
X235626Y92374D02*Y76626D01*
X251374D01*
Y92374D01*
X235626D01*
G37*
G36*
X238550Y89450D02*Y84950D01*
X243050D01*
Y89450D01*
X238550D01*
G37*
G36*
Y84050D02*Y79550D01*
X243050D01*
Y84050D01*
X238550D01*
G37*
G36*
X243950Y89450D02*Y84950D01*
X248450D01*
Y89450D01*
X243950D01*
G37*
G36*
Y84050D02*Y79550D01*
X248450D01*
Y84050D01*
X243950D01*
G37*
G54D25*X209748Y100693D02*Y99907D01*
X209774Y96793D02*Y96007D01*
Y92693D02*Y91907D01*
Y88893D02*Y88107D01*
X209826Y85093D02*Y84307D01*
X209774Y104693D02*Y103907D01*
G54D35*X1950Y34000D02*X18050D01*
G54D36*X7050Y17250D02*X13050D01*
X7050Y50750D02*X13050D01*
X7050Y80250D02*X13050D01*
G54D35*X1950Y97000D02*X18050D01*
G54D36*X7050Y113750D02*X13050D01*
G54D35*X1950Y160000D02*X18050D01*
G54D36*X7050Y176750D02*X13050D01*
X7050Y143250D02*X13050D01*
G54D35*X1950Y223000D02*X18050D01*
G54D36*X7050Y206250D02*X13050D01*
X7050Y239750D02*X13050D01*
G54D35*X1950Y286000D02*X18050D01*
G54D36*X7050Y269250D02*X13050D01*
X7050Y302750D02*X13050D01*
G54D25*X49674Y217493D02*Y216707D01*
X46526Y217493D02*Y216707D01*
X28307Y219926D02*X29093D01*
X28307Y223074D02*X29093D01*
X25574Y223393D02*Y222607D01*
G54D37*X41800Y222900D02*X43700D01*
G54D25*X28107Y156626D02*X28893D01*
X28107Y159774D02*X28893D01*
X32326Y160293D02*Y159507D01*
X35474Y160293D02*Y159507D01*
X21726Y160293D02*Y159507D01*
X24874Y160293D02*Y159507D01*
G54D37*X41800Y165100D02*X43700D01*
X41800Y162500D02*X43700D01*
X41800Y159900D02*X43700D01*
G54D25*X34852Y34493D02*Y33707D01*
X30907Y30826D02*X31693D01*
X30907Y33974D02*X31693D01*
X38000Y34493D02*Y33707D01*
X41107Y30952D02*X41893D01*
X41107Y34100D02*X41893D01*
X22426Y223393D02*Y222607D01*
X21426Y286393D02*Y285607D01*
X24574Y286393D02*Y285607D01*
X28107Y282926D02*X28893D01*
X28107Y286074D02*X28893D01*
X32426Y223393D02*Y222607D01*
X35574Y223393D02*Y222607D01*
X32426Y286393D02*Y285607D01*
X35574Y286393D02*Y285607D01*
X49674Y280493D02*Y279707D01*
X46526Y280493D02*Y279707D01*
G54D37*X41800Y291100D02*X43700D01*
X41800Y288500D02*X43700D01*
X41800Y285900D02*X43700D01*
X41800Y228100D02*X43700D01*
X41800Y225500D02*X43700D01*
G54D25*X84526Y197393D02*Y196607D01*
X80107Y199226D02*X80893D01*
X80107Y202374D02*X80893D01*
X87674Y197393D02*Y196607D01*
X85226Y205793D02*Y205007D01*
Y202093D02*Y201307D01*
X88374Y202093D02*Y201307D01*
X93607Y202926D02*X94393D01*
X93607Y206074D02*X94393D01*
X88374Y205793D02*Y205007D01*
X90707Y195826D02*X91493D01*
X90707Y198974D02*X91493D01*
X121607Y184374D02*X122393D01*
X121607Y181226D02*X122393D01*
X114807Y181126D02*X115593D01*
X101407Y203126D02*X102193D01*
X101407Y206274D02*X102193D01*
X114581Y202852D02*X115367D01*
X114581Y206000D02*X115367D01*
X108074Y203693D02*Y202907D01*
X104926Y203693D02*Y202907D01*
X107874Y199793D02*Y199007D01*
X104726Y199793D02*Y199007D01*
X98626Y200093D02*Y199307D01*
X101774Y200093D02*Y199307D01*
X108426Y217393D02*Y216607D01*
X111574Y217393D02*Y216607D01*
X108426Y220893D02*Y220107D01*
X111574Y220893D02*Y220107D01*
X108426Y227893D02*Y227107D01*
X111574Y227893D02*Y227107D01*
X108426Y231393D02*Y230607D01*
X111574Y231393D02*Y230607D01*
X108926Y224393D02*Y223607D01*
X112074Y224393D02*Y223607D01*
X110652Y213267D02*Y212481D01*
X113800Y213267D02*Y212481D01*
X104607Y210926D02*X105393D01*
X104607Y214074D02*X105393D01*
G54D32*X78508Y219062D02*X81066D01*
X78508Y217093D02*X81066D01*
X83093Y215067D02*Y212509D01*
X85062Y215067D02*Y212509D01*
X87031Y215067D02*Y212509D01*
X89000Y215067D02*Y212509D01*
X90969Y215067D02*Y212509D01*
X92938Y215067D02*Y212509D01*
X94907Y215067D02*Y212509D01*
X96933Y217093D02*X99491D01*
X96933Y219062D02*X99491D01*
X96933Y221031D02*X99491D01*
X96933Y223000D02*X99491D01*
X96933Y224969D02*X99491D01*
X96933Y226938D02*X99491D01*
X96933Y228907D02*X99491D01*
X94907Y233492D02*Y230934D01*
X92938Y233492D02*Y230934D01*
X90969Y233492D02*Y230934D01*
X89000Y233492D02*Y230934D01*
X87031Y233492D02*Y230934D01*
X85062Y233492D02*Y230934D01*
X83093Y233492D02*Y230934D01*
G54D11*G36*
X82602Y229398D02*Y216602D01*
X95398D01*
Y229398D01*
X82602D01*
G37*
G36*
X85050Y226950D02*Y223550D01*
X88450D01*
Y226950D01*
X85050D01*
G37*
G36*
Y222450D02*Y219050D01*
X88450D01*
Y222450D01*
X85050D01*
G37*
G36*
X89550Y226950D02*Y223550D01*
X92950D01*
Y226950D01*
X89550D01*
G37*
G36*
Y222450D02*Y219050D01*
X92950D01*
Y222450D01*
X89550D01*
G37*
G54D25*X64207Y208126D02*X64993D01*
X64207Y211274D02*X64993D01*
X77926Y208393D02*Y207607D01*
X81074Y208393D02*Y207607D01*
X74107Y209226D02*X74893D01*
X74107Y212374D02*X74893D01*
X70607Y214926D02*X71393D01*
X70607Y218074D02*X71393D01*
X59707Y208026D02*X60493D01*
X59707Y211174D02*X60493D01*
X62926Y225893D02*Y225107D01*
X63607Y229226D02*X64393D01*
X56526Y228293D02*Y227507D01*
X59674Y228293D02*Y227507D01*
X51426Y239693D02*Y238907D01*
X50407Y232626D02*X51193D01*
X50407Y235774D02*X51193D01*
X54574Y239693D02*Y238907D01*
X51326Y243493D02*Y242707D01*
X54474Y243493D02*Y242707D01*
G54D37*X49300Y222900D02*X51200D01*
X49300Y225500D02*X51200D01*
X49300Y228100D02*X51200D01*
G54D25*X69607Y228926D02*X70393D01*
X70426Y223893D02*Y223107D01*
X66074Y225893D02*Y225107D01*
X69607Y232074D02*X70393D01*
X63607Y232374D02*X64393D01*
X73574Y223893D02*Y223107D01*
G54D32*X78508Y228907D02*X81066D01*
X78508Y226938D02*X81066D01*
X78508Y224969D02*X81066D01*
X78508Y223000D02*X81066D01*
X78508Y221031D02*X81066D01*
G54D25*X114507Y269374D02*X115293D01*
X114533Y243548D02*X115319D01*
X114533Y240400D02*X115319D01*
X114574Y235093D02*Y234307D01*
X121807Y261726D02*X122593D01*
X121807Y264874D02*X122593D01*
X119007Y246174D02*X119793D01*
X119007Y243026D02*X119793D01*
X111574Y294393D02*Y293607D01*
X111426Y235093D02*Y234307D01*
X111626Y298093D02*Y297307D01*
G54D32*X119131Y279108D02*X121295D01*
X119131Y277139D02*X121295D01*
X119131Y275170D02*X120895D01*
X122671Y273395D02*Y271631D01*
G54D25*X78026Y271793D02*Y271007D01*
X74007Y272426D02*X74793D01*
X74007Y275574D02*X74793D01*
X64107Y271352D02*X64893D01*
X64107Y274500D02*X64893D01*
X59807Y271252D02*X60593D01*
X59807Y274400D02*X60593D01*
X70607Y277926D02*X71393D01*
X70607Y281074D02*X71393D01*
X71107Y290726D02*X71893D01*
X69926Y286893D02*Y286107D01*
X73074Y286893D02*Y286107D01*
X71107Y293874D02*X71893D01*
X63607Y295074D02*X64393D01*
X63607Y291926D02*X64393D01*
X74033Y302496D02*X74819D01*
X74033Y299348D02*X74819D01*
X62926Y288393D02*Y287607D01*
X66074Y288393D02*Y287607D01*
X56426Y291393D02*Y290607D01*
X59574Y291393D02*Y290607D01*
X50607Y295426D02*X51393D01*
G54D37*X49300Y285900D02*X51200D01*
X49300Y288500D02*X51200D01*
X49300Y291100D02*X51200D01*
G54D25*X50607Y298574D02*X51393D01*
X51426Y306393D02*Y305607D01*
X54574Y306393D02*Y305607D01*
X51426Y302393D02*Y301607D01*
X54574Y302393D02*Y301607D01*
X157574Y171093D02*Y170307D01*
X157474Y212893D02*Y212107D01*
X154326Y212893D02*Y212107D01*
X154526Y233993D02*Y233207D01*
X154426Y171093D02*Y170307D01*
G54D32*X146105Y275171D02*X147869D01*
X145705Y277140D02*X147869D01*
X145705Y279109D02*X147869D01*
X145705Y281078D02*X147869D01*
X145705Y283047D02*X147869D01*
X145705Y285016D02*X147869D01*
X145705Y286985D02*X147869D01*
X145705Y288954D02*X147869D01*
X145705Y290923D02*X147869D01*
X145705Y292892D02*X147869D01*
X145705Y294861D02*X147869D01*
X146105Y296830D02*X147869D01*
G54D25*X114507Y266226D02*X115293D01*
X93807Y265926D02*X94593D01*
X93807Y269074D02*X94593D01*
X104507Y273878D02*X105293D01*
X104507Y277026D02*X105293D01*
X88374Y264393D02*Y263607D01*
X98426Y238693D02*Y237907D01*
X101574Y238693D02*Y237907D01*
X92426Y238693D02*Y237907D01*
X95574Y238693D02*Y237907D01*
X101307Y267826D02*X102093D01*
X98626Y263893D02*Y263107D01*
X101774Y263893D02*Y263107D01*
X101307Y270974D02*X102093D01*
X108274Y267793D02*Y267007D01*
X105126Y267793D02*Y267007D01*
X108374Y263893D02*Y263107D01*
X105226Y263893D02*Y263107D01*
X92374Y305293D02*Y304507D01*
X89226Y305293D02*Y304507D01*
X91007Y261774D02*X91793D01*
X92426Y301393D02*Y300607D01*
X95574Y301393D02*Y300607D01*
X98926Y301393D02*Y300607D01*
X102074Y301393D02*Y300607D01*
X92574Y242993D02*Y242207D01*
X89426Y242993D02*Y242207D01*
X80107Y265374D02*X80893D01*
X85026Y268393D02*Y267607D01*
X74107Y240574D02*X74893D01*
X74107Y237426D02*X74893D01*
X88174Y268393D02*Y267607D01*
X84126Y259893D02*Y259107D01*
X87274Y259893D02*Y259107D01*
X80107Y262226D02*X80893D01*
X85226Y264393D02*Y263607D01*
X91007Y258626D02*X91793D01*
X81174Y271793D02*Y271007D01*
G54D32*X78508Y291907D02*X81066D01*
X78508Y289938D02*X81066D01*
X78508Y287969D02*X81066D01*
X78508Y286000D02*X81066D01*
X78508Y284031D02*X81066D01*
X78508Y282062D02*X81066D01*
X78508Y280093D02*X81066D01*
G54D25*X108900Y287393D02*Y286607D01*
X112048Y287393D02*Y286607D01*
X108426Y290893D02*Y290107D01*
X111574Y290893D02*Y290107D01*
X108426Y294393D02*Y293607D01*
X114807Y307174D02*X115593D01*
X114807Y304026D02*X115593D01*
X114774Y298093D02*Y297307D01*
X108426Y280393D02*Y279607D01*
X111574Y280393D02*Y279607D01*
X108426Y283893D02*Y283107D01*
X111574Y283893D02*Y283107D01*
X110426Y276393D02*Y275607D01*
X113574Y276393D02*Y275607D01*
X121607Y310574D02*X122393D01*
X121607Y307426D02*X122393D01*
G54D32*X119131Y296829D02*X120895D01*
X122670Y300369D02*Y298605D01*
X119131Y294860D02*X121295D01*
X119131Y292891D02*X121295D01*
X119131Y290922D02*X121295D01*
X119131Y288953D02*X121295D01*
X119131Y286984D02*X121295D01*
X119131Y285015D02*X121295D01*
X119131Y283046D02*X121295D01*
X119131Y281077D02*X121295D01*
X124640Y273795D02*Y271631D01*
X126609Y273795D02*Y271631D01*
X128578Y273795D02*Y271631D01*
X130547Y273795D02*Y271631D01*
X132516Y273795D02*Y271631D01*
X134485Y273795D02*Y271631D01*
X136454Y273795D02*Y271631D01*
X144329Y300369D02*Y298605D01*
X142360Y300369D02*Y298205D01*
X140391Y300369D02*Y298205D01*
X138422Y300369D02*Y298205D01*
X136453Y300369D02*Y298205D01*
X134484Y300369D02*Y298205D01*
X132515Y300369D02*Y298205D01*
X130546Y300369D02*Y298205D01*
X128577Y300369D02*Y298205D01*
X126608Y300369D02*Y298205D01*
X124639Y300369D02*Y298205D01*
X138423Y273795D02*Y271631D01*
X140392Y273795D02*Y271631D01*
X142361Y273795D02*Y271631D01*
X144330Y273395D02*Y271631D01*
G54D11*G36*
X122870Y296630D02*Y275370D01*
X144130D01*
Y296630D01*
X122870D01*
G37*
G36*
X125500Y294000D02*Y289400D01*
X130100D01*
Y294000D01*
X125500D01*
G37*
G36*
Y288300D02*Y283700D01*
X130100D01*
Y288300D01*
X125500D01*
G37*
G36*
X131200D02*Y283700D01*
X135800D01*
Y288300D01*
X131200D01*
G37*
G36*
Y294000D02*Y289400D01*
X135800D01*
Y294000D01*
X131200D01*
G37*
G36*
X136900D02*Y289400D01*
X141500D01*
Y294000D01*
X136900D01*
G37*
G36*
Y288300D02*Y283700D01*
X141500D01*
Y288300D01*
X136900D01*
G37*
G36*
X125500Y282600D02*Y278000D01*
X130100D01*
Y282600D01*
X125500D01*
G37*
G36*
X131200D02*Y278000D01*
X135800D01*
Y282600D01*
X131200D01*
G37*
G36*
X136900D02*Y278000D01*
X141500D01*
Y282600D01*
X136900D01*
G37*
G54D25*X74107Y177374D02*X74893D01*
X74107Y174226D02*X74893D01*
X70207Y168774D02*X70993D01*
X51426Y180493D02*Y179707D01*
X54574Y180493D02*Y179707D01*
X51226Y176893D02*Y176107D01*
X54374Y176893D02*Y176107D01*
X50507Y169726D02*X51293D01*
X50507Y172874D02*X51293D01*
X103307Y150874D02*X104093D01*
X108326Y153793D02*Y153007D01*
Y157593D02*Y156807D01*
X111474Y153793D02*Y153007D01*
Y157593D02*Y156807D01*
X110326Y150193D02*Y149407D01*
X113474Y150193D02*Y149407D01*
X109226Y161293D02*Y160507D01*
X112374Y161293D02*Y160507D01*
G54D32*X94907Y152067D02*Y149509D01*
G54D25*X108426Y164993D02*Y164207D01*
X111574Y164993D02*Y164207D01*
X108226Y168693D02*Y167907D01*
X111374Y168693D02*Y167907D01*
X114807Y177978D02*X115593D01*
X111326Y172293D02*Y171507D01*
X114474Y172293D02*Y171507D01*
X92674Y179493D02*Y178707D01*
X89526Y179493D02*Y178707D01*
X92326Y175693D02*Y174907D01*
X98526Y175693D02*Y174907D01*
X101674Y175693D02*Y174907D01*
X95474Y175693D02*Y174907D01*
G54D32*X94907Y170492D02*Y167934D01*
X92938Y170492D02*Y167934D01*
X90969Y170492D02*Y167934D01*
X89000Y170492D02*Y167934D01*
X87031Y170492D02*Y167934D01*
X85062Y170492D02*Y167934D01*
X83093Y170492D02*Y167934D01*
X96933Y154093D02*X99491D01*
X96933Y156062D02*X99491D01*
X96933Y158031D02*X99491D01*
X96933Y160000D02*X99491D01*
X96933Y161969D02*X99491D01*
X96933Y163938D02*X99491D01*
X96933Y165907D02*X99491D01*
G54D11*G36*
X82602Y166398D02*Y153602D01*
X95398D01*
Y166398D01*
X82602D01*
G37*
G36*
X85050Y163950D02*Y160550D01*
X88450D01*
Y163950D01*
X85050D01*
G37*
G36*
Y159450D02*Y156050D01*
X88450D01*
Y159450D01*
X85050D01*
G37*
G36*
X89550Y163950D02*Y160550D01*
X92950D01*
Y163950D01*
X89550D01*
G37*
G36*
Y159450D02*Y156050D01*
X92950D01*
Y159450D01*
X89550D01*
G37*
G54D25*X70207Y165626D02*X70993D01*
X56426Y165593D02*Y164807D01*
X59574Y165593D02*Y164807D01*
G54D32*X78508Y165907D02*X81066D01*
X78508Y163938D02*X81066D01*
G54D25*X81174Y145693D02*Y144907D01*
X70226Y160693D02*Y159907D01*
X73374Y160693D02*Y159907D01*
G54D32*X78508Y161969D02*X81066D01*
X78508Y160000D02*X81066D01*
X78508Y158031D02*X81066D01*
X78508Y156062D02*X81066D01*
X78508Y154093D02*X81066D01*
G54D25*X62826Y163093D02*Y162307D01*
X63307Y169874D02*X64093D01*
X63307Y166726D02*X64093D01*
X65974Y163093D02*Y162307D01*
X84326Y134293D02*Y133507D01*
X90807Y132926D02*X91593D01*
X90807Y136074D02*X91593D01*
X87474Y134293D02*Y133507D01*
X88274Y142593D02*Y141807D01*
X85126Y142593D02*Y141807D01*
Y138793D02*Y138007D01*
X88274Y138793D02*Y138007D01*
X80507Y136226D02*X81293D01*
X80507Y139374D02*X81293D01*
X70407Y151826D02*X71193D01*
X70407Y154974D02*X71193D01*
X74107Y146226D02*X74893D01*
X74107Y149374D02*X74893D01*
X78026Y145693D02*Y144907D01*
G54D32*X83093Y152067D02*Y149509D01*
G54D25*X64007Y145126D02*X64793D01*
X64007Y148274D02*X64793D01*
X59807Y145126D02*X60593D01*
X59807Y148274D02*X60593D01*
G54D32*X85062Y152067D02*Y149509D01*
X87031Y152067D02*Y149509D01*
X89000Y152067D02*Y149509D01*
X90969Y152067D02*Y149509D01*
X92938Y152067D02*Y149509D01*
G54D25*X49674Y154493D02*Y153707D01*
X46526Y154493D02*Y153707D01*
G54D37*X49300Y159900D02*X51200D01*
X49300Y162500D02*X51200D01*
X49300Y165100D02*X51200D01*
G54D25*X93807Y140026D02*X94593D01*
X101307Y140226D02*X102093D01*
X93807Y143174D02*X94593D01*
X103307Y147726D02*X104093D01*
X101307Y143374D02*X102093D01*
X105426Y141593D02*Y140807D01*
X105526Y137393D02*Y136607D01*
X98526Y137393D02*Y136607D01*
X101674Y137393D02*Y136607D01*
X114607Y139926D02*X115393D01*
X114607Y143074D02*X115393D01*
X108574Y141593D02*Y140807D01*
X108674Y137393D02*Y136607D01*
X121807Y135826D02*X122593D01*
X121807Y138974D02*X122593D01*
G54D32*X122671Y147395D02*Y145631D01*
X119131Y170829D02*X120895D01*
X119131Y168860D02*X121295D01*
X119131Y166891D02*X121295D01*
X119131Y164922D02*X121295D01*
X119131Y162953D02*X121295D01*
X119131Y160984D02*X121295D01*
X119131Y159015D02*X121295D01*
X119131Y157046D02*X121295D01*
X119131Y155077D02*X121295D01*
X119131Y153108D02*X121295D01*
X119131Y151139D02*X121295D01*
X119131Y149170D02*X120895D01*
X124640Y147795D02*Y145631D01*
X126609Y147795D02*Y145631D01*
X128578Y147795D02*Y145631D01*
X130547Y147795D02*Y145631D01*
X132516Y147795D02*Y145631D01*
X134485Y147795D02*Y145631D01*
X144329Y174369D02*Y172605D01*
X142360Y174369D02*Y172205D01*
X140391Y174369D02*Y172205D01*
X138422Y174369D02*Y172205D01*
X136453Y174369D02*Y172205D01*
X134484Y174369D02*Y172205D01*
X132515Y174369D02*Y172205D01*
X130546Y174369D02*Y172205D01*
X128577Y174369D02*Y172205D01*
X126608Y174369D02*Y172205D01*
X124639Y174369D02*Y172205D01*
X122670Y174369D02*Y172605D01*
X136454Y147795D02*Y145631D01*
X138423Y147795D02*Y145631D01*
X140392Y147795D02*Y145631D01*
X142361Y147795D02*Y145631D01*
X144330Y147395D02*Y145631D01*
G54D11*G36*
X122870Y170630D02*Y149370D01*
X144130D01*
Y170630D01*
X122870D01*
G37*
G36*
X125500Y168000D02*Y163400D01*
X130100D01*
Y168000D01*
X125500D01*
G37*
G36*
Y162300D02*Y157700D01*
X130100D01*
Y162300D01*
X125500D01*
G37*
G36*
X131200D02*Y157700D01*
X135800D01*
Y162300D01*
X131200D01*
G37*
G36*
Y168000D02*Y163400D01*
X135800D01*
Y168000D01*
X131200D01*
G37*
G36*
X136900D02*Y163400D01*
X141500D01*
Y168000D01*
X136900D01*
G37*
G36*
Y162300D02*Y157700D01*
X141500D01*
Y162300D01*
X136900D01*
G37*
G36*
X125500Y156600D02*Y152000D01*
X130100D01*
Y156600D01*
X125500D01*
G37*
G36*
X131200D02*Y152000D01*
X135800D01*
Y156600D01*
X131200D01*
G37*
G36*
X136900D02*Y152000D01*
X141500D01*
Y156600D01*
X136900D01*
G37*
G54D38*X3000Y191500D03*
X13000D03*
X123000D03*
X113000D03*
X103000D03*
X93000D03*
X83000D03*
X73000D03*
X63000D03*
X53000D03*
X43000D03*
X33000D03*
X23000D03*
X227200Y156700D03*
X157600Y152600D03*
X233300Y162900D03*
X218800Y162200D03*
Y158800D03*
X212100Y168100D03*
X190000Y168000D03*
X187400Y165700D03*
X202400Y163900D03*
X182600Y157400D03*
X174100Y163500D03*
X183900Y164200D03*
X182600Y152400D03*
X151500Y212300D03*
X151900Y208300D03*
X149400Y200400D03*
X153500Y199000D03*
X110300Y209800D03*
X109800Y196400D03*
X128900Y198600D03*
X111300Y204100D03*
X142000Y214500D03*
X145300Y200300D03*
X159100Y205900D03*
X166900Y204600D03*
X174100Y205300D03*
X173800Y202100D03*
X186900Y203500D03*
X189400Y200900D03*
X151600Y149300D03*
X151500Y170700D03*
X157400Y167600D03*
X142000Y151500D03*
Y157000D03*
Y163000D03*
X136500D03*
Y157000D03*
Y168500D03*
X142000D03*
X106174Y160900D03*
X115600Y157900D03*
Y162500D03*
X136500Y151500D03*
X130500D03*
Y157000D03*
X125000Y151500D03*
Y157000D03*
Y163000D03*
X130500D03*
Y168500D03*
X125000D03*
X129100Y178200D03*
X71300Y177600D03*
X48000Y176400D03*
X54500Y172500D03*
X50500Y183400D03*
X54500D03*
X60500Y169100D03*
X74500Y170700D03*
X80900Y174500D03*
X89400D03*
X74500Y167400D03*
Y163800D03*
X39000Y165900D03*
X38000Y162800D03*
X54000Y161900D03*
X89000Y164500D03*
X93500D03*
X84500D03*
X64400Y142426D03*
X74600Y143700D03*
X70800Y149000D03*
X74500Y151900D03*
Y154900D03*
X73000Y128500D03*
X69800Y135300D03*
X63000Y128500D03*
X53000D03*
X43000D03*
X60100Y142600D03*
X60200Y123900D03*
X10000Y173000D03*
X16500D03*
X3500D03*
X10000Y180500D03*
X16500D03*
X3500D03*
X46400Y151000D03*
X25000Y156400D03*
X32000D03*
X28500Y153900D03*
X23000Y128500D03*
X33000D03*
X3000D03*
X13000D03*
X9600Y139400D03*
X16100D03*
X3100D03*
X9600Y146900D03*
X10000Y110000D03*
Y117500D03*
X16100Y146900D03*
X16500Y110000D03*
Y117500D03*
X3100Y146900D03*
X3500Y110000D03*
Y117500D03*
X130400Y138400D03*
X125500Y135600D03*
X126900Y138800D03*
X121900Y141800D03*
X134100D03*
X130800Y141900D03*
X125100Y141800D03*
X114800Y145900D03*
X110400Y146800D03*
X105600Y144800D03*
X111400Y141100D03*
X133500Y138700D03*
X110900Y174700D03*
X125200Y184500D03*
X121900Y178200D03*
X115100Y175200D03*
Y183900D03*
X124474Y198574D03*
X105300Y196200D03*
X130200Y201700D03*
X126500Y202000D03*
X121600Y204800D03*
X134000D03*
X130800Y204900D03*
X124800Y204800D03*
X136500Y214500D03*
X130500D03*
X125000D03*
X64300Y205426D03*
X9600Y202400D03*
X16100D03*
X3100D03*
X60000Y205500D03*
X70700Y212000D03*
X68300Y197700D03*
X74500Y206700D03*
X74400Y214900D03*
Y217900D03*
X46300Y214000D03*
X24900Y219400D03*
X28400Y216900D03*
X9600Y209900D03*
X16100D03*
X3100D03*
X31900Y219400D03*
X95600Y178700D03*
X94100Y208700D03*
X89500Y208800D03*
X86400D03*
X114700Y208900D03*
X114800Y200000D03*
X105500Y207800D03*
X80600Y195900D03*
X77300Y199100D03*
X94300Y195900D03*
X95600Y199900D03*
X78000Y205300D03*
X101600Y196300D03*
X97600Y196400D03*
X103100Y216600D03*
X89000Y218500D03*
X84500D03*
X93500D03*
X114900Y137000D03*
X109900Y133400D03*
X123000Y128500D03*
X113000D03*
X105400Y133200D03*
X101700Y133300D03*
X103000Y128500D03*
X93000D03*
X83000D03*
X115000Y120900D03*
X125100Y121500D03*
X78100Y142300D03*
X80700Y132900D03*
X77400Y136100D03*
X94400Y132900D03*
X95700Y136900D03*
X97700Y133400D03*
X94200Y145700D03*
X89600Y145800D03*
X86500D03*
X103200Y153600D03*
X89000Y155500D03*
X84500D03*
X93500D03*
Y160000D03*
X84500D03*
X89000D03*
X125000Y105500D03*
X130500D03*
X125000Y100000D03*
X121800Y115200D03*
X130900Y115300D03*
X142000Y105500D03*
X136500D03*
X204300Y104500D03*
X130500Y100000D03*
X125000Y94000D03*
X130500D03*
X136500D03*
Y100000D03*
X142000D03*
X204300Y100400D03*
X204400Y96500D03*
X204300Y92500D03*
X142000Y94000D03*
X151400Y107700D03*
X157300Y104600D03*
X184900Y121600D03*
X110800Y111700D03*
X115000Y112200D03*
X115500Y99500D03*
Y94900D03*
X106074Y97900D03*
X95500Y99500D03*
X99800Y98300D03*
X182600Y147200D03*
X151800Y144700D03*
X144500Y139700D03*
X148700Y137300D03*
X203700Y208800D03*
X207300D03*
X203700Y215200D03*
X207200D03*
X203700Y197900D03*
X207300D03*
X203700Y183400D03*
X207300D03*
X213500Y189200D03*
X216800D03*
X213600Y177000D03*
X216800D03*
X217600Y201200D03*
X235200Y156600D03*
X231600Y170100D03*
X235000D03*
X236300Y177700D03*
X241300D03*
X263100Y192600D03*
X264300Y185900D03*
X263800Y219100D03*
X263900Y213100D03*
X259500Y192600D03*
X258600Y218900D03*
X261300Y216200D03*
X258300Y213300D03*
X261300Y210300D03*
X228600Y215200D03*
X239600Y217900D03*
X231700Y215100D03*
X285500Y210400D03*
X238700Y156700D03*
X245100Y158800D03*
Y162200D03*
X248000D03*
Y158800D03*
X249900Y137100D03*
X254500Y156600D03*
X264600D03*
X256800Y163200D03*
X259000Y156400D03*
X285700Y164700D03*
X257100Y181900D03*
X259100Y136800D03*
X274300Y135000D03*
X262100Y142500D03*
X271000Y139700D03*
X304500Y190100D03*
X260700Y146000D03*
X242600Y102600D03*
X239500Y94700D03*
X247252D03*
X244052D03*
X254400Y102600D03*
X258300D03*
X261600Y99500D03*
X255400Y96400D03*
X259300Y95200D03*
X225400Y99300D03*
X231600Y96400D03*
X236300Y94700D03*
X218400Y106100D03*
X222100D03*
X263700Y108900D03*
X350500Y110300D03*
X288900Y109100D03*
X266900Y108900D03*
X315800Y112900D03*
X308000Y127500D03*
X314200D03*
X306000Y116800D03*
X263700Y102500D03*
X266900D03*
X276100Y91600D03*
X276000Y102800D03*
G54D18*X350000Y305000D03*
G54D38*X328500Y306300D03*
X322500Y306400D03*
X326000Y303500D03*
X321600Y302200D03*
X317600Y296600D03*
X313700Y296800D03*
X307300Y257300D03*
X305400Y253200D03*
X307300Y250700D03*
X305300Y248200D03*
X307300Y245900D03*
X287600Y156200D03*
X324500Y258200D03*
X327700Y257200D03*
X330800Y258200D03*
Y254800D03*
X329300Y252100D03*
X330700Y249500D03*
X329500Y246700D03*
X360400Y234600D03*
X363600Y236900D03*
X369900Y239100D03*
X366100Y241500D03*
X344000Y248400D03*
X287100Y279600D03*
X282100D03*
X282000Y287200D03*
X279800Y290100D03*
X272100Y284400D03*
X276000Y247900D03*
X284900Y245000D03*
X280000Y247700D03*
X284200Y290100D03*
X298100Y292900D03*
X276700Y316200D03*
X280200Y316500D03*
X283700Y316400D03*
X287400Y316100D03*
X275600Y312700D03*
X279200D03*
X282800Y312600D03*
X286500D03*
X290300D03*
X332400Y159000D03*
X321600Y152800D03*
X318600Y150700D03*
X337500Y158900D03*
X327400Y196500D03*
X337300Y197000D03*
X332300Y199400D03*
X322100Y196400D03*
X366100Y195100D03*
X360300Y187200D03*
X369900Y179300D03*
X363700Y171300D03*
X201800Y189700D03*
Y180200D03*
Y168400D03*
X201600Y158500D03*
Y221600D03*
X201800Y194200D03*
Y203900D03*
X213400Y156800D03*
X207600Y192000D03*
Y174300D03*
X274200Y164400D03*
Y168000D03*
X270000Y158600D03*
X274200Y192000D03*
X274100Y195400D03*
X274400Y203900D03*
X274300Y199600D03*
X274200Y184100D03*
X268400Y190000D03*
X274000Y179500D03*
Y175200D03*
X268900D03*
X268600Y202400D03*
X273000Y210200D03*
X268900Y210300D03*
X235000Y223100D03*
X227200Y223900D03*
X218500Y223700D03*
X233100Y229700D03*
X229800Y229800D03*
X221300Y229600D03*
X218100Y229700D03*
X227100Y227100D03*
X222500Y240600D03*
X321600Y225200D03*
X321100Y219000D03*
X274500Y227600D03*
X84500Y227500D03*
X174600Y227400D03*
X277100Y279600D03*
Y273600D03*
X282100D03*
X287100D03*
X295000Y273800D03*
X275600Y265100D03*
X288400Y264900D03*
X285200Y264600D03*
X278800Y264800D03*
X272900Y254500D03*
X286300Y256200D03*
X199000Y245100D03*
X198600Y237000D03*
X196800Y234100D03*
X199100Y259300D03*
X130600Y241700D03*
X127800Y244000D03*
X124300Y243500D03*
X131800Y254300D03*
X136500Y251700D03*
X132500Y250900D03*
X61100Y295100D03*
X74500Y293500D03*
X39000Y292000D03*
X38500Y288700D03*
X54000Y288000D03*
X54600Y299100D03*
G54D18*X33000Y305000D03*
G54D38*X48900Y302000D03*
X51300Y308900D03*
X54700D03*
X71500Y302500D03*
X74500Y296800D03*
X82700Y312100D03*
X74500Y289900D03*
X10400Y299100D03*
X3900D03*
X10400Y306600D03*
X3900D03*
X16900Y299100D03*
Y306600D03*
X33000Y254500D03*
X10000Y265500D03*
X16500D03*
X13000Y254500D03*
X3500Y265500D03*
X10000Y273000D03*
X16500D03*
X3500D03*
X25500Y282500D03*
X31500D03*
X28500Y280300D03*
X70800Y275100D03*
X74600Y269800D03*
X78100Y268400D03*
X74500Y278000D03*
X84500Y281500D03*
X74500Y281000D03*
X64400Y268526D03*
X46400Y277100D03*
X60000Y268700D03*
X68300Y260900D03*
X115600Y284000D03*
Y288600D03*
X125000Y283000D03*
Y289000D03*
X151500Y296800D03*
X142000Y283000D03*
Y289000D03*
X136500D03*
Y283000D03*
X130500D03*
Y289000D03*
X121700Y267900D03*
X114800Y272000D03*
X157600Y278700D03*
X151600Y275400D03*
X136500Y277500D03*
X130500D03*
X125000D03*
X142000D03*
X125500Y261700D03*
X133900Y267900D03*
X130800Y268000D03*
X124900Y267900D03*
X114900Y263100D03*
X110400Y272900D03*
X105600Y270900D03*
Y259700D03*
X110200Y260000D03*
X111400Y267200D03*
X81200Y258600D03*
X77400Y262200D03*
X94200Y258700D03*
X101600Y259600D03*
X97200Y259800D03*
X66000Y250500D03*
X95700Y263000D03*
X94200Y271800D03*
X89600Y271900D03*
X86500D03*
X89000Y281500D03*
X93500D03*
X103600Y280000D03*
X106174Y287000D03*
X95600Y304800D03*
X80900Y300600D03*
X89400D03*
X85100Y309400D03*
X93500Y286000D03*
X84500D03*
X89000D03*
Y290500D03*
X93500D03*
X84500D03*
X125200Y310600D03*
X121900Y304300D03*
X125400Y307300D03*
X126700Y304000D03*
X157400Y293700D03*
X136500Y294500D03*
X130500D03*
X142000D03*
X125000D03*
X115100Y301200D03*
Y310000D03*
X110900Y300800D03*
X129600Y312000D03*
X269100Y273700D03*
X266000Y292600D03*
X255600Y257300D03*
X250500Y296400D03*
X236000Y278400D03*
X237700Y275200D03*
X240300Y278400D03*
X241800Y275000D03*
X274400Y217600D03*
X273100Y220900D03*
X269000Y221000D03*
X264600Y229700D03*
X257000Y227100D03*
Y223900D03*
X253400Y227100D03*
Y223900D03*
X246900Y229700D03*
X241300Y229800D03*
X243900Y227900D03*
X265200Y246500D03*
X253000Y239600D03*
X253100Y243000D03*
X253800Y247600D03*
X251200Y250300D03*
X271600Y250600D03*
X204100Y307600D03*
X204300Y258900D03*
X201700Y224800D03*
X212100Y227100D03*
Y223900D03*
X208700Y227100D03*
Y223800D03*
X212100Y250600D03*
X214000Y243300D03*
X234400Y306100D03*
X241700Y306200D03*
X237900Y302400D03*
X243300Y301600D03*
X245500Y296200D03*
X231700Y278400D03*
X233500Y275100D03*
X223400Y307800D03*
X218600Y294400D03*
X130200Y264700D03*
X126500Y265000D03*
X122100Y245800D03*
X121800Y241200D03*
X115000Y238100D03*
X112100Y243500D03*
X110800Y237700D03*
X106074Y223900D03*
X95500Y241700D03*
X115500Y220900D03*
Y225500D03*
X157300Y230600D03*
X157500Y215600D03*
X151400Y233700D03*
X71200Y240600D03*
X74400Y233700D03*
Y230400D03*
Y226800D03*
X47900Y239400D03*
X54400Y235500D03*
X38900Y228900D03*
X37900Y225800D03*
X50400Y246400D03*
X54400D03*
X80800Y237500D03*
X60400Y232100D03*
X53900Y224900D03*
X89300Y237500D03*
X142000Y220000D03*
X3000Y254500D03*
X53000D03*
X43000D03*
X23000D03*
X10000Y236000D03*
X16500D03*
X3500D03*
X10000Y243500D03*
X16500D03*
X3500D03*
X142000Y226000D03*
Y231500D03*
X136500Y226000D03*
X125000D03*
X130500D03*
Y231500D03*
X125000D03*
X136500Y220000D03*
Y231500D03*
X130500Y220000D03*
X125000D03*
X93500Y223000D03*
X89000Y227500D03*
X84500Y223000D03*
X89000D03*
X93500Y227500D03*
X123000Y254500D03*
X113000D03*
X103000D03*
X93000D03*
X83000D03*
X73000D03*
X63000D03*
G54D18*X350000Y15000D03*
G54D38*X337700Y29600D03*
X335200Y26800D03*
X332800Y23500D03*
X330500Y20100D03*
X328000Y15800D03*
X254300Y55700D03*
X261600Y69700D03*
X252400Y67200D03*
X255600D03*
X259600Y33700D03*
X275200Y33600D03*
X263700Y60200D03*
X266900Y60300D03*
X279900Y62100D03*
X263800Y66900D03*
X267000Y67000D03*
X244200Y55500D03*
X243100Y44100D03*
X246000Y41900D03*
X248500Y39700D03*
X251500Y37500D03*
X234600Y50800D03*
X237200Y48600D03*
X240200Y46300D03*
X229400Y38948D03*
X220000Y43100D03*
X223500Y54100D03*
X202000Y6200D03*
X213300Y13500D03*
X215500Y35900D03*
X216215Y19528D03*
X219615Y19428D03*
X230200Y53000D03*
X232600Y55700D03*
X234700Y66500D03*
X212600Y63500D03*
X242900Y68000D03*
X246200Y67900D03*
X175500Y36700D03*
X146000Y36500D03*
Y28500D03*
X157400Y29200D03*
X167300Y33600D03*
X142900Y11700D03*
X161100Y23100D03*
X145400Y17600D03*
X165800Y37500D03*
X157400Y36900D03*
X180400Y23600D03*
X170500Y5500D03*
X170400Y12000D03*
X174500Y14300D03*
X167300Y10100D03*
X131000Y17400D03*
X134200D03*
X131700Y11500D03*
X118900Y17600D03*
X122400D03*
X115700Y11800D03*
X125600D03*
X112600Y15800D03*
X122500Y36500D03*
X130500D03*
Y28500D03*
X109800Y33100D03*
X105200Y34100D03*
X111200Y38500D03*
X122500Y28500D03*
X87100Y26200D03*
Y29700D03*
X103900Y15900D03*
X87800Y15700D03*
X109800Y21800D03*
X92900Y25700D03*
Y29900D03*
X87800Y38300D03*
X41500Y28400D03*
X31200Y28300D03*
G54D18*X33000Y15000D03*
G54D38*X10000Y47000D03*
X9600Y13400D03*
Y20900D03*
Y76400D03*
Y83900D03*
X16500Y47000D03*
X16100Y13400D03*
Y20900D03*
X3500Y47000D03*
X3100Y13400D03*
Y20900D03*
Y76400D03*
Y83900D03*
X10000Y54500D03*
X3500D03*
X16500D03*
X16100Y76400D03*
Y83900D03*
X141200Y66900D03*
X141400Y63600D03*
X142000Y88500D03*
X136500D03*
Y66800D03*
X130800Y78900D03*
X185700Y81600D03*
X134000Y78800D03*
X133400Y63400D03*
X151500Y86300D03*
X157500Y89600D03*
X185800Y85500D03*
X131000Y66000D03*
X136600Y63400D03*
X125000Y88500D03*
X130500D03*
X110300Y83800D03*
X114700Y82900D03*
X95300Y88000D03*
X99700Y87100D03*
X124800Y78800D03*
X125400Y72600D03*
X121600Y78800D03*
X114800Y74000D03*
X127400Y69400D03*
X124000Y66800D03*
X119400Y63300D03*
X124100Y63600D03*
X113400Y61000D03*
X96200Y81100D03*
X122500Y52500D03*
X130500D03*
Y45000D03*
X122500D03*
X105500Y41600D03*
X111700Y43700D03*
X87000Y58600D03*
Y55200D03*
X92800Y54900D03*
X87100Y50100D03*
Y46900D03*
X92900Y46000D03*
X92800Y50200D03*
Y58800D03*
X163174Y59674D03*
X150000Y63000D03*
X146100Y62800D03*
X157400Y56800D03*
X169100Y59900D03*
X138500Y52500D03*
Y45000D03*
Y36500D03*
Y28500D03*
X146000Y45000D03*
Y52500D03*
X160500Y47300D03*
X160400Y52100D03*
X157500Y49800D03*
X157600Y45400D03*
X165600Y40800D03*
X157300Y40300D03*
X164200Y50000D03*
X184800Y62600D03*
X180700Y68400D03*
X186200Y70100D03*
X183600Y51400D03*
X186300Y51300D03*
X198500Y49000D03*
X209800Y57300D03*
Y54400D03*
X200500Y38700D03*
X204300Y88700D03*
X204400Y85000D03*
Y81200D03*
X204300Y77300D03*
X188174Y73700D03*
X193700Y86100D03*
Y82300D03*
X214900Y84000D03*
X215000Y80800D03*
X215100Y76400D03*
X225500Y87400D03*
X238000Y84500D03*
X225500Y75700D03*
X238000Y90000D03*
X227500Y90200D03*
X231300D03*
X231700Y73000D03*
X234900D03*
X227400Y82800D03*
X231700Y82700D03*
X261600Y89400D03*
X243500Y84500D03*
Y90000D03*
X249000Y84500D03*
Y90000D03*
X255800Y89800D03*
X255500Y75700D03*
X243500Y79000D03*
X238000D03*
X249000D03*
X243400Y74400D03*
X246700D03*
X255400Y83300D03*
X259200Y83400D03*
X281200Y72700D03*
X312300Y75200D03*
G54D39*G54D40*G54D39*G54D40*G54D39*G54D40*G54D39*G54D40*G54D39*G54D41*G54D42*G54D43*G54D40*G54D44*G54D45*G54D46*G54D45*G54D42*G54D47*G54D45*G54D46*G54D45*G54D42*G54D47*G54D45*G54D46*G54D48*M02*
