M48
INCH
T127C0.015
T126C0.035
T125C0.128
T124C0.040
T123C0.035
T122C0.038
T121C0.125
T120C0.100
T119C0.062
T118C0.110
%
T127
X000300Y019150
X001300Y019150
X012300Y019150
X011300Y019150
X010300Y019150
X009300Y019150
X008300Y019150
X007300Y019150
X006300Y019150
X005300Y019150
X004300Y019150
X003300Y019150
X002300Y019150
X022720Y015670
X015760Y015260
X023330Y016290
X021880Y016220
X021880Y015880
X021210Y016810
X019000Y016800
X018740Y016570
X020240Y016390
X018260Y015740
X017410Y016350
X018390Y016420
X018260Y015240
X015150Y021230
X015190Y020830
X014940Y020040
X015350Y019900
X011030Y020980
X010980Y019640
X012890Y019860
X011130Y020410
X014200Y021450
X014530Y020030
X015910Y020590
X016690Y020460
X017410Y020530
X017380Y020210
X018690Y020350
X018940Y020090
X015160Y014930
X015150Y017070
X015740Y016760
X014200Y015150
X014200Y015700
X014200Y016300
X013650Y016300
X013650Y015700
X013650Y016850
X014200Y016850
X010617Y016090
X011560Y015790
X011560Y016250
X013650Y015150
X013050Y015150
X013050Y015700
X012500Y015150
X012500Y015700
X012500Y016300
X013050Y016300
X013050Y016850
X012500Y016850
X012910Y017820
X007130Y017760
X004800Y017640
X005450Y017250
X005050Y018340
X005450Y018340
X006050Y016910
X007450Y017070
X008090Y017450
X008940Y017450
X007450Y016740
X007450Y016380
X003900Y016590
X003800Y016280
X005400Y016190
X008900Y016450
X009350Y016450
X008450Y016450
X006440Y014243
X007460Y014370
X007080Y014900
X007450Y015190
X007450Y015490
X007300Y012850
X006980Y013530
X006300Y012850
X005300Y012850
X004300Y012850
X006010Y014260
X006020Y012390
X001000Y017300
X001650Y017300
X000350Y017300
X001000Y018050
X001650Y018050
X000350Y018050
X004640Y015100
X002500Y015640
X003200Y015640
X002850Y015390
X002300Y012850
X003300Y012850
X000300Y012850
X001300Y012850
X000960Y013940
X001610Y013940
X000310Y013940
X000960Y014690
X001000Y011000
X001000Y011750
X001610Y014690
X001650Y011000
X001650Y011750
X000310Y014690
X000350Y011000
X000350Y011750
X013040Y013840
X012550Y013560
X012690Y013880
X012190Y014180
X013410Y014180
X013080Y014190
X012510Y014180
X011480Y014590
X011040Y014680
X010560Y014480
X011140Y014110
X013350Y013870
X011090Y017470
X012520Y018450
X012190Y017820
X011510Y017520
X011510Y018390
X012447Y019857
X010530Y019620
X013020Y020170
X012650Y020200
X012160Y020480
X013400Y020480
X013080Y020490
X012480Y020480
X013650Y021450
X013050Y021450
X012500Y021450
X006430Y020543
X000960Y020240
X001610Y020240
X000310Y020240
X006000Y020550
X007070Y021200
X006830Y019770
X007450Y020670
X007440Y021490
X007440Y021790
X004630Y021400
X002490Y021940
X002840Y021690
X000960Y020990
X001610Y020990
X000310Y020990
X003190Y021940
X009560Y017870
X009410Y020870
X008950Y020880
X008640Y020880
X011470Y020890
X011480Y020000
X010550Y020780
X008060Y019590
X007730Y019910
X009430Y019590
X009560Y019990
X007800Y020530
X010160Y019630
X009760Y019640
X010310Y021660
X008900Y021850
X008450Y021850
X009350Y021850
X011490Y013700
X010990Y013340
X012300Y012850
X011300Y012850
X010540Y013320
X010170Y013330
X010300Y012850
X009300Y012850
X008300Y012850
X011500Y012090
X012510Y012150
X007810Y014230
X008070Y013290
X007740Y013610
X009440Y013290
X009570Y013690
X009770Y013340
X009420Y014570
X008960Y014580
X008650Y014580
X010320Y015360
X008900Y015550
X008450Y015550
X009350Y015550
X009350Y016000
X008450Y016000
X008900Y016000
X012500Y010550
X013050Y010550
X012500Y010000
X012180Y011520
X013090Y011530
X014200Y010550
X013650Y010550
X020430Y010450
X013050Y010000
X012500Y009400
X013050Y009400
X013650Y009400
X013650Y010000
X014200Y010000
X020430Y010040
X020440Y009650
X020430Y009250
X014200Y009400
X015140Y010770
X015730Y010460
X018490Y012160
X011080Y011170
X011500Y011220
X011550Y009950
X011550Y009490
X010607Y009790
X009550Y009950
X009980Y009830
X018260Y014720
X015180Y014470
X014450Y013970
X014870Y013730
X020370Y020880
X020730Y020880
X020370Y021520
X020720Y021520
X020370Y019790
X020730Y019790
X020370Y018340
X020730Y018340
X021350Y018920
X021680Y018920
X021360Y017700
X021680Y017700
X021760Y020120
X023520Y015660
X023160Y017010
X023500Y017010
X023630Y017770
X024130Y017770
X026310Y019260
X026430Y018590
X026380Y021910
X026390Y021310
X025950Y019260
X025860Y021890
X026130Y021620
X025830Y021330
X026130Y021030
X022860Y021520
X023960Y021790
X023170Y021510
X028550Y021040
X023870Y015670
X024510Y015880
X024510Y016220
X024800Y016220
X024800Y015880
X024990Y013710
X025450Y015660
X026460Y015660
X025680Y016320
X025900Y015640
X028570Y016470
X025710Y018190
X025910Y013680
X027430Y013500
X026210Y014250
X027100Y013970
X030450Y019010
X026070Y014600
X024260Y010260
X023950Y009470
X024725Y009470
X024405Y009470
X025440Y010260
X025830Y010260
X026160Y009950
X025540Y009640
X025930Y009520
X022540Y009930
X023160Y009640
X023630Y009470
X021840Y010610
X022210Y010610
X026370Y010890
X035050Y011030
X028890Y010910
X026690Y010890
X031580Y011290
X030800Y012750
X031420Y012750
X030600Y011680
X026370Y010250
X026690Y010250
X027610Y009160
X027600Y010280
X032850Y030630
X032250Y030640
X032600Y030350
X032160Y030220
X031760Y029660
X031370Y029680
X030730Y025730
X030540Y025320
X030730Y025070
X030530Y024820
X030730Y024590
X028760Y015620
X032450Y025820
X032770Y025720
X033080Y025820
X033080Y025480
X032930Y025210
X033070Y024950
X032950Y024670
X036040Y023460
X036360Y023690
X036990Y023910
X036610Y024150
X034400Y024840
X028710Y027960
X028210Y027960
X028200Y028720
X027980Y029010
X027210Y028440
X027600Y024790
X028490Y024500
X028000Y024770
X028420Y029010
X029810Y029290
X027670Y031620
X028020Y031650
X028370Y031640
X028740Y031610
X027560Y031270
X027920Y031270
X028280Y031260
X028650Y031260
X029030Y031260
X033240Y015900
X032160Y015280
X031860Y015070
X033750Y015890
X032740Y019650
X033730Y019700
X033230Y019940
X032210Y019640
X036610Y019510
X036030Y018720
X036990Y017930
X036370Y017130
X020180Y018970
X020180Y018020
X020180Y016840
X020160Y015850
X020160Y022160
X020180Y019420
X020180Y020390
X021340Y015680
X020760Y019200
X020760Y017430
X027420Y016440
X027420Y016800
X027000Y015860
X027420Y019200
X027410Y019540
X027440Y020390
X027430Y019960
X027420Y018410
X026840Y019000
X027400Y017950
X027400Y017520
X026890Y017520
X026860Y020240
X027300Y021020
X026890Y021030
X023500Y022310
X022720Y022390
X021850Y022370
X023310Y022970
X022980Y022980
X022130Y022960
X021810Y022970
X022710Y022710
X022250Y024060
X032160Y022520
X032110Y021900
X027450Y022760
X008450Y022750
X017460Y022740
X027710Y027960
X027710Y027360
X028210Y027360
X028710Y027360
X029500Y027380
X027560Y026510
X028840Y026490
X028520Y026460
X027880Y026480
X027290Y025450
X028630Y025620
X019900Y024510
X019860Y023700
X019680Y023410
X019910Y025930
X013060Y024170
X012780Y024400
X012430Y024350
X013180Y025430
X013650Y025170
X013250Y025090
X006110Y029510
X007450Y029350
X003900Y029200
X003850Y028870
X005400Y028800
X005460Y029910
X004890Y030200
X005130Y030890
X005470Y030890
X007150Y030250
X007450Y029680
X008270Y031210
X007450Y028990
X001040Y029910
X000390Y029910
X001040Y030660
X000390Y030660
X001690Y029910
X001690Y030660
X003300Y025450
X001000Y026550
X001650Y026550
X001300Y025450
X000350Y026550
X001000Y027300
X001650Y027300
X000350Y027300
X002550Y028250
X003150Y028250
X002850Y028030
X007080Y027510
X007460Y026980
X007810Y026840
X007450Y027800
X008450Y028150
X007450Y028100
X006440Y026853
X004640Y027710
X006000Y026870
X006830Y026090
X011560Y028400
X011560Y028860
X012500Y028300
X012500Y028900
X015150Y029680
X014200Y028300
X014200Y028900
X013650Y028900
X013650Y028300
X013050Y028300
X013050Y028900
X012170Y026790
X011480Y027200
X015760Y027870
X015160Y027540
X013650Y027750
X013050Y027750
X012500Y027750
X014200Y027750
X012550Y026170
X013390Y026790
X013080Y026800
X012490Y026790
X011490Y026310
X011040Y027290
X010560Y027090
X010560Y025970
X011020Y026000
X011140Y026720
X008120Y025860
X007740Y026220
X009420Y025870
X010160Y025960
X009720Y025980
X006600Y025050
X009570Y026300
X009420Y027180
X008960Y027190
X008650Y027190
X008900Y028150
X009350Y028150
X010360Y028000
X010617Y028700
X009560Y030480
X008090Y030060
X008940Y030060
X008510Y030940
X009350Y028600
X008450Y028600
X008900Y028600
X008900Y029050
X009350Y029050
X008450Y029050
X012520Y031060
X012190Y030430
X012540Y030730
X012670Y030400
X015740Y029370
X013650Y029450
X013050Y029450
X014200Y029450
X012500Y029450
X011510Y030120
X011510Y031000
X011090Y030080
X012960Y031200
X026910Y027370
X026600Y029260
X025560Y025730
X025050Y029640
X023600Y027840
X023770Y027520
X024030Y027840
X024180Y027500
X027440Y021760
X027310Y022090
X026900Y022100
X026460Y022970
X025700Y022710
X025700Y022390
X025340Y022710
X025340Y022390
X024690Y022970
X024130Y022980
X024390Y022790
X026520Y024650
X025300Y023960
X025310Y024300
X025380Y024760
X025120Y025030
X027160Y025060
X020410Y030760
X020430Y025890
X020170Y022480
X021210Y022710
X021210Y022390
X020870Y022710
X020870Y022380
X021210Y025060
X021400Y024330
X023440Y030610
X024170Y030620
X023790Y030240
X024330Y030160
X024550Y029620
X023170Y027840
X023350Y027510
X022340Y030780
X021860Y029440
X013020Y026470
X012650Y026500
X012210Y024580
X012180Y024120
X011500Y023810
X011210Y024350
X011080Y023770
X010607Y022390
X009550Y024170
X011550Y022090
X011550Y022550
X015730Y023060
X015750Y021560
X015140Y023370
X007120Y024060
X007440Y023370
X007440Y023040
X007440Y022680
X004790Y023940
X005440Y023550
X003890Y022890
X003790Y022580
X005040Y024640
X005440Y024640
X008080Y023750
X006040Y023210
X005390Y022490
X008930Y023750
X014200Y022000
X000300Y025450
X005300Y025450
X004300Y025450
X002300Y025450
X001000Y023600
X001650Y023600
X000350Y023600
X001000Y024350
X001650Y024350
X000350Y024350
X014200Y022600
X014200Y023150
X013650Y022600
X012500Y022600
X013050Y022600
X013050Y023150
X012500Y023150
X013650Y022000
X013650Y023150
X013050Y022000
X012500Y022000
X009350Y022300
X008900Y022750
X008450Y022300
X008900Y022300
X009350Y022750
X012300Y025450
X011300Y025450
X010300Y025450
X009300Y025450
X008300Y025450
X007300Y025450
X006300Y025450
X033770Y002960
X033520Y002680
X033280Y002350
X033050Y002010
X032800Y001580
X025430Y005570
X026160Y006970
X025240Y006720
X025560Y006720
X025960Y003370
X027520Y003360
X026370Y006020
X026690Y006030
X027990Y006210
X026380Y006690
X026700Y006700
X024420Y005550
X024310Y004410
X024600Y004190
X024850Y003970
X025150Y003750
X023460Y005080
X023720Y004860
X024020Y004630
X022940Y003895
X022000Y004310
X022350Y005410
X020200Y000620
X021330Y001350
X021550Y003590
X021622Y001953
X021962Y001943
X023020Y005300
X023260Y005570
X023470Y006650
X021260Y006350
X024290Y006800
X024620Y006790
X017550Y003670
X014600Y003650
X014600Y002850
X015740Y002920
X016730Y003360
X014290Y001170
X016110Y002310
X014540Y001760
X016580Y003750
X015740Y003690
X018040Y002360
X017050Y000550
X017040Y001200
X017450Y001430
X016730Y001010
X013100Y001740
X013420Y001740
X013170Y001150
X011890Y001760
X012240Y001760
X011570Y001180
X012560Y001180
X011260Y001580
X012250Y003650
X013050Y003650
X013050Y002850
X010980Y003310
X010520Y003410
X011120Y003850
X012250Y002850
X008710Y002620
X008710Y002970
X010390Y001590
X008780Y001570
X010980Y002180
X009290Y002570
X009290Y002990
X008780Y003830
X004150Y002840
X003120Y002830
X001000Y004700
X000960Y001340
X000960Y002090
X000960Y007640
X000960Y008390
X001650Y004700
X001610Y001340
X001610Y002090
X000350Y004700
X000310Y001340
X000310Y002090
X000310Y007640
X000310Y008390
X001000Y005450
X000350Y005450
X001650Y005450
X001610Y007640
X001610Y008390
X014120Y006690
X014140Y006360
X014200Y008850
X013650Y008850
X013650Y006680
X013080Y007890
X018570Y008160
X013400Y007880
X013340Y006340
X015150Y008630
X015750Y008960
X018580Y008550
X013100Y006600
X013660Y006340
X012500Y008850
X013050Y008850
X011030Y008380
X011470Y008290
X009530Y008800
X009970Y008710
X012480Y007880
X012540Y007260
X012160Y007880
X011480Y007400
X012740Y006940
X012400Y006680
X011940Y006330
X012410Y006360
X011340Y006100
X009620Y008110
X012250Y005250
X013050Y005250
X013050Y004500
X012250Y004500
X010550Y004160
X011170Y004370
X008700Y005860
X008700Y005520
X009280Y005490
X008710Y005010
X008710Y004690
X009290Y004600
X009280Y005020
X009280Y005880
X016317Y005967
X015000Y006300
X014610Y006280
X015740Y005680
X016910Y005990
X013850Y005250
X013850Y004500
X013850Y003650
X013850Y002850
X014600Y004500
X014600Y005250
X016050Y004730
X016040Y005210
X015750Y004980
X015760Y004540
X016560Y004080
X015730Y004030
X016420Y005000
X018480Y006260
X018070Y006840
X018620Y007010
X018360Y005140
X018630Y005130
X019850Y004900
X020980Y005730
X020980Y005440
X020050Y003870
X020430Y008870
X020440Y008500
X020440Y008120
X020430Y007730
X018817Y007370
X019370Y008610
X019370Y008230
X021490Y008400
X021500Y008080
X021510Y007640
X022550Y008740
X023800Y008450
X022550Y007570
X023800Y009000
X022750Y009020
X023130Y009020
X023170Y007300
X023490Y007300
X022740Y008280
X023170Y008270
X026160Y008940
X024350Y008450
X024350Y009000
X024900Y008450
X024900Y009000
X025580Y008980
X025550Y007570
X024350Y007900
X023800Y007900
X024900Y007900
X024340Y007440
X024670Y007440
X025540Y008330
X025920Y008340
X028120Y007270
X031230Y007520
T123
X035200Y008800
X034200Y008300
X035200Y007800
X034200Y007300
X035200Y006800
X035200Y005800
X035200Y004800
X034200Y006300
X034200Y005300
X034200Y004300
T126
X038875Y016350
X038087Y016350
X038875Y017137
X038087Y017137
X038875Y017925
X038087Y017925
X038875Y018712
X038875Y019500
X038875Y020287
X038875Y021074
X038087Y018712
X038087Y019500
X038087Y020287
X038087Y021074
T122
X034400Y023020
X034400Y022020
X034400Y021020
T124
X032300Y008700
X032300Y007700
X032300Y004400
X032300Y005400
T119
X038819Y027000
X036500Y009600
X036500Y003500
T120
X037638Y027000
T118
X038032Y028772
X038032Y025228
T121
X035276Y027000
X035000Y030500
X003300Y030500
X035000Y001500
X003300Y001500
T125
X037700Y008800
X037700Y004300
M30
