G04 start of page 9 for group -4062 idx -4062 *
G04 Title: (unknown), soldermask *
G04 Creator: pcb 20140316 *
G04 CreationDate: Tue 20 May 2014 05:08:16 AM GMT UTC *
G04 For: pmonta *
G04 Format: Gerber/RS-274X *
G04 PCB-Dimensions (mil): 4200.00 3400.00 *
G04 PCB-Coordinate-Origin: lower left *
%MOIN*%
%FSLAX25Y25*%
%LNBOTTOMMASK*%
%ADD196R,0.1300X0.1300*%
%ADD195R,0.0355X0.0355*%
%ADD194R,0.0572X0.0572*%
%ADD193C,0.0787*%
%ADD192R,0.0257X0.0257*%
%ADD191C,0.0700*%
%ADD190C,0.1580*%
%ADD189C,0.0920*%
%ADD188C,0.0650*%
%ADD187C,0.0720*%
%ADD186C,0.1550*%
%ADD185C,0.1900*%
%ADD184C,0.0001*%
%ADD183C,0.1300*%
%ADD182C,0.0930*%
%ADD181C,0.1400*%
%ADD180C,0.0654*%
%ADD179C,0.0060*%
G54D179*X0Y340000D02*Y0D01*
Y340000D02*X420000D01*
X0Y0D02*X420000D01*
Y340000D02*Y0D01*
G54D180*X398000Y205622D03*
X405874D03*
X398000Y197748D03*
Y189874D03*
Y182000D03*
Y174126D03*
X405874Y197748D03*
Y189874D03*
Y182000D03*
Y174126D03*
Y166252D03*
G54D181*X400315Y262283D03*
G54D182*X408189Y280000D03*
G54D183*X396378D03*
G54D184*G36*
X394729Y216768D02*Y210225D01*
X401272D01*
Y216768D01*
X394729D01*
G37*
G54D180*X405874Y213496D03*
G54D185*X387500Y327500D03*
G54D181*X400315Y297717D03*
G54D186*X372756Y280000D03*
G54D187*X370000Y215000D03*
Y225000D03*
G54D180*X398000Y166252D03*
G54D187*X370000Y155000D03*
X360000D03*
X370000Y165000D03*
X360000D03*
X370000Y175000D03*
X360000D03*
X370000Y185000D03*
X360000D03*
X370000Y195000D03*
X360000D03*
X370000Y205000D03*
X360000D03*
Y215000D03*
G54D188*X362000Y98000D03*
X352000Y93000D03*
X362000Y88000D03*
X352000Y83000D03*
X362000Y78000D03*
X352000Y73000D03*
G54D189*X375000Y106000D03*
G54D190*X387000Y98000D03*
G54D187*X360000Y225000D03*
G54D185*X32500Y327500D03*
G54D187*X180000Y10000D03*
X170000D03*
G54D185*X387500Y12500D03*
X32500D03*
G54D188*X362000Y68000D03*
X352000Y63000D03*
G54D191*X333000Y64000D03*
Y87000D03*
Y97000D03*
G54D188*X362000Y58000D03*
G54D189*X375000Y45000D03*
G54D190*X387000Y53000D03*
G54D188*X352000D03*
G54D191*X333000Y54000D03*
G54D192*X296807Y308400D02*X297593D01*
X296807Y305252D02*X297593D01*
X274707Y305226D02*X275493D01*
X274707Y308374D02*X275493D01*
X166607Y62000D02*X167393D01*
X166607Y58852D02*X167393D01*
X173174Y51393D02*Y50607D01*
X170026Y51393D02*Y50607D01*
X173174Y47793D02*Y47007D01*
X170026Y47793D02*Y47007D01*
G54D193*X410000Y10000D03*
G54D194*X308343Y64893D02*Y64107D01*
X301257Y64893D02*Y64107D01*
G54D192*X288926Y74393D02*Y73607D01*
G54D194*X283500Y63693D02*Y62907D01*
X290586Y63693D02*Y62907D01*
G54D192*X292074Y74393D02*Y73607D01*
X299507Y86626D02*X300293D01*
X299507Y89774D02*X300293D01*
X300007Y104374D02*X300793D01*
X300007Y101226D02*X300793D01*
G54D195*X302308Y51482D02*X303292D01*
X302308Y56600D02*X303292D01*
G54D192*X274626Y73293D02*Y72507D01*
X277774Y73293D02*Y72507D01*
X223407Y75874D02*X224193D01*
X223407Y72726D02*X224193D01*
X219507Y75774D02*X220293D01*
X219507Y72626D02*X220293D01*
X232800Y90593D02*Y89807D01*
X233000Y86493D02*Y85707D01*
X235948Y90593D02*Y89807D01*
X236148Y86493D02*Y85707D01*
X241800Y90293D02*Y89507D01*
X241700Y86493D02*Y85707D01*
X244948Y90293D02*Y89507D01*
X244848Y86493D02*Y85707D01*
G54D195*X262418Y54192D02*Y53208D01*
X257300Y54192D02*Y53208D01*
G54D194*X244214Y55093D02*Y54307D01*
X251300Y55093D02*Y54307D01*
G54D192*X246507Y63126D02*X247293D01*
X246507Y66274D02*X247293D01*
G54D194*X258557Y60693D02*Y59907D01*
G54D192*X252826Y68993D02*Y68207D01*
X255974Y68993D02*Y68207D01*
X262900Y72093D02*Y71307D01*
X266048Y72093D02*Y71307D01*
G54D194*X265643Y60693D02*Y59907D01*
G54D192*X248226Y74793D02*Y74007D01*
X251374Y74793D02*Y74007D01*
X250726Y101593D02*Y100807D01*
X245048Y101093D02*Y100307D01*
X253874Y101593D02*Y100807D01*
X233026Y105493D02*Y104707D01*
X236174Y105493D02*Y104707D01*
X241600Y105293D02*Y104507D01*
X244748Y105293D02*Y104507D01*
X232700Y101593D02*Y100807D01*
X235848Y101593D02*Y100807D01*
X232700Y98193D02*Y97407D01*
X235848Y98193D02*Y97407D01*
X232700Y94193D02*Y93407D01*
X235848Y94193D02*Y93407D01*
X241900Y101093D02*Y100307D01*
Y97593D02*Y96807D01*
X245048Y97593D02*Y96807D01*
X241700Y93993D02*Y93207D01*
X244848Y93993D02*Y93207D01*
X269407Y237074D02*X270193D01*
X260307D02*X261093D01*
X279426Y234293D02*Y233507D01*
X282574Y234293D02*Y233507D01*
X269407Y233926D02*X270193D01*
X260307D02*X261093D01*
X215507D02*X216293D01*
X233907D02*X234693D01*
X224407D02*X225193D01*
X215507Y237074D02*X216293D01*
X233907D02*X234693D01*
X224407D02*X225193D01*
X217074Y228293D02*Y227507D01*
X213926Y228293D02*Y227507D01*
X216917Y211293D02*Y210507D01*
X213769Y211293D02*Y210507D01*
X216957Y222193D02*Y221407D01*
X213809Y222193D02*Y221407D01*
G54D194*X229260Y216193D02*Y215407D01*
X222174Y216193D02*Y215407D01*
G54D192*X238526Y228393D02*Y227607D01*
X216757Y196493D02*Y195707D01*
X223652Y190193D02*Y189407D01*
X226800Y190193D02*Y189407D01*
X223652Y202393D02*Y201607D01*
X226800Y202393D02*Y201607D01*
G54D194*X245183Y192793D02*Y192007D01*
G54D192*X213609Y196493D02*Y195707D01*
X231107Y172074D02*X231893D01*
X241778Y177793D02*Y177007D01*
X244926Y177793D02*Y177007D01*
X231107Y168926D02*X231893D01*
G54D194*X223260Y174193D02*Y173407D01*
X216174Y174193D02*Y173407D01*
G54D192*X288826Y114293D02*Y113507D01*
X291974Y114293D02*Y113507D01*
G54D195*X297159Y119092D02*Y118108D01*
X292041Y119092D02*Y118108D01*
G54D192*X273000Y126893D02*Y126107D01*
G54D195*X257341Y120992D02*Y120008D01*
X262459Y120992D02*Y120008D01*
G54D192*X269500Y122293D02*Y121507D01*
X266352Y122293D02*Y121507D01*
X276148Y126893D02*Y126107D01*
G54D194*X240657Y113893D02*Y113107D01*
X247743Y113893D02*Y113107D01*
G54D192*X260326Y115593D02*Y114807D01*
X263474Y115593D02*Y114807D01*
X383334Y155136D02*Y154350D01*
X386482Y155136D02*Y154350D01*
X354713Y142790D02*Y142004D01*
X357861Y142790D02*Y142004D01*
X260381Y171974D02*X261167D01*
X260381Y168826D02*X261167D01*
X251907Y172100D02*X252693D01*
X251907Y168952D02*X252693D01*
G54D194*X271483Y190593D02*Y189807D01*
X270857Y173593D02*Y172807D01*
X278569Y190593D02*Y189807D01*
G54D192*X279052Y182793D02*Y182007D01*
X282200Y182793D02*Y182007D01*
G54D194*X277943Y173593D02*Y172807D01*
X253607Y226583D02*X254393D01*
X253607Y233669D02*X254393D01*
G54D192*X241674Y228393D02*Y227607D01*
X278852Y209893D02*Y209107D01*
X282000Y209893D02*Y209107D01*
X276852Y196193D02*Y195407D01*
X280000Y196193D02*Y195407D01*
X279252Y223593D02*Y222807D01*
X282400Y223593D02*Y222807D01*
X269852Y200093D02*Y199307D01*
G54D194*X252269Y192793D02*Y192007D01*
G54D192*X273000Y200093D02*Y199307D01*
G54D196*X7000Y186750D02*X13000D01*
X7000Y216250D02*X13000D01*
X7000Y249750D02*X13000D01*
X7000Y90250D02*X13000D01*
X7000Y123750D02*X13000D01*
X7000Y153250D02*X13000D01*
X7000Y279250D02*X13000D01*
X7000Y312750D02*X13000D01*
G54D193*X10000Y330000D03*
G54D196*X7000Y60750D02*X13000D01*
X7000Y27250D02*X13000D01*
G54D193*X10000Y10000D03*
G54D195*X116008Y192559D02*X116992D01*
X116008Y187441D02*X116992D01*
X116008Y314941D02*X116992D01*
X116008Y257059D02*X116992D01*
X116008Y251941D02*X116992D01*
G54D192*X120707Y82474D02*X121493D01*
X120707Y79326D02*X121493D01*
G54D195*X116008Y320059D02*X116992D01*
G54D192*X128081Y19000D02*X128867D01*
X128081Y15852D02*X128867D01*
X132533Y18648D02*X133319D01*
X132533Y15500D02*X133319D01*
X162926Y80693D02*Y79907D01*
X166074Y80693D02*Y79907D01*
M02*
