G04 start of page 2 for group 0 idx 0 *
G04 Title: (unknown), component *
G04 Creator: pcb 20140316 *
G04 CreationDate: Sat 17 May 2014 08:59:42 AM GMT UTC *
G04 For: pmonta *
G04 Format: Gerber/RS-274X *
G04 PCB-Dimensions (mil): 4200.00 3400.00 *
G04 PCB-Coordinate-Origin: lower left *
%MOIN*%
%FSLAX25Y25*%
%LNTOP*%
%ADD55C,0.0354*%
%ADD54C,0.0420*%
%ADD53C,0.0400*%
%ADD52C,0.1280*%
%ADD51C,0.0350*%
%ADD50C,0.1250*%
%ADD49C,0.1000*%
%ADD48C,0.1100*%
%ADD47C,0.0960*%
%ADD46C,0.0150*%
%ADD45C,0.0250*%
%ADD44R,0.1043X0.1043*%
%ADD43R,0.0827X0.0827*%
%ADD42R,0.0965X0.0965*%
%ADD41R,0.0280X0.0280*%
%ADD40R,0.0300X0.0300*%
%ADD39R,0.0370X0.0370*%
%ADD38R,0.0098X0.0098*%
%ADD37R,0.0512X0.0512*%
%ADD36R,0.0591X0.0591*%
%ADD35R,0.0118X0.0118*%
%ADD34C,0.0200*%
%ADD33R,0.0160X0.0160*%
%ADD32R,0.0402X0.0402*%
%ADD31R,0.0295X0.0295*%
%ADD30C,0.0394*%
%ADD29R,0.0197X0.0197*%
%ADD28R,0.1200X0.1200*%
%ADD27R,0.0200X0.0200*%
%ADD26C,0.0554*%
%ADD25C,0.0620*%
%ADD24C,0.0600*%
%ADD23C,0.1480*%
%ADD22C,0.0820*%
%ADD21C,0.0550*%
%ADD20C,0.1450*%
%ADD19C,0.1200*%
%ADD18C,0.0830*%
%ADD17C,0.1300*%
%ADD16C,0.1800*%
%ADD15C,0.0100*%
%ADD14C,0.0120*%
%ADD13C,0.0180*%
%ADD12C,0.0060*%
%ADD11C,0.0001*%
G54D11*G36*
X252207Y295900D02*X254880D01*
X254848Y295864D01*
X254766Y295729D01*
X254706Y295584D01*
X254669Y295431D01*
X254660Y295274D01*
X254667Y282900D01*
X239900D01*
Y290907D01*
X239996Y290824D01*
X240131Y290742D01*
X240276Y290682D01*
X240429Y290645D01*
X240586Y290636D01*
X251371Y290645D01*
X251524Y290682D01*
X251669Y290742D01*
X251804Y290824D01*
X251923Y290927D01*
X252026Y291046D01*
X252108Y291181D01*
X252168Y291326D01*
X252205Y291479D01*
X252214Y291636D01*
X252207Y295900D01*
G37*
G36*
X241600Y318400D02*X255671D01*
X255679Y309520D01*
X255716Y309367D01*
X255776Y309222D01*
X255858Y309087D01*
X255961Y308968D01*
X256080Y308865D01*
X256215Y308783D01*
X256360Y308723D01*
X256513Y308686D01*
X256670Y308677D01*
X263800Y308682D01*
Y304300D01*
X252212D01*
X252205Y308721D01*
X252168Y308874D01*
X252108Y309019D01*
X252026Y309154D01*
X251923Y309273D01*
X251804Y309376D01*
X251669Y309458D01*
X251524Y309518D01*
X251371Y309555D01*
X251214Y309564D01*
X241600Y309556D01*
Y318400D01*
G37*
G36*
X329130Y295900D02*X331087D01*
X331095Y291479D01*
X331132Y291326D01*
X331192Y291181D01*
X331274Y291046D01*
X331377Y290927D01*
X331496Y290824D01*
X331631Y290742D01*
X331776Y290682D01*
X331929Y290645D01*
X332086Y290636D01*
X342871Y290645D01*
X343024Y290682D01*
X343169Y290742D01*
X343304Y290824D01*
X343423Y290927D01*
X343526Y291046D01*
X343608Y291181D01*
X343668Y291326D01*
X343705Y291479D01*
X343714Y291636D01*
X343707Y295900D01*
X345200D01*
Y283600D01*
X343912D01*
X343905Y288016D01*
X343868Y288169D01*
X343808Y288314D01*
X343726Y288449D01*
X343623Y288568D01*
X343504Y288671D01*
X343369Y288753D01*
X343224Y288813D01*
X343071Y288850D01*
X342914Y288859D01*
X332129Y288850D01*
X331976Y288813D01*
X331831Y288753D01*
X331696Y288671D01*
X331577Y288568D01*
X331474Y288449D01*
X331392Y288314D01*
X331332Y288169D01*
X331295Y288016D01*
X331286Y287859D01*
X331293Y283600D01*
X329438D01*
X329431Y295331D01*
X329394Y295484D01*
X329334Y295629D01*
X329252Y295764D01*
X329149Y295883D01*
X329130Y295900D01*
G37*
G36*
X280400Y328200D02*X304100D01*
Y320321D01*
X294013Y320314D01*
X293860Y320277D01*
X293715Y320217D01*
X293580Y320135D01*
X293461Y320032D01*
X293358Y319913D01*
X293276Y319778D01*
X293216Y319633D01*
X293179Y319480D01*
X293170Y319323D01*
X293177Y311400D01*
X291328D01*
X291321Y319480D01*
X291284Y319633D01*
X291224Y319778D01*
X291142Y319913D01*
X291039Y320032D01*
X290920Y320135D01*
X290785Y320217D01*
X290640Y320277D01*
X290487Y320314D01*
X290330Y320323D01*
X280400Y320316D01*
Y328200D01*
G37*
G36*
X341200Y318500D02*Y309563D01*
X331929Y309555D01*
X331776Y309518D01*
X331631Y309458D01*
X331496Y309376D01*
X331377Y309273D01*
X331274Y309154D01*
X331192Y309019D01*
X331132Y308874D01*
X331095Y308721D01*
X331086Y308564D01*
X331092Y304900D01*
X319300D01*
Y308680D01*
X327987Y308686D01*
X328140Y308723D01*
X328285Y308783D01*
X328420Y308865D01*
X328539Y308968D01*
X328642Y309087D01*
X328724Y309222D01*
X328784Y309367D01*
X328821Y309520D01*
X328830Y309677D01*
X328822Y318500D01*
X341200D01*
G37*
G36*
X291325Y314500D02*X293175D01*
X293179Y309520D01*
X293216Y309367D01*
X293276Y309222D01*
X293358Y309087D01*
X293461Y308968D01*
X293580Y308865D01*
X293715Y308783D01*
X293860Y308723D01*
X294013Y308686D01*
X294170Y308677D01*
X300900Y308682D01*
Y298000D01*
X296200D01*
Y302100D01*
X287800D01*
Y298000D01*
X283736D01*
Y308682D01*
X290487Y308686D01*
X290640Y308723D01*
X290785Y308783D01*
X290920Y308865D01*
X291039Y308968D01*
X291142Y309087D01*
X291224Y309222D01*
X291284Y309367D01*
X291321Y309520D01*
X291330Y309677D01*
X291325Y314500D01*
G37*
G36*
X313800Y264900D02*X318876D01*
X318845Y264771D01*
X318836Y264614D01*
X318845Y254400D01*
X313800D01*
Y264900D01*
G37*
G36*
X342300Y269940D02*Y258100D01*
X337760D01*
X337755Y264771D01*
X337718Y264924D01*
X337658Y265069D01*
X337576Y265204D01*
X337473Y265323D01*
X337354Y265426D01*
X337219Y265508D01*
X337074Y265568D01*
X336921Y265605D01*
X336764Y265614D01*
X332900Y265607D01*
Y269932D01*
X342300Y269940D01*
G37*
G36*
X332900Y278700D02*X342300D01*
Y277048D01*
X332900Y277040D01*
Y278700D01*
G37*
G36*
X349000Y293500D02*X351474D01*
X351482Y285547D01*
X351519Y285394D01*
X351579Y285249D01*
X351661Y285114D01*
X351764Y284995D01*
X351883Y284892D01*
X352018Y284810D01*
X352163Y284750D01*
X352316Y284713D01*
X352473Y284704D01*
X361684Y284713D01*
X361837Y284750D01*
X361982Y284810D01*
X362117Y284892D01*
X362236Y284995D01*
X362339Y285114D01*
X362421Y285249D01*
X362481Y285394D01*
X362518Y285547D01*
X362527Y285704D01*
X362518Y293500D01*
X365000D01*
Y282834D01*
X364885Y282557D01*
X364582Y281295D01*
X364480Y280000D01*
X364582Y278705D01*
X364885Y277443D01*
X365000Y277166D01*
Y276000D01*
X349000D01*
Y293500D01*
G37*
G36*
Y320500D02*X365000D01*
Y303500D01*
X362526D01*
X362518Y311452D01*
X362481Y311605D01*
X362421Y311750D01*
X362339Y311885D01*
X362236Y312004D01*
X362117Y312107D01*
X361982Y312189D01*
X361837Y312249D01*
X361684Y312286D01*
X361527Y312295D01*
X352316Y312286D01*
X352163Y312249D01*
X352018Y312189D01*
X351883Y312107D01*
X351764Y312004D01*
X351661Y311885D01*
X351579Y311750D01*
X351519Y311605D01*
X351482Y311452D01*
X351473Y311295D01*
X351482Y303500D01*
X349000D01*
Y320500D01*
G37*
G54D12*X153100Y312600D02*X185000D01*
X152500Y315100D02*X186500D01*
X151900Y317900D02*X187400D01*
X150391Y312991D02*X152500Y315100D01*
X152360Y311860D02*X153100Y312600D01*
X150600Y320600D02*X188900D01*
X149800Y323000D02*X190600D01*
X148500Y326100D02*X191500D01*
X140546Y318146D02*X148500Y326100D01*
X144484Y317684D02*X149800Y323000D01*
X146453Y316453D02*X150600Y320600D01*
X148422Y314422D02*X151900Y317900D01*
X154329Y309487D02*X183913D01*
G54D13*X167374Y303726D02*X167400Y303700D01*
X167374Y306700D02*Y303726D01*
G54D12*X160970Y306830D02*X161100Y306700D01*
X170800Y297200D02*X176400Y302800D01*
X164500Y297200D02*X170800D01*
X158808Y302892D02*X164500Y297200D01*
X169100Y301400D02*X165200D01*
X172450Y304750D02*X169100Y301400D01*
X185650Y304750D02*X172450D01*
X176400Y302800D02*X183700D01*
X183750Y302750D01*
G54D13*X135174Y320574D02*X135200Y320600D01*
G54D12*X134300Y315300D02*X134500Y315500D01*
Y316400D01*
X135400Y317300D01*
G54D13*X132100Y320600D02*X135200D01*
G54D12*X140546Y309287D02*Y318146D01*
X144484Y309287D02*Y317684D01*
X146453Y309287D02*Y316453D01*
X148422Y309287D02*Y314422D01*
X150391Y309287D02*Y312991D01*
X152360Y309287D02*Y311860D01*
X136608Y309287D02*Y313908D01*
X132670Y309487D02*Y313130D01*
X131800Y314000D01*
X136608Y313908D02*X136700Y314000D01*
X138577Y309287D02*Y311477D01*
X139100Y312000D01*
Y321500D01*
X139600Y322000D01*
G54D13*X125200Y319900D02*X125100Y320000D01*
X125200Y317174D02*Y319900D01*
G54D12*X126000Y313800D02*X125100Y314700D01*
G54D13*X125200Y314026D02*Y311300D01*
G54D12*X125400Y310800D02*X125200Y311000D01*
X130190Y291100D02*X130213Y291077D01*
X130195Y291095D02*X130190Y291100D01*
X124500D01*
X130205Y289100D02*X130213Y289108D01*
X130013Y285170D02*X128170D01*
X134639Y309287D02*Y312561D01*
X134300Y312900D01*
Y315300D01*
X127614Y304860D02*X124774Y307700D01*
X130213Y304860D02*X127614D01*
X130213Y302891D02*X124509D01*
X130013Y306829D02*Y307787D01*
X127000Y310800D01*
X125400D01*
G54D13*X132000Y317426D02*Y314200D01*
X131800Y314000D01*
G54D12*X156787Y302892D02*X158808D01*
X156948Y304700D02*X156787Y304861D01*
X159200Y304700D02*X156948D01*
X165200Y301400D02*X162500Y304100D01*
G54D13*X164426Y285500D02*X161300D01*
G54D12*X156987Y285171D02*X160971D01*
X161300Y285500D01*
X159800Y304100D02*X159200Y304700D01*
X162500Y304100D02*X159800D01*
G54D13*X164226Y306700D02*X161100D01*
G54D12*X156987Y306830D02*X160970D01*
X199500Y237600D02*X201600Y235500D01*
X188900Y239000D02*Y229100D01*
X192300Y225700D01*
X183600Y232200D02*X192200Y223600D01*
X179100Y236700D02*X184000Y231800D01*
X206421Y237500D02*X206464Y237457D01*
X206452Y235500D02*X206464Y235488D01*
X201600Y235500D02*X206452D01*
X206464Y237457D02*X206443D01*
X196300Y231600D02*X198300Y229600D01*
X206445D01*
X193200Y230900D02*X196400Y227700D01*
X206376D01*
X192300Y225700D02*X206407D01*
X192200Y223600D02*X206390D01*
X206443Y237457D02*X203700Y240200D01*
X199500Y249800D02*Y237600D01*
X188000Y254200D02*X196300Y245900D01*
X203700Y240200D02*Y258200D01*
X199100Y262800D01*
X198400D01*
X183600Y251500D02*X193200Y241900D01*
X181413Y246487D02*X188900Y239000D01*
G54D13*X161800Y243700D02*X164426D01*
X164526Y243600D01*
G54D12*X156987Y243830D02*X161670D01*
X161800Y243700D01*
X196300Y245900D02*Y231600D01*
X193200Y241900D02*Y230900D01*
X159400Y270000D02*X202500D01*
X203100Y269400D01*
X206100Y237821D02*X206464Y237457D01*
X211600Y239300D02*X206800Y244100D01*
X210900Y247000D02*X208600D01*
X211700Y263800D02*Y266274D01*
X208826Y252100D02*Y254926D01*
X209000Y255100D01*
X211526Y266300D02*X209800D01*
X209000Y267100D01*
X211700Y266274D02*X211726Y266300D01*
X211700Y241300D02*Y244300D01*
Y243900D02*Y245200D01*
Y244700D02*Y246200D01*
X210900Y247000D01*
X179500Y221500D02*X206259D01*
X206464Y215798D02*X193276D01*
X206200Y211900D02*X202700D01*
X201000Y213600D01*
X197000D01*
X196900Y213500D01*
X193276Y215798D02*X192926Y215448D01*
Y212300D02*X187074D01*
X187000Y212226D01*
Y215374D02*X184274D01*
X184100Y215200D01*
X187000Y212300D02*X184100D01*
X183800Y212000D01*
X206259Y221500D02*X206464Y221705D01*
X206290Y223500D02*X206464Y223674D01*
X206376Y227700D02*X206464Y227612D01*
X206407Y225700D02*X206464Y225643D01*
X206438Y223700D02*X206464Y223674D01*
X206390Y223600D02*X206464Y223674D01*
Y213829D02*X211729D01*
X211800Y213900D01*
X206464Y231550D02*X211650D01*
X211700Y231500D01*
X206464Y233519D02*X210519D01*
X211700Y234700D01*
X173700Y213000D02*X174500Y213800D01*
X152900Y214200D02*X161400D01*
X154000Y212700D02*X173400D01*
X173900Y213200D01*
X149800Y216000D02*X159600D01*
X174500Y213800D02*Y216200D01*
X176000Y217700D01*
X179819Y217767D02*X179752Y217700D01*
X161400Y214200D02*X166400Y219200D01*
X159600Y216000D02*X161900Y218300D01*
G54D13*X161800Y222400D02*X164226D01*
X164326Y222500D01*
G54D12*X161671Y222171D02*X161900Y222400D01*
X156987Y222171D02*X161671D01*
X185539Y304861D02*X237200Y253200D01*
X183913Y309487D02*X239200Y254200D01*
X185000Y312600D02*X247000Y250600D01*
X186500Y315100D02*X249100Y252500D01*
X187400Y317900D02*X252900Y252400D01*
X214300Y317800D02*X214100Y317600D01*
X183608Y302892D02*X235200Y251300D01*
X188900Y320600D02*X254800Y254700D01*
G54D14*X253000Y307400D02*X250100D01*
X253200Y305300D02*X250400D01*
X253300Y292800D02*X250500D01*
X253600Y294700D02*X250000D01*
G54D12*X190600Y323000D02*X258700Y254900D01*
X191500Y326100D02*X260750Y256850D01*
X258613Y287400D02*Y277687D01*
X212500Y260000D02*X217500Y255000D01*
G54D14*X253400Y289200D02*X257300D01*
X253800Y287100D02*X257200D01*
X257400Y286900D01*
X254100Y284400D02*X256600D01*
X256700Y284300D01*
G54D12*X258613Y277687D02*X260900Y275400D01*
G54D14*X243000Y310500D02*Y307800D01*
X243500Y307300D01*
X245400Y310200D02*Y307300D01*
X245100Y307000D01*
X247700Y310100D02*Y307300D01*
X247500Y307100D01*
X249800Y310300D02*Y307600D01*
X250000Y307400D01*
X250100D02*X250000Y307300D01*
X250400Y305300D02*X250300Y305200D01*
X241600Y292300D02*Y289700D01*
X241800Y289500D01*
X243400Y292200D02*Y289700D01*
X243600Y289500D01*
X245500Y292000D02*Y289300D01*
X245800Y289000D01*
X247800Y292200D02*Y289100D01*
X247900Y289000D01*
X250000Y292300D02*Y289000D01*
X250100Y288900D01*
X250500Y292800D02*X250200Y293100D01*
X250000Y294700D02*X249800Y294900D01*
G54D12*X222359Y317800D02*X227426D01*
X217241D02*X214300D01*
X227200Y251526D02*X227026Y251700D01*
X214874Y266300D02*Y268926D01*
X214800Y269000D01*
X219500Y260574D02*X217374Y262700D01*
X214226D02*X212800D01*
X211700Y263800D01*
X221400Y250700D02*Y257348D01*
X221452Y257400D01*
X227026Y251700D02*X225600D01*
X224000Y253300D01*
X221400Y257600D02*Y259900D01*
X222100Y260600D01*
X209000Y267100D02*Y269200D01*
X209100Y269300D01*
X203000Y269500D02*X212850Y259650D01*
X231400Y255200D02*X232500Y254100D01*
G54D14*X253900Y317400D02*X257900D01*
X258100Y317200D01*
X254400Y314800D02*X257800D01*
X254600Y312600D02*X258300D01*
X258400Y312500D01*
X254600Y310100D02*X257300D01*
X257700Y310500D01*
Y307700D02*Y310400D01*
X257800Y310500D01*
X259900Y307700D02*Y310400D01*
X261900Y307600D02*Y310400D01*
X262100Y310600D01*
X259900Y310400D02*X259700Y310600D01*
X253900Y294000D02*X257000D01*
X257100Y293900D01*
X253800Y291300D02*X257000D01*
X257100Y291400D01*
G54D12*X211500Y257000D02*X215500Y253000D01*
X219500Y249800D02*Y260574D01*
X213600Y250474D02*X211974Y252100D01*
X200500Y268000D02*X211850Y256650D01*
X191200Y258100D02*X199500Y249800D01*
X227800Y249900D02*X227500D01*
X227200Y250200D01*
X227300Y248200D02*X226400Y249100D01*
X227200Y250200D02*Y251526D01*
X233200Y245500D02*Y247900D01*
X232700Y248400D01*
X231263Y243137D02*X231300Y243100D01*
X231263Y244536D02*Y239937D01*
X231500Y239700D01*
X229300Y248400D02*X227800Y249900D01*
X227700Y233600D02*Y236200D01*
X224800Y239100D01*
X227300Y245200D02*Y248200D01*
X225400Y246000D02*Y247700D01*
X224800Y248300D01*
X226550Y248950D02*X226100Y249400D01*
X225500D01*
X224800Y248300D02*X221000D01*
X219500Y249800D01*
X225500Y249400D02*X224800Y250100D01*
X222000D02*X221400Y250700D01*
X256860Y243240D02*X256900Y243200D01*
X256860Y244536D02*Y240040D01*
X257000Y239900D01*
X250953Y244536D02*Y240347D01*
X251300Y240000D01*
X250953Y243347D02*X251000Y243300D01*
X243077Y243223D02*X243100Y243200D01*
X243077Y244536D02*Y239877D01*
X243000Y239800D01*
X213600Y245200D02*Y250474D01*
X221418Y244536D02*Y240918D01*
X219449Y244536D02*Y241149D01*
X218900Y240600D01*
X221418Y240900D02*Y240518D01*
X220200Y239300D01*
X218900Y240600D02*X212400D01*
X211700Y241300D01*
X220200Y239300D02*X211600D01*
X223400Y244500D02*Y240500D01*
X225100Y238800D01*
X166900Y236700D02*X179100D01*
X162100Y241500D02*X166900Y236700D01*
G54D13*X167574Y240874D02*X167300Y240600D01*
X167574Y243500D02*Y240874D01*
Y225526D02*X167500Y225600D01*
X167574Y222500D02*Y225526D01*
G54D12*X172588Y219736D02*X172000Y219148D01*
X166300Y219200D02*X172052D01*
X172376Y219524D01*
X161108Y239892D02*X179500Y221500D01*
X159700Y241500D02*X162100D01*
X159339Y241861D02*X159700Y241500D01*
X156787Y241861D02*X159339D01*
X156787Y239892D02*X161108D01*
G54D13*X125100Y218600D02*Y216126D01*
G54D12*X130013Y222170D02*X128670D01*
X125100Y218600D01*
X132671Y219513D02*Y216171D01*
X131700Y215200D01*
X154329Y246487D02*X181413D01*
X149100Y252600D02*X159300Y262800D01*
X148800Y256800D02*X160000Y268000D01*
X142900Y253500D02*X159400Y270000D01*
X142100Y257300D02*X146500Y261700D01*
X152360Y248560D02*X155300Y251500D01*
X152360Y246287D02*Y248560D01*
X150391Y248391D02*X156200Y254200D01*
X150391Y246900D02*Y248391D01*
Y246287D02*Y247391D01*
X156200Y254200D02*X158000D01*
X148850Y248850D02*X158100Y258100D01*
X146453Y249953D02*X149500Y253000D01*
X144484Y252484D02*X149000Y257000D01*
X148422Y248422D02*X149500Y249500D01*
X148422Y246287D02*Y248422D01*
X146453Y246287D02*Y249953D01*
X144484Y246287D02*Y252484D01*
X140546Y246287D02*Y248846D01*
X141200Y249500D01*
X142400D01*
X142900Y250000D01*
X138577Y249677D02*X140600Y251700D01*
X142900Y250000D02*Y253500D01*
X136900Y257300D02*X141300D01*
X140600D02*X142100D01*
X138700Y261400D02*X138900D01*
X141800Y264300D01*
X141400Y259700D02*X142200D01*
X143100Y260600D01*
G54D13*X131500Y278000D02*Y275574D01*
X132200Y274874D01*
X125100Y282200D02*Y279574D01*
G54D12*X132671Y282513D02*Y279371D01*
X131500Y278200D01*
X128170Y285170D02*X125100Y282100D01*
X134639Y246287D02*Y253161D01*
X134300Y253500D01*
X136608Y246287D02*Y252808D01*
X137800Y254000D01*
X138577Y246287D02*Y249677D01*
X124600Y258200D02*X136000D01*
X136900Y257300D01*
G54D13*X129400Y256174D02*X132026D01*
X132200Y256000D01*
X129400Y253026D02*Y252700D01*
X132000Y250100D01*
G54D12*X132670Y246487D02*Y249430D01*
X132000Y250100D01*
X130013Y243829D02*Y244987D01*
X127800Y247200D01*
X125700D01*
X125000Y247900D01*
X154500Y204900D02*X192900D01*
X155000Y196800D02*X190500D01*
X154300Y206600D02*X194500D01*
X193900D02*X195800D01*
X198600Y208300D02*X163900D01*
X192100Y200200D02*X153900D01*
X148422Y190222D02*X155000Y196800D01*
X153900Y200200D02*X146500Y192800D01*
X144484Y194884D02*X154500Y204900D01*
X148250Y202650D02*X148350D01*
X186300Y193700D02*X154800D01*
X155300Y190200D02*X184800D01*
X178000Y187300D02*X158142D01*
X152360Y187260D02*X155300Y190200D01*
X154800Y193700D02*X150400Y189300D01*
X156787Y178861D02*X160239D01*
G54D13*X161900Y180700D02*X164426D01*
G54D12*X156987Y180830D02*X161770D01*
X161900Y180700D01*
X156895Y177000D02*X156787Y176892D01*
X159000Y177000D02*X156895D01*
X164400Y171600D02*X159000Y177000D01*
X173600Y174700D02*X181100Y182200D01*
X180200Y185100D02*X178000Y187300D01*
X163800Y177600D02*X166700Y174700D01*
X161500Y177600D02*X163800D01*
X160239Y178861D02*X161500Y177600D01*
G54D13*X167574Y177774D02*X167400Y177600D01*
X167574Y180700D02*Y177774D01*
G54D12*X176400Y171600D02*X164400D01*
X181600Y176800D02*X176400Y171600D01*
X166700Y174700D02*X173600D01*
X184400Y171600D02*Y173200D01*
X184100Y173500D01*
X158142Y187300D02*X154329Y183487D01*
X152360Y183287D02*Y187260D01*
X150400Y183296D02*X150391Y183287D01*
X150400Y189300D02*Y183296D01*
X148422Y183287D02*Y190222D01*
X146500Y192800D02*Y183334D01*
X146453Y183287D01*
X144484D02*Y194884D01*
X140500Y183333D02*X140546Y183287D01*
Y185346D01*
X141300Y186100D01*
X142200D01*
X143000Y186900D01*
Y195300D01*
Y194600D02*Y195300D01*
X165700Y152900D02*X184400Y171600D01*
X188000Y170600D02*X164050Y146650D01*
G54D13*X162200Y159100D02*X164426D01*
X164526Y159200D01*
G54D12*X161929Y159171D02*X162000Y159100D01*
X149300Y153800D02*X160900D01*
X161800Y154700D01*
X156987Y159171D02*X161929D01*
X195026Y162300D02*X192300D01*
X195026Y157100D02*X192300D01*
X192900Y204900D02*X199700Y198100D01*
X206441D01*
X206464Y198077D01*
Y196108D02*X196192D01*
X192100Y200200D01*
X190500Y196800D02*X193100Y194200D01*
X184800Y190200D02*X186700Y188300D01*
X193100Y194200D02*X206403D01*
X206464Y192170D02*X187830D01*
X186300Y193700D01*
X186700Y188300D02*X206396D01*
X206464Y188232D01*
Y186263D02*X199263D01*
X198100Y185100D01*
X206400Y207900D02*X199000D01*
X206300Y209900D02*X200400D01*
X199400Y210900D01*
X199000Y207900D02*X198600Y208300D01*
X206403Y194200D02*X206464Y194139D01*
X211799Y190201D02*X211800Y190200D01*
X201000Y170600D02*X206375D01*
X202500D02*X188000D01*
X206375D02*X206464Y170511D01*
Y168542D02*X211742D01*
X211800Y168600D01*
X206300Y176400D02*X201600D01*
X206100Y174500D02*X198600D01*
X197400Y175700D01*
X206200Y172500D02*X195600D01*
X193900Y174200D01*
X201600Y176400D02*X200000Y178000D01*
X206464Y178387D02*X211787D01*
X211800Y178400D01*
X206464Y190201D02*X211799D01*
X206464Y202015D02*X217585D01*
X217600Y202000D01*
G54D13*X217800Y202015D02*X214200D01*
G54D12*X206464Y203984D02*X211484D01*
X206400Y205900D02*X198200D01*
X197500Y206600D01*
X195100D01*
X211484Y203984D02*X211800Y204300D01*
X206464Y200046D02*X211454D01*
X211800Y199700D01*
X223388Y161465D02*Y166688D01*
X223400Y166700D01*
X245047Y161465D02*Y166247D01*
X245500Y166700D01*
X248985Y161465D02*Y151685D01*
X248600Y151300D01*
X96900Y144474D02*X97474Y143900D01*
X97400Y143974D02*X97474Y143900D01*
Y145126D02*Y143900D01*
G54D13*X94100D02*X93100Y142900D01*
X94326Y143900D02*X94100D01*
X108526Y144226D02*X107700Y143400D01*
X108526Y147000D02*Y144226D01*
X104300Y153274D02*X104200Y153174D01*
Y148400D02*X105700Y146900D01*
X104200Y150026D02*Y148400D01*
X104374Y142926D02*X104400Y142900D01*
X101200Y142926D02*X104374D01*
G54D12*X98274Y152200D02*Y148400D01*
X98574Y152500D02*X98274Y152200D01*
X99800Y152500D02*X98574D01*
X101400Y154100D02*X99800Y152500D01*
X101600Y154100D02*X101400D01*
X101900Y154400D02*X101600Y154100D01*
X115526Y143326D02*X115400Y143200D01*
X111674Y143326D02*X111700Y143300D01*
X111674Y147000D02*Y143326D01*
X111700Y147026D02*X111674Y147000D01*
X115526D02*Y143326D01*
X115426Y147100D02*X115526Y147000D01*
X115426Y151200D02*Y147100D01*
X111700Y150226D02*Y147026D01*
X111400Y153674D02*X111700Y153374D01*
X111400Y155800D02*Y153674D01*
G54D13*X104300Y155600D02*Y153274D01*
G54D12*X103700Y156200D02*X104200Y155700D01*
X106412Y160788D02*X111400Y155800D01*
X104907Y160788D02*X106412D01*
X103700Y158000D02*Y156200D01*
X102938Y158762D02*X103700Y158000D01*
X102938Y160788D02*Y158762D01*
X101900Y157100D02*Y154400D01*
X99000Y156400D02*X99600Y155800D01*
X100969Y158031D02*X101900Y157100D01*
X100969Y160788D02*Y158031D01*
X99000Y160788D02*Y156400D01*
X97031Y160788D02*Y156331D01*
X95062Y160788D02*Y158762D01*
X97031Y156331D02*X96500Y155800D01*
X94000Y157700D02*Y153326D01*
X95062Y158762D02*X94000Y157700D01*
X91300Y155426D02*X91174Y155300D01*
X91300Y159200D02*Y155426D01*
X92888Y160788D02*X91300Y159200D01*
X93093Y160788D02*X92888D01*
G54D13*X93100Y142900D02*X90700D01*
G54D12*X93726Y152200D02*X90900Y149374D01*
X95126Y152200D02*X93726D01*
X94000Y153326D02*X95126Y152200D01*
Y148374D02*Y146974D01*
G54D13*X87526Y146226D02*X87400Y146100D01*
X90900Y146226D02*X87526D01*
G54D12*X95126Y148400D02*Y147274D01*
X98874Y148400D02*X101200Y146074D01*
X98274Y148400D02*X98874D01*
X95126Y147400D02*Y147274D01*
Y146974D02*X96000Y146100D01*
X96500D01*
X97474Y145126D01*
G54D13*X81074Y164700D02*X80800Y164974D01*
X84300Y164700D02*X81074D01*
G54D12*X86693Y164093D02*X84500Y161900D01*
X85662Y166062D02*X84500Y164900D01*
X89787Y164093D02*X86693D01*
X89787Y166062D02*X85662D01*
X85431Y168031D02*X85100Y167700D01*
X89787Y168031D02*X85431D01*
X89487Y170300D02*X89787Y170000D01*
X83374Y170300D02*X89487D01*
G54D13*X120326Y156874D02*X120400Y156800D01*
X120326Y159800D02*Y156874D01*
X113700Y156700D02*X115600Y154800D01*
X113700Y157726D02*Y156700D01*
Y163100D02*X113400Y163400D01*
X113700Y160874D02*Y163100D01*
G54D12*X108212Y168031D02*X112269D01*
X108212Y170000D02*X112300D01*
X117026Y164700D02*X118326Y163400D01*
X115600Y164700D02*X117026D01*
X112269Y168031D02*X115600Y164700D01*
X118126Y167400D02*X118326Y167200D01*
X114900Y167400D02*X118126D01*
X110738Y166062D02*X113200Y163600D01*
X108212Y166062D02*X110738D01*
X112300Y170000D02*X114900Y167400D01*
X118126Y174900D02*X118426Y174600D01*
X115000Y174900D02*X118126D01*
X117926Y178000D02*X118226Y178300D01*
X115500Y178000D02*X117926D01*
X111438Y173938D02*X115500Y178000D01*
X112069Y171969D02*X115000Y174900D01*
X111500Y185126D02*X111674Y185300D01*
X111500Y182400D02*Y185126D01*
X108212Y171969D02*X112069D01*
X108212Y173938D02*X111438D01*
X108212Y179112D02*X111500Y182400D01*
X108212Y175907D02*Y179112D01*
X108100Y184874D02*X108526Y185300D01*
X108100Y182200D02*Y184874D01*
X105113Y179213D02*X108100Y182200D01*
G54D13*X115500Y201500D02*X112500D01*
X83900Y174400D02*X84500Y173800D01*
X81600Y174400D02*X83900D01*
G54D12*X84500Y173800D02*X84600D01*
G54D13*X82126Y178774D02*X82900Y178000D01*
X80600Y178774D02*X82126D01*
X80600Y175400D02*X81600Y174400D01*
X80600Y175626D02*Y175400D01*
X83700Y178000D02*X84500Y177200D01*
X82900Y178000D02*X83700D01*
G54D12*X84500Y177400D02*Y177100D01*
G54D13*Y184226D02*Y180700D01*
X84274Y187600D02*X84500Y187374D01*
X81300Y187600D02*X84274D01*
G54D12*X89500Y176194D02*X89787Y175907D01*
X89500Y177600D02*Y176194D01*
G54D13*X90500Y201500D02*X93500D01*
G54D12*X93093Y182307D02*X90900Y184500D01*
X93093Y179213D02*Y182307D01*
X86400Y180700D02*X89500Y177600D01*
X84500Y180700D02*X86400D01*
X95000Y179275D02*X95062Y179213D01*
X96900Y179344D02*X97031Y179213D01*
X89725Y174000D02*X89787Y173938D01*
X89756Y172000D02*X89787Y171969D01*
X86400Y172000D02*X89756D01*
X84600Y173800D02*X86400Y172000D01*
X87400Y174000D02*X89725D01*
X87100Y174300D02*X87400Y174000D01*
X87100Y174500D02*Y174300D01*
X84500Y177100D02*X87100Y174500D01*
G54D13*X74400Y155126D02*Y152426D01*
X88026Y152374D02*X88100Y152300D01*
X88026Y155300D02*Y152374D01*
X84500Y153800D02*X84600Y153700D01*
X84500Y156226D02*Y153800D01*
X84300Y159574D02*X84500Y159374D01*
X80800Y161826D02*Y159000D01*
G54D12*X74300Y158374D02*X74400Y158274D01*
X74300Y163700D02*Y158374D01*
X78300Y167700D02*X74300Y163700D01*
X70200Y155126D02*Y152700D01*
X70100Y152600D01*
G54D13*X84300Y161700D02*Y159574D01*
G54D12*X85100Y167700D02*X78300D01*
G54D13*X77826Y172700D02*X80226Y170300D01*
X75974Y172700D02*X77826D01*
G54D12*X74400Y158274D02*X70200D01*
X60250Y164676D02*X59674Y164100D01*
G54D13*X71274Y179874D02*X70500Y179100D01*
X73700Y179874D02*X71274D01*
X72826Y174874D02*X72500Y175200D01*
X72826Y172700D02*Y174874D01*
X72174Y175200D02*X73700Y176726D01*
G54D12*X60250Y169900D02*Y164676D01*
Y179076D02*X60900Y179726D01*
X60250Y175100D02*Y179076D01*
G54D13*X69574Y175200D02*X72174D01*
X66326Y175100D02*X66426Y175200D01*
X60250Y175100D02*X66326D01*
X56526Y161126D02*X56400Y161000D01*
X56526Y164100D02*Y161126D01*
X63400Y172500D02*X64000Y171900D01*
X60250Y172500D02*X63400D01*
X49800Y175100D02*X49000Y175900D01*
X52750Y175100D02*X49800D01*
X48300Y172500D02*X48000Y172800D01*
X52750Y172500D02*X48300D01*
X45474Y169900D02*X52750D01*
G54D15*X49500Y160000D02*X52500D01*
X46500D02*Y162500D01*
X46000Y163000D01*
G54D13*X38500Y166526D02*X38600Y166626D01*
X38500Y163900D02*Y166526D01*
X35226Y166626D02*X35000Y166400D01*
X38326Y166626D02*X35226D01*
X41774D02*X42000Y166400D01*
X38500Y166626D02*X41774D01*
X42200Y169774D02*X42326Y169900D01*
X38500Y169774D02*X42200D01*
X38374Y169900D02*X38500Y169774D01*
X34874Y169900D02*X38374D01*
G54D15*X39000Y186000D02*Y188500D01*
X38500Y189000D01*
X42000Y186000D02*Y188500D01*
X42500Y189000D01*
G54D13*X31626Y170000D02*X31726Y169900D01*
X24500Y170000D02*X31626D01*
X26500D02*X13500D01*
G54D12*X25500Y173000D02*Y177000D01*
Y180000D02*Y183000D01*
G54D15*X32000Y160000D02*X28500D01*
G54D13*Y155100D02*X31841D01*
X32000Y154941D01*
X64374Y182626D02*X64500Y182500D01*
X64374Y186500D02*Y182626D01*
X58100Y186500D02*X58000Y186400D01*
X61226Y186500D02*X58100D01*
X60900Y186174D02*X61226Y186500D01*
X60900Y182874D02*Y186174D01*
X64574Y193326D02*X64500Y193400D01*
X64574Y190100D02*Y193326D01*
X61426Y192474D02*X60500Y193400D01*
X61426Y190100D02*Y192474D01*
X61226Y189900D02*X61426Y190100D01*
X61226Y186500D02*Y189900D01*
X71500Y201500D02*X68000D01*
X64000Y205000D02*Y197500D01*
X53500Y205000D02*Y197500D01*
X45500Y201500D02*X51000D01*
G54D12*X74600Y227100D02*Y225100D01*
X78400Y230900D02*X74600Y227100D01*
X70200Y221274D02*X70100Y221174D01*
X74600Y221274D02*X70200D01*
G54D13*X81000Y222300D02*X80700Y222000D01*
X81000Y224926D02*Y222300D01*
G54D12*X74600Y225300D02*Y221274D01*
X60250Y227176D02*X59574Y226500D01*
X60250Y232900D02*Y227176D01*
G54D15*X46500Y224000D02*Y226500D01*
X46000Y227000D01*
G54D13*X49574Y224000D02*X52200D01*
X52300Y223900D01*
X56526Y227100D02*Y223974D01*
X56600Y223900D01*
G54D12*X91200Y218126D02*X91074Y218000D01*
G54D13*X87926Y215374D02*X88000Y215300D01*
X87926Y218000D02*Y215374D01*
X84500Y219226D02*Y216700D01*
X74600Y215726D02*X74300Y215426D01*
X74600Y218126D02*Y215726D01*
G54D12*X70100Y218026D02*Y215600D01*
X70000Y215500D01*
X89787Y233000D02*X84074D01*
X88062Y236938D02*X84600Y240400D01*
X89787Y236938D02*X88062D01*
X85200Y243200D02*X84500Y243900D01*
X87100Y243200D02*X85200D01*
X89787Y240513D02*X87100Y243200D01*
X89787Y238907D02*Y240513D01*
G54D13*X84500Y243800D02*X84400Y243700D01*
X84500Y247426D02*Y243800D01*
X84400Y240400D02*X84200D01*
X84400D02*X83600D01*
X82000Y242000D01*
X80074D01*
X80000Y242074D01*
G54D12*X84074Y233000D02*X83574Y233500D01*
X89787Y231031D02*X80331D01*
X86231Y234969D02*X84400Y236800D01*
X86593Y227093D02*X84400Y224900D01*
X85962Y229062D02*X84800Y227900D01*
G54D13*X84500Y224800D02*X84400Y224900D01*
X84500Y222374D02*Y224800D01*
G54D12*X89787Y234969D02*X86231D01*
X89787Y227093D02*X86593D01*
X89787Y229062D02*X85962D01*
X78400Y231000D02*Y230900D01*
X78431Y231031D02*X78400Y231000D01*
X80431Y231031D02*X78431D01*
G54D13*X81174Y227900D02*X81000Y228074D01*
X84400Y227900D02*X81174D01*
G54D12*X93600Y217026D02*X95226Y215400D01*
X93600Y220500D02*Y217026D01*
X95226Y215400D02*X93526D01*
X95062Y215564D02*X95226Y215400D01*
X97031Y219431D02*X96400Y218800D01*
X95062Y221962D02*X93600Y220500D01*
X95062Y223788D02*Y221962D01*
X91200Y222400D02*Y218126D01*
X92588Y223788D02*X91200Y222400D01*
X93093Y223788D02*X92588D01*
X99174Y216200D02*X98374Y215400D01*
X100200Y216200D02*X99174D01*
X101700Y217700D02*X100200Y216200D01*
X101700Y220600D02*Y217700D01*
X100969Y221331D02*X101700Y220600D01*
X100969Y223788D02*Y221331D01*
X97031Y223788D02*Y219431D01*
X99000Y219300D02*X99500Y218800D01*
X99000Y223788D02*Y219300D01*
G54D13*X81326Y237600D02*X80000Y238926D01*
X78426Y235500D02*X80426Y233500D01*
X76074Y235500D02*X78426D01*
X83100Y237600D02*X81326D01*
X83900Y236800D02*X83100Y237600D01*
X84400Y236800D02*X83900D01*
X74000Y239200D02*X72700Y237900D01*
X69674D01*
X72926Y235500D02*X72900Y235526D01*
Y237900D01*
X61426Y246400D02*X60800Y245774D01*
X57926D01*
X57900Y245800D01*
X121426Y247074D02*X120800Y247700D01*
X121426Y244700D02*Y247074D01*
G54D12*X127414Y241860D02*X124574Y244700D01*
X130213Y241860D02*X127414D01*
G54D13*X124926Y250400D02*Y247974D01*
X125000Y247900D01*
G54D12*X125953Y235953D02*X125500Y235500D01*
X123300Y233900D02*X122174D01*
X124100Y233100D02*X123300Y233900D01*
X126800Y233100D02*X124100D01*
X127684Y233984D02*X126800Y233100D01*
X130213Y235953D02*X125953D01*
X130191Y237900D02*X130213Y237922D01*
X130204Y239900D02*X130213Y239891D01*
X128115Y232015D02*X127300Y231200D01*
X130213Y232015D02*X128115D01*
X130213Y233984D02*X127684D01*
X122800Y237900D02*X130191D01*
X122400Y237500D02*X122800Y237900D01*
X121574Y237500D02*X122400D01*
X124600Y239900D02*X130204D01*
X123500Y241000D02*X124600Y239900D01*
X121574Y241000D02*X123500D01*
X118026Y240600D02*X118426Y241000D01*
X115400Y240600D02*X118026D01*
X122174Y233900D02*X122074Y234000D01*
G54D13*X118826Y233900D02*X118926Y234000D01*
X116074Y233900D02*X118826D01*
G54D12*X115100Y237500D02*X118426D01*
X108212Y236938D02*X111738D01*
X112569Y234969D02*X115100Y237500D01*
X111738Y236938D02*X115400Y240600D01*
X108212Y238907D02*Y242312D01*
X111300Y248226D02*X111574Y248500D01*
X111300Y245400D02*Y248226D01*
X107800Y245100D02*Y247874D01*
X108212Y242312D02*X111300Y245400D01*
X104913Y242213D02*X107800Y245100D01*
X104907Y242213D02*X104913D01*
X102938D02*Y244638D01*
X107800Y247874D02*X108426Y248500D01*
X105200Y248126D02*X105574Y248500D01*
X105200Y246800D02*Y248126D01*
X104400Y246000D02*X105200Y246800D01*
X104300Y246000D02*X104400D01*
X102938Y244638D02*X104300Y246000D01*
X101700Y247774D02*X102426Y248500D01*
X101700Y246300D02*Y247774D01*
X100969Y245569D02*X101700Y246300D01*
G54D13*X99426Y247626D02*X99300Y247500D01*
X99426Y252500D02*Y247626D01*
G54D12*X100969Y242213D02*Y245569D01*
X99000Y247200D02*X99300Y247500D01*
X99000Y242213D02*Y247200D01*
X93093Y245207D02*X90800Y247500D01*
X93093Y242213D02*Y245207D01*
X134640Y214960D02*X134800Y214800D01*
X143200Y215000D02*X143400Y214800D01*
X143200Y216400D02*Y215000D01*
X142516Y217084D02*X143200Y216400D01*
X134640Y219713D02*Y214960D01*
X140547Y214953D02*X140600Y214900D01*
X140547Y219713D02*Y214953D01*
X142516Y219713D02*Y217084D01*
G54D13*X120652Y220152D02*X120300Y219800D01*
X120652Y222874D02*Y220152D01*
G54D12*X125065Y224139D02*X123800Y222874D01*
X123600Y227000D02*X121574D01*
X124492Y226108D02*X123600Y227000D01*
X118026Y226600D02*X118426Y227000D01*
X118126Y226700D02*X118426Y227000D01*
X116500Y226600D02*X118026D01*
G54D13*X125100Y216126D02*X124974Y216000D01*
G54D12*X130213Y224139D02*X125065D01*
X130213Y226108D02*X124492D01*
X130213Y228077D02*X124823D01*
X121974Y230100D02*X121787Y230287D01*
X122800Y230100D02*X121974D01*
X124823Y228077D02*X122800Y230100D01*
X121974D02*X121574Y230500D01*
X122700Y230100D02*X121974D01*
X125800Y231200D02*X125500Y230900D01*
X127300Y231200D02*X125800D01*
X118326Y230400D02*X118363Y230437D01*
G54D13*X115600Y217900D02*X115500Y217800D01*
X115600Y219300D02*Y217900D01*
X115000Y219900D02*X115600Y219300D01*
X115000Y220926D02*Y219900D01*
X114700Y224374D02*X115000Y224074D01*
X114700Y225300D02*Y224374D01*
G54D12*X111800Y216274D02*Y218300D01*
G54D13*X113550Y226450D02*X114700Y225300D01*
X113250Y226450D02*X113550D01*
G54D12*X110638Y229062D02*X113100Y226600D01*
X112069Y231031D02*X116500Y226600D01*
X115100Y230400D02*X118326D01*
X112500Y233000D02*X115100Y230400D01*
X118126Y230200D02*X118426Y230500D01*
X108212Y229062D02*X110638D01*
X108212Y231031D02*X112069D01*
X108212Y233000D02*X112500D01*
X108212Y234969D02*X112569D01*
X105095Y223600D02*X104907Y223788D01*
X106500Y223600D02*X105095D01*
X111800Y218300D02*X106500Y223600D01*
G54D13*X104050Y216124D02*X104000Y216074D01*
X104050Y218750D02*Y216124D01*
G54D12*X103600Y219200D02*X104100Y218700D01*
X103600Y221100D02*Y219200D01*
X102938Y221762D02*X103600Y221100D01*
X102938Y223788D02*Y221762D01*
G54D13*X72800Y235626D02*X72926Y235500D01*
X74000Y239226D02*Y239100D01*
X70874Y242574D02*X70400Y242100D01*
X73500Y242574D02*X70874D01*
X66326Y238100D02*X66526Y237900D01*
X60250Y238100D02*X66326D01*
X63300Y235500D02*X63900Y234900D01*
X60250Y235500D02*X63300D01*
X64674Y245774D02*X64400Y245500D01*
X64674Y249400D02*Y245774D01*
G54D12*X60700Y242526D02*X60800Y242626D01*
G54D13*X61326Y249400D02*X61426Y249300D01*
Y246400D01*
G54D12*X60700Y238100D02*Y242526D01*
G54D13*X48200Y235500D02*X47900Y235800D01*
X52750Y235500D02*X48200D01*
X49700Y238100D02*X48900Y238900D01*
X52750Y238100D02*X49700D01*
X52650Y233000D02*X52750Y232900D01*
X45574Y233000D02*X52650D01*
X38600D02*X42426D01*
X20600D02*X32426D01*
X32000Y224059D02*X28441D01*
X28400Y224100D01*
X32000Y218941D02*X28559D01*
X28400Y219100D01*
G54D12*X26000Y236000D02*Y240000D01*
G54D13*Y243074D02*X29126D01*
X29200Y243000D01*
G54D15*X39000Y249000D02*Y251500D01*
G54D13*X42074Y249000D02*Y251874D01*
X42300Y252100D01*
G54D15*X39000Y251500D02*X38500Y252000D01*
G54D12*X157200Y254200D02*X188000D01*
X160000Y268000D02*X200500D01*
X159300Y262800D02*X198800D01*
X158100Y258100D02*X191200D01*
X155300Y251500D02*X183600D01*
G54D13*X167574Y288674D02*X167600Y288700D01*
X167574Y285500D02*Y288674D01*
X105300Y273400D02*X105700Y273000D01*
G54D12*X111774Y269774D02*X111600Y269600D01*
X111774Y273500D02*Y269774D01*
G54D13*X105300Y274500D02*Y273400D01*
X104200Y275600D02*X105300Y274500D01*
X104200Y275926D02*Y275600D01*
Y281800D02*Y279074D01*
G54D12*X111700Y273574D02*X111774Y273500D01*
X111700Y277826D02*Y273574D01*
X111500Y281174D02*X111700Y280974D01*
X111500Y283000D02*Y281174D01*
X107712Y286788D02*X111500Y283000D01*
G54D13*X115350Y281350D02*X115600Y281100D01*
X115350Y282850D02*Y281350D01*
X114900Y283300D02*X115350Y282850D01*
X114900Y283800D02*Y283300D01*
Y287300D02*X114800Y287200D01*
G54D12*X104907Y286788D02*X107712D01*
X104300Y281900D02*X104200Y281800D01*
X104300Y283200D02*Y281900D01*
X102938Y284562D02*X104300Y283200D01*
X102938Y286788D02*Y284562D01*
G54D13*X108626Y271226D02*X107200Y269800D01*
X108626Y273500D02*Y271226D01*
G54D12*X123700Y289100D02*X130205D01*
G54D13*X125100Y279574D02*X124900Y279374D01*
G54D12*X114800Y287126D02*X114900Y287026D01*
X114800Y288900D02*Y287126D01*
X115600Y282600D02*Y280900D01*
G54D13*X115500Y264500D02*X113000D01*
G54D12*X114900Y283300D02*X115600Y282600D01*
X114900Y283878D02*Y283300D01*
G54D13*X104700Y252500D02*X105500Y251700D01*
X102574Y252500D02*X104700D01*
G54D12*X97550Y258150D02*X97650D01*
X99200Y259700D01*
X99600Y257500D02*X100100Y258000D01*
G54D13*X90500Y264500D02*X93500D01*
X122100Y253500D02*X124878D01*
X124926Y253548D01*
G54D12*X85700Y261400D02*X139000D01*
X99200Y259700D02*X141500D01*
X100100Y258000D02*X124400D01*
X124600Y258200D01*
G54D13*X73974Y305100D02*X74000Y305074D01*
X71100Y305100D02*X73974D01*
X72926Y300852D02*X74000Y301926D01*
X72926Y298000D02*Y300852D01*
X73074Y301000D02*X74000Y301926D01*
X69574Y301000D02*X73074D01*
X71500Y327500D02*X68000D01*
X64700Y316126D02*X64574Y316000D01*
Y309126D02*X64600Y309100D01*
X64574Y312000D02*Y309126D01*
X64700Y319000D02*Y316126D01*
X64000Y331000D02*Y323500D01*
X53500Y331000D02*Y323500D01*
X45500Y327500D02*X51000D01*
X61300Y316126D02*X61426Y316000D01*
X61300Y318900D02*Y316126D01*
X61426Y312000D02*Y316000D01*
Y312000D02*X58900D01*
X61000Y311574D02*X61426Y312000D01*
X61000Y308574D02*Y311574D01*
G54D12*X60250Y304676D02*X61000Y305426D01*
X60250Y301100D02*Y304676D01*
G54D13*X63500Y298500D02*X64000Y298000D01*
X60250Y298500D02*X63500D01*
G54D12*X74500Y288700D02*Y284400D01*
G54D13*Y278626D02*X74400Y278526D01*
X74500Y281352D02*Y278626D01*
G54D12*X74400Y284400D02*X74413Y284413D01*
X70200Y284400D02*X74400D01*
X70200Y281252D02*Y278900D01*
X70000Y278700D01*
G54D13*X84400Y280000D02*X84600Y279800D01*
X84400Y282426D02*Y280000D01*
X84350Y285624D02*X84400Y285574D01*
X84350Y287850D02*Y285624D01*
G54D12*X84900Y288400D02*X84550Y288050D01*
X86200Y288400D02*X84900D01*
X79831Y294031D02*X74500Y288700D01*
G54D13*X81000Y285300D02*X80800Y285100D01*
X81000Y287926D02*Y285300D01*
G54D12*X78700Y292900D02*X79831Y294031D01*
G54D13*X81024Y291050D02*X81000Y291074D01*
X84550Y291050D02*X81024D01*
G54D12*X85562Y292062D02*X84500Y291000D01*
X89787Y292062D02*X85562D01*
X87893Y290093D02*X86200Y288400D01*
X89787Y290093D02*X87893D01*
X79831Y294031D02*X89787D01*
G54D13*X84500Y309274D02*X84426Y309348D01*
X84422Y312500D02*X84426Y312496D01*
X81500Y312500D02*X84422D01*
X84500Y306800D02*Y309274D01*
X83674Y300726D02*X84500Y299900D01*
X81500Y300726D02*X83674D01*
X84026Y303874D02*X84300Y303600D01*
X81500Y303874D02*X84026D01*
G54D12*X85200Y306000D02*X84500Y306700D01*
X86400Y301500D02*X84400Y303500D01*
X87200Y306000D02*X85200D01*
X89787Y303413D02*X87200Y306000D01*
X89787Y301907D02*Y303413D01*
X86700Y301500D02*X86400D01*
X86431Y297969D02*X84600Y299800D01*
X83574Y296000D02*X83074Y296500D01*
X89787Y296000D02*X83574D01*
G54D13*X78426Y298000D02*X79926Y296500D01*
X76074Y298000D02*X78426D01*
G54D12*X86800Y301400D02*X86700Y301500D01*
X86800Y300700D02*Y301400D01*
X87562Y299938D02*X86800Y300700D01*
X89787Y299938D02*X87562D01*
X89787Y297969D02*X86431D01*
G54D13*X90900Y310600D02*X92250Y309250D01*
G54D12*X93093Y308407D02*X90900Y310600D01*
X93093Y305213D02*Y308407D01*
X95062Y305213D02*Y312638D01*
X92700Y315000D02*Y322100D01*
X94800Y315300D02*Y319500D01*
G54D13*X99000Y327500D02*X99500Y327000D01*
X99000Y331000D02*Y323500D01*
X109000Y331000D02*Y327500D01*
X116000D02*X109500D01*
X90000D02*X96000D01*
X109000Y323500D02*Y326500D01*
X108500Y327000D01*
G54D12*X126615Y295015D02*X125600Y294000D01*
X125953Y298953D02*X125600Y298600D01*
X130213Y298953D02*X125953D01*
X127884Y296984D02*X127250Y296350D01*
X130213Y296984D02*X127884D01*
X130213Y295015D02*X126615D01*
X127250Y296350D02*X122698D01*
X122100Y293500D02*X121600D01*
X121996Y300922D02*X121574Y300500D01*
X121774Y303800D02*X121574Y304000D01*
X123600Y303800D02*X121774D01*
X124509Y302891D02*X123600Y303800D01*
X130213Y300922D02*X121996D01*
X118326Y303900D02*X118426Y304000D01*
X116100Y303900D02*X118326D01*
X112138Y299938D02*X116100Y303900D01*
X118326Y300400D02*X118426Y300500D01*
X115200Y300400D02*X118326D01*
X112769Y297969D02*X115200Y300400D01*
X112100Y310974D02*X112074Y311000D01*
X112100Y308900D02*Y310974D01*
X108600Y310674D02*X108926Y311000D01*
X108600Y308600D02*Y310674D01*
X108212Y301907D02*Y305012D01*
X112100Y308900D01*
G54D13*X116500Y310000D02*Y309000D01*
X112500Y305000D01*
X121626Y307700D02*Y310674D01*
G54D12*X105213Y305213D02*X108600Y308600D01*
X104907Y305213D02*X105213D01*
X105500Y309200D02*Y310926D01*
X105100Y308800D02*X105500Y309200D01*
X104300Y308800D02*X105100D01*
X102938Y307438D02*X104300Y308800D01*
X102938Y305213D02*Y307438D01*
X102100Y310674D02*X102426Y311000D01*
X102100Y308800D02*Y310674D01*
X100969Y307669D02*X102100Y308800D01*
X100969Y305213D02*Y307669D01*
X99000Y305213D02*Y310200D01*
X97031Y305213D02*Y313069D01*
X105500Y310926D02*X105574Y311000D01*
G54D13*X102374Y314900D02*X105600D01*
G54D12*X105500D02*X105600Y314800D01*
X102374Y314900D02*X105500D01*
G54D13*X99400Y314600D02*X99300Y314700D01*
X99400Y310600D02*Y314600D01*
G54D12*X99300Y314826D02*X99226Y314900D01*
X99300Y310500D02*Y314826D01*
X99000Y310200D02*X99400Y310600D01*
G54D13*X125000Y317326D02*X125200Y317526D01*
X121626Y310674D02*X120900Y311400D01*
G54D12*X108212Y299938D02*X112138D01*
X108212Y297969D02*X112769D01*
X108212Y296000D02*X113400D01*
X108212Y294031D02*X112869D01*
X108237Y292037D02*X111563D01*
X108274Y292000D02*X108212Y292062D01*
G54D13*X104126Y268626D02*X104200Y268700D01*
X101400Y268626D02*X104126D01*
G54D12*X100174Y274000D02*X102300Y271874D01*
X98374Y274000D02*X100174D01*
X98174Y274200D02*X98374Y274000D01*
X97300Y269526D02*X97274Y269500D01*
X97300Y271300D02*Y269526D01*
X96800Y271800D02*X97300Y271300D01*
X96100Y271800D02*X96800D01*
G54D13*X91500Y268300D02*X91200Y268600D01*
X87426Y272226D02*X87400Y272200D01*
X90500Y272226D02*X87426D01*
X92900Y268300D02*X91500D01*
X94100Y269500D02*X92900Y268300D01*
X94126Y269500D02*X94100D01*
G54D12*X95226Y272674D02*X96100Y271800D01*
X95226Y274000D02*Y272674D01*
X98174Y278000D02*Y274200D01*
X99300Y278000D02*X98174D01*
X95062Y242213D02*Y255662D01*
X97031Y242213D02*Y255031D01*
X93126Y278000D02*X90500Y275374D01*
X95026Y278000D02*X93126D01*
X93900Y279126D02*X95026Y278000D01*
G54D13*X88026Y278474D02*X88100Y278400D01*
X88026Y281400D02*Y278474D01*
G54D12*X91400Y281626D02*X91174Y281400D01*
X93900Y282800D02*Y279126D01*
G54D13*X91174Y282774D02*X91750Y283350D01*
X91174Y281400D02*Y282774D01*
G54D12*X91600Y281826D02*X91387Y281613D01*
X91600Y283200D02*Y281826D01*
X93093Y284693D02*X91600Y283200D01*
X93093Y286788D02*Y284693D01*
X100000Y278700D02*X99300Y278000D01*
X100000Y279100D02*Y278700D01*
X95062Y283962D02*X93900Y282800D01*
X95062Y284100D02*Y283962D01*
Y286788D02*Y284062D01*
X97031Y282431D02*X96500Y281900D01*
X97031Y286788D02*Y282431D01*
X101850Y280950D02*X100000Y279100D01*
X101850Y283050D02*Y280950D01*
X100969Y283931D02*X101850Y283050D01*
X100969Y284069D02*Y283931D01*
X99000Y282500D02*X99600Y281900D01*
X99000Y286788D02*Y282500D01*
X100969Y286788D02*Y284031D01*
X138578Y276622D02*X140200Y275000D01*
X140547Y278153D02*X140700Y278000D01*
X138578Y282713D02*Y276622D01*
G54D13*X135474Y271726D02*X135500Y271700D01*
X132200Y271726D02*X135474D01*
G54D12*X134640Y278160D02*X134900Y277900D01*
X134640Y282713D02*Y278160D01*
X136800Y275300D02*X136500Y275000D01*
X136800Y276800D02*Y275300D01*
X137100Y277100D02*X136800Y276800D01*
X137100Y279000D02*Y277100D01*
X136609Y279491D02*X137100Y279000D01*
X136609Y282713D02*Y279491D01*
G54D13*X120426Y282926D02*X120400Y282900D01*
X124900Y276226D02*Y273100D01*
G54D12*X140547Y282713D02*Y278153D01*
X143100Y278300D02*X143500Y277900D01*
X143100Y279300D02*Y278300D01*
X142516Y279884D02*X143100Y279300D01*
X142516Y282713D02*Y279884D01*
G54D13*X120426Y286000D02*Y282926D01*
G54D12*X124713Y287139D02*X123574Y286000D01*
X130213Y287139D02*X124713D01*
X122800Y290000D02*X123700Y289100D01*
X121574Y290000D02*X122800D01*
X122100Y293000D02*X121587Y293513D01*
X121674Y293600D02*X121574Y293500D01*
X122698Y296350D02*X122574Y296474D01*
X122548Y296500D02*X122048Y297000D01*
G54D13*X118900D02*X116174D01*
G54D12*X118326Y293600D02*X118426Y293500D01*
X115800Y293600D02*X118326D01*
X113400Y296000D02*X115800Y293600D01*
G54D13*X114900Y288800D02*Y287300D01*
X113700Y290000D02*X114900Y288800D01*
G54D12*X116900Y290000D02*X118426D01*
X113700D02*X114800Y288900D01*
X112869Y294031D02*X116900Y290000D01*
X113600D02*X113700D01*
X111563Y292037D02*X113600Y290000D01*
X124500Y291100D02*X122100Y293500D01*
G54D13*X41500Y229800D02*X41900Y229400D01*
X38500Y229800D02*X41500D01*
X38500Y229926D02*X35426D01*
X38500Y227000D02*X38400Y226900D01*
X38500Y229926D02*Y227000D01*
X35426Y229926D02*X34900Y229400D01*
X38426Y233000D02*X38500Y233074D01*
X35574Y233000D02*X38426D01*
X21500D02*X15000D01*
X81226Y250574D02*X81200Y250600D01*
X84500Y250574D02*X81226D01*
G54D12*X76000Y260500D02*X84800D01*
X85700Y261400D01*
G54D13*X38500Y290300D02*Y292926D01*
X38074Y292500D02*X38500Y292926D01*
X35500Y292500D02*X38074D01*
X38926D02*X38500Y292926D01*
X41500Y292500D02*X38926D01*
X34648Y296074D02*X34574Y296000D01*
X38500Y296074D02*X34648D01*
X38574Y296000D02*X38500Y296074D01*
X42426Y296000D02*X38574D01*
G54D15*X31500Y287000D02*X28000D01*
X27500Y287500D01*
Y282000D02*X31500D01*
G54D13*X56400Y289974D02*X56426Y290000D01*
X56500Y290074D02*X56526Y290100D01*
G54D12*X59674Y295324D02*X60250Y295900D01*
X59674Y290100D02*Y295324D01*
G54D13*X60450Y301000D02*X60250Y301200D01*
X66426Y301000D02*X60450D01*
X56400Y287100D02*Y289974D01*
G54D15*X49500Y287000D02*X52500D01*
X46500D02*Y290000D01*
G54D13*X48800Y298500D02*X48700Y298600D01*
X52750Y298500D02*X48800D01*
X45674Y295900D02*X45574Y296000D01*
X52750Y295900D02*X45674D01*
X49000Y302000D02*X49250D01*
X49900Y301100D02*X49000Y302000D01*
X52750Y301100D02*X49900D01*
X31426Y296000D02*X20000D01*
X26000D02*X10500D01*
G54D12*X25000Y299000D02*Y303000D01*
Y306000D02*Y309000D01*
G54D15*X39000Y312000D02*Y314500D01*
X38500Y315000D01*
X42500D02*Y312500D01*
X42000Y312000D01*
G54D13*X64574Y256226D02*X64400Y256400D01*
X64574Y253000D02*Y256226D01*
X64000Y268000D02*Y260500D01*
X71500Y264500D02*X68000D01*
X45500D02*X51000D01*
X53500Y268000D02*Y260500D01*
X61326Y253100D02*Y249400D01*
X61300Y256200D02*Y253126D01*
X61326Y253100D01*
X125200Y193800D02*X125100Y193900D01*
X125000Y210200D02*X124800Y210000D01*
X125000Y212926D02*Y210200D01*
G54D12*X111774Y213100D02*X111800Y213126D01*
X111774Y209700D02*Y213100D01*
X111600Y209526D02*X111774Y209700D01*
X111600Y206300D02*Y209526D01*
G54D13*X108626Y207426D02*X107600Y206400D01*
X108626Y209700D02*Y207426D01*
G54D12*X114663Y213137D02*X114826Y213300D01*
X114663Y209663D02*Y213137D01*
X115300Y209026D02*X114826Y209500D01*
X115300Y206200D02*Y209026D01*
X136900Y198200D02*X97800D01*
X138000Y196700D02*X99300D01*
G54D13*X131800Y208526D02*X134626D01*
X134700Y208600D01*
X135200Y194500D02*X132000D01*
X131900Y194400D01*
X131700Y214900D02*Y211774D01*
X131800Y211674D01*
G54D12*X98374Y211700D02*X101100Y208974D01*
X98474Y211800D02*X98374Y211700D01*
X98474Y215500D02*Y211800D01*
X93526Y215400D02*X90500Y212374D01*
G54D13*X104226Y205826D02*X104300Y205900D01*
X101100Y205826D02*X104226D01*
X105300Y210200D02*X105600Y209900D01*
X105300Y211600D02*Y210200D01*
X104000Y212900D02*X105300Y211600D01*
X104000Y212926D02*Y212900D01*
G54D12*X95200Y211700D02*Y210300D01*
X96100Y209400D01*
X96800D01*
X97700Y208500D01*
Y207000D01*
X97500Y207174D02*X97674Y207000D01*
G54D13*X93200Y205800D02*X90700D01*
X94400Y207000D02*X93200Y205800D01*
X94526Y207000D02*X94400D01*
X90700Y205800D02*X90600Y205900D01*
X87426Y209226D02*X87300Y209100D01*
X90500Y209226D02*X87426D01*
X87474Y208926D02*X87300Y209100D01*
X125000Y147100D02*X124900Y147000D01*
X125000Y149926D02*Y147100D01*
X135274Y145826D02*X135500Y145600D01*
X132200Y145826D02*X135274D01*
X131900Y149274D02*X132200Y148974D01*
G54D12*X134640Y156713D02*Y152060D01*
G54D13*X131900Y151800D02*Y149274D01*
G54D12*X132671Y152571D02*X131900Y151800D01*
G54D13*X125000Y155700D02*Y153074D01*
G54D12*X128570Y159170D02*X125000Y155600D01*
X132671Y156513D02*Y152571D01*
X130052Y161300D02*X130213Y161139D01*
X130190Y165100D02*X130213Y165077D01*
X129998Y168800D02*X130213Y169015D01*
X130104Y177000D02*X130213Y176891D01*
X130073Y179000D02*X130213Y178860D01*
X125400Y161300D02*X130052D01*
X125100Y165100D02*X130190D01*
X130013Y159170D02*X128570D01*
X123900Y159800D02*X125400Y161300D01*
X123474Y159800D02*X123900D01*
X127200Y168800D02*X129998D01*
X126300Y167900D02*X127200Y168800D01*
X125600Y167900D02*X126300D01*
X127700Y170100D02*X128300Y170700D01*
X124300Y170100D02*X127700D01*
X130213Y163108D02*X125008D01*
X124700Y163400D02*X125000Y163100D01*
X121474Y163400D02*X124700D01*
X123000Y167200D02*X125100Y165100D01*
X121474Y167200D02*X123000D01*
X125008Y163108D02*X125000Y163100D01*
X123500Y170900D02*X124300Y170100D01*
X125000Y174900D02*X130191D01*
X124700Y174600D02*X125000Y174900D01*
X121574Y174600D02*X124700D01*
X125800Y177000D02*X130104D01*
X124500Y178300D02*X125800Y177000D01*
X121374Y178300D02*X124500D01*
X127200Y179000D02*X130073D01*
X134640Y152060D02*X134900Y151800D01*
X150100Y152200D02*X165000D01*
X150100Y144800D02*X162200D01*
X164900Y147500D01*
X165000Y152200D02*X166100Y153300D01*
X147000Y149100D02*X150100Y152200D01*
X143500Y148700D02*X144200D01*
X149300Y153800D01*
X148700Y148100D02*X150300Y149700D01*
X154200D01*
X154400Y149500D01*
X149150Y146250D02*X150100Y147200D01*
X158400D01*
X158500Y147100D01*
G54D13*X135074Y194374D02*X135200Y194500D01*
G54D12*X134639Y190839D02*X137800Y194000D01*
X136608Y190208D02*X140100Y193700D01*
X134639Y183287D02*Y190839D01*
X136608Y183287D02*Y190208D01*
X132670Y190930D02*X131900Y191700D01*
G54D13*Y188700D02*Y191126D01*
G54D12*X132670Y183487D02*Y188030D01*
X131900Y188800D01*
G54D13*Y191126D02*X132000Y191226D01*
G54D12*X104907Y179213D02*X105113D01*
X105500Y183000D02*Y185274D01*
X104800Y182300D02*X105500Y183000D01*
X104100Y182300D02*X104800D01*
X102938Y181138D02*X104100Y182300D01*
X102938Y179213D02*Y181138D01*
X100969Y179213D02*Y181869D01*
X99000Y179213D02*Y184100D01*
G54D13*X99526Y184626D02*X99400Y184500D01*
X99526Y189100D02*Y184626D01*
G54D12*X102100Y185074D02*X102326Y185300D01*
X102100Y183000D02*Y185074D01*
X99000Y184100D02*X99400Y184500D01*
G54D13*X105200Y189100D02*X105600Y188700D01*
X102674Y189100D02*X105200D01*
G54D12*X105500Y185274D02*X105474Y185300D01*
X100969Y181869D02*X102100Y183000D01*
X95000Y195400D02*Y179275D01*
X96900Y194300D02*Y179344D01*
G54D13*X125200Y191074D02*Y193800D01*
X121326Y184274D02*X120900Y184700D01*
X125100Y191326D02*X125200Y191426D01*
G54D12*X125800Y187900D02*X125100Y188600D01*
G54D13*X125200Y185400D02*Y187978D01*
G54D12*X126100Y184500D02*X125200Y185400D01*
G54D13*X121326Y181900D02*Y184274D01*
G54D12*X124474Y181726D02*X127200Y179000D01*
X124474Y181900D02*Y181726D01*
X128600Y184500D02*X126100D01*
G54D13*X119226Y170900D02*X116174D01*
G54D12*X122374D02*X123500D01*
X126600Y172500D02*X127000Y172900D01*
X125600Y172500D02*X126600D01*
X129929Y170700D02*X130213Y170984D01*
X128300Y170700D02*X129929D01*
X130160Y172900D02*X130213Y172953D01*
X127000Y172900D02*X130160D01*
X130191Y174900D02*X130213Y174922D01*
X130013Y180829D02*Y183087D01*
X128600Y184500D01*
X138578Y213622D02*X140200Y212000D01*
X138578Y219713D02*Y213622D01*
X136800Y213800D02*Y212300D01*
X137100Y214100D02*X136800Y213800D01*
X137100Y216000D02*Y214100D01*
X136609Y216491D02*X137100Y216000D01*
X136609Y219713D02*Y216491D01*
X139400Y200700D02*X136900Y198200D01*
X140900Y199600D02*X138000Y196700D01*
X137800Y194400D02*X144300Y200900D01*
X140100Y193700D02*Y194500D01*
X148500Y202900D01*
X137800Y194000D02*Y194400D01*
X139150Y200450D02*X152900Y214200D01*
X140750Y199450D02*X154000Y212700D01*
X138900Y208600D02*X142400D01*
X149800Y216000D01*
X143000Y195300D02*X154300Y206600D01*
X143850Y200450D02*X153500Y210100D01*
X155100D01*
X155300Y210300D01*
X148350Y202650D02*X153600Y207900D01*
X156900D01*
X159400Y210400D01*
X163900Y208300D02*X163600Y208600D01*
X289535Y231551D02*X305951D01*
X289535Y229582D02*X307918D01*
X289535Y225644D02*X296256D01*
X289535Y223675D02*X295725D01*
X289500Y235600D02*X295400D01*
X290200Y233500D02*X297900D01*
X296256Y225644D02*X299700Y222200D01*
X295725Y223675D02*X298700Y220700D01*
X289535Y219737D02*X294837D01*
X295500Y220400D01*
X289535Y227613D02*X284513D01*
X284500Y227600D01*
X317974Y235400D02*X322641D01*
X322841Y235200D01*
X327959D02*X331600D01*
X336100Y236748D02*X339452Y240100D01*
X342600D02*X353900D01*
X354000Y240200D01*
X322341Y228300D02*X322841Y228800D01*
X327959D02*X330900D01*
X331100Y229000D01*
X336100Y226000D02*Y236748D01*
X332300Y222200D02*X336100Y226000D01*
X354000Y220200D02*X342648D01*
X342548Y220300D01*
X339000Y220700D02*X339400Y220300D01*
X289535Y237458D02*X284642D01*
X284500Y237600D01*
X274581Y244536D02*Y239719D01*
X274600Y239700D01*
X282400Y245000D02*Y248500D01*
X280400Y245800D02*Y249100D01*
X295400Y235600D02*X306600Y246800D01*
X297900Y233500D02*X309400Y245000D01*
X280400Y249100D02*X282300Y251000D01*
X272600Y245500D02*Y248100D01*
X274100Y249600D01*
X278000D01*
X281200Y252800D01*
X274000Y252600D02*X278100D01*
X282400Y248500D02*X283000Y249100D01*
X379800D01*
X282300Y251000D02*X376300D01*
X306600Y246800D02*X373500D01*
X309400Y245000D02*X370300D01*
X370400Y244900D01*
X305951Y231551D02*X309700Y235300D01*
X314726D01*
X314826Y235400D01*
X307918Y229582D02*X309300Y228200D01*
X314726D01*
X314826Y228300D01*
X317974D02*X322341D01*
X299700Y222200D02*X332300D01*
X298700Y220700D02*X339000D01*
X289600Y217800D02*X334100D01*
X289535Y213830D02*X284470D01*
X289700Y215800D02*X332600D01*
X289700Y211800D02*X319100D01*
X289700Y209900D02*X318400D01*
X289535Y205954D02*X298746D01*
X289600Y207900D02*X317700D01*
X289535Y190202D02*X301598D01*
X289535Y188233D02*X300867D01*
X289535Y186264D02*X300036D01*
X289535Y198078D02*X303622D01*
X289535Y196109D02*X302391D01*
X289535Y192171D02*X303029D01*
X298746Y205954D02*X325000Y179700D01*
X303622Y198078D02*X323100Y178600D01*
X302391Y196109D02*X321300Y177200D01*
X303029Y192171D02*X319100Y176100D01*
X289535Y194140D02*X284040D01*
X289535Y176419D02*X284119D01*
X283400Y175700D01*
X289535Y174450D02*X286250D01*
X283500Y171700D01*
X284040Y194140D02*X284000Y194100D01*
X284784Y202016D02*X284600Y202200D01*
X289535Y203985D02*X286015D01*
X284600Y205400D01*
X278500Y156700D02*X277926Y156126D01*
Y152500D01*
X270644Y161465D02*Y156056D01*
X270700Y156000D01*
X264737Y161465D02*Y166437D01*
X264800Y166500D01*
X281074Y152500D02*X281000Y152426D01*
Y149700D01*
X280489Y161465D02*X280500Y161454D01*
Y157100D01*
X282100Y155500D01*
X287900D01*
X290941Y152459D01*
Y150900D01*
X296059D02*X296200Y150759D01*
Y148800D01*
X292500Y145100D01*
X289874D01*
X302900Y153600D02*Y145900D01*
X301598Y190202D02*X313000Y178800D01*
X300867Y188233D02*X311300Y177800D01*
X300036Y186264D02*X309600Y176700D01*
X289535Y184295D02*X298705D01*
X307800Y175200D01*
X297674Y182326D02*X306400Y173600D01*
X296443Y180357D02*X304600Y172200D01*
X295512Y178388D02*X302900Y171000D01*
X296048Y171848D02*X297574D01*
X289535Y172481D02*X293481D01*
X295700Y174700D01*
X332400Y200900D02*X332100Y201200D01*
X284470Y213830D02*X284400Y213900D01*
X289535Y200047D02*X285847D01*
X285400Y199600D01*
X289535Y202016D02*X284784D01*
G54D13*X278500Y199900D02*X282300D01*
X282600Y199600D01*
G54D12*X285400D02*X282400D01*
X282100Y199900D01*
X278500D01*
X278400Y200000D01*
X313000Y178800D02*Y145700D01*
X311300Y177800D02*Y146500D01*
X309600Y176700D02*Y147600D01*
X307800Y175200D02*Y148500D01*
X306400Y173600D02*Y149800D01*
X304600Y172200D02*Y150900D01*
Y155900D02*Y142300D01*
X302900Y171000D02*Y152000D01*
X325050Y179650D02*Y145550D01*
X325000Y146850D02*X325050Y146900D01*
X325000Y143900D02*Y146600D01*
X325050Y146650D01*
X323100Y178600D02*Y145600D01*
X321300Y177200D02*Y145600D01*
X319100Y176100D02*Y145600D01*
Y141700D02*Y146400D01*
X323100Y140900D02*Y147500D01*
X309600Y149600D02*Y138900D01*
X307800Y150600D02*Y140600D01*
X306400Y153000D02*Y141400D01*
X305300Y140300D01*
X304600Y142300D02*X303900Y141600D01*
X302900Y145900D02*X299800Y142800D01*
X289535Y182326D02*X297674D01*
X289535Y180357D02*X296443D01*
X289535Y178388D02*X295512D01*
X347400Y178000D02*X347500Y177900D01*
X337400Y178000D02*X337474Y177926D01*
X334326Y162800D02*X331600D01*
X289535Y168543D02*X289578Y168500D01*
X293500D01*
X328600Y164500D02*Y160700D01*
X293500Y168500D02*X294700Y169700D01*
Y170500D01*
X296048Y171848D01*
X297574Y168700D02*X297600Y168674D01*
Y166200D01*
X325050Y145550D02*X325000Y145500D01*
X360941Y116300D02*Y119859D01*
X360500Y120300D01*
X325050Y145500D02*Y130950D01*
X317500Y123400D01*
X323100Y141400D02*Y132200D01*
X321300Y146500D02*Y133800D01*
X319100Y143600D02*Y135000D01*
X313000Y146900D02*Y136100D01*
X311300Y147200D02*Y137400D01*
X323100Y132200D02*X316700Y125800D01*
X321300Y133800D02*X315500Y128000D01*
X319100Y135000D02*X313900Y129800D01*
X313000Y136100D02*X308400Y131500D01*
X311300Y137400D02*X307700Y133800D01*
X309600Y138900D02*X306600Y135900D01*
X307800Y140600D02*X305600Y138400D01*
X312561Y104461D02*X312600Y104500D01*
X312554Y98554D02*X312600Y98600D01*
X287692Y96585D02*X312785D01*
X287692Y98554D02*X312554D01*
X287692Y102492D02*X298192D01*
X298700Y103000D01*
X312600D01*
X287692Y104461D02*X312339D01*
X312450Y104350D01*
X312785Y96585D02*X313100Y96900D01*
X287692Y94616D02*X312484D01*
X287692Y92647D02*X312553D01*
X287692Y88709D02*X298691D01*
X312484Y94616D02*X312600Y94500D01*
X312553Y92647D02*X312700Y92500D01*
X312260Y86740D02*X312500Y86500D01*
X287692Y86740D02*X312140D01*
X312200Y86800D01*
X298691Y88709D02*X299300Y88100D01*
X311700D01*
X261708Y86739D02*X256639D01*
X261708Y90677D02*X256877D01*
X256639Y86739D02*X256500Y86600D01*
X261708Y100522D02*X256378D01*
X256100Y100800D01*
X261708Y102491D02*X257609D01*
X256900Y103200D01*
X261708Y106429D02*X258571D01*
X257900Y107100D01*
X258100Y102491D02*X257509D01*
X256100Y103900D01*
X257500Y107500D02*X258000Y107000D01*
X256877Y90677D02*X256800Y90600D01*
X256854Y92646D02*X256400Y93100D01*
X257000Y92646D02*X256854D01*
X257100Y90677D02*X251625D01*
X251048Y90100D01*
X256854Y92646D02*X256100Y93400D01*
X251474D01*
X251074Y93800D01*
X261708Y92646D02*X256854D01*
X261708Y94615D02*X256885D01*
X256600Y94900D01*
X256815Y94615D02*X256785D01*
X254700Y96700D01*
X251674D01*
X251174Y97200D01*
X256900Y100522D02*X251552D01*
X251274Y100800D01*
X256100Y103900D02*X252074D01*
X251374Y104600D01*
X263870Y108592D02*Y111570D01*
X264100Y111800D01*
X267808Y108592D02*Y111508D01*
X264000Y116200D02*Y111630D01*
X263870Y111500D01*
X267808Y111508D02*X268300Y112000D01*
X268200Y118500D02*Y111592D01*
X267808Y111200D01*
X269777Y108592D02*Y111177D01*
X270000Y111400D01*
X271746Y108592D02*Y111446D01*
X270200Y111023D02*X269777Y110600D01*
X271746Y111446D02*X272200Y111900D01*
X273715Y108592D02*Y111515D01*
X274100Y111900D01*
X274000Y116400D02*Y111800D01*
X273950Y111750D01*
X272200Y111454D02*X271746Y111000D01*
X272200Y117100D02*Y111454D01*
X270200Y117500D02*Y111023D01*
X264200Y119600D02*X257500Y112900D01*
Y107500D01*
X264100Y119500D02*X263600Y119000D01*
X261200Y120200D02*X254500Y113500D01*
X253900D01*
X317500Y123400D02*X280900D01*
X316700Y125800D02*X280100D01*
X315500Y128000D02*X278300D01*
X313900Y129800D02*X277600D01*
X308400Y131500D02*X275500D01*
X307700Y133800D02*X274500D01*
X306600Y135900D02*X273200D01*
X275000Y133800D02*X274500D01*
X305600Y138400D02*X272500D01*
X305300Y140300D02*X271300D01*
X303900Y141600D02*X269900D01*
X299800Y142800D02*X268600D01*
X275500Y131500D02*X266500Y122500D01*
X273200Y135900D02*X260000Y122700D01*
X274500Y133800D02*X264100Y123400D01*
X272500Y138400D02*X255900Y121800D01*
X271300Y140300D02*X252100Y121100D01*
X271150Y123350D02*Y121450D01*
X261200Y123900D02*Y120200D01*
X256550Y122450D02*Y120350D01*
X253900Y122900D02*Y121500D01*
X251400Y123100D02*Y122100D01*
X280900Y123400D02*X278600Y121100D01*
X280100Y125800D02*X275800Y121500D01*
X278300Y128000D02*X272900Y122600D01*
X277600Y129800D02*X270500Y122700D01*
X279400Y121900D02*Y121800D01*
X276850Y122550D02*Y121750D01*
X279400Y121800D02*X274000Y116400D01*
X276850Y121750D02*X272200Y117100D01*
X273550Y120850D02*X270200Y117500D01*
X271150Y121450D02*X268200Y118500D01*
X267250Y123250D02*Y119450D01*
X264000Y116200D01*
X273550Y123250D02*Y120850D01*
X264100Y123400D02*Y119500D01*
X235200Y251300D02*Y244537D01*
X235201Y244536D01*
X237200Y253200D02*Y244566D01*
X237170Y244536D01*
X239200Y254200D02*Y244597D01*
X241000Y244644D02*X241108Y244536D01*
Y241108D01*
X239800Y239800D01*
X245046Y244536D02*Y241154D01*
X245300Y240900D01*
Y236800D01*
X245000Y236500D01*
Y233100D01*
G54D13*Y237200D01*
X245300Y237500D01*
G54D12*X239200Y244597D02*X239139Y244536D01*
X217500Y244556D02*X217480Y244536D01*
X217500Y255000D02*Y244556D01*
X215500Y253000D02*Y244547D01*
X215511Y244536D01*
X229294D02*Y240994D01*
X228000Y239700D01*
X247000Y250600D02*Y244551D01*
X247015Y244536D01*
X249100Y252500D02*Y244652D01*
X248984Y244536D01*
X252900Y252400D02*Y244558D01*
X252922Y244536D01*
X254800Y254700D02*Y244627D01*
X254891Y244536D01*
X258700Y254900D02*Y244665D01*
X258829Y244536D01*
X260750Y256850D02*Y244584D01*
X260798Y244536D01*
X198100Y185100D02*X180200D01*
X206464Y184294D02*X217594D01*
X217600Y184300D01*
G54D13*X211306D01*
X211300Y184294D01*
G54D12*X181100Y182200D02*X206339D01*
X206464Y182325D01*
Y180356D02*X198456D01*
X194900Y176800D01*
X181600D01*
X219450Y161465D02*Y155350D01*
X217000Y152900D01*
X221500Y153800D02*Y161384D01*
X221419Y161465D01*
X217900Y150200D02*X221500Y153800D01*
X225357Y161465D02*Y152157D01*
X239140Y161465D02*Y145540D01*
X225357Y152157D02*X220400Y147200D01*
X227326Y151426D02*X219300Y143400D01*
X229295Y150495D02*X217800Y139000D01*
X231264Y149164D02*X217000Y134900D01*
X227326Y161465D02*Y151426D01*
X229295Y161465D02*Y150495D01*
X231264Y161465D02*Y149164D01*
X233349Y161349D02*Y148149D01*
X235202Y161465D02*Y146902D01*
X237171Y161465D02*Y166671D01*
X237200Y166700D01*
X233300Y161398D02*X233233Y161465D01*
X241109D02*Y144654D01*
X250954Y145854D02*X240700Y135600D01*
X252923Y145223D02*X242700Y135000D01*
X254892Y144392D02*X244600Y134100D01*
X246800Y136300D02*Y136100D01*
X244300Y136600D02*X244100D01*
X256861Y143461D02*X246500Y133100D01*
X249600Y133200D02*Y133100D01*
X247150Y133750D02*X247050D01*
X262768Y146368D02*X248600Y132200D01*
X269900Y141600D02*X249900Y121600D01*
X268600Y142800D02*X246300Y120500D01*
X250954Y161465D02*Y145854D01*
X252923Y161465D02*Y145223D01*
X254892Y161465D02*Y144392D01*
X256861Y161465D02*Y143461D01*
X247016Y161465D02*Y165016D01*
X248700Y166700D01*
X262768Y161465D02*Y146368D01*
X274582Y161465D02*Y166582D01*
X274600Y166600D01*
X243078Y161465D02*Y165222D01*
X242800Y165500D01*
Y168300D01*
X243400Y168900D01*
Y172800D01*
X243300Y172900D01*
G54D13*Y168800D01*
X242850Y168350D01*
G54D12*X249600Y133100D02*X239300Y122800D01*
X247050Y133750D02*X234800Y121500D01*
X246800Y136100D02*X231000Y120300D01*
X244100Y136600D02*X224000Y116500D01*
X239300Y122800D02*Y111600D01*
X238200Y110500D01*
X234800Y121500D02*Y107500D01*
X234100Y106800D01*
X231000Y120300D02*Y102400D01*
X230800Y102200D01*
X224000Y116500D02*Y95000D01*
X224400Y94600D01*
X253900Y113500D02*X248100Y107700D01*
X256550Y120350D02*X245700Y109500D01*
X253900Y121500D02*X243200Y110800D01*
X251400Y122100D02*X241400Y112100D01*
X248100Y107700D02*Y104726D01*
X248226Y104600D01*
X245700Y109500D02*Y103226D01*
Y101500D02*Y103800D01*
X243200Y110800D02*Y102026D01*
X241400Y112100D02*Y100326D01*
Y98100D02*Y101500D01*
X248126Y100800D02*X246400D01*
X245700Y101500D01*
X248026Y97200D02*X245500D01*
X247926Y93800D02*X245700D01*
X245500Y97200D02*X243200Y99500D01*
X245700Y93800D02*X241400Y98100D01*
X243200Y99500D02*Y102300D01*
G54D13*X274840Y289453D02*X274194Y288806D01*
G54D14*X282551Y291422D02*X276809D01*
X282551Y289453D02*X274840D01*
X280500Y290400D02*X275787D01*
X277500Y291400D02*X277800Y291100D01*
X276809Y291422D02*X272787Y287400D01*
X274840Y289453D02*X272787Y287400D01*
X275787Y290400D02*X272787Y287400D01*
X273400Y291400D02*X277500D01*
X274200Y288500D02*X274000Y288300D01*
X278400Y288500D02*X274200D01*
X278200Y292300D02*X274200D01*
G54D12*X282108Y294408D02*X282100Y294400D01*
X276000Y302600D02*X274000Y300600D01*
Y292300D01*
G54D14*X285108Y293980D02*Y300008D01*
X285600Y300500D01*
X287077Y293980D02*Y300477D01*
G54D12*X289046Y293980D02*Y299346D01*
X289800Y300100D01*
X285108Y294408D02*X282108D01*
G54D14*X296922Y293980D02*Y300022D01*
X298891Y293980D02*Y300009D01*
X298500Y300400D01*
G54D12*X294953Y293980D02*Y299347D01*
X294200Y300100D01*
G54D14*X296922Y300022D02*X297000Y300100D01*
G54D12*X291015Y293980D02*Y296215D01*
X292000Y297200D01*
X292984Y296216D02*X292000Y297200D01*
X292984Y293980D02*Y296216D01*
G54D14*X281500Y321400D02*Y318400D01*
X283600Y320900D02*Y318300D01*
X283400Y318100D01*
X285700Y321100D02*Y317900D01*
X287800Y321100D02*Y317900D01*
X289100Y315400D02*X292100D01*
X292400Y315100D01*
X289000Y313100D02*X292400D01*
X292500Y313000D02*X292200Y313300D01*
X292400Y313100D02*X292500Y313000D01*
X295300D02*X292500D01*
X295300Y311000D02*X292600D01*
X292300Y311300D01*
X288900Y311000D02*X292100D01*
X292200Y310900D01*
X289100Y310600D02*Y308100D01*
X289300Y307900D01*
X295600Y310900D02*Y307900D01*
X286900Y310600D02*Y307900D01*
X287200Y307600D01*
X284400Y310400D02*Y308200D01*
X284800Y307800D01*
X295200Y315300D02*X292600D01*
X292500Y315400D01*
X289900Y320500D02*Y318800D01*
X289700Y318600D01*
X289000Y317400D02*X291900D01*
X292000Y317500D01*
X303200Y321100D02*Y318300D01*
X303600Y317900D01*
X301100Y321100D02*Y317800D01*
X298700Y321100D02*Y318600D01*
X299300Y318000D01*
X296700Y321100D02*Y318200D01*
X296900Y318000D01*
X294800D02*Y321100D01*
X294700Y321200D01*
X295100Y317200D02*X292700D01*
X299900Y310600D02*Y307800D01*
X299500Y307400D01*
X297600Y310600D02*Y307800D01*
X297500Y307700D01*
G54D12*X308226Y302774D02*X310200Y300800D01*
Y292400D01*
X296923Y279019D02*Y276377D01*
X292985Y279019D02*Y269989D01*
X293500Y269474D01*
Y266326D02*X296174D01*
X296300Y266200D01*
X296923Y276377D02*X298400Y274900D01*
G54D13*X309011Y289454D02*X311382Y287082D01*
G54D14*X307042Y291423D02*X311532Y286932D01*
X309011Y289454D02*X311932Y286532D01*
X307965Y290500D02*X310432Y288032D01*
X301449Y291423D02*X307042D01*
X301449Y289454D02*X309011D01*
X303500Y290500D02*X307965D01*
X306300Y291400D02*X306200Y291300D01*
X305400Y292400D02*X309800D01*
X309900Y292300D01*
G54D12*X301449Y285516D02*X303284D01*
X301449Y287485D02*X303515D01*
X304700Y286300D01*
G54D14*X310700Y291400D02*X306300D01*
X305200Y288600D02*X310500D01*
G54D12*X304700Y286300D02*X306200D01*
X303284Y285516D02*X305000Y283800D01*
X322900Y275400D02*X307200D01*
X301449Y281578D02*Y276151D01*
X304000Y273600D01*
X306200Y286300D02*X307200Y285300D01*
Y270674D01*
X307300Y270574D01*
X304000Y273600D02*Y268500D01*
X305000Y267500D01*
X307226D01*
X307300Y267426D01*
X279600Y268400D02*X278800Y267600D01*
X276674D01*
X276500Y267426D01*
X271600D01*
X271374Y267200D01*
X268226D02*X265700D01*
X265600Y267300D01*
X260900Y275400D02*X276800D01*
X282551Y287484D02*X280384D01*
X279400Y286500D01*
X278100D01*
X276900Y285300D01*
X282551Y285515D02*X280915D01*
X282551Y276551D02*X279600Y273600D01*
X276900Y277000D02*Y270974D01*
X276500Y270574D01*
X276800Y275400D02*X276900Y275500D01*
X279600Y273600D02*Y268400D01*
X276900Y285300D02*Y276800D01*
X282551Y281577D02*Y276551D01*
X280915Y285515D02*X279100Y283700D01*
X287078Y270437D02*X286400Y269759D01*
Y272400D02*X285600Y273200D01*
X287300Y272400D02*Y270659D01*
X286470Y269829D01*
X286400Y264641D02*X283041D01*
X282900Y264500D01*
X291300Y273300D02*X290400Y272400D01*
X286400D01*
X294954Y279019D02*Y274846D01*
X295200Y274600D01*
X291016Y279019D02*Y277084D01*
X291300Y276800D01*
X289047Y279019D02*Y275047D01*
X288800Y274800D01*
X291300Y276800D02*Y273300D01*
X287078Y279019D02*Y276578D01*
X285600Y275100D01*
Y273200D02*Y275100D01*
X274974Y259400D02*Y256726D01*
X271826Y259400D02*Y254752D01*
X271774Y254700D01*
X271826Y259374D02*X271526D01*
X270600Y260300D01*
X274974Y256726D02*X275200Y256500D01*
X278100Y252600D02*X280300Y254800D01*
Y257100D02*X280500Y257300D01*
X280650Y257450D02*Y259650D01*
X281600Y260600D01*
X268626Y254700D02*Y245026D01*
X268600Y245000D01*
X270600Y245100D02*Y249200D01*
X274000Y252600D01*
X262800Y244700D02*Y249400D01*
X263000Y249600D01*
X264700Y244700D02*Y247800D01*
X265200Y248300D01*
Y250900D01*
X263100Y253000D01*
X265300Y255000D02*Y256100D01*
Y253800D02*Y255200D01*
Y256100D02*X263800Y257600D01*
X270600Y260300D02*X261200D01*
X266700Y245100D02*Y252400D01*
X265300Y253800D01*
G54D14*X320500Y310300D02*Y308000D01*
X321100Y307400D01*
X322900Y310000D02*Y307600D01*
X325000Y310000D02*Y307700D01*
X325300Y307400D01*
X322900Y307600D02*X323400Y307100D01*
X327000Y310200D02*Y307100D01*
X327100Y310800D02*X330400D01*
X330500Y310700D01*
X330200Y312600D02*X330500Y312900D01*
X326900Y312600D02*X330200D01*
X326900Y314500D02*X329800D01*
X330200Y314900D01*
X326700Y316900D02*X330000D01*
X330200Y316700D01*
X333200Y295100D02*X330800D01*
X330700Y295000D01*
X329500Y294500D02*X327400D01*
Y292700D02*X327000Y293100D01*
X329800Y305800D02*X333000D01*
X333300Y305500D01*
X333700Y311700D02*Y307600D01*
X335900Y307300D02*X336100Y307100D01*
X330200Y307600D02*X333700D01*
X333900Y307800D01*
X333700Y307600D02*X333800Y307500D01*
X335900Y310800D02*Y307300D01*
X338100Y310400D02*Y307600D01*
X338600Y307100D01*
X340500Y310400D02*Y307400D01*
X340900Y307000D01*
X344400Y295100D02*X341800D01*
X341700Y295000D01*
G54D15*X354000Y292000D02*X350500D01*
X354000Y290000D02*X350500D01*
X354000Y288000D02*X350500D01*
X354000Y287000D02*Y283000D01*
X356000Y287000D02*Y283500D01*
X358000Y287000D02*Y283000D01*
X360000Y287000D02*Y283000D01*
Y288000D02*X363500D01*
X359500Y290000D02*X364000D01*
X360000Y292000D02*X364000D01*
X354000Y305000D02*X350000D01*
X354000Y307000D02*X350500D01*
X354000Y309000D02*X350500D01*
X354000Y310000D02*Y314500D01*
X356000Y310000D02*Y313500D01*
X358000Y310000D02*Y313500D01*
X360000Y310000D02*Y313500D01*
Y309000D02*X363500D01*
X360000Y307000D02*X363500D01*
X360000Y305000D02*X363500D01*
G54D14*X335700Y292900D02*Y286800D01*
X337700Y292900D02*Y286700D01*
X338000Y286400D01*
X335700Y286800D02*X335600Y286700D01*
X344000Y292900D02*X341800D01*
X339700Y292800D02*Y286700D01*
X339800Y286600D01*
X341900Y292500D02*Y286200D01*
X341800Y292900D02*X341700Y292800D01*
X344500Y286900D02*X342200D01*
X344600Y284600D02*X342100D01*
X342000Y284700D01*
X333400Y292800D02*Y286500D01*
X333100Y292400D02*X330800D01*
X330700Y292500D01*
X333400Y286500D02*X333500Y286400D01*
X333200Y287000D02*X331000D01*
X330800Y287200D01*
X333100Y284400D02*X330800D01*
X330500Y284700D01*
X330200Y284300D02*X327200D01*
X327100Y284400D01*
X329900Y286300D02*X326700D01*
X326600Y286400D01*
G54D12*X325339Y287300D02*Y277839D01*
X322900Y275400D01*
G54D14*X330000Y288300D02*X327600D01*
X327400Y288500D01*
X329800Y290800D02*X327300D01*
X329500Y292700D02*X327400D01*
G54D12*X307200Y267500D02*X311326D01*
X311526Y267300D01*
X314674D02*X317300D01*
G54D14*X321000Y263700D02*X318400D01*
X318000Y264100D01*
X320800Y262000D02*X318500D01*
X318200Y261700D01*
X320500Y259900D02*X317900D01*
X320900Y257600D02*X318300D01*
X317800Y258100D01*
X320800Y255300D02*X318500D01*
X318200Y255600D01*
X338900Y266800D02*X335900D01*
X335600Y266500D01*
X339000Y264500D02*X336200D01*
X336000Y264700D01*
X338500Y262500D02*X335800D01*
X335700Y262400D01*
X338300Y260800D02*X335300D01*
X338300Y258500D02*X335600D01*
X335300Y258800D01*
X341700Y275700D02*Y272600D01*
X341600Y272500D01*
X339900Y275200D02*Y272400D01*
X339700Y272200D01*
X337600Y275100D02*Y272700D01*
X338100Y272200D01*
X335700Y275000D02*Y272500D01*
X333400Y275200D02*Y273200D01*
X333900Y272700D01*
X335700Y272500D02*X335900Y272300D01*
G54D12*X178300Y143500D02*X167600Y132800D01*
X179000Y139000D02*X168600Y128600D01*
X179900Y134900D02*X169600Y124600D01*
X179900Y134900D02*X177700Y132700D01*
X185100Y123700D02*X183350Y121950D01*
X179000Y139000D02*X178700Y138700D01*
X178200Y143400D02*X176300Y141500D01*
X169600Y148900D02*X164100Y143400D01*
G54D13*X167674Y162526D02*X167600Y162600D01*
X167674Y159200D02*Y162526D01*
G54D12*X198100Y96100D02*X196400D01*
X195800Y95500D01*
X198100Y92300D02*X196400D01*
X195700Y91600D01*
G54D13*X164400Y96400D02*X162100D01*
G54D12*X161971Y96171D02*X162200Y96400D01*
G54D13*X162100D02*X162000Y96500D01*
G54D12*X156987Y96171D02*X161971D01*
X166100Y136500D02*X152500D01*
X152000Y140300D02*X165300D01*
X164100Y143400D02*X151100D01*
X167600Y132800D02*X153200D01*
X150200Y129800D01*
X168600Y128600D02*X155000D01*
X152300Y125900D01*
X169600Y124600D02*X155700D01*
X154300Y123200D01*
G54D13*X164100Y117600D02*X161700D01*
G54D12*X156987Y117830D02*X161270D01*
X161600Y117500D01*
G54D13*X161700Y117600D02*X161600Y117500D01*
G54D12*X152500Y136500D02*X148400Y132400D01*
X146453Y134753D02*X152000Y140300D01*
X151100Y143400D02*X144500Y136800D01*
X143100Y137800D02*X150100Y144800D01*
X146453Y120287D02*Y134753D01*
X148400Y132400D02*Y120309D01*
X150200Y129800D02*Y120478D01*
X148400Y120309D02*X148422Y120287D01*
X150200Y120478D02*X150391Y120287D01*
X152300Y125900D02*Y120347D01*
X152360Y120287D01*
X154300Y123200D02*Y120516D01*
X154329Y120487D01*
X156787Y115861D02*X159739D01*
X161300Y114300D01*
X164400D01*
X160900Y112300D02*X159300Y113900D01*
X156795D01*
X156787Y113892D01*
X143600Y152300D02*X144100Y151800D01*
X143600Y153600D02*Y152300D01*
X142516Y154684D02*X143600Y153600D01*
X142516Y156713D02*Y154684D01*
X137100Y149600D02*X136500Y149000D01*
X138578Y150622D02*X140200Y149000D01*
X137300Y149800D02*X136500Y149000D01*
X138500Y140600D02*X148200Y150300D01*
X140100Y139500D02*X149000Y148400D01*
X141600Y138700D02*X149500Y146600D01*
X138578Y156713D02*Y150622D01*
X140547Y152053D02*X140700Y151900D01*
X140547Y156713D02*Y152053D01*
X136609Y156713D02*Y154391D01*
X137300Y153700D01*
Y149800D01*
X138500Y135900D02*Y140600D01*
X144500Y136800D02*Y120303D01*
X144484Y120287D01*
X143100Y124000D02*Y137800D01*
X140600Y120341D02*X140546Y120287D01*
X134639D02*Y127839D01*
X136608Y120287D02*Y127108D01*
X138577Y120287D02*Y123177D01*
X140900Y125500D01*
X140480Y122280D02*X141200Y123000D01*
X140480Y120220D02*Y122280D01*
X143100Y124000D02*X142100Y123000D01*
X141200D01*
X136608Y127108D02*X141600Y132100D01*
G54D13*X125100Y128148D02*Y130800D01*
X125000Y130900D01*
Y128400D02*X125100Y128500D01*
G54D12*X140100Y133300D02*Y139500D01*
X141600Y132100D02*Y138700D01*
G54D13*X131900Y131374D02*X134974D01*
X135100Y131500D01*
G54D12*X136500Y133900D02*X138500Y135900D01*
X134639Y127839D02*X140100Y133300D01*
G54D13*X131800Y131626D02*X131900Y131726D01*
G54D12*X125300Y125400D02*X125000Y125700D01*
G54D13*X125100Y125000D02*Y122700D01*
G54D12*X128200Y121300D02*X126100D01*
X125100Y122300D01*
X132670Y127830D02*X131800Y128700D01*
G54D13*X131900Y128226D02*Y125800D01*
X132000Y125700D01*
G54D12*X132670Y120487D02*Y125030D01*
X132000Y125700D01*
X130013Y117829D02*Y119487D01*
X128200Y121300D01*
X130013Y96170D02*X128270D01*
X124800Y92700D01*
X241109Y144654D02*X161723Y65268D01*
X239140Y145540D02*X161500Y67900D01*
X201248Y96100D02*X203700D01*
X201248Y92300D02*X203700D01*
X163299Y66799D02*X165600Y69100D01*
X233349Y148149D02*X213300Y128100D01*
X235202Y146902D02*X212000Y123700D01*
X219300Y143400D02*X178200D01*
X213300Y128100D02*X180400D01*
X212000Y123700D02*X185100D01*
X183850Y122450D02*X170900Y109500D01*
G54D13*X179200Y67448D02*Y69800D01*
X179100Y69900D01*
G54D12*X161900Y73300D02*X164800Y76200D01*
X217000Y152900D02*X173500D01*
X175200Y150200D02*X217900D01*
X216100Y154900D02*X200300D01*
X198174Y157026D01*
Y157100D01*
X220400Y147200D02*X176800D01*
X217800Y139000D02*X179000D01*
X217000Y134900D02*X179900D01*
X165300Y140300D02*X175200Y150200D01*
X169600Y149000D02*Y148900D01*
X173500Y152900D02*X169600Y149000D01*
X176800Y147200D02*X166100Y136500D01*
G54D13*X173174Y67100D02*Y69674D01*
X167548Y96400D02*Y99552D01*
X167500Y99600D01*
X167248Y117600D02*Y114652D01*
X167300Y114600D01*
G54D12*X164400Y114300D02*X167200Y111500D01*
X162200Y112300D02*X160900D01*
X167200Y111500D02*X168600D01*
X171500Y114400D01*
Y119200D01*
X180400Y128100D01*
X178200Y125900D01*
X170900Y109500D02*X165900D01*
X163100Y112300D01*
X161800D01*
X265840Y82608D02*Y78440D01*
X264200Y76800D01*
X263871Y82608D02*Y79071D01*
X262500Y77700D01*
X261708Y84770D02*X256670D01*
X256600Y84700D01*
X251074Y86300D02*X256361D01*
X256800Y86739D01*
X217481Y161465D02*X217500Y161446D01*
X213543Y161465D02*X213508Y161500D01*
X215512Y161465D02*X215500Y161477D01*
X217500Y161446D02*Y156300D01*
X216100Y154900D01*
X215500Y161477D02*Y164800D01*
X214700Y165600D01*
X213508Y161500D02*X201100D01*
X200300Y162300D01*
X198174D01*
X214700Y165600D02*X199700D01*
X198174Y167126D01*
Y167400D01*
X195026D02*X192600D01*
X259900Y149526D02*Y147100D01*
X258830Y161465D02*X258800Y161435D01*
Y154500D01*
X259900Y153400D01*
Y152674D01*
X266626Y161385D02*Y152500D01*
X268675Y161465D02*X269000Y161790D01*
Y166400D01*
X266706Y161465D02*X266626Y161385D01*
X278520Y161465D02*X278500Y161445D01*
X269774Y152500D02*X272100D01*
X274400Y155300D02*Y149400D01*
X274574Y149226D01*
Y146800D01*
X276551Y161465D02*X276500Y161414D01*
Y157400D01*
X274400Y155300D01*
X278500Y161445D02*Y156700D01*
G54D13*X171074Y33126D02*X171100Y33100D01*
G54D12*X170700Y39400D02*X173326D01*
X168460Y41640D02*X170700Y39400D01*
X171365Y43609D02*X171574Y43400D01*
G54D13*X168100Y33126D02*X171074D01*
G54D12*X161723Y33477D02*X170600Y24600D01*
X161723Y41640D02*X168460D01*
X161723Y43609D02*X171365D01*
X161723Y35733D02*Y33477D01*
G54D13*X168100Y38700D02*Y36274D01*
G54D12*X161723Y39671D02*X167229D01*
X168100Y38800D01*
G54D13*X170026Y47200D02*X167600D01*
X167500Y47100D01*
G54D12*X165978Y45578D02*X167500Y47100D01*
X161723Y45578D02*X165978D01*
G54D13*X269600Y43700D02*X271800D01*
X272300Y43200D01*
X282774Y43300D02*X284800D01*
X285000Y43500D01*
G54D12*X275500Y43252D02*X275448Y43200D01*
X279800Y43474D02*X279626Y43300D01*
X275324Y43076D02*Y40224D01*
X279626Y43300D02*Y40274D01*
G54D13*X185448Y46648D02*X185500Y46700D01*
X182574Y46648D02*X185448D01*
G54D12*X181000Y41926D02*X182574Y43500D01*
X181000Y39400D02*Y41926D01*
X181026Y39400D02*X181126Y39500D01*
X176474Y39400D02*X181026D01*
G54D13*X177100Y43400D02*X177300Y43600D01*
X174722Y43400D02*X177100D01*
X175500Y47200D02*X175800Y47500D01*
X173174Y47200D02*X175500D01*
X194700Y33600D02*X190400D01*
G54D12*X194500Y23400D02*X194700Y23600D01*
X194650Y23550D02*X194600Y23600D01*
X186748Y26852D02*Y28100D01*
X183600D02*X183700Y28200D01*
Y31700D01*
X184274Y32274D01*
Y39500D01*
X180400Y22000D02*Y15600D01*
X180500Y15500D01*
X170600Y24600D02*X183800D01*
X183900Y24500D01*
G54D13*X229589Y29454D02*X229615Y29428D01*
X229589Y32228D02*Y29454D01*
X51600Y38500D02*X51500Y38400D01*
X51600Y41052D02*Y38500D01*
X41400Y40926D02*Y38500D01*
X41200Y38300D01*
X58400Y44100D02*X62800Y48500D01*
X52100Y44100D02*X58400D01*
X48000D02*X52200D01*
X62700Y48400D02*X62500Y48200D01*
X62774Y48474D02*X61800Y47500D01*
X44752Y44000D02*X44852Y44100D01*
X40400Y44000D02*X44752D01*
X40374D02*X40400Y43974D01*
X28526Y43800D02*X15200D01*
X15100Y43900D01*
X31674Y43800D02*X41126D01*
X41300Y43974D01*
X79900Y36252D02*X80000Y36152D01*
X76900Y36252D02*X79900D01*
G54D12*X85900Y36226D02*Y33700D01*
G54D13*X76900Y39400D02*X80000D01*
G54D12*X149000Y75000D02*X148300Y75700D01*
X149000Y72300D02*Y75000D01*
X151200Y72300D02*Y73600D01*
X151700Y76400D02*X151200Y76900D01*
X152500Y76400D02*X151700D01*
X153800Y75100D02*X152500Y76400D01*
X153800Y72600D02*Y75100D01*
X151291Y70091D02*X153800Y72600D01*
X147353Y70653D02*X149000Y72300D01*
X149322Y70422D02*X151200Y72300D01*
X149322Y67823D02*Y70422D01*
X151291Y67823D02*Y70091D01*
X147353Y67823D02*Y70653D01*
X145384Y72284D02*X146500Y73400D01*
X148300Y75700D02*X147600D01*
X146500Y76800D01*
X140200Y85300D02*Y78700D01*
X140547Y93713D02*Y88953D01*
X140600Y88900D01*
X142516Y93713D02*Y91184D01*
X143500Y90200D01*
Y89300D01*
X144000Y88800D01*
X136600Y90500D02*Y93704D01*
X136609Y93713D01*
X138500Y93635D02*X138578Y93713D01*
X136600Y90600D02*Y90300D01*
X138578Y93713D02*Y90778D01*
X136600Y90300D02*X137100Y89800D01*
X138578Y91600D02*Y86922D01*
X137100Y89800D02*Y85500D01*
X138200Y84400D01*
Y80100D01*
X137600Y79500D01*
X138578Y86922D02*X140200Y85300D01*
Y78700D02*X138200Y76700D01*
Y72200D01*
X139400Y71000D01*
X141000Y76000D02*Y72500D01*
X141400Y72100D01*
X136600Y71500D02*Y75600D01*
X136000Y76200D01*
X134600D01*
X134000Y76800D01*
X134100Y71300D02*Y73600D01*
X129632Y71323D02*Y76568D01*
X129400Y76800D01*
G54D13*X157074Y82600D02*Y79774D01*
G54D12*X158900Y72300D02*Y74100D01*
X161000Y76200D01*
G54D13*X157000Y79326D02*X156926Y79400D01*
G54D12*X155229Y67823D02*Y69329D01*
X157198Y67823D02*Y69498D01*
X158900Y72300D02*X157800Y71200D01*
X158600Y70000D02*X162000Y73400D01*
X157800Y71200D02*X157100D01*
X155200Y69300D01*
X157198Y69498D02*X157700Y70000D01*
X158600D01*
G54D13*X132000Y82800D02*X135200D01*
X135400Y82600D01*
X124800Y86900D02*Y84000D01*
X131600Y86348D02*X132000Y85948D01*
X124800Y90048D02*Y92600D01*
X131600Y88900D02*Y86348D01*
G54D12*X132671Y93513D02*Y89871D01*
X131600Y88800D01*
G54D13*X105400Y100626D02*Y98100D01*
X105300Y98000D01*
X99137Y103837D02*X81600Y86300D01*
X81700Y107100D02*X81889Y106911D01*
X105374Y103800D02*X105400Y103774D01*
X109926Y104000D02*X105700D01*
X105500Y103800D01*
X118826Y107900D02*X116074D01*
G54D12*X113174Y103900D02*X113074Y104000D01*
G54D13*X109800Y100300D02*X105900D01*
G54D12*X120292Y100108D02*X120000Y100400D01*
X113048D01*
X112948Y100300D01*
G54D13*X105900D02*X105400Y100800D01*
X109800Y100300D02*Y97200D01*
X109700Y97100D01*
X120326Y96800D02*Y93826D01*
X120300Y93800D01*
X105600Y112226D02*Y109600D01*
X105500Y109500D01*
X108500Y112100D02*X105700D01*
X105600Y112200D01*
X109926Y115200D02*X105774D01*
X105574Y115400D02*X105774Y115200D01*
X109926Y111400D02*X109200D01*
X108500Y112100D01*
X110000Y111400D02*Y108500D01*
X109800Y108300D01*
X105337Y103837D02*X99137D01*
G54D12*X130213Y111922D02*X123722D01*
X130213Y109953D02*X125953D01*
X125500Y109500D01*
X130213Y107984D02*X127684D01*
X127000Y107300D01*
X130213Y106015D02*X126615D01*
X125500Y104900D01*
X127000Y107300D02*X123600D01*
X123100Y107800D01*
X122074D01*
X121974Y107900D01*
X130213Y102077D02*X124623D01*
X122800Y103900D01*
X113174D01*
X130213Y100108D02*X120292D01*
X130213Y98139D02*X124813D01*
X134640Y93713D02*Y88960D01*
X134800Y88800D01*
X124813Y98139D02*X123474Y96800D01*
G54D13*X96774Y65426D02*X97000Y65200D01*
G54D12*X113326Y68800D02*X109374D01*
G54D13*X93800Y65426D02*X96774D01*
G54D12*X113326Y56000D02*X109374D01*
X106226D02*X101374D01*
X101226Y56148D01*
X96111D01*
X95859Y56400D01*
X90741D02*X86274D01*
X86126Y56548D01*
X159244Y67900D02*X159167Y67823D01*
X161500Y67900D02*X159244D01*
X137508Y67823D02*Y69692D01*
X139400Y67900D02*X139477Y67823D01*
X139400Y67900D02*X139700Y67600D01*
X141400Y67869D02*X141446Y67823D01*
X145384D02*Y70984D01*
Y70816D02*Y72284D01*
X124200Y65300D02*X127044D01*
X127077Y65267D01*
X126975Y63400D02*X127077Y63298D01*
X127048Y61300D02*X127077Y61329D01*
X127037Y59400D02*X127077Y59360D01*
X126969Y43500D02*X127077Y43608D01*
X139400Y71000D02*Y67900D01*
X141400Y72100D02*Y67869D01*
X135539Y67823D02*Y69661D01*
X137508Y69592D02*Y70592D01*
X136600Y71500D01*
X135539Y69561D02*Y69861D01*
X134100Y71300D01*
X161723Y61330D02*X165530D01*
X161723Y57392D02*X165192D01*
X165400Y57600D01*
X165530Y61330D02*X166300Y62100D01*
X170400D01*
X179200Y60059D02*Y64300D01*
G54D13*X174300Y57600D02*Y59900D01*
X174200Y60000D01*
G54D12*X170200Y53100D02*X171400Y54300D01*
G54D13*X173174Y50800D02*X175500D01*
G54D12*X171400Y54300D02*X174148D01*
X174300Y54452D01*
X174474Y54626D02*X178885D01*
X179200Y54941D01*
X170300Y57100D02*X170500Y57300D01*
X170400D02*X170450Y57250D01*
X170300Y57600D02*X170550Y57350D01*
X161723Y53454D02*X165046D01*
X165400Y53100D01*
X161723Y51485D02*X166815D01*
X161723Y55423D02*X167577D01*
G54D13*X170026Y50800D02*X167700D01*
X167600Y50700D01*
G54D12*X166815Y51485D02*X167600Y50700D01*
X165400Y53100D02*X169200D01*
X168900D02*X170200D01*
X167577Y55423D02*X167600Y55400D01*
G54D13*X121426Y118600D02*Y121074D01*
G54D12*X124574Y118600D02*X124700D01*
G54D13*X121426Y121074D02*X120800Y121700D01*
G54D12*X124700Y118600D02*X127300Y116000D01*
X130073D01*
X130213Y115860D01*
Y113891D02*X123509D01*
X122300Y115100D01*
G54D13*X95000Y115500D02*X105474D01*
X105600Y115374D01*
X125100Y122700D02*X124900Y122500D01*
G54D12*X122300Y115100D02*X113174D01*
X113074Y115200D01*
G54D13*X86448Y106948D02*X95000Y115500D01*
G54D12*X123722Y111922D02*X123100Y111300D01*
X113174D01*
X113074Y111400D01*
X74102Y133908D02*X136500Y133900D01*
G54D13*X71500Y138500D02*X68000D01*
X45500D02*X51000D01*
X90500D02*X93500D01*
X115500D02*X112000D01*
X64000Y142000D02*Y134500D01*
X53500Y142000D02*Y134500D01*
X15300Y107000D02*X33626D01*
X36774D02*X47400D01*
X47200Y100800D02*Y103452D01*
X47500Y103752D01*
X47400Y107000D02*X47500Y106900D01*
X52026D01*
X55174D02*X59674D01*
X59800Y106774D01*
X59700Y100600D02*Y103526D01*
X59800Y103626D01*
X69200Y100800D02*Y103426D01*
X69400Y103626D01*
X81600Y101000D02*Y103474D01*
X81926Y103800D01*
X81678Y106700D02*X81926Y106948D01*
X86448D01*
X57800Y106900D02*X72841D01*
X78159Y107100D02*X81700D01*
X72841Y106900D02*X73041Y107100D01*
X125700Y21800D02*X128474D01*
X128500Y21826D01*
X122526Y25726D02*X122600Y25800D01*
X119800Y25726D02*X122526D01*
X128400Y25074D02*X128500Y24974D01*
X113900Y25900D02*X109543D01*
X119800Y31800D02*Y28874D01*
G54D12*X127077Y33177D02*X123200Y29300D01*
X125901Y37701D02*X122400Y34200D01*
G54D13*X132800Y21526D02*X132900Y21626D01*
X132887Y21613D02*X135787D01*
X136300Y21100D01*
G54D12*X131602Y33177D02*Y27598D01*
X129633Y33177D02*Y29233D01*
X127600Y27200D01*
G54D13*X128400Y27300D02*Y25074D01*
G54D12*X127077Y35732D02*Y33177D01*
Y37701D02*X125901D01*
X131602Y27598D02*X132000Y27200D01*
G54D13*X132900Y24774D02*Y26300D01*
X132000Y27200D01*
X97900Y25600D02*X97800Y25700D01*
G54D12*X101400Y36626D02*Y34000D01*
X101200Y33800D01*
G54D13*X102157Y25600D02*X97900D01*
X109543Y25900D02*X109243Y25600D01*
G54D12*X113326Y39700D02*X109400D01*
X120308Y43608D02*X119800Y43100D01*
X116500Y45400D02*X115200Y44100D01*
X121400Y45400D02*X116500D01*
X121577Y45577D02*X121400Y45400D01*
X116674Y39900D02*X116474Y39700D01*
X121300Y39900D02*X116674D01*
X123039Y41639D02*X121300Y39900D01*
X123570Y39670D02*X121100Y37200D01*
X177300Y20100D02*X159800D01*
X157100Y17400D01*
X151200D01*
X149300Y19300D01*
Y24300D01*
G54D13*X155574Y21700D02*X155600Y21726D01*
X152900Y21700D02*X155574D01*
X155700Y27400D02*Y24974D01*
X155600Y24874D01*
G54D12*X155230Y27670D02*X155700Y27200D01*
X149300Y23600D02*Y33154D01*
X149323Y33177D01*
X155230D02*Y27670D01*
X159168Y33177D02*Y31432D01*
X163600Y27000D01*
X157199Y30301D02*X159400Y28100D01*
Y27200D01*
X159800Y26800D01*
X157199Y33177D02*Y30301D01*
G54D13*X146548Y21400D02*X146600Y21452D01*
X146726Y27300D02*Y24726D01*
X146600Y24600D01*
X146700Y18900D02*Y21400D01*
X146624Y21476D01*
G54D12*X145200Y29026D02*X146726Y27500D01*
X140800Y26000D02*X142200Y24600D01*
X139400Y21700D02*X139900Y21200D01*
X139550Y25050D02*X143000Y21600D01*
Y20400D01*
X143600Y19800D01*
X142200Y24600D02*X142800D01*
X143400Y24000D01*
X138200Y27300D02*Y22900D01*
X139900Y21200D01*
X141447Y33177D02*Y31353D01*
X143300Y29500D01*
X139478Y33177D02*Y30522D01*
X143416Y33177D02*Y31584D01*
X145200Y29800D01*
Y29026D01*
X143300Y29500D02*Y27300D01*
X143200Y27200D01*
X139478Y30522D02*X140800Y29200D01*
Y26000D01*
X139550Y27950D02*Y25050D01*
X137509Y33177D02*Y29991D01*
X139400Y28100D01*
X139050Y28450D02*X139550Y27950D01*
X135540Y33177D02*Y29960D01*
X138200Y27300D01*
X133571Y29229D02*X136000Y26800D01*
Y24300D01*
X136500Y23800D01*
X133571Y33177D02*Y29229D01*
X122300Y61300D02*X127048D01*
G54D13*X123426Y73900D02*Y71026D01*
X123400Y71000D01*
G54D12*X120700Y68800D02*X124200Y65300D01*
X116474Y68800D02*X120700D01*
X121200Y60200D02*X122300Y61300D01*
X124000Y59400D02*X127037D01*
X127077Y45577D02*X121577D01*
X127077Y47546D02*X121854D01*
X121000Y48400D01*
X127077Y55422D02*X123222D01*
X121300Y53500D01*
X120600Y56000D02*X124000Y59400D01*
X116474Y56000D02*X120600D01*
G54D13*X118300Y51574D02*X115474D01*
X115400Y51500D01*
G54D12*X121100Y48400D02*X118326D01*
X118300Y48426D01*
G54D13*X121200Y48400D02*X118500D01*
G54D12*X127077Y41639D02*X123039D01*
X127077Y39670D02*X123970D01*
X127077Y43608D02*X120308D01*
X124000Y39670D02*X123570D01*
X106252Y39700D02*X101474D01*
X101400Y39774D01*
X96133D01*
X95859Y39500D01*
X90741D02*X86026D01*
X85900Y39374D01*
Y42200D01*
X85800Y42300D01*
X101226Y53000D02*Y50326D01*
X101200Y50300D01*
G54D13*X81550Y86250D02*X67750D01*
X62800Y81300D01*
Y65126D01*
Y65626D02*X62774Y65600D01*
X59626D02*X57000D01*
X56800Y65400D01*
X59626Y52900D02*X56700D01*
X80252Y56552D02*X80300Y56600D01*
G54D12*X86126Y53400D02*Y50826D01*
X86100Y50800D01*
G54D13*X76900Y53400D02*X79900D01*
X76900Y56552D02*X80052D01*
X62774Y53100D02*Y48474D01*
Y53200D02*Y56526D01*
X62600Y56700D01*
X62800Y65626D02*Y62018D01*
X62600Y61818D01*
G54D16*X387500Y327500D03*
G54D17*X400315Y297717D03*
Y262283D03*
G54D18*X408189Y280000D03*
G54D19*X396378D03*
G54D20*X372756D03*
G54D21*X372000Y98000D03*
G54D22*X385000Y106000D03*
G54D23*X397000Y98000D03*
G54D21*X362000Y93000D03*
G54D24*X343000Y97000D03*
G54D21*X372000Y88000D03*
X362000Y83000D03*
Y73000D03*
Y63000D03*
X372000Y78000D03*
Y68000D03*
Y58000D03*
G54D22*X385000Y45000D03*
G54D23*X397000Y53000D03*
G54D16*X387500Y12500D03*
G54D21*X362000Y53000D03*
G54D24*X343000Y54000D03*
Y64000D03*
Y87000D03*
G54D25*X239600Y29700D03*
Y39700D03*
G54D11*G36*
X361555Y223494D02*Y217951D01*
X367098D01*
Y223494D01*
X361555D01*
G37*
G54D26*X372200Y220722D03*
X364326Y212848D03*
X372200D03*
Y204974D03*
Y197100D03*
Y189226D03*
X364326Y204974D03*
Y197100D03*
Y189226D03*
Y181352D03*
Y173478D03*
X372200Y181352D03*
Y173478D03*
G54D25*X405800Y153000D03*
X395800D03*
X405800Y163000D03*
X395800D03*
X405800Y173000D03*
X395800D03*
X405800Y183000D03*
X395800D03*
Y193000D03*
Y203000D03*
Y213000D03*
Y223000D03*
X405800Y193000D03*
Y203000D03*
Y213000D03*
Y223000D03*
G54D16*X32500Y12500D03*
Y327500D03*
G54D27*X1900Y44000D02*X18000D01*
G54D28*X7000Y27250D02*X13000D01*
X7000Y60750D02*X13000D01*
G54D29*X28526Y44193D02*Y43407D01*
X31674Y44193D02*Y43407D01*
G54D30*X10000Y10000D03*
G54D27*X1900Y107000D02*X18000D01*
G54D28*X7000Y90250D02*X13000D01*
X7000Y123750D02*X13000D01*
X7000Y153250D02*X13000D01*
G54D31*X31508Y154941D02*X32492D01*
G54D29*X44852Y44493D02*Y43707D01*
X40907Y40826D02*X41693D01*
X40907Y43974D02*X41693D01*
X48000Y44493D02*Y43707D01*
X51107Y40952D02*X51893D01*
X51107Y44100D02*X51893D01*
X85507Y36226D02*X86293D01*
X85507Y39374D02*X86293D01*
G54D31*X90741Y39992D02*Y39008D01*
G54D29*X76507Y36252D02*X77293D01*
X76507Y39400D02*X77293D01*
X85733Y53400D02*X86519D01*
X85733Y56548D02*X86519D01*
X77926Y78493D02*Y77707D01*
X81074Y78493D02*Y77707D01*
G54D31*X84441Y75492D02*Y74508D01*
X90741Y56892D02*Y55908D01*
X89559Y75492D02*Y74508D01*
G54D29*X76607Y56548D02*X77393D01*
X76607Y53400D02*X77393D01*
G54D31*X62108Y56700D02*X63092D01*
X62108Y61818D02*X63092D01*
G54D29*X59626Y53493D02*Y52707D01*
X62774Y53493D02*Y52707D01*
X59626Y65993D02*Y65207D01*
X62774Y65993D02*Y65207D01*
X52026Y107293D02*Y106507D01*
X55174Y107293D02*Y106507D01*
X59407Y103626D02*X60193D01*
X59407Y106774D02*X60193D01*
G54D32*X49504Y138500D02*X67496D01*
G54D29*X47107Y103752D02*X47893D01*
X47107Y106900D02*X47893D01*
X33626Y107393D02*Y106607D01*
X36774Y107393D02*Y106607D01*
X81533Y103800D02*X82319D01*
X81533Y106948D02*X82319D01*
X69007Y103626D02*X69793D01*
X69007Y106774D02*X69793D01*
G54D31*X73041Y107592D02*Y106608D01*
X78159Y107592D02*Y106608D01*
G54D27*X1900Y170000D02*X18000D01*
G54D29*X25107Y169926D02*X25893D01*
X25107Y173074D02*X25893D01*
X25107Y176926D02*X25893D01*
X25107Y180074D02*X25893D01*
G54D28*X7000Y186750D02*X13000D01*
G54D33*X51800Y172500D02*X53700D01*
X59300D02*X61200D01*
X51800Y169900D02*X53700D01*
X59300D02*X61200D01*
G54D29*X38926Y186393D02*Y185607D01*
X42074Y186393D02*Y185607D01*
G54D27*X1900Y296000D02*X18000D01*
G54D28*X7000Y279250D02*X13000D01*
G54D31*X31008Y281941D02*X31992D01*
X31008Y287059D02*X31992D01*
G54D29*X46426Y287393D02*Y286607D01*
X49574Y287393D02*Y286607D01*
G54D33*X51800Y175100D02*X53700D01*
X59300D02*X61200D01*
G54D32*X49504Y201500D02*X67496D01*
X49504Y264500D02*X67496D01*
G54D29*X46426Y224393D02*Y223607D01*
X49574Y224393D02*Y223607D01*
X25607Y239926D02*X26393D01*
X25607Y243074D02*X26393D01*
X38926Y249393D02*Y248607D01*
X42074Y249393D02*Y248607D01*
X25607Y232926D02*X26393D01*
G54D31*X31508Y218941D02*X32492D01*
X31508Y224059D02*X32492D01*
G54D29*X25607Y236074D02*X26393D01*
G54D27*X1900Y233000D02*X18000D01*
G54D28*X7000Y216250D02*X13000D01*
X7000Y249750D02*X13000D01*
G54D29*X24607Y302926D02*X25393D01*
X24607Y306074D02*X25393D01*
X24607Y295926D02*X25393D01*
X24607Y299074D02*X25393D01*
X38926Y312393D02*Y311607D01*
X42074Y312393D02*Y311607D01*
G54D28*X7000Y312750D02*X13000D01*
G54D30*X10000Y330000D03*
G54D29*X74107Y281352D02*X74893D01*
X74107Y284500D02*X74893D01*
X69807Y281252D02*X70593D01*
X69807Y284400D02*X70593D01*
X88026Y281793D02*Y281007D01*
X80607Y287926D02*X81393D01*
X80607Y291074D02*X81393D01*
X84007Y282426D02*X84793D01*
X84007Y285574D02*X84793D01*
X83074Y296893D02*Y296107D01*
X59674Y290493D02*Y289707D01*
X56526Y290493D02*Y289707D01*
G54D33*X59300Y295900D02*X61200D01*
G54D29*X81107Y300726D02*X81893D01*
X81107Y303874D02*X81893D01*
X84033Y312496D02*X84819D01*
X84033Y309348D02*X84819D01*
X79926Y296893D02*Y296107D01*
X73607Y305074D02*X74393D01*
X73607Y301926D02*X74393D01*
X72926Y298393D02*Y297607D01*
X76074Y298393D02*Y297607D01*
X69574Y301393D02*Y300607D01*
X66426Y301393D02*Y300607D01*
X60607Y305426D02*X61393D01*
G54D33*X59300Y298500D02*X61200D01*
X59300Y301100D02*X61200D01*
G54D29*X60607Y308574D02*X61393D01*
X61426Y312393D02*Y311607D01*
X64574Y312393D02*Y311607D01*
X61426Y316393D02*Y315607D01*
X64574Y316393D02*Y315607D01*
X42426Y296393D02*Y295607D01*
X45574Y296393D02*Y295607D01*
X31426Y296393D02*Y295607D01*
X34574Y296393D02*Y295607D01*
X38107Y292926D02*X38893D01*
X38107Y296074D02*X38893D01*
G54D33*X51800Y301100D02*X53700D01*
X51800Y298500D02*X53700D01*
X51800Y295900D02*X53700D01*
G54D34*X110000Y224000D03*
G54D32*X94004Y264500D02*X111996D01*
G54D34*X110700Y287400D03*
G54D29*X38107Y166626D02*X38893D01*
X38107Y169774D02*X38893D01*
X42326Y170293D02*Y169507D01*
X45474Y170293D02*Y169507D01*
X31726Y170293D02*Y169507D01*
X34874Y170293D02*Y169507D01*
G54D31*X31508Y160059D02*X32492D01*
G54D29*X46426Y160393D02*Y159607D01*
X49574Y160393D02*Y159607D01*
X66426Y175593D02*Y174807D01*
X60507Y179726D02*X61293D01*
X69574Y175593D02*Y174807D01*
X61426Y190493D02*Y189707D01*
X64574Y190493D02*Y189707D01*
X61226Y186893D02*Y186107D01*
X64374Y186893D02*Y186107D01*
X60507Y182874D02*X61293D01*
X59674Y164493D02*Y163707D01*
X56526Y164493D02*Y163707D01*
X113307Y160874D02*X114093D01*
X118326Y163793D02*Y163007D01*
X121474Y163793D02*Y163007D01*
G54D34*X110000Y161000D03*
G54D29*X113307Y157726D02*X114093D01*
X111307Y150226D02*X112093D01*
X111307Y153374D02*X112093D01*
X111674Y147393D02*Y146607D01*
G54D35*X106933Y164093D02*X109491D01*
X106933Y166062D02*X109491D01*
X106933Y168031D02*X109491D01*
X106933Y170000D02*X109491D01*
X106933Y171969D02*X109491D01*
X106933Y173938D02*X109491D01*
X106933Y175907D02*X109491D01*
G54D29*X103807Y150026D02*X104593D01*
X103807Y153174D02*X104593D01*
X108526Y147393D02*Y146607D01*
X91174Y155693D02*Y154907D01*
X90507Y146226D02*X91293D01*
X90507Y149374D02*X91293D01*
X94326Y144293D02*Y143507D01*
X97474Y144293D02*Y143507D01*
X98274Y152593D02*Y151807D01*
X95126Y152593D02*Y151807D01*
Y148793D02*Y148007D01*
X98274Y148793D02*Y148007D01*
X100807Y142926D02*X101593D01*
X100807Y146074D02*X101593D01*
G54D32*X94004Y138500D02*X111996D01*
G54D29*X80407Y161826D02*X81193D01*
X84107Y156226D02*X84893D01*
X84107Y159374D02*X84893D01*
X80407Y164974D02*X81193D01*
X80226Y170693D02*Y169907D01*
X83374Y170693D02*Y169907D01*
X74007Y155126D02*X74793D01*
X69807D02*X70593D01*
X69807Y158274D02*X70593D01*
X74007D02*X74793D01*
X72826Y173093D02*Y172307D01*
X75974Y173093D02*Y172307D01*
X73307Y179874D02*X74093D01*
X73307Y176726D02*X74093D01*
G54D35*X88508Y175907D02*X91066D01*
X88508Y173938D02*X91066D01*
X88508Y171969D02*X91066D01*
X88508Y170000D02*X91066D01*
X88508Y168031D02*X91066D01*
X88508Y166062D02*X91066D01*
X88508Y164093D02*X91066D01*
X93093Y162067D02*Y159509D01*
X95062Y162067D02*Y159509D01*
X97031Y162067D02*Y159509D01*
X99000Y162067D02*Y159509D01*
X129131Y117829D02*X130895D01*
X129131Y115860D02*X131295D01*
X129131Y113891D02*X131295D01*
X129131Y111922D02*X131295D01*
X129131Y109953D02*X131295D01*
X129131Y107984D02*X131295D01*
X129131Y106015D02*X131295D01*
X129131Y104046D02*X131295D01*
G54D29*X124707Y128148D02*X125493D01*
X124707Y125000D02*X125493D01*
X131507Y131374D02*X132293D01*
X131507Y128226D02*X132293D01*
G54D35*X129131Y102077D02*X131295D01*
X129131Y100108D02*X131295D01*
X129131Y98139D02*X131295D01*
X129131Y96170D02*X130895D01*
X132671Y94395D02*Y92631D01*
G54D29*X131607Y82800D02*X132393D01*
X131607Y85948D02*X132393D01*
G54D35*X134640Y94795D02*Y92631D01*
X136609Y94795D02*Y92631D01*
X138578Y94795D02*Y92631D01*
X140547Y94795D02*Y92631D01*
G54D29*X120326Y97193D02*Y96407D01*
X123474Y97193D02*Y96407D01*
X124407Y86900D02*X125193D01*
X124407Y90048D02*X125193D01*
G54D35*X154329Y121369D02*Y119605D01*
X152360Y121369D02*Y119205D01*
X150391Y121369D02*Y119205D01*
X148422Y121369D02*Y119205D01*
X146453Y121369D02*Y119205D01*
X144484Y121369D02*Y119205D01*
X142515Y121369D02*Y119205D01*
X140546Y121369D02*Y119205D01*
X138577Y121369D02*Y119205D01*
X136608Y121369D02*Y119205D01*
X134639Y121369D02*Y119205D01*
X132670Y121369D02*Y119605D01*
X142516Y94795D02*Y92631D01*
X144485Y94795D02*Y92631D01*
X146454Y94795D02*Y92631D01*
X148423Y94795D02*Y92631D01*
X150392Y94795D02*Y92631D01*
X152361Y94795D02*Y92631D01*
X154330Y94395D02*Y92631D01*
G54D11*G36*
X132870Y117630D02*Y96370D01*
X154130D01*
Y117630D01*
X132870D01*
G37*
G36*
X135500Y115000D02*Y110400D01*
X140100D01*
Y115000D01*
X135500D01*
G37*
G36*
Y109300D02*Y104700D01*
X140100D01*
Y109300D01*
X135500D01*
G37*
G36*
X141200D02*Y104700D01*
X145800D01*
Y109300D01*
X141200D01*
G37*
G36*
Y115000D02*Y110400D01*
X145800D01*
Y115000D01*
X141200D01*
G37*
G36*
X146900D02*Y110400D01*
X151500D01*
Y115000D01*
X146900D01*
G37*
G36*
Y109300D02*Y104700D01*
X151500D01*
Y109300D01*
X146900D01*
G37*
G36*
X135500Y103600D02*Y99000D01*
X140100D01*
Y103600D01*
X135500D01*
G37*
G36*
X141200D02*Y99000D01*
X145800D01*
Y103600D01*
X141200D01*
G37*
G36*
X146900D02*Y99000D01*
X151500D01*
Y103600D01*
X146900D01*
G37*
G54D29*X152226Y88093D02*Y87307D01*
X105207Y112226D02*X105993D01*
X109926Y111793D02*Y111007D01*
X113074Y111793D02*Y111007D01*
X105207Y115374D02*X105993D01*
X109926Y115593D02*Y114807D01*
X113074Y115593D02*Y114807D01*
X105007Y100626D02*X105793D01*
X105007Y103774D02*X105793D01*
X109926Y104393D02*Y103607D01*
X113074Y104393D02*Y103607D01*
X109800Y100693D02*Y99907D01*
X112948Y100693D02*Y99907D01*
X118826Y108293D02*Y107507D01*
X121974Y108293D02*Y107507D01*
X121426Y118993D02*Y118207D01*
X124574Y118993D02*Y118207D01*
G54D35*X100969Y162067D02*Y159509D01*
X102938Y162067D02*Y159509D01*
X104907Y162067D02*Y159509D01*
Y180492D02*Y177934D01*
X102938Y180492D02*Y177934D01*
X100969Y180492D02*Y177934D01*
X99000Y180492D02*Y177934D01*
X97031Y180492D02*Y177934D01*
X95062Y180492D02*Y177934D01*
G54D32*X94004Y201500D02*X111996D01*
G54D29*X118326Y167593D02*Y166807D01*
X121474Y167593D02*Y166807D01*
X118426Y174993D02*Y174207D01*
X121574Y174993D02*Y174207D01*
G54D35*X129131Y169015D02*X131295D01*
X129131Y167046D02*X131295D01*
X129131Y165077D02*X131295D01*
X129131Y163108D02*X131295D01*
X129131Y161139D02*X131295D01*
X129131Y159170D02*X130895D01*
X132671Y157395D02*Y155631D01*
X134640Y157795D02*Y155631D01*
X136609Y157795D02*Y155631D01*
X138578Y157795D02*Y155631D01*
X140547Y157795D02*Y155631D01*
X142516Y157795D02*Y155631D01*
X144485Y157795D02*Y155631D01*
X146454Y157795D02*Y155631D01*
X148423Y157795D02*Y155631D01*
X150392Y157795D02*Y155631D01*
X152361Y157795D02*Y155631D01*
X154330Y157395D02*Y155631D01*
X129131Y180829D02*X130895D01*
X129131Y178860D02*X131295D01*
X129131Y176891D02*X131295D01*
X129131Y174922D02*X131295D01*
X129131Y172953D02*X131295D01*
X129131Y170984D02*X131295D01*
X144484Y184369D02*Y182205D01*
X142515Y184369D02*Y182205D01*
X140546Y184369D02*Y182205D01*
X138577Y184369D02*Y182205D01*
X136608Y184369D02*Y182205D01*
X134639Y184369D02*Y182205D01*
X132670Y184369D02*Y182605D01*
G54D11*G36*
X135500Y178000D02*Y173400D01*
X140100D01*
Y178000D01*
X135500D01*
G37*
G54D35*X154329Y184369D02*Y182605D01*
X152360Y184369D02*Y182205D01*
X150391Y184369D02*Y182205D01*
X148422Y184369D02*Y182205D01*
X146453Y184369D02*Y182205D01*
G54D11*G36*
X132870Y180630D02*Y159370D01*
X154130D01*
Y180630D01*
X132870D01*
G37*
G36*
X141200Y178000D02*Y173400D01*
X145800D01*
Y178000D01*
X141200D01*
G37*
G36*
X146900D02*Y173400D01*
X151500D01*
Y178000D01*
X146900D01*
G37*
G36*
X141200Y172300D02*Y167700D01*
X145800D01*
Y172300D01*
X141200D01*
G37*
G36*
X135500D02*Y167700D01*
X140100D01*
Y172300D01*
X135500D01*
G37*
G36*
Y166600D02*Y162000D01*
X140100D01*
Y166600D01*
X135500D01*
G37*
G36*
X146900Y172300D02*Y167700D01*
X151500D01*
Y172300D01*
X146900D01*
G37*
G36*
X141200Y166600D02*Y162000D01*
X145800D01*
Y166600D01*
X141200D01*
G37*
G36*
X146900D02*Y162000D01*
X151500D01*
Y166600D01*
X146900D01*
G37*
G54D36*X287258Y28300D02*X303006D01*
G54D37*X290457Y57393D02*Y56607D01*
X297543Y57393D02*Y56607D01*
G54D36*X253793Y28300D02*X269541D01*
G54D29*X272300Y43593D02*Y42807D01*
X275448Y43593D02*Y42807D01*
X282774Y43693D02*Y42907D01*
X279626Y43693D02*Y42907D01*
G54D31*X249859Y20092D02*Y19108D01*
G54D34*X257000Y61000D03*
X258000Y135000D03*
X264500Y142800D03*
X278200Y144700D03*
G54D31*X244741Y20092D02*Y19108D01*
G54D34*X248600Y151300D03*
G54D38*X245047Y163827D02*Y159103D01*
X247016Y163827D02*Y159103D01*
X248985Y163827D02*Y159103D01*
X250954Y163827D02*Y159103D01*
X252923Y163827D02*Y159103D01*
X254892Y163827D02*Y159103D01*
X256861Y163827D02*Y159103D01*
X258830Y163827D02*Y159103D01*
X260799Y163827D02*Y159103D01*
X262768Y163827D02*Y159103D01*
X264737Y163827D02*Y159103D01*
X266706Y163827D02*Y159103D01*
X268675Y163827D02*Y159103D01*
X270644Y163827D02*Y159103D01*
X272613Y163827D02*Y159103D01*
X274582Y163827D02*Y159103D01*
X276551Y163827D02*Y159103D01*
X278520Y163827D02*Y159103D01*
X280489Y163827D02*Y159103D01*
X282458Y163827D02*Y159103D01*
G54D29*X248226Y104993D02*Y104207D01*
X251374Y104993D02*Y104207D01*
X248126Y101193D02*Y100407D01*
X251274Y101193D02*Y100407D01*
X248026Y97593D02*Y96807D01*
X251174Y97593D02*Y96807D01*
X247926Y94193D02*Y93407D01*
X251074Y94193D02*Y93407D01*
X330100Y65793D02*Y65007D01*
X333248Y65793D02*Y65007D01*
X314800Y81393D02*Y80607D01*
X317948Y81393D02*Y80607D01*
X322700Y80993D02*Y80207D01*
X325848Y80993D02*Y80207D01*
X319126Y66193D02*Y65407D01*
X322274Y66193D02*Y65407D01*
X306126Y74293D02*Y73507D01*
G54D31*X301559Y64492D02*Y63508D01*
G54D29*X309274Y74293D02*Y73507D01*
X312926Y60893D02*Y60107D01*
X316074Y60893D02*Y60107D01*
X302052Y81093D02*Y80307D01*
X305200Y81093D02*Y80307D01*
X260226Y71493D02*Y70707D01*
X257078Y71493D02*Y70707D01*
X253422Y74693D02*Y73907D01*
X250274Y74693D02*Y73907D01*
X247900Y90493D02*Y89707D01*
X251048Y90493D02*Y89707D01*
X247926Y86693D02*Y85907D01*
X251074Y86693D02*Y85907D01*
X285574Y69893D02*Y69107D01*
G54D31*X296441Y64492D02*Y63508D01*
G54D38*X287003Y84771D02*X288381D01*
X287003Y86740D02*X288381D01*
X287003Y88709D02*X288381D01*
X287003Y90678D02*X288381D01*
X287003Y92647D02*X288381D01*
X287003Y94616D02*X288381D01*
X287003Y96585D02*X288381D01*
X287003Y98554D02*X288381D01*
X287003Y100523D02*X288381D01*
X287003Y102492D02*X288381D01*
X287003Y104461D02*X288381D01*
X285530Y83297D02*Y81919D01*
X261019Y104460D02*X262397D01*
X261019Y102491D02*X262397D01*
X261019Y100522D02*X262397D01*
X261019Y98553D02*X262397D01*
X261019Y96584D02*X262397D01*
X261019Y94615D02*X262397D01*
X261019Y92646D02*X262397D01*
X261019Y90677D02*X262397D01*
X261019Y88708D02*X262397D01*
G54D11*G36*
X264858Y105442D02*Y85758D01*
X284542D01*
Y105442D01*
X264858D01*
G37*
G54D38*X261019Y86739D02*X262397D01*
X261019Y84770D02*X262397D01*
X263871Y83297D02*Y81919D01*
X265840Y83297D02*Y81919D01*
X267809Y83297D02*Y81919D01*
G54D31*X275441Y74992D02*Y74008D01*
X280559Y74992D02*Y74008D01*
G54D29*X282426Y69893D02*Y69107D01*
G54D37*X272957Y64893D02*Y64107D01*
X280043Y64893D02*Y64107D01*
G54D38*X269778Y83297D02*Y81919D01*
X271747Y83297D02*Y81919D01*
X273716Y83297D02*Y81919D01*
X275685Y83297D02*Y81919D01*
X277654Y83297D02*Y81919D01*
X279623Y83297D02*Y81919D01*
X281592Y83297D02*Y81919D01*
X283561Y83297D02*Y81919D01*
G54D29*X234026Y92593D02*Y91807D01*
X237174Y92593D02*Y91807D01*
X225926Y112193D02*Y111407D01*
X229074Y112193D02*Y111407D01*
X198174Y162693D02*Y161907D01*
X195026Y162693D02*Y161907D01*
X198174Y157493D02*Y156707D01*
X195026Y157493D02*Y156707D01*
X201248Y96493D02*Y95707D01*
X198100Y96493D02*Y95707D01*
X201248Y92693D02*Y91907D01*
X198100Y92693D02*Y91907D01*
X190326Y88493D02*Y87707D01*
X193474Y88493D02*Y87707D01*
X195026Y167793D02*Y167007D01*
G54D38*X213543Y163827D02*Y159103D01*
X215512Y163827D02*Y159103D01*
X217481Y163827D02*Y159103D01*
X219450Y163827D02*Y159103D01*
X221419Y163827D02*Y159103D01*
X223388Y163827D02*Y159103D01*
X225357Y163827D02*Y159103D01*
X227326Y163827D02*Y159103D01*
X229295Y163827D02*Y159103D01*
X231264Y163827D02*Y159103D01*
X233233Y163827D02*Y159103D01*
X235202Y163827D02*Y159103D01*
X237171Y163827D02*Y159103D01*
X239140Y163827D02*Y159103D01*
X241109Y163827D02*Y159103D01*
X243078Y163827D02*Y159103D01*
G54D35*X156105Y96171D02*X157869D01*
X155705Y98140D02*X157869D01*
X155705Y100109D02*X157869D01*
X155705Y102078D02*X157869D01*
X155705Y104047D02*X157869D01*
X155705Y107985D02*X157869D01*
X155705Y109954D02*X157869D01*
X155705Y111923D02*X157869D01*
X155705Y113892D02*X157869D01*
X155705Y115861D02*X157869D01*
X156105Y117830D02*X157869D01*
G54D29*X167248Y117993D02*Y117207D01*
X164100Y117993D02*Y117207D01*
G54D35*X155705Y106016D02*X157869D01*
G54D29*X167548Y96793D02*Y96007D01*
X164400Y96793D02*Y96007D01*
G54D38*X143416Y33866D02*Y32488D01*
X145385Y33866D02*Y32488D01*
X147354Y33866D02*Y32488D01*
G54D29*X146207Y21452D02*X146993D01*
X146207Y24600D02*X146993D01*
G54D38*X149323Y33866D02*Y32488D01*
X151292Y33866D02*Y32488D01*
X153261Y33866D02*Y32488D01*
X155230Y33866D02*Y32488D01*
X157199Y33866D02*Y32488D01*
X159168Y33866D02*Y32488D01*
G54D29*X155374Y88093D02*Y87307D01*
X162026Y88093D02*Y87307D01*
X165174Y88093D02*Y87307D01*
G54D38*X159167Y68512D02*Y67134D01*
X157198Y68512D02*Y67134D01*
X155229Y68512D02*Y67134D01*
X153260Y68512D02*Y67134D01*
X151291Y68512D02*Y67134D01*
X149322Y68512D02*Y67134D01*
X147353Y68512D02*Y67134D01*
X145384Y68512D02*Y67134D01*
X143415Y68512D02*Y67134D01*
X141446Y68512D02*Y67134D01*
X139477Y68512D02*Y67134D01*
X137508Y68512D02*Y67134D01*
X135539Y68512D02*Y67134D01*
X133570Y68512D02*Y67134D01*
X131601Y68512D02*Y67134D01*
X129632Y68512D02*Y67134D01*
G54D11*G36*
X130227Y64673D02*Y36327D01*
X158573D01*
Y64673D01*
X130227D01*
G37*
G36*
X133600Y61300D02*Y55300D01*
X139600D01*
Y61300D01*
X133600D01*
G37*
G36*
Y53500D02*Y47500D01*
X139600D01*
Y53500D01*
X133600D01*
G37*
G36*
X141400D02*Y47500D01*
X147400D01*
Y53500D01*
X141400D01*
G37*
G36*
Y61300D02*Y55300D01*
X147400D01*
Y61300D01*
X141400D01*
G37*
G36*
X149200D02*Y55300D01*
X155200D01*
Y61300D01*
X149200D01*
G37*
G36*
Y53500D02*Y47500D01*
X155200D01*
Y53500D01*
X149200D01*
G37*
G36*
X133600Y45700D02*Y39700D01*
X139600D01*
Y45700D01*
X133600D01*
G37*
G36*
X141400D02*Y39700D01*
X147400D01*
Y45700D01*
X141400D01*
G37*
G36*
X149200D02*Y39700D01*
X155200D01*
Y45700D01*
X149200D01*
G37*
G54D29*X132507Y21626D02*X133293D01*
X128107Y21826D02*X128893D01*
X132507Y24774D02*X133293D01*
X128107Y24974D02*X128893D01*
G54D34*X136200Y24300D03*
X143600Y19800D03*
X143400Y24000D03*
X139900Y21200D03*
G54D30*X410000Y10000D03*
G54D38*X126388Y53453D02*X127766D01*
X126388Y51484D02*X127766D01*
X126388Y49515D02*X127766D01*
X126388Y47546D02*X127766D01*
X126388Y45577D02*X127766D01*
X126388Y43608D02*X127766D01*
X126388Y41639D02*X127766D01*
X126388Y39670D02*X127766D01*
X126388Y37701D02*X127766D01*
X126388Y35732D02*X127766D01*
X129633Y33866D02*Y32488D01*
X131602Y33866D02*Y32488D01*
X133571Y33866D02*Y32488D01*
X135540Y33866D02*Y32488D01*
X137509Y33866D02*Y32488D01*
X139478Y33866D02*Y32488D01*
X141447Y33866D02*Y32488D01*
G54D29*X167707Y33126D02*X168493D01*
X155207Y21726D02*X155993D01*
X155207Y24874D02*X155993D01*
G54D34*X163600Y27000D03*
X159800Y26800D03*
G54D29*X183600Y28493D02*Y27707D01*
X173174Y67193D02*Y66407D01*
X170026Y67193D02*Y66407D01*
X178807Y67448D02*X179593D01*
G54D31*X193941Y61992D02*Y61008D01*
X199059Y61992D02*Y61008D01*
G54D29*X178807Y64300D02*X179593D01*
G54D31*X178708Y60059D02*X179692D01*
X178708Y54941D02*X179692D01*
G54D29*X173907Y57600D02*X174693D01*
X173907Y54452D02*X174693D01*
X173174Y51193D02*Y50407D01*
X170026Y51193D02*Y50407D01*
X173174Y47593D02*Y46807D01*
X170026Y47593D02*Y46807D01*
X174722Y43793D02*Y43007D01*
X171574Y43793D02*Y43007D01*
X176474Y39793D02*Y39007D01*
X173326Y39793D02*Y39007D01*
X182181Y46648D02*X182967D01*
X182181Y43500D02*X182967D01*
X184274Y39893D02*Y39107D01*
X181126Y39893D02*Y39107D01*
G54D34*X191100Y49300D03*
X192900Y46800D03*
G54D31*X197441Y46492D02*Y45508D01*
X202559Y46492D02*Y45508D01*
G54D29*X167707Y36274D02*X168493D01*
G54D38*X161034Y35733D02*X162412D01*
X161034Y37702D02*X162412D01*
X161034Y39671D02*X162412D01*
X161034Y41640D02*X162412D01*
X161034Y43609D02*X162412D01*
X161034Y45578D02*X162412D01*
X161034Y47547D02*X162412D01*
X161034Y49516D02*X162412D01*
X161034Y51485D02*X162412D01*
X161034Y53454D02*X162412D01*
X161034Y55423D02*X162412D01*
X161034Y57392D02*X162412D01*
X161034Y59361D02*X162412D01*
X161034Y61330D02*X162412D01*
X161034Y63299D02*X162412D01*
X161034Y65268D02*X162412D01*
G54D29*X156607Y79674D02*X157393D01*
X156607Y76526D02*X157393D01*
G54D31*X185941Y82492D02*Y81508D01*
G54D29*X186626Y75893D02*Y75107D01*
X189774Y75893D02*Y75107D01*
G54D34*X161000Y76200D03*
X164800D03*
G54D29*X176426Y74993D02*Y74207D01*
X179574Y74993D02*Y74207D01*
X162726Y81593D02*Y80807D01*
X165874Y81593D02*Y80807D01*
G54D31*X191059Y82492D02*Y81508D01*
G54D29*X195526Y83393D02*Y82607D01*
X198674Y83393D02*Y82607D01*
G54D37*X203657Y77993D02*Y77207D01*
X210743Y77993D02*Y77207D01*
X218957Y75893D02*Y75107D01*
X226043Y75893D02*Y75107D01*
G54D29*X232026Y73093D02*Y72307D01*
X235174Y73093D02*Y72307D01*
X230526Y77893D02*Y77107D01*
X233674Y77893D02*Y77107D01*
X230800Y59193D02*Y58407D01*
X229426Y63893D02*Y63107D01*
X232574Y63893D02*Y63107D01*
X233948Y59193D02*Y58407D01*
X221526Y61893D02*Y61107D01*
X224674Y61893D02*Y61107D01*
X213426Y61393D02*Y60607D01*
X216574Y61393D02*Y60607D01*
X204426Y61393D02*Y60607D01*
X207574Y61393D02*Y60607D01*
X186748Y28493D02*Y27707D01*
G54D39*X194000Y33600D02*X195400D01*
X194000Y23600D02*X195400D01*
G54D31*X188441Y18492D02*Y17508D01*
X193559Y18492D02*Y17508D01*
G54D40*X211900Y37850D02*Y35750D01*
Y21450D02*Y19350D01*
G54D39*X218400Y33600D02*X219800D01*
G54D40*X206900Y37850D02*Y35750D01*
X201900Y37850D02*Y35750D01*
Y21450D02*Y19350D01*
X206900Y21450D02*Y19350D01*
G54D39*X218400Y23600D02*X219800D01*
G54D29*X229589Y32621D02*Y31835D01*
X226441Y32621D02*Y31835D01*
X231826Y21693D02*Y20907D01*
X230126Y25893D02*Y25107D01*
X234974Y21693D02*Y20907D01*
X233274Y25893D02*Y25107D01*
X123426Y74293D02*Y73507D01*
G54D34*X125000Y81000D03*
G54D29*X121974Y81793D02*Y81007D01*
X93426Y79393D02*Y78607D01*
X96574Y79393D02*Y78607D01*
G54D34*X118700Y72500D03*
G54D29*X118826Y81793D02*Y81007D01*
G54D37*X102157Y25993D02*Y25207D01*
X109243Y25993D02*Y25207D01*
G54D29*X119407Y25726D02*X120193D01*
X119407Y28874D02*X120193D01*
G54D34*X122400Y34200D03*
X123200Y29300D03*
G54D29*X109400Y40093D02*Y39307D01*
X106252Y40093D02*Y39307D01*
X116474Y40093D02*Y39307D01*
X113326Y40093D02*Y39307D01*
X101007Y36626D02*X101793D01*
X101007Y39774D02*X101793D01*
G54D34*X121100Y37200D03*
G54D31*X95859Y39992D02*Y39008D01*
G54D29*X93407Y65426D02*X94193D01*
X93407Y68574D02*X94193D01*
X117907Y51574D02*X118693D01*
X117907Y48426D02*X118693D01*
X116474Y56393D02*Y55607D01*
X113326Y56393D02*Y55607D01*
X109374Y56393D02*Y55607D01*
X106226Y56393D02*Y55607D01*
X100833Y53000D02*X101619D01*
X100833Y56148D02*X101619D01*
G54D31*X95859Y56892D02*Y55908D01*
G54D34*X114600Y60400D03*
X114900Y64100D03*
G54D29*X126574Y74293D02*Y73507D01*
X109374Y69193D02*Y68407D01*
X106226Y69193D02*Y68407D01*
X116474Y69193D02*Y68407D01*
X113326Y69193D02*Y68407D01*
G54D38*X126388Y65267D02*X127766D01*
X126388Y63298D02*X127766D01*
X126388Y61329D02*X127766D01*
X126388Y59360D02*X127766D01*
X126388Y57391D02*X127766D01*
X126388Y55422D02*X127766D01*
G54D29*X174826Y241393D02*Y240607D01*
X177974Y241393D02*Y240607D01*
X174826Y232793D02*Y232007D01*
X177974Y232793D02*Y232007D01*
X178526Y277193D02*Y276407D01*
X181674Y277193D02*Y276407D01*
X198174Y167793D02*Y167007D01*
X192626Y278893D02*Y278107D01*
X195774Y278893D02*Y278107D01*
X186426Y179893D02*Y179107D01*
X189574Y179893D02*Y179107D01*
X186926Y202893D02*Y202107D01*
X190074Y202893D02*Y202107D01*
G54D35*X156105Y159171D02*X157869D01*
X155705Y161140D02*X157869D01*
X155705Y163109D02*X157869D01*
X155705Y165078D02*X157869D01*
X155705Y167047D02*X157869D01*
X155705Y169016D02*X157869D01*
X155705Y170985D02*X157869D01*
X155705Y172954D02*X157869D01*
X155705Y174923D02*X157869D01*
X155705Y176892D02*X157869D01*
X155705Y178861D02*X157869D01*
X156105Y180830D02*X157869D01*
G54D38*X204102Y237457D02*X208826D01*
X204102Y235488D02*X208826D01*
X204102Y233519D02*X208826D01*
X204102Y231550D02*X208826D01*
X204102Y229581D02*X208826D01*
X204102Y227612D02*X208826D01*
X204102Y225643D02*X208826D01*
X204102Y223674D02*X208826D01*
X204102Y221705D02*X208826D01*
X204102Y219736D02*X208826D01*
X204102Y217767D02*X208826D01*
X204102Y215798D02*X208826D01*
X204102Y213829D02*X208826D01*
X204102Y211860D02*X208826D01*
X204102Y209891D02*X208826D01*
X204102Y207922D02*X208826D01*
X204102Y205953D02*X208826D01*
X204102Y203984D02*X208826D01*
X204102Y202015D02*X208826D01*
X204102Y200046D02*X208826D01*
X204102Y198077D02*X208826D01*
X204102Y196108D02*X208826D01*
X204102Y194139D02*X208826D01*
X204102Y192170D02*X208826D01*
X204102Y190201D02*X208826D01*
X204102Y188232D02*X208826D01*
X204102Y186263D02*X208826D01*
X204102Y184294D02*X208826D01*
X204102Y182325D02*X208826D01*
X204102Y180356D02*X208826D01*
X204102Y178387D02*X208826D01*
X204102Y176418D02*X208826D01*
X204102Y174449D02*X208826D01*
X204102Y172480D02*X208826D01*
X204102Y170511D02*X208826D01*
X204102Y168542D02*X208826D01*
G54D34*X282000Y271500D03*
X300500Y268500D03*
X266000Y282000D03*
X319500Y281500D03*
G54D38*X287173Y235489D02*X291897D01*
X287173Y237458D02*X291897D01*
X282457Y246898D02*Y242174D01*
X280488Y246898D02*Y242174D01*
X278519Y246898D02*Y242174D01*
X276550Y246898D02*Y242174D01*
X274581Y246898D02*Y242174D01*
X272612Y246898D02*Y242174D01*
X270643Y246898D02*Y242174D01*
X268674Y246898D02*Y242174D01*
X266705Y246898D02*Y242174D01*
X264736Y246898D02*Y242174D01*
X262767Y246898D02*Y242174D01*
X260798Y246898D02*Y242174D01*
X258829Y246898D02*Y242174D01*
X256860Y246898D02*Y242174D01*
X254891Y246898D02*Y242174D01*
X252922Y246898D02*Y242174D01*
X250953Y246898D02*Y242174D01*
X248984Y246898D02*Y242174D01*
X247015Y246898D02*Y242174D01*
X245046Y246898D02*Y242174D01*
X243077Y246898D02*Y242174D01*
X241108Y246898D02*Y242174D01*
X239139Y246898D02*Y242174D01*
X237170Y246898D02*Y242174D01*
X235201Y246898D02*Y242174D01*
X233232Y246898D02*Y242174D01*
X231263Y246898D02*Y242174D01*
X229294Y246898D02*Y242174D01*
X227325Y246898D02*Y242174D01*
X225356Y246898D02*Y242174D01*
X223387Y246898D02*Y242174D01*
X221418Y246898D02*Y242174D01*
X219449Y246898D02*Y242174D01*
X217480Y246898D02*Y242174D01*
X215511Y246898D02*Y242174D01*
X213542Y246898D02*Y242174D01*
X287173Y168543D02*X291897D01*
X287173Y170512D02*X291897D01*
X287173Y172481D02*X291897D01*
X287173Y174450D02*X291897D01*
X287173Y176419D02*X291897D01*
X287173Y178388D02*X291897D01*
X287173Y180357D02*X291897D01*
X287173Y182326D02*X291897D01*
X287173Y184295D02*X291897D01*
X287173Y186264D02*X291897D01*
X287173Y188233D02*X291897D01*
X287173Y190202D02*X291897D01*
X287173Y192171D02*X291897D01*
X287173Y194140D02*X291897D01*
X287173Y196109D02*X291897D01*
X287173Y198078D02*X291897D01*
X287173Y200047D02*X291897D01*
X287173Y202016D02*X291897D01*
X287173Y203985D02*X291897D01*
X287173Y205954D02*X291897D01*
X287173Y207923D02*X291897D01*
X287173Y209892D02*X291897D01*
X287173Y211861D02*X291897D01*
X287173Y213830D02*X291897D01*
X287173Y215799D02*X291897D01*
X287173Y217768D02*X291897D01*
X287173Y219737D02*X291897D01*
X287173Y221706D02*X291897D01*
X287173Y223675D02*X291897D01*
X287173Y225644D02*X291897D01*
X287173Y227613D02*X291897D01*
X287173Y229582D02*X291897D01*
X287173Y231551D02*X291897D01*
X287173Y233520D02*X291897D01*
G54D41*X332000Y180900D02*Y173700D01*
Y200300D02*Y193100D01*
X337000Y180900D02*Y173700D01*
Y200300D02*Y193100D01*
G54D29*X337474Y163193D02*Y162407D01*
X334326Y163193D02*Y162407D01*
G54D41*X342000Y180900D02*Y173700D01*
X347000Y180900D02*Y173700D01*
Y200300D02*Y193100D01*
X342000Y200300D02*Y193100D01*
G54D29*X314826Y235793D02*Y235007D01*
X317974Y235793D02*Y235007D01*
X314826Y228693D02*Y227907D01*
X317974Y228693D02*Y227907D01*
X339400Y220693D02*Y219907D01*
X342548Y220693D02*Y219907D01*
X339452Y240493D02*Y239707D01*
X342600Y240493D02*Y239707D01*
G54D31*X322841Y235692D02*Y234708D01*
X327959Y235692D02*Y234708D01*
X322841Y229292D02*Y228308D01*
X327959Y229292D02*Y228308D01*
G54D29*X297181Y171848D02*X297967D01*
X297181Y168700D02*X297967D01*
X131407Y208526D02*X132193D01*
X131407Y211674D02*X132193D01*
G54D35*X129131Y239891D02*X131295D01*
X129131Y237922D02*X131295D01*
X129131Y235953D02*X131295D01*
X129131Y233984D02*X131295D01*
X129131Y232015D02*X131295D01*
G54D11*G36*
X135500Y241000D02*Y236400D01*
X140100D01*
Y241000D01*
X135500D01*
G37*
G36*
X141200D02*Y236400D01*
X145800D01*
Y241000D01*
X141200D01*
G37*
G36*
X146900D02*Y236400D01*
X151500D01*
Y241000D01*
X146900D01*
G37*
G36*
X135500Y235300D02*Y230700D01*
X140100D01*
Y235300D01*
X135500D01*
G37*
G36*
X141200D02*Y230700D01*
X145800D01*
Y235300D01*
X141200D01*
G37*
G36*
X146900D02*Y230700D01*
X151500D01*
Y235300D01*
X146900D01*
G37*
G54D35*X129131Y230046D02*X131295D01*
X129131Y228077D02*X131295D01*
X129131Y226108D02*X131295D01*
X129131Y224139D02*X131295D01*
X129131Y222170D02*X130895D01*
G54D11*G36*
X135500Y229600D02*Y225000D01*
X140100D01*
Y229600D01*
X135500D01*
G37*
G36*
X141200D02*Y225000D01*
X145800D01*
Y229600D01*
X141200D01*
G37*
G36*
X146900D02*Y225000D01*
X151500D01*
Y229600D01*
X146900D01*
G37*
G54D35*X132671Y220395D02*Y218631D01*
X134640Y220795D02*Y218631D01*
X136609Y220795D02*Y218631D01*
X138578Y220795D02*Y218631D01*
X140547Y220795D02*Y218631D01*
X142516Y220795D02*Y218631D01*
X144485Y220795D02*Y218631D01*
X146454Y220795D02*Y218631D01*
X148423Y220795D02*Y218631D01*
X150392Y220795D02*Y218631D01*
X152361Y220795D02*Y218631D01*
X154330Y220395D02*Y218631D01*
X156105Y222171D02*X157869D01*
X155705Y224140D02*X157869D01*
X155705Y226109D02*X157869D01*
X155705Y228078D02*X157869D01*
X155705Y230047D02*X157869D01*
X155705Y232016D02*X157869D01*
X155705Y233985D02*X157869D01*
X155705Y235954D02*X157869D01*
X155705Y237923D02*X157869D01*
X155705Y239892D02*X157869D01*
G54D31*X296059Y151392D02*Y150408D01*
X290941Y151392D02*Y150408D01*
G54D29*X289874Y145493D02*Y144707D01*
X286726Y145493D02*Y144707D01*
X271426Y147193D02*Y146407D01*
X274574Y147193D02*Y146407D01*
X259507Y149526D02*X260293D01*
X259507Y152674D02*X260293D01*
X266626Y152893D02*Y152107D01*
X269774Y152893D02*Y152107D01*
X277926Y152893D02*Y152107D01*
X281074Y152893D02*Y152107D01*
X278326Y115093D02*Y114307D01*
X281474Y115093D02*Y114307D01*
G54D31*X360941Y116792D02*Y115808D01*
X366059Y116792D02*Y115808D01*
G54D29*X320552Y118593D02*Y117807D01*
X323700Y118593D02*Y117807D01*
X328052Y118093D02*Y117307D01*
X331200Y118093D02*Y117307D01*
X334652Y134793D02*Y134007D01*
X337800Y134793D02*Y134007D01*
X335326Y129893D02*Y129107D01*
X341626Y124393D02*Y123607D01*
X344774Y124393D02*Y123607D01*
X338726Y120093D02*Y119307D01*
X341874Y120093D02*Y119307D01*
X338474Y129893D02*Y129107D01*
X333626Y123993D02*Y123207D01*
X336774Y123993D02*Y123207D01*
X332952Y111593D02*Y110807D01*
X336100Y111593D02*Y110807D01*
X322900Y109293D02*Y108507D01*
X326048Y109293D02*Y108507D01*
X315026Y108793D02*Y108007D01*
X318174Y108793D02*Y108007D01*
X298526Y121093D02*Y120307D01*
X301674Y121093D02*Y120307D01*
G54D38*X287003Y106430D02*X288381D01*
X261019Y106429D02*X262397D01*
X285529Y109281D02*Y107903D01*
X283560Y109281D02*Y107903D01*
X281591Y109281D02*Y107903D01*
X279622Y109281D02*Y107903D01*
X277653Y109281D02*Y107903D01*
X275684Y109281D02*Y107903D01*
X273715Y109281D02*Y107903D01*
X271746Y109281D02*Y107903D01*
X269777Y109281D02*Y107903D01*
X267808Y109281D02*Y107903D01*
X265839Y109281D02*Y107903D01*
X263870Y109281D02*Y107903D01*
G54D37*X334645Y306005D02*X340155D01*
X334645Y294195D02*X340155D01*
G54D42*X319465Y314500D02*X323007D01*
G54D37*X334845Y285300D02*X340355D01*
G54D43*X356607Y307161D02*X357393D01*
X356607Y289838D02*X357393D01*
G54D36*X325487Y292221D02*Y282379D01*
X311313Y292221D02*Y282379D01*
G54D37*X322395Y262055D02*Y256545D01*
X334205Y262055D02*Y256545D01*
G54D29*X293107Y269474D02*X293893D01*
G54D31*X285908Y269759D02*X286892D01*
G54D29*X306907Y270574D02*X307693D01*
X306907Y267426D02*X307693D01*
X311526Y267693D02*Y266907D01*
X314674Y267693D02*Y266907D01*
G54D37*X334845Y273490D02*X340355D01*
G54D42*X298993Y314500D02*X302535D01*
G54D38*X298891Y294866D02*Y293094D01*
X300563Y289454D02*X302335D01*
X300563Y291423D02*X302335D01*
X296922Y294866D02*Y293094D01*
X294953Y294866D02*Y293094D01*
X300563Y281578D02*X302335D01*
X300563Y283547D02*X302335D01*
X300563Y285516D02*X302335D01*
X300563Y287485D02*X302335D01*
G54D11*G36*
X287050Y288650D02*Y284350D01*
X291350D01*
Y288650D01*
X287050D01*
G37*
G36*
X292650D02*Y284350D01*
X296950D01*
Y288650D01*
X292650D01*
G37*
G54D42*X261493Y314500D02*X265035D01*
X281965D02*X285507D01*
G54D37*X243145Y306005D02*X248655D01*
G54D36*X272787Y292321D02*Y282479D01*
X258613Y292321D02*Y282479D01*
G54D37*X243145Y294195D02*X248655D01*
G54D31*X222359Y318292D02*Y317308D01*
X217241Y318292D02*Y317308D01*
G54D37*X217095Y332755D02*Y327245D01*
G54D29*X230574Y318193D02*Y317407D01*
X227426Y318193D02*Y317407D01*
G54D37*X228905Y332755D02*Y327245D01*
X236595Y333755D02*Y328245D01*
X248405Y333755D02*Y328245D01*
G54D29*X293107Y266326D02*X293893D01*
G54D31*X285908Y264641D02*X286892D01*
G54D29*X217374Y263093D02*Y262307D01*
X214226Y263093D02*Y262307D01*
X214674Y266693D02*Y265907D01*
X211526Y266693D02*Y265907D01*
X268226Y267593D02*Y266807D01*
X268626Y255093D02*Y254307D01*
X271774Y255093D02*Y254307D01*
X274974Y259793D02*Y259007D01*
X271826Y259793D02*Y259007D01*
X271374Y267593D02*Y266807D01*
X276107Y267426D02*X276893D01*
X276107Y270574D02*X276893D01*
X289300Y255193D02*Y254407D01*
X292448Y255193D02*Y254407D01*
X280500Y257693D02*Y256907D01*
X283648Y257693D02*Y256907D01*
G54D38*X289047Y279905D02*Y278133D01*
X291016Y279905D02*Y278133D01*
X292985Y279905D02*Y278133D01*
X294954Y279905D02*Y278133D01*
X296923Y279905D02*Y278133D01*
X298892Y279905D02*Y278133D01*
X285109Y279905D02*Y278133D01*
X287078Y279905D02*Y278133D01*
X285108Y294866D02*Y293094D01*
X281665Y291422D02*X283437D01*
X281665Y289453D02*X283437D01*
X281665Y287484D02*X283437D01*
X281665Y285515D02*X283437D01*
X281665Y283546D02*X283437D01*
X281665Y281577D02*X283437D01*
X292984Y294866D02*Y293094D01*
X291015Y294866D02*Y293094D01*
X289046Y294866D02*Y293094D01*
X287077Y294866D02*Y293094D01*
G54D44*X290031Y286500D02*X293969D01*
G54D29*X221452Y257793D02*Y257007D01*
X224600Y257793D02*Y257007D01*
X227026Y252093D02*Y251307D01*
X230174Y252093D02*Y251307D01*
X208826Y252493D02*Y251707D01*
X211974Y252493D02*Y251707D01*
X186607Y215374D02*X187393D01*
X186607Y212226D02*X187393D01*
X192533Y215448D02*X193319D01*
X192533Y212300D02*X193319D01*
X171607Y216000D02*X172393D01*
X167574Y181093D02*Y180307D01*
X164426Y181093D02*Y180307D01*
X167674Y159593D02*Y158807D01*
X164526Y159593D02*Y158807D01*
X131607Y194374D02*X132393D01*
X131607Y191226D02*X132393D01*
X124807Y191126D02*X125593D01*
X124807Y187978D02*X125593D01*
X121326Y182293D02*Y181507D01*
X124474Y182293D02*Y181507D01*
X131807Y145826D02*X132593D01*
X131807Y148974D02*X132593D01*
X124607Y149926D02*X125393D01*
X124607Y153074D02*X125393D01*
X120326Y160193D02*Y159407D01*
X123474Y160193D02*Y159407D01*
X119226Y171293D02*Y170507D01*
X122374Y171293D02*Y170507D01*
G54D35*X129131Y243829D02*X130895D01*
X129131Y241860D02*X131295D01*
G54D29*X171607Y219148D02*X172393D01*
X167474Y222893D02*Y222107D01*
X164326Y222893D02*Y222107D01*
X179407Y217748D02*X180193D01*
X179407Y214600D02*X180193D01*
X167674Y243993D02*Y243207D01*
X164526Y243993D02*Y243207D01*
G54D35*X155705Y241861D02*X157869D01*
X156105Y243830D02*X157869D01*
X154329Y247369D02*Y245605D01*
X152360Y247369D02*Y245205D01*
X150391Y247369D02*Y245205D01*
X148422Y247369D02*Y245205D01*
X146453Y247369D02*Y245205D01*
X144484Y247369D02*Y245205D01*
X142515Y247369D02*Y245205D01*
X140546Y247369D02*Y245205D01*
X138577Y247369D02*Y245205D01*
G54D11*G36*
X132870Y243630D02*Y222370D01*
X154130D01*
Y243630D01*
X132870D01*
G37*
G54D35*X136608Y247369D02*Y245205D01*
X134639Y247369D02*Y245205D01*
X132670Y247369D02*Y245605D01*
G54D29*X118426Y241393D02*Y240607D01*
X118926Y234393D02*Y233607D01*
X121574Y241393D02*Y240607D01*
X121426Y245093D02*Y244307D01*
X122074Y234393D02*Y233607D01*
X129007Y256174D02*X129793D01*
X129007Y253026D02*X129793D01*
X124533Y253548D02*X125319D01*
X124533Y250400D02*X125319D01*
X124581Y212852D02*X125367D01*
X124581Y216000D02*X125367D01*
X124574Y245093D02*Y244307D01*
X123800Y223267D02*Y222481D01*
X121574Y230893D02*Y230107D01*
X118426Y237893D02*Y237107D01*
X121574Y237893D02*Y237107D01*
X118426Y227393D02*Y226607D01*
X121574Y227393D02*Y226607D01*
X118426Y230893D02*Y230107D01*
X120652Y223267D02*Y222481D01*
X120426Y286393D02*Y285607D01*
X123574Y286393D02*Y285607D01*
G54D35*X129131Y295015D02*X131295D01*
X129131Y293046D02*X131295D01*
X129131Y291077D02*X131295D01*
X156105Y285171D02*X157869D01*
X155705Y287140D02*X157869D01*
X155705Y289109D02*X157869D01*
X155705Y291078D02*X157869D01*
X155705Y293047D02*X157869D01*
X155705Y295016D02*X157869D01*
X155705Y296985D02*X157869D01*
X155705Y298954D02*X157869D01*
G54D29*X121626Y308093D02*Y307307D01*
X124774Y308093D02*Y307307D01*
G54D35*X129131Y306829D02*X130895D01*
X129131Y304860D02*X131295D01*
X129131Y302891D02*X131295D01*
X129131Y300922D02*X131295D01*
X129131Y298953D02*X131295D01*
X129131Y296984D02*X131295D01*
X129131Y289108D02*X131295D01*
X129131Y287139D02*X131295D01*
X129131Y285170D02*X130895D01*
X132671Y283395D02*Y281631D01*
X134640Y283795D02*Y281631D01*
X136609Y283795D02*Y281631D01*
X138578Y283795D02*Y281631D01*
X140547Y283795D02*Y281631D01*
X142516Y283795D02*Y281631D01*
X144485Y283795D02*Y281631D01*
X146454Y283795D02*Y281631D01*
X148423Y283795D02*Y281631D01*
X150392Y283795D02*Y281631D01*
X152361Y283795D02*Y281631D01*
X154330Y283395D02*Y281631D01*
X155705Y300923D02*X157869D01*
X155705Y302892D02*X157869D01*
X155705Y304861D02*X157869D01*
X156105Y306830D02*X157869D01*
X154329Y310369D02*Y308605D01*
X152360Y310369D02*Y308205D01*
X150391Y310369D02*Y308205D01*
X148422Y310369D02*Y308205D01*
X146453Y310369D02*Y308205D01*
G54D29*X124507Y276226D02*X125293D01*
X114507Y283878D02*X115293D01*
X111307Y277826D02*X112093D01*
X111307Y280974D02*X112093D01*
X108626Y273893D02*Y273107D01*
X111774Y273893D02*Y273107D01*
X167374Y307093D02*Y306307D01*
X164226Y307093D02*Y306307D01*
X167574Y285893D02*Y285107D01*
X164426Y285893D02*Y285107D01*
X124507Y279374D02*X125293D01*
X124807Y317174D02*X125593D01*
X124807Y314026D02*X125593D01*
X131807Y271726D02*X132593D01*
X131807Y274874D02*X132593D01*
X131607Y320574D02*X132393D01*
X131607Y317426D02*X132393D01*
G54D35*X132670Y310369D02*Y308605D01*
X144484Y310369D02*Y308205D01*
X142515Y310369D02*Y308205D01*
X140546Y310369D02*Y308205D01*
X138577Y310369D02*Y308205D01*
X136608Y310369D02*Y308205D01*
X134639Y310369D02*Y308205D01*
G54D11*G36*
X132870Y306630D02*Y285370D01*
X154130D01*
Y306630D01*
X132870D01*
G37*
G36*
X135500Y304000D02*Y299400D01*
X140100D01*
Y304000D01*
X135500D01*
G37*
G36*
Y298300D02*Y293700D01*
X140100D01*
Y298300D01*
X135500D01*
G37*
G36*
X141200D02*Y293700D01*
X145800D01*
Y298300D01*
X141200D01*
G37*
G36*
Y304000D02*Y299400D01*
X145800D01*
Y304000D01*
X141200D01*
G37*
G36*
X146900D02*Y299400D01*
X151500D01*
Y304000D01*
X146900D01*
G37*
G36*
Y298300D02*Y293700D01*
X151500D01*
Y298300D01*
X146900D01*
G37*
G36*
X135500Y292600D02*Y288000D01*
X140100D01*
Y292600D01*
X135500D01*
G37*
G36*
X141200D02*Y288000D01*
X145800D01*
Y292600D01*
X141200D01*
G37*
G36*
X146900D02*Y288000D01*
X151500D01*
Y292600D01*
X146900D01*
G37*
G54D29*X118426Y290393D02*Y289607D01*
X121574Y290393D02*Y289607D01*
X118426Y293893D02*Y293107D01*
X121574Y293893D02*Y293107D01*
X114507Y287026D02*X115293D01*
G54D35*X106933Y290093D02*X109491D01*
X106933Y292062D02*X109491D01*
X106933Y294031D02*X109491D01*
X106933Y296000D02*X109491D01*
G54D29*X118900Y297393D02*Y296607D01*
X122048Y297393D02*Y296607D01*
X118426Y300893D02*Y300107D01*
X121574Y300893D02*Y300107D01*
X118426Y304393D02*Y303607D01*
X121574Y304393D02*Y303607D01*
X108926Y311393D02*Y310607D01*
X112074Y311393D02*Y310607D01*
G54D35*X106933Y297969D02*X109491D01*
X106933Y299938D02*X109491D01*
X106933Y301907D02*X109491D01*
G54D29*X102674Y189493D02*Y188707D01*
X99526Y189493D02*Y188707D01*
X94526Y207393D02*Y206607D01*
X97674Y207393D02*Y206607D01*
X118226Y178693D02*Y177907D01*
X121374Y178693D02*Y177907D01*
X111407Y213126D02*X112193D01*
X103607Y212926D02*X104393D01*
X108626Y210093D02*Y209307D01*
X111774Y210093D02*Y209307D01*
X108526Y185693D02*Y184907D01*
X102326Y185693D02*Y184907D01*
X105474Y185693D02*Y184907D01*
X111674Y185693D02*Y184907D01*
G54D35*X93093Y180492D02*Y177934D01*
G54D11*G36*
X92602Y176398D02*Y163602D01*
X105397D01*
Y176398D01*
X92602D01*
G37*
G36*
X95050Y173950D02*Y170550D01*
X98450D01*
Y173950D01*
X95050D01*
G37*
G36*
Y169450D02*Y166050D01*
X98450D01*
Y169450D01*
X95050D01*
G37*
G36*
X99550Y173950D02*Y170550D01*
X102950D01*
Y173950D01*
X99550D01*
G37*
G36*
Y169450D02*Y166050D01*
X102950D01*
Y169450D01*
X99550D01*
G37*
G54D29*X84107Y187374D02*X84893D01*
X84107Y184226D02*X84893D01*
X80207Y175626D02*X80993D01*
X80207Y178774D02*X80993D01*
X88026Y155693D02*Y154907D01*
X87926Y218393D02*Y217607D01*
X91074Y218393D02*Y217607D01*
X90107Y209226D02*X90893D01*
X90107Y212374D02*X90893D01*
X111407Y216274D02*X112193D01*
X114607Y220926D02*X115393D01*
X114607Y224074D02*X115393D01*
X103607Y216074D02*X104393D01*
X98374Y215793D02*Y215007D01*
X72926Y235893D02*Y235107D01*
X76074Y235893D02*Y235107D01*
X73607Y242374D02*X74393D01*
X73607Y239226D02*X74393D01*
X66526Y238293D02*Y237507D01*
X69674Y238293D02*Y237507D01*
X61426Y249693D02*Y248907D01*
X64574Y249693D02*Y248907D01*
X61326Y253493D02*Y252707D01*
X64474Y253493D02*Y252707D01*
X60407Y242626D02*X61193D01*
X60407Y245774D02*X61193D01*
X74207Y218126D02*X74993D01*
X74207Y221274D02*X74993D01*
X84107Y219226D02*X84893D01*
X84107Y222374D02*X84893D01*
X80607Y224926D02*X81393D01*
X80607Y228074D02*X81393D01*
X80426Y233893D02*Y233107D01*
X83574Y233893D02*Y233107D01*
X79607Y238926D02*X80393D01*
X79607Y242074D02*X80393D01*
X84107Y250574D02*X84893D01*
X84107Y247426D02*X84893D01*
G54D35*X88508Y238907D02*X91066D01*
X88508Y236938D02*X91066D01*
X88508Y234969D02*X91066D01*
G54D29*X99426Y252993D02*Y252207D01*
X108426Y248693D02*Y247907D01*
X111574Y248693D02*Y247907D01*
X102426Y248693D02*Y247907D01*
X105574Y248693D02*Y247907D01*
G54D35*X106933Y234969D02*X109491D01*
X106933Y236938D02*X109491D01*
X106933Y238907D02*X109491D01*
G54D29*X102574Y252993D02*Y252207D01*
G54D35*X104907Y243492D02*Y240934D01*
X102938Y243492D02*Y240934D01*
X100969Y243492D02*Y240934D01*
X99000Y243492D02*Y240934D01*
X97031Y243492D02*Y240934D01*
X95062Y243492D02*Y240934D01*
X93093Y243492D02*Y240934D01*
G54D11*G36*
X92602Y239398D02*Y226602D01*
X105397D01*
Y239398D01*
X92602D01*
G37*
G36*
X95050Y236950D02*Y233550D01*
X98450D01*
Y236950D01*
X95050D01*
G37*
G36*
X99550D02*Y233550D01*
X102950D01*
Y236950D01*
X99550D01*
G37*
G54D29*X59674Y227393D02*Y226607D01*
X69707Y218026D02*X70493D01*
X69707Y221174D02*X70493D01*
G54D35*X88508Y233000D02*X91066D01*
X88508Y231031D02*X91066D01*
X88508Y229062D02*X91066D01*
X88508Y227093D02*X91066D01*
X93093Y225067D02*Y222509D01*
G54D29*X95226Y215793D02*Y215007D01*
Y212093D02*Y211307D01*
X98374Y212093D02*Y211307D01*
X100707Y205826D02*X101493D01*
X100707Y208974D02*X101493D01*
G54D35*X106933Y227093D02*X109491D01*
X106933Y229062D02*X109491D01*
X106933Y231031D02*X109491D01*
G54D11*G36*
X99550Y232450D02*Y229050D01*
X102950D01*
Y232450D01*
X99550D01*
G37*
G54D35*X106933Y233000D02*X109491D01*
X95062Y225067D02*Y222509D01*
G54D11*G36*
X95050Y232450D02*Y229050D01*
X98450D01*
Y232450D01*
X95050D01*
G37*
G54D35*X97031Y225067D02*Y222509D01*
X99000Y225067D02*Y222509D01*
X100969Y225067D02*Y222509D01*
X102938Y225067D02*Y222509D01*
X104907Y225067D02*Y222509D01*
G54D29*X56526Y227393D02*Y226607D01*
G54D33*X51800Y232900D02*X53700D01*
G54D29*X38307Y229926D02*X39093D01*
X38307Y233074D02*X39093D01*
X32426Y233393D02*Y232607D01*
X35574Y233393D02*Y232607D01*
X42426Y233393D02*Y232607D01*
X45574Y233393D02*Y232607D01*
G54D33*X51800Y238100D02*X53700D01*
X51800Y235500D02*X53700D01*
X59300Y232900D02*X61200D01*
X59300Y235500D02*X61200D01*
X59300Y238100D02*X61200D01*
G54D29*X91174Y281793D02*Y281007D01*
X103807Y275926D02*X104593D01*
X103807Y279074D02*X104593D01*
X98174Y278393D02*Y277607D01*
X95026Y278393D02*Y277607D01*
X94126Y269893D02*Y269107D01*
X97274Y269893D02*Y269107D01*
X90107Y272226D02*X90893D01*
X90107Y275374D02*X90893D01*
X95226Y274393D02*Y273607D01*
X98374Y274393D02*Y273607D01*
X101007Y268626D02*X101793D01*
X101007Y271774D02*X101793D01*
X102374Y315293D02*Y314507D01*
X99226Y315293D02*Y314507D01*
X102426Y311393D02*Y310607D01*
X105574Y311393D02*Y310607D01*
G54D32*X94004Y327500D02*X111996D01*
X49504D02*X67496D01*
G54D35*X88508Y301907D02*X91066D01*
X88508Y299938D02*X91066D01*
X104907Y306492D02*Y303934D01*
X102938Y306492D02*Y303934D01*
X100969Y306492D02*Y303934D01*
X99000Y306492D02*Y303934D01*
X97031Y306492D02*Y303934D01*
X95062Y306492D02*Y303934D01*
X93093Y306492D02*Y303934D01*
X88508Y297969D02*X91066D01*
X88508Y296000D02*X91066D01*
X88508Y294031D02*X91066D01*
X88508Y292062D02*X91066D01*
X88508Y290093D02*X91066D01*
X93093Y288067D02*Y285509D01*
X95062Y288067D02*Y285509D01*
X97031Y288067D02*Y285509D01*
X99000Y288067D02*Y285509D01*
X100969Y288067D02*Y285509D01*
X102938Y288067D02*Y285509D01*
X104907Y288067D02*Y285509D01*
G54D11*G36*
X92602Y302398D02*Y289602D01*
X105397D01*
Y302398D01*
X92602D01*
G37*
G36*
X95050Y299950D02*Y296550D01*
X98450D01*
Y299950D01*
X95050D01*
G37*
G36*
Y295450D02*Y292050D01*
X98450D01*
Y295450D01*
X95050D01*
G37*
G36*
X99550Y299950D02*Y296550D01*
X102950D01*
Y299950D01*
X99550D01*
G37*
G36*
Y295450D02*Y292050D01*
X102950D01*
Y295450D01*
X99550D01*
G37*
G54D45*X35000Y166400D03*
X42000D03*
X38500Y163900D03*
X46000Y163000D03*
X84500Y164900D03*
X99000Y165500D03*
X94500D03*
X103500D03*
X140800Y151900D03*
X115600Y154800D03*
X70100Y152600D03*
X125000Y155700D03*
X131900Y151800D03*
X124900Y147000D03*
X115400Y143200D03*
X111700Y143300D03*
X115500Y138500D03*
X79800Y145300D03*
X64000Y142500D03*
X53500D03*
X52500Y160000D03*
X53500Y134500D03*
X79500Y138500D03*
X45500D03*
X71500D03*
X64000Y134500D03*
X90500Y138500D03*
X116174Y170900D03*
X125600Y167900D03*
X113200Y163600D03*
X140500Y161500D03*
Y167000D03*
X103500Y170000D03*
X99000D03*
Y174500D03*
X103500D03*
X94500D03*
Y170000D03*
X146500Y173000D03*
X135000D03*
X140500D03*
X113000Y179500D03*
X146500Y167000D03*
X135000D03*
X120400Y156800D03*
X146500Y161500D03*
X135000D03*
X90700Y142900D03*
X87400Y146100D03*
X74102Y133908D03*
X81000Y130500D03*
X59700Y100600D03*
X69200Y100800D03*
X81600Y101000D03*
X104400Y142900D03*
X107700Y143400D03*
X105700Y146900D03*
X105500Y109500D03*
X105300Y98000D03*
X109700Y97100D03*
X109800Y108300D03*
X106200Y91100D03*
X74400Y152426D03*
X80800Y159000D03*
X84600Y153700D03*
X84500Y161900D03*
X88100Y152300D03*
X104200Y155700D03*
X99600Y155800D03*
X96500D03*
X56400Y161000D03*
X81300Y187600D03*
X84500Y180700D03*
Y177400D03*
Y173800D03*
X58000Y186400D03*
X49000Y175900D03*
X48000Y172800D03*
X28500Y160000D03*
Y155100D03*
X64500Y182500D03*
X70500Y179100D03*
X64000Y171900D03*
X60500Y193400D03*
X38500Y189000D03*
X42500D03*
X64500Y193400D03*
X90900Y184500D03*
X99400D03*
X25500Y183000D03*
X125200Y185400D03*
X131900Y188700D03*
X120800Y121700D03*
X124900Y122500D03*
X125000Y130900D03*
X135100Y131500D03*
X140900Y125300D03*
X132000Y125700D03*
X135000Y110000D03*
X125500Y109500D03*
X116074Y107900D03*
X259900Y147100D03*
X272100Y152500D03*
X281000Y149700D03*
X270700Y156000D03*
X192300Y157100D03*
Y162300D03*
X167400Y177600D03*
X200000Y178000D03*
X197400Y175700D03*
X152000Y173000D03*
X228800Y172200D03*
X184100Y173500D03*
X193900Y174200D03*
X222100Y178100D03*
X241600Y180100D03*
X245000D03*
X213600Y193300D03*
X283800Y190000D03*
X282500Y179200D03*
X283400Y175700D03*
X283500Y171700D03*
X161900Y180700D03*
X279100Y168200D03*
X167600Y162600D03*
X152000Y161500D03*
X161800Y154700D03*
X162200Y159100D03*
X152000Y167000D03*
X192600Y167400D03*
X211800Y178400D03*
X212100Y173800D03*
X211800Y168600D03*
X228800Y168900D03*
X140400Y148400D03*
X136900Y148800D03*
X135500Y145600D03*
X144100Y151800D03*
X135100D03*
X143500Y148700D03*
X133000Y138500D03*
X123000D03*
X154500Y149700D03*
X158700Y147300D03*
X194900Y131600D03*
X248700Y166700D03*
X223400D03*
X245500D03*
X269000Y166400D03*
X255100Y169000D03*
X258000D03*
X264800Y166500D03*
X244400Y316100D03*
X251700Y316200D03*
X247900Y312400D03*
X253300Y311600D03*
X255500Y306200D03*
X287100Y289600D03*
X260500Y306400D03*
X276000Y302600D03*
X282100Y294400D03*
X214100Y317600D03*
X228600Y304400D03*
X211800Y190200D03*
X237200Y166700D03*
X217600Y202000D03*
Y184300D03*
X211800Y199700D03*
X243300Y172900D03*
X211800Y213900D03*
X211700Y231500D03*
Y234700D03*
X211800Y204300D03*
X218700Y237100D03*
X222100D03*
X237200D03*
X213800Y225000D03*
X217000D03*
X213800Y218900D03*
X217000D03*
X213700Y207900D03*
X297100Y289600D03*
X292100D03*
X292000Y297200D03*
X289800Y300100D03*
X294200D03*
X308100Y302900D03*
X286700Y326200D03*
X290200Y326500D03*
X285600Y322700D03*
X289200D03*
X293700Y326400D03*
X297400Y326100D03*
X292800Y322600D03*
X296500D03*
X300300D03*
X287100Y283600D03*
X279100Y283700D03*
X265600Y267300D03*
X285600Y275100D03*
X282900Y264500D03*
X288800Y274800D03*
X241700Y288400D03*
X246000D03*
X250300D03*
X243500Y285100D03*
X247700Y285200D03*
X251800Y285000D03*
X274600Y166600D03*
X278900Y185200D03*
X278400Y200000D03*
X273100Y202600D03*
X269500D03*
X278600Y212400D03*
X274300Y195900D03*
X278900Y220300D03*
X266800Y173200D03*
X267100Y191900D03*
X255100Y172200D03*
X258000D03*
X282700Y220300D03*
X284500Y213900D03*
X284600Y209500D03*
Y205400D03*
Y202200D03*
X284000Y194100D03*
X284500Y237600D03*
X274600Y239700D03*
X245000Y233100D03*
X239800Y239800D03*
X228100Y239700D03*
X243000Y239800D03*
X231500Y239700D03*
X249600Y227900D03*
X279000Y231000D03*
X282700D03*
X284500Y227600D03*
X267000Y233900D03*
X263400D03*
Y237100D03*
X267000D03*
X254100Y238200D03*
X251300Y240000D03*
X257000Y239900D03*
X71100Y305100D03*
X64000Y298000D03*
Y323500D03*
X81500Y312500D03*
X90900Y310600D03*
X99400D03*
X92700Y322100D03*
X95100Y319400D03*
X99000Y323500D03*
X84500Y306800D03*
Y303500D03*
Y299900D03*
X99000Y331500D03*
X90000Y327500D03*
X140200Y274700D03*
X136500Y275000D03*
X135500Y271700D03*
X143900Y277900D03*
X140800Y278000D03*
X120400Y282900D03*
X115600Y280900D03*
X125100Y282200D03*
X112000Y255700D03*
X124900Y273100D03*
X134900Y277900D03*
X131500Y278000D03*
X132000Y250100D03*
X131700Y214900D03*
X161800Y222400D03*
Y243700D03*
X132200Y256000D03*
X125000Y248000D03*
X124900Y218600D03*
X120600Y194000D03*
X135200Y320600D03*
X125100Y320000D03*
X105600Y314800D03*
X116500Y310000D03*
X125200Y311300D03*
X120900Y311400D03*
X135400Y317300D03*
X136700Y314000D03*
X131800D03*
X139600Y322000D03*
X116000Y327500D03*
X109000Y331500D03*
Y323500D03*
X112500Y323000D03*
X111200Y319100D03*
X116174Y297000D03*
X125600Y294000D03*
Y298600D03*
X113600Y290000D03*
X112500Y305000D03*
X167400Y303700D03*
X167600Y288700D03*
X152000Y299000D03*
X146500D03*
Y304500D03*
X152000D03*
X161100Y306700D03*
X140500Y287500D03*
X135000D03*
X140500Y293000D03*
X135000D03*
Y299000D03*
X140500D03*
Y304500D03*
X135000D03*
X152000Y293000D03*
X146500D03*
Y287500D03*
X152000D03*
X161300Y285500D03*
X99000Y291500D03*
Y300500D03*
X94500Y296000D03*
X99000D03*
X94500Y300500D03*
X103500Y296000D03*
Y291500D03*
Y300500D03*
X94500Y291500D03*
X84500Y291000D03*
X87400Y272200D03*
X88100Y278400D03*
X78300Y270900D03*
X105700Y273000D03*
X104200Y281800D03*
X99600Y281900D03*
X96500D03*
X74400Y278526D03*
X80800Y285100D03*
X84600Y279800D03*
X56400Y287100D03*
X84500Y288000D03*
X70000Y278700D03*
X10000Y183000D03*
X16500D03*
X3500D03*
X10000Y190500D03*
X16500D03*
X3500D03*
X9600Y149400D03*
Y212400D03*
Y219900D03*
X16100Y149400D03*
X9600Y156900D03*
X3100D03*
Y149400D03*
Y212400D03*
Y219900D03*
X16100Y156900D03*
Y212400D03*
Y219900D03*
X10000Y246000D03*
Y253500D03*
X10400Y309100D03*
Y316600D03*
X10000Y275500D03*
Y283000D03*
X16900Y316600D03*
X3900D03*
X16500Y246000D03*
Y253500D03*
X16900Y309100D03*
X16500Y275500D03*
Y283000D03*
X3500Y246000D03*
Y253500D03*
X3900Y309100D03*
X3500Y275500D03*
Y283000D03*
X35500Y292500D03*
X29200Y243000D03*
X28400Y224100D03*
Y219100D03*
X41500Y292500D03*
X42300Y252100D03*
X38500Y290300D03*
X27500Y287500D03*
Y282000D03*
X49000Y302000D03*
X52300Y223900D03*
X56600D03*
X61300Y256200D03*
X48500Y298700D03*
X52500Y287000D03*
X46500Y290000D03*
X25000Y309000D03*
X38500Y315000D03*
X42500D03*
X64600Y309100D03*
X58900Y312000D03*
X61300Y318900D03*
X64700D03*
X64000Y331500D03*
X45500Y327500D03*
X53500Y331500D03*
X71500Y327500D03*
X53500Y323500D03*
X331600Y162800D03*
X328600Y160700D03*
X297600Y166200D03*
X360500Y120300D03*
X311800Y120800D03*
X338500Y316300D03*
X332500Y316400D03*
X336000Y313500D03*
X331600Y312200D03*
X327600Y306600D03*
X323700Y306800D03*
X353500Y314500D03*
X357000Y317500D03*
X360500Y314500D03*
X331600Y235200D03*
X331100Y229000D03*
X297100Y283600D03*
X292100D03*
X317300Y267300D03*
X315400Y263200D03*
X317300Y260700D03*
X315300Y258200D03*
X317300Y255900D03*
X314500Y200100D03*
X305000Y283800D03*
X354000Y281500D03*
X357000Y278500D03*
X360000Y282000D03*
X298400Y274900D03*
X296300Y266200D03*
X295200Y274600D03*
X295700Y174700D03*
X295500Y220400D03*
X354000Y258400D03*
X340800Y268300D03*
X339300Y265600D03*
X340700Y263000D03*
X339500Y260200D03*
X125600Y172500D03*
X120900Y184700D03*
X146500Y178500D03*
X140500D03*
X152000D03*
X135000D03*
X135200Y194500D03*
X125100Y193900D03*
X105600Y188700D03*
X133000Y201500D03*
X123000D03*
X124800Y210000D03*
X115300Y206200D03*
X111600Y206300D03*
X115500Y201500D03*
X116074Y233900D03*
X122100Y253500D03*
X120800Y247700D03*
X113000Y242500D03*
X120300Y219800D03*
X115500Y217800D03*
X113100Y226600D03*
X123000Y264500D03*
X115500D03*
X111600Y269600D03*
X140600Y251700D03*
X141800Y264300D03*
X146500Y261700D03*
X142500Y260900D03*
X137800Y254000D03*
X134300Y253500D03*
X90600Y205900D03*
X87300Y209100D03*
X80700Y222000D03*
X84500Y216700D03*
X88000Y215300D03*
X104300Y205900D03*
X105600Y209900D03*
X104100Y219300D03*
X99500Y218800D03*
X96400D03*
X107600Y206400D03*
X90500Y201500D03*
X217300Y207900D03*
Y193400D03*
X223500Y199200D03*
X226800D03*
X223600Y187000D03*
X226800D03*
X222100Y233900D03*
Y260600D03*
X224000Y253300D03*
X218700Y233800D03*
X228500Y233700D03*
X238600Y225200D03*
X241700Y225100D03*
X227600Y211200D03*
X196900Y213500D03*
X199400Y210900D03*
X246300Y187700D03*
X251300D03*
X209000Y255100D03*
X214300Y268900D03*
X209100Y269300D03*
X208600Y247000D03*
X206800Y244100D03*
X237200Y233900D03*
X268600Y228900D03*
X273800Y229100D03*
X271300Y226200D03*
X268300Y223300D03*
X271300Y220300D03*
X273900Y223100D03*
X275200Y256500D03*
X281600Y260600D03*
X263000Y249600D03*
X263100Y253000D03*
X263800Y257600D03*
X261200Y260300D03*
X140200Y211700D03*
X136500Y212000D03*
X134474Y208574D03*
X144000Y214800D03*
X134800D03*
X138900Y208600D03*
X140800Y214900D03*
X140500Y224500D03*
X135000D03*
X133000Y264500D03*
X125500Y230900D03*
X167500Y225600D03*
X152000Y230000D03*
X146500D03*
X140500D03*
X135000D03*
X125500Y235500D03*
X135000Y236000D03*
X140500D03*
X146500Y224500D03*
X167300Y240600D03*
X152000Y236000D03*
X146500D03*
Y241500D03*
X152000D03*
X140500D03*
X135000D03*
X152000Y224500D03*
X161900Y218300D03*
X155300Y210300D03*
X159400Y210400D03*
X163500Y209000D03*
X184100Y215300D03*
X183800Y212100D03*
X184600Y237400D03*
X84400Y236800D03*
X63900Y234900D03*
X81200Y250600D03*
X84400Y243700D03*
Y240400D03*
X105500Y251700D03*
X90800Y247500D03*
X99300D03*
X84400Y224900D03*
Y227900D03*
X99000Y228500D03*
Y237500D03*
X94500Y233000D03*
X99000D03*
X94500Y228500D03*
Y237500D03*
X103500Y233000D03*
Y228500D03*
Y237500D03*
X91200Y268600D03*
X104200Y268700D03*
X107200Y269800D03*
X90500Y264500D03*
X74300Y215426D03*
X70000Y215500D03*
X78300Y207700D03*
X64000Y205500D03*
X78000Y199500D03*
X80500Y202500D03*
X71500Y201500D03*
X82500Y198000D03*
X45500Y201500D03*
X53500Y205500D03*
Y197500D03*
X64000D03*
X34900Y229400D03*
X38400Y226900D03*
X41900Y229400D03*
X48900Y238900D03*
X47900Y235800D03*
X46000Y227000D03*
X76000Y260500D03*
X64000Y268500D03*
X53500D03*
X71500Y264500D03*
X53500Y260500D03*
X64000D03*
X38500Y252000D03*
X45500Y264500D03*
X64400Y245500D03*
Y256400D03*
X70400Y242100D03*
X57800Y245800D03*
X185500Y46700D03*
X177300Y43600D03*
X175800Y47500D03*
X171100Y33100D03*
X269600Y43700D03*
X285200Y43600D03*
X190400Y33600D03*
X229615Y29428D03*
X210500Y48700D03*
X135000Y115500D03*
X140500D03*
X146500D03*
X140500Y110000D03*
X146500D03*
X152000Y115500D03*
Y110000D03*
X167300Y114600D03*
X161600Y117500D03*
X293000Y106700D03*
X303400Y108400D03*
X293000Y119000D03*
X313500Y114600D03*
X285300Y118400D03*
X203700Y96100D03*
Y92300D03*
X195700Y91600D03*
X195800Y95500D03*
X293000Y84400D03*
X294300Y75000D03*
X301000Y100800D03*
X300900Y90400D03*
X152000Y98500D03*
X146500D03*
Y104000D03*
X152000D03*
X167500Y99600D03*
X162000Y96500D03*
X135000Y98500D03*
Y104000D03*
X140500D03*
Y98500D03*
X120300Y93800D03*
X134800Y88800D03*
X140800Y88900D03*
X144000Y88800D03*
X124800Y84000D03*
X125500Y104900D03*
X135400Y82600D03*
X137400Y79400D03*
X146500Y76800D03*
X134000D03*
X141000Y76000D03*
X152900Y21700D03*
X143200Y27200D03*
X155700Y27400D03*
X146700Y18900D03*
X146726Y27300D03*
X156000Y38500D03*
X132500D03*
X140500D03*
X148500D03*
X125700Y21800D03*
X136300Y21100D03*
X113900Y25900D03*
X128300Y13200D03*
X132900Y12700D03*
X180500Y15500D03*
X180400Y22000D03*
X184500Y24300D03*
X177300Y20100D03*
X175600Y50800D03*
X168100Y38700D03*
X167600Y50700D03*
X167500Y47100D03*
X156000Y55000D03*
Y62500D03*
X173174Y69674D03*
X157000Y82600D03*
X179100Y69900D03*
X170500Y57300D03*
X170400Y62100D03*
X174200Y60000D03*
X167600Y55400D03*
X156000Y46500D03*
X148500D03*
X140500D03*
X151200Y76900D03*
X151400Y73600D03*
X132500Y62500D03*
X140500D03*
X148500D03*
X146600Y73400D03*
X140500Y55000D03*
X148500D03*
X51500Y38400D03*
X41200Y38300D03*
X3500Y57000D03*
X9600Y23400D03*
X3100D03*
X9600Y30900D03*
X3100D03*
X16100Y23400D03*
Y30900D03*
X10000Y57000D03*
X16500D03*
X56800Y65400D03*
X56400Y52900D03*
X132500Y55000D03*
X134100Y73600D03*
X123400Y71000D03*
X121700Y53700D03*
X131600Y88900D03*
X124800Y92600D03*
X132500Y46500D03*
X122600Y25800D03*
X119800Y31800D03*
Y43100D03*
X115200Y44100D03*
X115400Y51500D03*
X121100Y48400D03*
X132000Y27200D03*
X128400Y27300D03*
X97000Y65200D03*
X86100Y50800D03*
X78400Y28900D03*
X97800Y25700D03*
X85900Y33700D03*
X101200Y33800D03*
X80000Y36152D03*
X85800Y42300D03*
X80000Y39400D03*
X101200Y50300D03*
X80000Y56600D03*
Y53400D03*
X10000Y64500D03*
Y120000D03*
Y127500D03*
X9600Y86400D03*
Y93900D03*
X16500Y64500D03*
Y120000D03*
Y127500D03*
X16100Y86400D03*
Y93900D03*
X47200Y100800D03*
X3500Y64500D03*
Y120000D03*
Y127500D03*
X3100Y86400D03*
Y93900D03*
G54D46*G54D47*G54D48*G54D25*G54D49*G54D50*G54D51*G54D25*G54D52*G54D51*G54D53*G54D51*G54D25*G54D52*G54D47*G54D51*G54D53*G54D54*G54D55*G54D54*G54D47*M02*
