M48
INCH
T147C0.015
T146C0.035
T145C0.042
T144C0.040
T143C0.128
T142C0.035
T141C0.125
T140C0.100
T139C0.062
T138C0.110
T137C0.096
%
T147
X000310Y021990
X000310Y021240
X000310Y015690
X000310Y014940
X000310Y009390
X000310Y008640
X000310Y003090
X000310Y002340
X000350Y028300
X000350Y027550
X000350Y025350
X000350Y024600
X000350Y019050
X000350Y018300
X000350Y012750
X000350Y012000
X000350Y006450
X000350Y005700
X000390Y031660
X000390Y030910
X000960Y021990
X000960Y021240
X000960Y015690
X000960Y014940
X000960Y009390
X000960Y008640
X000960Y003090
X000960Y002340
X001000Y028300
X001000Y027550
X001000Y025350
X001000Y024600
X001000Y019050
X001000Y018300
X001000Y012750
X001000Y012000
X001000Y006450
X001000Y005700
X001040Y031660
X001040Y030910
X001610Y021990
X001610Y021240
X001610Y015690
X001610Y014940
X001610Y009390
X001610Y008640
X001610Y003090
X001610Y002340
X001650Y028300
X001650Y027550
X001650Y025350
X001650Y024600
X001650Y019050
X001650Y018300
X001650Y012750
X001650Y012000
X001650Y006450
X001650Y005700
X001690Y031660
X001690Y030910
X002500Y030900
X002550Y018300
X002750Y028750
X002750Y028200
X002840Y022410
X002840Y021910
X002850Y016000
X002850Y015510
X002920Y024300
X003490Y022940
X003500Y016640
X003550Y029250
X003840Y022690
X003850Y031500
X003850Y029030
X003850Y025200
X003850Y018900
X003850Y016390
X004120Y003830
X004150Y029250
X004190Y022940
X004200Y016640
X004230Y025210
X004250Y031500
X004250Y018900
X004550Y032750
X004550Y026450
X004550Y020150
X004550Y013850
X004600Y022700
X004600Y016300
X004650Y029000
X004720Y010080
X004790Y023580
X004800Y017280
X004850Y029870
X004890Y023890
X004900Y030200
X004900Y017590
X005150Y003840
X005230Y022390
X005250Y028700
X005250Y016000
X005350Y033150
X005350Y032350
X005350Y026850
X005350Y026050
X005350Y020550
X005350Y019750
X005350Y014250
X005350Y013450
X005640Y028710
X005640Y016100
X005640Y005290
X005660Y022390
X005680Y006540
X005780Y024580
X005800Y018640
X005890Y031200
X005970Y010060
X006050Y019340
X006130Y031890
X006130Y025620
X006390Y023490
X006400Y033150
X006400Y032350
X006400Y029800
X006400Y026850
X006400Y026050
X006400Y020550
X006400Y019750
X006400Y017190
X006400Y014250
X006400Y013450
X006440Y025640
X006440Y024550
X006450Y019340
X006450Y018250
X006460Y030910
X006470Y031890
X006920Y010080
X007000Y027870
X007000Y021550
X007010Y015260
X007040Y024210
X007050Y017910
X007110Y030510
X007150Y032750
X007150Y026450
X007150Y020150
X007150Y013850
X007410Y013391
X007430Y021543
X007440Y027853
X007440Y015243
X007600Y026050
X007800Y019950
X007830Y027090
X007830Y020770
X007840Y002890
X007950Y013850
X007980Y014530
X008000Y005660
X008000Y005340
X008000Y003940
X008000Y003615
X008050Y020250
X008070Y022200
X008080Y028510
X008080Y015900
X008100Y013050
X008120Y025060
X008130Y018760
X008150Y031250
X008160Y010100
X008250Y019800
X008440Y024370
X008440Y024040
X008440Y023680
X008440Y022790
X008440Y022490
X008450Y030680
X008450Y030350
X008450Y029990
X008450Y029100
X008450Y028800
X008450Y021670
X008450Y018070
X008450Y017740
X008450Y017380
X008450Y016490
X008450Y016190
X008460Y027980
X008460Y015370
X008580Y004230
X008590Y003370
X008610Y005080
X008730Y020910
X008740Y027220
X008740Y014610
X008800Y021530
X008810Y027840
X008810Y015230
X009000Y032750
X009050Y026450
X009050Y020150
X009050Y013850
X009060Y020590
X009070Y014290
X009080Y024750
X009090Y031060
X009090Y018450
X009120Y026860
X009270Y032210
X009450Y030050
X009450Y029600
X009450Y029150
X009450Y023750
X009450Y023300
X009450Y022850
X009450Y017450
X009450Y017000
X009450Y016550
X009510Y031940
X009640Y021880
X009650Y028190
X009650Y015580
X009700Y006520
X009780Y002570
X009900Y033150
X009900Y032350
X009900Y030050
X009900Y029600
X009900Y029150
X009900Y023750
X009900Y023300
X009900Y022850
X009900Y017450
X009900Y017000
X009900Y016550
X009930Y024750
X009940Y031060
X009940Y018450
X009950Y021880
X009960Y028190
X009960Y015580
X010120Y005030
X010120Y003380
X010350Y030050
X010350Y029600
X010350Y029150
X010350Y023750
X010350Y023300
X010350Y022850
X010350Y017450
X010350Y017000
X010350Y016550
X010410Y021930
X010420Y028180
X010420Y026870
X010420Y015570
X010430Y020590
X010440Y014290
X010530Y009800
X010550Y025170
X010550Y010950
X010560Y031480
X010560Y020990
X010560Y018870
X010570Y027300
X010570Y014690
X010620Y009110
X010720Y026980
X010760Y020640
X010770Y014340
X010900Y033150
X010900Y032350
X010970Y009710
X010980Y010830
X011120Y031910
X011160Y026960
X011160Y020630
X011170Y014330
X011200Y025570
X011250Y032300
X011250Y030500
X011300Y024250
X011300Y017950
X011310Y022660
X011320Y016360
X011360Y029000
X011390Y002590
X011520Y004410
X011530Y020620
X011540Y014320
X011540Y005150
X011550Y026450
X011550Y021780
X011550Y020150
X011550Y013850
X011560Y028090
X011560Y015480
X011600Y032750
X011607Y023390
X011607Y010790
X011617Y029700
X011617Y017090
X011650Y031000
X011980Y004310
X011980Y003180
X012030Y021980
X012030Y009380
X012040Y028290
X012040Y015680
X012060Y019400
X012080Y024770
X012080Y012170
X012090Y031140
X012090Y018470
X012110Y004840
X012170Y005370
X012210Y025350
X012260Y002580
X012300Y026450
X012300Y020150
X012300Y013850
X012340Y007100
X012480Y021000
X012480Y009260
X012480Y008400
X012490Y027310
X012490Y021860
X012490Y014700
X012490Y012250
X012500Y024800
X012500Y015570
X012500Y013090
X012510Y032000
X012510Y028220
X012510Y019390
X012520Y031130
X012520Y018540
X012550Y023550
X012550Y023090
X012550Y010950
X012550Y010490
X012560Y029860
X012560Y029400
X012560Y017250
X012560Y016790
X012570Y002180
X012830Y001320
X012840Y002730
X013150Y027800
X013160Y008890
X013170Y021490
X013180Y031400
X013190Y018870
X013190Y015180
X013200Y025010
X013200Y012570
X013200Y002720
X013220Y025600
X013250Y006250
X013250Y005500
X013250Y004650
X013250Y003850
X013290Y001270
X013300Y026450
X013300Y020150
X013300Y013850
X013400Y007680
X013410Y007360
X013430Y025350
X013447Y020857
X013480Y021480
X013480Y008880
X013490Y027790
X013500Y030450
X013500Y029900
X013500Y029300
X013500Y028750
X013500Y024150
X013500Y023600
X013500Y023000
X013500Y022450
X013500Y017850
X013500Y017300
X013500Y016700
X013500Y016150
X013500Y011550
X013500Y011000
X013500Y010400
X013500Y009850
X013510Y015180
X013510Y013150
X013520Y032060
X013520Y019450
X013540Y031730
X013540Y008260
X013550Y027170
X013550Y014560
X013630Y002110
X013650Y027500
X013650Y021200
X013670Y031400
X013690Y014880
X013740Y007940
X013780Y025400
X013890Y020860
X013960Y032200
X014020Y027470
X014020Y021170
X014040Y014840
X014050Y030450
X014050Y029900
X014050Y029300
X014050Y028750
X014050Y024150
X014050Y023600
X014050Y023000
X014050Y022450
X014050Y017850
X014050Y017300
X014050Y016700
X014050Y016150
X014050Y011550
X014050Y011000
X014050Y010400
X014050Y009850
X014050Y006250
X014050Y005500
X014050Y004650
X014050Y003850
X014060Y025170
X014080Y027800
X014080Y021490
X014080Y015190
X014080Y008890
X014090Y012530
X014100Y007600
X014180Y026430
X014250Y026090
X014320Y002720
X014350Y014870
X014390Y027790
X014400Y021480
X014400Y008880
X014410Y015180
X014650Y030450
X014650Y029900
X014650Y029300
X014650Y028750
X014650Y026170
X014650Y024150
X014650Y023600
X014650Y023000
X014650Y022450
X014650Y017850
X014650Y017300
X014650Y016700
X014650Y016150
X014650Y011550
X014650Y011000
X014650Y010400
X014650Y009850
X014650Y007680
X014660Y007340
X014670Y001890
X014673Y002730
X014850Y006250
X014850Y005500
X014850Y004650
X014850Y003850
X015120Y007690
X015140Y007360
X015200Y030450
X015200Y029900
X015200Y029300
X015200Y028750
X015200Y024150
X015200Y023600
X015200Y023000
X015200Y022450
X015200Y017850
X015200Y017300
X015200Y016700
X015200Y016150
X015200Y011550
X015200Y011000
X015200Y010400
X015200Y009850
X015290Y002170
X015450Y014970
X015530Y021030
X015570Y002740
X015600Y006250
X015600Y005500
X015600Y004650
X015600Y003850
X015700Y008260
X015870Y014730
X015940Y021040
X016110Y030670
X016130Y028550
X016160Y011750
X016180Y024370
X016180Y022240
X016180Y015470
X016190Y021830
X016190Y018070
X016200Y009650
X016220Y015910
X016350Y020900
X016730Y024060
X016730Y011460
X016740Y030370
X016740Y017760
X016750Y022560
X016750Y009960
X016750Y004710
X016760Y028870
X016760Y016260
X016760Y005540
X016760Y005070
X016810Y003870
X017040Y006210
X017050Y005730
X017110Y003310
X017317Y006967
X017420Y006000
X017560Y005080
X017580Y004750
X017730Y004360
X017730Y002010
X017910Y006990
X018040Y002200
X018050Y001550
X018380Y021210
X018410Y021530
X018410Y017350
X018450Y002430
X018460Y023740
X018550Y004670
X019040Y003360
X019230Y016230
X019230Y015710
X019260Y016740
X019390Y017420
X019490Y013160
X019570Y009160
X019580Y009550
X019690Y021350
X019740Y017570
X019940Y021090
X020000Y017800
X020370Y009610
X020370Y009230
X020680Y024410
X020860Y024700
X020900Y025510
X020910Y026930
X021050Y004870
X021170Y023470
X021170Y023150
X021180Y021390
X021180Y020430
X021180Y019970
X021180Y019020
X021180Y017840
X021180Y016860
X021210Y017380
X021360Y019330
X021370Y020790
X021380Y022500
X021380Y021890
X021410Y031760
X021430Y026890
X021700Y022500
X021700Y021890
X021730Y020790
X021730Y019340
X021760Y020200
X021760Y018430
X021870Y023710
X021870Y023380
X022210Y026060
X022210Y023710
X022210Y023390
X022210Y017810
X022340Y016670
X022350Y019920
X022360Y018700
X022400Y025330
X022680Y019920
X022680Y018700
X022760Y021120
X022810Y023970
X022850Y023370
X022860Y030440
X022880Y017220
X022880Y016890
X022961Y002943
X023150Y023970
X023720Y023710
X023720Y023390
X023720Y016670
X023860Y022520
X023980Y023980
X024160Y018010
X024170Y028840
X024170Y022510
X024300Y023980
X024330Y017290
X024350Y028510
X024440Y031610
X024500Y023310
X024500Y018010
X024550Y016670
X024600Y028840
X024630Y018770
X024770Y028520
X024790Y031240
X024870Y016670
X024960Y022790
X025030Y028840
X025130Y024000
X025130Y018770
X025170Y031620
X025180Y028500
X025330Y031160
X025410Y023820
X025510Y017220
X025510Y016900
X025550Y030620
X025700Y023990
X025800Y017220
X025800Y016900
X025990Y014710
X026050Y030640
X026120Y026030
X026300Y024960
X026310Y025300
X026340Y023710
X026340Y023390
X026380Y025760
X026480Y016650
X026560Y026730
X026680Y017320
X026700Y023710
X026700Y023390
X026710Y019190
X026830Y022330
X026860Y022890
X026900Y016640
X026950Y020260
X026960Y004370
X027070Y015600
X027130Y022620
X027130Y022030
X027210Y015250
X027310Y020260
X027380Y022910
X027390Y022310
X027430Y019590
X027460Y023970
X027460Y016660
X027520Y025650
X027600Y030260
X027840Y020000
X027860Y021240
X027890Y022030
X027890Y018520
X027900Y023100
X027910Y028370
X027910Y016820
X028100Y014970
X028160Y026060
X028210Y029440
X028250Y017920
X028270Y023100
X028270Y022030
X028290Y026450
X028340Y017570
X028350Y017170
X028380Y019000
X028400Y019410
X028450Y023760
X028450Y022760
X028450Y021390
X028460Y020950
X028460Y020540
X028460Y020220
X028520Y004360
X028530Y011840
X028560Y032270
X028560Y027510
X028670Y032620
X028710Y028960
X028710Y028360
X028880Y027480
X028920Y032270
X028980Y030010
X029020Y032650
X029200Y029720
X029210Y028960
X029210Y028360
X029280Y032260
X029300Y011900
X029300Y010670
X029300Y008440
X029370Y032640
X029420Y030010
X029430Y007500
X029520Y027460
X029550Y022040
X029570Y017470
X029630Y026620
X029650Y032260
X029710Y028960
X029710Y028360
X029740Y032610
X029760Y016620
X029840Y027490
X030030Y032260
X030090Y009040
X030100Y010080
X030340Y010840
X030500Y028380
X030810Y030290
X031180Y012080
X031350Y011460
X031450Y020010
X031530Y025820
X031540Y026320
X031730Y026730
X031730Y026070
X031730Y025590
X032370Y030680
X032760Y030660
X032860Y016070
X033110Y022900
X033160Y031220
X033160Y023520
X033160Y016280
X033250Y031640
X033600Y031350
X033850Y031630
X033930Y026560
X033950Y026020
X034070Y026300
X034080Y026830
X035350Y031450
X035400Y028150
X035400Y025840
X035700Y031750
X035700Y027850
X036000Y028200
X036050Y031450
X036050Y012030
T142
X036200Y009300
X036200Y008300
X036200Y007300
X036200Y006300
X036200Y005300
X037200Y009800
X037200Y008800
X037200Y007800
X037200Y006800
X037200Y005800
T146
X036433Y022072
X036433Y021285
X036433Y020497
X036433Y019710
X036433Y018923
X036433Y018135
X036433Y017348
X037220Y022072
X037220Y021285
X037220Y020497
X037220Y019710
X037220Y018923
X037220Y018135
X037220Y017348
T144
X034300Y009700
X034300Y008700
X034300Y006400
X034300Y005400
T145
X023960Y003970
X023960Y002970
X039580Y022300
X039580Y021300
X039580Y020300
X039580Y019300
X039580Y018300
X039580Y017300
X039580Y016300
X039580Y015300
X040580Y022300
X040580Y021300
X040580Y020300
X040580Y019300
X040580Y018300
X040580Y017300
X040580Y016300
X040580Y015300
T139
X038500Y010600
X038500Y004500
X040819Y028000
T137
X003250Y032750
X003250Y001250
X038750Y032750
X038750Y001250
T140
X039638Y028000
T138
X040032Y029772
X040032Y026228
T141
X037276Y028000
T143
X039700Y009800
X039700Y005300
M30
