G04 start of page 11 for group -4078 idx -4078 *
G04 Title: GNSS Firehose, bottomsilk *
G04 Creator: pcb 20140316 *
G04 CreationDate: Tue 12 May 2015 06:45:23 AM GMT UTC *
G04 For: pmonta *
G04 Format: Gerber/RS-274X *
G04 PCB-Dimensions (mil): 4640.00 3900.00 *
G04 PCB-Coordinate-Origin: lower left *
%MOIN*%
%FSLAX25Y25*%
%LNBOTTOMSILK*%
%ADD219C,0.0050*%
%ADD218C,0.0080*%
G54D218*X261707Y82545D02*X262493D01*
X261707Y88055D02*X262493D01*
X247364Y76945D02*X248150D01*
X247364Y82455D02*X248150D01*
X243807Y135745D02*X244593D01*
X243807Y141255D02*X244593D01*
X274007Y195445D02*X274793D01*
X274007Y200955D02*X274793D01*
X219324Y201555D02*X220110D01*
X219324Y196045D02*X220110D01*
X274633Y212445D02*X275419D01*
X274633Y217955D02*X275419D01*
X248333Y214645D02*X249119D01*
X248333Y220155D02*X249119D01*
X225324Y243555D02*X226110D01*
X225324Y238045D02*X226110D01*
X256755Y255519D02*Y254733D01*
X251245Y255519D02*Y254733D01*
X304407Y92255D02*X305193D01*
X304407Y86745D02*X305193D01*
X286650Y85545D02*X287436D01*
X286650Y91055D02*X287436D01*
G54D219*X243100Y88200D02*X243880D01*
X244300Y88620D02*X243880Y88200D01*
X244300Y88620D02*Y90180D01*
X243880Y90600D01*
X243100D02*X243880D01*
X242380Y90300D02*X242080Y90600D01*
X241180D02*X242080D01*
X241180D02*X240880Y90300D01*
Y89700D02*Y90300D01*
X242380Y88200D02*X240880Y89700D01*
Y88200D02*X242380D01*
X240160Y90300D02*X239860Y90600D01*
X238960D02*X239860D01*
X238960D02*X238660Y90300D01*
Y89700D02*Y90300D01*
X240160Y88200D02*X238660Y89700D01*
Y88200D02*X240160D01*
X237940Y90300D02*X237640Y90600D01*
X236740D02*X237640D01*
X236740D02*X236440Y90300D01*
Y89700D02*Y90300D01*
X237940Y88200D02*X236440Y89700D01*
Y88200D02*X237940D01*
X226676Y112350D02*X227876D01*
X226676D02*X226376Y112050D01*
Y111450D02*Y112050D01*
X226676Y111150D02*X226376Y111450D01*
X226676Y111150D02*X227576D01*
Y109950D02*Y112350D01*
X227096Y111150D02*X226376Y109950D01*
X225656Y111870D02*X225176Y112350D01*
Y109950D02*Y112350D01*
X224756Y109950D02*X225656D01*
X224036Y111870D02*X223556Y112350D01*
Y109950D02*Y112350D01*
X223136Y109950D02*X224036D01*
X222416Y112050D02*X222116Y112350D01*
X221516D02*X222116D01*
X221516D02*X221216Y112050D01*
X221516Y109950D02*X221216Y110250D01*
X221516Y109950D02*X222116D01*
X222416Y110250D02*X222116Y109950D01*
X221516Y111270D02*X222116D01*
X221216Y111570D02*Y112050D01*
Y110250D02*Y110970D01*
X221516Y111270D01*
X221216Y111570D02*X221516Y111270D01*
X226876Y120350D02*X228076D01*
X226876D02*X226576Y120050D01*
Y119450D02*Y120050D01*
X226876Y119150D02*X226576Y119450D01*
X226876Y119150D02*X227776D01*
Y117950D02*Y120350D01*
X227296Y119150D02*X226576Y117950D01*
X225856Y119870D02*X225376Y120350D01*
Y117950D02*Y120350D01*
X224956Y117950D02*X225856D01*
X224236Y119870D02*X223756Y120350D01*
Y117950D02*Y120350D01*
X223336Y117950D02*X224236D01*
X222616Y118250D02*X222316Y117950D01*
X222616Y118250D02*Y118730D01*
X222196Y119150D01*
X221836D02*X222196D01*
X221836D02*X221416Y118730D01*
Y118250D02*Y118730D01*
X221716Y117950D02*X221416Y118250D01*
X221716Y117950D02*X222316D01*
X222616Y119570D02*X222196Y119150D01*
X222616Y119570D02*Y120050D01*
X222316Y120350D01*
X221716D02*X222316D01*
X221716D02*X221416Y120050D01*
Y119570D02*Y120050D01*
X221836Y119150D02*X221416Y119570D01*
X226450Y124150D02*X227650D01*
X226450D02*X226150Y123850D01*
Y123250D02*Y123850D01*
X226450Y122950D02*X226150Y123250D01*
X226450Y122950D02*X227350D01*
Y121750D02*Y124150D01*
X226870Y122950D02*X226150Y121750D01*
X225430Y123670D02*X224950Y124150D01*
Y121750D02*Y124150D01*
X224530Y121750D02*X225430D01*
X223810Y123670D02*X223330Y124150D01*
Y121750D02*Y124150D01*
X222910Y121750D02*X223810D01*
X221890D02*X220990Y122950D01*
Y123850D01*
X221290Y124150D02*X220990Y123850D01*
X221290Y124150D02*X221890D01*
X222190Y123850D02*X221890Y124150D01*
X222190Y123250D02*Y123850D01*
Y123250D02*X221890Y122950D01*
X220990D02*X221890D01*
X227176Y116150D02*X228376D01*
X227176D02*X226876Y115850D01*
Y115250D02*Y115850D01*
X227176Y114950D02*X226876Y115250D01*
X227176Y114950D02*X228076D01*
Y113750D02*Y116150D01*
X227596Y114950D02*X226876Y113750D01*
X226156Y115670D02*X225676Y116150D01*
Y113750D02*Y116150D01*
X225256Y113750D02*X226156D01*
X224536Y115850D02*X224236Y116150D01*
X223336D02*X224236D01*
X223336D02*X223036Y115850D01*
Y115250D02*Y115850D01*
X224536Y113750D02*X223036Y115250D01*
Y113750D02*X224536D01*
X222316Y115850D02*X222016Y116150D01*
X221416D02*X222016D01*
X221416D02*X221116Y115850D01*
X221416Y113750D02*X221116Y114050D01*
X221416Y113750D02*X222016D01*
X222316Y114050D02*X222016Y113750D01*
X221416Y115070D02*X222016D01*
X221116Y115370D02*Y115850D01*
Y114050D02*Y114770D01*
X221416Y115070D01*
X221116Y115370D02*X221416Y115070D01*
X226676Y127850D02*X227876D01*
X226676D02*X226376Y127550D01*
Y126950D02*Y127550D01*
X226676Y126650D02*X226376Y126950D01*
X226676Y126650D02*X227576D01*
Y125450D02*Y127850D01*
X227096Y126650D02*X226376Y125450D01*
X225656Y127370D02*X225176Y127850D01*
Y125450D02*Y127850D01*
X224756Y125450D02*X225656D01*
X224036Y127550D02*X223736Y127850D01*
X222836D02*X223736D01*
X222836D02*X222536Y127550D01*
Y126950D02*Y127550D01*
X224036Y125450D02*X222536Y126950D01*
Y125450D02*X224036D01*
X221816Y125750D02*X221516Y125450D01*
X221816Y125750D02*Y127550D01*
X221516Y127850D01*
X220916D02*X221516D01*
X220916D02*X220616Y127550D01*
Y125750D02*Y127550D01*
X220916Y125450D02*X220616Y125750D01*
X220916Y125450D02*X221516D01*
X221816Y126050D02*X220616Y127250D01*
X233000Y97800D02*X234200D01*
X233000D02*X232700Y97500D01*
Y96900D02*Y97500D01*
X233000Y96600D02*X232700Y96900D01*
X233000Y96600D02*X233900D01*
Y95400D02*Y97800D01*
X233420Y96600D02*X232700Y95400D01*
X231980Y97320D02*X231500Y97800D01*
Y95400D02*Y97800D01*
X231080Y95400D02*X231980D01*
X230360Y95700D02*X230060Y95400D01*
X230360Y95700D02*Y97500D01*
X230060Y97800D01*
X229460D02*X230060D01*
X229460D02*X229160Y97500D01*
Y95700D02*Y97500D01*
X229460Y95400D02*X229160Y95700D01*
X229460Y95400D02*X230060D01*
X230360Y96000D02*X229160Y97200D01*
X228140Y95400D02*X226940Y97800D01*
X228440D01*
X226726Y131700D02*X227926D01*
X226726D02*X226426Y131400D01*
Y130800D02*Y131400D01*
X226726Y130500D02*X226426Y130800D01*
X226726Y130500D02*X227626D01*
Y129300D02*Y131700D01*
X227146Y130500D02*X226426Y129300D01*
X225706Y131220D02*X225226Y131700D01*
Y129300D02*Y131700D01*
X224806Y129300D02*X225706D01*
X224086Y131400D02*X223786Y131700D01*
X222886D02*X223786D01*
X222886D02*X222586Y131400D01*
Y130800D02*Y131400D01*
X224086Y129300D02*X222586Y130800D01*
Y129300D02*X224086D01*
X221866Y131220D02*X221386Y131700D01*
Y129300D02*Y131700D01*
X220966Y129300D02*X221866D01*
X253476Y131450D02*X254676D01*
X253476D02*X253176Y131150D01*
Y130550D02*Y131150D01*
X253476Y130250D02*X253176Y130550D01*
X253476Y130250D02*X254376D01*
Y129050D02*Y131450D01*
X253896Y130250D02*X253176Y129050D01*
X252456Y130970D02*X251976Y131450D01*
Y129050D02*Y131450D01*
X251556Y129050D02*X252456D01*
X250836Y130970D02*X250356Y131450D01*
Y129050D02*Y131450D01*
X249936Y129050D02*X250836D01*
X248916D02*X247716Y131450D01*
X249216D01*
X256900Y140100D02*X257680D01*
X258100Y140520D02*X257680Y140100D01*
X258100Y140520D02*Y142080D01*
X257680Y142500D01*
X256900D02*X257680D01*
X256180Y142020D02*X255700Y142500D01*
Y140100D02*Y142500D01*
X255280Y140100D02*X256180D01*
X254560Y140400D02*X254260Y140100D01*
X254560Y140400D02*Y140880D01*
X254140Y141300D01*
X253780D02*X254140D01*
X253780D02*X253360Y140880D01*
Y140400D02*Y140880D01*
X253660Y140100D02*X253360Y140400D01*
X253660Y140100D02*X254260D01*
X254560Y141720D02*X254140Y141300D01*
X254560Y141720D02*Y142200D01*
X254260Y142500D01*
X253660D02*X254260D01*
X253660D02*X253360Y142200D01*
Y141720D02*Y142200D01*
X253780Y141300D02*X253360Y141720D01*
X252640Y141000D02*X251440Y142500D01*
X251140Y141000D02*X252640D01*
X251440Y140100D02*Y142500D01*
X260468Y150950D02*X261668D01*
X260468D02*X260168Y150650D01*
Y150050D02*Y150650D01*
X260468Y149750D02*X260168Y150050D01*
X260468Y149750D02*X261368D01*
Y148550D02*Y150950D01*
X260888Y149750D02*X260168Y148550D01*
X259148D02*X258248Y149750D01*
Y150650D01*
X258548Y150950D02*X258248Y150650D01*
X258548Y150950D02*X259148D01*
X259448Y150650D02*X259148Y150950D01*
X259448Y150050D02*Y150650D01*
Y150050D02*X259148Y149750D01*
X258248D02*X259148D01*
X257528Y148850D02*X257228Y148550D01*
X257528Y148850D02*Y149330D01*
X257108Y149750D01*
X256748D02*X257108D01*
X256748D02*X256328Y149330D01*
Y148850D02*Y149330D01*
X256628Y148550D02*X256328Y148850D01*
X256628Y148550D02*X257228D01*
X257528Y150170D02*X257108Y149750D01*
X257528Y150170D02*Y150650D01*
X257228Y150950D01*
X256628D02*X257228D01*
X256628D02*X256328Y150650D01*
Y150170D02*Y150650D01*
X256748Y149750D02*X256328Y150170D01*
X248043Y143613D02*X248823D01*
X249243Y144033D02*X248823Y143613D01*
X249243Y144033D02*Y145593D01*
X248823Y146013D01*
X248043D02*X248823D01*
X247323Y145533D02*X246843Y146013D01*
Y143613D02*Y146013D01*
X246423Y143613D02*X247323D01*
X245403D02*X244503Y144813D01*
Y145713D01*
X244803Y146013D02*X244503Y145713D01*
X244803Y146013D02*X245403D01*
X245703Y145713D02*X245403Y146013D01*
X245703Y145113D02*Y145713D01*
Y145113D02*X245403Y144813D01*
X244503D02*X245403D01*
X243783Y145713D02*X243483Y146013D01*
X242883D02*X243483D01*
X242883D02*X242583Y145713D01*
X242883Y143613D02*X242583Y143913D01*
X242883Y143613D02*X243483D01*
X243783Y143913D02*X243483Y143613D01*
X242883Y144933D02*X243483D01*
X242583Y145233D02*Y145713D01*
Y143913D02*Y144633D01*
X242883Y144933D01*
X242583Y145233D02*X242883Y144933D01*
X272250Y142250D02*X273030D01*
X273450Y142670D02*X273030Y142250D01*
X273450Y142670D02*Y144230D01*
X273030Y144650D01*
X272250D02*X273030D01*
X271530Y144170D02*X271050Y144650D01*
Y142250D02*Y144650D01*
X270630Y142250D02*X271530D01*
X269910Y142550D02*X269610Y142250D01*
X269910Y142550D02*Y143030D01*
X269490Y143450D01*
X269130D02*X269490D01*
X269130D02*X268710Y143030D01*
Y142550D02*Y143030D01*
X269010Y142250D02*X268710Y142550D01*
X269010Y142250D02*X269610D01*
X269910Y143870D02*X269490Y143450D01*
X269910Y143870D02*Y144350D01*
X269610Y144650D01*
X269010D02*X269610D01*
X269010D02*X268710Y144350D01*
Y143870D02*Y144350D01*
X269130Y143450D02*X268710Y143870D01*
X267090Y144650D02*X266790Y144350D01*
X267090Y144650D02*X267690D01*
X267990Y144350D02*X267690Y144650D01*
X267990Y142550D02*Y144350D01*
Y142550D02*X267690Y142250D01*
X267090Y143570D02*X266790Y143270D01*
X267090Y143570D02*X267990D01*
X267090Y142250D02*X267690D01*
X267090D02*X266790Y142550D01*
Y143270D01*
X298800Y146700D02*Y149100D01*
X297600D02*X298800D01*
X297900Y148020D02*X298800D01*
X295680Y146700D02*X296880D01*
X295680D02*X295380Y147000D01*
Y147720D01*
X295680Y148020D02*X295380Y147720D01*
X295680Y148020D02*X296580D01*
Y146700D02*Y149100D01*
X295680D02*X296880D01*
X295680D02*X295380Y148800D01*
Y148320D02*Y148800D01*
X295680Y148020D02*X295380Y148320D01*
X294660Y148800D02*X294360Y149100D01*
X293760D02*X294360D01*
X293760D02*X293460Y148800D01*
X293760Y146700D02*X293460Y147000D01*
X293760Y146700D02*X294360D01*
X294660Y147000D02*X294360Y146700D01*
X293760Y148020D02*X294360D01*
X293460Y148320D02*Y148800D01*
Y147000D02*Y147720D01*
X293760Y148020D01*
X293460Y148320D02*X293760Y148020D01*
X301100Y135800D02*X301880D01*
X302300Y136220D02*X301880Y135800D01*
X302300Y136220D02*Y137780D01*
X301880Y138200D01*
X301100D02*X301880D01*
X300380Y137900D02*X300080Y138200D01*
X299180D02*X300080D01*
X299180D02*X298880Y137900D01*
Y137300D02*Y137900D01*
X300380Y135800D02*X298880Y137300D01*
Y135800D02*X300380D01*
X298160Y137900D02*X297860Y138200D01*
X296960D02*X297860D01*
X296960D02*X296660Y137900D01*
Y137300D02*Y137900D01*
X298160Y135800D02*X296660Y137300D01*
Y135800D02*X298160D01*
X295640D02*X294440Y138200D01*
X295940D01*
X259276Y119850D02*X260476D01*
X259276D02*X258976Y119550D01*
Y118950D02*Y119550D01*
X259276Y118650D02*X258976Y118950D01*
X259276Y118650D02*X260176D01*
Y117450D02*Y119850D01*
X259696Y118650D02*X258976Y117450D01*
X258256Y119370D02*X257776Y119850D01*
Y117450D02*Y119850D01*
X257356Y117450D02*X258256D01*
X256636Y119370D02*X256156Y119850D01*
Y117450D02*Y119850D01*
X255736Y117450D02*X256636D01*
X255016Y118350D02*X253816Y119850D01*
X253516Y118350D02*X255016D01*
X253816Y117450D02*Y119850D01*
X263576Y123150D02*X264776D01*
X263576D02*X263276Y122850D01*
Y122250D02*Y122850D01*
X263576Y121950D02*X263276Y122250D01*
X263576Y121950D02*X264476D01*
Y120750D02*Y123150D01*
X263996Y121950D02*X263276Y120750D01*
X262556Y122670D02*X262076Y123150D01*
Y120750D02*Y123150D01*
X261656Y120750D02*X262556D01*
X260936Y122670D02*X260456Y123150D01*
Y120750D02*Y123150D01*
X260036Y120750D02*X260936D01*
X258116Y123150D02*X259316D01*
Y121950D02*Y123150D01*
Y121950D02*X259016Y122250D01*
X258416D02*X259016D01*
X258416D02*X258116Y121950D01*
Y121050D02*Y121950D01*
X258416Y120750D02*X258116Y121050D01*
X258416Y120750D02*X259016D01*
X259316Y121050D02*X259016Y120750D01*
X270950Y126250D02*X272150D01*
X270950D02*X270650Y125950D01*
Y125350D02*Y125950D01*
X270950Y125050D02*X270650Y125350D01*
X270950Y125050D02*X271850D01*
Y123850D02*Y126250D01*
X271370Y125050D02*X270650Y123850D01*
X269930Y125770D02*X269450Y126250D01*
Y123850D02*Y126250D01*
X269030Y123850D02*X269930D01*
X268310Y125770D02*X267830Y126250D01*
Y123850D02*Y126250D01*
X267410Y123850D02*X268310D01*
X265790Y126250D02*X265490Y125950D01*
X265790Y126250D02*X266390D01*
X266690Y125950D02*X266390Y126250D01*
X266690Y124150D02*Y125950D01*
Y124150D02*X266390Y123850D01*
X265790Y125170D02*X265490Y124870D01*
X265790Y125170D02*X266690D01*
X265790Y123850D02*X266390D01*
X265790D02*X265490Y124150D01*
Y124870D01*
X264976Y99850D02*X265756D01*
X266176Y100270D02*X265756Y99850D01*
X266176Y100270D02*Y101830D01*
X265756Y102250D01*
X264976D02*X265756D01*
X264256Y101770D02*X263776Y102250D01*
Y99850D02*Y102250D01*
X263356Y99850D02*X264256D01*
X262636Y100150D02*X262336Y99850D01*
X262636Y100150D02*Y100630D01*
X262216Y101050D01*
X261856D02*X262216D01*
X261856D02*X261436Y100630D01*
Y100150D02*Y100630D01*
X261736Y99850D02*X261436Y100150D01*
X261736Y99850D02*X262336D01*
X262636Y101470D02*X262216Y101050D01*
X262636Y101470D02*Y101950D01*
X262336Y102250D01*
X261736D02*X262336D01*
X261736D02*X261436Y101950D01*
Y101470D02*Y101950D01*
X261856Y101050D02*X261436Y101470D01*
X260716Y101950D02*X260416Y102250D01*
X259516D02*X260416D01*
X259516D02*X259216Y101950D01*
Y101350D02*Y101950D01*
X260716Y99850D02*X259216Y101350D01*
Y99850D02*X260716D01*
X284450Y100850D02*X285230D01*
X285650Y101270D02*X285230Y100850D01*
X285650Y101270D02*Y102830D01*
X285230Y103250D01*
X284450D02*X285230D01*
X283730Y102950D02*X283430Y103250D01*
X282530D02*X283430D01*
X282530D02*X282230Y102950D01*
Y102350D02*Y102950D01*
X283730Y100850D02*X282230Y102350D01*
Y100850D02*X283730D01*
X281510Y102950D02*X281210Y103250D01*
X280310D02*X281210D01*
X280310D02*X280010Y102950D01*
Y102350D02*Y102950D01*
X281510Y100850D02*X280010Y102350D01*
Y100850D02*X281510D01*
X279290Y102950D02*X278990Y103250D01*
X278390D02*X278990D01*
X278390D02*X278090Y102950D01*
X278390Y100850D02*X278090Y101150D01*
X278390Y100850D02*X278990D01*
X279290Y101150D02*X278990Y100850D01*
X278390Y102170D02*X278990D01*
X278090Y102470D02*Y102950D01*
Y101150D02*Y101870D01*
X278390Y102170D01*
X278090Y102470D02*X278390Y102170D01*
X263250Y126750D02*X264030D01*
X264450Y127170D02*X264030Y126750D01*
X264450Y127170D02*Y128730D01*
X264030Y129150D01*
X263250D02*X264030D01*
X262530Y128670D02*X262050Y129150D01*
Y126750D02*Y129150D01*
X261630Y126750D02*X262530D01*
X260910Y127050D02*X260610Y126750D01*
X260910Y127050D02*Y127530D01*
X260490Y127950D01*
X260130D02*X260490D01*
X260130D02*X259710Y127530D01*
Y127050D02*Y127530D01*
X260010Y126750D02*X259710Y127050D01*
X260010Y126750D02*X260610D01*
X260910Y128370D02*X260490Y127950D01*
X260910Y128370D02*Y128850D01*
X260610Y129150D01*
X260010D02*X260610D01*
X260010D02*X259710Y128850D01*
Y128370D02*Y128850D01*
X260130Y127950D02*X259710Y128370D01*
X258990Y128850D02*X258690Y129150D01*
X258090D02*X258690D01*
X258090D02*X257790Y128850D01*
X258090Y126750D02*X257790Y127050D01*
X258090Y126750D02*X258690D01*
X258990Y127050D02*X258690Y126750D01*
X258090Y128070D02*X258690D01*
X257790Y128370D02*Y128850D01*
Y127050D02*Y127770D01*
X258090Y128070D01*
X257790Y128370D02*X258090Y128070D01*
X308926Y125600D02*X309706D01*
X310126Y126020D02*X309706Y125600D01*
X310126Y126020D02*Y127580D01*
X309706Y128000D01*
X308926D02*X309706D01*
X308206Y127700D02*X307906Y128000D01*
X307006D02*X307906D01*
X307006D02*X306706Y127700D01*
Y127100D02*Y127700D01*
X308206Y125600D02*X306706Y127100D01*
Y125600D02*X308206D01*
X305986Y127520D02*X305506Y128000D01*
Y125600D02*Y128000D01*
X305086Y125600D02*X305986D01*
X304366Y125900D02*X304066Y125600D01*
X304366Y125900D02*Y126380D01*
X303946Y126800D01*
X303586D02*X303946D01*
X303586D02*X303166Y126380D01*
Y125900D02*Y126380D01*
X303466Y125600D02*X303166Y125900D01*
X303466Y125600D02*X304066D01*
X304366Y127220D02*X303946Y126800D01*
X304366Y127220D02*Y127700D01*
X304066Y128000D01*
X303466D02*X304066D01*
X303466D02*X303166Y127700D01*
Y127220D02*Y127700D01*
X303586Y126800D02*X303166Y127220D01*
X308700Y112800D02*X309480D01*
X309900Y113220D02*X309480Y112800D01*
X309900Y113220D02*Y114780D01*
X309480Y115200D01*
X308700D02*X309480D01*
X307980Y114900D02*X307680Y115200D01*
X306780D02*X307680D01*
X306780D02*X306480Y114900D01*
Y114300D02*Y114900D01*
X307980Y112800D02*X306480Y114300D01*
Y112800D02*X307980D01*
X305760Y114720D02*X305280Y115200D01*
Y112800D02*Y115200D01*
X304860Y112800D02*X305760D01*
X303840D02*X302940Y114000D01*
Y114900D01*
X303240Y115200D02*X302940Y114900D01*
X303240Y115200D02*X303840D01*
X304140Y114900D02*X303840Y115200D01*
X304140Y114300D02*Y114900D01*
Y114300D02*X303840Y114000D01*
X302940D02*X303840D01*
X258276Y111950D02*X259476D01*
X258276D02*X257976Y111650D01*
Y111050D02*Y111650D01*
X258276Y110750D02*X257976Y111050D01*
X258276Y110750D02*X259176D01*
Y109550D02*Y111950D01*
X258696Y110750D02*X257976Y109550D01*
X257256Y111470D02*X256776Y111950D01*
Y109550D02*Y111950D01*
X256356Y109550D02*X257256D01*
X255636Y111470D02*X255156Y111950D01*
Y109550D02*Y111950D01*
X254736Y109550D02*X255636D01*
X254016Y111650D02*X253716Y111950D01*
X252816D02*X253716D01*
X252816D02*X252516Y111650D01*
Y111050D02*Y111650D01*
X254016Y109550D02*X252516Y111050D01*
Y109550D02*X254016D01*
X259276Y115950D02*X260476D01*
X259276D02*X258976Y115650D01*
Y115050D02*Y115650D01*
X259276Y114750D02*X258976Y115050D01*
X259276Y114750D02*X260176D01*
Y113550D02*Y115950D01*
X259696Y114750D02*X258976Y113550D01*
X258256Y115470D02*X257776Y115950D01*
Y113550D02*Y115950D01*
X257356Y113550D02*X258256D01*
X256636Y115650D02*X256336Y115950D01*
X255436D02*X256336D01*
X255436D02*X255136Y115650D01*
Y115050D02*Y115650D01*
X256636Y113550D02*X255136Y115050D01*
Y113550D02*X256636D01*
X254416Y115650D02*X254116Y115950D01*
X253216D02*X254116D01*
X253216D02*X252916Y115650D01*
Y115050D02*Y115650D01*
X254416Y113550D02*X252916Y115050D01*
Y113550D02*X254416D01*
X252250Y102150D02*X253030D01*
X253450Y102570D02*X253030Y102150D01*
X253450Y102570D02*Y104130D01*
X253030Y104550D01*
X252250D02*X253030D01*
X251530Y104070D02*X251050Y104550D01*
Y102150D02*Y104550D01*
X250630Y102150D02*X251530D01*
X249910Y102450D02*X249610Y102150D01*
X249910Y102450D02*Y102930D01*
X249490Y103350D01*
X249130D02*X249490D01*
X249130D02*X248710Y102930D01*
Y102450D02*Y102930D01*
X249010Y102150D02*X248710Y102450D01*
X249010Y102150D02*X249610D01*
X249910Y103770D02*X249490Y103350D01*
X249910Y103770D02*Y104250D01*
X249610Y104550D01*
X249010D02*X249610D01*
X249010D02*X248710Y104250D01*
Y103770D02*Y104250D01*
X249130Y103350D02*X248710Y103770D01*
X247690Y102150D02*X246490Y104550D01*
X247990D01*
X263200Y89400D02*X263980D01*
X264400Y89820D02*X263980Y89400D01*
X264400Y89820D02*Y91380D01*
X263980Y91800D01*
X263200D02*X263980D01*
X262480Y91500D02*X262180Y91800D01*
X261280D02*X262180D01*
X261280D02*X260980Y91500D01*
Y90900D02*Y91500D01*
X262480Y89400D02*X260980Y90900D01*
Y89400D02*X262480D01*
X260260Y91500D02*X259960Y91800D01*
X259060D02*X259960D01*
X259060D02*X258760Y91500D01*
Y90900D02*Y91500D01*
X260260Y89400D02*X258760Y90900D01*
Y89400D02*X260260D01*
X258040Y90300D02*X256840Y91800D01*
X256540Y90300D02*X258040D01*
X256840Y89400D02*Y91800D01*
X301300Y97600D02*X302080D01*
X302500Y98020D02*X302080Y97600D01*
X302500Y98020D02*Y99580D01*
X302080Y100000D01*
X301300D02*X302080D01*
X300580Y99700D02*X300280Y100000D01*
X299380D02*X300280D01*
X299380D02*X299080Y99700D01*
Y99100D02*Y99700D01*
X300580Y97600D02*X299080Y99100D01*
Y97600D02*X300580D01*
X298360Y99700D02*X298060Y100000D01*
X297160D02*X298060D01*
X297160D02*X296860Y99700D01*
Y99100D02*Y99700D01*
X298360Y97600D02*X296860Y99100D01*
Y97600D02*X298360D01*
X296140Y97900D02*X295840Y97600D01*
X296140Y97900D02*Y98380D01*
X295720Y98800D01*
X295360D02*X295720D01*
X295360D02*X294940Y98380D01*
Y97900D02*Y98380D01*
X295240Y97600D02*X294940Y97900D01*
X295240Y97600D02*X295840D01*
X296140Y99220D02*X295720Y98800D01*
X296140Y99220D02*Y99700D01*
X295840Y100000D01*
X295240D02*X295840D01*
X295240D02*X294940Y99700D01*
Y99220D02*Y99700D01*
X295360Y98800D02*X294940Y99220D01*
X252054Y221407D02*X252834D01*
X253254Y221827D02*X252834Y221407D01*
X253254Y221827D02*Y223387D01*
X252834Y223807D01*
X252054D02*X252834D01*
X251334Y223327D02*X250854Y223807D01*
Y221407D02*Y223807D01*
X250434Y221407D02*X251334D01*
X249714Y222307D02*X248514Y223807D01*
X248214Y222307D02*X249714D01*
X248514Y221407D02*Y223807D01*
X247494Y223507D02*X247194Y223807D01*
X246294D02*X247194D01*
X246294D02*X245994Y223507D01*
Y222907D02*Y223507D01*
X247494Y221407D02*X245994Y222907D01*
Y221407D02*X247494D01*
X266379Y223763D02*X267159D01*
X267579Y224183D02*X267159Y223763D01*
X267579Y224183D02*Y225743D01*
X267159Y226163D01*
X266379D02*X267159D01*
X265659Y225683D02*X265179Y226163D01*
Y223763D02*Y226163D01*
X264759Y223763D02*X265659D01*
X264039Y224663D02*X262839Y226163D01*
X262539Y224663D02*X264039D01*
X262839Y223763D02*Y226163D01*
X261819Y225683D02*X261339Y226163D01*
Y223763D02*Y226163D01*
X260919Y223763D02*X261819D01*
X253723Y201400D02*X254503D01*
X254923Y201820D02*X254503Y201400D01*
X254923Y201820D02*Y203380D01*
X254503Y203800D01*
X253723D02*X254503D01*
X253003Y203320D02*X252523Y203800D01*
Y201400D02*Y203800D01*
X252103Y201400D02*X253003D01*
X251383Y202300D02*X250183Y203800D01*
X249883Y202300D02*X251383D01*
X250183Y201400D02*Y203800D01*
X249163Y202300D02*X247963Y203800D01*
X247663Y202300D02*X249163D01*
X247963Y201400D02*Y203800D01*
X266220Y212220D02*X267000D01*
X267420Y212640D02*X267000Y212220D01*
X267420Y212640D02*Y214200D01*
X267000Y214620D01*
X266220D02*X267000D01*
X265500Y214140D02*X265020Y214620D01*
Y212220D02*Y214620D01*
X264600Y212220D02*X265500D01*
X262980Y214620D02*X262680Y214320D01*
X262980Y214620D02*X263580D01*
X263880Y214320D02*X263580Y214620D01*
X263880Y212520D02*Y214320D01*
Y212520D02*X263580Y212220D01*
X262980Y213540D02*X262680Y213240D01*
X262980Y213540D02*X263880D01*
X262980Y212220D02*X263580D01*
X262980D02*X262680Y212520D01*
Y213240D01*
X261060Y214620D02*X260760Y214320D01*
X261060Y214620D02*X261660D01*
X261960Y214320D02*X261660Y214620D01*
X261960Y212520D02*Y214320D01*
Y212520D02*X261660Y212220D01*
X261060Y213540D02*X260760Y213240D01*
X261060Y213540D02*X261960D01*
X261060Y212220D02*X261660D01*
X261060D02*X260760Y212520D01*
Y213240D01*
X235013Y225997D02*X235793D01*
X236213Y226417D02*X235793Y225997D01*
X236213Y226417D02*Y227977D01*
X235793Y228397D01*
X235013D02*X235793D01*
X234293Y227917D02*X233813Y228397D01*
Y225997D02*Y228397D01*
X233393Y225997D02*X234293D01*
X232673Y226897D02*X231473Y228397D01*
X231173Y226897D02*X232673D01*
X231473Y225997D02*Y228397D01*
X229553D02*X229253Y228097D01*
X229553Y228397D02*X230153D01*
X230453Y228097D02*X230153Y228397D01*
X230453Y226297D02*Y228097D01*
Y226297D02*X230153Y225997D01*
X229553Y227317D02*X229253Y227017D01*
X229553Y227317D02*X230453D01*
X229553Y225997D02*X230153D01*
X229553D02*X229253Y226297D01*
Y227017D01*
X234933Y213536D02*X235713D01*
X236133Y213956D02*X235713Y213536D01*
X236133Y213956D02*Y215516D01*
X235713Y215936D01*
X234933D02*X235713D01*
X234213Y215456D02*X233733Y215936D01*
Y213536D02*Y215936D01*
X233313Y213536D02*X234213D01*
X232593Y214436D02*X231393Y215936D01*
X231093Y214436D02*X232593D01*
X231393Y213536D02*Y215936D01*
X229173D02*X230373D01*
Y214736D02*Y215936D01*
Y214736D02*X230073Y215036D01*
X229473D02*X230073D01*
X229473D02*X229173Y214736D01*
Y213836D02*Y214736D01*
X229473Y213536D02*X229173Y213836D01*
X229473Y213536D02*X230073D01*
X230373Y213836D02*X230073Y213536D01*
X234014Y189242D02*X234794D01*
X235214Y189662D02*X234794Y189242D01*
X235214Y189662D02*Y191222D01*
X234794Y191642D01*
X234014D02*X234794D01*
X233294Y191162D02*X232814Y191642D01*
Y189242D02*Y191642D01*
X232394Y189242D02*X233294D01*
X230474Y191642D02*X231674D01*
Y190442D02*Y191642D01*
Y190442D02*X231374Y190742D01*
X230774D02*X231374D01*
X230774D02*X230474Y190442D01*
Y189542D02*Y190442D01*
X230774Y189242D02*X230474Y189542D01*
X230774Y189242D02*X231374D01*
X231674Y189542D02*X231374Y189242D01*
X228554Y191642D02*X229754D01*
Y190442D02*Y191642D01*
Y190442D02*X229454Y190742D01*
X228854D02*X229454D01*
X228854D02*X228554Y190442D01*
Y189542D02*Y190442D01*
X228854Y189242D02*X228554Y189542D01*
X228854Y189242D02*X229454D01*
X229754Y189542D02*X229454Y189242D01*
X288490Y221491D02*X289270D01*
X289690Y221911D02*X289270Y221491D01*
X289690Y221911D02*Y223471D01*
X289270Y223891D01*
X288490D02*X289270D01*
X287770Y223411D02*X287290Y223891D01*
Y221491D02*Y223891D01*
X286870Y221491D02*X287770D01*
X286150Y222391D02*X284950Y223891D01*
X284650Y222391D02*X286150D01*
X284950Y221491D02*Y223891D01*
X283630Y221491D02*X282730Y222691D01*
Y223591D01*
X283030Y223891D02*X282730Y223591D01*
X283030Y223891D02*X283630D01*
X283930Y223591D02*X283630Y223891D01*
X283930Y222991D02*Y223591D01*
Y222991D02*X283630Y222691D01*
X282730D02*X283630D01*
X254301Y187082D02*X255081D01*
X255501Y187502D02*X255081Y187082D01*
X255501Y187502D02*Y189062D01*
X255081Y189482D01*
X254301D02*X255081D01*
X253581Y189002D02*X253101Y189482D01*
Y187082D02*Y189482D01*
X252681Y187082D02*X253581D01*
X250761Y189482D02*X251961D01*
Y188282D02*Y189482D01*
Y188282D02*X251661Y188582D01*
X251061D02*X251661D01*
X251061D02*X250761Y188282D01*
Y187382D02*Y188282D01*
X251061Y187082D02*X250761Y187382D01*
X251061Y187082D02*X251661D01*
X251961Y187382D02*X251661Y187082D01*
X249141Y189482D02*X248841Y189182D01*
X249141Y189482D02*X249741D01*
X250041Y189182D02*X249741Y189482D01*
X250041Y187382D02*Y189182D01*
Y187382D02*X249741Y187082D01*
X249141Y188402D02*X248841Y188102D01*
X249141Y188402D02*X250041D01*
X249141Y187082D02*X249741D01*
X249141D02*X248841Y187382D01*
Y188102D01*
X262919Y187336D02*X263699D01*
X264119Y187756D02*X263699Y187336D01*
X264119Y187756D02*Y189316D01*
X263699Y189736D01*
X262919D02*X263699D01*
X262199Y189256D02*X261719Y189736D01*
Y187336D02*Y189736D01*
X261299Y187336D02*X262199D01*
X259379Y189736D02*X260579D01*
Y188536D02*Y189736D01*
Y188536D02*X260279Y188836D01*
X259679D02*X260279D01*
X259679D02*X259379Y188536D01*
Y187636D02*Y188536D01*
X259679Y187336D02*X259379Y187636D01*
X259679Y187336D02*X260279D01*
X260579Y187636D02*X260279Y187336D01*
X258659Y189436D02*X258359Y189736D01*
X257759D02*X258359D01*
X257759D02*X257459Y189436D01*
X257759Y187336D02*X257459Y187636D01*
X257759Y187336D02*X258359D01*
X258659Y187636D02*X258359Y187336D01*
X257759Y188656D02*X258359D01*
X257459Y188956D02*Y189436D01*
Y187636D02*Y188356D01*
X257759Y188656D01*
X257459Y188956D02*X257759Y188656D01*
X287800Y192200D02*X288580D01*
X289000Y192620D02*X288580Y192200D01*
X289000Y192620D02*Y194180D01*
X288580Y194600D01*
X287800D02*X288580D01*
X287080Y194120D02*X286600Y194600D01*
Y192200D02*Y194600D01*
X286180Y192200D02*X287080D01*
X284260Y194600D02*X285460D01*
Y193400D02*Y194600D01*
Y193400D02*X285160Y193700D01*
X284560D02*X285160D01*
X284560D02*X284260Y193400D01*
Y192500D02*Y193400D01*
X284560Y192200D02*X284260Y192500D01*
X284560Y192200D02*X285160D01*
X285460Y192500D02*X285160Y192200D01*
X283540Y193100D02*X282340Y194600D01*
X282040Y193100D02*X283540D01*
X282340Y192200D02*Y194600D01*
X274900Y205900D02*X275680D01*
X276100Y206320D02*X275680Y205900D01*
X276100Y206320D02*Y207880D01*
X275680Y208300D01*
X274900D02*X275680D01*
X274180Y207820D02*X273700Y208300D01*
Y205900D02*Y208300D01*
X273280Y205900D02*X274180D01*
X271660Y208300D02*X271360Y208000D01*
X271660Y208300D02*X272260D01*
X272560Y208000D02*X272260Y208300D01*
X272560Y206200D02*Y208000D01*
Y206200D02*X272260Y205900D01*
X271660Y207220D02*X271360Y206920D01*
X271660Y207220D02*X272560D01*
X271660Y205900D02*X272260D01*
X271660D02*X271360Y206200D01*
Y206920D01*
X270640Y206200D02*X270340Y205900D01*
X270640Y206200D02*Y206680D01*
X270220Y207100D01*
X269860D02*X270220D01*
X269860D02*X269440Y206680D01*
Y206200D02*Y206680D01*
X269740Y205900D02*X269440Y206200D01*
X269740Y205900D02*X270340D01*
X270640Y207520D02*X270220Y207100D01*
X270640Y207520D02*Y208000D01*
X270340Y208300D01*
X269740D02*X270340D01*
X269740D02*X269440Y208000D01*
Y207520D02*Y208000D01*
X269860Y207100D02*X269440Y207520D01*
X274882Y233076D02*X275662D01*
X276082Y233496D02*X275662Y233076D01*
X276082Y233496D02*Y235056D01*
X275662Y235476D01*
X274882D02*X275662D01*
X274162Y234996D02*X273682Y235476D01*
Y233076D02*Y235476D01*
X273262Y233076D02*X274162D01*
X271642Y235476D02*X271342Y235176D01*
X271642Y235476D02*X272242D01*
X272542Y235176D02*X272242Y235476D01*
X272542Y233376D02*Y235176D01*
Y233376D02*X272242Y233076D01*
X271642Y234396D02*X271342Y234096D01*
X271642Y234396D02*X272542D01*
X271642Y233076D02*X272242D01*
X271642D02*X271342Y233376D01*
Y234096D01*
X270322Y233076D02*X269122Y235476D01*
X270622D01*
X284126Y151492D02*X284906D01*
X285326Y151912D02*X284906Y151492D01*
X285326Y151912D02*Y153472D01*
X284906Y153892D01*
X284126D02*X284906D01*
X283406Y153412D02*X282926Y153892D01*
Y151492D02*Y153892D01*
X282506Y151492D02*X283406D01*
X281786Y151792D02*X281486Y151492D01*
X281786Y151792D02*Y152272D01*
X281366Y152692D01*
X281006D02*X281366D01*
X281006D02*X280586Y152272D01*
Y151792D02*Y152272D01*
X280886Y151492D02*X280586Y151792D01*
X280886Y151492D02*X281486D01*
X281786Y153112D02*X281366Y152692D01*
X281786Y153112D02*Y153592D01*
X281486Y153892D01*
X280886D02*X281486D01*
X280886D02*X280586Y153592D01*
Y153112D02*Y153592D01*
X281006Y152692D02*X280586Y153112D01*
X278666Y153892D02*X279866D01*
Y152692D02*Y153892D01*
Y152692D02*X279566Y152992D01*
X278966D02*X279566D01*
X278966D02*X278666Y152692D01*
Y151792D02*Y152692D01*
X278966Y151492D02*X278666Y151792D01*
X278966Y151492D02*X279566D01*
X279866Y151792D02*X279566Y151492D01*
X274350Y77750D02*X275130D01*
X275550Y78170D02*X275130Y77750D01*
X275550Y78170D02*Y79730D01*
X275130Y80150D01*
X274350D02*X275130D01*
X273630Y79850D02*X273330Y80150D01*
X272430D02*X273330D01*
X272430D02*X272130Y79850D01*
Y79250D02*Y79850D01*
X273630Y77750D02*X272130Y79250D01*
Y77750D02*X273630D01*
X271410Y79670D02*X270930Y80150D01*
Y77750D02*Y80150D01*
X270510Y77750D02*X271410D01*
X268890Y80150D02*X268590Y79850D01*
X268890Y80150D02*X269490D01*
X269790Y79850D02*X269490Y80150D01*
X269790Y78050D02*Y79850D01*
Y78050D02*X269490Y77750D01*
X268890Y79070D02*X268590Y78770D01*
X268890Y79070D02*X269790D01*
X268890Y77750D02*X269490D01*
X268890D02*X268590Y78050D01*
Y78770D01*
X289702Y81500D02*X290482D01*
X290902Y81920D02*X290482Y81500D01*
X290902Y81920D02*Y83480D01*
X290482Y83900D01*
X289702D02*X290482D01*
X288982Y83600D02*X288682Y83900D01*
X287782D02*X288682D01*
X287782D02*X287482Y83600D01*
Y83000D02*Y83600D01*
X288982Y81500D02*X287482Y83000D01*
Y81500D02*X288982D01*
X286762Y83600D02*X286462Y83900D01*
X285562D02*X286462D01*
X285562D02*X285262Y83600D01*
Y83000D02*Y83600D01*
X286762Y81500D02*X285262Y83000D01*
Y81500D02*X286762D01*
X283642Y83900D02*X283342Y83600D01*
X283642Y83900D02*X284242D01*
X284542Y83600D02*X284242Y83900D01*
X284542Y81800D02*Y83600D01*
Y81800D02*X284242Y81500D01*
X283642Y82820D02*X283342Y82520D01*
X283642Y82820D02*X284542D01*
X283642Y81500D02*X284242D01*
X283642D02*X283342Y81800D01*
Y82520D01*
X321400Y88500D02*X322180D01*
X322600Y88920D02*X322180Y88500D01*
X322600Y88920D02*Y90480D01*
X322180Y90900D01*
X321400D02*X322180D01*
X320680Y90600D02*X320380Y90900D01*
X319480D02*X320380D01*
X319480D02*X319180Y90600D01*
Y90000D02*Y90600D01*
X320680Y88500D02*X319180Y90000D01*
Y88500D02*X320680D01*
X318460Y90420D02*X317980Y90900D01*
Y88500D02*Y90900D01*
X317560Y88500D02*X318460D01*
X316540D02*X315340Y90900D01*
X316840D01*
X311852Y77950D02*Y80350D01*
X310652D02*X311852D01*
X310952Y79270D02*X311852D01*
X308732Y77950D02*X309932D01*
X308732D02*X308432Y78250D01*
Y78970D01*
X308732Y79270D02*X308432Y78970D01*
X308732Y79270D02*X309632D01*
Y77950D02*Y80350D01*
X308732D02*X309932D01*
X308732D02*X308432Y80050D01*
Y79570D02*Y80050D01*
X308732Y79270D02*X308432Y79570D01*
X307712Y79870D02*X307232Y80350D01*
Y77950D02*Y80350D01*
X306812Y77950D02*X307712D01*
X249393Y72850D02*X250173D01*
X250593Y73270D02*X250173Y72850D01*
X250593Y73270D02*Y74830D01*
X250173Y75250D01*
X249393D02*X250173D01*
X248673Y74950D02*X248373Y75250D01*
X247473D02*X248373D01*
X247473D02*X247173Y74950D01*
Y74350D02*Y74950D01*
X248673Y72850D02*X247173Y74350D01*
Y72850D02*X248673D01*
X246453Y74950D02*X246153Y75250D01*
X245253D02*X246153D01*
X245253D02*X244953Y74950D01*
Y74350D02*Y74950D01*
X246453Y72850D02*X244953Y74350D01*
Y72850D02*X246453D01*
X243033Y75250D02*X244233D01*
Y74050D02*Y75250D01*
Y74050D02*X243933Y74350D01*
X243333D02*X243933D01*
X243333D02*X243033Y74050D01*
Y73150D02*Y74050D01*
X243333Y72850D02*X243033Y73150D01*
X243333Y72850D02*X243933D01*
X244233Y73150D02*X243933Y72850D01*
X261159Y75700D02*X262359D01*
X261159D02*X260859Y75400D01*
Y74800D02*Y75400D01*
X261159Y74500D02*X260859Y74800D01*
X261159Y74500D02*X262059D01*
Y73300D02*Y75700D01*
X261579Y74500D02*X260859Y73300D01*
X259839D02*X258939Y74500D01*
Y75400D01*
X259239Y75700D02*X258939Y75400D01*
X259239Y75700D02*X259839D01*
X260139Y75400D02*X259839Y75700D01*
X260139Y74800D02*Y75400D01*
Y74800D02*X259839Y74500D01*
X258939D02*X259839D01*
X257919Y73300D02*X257019Y74500D01*
Y75400D01*
X257319Y75700D02*X257019Y75400D01*
X257319Y75700D02*X257919D01*
X258219Y75400D02*X257919Y75700D01*
X258219Y74800D02*Y75400D01*
Y74800D02*X257919Y74500D01*
X257019D02*X257919D01*
X271376Y264820D02*X272156D01*
X272576Y265240D02*X272156Y264820D01*
X272576Y265240D02*Y266800D01*
X272156Y267220D01*
X271376D02*X272156D01*
X270656Y266740D02*X270176Y267220D01*
Y264820D02*Y267220D01*
X269756Y264820D02*X270656D01*
X268136Y267220D02*X267836Y266920D01*
X268136Y267220D02*X268736D01*
X269036Y266920D02*X268736Y267220D01*
X269036Y265120D02*Y266920D01*
Y265120D02*X268736Y264820D01*
X268136Y266140D02*X267836Y265840D01*
X268136Y266140D02*X269036D01*
X268136Y264820D02*X268736D01*
X268136D02*X267836Y265120D01*
Y265840D01*
X267116Y266920D02*X266816Y267220D01*
X266216D02*X266816D01*
X266216D02*X265916Y266920D01*
X266216Y264820D02*X265916Y265120D01*
X266216Y264820D02*X266816D01*
X267116Y265120D02*X266816Y264820D01*
X266216Y266140D02*X266816D01*
X265916Y266440D02*Y266920D01*
Y265120D02*Y265840D01*
X266216Y266140D01*
X265916Y266440D02*X266216Y266140D01*
X262928Y266474D02*X263708D01*
X264128Y266894D02*X263708Y266474D01*
X264128Y266894D02*Y268454D01*
X263708Y268874D01*
X262928D02*X263708D01*
X262208Y268394D02*X261728Y268874D01*
Y266474D02*Y268874D01*
X261308Y266474D02*X262208D01*
X259688Y268874D02*X259388Y268574D01*
X259688Y268874D02*X260288D01*
X260588Y268574D02*X260288Y268874D01*
X260588Y266774D02*Y268574D01*
Y266774D02*X260288Y266474D01*
X259688Y267794D02*X259388Y267494D01*
X259688Y267794D02*X260588D01*
X259688Y266474D02*X260288D01*
X259688D02*X259388Y266774D01*
Y267494D01*
X258668Y268394D02*X258188Y268874D01*
Y266474D02*Y268874D01*
X257768Y266474D02*X258668D01*
X242398Y245850D02*X243178D01*
X243598Y246270D02*X243178Y245850D01*
X243598Y246270D02*Y247830D01*
X243178Y248250D01*
X242398D02*X243178D01*
X241678Y247770D02*X241198Y248250D01*
Y245850D02*Y248250D01*
X240778Y245850D02*X241678D01*
X240058Y246750D02*X238858Y248250D01*
X238558Y246750D02*X240058D01*
X238858Y245850D02*Y248250D01*
X237838Y247950D02*X237538Y248250D01*
X236938D02*X237538D01*
X236938D02*X236638Y247950D01*
X236938Y245850D02*X236638Y246150D01*
X236938Y245850D02*X237538D01*
X237838Y246150D02*X237538Y245850D01*
X236938Y247170D02*X237538D01*
X236638Y247470D02*Y247950D01*
Y246150D02*Y246870D01*
X236938Y247170D01*
X236638Y247470D02*X236938Y247170D01*
X225335Y251710D02*X226115D01*
X226535Y252130D02*X226115Y251710D01*
X226535Y252130D02*Y253690D01*
X226115Y254110D01*
X225335D02*X226115D01*
X224615Y253630D02*X224135Y254110D01*
Y251710D02*Y254110D01*
X223715Y251710D02*X224615D01*
X222995Y252610D02*X221795Y254110D01*
X221495Y252610D02*X222995D01*
X221795Y251710D02*Y254110D01*
X220475Y251710D02*X219275Y254110D01*
X220775D01*
X239056Y239670D02*X239836D01*
X240256Y240090D02*X239836Y239670D01*
X240256Y240090D02*Y241650D01*
X239836Y242070D01*
X239056D02*X239836D01*
X238336Y241590D02*X237856Y242070D01*
Y239670D02*Y242070D01*
X237436Y239670D02*X238336D01*
X235816Y242070D02*X235516Y241770D01*
X235816Y242070D02*X236416D01*
X236716Y241770D02*X236416Y242070D01*
X236716Y239970D02*Y241770D01*
Y239970D02*X236416Y239670D01*
X235816Y240990D02*X235516Y240690D01*
X235816Y240990D02*X236716D01*
X235816Y239670D02*X236416D01*
X235816D02*X235516Y239970D01*
Y240690D01*
X234796Y241770D02*X234496Y242070D01*
X233596D02*X234496D01*
X233596D02*X233296Y241770D01*
Y241170D02*Y241770D01*
X234796Y239670D02*X233296Y241170D01*
Y239670D02*X234796D01*
X258091Y245069D02*X258871D01*
X259291Y245489D02*X258871Y245069D01*
X259291Y245489D02*Y247049D01*
X258871Y247469D01*
X258091D02*X258871D01*
X257371Y246989D02*X256891Y247469D01*
Y245069D02*Y247469D01*
X256471Y245069D02*X257371D01*
X255751Y245969D02*X254551Y247469D01*
X254251Y245969D02*X255751D01*
X254551Y245069D02*Y247469D01*
X253531Y245369D02*X253231Y245069D01*
X253531Y245369D02*Y245849D01*
X253111Y246269D01*
X252751D02*X253111D01*
X252751D02*X252331Y245849D01*
Y245369D02*Y245849D01*
X252631Y245069D02*X252331Y245369D01*
X252631Y245069D02*X253231D01*
X253531Y246689D02*X253111Y246269D01*
X253531Y246689D02*Y247169D01*
X253231Y247469D01*
X252631D02*X253231D01*
X252631D02*X252331Y247169D01*
Y246689D02*Y247169D01*
X252751Y246269D02*X252331Y246689D01*
X209923Y245604D02*X210703D01*
X211123Y246024D02*X210703Y245604D01*
X211123Y246024D02*Y247584D01*
X210703Y248004D01*
X209923D02*X210703D01*
X209203Y247524D02*X208723Y248004D01*
Y245604D02*Y248004D01*
X208303Y245604D02*X209203D01*
X206383Y248004D02*X207583D01*
Y246804D02*Y248004D01*
Y246804D02*X207283Y247104D01*
X206683D02*X207283D01*
X206683D02*X206383Y246804D01*
Y245904D02*Y246804D01*
X206683Y245604D02*X206383Y245904D01*
X206683Y245604D02*X207283D01*
X207583Y245904D02*X207283Y245604D01*
X205363D02*X204463Y246804D01*
Y247704D01*
X204763Y248004D02*X204463Y247704D01*
X204763Y248004D02*X205363D01*
X205663Y247704D02*X205363Y248004D01*
X205663Y247104D02*Y247704D01*
Y247104D02*X205363Y246804D01*
X204463D02*X205363D01*
X290486Y246966D02*X291266D01*
X291686Y247386D02*X291266Y246966D01*
X291686Y247386D02*Y248946D01*
X291266Y249366D01*
X290486D02*X291266D01*
X289766Y248886D02*X289286Y249366D01*
Y246966D02*Y249366D01*
X288866Y246966D02*X289766D01*
X287246Y249366D02*X286946Y249066D01*
X287246Y249366D02*X287846D01*
X288146Y249066D02*X287846Y249366D01*
X288146Y247266D02*Y249066D01*
Y247266D02*X287846Y246966D01*
X287246Y248286D02*X286946Y247986D01*
X287246Y248286D02*X288146D01*
X287246Y246966D02*X287846D01*
X287246D02*X286946Y247266D01*
Y247986D01*
X285026Y249366D02*X286226D01*
Y248166D02*Y249366D01*
Y248166D02*X285926Y248466D01*
X285326D02*X285926D01*
X285326D02*X285026Y248166D01*
Y247266D02*Y248166D01*
X285326Y246966D02*X285026Y247266D01*
X285326Y246966D02*X285926D01*
X286226Y247266D02*X285926Y246966D01*
X290788Y257649D02*X291568D01*
X291988Y258069D02*X291568Y257649D01*
X291988Y258069D02*Y259629D01*
X291568Y260049D01*
X290788D02*X291568D01*
X290068Y259569D02*X289588Y260049D01*
Y257649D02*Y260049D01*
X289168Y257649D02*X290068D01*
X287548Y260049D02*X287248Y259749D01*
X287548Y260049D02*X288148D01*
X288448Y259749D02*X288148Y260049D01*
X288448Y257949D02*Y259749D01*
Y257949D02*X288148Y257649D01*
X287548Y258969D02*X287248Y258669D01*
X287548Y258969D02*X288448D01*
X287548Y257649D02*X288148D01*
X287548D02*X287248Y257949D01*
Y258669D01*
X286528Y258549D02*X285328Y260049D01*
X285028Y258549D02*X286528D01*
X285328Y257649D02*Y260049D01*
X225428Y264491D02*X226208D01*
X226628Y264911D02*X226208Y264491D01*
X226628Y264911D02*Y266471D01*
X226208Y266891D01*
X225428D02*X226208D01*
X224708Y266411D02*X224228Y266891D01*
Y264491D02*Y266891D01*
X223808Y264491D02*X224708D01*
X221888Y266891D02*X223088D01*
Y265691D02*Y266891D01*
Y265691D02*X222788Y265991D01*
X222188D02*X222788D01*
X222188D02*X221888Y265691D01*
Y264791D02*Y265691D01*
X222188Y264491D02*X221888Y264791D01*
X222188Y264491D02*X222788D01*
X223088Y264791D02*X222788Y264491D01*
X221168Y266591D02*X220868Y266891D01*
X219968D02*X220868D01*
X219968D02*X219668Y266591D01*
Y265991D02*Y266591D01*
X221168Y264491D02*X219668Y265991D01*
Y264491D02*X221168D01*
X237377Y266074D02*X238157D01*
X238577Y266494D02*X238157Y266074D01*
X238577Y266494D02*Y268054D01*
X238157Y268474D01*
X237377D02*X238157D01*
X236657Y267994D02*X236177Y268474D01*
Y266074D02*Y268474D01*
X235757Y266074D02*X236657D01*
X233837Y268474D02*X235037D01*
Y267274D02*Y268474D01*
Y267274D02*X234737Y267574D01*
X234137D02*X234737D01*
X234137D02*X233837Y267274D01*
Y266374D02*Y267274D01*
X234137Y266074D02*X233837Y266374D01*
X234137Y266074D02*X234737D01*
X235037Y266374D02*X234737Y266074D01*
X233117Y267994D02*X232637Y268474D01*
Y266074D02*Y268474D01*
X232217Y266074D02*X233117D01*
X215211Y264600D02*X215991D01*
X216411Y265020D02*X215991Y264600D01*
X216411Y265020D02*Y266580D01*
X215991Y267000D01*
X215211D02*X215991D01*
X214491Y266520D02*X214011Y267000D01*
Y264600D02*Y267000D01*
X213591Y264600D02*X214491D01*
X211671Y267000D02*X212871D01*
Y265800D02*Y267000D01*
Y265800D02*X212571Y266100D01*
X211971D02*X212571D01*
X211971D02*X211671Y265800D01*
Y264900D02*Y265800D01*
X211971Y264600D02*X211671Y264900D01*
X211971Y264600D02*X212571D01*
X212871Y264900D02*X212571Y264600D01*
X210951Y264900D02*X210651Y264600D01*
X210951Y264900D02*Y266700D01*
X210651Y267000D01*
X210051D02*X210651D01*
X210051D02*X209751Y266700D01*
Y264900D02*Y266700D01*
X210051Y264600D02*X209751Y264900D01*
X210051Y264600D02*X210651D01*
X210951Y265200D02*X209751Y266400D01*
X271200Y329400D02*X271980D01*
X272400Y329820D02*X271980Y329400D01*
X272400Y329820D02*Y331380D01*
X271980Y331800D01*
X271200D02*X271980D01*
X270480Y331320D02*X270000Y331800D01*
Y329400D02*Y331800D01*
X269580Y329400D02*X270480D01*
X268560D02*X267660Y330600D01*
Y331500D01*
X267960Y331800D02*X267660Y331500D01*
X267960Y331800D02*X268560D01*
X268860Y331500D02*X268560Y331800D01*
X268860Y330900D02*Y331500D01*
Y330900D02*X268560Y330600D01*
X267660D02*X268560D01*
X266640Y329400D02*X265440Y331800D01*
X266940D01*
X307200Y328178D02*X307980D01*
X308400Y328598D02*X307980Y328178D01*
X308400Y328598D02*Y330158D01*
X307980Y330578D01*
X307200D02*X307980D01*
X306480Y330098D02*X306000Y330578D01*
Y328178D02*Y330578D01*
X305580Y328178D02*X306480D01*
X304560D02*X303660Y329378D01*
Y330278D01*
X303960Y330578D02*X303660Y330278D01*
X303960Y330578D02*X304560D01*
X304860Y330278D02*X304560Y330578D01*
X304860Y329678D02*Y330278D01*
Y329678D02*X304560Y329378D01*
X303660D02*X304560D01*
X302640Y328178D02*X301740Y329378D01*
Y330278D01*
X302040Y330578D02*X301740Y330278D01*
X302040Y330578D02*X302640D01*
X302940Y330278D02*X302640Y330578D01*
X302940Y329678D02*Y330278D01*
Y329678D02*X302640Y329378D01*
X301740D02*X302640D01*
X129900Y104900D02*Y107300D01*
X128700D02*X129900D01*
X129000Y106220D02*X129900D01*
X126780Y104900D02*X127980D01*
X126780D02*X126480Y105200D01*
Y105920D01*
X126780Y106220D02*X126480Y105920D01*
X126780Y106220D02*X127680D01*
Y104900D02*Y107300D01*
X126780D02*X127980D01*
X126780D02*X126480Y107000D01*
Y106520D02*Y107000D01*
X126780Y106220D02*X126480Y106520D01*
X125460Y104900D02*X124560Y106100D01*
Y107000D01*
X124860Y107300D02*X124560Y107000D01*
X124860Y107300D02*X125460D01*
X125760Y107000D02*X125460Y107300D01*
X125760Y106400D02*Y107000D01*
Y106400D02*X125460Y106100D01*
X124560D02*X125460D01*
X124826Y39826D02*Y42226D01*
X123626D02*X124826D01*
X123926Y41146D02*X124826D01*
X121706Y39826D02*X122906D01*
X121706D02*X121406Y40126D01*
Y40846D01*
X121706Y41146D02*X121406Y40846D01*
X121706Y41146D02*X122606D01*
Y39826D02*Y42226D01*
X121706D02*X122906D01*
X121706D02*X121406Y41926D01*
Y41446D02*Y41926D01*
X121706Y41146D02*X121406Y41446D01*
X120686Y40726D02*X119486Y42226D01*
X119186Y40726D02*X120686D01*
X119486Y39826D02*Y42226D01*
X126700Y340600D02*Y343000D01*
X125500D02*X126700D01*
X125800Y341920D02*X126700D01*
X123580Y340600D02*X124780D01*
X123580D02*X123280Y340900D01*
Y341620D01*
X123580Y341920D02*X123280Y341620D01*
X123580Y341920D02*X124480D01*
Y340600D02*Y343000D01*
X123580D02*X124780D01*
X123580D02*X123280Y342700D01*
Y342220D02*Y342700D01*
X123580Y341920D02*X123280Y342220D01*
X122560Y342520D02*X122080Y343000D01*
Y340600D02*Y343000D01*
X121660Y340600D02*X122560D01*
X120940Y342520D02*X120460Y343000D01*
Y340600D02*Y343000D01*
X120040Y340600D02*X120940D01*
X127000Y214000D02*Y216400D01*
X125800D02*X127000D01*
X126100Y215320D02*X127000D01*
X123880Y214000D02*X125080D01*
X123880D02*X123580Y214300D01*
Y215020D01*
X123880Y215320D02*X123580Y215020D01*
X123880Y215320D02*X124780D01*
Y214000D02*Y216400D01*
X123880D02*X125080D01*
X123880D02*X123580Y216100D01*
Y215620D02*Y216100D01*
X123880Y215320D02*X123580Y215620D01*
X122860Y215920D02*X122380Y216400D01*
Y214000D02*Y216400D01*
X121960Y214000D02*X122860D01*
X121240Y216100D02*X120940Y216400D01*
X120340D02*X120940D01*
X120340D02*X120040Y216100D01*
X120340Y214000D02*X120040Y214300D01*
X120340Y214000D02*X120940D01*
X121240Y214300D02*X120940Y214000D01*
X120340Y215320D02*X120940D01*
X120040Y215620D02*Y216100D01*
Y214300D02*Y215020D01*
X120340Y215320D01*
X120040Y215620D02*X120340Y215320D01*
X127500Y280600D02*Y283000D01*
X126300D02*X127500D01*
X126600Y281920D02*X127500D01*
X124380Y280600D02*X125580D01*
X124380D02*X124080Y280900D01*
Y281620D01*
X124380Y281920D02*X124080Y281620D01*
X124380Y281920D02*X125280D01*
Y280600D02*Y283000D01*
X124380D02*X125580D01*
X124380D02*X124080Y282700D01*
Y282220D02*Y282700D01*
X124380Y281920D02*X124080Y282220D01*
X123360Y282520D02*X122880Y283000D01*
Y280600D02*Y283000D01*
X122460Y280600D02*X123360D01*
X121740Y282700D02*X121440Y283000D01*
X120540D02*X121440D01*
X120540D02*X120240Y282700D01*
Y282100D02*Y282700D01*
X121740Y280600D02*X120240Y282100D01*
Y280600D02*X121740D01*
X163288Y84672D02*X164068D01*
X164488Y85092D02*X164068Y84672D01*
X164488Y85092D02*Y86652D01*
X164068Y87072D01*
X163288D02*X164068D01*
X161668D02*X161368Y86772D01*
X161668Y87072D02*X162268D01*
X162568Y86772D02*X162268Y87072D01*
X162568Y84972D02*Y86772D01*
Y84972D02*X162268Y84672D01*
X161668Y85992D02*X161368Y85692D01*
X161668Y85992D02*X162568D01*
X161668Y84672D02*X162268D01*
X161668D02*X161368Y84972D01*
Y85692D01*
X159448Y87072D02*X160648D01*
Y85872D02*Y87072D01*
Y85872D02*X160348Y86172D01*
X159748D02*X160348D01*
X159748D02*X159448Y85872D01*
Y84972D02*Y85872D01*
X159748Y84672D02*X159448Y84972D01*
X159748Y84672D02*X160348D01*
X160648Y84972D02*X160348Y84672D01*
X182300Y74400D02*X183080D01*
X183500Y74820D02*X183080Y74400D01*
X183500Y74820D02*Y76380D01*
X183080Y76800D01*
X182300D02*X183080D01*
X180680D02*X180380Y76500D01*
X180680Y76800D02*X181280D01*
X181580Y76500D02*X181280Y76800D01*
X181580Y74700D02*Y76500D01*
Y74700D02*X181280Y74400D01*
X180680Y75720D02*X180380Y75420D01*
X180680Y75720D02*X181580D01*
X180680Y74400D02*X181280D01*
X180680D02*X180380Y74700D01*
Y75420D01*
X179660Y76500D02*X179360Y76800D01*
X178760D02*X179360D01*
X178760D02*X178460Y76500D01*
X178760Y74400D02*X178460Y74700D01*
X178760Y74400D02*X179360D01*
X179660Y74700D02*X179360Y74400D01*
X178760Y75720D02*X179360D01*
X178460Y76020D02*Y76500D01*
Y74700D02*Y75420D01*
X178760Y75720D01*
X178460Y76020D02*X178760Y75720D01*
X181900Y70900D02*X182680D01*
X183100Y71320D02*X182680Y70900D01*
X183100Y71320D02*Y72880D01*
X182680Y73300D01*
X181900D02*X182680D01*
X179980D02*X181180D01*
Y72100D02*Y73300D01*
Y72100D02*X180880Y72400D01*
X180280D02*X180880D01*
X180280D02*X179980Y72100D01*
Y71200D02*Y72100D01*
X180280Y70900D02*X179980Y71200D01*
X180280Y70900D02*X180880D01*
X181180Y71200D02*X180880Y70900D01*
X178960D02*X178060Y72100D01*
Y73000D01*
X178360Y73300D02*X178060Y73000D01*
X178360Y73300D02*X178960D01*
X179260Y73000D02*X178960Y73300D01*
X179260Y72400D02*Y73000D01*
Y72400D02*X178960Y72100D01*
X178060D02*X178960D01*
X142278Y40326D02*Y42726D01*
X141078D02*X142278D01*
X141378Y41646D02*X142278D01*
X139158Y40326D02*X140358D01*
X139158D02*X138858Y40626D01*
Y41346D01*
X139158Y41646D02*X138858Y41346D01*
X139158Y41646D02*X140058D01*
Y40326D02*Y42726D01*
X139158D02*X140358D01*
X139158D02*X138858Y42426D01*
Y41946D02*Y42426D01*
X139158Y41646D02*X138858Y41946D01*
X136938Y42726D02*X138138D01*
Y41526D02*Y42726D01*
Y41526D02*X137838Y41826D01*
X137238D02*X137838D01*
X137238D02*X136938Y41526D01*
Y40626D02*Y41526D01*
X137238Y40326D02*X136938Y40626D01*
X137238Y40326D02*X137838D01*
X138138Y40626D02*X137838Y40326D01*
X215574Y100800D02*X216774D01*
X215574D02*X215274Y100500D01*
Y99900D02*Y100500D01*
X215574Y99600D02*X215274Y99900D01*
X215574Y99600D02*X216474D01*
Y98400D02*Y100800D01*
X215994Y99600D02*X215274Y98400D01*
X214554Y100320D02*X214074Y100800D01*
Y98400D02*Y100800D01*
X213654Y98400D02*X214554D01*
X212934Y98700D02*X212634Y98400D01*
X212934Y98700D02*Y100500D01*
X212634Y100800D01*
X212034D02*X212634D01*
X212034D02*X211734Y100500D01*
Y98700D02*Y100500D01*
X212034Y98400D02*X211734Y98700D01*
X212034Y98400D02*X212634D01*
X212934Y99000D02*X211734Y100200D01*
X210114Y100800D02*X209814Y100500D01*
X210114Y100800D02*X210714D01*
X211014Y100500D02*X210714Y100800D01*
X211014Y98700D02*Y100500D01*
Y98700D02*X210714Y98400D01*
X210114Y99720D02*X209814Y99420D01*
X210114Y99720D02*X211014D01*
X210114Y98400D02*X210714D01*
X210114D02*X209814Y98700D01*
Y99420D01*
X169600Y108300D02*Y110700D01*
X168400D02*X169600D01*
X168700Y109620D02*X169600D01*
X166480Y108300D02*X167680D01*
X166480D02*X166180Y108600D01*
Y109320D01*
X166480Y109620D02*X166180Y109320D01*
X166480Y109620D02*X167380D01*
Y108300D02*Y110700D01*
X166480D02*X167680D01*
X166480D02*X166180Y110400D01*
Y109920D02*Y110400D01*
X166480Y109620D02*X166180Y109920D01*
X165160Y108300D02*X163960Y110700D01*
X165460D01*
X209945Y219463D02*X210725D01*
X211145Y219883D02*X210725Y219463D01*
X211145Y219883D02*Y221443D01*
X210725Y221863D01*
X209945D02*X210725D01*
X209225Y221383D02*X208745Y221863D01*
Y219463D02*Y221863D01*
X208325Y219463D02*X209225D01*
X206705Y221863D02*X206405Y221563D01*
X206705Y221863D02*X207305D01*
X207605Y221563D02*X207305Y221863D01*
X207605Y219763D02*Y221563D01*
Y219763D02*X207305Y219463D01*
X206705Y220783D02*X206405Y220483D01*
X206705Y220783D02*X207605D01*
X206705Y219463D02*X207305D01*
X206705D02*X206405Y219763D01*
Y220483D01*
X205685Y219763D02*X205385Y219463D01*
X205685Y219763D02*Y221563D01*
X205385Y221863D01*
X204785D02*X205385D01*
X204785D02*X204485Y221563D01*
Y219763D02*Y221563D01*
X204785Y219463D02*X204485Y219763D01*
X204785Y219463D02*X205385D01*
X205685Y220063D02*X204485Y221263D01*
X210069Y234404D02*X210849D01*
X211269Y234824D02*X210849Y234404D01*
X211269Y234824D02*Y236384D01*
X210849Y236804D01*
X210069D02*X210849D01*
X209349Y236324D02*X208869Y236804D01*
Y234404D02*Y236804D01*
X208449Y234404D02*X209349D01*
X206529Y236804D02*X207729D01*
Y235604D02*Y236804D01*
Y235604D02*X207429Y235904D01*
X206829D02*X207429D01*
X206829D02*X206529Y235604D01*
Y234704D02*Y235604D01*
X206829Y234404D02*X206529Y234704D01*
X206829Y234404D02*X207429D01*
X207729Y234704D02*X207429Y234404D01*
X205509D02*X204309Y236804D01*
X205809D01*
X219721Y192062D02*X220501D01*
X220921Y192482D02*X220501Y192062D01*
X220921Y192482D02*Y194042D01*
X220501Y194462D01*
X219721D02*X220501D01*
X219001Y193982D02*X218521Y194462D01*
Y192062D02*Y194462D01*
X218101Y192062D02*X219001D01*
X216181Y194462D02*X217381D01*
Y193262D02*Y194462D01*
Y193262D02*X217081Y193562D01*
X216481D02*X217081D01*
X216481D02*X216181Y193262D01*
Y192362D02*Y193262D01*
X216481Y192062D02*X216181Y192362D01*
X216481Y192062D02*X217081D01*
X217381Y192362D02*X217081Y192062D01*
X215461Y192362D02*X215161Y192062D01*
X215461Y192362D02*Y192842D01*
X215041Y193262D01*
X214681D02*X215041D01*
X214681D02*X214261Y192842D01*
Y192362D02*Y192842D01*
X214561Y192062D02*X214261Y192362D01*
X214561Y192062D02*X215161D01*
X215461Y193682D02*X215041Y193262D01*
X215461Y193682D02*Y194162D01*
X215161Y194462D01*
X214561D02*X215161D01*
X214561D02*X214261Y194162D01*
Y193682D02*Y194162D01*
X214681Y193262D02*X214261Y193682D01*
M02*
