G04 start of page 3 for group 1 idx 3 *
G04 Title: GNSS Firehose, solder *
G04 Creator: pcb 20140316 *
G04 CreationDate: Sat 09 May 2015 05:26:53 AM GMT UTC *
G04 For: pmonta *
G04 Format: Gerber/RS-274X *
G04 PCB-Dimensions (mil): 4640.00 3900.00 *
G04 PCB-Coordinate-Origin: lower left *
%MOIN*%
%FSLAX25Y25*%
%LNBOTTOM*%
%ADD89C,0.1280*%
%ADD88C,0.0350*%
%ADD87C,0.0500*%
%ADD86C,0.0960*%
%ADD85C,0.0900*%
%ADD84C,0.0630*%
%ADD83C,0.1000*%
%ADD82C,0.0354*%
%ADD81C,0.0420*%
%ADD80C,0.0120*%
%ADD79C,0.0220*%
%ADD78R,0.1200X0.1200*%
%ADD77R,0.0200X0.0200*%
%ADD76C,0.0394*%
%ADD75R,0.0295X0.0295*%
%ADD74R,0.0512X0.0512*%
%ADD73C,0.1480*%
%ADD72C,0.0550*%
%ADD71C,0.0820*%
%ADD70C,0.0700*%
%ADD69C,0.1800*%
%ADD68C,0.1300*%
%ADD67C,0.1100*%
%ADD66C,0.0830*%
%ADD65C,0.1200*%
%ADD64C,0.0554*%
%ADD63C,0.0620*%
%ADD62C,0.0800*%
%ADD61C,0.0100*%
%ADD60C,0.0180*%
%ADD59C,0.0060*%
%ADD58C,0.0001*%
G54D58*G36*
X274997Y292003D02*X279000Y288000D01*
Y260895D01*
X277843Y260891D01*
X277690Y260854D01*
X277545Y260794D01*
X277410Y260712D01*
X277291Y260609D01*
X277188Y260490D01*
X277106Y260355D01*
X277046Y260210D01*
X277009Y260057D01*
X277000Y259900D01*
X277009Y257743D01*
X277046Y257590D01*
X277106Y257445D01*
X277188Y257310D01*
X277291Y257191D01*
X277410Y257088D01*
X277545Y257006D01*
X277607Y256980D01*
X277481Y256774D01*
X277378Y256527D01*
X277316Y256267D01*
X277295Y256000D01*
X277316Y255733D01*
X277378Y255473D01*
X277481Y255226D01*
X277620Y254998D01*
X277794Y254794D01*
X277998Y254620D01*
X278226Y254481D01*
X278473Y254378D01*
X278733Y254316D01*
X279000Y254295D01*
Y250196D01*
X277669Y250191D01*
X277516Y250154D01*
X277371Y250094D01*
X277236Y250012D01*
X277117Y249909D01*
X277014Y249790D01*
X276932Y249655D01*
X276872Y249510D01*
X276835Y249357D01*
X276826Y249200D01*
X276835Y247043D01*
X276872Y246890D01*
X276932Y246745D01*
X277014Y246610D01*
X277117Y246491D01*
X277236Y246388D01*
X277371Y246306D01*
X277492Y246256D01*
X277381Y246074D01*
X277278Y245827D01*
X277216Y245567D01*
X277195Y245300D01*
X277216Y245033D01*
X277278Y244773D01*
X277381Y244526D01*
X277520Y244298D01*
X277694Y244094D01*
X277898Y243920D01*
X278126Y243781D01*
X278373Y243678D01*
X278633Y243616D01*
X278900Y243595D01*
X279000Y243603D01*
Y242500D01*
X274997D01*
Y263047D01*
X275127Y263078D01*
X275374Y263181D01*
X275602Y263320D01*
X275806Y263494D01*
X275980Y263698D01*
X276119Y263926D01*
X276222Y264173D01*
X276284Y264433D01*
X276300Y264700D01*
X276284Y264967D01*
X276222Y265227D01*
X276119Y265474D01*
X275980Y265702D01*
X275806Y265906D01*
X275602Y266080D01*
X275374Y266219D01*
X275127Y266322D01*
X274997Y266353D01*
Y286195D01*
X275000Y286195D01*
X275267Y286216D01*
X275527Y286278D01*
X275774Y286381D01*
X276002Y286520D01*
X276206Y286694D01*
X276380Y286898D01*
X276519Y287126D01*
X276622Y287373D01*
X276684Y287633D01*
X276700Y287900D01*
X276684Y288167D01*
X276622Y288427D01*
X276519Y288674D01*
X276380Y288902D01*
X276206Y289106D01*
X276002Y289280D01*
X275774Y289419D01*
X275527Y289522D01*
X275267Y289584D01*
X275000Y289605D01*
X274997Y289605D01*
Y292003D01*
G37*
G36*
X267809Y257402D02*X267809Y257343D01*
X267846Y257190D01*
X267906Y257045D01*
X267988Y256910D01*
X268091Y256791D01*
X268210Y256688D01*
X268345Y256606D01*
X268490Y256546D01*
X268643Y256509D01*
X268800Y256500D01*
X270957Y256509D01*
X271110Y256546D01*
X271255Y256606D01*
X271390Y256688D01*
X271509Y256791D01*
X271612Y256910D01*
X271694Y257045D01*
X271754Y257190D01*
X271791Y257343D01*
X271800Y257500D01*
X271791Y259857D01*
X271754Y260010D01*
X271694Y260155D01*
X271612Y260290D01*
X271509Y260409D01*
X271403Y260500D01*
X271509Y260591D01*
X271612Y260710D01*
X271694Y260845D01*
X271754Y260990D01*
X271791Y261143D01*
X271800Y261300D01*
X271791Y263657D01*
X271754Y263810D01*
X271694Y263955D01*
X271612Y264090D01*
X271509Y264209D01*
X271390Y264312D01*
X271255Y264394D01*
X271110Y264454D01*
X270957Y264491D01*
X270800Y264500D01*
X268643Y264491D01*
X268490Y264454D01*
X268345Y264394D01*
X268210Y264312D01*
X268091Y264209D01*
X267988Y264090D01*
X267906Y263955D01*
X267846Y263810D01*
X267809Y263657D01*
X267806Y263600D01*
X267774Y263619D01*
X267527Y263722D01*
X267267Y263784D01*
X267000Y263805D01*
X266733Y263784D01*
X266500Y263728D01*
Y288000D01*
X251500Y303000D01*
Y359000D01*
X264000D01*
Y334852D01*
X263873Y334822D01*
X263626Y334719D01*
X263398Y334580D01*
X263194Y334406D01*
X263020Y334202D01*
X262881Y333974D01*
X262778Y333727D01*
X262716Y333467D01*
X262695Y333200D01*
X262716Y332933D01*
X262778Y332673D01*
X262881Y332426D01*
X263020Y332198D01*
X263194Y331994D01*
X263398Y331820D01*
X263626Y331681D01*
X263873Y331578D01*
X264000Y331548D01*
Y303000D01*
X274997Y292003D01*
Y289605D01*
X274733Y289584D01*
X274473Y289522D01*
X274226Y289419D01*
X273998Y289280D01*
X273794Y289106D01*
X273620Y288902D01*
X273481Y288674D01*
X273378Y288427D01*
X273316Y288167D01*
X273295Y287900D01*
X273316Y287633D01*
X273378Y287373D01*
X273481Y287126D01*
X273620Y286898D01*
X273794Y286694D01*
X273998Y286520D01*
X274226Y286381D01*
X274473Y286278D01*
X274733Y286216D01*
X274997Y286195D01*
Y266353D01*
X274867Y266384D01*
X274600Y266405D01*
X274333Y266384D01*
X274073Y266322D01*
X273826Y266219D01*
X273598Y266080D01*
X273394Y265906D01*
X273220Y265702D01*
X273081Y265474D01*
X272978Y265227D01*
X272916Y264967D01*
X272895Y264700D01*
X272916Y264433D01*
X272978Y264173D01*
X273081Y263926D01*
X273220Y263698D01*
X273394Y263494D01*
X273598Y263320D01*
X273826Y263181D01*
X274073Y263078D01*
X274333Y263016D01*
X274600Y262995D01*
X274867Y263016D01*
X274997Y263047D01*
Y242500D01*
X266500D01*
Y257272D01*
X266733Y257216D01*
X267000Y257195D01*
X267267Y257216D01*
X267527Y257278D01*
X267774Y257381D01*
X267809Y257402D01*
G37*
G36*
X222100Y359300D02*X263200D01*
Y347600D01*
X241604D01*
X241480Y347802D01*
X241306Y348006D01*
X241102Y348180D01*
X240874Y348319D01*
X240627Y348422D01*
X240367Y348484D01*
X240100Y348505D01*
X239833Y348484D01*
X239573Y348422D01*
X239326Y348319D01*
X239098Y348180D01*
X238894Y348006D01*
X238720Y347802D01*
X238596Y347600D01*
X234242D01*
X234180Y347702D01*
X234006Y347906D01*
X233802Y348080D01*
X233574Y348219D01*
X233327Y348322D01*
X233067Y348384D01*
X232800Y348405D01*
X232533Y348384D01*
X232273Y348322D01*
X232026Y348219D01*
X231798Y348080D01*
X231594Y347906D01*
X231420Y347702D01*
X231358Y347600D01*
X222100D01*
Y359300D01*
G37*
G36*
X320900Y327300D02*X352800D01*
Y319500D01*
X320900D01*
Y327300D01*
G37*
G36*
X228400Y162900D02*X242500D01*
Y143780D01*
X242419Y143974D01*
X242280Y144202D01*
X242106Y144406D01*
X241902Y144580D01*
X241674Y144719D01*
X241427Y144822D01*
X241167Y144884D01*
X240900Y144905D01*
X240633Y144884D01*
X240373Y144822D01*
X240126Y144719D01*
X239898Y144580D01*
X239694Y144406D01*
X239520Y144202D01*
X239381Y143974D01*
X239278Y143727D01*
X239216Y143467D01*
X239195Y143200D01*
X239216Y142933D01*
X239278Y142673D01*
X239373Y142445D01*
X237941Y142443D01*
X237788Y142406D01*
X237643Y142346D01*
X237508Y142264D01*
X237389Y142161D01*
X237286Y142042D01*
X237204Y141907D01*
X237144Y141762D01*
X237107Y141609D01*
X237098Y141452D01*
X237107Y135391D01*
X237144Y135238D01*
X237204Y135093D01*
X237286Y134958D01*
X237389Y134839D01*
X237508Y134736D01*
X237643Y134654D01*
X237788Y134594D01*
X237941Y134557D01*
X238098Y134548D01*
X242500Y134556D01*
Y132700D01*
X228400D01*
Y162900D01*
G37*
G36*
X237197Y207200D02*X242500D01*
Y206542D01*
X242374Y206619D01*
X242127Y206722D01*
X241867Y206784D01*
X241600Y206805D01*
X241333Y206784D01*
X241073Y206722D01*
X240826Y206619D01*
X240598Y206480D01*
X240394Y206306D01*
X240220Y206102D01*
X240081Y205874D01*
X239978Y205627D01*
X239916Y205367D01*
X239895Y205100D01*
X239916Y204833D01*
X239978Y204573D01*
X240067Y204360D01*
X240042Y204354D01*
X239897Y204294D01*
X239762Y204212D01*
X239643Y204109D01*
X239540Y203990D01*
X239458Y203855D01*
X239398Y203710D01*
X239361Y203557D01*
X239352Y203400D01*
X239361Y201243D01*
X239398Y201090D01*
X239458Y200945D01*
X239540Y200810D01*
X239643Y200691D01*
X239762Y200588D01*
X239897Y200506D01*
X240042Y200446D01*
X240195Y200409D01*
X240352Y200400D01*
X242500Y200408D01*
Y199404D01*
X242298Y199280D01*
X242094Y199106D01*
X241920Y198902D01*
X241781Y198674D01*
X241678Y198427D01*
X241616Y198167D01*
X241595Y197900D01*
X241616Y197633D01*
X241678Y197373D01*
X241781Y197126D01*
X241920Y196898D01*
X242094Y196694D01*
X242298Y196520D01*
X242500Y196396D01*
Y162400D01*
X237197D01*
Y189995D01*
X237200Y189995D01*
X237467Y190016D01*
X237727Y190078D01*
X237974Y190181D01*
X238202Y190320D01*
X238406Y190494D01*
X238580Y190698D01*
X238719Y190926D01*
X238822Y191173D01*
X238884Y191433D01*
X238900Y191700D01*
X238884Y191967D01*
X238822Y192227D01*
X238719Y192474D01*
X238580Y192702D01*
X238406Y192906D01*
X238202Y193080D01*
X237974Y193219D01*
X237727Y193322D01*
X237467Y193384D01*
X237200Y193405D01*
X237197Y193405D01*
Y207200D01*
G37*
G36*
X232500Y199500D02*X230343Y199491D01*
X230190Y199454D01*
X230045Y199394D01*
X229910Y199312D01*
X229791Y199209D01*
X229688Y199090D01*
X229606Y198955D01*
X229588Y198911D01*
X229574Y198919D01*
X229327Y199022D01*
X229067Y199084D01*
X228800Y199105D01*
X228533Y199084D01*
X228400Y199052D01*
Y207200D01*
X237197D01*
Y193405D01*
X236933Y193384D01*
X236673Y193322D01*
X236426Y193219D01*
X236198Y193080D01*
X235994Y192906D01*
X235820Y192702D01*
X235681Y192474D01*
X235578Y192227D01*
X235516Y191967D01*
X235495Y191700D01*
X235516Y191433D01*
X235578Y191173D01*
X235681Y190926D01*
X235820Y190698D01*
X235994Y190494D01*
X236198Y190320D01*
X236426Y190181D01*
X236673Y190078D01*
X236933Y190016D01*
X237197Y189995D01*
Y162400D01*
X228400D01*
Y191948D01*
X228533Y191916D01*
X228800Y191895D01*
X229067Y191916D01*
X229327Y191978D01*
X229574Y192081D01*
X229588Y192089D01*
X229606Y192045D01*
X229688Y191910D01*
X229791Y191791D01*
X229910Y191688D01*
X230045Y191606D01*
X230190Y191546D01*
X230343Y191509D01*
X230500Y191500D01*
X232657Y191509D01*
X232810Y191546D01*
X232955Y191606D01*
X233090Y191688D01*
X233209Y191791D01*
X233312Y191910D01*
X233394Y192045D01*
X233454Y192190D01*
X233491Y192343D01*
X233500Y192500D01*
X233491Y194857D01*
X233454Y195010D01*
X233394Y195155D01*
X233312Y195290D01*
X233209Y195409D01*
X233103Y195500D01*
X233209Y195591D01*
X233312Y195710D01*
X233394Y195845D01*
X233454Y195990D01*
X233491Y196143D01*
X233500Y196300D01*
X233491Y198657D01*
X233454Y198810D01*
X233394Y198955D01*
X233312Y199090D01*
X233209Y199209D01*
X233090Y199312D01*
X232955Y199394D01*
X232810Y199454D01*
X232657Y199491D01*
X232500Y199500D01*
G37*
G36*
X228400Y86700D02*Y98850D01*
X228474Y98881D01*
X228702Y99020D01*
X228906Y99194D01*
X229080Y99398D01*
X229219Y99626D01*
X229322Y99873D01*
X229384Y100133D01*
X229400Y100400D01*
X229384Y100667D01*
X229322Y100927D01*
X229219Y101174D01*
X229080Y101402D01*
X228906Y101606D01*
X228702Y101780D01*
X228474Y101919D01*
X228400Y101950D01*
Y107700D01*
X229796D01*
X229920Y107498D01*
X230094Y107294D01*
X230298Y107120D01*
X230526Y106981D01*
X230773Y106878D01*
X231033Y106816D01*
X231300Y106795D01*
X231567Y106816D01*
X231827Y106878D01*
X232074Y106981D01*
X232302Y107120D01*
X232506Y107294D01*
X232680Y107498D01*
X232804Y107700D01*
X242500D01*
Y86700D01*
X228400D01*
G37*
G36*
Y133300D02*X230700D01*
Y132093D01*
X230043Y132091D01*
X229890Y132054D01*
X229745Y131994D01*
X229610Y131912D01*
X229491Y131809D01*
X229388Y131690D01*
X229306Y131555D01*
X229246Y131410D01*
X229209Y131257D01*
X229200Y131100D01*
X229209Y128943D01*
X229246Y128790D01*
X229306Y128645D01*
X229388Y128510D01*
X229491Y128391D01*
X229610Y128288D01*
X229706Y128230D01*
X229619Y128194D01*
X229484Y128112D01*
X229365Y128009D01*
X229263Y127890D01*
X229180Y127755D01*
X229120Y127610D01*
X229083Y127457D01*
X229074Y127300D01*
X229083Y125143D01*
X229120Y124990D01*
X229180Y124845D01*
X229263Y124710D01*
X229365Y124591D01*
X229412Y124550D01*
X229365Y124509D01*
X229263Y124390D01*
X229180Y124255D01*
X229120Y124110D01*
X229083Y123957D01*
X229074Y123800D01*
X229083Y121643D01*
X229120Y121490D01*
X229180Y121345D01*
X229263Y121210D01*
X229365Y121091D01*
X229484Y120988D01*
X229619Y120906D01*
X229764Y120846D01*
X229815Y120834D01*
X229719Y120794D01*
X229584Y120712D01*
X229465Y120609D01*
X229363Y120490D01*
X229280Y120355D01*
X229220Y120210D01*
X229183Y120057D01*
X229174Y119900D01*
X229183Y117743D01*
X229220Y117590D01*
X229280Y117445D01*
X229363Y117310D01*
X229465Y117191D01*
X229584Y117088D01*
X229647Y117050D01*
X229584Y117012D01*
X229465Y116909D01*
X229363Y116790D01*
X229280Y116655D01*
X229220Y116510D01*
X229183Y116357D01*
X229174Y116200D01*
X229183Y114043D01*
X229220Y113890D01*
X229280Y113745D01*
X229363Y113610D01*
X229465Y113491D01*
X229584Y113388D01*
X229719Y113306D01*
X229864Y113246D01*
X229915Y113234D01*
X229819Y113194D01*
X229684Y113112D01*
X229565Y113009D01*
X229463Y112890D01*
X229380Y112755D01*
X229320Y112610D01*
X229283Y112457D01*
X229274Y112300D01*
X229283Y110143D01*
X229320Y109990D01*
X229380Y109845D01*
X229463Y109710D01*
X229565Y109591D01*
X229684Y109488D01*
X229819Y109406D01*
X229853Y109392D01*
X229781Y109274D01*
X229678Y109027D01*
X229616Y108767D01*
X229595Y108500D01*
X229616Y108233D01*
X229678Y107973D01*
X229781Y107726D01*
X229920Y107498D01*
X230094Y107294D01*
X230298Y107120D01*
X230526Y106981D01*
X230700Y106908D01*
Y106700D01*
X228400D01*
Y133300D01*
G37*
G36*
X228900Y147800D02*Y106100D01*
X228400D01*
X221900Y112600D01*
Y141300D01*
X228400Y147800D01*
X228900D01*
G37*
G54D59*X347000Y156700D02*X348100Y157800D01*
X347000Y149500D02*Y156700D01*
X347900Y164500D02*X348000Y164600D01*
X347900Y160200D02*Y164500D01*
X347200Y156900D02*X350400Y160100D01*
X356800Y152200D02*X366800Y162200D01*
X366500Y155800D02*X370100Y159400D01*
X368700Y158000D02*X379500Y168800D01*
X366200Y161600D02*X376700Y172100D01*
X337300Y149600D02*X347900Y160200D01*
X328600Y143300D02*X345600Y160300D01*
X320000Y176900D02*X340400D01*
X321900Y181200D02*X343200D01*
X344000Y196000D02*X360000Y180000D01*
X365100Y184900D02*X370000Y180000D01*
X365100Y192900D02*Y184900D01*
X363200Y194800D02*X365100Y192900D01*
X354300Y194800D02*X363200D01*
X349400Y199700D02*X354300Y194800D01*
G54D60*X277943Y194357D02*X279100Y193200D01*
X277943Y198200D02*Y194357D01*
X270857Y198200D02*X266800D01*
G54D59*X275800Y181200D02*X324500D01*
X321700Y176900D02*X287000D01*
X286200Y177700D01*
X284400D01*
X272100Y177500D02*X275800Y181200D01*
X269000Y190900D02*Y191400D01*
X271200Y188700D02*X269000Y190900D01*
X330700Y188700D02*X271200D01*
X331600Y187800D02*X330700Y188700D01*
X355300Y206500D02*Y215500D01*
X360000Y201800D02*X355300Y206500D01*
X360000Y200000D02*Y201800D01*
X364000Y214700D02*X362950D01*
X365100Y213600D02*X364000Y214700D01*
X365100Y210700D02*Y213600D01*
Y204900D02*X370000Y200000D01*
X365100Y212900D02*Y204900D01*
X363250Y214750D02*X359050D01*
X362950Y214700D02*X362900Y214750D01*
X364800Y225200D02*X370000Y220000D01*
X386700Y210900D02*X384200Y213400D01*
X387400Y210900D02*X386700D01*
X283400Y223100D02*X281400Y225100D01*
X287200Y223100D02*X283400D01*
G54D60*X274400Y220800D02*X276852D01*
X274300Y220900D02*X274400Y220800D01*
X267300Y216700D02*X267100Y216900D01*
X271383Y216700D02*X267300D01*
X279052Y210048D02*X278900Y210200D01*
X278726Y207400D02*Y210026D01*
X278900Y210200D01*
X282526Y207400D02*Y209674D01*
X282100Y210100D01*
X251300Y212700D02*Y216431D01*
X252269Y217400D01*
X246300Y216283D02*X245183Y217400D01*
X246300Y212700D02*Y216283D01*
X244926Y205026D02*X245000Y205100D01*
X245252Y202400D02*Y204848D01*
X245000Y205100D01*
X252300Y197426D02*X254874D01*
X252300Y193626D02*X254726D01*
X255100Y194000D01*
X254874Y197426D02*X255100Y197200D01*
X260774Y197300D02*X258100D01*
X258000Y197200D01*
X260774Y193500D02*X258500D01*
X258000Y194000D01*
X241778Y204922D02*X241600Y205100D01*
X223260Y201940D02*X222100Y203100D01*
X223260Y198800D02*Y201940D01*
X241452Y202400D02*Y204852D01*
X241650Y205050D01*
X223652Y212052D02*X223600Y212000D01*
X223326Y214800D02*Y212274D01*
X223600Y212000D01*
X227126Y214800D02*Y212326D01*
X226800Y212000D01*
X223326Y227000D02*Y224474D01*
X223550Y224250D01*
X213283Y221100D02*Y218617D01*
X213600Y218300D01*
X217083Y221100D02*Y218617D01*
X217300Y218400D01*
X223652Y224352D02*X223500Y224200D01*
X227126Y227000D02*Y224526D01*
X226800Y224200D01*
G54D61*X228800Y197400D02*X231500D01*
X228800Y193600D02*X231500D01*
G54D59*X192600Y192400D02*X203700D01*
X192600D02*Y192200D01*
X192000Y191600D01*
X343400Y203800D02*X341800Y202200D01*
X343400Y213500D02*Y203800D01*
X337700Y202400D02*X337600Y202300D01*
X337700Y214500D02*Y202400D01*
X340400Y216500D02*X343400Y213500D01*
X340400Y240900D02*Y216500D01*
X335800Y216400D02*X337700Y214500D01*
X335800Y240900D02*Y216400D01*
X350300Y243200D02*X349000Y244500D01*
X347400Y248200D02*X347300Y248300D01*
X349100Y248200D02*X347400D01*
X351900Y245400D02*X349100Y248200D01*
X350300Y220500D02*Y243200D01*
X352000Y245300D02*X351600Y245700D01*
X352000Y221800D02*Y245300D01*
X355300Y215500D02*X350300Y220500D01*
X353900Y266300D02*Y226100D01*
X357900Y270300D02*X353900Y266300D01*
X357900Y278500D02*Y270300D01*
X359050Y214750D02*X352000Y221800D01*
X353900Y226100D02*X360000Y220000D01*
X364800Y271300D02*Y225200D01*
X384200Y213400D02*Y273900D01*
X387000Y218700D02*Y270000D01*
X362800Y273300D02*X364800Y271300D01*
X362800Y280900D02*Y273300D01*
X384200Y273900D02*X382100Y276000D01*
X388400Y273400D02*X387700Y274100D01*
X388400Y272200D02*Y273400D01*
X389600Y271000D02*X388400Y272200D01*
X403500Y271600D02*X409300D01*
X411800Y269100D01*
Y236300D01*
X389600Y264800D02*Y271000D01*
X389400Y264600D02*X389600Y264800D01*
X389400Y226800D02*Y264600D01*
X411800Y236300D02*X412100Y236000D01*
X427500Y259400D02*Y187700D01*
X427400Y187600D01*
X434300Y265700D02*Y165100D01*
X434600Y164800D01*
X189800Y344200D02*X256000Y278000D01*
X256400Y282600D02*X191100Y347900D01*
X259800Y285300D02*X196700Y348400D01*
X194800Y350300D02*X190300D01*
X197350Y347750D02*X194800Y350300D01*
X247500Y276600D02*X188900Y335200D01*
X189400Y338400D02*X249100Y278700D01*
X255600Y274600D02*X189300Y340900D01*
X249100Y256400D02*Y278700D01*
X247500Y257000D02*Y276600D01*
G54D60*X254100Y258769D02*X254000Y258669D01*
X254100Y263200D02*Y258769D01*
X237174Y258926D02*X237200Y258900D01*
X236900Y262400D02*X237200Y262100D01*
X237000Y258600D02*X237250Y258850D01*
G54D59*X202600Y257800D02*X214900Y270100D01*
G54D60*X215900Y262400D02*X218400D01*
X218700Y262100D01*
X215900Y258600D02*X218500D01*
X218700Y258800D01*
X224800Y262400D02*X222400D01*
X234300D02*X236900D01*
X222400D02*X222100Y262100D01*
X224800Y258600D02*X222400D01*
X222100Y258900D01*
X234300Y258600D02*X237000D01*
G54D59*X245000Y254500D02*X247500Y257000D01*
X247400Y254700D02*X249000Y256300D01*
X228500Y258700D02*Y253700D01*
X245000Y249500D02*Y254500D01*
G54D60*X241674Y250126D02*X241700Y250100D01*
X241674Y253000D02*Y250126D01*
X238526Y250274D02*X238600Y250200D01*
X238526Y253000D02*Y250274D01*
G54D59*X248800Y256100D02*X249100Y256400D01*
X247400Y250000D02*Y254700D01*
G54D60*X252683Y252900D02*X254000Y251583D01*
X249500Y252900D02*X252683D01*
X229260Y237860D02*X227600Y236200D01*
X229260Y240800D02*Y237860D01*
X216917Y233283D02*X217300Y232900D01*
X213443Y235900D02*Y233157D01*
X213700Y232900D01*
X217243Y235900D02*Y232957D01*
X217300Y232900D01*
X213483Y246800D02*Y244317D01*
X213750Y244050D01*
X217283Y246800D02*Y244283D01*
X217400Y252900D02*Y250400D01*
X216900Y249900D01*
X217283Y244283D02*X216950Y243950D01*
X213600Y252900D02*Y250200D01*
X213800Y250000D01*
G54D59*X264552Y333348D02*X264550Y333350D01*
X271052Y333348D02*X264552D01*
X264448Y333248D02*X264400Y333200D01*
X267700Y327900D02*X267600Y327800D01*
X281800Y327900D02*X267700D01*
X275400Y330200D02*X278500D01*
X275100Y333348D02*X269948D01*
X278500Y330200D02*X279100Y330800D01*
X285900Y327900D02*X281100D01*
X279100Y330800D02*X283700D01*
X271700Y305900D02*X267600Y310000D01*
Y314300D02*Y310000D01*
Y314400D02*X267500Y314300D01*
X279400Y305900D02*X271700D01*
X279400D02*X279500Y305800D01*
X288900Y305500D02*X289100Y305300D01*
X288900Y308000D02*Y305500D01*
X287400Y309500D02*X288900Y308000D01*
X282200Y306000D02*X282700Y305500D01*
X282200Y309500D02*Y306000D01*
X281900Y309500D02*X287400D01*
X279200D02*X282700D01*
X276000Y312700D02*X279200Y309500D01*
X302400Y316100D02*Y314600D01*
X297550Y320950D02*X302400Y316100D01*
G54D62*X291000Y354600D02*X305100Y340500D01*
X282000Y354600D02*X291000D01*
X290600D02*X281500D01*
G54D59*X290600Y327900D02*X298900Y319600D01*
X286000Y327900D02*X290600D01*
X297326Y333600D02*X297200Y333474D01*
X302000Y333600D02*X297326D01*
X292700Y330400D02*X296800D01*
X292300Y330800D02*X292700Y330400D01*
X288100Y330800D02*X292300D01*
G54D62*X322700Y322800D02*X290900Y354800D01*
G54D59*X267600Y327800D02*Y317600D01*
Y319800D02*Y314400D01*
X276000Y312700D02*Y324400D01*
X275300Y325100D01*
X271500D01*
X289800Y276100D02*X296900Y283200D01*
X287200Y277800D02*X296900Y287500D01*
G54D60*X283600Y215200D02*X283800Y215000D01*
X278569Y215200D02*X283600D01*
X282300Y220800D02*X284000Y219100D01*
X280000Y220800D02*X282300D01*
G54D59*X281400Y228200D02*X278900Y230700D01*
X281400Y225100D02*Y228200D01*
X289800Y225700D02*X287200Y223100D01*
G54D60*X278852Y237148D02*X278600Y237400D01*
G54D59*X289800Y225700D02*Y276100D01*
X287200Y243000D02*Y277800D01*
G54D60*X282400Y245600D02*X282700Y245300D01*
X282726Y248200D02*Y245426D01*
X278926Y248200D02*Y245326D01*
X278900Y245300D01*
X282574Y256126D02*X282700Y256000D01*
X279100Y258900D02*Y256100D01*
X279000Y256000D01*
X282900Y258900D02*Y256300D01*
X282650Y256050D01*
G54D59*X261200Y285300D02*X259800D01*
X263100Y278000D02*X256000D01*
X263800Y282600D02*X256400D01*
X271900Y284500D02*X270900Y285500D01*
X271900Y284400D02*Y284500D01*
G54D60*X269774Y265600D02*X269800Y265574D01*
G54D59*X263000Y274600D02*X255600D01*
X287200Y243000D02*X285700Y241500D01*
G54D60*X263374Y258926D02*X263400Y258900D01*
X260700Y262400D02*X263100D01*
X263400Y262100D01*
X260700Y258600D02*X263100D01*
X263400Y258900D01*
X269800Y262400D02*X268700D01*
X268400Y262100D01*
X269800Y258600D02*X268800D01*
X268500Y258900D01*
X266900D01*
X268400Y262100D02*X266900D01*
G54D59*X255200Y239300D02*X245000Y249500D01*
X268400Y239300D02*X255200D01*
X255900Y241500D02*X247400Y250000D01*
X285700Y241500D02*X255900D01*
G54D60*X282726Y245426D02*X282650Y245350D01*
X269852Y227248D02*X269500Y227600D01*
X269526Y227326D02*X269650Y227450D01*
X273000Y227500D02*X273100Y227600D01*
X281826Y234500D02*X284600D01*
X273326Y227474D02*X273150Y227650D01*
G54D59*X270300Y237400D02*X268400Y239300D01*
X270300Y233400D02*Y237400D01*
X273000Y230700D02*X270300Y233400D01*
X278900Y230700D02*X273000D01*
G54D60*X278026Y234500D02*Y236726D01*
X278650Y237350D01*
X269526Y224700D02*Y227326D01*
X273326Y224700D02*Y227474D01*
G54D59*X273000Y155400D02*X272600Y155800D01*
X273000Y151500D02*Y155400D01*
X269500Y150600D02*X268800Y151300D01*
X269500Y146900D02*Y150600D01*
X263400Y146900D02*X262000Y145500D01*
X266352Y146900D02*X263400D01*
X276000Y151352D02*X276148Y151500D01*
X276000Y149200D02*Y151352D01*
X275300Y148500D02*X276000Y149200D01*
X275300Y141600D02*Y148500D01*
X276200Y140700D02*X275300Y141600D01*
X276200Y140200D02*Y140700D01*
G54D60*X264100Y140200D02*X266000Y138300D01*
Y142000D02*Y138300D01*
X262500Y145500D02*X266000Y142000D01*
X262459Y145500D02*X262500D01*
X240900Y147300D02*X240800Y147400D01*
X244700Y147300D02*X240900D01*
X246500Y145500D02*X244700Y147300D01*
X257341Y145500D02*X246500D01*
X238300D02*X238100Y145300D01*
G54D59*X240400Y138757D02*X240657Y138500D01*
G54D60*X235000D02*X234900Y138400D01*
X260000Y140200D02*X257800Y138000D01*
G54D59*X240400Y143200D02*Y138757D01*
X252000Y134143D02*X247743Y138400D01*
X252000Y130700D02*Y134143D01*
X253874Y128826D02*X252000Y130700D01*
X253874Y126300D02*Y128826D01*
X250726Y126200D02*Y122874D01*
X253874Y126200D02*Y123526D01*
X248100Y111000D02*X250800Y113700D01*
X244674Y111000D02*X248100D01*
X245474Y130100D02*Y110900D01*
X250726Y122874D02*X250800Y122800D01*
X253874Y123526D02*X255200Y122200D01*
X222000Y208600D02*X271700D01*
X218200Y204800D02*X222000Y208600D01*
X216200Y204800D02*X218200D01*
X214500Y206500D02*X216200Y204800D01*
X209400Y206500D02*X214500D01*
X206600Y203700D02*X209400Y206500D01*
X206600Y195300D02*Y203700D01*
X203700Y192400D02*X206600Y195300D01*
X238974Y126300D02*X235948D01*
X236574Y130500D02*X236174Y130100D01*
X231300Y109600D02*Y130100D01*
X218400Y133200D02*Y133400D01*
X217100Y134700D01*
X211700D01*
X210100Y133100D01*
X215100Y131500D02*Y131100D01*
X213600Y129600D01*
X208700D01*
X207800Y130500D01*
X215500Y126400D02*X212000D01*
X209900Y124300D01*
X218100Y118000D02*X216900D01*
X215400Y116500D01*
X270600Y85900D02*X265600D01*
X272400Y84100D02*X270600Y85900D01*
X272400Y83600D02*Y84100D01*
X265500Y86000D02*X265300Y85800D01*
G54D60*X241300Y74200D02*X300518D01*
X265600Y78700D02*X265700Y78600D01*
X262418Y78700D02*X265600D01*
X239200Y76300D02*X241300Y74200D01*
X283500Y88300D02*X279500D01*
X292100Y89814D02*X290586Y88300D01*
X246900Y87800D02*Y86700D01*
X245600Y85400D01*
X244400D01*
G54D59*X287300Y93900D02*X287400Y93800D01*
X269800Y93300D02*X277200D01*
X277300Y93200D02*Y97426D01*
X277200Y93300D02*X277300Y93200D01*
X274626Y99626D02*X275900Y100900D01*
X274626Y97900D02*Y99626D01*
X277300Y97426D02*X277774Y97900D01*
G54D60*X267800Y97400D02*Y99600D01*
X252826Y93600D02*X250600D01*
X298600Y92157D02*X301257Y89500D01*
X256700Y93600D02*X259800D01*
G54D59*X277300Y83500D02*X273100Y87700D01*
X294500Y83500D02*X277300D01*
G54D60*X279500Y88300D02*X279400Y88400D01*
X262574Y96700D02*Y94726D01*
X264000Y93300D01*
X266374Y96700D02*X267100D01*
X267800Y97400D01*
G54D59*X223800Y95200D02*X223700Y95100D01*
X223800Y97726D02*Y95200D01*
X223700Y97626D02*X223800Y97726D01*
X227226Y100874D02*X227700Y100400D01*
X223800Y100874D02*X227226D01*
X231300Y108500D02*Y113300D01*
X219900Y97626D02*X223700D01*
X220000Y100874D02*X219900Y100774D01*
X220000Y104000D02*Y100874D01*
Y103400D02*Y104800D01*
X218400Y106400D01*
X245700Y99400D02*X244700Y98400D01*
X248226Y99400D02*X245700D01*
X251474Y99500D02*X251374Y99400D01*
X256700Y99500D02*X251474D01*
X215400Y116500D02*Y98800D01*
X213800Y97200D01*
X255900Y85300D02*X254300Y86900D01*
X258557Y85300D02*X255900D01*
G54D60*X256350Y79650D02*X257300Y78700D01*
X251350Y79650D02*X256350D01*
G54D59*X255300Y85900D02*X254400Y86800D01*
G54D60*X244214Y79500D02*Y85414D01*
X239200Y88500D02*Y76300D01*
X250300Y80700D02*X251300Y79700D01*
X250300Y93400D02*Y80700D01*
G54D59*X215100Y81700D02*X215800D01*
X218400Y79100D01*
X233900D01*
X234000Y79000D01*
X235800D01*
X235900Y79100D01*
G54D60*X246900Y91600D02*X248600D01*
X250600Y93600D02*X248600Y91600D01*
G54D59*X306700Y108700D02*Y145200D01*
X300700Y129800D02*X300100Y129200D01*
X300700Y132900D02*Y129800D01*
X299700Y115100D02*X300100Y114700D01*
X295600Y115100D02*X299700D01*
X300100Y125800D02*X300700Y126400D01*
X295900Y125800D02*X300100D01*
G54D60*X297259Y143500D02*X297159Y143600D01*
X300200Y143500D02*X297259D01*
X292100Y98900D02*Y138774D01*
X295800Y115200D02*Y139000D01*
G54D59*X306700Y145200D02*X306600Y145300D01*
X311100Y140800D02*X304900Y147000D01*
X312300Y140800D02*X311100D01*
X312500Y140600D02*X312300Y140800D01*
X315800Y140600D02*X312500D01*
X312100Y149200D02*X316900Y144400D01*
X307900Y149200D02*X312100D01*
X321100Y135300D02*X315800Y140600D01*
X325000Y135300D02*X321100D01*
X327400Y204200D02*X328200Y205000D01*
X276200Y204200D02*X327400D01*
X271800Y208600D02*X276200Y204200D01*
X271200Y208600D02*X271800D01*
X297200Y196000D02*X344000D01*
X295700Y199700D02*X349400D01*
X288826Y143026D02*X288900Y143100D01*
X288826Y138900D02*Y143026D01*
X287300Y147000D02*X286000Y145700D01*
X304900Y147000D02*X287300D01*
X283300Y149200D02*X309000D01*
X282200Y148100D02*X283300Y149200D01*
X282200Y143200D02*Y148100D01*
X281100Y142100D02*X282200Y143200D01*
X279000Y142100D02*X281100D01*
G54D60*X292041Y138841D02*X292037Y138837D01*
X292100Y138774D02*X291974Y138900D01*
X292041Y143600D02*Y138841D01*
G54D59*X346900Y111600D02*X347000Y111700D01*
X346900Y99900D02*Y111600D01*
X344000Y97000D02*X346900Y99900D01*
X368550Y56250D02*X366500Y58300D01*
X360400Y55600D02*Y68700D01*
X366500Y58300D02*Y155800D01*
X360400Y68700D02*X356800Y72300D01*
Y152200D01*
X347000Y111100D02*Y149900D01*
X337300Y35100D02*Y149600D01*
X351500Y132500D02*Y50000D01*
X328600Y36300D02*Y143300D01*
X368550Y31450D02*Y56250D01*
X366100Y34600D02*Y49900D01*
X360400Y55600D01*
X347150Y43150D02*X341100Y49200D01*
X347150Y33950D02*Y43150D01*
X344700Y31500D02*X347200Y34000D01*
X335500Y33300D02*X337300Y35100D01*
X327200Y34900D02*X328600Y36300D01*
X365000Y27900D02*X368700Y31600D01*
X361300Y29800D02*X366200Y34700D01*
X260100Y27900D02*X365000D01*
X259900Y29800D02*X361300D01*
X260200Y31500D02*X344700D01*
X260300Y33300D02*X335500D01*
X260100Y34900D02*X327200D01*
X261100Y29800D02*X261200Y29700D01*
X260900Y31500D02*X261300Y31900D01*
G54D60*X301200Y88700D02*X301628Y89128D01*
X301200Y84400D02*Y88700D01*
X302800Y82800D02*X301200Y84400D01*
X302800Y81600D02*Y82800D01*
X300518Y74200D02*X302800Y76482D01*
X308343Y89500D02*X312600D01*
G54D59*X344000Y69700D02*Y97000D01*
X341100Y66800D02*X344000Y69700D01*
X341100Y49200D02*Y66800D01*
X287300Y97500D02*Y93900D01*
X288800Y99000D02*X287300Y97500D01*
X288926Y99000D02*X288800D01*
G54D60*X298600Y98400D02*Y92157D01*
X295800Y101200D02*X298600Y98400D01*
X296000Y115000D02*Y101100D01*
G54D59*X299900Y111300D02*Y108300D01*
X299500Y107900D01*
G54D60*X292100Y99700D02*Y89814D01*
X216174Y198800D02*X212100D01*
X213769Y232969D02*X213700Y232900D01*
G54D59*X222600Y219700D02*X215200Y212300D01*
X232100Y219700D02*X222600D01*
X234400Y222000D02*X232100Y219700D01*
X234400Y247800D02*Y222000D01*
G54D60*X217074Y250074D02*X217000Y250000D01*
G54D59*X228500Y253700D02*X234400Y247800D01*
G54D60*X213926Y250026D02*X213900Y250000D01*
G54D59*X202600Y215700D02*Y257800D01*
X204150Y214150D02*X202600Y215700D01*
X206000Y212300D02*X203500Y214800D01*
X215200Y212300D02*X206000D01*
G54D60*X216957Y243943D02*X217000Y243900D01*
X213809Y243991D02*X213900Y243900D01*
Y241900D02*Y243900D01*
X215000Y240800D02*X213900Y241900D01*
X222174Y240800D02*X215000D01*
G54D59*X181000Y233600D02*X180000Y232600D01*
X181000Y240700D02*Y233600D01*
X182800Y242500D02*X181000Y240700D01*
X177400Y230000D02*X160900D01*
X180300Y232900D02*X177400Y230000D01*
X163500Y234000D02*Y241700D01*
X159300Y235300D02*X159400Y235400D01*
X159300Y231600D02*Y235300D01*
X155200Y235400D02*X155300Y235300D01*
X155200Y245400D02*Y235400D01*
X163300Y253500D02*X155200Y245400D01*
X191900Y235900D02*X189700Y238100D01*
X199400Y235900D02*X191900D01*
X185300Y242500D02*X182800D01*
X189850Y237950D02*X185300Y242500D01*
X186900Y253500D02*X163300D01*
X196900Y243500D02*X186900Y253500D01*
X196900Y238500D02*Y243500D01*
X163500Y241700D02*X161900Y243300D01*
X184100Y236700D02*X183800Y237000D01*
X193800Y199300D02*X193900Y199200D01*
X192300Y199300D02*X193800D01*
X200000Y203000D02*X192100D01*
X197500Y200600D02*X197400Y200700D01*
X197500Y195500D02*Y200600D01*
X196700Y194700D02*X197500Y195500D01*
X191200Y194700D02*X196700D01*
X160900Y230000D02*X159300Y231600D01*
X154400Y174800D02*X154500Y174700D01*
X154400Y181500D02*Y174800D01*
X165000Y192100D02*X154400Y181500D01*
X161900Y179600D02*X161800Y179700D01*
X172600Y179600D02*X192300Y199300D01*
X181200Y192100D02*X165000D01*
X192100Y203000D02*X181200Y192100D01*
X168800Y172300D02*X191200Y194700D01*
X169200Y179600D02*X172600D01*
X170300D02*X161900D01*
X158700Y172300D02*X168800D01*
X184100Y198500D02*Y236700D01*
X156700Y283500D02*X155300D01*
X157800D02*X156100D01*
X171200Y269100D02*X169100Y271200D01*
X213300Y283500D02*X220400Y276400D01*
X212100Y274400D02*X202500D01*
X214900Y271600D02*X212100Y274400D01*
X214900Y270100D02*Y271600D01*
X156900Y283500D02*X213300D01*
X206800Y269100D02*X171200D01*
X202500Y274400D02*X197100Y279800D01*
X196100Y280800D02*X197800Y279100D01*
X171000Y280800D02*X196100D01*
X153200Y293000D02*X153300Y293100D01*
X153200Y285600D02*Y293000D01*
X149100Y296300D02*X151500Y298700D01*
X149100Y287200D02*Y296300D01*
X141900Y291000D02*Y296900D01*
X145500Y287400D02*X141900Y291000D01*
X146300Y287400D02*X145500D01*
X140700Y276800D02*X140600Y276700D01*
X155300Y283500D02*X153200Y285600D01*
X145900Y284000D02*X149100Y287200D01*
X145000Y284000D02*X145900D01*
X137600Y278800D02*X137800Y279000D01*
X142800Y281700D02*X143700Y280800D01*
X145400Y347900D02*X139800Y342300D01*
X145200Y344200D02*X140100Y339100D01*
X138300Y348300D02*X139600Y347000D01*
X145900Y340900D02*X140500Y335500D01*
X148800Y338400D02*X142800Y332400D01*
X149100Y347900D02*X145400D01*
X148400Y344200D02*X145200D01*
X148200Y340900D02*X145900D01*
X149400Y338400D02*X189400D01*
X188900Y335200D02*X163800D01*
X189300Y340900D02*X146500D01*
X189800Y344200D02*X147300D01*
X191100Y347900D02*X148100D01*
X192000Y350300D02*X145600D01*
X179800Y298700D02*X180000Y298900D01*
X175100Y305900D02*X180300D01*
X171000Y301800D02*X175100Y305900D01*
X174000Y272000D02*X169200Y276800D01*
X151500Y298700D02*X179800D01*
X146800Y301800D02*X171000D01*
X141900Y296900D02*X146800Y301800D01*
X208600Y272000D02*X174000D01*
X143700Y280800D02*X172100D01*
X129500Y226400D02*Y213700D01*
X129800Y211600D02*X130900Y210500D01*
Y179400D01*
X129500Y214700D02*Y211900D01*
X129900Y211500D01*
G54D60*X119159Y217559D02*X120600Y219000D01*
X116500Y217559D02*X119159D01*
X116500Y208000D02*X113000Y204500D01*
X116500Y212500D02*Y208000D01*
G54D59*X127600Y221500D02*Y200300D01*
X128100Y199800D01*
Y190800D01*
X127400Y190100D01*
X137700Y218000D02*Y228700D01*
X141500Y209600D02*X143200Y207900D01*
X136800Y212000D02*Y217100D01*
X138250Y210550D02*X136800Y212000D01*
X138250Y206550D02*Y210550D01*
X138200Y206500D02*X137900Y206200D01*
Y183900D01*
X142300Y179500D01*
X145200D01*
X147600Y177100D01*
X143200Y207900D02*Y185000D01*
X150200Y178000D01*
X136500Y174000D02*Y173700D01*
X137900Y172300D01*
X140200Y173700D02*Y173500D01*
X141000Y172700D01*
X70200Y177500D02*X70100Y177600D01*
X70200Y171000D02*Y177500D01*
X74102Y167098D02*X70200Y171000D01*
X74102Y158908D02*Y167098D01*
X70000Y240500D02*Y260300D01*
X92900Y245200D02*Y233800D01*
X96700Y230000D01*
Y224300D01*
X93100Y220700D01*
X96800Y249100D02*X92900Y245200D01*
X93100Y220700D02*Y203800D01*
X91300Y202000D01*
X101300Y204000D02*Y185700D01*
X101900Y185100D01*
Y179200D01*
X96400Y173700D01*
X91300Y202000D02*Y172400D01*
Y172600D02*Y171700D01*
X87600Y168000D01*
X111700Y168300D02*Y167200D01*
X108600Y164100D01*
X139600Y216000D02*Y232900D01*
X139100Y215500D02*X139600Y216000D01*
X139100Y213200D02*Y215500D01*
X139600Y232900D02*X138900Y233600D01*
X136700Y229700D02*Y236800D01*
X137700Y228700D02*X136700Y229700D01*
X137400Y217700D02*X137700Y218000D01*
X136800Y217100D02*X137500Y217800D01*
X136700Y236800D02*X136500Y237000D01*
Y236300D01*
X140200Y236700D02*Y236600D01*
X141500Y235300D01*
Y209600D01*
X129100Y226800D02*X129500Y226400D01*
X127700Y262100D02*Y254200D01*
X127100Y253600D01*
X111600Y231300D02*X102300Y222000D01*
Y205000D01*
X101300Y204000D01*
X129100Y238900D02*Y226800D01*
Y241200D02*Y238500D01*
X130000Y242100D02*X129100Y241200D01*
X127100Y253600D02*Y222000D01*
X127600Y221500D01*
X130000Y273600D02*Y242100D01*
X96800Y276100D02*Y249100D01*
G54D60*X112159Y345059D02*X111200Y344100D01*
X116500Y345059D02*X112159D01*
X116500Y335000D02*Y340000D01*
G54D59*X142800Y332400D02*X96100D01*
X139800Y342300D02*X135400D01*
X129500Y348300D02*X138300D01*
X128200Y347000D02*X129500Y348300D01*
X128200Y338200D02*Y347000D01*
X130900Y335500D02*X128200Y338200D01*
X140500Y335500D02*X130900D01*
X136800Y339100D02*X136700Y339000D01*
X140100Y339100D02*X136800D01*
X149700Y338400D02*X148800D01*
X152900Y326800D02*X108400D01*
X156800Y330700D02*X152900Y326800D01*
X161300Y335200D02*X155900Y329800D01*
X167100Y335200D02*X161300D01*
X145800Y350300D02*X119600D01*
X117800Y348500D01*
X96300D01*
X95300Y349500D01*
X94750Y333750D02*X95400Y333100D01*
X94750Y344050D02*Y333750D01*
X94900Y344200D02*X95100Y344400D01*
X96100Y332400D02*X94900Y333600D01*
X95300Y349500D02*X91300D01*
X89800Y348000D01*
X77700Y328400D02*X75600Y326300D01*
X87700Y331800D02*Y342100D01*
X90900Y328600D02*X87700Y331800D01*
X106600Y328600D02*X90900D01*
X70000Y320700D02*X75700Y326400D01*
X77700Y347600D02*Y328400D01*
X87700Y342100D02*X92700Y347100D01*
X89800Y348000D02*X78100D01*
X77700Y347600D01*
X169200Y276800D02*X140700D01*
X169100Y271200D02*X138800D01*
X129600Y274000D02*X130000Y273600D01*
G54D60*X116500Y271000D02*X113000Y267500D01*
X116500Y277000D02*Y271000D01*
X113359Y282059D02*X112000Y280700D01*
X116500Y282059D02*X113359D01*
G54D59*X137600Y272400D02*Y278800D01*
X138800Y271200D02*X137600Y272400D01*
X137100Y281700D02*X142800D01*
X135700Y280300D02*X137100Y281700D01*
X134300Y278900D02*X136200Y280800D01*
X134300Y278500D02*Y278900D01*
X136500Y300000D02*X134100D01*
X128100Y294000D01*
X135000Y292900D02*X132800D01*
X129500Y289600D01*
X128150Y294050D02*X127400Y293300D01*
X140200Y299700D02*Y298100D01*
X135000Y292900D01*
X127400Y293300D02*Y262400D01*
X127700Y262100D01*
X129600Y289700D02*Y274000D01*
X108400Y326800D02*X106600Y328600D01*
X111600Y294600D02*Y293700D01*
X103800Y285900D01*
Y283100D01*
X97000Y276300D01*
X97250Y276550D02*X96800Y276100D01*
X70000Y303700D02*Y320700D01*
X76100Y285400D02*X76000Y285500D01*
X76100Y266400D02*Y285400D01*
X70000Y260300D02*X76100Y266400D01*
X184800Y40000D02*Y48700D01*
X187300Y37500D02*X184800Y40000D01*
X187300Y32400D02*Y37500D01*
X193600Y33200D02*Y43300D01*
X198800Y33300D02*X197800Y34300D01*
X204000Y33300D02*X198800D01*
X195300Y31500D02*X193600Y33200D01*
X203500Y31500D02*X195300D01*
X197700Y39400D02*X202200Y34900D01*
X204700Y27900D02*X164200D01*
X203800Y29800D02*X166800D01*
X197700Y82000D02*Y39400D01*
X192100Y85600D02*X194100D01*
X193600Y78800D02*Y40900D01*
X184800Y65100D02*X188100Y68400D01*
X184800Y44500D02*Y65100D01*
X194100Y85600D02*X197700Y82000D01*
X186200Y79900D02*X185000Y78700D01*
X186200Y80900D02*Y79900D01*
X184200Y84800D02*X185000Y85600D01*
X184200Y82600D02*Y84800D01*
X188100Y68400D02*Y88500D01*
X202300Y27900D02*X261100D01*
X202400Y29800D02*X261100D01*
X202400Y31500D02*X260900D01*
X260800Y33300D02*X260900Y33200D01*
X202400Y33300D02*X260800D01*
Y34900D02*X260900Y34800D01*
X202200Y34900D02*X260800D01*
X164200Y27900D02*X164000Y28100D01*
X165800Y30800D02*X155500D01*
X166800Y29800D02*X165800Y30800D01*
X155500D02*X149400Y36900D01*
G54D60*X132926Y51274D02*X132000Y52200D01*
X132926Y43648D02*Y51274D01*
X128474Y52226D02*X128400Y52300D01*
X128474Y44000D02*Y52226D01*
Y38374D02*X128300Y38200D01*
X132926Y37726D02*X132900Y37700D01*
X132926Y40500D02*Y37726D01*
X128474Y40852D02*Y38374D01*
G54D59*X188100Y88500D02*X187400Y89200D01*
X175700D02*X187400D01*
X172700Y80900D02*X186200D01*
X172200Y81400D02*X172700Y80900D01*
X170800Y81400D02*X172200D01*
X173200Y82600D02*X184200D01*
X170900Y84900D02*X173200Y82600D01*
X170600Y84900D02*X170900D01*
X167600Y83252D02*X167000Y83852D01*
X167600Y80800D02*Y83252D01*
X169800Y87000D02*X170900Y88100D01*
X167000Y87000D02*X169800D01*
G54D60*X168500Y105300D02*X168800Y105600D01*
X166074Y105300D02*X168500D01*
G54D59*X162926Y105126D02*X156400Y98600D01*
X162926Y105300D02*Y105126D01*
G54D60*X175700Y72600D02*X175800Y72500D01*
X173200Y72600D02*X175700D01*
X173174Y75800D02*X175600D01*
G54D59*X167626Y70200D02*X170000Y72600D01*
X169926Y75900D02*X170026Y75800D01*
X167600Y75900D02*X169926D01*
X167300Y70200D02*X167626D01*
G54D60*X121100Y97200D02*X121200Y97100D01*
X121100Y104326D02*Y97200D01*
Y107474D02*X118174D01*
X118000Y107300D01*
G54D59*X112500Y102500D02*X108600Y98600D01*
X112500Y106600D02*Y102500D01*
X93800Y75300D02*X85800Y67300D01*
G54D60*X115200Y69100D02*Y60500D01*
X113900Y59200D01*
Y50900D01*
X119800Y68100D02*Y56800D01*
G54D59*X93800Y90800D02*Y75300D01*
X101600Y98600D02*X93800Y90800D01*
X108600Y98600D02*X101600D01*
X91300Y89500D02*X86100Y84300D01*
X87600Y97900D02*X86100Y96400D01*
X91300Y99800D02*Y89500D01*
X96400Y104900D02*X91300Y99800D01*
X96400Y110400D02*Y104900D01*
X87600Y111400D02*Y97900D01*
X96400Y114100D02*Y109000D01*
X127400Y105900D02*Y109100D01*
Y119300D02*Y107800D01*
X127100Y119600D02*X127400Y119300D01*
X127100Y120000D02*Y119600D01*
X129200Y115300D02*Y106600D01*
X129600Y115700D02*X129200Y115300D01*
X129600Y120900D02*Y115700D01*
X137100Y115200D02*Y109200D01*
X146750Y114850D02*Y107150D01*
X143200Y118400D02*X146800Y114800D01*
X149200Y111500D02*Y108400D01*
X130900Y102400D02*Y101800D01*
Y102400D02*X127400Y105900D01*
X129200Y106600D02*X129700Y106100D01*
X130900Y101800D02*X134100Y98600D01*
X133100D01*
X132600Y103200D02*X134000Y101800D01*
Y98500D02*X134100Y98600D01*
X137400Y104400D02*X137600D01*
X129600Y106200D02*X133950Y101850D01*
X144000Y101100D02*Y102300D01*
X137600Y104400D02*X141000Y101000D01*
X146600Y98500D02*X144000Y101100D01*
X146600Y98400D02*Y98500D01*
X146500Y101800D02*Y103000D01*
X149200Y108400D02*X154300Y103300D01*
X146750Y107150D02*X150600Y103300D01*
Y102500D01*
X154300Y103300D02*Y100400D01*
X153200Y99300D01*
X151900D01*
X151200Y98600D01*
X150600Y102500D02*X151200Y101900D01*
X146500Y103000D02*X138400Y111100D01*
X144000Y102300D02*X137100Y109200D01*
X241000Y130500D02*X241600Y129900D01*
X236574Y130500D02*X241000D01*
X241474Y118900D02*X241774Y118600D01*
X241674Y111000D02*X241974Y111300D01*
X238974Y118900D02*X241474D01*
X235948D02*X235848Y118800D01*
X238774Y118900D02*X235948D01*
X241274Y115200D02*X241774Y114700D01*
X238874Y115200D02*X241274D01*
X238974Y111000D02*X241674D01*
X236248D02*X236148Y111100D01*
X238874Y111000D02*X236248D01*
X238774Y115200D02*X235948D01*
X241474Y126300D02*X241874Y125900D01*
X239074Y126300D02*X241474D01*
Y122500D02*X241774Y122200D01*
X236148Y122500D02*X241474D01*
X236148D02*X235848Y122800D01*
X235948Y126300D02*X235848Y126200D01*
X137100Y115200D02*X136850Y115450D01*
X138400Y116700D02*Y111100D01*
X137900Y117200D02*X138400Y116700D01*
X143500Y153100D02*Y173700D01*
X141000Y172700D02*Y153700D01*
X137900Y172300D02*Y155700D01*
X140900Y150500D02*X143500Y153100D01*
X141000Y153700D02*X137900Y150600D01*
Y155700D02*X135300Y153100D01*
X130800Y153700D02*X129600Y152500D01*
X129500Y175700D02*X130800Y174400D01*
X129500Y178000D02*Y175700D01*
X130900Y179400D02*X129500Y178000D01*
X130800Y174400D02*Y153700D01*
X127400Y190100D02*Y139900D01*
X150200Y178000D02*Y145400D01*
X147600Y177100D02*Y147700D01*
X137900Y150600D02*Y117200D01*
X149200Y144400D02*Y111400D01*
X150200Y145400D02*X149200Y144400D01*
X143200Y143300D02*Y118400D01*
X147600Y147700D02*X143200Y143300D01*
X132600Y119700D02*X137000Y115300D01*
X132600Y146000D02*Y119800D01*
X135300Y148700D02*X132600Y146000D01*
X135300Y153100D02*Y148700D01*
X127100Y124600D02*Y119800D01*
X129600Y152500D02*Y120900D01*
X123000Y128700D02*X127100Y124600D01*
X123000Y135700D02*Y128700D01*
X127400Y140100D02*X123000Y135700D01*
X108600Y141300D02*X112500Y137400D01*
Y103200D01*
X108600Y164100D02*Y141300D01*
X96400Y173700D02*Y114000D01*
X87600Y168000D02*Y109000D01*
G54D63*X370000Y200000D03*
X360000D03*
X370000Y210000D03*
Y220000D03*
Y230000D03*
X360000Y210000D03*
Y220000D03*
Y230000D03*
Y240000D03*
Y250000D03*
X370000Y240000D03*
Y250000D03*
G54D58*G36*
X395229Y241268D02*Y235725D01*
X400772D01*
Y241268D01*
X395229D01*
G37*
G54D64*X405874Y238496D03*
X398000Y230622D03*
X405874D03*
X398000Y222748D03*
X405874D03*
X398000Y214874D03*
X405874D03*
X398000Y207000D03*
Y199126D03*
X405874Y207000D03*
Y199126D03*
G54D65*X450315Y322717D03*
Y287283D03*
G54D66*X458189Y305000D03*
G54D67*X446378D03*
G54D68*X422756D03*
G54D69*X431500Y357500D03*
G54D64*X398000Y191252D03*
X405874D03*
G54D63*X370000Y180000D03*
X360000D03*
X370000Y190000D03*
X360000D03*
G54D69*X431500Y32500D03*
G54D70*X433000Y70900D03*
X443000D03*
X453000D03*
G54D71*X418000Y65900D03*
G54D72*X392000Y104500D03*
Y96500D03*
Y88500D03*
Y80500D03*
Y120500D03*
Y112500D03*
X382000Y124500D03*
Y116500D03*
Y108500D03*
G54D73*X418000Y119500D03*
G54D72*X382000Y92500D03*
Y84500D03*
Y76500D03*
G54D73*X418000Y81500D03*
G54D70*X443000Y130100D03*
X453000D03*
G54D71*X418000Y135100D03*
G54D69*X32500Y357500D03*
Y32500D03*
G54D74*X265643Y85693D02*Y84907D01*
X308343Y89893D02*Y89107D01*
X301257Y89893D02*Y89107D01*
G54D75*X302308Y81600D02*X303292D01*
G54D74*X283500Y88693D02*Y87907D01*
X290586Y88693D02*Y87907D01*
G54D75*X302308Y76482D02*X303292D01*
G54D76*X454000Y25000D03*
G54D75*X262418Y79192D02*Y78208D01*
X257300Y79192D02*Y78208D01*
G54D77*X300400Y129800D02*Y129600D01*
Y126000D02*Y125800D01*
X269900Y146900D02*X270100D01*
X266100D02*X266300D01*
X272574Y151500D02*X272774D01*
X276374D02*X276574D01*
G54D75*X116008Y345059D02*X116992D01*
X116008Y339941D02*X116992D01*
G54D77*X241374Y111100D02*X241574D01*
X245174D02*X245374D01*
X241474Y122200D02*X241674D01*
X245274D02*X245474D01*
X245074Y118600D02*X245274D01*
X241374Y114900D02*X241574D01*
X245174D02*X245374D01*
X288400Y138900D02*X288600D01*
X299900Y111400D02*Y111200D01*
Y115200D02*Y115000D01*
G54D75*X297159Y144092D02*Y143108D01*
X292041Y144092D02*Y143108D01*
G54D77*X292200Y138900D02*X292400D01*
X274200Y97900D02*X274400D01*
X278000D02*X278200D01*
X288500Y99000D02*X288700D01*
X292300D02*X292500D01*
X262474Y96700D02*X262674D01*
X266274D02*X266474D01*
X259800Y140400D02*X260000D01*
X263600D02*X263800D01*
G54D75*X257041Y145992D02*Y145008D01*
X262159Y145992D02*Y145008D01*
G54D77*X250300Y126200D02*X250500D01*
X254100D02*X254300D01*
G54D74*X240657Y138893D02*Y138107D01*
X247743Y138893D02*Y138107D01*
G54D77*X278826Y248200D02*X279026D01*
X282626D02*X282826D01*
X279000Y258900D02*X279200D01*
X282800D02*X283000D01*
X269800Y258700D02*Y258500D01*
Y262500D02*Y262300D01*
X275100Y330000D02*Y329800D01*
Y333800D02*Y333600D01*
X297200Y333826D02*Y333626D01*
Y330026D02*Y329826D01*
X247800Y99400D02*X248000D01*
X251600D02*X251800D01*
X246900Y87900D02*Y87700D01*
Y91700D02*Y91500D01*
X256600Y93600D02*X256800D01*
X252800D02*X253000D01*
G54D74*X244214Y80093D02*Y79307D01*
X251300Y80093D02*Y79307D01*
G54D77*X238100Y253000D02*X238300D01*
G54D74*X229260Y241193D02*Y240407D01*
G54D77*X234300Y258700D02*Y258500D01*
Y262500D02*Y262300D01*
X241900Y253000D02*X242100D01*
G54D74*X253607Y251583D02*X254393D01*
X253607Y258669D02*X254393D01*
G54D77*X260700Y258700D02*Y258500D01*
Y262500D02*Y262300D01*
X227026Y227000D02*X227226D01*
X227026Y214800D02*X227226D01*
G54D75*X116008Y282059D02*X116992D01*
X116008Y276941D02*X116992D01*
G54D77*X217300Y252900D02*X217500D01*
X213500D02*X213700D01*
X224800Y258700D02*Y258500D01*
Y262500D02*Y262300D01*
X215900Y258700D02*Y258500D01*
Y262500D02*Y262300D01*
G54D74*X222174Y241193D02*Y240407D01*
G54D77*X223226Y227000D02*X223426D01*
X216983Y221100D02*X217183D01*
X217143Y235900D02*X217343D01*
G54D74*X223260Y199193D02*Y198407D01*
X216174Y199193D02*Y198407D01*
G54D77*X213183Y221100D02*X213383D01*
X217183Y246800D02*X217383D01*
X213383D02*X213583D01*
X213343Y235900D02*X213543D01*
G54D74*X245183Y217793D02*Y217007D01*
X252269Y217793D02*Y217007D01*
G54D77*X260774Y197400D02*Y197200D01*
Y193600D02*Y193400D01*
G54D74*X270857Y198593D02*Y197807D01*
X277943Y198593D02*Y197807D01*
G54D77*X241352Y202400D02*X241552D01*
X231500Y197500D02*Y197300D01*
Y193700D02*Y193500D01*
X245152Y202400D02*X245352D01*
X252300Y197526D02*Y197326D01*
Y193726D02*Y193526D01*
X269426Y224700D02*X269626D01*
G54D74*X271483Y215593D02*Y214807D01*
G54D77*X273226Y224700D02*X273426D01*
X276426Y220800D02*X276626D01*
X280226D02*X280426D01*
X278626Y207400D02*X278826D01*
G54D74*X278569Y215593D02*Y214807D01*
G54D77*X282426Y207400D02*X282626D01*
X277926Y234500D02*X278126D01*
X281726D02*X281926D01*
G54D78*X7000Y115250D02*X13000D01*
X7000Y52250D02*X13000D01*
X7000Y85750D02*X13000D01*
X7000Y148750D02*X13000D01*
X7000Y178250D02*X13000D01*
G54D76*X10000Y25000D03*
G54D77*X245174Y129900D02*X245374D01*
X241474Y125800D02*X241674D01*
X245274D02*X245474D01*
X241374Y129900D02*X241574D01*
X162500Y105300D02*X162700D01*
X166300D02*X166500D01*
X121100Y104100D02*Y103900D01*
Y107900D02*Y107700D01*
X231274Y111300D02*X231474D01*
X235074D02*X235274D01*
X241274Y118600D02*X241474D01*
X234974Y118900D02*X235174D01*
X231174D02*X231374D01*
X231074Y122800D02*X231274D01*
X234874D02*X235074D01*
X231074Y126300D02*X231274D01*
X234874D02*X235074D01*
X231200Y130100D02*X231400D01*
X235000D02*X235200D01*
X231174Y115200D02*X231374D01*
X234974D02*X235174D01*
G54D74*X258557Y85693D02*Y84907D01*
G54D77*X128474Y44426D02*Y44226D01*
Y40626D02*Y40426D01*
X132926Y44074D02*Y43874D01*
Y40274D02*Y40074D01*
X167000Y83626D02*Y83426D01*
X169600Y72400D02*X169800D01*
X173400Y76000D02*X173600D01*
X169600D02*X169800D01*
X167000Y87426D02*Y87226D01*
X173400Y72400D02*X173600D01*
X223226Y214800D02*X223426D01*
X219900Y101200D02*Y101000D01*
Y97400D02*Y97200D01*
X223800Y101300D02*Y101100D01*
Y97500D02*Y97300D01*
G54D75*X116008Y217559D02*X116992D01*
X116008Y212441D02*X116992D01*
G54D78*X7000Y211750D02*X13000D01*
X7000Y241250D02*X13000D01*
X7000Y304250D02*X13000D01*
G54D76*X10000Y365000D03*
G54D78*X7000Y337750D02*X13000D01*
X7000Y274750D02*X13000D01*
G54D79*X307800Y283100D03*
X296900Y283200D03*
X307600Y287500D03*
X296900D03*
X310300Y294000D03*
X318700Y295500D03*
X318600Y290500D03*
X320600Y293000D03*
Y288200D03*
X381500Y297839D03*
X375500Y297339D03*
X378500Y294339D03*
X325900Y337800D03*
X335700Y342700D03*
X329000Y343100D03*
X325800Y347000D03*
X333100Y346900D03*
X339400Y346700D03*
X382000Y330339D03*
X378500Y333339D03*
X375000Y330339D03*
X348800Y323000D03*
X362600Y327800D03*
X294200Y353300D03*
X290400D03*
X286700D03*
X283100Y353400D03*
X279500D03*
X291300Y356800D03*
X287600Y357100D03*
X284100Y357200D03*
X280600Y356900D03*
X267500Y314300D03*
X264400Y333200D03*
X271500Y325000D03*
X302400Y314600D03*
X286000Y314300D03*
X281200D03*
X290600D03*
X302000Y333600D03*
X288100Y330800D03*
X283700D03*
X285900Y327900D03*
X286000Y320300D03*
X290600D03*
X281300D03*
X289100Y305300D03*
X290200Y296900D03*
X292300Y305600D03*
X282700Y305500D03*
X276600Y295200D03*
X279500Y305800D03*
X253300Y297800D03*
X261200Y285300D03*
X263800Y282600D03*
X263100Y278000D03*
X263000Y274600D03*
X275000Y287900D03*
X153700Y293100D03*
X145000Y284000D03*
X146000Y287500D03*
X146700Y295700D03*
X125000Y272900D03*
X132000Y275100D03*
X134300Y278500D03*
X137800Y279000D03*
X140600Y276700D03*
X135500Y296700D03*
X152000Y266500D03*
X140500D03*
X146500D03*
X140500Y261000D03*
X146500D03*
X152000D03*
X135000D03*
X125500Y260500D03*
X135000Y255000D03*
X140500D03*
X146500D03*
X152000D03*
X125500Y255900D03*
X112000Y280700D03*
X132200Y281000D03*
X113000Y267500D03*
X122100Y278500D03*
X116100Y288500D03*
X120800Y272700D03*
X135000Y266500D03*
X134800Y239800D03*
X134474Y233574D03*
X135200Y219500D03*
X136500Y237000D03*
X132000Y213200D03*
X113100Y251600D03*
X115600Y258900D03*
X111600Y231300D03*
X115500Y241800D03*
X116174Y195900D03*
X116100Y225500D03*
X120300Y244800D03*
X124900Y234600D03*
X120900Y209700D03*
X125100Y219500D03*
X125600Y197500D03*
Y192900D03*
X177200Y236400D03*
X168600Y240900D03*
X183800Y237100D03*
X163500Y234000D03*
X159400Y235400D03*
X155300Y235300D03*
X152000Y249500D03*
X146500D03*
X140200Y236700D03*
X161900Y205700D03*
X161700Y268700D03*
Y247400D03*
X161100Y331700D03*
X161300Y310500D03*
X161900Y243300D03*
X180300Y306000D03*
X180000Y298900D03*
X184000Y302100D03*
X183300Y309900D03*
X184100Y198500D03*
Y240300D03*
X167600Y313700D03*
X167500Y250600D03*
X167300Y265600D03*
X167600Y187600D03*
X167400Y202600D03*
Y328700D03*
X134900Y302900D03*
X140800Y303000D03*
X143900Y302900D03*
X124900Y297900D03*
X125600Y323600D03*
Y319000D03*
X115800Y322000D03*
X136500Y300000D03*
X140200Y299700D03*
X245000Y345800D03*
X248900Y337000D03*
X243900Y336800D03*
X241700Y342200D03*
X236300Y343000D03*
X240100Y346800D03*
X232800Y346700D03*
X241700Y250100D03*
X249400Y252900D03*
X245000Y258100D03*
X238600Y250200D03*
X237200Y258900D03*
X239800Y264800D03*
X251300Y212700D03*
X246300D03*
X245000Y205100D03*
X241600D03*
X243300Y197900D03*
X248700Y191700D03*
X237200D03*
X295700Y199700D03*
X331200Y187800D03*
X295700Y190900D03*
X284400Y177700D03*
X278900Y245300D03*
X278600Y237400D03*
X278900Y210200D03*
X284500Y262600D03*
X273900Y248100D03*
X271300Y245300D03*
X268300Y248300D03*
X271300Y251200D03*
X273800Y254100D03*
X268600Y253900D03*
X279000Y256000D03*
X263400Y258900D03*
X267000D03*
Y262100D03*
X273600Y220800D03*
X267100Y216900D03*
X269500Y227600D03*
X273100D03*
X278400Y225000D03*
X272500Y177500D03*
X269000Y191400D03*
X258000Y197200D03*
X255100D03*
X266600Y198200D03*
X274600Y191600D03*
Y264700D03*
X220300Y276500D03*
X217000Y243900D03*
X213800D03*
X217000Y250000D03*
X213800D03*
X222100Y262100D03*
X218700D03*
X211700Y259700D03*
Y256500D03*
X206800Y269100D03*
X208600Y272000D03*
X218700Y258800D03*
X209000Y280100D03*
X222100Y258900D03*
X231500Y264700D03*
X228800Y193600D03*
X228500Y258700D03*
X228800Y197400D03*
X227600Y236200D03*
X226800Y224200D03*
X223500D03*
X217300Y232900D03*
X217600Y227000D03*
X226800Y212000D03*
X223600D03*
X217300Y218400D03*
X228100Y264700D03*
X217600Y209300D03*
X211800Y224700D03*
Y229300D03*
X213700Y232900D03*
X199400Y235900D03*
X196900Y238500D03*
X193900Y199200D03*
X197400Y200700D03*
X200000Y203000D03*
X222100Y203400D03*
X192000Y191600D03*
X211800Y215200D03*
Y238900D03*
X226500Y349400D03*
Y353200D03*
Y357200D03*
X204200Y349500D03*
X200000Y349400D03*
X202000Y353200D03*
X204300Y356900D03*
X200300D03*
X120900Y336400D03*
X131800Y339000D03*
X125200Y336200D03*
X116500Y335000D03*
X111200Y344100D03*
X112500Y330000D03*
X113600Y315000D03*
X116200Y351500D03*
X139600Y347000D03*
X125100Y345500D03*
X135200Y345600D03*
X136700Y339000D03*
X135400Y342300D03*
X131500Y303000D03*
X125100Y307200D03*
X111600Y294600D03*
X115800Y304700D03*
X120400Y307900D03*
X135000Y329500D03*
X140500D03*
Y324000D03*
X135000D03*
X152000Y329500D03*
X146500D03*
Y324000D03*
X152000D03*
Y312500D03*
X146500D03*
Y318000D03*
X152000D03*
X135000Y312500D03*
Y318000D03*
X140500D03*
Y312500D03*
X139100Y213300D03*
X131700Y239900D03*
X124900Y244200D03*
X138900Y233600D03*
X135000Y249500D03*
Y203500D03*
Y186500D03*
Y198000D03*
Y192000D03*
X140500Y249500D03*
Y203500D03*
Y198000D03*
Y192000D03*
Y186500D03*
X140800Y239900D03*
X144000Y239800D03*
X152000Y203500D03*
X146500D03*
Y198000D03*
X152000D03*
Y186500D03*
X146500D03*
Y192000D03*
X152000D03*
X113200Y188600D03*
X116400Y178400D03*
X120400Y181800D03*
X125000Y181000D03*
X227700Y100400D03*
X223900Y94700D03*
X218400Y106400D03*
X221800Y89300D03*
X225200Y88400D03*
X215100Y131500D03*
X218400Y133200D03*
X207800Y130500D03*
X210100Y133100D03*
X218100Y118000D03*
X215500Y126400D03*
X209900Y124300D03*
X213800Y97200D03*
X131900Y177000D03*
X125200Y210200D03*
X120600Y219000D03*
X113000Y204500D03*
X135100Y176800D03*
X140800Y176900D03*
X140400Y173400D03*
X144100Y176800D03*
X124900Y171600D03*
X116100Y162500D03*
X135500Y170600D03*
X136900Y173800D03*
X161400Y121500D03*
X157000Y107700D03*
X167800Y139400D03*
X167500Y124600D03*
X161500Y142500D03*
X140500Y140500D03*
X152000D03*
X135000D03*
Y123500D03*
X124800Y118300D03*
X152000Y123500D03*
X151400Y98600D03*
X151200Y101900D03*
X192000Y187300D03*
Y182100D03*
X223400Y191700D03*
X212000Y198800D03*
X211800Y193600D03*
Y203400D03*
X213600Y218300D03*
X306700Y108700D03*
X312600Y89500D03*
X299500Y107900D03*
X303400Y94700D03*
X295700Y88200D03*
X295800Y115200D03*
X291900Y105900D03*
X378500Y59500D03*
X351500Y50000D03*
X388000Y59500D03*
X443000Y55000D03*
X238300Y126700D03*
X240900Y143200D03*
X238300Y130400D03*
Y122800D03*
Y118700D03*
X238400Y115000D03*
X250800Y122800D03*
Y113700D03*
X257700Y137700D03*
X255300Y132900D03*
X258000Y194000D03*
X255100D03*
X257100Y170700D03*
X255200Y122200D03*
X257300Y124700D03*
X237200Y199800D03*
X235100Y204700D03*
X230300Y200800D03*
Y204500D03*
X245500Y191700D03*
X272500Y83500D03*
X269800Y74100D03*
X265700Y78600D03*
X272700Y87800D03*
X264000Y93300D03*
X269800D03*
X267800Y99600D03*
X252400Y70700D03*
X244400Y85400D03*
X254300Y86900D03*
X235900Y79100D03*
X235800Y84400D03*
X259800Y93600D03*
X250100Y93400D03*
X244700Y98400D03*
X256700Y99500D03*
X231300Y108500D03*
X238400Y111200D03*
X241300Y41200D03*
X236800Y37700D03*
X316900Y144400D03*
X325000Y145700D03*
X312300Y140800D03*
X313100Y131500D03*
X325000Y135300D03*
X379500Y140500D03*
X390000D03*
X427400Y187600D03*
X434600Y164800D03*
X395000Y176000D03*
X391000D03*
X351500Y132500D03*
X354600Y156000D03*
X350500D03*
X300700Y132900D03*
X300400Y143500D03*
X295900Y125800D03*
X292100Y135400D03*
X268600Y151800D03*
X272600Y155800D03*
X266000Y137800D03*
X266700Y128600D03*
X288500Y142900D03*
X285900Y145600D03*
X279000Y142100D03*
X279100Y145300D03*
X285400Y138100D03*
X276200Y140200D03*
X282700Y128700D03*
X274700Y128600D03*
X283500Y196700D03*
X283400Y200700D03*
X279100Y193200D03*
X264800Y191500D03*
X287600Y93800D03*
X275900Y100900D03*
X277300Y93200D03*
X294500Y82800D03*
X279100Y88600D03*
X281100Y94000D03*
X295900Y78800D03*
X278900D03*
X282700Y120600D03*
X266700D03*
Y112600D03*
X282700Y112500D03*
X274700Y112600D03*
Y120600D03*
X299300Y185000D03*
X269300Y173400D03*
X297200Y196000D03*
X335800Y240900D03*
X340400D03*
X349000Y244500D03*
X347300Y248300D03*
X362800Y280900D03*
X357900Y278500D03*
X350700Y160500D03*
X348000Y164600D03*
X345100Y160700D03*
X343200Y181200D03*
X340400Y176900D03*
X328200Y205000D03*
X341800Y202200D03*
X337600Y202300D03*
X340800Y205800D03*
X335500Y205500D03*
X330700Y240900D03*
X325700D03*
X348700Y288200D03*
X346400Y291500D03*
X348500Y295700D03*
X344300Y295600D03*
X344000Y288000D03*
X379400Y168800D03*
X387400Y210900D03*
X376600Y172200D03*
X387000Y218700D03*
X389400Y226800D03*
X382100Y276300D03*
X387000Y269400D03*
X387700Y274100D03*
X403500Y271600D03*
X447500Y237500D03*
X412100Y236000D03*
X453000Y257000D03*
X434300Y265700D03*
X427500Y259400D03*
X453000Y147000D03*
X452500Y179500D03*
Y202500D03*
X282100Y210100D03*
X284600Y227200D03*
X283800Y215000D03*
X284000Y219100D03*
X284600Y230400D03*
Y234500D03*
X284500Y238900D03*
Y252600D03*
X282700Y256000D03*
Y245300D03*
X263400Y262100D03*
X257000Y264900D03*
X251300Y265000D03*
X243000Y264800D03*
X254100Y263200D03*
X237200Y262100D03*
X197800Y34300D03*
X187300Y32400D03*
X193600Y78800D03*
X192100Y85600D03*
X203100Y41300D03*
X203000Y89200D03*
X185000Y78700D03*
X176300Y72400D03*
X178000Y68600D03*
X185500Y71700D03*
X210700Y62100D03*
X215100Y81700D03*
X185000Y85600D03*
X164000Y28100D03*
X182800Y99600D03*
X175800Y93400D03*
X170900Y88100D03*
X170800Y81400D03*
X170600Y84900D03*
X175700Y89200D03*
X166900Y76100D03*
X167600Y80800D03*
X167200Y70100D03*
X168100Y63700D03*
X171100Y58100D03*
X158000Y113300D03*
X169200Y106000D03*
X135400Y107600D03*
X124900Y108800D03*
X156400Y98500D03*
X156000Y87500D03*
Y63500D03*
Y80000D03*
Y71500D03*
X149300Y36800D03*
X153400Y109300D03*
X146726Y52500D03*
X146600Y43200D03*
X152900Y46700D03*
X133200Y37300D03*
X128400Y37600D03*
Y52500D03*
X131900Y52400D03*
X155700Y53000D03*
X136100Y45900D03*
X125300Y46000D03*
X122600Y50800D03*
X132100Y150100D03*
X125200Y146900D03*
X125500Y129900D03*
Y134500D03*
X115700Y132800D03*
X120800Y146700D03*
X120300Y118800D03*
X135100Y156500D03*
X125100Y156300D03*
X135000Y129000D03*
Y135000D03*
X131600Y114000D03*
X144000Y113800D03*
X140800Y113900D03*
X134800Y113800D03*
X140500Y123500D03*
Y129000D03*
Y135000D03*
X152000Y129000D03*
Y135000D03*
X146500D03*
Y129000D03*
Y123500D03*
Y140500D03*
X114400Y100500D03*
X115400Y76500D03*
X115200Y69100D03*
X113900Y50900D03*
X121100Y73400D03*
X121700Y78700D03*
X119800Y68100D03*
Y57000D03*
X86000Y87500D03*
X86200Y96700D03*
X86000Y84600D03*
X86200Y75300D03*
X85800Y67400D03*
Y58200D03*
X101100Y87100D03*
X101200Y74600D03*
X101300Y58400D03*
X97800Y50700D03*
X80100Y90900D03*
Y94200D03*
X80000Y64400D03*
Y78400D03*
Y81600D03*
Y61152D03*
X52700Y62400D03*
X40300D03*
X56400Y76600D03*
X56500Y92100D03*
X3100Y111400D03*
Y55900D03*
Y48400D03*
X3500Y89500D03*
Y82000D03*
X16100Y111400D03*
Y55900D03*
Y48400D03*
X16500Y89500D03*
Y82000D03*
X9600Y111400D03*
Y55900D03*
Y48400D03*
X10000Y89500D03*
Y82000D03*
X178900Y95600D03*
X174300Y85800D03*
X176300Y75800D03*
X121200Y97100D03*
X148500Y63500D03*
X132500D03*
X140500D03*
Y87500D03*
X143200Y52200D03*
X140500Y71500D03*
Y80000D03*
X132500Y71500D03*
Y80000D03*
Y87500D03*
X148500Y71500D03*
Y80000D03*
Y87500D03*
X134100Y98600D03*
X146600Y98400D03*
X141000Y101000D03*
X134000Y101800D03*
X146500D03*
X137400Y104400D03*
X162200Y184100D03*
X28300Y185000D03*
X56400Y186000D03*
X94500Y199500D03*
Y190500D03*
Y195000D03*
X84500Y198800D03*
Y202400D03*
Y205700D03*
X103500Y199500D03*
X99000Y195000D03*
Y199500D03*
X103500Y195000D03*
X99400Y209500D03*
X105700Y213700D03*
X103500Y190500D03*
X99000D03*
X84500Y189900D03*
Y186900D03*
X90900Y209500D03*
X81300Y212600D03*
X37100Y203300D03*
X38400Y188300D03*
X41900Y190900D03*
X34900D03*
X56600Y248900D03*
X52600D03*
X28300Y244100D03*
X28400Y249100D03*
X46000Y252000D03*
X38700Y251300D03*
X70000Y240000D03*
X74300D03*
X84400Y250000D03*
X96400Y243800D03*
X99500D03*
X104100Y244500D03*
X88000Y240300D03*
X84000Y240700D03*
X80500Y246900D03*
X105600Y234900D03*
X87300Y234100D03*
X90600Y230900D03*
X89900Y225500D03*
X107900Y231400D03*
X104900Y230300D03*
X64500Y218400D03*
X60500D03*
X64000Y221400D03*
X71600Y225500D03*
X64000Y229600D03*
X53500Y221400D03*
Y229600D03*
X45400Y225500D03*
X64000Y196900D03*
X70500Y204100D03*
X64500Y207500D03*
X58000Y211400D03*
X48000Y197800D03*
X49000Y200900D03*
X33100Y203300D03*
X51574Y216800D03*
X47574D03*
X118000Y107300D03*
X109800Y133300D03*
X109700Y122100D03*
X105400D03*
X83100Y124900D03*
X158700Y172300D03*
X87400Y171100D03*
X90700Y167900D03*
X89900Y162500D03*
X154500Y174700D03*
X143500Y173700D03*
X161800Y179700D03*
X96500Y180800D03*
X99600D03*
X104200Y181300D03*
X88100Y177300D03*
X84200Y177400D03*
X140900Y150300D03*
X105900Y133600D03*
X107700Y168400D03*
X111700Y168300D03*
X105700Y171900D03*
X104700Y166900D03*
X28400Y180100D03*
X3100Y118900D03*
X16100D03*
X9600D03*
X3500Y152500D03*
X16500D03*
X10000D03*
X3500Y145000D03*
X16500D03*
X10000D03*
X3100Y181900D03*
X16100D03*
X9600D03*
X3100Y174400D03*
X16100D03*
X9600D03*
X59500Y125200D03*
X47600D03*
X46000Y188000D03*
X53500Y158400D03*
Y166600D03*
X45400Y162500D03*
X52700Y185000D03*
X74102Y158908D03*
X70200Y177100D03*
X71600Y162500D03*
X64000Y166600D03*
X80600Y183700D03*
X74400Y177100D03*
X67900Y125200D03*
X64000Y158400D03*
X16500Y271000D03*
X32500Y328700D03*
X36700Y328500D03*
X47900Y260800D03*
X46700Y280500D03*
X50500Y280600D03*
X42200Y253800D03*
X48900Y263900D03*
X33200Y265300D03*
X37400D03*
X35200Y253800D03*
X53500Y284400D03*
Y292600D03*
X45400Y288500D03*
X27500Y307000D03*
Y312500D03*
X3500Y308000D03*
X16500D03*
X10000D03*
X3500Y300500D03*
X16500D03*
X10000D03*
X3100Y244900D03*
X9600D03*
X3100Y237400D03*
X9600D03*
X16100Y244900D03*
Y237400D03*
X16500Y278500D03*
X3500D03*
X10000D03*
X3500Y271000D03*
Y215500D03*
X16500D03*
X10000D03*
X3500Y208000D03*
X16500D03*
X10000D03*
X3900Y341600D03*
X16900D03*
X10400D03*
X3900Y334100D03*
X16900D03*
X10400D03*
X10000Y271000D03*
X61300Y281200D03*
X57800Y270800D03*
X64400Y270500D03*
X63900Y259900D03*
X65000Y334400D03*
X64000Y292600D03*
X70400Y267100D03*
X71100Y330100D03*
X76000Y285500D03*
X64400Y281400D03*
X81200Y275600D03*
X64000Y284400D03*
X71600Y288500D03*
X58200Y337200D03*
X95100Y344400D03*
X99400Y335600D03*
X90900D03*
X92700Y347100D03*
X64700Y343900D03*
X61300D03*
X64000Y347400D03*
X71600Y351500D03*
X89800D03*
X84500Y328500D03*
Y331800D03*
X81500Y337500D03*
X105600Y339800D03*
X55100Y343600D03*
X51100D03*
X53500Y347400D03*
Y355600D03*
X45400Y351500D03*
X64000Y355600D03*
X46500Y315000D03*
X52500Y312000D03*
X64000Y323000D03*
X38500Y314600D03*
X41500Y317500D03*
X56400Y312100D03*
X48500Y323700D03*
X49000Y327000D03*
X70200Y302900D03*
X84500Y316000D03*
Y313200D03*
X84000Y303400D03*
X80800Y309900D03*
X74400Y303300D03*
X35500Y317500D03*
X94500Y325500D03*
Y316500D03*
Y321000D03*
Y262500D03*
Y253500D03*
Y258000D03*
X103500Y325500D03*
Y316500D03*
X99000Y321000D03*
Y325500D03*
X103500Y321000D03*
X99000Y316500D03*
X84500Y324900D03*
X84400Y252900D03*
Y261800D03*
Y265400D03*
Y268700D03*
X107400Y294800D03*
X105500Y297900D03*
X104700Y293700D03*
X96500Y306900D03*
X88100Y303400D03*
X87400Y297200D03*
X91200Y293600D03*
X90800Y272500D03*
X89900Y288500D03*
X105000Y307400D03*
X99600Y306900D03*
X99000Y258000D03*
Y262500D03*
Y253500D03*
X99300Y272500D03*
X103500Y262500D03*
Y253500D03*
Y258000D03*
X105900Y276900D03*
G54D80*G54D81*G54D82*G54D83*G54D84*G54D85*G54D67*G54D86*G54D82*G54D81*G54D86*G54D87*G54D63*G54D88*G54D89*G54D88*G54D89*G54D87*G54D63*G54D86*M02*
