M48
INCH
T147C0.015
T146C0.040
T145C0.128
T144C0.035
T143C0.042
T142C0.125
T141C0.096
T140C0.100
T139C0.062
T138C0.110
T137C0.035
%
T147
X000310Y021990
X000310Y021240
X000310Y015690
X000310Y014940
X000310Y009390
X000310Y008640
X000310Y003090
X000310Y002340
X000350Y028300
X000350Y027550
X000350Y025350
X000350Y024600
X000350Y019050
X000350Y018300
X000350Y012750
X000350Y012000
X000350Y006450
X000350Y005700
X000390Y031660
X000390Y030910
X000960Y021990
X000960Y021240
X000960Y015690
X000960Y014940
X000960Y009390
X000960Y008640
X000960Y003090
X000960Y002340
X001000Y028300
X001000Y027550
X001000Y025350
X001000Y024600
X001000Y019050
X001000Y018300
X001000Y012750
X001000Y012000
X001000Y006450
X001000Y005700
X001040Y031660
X001040Y030910
X001610Y021990
X001610Y021240
X001610Y015690
X001610Y014940
X001610Y009390
X001610Y008640
X001610Y003090
X001610Y002340
X001650Y028300
X001650Y027550
X001650Y025350
X001650Y024600
X001650Y019050
X001650Y018300
X001650Y012750
X001650Y012000
X001650Y006450
X001650Y005700
X001690Y031660
X001690Y030910
X002500Y030900
X002550Y018300
X002750Y028750
X002750Y028200
X002840Y022410
X002840Y021910
X002850Y016000
X002850Y015510
X002920Y024300
X003490Y022940
X003500Y016640
X003550Y029250
X003840Y022690
X003850Y031500
X003850Y029030
X003850Y025200
X003850Y018900
X003850Y016390
X004120Y003830
X004150Y029250
X004190Y022940
X004200Y016640
X004230Y025210
X004250Y031500
X004250Y018900
X004550Y032750
X004550Y026450
X004550Y020150
X004550Y013850
X004600Y022700
X004600Y016300
X004650Y029000
X004720Y010080
X004790Y023580
X004800Y017280
X004850Y029870
X004890Y023890
X004900Y030200
X004900Y017590
X005150Y003840
X005230Y022390
X005250Y028700
X005250Y016000
X005350Y033150
X005350Y032350
X005350Y026850
X005350Y026050
X005350Y020550
X005350Y019750
X005350Y014250
X005350Y013450
X005640Y028710
X005640Y016100
X005640Y005290
X005660Y022390
X005680Y006540
X005780Y024580
X005800Y018640
X005890Y031200
X005970Y010060
X006050Y019340
X006130Y031890
X006130Y025620
X006390Y023490
X006400Y033150
X006400Y032350
X006400Y029800
X006400Y026850
X006400Y026050
X006400Y020550
X006400Y019750
X006400Y017190
X006400Y014250
X006400Y013450
X006440Y025640
X006440Y024550
X006450Y019340
X006450Y018250
X006460Y030910
X006470Y031890
X006920Y010080
X007000Y027870
X007000Y021550
X007010Y015260
X007040Y024210
X007050Y017910
X007110Y030510
X007150Y032750
X007150Y026450
X007150Y020150
X007150Y013850
X007410Y013391
X007430Y021543
X007440Y027853
X007440Y015243
X007600Y026050
X008000Y005660
X008000Y005340
X008000Y003940
X008000Y003615
X008010Y006920
X008010Y006590
X008070Y022200
X008080Y028510
X008080Y015900
X008120Y025060
X008130Y018760
X008150Y031250
X008160Y010100
X008440Y024370
X008440Y024040
X008440Y023680
X008440Y022790
X008440Y022490
X008450Y030680
X008450Y030350
X008450Y029990
X008450Y029100
X008450Y028800
X008450Y021670
X008450Y018070
X008450Y017740
X008450Y017380
X008450Y016490
X008450Y016190
X008460Y027980
X008460Y015370
X008580Y004230
X008590Y003370
X008610Y007140
X008610Y005930
X008610Y005080
X008620Y006310
X008730Y020910
X008740Y027220
X008740Y014610
X008800Y021530
X008810Y027840
X008810Y015230
X009000Y032750
X009050Y026450
X009050Y020150
X009050Y013850
X009060Y020590
X009070Y014290
X009080Y024750
X009090Y031060
X009090Y018450
X009120Y026860
X009270Y032210
X009450Y030050
X009450Y029600
X009450Y029150
X009450Y023750
X009450Y023300
X009450Y022850
X009450Y017450
X009450Y017000
X009450Y016550
X009510Y031940
X009640Y021880
X009650Y028190
X009650Y015580
X009780Y002570
X009900Y033150
X009900Y032350
X009900Y030050
X009900Y029600
X009900Y029150
X009900Y023750
X009900Y023300
X009900Y022850
X009900Y017450
X009900Y017000
X009900Y016550
X009930Y024750
X009940Y031060
X009940Y018450
X009950Y021880
X009960Y028190
X009960Y015580
X010120Y006290
X010120Y005030
X010120Y003380
X010350Y030050
X010350Y029600
X010350Y029150
X010350Y023750
X010350Y023300
X010350Y022850
X010350Y017450
X010350Y017000
X010350Y016550
X010410Y021930
X010420Y028180
X010420Y026870
X010420Y015570
X010430Y020590
X010440Y014290
X010530Y009800
X010550Y025170
X010550Y010950
X010560Y031480
X010560Y020990
X010560Y018870
X010570Y027300
X010570Y014690
X010720Y026980
X010760Y020640
X010770Y014340
X010900Y033150
X010900Y032350
X010970Y009710
X010980Y010830
X011120Y031910
X011160Y026960
X011160Y020630
X011170Y014330
X011200Y025570
X011250Y032300
X011250Y030500
X011300Y024250
X011300Y017950
X011310Y022660
X011320Y016360
X011360Y029000
X011390Y002590
X011520Y004410
X011540Y007540
X011540Y005150
X011550Y026450
X011550Y021780
X011550Y020150
X011550Y013850
X011560Y028090
X011560Y015480
X011600Y032750
X011607Y023390
X011607Y010790
X011617Y029700
X011617Y017090
X011650Y031000
X011800Y008230
X011980Y004310
X011980Y003180
X012030Y021980
X012030Y009380
X012040Y028290
X012040Y015680
X012060Y019400
X012080Y024770
X012080Y012170
X012090Y031140
X012090Y018470
X012110Y004840
X012120Y007210
X012170Y005370
X012210Y025350
X012260Y002580
X012480Y021000
X012480Y009260
X012480Y008400
X012490Y027310
X012490Y021860
X012490Y014700
X012490Y012250
X012500Y024800
X012500Y015570
X012500Y013090
X012510Y032000
X012510Y028220
X012510Y019390
X012520Y031130
X012520Y018540
X012550Y023550
X012550Y023090
X012550Y010950
X012550Y010490
X012560Y029860
X012560Y029400
X012560Y017250
X012560Y016790
X012570Y002180
X012830Y001320
X012840Y002730
X013150Y027800
X013160Y008890
X013170Y021490
X013180Y031400
X013190Y018870
X013190Y015180
X013200Y025010
X013200Y012570
X013200Y002720
X013220Y025600
X013250Y006250
X013250Y005500
X013250Y004650
X013250Y003850
X013290Y001270
X013400Y007680
X013410Y007360
X013430Y025350
X013447Y020857
X013480Y021480
X013480Y008880
X013490Y027790
X013500Y030450
X013500Y029900
X013500Y029300
X013500Y028750
X013500Y024150
X013500Y023600
X013500Y023000
X013500Y022450
X013500Y017850
X013500Y017300
X013500Y016700
X013500Y016150
X013500Y011550
X013500Y011000
X013500Y010400
X013500Y009850
X013510Y015180
X013510Y013150
X013520Y032060
X013520Y019450
X013540Y031730
X013540Y008260
X013550Y027170
X013550Y014560
X013630Y002110
X013650Y027500
X013650Y021200
X013670Y031400
X013690Y014880
X013740Y007940
X013780Y025400
X013890Y020860
X013910Y018830
X013960Y032200
X014020Y027470
X014020Y021170
X014040Y014840
X014050Y030450
X014050Y029900
X014050Y029300
X014050Y028750
X014050Y024150
X014050Y023600
X014050Y023000
X014050Y022450
X014050Y017850
X014050Y017300
X014050Y016700
X014050Y016150
X014050Y011550
X014050Y011000
X014050Y010400
X014050Y009850
X014050Y006250
X014050Y005500
X014050Y004650
X014050Y003850
X014060Y025170
X014080Y027800
X014080Y021490
X014080Y015190
X014080Y008890
X014090Y012530
X014100Y007600
X014320Y002720
X014350Y014870
X014390Y027790
X014400Y021480
X014400Y008880
X014410Y015180
X014500Y025900
X014600Y026250
X014650Y030450
X014650Y029900
X014650Y029300
X014650Y028750
X014650Y024150
X014650Y023600
X014650Y023000
X014650Y022450
X014650Y017850
X014650Y017300
X014650Y016700
X014650Y016150
X014650Y011550
X014650Y011000
X014650Y010400
X014650Y009850
X014650Y007680
X014660Y007340
X014670Y027070
X014670Y001890
X014673Y002730
X014850Y006250
X014850Y005500
X014850Y004650
X014850Y003850
X014930Y001180
X015120Y007690
X015140Y007360
X015200Y030450
X015200Y029900
X015200Y029300
X015200Y028750
X015200Y024150
X015200Y023600
X015200Y023000
X015200Y022450
X015200Y017850
X015200Y017300
X015200Y016700
X015200Y016150
X015200Y011550
X015200Y011000
X015200Y010400
X015200Y009850
X015280Y008430
X015290Y002170
X015330Y026810
X015450Y014970
X015530Y021030
X015570Y002740
X015600Y006250
X015600Y005500
X015600Y004650
X015600Y003850
X015640Y007360
X015700Y008260
X015750Y008830
X015870Y014730
X015940Y021040
X016110Y030670
X016130Y028550
X016160Y011750
X016180Y024370
X016180Y022240
X016180Y015470
X016190Y021830
X016190Y018070
X016200Y009650
X016220Y015910
X016350Y020900
X016400Y000310
X016730Y024060
X016730Y011460
X016730Y004520
X016740Y030370
X016740Y017760
X016750Y022560
X016750Y009960
X016760Y028870
X016760Y016260
X016760Y005580
X016760Y005110
X016810Y003870
X016860Y021590
X016880Y008060
X017060Y005990
X017080Y005640
X017090Y006310
X017110Y003310
X017420Y006000
X017550Y006830
X017560Y005080
X017570Y006420
X017580Y004750
X017720Y021150
X017730Y004360
X017910Y006990
X018000Y027390
X018030Y028100
X018220Y007470
X018330Y028490
X018380Y021210
X018400Y027710
X018410Y021530
X018410Y017350
X018500Y006060
X018500Y005370
X018550Y004670
X018730Y000740
X019210Y006060
X019230Y016230
X019230Y015710
X019260Y016740
X019360Y005380
X019390Y017420
X019690Y021350
X019740Y017570
X019780Y000930
X019940Y021090
X020000Y032440
X020000Y017800
X020030Y033190
X020200Y032820
X020420Y032450
X020430Y033190
X020560Y003830
X020680Y024410
X020860Y024700
X020900Y025510
X020910Y005500
X020940Y001250
X021170Y023470
X021170Y023150
X021180Y021390
X021180Y020430
X021180Y019970
X021180Y019020
X021180Y017840
X021180Y016860
X021210Y017380
X021360Y019330
X021370Y020790
X021380Y022500
X021380Y021890
X021700Y022500
X021700Y021890
X021730Y020790
X021730Y019340
X021760Y020200
X021760Y018430
X021870Y023710
X021870Y023380
X022030Y025150
X022210Y023710
X022210Y023390
X022210Y017810
X022340Y016670
X022350Y019920
X022360Y018700
X022370Y007010
X022480Y008140
X022650Y033220
X022650Y032820
X022650Y032440
X022680Y019920
X022680Y018700
X022760Y021120
X022770Y007540
X022810Y023970
X022850Y023370
X022880Y017220
X022880Y016890
X023030Y017950
X023030Y017580
X023150Y023970
X023280Y032170
X023287Y008320
X023480Y005490
X023500Y001240
X023510Y017970
X023600Y001870
X023630Y031800
X023720Y023710
X023720Y023390
X023720Y017480
X023720Y016670
X023860Y022520
X023870Y008990
X023870Y008590
X023877Y009390
X023890Y010580
X023890Y010170
X023890Y009780
X023980Y023980
X024010Y032180
X024040Y002240
X024090Y011820
X024160Y018010
X024170Y031720
X024170Y022510
X024300Y023980
X024330Y017290
X024390Y031180
X024450Y006130
X024470Y007340
X024500Y032080
X024500Y023310
X024500Y018010
X024550Y016670
X024630Y018770
X024870Y016670
X024890Y031200
X024960Y022790
X025030Y006840
X025080Y009780
X025080Y008870
X025130Y024000
X025130Y018770
X025240Y004570
X025400Y027290
X025410Y023820
X025430Y006190
X025510Y017220
X025510Y016900
X025520Y009720
X025530Y010790
X025670Y007450
X025700Y023990
X025730Y009970
X025780Y011300
X025800Y017220
X025800Y016900
X025800Y014690
X025980Y006860
X026120Y026030
X026300Y024960
X026310Y025300
X026340Y023710
X026340Y023390
X026380Y025760
X026400Y006830
X026440Y030820
X026480Y016650
X026570Y005360
X026580Y011330
X026670Y010360
X026670Y009560
X026670Y008760
X026680Y017320
X026700Y023710
X026700Y023390
X026710Y019190
X026750Y028930
X026780Y007460
X026830Y022330
X026860Y022890
X026860Y012680
X026900Y016640
X026950Y020260
X026980Y014840
X026980Y006830
X026980Y004910
X027130Y022620
X027130Y022030
X027210Y015250
X027250Y005850
X027260Y013080
X027270Y006280
X027310Y020260
X027380Y022910
X027390Y022310
X027430Y019590
X027460Y023970
X027460Y016660
X027470Y010360
X027470Y009560
X027470Y008760
X027500Y026290
X027590Y007590
X027600Y030010
X027620Y011520
X027680Y027020
X027730Y006820
X027840Y020000
X027860Y021240
X027890Y022030
X027890Y018520
X027900Y023100
X027900Y011710
X027910Y016820
X027910Y012030
X027940Y006340
X027950Y032840
X027950Y028080
X027960Y005380
X028060Y033190
X028100Y029530
X028100Y028930
X028150Y006940
X028210Y018510
X028270Y028050
X028270Y023100
X028270Y022030
X028270Y010370
X028270Y009560
X028270Y008750
X028310Y032840
X028340Y017570
X028350Y017170
X028370Y030580
X028380Y019000
X028400Y019410
X028410Y033220
X028440Y015270
X028450Y023760
X028450Y022760
X028450Y021390
X028460Y020950
X028460Y020540
X028460Y020220
X028580Y011310
X028590Y030290
X028590Y012060
X028600Y029530
X028600Y028930
X028670Y032830
X028760Y033210
X028760Y006880
X028810Y030580
X028850Y011790
X028910Y028030
X029020Y027190
X029040Y032830
X029100Y029530
X029100Y028930
X029130Y033180
X029190Y008090
X029210Y011040
X029230Y028060
X029420Y032830
X029450Y005780
X029513Y005380
X029570Y017470
X029570Y016590
X029570Y006320
X029580Y009020
X029590Y010080
X029690Y026250
X029690Y025820
X029720Y017100
X029930Y016000
X030020Y011850
X030070Y010790
X030200Y030860
X030240Y028960
X030320Y008520
X030340Y006970
X030670Y008110
X030713Y026240
X030740Y025820
X030990Y026910
X031230Y011580
X031250Y009430
X031260Y007590
X031260Y006450
X031310Y010650
X031650Y009170
X031670Y008140
X031690Y011940
X031790Y010630
X031790Y005100
X031860Y026550
X031870Y027050
X032060Y026800
X032060Y026320
X032200Y005170
X032220Y010430
X032390Y006910
X032410Y009940
X032490Y011970
X032500Y011030
X032570Y021590
X032580Y032200
X032590Y031280
X032640Y009650
X032640Y007190
X032820Y018000
X032900Y031810
X033070Y021590
X033074Y023520
X033134Y024050
X033160Y016280
X033310Y032190
X033550Y018050
X033570Y031770
X033580Y021590
X033760Y017730
X033940Y032170
X033950Y009570
X033960Y008470
X033970Y033200
X034000Y006000
X034040Y021590
X034040Y015190
X034080Y018080
X034150Y010710
X034180Y017720
X034320Y015620
X034400Y026300
X034430Y027060
X034510Y013570
X034560Y003260
X034640Y026650
X034730Y022330
X034800Y013960
X034850Y027070
X034870Y026320
X034900Y021950
X035070Y013550
X035350Y031450
X035400Y028150
X035440Y003690
X035480Y014550
X035700Y031750
X035700Y027850
X035790Y025350
X035800Y014540
X035900Y033220
X036000Y028200
X036050Y031450
X036280Y025590
X037660Y014720
X037940Y014380
X038210Y025130
X038300Y015790
X038650Y015780
X038700Y024440
X038700Y019370
X038740Y018590
X038770Y024910
X038940Y020180
T144
X035200Y009300
X035200Y008300
X035200Y007300
X035200Y006300
X035200Y005300
X036200Y009800
X036200Y008800
X036200Y007800
X036200Y006800
X036200Y005800
T137
X039800Y021350
X039800Y020562
X039800Y019775
X039800Y018987
X039800Y018200
X039800Y017413
X039800Y016625
X040587Y021350
X040587Y020562
X040587Y019775
X040587Y018987
X040587Y018200
X040587Y017413
X040587Y016625
T146
X033300Y009700
X033300Y008700
X033300Y006400
X033300Y005400
T143
X017000Y001000
X018000Y001000
X036000Y022500
X036000Y021500
X036000Y020500
X036000Y019500
X036000Y018500
X036000Y017500
X036000Y016500
X036000Y015500
X037000Y022500
X037000Y021500
X037000Y020500
X037000Y019500
X037000Y018500
X037000Y017500
X037000Y016500
X037000Y015500
T139
X037500Y010600
X037500Y004500
X040819Y028000
T141
X003250Y032750
X003250Y001250
X038750Y032750
X038750Y001250
T140
X039638Y028000
T138
X040032Y029772
X040032Y026228
T142
X037276Y028000
T145
X038700Y009800
X038700Y005300
M30
