G04 start of page 3 for group 1 idx 1 *
G04 Title: (unknown), solder *
G04 Creator: pcb 20110918 *
G04 CreationDate: Thu 31 May 2012 11:38:54 AM GMT UTC *
G04 For: pmonta *
G04 Format: Gerber/RS-274X *
G04 PCB-Dimensions: 400000 320000 *
G04 PCB-Coordinate-Origin: lower left *
%MOIN*%
%FSLAX25Y25*%
%LNBOTTOM*%
%ADD75C,0.0354*%
%ADD74C,0.1280*%
%ADD73C,0.0400*%
%ADD72C,0.0350*%
%ADD71C,0.0380*%
%ADD70C,0.1000*%
%ADD69C,0.0620*%
%ADD68C,0.1100*%
%ADD67C,0.1250*%
%ADD66C,0.0150*%
%ADD65C,0.0250*%
%ADD64R,0.1200X0.1200*%
%ADD63R,0.0512X0.0512*%
%ADD62R,0.0197X0.0197*%
%ADD61C,0.0554*%
%ADD60C,0.1480*%
%ADD59C,0.0820*%
%ADD58C,0.0550*%
%ADD57C,0.0600*%
%ADD56C,0.1450*%
%ADD55C,0.1200*%
%ADD54C,0.0830*%
%ADD53C,0.1300*%
%ADD52C,0.0800*%
%ADD51C,0.0180*%
%ADD50C,0.0060*%
%ADD49C,0.0001*%
G54D49*G36*
X264597Y268000D02*X265000D01*
X270000Y263000D01*
Y251530D01*
X269947Y251442D01*
X269835Y251173D01*
X269767Y250890D01*
X269744Y250600D01*
X269767Y250310D01*
X269835Y250027D01*
X269947Y249758D01*
X270000Y249670D01*
Y226275D01*
X268285Y226268D01*
X268132Y226231D01*
X267987Y226171D01*
X267852Y226089D01*
X267733Y225986D01*
X267630Y225867D01*
X267548Y225732D01*
X267488Y225587D01*
X267451Y225434D01*
X267442Y225277D01*
X267451Y222366D01*
X267488Y222213D01*
X267526Y222122D01*
X267499Y222091D01*
X267347Y221842D01*
X267235Y221573D01*
X267167Y221290D01*
X267144Y221000D01*
X267167Y220710D01*
X267235Y220427D01*
X267347Y220158D01*
X267499Y219909D01*
X267688Y219688D01*
X267909Y219499D01*
X268158Y219347D01*
X268427Y219235D01*
X268710Y219167D01*
X269000Y219144D01*
X269290Y219167D01*
X269573Y219235D01*
X269842Y219347D01*
X270000Y219443D01*
Y215576D01*
X268111Y215568D01*
X267958Y215531D01*
X267813Y215471D01*
X267678Y215389D01*
X267559Y215286D01*
X267456Y215167D01*
X267374Y215032D01*
X267314Y214887D01*
X267277Y214734D01*
X267268Y214577D01*
X267277Y211666D01*
X267314Y211513D01*
X267374Y211368D01*
X267379Y211359D01*
X267247Y211142D01*
X267135Y210873D01*
X267067Y210590D01*
X267044Y210300D01*
X267067Y210010D01*
X267135Y209727D01*
X267247Y209458D01*
X267399Y209209D01*
X267588Y208988D01*
X267809Y208799D01*
X268058Y208647D01*
X268327Y208535D01*
X268610Y208467D01*
X268900Y208444D01*
X269190Y208467D01*
X269473Y208535D01*
X269742Y208647D01*
X269991Y208799D01*
X270000Y208807D01*
Y208000D01*
X264597D01*
Y227845D01*
X264600Y227844D01*
X264890Y227867D01*
X265173Y227935D01*
X265442Y228047D01*
X265691Y228199D01*
X265912Y228388D01*
X266101Y228609D01*
X266253Y228858D01*
X266365Y229127D01*
X266433Y229410D01*
X266450Y229700D01*
X266433Y229990D01*
X266365Y230273D01*
X266253Y230542D01*
X266101Y230791D01*
X265912Y231012D01*
X265691Y231201D01*
X265442Y231353D01*
X265173Y231465D01*
X264890Y231533D01*
X264600Y231556D01*
X264597Y231555D01*
Y244747D01*
X264627Y244735D01*
X264910Y244667D01*
X265200Y244644D01*
X265490Y244667D01*
X265773Y244735D01*
X266042Y244847D01*
X266291Y244999D01*
X266512Y245188D01*
X266701Y245409D01*
X266853Y245658D01*
X266965Y245927D01*
X267033Y246210D01*
X267050Y246500D01*
X267033Y246790D01*
X266965Y247073D01*
X266853Y247342D01*
X266701Y247591D01*
X266512Y247812D01*
X266291Y248001D01*
X266042Y248153D01*
X265773Y248265D01*
X265490Y248333D01*
X265200Y248356D01*
X264910Y248333D01*
X264627Y248265D01*
X264597Y248253D01*
Y268000D01*
G37*
G36*
X257745Y222206D02*X257833Y222130D01*
X257968Y222048D01*
X258113Y221988D01*
X258266Y221951D01*
X258423Y221942D01*
X261334Y221951D01*
X261487Y221988D01*
X261632Y222048D01*
X261767Y222130D01*
X261886Y222233D01*
X261989Y222352D01*
X262071Y222487D01*
X262131Y222632D01*
X262168Y222785D01*
X262177Y222942D01*
X262168Y225067D01*
X262131Y225220D01*
X262071Y225365D01*
X261989Y225500D01*
X261988Y225500D01*
X261989Y225500D01*
X262071Y225635D01*
X262131Y225780D01*
X262168Y225933D01*
X262177Y226090D01*
X262168Y228215D01*
X262131Y228368D01*
X262071Y228513D01*
X261989Y228648D01*
X261886Y228767D01*
X261767Y228870D01*
X261632Y228952D01*
X261487Y229012D01*
X261334Y229049D01*
X261177Y229058D01*
X258266Y229049D01*
X258113Y229012D01*
X257968Y228952D01*
X257833Y228870D01*
X257745Y228794D01*
X257573Y228865D01*
X257290Y228933D01*
X257000Y228956D01*
Y254000D01*
X255597D01*
Y255445D01*
X255600Y255444D01*
X255890Y255467D01*
X256173Y255535D01*
X256442Y255647D01*
X256691Y255799D01*
X256912Y255988D01*
X257101Y256209D01*
X257253Y256458D01*
X257365Y256727D01*
X257433Y257010D01*
X257450Y257300D01*
X257433Y257590D01*
X257365Y257873D01*
X257253Y258142D01*
X257101Y258391D01*
X256912Y258612D01*
X256691Y258801D01*
X256442Y258953D01*
X256173Y259065D01*
X255890Y259133D01*
X255600Y259156D01*
X255597Y259155D01*
Y268000D01*
X264597D01*
Y248253D01*
X264358Y248153D01*
X264109Y248001D01*
X263888Y247812D01*
X263699Y247591D01*
X263547Y247342D01*
X263435Y247073D01*
X263367Y246790D01*
X263344Y246500D01*
X263367Y246210D01*
X263435Y245927D01*
X263547Y245658D01*
X263699Y245409D01*
X263888Y245188D01*
X264109Y244999D01*
X264358Y244847D01*
X264597Y244747D01*
Y231555D01*
X264310Y231533D01*
X264027Y231465D01*
X263758Y231353D01*
X263509Y231201D01*
X263288Y231012D01*
X263099Y230791D01*
X262947Y230542D01*
X262835Y230273D01*
X262767Y229990D01*
X262744Y229700D01*
X262767Y229410D01*
X262835Y229127D01*
X262947Y228858D01*
X263099Y228609D01*
X263288Y228388D01*
X263509Y228199D01*
X263758Y228047D01*
X264027Y227935D01*
X264310Y227867D01*
X264597Y227845D01*
Y208000D01*
X257000D01*
Y222044D01*
X257290Y222067D01*
X257573Y222135D01*
X257745Y222206D01*
G37*
G36*
X255597Y254000D02*X248000D01*
X230000Y272000D01*
Y281000D01*
X244000D01*
Y268000D01*
X255597D01*
Y259155D01*
X255310Y259133D01*
X255027Y259065D01*
X254758Y258953D01*
X254509Y258801D01*
X254288Y258612D01*
X254099Y258391D01*
X253947Y258142D01*
X253835Y257873D01*
X253767Y257590D01*
X253744Y257300D01*
X253767Y257010D01*
X253835Y256727D01*
X253947Y256458D01*
X254099Y256209D01*
X254288Y255988D01*
X254509Y255799D01*
X254758Y255647D01*
X255027Y255535D01*
X255310Y255467D01*
X255597Y255445D01*
Y254000D01*
G37*
G54D50*X232000Y53000D02*X251700D01*
X234600Y50800D02*X249600D01*
X237200Y48600D02*X249400D01*
X240200Y46300D02*X252900D01*
X243100Y44100D02*X256000D01*
X249500Y50800D02*X278100D01*
X247700Y48600D02*X279600D01*
X249600Y46300D02*X280200D01*
X255100Y44100D02*X281400D01*
X172400Y49700D02*X169900Y52200D01*
X170150Y51950D02*X169850Y52250D01*
X160550D01*
X172400Y43900D02*Y49700D01*
X246000Y41900D02*X257300D01*
X256400D02*X282100D01*
X280700D02*X302100D01*
X248500Y39700D02*X259200D01*
X257800D02*X283000D01*
X281800D02*X306500D01*
X321500Y5500D02*X206900D01*
X317400Y7600D02*X219900D01*
X312900Y9800D02*X224300D01*
X326600Y3500D02*X206200D01*
X225000Y9800D02*X209900D01*
X208200Y11500D01*
X319800Y10000D02*X317400Y7600D01*
X315500Y17500D02*Y12400D01*
X312900Y9800D01*
X251500Y37500D02*X260200D01*
X259400D02*X283000D01*
X311700Y17600D02*Y14300D01*
X309500Y12100D01*
X229400D01*
X218300Y16500D02*X222700Y12100D01*
X226700D01*
X277200Y50800D02*X282700D01*
X278300Y48600D02*X285500D01*
X279200Y46300D02*X288000D01*
X280400Y44100D02*X293000D01*
X302100Y41900D02*X309900Y49700D01*
X306500Y39700D02*X314800Y48000D01*
X311400Y37500D02*X313700Y39800D01*
X338800D01*
X342000Y43000D01*
X281900Y37500D02*X311400D01*
X332800Y23500D02*X326600D01*
X319800Y16700D01*
Y10000D01*
X324800Y26800D02*X315500Y17500D01*
X323700Y29600D02*X311700Y17600D01*
X335200Y26800D02*X324800D01*
X337700Y29600D02*X323700D01*
X220700Y7600D02*X208800D01*
X207200Y9200D01*
X207100Y5500D02*X205300D01*
X203800Y4000D01*
X199200D01*
X204700Y2000D02*X196400D01*
X194900Y3500D01*
X199200Y4000D02*X197700Y5500D01*
X206200Y3500D02*X204700Y2000D01*
X398200Y1800D02*X397800Y2200D01*
X398200Y1800D02*X395700Y4300D01*
G54D51*X396750Y3250D02*X395400Y4600D01*
G54D50*X170400Y12000D02*Y41900D01*
X230200Y12100D02*X226100D01*
X208200Y11500D02*X174800D01*
X174500Y14300D02*X179000D01*
X181200Y16500D01*
X218300D01*
X174800Y11500D02*X173800Y10500D01*
X170400Y41900D02*X170950Y42450D01*
X170800Y42300D02*X172400Y43900D01*
X197700Y5500D02*X173400D01*
X207200Y9200D02*X181000D01*
X179500Y7700D01*
X165400D01*
X164500Y8600D01*
X174200Y5500D02*X170500D01*
X164500Y8600D02*Y12400D01*
X173900Y10600D02*X172800Y9500D01*
X167900D01*
X167300Y10100D01*
X194900Y3500D02*X172400D01*
X172100Y3200D01*
X169100D01*
X168800Y3500D01*
X117400Y155100D02*Y104900D01*
Y73700D02*Y68400D01*
X117100Y89600D02*Y84800D01*
Y85000D02*Y84600D01*
X117400Y84300D01*
Y72800D01*
X120800Y139400D02*Y118700D01*
X119600Y117500D01*
X105800Y130500D02*Y126900D01*
X105400Y130900D02*X105800Y130500D01*
X105400Y133200D02*Y130900D01*
X101700Y132200D02*X98600Y129100D01*
X101700Y133300D02*Y132200D01*
X120900Y144400D02*X119500Y143000D01*
Y140700D01*
X120800Y139400D01*
X105800Y126900D02*X102500Y123600D01*
Y102400D02*Y68200D01*
X106300Y92300D02*Y69500D01*
X102500Y123600D02*Y108600D01*
Y68200D02*X105700Y65000D01*
X106300Y69500D02*X109300Y66500D01*
X108600Y102500D02*Y94600D01*
X106300Y92300D01*
X113000Y100700D02*Y93700D01*
X117100Y89600D01*
X119600Y71200D02*X123950Y66850D01*
X122600Y111000D02*Y84800D01*
X123100Y63600D02*X120700Y66000D01*
X119800D01*
X117400Y68400D01*
X127100Y80200D02*X126850Y80450D01*
X98600Y106300D02*X102500Y102400D01*
Y108600D02*X108600Y102500D01*
X117400Y105100D02*X113000Y100700D01*
X119600Y117500D02*Y85900D01*
Y80700D01*
X119200Y80300D01*
Y71600D01*
X119700Y71100D01*
X321600Y152800D02*X320700Y153700D01*
X261200D01*
X313000Y150700D02*X188900D01*
X262100Y142500D02*X265800Y146200D01*
X314500D01*
X312700Y150700D02*X318600D01*
X271000Y139700D02*X273200Y141900D01*
X314700D01*
X313400Y146200D02*X338200D01*
X342400Y150400D01*
Y192300D01*
X337600Y197100D01*
X338300Y141900D02*X345000Y148600D01*
Y192700D01*
X338100Y199600D01*
X332300D01*
G54D51*X264300Y185900D02*X264400Y185800D01*
X266852D01*
X274200Y184100D02*X272500Y185800D01*
G54D50*X279800Y190700D02*X277200Y188100D01*
X273400D01*
X271400Y190100D01*
Y193200D01*
G54D51*X272500Y185800D02*X270000D01*
G54D50*X271400Y193200D02*X268900Y195700D01*
X263000D01*
X260300Y198400D01*
X196900Y72200D02*X193700Y75400D01*
X209200Y73800D02*X199500D01*
X196500Y76800D01*
X196900Y72200D02*X209900D01*
X193700Y75400D02*Y82300D01*
X196500Y76800D02*Y85200D01*
X195700Y86000D01*
X193800D01*
X193700Y86100D01*
X214200Y84000D02*X211300Y81100D01*
Y75900D01*
X212900Y78700D02*X215000Y80800D01*
X211300Y75900D02*X209200Y73800D01*
X209900Y72200D02*X212900Y75200D01*
Y78700D01*
X215100Y76400D02*Y73800D01*
X211400Y70100D02*X186200D01*
X185800Y85500D02*Y105700D01*
X195600Y115500D01*
X185700Y81600D02*Y81800D01*
X182800Y84700D01*
Y106700D01*
X194600Y118500D01*
G54D51*X228000Y73600D02*X233600D01*
X227700Y72300D02*X233600D01*
X233100D02*X236400D01*
X232900Y73600D02*X236400D01*
X234700Y66500D02*X223500Y55300D01*
X209800Y57300D02*X211700D01*
X228000Y73600D01*
X209800Y54400D02*X227700Y72300D01*
X223500Y55300D02*Y54100D01*
G54D50*X215100Y73800D02*X211400Y70100D01*
X214900Y84000D02*X214200D01*
G54D51*X227400Y82800D02*Y80126D01*
X227826Y79700D01*
X227500Y90200D02*Y92574D01*
X227826Y92900D01*
X218526Y103300D02*Y105974D01*
X216657Y111500D02*Y107843D01*
X218526Y105974D02*X216657Y107843D01*
X221674Y103300D02*Y105674D01*
X223743Y111500D02*Y107743D01*
X221674Y105674D02*X223743Y107743D01*
G54D50*X195600Y115500D02*X294500D01*
X194600Y118500D02*X297800D01*
X306000Y116800D02*X313500Y109300D01*
X319500Y111500D02*Y116600D01*
X314200Y121900D01*
Y127500D01*
X297800Y118500D02*X312100Y104200D01*
X181200Y159700D02*X186700D01*
X187500Y160500D01*
Y165600D01*
X187400Y165700D01*
X190000Y168000D02*X182100D01*
X182300Y164300D02*X183800D01*
X183900Y164200D01*
X224400Y187000D02*X222100Y184700D01*
X212600D01*
X205200Y177300D01*
X196000D01*
X193500Y179800D01*
X194150Y179150D02*X192600Y180700D01*
X299400Y72200D02*X326400D01*
X334900Y80700D01*
X339700D01*
X342000Y83000D01*
X336200Y72500D02*X341500D01*
X342000Y73000D01*
X300600Y68700D02*X327400D01*
X302200Y65300D02*X329000D01*
X303300Y61600D02*X330500D01*
X327400Y68700D02*X336700Y78000D01*
X329000Y65300D02*X336200Y72500D01*
X330500Y61600D02*X336900Y68000D01*
X336700Y78000D02*X352000D01*
X336900Y68000D02*X352000D01*
X307500Y58600D02*X351400D01*
X352000Y58000D01*
X309900Y49700D02*X331500D01*
X334700Y52900D01*
X341900D01*
X342000Y53000D01*
X313800Y141900D02*X338300D01*
X294500Y115500D02*X323000Y87000D01*
X315800Y112900D02*X308000Y120700D01*
Y127500D01*
X314800Y48000D02*X352000D01*
X328000Y15800D02*Y4900D01*
X326600Y3500D01*
X330500Y20100D02*X327800D01*
X324100Y16400D01*
Y8100D01*
X321500Y5500D01*
X251400Y53000D02*X278400D01*
G54D51*X266900Y60300D02*Y57474D01*
X266974Y57400D01*
X263800Y60200D02*Y57426D01*
X263826Y57400D01*
G54D50*X282700Y50800D02*X300600Y68700D01*
X285500Y48600D02*X302200Y65300D01*
X288000Y46300D02*X303300Y61600D01*
X293000Y44100D02*X307500Y58600D01*
X277400Y53000D02*X280200D01*
X299400Y72200D01*
G54D51*X267074Y66926D02*X267000Y67000D01*
G54D50*X234300Y53000D02*X230200D01*
G54D51*X263926Y64000D02*Y66774D01*
X263800Y66900D01*
X267074Y64000D02*Y66926D01*
X246200Y65126D02*X246174Y65100D01*
X242900Y65226D02*X243026Y65100D01*
X246200Y67900D02*Y65126D01*
X242900Y68000D02*Y65226D01*
X252400Y67200D02*Y70026D01*
X252326Y70100D01*
X255500Y67200D02*Y70074D01*
X255474Y70100D01*
X236300Y97700D02*Y94700D01*
X231700Y82700D02*Y80426D01*
X230974Y79700D01*
X231300Y90200D02*Y92574D01*
X230974Y92900D01*
X239448Y97700D02*X239500Y97648D01*
Y94700D01*
X247252Y97548D02*Y94700D01*
X247200Y97600D02*X247252Y97548D01*
X244052Y97600D02*Y94700D01*
X243400Y74400D02*Y71500D01*
X246700Y74400D02*Y71552D01*
X263700Y108900D02*Y111726D01*
X263626Y111800D01*
X266900Y108900D02*Y111674D01*
X266774Y111800D01*
X263700Y102500D02*Y105326D01*
X263626Y105400D01*
X266800Y102500D02*Y105374D01*
X266774Y105400D01*
X256026Y92500D02*Y90026D01*
X255800Y89800D01*
X259174Y92500D02*Y95074D01*
X259300Y95200D01*
X255826Y80600D02*Y82874D01*
X255400Y83300D01*
X258974Y80600D02*Y83174D01*
X259200Y83400D01*
G54D50*X312400Y75300D02*X312300Y75200D01*
X319100Y82000D02*X312300Y75200D01*
X313500Y109300D02*X317300D01*
X319500Y111500D01*
X312100Y104200D02*X313700D01*
X327900Y90000D01*
Y84000D01*
X325900Y82000D01*
X319100D01*
X101200Y34000D02*X101000Y33800D01*
X101200Y41000D02*Y34000D01*
X101100Y33900D02*X92900Y25700D01*
Y36600D02*Y29900D01*
G54D51*X109800Y33100D02*Y21800D01*
X103900Y24200D02*Y15900D01*
X105200Y25500D02*X103900Y24200D01*
X105200Y34100D02*Y25500D01*
G54D50*X129500Y3500D02*X128700Y4300D01*
Y13900D01*
X126100Y16500D01*
Y48100D01*
X127400Y49400D01*
X157300D01*
X157400Y49500D01*
X160500Y52200D02*X160400Y52100D01*
X160550Y52250D02*X160400Y52100D01*
X164500Y11800D02*Y29400D01*
X160500Y33400D01*
X160750Y33150D02*X160450Y33450D01*
Y47250D01*
X160500Y47300D01*
X168800Y3500D02*X129500D01*
X130900Y115500D02*X133500Y118100D01*
Y138700D01*
X148700Y137300D02*X158800D01*
X160300Y144600D02*X151900D01*
X151800Y144700D01*
X159200Y144600D02*X162600D01*
X144400Y146500D02*Y139800D01*
X144500Y139700D01*
X155000Y157100D02*X144400Y146500D01*
X158800Y137300D02*X181200Y159700D01*
X182100Y168000D02*X171200Y157100D01*
X155000D01*
X162600Y144600D02*X182300Y164300D01*
X128250Y171550D02*Y175550D01*
X126800Y177000D01*
Y182100D01*
X127500Y182800D01*
X127400Y182700D02*X127700Y183000D01*
Y193700D01*
X126700Y194700D01*
X129600Y197900D02*X128900Y198600D01*
X170300Y197900D02*X167400Y195000D01*
X150900D01*
X149300Y196600D01*
X129100Y178200D02*Y180500D01*
X129600Y181000D01*
Y197900D01*
X269200Y279200D02*Y273800D01*
X269100Y273700D01*
X269200D02*Y269400D01*
X272100Y284400D02*Y272000D01*
X275200Y290100D02*X279800D01*
X284200D02*X288400D01*
X288800Y289700D01*
X292900D01*
X282000Y287200D02*X277200D01*
X277900D02*X269200D01*
X274600Y289500D02*X275200Y290100D01*
X271200Y292648D02*X266048D01*
X266000Y292600D01*
X271500Y289500D02*X274600D01*
X269200Y287200D02*Y277000D01*
X298100Y292900D02*X293426D01*
X293300Y292774D01*
X295000Y278900D02*Y273800D01*
X282100Y287200D02*X286700D01*
X295000Y278900D01*
G54D52*X330600Y270000D02*X286700Y313900D01*
X277600D01*
G54D50*X269200Y269400D02*X273400Y265200D01*
X271600Y250600D02*X271700D01*
X273100Y249200D01*
Y243400D01*
X277200Y239300D01*
X272100Y272000D02*X275300Y268800D01*
X278800D01*
X273400Y265200D02*X275500D01*
X278300Y268800D02*Y265300D01*
X278000Y268800D02*X283500D01*
X285000Y267300D01*
Y264800D01*
X285200Y264600D01*
X278300Y265300D02*X278800Y264800D01*
X275500Y265200D02*X275600Y265100D01*
X280000Y247700D02*Y236000D01*
X279800Y235800D01*
X277200Y239300D02*Y208000D01*
X275700Y206500D01*
X279800Y235800D02*Y203300D01*
Y204600D02*Y190700D01*
G54D52*X352756Y270000D02*X330600D01*
G54D50*X369900Y239100D02*Y179300D01*
X366100Y241500D02*Y195100D01*
X363600Y236900D02*Y171400D01*
X363700Y171300D01*
X360400Y234600D02*Y187300D01*
X360300Y187200D01*
X77600Y133000D02*Y74000D01*
X79800Y128700D02*Y76200D01*
X86400Y138700D02*Y79000D01*
X89100Y136400D02*Y75700D01*
X81300Y137600D02*Y136700D01*
X86400Y79100D02*Y74000D01*
X83300Y138800D02*Y132200D01*
X98600Y129100D02*Y106300D01*
X83300Y132200D02*X79800Y128700D01*
X81300Y136700D02*X77600Y133000D01*
X83300Y148200D02*Y138600D01*
X86700Y151600D02*X83300Y148200D01*
X60100Y142600D02*Y124000D01*
X60200Y123900D01*
X89100Y75700D02*X102100Y62700D01*
X86400Y74000D02*X98300Y62100D01*
X79800Y76200D02*X88900Y67100D01*
X77600Y74000D02*X86400Y65200D01*
X86100Y65500D02*X92800Y58800D01*
X88000Y68000D02*X95600Y60400D01*
X102100Y62700D02*Y50200D01*
X105000Y44800D02*X101200Y41000D01*
X105800Y44800D02*X105000D01*
X105700Y49800D02*Y49400D01*
X98300Y62100D02*Y51400D01*
X105700Y65000D02*Y49700D01*
X109300Y66500D02*Y48300D01*
X105800Y44800D01*
X105700Y49400D02*X92900Y36600D01*
X102100Y50200D02*X94300Y42400D01*
X98300Y51400D02*X92900Y46000D01*
X89700Y47100D02*X92800Y50200D01*
X95600Y57700D02*X92800Y54900D01*
X95600Y60400D02*Y57700D01*
X89700Y44400D02*Y47100D01*
X91700Y42400D02*X89700Y44400D01*
X94300Y42400D02*X91700D01*
X119500Y176900D02*X119900Y176500D01*
X119500Y179700D02*Y176900D01*
X119750Y179950D02*X119500Y179700D01*
X119850Y179950D02*X119750D01*
X119800Y176600D02*X120900Y175500D01*
X120600Y202000D02*X119500Y203100D01*
X120900Y175500D02*Y144400D01*
X120600Y180700D02*X119800Y179900D01*
X120600Y202000D02*Y180700D01*
X118100Y155800D02*X117400Y155100D01*
X118100Y164800D02*Y155800D01*
X117600Y165300D02*X118100Y164800D01*
X117600Y186500D02*Y165300D01*
X131000Y137700D02*Y118700D01*
X130200Y138500D02*X131000Y137700D01*
X130200Y138700D02*Y138500D01*
X131500Y200300D02*Y174600D01*
X130200Y201600D02*X131500Y200300D01*
X130200Y201700D02*Y201600D01*
X133200Y150000D02*X140200Y143000D01*
X135200Y144500D02*X137600Y142100D01*
X132300Y144500D02*X135200D01*
X127900Y148900D02*X132300Y144500D01*
X133200Y172900D02*Y150000D01*
X131500Y174600D02*X133200Y172900D01*
X127900Y171200D02*Y148900D01*
X128200Y171500D02*X127900Y171200D01*
X126500Y202000D02*Y201300D01*
X126700Y194700D02*Y201800D01*
X126500Y202000D01*
X96700Y144000D02*X89100Y136400D01*
X91900Y144200D02*X86400Y138700D01*
X91900Y150100D02*Y144200D01*
X91300Y150700D02*X91900Y150100D01*
X81300Y167000D02*Y137400D01*
X83100Y168800D02*X81300Y167000D01*
X96700Y149800D02*Y144000D01*
X96000Y150500D02*X96700Y149800D01*
X91300Y169000D02*Y150700D01*
X96000Y175500D02*Y150500D01*
X98200Y177700D02*X96000Y175500D01*
X92300Y170000D02*X91300Y169000D01*
X92300Y187000D02*Y170000D01*
X101600Y196300D02*X92300Y187000D01*
X86700Y168500D02*Y151600D01*
X85000Y170200D02*X86700Y168500D01*
X85000Y184500D02*Y170200D01*
X88500Y188000D02*X85000Y184500D01*
X88500Y201100D02*Y188000D01*
X83100Y185700D02*Y168800D01*
X86700Y189300D02*X83100Y185700D01*
X86700Y195000D02*Y189300D01*
X82900Y198800D02*X86700Y195000D01*
X137600Y142100D02*Y112700D01*
X140200Y143000D02*Y110400D01*
X127900Y137300D02*Y120700D01*
X126500Y138700D02*X127900Y137300D01*
X126500Y139000D02*Y138700D01*
X127900Y120700D02*X125300Y118100D01*
X137600Y112700D02*X133200Y108300D01*
X140200Y110400D02*X139200Y109400D01*
X125300Y118100D02*Y113700D01*
X131000Y118700D02*X127900Y115600D01*
X125300Y113700D02*X122600Y111000D01*
X140600Y67500D02*X141200Y66900D01*
X140600Y68300D02*Y67500D01*
X136750Y72150D02*X140600Y68300D01*
X141900Y64300D02*X141200Y63600D01*
X143200Y64300D02*X141900D01*
X144300Y65400D02*X143200Y64300D01*
X144300Y68300D02*Y65400D01*
X139200Y73400D02*X144300Y68300D01*
X133200Y83400D02*X136800Y79800D01*
X122600Y84700D02*X127000Y80300D01*
X127900Y82200D02*X128400Y81700D01*
Y76100D01*
X127100Y80200D02*Y74200D01*
X139200Y109400D02*Y76400D01*
X127900Y115600D02*Y82200D01*
X133200Y108300D02*Y83400D01*
X134000Y67300D02*X127100Y74200D01*
X136500Y68000D02*X128400Y76100D01*
X136750Y79850D02*Y72150D01*
X127400Y69400D02*X127600D01*
X131000Y66000D01*
X134000Y66100D02*Y67300D01*
X139200Y76500D02*Y73400D01*
X124000Y63500D02*X124100Y63600D01*
X136600Y63400D02*Y63500D01*
X136500Y66800D02*Y68000D01*
X136600Y63500D02*X134000Y66100D01*
X122600Y68200D02*X124000Y66800D01*
X124100Y63600D02*X123100D01*
G54D51*X206174Y163800D02*X202500D01*
X202400Y163900D01*
X213260Y163800D02*Y166940D01*
X212100Y168100D01*
X213652Y179800D02*Y177052D01*
X213600Y177000D01*
X216800Y179800D02*Y177000D01*
X221500Y162074D02*X218926D01*
X218800Y162200D01*
X218926Y158926D02*X218800Y158800D01*
X203609Y186100D02*Y183491D01*
X203700Y183400D01*
X206757Y186100D02*Y183943D01*
X207300Y183400D01*
X213652Y192000D02*Y189352D01*
X213500Y189200D01*
X216800Y192000D02*Y189200D01*
G54D50*X224400Y212800D02*Y187000D01*
G54D51*X228526Y215274D02*X228600Y215200D01*
X231674Y215126D02*X231700Y215100D01*
G54D50*X245900Y206500D02*X237400Y215000D01*
X260300Y198400D02*Y202400D01*
X258400Y204300D01*
X245200D01*
X235000Y214500D01*
G54D51*X221500Y158926D02*X218926D01*
X245100Y158800D02*X242452D01*
X242300Y158952D01*
X248000Y158800D02*X250748D01*
X250774Y158826D01*
X270000Y158600D02*Y161143D01*
X245100Y162200D02*X242400D01*
X242300Y162100D01*
X248000Y162200D02*X250548D01*
X250774Y161974D01*
X260857Y163200D02*X256800D01*
X270000Y161143D02*X267943Y163200D01*
G54D50*X261200Y153700D02*X259000Y155900D01*
Y156400D01*
X188900Y150700D02*X182600Y157000D01*
Y157400D01*
G54D51*X234926Y167400D02*Y170026D01*
X235000Y170100D01*
X231778Y167400D02*Y169922D01*
X231600Y170100D01*
X236300Y177700D02*Y181283D01*
X235183Y182400D01*
X241300Y181431D02*X242269Y182400D01*
X241300Y177700D02*Y181431D01*
G54D50*X174100Y163500D02*Y201700D01*
X173800Y202000D01*
X186900Y203500D02*Y208500D01*
X189400Y200900D02*X181900D01*
X179700Y203100D01*
Y206800D01*
X170300Y206400D02*Y197900D01*
X153500Y199000D02*Y206700D01*
X145200Y210400D02*Y200400D01*
X145300Y200300D01*
X149300Y196600D02*Y200300D01*
X149400Y200400D01*
X153500Y206700D02*X151900Y208300D01*
X176900Y218500D02*X153300D01*
X145200Y210400D01*
X172500Y208600D02*X170300Y206400D01*
X186900Y208500D02*X176900Y218500D01*
X179700Y206800D02*X177900Y208600D01*
X172500D01*
G54D51*X269052Y172400D02*Y175048D01*
X268900Y175200D01*
X270669Y179500D02*X268469Y181700D01*
X272200Y172400D02*Y173400D01*
X274000Y175200D01*
Y179500D02*X270669D01*
X261383Y181700D02*X257300D01*
X257100Y181900D01*
X263000Y189700D02*Y192500D01*
X263100Y192600D01*
X259852Y189700D02*Y192248D01*
X259500Y192600D01*
X268852Y199500D02*Y202148D01*
X268600Y202400D01*
X272000Y199500D02*X274200D01*
X274300Y199600D01*
X268900Y210300D02*Y212848D01*
X269252Y213200D01*
X273000Y210200D02*Y212600D01*
X272400Y213200D01*
G54D50*X275700Y206500D02*X245900D01*
G54D51*X269000Y221000D02*Y223474D01*
X269426Y223900D01*
X272574D02*Y221426D01*
X273100Y220900D01*
X203769Y200900D02*Y197969D01*
X203809Y211800D02*Y208909D01*
X203700Y208800D01*
Y207600D01*
X206000Y205300D01*
X203769Y197969D02*X203700Y197900D01*
X206917Y200900D02*Y198283D01*
X207300Y197900D01*
X206957Y209143D02*X207300Y208800D01*
X219260Y205800D02*Y202860D01*
X217600Y201200D01*
X206000Y205300D02*X211674D01*
X212174Y205800D01*
X206957Y211800D02*Y209143D01*
X208700Y227100D02*X205926D01*
X205900Y227074D01*
X208700Y223800D02*X206026D01*
X205900Y223926D01*
X207074Y217900D02*Y215326D01*
X212100Y227100D02*X214674D01*
X214800Y226974D01*
X212100Y223900D02*X214726D01*
X214800Y223826D01*
X203926Y217900D02*Y215426D01*
G54D50*X218500Y223700D02*Y218700D01*
X224400Y212800D01*
G54D51*X224300Y227074D02*X227074D01*
X227100Y227100D01*
X224300Y223926D02*X227174D01*
X227200Y223900D01*
X228526Y218000D02*Y215274D01*
X231674Y218000D02*Y215126D01*
X239500Y217900D02*X242683D01*
G54D50*X237400Y215000D02*Y219700D01*
X239000Y221300D01*
X238800Y221100D02*X239100Y221400D01*
X235000Y214500D02*Y219500D01*
X237500Y222000D01*
G54D51*X242683Y217900D02*X244000Y216583D01*
X243900Y223769D02*X244000Y223669D01*
X243900Y227900D02*Y223769D01*
X250700Y227074D02*X253374D01*
X253400Y227100D01*
X250700Y223926D02*X253374D01*
X253400Y223900D01*
X257000Y227100D02*X259774D01*
X259800Y227074D01*
X257000Y223900D02*X259774D01*
X259800Y223926D01*
G54D50*X261900Y249400D02*Y249500D01*
X260900Y250500D01*
X251200Y250300D02*X247000D01*
X253800Y247600D02*X246400D01*
X253100Y243000D02*X246000D01*
X253000Y239600D02*X245600D01*
X239100Y221400D02*Y243700D01*
X237500Y222000D02*Y241600D01*
X131800Y254300D02*Y257400D01*
X136500Y251700D02*X195800D01*
X135200Y247800D02*X203300D01*
X133700Y259300D02*X199100D01*
X161000Y245800D02*X186100D01*
X133700D02*X162100D01*
X195800Y251700D02*X196900Y250600D01*
X212100D01*
X203300Y247800D02*X207800Y243300D01*
X214000D01*
X186100Y245800D02*X187800Y244100D01*
X204900Y235100D02*Y236600D01*
X202100Y239400D01*
X192500D01*
X187100Y244800D01*
X192600Y180700D02*Y222800D01*
X204900Y235100D01*
X196800Y234100D02*X161200D01*
X159100Y236200D01*
X164000Y237000D02*X159200Y241800D01*
X198600Y237000D02*X164000D01*
X247000Y250300D02*X182000Y315300D01*
X246400Y247600D02*X181100Y312900D01*
X179800Y309200D02*X137300D01*
X178900Y300200D02*X153800D01*
X139700Y303400D02*X138800D01*
X139400D02*X179400D01*
X182000Y315300D02*X135600D01*
X181100Y312900D02*X138100D01*
X179300Y305900D02*X136500D01*
X138200D02*X135900D01*
X246000Y243000D02*X179800Y309200D01*
X245600Y239600D02*X179300Y305900D01*
X239100Y243700D02*X179400Y303400D01*
X237500Y241600D02*X178900Y300200D01*
X102100Y181600D02*X98150Y177650D01*
X102100Y185400D02*Y181600D01*
X120000Y238600D02*Y207100D01*
X119100Y206200D01*
Y203500D01*
X119600Y203000D01*
X117100Y187000D02*X117600Y186500D01*
X117100Y218600D02*Y187000D01*
X117700Y219200D02*X117100Y218600D01*
X117700Y227100D02*Y219200D01*
X117400Y227400D02*X117700Y227100D01*
X117400Y258300D02*Y227400D01*
X118150Y259050D02*X117400Y258300D01*
X106500Y189800D02*X102100Y185400D01*
X106500Y192900D02*Y189800D01*
X105400Y194000D02*X106500Y192900D01*
X105400Y196200D02*Y194000D01*
X105300Y196200D02*X104500D01*
X105000Y259700D02*X95600Y250300D01*
X105600Y259700D02*X105000D01*
X101600Y258700D02*X93800Y250900D01*
X101600Y259600D02*Y258700D01*
X119600Y239000D02*X120000Y238600D01*
X159100Y236200D02*X128800D01*
X127600Y237400D01*
X159200Y241800D02*X130700D01*
X130600Y241700D01*
X119600Y254700D02*Y239000D01*
X122800Y257900D02*X119500Y254600D01*
X125000Y257900D02*X122800D01*
X130200Y263100D02*X125000Y257900D01*
X130200Y264700D02*Y263100D01*
X124100Y265000D02*X118100Y259000D01*
X126500Y265000D02*X124100D01*
X131800Y257400D02*X133700Y259300D01*
X132700Y250300D02*X135200Y247800D01*
X157100Y300200D02*X151300D01*
X145900Y294800D01*
X146800Y295700D02*X142900Y291800D01*
X124300Y243500D02*Y243900D01*
X127600Y237400D02*Y243800D01*
X124300Y243900D02*X126200Y245800D01*
X125700Y245300D02*X127100Y246700D01*
X132800D01*
X133700Y245800D01*
X127600Y243800D02*X127800Y244000D01*
X86800Y214100D02*X82900Y210200D01*
X91700Y204300D02*X88500Y201100D01*
X91700Y212700D02*Y204300D01*
X91200Y213200D02*X91700Y212700D01*
X82900Y210200D02*Y198800D01*
X60000Y205500D02*Y225300D01*
X66100Y231400D01*
X86800Y241100D02*Y214100D01*
X91200Y231600D02*Y213200D01*
X92200Y232600D02*X91200Y231600D01*
X87250Y241550D02*X86800Y241100D01*
X92200Y244100D02*Y232600D01*
X95600Y247500D02*X92200Y244100D01*
X95600Y250300D02*Y247500D01*
X93800Y248100D02*X87000Y241300D01*
X93800Y250900D02*Y248100D01*
X66100Y231400D02*Y250400D01*
X66000Y250500D01*
X65700Y291400D02*Y310600D01*
X70400Y315300D01*
X60000Y268700D02*Y285700D01*
X65700Y291400D01*
X80900Y293600D02*X77700Y296800D01*
X98400Y291800D02*X96600Y293600D01*
X80900D01*
X77700Y296800D02*Y307100D01*
X82700Y312100D01*
X86100Y297400D02*X84900Y298600D01*
X70400Y315300D02*X139600D01*
X84900Y298600D02*Y309200D01*
X85100Y309400D01*
X139100Y312900D02*X135400D01*
X129800Y307300D01*
X125400D01*
X142900Y291800D02*X98400D01*
X138800Y303400D02*X132800Y297400D01*
X86100D01*
X135900Y305900D02*X130500Y300500D01*
X120900D01*
X118200Y303200D01*
Y312000D01*
X119500Y313300D01*
X128300D01*
X129600Y312000D01*
X138400Y309200D02*X135200D01*
X130100Y304100D01*
X126800D01*
X126700Y304000D01*
G54D53*X380315Y287717D03*
Y252283D03*
G54D54*X388189Y270000D03*
G54D55*X376378D03*
G54D56*X352756D03*
G54D49*G36*
X341000Y233200D02*Y227200D01*
X347000D01*
Y233200D01*
X341000D01*
G37*
G54D57*X344000Y220200D03*
Y210200D03*
G54D58*X352000Y88000D03*
X342000Y83000D03*
G54D57*X323000Y87000D03*
G54D58*X352000Y78000D03*
G54D59*X365000Y96000D03*
G54D60*X377000Y88000D03*
G54D58*X342000Y73000D03*
G54D57*X323000Y77000D03*
G54D58*X352000Y68000D03*
Y58000D03*
Y48000D03*
G54D59*X365000Y35000D03*
G54D60*X377000Y43000D03*
G54D58*X342000Y63000D03*
Y53000D03*
Y43000D03*
G54D57*X323000Y44000D03*
Y54000D03*
G54D49*G36*
X385976Y166272D02*Y160728D01*
X391520D01*
Y166272D01*
X385976D01*
G37*
G54D61*X380874Y163500D03*
X388748Y171374D03*
X380874D03*
X388748Y179248D03*
X380874D03*
X388748Y187122D03*
Y194996D03*
Y202870D03*
Y210744D03*
X380874Y187122D03*
Y194996D03*
Y202870D03*
Y210744D03*
G54D62*X292907Y292774D02*X293693D01*
X292907Y289626D02*X293693D01*
X270807Y292648D02*X271593D01*
X270807Y289500D02*X271593D01*
X250307Y223926D02*X251093D01*
X250307Y227074D02*X251093D01*
G54D63*X243607Y216583D02*X244393D01*
X243607Y223669D02*X244393D01*
G54D62*X259407Y223926D02*X260193D01*
X259407Y227074D02*X260193D01*
X269426Y224293D02*Y223507D01*
X272574Y224293D02*Y223507D01*
X269252Y213593D02*Y212807D01*
X272400Y213593D02*Y212807D01*
X228526Y218393D02*Y217607D01*
X231674Y218393D02*Y217607D01*
G54D63*X261483Y180593D02*Y179807D01*
X268569Y180593D02*Y179807D01*
G54D62*X266852Y186193D02*Y185407D01*
X270000Y186193D02*Y185407D01*
X231778Y167793D02*Y167007D01*
X234926Y167793D02*Y167007D01*
X268852Y199893D02*Y199107D01*
X272000Y199893D02*Y199107D01*
X259852Y190093D02*Y189307D01*
X263000Y190093D02*Y189307D01*
G54D63*X235183Y182793D02*Y182007D01*
X242269Y182793D02*Y182007D01*
G54D62*X269052Y172793D02*Y172007D01*
X272200Y172793D02*Y172007D01*
X252326Y70493D02*Y69707D01*
X255474Y70493D02*Y69707D01*
X263926Y64393D02*Y63607D01*
X267074Y64393D02*Y63607D01*
X255826Y80993D02*Y80207D01*
X258974Y80993D02*Y80207D01*
X243026Y65493D02*Y64707D01*
X243426Y71893D02*Y71107D01*
X246174Y65493D02*Y64707D01*
X246574Y71893D02*Y71107D01*
X263826Y57793D02*Y57007D01*
X266974Y57793D02*Y57007D01*
X244052Y97893D02*Y97107D01*
X247200Y97893D02*Y97107D01*
X256026Y92893D02*Y92107D01*
X259174Y92893D02*Y92107D01*
X263626Y105793D02*Y105007D01*
X266774Y105793D02*Y105007D01*
X205507Y223926D02*X206293D01*
X205507Y227074D02*X206293D01*
G54D63*X213260Y164193D02*Y163407D01*
X206174Y164193D02*Y163407D01*
G54D62*X221107Y162074D02*X221893D01*
X221107Y158926D02*X221893D01*
X206917Y201293D02*Y200507D01*
X203769Y201293D02*Y200507D01*
X206957Y212193D02*Y211407D01*
X203809Y212193D02*Y211407D01*
X206757Y186493D02*Y185707D01*
X203609Y186493D02*Y185707D01*
X213652Y180193D02*Y179407D01*
X216800Y180193D02*Y179407D01*
X213652Y192393D02*Y191607D01*
X216800Y192393D02*Y191607D01*
G54D63*X219260Y206193D02*Y205407D01*
X212174Y206193D02*Y205407D01*
G54D62*X223907Y223926D02*X224693D01*
X223907Y227074D02*X224693D01*
X214407Y223926D02*X215193D01*
X214407Y227074D02*X215193D01*
X207074Y218293D02*Y217507D01*
X203926Y218293D02*Y217507D01*
X250381Y161974D02*X251167D01*
X250381Y158826D02*X251167D01*
X241907Y162100D02*X242693D01*
X241907Y158952D02*X242693D01*
G54D63*X260857Y163593D02*Y162807D01*
X267943Y163593D02*Y162807D01*
G54D62*X218526Y103693D02*Y102907D01*
X221674Y103693D02*Y102907D01*
X230974Y93293D02*Y92507D01*
X227826Y93293D02*Y92507D01*
X236300Y98093D02*Y97307D01*
X239448Y98093D02*Y97307D01*
G54D63*X223743Y111893D02*Y111107D01*
G54D62*X263626Y112193D02*Y111407D01*
X266774Y112193D02*Y111407D01*
X230974Y80093D02*Y79307D01*
X227826Y80093D02*Y79307D01*
G54D63*X216657Y111893D02*Y111107D01*
G54D64*X7050Y17250D02*X13050D01*
X7050Y50750D02*X13050D01*
X7050Y80250D02*X13050D01*
X7050Y113750D02*X13050D01*
X7050Y176750D02*X13050D01*
X7050Y143250D02*X13050D01*
X7050Y206250D02*X13050D01*
X7050Y239750D02*X13050D01*
X7050Y269250D02*X13050D01*
X7050Y302750D02*X13050D01*
G54D65*X3000Y191500D03*
X13000D03*
X123000D03*
X113000D03*
X103000D03*
X93000D03*
X83000D03*
X73000D03*
X63000D03*
X53000D03*
X43000D03*
X33000D03*
X23000D03*
X227200Y156700D03*
X157600Y152600D03*
X233300Y162900D03*
X218800Y162200D03*
Y158800D03*
X212100Y168100D03*
X190000Y168000D03*
X187400Y165700D03*
X202400Y163900D03*
X182600Y157400D03*
X174100Y163500D03*
X183900Y164200D03*
X182600Y152400D03*
X151500Y212300D03*
X151900Y208300D03*
X149400Y200400D03*
X153500Y199000D03*
X110300Y209800D03*
X109800Y196400D03*
X128900Y198600D03*
X111300Y204100D03*
X142000Y214500D03*
X145300Y200300D03*
X159100Y205900D03*
X166900Y204600D03*
X174100Y205300D03*
X173800Y202100D03*
X186900Y203500D03*
X189400Y200900D03*
X151600Y149300D03*
X151500Y170700D03*
X157400Y167600D03*
X142000Y151500D03*
Y157000D03*
Y163000D03*
X136500D03*
Y157000D03*
Y168500D03*
X142000D03*
X106174Y160900D03*
X115600Y157900D03*
Y162500D03*
X136500Y151500D03*
X130500D03*
Y157000D03*
X125000Y151500D03*
Y157000D03*
Y163000D03*
X130500D03*
Y168500D03*
X125000D03*
X129100Y178200D03*
X71300Y177600D03*
X48000Y176400D03*
X54500Y172500D03*
X50500Y183400D03*
X54500D03*
X60500Y169100D03*
X74500Y170700D03*
X80900Y174500D03*
X89400D03*
X74500Y167400D03*
Y163800D03*
X39000Y165900D03*
X38000Y162800D03*
X54000Y161900D03*
X89000Y164500D03*
X93500D03*
X84500D03*
X64400Y142426D03*
X74600Y143700D03*
X70800Y149000D03*
X74500Y151900D03*
Y154900D03*
X73000Y128500D03*
X69800Y135300D03*
X63000Y128500D03*
X53000D03*
X43000D03*
X60100Y142600D03*
X60200Y123900D03*
X10000Y173000D03*
X16500D03*
X3500D03*
X10000Y180500D03*
X16500D03*
X3500D03*
X46400Y151000D03*
X25000Y156400D03*
X32000D03*
X28500Y153900D03*
X23000Y128500D03*
X33000D03*
X3000D03*
X13000D03*
X9600Y139400D03*
X16100D03*
X3100D03*
X9600Y146900D03*
X10000Y110000D03*
Y117500D03*
X16100Y146900D03*
X16500Y110000D03*
Y117500D03*
X3100Y146900D03*
X3500Y110000D03*
Y117500D03*
X130400Y138400D03*
X125500Y135600D03*
X126900Y138800D03*
X121900Y141800D03*
X134100D03*
X130800Y141900D03*
X125100Y141800D03*
X114800Y145900D03*
X110400Y146800D03*
X105600Y144800D03*
X111400Y141100D03*
X133500Y138700D03*
X110900Y174700D03*
X125200Y184500D03*
X121900Y178200D03*
X115100Y175200D03*
Y183900D03*
X124474Y198574D03*
X105300Y196200D03*
X130200Y201700D03*
X126500Y202000D03*
X121600Y204800D03*
X134000D03*
X130800Y204900D03*
X124800Y204800D03*
X136500Y214500D03*
X130500D03*
X125000D03*
X64300Y205426D03*
X9600Y202400D03*
X16100D03*
X3100D03*
X60000Y205500D03*
X70700Y212000D03*
X68300Y197700D03*
X74500Y206700D03*
X74400Y214900D03*
Y217900D03*
X46300Y214000D03*
X24900Y219400D03*
X28400Y216900D03*
X9600Y209900D03*
X16100D03*
X3100D03*
X31900Y219400D03*
X95600Y178700D03*
X94100Y208700D03*
X89500Y208800D03*
X86400D03*
X114700Y208900D03*
X114800Y200000D03*
X105500Y207800D03*
X80600Y195900D03*
X77300Y199100D03*
X94300Y195900D03*
X95600Y199900D03*
X78000Y205300D03*
X101600Y196300D03*
X97600Y196400D03*
X103100Y216600D03*
X89000Y218500D03*
X84500D03*
X93500D03*
X114900Y137000D03*
X109900Y133400D03*
X123000Y128500D03*
X113000D03*
X105400Y133200D03*
X101700Y133300D03*
X103000Y128500D03*
X93000D03*
X83000D03*
X115000Y120900D03*
X125100Y121500D03*
X78100Y142300D03*
X80700Y132900D03*
X77400Y136100D03*
X94400Y132900D03*
X95700Y136900D03*
X97700Y133400D03*
X94200Y145700D03*
X89600Y145800D03*
X86500D03*
X103200Y153600D03*
X89000Y155500D03*
X84500D03*
X93500D03*
Y160000D03*
X84500D03*
X89000D03*
X125000Y105500D03*
X130500D03*
X125000Y100000D03*
X121800Y115200D03*
X130900Y115300D03*
X142000Y105500D03*
X136500D03*
X204300Y104500D03*
X130500Y100000D03*
X125000Y94000D03*
X130500D03*
X136500D03*
Y100000D03*
X142000D03*
X204300Y100400D03*
X204400Y96500D03*
X204300Y92500D03*
X142000Y94000D03*
X151400Y107700D03*
X157300Y104600D03*
X184900Y121600D03*
X110800Y111700D03*
X115000Y112200D03*
X115500Y99500D03*
Y94900D03*
X106074Y97900D03*
X95500Y99500D03*
X99800Y98300D03*
X182600Y147200D03*
X151800Y144700D03*
X144500Y139700D03*
X148700Y137300D03*
X203700Y208800D03*
X207300D03*
X203700Y215200D03*
X207200D03*
X203700Y197900D03*
X207300D03*
X203700Y183400D03*
X207300D03*
X213500Y189200D03*
X216800D03*
X213600Y177000D03*
X216800D03*
X217600Y201200D03*
X235200Y156600D03*
X231600Y170100D03*
X235000D03*
X236300Y177700D03*
X241300D03*
X263100Y192600D03*
X264300Y185900D03*
X263800Y219100D03*
X263900Y213100D03*
X259500Y192600D03*
X258600Y218900D03*
X261300Y216200D03*
X258300Y213300D03*
X261300Y210300D03*
X228600Y215200D03*
X239600Y217900D03*
X231700Y215100D03*
X285500Y210400D03*
X238700Y156700D03*
X245100Y158800D03*
Y162200D03*
X248000D03*
Y158800D03*
X249900Y137100D03*
X254500Y156600D03*
X264600D03*
X256800Y163200D03*
X259000Y156400D03*
X285700Y164700D03*
X257100Y181900D03*
X259100Y136800D03*
X274300Y135000D03*
X262100Y142500D03*
X271000Y139700D03*
X304500Y190100D03*
X260700Y146000D03*
X242600Y102600D03*
X239500Y94700D03*
X247252D03*
X244052D03*
X254400Y102600D03*
X258300D03*
X261600Y99500D03*
X255400Y96400D03*
X259300Y95200D03*
X225400Y99300D03*
X231600Y96400D03*
X236300Y94700D03*
X218400Y106100D03*
X222100D03*
X263700Y108900D03*
X350500Y110300D03*
X288900Y109100D03*
X266900Y108900D03*
X315800Y112900D03*
X308000Y127500D03*
X314200D03*
X306000Y116800D03*
X263700Y102500D03*
X266900D03*
X276100Y91600D03*
X276000Y102800D03*
G54D56*X350000Y305000D03*
G54D65*X328500Y306300D03*
X322500Y306400D03*
X326000Y303500D03*
X321600Y302200D03*
X317600Y296600D03*
X313700Y296800D03*
X307300Y257300D03*
X305400Y253200D03*
X307300Y250700D03*
X305300Y248200D03*
X307300Y245900D03*
X287600Y156200D03*
X324500Y258200D03*
X327700Y257200D03*
X330800Y258200D03*
Y254800D03*
X329300Y252100D03*
X330700Y249500D03*
X329500Y246700D03*
X360400Y234600D03*
X363600Y236900D03*
X369900Y239100D03*
X366100Y241500D03*
X344000Y248400D03*
X287100Y279600D03*
X282100D03*
X282000Y287200D03*
X279800Y290100D03*
X272100Y284400D03*
X276000Y247900D03*
X284900Y245000D03*
X280000Y247700D03*
X284200Y290100D03*
X298100Y292900D03*
X276700Y316200D03*
X280200Y316500D03*
X283700Y316400D03*
X287400Y316100D03*
X275600Y312700D03*
X279200D03*
X282800Y312600D03*
X286500D03*
X290300D03*
X332400Y159000D03*
X321600Y152800D03*
X318600Y150700D03*
X337500Y158900D03*
X327400Y196500D03*
X337300Y197000D03*
X332300Y199400D03*
X322100Y196400D03*
X366100Y195100D03*
X360300Y187200D03*
X369900Y179300D03*
X363700Y171300D03*
X201800Y189700D03*
Y180200D03*
Y168400D03*
X201600Y158500D03*
Y221600D03*
X201800Y194200D03*
Y203900D03*
X213400Y156800D03*
X207600Y192000D03*
Y174300D03*
X274200Y164400D03*
Y168000D03*
X270000Y158600D03*
X274200Y192000D03*
X274100Y195400D03*
X274400Y203900D03*
X274300Y199600D03*
X274200Y184100D03*
X268400Y190000D03*
X274000Y179500D03*
Y175200D03*
X268900D03*
X268600Y202400D03*
X273000Y210200D03*
X268900Y210300D03*
X235000Y223100D03*
X227200Y223900D03*
X218500Y223700D03*
X233100Y229700D03*
X229800Y229800D03*
X221300Y229600D03*
X218100Y229700D03*
X227100Y227100D03*
X222500Y240600D03*
X321600Y225200D03*
X321100Y219000D03*
X274500Y227600D03*
X84500Y227500D03*
X174600Y227400D03*
X277100Y279600D03*
Y273600D03*
X282100D03*
X287100D03*
X295000Y273800D03*
X275600Y265100D03*
X288400Y264900D03*
X285200Y264600D03*
X278800Y264800D03*
X272900Y254500D03*
X286300Y256200D03*
X199000Y245100D03*
X198600Y237000D03*
X196800Y234100D03*
X199100Y259300D03*
X130600Y241700D03*
X127800Y244000D03*
X124300Y243500D03*
X131800Y254300D03*
X136500Y251700D03*
X132500Y250900D03*
X61100Y295100D03*
X74500Y293500D03*
X39000Y292000D03*
X38500Y288700D03*
X54000Y288000D03*
X54600Y299100D03*
G54D56*X33000Y305000D03*
G54D65*X48900Y302000D03*
X51300Y308900D03*
X54700D03*
X71500Y302500D03*
X74500Y296800D03*
X82700Y312100D03*
X74500Y289900D03*
X10400Y299100D03*
X3900D03*
X10400Y306600D03*
X3900D03*
X16900Y299100D03*
Y306600D03*
X33000Y254500D03*
X10000Y265500D03*
X16500D03*
X13000Y254500D03*
X3500Y265500D03*
X10000Y273000D03*
X16500D03*
X3500D03*
X25500Y282500D03*
X31500D03*
X28500Y280300D03*
X70800Y275100D03*
X74600Y269800D03*
X78100Y268400D03*
X74500Y278000D03*
X84500Y281500D03*
X74500Y281000D03*
X64400Y268526D03*
X46400Y277100D03*
X60000Y268700D03*
X68300Y260900D03*
X115600Y284000D03*
Y288600D03*
X125000Y283000D03*
Y289000D03*
X151500Y296800D03*
X142000Y283000D03*
Y289000D03*
X136500D03*
Y283000D03*
X130500D03*
Y289000D03*
X121700Y267900D03*
X114800Y272000D03*
X157600Y278700D03*
X151600Y275400D03*
X136500Y277500D03*
X130500D03*
X125000D03*
X142000D03*
X125500Y261700D03*
X133900Y267900D03*
X130800Y268000D03*
X124900Y267900D03*
X114900Y263100D03*
X110400Y272900D03*
X105600Y270900D03*
Y259700D03*
X110200Y260000D03*
X111400Y267200D03*
X81200Y258600D03*
X77400Y262200D03*
X94200Y258700D03*
X101600Y259600D03*
X97200Y259800D03*
X66000Y250500D03*
X95700Y263000D03*
X94200Y271800D03*
X89600Y271900D03*
X86500D03*
X89000Y281500D03*
X93500D03*
X103600Y280000D03*
X106174Y287000D03*
X95600Y304800D03*
X80900Y300600D03*
X89400D03*
X85100Y309400D03*
X93500Y286000D03*
X84500D03*
X89000D03*
Y290500D03*
X93500D03*
X84500D03*
X125200Y310600D03*
X121900Y304300D03*
X125400Y307300D03*
X126700Y304000D03*
X157400Y293700D03*
X136500Y294500D03*
X130500D03*
X142000D03*
X125000D03*
X115100Y301200D03*
Y310000D03*
X110900Y300800D03*
X129600Y312000D03*
X269100Y273700D03*
X266000Y292600D03*
X255600Y257300D03*
X250500Y296400D03*
X236000Y278400D03*
X237700Y275200D03*
X240300Y278400D03*
X241800Y275000D03*
X274400Y217600D03*
X273100Y220900D03*
X269000Y221000D03*
X264600Y229700D03*
X257000Y227100D03*
Y223900D03*
X253400Y227100D03*
Y223900D03*
X246900Y229700D03*
X241300Y229800D03*
X243900Y227900D03*
X265200Y246500D03*
X253000Y239600D03*
X253100Y243000D03*
X253800Y247600D03*
X251200Y250300D03*
X271600Y250600D03*
X204100Y307600D03*
X204300Y258900D03*
X201700Y224800D03*
X212100Y227100D03*
Y223900D03*
X208700Y227100D03*
Y223800D03*
X212100Y250600D03*
X214000Y243300D03*
X234400Y306100D03*
X241700Y306200D03*
X237900Y302400D03*
X243300Y301600D03*
X245500Y296200D03*
X231700Y278400D03*
X233500Y275100D03*
X223400Y307800D03*
X218600Y294400D03*
X130200Y264700D03*
X126500Y265000D03*
X122100Y245800D03*
X121800Y241200D03*
X115000Y238100D03*
X112100Y243500D03*
X110800Y237700D03*
X106074Y223900D03*
X95500Y241700D03*
X115500Y220900D03*
Y225500D03*
X157300Y230600D03*
X157500Y215600D03*
X151400Y233700D03*
X71200Y240600D03*
X74400Y233700D03*
Y230400D03*
Y226800D03*
X47900Y239400D03*
X54400Y235500D03*
X38900Y228900D03*
X37900Y225800D03*
X50400Y246400D03*
X54400D03*
X80800Y237500D03*
X60400Y232100D03*
X53900Y224900D03*
X89300Y237500D03*
X142000Y220000D03*
X3000Y254500D03*
X53000D03*
X43000D03*
X23000D03*
X10000Y236000D03*
X16500D03*
X3500D03*
X10000Y243500D03*
X16500D03*
X3500D03*
X142000Y226000D03*
Y231500D03*
X136500Y226000D03*
X125000D03*
X130500D03*
Y231500D03*
X125000D03*
X136500Y220000D03*
Y231500D03*
X130500Y220000D03*
X125000D03*
X93500Y223000D03*
X89000Y227500D03*
X84500Y223000D03*
X89000D03*
X93500Y227500D03*
X123000Y254500D03*
X113000D03*
X103000D03*
X93000D03*
X83000D03*
X73000D03*
X63000D03*
G54D56*X350000Y15000D03*
G54D65*X337700Y29600D03*
X335200Y26800D03*
X332800Y23500D03*
X330500Y20100D03*
X328000Y15800D03*
X254300Y55700D03*
X261600Y69700D03*
X252400Y67200D03*
X255600D03*
X259600Y33700D03*
X275200Y33600D03*
X263700Y60200D03*
X266900Y60300D03*
X279900Y62100D03*
X263800Y66900D03*
X267000Y67000D03*
X244200Y55500D03*
X243100Y44100D03*
X246000Y41900D03*
X248500Y39700D03*
X251500Y37500D03*
X234600Y50800D03*
X237200Y48600D03*
X240200Y46300D03*
X229400Y38948D03*
X220000Y43100D03*
X223500Y54100D03*
X202000Y6200D03*
X213300Y13500D03*
X215500Y35900D03*
X216215Y19528D03*
X219615Y19428D03*
X230200Y53000D03*
X232600Y55700D03*
X234700Y66500D03*
X212600Y63500D03*
X242900Y68000D03*
X246200Y67900D03*
X175500Y36700D03*
X146000Y36500D03*
Y28500D03*
X157400Y29200D03*
X167300Y33600D03*
X142900Y11700D03*
X161100Y23100D03*
X145400Y17600D03*
X165800Y37500D03*
X157400Y36900D03*
X180400Y23600D03*
X170500Y5500D03*
X170400Y12000D03*
X174500Y14300D03*
X167300Y10100D03*
X131000Y17400D03*
X134200D03*
X131700Y11500D03*
X118900Y17600D03*
X122400D03*
X115700Y11800D03*
X125600D03*
X112600Y15800D03*
X122500Y36500D03*
X130500D03*
Y28500D03*
X109800Y33100D03*
X105200Y34100D03*
X111200Y38500D03*
X122500Y28500D03*
X87100Y26200D03*
Y29700D03*
X103900Y15900D03*
X87800Y15700D03*
X109800Y21800D03*
X92900Y25700D03*
Y29900D03*
X87800Y38300D03*
X41500Y28400D03*
X31200Y28300D03*
G54D56*X33000Y15000D03*
G54D65*X10000Y47000D03*
X9600Y13400D03*
Y20900D03*
Y76400D03*
Y83900D03*
X16500Y47000D03*
X16100Y13400D03*
Y20900D03*
X3500Y47000D03*
X3100Y13400D03*
Y20900D03*
Y76400D03*
Y83900D03*
X10000Y54500D03*
X3500D03*
X16500D03*
X16100Y76400D03*
Y83900D03*
X141200Y66900D03*
X141400Y63600D03*
X142000Y88500D03*
X136500D03*
Y66800D03*
X130800Y78900D03*
X185700Y81600D03*
X134000Y78800D03*
X133400Y63400D03*
X151500Y86300D03*
X157500Y89600D03*
X185800Y85500D03*
X131000Y66000D03*
X136600Y63400D03*
X125000Y88500D03*
X130500D03*
X110300Y83800D03*
X114700Y82900D03*
X95300Y88000D03*
X99700Y87100D03*
X124800Y78800D03*
X125400Y72600D03*
X121600Y78800D03*
X114800Y74000D03*
X127400Y69400D03*
X124000Y66800D03*
X119400Y63300D03*
X124100Y63600D03*
X113400Y61000D03*
X96200Y81100D03*
X122500Y52500D03*
X130500D03*
Y45000D03*
X122500D03*
X105500Y41600D03*
X111700Y43700D03*
X87000Y58600D03*
Y55200D03*
X92800Y54900D03*
X87100Y50100D03*
Y46900D03*
X92900Y46000D03*
X92800Y50200D03*
Y58800D03*
X163174Y59674D03*
X150000Y63000D03*
X146100Y62800D03*
X157400Y56800D03*
X169100Y59900D03*
X138500Y52500D03*
Y45000D03*
Y36500D03*
Y28500D03*
X146000Y45000D03*
Y52500D03*
X160500Y47300D03*
X160400Y52100D03*
X157500Y49800D03*
X157600Y45400D03*
X165600Y40800D03*
X157300Y40300D03*
X164200Y50000D03*
X184800Y62600D03*
X180700Y68400D03*
X186200Y70100D03*
X183600Y51400D03*
X186300Y51300D03*
X198500Y49000D03*
X209800Y57300D03*
Y54400D03*
X200500Y38700D03*
X204300Y88700D03*
X204400Y85000D03*
Y81200D03*
X204300Y77300D03*
X188174Y73700D03*
X193700Y86100D03*
Y82300D03*
X214900Y84000D03*
X215000Y80800D03*
X215100Y76400D03*
X225500Y87400D03*
X238000Y84500D03*
X225500Y75700D03*
X238000Y90000D03*
X227500Y90200D03*
X231300D03*
X231700Y73000D03*
X234900D03*
X227400Y82800D03*
X231700Y82700D03*
X261600Y89400D03*
X243500Y84500D03*
Y90000D03*
X249000Y84500D03*
Y90000D03*
X255800Y89800D03*
X255500Y75700D03*
X243500Y79000D03*
X238000D03*
X249000D03*
X243400Y74400D03*
X246700D03*
X255400Y83300D03*
X259200Y83400D03*
X281200Y72700D03*
X312300Y75200D03*
G54D66*G54D67*G54D66*G54D67*G54D66*G54D67*G54D66*G54D67*G54D66*G54D68*G54D69*G54D70*G54D67*G54D71*G54D72*G54D73*G54D72*G54D69*G54D74*G54D72*G54D73*G54D72*G54D69*G54D74*G54D72*G54D73*G54D75*M02*
