G04 start of page 14 for group -3984 idx -3984 *
G04 Title: (unknown), fab *
G04 Creator: pcb 20140316 *
G04 CreationDate: Tue 20 May 2014 05:08:16 AM GMT UTC *
G04 For: pmonta *
G04 Format: Gerber/RS-274X *
G04 PCB-Dimensions (mil): 4200.00 3400.00 *
G04 PCB-Coordinate-Origin: lower left *
%MOIN*%
%FSLAX25Y25*%
%LNFAB*%
%ADD224C,0.0100*%
%ADD223C,0.0075*%
%ADD222C,0.0060*%
%ADD221R,0.0080X0.0080*%
G54D221*X385400Y54600D02*X388600D01*
X385400D02*Y51400D01*
X388600D01*
Y54600D02*Y51400D01*
X383800Y56200D02*X390200D01*
X383800D02*Y49800D01*
X390200D01*
Y56200D02*Y49800D01*
X385400Y99600D02*X388600D01*
X385400D02*Y96400D01*
X388600D01*
Y99600D02*Y96400D01*
X383800Y101200D02*X390200D01*
X383800D02*Y94800D01*
X390200D01*
Y101200D02*Y94800D01*
X13400Y352850D02*X16600D01*
X13400D02*Y349650D01*
X16600D01*
Y352850D02*Y349650D01*
X11800Y354450D02*X18200D01*
X11800D02*Y348050D01*
X18200D01*
Y354450D02*Y348050D01*
G54D222*X135000Y353500D02*X136500Y350500D01*
X138000Y353500D01*
X136500Y350500D02*Y347500D01*
X139800Y350800D02*X142050D01*
X139800Y347500D02*X142800D01*
X139800Y353500D02*Y347500D01*
Y353500D02*X142800D01*
X147600D02*X148350Y352750D01*
X145350Y353500D02*X147600D01*
X144600Y352750D02*X145350Y353500D01*
X144600Y352750D02*Y351250D01*
X145350Y350500D01*
X147600D01*
X148350Y349750D01*
Y348250D01*
X147600Y347500D02*X148350Y348250D01*
X145350Y347500D02*X147600D01*
X144600Y348250D02*X145350Y347500D01*
X98000Y352750D02*X98750Y353500D01*
X101000D01*
X101750Y352750D01*
Y351250D01*
X98000Y347500D02*X101750Y351250D01*
X98000Y347500D02*X101750D01*
X45000Y348250D02*X45750Y347500D01*
X45000Y352750D02*Y348250D01*
Y352750D02*X45750Y353500D01*
X47250D01*
X48000Y352750D01*
Y348250D01*
X47250Y347500D02*X48000Y348250D01*
X45750Y347500D02*X47250D01*
X45000Y349000D02*X48000Y352000D01*
X49800Y347500D02*X50550D01*
X52350Y352300D02*X53550Y353500D01*
Y347500D01*
X52350D02*X54600D01*
X56400Y352750D02*X57150Y353500D01*
X59400D01*
X60150Y352750D01*
Y351250D01*
X56400Y347500D02*X60150Y351250D01*
X56400Y347500D02*X60150D01*
X61950Y348250D02*X62700Y347500D01*
X61950Y349450D02*Y348250D01*
Y349450D02*X63000Y350500D01*
X63900D01*
X64950Y349450D01*
Y348250D01*
X64200Y347500D02*X64950Y348250D01*
X62700Y347500D02*X64200D01*
X61950Y351550D02*X63000Y350500D01*
X61950Y352750D02*Y351550D01*
Y352750D02*X62700Y353500D01*
X64200D01*
X64950Y352750D01*
Y351550D01*
X63900Y350500D02*X64950Y351550D01*
X371956Y280000D02*G75*G03X373556Y280000I800J0D01*G01*
G75*G03X371956Y280000I-800J0D01*G01*
X370356D02*G75*G03X375156Y280000I2400J0D01*G01*
G75*G03X370356Y280000I-2400J0D01*G01*
X14200Y366250D02*G75*G03X15800Y366250I800J0D01*G01*
G75*G03X14200Y366250I-800J0D01*G01*
X12600D02*G75*G03X17400Y366250I2400J0D01*G01*
G75*G03X12600Y366250I-2400J0D01*G01*
X135000Y368500D02*X136500Y365500D01*
X138000Y368500D01*
X136500Y365500D02*Y362500D01*
X139800Y365800D02*X142050D01*
X139800Y362500D02*X142800D01*
X139800Y368500D02*Y362500D01*
Y368500D02*X142800D01*
X147600D02*X148350Y367750D01*
X145350Y368500D02*X147600D01*
X144600Y367750D02*X145350Y368500D01*
X144600Y367750D02*Y366250D01*
X145350Y365500D01*
X147600D01*
X148350Y364750D01*
Y363250D01*
X147600Y362500D02*X148350Y363250D01*
X145350Y362500D02*X147600D01*
X144600Y363250D02*X145350Y362500D01*
X98000Y367300D02*X99200Y368500D01*
Y362500D01*
X98000D02*X100250D01*
X45000Y363250D02*X45750Y362500D01*
X45000Y367750D02*Y363250D01*
Y367750D02*X45750Y368500D01*
X47250D01*
X48000Y367750D01*
Y363250D01*
X47250Y362500D02*X48000Y363250D01*
X45750Y362500D02*X47250D01*
X45000Y364000D02*X48000Y367000D01*
X49800Y362500D02*X50550D01*
X52350Y367300D02*X53550Y368500D01*
Y362500D01*
X52350D02*X54600D01*
X56400Y367750D02*X57150Y368500D01*
X59400D01*
X60150Y367750D01*
Y366250D01*
X56400Y362500D02*X60150Y366250D01*
X56400Y362500D02*X60150D01*
X61950Y368500D02*X64950D01*
X61950D02*Y365500D01*
X62700Y366250D01*
X64200D01*
X64950Y365500D01*
Y363250D01*
X64200Y362500D02*X64950Y363250D01*
X62700Y362500D02*X64200D01*
X61950Y363250D02*X62700Y362500D01*
X397915Y300117D02*X402715Y295317D01*
X397915D02*X402715Y300117D01*
X398715Y299317D02*X401915D01*
X398715D02*Y296117D01*
X401915D01*
Y299317D02*Y296117D01*
X397915Y264683D02*X402715Y259883D01*
X397915D02*X402715Y264683D01*
X398715Y263883D02*X401915D01*
X398715D02*Y260683D01*
X401915D01*
Y263883D02*Y260683D01*
X12600Y383650D02*X17400Y378850D01*
X12600D02*X17400Y383650D01*
X13400Y382850D02*X16600D01*
X13400D02*Y379650D01*
X16600D01*
Y382850D02*Y379650D01*
X135000Y383500D02*X136500Y380500D01*
X138000Y383500D01*
X136500Y380500D02*Y377500D01*
X139800Y380800D02*X142050D01*
X139800Y377500D02*X142800D01*
X139800Y383500D02*Y377500D01*
Y383500D02*X142800D01*
X147600D02*X148350Y382750D01*
X145350Y383500D02*X147600D01*
X144600Y382750D02*X145350Y383500D01*
X144600Y382750D02*Y381250D01*
X145350Y380500D01*
X147600D01*
X148350Y379750D01*
Y378250D01*
X147600Y377500D02*X148350Y378250D01*
X145350Y377500D02*X147600D01*
X144600Y378250D02*X145350Y377500D01*
X98000Y382750D02*X98750Y383500D01*
X101000D01*
X101750Y382750D01*
Y381250D01*
X98000Y377500D02*X101750Y381250D01*
X98000Y377500D02*X101750D01*
X45000Y378250D02*X45750Y377500D01*
X45000Y382750D02*Y378250D01*
Y382750D02*X45750Y383500D01*
X47250D01*
X48000Y382750D01*
Y378250D01*
X47250Y377500D02*X48000Y378250D01*
X45750Y377500D02*X47250D01*
X45000Y379000D02*X48000Y382000D01*
X49800Y377500D02*X50550D01*
X52350Y382300D02*X53550Y383500D01*
Y377500D01*
X52350D02*X54600D01*
X56400Y382300D02*X57600Y383500D01*
Y377500D01*
X56400D02*X58650D01*
X60450Y378250D02*X61200Y377500D01*
X60450Y382750D02*Y378250D01*
Y382750D02*X61200Y383500D01*
X62700D01*
X63450Y382750D01*
Y378250D01*
X62700Y377500D02*X63450Y378250D01*
X61200Y377500D02*X62700D01*
X60450Y379000D02*X63450Y382000D01*
X396378Y283200D02*Y276800D01*
X393178Y280000D02*X399578D01*
X394778Y281600D02*X397978D01*
X394778D02*Y278400D01*
X397978D01*
Y281600D02*Y278400D01*
X15000Y399450D02*Y393050D01*
X11800Y396250D02*X18200D01*
X13400Y397850D02*X16600D01*
X13400D02*Y394650D01*
X16600D01*
Y397850D02*Y394650D01*
X135000Y398500D02*X136500Y395500D01*
X138000Y398500D01*
X136500Y395500D02*Y392500D01*
X139800Y395800D02*X142050D01*
X139800Y392500D02*X142800D01*
X139800Y398500D02*Y392500D01*
Y398500D02*X142800D01*
X147600D02*X148350Y397750D01*
X145350Y398500D02*X147600D01*
X144600Y397750D02*X145350Y398500D01*
X144600Y397750D02*Y396250D01*
X145350Y395500D01*
X147600D01*
X148350Y394750D01*
Y393250D01*
X147600Y392500D02*X148350Y393250D01*
X145350Y392500D02*X147600D01*
X144600Y393250D02*X145350Y392500D01*
X98000Y397300D02*X99200Y398500D01*
Y392500D01*
X98000D02*X100250D01*
X45000Y393250D02*X45750Y392500D01*
X45000Y397750D02*Y393250D01*
Y397750D02*X45750Y398500D01*
X47250D01*
X48000Y397750D01*
Y393250D01*
X47250Y392500D02*X48000Y393250D01*
X45750Y392500D02*X47250D01*
X45000Y394000D02*X48000Y397000D01*
X49800Y392500D02*X50550D01*
X52350Y397300D02*X53550Y398500D01*
Y392500D01*
X52350D02*X54600D01*
X56400Y393250D02*X57150Y392500D01*
X56400Y397750D02*Y393250D01*
Y397750D02*X57150Y398500D01*
X58650D01*
X59400Y397750D01*
Y393250D01*
X58650Y392500D02*X59400Y393250D01*
X57150Y392500D02*X58650D01*
X56400Y394000D02*X59400Y397000D01*
X61200Y393250D02*X61950Y392500D01*
X61200Y397750D02*Y393250D01*
Y397750D02*X61950Y398500D01*
X63450D01*
X64200Y397750D01*
Y393250D01*
X63450Y392500D02*X64200Y393250D01*
X61950Y392500D02*X63450D01*
X61200Y394000D02*X64200Y397000D01*
X387500Y327500D02*Y324300D01*
Y327500D02*X390273Y329100D01*
X387500Y327500D02*X384727Y329100D01*
X385900Y327500D02*G75*G03X389100Y327500I1600J0D01*G01*
G75*G03X385900Y327500I-1600J0D01*G01*
X387500Y12500D02*Y9300D01*
Y12500D02*X390273Y14100D01*
X387500Y12500D02*X384727Y14100D01*
X385900Y12500D02*G75*G03X389100Y12500I1600J0D01*G01*
G75*G03X385900Y12500I-1600J0D01*G01*
X32500D02*Y9300D01*
Y12500D02*X35273Y14100D01*
X32500Y12500D02*X29727Y14100D01*
X30900Y12500D02*G75*G03X34100Y12500I1600J0D01*G01*
G75*G03X30900Y12500I-1600J0D01*G01*
X32500Y327500D02*Y324300D01*
Y327500D02*X35273Y329100D01*
X32500Y327500D02*X29727Y329100D01*
X30900Y327500D02*G75*G03X34100Y327500I1600J0D01*G01*
G75*G03X30900Y327500I-1600J0D01*G01*
X15000Y411250D02*Y408050D01*
Y411250D02*X17773Y412850D01*
X15000Y411250D02*X12227Y412850D01*
X13400Y411250D02*G75*G03X16600Y411250I1600J0D01*G01*
G75*G03X13400Y411250I-1600J0D01*G01*
X135000Y413500D02*X136500Y410500D01*
X138000Y413500D01*
X136500Y410500D02*Y407500D01*
X139800Y410800D02*X142050D01*
X139800Y407500D02*X142800D01*
X139800Y413500D02*Y407500D01*
Y413500D02*X142800D01*
X147600D02*X148350Y412750D01*
X145350Y413500D02*X147600D01*
X144600Y412750D02*X145350Y413500D01*
X144600Y412750D02*Y411250D01*
X145350Y410500D01*
X147600D01*
X148350Y409750D01*
Y408250D01*
X147600Y407500D02*X148350Y408250D01*
X145350Y407500D02*X147600D01*
X144600Y408250D02*X145350Y407500D01*
X98000Y409750D02*X101000Y413500D01*
X98000Y409750D02*X101750D01*
X101000Y413500D02*Y407500D01*
X45000Y408250D02*X45750Y407500D01*
X45000Y412750D02*Y408250D01*
Y412750D02*X45750Y413500D01*
X47250D01*
X48000Y412750D01*
Y408250D01*
X47250Y407500D02*X48000Y408250D01*
X45750Y407500D02*X47250D01*
X45000Y409000D02*X48000Y412000D01*
X49800Y407500D02*X50550D01*
X52350Y408250D02*X53100Y407500D01*
X52350Y412750D02*Y408250D01*
Y412750D02*X53100Y413500D01*
X54600D01*
X55350Y412750D01*
Y408250D01*
X54600Y407500D02*X55350Y408250D01*
X53100Y407500D02*X54600D01*
X52350Y409000D02*X55350Y412000D01*
X57900Y407500D02*X60150Y410500D01*
Y412750D02*Y410500D01*
X59400Y413500D02*X60150Y412750D01*
X57900Y413500D02*X59400D01*
X57150Y412750D02*X57900Y413500D01*
X57150Y412750D02*Y411250D01*
X57900Y410500D01*
X60150D01*
X64200Y413500D02*X64950Y412750D01*
X62700Y413500D02*X64200D01*
X61950Y412750D02*X62700Y413500D01*
X61950Y412750D02*Y408250D01*
X62700Y407500D01*
X64200Y410800D02*X64950Y410050D01*
X61950Y410800D02*X64200D01*
X62700Y407500D02*X64200D01*
X64950Y408250D01*
Y410050D02*Y408250D01*
X406589Y281600D02*X409789D01*
X406589D02*Y278400D01*
X409789D01*
Y281600D02*Y278400D01*
X373400Y46600D02*X376600D01*
X373400D02*Y43400D01*
X376600D01*
Y46600D02*Y43400D01*
X373400Y107600D02*X376600D01*
X373400D02*Y104400D01*
X376600D01*
Y107600D02*Y104400D01*
X13400Y427850D02*X16600D01*
X13400D02*Y424650D01*
X16600D01*
Y427850D02*Y424650D01*
X135000Y428500D02*X136500Y425500D01*
X138000Y428500D01*
X136500Y425500D02*Y422500D01*
X139800Y425800D02*X142050D01*
X139800Y422500D02*X142800D01*
X139800Y428500D02*Y422500D01*
Y428500D02*X142800D01*
X147600D02*X148350Y427750D01*
X145350Y428500D02*X147600D01*
X144600Y427750D02*X145350Y428500D01*
X144600Y427750D02*Y426250D01*
X145350Y425500D01*
X147600D01*
X148350Y424750D01*
Y423250D01*
X147600Y422500D02*X148350Y423250D01*
X145350Y422500D02*X147600D01*
X144600Y423250D02*X145350Y422500D01*
X98000Y427750D02*X98750Y428500D01*
X100250D01*
X101000Y427750D01*
X100250Y422500D02*X101000Y423250D01*
X98750Y422500D02*X100250D01*
X98000Y423250D02*X98750Y422500D01*
Y425800D02*X100250D01*
X101000Y427750D02*Y426550D01*
Y425050D02*Y423250D01*
Y425050D02*X100250Y425800D01*
X101000Y426550D02*X100250Y425800D01*
X45000Y423250D02*X45750Y422500D01*
X45000Y427750D02*Y423250D01*
Y427750D02*X45750Y428500D01*
X47250D01*
X48000Y427750D01*
Y423250D01*
X47250Y422500D02*X48000Y423250D01*
X45750Y422500D02*X47250D01*
X45000Y424000D02*X48000Y427000D01*
X49800Y422500D02*X50550D01*
X52350Y423250D02*X53100Y422500D01*
X52350Y427750D02*Y423250D01*
Y427750D02*X53100Y428500D01*
X54600D01*
X55350Y427750D01*
Y423250D01*
X54600Y422500D02*X55350Y423250D01*
X53100Y422500D02*X54600D01*
X52350Y424000D02*X55350Y427000D01*
X59400Y428500D02*X60150Y427750D01*
X57900Y428500D02*X59400D01*
X57150Y427750D02*X57900Y428500D01*
X57150Y427750D02*Y423250D01*
X57900Y422500D01*
X59400Y425800D02*X60150Y425050D01*
X57150Y425800D02*X59400D01*
X57900Y422500D02*X59400D01*
X60150Y423250D01*
Y425050D02*Y423250D01*
X61950Y427750D02*X62700Y428500D01*
X64950D01*
X65700Y427750D01*
Y426250D01*
X61950Y422500D02*X65700Y426250D01*
X61950Y422500D02*X65700D01*
X369200Y155000D02*G75*G03X370800Y155000I800J0D01*G01*
G75*G03X369200Y155000I-800J0D01*G01*
X359200D02*G75*G03X360800Y155000I800J0D01*G01*
G75*G03X359200Y155000I-800J0D01*G01*
X369200Y165000D02*G75*G03X370800Y165000I800J0D01*G01*
G75*G03X369200Y165000I-800J0D01*G01*
X359200D02*G75*G03X360800Y165000I800J0D01*G01*
G75*G03X359200Y165000I-800J0D01*G01*
X369200Y175000D02*G75*G03X370800Y175000I800J0D01*G01*
G75*G03X369200Y175000I-800J0D01*G01*
X359200D02*G75*G03X360800Y175000I800J0D01*G01*
G75*G03X359200Y175000I-800J0D01*G01*
X369200Y185000D02*G75*G03X370800Y185000I800J0D01*G01*
G75*G03X369200Y185000I-800J0D01*G01*
X359200D02*G75*G03X360800Y185000I800J0D01*G01*
G75*G03X359200Y185000I-800J0D01*G01*
X369200Y195000D02*G75*G03X370800Y195000I800J0D01*G01*
G75*G03X369200Y195000I-800J0D01*G01*
X359200D02*G75*G03X360800Y195000I800J0D01*G01*
G75*G03X359200Y195000I-800J0D01*G01*
X369200Y205000D02*G75*G03X370800Y205000I800J0D01*G01*
G75*G03X369200Y205000I-800J0D01*G01*
X359200D02*G75*G03X360800Y205000I800J0D01*G01*
G75*G03X359200Y205000I-800J0D01*G01*
X369200Y215000D02*G75*G03X370800Y215000I800J0D01*G01*
G75*G03X369200Y215000I-800J0D01*G01*
X359200D02*G75*G03X360800Y215000I800J0D01*G01*
G75*G03X359200Y215000I-800J0D01*G01*
X369200Y225000D02*G75*G03X370800Y225000I800J0D01*G01*
G75*G03X369200Y225000I-800J0D01*G01*
X359200D02*G75*G03X360800Y225000I800J0D01*G01*
G75*G03X359200Y225000I-800J0D01*G01*
X179200Y10000D02*G75*G03X180800Y10000I800J0D01*G01*
G75*G03X179200Y10000I-800J0D01*G01*
X169200D02*G75*G03X170800Y10000I800J0D01*G01*
G75*G03X169200Y10000I-800J0D01*G01*
X14200Y441250D02*G75*G03X15800Y441250I800J0D01*G01*
G75*G03X14200Y441250I-800J0D01*G01*
X135000Y443500D02*X136500Y440500D01*
X138000Y443500D01*
X136500Y440500D02*Y437500D01*
X139800Y440800D02*X142050D01*
X139800Y437500D02*X142800D01*
X139800Y443500D02*Y437500D01*
Y443500D02*X142800D01*
X147600D02*X148350Y442750D01*
X145350Y443500D02*X147600D01*
X144600Y442750D02*X145350Y443500D01*
X144600Y442750D02*Y441250D01*
X145350Y440500D01*
X147600D01*
X148350Y439750D01*
Y438250D01*
X147600Y437500D02*X148350Y438250D01*
X145350Y437500D02*X147600D01*
X144600Y438250D02*X145350Y437500D01*
X98000Y442300D02*X99200Y443500D01*
Y437500D01*
X98000D02*X100250D01*
X102050Y438250D02*X102800Y437500D01*
X102050Y439450D02*Y438250D01*
Y439450D02*X103100Y440500D01*
X104000D01*
X105050Y439450D01*
Y438250D01*
X104300Y437500D02*X105050Y438250D01*
X102800Y437500D02*X104300D01*
X102050Y441550D02*X103100Y440500D01*
X102050Y442750D02*Y441550D01*
Y442750D02*X102800Y443500D01*
X104300D01*
X105050Y442750D01*
Y441550D01*
X104000Y440500D02*X105050Y441550D01*
X45000Y438250D02*X45750Y437500D01*
X45000Y442750D02*Y438250D01*
Y442750D02*X45750Y443500D01*
X47250D01*
X48000Y442750D01*
Y438250D01*
X47250Y437500D02*X48000Y438250D01*
X45750Y437500D02*X47250D01*
X45000Y439000D02*X48000Y442000D01*
X49800Y437500D02*X50550D01*
X52350Y438250D02*X53100Y437500D01*
X52350Y442750D02*Y438250D01*
Y442750D02*X53100Y443500D01*
X54600D01*
X55350Y442750D01*
Y438250D01*
X54600Y437500D02*X55350Y438250D01*
X53100Y437500D02*X54600D01*
X52350Y439000D02*X55350Y442000D01*
X57150Y439750D02*X60150Y443500D01*
X57150Y439750D02*X60900D01*
X60150Y443500D02*Y437500D01*
X62700Y442750D02*X63450Y443500D01*
X65700D01*
X66450Y442750D01*
Y441250D01*
X62700Y437500D02*X66450Y441250D01*
X62700Y437500D02*X66450D01*
X331800Y55200D02*X334200Y52800D01*
X331800D02*X334200Y55200D01*
X331800Y65200D02*X334200Y62800D01*
X331800D02*X334200Y65200D01*
X331800Y88200D02*X334200Y85800D01*
X331800D02*X334200Y88200D01*
X331800Y98200D02*X334200Y95800D01*
X331800D02*X334200Y98200D01*
X13800Y457450D02*X16200Y455050D01*
X13800D02*X16200Y457450D01*
X135000Y458500D02*X136500Y455500D01*
X138000Y458500D01*
X136500Y455500D02*Y452500D01*
X139800Y455800D02*X142050D01*
X139800Y452500D02*X142800D01*
X139800Y458500D02*Y452500D01*
Y458500D02*X142800D01*
X147600D02*X148350Y457750D01*
X145350Y458500D02*X147600D01*
X144600Y457750D02*X145350Y458500D01*
X144600Y457750D02*Y456250D01*
X145350Y455500D01*
X147600D01*
X148350Y454750D01*
Y453250D01*
X147600Y452500D02*X148350Y453250D01*
X145350Y452500D02*X147600D01*
X144600Y453250D02*X145350Y452500D01*
X98000Y454750D02*X101000Y458500D01*
X98000Y454750D02*X101750D01*
X101000Y458500D02*Y452500D01*
X45000Y453250D02*X45750Y452500D01*
X45000Y457750D02*Y453250D01*
Y457750D02*X45750Y458500D01*
X47250D01*
X48000Y457750D01*
Y453250D01*
X47250Y452500D02*X48000Y453250D01*
X45750Y452500D02*X47250D01*
X45000Y454000D02*X48000Y457000D01*
X49800Y452500D02*X50550D01*
X52350Y453250D02*X53100Y452500D01*
X52350Y457750D02*Y453250D01*
Y457750D02*X53100Y458500D01*
X54600D01*
X55350Y457750D01*
Y453250D01*
X54600Y452500D02*X55350Y453250D01*
X53100Y452500D02*X54600D01*
X52350Y454000D02*X55350Y457000D01*
X57150Y454750D02*X60150Y458500D01*
X57150Y454750D02*X60900D01*
X60150Y458500D02*Y452500D01*
X62700Y453250D02*X63450Y452500D01*
X62700Y457750D02*Y453250D01*
Y457750D02*X63450Y458500D01*
X64950D01*
X65700Y457750D01*
Y453250D01*
X64950Y452500D02*X65700Y453250D01*
X63450Y452500D02*X64950D01*
X62700Y454000D02*X65700Y457000D01*
X362000Y99600D02*Y96400D01*
X360400Y98000D02*X363600D01*
X352000Y94600D02*Y91400D01*
X350400Y93000D02*X353600D01*
X362000Y89600D02*Y86400D01*
X360400Y88000D02*X363600D01*
X352000Y84600D02*Y81400D01*
X350400Y83000D02*X353600D01*
X362000Y79600D02*Y76400D01*
X360400Y78000D02*X363600D01*
X352000Y74600D02*Y71400D01*
X350400Y73000D02*X353600D01*
X362000Y69600D02*Y66400D01*
X360400Y68000D02*X363600D01*
X352000Y64600D02*Y61400D01*
X350400Y63000D02*X353600D01*
X362000Y59600D02*Y56400D01*
X360400Y58000D02*X363600D01*
X352000Y54600D02*Y51400D01*
X350400Y53000D02*X353600D01*
X398000Y215096D02*Y211896D01*
X396400Y213496D02*X399600D01*
X405874Y215096D02*Y211896D01*
X404274Y213496D02*X407474D01*
X398000Y207222D02*Y204022D01*
X396400Y205622D02*X399600D01*
X405874Y207222D02*Y204022D01*
X404274Y205622D02*X407474D01*
X398000Y199348D02*Y196148D01*
X396400Y197748D02*X399600D01*
X405874Y199348D02*Y196148D01*
X404274Y197748D02*X407474D01*
X398000Y191474D02*Y188274D01*
X396400Y189874D02*X399600D01*
X405874Y191474D02*Y188274D01*
X404274Y189874D02*X407474D01*
X398000Y183600D02*Y180400D01*
X396400Y182000D02*X399600D01*
X405874Y183600D02*Y180400D01*
X404274Y182000D02*X407474D01*
X398000Y175726D02*Y172526D01*
X396400Y174126D02*X399600D01*
X405874Y175726D02*Y172526D01*
X404274Y174126D02*X407474D01*
X398000Y167852D02*Y164652D01*
X396400Y166252D02*X399600D01*
X405874Y167852D02*Y164652D01*
X404274Y166252D02*X407474D01*
X15000Y472850D02*Y469650D01*
X13400Y471250D02*X16600D01*
X135000Y473500D02*X136500Y470500D01*
X138000Y473500D01*
X136500Y470500D02*Y467500D01*
X139800Y470800D02*X142050D01*
X139800Y467500D02*X142800D01*
X139800Y473500D02*Y467500D01*
Y473500D02*X142800D01*
X147600D02*X148350Y472750D01*
X145350Y473500D02*X147600D01*
X144600Y472750D02*X145350Y473500D01*
X144600Y472750D02*Y471250D01*
X145350Y470500D01*
X147600D01*
X148350Y469750D01*
Y468250D01*
X147600Y467500D02*X148350Y468250D01*
X145350Y467500D02*X147600D01*
X144600Y468250D02*X145350Y467500D01*
X98000Y472750D02*X98750Y473500D01*
X101000D01*
X101750Y472750D01*
Y471250D01*
X98000Y467500D02*X101750Y471250D01*
X98000Y467500D02*X101750D01*
X103550Y469750D02*X106550Y473500D01*
X103550Y469750D02*X107300D01*
X106550Y473500D02*Y467500D01*
X45000Y468250D02*X45750Y467500D01*
X45000Y472750D02*Y468250D01*
Y472750D02*X45750Y473500D01*
X47250D01*
X48000Y472750D01*
Y468250D01*
X47250Y467500D02*X48000Y468250D01*
X45750Y467500D02*X47250D01*
X45000Y469000D02*X48000Y472000D01*
X49800Y467500D02*X50550D01*
X52350Y468250D02*X53100Y467500D01*
X52350Y472750D02*Y468250D01*
Y472750D02*X53100Y473500D01*
X54600D01*
X55350Y472750D01*
Y468250D01*
X54600Y467500D02*X55350Y468250D01*
X53100Y467500D02*X54600D01*
X52350Y469000D02*X55350Y472000D01*
X57150Y472750D02*X57900Y473500D01*
X59400D01*
X60150Y472750D01*
X59400Y467500D02*X60150Y468250D01*
X57900Y467500D02*X59400D01*
X57150Y468250D02*X57900Y467500D01*
Y470800D02*X59400D01*
X60150Y472750D02*Y471550D01*
Y470050D02*Y468250D01*
Y470050D02*X59400Y470800D01*
X60150Y471550D02*X59400Y470800D01*
X61950Y473500D02*X64950D01*
X61950D02*Y470500D01*
X62700Y471250D01*
X64200D01*
X64950Y470500D01*
Y468250D01*
X64200Y467500D02*X64950Y468250D01*
X62700Y467500D02*X64200D01*
X61950Y468250D02*X62700Y467500D01*
X211800Y213900D02*Y212300D01*
Y213900D02*X213187Y214700D01*
X211800Y213900D02*X210413Y214700D01*
X211800Y190200D02*Y188600D01*
Y190200D02*X213187Y191000D01*
X211800Y190200D02*X210413Y191000D01*
X237200Y166700D02*Y165100D01*
Y166700D02*X238587Y167500D01*
X237200Y166700D02*X235813Y167500D01*
X217600Y202000D02*Y200400D01*
Y202000D02*X218987Y202800D01*
X217600Y202000D02*X216213Y202800D01*
X217600Y184300D02*Y182700D01*
Y184300D02*X218987Y185100D01*
X217600Y184300D02*X216213Y185100D01*
X248700Y166700D02*Y165100D01*
Y166700D02*X250087Y167500D01*
X248700Y166700D02*X247313Y167500D01*
X274600Y166600D02*Y165000D01*
Y166600D02*X275987Y167400D01*
X274600Y166600D02*X273213Y167400D01*
X278400Y200000D02*Y198400D01*
Y200000D02*X279787Y200800D01*
X278400Y200000D02*X277013Y200800D01*
X243300Y172900D02*Y171300D01*
Y172900D02*X244687Y173700D01*
X243300Y172900D02*X241913Y173700D01*
X284500Y237600D02*Y236000D01*
Y237600D02*X285887Y238400D01*
X284500Y237600D02*X283113Y238400D01*
X274600Y239700D02*Y238100D01*
Y239700D02*X275987Y240500D01*
X274600Y239700D02*X273213Y240500D01*
X245000Y233100D02*Y231500D01*
Y233100D02*X246387Y233900D01*
X245000Y233100D02*X243613Y233900D01*
X239800Y239800D02*Y238200D01*
Y239800D02*X241187Y240600D01*
X239800Y239800D02*X238413Y240600D01*
X228100Y239700D02*Y238100D01*
Y239700D02*X229487Y240500D01*
X228100Y239700D02*X226713Y240500D01*
X71100Y305100D02*Y303500D01*
Y305100D02*X72487Y305900D01*
X71100Y305100D02*X69713Y305900D01*
X64600Y309100D02*Y307500D01*
Y309100D02*X65987Y309900D01*
X64600Y309100D02*X63213Y309900D01*
X140400Y148400D02*Y146800D01*
Y148400D02*X141787Y149200D01*
X140400Y148400D02*X139013Y149200D01*
X136900Y148800D02*Y147200D01*
Y148800D02*X138287Y149600D01*
X136900Y148800D02*X135513Y149600D01*
X140200Y211700D02*Y210100D01*
Y211700D02*X141587Y212500D01*
X140200Y211700D02*X138813Y212500D01*
X136500Y212000D02*Y210400D01*
Y212000D02*X137887Y212800D01*
X136500Y212000D02*X135113Y212800D01*
X140200Y274700D02*Y273100D01*
Y274700D02*X141587Y275500D01*
X140200Y274700D02*X138813Y275500D01*
X136500Y275000D02*Y273400D01*
Y275000D02*X137887Y275800D01*
X136500Y275000D02*X135113Y275800D01*
X74400Y152426D02*Y150826D01*
Y152426D02*X75787Y153226D01*
X74400Y152426D02*X73013Y153226D01*
X116174Y170900D02*Y169300D01*
Y170900D02*X117561Y171700D01*
X116174Y170900D02*X114787Y171700D01*
X125600Y167900D02*Y166300D01*
Y167900D02*X126987Y168700D01*
X125600Y167900D02*X124213Y168700D01*
X125600Y172500D02*Y170900D01*
Y172500D02*X126987Y173300D01*
X125600Y172500D02*X124213Y173300D01*
X135200Y194500D02*Y192900D01*
Y194500D02*X136587Y195300D01*
X135200Y194500D02*X133813Y195300D01*
X167400Y177600D02*Y176000D01*
Y177600D02*X168787Y178400D01*
X167400Y177600D02*X166013Y178400D01*
X167600Y162600D02*Y161000D01*
Y162600D02*X168987Y163400D01*
X167600Y162600D02*X166213Y163400D01*
X135500Y145600D02*Y144000D01*
Y145600D02*X136887Y146400D01*
X135500Y145600D02*X134113Y146400D01*
X124900Y147000D02*Y145400D01*
Y147000D02*X126287Y147800D01*
X124900Y147000D02*X123513Y147800D01*
X125100Y193900D02*Y192300D01*
Y193900D02*X126487Y194700D01*
X125100Y193900D02*X123713Y194700D01*
X120900Y184700D02*Y183100D01*
Y184700D02*X122287Y185500D01*
X120900Y184700D02*X119513Y185500D01*
X144100Y151800D02*Y150200D01*
Y151800D02*X145487Y152600D01*
X144100Y151800D02*X142713Y152600D01*
X140800Y151900D02*Y150300D01*
Y151900D02*X142187Y152700D01*
X140800Y151900D02*X139413Y152700D01*
X135100Y151800D02*Y150200D01*
Y151800D02*X136487Y152600D01*
X135100Y151800D02*X133713Y152600D01*
X120400Y156800D02*Y155200D01*
Y156800D02*X121787Y157600D01*
X120400Y156800D02*X119013Y157600D01*
X90700Y142900D02*Y141300D01*
Y142900D02*X92087Y143700D01*
X90700Y142900D02*X89313Y143700D01*
X87400Y146100D02*Y144500D01*
Y146100D02*X88787Y146900D01*
X87400Y146100D02*X86013Y146900D01*
X104400Y142900D02*Y141300D01*
Y142900D02*X105787Y143700D01*
X104400Y142900D02*X103013Y143700D01*
X105700Y146900D02*Y145300D01*
Y146900D02*X107087Y147700D01*
X105700Y146900D02*X104313Y147700D01*
X80800Y159000D02*Y157400D01*
Y159000D02*X82187Y159800D01*
X80800Y159000D02*X79413Y159800D01*
X84600Y153700D02*Y152100D01*
Y153700D02*X85987Y154500D01*
X84600Y153700D02*X83213Y154500D01*
X88100Y152300D02*Y150700D01*
Y152300D02*X89487Y153100D01*
X88100Y152300D02*X86713Y153100D01*
X104200Y155700D02*Y154100D01*
Y155700D02*X105587Y156500D01*
X104200Y155700D02*X102813Y156500D01*
X99600Y155800D02*Y154200D01*
Y155800D02*X100987Y156600D01*
X99600Y155800D02*X98213Y156600D01*
X96500Y155800D02*Y154200D01*
Y155800D02*X97887Y156600D01*
X96500Y155800D02*X95113Y156600D01*
X105600Y188700D02*Y187100D01*
Y188700D02*X106987Y189500D01*
X105600Y188700D02*X104213Y189500D01*
X115600Y154800D02*Y153200D01*
Y154800D02*X116987Y155600D01*
X115600Y154800D02*X114213Y155600D01*
X81300Y187600D02*Y186000D01*
Y187600D02*X82687Y188400D01*
X81300Y187600D02*X79913Y188400D01*
X56400Y161000D02*Y159400D01*
Y161000D02*X57787Y161800D01*
X56400Y161000D02*X55013Y161800D01*
X111700Y143300D02*Y141700D01*
Y143300D02*X113087Y144100D01*
X111700Y143300D02*X110313Y144100D01*
X107700Y143400D02*Y141800D01*
Y143400D02*X109087Y144200D01*
X107700Y143400D02*X106313Y144200D01*
X84500Y180700D02*Y179100D01*
Y180700D02*X85887Y181500D01*
X84500Y180700D02*X83113Y181500D01*
X84500Y177400D02*Y175800D01*
Y177400D02*X85887Y178200D01*
X84500Y177400D02*X83113Y178200D01*
X84500Y173800D02*Y172200D01*
Y173800D02*X85887Y174600D01*
X84500Y173800D02*X83113Y174600D01*
X35000Y166400D02*Y164800D01*
Y166400D02*X36387Y167200D01*
X35000Y166400D02*X33613Y167200D01*
X42000Y166400D02*Y164800D01*
Y166400D02*X43387Y167200D01*
X42000Y166400D02*X40613Y167200D01*
X38500Y163900D02*Y162300D01*
Y163900D02*X39887Y164700D01*
X38500Y163900D02*X37113Y164700D01*
X58000Y186400D02*Y184800D01*
Y186400D02*X59387Y187200D01*
X58000Y186400D02*X56613Y187200D01*
X64500Y182500D02*Y180900D01*
Y182500D02*X65887Y183300D01*
X64500Y182500D02*X63113Y183300D01*
X60500Y193400D02*Y191800D01*
Y193400D02*X61887Y194200D01*
X60500Y193400D02*X59113Y194200D01*
X64500Y193400D02*Y191800D01*
Y193400D02*X65887Y194200D01*
X64500Y193400D02*X63113Y194200D01*
X113200Y163600D02*Y162000D01*
Y163600D02*X114587Y164400D01*
X113200Y163600D02*X111813Y164400D01*
X90900Y184500D02*Y182900D01*
Y184500D02*X92287Y185300D01*
X90900Y184500D02*X89513Y185300D01*
X99400Y184500D02*Y182900D01*
Y184500D02*X100787Y185300D01*
X99400Y184500D02*X98013Y185300D01*
X84500Y161900D02*Y160300D01*
Y161900D02*X85887Y162700D01*
X84500Y161900D02*X83113Y162700D01*
X84500Y164900D02*Y163300D01*
Y164900D02*X85887Y165700D01*
X84500Y164900D02*X83113Y165700D01*
X70500Y179100D02*Y177500D01*
Y179100D02*X71887Y179900D01*
X70500Y179100D02*X69113Y179900D01*
X49000Y175900D02*Y174300D01*
Y175900D02*X50387Y176700D01*
X49000Y175900D02*X47613Y176700D01*
X48000Y172800D02*Y171200D01*
Y172800D02*X49387Y173600D01*
X48000Y172800D02*X46613Y173600D01*
X64000Y171900D02*Y170300D01*
Y171900D02*X65387Y172700D01*
X64000Y171900D02*X62613Y172700D01*
X116074Y233900D02*Y232300D01*
Y233900D02*X117461Y234700D01*
X116074Y233900D02*X114687Y234700D01*
X125500Y230900D02*Y229300D01*
Y230900D02*X126887Y231700D01*
X125500Y230900D02*X124113Y231700D01*
X125500Y235500D02*Y233900D01*
Y235500D02*X126887Y236300D01*
X125500Y235500D02*X124113Y236300D01*
X167300Y240600D02*Y239000D01*
Y240600D02*X168687Y241400D01*
X167300Y240600D02*X165913Y241400D01*
X167500Y225600D02*Y224000D01*
Y225600D02*X168887Y226400D01*
X167500Y225600D02*X166113Y226400D01*
X134474Y208574D02*Y206974D01*
Y208574D02*X135861Y209374D01*
X134474Y208574D02*X133087Y209374D01*
X124800Y210000D02*Y208400D01*
Y210000D02*X126187Y210800D01*
X124800Y210000D02*X123413Y210800D01*
X122100Y253500D02*Y251900D01*
Y253500D02*X123487Y254300D01*
X122100Y253500D02*X120713Y254300D01*
X120800Y247700D02*Y246100D01*
Y247700D02*X122187Y248500D01*
X120800Y247700D02*X119413Y248500D01*
X144000Y214800D02*Y213200D01*
Y214800D02*X145387Y215600D01*
X144000Y214800D02*X142613Y215600D01*
X140800Y214900D02*Y213300D01*
Y214900D02*X142187Y215700D01*
X140800Y214900D02*X139413Y215700D01*
X134800Y214800D02*Y213200D01*
Y214800D02*X136187Y215600D01*
X134800Y214800D02*X133413Y215600D01*
X120300Y219800D02*Y218200D01*
Y219800D02*X121687Y220600D01*
X120300Y219800D02*X118913Y220600D01*
X90600Y205900D02*Y204300D01*
Y205900D02*X91987Y206700D01*
X90600Y205900D02*X89213Y206700D01*
X87300Y209100D02*Y207500D01*
Y209100D02*X88687Y209900D01*
X87300Y209100D02*X85913Y209900D01*
X104300Y205900D02*Y204300D01*
Y205900D02*X105687Y206700D01*
X104300Y205900D02*X102913Y206700D01*
X105600Y209900D02*Y208300D01*
Y209900D02*X106987Y210700D01*
X105600Y209900D02*X104213Y210700D01*
X74300Y215426D02*Y213826D01*
Y215426D02*X75687Y216226D01*
X74300Y215426D02*X72913Y216226D01*
X80700Y222000D02*Y220400D01*
Y222000D02*X82087Y222800D01*
X80700Y222000D02*X79313Y222800D01*
X84500Y216700D02*Y215100D01*
Y216700D02*X85887Y217500D01*
X84500Y216700D02*X83113Y217500D01*
X88000Y215300D02*Y213700D01*
Y215300D02*X89387Y216100D01*
X88000Y215300D02*X86613Y216100D01*
X104100Y219300D02*Y217700D01*
Y219300D02*X105487Y220100D01*
X104100Y219300D02*X102713Y220100D01*
X99500Y218800D02*Y217200D01*
Y218800D02*X100887Y219600D01*
X99500Y218800D02*X98113Y219600D01*
X96400Y218800D02*Y217200D01*
Y218800D02*X97787Y219600D01*
X96400Y218800D02*X95013Y219600D01*
X105500Y251700D02*Y250100D01*
Y251700D02*X106887Y252500D01*
X105500Y251700D02*X104113Y252500D01*
X115500Y217800D02*Y216200D01*
Y217800D02*X116887Y218600D01*
X115500Y217800D02*X114113Y218600D01*
X81200Y250600D02*Y249000D01*
Y250600D02*X82587Y251400D01*
X81200Y250600D02*X79813Y251400D01*
X111600Y206300D02*Y204700D01*
Y206300D02*X112987Y207100D01*
X111600Y206300D02*X110213Y207100D01*
X107600Y206400D02*Y204800D01*
Y206400D02*X108987Y207200D01*
X107600Y206400D02*X106213Y207200D01*
X84400Y243700D02*Y242100D01*
Y243700D02*X85787Y244500D01*
X84400Y243700D02*X83013Y244500D01*
X84400Y240400D02*Y238800D01*
Y240400D02*X85787Y241200D01*
X84400Y240400D02*X83013Y241200D01*
X84400Y236800D02*Y235200D01*
Y236800D02*X85787Y237600D01*
X84400Y236800D02*X83013Y237600D01*
X34900Y229400D02*Y227800D01*
Y229400D02*X36287Y230200D01*
X34900Y229400D02*X33513Y230200D01*
X41900Y229400D02*Y227800D01*
Y229400D02*X43287Y230200D01*
X41900Y229400D02*X40513Y230200D01*
X38400Y226900D02*Y225300D01*
Y226900D02*X39787Y227700D01*
X38400Y226900D02*X37013Y227700D01*
X64400Y245500D02*Y243900D01*
Y245500D02*X65787Y246300D01*
X64400Y245500D02*X63013Y246300D01*
X64400Y256400D02*Y254800D01*
Y256400D02*X65787Y257200D01*
X64400Y256400D02*X63013Y257200D01*
X113100Y226600D02*Y225000D01*
Y226600D02*X114487Y227400D01*
X113100Y226600D02*X111713Y227400D01*
X90800Y247500D02*Y245900D01*
Y247500D02*X92187Y248300D01*
X90800Y247500D02*X89413Y248300D01*
X99300Y247500D02*Y245900D01*
Y247500D02*X100687Y248300D01*
X99300Y247500D02*X97913Y248300D01*
X84400Y224900D02*Y223300D01*
Y224900D02*X85787Y225700D01*
X84400Y224900D02*X83013Y225700D01*
X84400Y227900D02*Y226300D01*
Y227900D02*X85787Y228700D01*
X84400Y227900D02*X83013Y228700D01*
X70400Y242100D02*Y240500D01*
Y242100D02*X71787Y242900D01*
X70400Y242100D02*X69013Y242900D01*
X48900Y238900D02*Y237300D01*
Y238900D02*X50287Y239700D01*
X48900Y238900D02*X47513Y239700D01*
X47900Y235800D02*Y234200D01*
Y235800D02*X49287Y236600D01*
X47900Y235800D02*X46513Y236600D01*
X63900Y234900D02*Y233300D01*
Y234900D02*X65287Y235700D01*
X63900Y234900D02*X62513Y235700D01*
X152000Y167000D02*Y165400D01*
Y167000D02*X153387Y167800D01*
X152000Y167000D02*X150613Y167800D01*
X152000Y173000D02*Y171400D01*
Y173000D02*X153387Y173800D01*
X152000Y173000D02*X150613Y173800D01*
X146500Y173000D02*Y171400D01*
Y173000D02*X147887Y173800D01*
X146500Y173000D02*X145113Y173800D01*
X146500Y167000D02*Y165400D01*
Y167000D02*X147887Y167800D01*
X146500Y167000D02*X145113Y167800D01*
X146500Y161500D02*Y159900D01*
Y161500D02*X147887Y162300D01*
X146500Y161500D02*X145113Y162300D01*
X140500Y161500D02*Y159900D01*
Y161500D02*X141887Y162300D01*
X140500Y161500D02*X139113Y162300D01*
X140500Y167000D02*Y165400D01*
Y167000D02*X141887Y167800D01*
X140500Y167000D02*X139113Y167800D01*
X135000Y167000D02*Y165400D01*
Y167000D02*X136387Y167800D01*
X135000Y167000D02*X133613Y167800D01*
X135000Y173000D02*Y171400D01*
Y173000D02*X136387Y173800D01*
X135000Y173000D02*X133613Y173800D01*
X140500Y173000D02*Y171400D01*
Y173000D02*X141887Y173800D01*
X140500Y173000D02*X139113Y173800D01*
X146500Y178500D02*Y176900D01*
Y178500D02*X147887Y179300D01*
X146500Y178500D02*X145113Y179300D01*
X140500Y178500D02*Y176900D01*
Y178500D02*X141887Y179300D01*
X140500Y178500D02*X139113Y179300D01*
X135000Y161500D02*Y159900D01*
Y161500D02*X136387Y162300D01*
X135000Y161500D02*X133613Y162300D01*
X152000Y161500D02*Y159900D01*
Y161500D02*X153387Y162300D01*
X152000Y161500D02*X150613Y162300D01*
X152000Y178500D02*Y176900D01*
Y178500D02*X153387Y179300D01*
X152000Y178500D02*X150613Y179300D01*
X135000Y178500D02*Y176900D01*
Y178500D02*X136387Y179300D01*
X135000Y178500D02*X133613Y179300D01*
X99000Y165500D02*Y163900D01*
Y165500D02*X100387Y166300D01*
X99000Y165500D02*X97613Y166300D01*
X103500Y170000D02*Y168400D01*
Y170000D02*X104887Y170800D01*
X103500Y170000D02*X102113Y170800D01*
X99000Y174500D02*Y172900D01*
Y174500D02*X100387Y175300D01*
X99000Y174500D02*X97613Y175300D01*
X94500Y170000D02*Y168400D01*
Y170000D02*X95887Y170800D01*
X94500Y170000D02*X93113Y170800D01*
X99000Y170000D02*Y168400D01*
Y170000D02*X100387Y170800D01*
X99000Y170000D02*X97613Y170800D01*
X94500Y165500D02*Y163900D01*
Y165500D02*X95887Y166300D01*
X94500Y165500D02*X93113Y166300D01*
X103500Y165500D02*Y163900D01*
Y165500D02*X104887Y166300D01*
X103500Y165500D02*X102113Y166300D01*
X103500Y174500D02*Y172900D01*
Y174500D02*X104887Y175300D01*
X103500Y174500D02*X102113Y175300D01*
X94500Y174500D02*Y172900D01*
Y174500D02*X95887Y175300D01*
X94500Y174500D02*X93113Y175300D01*
X152000Y230000D02*Y228400D01*
Y230000D02*X153387Y230800D01*
X152000Y230000D02*X150613Y230800D01*
X152000Y236000D02*Y234400D01*
Y236000D02*X153387Y236800D01*
X152000Y236000D02*X150613Y236800D01*
X146500Y236000D02*Y234400D01*
Y236000D02*X147887Y236800D01*
X146500Y236000D02*X145113Y236800D01*
X146500Y230000D02*Y228400D01*
Y230000D02*X147887Y230800D01*
X146500Y230000D02*X145113Y230800D01*
X146500Y224500D02*Y222900D01*
Y224500D02*X147887Y225300D01*
X146500Y224500D02*X145113Y225300D01*
X140500Y224500D02*Y222900D01*
Y224500D02*X141887Y225300D01*
X140500Y224500D02*X139113Y225300D01*
X140500Y230000D02*Y228400D01*
Y230000D02*X141887Y230800D01*
X140500Y230000D02*X139113Y230800D01*
X135000Y230000D02*Y228400D01*
Y230000D02*X136387Y230800D01*
X135000Y230000D02*X133613Y230800D01*
X135000Y236000D02*Y234400D01*
Y236000D02*X136387Y236800D01*
X135000Y236000D02*X133613Y236800D01*
X140500Y236000D02*Y234400D01*
Y236000D02*X141887Y236800D01*
X140500Y236000D02*X139113Y236800D01*
X146500Y241500D02*Y239900D01*
Y241500D02*X147887Y242300D01*
X146500Y241500D02*X145113Y242300D01*
X140500Y241500D02*Y239900D01*
Y241500D02*X141887Y242300D01*
X140500Y241500D02*X139113Y242300D01*
X135000Y224500D02*Y222900D01*
Y224500D02*X136387Y225300D01*
X135000Y224500D02*X133613Y225300D01*
X152000Y224500D02*Y222900D01*
Y224500D02*X153387Y225300D01*
X152000Y224500D02*X150613Y225300D01*
X152000Y241500D02*Y239900D01*
Y241500D02*X153387Y242300D01*
X152000Y241500D02*X150613Y242300D01*
X135000Y241500D02*Y239900D01*
Y241500D02*X136387Y242300D01*
X135000Y241500D02*X133613Y242300D01*
X99000Y228500D02*Y226900D01*
Y228500D02*X100387Y229300D01*
X99000Y228500D02*X97613Y229300D01*
X103500Y233000D02*Y231400D01*
Y233000D02*X104887Y233800D01*
X103500Y233000D02*X102113Y233800D01*
X99000Y237500D02*Y235900D01*
Y237500D02*X100387Y238300D01*
X99000Y237500D02*X97613Y238300D01*
X94500Y233000D02*Y231400D01*
Y233000D02*X95887Y233800D01*
X94500Y233000D02*X93113Y233800D01*
X99000Y233000D02*Y231400D01*
Y233000D02*X100387Y233800D01*
X99000Y233000D02*X97613Y233800D01*
X94500Y228500D02*Y226900D01*
Y228500D02*X95887Y229300D01*
X94500Y228500D02*X93113Y229300D01*
X103500Y228500D02*Y226900D01*
Y228500D02*X104887Y229300D01*
X103500Y228500D02*X102113Y229300D01*
X103500Y237500D02*Y235900D01*
Y237500D02*X104887Y238300D01*
X103500Y237500D02*X102113Y238300D01*
X94500Y237500D02*Y235900D01*
Y237500D02*X95887Y238300D01*
X94500Y237500D02*X93113Y238300D01*
X116174Y297000D02*Y295400D01*
Y297000D02*X117561Y297800D01*
X116174Y297000D02*X114787Y297800D01*
X125600Y294000D02*Y292400D01*
Y294000D02*X126987Y294800D01*
X125600Y294000D02*X124213Y294800D01*
X125600Y298600D02*Y297000D01*
Y298600D02*X126987Y299400D01*
X125600Y298600D02*X124213Y299400D01*
X135200Y320600D02*Y319000D01*
Y320600D02*X136587Y321400D01*
X135200Y320600D02*X133813Y321400D01*
X167400Y303700D02*Y302100D01*
Y303700D02*X168787Y304500D01*
X167400Y303700D02*X166013Y304500D01*
X167600Y288700D02*Y287100D01*
Y288700D02*X168987Y289500D01*
X167600Y288700D02*X166213Y289500D01*
X135500Y271700D02*Y270100D01*
Y271700D02*X136887Y272500D01*
X135500Y271700D02*X134113Y272500D01*
X124900Y273100D02*Y271500D01*
Y273100D02*X126287Y273900D01*
X124900Y273100D02*X123513Y273900D01*
X125100Y320000D02*Y318400D01*
Y320000D02*X126487Y320800D01*
X125100Y320000D02*X123713Y320800D01*
X143900Y277900D02*Y276300D01*
Y277900D02*X145287Y278700D01*
X143900Y277900D02*X142513Y278700D01*
X140800Y278000D02*Y276400D01*
Y278000D02*X142187Y278800D01*
X140800Y278000D02*X139413Y278800D01*
X134900Y277900D02*Y276300D01*
Y277900D02*X136287Y278700D01*
X134900Y277900D02*X133513Y278700D01*
X120400Y282900D02*Y281300D01*
Y282900D02*X121787Y283700D01*
X120400Y282900D02*X119013Y283700D01*
X152000Y293000D02*Y291400D01*
Y293000D02*X153387Y293800D01*
X152000Y293000D02*X150613Y293800D01*
X152000Y299000D02*Y297400D01*
Y299000D02*X153387Y299800D01*
X152000Y299000D02*X150613Y299800D01*
X146500Y299000D02*Y297400D01*
Y299000D02*X147887Y299800D01*
X146500Y299000D02*X145113Y299800D01*
X146500Y293000D02*Y291400D01*
Y293000D02*X147887Y293800D01*
X146500Y293000D02*X145113Y293800D01*
X146500Y287500D02*Y285900D01*
Y287500D02*X147887Y288300D01*
X146500Y287500D02*X145113Y288300D01*
X140500Y287500D02*Y285900D01*
Y287500D02*X141887Y288300D01*
X140500Y287500D02*X139113Y288300D01*
X140500Y293000D02*Y291400D01*
Y293000D02*X141887Y293800D01*
X140500Y293000D02*X139113Y293800D01*
X135000Y293000D02*Y291400D01*
Y293000D02*X136387Y293800D01*
X135000Y293000D02*X133613Y293800D01*
X135000Y299000D02*Y297400D01*
Y299000D02*X136387Y299800D01*
X135000Y299000D02*X133613Y299800D01*
X140500Y299000D02*Y297400D01*
Y299000D02*X141887Y299800D01*
X140500Y299000D02*X139113Y299800D01*
X146500Y304500D02*Y302900D01*
Y304500D02*X147887Y305300D01*
X146500Y304500D02*X145113Y305300D01*
X140500Y304500D02*Y302900D01*
Y304500D02*X141887Y305300D01*
X140500Y304500D02*X139113Y305300D01*
X135000Y287500D02*Y285900D01*
Y287500D02*X136387Y288300D01*
X135000Y287500D02*X133613Y288300D01*
X152000Y287500D02*Y285900D01*
Y287500D02*X153387Y288300D01*
X152000Y287500D02*X150613Y288300D01*
X152000Y304500D02*Y302900D01*
Y304500D02*X153387Y305300D01*
X152000Y304500D02*X150613Y305300D01*
X135000Y304500D02*Y302900D01*
Y304500D02*X136387Y305300D01*
X135000Y304500D02*X133613Y305300D01*
X91200Y268600D02*Y267000D01*
Y268600D02*X92587Y269400D01*
X91200Y268600D02*X89813Y269400D01*
X87400Y272200D02*Y270600D01*
Y272200D02*X88787Y273000D01*
X87400Y272200D02*X86013Y273000D01*
X104200Y268700D02*Y267100D01*
Y268700D02*X105587Y269500D01*
X104200Y268700D02*X102813Y269500D01*
X105700Y273000D02*Y271400D01*
Y273000D02*X107087Y273800D01*
X105700Y273000D02*X104313Y273800D01*
X74400Y278526D02*Y276926D01*
Y278526D02*X75787Y279326D01*
X74400Y278526D02*X73013Y279326D01*
X80800Y285100D02*Y283500D01*
Y285100D02*X82187Y285900D01*
X80800Y285100D02*X79413Y285900D01*
X84600Y279800D02*Y278200D01*
Y279800D02*X85987Y280600D01*
X84600Y279800D02*X83213Y280600D01*
X88100Y278400D02*Y276800D01*
Y278400D02*X89487Y279200D01*
X88100Y278400D02*X86713Y279200D01*
X104200Y281800D02*Y280200D01*
Y281800D02*X105587Y282600D01*
X104200Y281800D02*X102813Y282600D01*
X99600Y281900D02*Y280300D01*
Y281900D02*X100987Y282700D01*
X99600Y281900D02*X98213Y282700D01*
X96500Y281900D02*Y280300D01*
Y281900D02*X97887Y282700D01*
X96500Y281900D02*X95113Y282700D01*
X105600Y314800D02*Y313200D01*
Y314800D02*X106987Y315600D01*
X105600Y314800D02*X104213Y315600D01*
X115600Y280900D02*Y279300D01*
Y280900D02*X116987Y281700D01*
X115600Y280900D02*X114213Y281700D01*
X81500Y312500D02*Y310900D01*
Y312500D02*X82887Y313300D01*
X81500Y312500D02*X80113Y313300D01*
X56400Y287100D02*Y285500D01*
Y287100D02*X57787Y287900D01*
X56400Y287100D02*X55013Y287900D01*
X111600Y269600D02*Y268000D01*
Y269600D02*X112987Y270400D01*
X111600Y269600D02*X110213Y270400D01*
X107200Y269800D02*Y268200D01*
Y269800D02*X108587Y270600D01*
X107200Y269800D02*X105813Y270600D01*
X84500Y306800D02*Y305200D01*
Y306800D02*X85887Y307600D01*
X84500Y306800D02*X83113Y307600D01*
X84500Y303500D02*Y301900D01*
Y303500D02*X85887Y304300D01*
X84500Y303500D02*X83113Y304300D01*
X84500Y299900D02*Y298300D01*
Y299900D02*X85887Y300700D01*
X84500Y299900D02*X83113Y300700D01*
X99000Y291500D02*Y289900D01*
Y291500D02*X100387Y292300D01*
X99000Y291500D02*X97613Y292300D01*
X103500Y296000D02*Y294400D01*
Y296000D02*X104887Y296800D01*
X103500Y296000D02*X102113Y296800D01*
X99000Y300500D02*Y298900D01*
Y300500D02*X100387Y301300D01*
X99000Y300500D02*X97613Y301300D01*
X94500Y296000D02*Y294400D01*
Y296000D02*X95887Y296800D01*
X94500Y296000D02*X93113Y296800D01*
X99000Y296000D02*Y294400D01*
Y296000D02*X100387Y296800D01*
X99000Y296000D02*X97613Y296800D01*
X94500Y291500D02*Y289900D01*
Y291500D02*X95887Y292300D01*
X94500Y291500D02*X93113Y292300D01*
X103500Y291500D02*Y289900D01*
Y291500D02*X104887Y292300D01*
X103500Y291500D02*X102113Y292300D01*
X103500Y300500D02*Y298900D01*
Y300500D02*X104887Y301300D01*
X103500Y300500D02*X102113Y301300D01*
X94500Y300500D02*Y298900D01*
Y300500D02*X95887Y301300D01*
X94500Y300500D02*X93113Y301300D01*
X35500Y292500D02*Y290900D01*
Y292500D02*X36887Y293300D01*
X35500Y292500D02*X34113Y293300D01*
X41500Y292500D02*Y290900D01*
Y292500D02*X42887Y293300D01*
X41500Y292500D02*X40113Y293300D01*
X38500Y290300D02*Y288700D01*
Y290300D02*X39887Y291100D01*
X38500Y290300D02*X37113Y291100D01*
X58900Y312000D02*Y310400D01*
Y312000D02*X60287Y312800D01*
X58900Y312000D02*X57513Y312800D01*
X61300Y318900D02*Y317300D01*
Y318900D02*X62687Y319700D01*
X61300Y318900D02*X59913Y319700D01*
X64700Y318900D02*Y317300D01*
Y318900D02*X66087Y319700D01*
X64700Y318900D02*X63313Y319700D01*
X113600Y290000D02*Y288400D01*
Y290000D02*X114987Y290800D01*
X113600Y290000D02*X112213Y290800D01*
X90900Y310600D02*Y309000D01*
Y310600D02*X92287Y311400D01*
X90900Y310600D02*X89513Y311400D01*
X99400Y310600D02*Y309000D01*
Y310600D02*X100787Y311400D01*
X99400Y310600D02*X98013Y311400D01*
X84500Y288000D02*Y286400D01*
Y288000D02*X85887Y288800D01*
X84500Y288000D02*X83113Y288800D01*
X84500Y291000D02*Y289400D01*
Y291000D02*X85887Y291800D01*
X84500Y291000D02*X83113Y291800D01*
X49000Y302000D02*Y300400D01*
Y302000D02*X50387Y302800D01*
X49000Y302000D02*X47613Y302800D01*
X48500Y298700D02*Y297100D01*
Y298700D02*X49887Y299500D01*
X48500Y298700D02*X47113Y299500D01*
X64000Y298000D02*Y296400D01*
Y298000D02*X65387Y298800D01*
X64000Y298000D02*X62613Y298800D01*
X185500Y46700D02*Y45100D01*
Y46700D02*X186887Y47500D01*
X185500Y46700D02*X184113Y47500D01*
X177300Y43600D02*Y42000D01*
Y43600D02*X178687Y44400D01*
X177300Y43600D02*X175913Y44400D01*
X175800Y47500D02*Y45900D01*
Y47500D02*X177187Y48300D01*
X175800Y47500D02*X174413Y48300D01*
X157000Y82600D02*Y81000D01*
Y82600D02*X158387Y83400D01*
X157000Y82600D02*X155613Y83400D01*
X152900Y21700D02*Y20100D01*
Y21700D02*X154287Y22500D01*
X152900Y21700D02*X151513Y22500D01*
X171100Y33100D02*Y31500D01*
Y33100D02*X172487Y33900D01*
X171100Y33100D02*X169713Y33900D01*
X51500Y38400D02*Y36800D01*
Y38400D02*X52887Y39200D01*
X51500Y38400D02*X50113Y39200D01*
X41200Y38300D02*Y36700D01*
Y38300D02*X42587Y39100D01*
X41200Y38300D02*X39813Y39100D01*
X156000Y46500D02*Y44900D01*
Y46500D02*X157387Y47300D01*
X156000Y46500D02*X154613Y47300D01*
X156000Y55000D02*Y53400D01*
Y55000D02*X157387Y55800D01*
X156000Y55000D02*X154613Y55800D01*
X156000Y38500D02*Y36900D01*
Y38500D02*X157387Y39300D01*
X156000Y38500D02*X154613Y39300D01*
X156000Y62500D02*Y60900D01*
Y62500D02*X157387Y63300D01*
X156000Y62500D02*X154613Y63300D01*
X151200Y76900D02*Y75300D01*
Y76900D02*X152587Y77700D01*
X151200Y76900D02*X149813Y77700D01*
X151400Y73600D02*Y72000D01*
Y73600D02*X152787Y74400D01*
X151400Y73600D02*X150013Y74400D01*
X135000Y115500D02*Y113900D01*
Y115500D02*X136387Y116300D01*
X135000Y115500D02*X133613Y116300D01*
X152000Y115500D02*Y113900D01*
Y115500D02*X153387Y116300D01*
X152000Y115500D02*X150613Y116300D01*
X152000Y98500D02*Y96900D01*
Y98500D02*X153387Y99300D01*
X152000Y98500D02*X150613Y99300D01*
X135000Y98500D02*Y96900D01*
Y98500D02*X136387Y99300D01*
X135000Y98500D02*X133613Y99300D01*
X140500Y115500D02*Y113900D01*
Y115500D02*X141887Y116300D01*
X140500Y115500D02*X139113Y116300D01*
X146500Y115500D02*Y113900D01*
Y115500D02*X147887Y116300D01*
X146500Y115500D02*X145113Y116300D01*
X140500Y110000D02*Y108400D01*
Y110000D02*X141887Y110800D01*
X140500Y110000D02*X139113Y110800D01*
X135000Y110000D02*Y108400D01*
Y110000D02*X136387Y110800D01*
X135000Y110000D02*X133613Y110800D01*
X135000Y104000D02*Y102400D01*
Y104000D02*X136387Y104800D01*
X135000Y104000D02*X133613Y104800D01*
X140500Y104000D02*Y102400D01*
Y104000D02*X141887Y104800D01*
X140500Y104000D02*X139113Y104800D01*
X140500Y98500D02*Y96900D01*
Y98500D02*X141887Y99300D01*
X140500Y98500D02*X139113Y99300D01*
X146500Y98500D02*Y96900D01*
Y98500D02*X147887Y99300D01*
X146500Y98500D02*X145113Y99300D01*
X146500Y104000D02*Y102400D01*
Y104000D02*X147887Y104800D01*
X146500Y104000D02*X145113Y104800D01*
X146500Y110000D02*Y108400D01*
Y110000D02*X147887Y110800D01*
X146500Y110000D02*X145113Y110800D01*
X152000Y110000D02*Y108400D01*
Y110000D02*X153387Y110800D01*
X152000Y110000D02*X150613Y110800D01*
X152000Y104000D02*Y102400D01*
Y104000D02*X153387Y104800D01*
X152000Y104000D02*X150613Y104800D01*
X120300Y93800D02*Y92200D01*
Y93800D02*X121687Y94600D01*
X120300Y93800D02*X118913Y94600D01*
X134800Y88800D02*Y87200D01*
Y88800D02*X136187Y89600D01*
X134800Y88800D02*X133413Y89600D01*
X140800Y88900D02*Y87300D01*
Y88900D02*X142187Y89700D01*
X140800Y88900D02*X139413Y89700D01*
X144000Y88800D02*Y87200D01*
Y88800D02*X145387Y89600D01*
X144000Y88800D02*X142613Y89600D01*
X120800Y121700D02*Y120100D01*
Y121700D02*X122187Y122500D01*
X120800Y121700D02*X119413Y122500D01*
X125000Y130900D02*Y129300D01*
Y130900D02*X126387Y131700D01*
X125000Y130900D02*X123613Y131700D01*
X124800Y84000D02*Y82400D01*
Y84000D02*X126187Y84800D01*
X124800Y84000D02*X123413Y84800D01*
X135400Y82600D02*Y81000D01*
Y82600D02*X136787Y83400D01*
X135400Y82600D02*X134013Y83400D01*
X167500Y99600D02*Y98000D01*
Y99600D02*X168887Y100400D01*
X167500Y99600D02*X166113Y100400D01*
X167300Y114600D02*Y113000D01*
Y114600D02*X168687Y115400D01*
X167300Y114600D02*X165913Y115400D01*
X135100Y131500D02*Y129900D01*
Y131500D02*X136487Y132300D01*
X135100Y131500D02*X133713Y132300D01*
X125500Y109500D02*Y107900D01*
Y109500D02*X126887Y110300D01*
X125500Y109500D02*X124113Y110300D01*
X125500Y104900D02*Y103300D01*
Y104900D02*X126887Y105700D01*
X125500Y104900D02*X124113Y105700D01*
X116074Y107900D02*Y106300D01*
Y107900D02*X117461Y108700D01*
X116074Y107900D02*X114687Y108700D01*
X105500Y109500D02*Y107900D01*
Y109500D02*X106887Y110300D01*
X105500Y109500D02*X104113Y110300D01*
X105300Y98000D02*Y96400D01*
Y98000D02*X106687Y98800D01*
X105300Y98000D02*X103913Y98800D01*
X109700Y97100D02*Y95500D01*
Y97100D02*X111087Y97900D01*
X109700Y97100D02*X108313Y97900D01*
X109800Y108300D02*Y106700D01*
Y108300D02*X111187Y109100D01*
X109800Y108300D02*X108413Y109100D01*
X137400Y79400D02*Y77800D01*
Y79400D02*X138787Y80200D01*
X137400Y79400D02*X136013Y80200D01*
X146500Y76800D02*Y75200D01*
Y76800D02*X147887Y77600D01*
X146500Y76800D02*X145113Y77600D01*
X134000Y76800D02*Y75200D01*
Y76800D02*X135387Y77600D01*
X134000Y76800D02*X132613Y77600D01*
X141000Y76000D02*Y74400D01*
Y76000D02*X142387Y76800D01*
X141000Y76000D02*X139613Y76800D01*
X143200Y27200D02*Y25600D01*
Y27200D02*X144587Y28000D01*
X143200Y27200D02*X141813Y28000D01*
X125700Y21800D02*Y20200D01*
Y21800D02*X127087Y22600D01*
X125700Y21800D02*X124313Y22600D01*
X136300Y21100D02*Y19500D01*
Y21100D02*X137687Y21900D01*
X136300Y21100D02*X134913Y21900D01*
X132500Y62500D02*Y60900D01*
Y62500D02*X133887Y63300D01*
X132500Y62500D02*X131113Y63300D01*
X132500Y38500D02*Y36900D01*
Y38500D02*X133887Y39300D01*
X132500Y38500D02*X131113Y39300D01*
X140500Y62500D02*Y60900D01*
Y62500D02*X141887Y63300D01*
X140500Y62500D02*X139113Y63300D01*
X148500Y62500D02*Y60900D01*
Y62500D02*X149887Y63300D01*
X148500Y62500D02*X147113Y63300D01*
X132500Y55000D02*Y53400D01*
Y55000D02*X133887Y55800D01*
X132500Y55000D02*X131113Y55800D01*
X132500Y46500D02*Y44900D01*
Y46500D02*X133887Y47300D01*
X132500Y46500D02*X131113Y47300D01*
X140500Y55000D02*Y53400D01*
Y55000D02*X141887Y55800D01*
X140500Y55000D02*X139113Y55800D01*
X148500Y55000D02*Y53400D01*
Y55000D02*X149887Y55800D01*
X148500Y55000D02*X147113Y55800D01*
X148500Y46500D02*Y44900D01*
Y46500D02*X149887Y47300D01*
X148500Y46500D02*X147113Y47300D01*
X140500Y46500D02*Y44900D01*
Y46500D02*X141887Y47300D01*
X140500Y46500D02*X139113Y47300D01*
X140500Y38500D02*Y36900D01*
Y38500D02*X141887Y39300D01*
X140500Y38500D02*X139113Y39300D01*
X148500Y38500D02*Y36900D01*
Y38500D02*X149887Y39300D01*
X148500Y38500D02*X147113Y39300D01*
X146600Y73400D02*Y71800D01*
Y73400D02*X147987Y74200D01*
X146600Y73400D02*X145213Y74200D01*
X134100Y73600D02*Y72000D01*
Y73600D02*X135487Y74400D01*
X134100Y73600D02*X132713Y74400D01*
X113900Y25900D02*Y24300D01*
Y25900D02*X115287Y26700D01*
X113900Y25900D02*X112513Y26700D01*
X97800Y25700D02*Y24100D01*
Y25700D02*X99187Y26500D01*
X97800Y25700D02*X96413Y26500D01*
X122600Y25800D02*Y24200D01*
Y25800D02*X123987Y26600D01*
X122600Y25800D02*X121213Y26600D01*
X119800Y31800D02*Y30200D01*
Y31800D02*X121187Y32600D01*
X119800Y31800D02*X118413Y32600D01*
X119800Y43100D02*Y41500D01*
Y43100D02*X121187Y43900D01*
X119800Y43100D02*X118413Y43900D01*
X115200Y44100D02*Y42500D01*
Y44100D02*X116587Y44900D01*
X115200Y44100D02*X113813Y44900D01*
X121700Y53700D02*Y52100D01*
Y53700D02*X123087Y54500D01*
X121700Y53700D02*X120313Y54500D01*
X217300Y207900D02*Y206300D01*
Y207900D02*X218687Y208700D01*
X217300Y207900D02*X215913Y208700D01*
X217300Y193400D02*Y191800D01*
Y193400D02*X218687Y194200D01*
X217300Y193400D02*X215913Y194200D01*
X222100Y178100D02*Y176500D01*
Y178100D02*X223487Y178900D01*
X222100Y178100D02*X220713Y178900D01*
X223500Y199200D02*Y197600D01*
Y199200D02*X224887Y200000D01*
X223500Y199200D02*X222113Y200000D01*
X226800Y199200D02*Y197600D01*
Y199200D02*X228187Y200000D01*
X226800Y199200D02*X225413Y200000D01*
X223600Y187000D02*Y185400D01*
Y187000D02*X224987Y187800D01*
X223600Y187000D02*X222213Y187800D01*
X226800Y187000D02*Y185400D01*
Y187000D02*X228187Y187800D01*
X226800Y187000D02*X225413Y187800D01*
X228800Y172200D02*Y170600D01*
Y172200D02*X230187Y173000D01*
X228800Y172200D02*X227413Y173000D01*
X266800Y173200D02*Y171600D01*
Y173200D02*X268187Y174000D01*
X266800Y173200D02*X265413Y174000D01*
X255100Y172200D02*Y170600D01*
Y172200D02*X256487Y173000D01*
X255100Y172200D02*X253713Y173000D01*
X258000Y172200D02*Y170600D01*
Y172200D02*X259387Y173000D01*
X258000Y172200D02*X256613Y173000D01*
X273100Y202600D02*Y201000D01*
Y202600D02*X274487Y203400D01*
X273100Y202600D02*X271713Y203400D01*
X269500Y202600D02*Y201000D01*
Y202600D02*X270887Y203400D01*
X269500Y202600D02*X268113Y203400D01*
X267100Y191900D02*Y190300D01*
Y191900D02*X268487Y192700D01*
X267100Y191900D02*X265713Y192700D01*
X278900Y185200D02*Y183600D01*
Y185200D02*X280287Y186000D01*
X278900Y185200D02*X277513Y186000D01*
X278600Y212400D02*Y210800D01*
Y212400D02*X279987Y213200D01*
X278600Y212400D02*X277213Y213200D01*
X274300Y195900D02*Y194300D01*
Y195900D02*X275687Y196700D01*
X274300Y195900D02*X272913Y196700D01*
X241600Y180100D02*Y178500D01*
Y180100D02*X242987Y180900D01*
X241600Y180100D02*X240213Y180900D01*
X245000Y180100D02*Y178500D01*
Y180100D02*X246387Y180900D01*
X245000Y180100D02*X243613Y180900D01*
X267000Y233900D02*Y232300D01*
Y233900D02*X268387Y234700D01*
X267000Y233900D02*X265613Y234700D01*
X263400Y233900D02*Y232300D01*
Y233900D02*X264787Y234700D01*
X263400Y233900D02*X262013Y234700D01*
X237200Y233900D02*Y232300D01*
Y233900D02*X238587Y234700D01*
X237200Y233900D02*X235813Y234700D01*
X222100Y233900D02*Y232300D01*
Y233900D02*X223487Y234700D01*
X222100Y233900D02*X220713Y234700D01*
X218700Y233800D02*Y232200D01*
Y233800D02*X220087Y234600D01*
X218700Y233800D02*X217313Y234600D01*
X249600Y227900D02*Y226300D01*
Y227900D02*X250987Y228700D01*
X249600Y227900D02*X248213Y228700D01*
X278900Y220300D02*Y218700D01*
Y220300D02*X280287Y221100D01*
X278900Y220300D02*X277513Y221100D01*
X279000Y231000D02*Y229400D01*
Y231000D02*X280387Y231800D01*
X279000Y231000D02*X277613Y231800D01*
X227600Y211200D02*Y209600D01*
Y211200D02*X228987Y212000D01*
X227600Y211200D02*X226213Y212000D01*
X246300Y187700D02*Y186100D01*
Y187700D02*X247687Y188500D01*
X246300Y187700D02*X244913Y188500D01*
X251300Y187700D02*Y186100D01*
Y187700D02*X252687Y188500D01*
X251300Y187700D02*X249913Y188500D01*
X268600Y228900D02*Y227300D01*
Y228900D02*X269987Y229700D01*
X268600Y228900D02*X267213Y229700D01*
X273800Y229100D02*Y227500D01*
Y229100D02*X275187Y229900D01*
X273800Y229100D02*X272413Y229900D01*
X271300Y226200D02*Y224600D01*
Y226200D02*X272687Y227000D01*
X271300Y226200D02*X269913Y227000D01*
X268300Y223300D02*Y221700D01*
Y223300D02*X269687Y224100D01*
X268300Y223300D02*X266913Y224100D01*
X271300Y220300D02*Y218700D01*
Y220300D02*X272687Y221100D01*
X271300Y220300D02*X269913Y221100D01*
X273900Y223100D02*Y221500D01*
Y223100D02*X275287Y223900D01*
X273900Y223100D02*X272513Y223900D01*
X192600Y167400D02*Y165800D01*
Y167400D02*X193987Y168200D01*
X192600Y167400D02*X191213Y168200D01*
X269000Y166400D02*Y164800D01*
Y166400D02*X270387Y167200D01*
X269000Y166400D02*X267613Y167200D01*
X331600Y162800D02*Y161200D01*
Y162800D02*X332987Y163600D01*
X331600Y162800D02*X330213Y163600D01*
X258000Y146900D02*Y145300D01*
Y146900D02*X259387Y147700D01*
X258000Y146900D02*X256613Y147700D01*
X272100Y152500D02*Y150900D01*
Y152500D02*X273487Y153300D01*
X272100Y152500D02*X270713Y153300D01*
X284400Y152700D02*Y151100D01*
Y152700D02*X285787Y153500D01*
X284400Y152700D02*X283013Y153500D01*
X295700Y165900D02*Y164300D01*
Y165900D02*X297087Y166700D01*
X295700Y165900D02*X294313Y166700D01*
X184100Y215300D02*Y213700D01*
Y215300D02*X185487Y216100D01*
X184100Y215300D02*X182713Y216100D01*
X70100Y152600D02*Y151000D01*
Y152600D02*X71487Y153400D01*
X70100Y152600D02*X68713Y153400D01*
X74102Y133908D02*Y132308D01*
Y133908D02*X75488Y134708D01*
X74102Y133908D02*X72715Y134708D01*
X184100Y173500D02*Y171900D01*
Y173500D02*X185487Y174300D01*
X184100Y173500D02*X182713Y174300D01*
X183800Y212100D02*Y210500D01*
Y212100D02*X185187Y212900D01*
X183800Y212100D02*X182413Y212900D01*
X209000Y255100D02*Y253500D01*
Y255100D02*X210387Y255900D01*
X209000Y255100D02*X207613Y255900D01*
X275000Y262900D02*Y261300D01*
Y262900D02*X276387Y263700D01*
X275000Y262900D02*X273613Y263700D01*
X143500Y148700D02*Y147100D01*
Y148700D02*X144887Y149500D01*
X143500Y148700D02*X142113Y149500D01*
X140900Y125300D02*Y123700D01*
Y125300D02*X142287Y126100D01*
X140900Y125300D02*X139513Y126100D01*
X161800Y154700D02*Y153100D01*
Y154700D02*X163187Y155500D01*
X161800Y154700D02*X160413Y155500D01*
X154500Y149700D02*Y148100D01*
Y149700D02*X155887Y150500D01*
X154500Y149700D02*X153113Y150500D01*
X158700Y147300D02*Y145700D01*
Y147300D02*X160087Y148100D01*
X158700Y147300D02*X157313Y148100D01*
X200000Y178000D02*Y176400D01*
Y178000D02*X201387Y178800D01*
X200000Y178000D02*X198613Y178800D01*
X197400Y175700D02*Y174100D01*
Y175700D02*X198787Y176500D01*
X197400Y175700D02*X196013Y176500D01*
X193900Y174200D02*Y172600D01*
Y174200D02*X195287Y175000D01*
X193900Y174200D02*X192513Y175000D01*
X138900Y208600D02*Y207000D01*
Y208600D02*X140287Y209400D01*
X138900Y208600D02*X137513Y209400D01*
X161900Y218300D02*Y216700D01*
Y218300D02*X163287Y219100D01*
X161900Y218300D02*X160513Y219100D01*
X155300Y210300D02*Y208700D01*
Y210300D02*X156687Y211100D01*
X155300Y210300D02*X153913Y211100D01*
X159400Y210400D02*Y208800D01*
Y210400D02*X160787Y211200D01*
X159400Y210400D02*X158013Y211200D01*
X196900Y213500D02*Y211900D01*
Y213500D02*X198287Y214300D01*
X196900Y213500D02*X195513Y214300D01*
X199400Y210900D02*Y209300D01*
Y210900D02*X200787Y211700D01*
X199400Y210900D02*X198013Y211700D01*
X163500Y209000D02*Y207400D01*
Y209000D02*X164887Y209800D01*
X163500Y209000D02*X162113Y209800D01*
X70000Y215500D02*Y213900D01*
Y215500D02*X71387Y216300D01*
X70000Y215500D02*X68613Y216300D01*
X76000Y260500D02*Y258900D01*
Y260500D02*X77387Y261300D01*
X76000Y260500D02*X74613Y261300D01*
X140600Y251700D02*Y250100D01*
Y251700D02*X141987Y252500D01*
X140600Y251700D02*X139213Y252500D01*
X137800Y254000D02*Y252400D01*
Y254000D02*X139187Y254800D01*
X137800Y254000D02*X136413Y254800D01*
X134300Y253500D02*Y251900D01*
Y253500D02*X135687Y254300D01*
X134300Y253500D02*X132913Y254300D01*
X208600Y247000D02*Y245400D01*
Y247000D02*X209987Y247800D01*
X208600Y247000D02*X207213Y247800D01*
X206800Y244100D02*Y242500D01*
Y244100D02*X208187Y244900D01*
X206800Y244100D02*X205413Y244900D01*
X228500Y233700D02*Y232100D01*
Y233700D02*X229887Y234500D01*
X228500Y233700D02*X227113Y234500D01*
X238600Y225200D02*Y223600D01*
Y225200D02*X239987Y226000D01*
X238600Y225200D02*X237213Y226000D01*
X241700Y225100D02*Y223500D01*
Y225100D02*X243087Y225900D01*
X241700Y225100D02*X240313Y225900D01*
X263000Y249600D02*Y248000D01*
Y249600D02*X264387Y250400D01*
X263000Y249600D02*X261613Y250400D01*
X263100Y253000D02*Y251400D01*
Y253000D02*X264487Y253800D01*
X263100Y253000D02*X261713Y253800D01*
X263800Y257600D02*Y256000D01*
Y257600D02*X265187Y258400D01*
X263800Y257600D02*X262413Y258400D01*
X261200Y260300D02*Y258700D01*
Y260300D02*X262587Y261100D01*
X261200Y260300D02*X259813Y261100D01*
X70000Y278700D02*Y277100D01*
Y278700D02*X71387Y279500D01*
X70000Y278700D02*X68613Y279500D01*
X92700Y322100D02*Y320500D01*
Y322100D02*X94087Y322900D01*
X92700Y322100D02*X91313Y322900D01*
X95100Y319400D02*Y317800D01*
Y319400D02*X96487Y320200D01*
X95100Y319400D02*X93713Y320200D01*
X135400Y317300D02*Y315700D01*
Y317300D02*X136787Y318100D01*
X135400Y317300D02*X134013Y318100D01*
X136700Y314000D02*Y312400D01*
Y314000D02*X138087Y314800D01*
X136700Y314000D02*X135313Y314800D01*
X139600Y322000D02*Y320400D01*
Y322000D02*X140987Y322800D01*
X139600Y322000D02*X138213Y322800D01*
X295700Y174700D02*Y173100D01*
Y174700D02*X297087Y175500D01*
X295700Y174700D02*X294313Y175500D01*
X175600Y50800D02*Y49200D01*
Y50800D02*X176987Y51600D01*
X175600Y50800D02*X174213Y51600D01*
X174200Y60000D02*Y58400D01*
Y60000D02*X175587Y60800D01*
X174200Y60000D02*X172813Y60800D01*
X179100Y69900D02*Y68300D01*
Y69900D02*X180487Y70700D01*
X179100Y69900D02*X177713Y70700D01*
X10000Y183000D02*Y181400D01*
Y183000D02*X11387Y183800D01*
X10000Y183000D02*X8613Y183800D01*
X16500Y183000D02*Y181400D01*
Y183000D02*X17887Y183800D01*
X16500Y183000D02*X15113Y183800D01*
X3500Y183000D02*Y181400D01*
Y183000D02*X4887Y183800D01*
X3500Y183000D02*X2113Y183800D01*
X10000Y190500D02*Y188900D01*
Y190500D02*X11387Y191300D01*
X10000Y190500D02*X8613Y191300D01*
X16500Y190500D02*Y188900D01*
Y190500D02*X17887Y191300D01*
X16500Y190500D02*X15113Y191300D01*
X3500Y190500D02*Y188900D01*
Y190500D02*X4887Y191300D01*
X3500Y190500D02*X2113Y191300D01*
X9600Y149400D02*Y147800D01*
Y149400D02*X10987Y150200D01*
X9600Y149400D02*X8213Y150200D01*
X16100Y149400D02*Y147800D01*
Y149400D02*X17487Y150200D01*
X16100Y149400D02*X14713Y150200D01*
X3100Y149400D02*Y147800D01*
Y149400D02*X4487Y150200D01*
X3100Y149400D02*X1713Y150200D01*
X9600Y156900D02*Y155300D01*
Y156900D02*X10987Y157700D01*
X9600Y156900D02*X8213Y157700D01*
X16100Y156900D02*Y155300D01*
Y156900D02*X17487Y157700D01*
X16100Y156900D02*X14713Y157700D01*
X3100Y156900D02*Y155300D01*
Y156900D02*X4487Y157700D01*
X3100Y156900D02*X1713Y157700D01*
X10000Y246000D02*Y244400D01*
Y246000D02*X11387Y246800D01*
X10000Y246000D02*X8613Y246800D01*
X16500Y246000D02*Y244400D01*
Y246000D02*X17887Y246800D01*
X16500Y246000D02*X15113Y246800D01*
X3500Y246000D02*Y244400D01*
Y246000D02*X4887Y246800D01*
X3500Y246000D02*X2113Y246800D01*
X10000Y253500D02*Y251900D01*
Y253500D02*X11387Y254300D01*
X10000Y253500D02*X8613Y254300D01*
X16500Y253500D02*Y251900D01*
Y253500D02*X17887Y254300D01*
X16500Y253500D02*X15113Y254300D01*
X3500Y253500D02*Y251900D01*
Y253500D02*X4887Y254300D01*
X3500Y253500D02*X2113Y254300D01*
X9600Y212400D02*Y210800D01*
Y212400D02*X10987Y213200D01*
X9600Y212400D02*X8213Y213200D01*
X16100Y212400D02*Y210800D01*
Y212400D02*X17487Y213200D01*
X16100Y212400D02*X14713Y213200D01*
X3100Y212400D02*Y210800D01*
Y212400D02*X4487Y213200D01*
X3100Y212400D02*X1713Y213200D01*
X9600Y219900D02*Y218300D01*
Y219900D02*X10987Y220700D01*
X9600Y219900D02*X8213Y220700D01*
X16100Y219900D02*Y218300D01*
Y219900D02*X17487Y220700D01*
X16100Y219900D02*X14713Y220700D01*
X3100Y219900D02*Y218300D01*
Y219900D02*X4487Y220700D01*
X3100Y219900D02*X1713Y220700D01*
X10400Y309100D02*Y307500D01*
Y309100D02*X11787Y309900D01*
X10400Y309100D02*X9013Y309900D01*
X16900Y309100D02*Y307500D01*
Y309100D02*X18287Y309900D01*
X16900Y309100D02*X15513Y309900D01*
X3900Y309100D02*Y307500D01*
Y309100D02*X5287Y309900D01*
X3900Y309100D02*X2513Y309900D01*
X10400Y316600D02*Y315000D01*
Y316600D02*X11787Y317400D01*
X10400Y316600D02*X9013Y317400D01*
X16900Y316600D02*Y315000D01*
Y316600D02*X18287Y317400D01*
X16900Y316600D02*X15513Y317400D01*
X3900Y316600D02*Y315000D01*
Y316600D02*X5287Y317400D01*
X3900Y316600D02*X2513Y317400D01*
X10000Y275500D02*Y273900D01*
Y275500D02*X11387Y276300D01*
X10000Y275500D02*X8613Y276300D01*
X16500Y275500D02*Y273900D01*
Y275500D02*X17887Y276300D01*
X16500Y275500D02*X15113Y276300D01*
X3500Y275500D02*Y273900D01*
Y275500D02*X4887Y276300D01*
X3500Y275500D02*X2113Y276300D01*
X10000Y283000D02*Y281400D01*
Y283000D02*X11387Y283800D01*
X10000Y283000D02*X8613Y283800D01*
X16500Y283000D02*Y281400D01*
Y283000D02*X17887Y283800D01*
X16500Y283000D02*X15113Y283800D01*
X3500Y283000D02*Y281400D01*
Y283000D02*X4887Y283800D01*
X3500Y283000D02*X2113Y283800D01*
X10000Y57000D02*Y55400D01*
Y57000D02*X11387Y57800D01*
X10000Y57000D02*X8613Y57800D01*
X16500Y57000D02*Y55400D01*
Y57000D02*X17887Y57800D01*
X16500Y57000D02*X15113Y57800D01*
X3500Y57000D02*Y55400D01*
Y57000D02*X4887Y57800D01*
X3500Y57000D02*X2113Y57800D01*
X10000Y64500D02*Y62900D01*
Y64500D02*X11387Y65300D01*
X10000Y64500D02*X8613Y65300D01*
X16500Y64500D02*Y62900D01*
Y64500D02*X17887Y65300D01*
X16500Y64500D02*X15113Y65300D01*
X3500Y64500D02*Y62900D01*
Y64500D02*X4887Y65300D01*
X3500Y64500D02*X2113Y65300D01*
X9600Y23400D02*Y21800D01*
Y23400D02*X10987Y24200D01*
X9600Y23400D02*X8213Y24200D01*
X16100Y23400D02*Y21800D01*
Y23400D02*X17487Y24200D01*
X16100Y23400D02*X14713Y24200D01*
X3100Y23400D02*Y21800D01*
Y23400D02*X4487Y24200D01*
X3100Y23400D02*X1713Y24200D01*
X9600Y30900D02*Y29300D01*
Y30900D02*X10987Y31700D01*
X9600Y30900D02*X8213Y31700D01*
X16100Y30900D02*Y29300D01*
Y30900D02*X17487Y31700D01*
X16100Y30900D02*X14713Y31700D01*
X3100Y30900D02*Y29300D01*
Y30900D02*X4487Y31700D01*
X3100Y30900D02*X1713Y31700D01*
X10000Y120000D02*Y118400D01*
Y120000D02*X11387Y120800D01*
X10000Y120000D02*X8613Y120800D01*
X16500Y120000D02*Y118400D01*
Y120000D02*X17887Y120800D01*
X16500Y120000D02*X15113Y120800D01*
X3500Y120000D02*Y118400D01*
Y120000D02*X4887Y120800D01*
X3500Y120000D02*X2113Y120800D01*
X10000Y127500D02*Y125900D01*
Y127500D02*X11387Y128300D01*
X10000Y127500D02*X8613Y128300D01*
X16500Y127500D02*Y125900D01*
Y127500D02*X17887Y128300D01*
X16500Y127500D02*X15113Y128300D01*
X3500Y127500D02*Y125900D01*
Y127500D02*X4887Y128300D01*
X3500Y127500D02*X2113Y128300D01*
X9600Y86400D02*Y84800D01*
Y86400D02*X10987Y87200D01*
X9600Y86400D02*X8213Y87200D01*
X16100Y86400D02*Y84800D01*
Y86400D02*X17487Y87200D01*
X16100Y86400D02*X14713Y87200D01*
X3100Y86400D02*Y84800D01*
Y86400D02*X4487Y87200D01*
X3100Y86400D02*X1713Y87200D01*
X9600Y93900D02*Y92300D01*
Y93900D02*X10987Y94700D01*
X9600Y93900D02*X8213Y94700D01*
X16100Y93900D02*Y92300D01*
Y93900D02*X17487Y94700D01*
X16100Y93900D02*X14713Y94700D01*
X3100Y93900D02*Y92300D01*
Y93900D02*X4487Y94700D01*
X3100Y93900D02*X1713Y94700D01*
X25000Y309000D02*Y307400D01*
Y309000D02*X26387Y309800D01*
X25000Y309000D02*X23613Y309800D01*
X354000Y281500D02*Y279900D01*
Y281500D02*X355387Y282300D01*
X354000Y281500D02*X352613Y282300D01*
X357000Y278500D02*Y276900D01*
Y278500D02*X358387Y279300D01*
X357000Y278500D02*X355613Y279300D01*
X360000Y282000D02*Y280400D01*
Y282000D02*X361387Y282800D01*
X360000Y282000D02*X358613Y282800D01*
X353500Y314500D02*Y312900D01*
Y314500D02*X354887Y315300D01*
X353500Y314500D02*X352113Y315300D01*
X357000Y317500D02*Y315900D01*
Y317500D02*X358387Y318300D01*
X357000Y317500D02*X355613Y318300D01*
X360500Y314500D02*Y312900D01*
Y314500D02*X361887Y315300D01*
X360500Y314500D02*X359113Y315300D01*
X64000Y331500D02*Y329900D01*
Y331500D02*X65387Y332300D01*
X64000Y331500D02*X62613Y332300D01*
X45500Y327500D02*Y325900D01*
Y327500D02*X46887Y328300D01*
X45500Y327500D02*X44113Y328300D01*
X53500Y331500D02*Y329900D01*
Y331500D02*X54887Y332300D01*
X53500Y331500D02*X52113Y332300D01*
X71500Y327500D02*Y325900D01*
Y327500D02*X72887Y328300D01*
X71500Y327500D02*X70113Y328300D01*
X99000Y331500D02*Y329900D01*
Y331500D02*X100387Y332300D01*
X99000Y331500D02*X97613Y332300D01*
X90000Y327500D02*Y325900D01*
Y327500D02*X91387Y328300D01*
X90000Y327500D02*X88613Y328300D01*
X116000Y327500D02*Y325900D01*
Y327500D02*X117387Y328300D01*
X116000Y327500D02*X114613Y328300D01*
X109000Y331500D02*Y329900D01*
Y331500D02*X110387Y332300D01*
X109000Y331500D02*X107613Y332300D01*
X112500Y305000D02*Y303400D01*
Y305000D02*X113887Y305800D01*
X112500Y305000D02*X111113Y305800D01*
X27500Y287500D02*Y285900D01*
Y287500D02*X28887Y288300D01*
X27500Y287500D02*X26113Y288300D01*
X38500Y315000D02*Y313400D01*
Y315000D02*X39887Y315800D01*
X38500Y315000D02*X37113Y315800D01*
X42500Y315000D02*Y313400D01*
Y315000D02*X43887Y315800D01*
X42500Y315000D02*X41113Y315800D01*
X52500Y287000D02*Y285400D01*
Y287000D02*X53887Y287800D01*
X52500Y287000D02*X51113Y287800D01*
X46500Y290000D02*Y288400D01*
Y290000D02*X47887Y290800D01*
X46500Y290000D02*X45113Y290800D01*
X25500Y183000D02*Y181400D01*
Y183000D02*X26887Y183800D01*
X25500Y183000D02*X24113Y183800D01*
X38500Y252000D02*Y250400D01*
Y252000D02*X39887Y252800D01*
X38500Y252000D02*X37113Y252800D01*
X46000Y227000D02*Y225400D01*
Y227000D02*X47387Y227800D01*
X46000Y227000D02*X44613Y227800D01*
X38500Y189000D02*Y187400D01*
Y189000D02*X39887Y189800D01*
X38500Y189000D02*X37113Y189800D01*
X42500Y189000D02*Y187400D01*
Y189000D02*X43887Y189800D01*
X42500Y189000D02*X41113Y189800D01*
X28500Y160000D02*Y158400D01*
Y160000D02*X29887Y160800D01*
X28500Y160000D02*X27113Y160800D01*
X52500Y160000D02*Y158400D01*
Y160000D02*X53887Y160800D01*
X52500Y160000D02*X51113Y160800D01*
X46000Y163000D02*Y161400D01*
Y163000D02*X47387Y163800D01*
X46000Y163000D02*X44613Y163800D01*
X113000Y242500D02*Y240900D01*
Y242500D02*X114387Y243300D01*
X113000Y242500D02*X111613Y243300D01*
X113000Y179500D02*Y177900D01*
Y179500D02*X114387Y180300D01*
X113000Y179500D02*X111613Y180300D01*
X53500Y323500D02*Y321900D01*
Y323500D02*X54887Y324300D01*
X53500Y323500D02*X52113Y324300D01*
X64000Y323500D02*Y321900D01*
Y323500D02*X65387Y324300D01*
X64000Y323500D02*X62613Y324300D01*
X99000Y323500D02*Y321900D01*
Y323500D02*X100387Y324300D01*
X99000Y323500D02*X97613Y324300D01*
X109000Y323500D02*Y321900D01*
Y323500D02*X110387Y324300D01*
X109000Y323500D02*X107613Y324300D01*
X64000Y268500D02*Y266900D01*
Y268500D02*X65387Y269300D01*
X64000Y268500D02*X62613Y269300D01*
X45500Y264500D02*Y262900D01*
Y264500D02*X46887Y265300D01*
X45500Y264500D02*X44113Y265300D01*
X53500Y268500D02*Y266900D01*
Y268500D02*X54887Y269300D01*
X53500Y268500D02*X52113Y269300D01*
X71500Y264500D02*Y262900D01*
Y264500D02*X72887Y265300D01*
X71500Y264500D02*X70113Y265300D01*
X53500Y260500D02*Y258900D01*
Y260500D02*X54887Y261300D01*
X53500Y260500D02*X52113Y261300D01*
X64000Y260500D02*Y258900D01*
Y260500D02*X65387Y261300D01*
X64000Y260500D02*X62613Y261300D01*
X64000Y205500D02*Y203900D01*
Y205500D02*X65387Y206300D01*
X64000Y205500D02*X62613Y206300D01*
X45500Y201500D02*Y199900D01*
Y201500D02*X46887Y202300D01*
X45500Y201500D02*X44113Y202300D01*
X53500Y205500D02*Y203900D01*
Y205500D02*X54887Y206300D01*
X53500Y205500D02*X52113Y206300D01*
X71500Y201500D02*Y199900D01*
Y201500D02*X72887Y202300D01*
X71500Y201500D02*X70113Y202300D01*
X53500Y197500D02*Y195900D01*
Y197500D02*X54887Y198300D01*
X53500Y197500D02*X52113Y198300D01*
X64000Y197500D02*Y195900D01*
Y197500D02*X65387Y198300D01*
X64000Y197500D02*X62613Y198300D01*
X64000Y142500D02*Y140900D01*
Y142500D02*X65387Y143300D01*
X64000Y142500D02*X62613Y143300D01*
X45500Y138500D02*Y136900D01*
Y138500D02*X46887Y139300D01*
X45500Y138500D02*X44113Y139300D01*
X53500Y142500D02*Y140900D01*
Y142500D02*X54887Y143300D01*
X53500Y142500D02*X52113Y143300D01*
X71500Y138500D02*Y136900D01*
Y138500D02*X72887Y139300D01*
X71500Y138500D02*X70113Y139300D01*
X53500Y134500D02*Y132900D01*
Y134500D02*X54887Y135300D01*
X53500Y134500D02*X52113Y135300D01*
X64000Y134500D02*Y132900D01*
Y134500D02*X65387Y135300D01*
X64000Y134500D02*X62613Y135300D01*
X90500Y264500D02*Y262900D01*
Y264500D02*X91887Y265300D01*
X90500Y264500D02*X89113Y265300D01*
X115500Y264500D02*Y262900D01*
Y264500D02*X116887Y265300D01*
X115500Y264500D02*X114113Y265300D01*
X90500Y201500D02*Y199900D01*
Y201500D02*X91887Y202300D01*
X90500Y201500D02*X89113Y202300D01*
X115500Y201500D02*Y199900D01*
Y201500D02*X116887Y202300D01*
X115500Y201500D02*X114113Y202300D01*
X90500Y138500D02*Y136900D01*
Y138500D02*X91887Y139300D01*
X90500Y138500D02*X89113Y139300D01*
X115500Y138500D02*Y136900D01*
Y138500D02*X116887Y139300D01*
X115500Y138500D02*X114113Y139300D01*
X116500Y310000D02*Y308400D01*
Y310000D02*X117887Y310800D01*
X116500Y310000D02*X115113Y310800D01*
X112500Y323000D02*Y321400D01*
Y323000D02*X113887Y323800D01*
X112500Y323000D02*X111113Y323800D01*
X27500Y282000D02*Y280400D01*
Y282000D02*X28887Y282800D01*
X27500Y282000D02*X26113Y282800D01*
X57800Y245800D02*Y244200D01*
Y245800D02*X59187Y246600D01*
X57800Y245800D02*X56413Y246600D01*
X42300Y252100D02*Y250500D01*
Y252100D02*X43687Y252900D01*
X42300Y252100D02*X40913Y252900D01*
X29200Y243000D02*Y241400D01*
Y243000D02*X30587Y243800D01*
X29200Y243000D02*X27813Y243800D01*
X28400Y224100D02*Y222500D01*
Y224100D02*X29787Y224900D01*
X28400Y224100D02*X27013Y224900D01*
X28400Y219100D02*Y217500D01*
Y219100D02*X29787Y219900D01*
X28400Y219100D02*X27013Y219900D01*
X52300Y223900D02*Y222300D01*
Y223900D02*X53687Y224700D01*
X52300Y223900D02*X50913Y224700D01*
X56600Y223900D02*Y222300D01*
Y223900D02*X57987Y224700D01*
X56600Y223900D02*X55213Y224700D01*
X61300Y256200D02*Y254600D01*
Y256200D02*X62687Y257000D01*
X61300Y256200D02*X59913Y257000D01*
X28500Y155100D02*Y153500D01*
Y155100D02*X29887Y155900D01*
X28500Y155100D02*X27113Y155900D01*
X47200Y100800D02*Y99200D01*
Y100800D02*X48587Y101600D01*
X47200Y100800D02*X45813Y101600D01*
X59700Y100600D02*Y99000D01*
Y100600D02*X61087Y101400D01*
X59700Y100600D02*X58313Y101400D01*
X69200Y100800D02*Y99200D01*
Y100800D02*X70587Y101600D01*
X69200Y100800D02*X67813Y101600D01*
X81600Y101000D02*Y99400D01*
Y101000D02*X82987Y101800D01*
X81600Y101000D02*X80213Y101800D01*
X292100Y110400D02*Y108800D01*
Y110400D02*X293487Y111200D01*
X292100Y110400D02*X290713Y111200D01*
X291900Y80900D02*Y79300D01*
Y80900D02*X293287Y81700D01*
X291900Y80900D02*X290513Y81700D01*
X295900Y100800D02*Y99200D01*
Y100800D02*X297287Y101600D01*
X295900Y100800D02*X294513Y101600D01*
X295800Y90200D02*Y88600D01*
Y90200D02*X297187Y91000D01*
X295800Y90200D02*X294413Y91000D01*
X211700Y231500D02*Y229900D01*
Y231500D02*X213087Y232300D01*
X211700Y231500D02*X210313Y232300D01*
X211700Y234700D02*Y233100D01*
Y234700D02*X213087Y235500D01*
X211700Y234700D02*X210313Y235500D01*
X218700Y237100D02*Y235500D01*
Y237100D02*X220087Y237900D01*
X218700Y237100D02*X217313Y237900D01*
X222100Y237100D02*Y235500D01*
Y237100D02*X223487Y237900D01*
X222100Y237100D02*X220713Y237900D01*
X213800Y225000D02*Y223400D01*
Y225000D02*X215187Y225800D01*
X213800Y225000D02*X212413Y225800D01*
X217000Y225000D02*Y223400D01*
Y225000D02*X218387Y225800D01*
X217000Y225000D02*X215613Y225800D01*
X213800Y218900D02*Y217300D01*
Y218900D02*X215187Y219700D01*
X213800Y218900D02*X212413Y219700D01*
X217000Y218900D02*Y217300D01*
Y218900D02*X218387Y219700D01*
X217000Y218900D02*X215613Y219700D01*
X237200Y237100D02*Y235500D01*
Y237100D02*X238587Y237900D01*
X237200Y237100D02*X235813Y237900D01*
X213700Y207900D02*Y206300D01*
Y207900D02*X215087Y208700D01*
X213700Y207900D02*X212313Y208700D01*
X211800Y204300D02*Y202700D01*
Y204300D02*X213187Y205100D01*
X211800Y204300D02*X210413Y205100D01*
X211800Y199700D02*Y198100D01*
Y199700D02*X213187Y200500D01*
X211800Y199700D02*X210413Y200500D01*
X213600Y193300D02*Y191700D01*
Y193300D02*X214987Y194100D01*
X213600Y193300D02*X212213Y194100D01*
X211800Y178400D02*Y176800D01*
Y178400D02*X213187Y179200D01*
X211800Y178400D02*X210413Y179200D01*
X211800Y168600D02*Y167000D01*
Y168600D02*X213187Y169400D01*
X211800Y168600D02*X210413Y169400D01*
X212100Y173800D02*Y172200D01*
Y173800D02*X213487Y174600D01*
X212100Y173800D02*X210713Y174600D01*
X228800Y168900D02*Y167300D01*
Y168900D02*X230187Y169700D01*
X228800Y168900D02*X227413Y169700D01*
X223400Y166700D02*Y165100D01*
Y166700D02*X224787Y167500D01*
X223400Y166700D02*X222013Y167500D01*
X245500Y166700D02*Y165100D01*
Y166700D02*X246887Y167500D01*
X245500Y166700D02*X244113Y167500D01*
X255100Y169000D02*Y167400D01*
Y169000D02*X256487Y169800D01*
X255100Y169000D02*X253713Y169800D01*
X258000Y169000D02*Y167400D01*
Y169000D02*X259387Y169800D01*
X258000Y169000D02*X256613Y169800D01*
X254100Y238200D02*Y236600D01*
Y238200D02*X255487Y239000D01*
X254100Y238200D02*X252713Y239000D01*
X243000Y239800D02*Y238200D01*
Y239800D02*X244387Y240600D01*
X243000Y239800D02*X241613Y240600D01*
X251300Y240000D02*Y238400D01*
Y240000D02*X252687Y240800D01*
X251300Y240000D02*X249913Y240800D01*
X257000Y239900D02*Y238300D01*
Y239900D02*X258387Y240700D01*
X257000Y239900D02*X255613Y240700D01*
X263400Y237100D02*Y235500D01*
Y237100D02*X264787Y237900D01*
X263400Y237100D02*X262013Y237900D01*
X267000Y237100D02*Y235500D01*
Y237100D02*X268387Y237900D01*
X267000Y237100D02*X265613Y237900D01*
X282700Y220300D02*Y218700D01*
Y220300D02*X284087Y221100D01*
X282700Y220300D02*X281313Y221100D01*
X284000Y194100D02*Y192500D01*
Y194100D02*X285387Y194900D01*
X284000Y194100D02*X282613Y194900D01*
X283800Y190000D02*Y188400D01*
Y190000D02*X285187Y190800D01*
X283800Y190000D02*X282413Y190800D01*
X282700Y231000D02*Y229400D01*
Y231000D02*X284087Y231800D01*
X282700Y231000D02*X281313Y231800D01*
X284500Y227600D02*Y226000D01*
Y227600D02*X285887Y228400D01*
X284500Y227600D02*X283113Y228400D01*
X284500Y213900D02*Y212300D01*
Y213900D02*X285887Y214700D01*
X284500Y213900D02*X283113Y214700D01*
X284600Y209500D02*Y207900D01*
Y209500D02*X285987Y210300D01*
X284600Y209500D02*X283213Y210300D01*
X284600Y205400D02*Y203800D01*
Y205400D02*X285987Y206200D01*
X284600Y205400D02*X283213Y206200D01*
X284600Y202200D02*Y200600D01*
Y202200D02*X285987Y203000D01*
X284600Y202200D02*X283213Y203000D01*
X231500Y239700D02*Y238100D01*
Y239700D02*X232887Y240500D01*
X231500Y239700D02*X230113Y240500D01*
X264800Y166500D02*Y164900D01*
Y166500D02*X266187Y167300D01*
X264800Y166500D02*X263413Y167300D01*
X111200Y319100D02*Y317500D01*
Y319100D02*X112587Y319900D01*
X111200Y319100D02*X109813Y319900D01*
X125200Y311300D02*Y309700D01*
Y311300D02*X126587Y312100D01*
X125200Y311300D02*X123813Y312100D01*
X125100Y282200D02*Y280600D01*
Y282200D02*X126487Y283000D01*
X125100Y282200D02*X123713Y283000D01*
X131500Y278000D02*Y276400D01*
Y278000D02*X132887Y278800D01*
X131500Y278000D02*X130113Y278800D01*
X131800Y314000D02*Y312400D01*
Y314000D02*X133187Y314800D01*
X131800Y314000D02*X130413Y314800D01*
X161300Y285500D02*Y283900D01*
Y285500D02*X162687Y286300D01*
X161300Y285500D02*X159913Y286300D01*
X161100Y306700D02*Y305100D01*
Y306700D02*X162487Y307500D01*
X161100Y306700D02*X159713Y307500D01*
X120900Y311400D02*Y309800D01*
Y311400D02*X122287Y312200D01*
X120900Y311400D02*X119513Y312200D01*
X132000Y250100D02*Y248500D01*
Y250100D02*X133387Y250900D01*
X132000Y250100D02*X130613Y250900D01*
X125000Y248000D02*Y246400D01*
Y248000D02*X126387Y248800D01*
X125000Y248000D02*X123613Y248800D01*
X124900Y218600D02*Y217000D01*
Y218600D02*X126287Y219400D01*
X124900Y218600D02*X123513Y219400D01*
X131700Y214900D02*Y213300D01*
Y214900D02*X133087Y215700D01*
X131700Y214900D02*X130313Y215700D01*
X161800Y222400D02*Y220800D01*
Y222400D02*X163187Y223200D01*
X161800Y222400D02*X160413Y223200D01*
X161800Y243700D02*Y242100D01*
Y243700D02*X163187Y244500D01*
X161800Y243700D02*X160413Y244500D01*
X132200Y256000D02*Y254400D01*
Y256000D02*X133587Y256800D01*
X132200Y256000D02*X130813Y256800D01*
X112000Y255700D02*Y254100D01*
Y255700D02*X113387Y256500D01*
X112000Y255700D02*X110613Y256500D01*
X120600Y194000D02*Y192400D01*
Y194000D02*X121987Y194800D01*
X120600Y194000D02*X119213Y194800D01*
X125200Y185400D02*Y183800D01*
Y185400D02*X126587Y186200D01*
X125200Y185400D02*X123813Y186200D01*
X131900Y188700D02*Y187100D01*
Y188700D02*X133287Y189500D01*
X131900Y188700D02*X130513Y189500D01*
X125000Y155700D02*Y154100D01*
Y155700D02*X126387Y156500D01*
X125000Y155700D02*X123613Y156500D01*
X131900Y151800D02*Y150200D01*
Y151800D02*X133287Y152600D01*
X131900Y151800D02*X130513Y152600D01*
X162200Y159100D02*Y157500D01*
Y159100D02*X163587Y159900D01*
X162200Y159100D02*X160813Y159900D01*
X161900Y180700D02*Y179100D01*
Y180700D02*X163287Y181500D01*
X161900Y180700D02*X160513Y181500D01*
X124900Y122500D02*Y120900D01*
Y122500D02*X126287Y123300D01*
X124900Y122500D02*X123513Y123300D01*
X132000Y125700D02*Y124100D01*
Y125700D02*X133387Y126500D01*
X132000Y125700D02*X130613Y126500D01*
X161600Y117500D02*Y115900D01*
Y117500D02*X162987Y118300D01*
X161600Y117500D02*X160213Y118300D01*
X162000Y96500D02*Y94900D01*
Y96500D02*X163387Y97300D01*
X162000Y96500D02*X160613Y97300D01*
X131600Y88900D02*Y87300D01*
Y88900D02*X132987Y89700D01*
X131600Y88900D02*X130213Y89700D01*
X124800Y92600D02*Y91000D01*
Y92600D02*X126187Y93400D01*
X124800Y92600D02*X123413Y93400D01*
X115400Y51500D02*Y49900D01*
Y51500D02*X116787Y52300D01*
X115400Y51500D02*X114013Y52300D01*
X121100Y48400D02*Y46800D01*
Y48400D02*X122487Y49200D01*
X121100Y48400D02*X119713Y49200D01*
X155700Y27400D02*Y25800D01*
Y27400D02*X157087Y28200D01*
X155700Y27400D02*X154313Y28200D01*
X168100Y38700D02*Y37100D01*
Y38700D02*X169487Y39500D01*
X168100Y38700D02*X166713Y39500D01*
X167300Y45200D02*Y43600D01*
Y45200D02*X168687Y46000D01*
X167300Y45200D02*X165913Y46000D01*
X167600Y55800D02*Y54200D01*
Y55800D02*X168987Y56600D01*
X167600Y55800D02*X166213Y56600D01*
X146700Y18900D02*Y17300D01*
Y18900D02*X148087Y19700D01*
X146700Y18900D02*X145313Y19700D01*
X146726Y27300D02*Y25700D01*
Y27300D02*X148113Y28100D01*
X146726Y27300D02*X145339Y28100D01*
X132000Y27200D02*Y25600D01*
Y27200D02*X133387Y28000D01*
X132000Y27200D02*X130613Y28000D01*
X128400Y27300D02*Y25700D01*
Y27300D02*X129787Y28100D01*
X128400Y27300D02*X127013Y28100D01*
X128300Y13200D02*Y11600D01*
Y13200D02*X129687Y14000D01*
X128300Y13200D02*X126913Y14000D01*
X132900Y12700D02*Y11100D01*
Y12700D02*X134287Y13500D01*
X132900Y12700D02*X131513Y13500D01*
X85900Y33700D02*Y32100D01*
Y33700D02*X87287Y34500D01*
X85900Y33700D02*X84513Y34500D01*
X101200Y33800D02*Y32200D01*
Y33800D02*X102587Y34600D01*
X101200Y33800D02*X99813Y34600D01*
X80000Y36152D02*Y34552D01*
Y36152D02*X81387Y36952D01*
X80000Y36152D02*X78613Y36952D01*
X85800Y42300D02*Y40700D01*
Y42300D02*X87187Y43100D01*
X85800Y42300D02*X84413Y43100D01*
X56800Y65400D02*Y63800D01*
Y65400D02*X58187Y66200D01*
X56800Y65400D02*X55413Y66200D01*
X56400Y52900D02*Y51300D01*
Y52900D02*X57787Y53700D01*
X56400Y52900D02*X55013Y53700D01*
X86100Y50800D02*Y49200D01*
Y50800D02*X87487Y51600D01*
X86100Y50800D02*X84713Y51600D01*
X101200Y50300D02*Y48700D01*
Y50300D02*X102587Y51100D01*
X101200Y50300D02*X99813Y51100D01*
X80000Y56600D02*Y55000D01*
Y56600D02*X81387Y57400D01*
X80000Y56600D02*X78613Y57400D01*
X80000Y53400D02*Y51800D01*
Y53400D02*X81387Y54200D01*
X80000Y53400D02*X78613Y54200D01*
X80000Y39400D02*Y37800D01*
Y39400D02*X81387Y40200D01*
X80000Y39400D02*X78613Y40200D01*
X192300Y157100D02*Y155500D01*
Y157100D02*X193687Y157900D01*
X192300Y157100D02*X190913Y157900D01*
X192300Y162300D02*Y160700D01*
Y162300D02*X193687Y163100D01*
X192300Y162300D02*X190913Y163100D01*
X279100Y168200D02*Y166600D01*
Y168200D02*X280487Y169000D01*
X279100Y168200D02*X277713Y169000D01*
X282100Y185100D02*Y183500D01*
Y185100D02*X283487Y185900D01*
X282100Y185100D02*X280713Y185900D01*
X283400Y175700D02*Y174100D01*
Y175700D02*X284787Y176500D01*
X283400Y175700D02*X282013Y176500D01*
X283500Y171700D02*Y170100D01*
Y171700D02*X284887Y172500D01*
X283500Y171700D02*X282113Y172500D01*
X86100Y59300D02*Y57700D01*
Y59300D02*X87487Y60100D01*
X86100Y59300D02*X84713Y60100D01*
X86100Y71400D02*Y69800D01*
Y71400D02*X87487Y72200D01*
X86100Y71400D02*X84713Y72200D01*
X80100Y69200D02*Y67600D01*
Y69200D02*X81487Y70000D01*
X80100Y69200D02*X78713Y70000D01*
X80100Y65900D02*Y64300D01*
Y65900D02*X81487Y66700D01*
X80100Y65900D02*X78713Y66700D01*
X101200Y62900D02*Y61300D01*
Y62900D02*X102587Y63700D01*
X101200Y62900D02*X99813Y63700D01*
X86200Y63100D02*Y61500D01*
Y63100D02*X87587Y63900D01*
X86200Y63100D02*X84813Y63900D01*
X139100Y188300D02*Y186700D01*
Y188300D02*X140487Y189100D01*
X139100Y188300D02*X137713Y189100D01*
X118000Y82300D02*Y80700D01*
Y82300D02*X119387Y83100D01*
X118000Y82300D02*X116613Y83100D01*
X121200Y72100D02*Y70500D01*
Y72100D02*X122587Y72900D01*
X121200Y72100D02*X119813Y72900D01*
X115400Y75400D02*Y73800D01*
Y75400D02*X116787Y76200D01*
X115400Y75400D02*X114013Y76200D01*
X156400Y73600D02*Y72000D01*
Y73600D02*X157787Y74400D01*
X156400Y73600D02*X155013Y74400D01*
X168800Y80600D02*Y79000D01*
Y80600D02*X170187Y81400D01*
X168800Y80600D02*X167413Y81400D01*
X152800Y84300D02*Y82700D01*
Y84300D02*X154187Y85100D01*
X152800Y84300D02*X151413Y85100D01*
X157500Y88300D02*Y86700D01*
Y88300D02*X158887Y89100D01*
X157500Y88300D02*X156113Y89100D01*
X167600Y51100D02*Y49500D01*
Y51100D02*X168987Y51900D01*
X167600Y51100D02*X166213Y51900D01*
X257300Y99700D02*Y98100D01*
Y99700D02*X258687Y100500D01*
X257300Y99700D02*X255913Y100500D01*
X255300Y107900D02*Y106300D01*
Y107900D02*X256687Y108700D01*
X255300Y107900D02*X253913Y108700D01*
X274700Y95600D02*Y94000D01*
Y95600D02*X276087Y96400D01*
X274700Y95600D02*X273313Y96400D01*
X274700Y103600D02*Y102000D01*
Y103600D02*X276087Y104400D01*
X274700Y103600D02*X273313Y104400D01*
X274700Y87600D02*Y86000D01*
Y87600D02*X276087Y88400D01*
X274700Y87600D02*X273313Y88400D01*
X282700Y87500D02*Y85900D01*
Y87500D02*X284087Y88300D01*
X282700Y87500D02*X281313Y88300D01*
X282700Y103700D02*Y102100D01*
Y103700D02*X284087Y104500D01*
X282700Y103700D02*X281313Y104500D01*
X266700Y103600D02*Y102000D01*
Y103600D02*X268087Y104400D01*
X266700Y103600D02*X265313Y104400D01*
X266700Y87600D02*Y86000D01*
Y87600D02*X268087Y88400D01*
X266700Y87600D02*X265313Y88400D01*
X266700Y95600D02*Y94000D01*
Y95600D02*X268087Y96400D01*
X266700Y95600D02*X265313Y96400D01*
X282700Y95600D02*Y94000D01*
Y95600D02*X284087Y96400D01*
X282700Y95600D02*X281313Y96400D01*
X281000Y295300D02*Y293700D01*
Y295300D02*X282387Y296100D01*
X281000Y295300D02*X279613Y296100D01*
X291000Y295300D02*Y293700D01*
Y295300D02*X292387Y296100D01*
X291000Y295300D02*X289613Y296100D01*
X291000Y289300D02*Y287700D01*
Y289300D02*X292387Y290100D01*
X291000Y289300D02*X289613Y290100D01*
X281000Y289300D02*Y287700D01*
Y289300D02*X282387Y290100D01*
X281000Y289300D02*X279613Y290100D01*
X286000Y295300D02*Y293700D01*
Y295300D02*X287387Y296100D01*
X286000Y295300D02*X284613Y296100D01*
X286000Y289300D02*Y287700D01*
Y289300D02*X287387Y290100D01*
X286000Y289300D02*X284613Y290100D01*
X285900Y302900D02*Y301300D01*
Y302900D02*X287287Y303700D01*
X285900Y302900D02*X284513Y303700D01*
X283700Y305800D02*Y304200D01*
Y305800D02*X285087Y306600D01*
X283700Y305800D02*X282313Y306600D01*
X288100Y305800D02*Y304200D01*
Y305800D02*X289487Y306600D01*
X288100Y305800D02*X286713Y306600D01*
X302000Y308600D02*Y307000D01*
Y308600D02*X303387Y309400D01*
X302000Y308600D02*X300613Y309400D01*
X302400Y289600D02*Y288000D01*
Y289600D02*X303787Y290400D01*
X302400Y289600D02*X301013Y290400D01*
X279500Y280800D02*Y279200D01*
Y280800D02*X280887Y281600D01*
X279500Y280800D02*X278113Y281600D01*
X292300Y280600D02*Y279000D01*
Y280600D02*X293687Y281400D01*
X292300Y280600D02*X290913Y281400D01*
X276800Y270200D02*Y268600D01*
Y270200D02*X278187Y271000D01*
X276800Y270200D02*X275413Y271000D01*
X290200Y271900D02*Y270300D01*
Y271900D02*X291587Y272700D01*
X290200Y271900D02*X288813Y272700D01*
X276000Y300100D02*Y298500D01*
Y300100D02*X277387Y300900D01*
X276000Y300100D02*X274613Y300900D01*
X289100Y280300D02*Y278700D01*
Y280300D02*X290487Y281100D01*
X289100Y280300D02*X287713Y281100D01*
X282700Y280500D02*Y278900D01*
Y280500D02*X284087Y281300D01*
X282700Y280500D02*X281313Y281300D01*
X280600Y331900D02*Y330300D01*
Y331900D02*X281987Y332700D01*
X280600Y331900D02*X279213Y332700D01*
X284100Y332200D02*Y330600D01*
Y332200D02*X285487Y333000D01*
X284100Y332200D02*X282713Y333000D01*
X287600Y332100D02*Y330500D01*
Y332100D02*X288987Y332900D01*
X287600Y332100D02*X286213Y332900D01*
X291300Y331800D02*Y330200D01*
Y331800D02*X292687Y332600D01*
X291300Y331800D02*X289913Y332600D01*
X279500Y328400D02*Y326800D01*
Y328400D02*X280887Y329200D01*
X279500Y328400D02*X278113Y329200D01*
X283100Y328400D02*Y326800D01*
Y328400D02*X284487Y329200D01*
X283100Y328400D02*X281713Y329200D01*
X286700Y328300D02*Y326700D01*
Y328300D02*X288087Y329100D01*
X286700Y328300D02*X285313Y329100D01*
X290400Y328300D02*Y326700D01*
Y328300D02*X291787Y329100D01*
X290400Y328300D02*X289013Y329100D01*
X294200Y328300D02*Y326700D01*
Y328300D02*X295587Y329100D01*
X294200Y328300D02*X292813Y329100D01*
X232800Y321700D02*Y320100D01*
Y321700D02*X234187Y322500D01*
X232800Y321700D02*X231413Y322500D01*
X240100Y321800D02*Y320200D01*
Y321800D02*X241487Y322600D01*
X240100Y321800D02*X238713Y322600D01*
X236300Y318000D02*Y316400D01*
Y318000D02*X237687Y318800D01*
X236300Y318000D02*X234913Y318800D01*
X241700Y317200D02*Y315600D01*
Y317200D02*X243087Y318000D01*
X241700Y317200D02*X240313Y318000D01*
X254000Y272900D02*Y271300D01*
Y272900D02*X255387Y273700D01*
X254000Y272900D02*X252613Y273700D01*
X243900Y311800D02*Y310200D01*
Y311800D02*X245287Y312600D01*
X243900Y311800D02*X242513Y312600D01*
X248900Y312000D02*Y310400D01*
Y312000D02*X250287Y312800D01*
X248900Y312000D02*X247513Y312800D01*
X264400Y308200D02*Y306600D01*
Y308200D02*X265787Y309000D01*
X264400Y308200D02*X263013Y309000D01*
X245000Y320800D02*Y319200D01*
Y320800D02*X246387Y321600D01*
X245000Y320800D02*X243613Y321600D01*
X320600Y263200D02*Y261600D01*
Y263200D02*X321987Y264000D01*
X320600Y263200D02*X319213Y264000D01*
X318600Y265500D02*Y263900D01*
Y265500D02*X319987Y266300D01*
X318600Y265500D02*X317213Y266300D01*
X320600Y268000D02*Y266400D01*
Y268000D02*X321987Y268800D01*
X320600Y268000D02*X319213Y268800D01*
X318700Y270500D02*Y268900D01*
Y270500D02*X320087Y271300D01*
X318700Y270500D02*X317313Y271300D01*
X344300Y270600D02*Y269000D01*
Y270600D02*X345687Y271400D01*
X344300Y270600D02*X342913Y271400D01*
X348500Y270700D02*Y269100D01*
Y270700D02*X349887Y271500D01*
X348500Y270700D02*X347113Y271500D01*
X346400Y266500D02*Y264900D01*
Y266500D02*X347787Y267300D01*
X346400Y266500D02*X345013Y267300D01*
X344000Y263000D02*Y261400D01*
Y263000D02*X345387Y263800D01*
X344000Y263000D02*X342613Y263800D01*
X348700Y263200D02*Y261600D01*
Y263200D02*X350087Y264000D01*
X348700Y263200D02*X347313Y264000D01*
X339700Y332000D02*Y330400D01*
Y332000D02*X341087Y332800D01*
X339700Y332000D02*X338313Y332800D01*
X339400Y321700D02*Y320100D01*
Y321700D02*X340787Y322500D01*
X339400Y321700D02*X338013Y322500D01*
X333100Y321900D02*Y320300D01*
Y321900D02*X334487Y322700D01*
X333100Y321900D02*X331713Y322700D01*
X325800Y322000D02*Y320400D01*
Y322000D02*X327187Y322800D01*
X325800Y322000D02*X324413Y322800D01*
X329000Y318100D02*Y316500D01*
Y318100D02*X330387Y318900D01*
X329000Y318100D02*X327613Y318900D01*
X335700Y317700D02*Y316100D01*
Y317700D02*X337087Y318500D01*
X335700Y317700D02*X334313Y318500D01*
X325900Y312800D02*Y311200D01*
Y312800D02*X327287Y313600D01*
X325900Y312800D02*X324513Y313600D01*
X309900Y269100D02*Y267500D01*
Y269100D02*X311287Y269900D01*
X309900Y269100D02*X308513Y269900D01*
X267500Y289300D02*Y287700D01*
Y289300D02*X268887Y290100D01*
X267500Y289300D02*X266113Y290100D01*
X200300Y331900D02*Y330300D01*
Y331900D02*X201687Y332700D01*
X200300Y331900D02*X198913Y332700D01*
X204300Y331900D02*Y330300D01*
Y331900D02*X205687Y332700D01*
X204300Y331900D02*X202913Y332700D01*
X202000Y328200D02*Y326600D01*
Y328200D02*X203387Y329000D01*
X202000Y328200D02*X200613Y329000D01*
X200000Y324400D02*Y322800D01*
Y324400D02*X201387Y325200D01*
X200000Y324400D02*X198613Y325200D01*
X204200Y324500D02*Y322900D01*
Y324500D02*X205587Y325300D01*
X204200Y324500D02*X202813Y325300D01*
X226500Y332200D02*Y330600D01*
Y332200D02*X227887Y333000D01*
X226500Y332200D02*X225113Y333000D01*
X226500Y328200D02*Y326600D01*
Y328200D02*X227887Y329000D01*
X226500Y328200D02*X225113Y329000D01*
X226500Y324400D02*Y322800D01*
Y324400D02*X227887Y325200D01*
X226500Y324400D02*X225113Y325200D01*
X359000Y332200D02*Y330600D01*
Y332200D02*X360387Y333000D01*
X359000Y332200D02*X357613Y333000D01*
X296900Y262500D02*Y260900D01*
Y262500D02*X298287Y263300D01*
X296900Y262500D02*X295513Y263300D01*
X296900Y258200D02*Y256600D01*
Y258200D02*X298287Y259000D01*
X296900Y258200D02*X295513Y259000D01*
X307126Y262400D02*Y260800D01*
Y262400D02*X308513Y263200D01*
X307126Y262400D02*X305739Y263200D01*
X307400Y258200D02*Y256600D01*
Y258200D02*X308787Y259000D01*
X307400Y258200D02*X306013Y259000D01*
X220300Y251500D02*Y249900D01*
Y251500D02*X221687Y252300D01*
X220300Y251500D02*X218913Y252300D01*
X146700Y270700D02*Y269100D01*
Y270700D02*X148087Y271500D01*
X146700Y270700D02*X145313Y271500D01*
X183300Y284900D02*Y283300D01*
Y284900D02*X184687Y285700D01*
X183300Y284900D02*X181913Y285700D01*
X184000Y277100D02*Y275500D01*
Y277100D02*X185387Y277900D01*
X184000Y277100D02*X182613Y277900D01*
X146000Y262500D02*Y260900D01*
Y262500D02*X147387Y263300D01*
X146000Y262500D02*X144613Y263300D01*
X145000Y259000D02*Y257400D01*
Y259000D02*X146387Y259800D01*
X145000Y259000D02*X143613Y259800D01*
X153300Y268100D02*Y266500D01*
Y268100D02*X154687Y268900D01*
X153300Y268100D02*X151913Y268900D01*
X180000Y273900D02*Y272300D01*
Y273900D02*X181387Y274700D01*
X180000Y273900D02*X178613Y274700D01*
X180300Y281000D02*Y279400D01*
Y281000D02*X181687Y281800D01*
X180300Y281000D02*X178913Y281800D01*
X168600Y215900D02*Y214300D01*
Y215900D02*X169987Y216700D01*
X168600Y215900D02*X167213Y216700D01*
X177200Y211500D02*Y209900D01*
Y211500D02*X178587Y212300D01*
X177200Y211500D02*X175813Y212300D01*
X387700Y249100D02*Y247500D01*
Y249100D02*X389087Y249900D01*
X387700Y249100D02*X386313Y249900D01*
X387000Y244400D02*Y242800D01*
Y244400D02*X388387Y245200D01*
X387000Y244400D02*X385613Y245200D01*
X382100Y251300D02*Y249700D01*
Y251300D02*X383487Y252100D01*
X382100Y251300D02*X380713Y252100D01*
X389400Y201800D02*Y200200D01*
Y201800D02*X390787Y202600D01*
X389400Y201800D02*X388013Y202600D01*
X387000Y193700D02*Y192100D01*
Y193700D02*X388387Y194500D01*
X387000Y193700D02*X385613Y194500D01*
X387400Y185900D02*Y184300D01*
Y185900D02*X388787Y186700D01*
X387400Y185900D02*X386013Y186700D01*
X331341Y240500D02*Y238900D01*
Y240500D02*X332728Y241300D01*
X331341Y240500D02*X329954Y241300D01*
X330741Y235200D02*Y233600D01*
Y235200D02*X332128Y236000D01*
X330741Y235200D02*X329354Y236000D01*
X357900Y253500D02*Y251900D01*
Y253500D02*X359287Y254300D01*
X357900Y253500D02*X356513Y254300D01*
X362800Y255900D02*Y254300D01*
Y255900D02*X364187Y256700D01*
X362800Y255900D02*X361413Y256700D01*
X347300Y223300D02*Y221700D01*
Y223300D02*X348687Y224100D01*
X347300Y223300D02*X345913Y224100D01*
X349000Y219500D02*Y217900D01*
Y219500D02*X350387Y220300D01*
X349000Y219500D02*X347613Y220300D01*
X297200Y171000D02*Y169400D01*
Y171000D02*X298587Y171800D01*
X297200Y171000D02*X295813Y171800D01*
X325700Y215900D02*Y214300D01*
Y215900D02*X327087Y216700D01*
X325700Y215900D02*X324313Y216700D01*
X330700Y215900D02*Y214300D01*
Y215900D02*X332087Y216700D01*
X330700Y215900D02*X329313Y216700D01*
X335500Y180500D02*Y178900D01*
Y180500D02*X336887Y181300D01*
X335500Y180500D02*X334113Y181300D01*
X340800Y180800D02*Y179200D01*
Y180800D02*X342187Y181600D01*
X340800Y180800D02*X339413Y181600D01*
X340400Y215900D02*Y214300D01*
Y215900D02*X341787Y216700D01*
X340400Y215900D02*X339013Y216700D01*
X335800Y215900D02*Y214300D01*
Y215900D02*X337187Y216700D01*
X335800Y215900D02*X334413Y216700D01*
X337600Y177300D02*Y175700D01*
Y177300D02*X338987Y178100D01*
X337600Y177300D02*X336213Y178100D01*
X341800Y177200D02*Y175600D01*
Y177200D02*X343187Y178000D01*
X341800Y177200D02*X340413Y178000D01*
X340400Y151900D02*Y150300D01*
Y151900D02*X341787Y152700D01*
X340400Y151900D02*X339013Y152700D01*
X343200Y156200D02*Y154600D01*
Y156200D02*X344587Y157000D01*
X343200Y156200D02*X341813Y157000D01*
X205600Y38300D02*Y36700D01*
Y38300D02*X206987Y39100D01*
X205600Y38300D02*X204213Y39100D01*
X236000Y18700D02*Y17100D01*
Y18700D02*X237387Y19500D01*
X236000Y18700D02*X234613Y19500D01*
X240400Y22400D02*Y20800D01*
Y22400D02*X241787Y23200D01*
X240400Y22400D02*X239013Y23200D01*
X209100Y55000D02*Y53400D01*
Y55000D02*X210487Y55800D01*
X209100Y55000D02*X207713Y55800D01*
X234800Y54900D02*Y53300D01*
Y54900D02*X236187Y55700D01*
X234800Y54900D02*X233413Y55700D01*
X209400Y12500D02*Y10900D01*
Y12500D02*X210787Y13300D01*
X209400Y12500D02*X208013Y13300D01*
X235000Y12400D02*Y10800D01*
Y12400D02*X236387Y13200D01*
X235000Y12400D02*X233613Y13200D01*
X230300Y179500D02*Y177900D01*
Y179500D02*X231687Y180300D01*
X230300Y179500D02*X228913Y180300D01*
X230300Y175800D02*Y174200D01*
Y175800D02*X231687Y176600D01*
X230300Y175800D02*X228913Y176600D01*
X281500Y69400D02*Y67800D01*
Y69400D02*X282887Y70200D01*
X281500Y69400D02*X280113Y70200D01*
X279600Y53800D02*Y52200D01*
Y53800D02*X280987Y54600D01*
X279600Y53800D02*X278213Y54600D01*
X295126Y53800D02*Y52200D01*
Y53800D02*X296513Y54600D01*
X295126Y53800D02*X293739Y54600D01*
X317900Y106300D02*Y104700D01*
Y106300D02*X319287Y107100D01*
X317900Y106300D02*X316513Y107100D01*
X322200Y104300D02*Y102700D01*
Y104300D02*X323587Y105100D01*
X322200Y104300D02*X320813Y105100D01*
X324100Y99400D02*Y97800D01*
Y99400D02*X325487Y100200D01*
X324100Y99400D02*X322713Y100200D01*
X326400Y96500D02*Y94900D01*
Y96500D02*X327787Y97300D01*
X326400Y96500D02*X325013Y97300D01*
X317900Y51000D02*Y49400D01*
Y51000D02*X319287Y51800D01*
X317900Y51000D02*X316513Y51800D01*
X322000Y51700D02*Y50100D01*
Y51700D02*X323387Y52500D01*
X322000Y51700D02*X320613Y52500D01*
X323900Y69100D02*Y67500D01*
Y69100D02*X325287Y69900D01*
X323900Y69100D02*X322513Y69900D01*
X326400Y71900D02*Y70300D01*
Y71900D02*X327787Y72700D01*
X326400Y71900D02*X325013Y72700D01*
X312500Y94300D02*Y92700D01*
Y94300D02*X313887Y95100D01*
X312500Y94300D02*X311113Y95100D01*
X316500Y91700D02*Y90100D01*
Y91700D02*X317887Y92500D01*
X316500Y91700D02*X315113Y92500D01*
X339500Y95700D02*Y94100D01*
Y95700D02*X340887Y96500D01*
X339500Y95700D02*X338113Y96500D01*
X339600Y84700D02*Y83100D01*
Y84700D02*X340987Y85500D01*
X339600Y84700D02*X338213Y85500D01*
X312600Y75900D02*Y74300D01*
Y75900D02*X313987Y76700D01*
X312600Y75900D02*X311213Y76700D01*
X316700Y81400D02*Y79800D01*
Y81400D02*X318087Y82200D01*
X316700Y81400D02*X315313Y82200D01*
X235100Y179700D02*Y178100D01*
Y179700D02*X236487Y180500D01*
X235100Y179700D02*X233713Y180500D01*
X237200Y174800D02*Y173200D01*
Y174800D02*X238587Y175600D01*
X237200Y174800D02*X235813Y175600D01*
X276200Y115200D02*Y113600D01*
Y115200D02*X277587Y116000D01*
X276200Y115200D02*X274813Y116000D01*
X295700Y63200D02*Y61600D01*
Y63200D02*X297087Y64000D01*
X295700Y63200D02*X294313Y64000D01*
X345100Y135700D02*Y134100D01*
Y135700D02*X346487Y136500D01*
X345100Y135700D02*X343713Y136500D01*
X348000Y139600D02*Y138000D01*
Y139600D02*X349387Y140400D01*
X348000Y139600D02*X346613Y140400D01*
X350700Y135500D02*Y133900D01*
Y135500D02*X352087Y136300D01*
X350700Y135500D02*X349313Y136300D01*
X376600Y147200D02*Y145600D01*
Y147200D02*X377987Y148000D01*
X376600Y147200D02*X375213Y148000D01*
X379400Y143800D02*Y142200D01*
Y143800D02*X380787Y144600D01*
X379400Y143800D02*X378013Y144600D01*
X345600Y32600D02*Y31000D01*
Y32600D02*X346987Y33400D01*
X345600Y32600D02*X344213Y33400D01*
X354400Y36900D02*Y35300D01*
Y36900D02*X355787Y37700D01*
X354400Y36900D02*X353013Y37700D01*
X340000Y60000D02*Y58400D01*
Y60000D02*X341387Y60800D01*
X340000Y60000D02*X338613Y60800D01*
X328200Y180000D02*Y178400D01*
Y180000D02*X329587Y180800D01*
X328200Y180000D02*X326813Y180800D01*
X354800Y145500D02*Y143900D01*
Y145500D02*X356187Y146300D01*
X354800Y145500D02*X353413Y146300D01*
X358000Y145400D02*Y143800D01*
Y145400D02*X359387Y146200D01*
X358000Y145400D02*X356613Y146200D01*
X383000Y157900D02*Y156300D01*
Y157900D02*X384387Y158700D01*
X383000Y157900D02*X381613Y158700D01*
X386500Y157800D02*Y156200D01*
Y157800D02*X387887Y158600D01*
X386500Y157800D02*X385113Y158600D01*
X269800Y148400D02*Y146800D01*
Y148400D02*X271187Y149200D01*
X269800Y148400D02*X268413Y149200D01*
X175700Y64200D02*Y62600D01*
Y64200D02*X177087Y65000D01*
X175700Y64200D02*X174313Y65000D01*
X170600Y59900D02*Y58300D01*
Y59900D02*X171987Y60700D01*
X170600Y59900D02*X169213Y60700D01*
X170800Y56400D02*Y54800D01*
Y56400D02*X172187Y57200D01*
X170800Y56400D02*X169413Y57200D01*
X170900Y63100D02*Y61500D01*
Y63100D02*X172287Y63900D01*
X170900Y63100D02*X169513Y63900D01*
X175500Y68300D02*Y66700D01*
Y68300D02*X176887Y69100D01*
X175500Y68300D02*X174113Y69100D01*
X182200Y74700D02*Y73100D01*
Y74700D02*X183587Y75500D01*
X182200Y74700D02*X180813Y75500D01*
X164000Y3100D02*Y1500D01*
Y3100D02*X165387Y3900D01*
X164000Y3100D02*X162613Y3900D01*
X149300Y11800D02*Y10200D01*
Y11800D02*X150687Y12600D01*
X149300Y11800D02*X147913Y12600D01*
X185000Y60600D02*Y59000D01*
Y60600D02*X186387Y61400D01*
X185000Y60600D02*X183613Y61400D01*
X185000Y53700D02*Y52100D01*
Y53700D02*X186387Y54500D01*
X185000Y53700D02*X183613Y54500D01*
X192100Y60600D02*Y59000D01*
Y60600D02*X193487Y61400D01*
X192100Y60600D02*X190713Y61400D01*
X193600Y53800D02*Y52200D01*
Y53800D02*X194987Y54600D01*
X193600Y53800D02*X192213Y54600D01*
X187300Y7400D02*Y5800D01*
Y7400D02*X188687Y8200D01*
X187300Y7400D02*X185913Y8200D01*
X197800Y9300D02*Y7700D01*
Y9300D02*X199187Y10100D01*
X197800Y9300D02*X196413Y10100D01*
X300200Y118500D02*Y116900D01*
Y118500D02*X301587Y119300D01*
X300200Y118500D02*X298813Y119300D01*
X324900Y119700D02*Y118100D01*
Y119700D02*X326287Y120500D01*
X324900Y119700D02*X323513Y120500D01*
X325000Y110300D02*Y108700D01*
Y110300D02*X326387Y111100D01*
X325000Y110300D02*X323613Y111100D01*
X285800Y113100D02*Y111500D01*
Y113100D02*X287187Y113900D01*
X285800Y113100D02*X284413Y113900D01*
X267800Y74600D02*Y73000D01*
Y74600D02*X269187Y75400D01*
X267800Y74600D02*X266413Y75400D01*
X255200Y97200D02*Y95600D01*
Y97200D02*X256587Y98000D01*
X255200Y97200D02*X253813Y98000D01*
X265800Y113300D02*Y111700D01*
Y113300D02*X267187Y114100D01*
X265800Y113300D02*X264413Y114100D01*
X257800Y113000D02*Y111400D01*
Y113000D02*X259187Y113800D01*
X257800Y113000D02*X256413Y113800D01*
X250800Y88700D02*Y87100D01*
Y88700D02*X252187Y89500D01*
X250800Y88700D02*X249413Y89500D01*
X269800Y68300D02*Y66700D01*
Y68300D02*X271187Y69100D01*
X269800Y68300D02*X268413Y69100D01*
X279100Y120300D02*Y118700D01*
Y120300D02*X280487Y121100D01*
X279100Y120300D02*X277713Y121100D01*
X279000Y117100D02*Y115500D01*
Y117100D02*X280387Y117900D01*
X279000Y117100D02*X277613Y117900D01*
X238700Y85900D02*Y84300D01*
Y85900D02*X240087Y86700D01*
X238700Y85900D02*X237313Y86700D01*
X238700Y89900D02*Y88300D01*
Y89900D02*X240087Y90700D01*
X238700Y89900D02*X237313Y90700D01*
X238774Y93900D02*Y92300D01*
Y93900D02*X240161Y94700D01*
X238774Y93900D02*X237387Y94700D01*
X238900Y97800D02*Y96200D01*
Y97800D02*X240287Y98600D01*
X238900Y97800D02*X237513Y98600D01*
X238900Y105800D02*Y104200D01*
Y105800D02*X240287Y106600D01*
X238900Y105800D02*X237513Y106600D01*
X232874Y83200D02*Y81600D01*
Y83200D02*X234261Y84000D01*
X232874Y83200D02*X231487Y84000D01*
X313100Y106500D02*Y104900D01*
Y106500D02*X314487Y107300D01*
X313100Y106500D02*X311713Y107300D01*
X312300Y115800D02*Y114200D01*
Y115800D02*X313687Y116600D01*
X312300Y115800D02*X310913Y116600D01*
X316900Y119400D02*Y117800D01*
Y119400D02*X318287Y120200D01*
X316900Y119400D02*X315513Y120200D01*
X341500Y107100D02*Y105500D01*
Y107100D02*X342887Y107900D01*
X341500Y107100D02*X340113Y107900D01*
X285900Y120600D02*Y119000D01*
Y120600D02*X287287Y121400D01*
X285900Y120600D02*X284513Y121400D01*
X288500Y117900D02*Y116300D01*
Y117900D02*X289887Y118700D01*
X288500Y117900D02*X287113Y118700D01*
X240900Y118200D02*Y116600D01*
Y118200D02*X242287Y119000D01*
X240900Y118200D02*X239513Y119000D01*
X250800Y97800D02*Y96200D01*
Y97800D02*X252187Y98600D01*
X250800Y97800D02*X249413Y98600D01*
X256700Y74500D02*Y72900D01*
Y74500D02*X258087Y75300D01*
X256700Y74500D02*X255313Y75300D01*
X244700Y73400D02*Y71800D01*
Y73400D02*X246087Y74200D01*
X244700Y73400D02*X243313Y74200D01*
X250300Y68400D02*Y66800D01*
Y68400D02*X251687Y69200D01*
X250300Y68400D02*X248913Y69200D01*
X224800Y81400D02*Y79800D01*
Y81400D02*X226187Y82200D01*
X224800Y81400D02*X223413Y82200D01*
X223700Y70100D02*Y68500D01*
Y70100D02*X225087Y70900D01*
X223700Y70100D02*X222313Y70900D01*
X227700Y75400D02*Y73800D01*
Y75400D02*X229087Y76200D01*
X227700Y75400D02*X226313Y76200D01*
X272600Y130800D02*Y129200D01*
Y130800D02*X273987Y131600D01*
X272600Y130800D02*X271213Y131600D01*
X268600Y126800D02*Y125200D01*
Y126800D02*X269987Y127600D01*
X268600Y126800D02*X267213Y127600D01*
X279400Y63400D02*Y61800D01*
Y63400D02*X280787Y64200D01*
X279400Y63400D02*X278013Y64200D01*
X272700Y62800D02*Y61200D01*
Y62800D02*X274087Y63600D01*
X272700Y62800D02*X271313Y63600D01*
X303400Y69700D02*Y68100D01*
Y69700D02*X304787Y70500D01*
X303400Y69700D02*X302013Y70500D01*
X300700Y107900D02*Y106300D01*
Y107900D02*X302087Y108700D01*
X300700Y107900D02*X299313Y108700D01*
X303200Y85200D02*Y83600D01*
Y85200D02*X304587Y86000D01*
X303200Y85200D02*X301813Y86000D01*
X254300Y61900D02*Y60300D01*
Y61900D02*X255687Y62700D01*
X254300Y61900D02*X252913Y62700D01*
X294500Y57800D02*Y56200D01*
Y57800D02*X295887Y58600D01*
X294500Y57800D02*X293113Y58600D01*
X312600Y64500D02*Y62900D01*
Y64500D02*X313987Y65300D01*
X312600Y64500D02*X311213Y65300D01*
X244500Y61300D02*Y59700D01*
Y61300D02*X245887Y62100D01*
X244500Y61300D02*X243113Y62100D01*
X259800Y68600D02*Y67000D01*
Y68600D02*X261187Y69400D01*
X259800Y68600D02*X258413Y69400D01*
X264000Y68300D02*Y66700D01*
Y68300D02*X265387Y69100D01*
X264000Y68300D02*X262613Y69100D01*
X277300Y68200D02*Y66600D01*
Y68200D02*X278687Y69000D01*
X277300Y68200D02*X275913Y69000D01*
X265700Y53600D02*Y52000D01*
Y53600D02*X267087Y54400D01*
X265700Y53600D02*X264313Y54400D01*
X269800Y49100D02*Y47500D01*
Y49100D02*X271187Y49900D01*
X269800Y49100D02*X268413Y49900D01*
X252400Y45700D02*Y44100D01*
Y45700D02*X253787Y46500D01*
X252400Y45700D02*X251013Y46500D01*
X275900Y75900D02*Y74300D01*
Y75900D02*X277287Y76700D01*
X275900Y75900D02*X274513Y76700D01*
X272500Y58500D02*Y56900D01*
Y58500D02*X273887Y59300D01*
X272500Y58500D02*X271113Y59300D01*
X287600Y68800D02*Y67200D01*
Y68800D02*X288987Y69600D01*
X287600Y68800D02*X286213Y69600D01*
X306700Y81100D02*Y79500D01*
Y81100D02*X308087Y81900D01*
X306700Y81100D02*X305313Y81900D01*
X299300Y160000D02*Y158400D01*
Y160000D02*X300687Y160800D01*
X299300Y160000D02*X297913Y160800D01*
X238900Y101700D02*Y100100D01*
Y101700D02*X240287Y102500D01*
X238900Y101700D02*X237513Y102500D01*
X15000Y486250D02*Y484650D01*
Y486250D02*X16387Y487050D01*
X15000Y486250D02*X13613Y487050D01*
X135000Y488500D02*X136500Y485500D01*
X138000Y488500D01*
X136500Y485500D02*Y482500D01*
X139800Y485800D02*X142050D01*
X139800Y482500D02*X142800D01*
X139800Y488500D02*Y482500D01*
Y488500D02*X142800D01*
X147600D02*X148350Y487750D01*
X145350Y488500D02*X147600D01*
X144600Y487750D02*X145350Y488500D01*
X144600Y487750D02*Y486250D01*
X145350Y485500D01*
X147600D01*
X148350Y484750D01*
Y483250D01*
X147600Y482500D02*X148350Y483250D01*
X145350Y482500D02*X147600D01*
X144600Y483250D02*X145350Y482500D01*
X98000Y483250D02*X98750Y482500D01*
X98000Y484450D02*Y483250D01*
Y484450D02*X99050Y485500D01*
X99950D01*
X101000Y484450D01*
Y483250D01*
X100250Y482500D02*X101000Y483250D01*
X98750Y482500D02*X100250D01*
X98000Y486550D02*X99050Y485500D01*
X98000Y487750D02*Y486550D01*
Y487750D02*X98750Y488500D01*
X100250D01*
X101000Y487750D01*
Y486550D01*
X99950Y485500D02*X101000Y486550D01*
X102800Y483250D02*X103550Y482500D01*
X102800Y484450D02*Y483250D01*
Y484450D02*X103850Y485500D01*
X104750D01*
X105800Y484450D01*
Y483250D01*
X105050Y482500D02*X105800Y483250D01*
X103550Y482500D02*X105050D01*
X102800Y486550D02*X103850Y485500D01*
X102800Y487750D02*Y486550D01*
Y487750D02*X103550Y488500D01*
X105050D01*
X105800Y487750D01*
Y486550D01*
X104750Y485500D02*X105800Y486550D01*
X107600Y483250D02*X108350Y482500D01*
X107600Y487750D02*Y483250D01*
Y487750D02*X108350Y488500D01*
X109850D01*
X110600Y487750D01*
Y483250D01*
X109850Y482500D02*X110600Y483250D01*
X108350Y482500D02*X109850D01*
X107600Y484000D02*X110600Y487000D01*
X45000Y483250D02*X45750Y482500D01*
X45000Y487750D02*Y483250D01*
Y487750D02*X45750Y488500D01*
X47250D01*
X48000Y487750D01*
Y483250D01*
X47250Y482500D02*X48000Y483250D01*
X45750Y482500D02*X47250D01*
X45000Y484000D02*X48000Y487000D01*
X49800Y482500D02*X50550D01*
X52350Y483250D02*X53100Y482500D01*
X52350Y487750D02*Y483250D01*
Y487750D02*X53100Y488500D01*
X54600D01*
X55350Y487750D01*
Y483250D01*
X54600Y482500D02*X55350Y483250D01*
X53100Y482500D02*X54600D01*
X52350Y484000D02*X55350Y487000D01*
X57150Y487300D02*X58350Y488500D01*
Y482500D01*
X57150D02*X59400D01*
X61200Y488500D02*X64200D01*
X61200D02*Y485500D01*
X61950Y486250D01*
X63450D01*
X64200Y485500D01*
Y483250D01*
X63450Y482500D02*X64200Y483250D01*
X61950Y482500D02*X63450D01*
X61200Y483250D02*X61950Y482500D01*
X3000Y503500D02*X3750Y502750D01*
X750Y503500D02*X3000D01*
X0Y502750D02*X750Y503500D01*
X0Y502750D02*Y501250D01*
X750Y500500D01*
X3000D01*
X3750Y499750D01*
Y498250D01*
X3000Y497500D02*X3750Y498250D01*
X750Y497500D02*X3000D01*
X0Y498250D02*X750Y497500D01*
X5550Y500500D02*Y498250D01*
X6300Y497500D01*
X8550Y500500D02*Y496000D01*
X7800Y495250D02*X8550Y496000D01*
X6300Y495250D02*X7800D01*
X5550Y496000D02*X6300Y495250D01*
Y497500D02*X7800D01*
X8550Y498250D01*
X11100Y499750D02*Y497500D01*
Y499750D02*X11850Y500500D01*
X12600D01*
X13350Y499750D01*
Y497500D01*
Y499750D02*X14100Y500500D01*
X14850D01*
X15600Y499750D01*
Y497500D01*
X10350Y500500D02*X11100Y499750D01*
X17400Y503500D02*Y497500D01*
Y498250D02*X18150Y497500D01*
X19650D01*
X20400Y498250D01*
Y499750D02*Y498250D01*
X19650Y500500D02*X20400Y499750D01*
X18150Y500500D02*X19650D01*
X17400Y499750D02*X18150Y500500D01*
X22200Y499750D02*Y498250D01*
Y499750D02*X22950Y500500D01*
X24450D01*
X25200Y499750D01*
Y498250D01*
X24450Y497500D02*X25200Y498250D01*
X22950Y497500D02*X24450D01*
X22200Y498250D02*X22950Y497500D01*
X27000Y503500D02*Y498250D01*
X27750Y497500D01*
X0Y494250D02*X29250D01*
X41750Y503500D02*Y497500D01*
X43700Y503500D02*X44750Y502450D01*
Y498550D01*
X43700Y497500D02*X44750Y498550D01*
X41000Y497500D02*X43700D01*
X41000Y503500D02*X43700D01*
G54D223*X46550Y502000D02*Y501850D01*
G54D222*Y499750D02*Y497500D01*
X50300Y500500D02*X51050Y499750D01*
X48800Y500500D02*X50300D01*
X48050Y499750D02*X48800Y500500D01*
X48050Y499750D02*Y498250D01*
X48800Y497500D01*
X51050Y500500D02*Y498250D01*
X51800Y497500D01*
X48800D02*X50300D01*
X51050Y498250D01*
X54350Y499750D02*Y497500D01*
Y499750D02*X55100Y500500D01*
X55850D01*
X56600Y499750D01*
Y497500D01*
Y499750D02*X57350Y500500D01*
X58100D01*
X58850Y499750D01*
Y497500D01*
X53600Y500500D02*X54350Y499750D01*
X60650Y497500D02*X61400D01*
X65900Y498250D02*X66650Y497500D01*
X65900Y502750D02*X66650Y503500D01*
X65900Y502750D02*Y498250D01*
X68450Y503500D02*X69950D01*
X69200D02*Y497500D01*
X68450D02*X69950D01*
X72500Y499750D02*Y497500D01*
Y499750D02*X73250Y500500D01*
X74000D01*
X74750Y499750D01*
Y497500D01*
X71750Y500500D02*X72500Y499750D01*
X77300Y500500D02*X79550D01*
X76550Y499750D02*X77300Y500500D01*
X76550Y499750D02*Y498250D01*
X77300Y497500D01*
X79550D01*
X81350Y503500D02*Y497500D01*
Y499750D02*X82100Y500500D01*
X83600D01*
X84350Y499750D01*
Y497500D01*
X86150Y503500D02*X86900Y502750D01*
Y498250D01*
X86150Y497500D02*X86900Y498250D01*
X41000Y494250D02*X88700D01*
X96050Y497500D02*X98000D01*
X95000Y498550D02*X96050Y497500D01*
X95000Y502450D02*Y498550D01*
Y502450D02*X96050Y503500D01*
X98000D01*
X99800Y499750D02*Y498250D01*
Y499750D02*X100550Y500500D01*
X102050D01*
X102800Y499750D01*
Y498250D01*
X102050Y497500D02*X102800Y498250D01*
X100550Y497500D02*X102050D01*
X99800Y498250D02*X100550Y497500D01*
X104600Y500500D02*Y498250D01*
X105350Y497500D01*
X106850D01*
X107600Y498250D01*
Y500500D02*Y498250D01*
X110150Y499750D02*Y497500D01*
Y499750D02*X110900Y500500D01*
X111650D01*
X112400Y499750D01*
Y497500D01*
X109400Y500500D02*X110150Y499750D01*
X114950Y503500D02*Y498250D01*
X115700Y497500D01*
X114200Y501250D02*X115700D01*
X95000Y494250D02*X117200D01*
X130750Y503500D02*Y497500D01*
X130000Y503500D02*X133000D01*
X133750Y502750D01*
Y501250D01*
X133000Y500500D02*X133750Y501250D01*
X130750Y500500D02*X133000D01*
X135550Y503500D02*Y498250D01*
X136300Y497500D01*
X140050Y500500D02*X140800Y499750D01*
X138550Y500500D02*X140050D01*
X137800Y499750D02*X138550Y500500D01*
X137800Y499750D02*Y498250D01*
X138550Y497500D01*
X140800Y500500D02*Y498250D01*
X141550Y497500D01*
X138550D02*X140050D01*
X140800Y498250D01*
X144100Y503500D02*Y498250D01*
X144850Y497500D01*
X143350Y501250D02*X144850D01*
X147100Y497500D02*X149350D01*
X146350Y498250D02*X147100Y497500D01*
X146350Y499750D02*Y498250D01*
Y499750D02*X147100Y500500D01*
X148600D01*
X149350Y499750D01*
X146350Y499000D02*X149350D01*
Y499750D02*Y499000D01*
X154150Y503500D02*Y497500D01*
X153400D02*X154150Y498250D01*
X151900Y497500D02*X153400D01*
X151150Y498250D02*X151900Y497500D01*
X151150Y499750D02*Y498250D01*
Y499750D02*X151900Y500500D01*
X153400D01*
X154150Y499750D01*
X157450Y500500D02*Y499750D01*
Y498250D02*Y497500D01*
X155950Y502750D02*Y502000D01*
Y502750D02*X156700Y503500D01*
X158200D01*
X158950Y502750D01*
Y502000D01*
X157450Y500500D02*X158950Y502000D01*
X130000Y494250D02*X160750D01*
X0Y518500D02*X3000D01*
X1500D02*Y512500D01*
X4800Y518500D02*Y512500D01*
Y514750D02*X5550Y515500D01*
X7050D01*
X7800Y514750D01*
Y512500D01*
X10350D02*X12600D01*
X9600Y513250D02*X10350Y512500D01*
X9600Y514750D02*Y513250D01*
Y514750D02*X10350Y515500D01*
X11850D01*
X12600Y514750D01*
X9600Y514000D02*X12600D01*
Y514750D02*Y514000D01*
X15150Y514750D02*Y512500D01*
Y514750D02*X15900Y515500D01*
X17400D01*
X14400D02*X15150Y514750D01*
X19950Y512500D02*X22200D01*
X19200Y513250D02*X19950Y512500D01*
X19200Y514750D02*Y513250D01*
Y514750D02*X19950Y515500D01*
X21450D01*
X22200Y514750D01*
X19200Y514000D02*X22200D01*
Y514750D02*Y514000D01*
X28950Y515500D02*X29700Y514750D01*
X27450Y515500D02*X28950D01*
X26700Y514750D02*X27450Y515500D01*
X26700Y514750D02*Y513250D01*
X27450Y512500D01*
X29700Y515500D02*Y513250D01*
X30450Y512500D01*
X27450D02*X28950D01*
X29700Y513250D01*
X33000Y514750D02*Y512500D01*
Y514750D02*X33750Y515500D01*
X35250D01*
X32250D02*X33000Y514750D01*
X37800Y512500D02*X40050D01*
X37050Y513250D02*X37800Y512500D01*
X37050Y514750D02*Y513250D01*
Y514750D02*X37800Y515500D01*
X39300D01*
X40050Y514750D01*
X37050Y514000D02*X40050D01*
Y514750D02*Y514000D01*
X44550Y517300D02*X45750Y518500D01*
Y512500D01*
X44550D02*X46800D01*
X48600Y513250D02*X49350Y512500D01*
X48600Y517750D02*Y513250D01*
Y517750D02*X49350Y518500D01*
X50850D01*
X51600Y517750D01*
Y513250D01*
X50850Y512500D02*X51600Y513250D01*
X49350Y512500D02*X50850D01*
X48600Y514000D02*X51600Y517000D01*
X59100Y518500D02*Y512500D01*
X58350D02*X59100Y513250D01*
X56850Y512500D02*X58350D01*
X56100Y513250D02*X56850Y512500D01*
X56100Y514750D02*Y513250D01*
Y514750D02*X56850Y515500D01*
X58350D01*
X59100Y514750D01*
G54D223*X60900Y517000D02*Y516850D01*
G54D222*Y514750D02*Y512500D01*
X63150Y517750D02*Y512500D01*
Y517750D02*X63900Y518500D01*
X64650D01*
X62400Y515500D02*X63900D01*
X66900Y517750D02*Y512500D01*
Y517750D02*X67650Y518500D01*
X68400D01*
X66150Y515500D02*X67650D01*
X70650Y512500D02*X72900D01*
X69900Y513250D02*X70650Y512500D01*
X69900Y514750D02*Y513250D01*
Y514750D02*X70650Y515500D01*
X72150D01*
X72900Y514750D01*
X69900Y514000D02*X72900D01*
Y514750D02*Y514000D01*
X75450Y514750D02*Y512500D01*
Y514750D02*X76200Y515500D01*
X77700D01*
X74700D02*X75450Y514750D01*
X80250Y512500D02*X82500D01*
X79500Y513250D02*X80250Y512500D01*
X79500Y514750D02*Y513250D01*
Y514750D02*X80250Y515500D01*
X81750D01*
X82500Y514750D01*
X79500Y514000D02*X82500D01*
Y514750D02*Y514000D01*
X85050Y514750D02*Y512500D01*
Y514750D02*X85800Y515500D01*
X86550D01*
X87300Y514750D01*
Y512500D01*
X84300Y515500D02*X85050Y514750D01*
X89850Y518500D02*Y513250D01*
X90600Y512500D01*
X89100Y516250D02*X90600D01*
X97800Y518500D02*Y512500D01*
X97050D02*X97800Y513250D01*
X95550Y512500D02*X97050D01*
X94800Y513250D02*X95550Y512500D01*
X94800Y514750D02*Y513250D01*
Y514750D02*X95550Y515500D01*
X97050D01*
X97800Y514750D01*
X100350D02*Y512500D01*
Y514750D02*X101100Y515500D01*
X102600D01*
X99600D02*X100350Y514750D01*
G54D223*X104400Y517000D02*Y516850D01*
G54D222*Y514750D02*Y512500D01*
X105900Y518500D02*Y513250D01*
X106650Y512500D01*
X108150Y518500D02*Y513250D01*
X108900Y512500D01*
X113850D02*X116100D01*
X116850Y513250D01*
X116100Y514000D02*X116850Y513250D01*
X113850Y514000D02*X116100D01*
X113100Y514750D02*X113850Y514000D01*
X113100Y514750D02*X113850Y515500D01*
X116100D01*
X116850Y514750D01*
X113100Y513250D02*X113850Y512500D01*
G54D223*X118650Y517000D02*Y516850D01*
G54D222*Y514750D02*Y512500D01*
X120150Y515500D02*X123150D01*
X120150Y512500D02*X123150Y515500D01*
X120150Y512500D02*X123150D01*
X125700D02*X127950D01*
X124950Y513250D02*X125700Y512500D01*
X124950Y514750D02*Y513250D01*
Y514750D02*X125700Y515500D01*
X127200D01*
X127950Y514750D01*
X124950Y514000D02*X127950D01*
Y514750D02*Y514000D01*
X130500Y512500D02*X132750D01*
X133500Y513250D01*
X132750Y514000D02*X133500Y513250D01*
X130500Y514000D02*X132750D01*
X129750Y514750D02*X130500Y514000D01*
X129750Y514750D02*X130500Y515500D01*
X132750D01*
X133500Y514750D01*
X129750Y513250D02*X130500Y512500D01*
X138000Y515500D02*Y513250D01*
X138750Y512500D01*
X140250D01*
X141000Y513250D01*
Y515500D02*Y513250D01*
X143550Y512500D02*X145800D01*
X146550Y513250D01*
X145800Y514000D02*X146550Y513250D01*
X143550Y514000D02*X145800D01*
X142800Y514750D02*X143550Y514000D01*
X142800Y514750D02*X143550Y515500D01*
X145800D01*
X146550Y514750D01*
X142800Y513250D02*X143550Y512500D01*
X149100D02*X151350D01*
X148350Y513250D02*X149100Y512500D01*
X148350Y514750D02*Y513250D01*
Y514750D02*X149100Y515500D01*
X150600D01*
X151350Y514750D01*
X148350Y514000D02*X151350D01*
Y514750D02*Y514000D01*
X156150Y518500D02*Y512500D01*
X155400D02*X156150Y513250D01*
X153900Y512500D02*X155400D01*
X153150Y513250D02*X153900Y512500D01*
X153150Y514750D02*Y513250D01*
Y514750D02*X153900Y515500D01*
X155400D01*
X156150Y514750D01*
G54D223*X160650Y517000D02*Y516850D01*
G54D222*Y514750D02*Y512500D01*
X162900Y514750D02*Y512500D01*
Y514750D02*X163650Y515500D01*
X164400D01*
X165150Y514750D01*
Y512500D01*
X162150Y515500D02*X162900Y514750D01*
X170400Y518500D02*Y513250D01*
X171150Y512500D01*
X169650Y516250D02*X171150D01*
X172650Y518500D02*Y512500D01*
Y514750D02*X173400Y515500D01*
X174900D01*
X175650Y514750D01*
Y512500D01*
G54D223*X177450Y517000D02*Y516850D01*
G54D222*Y514750D02*Y512500D01*
X179700D02*X181950D01*
X182700Y513250D01*
X181950Y514000D02*X182700Y513250D01*
X179700Y514000D02*X181950D01*
X178950Y514750D02*X179700Y514000D01*
X178950Y514750D02*X179700Y515500D01*
X181950D01*
X182700Y514750D01*
X178950Y513250D02*X179700Y512500D01*
X187200Y518500D02*Y513250D01*
X187950Y512500D01*
X191700Y515500D02*X192450Y514750D01*
X190200Y515500D02*X191700D01*
X189450Y514750D02*X190200Y515500D01*
X189450Y514750D02*Y513250D01*
X190200Y512500D01*
X192450Y515500D02*Y513250D01*
X193200Y512500D01*
X190200D02*X191700D01*
X192450Y513250D01*
X195000Y515500D02*Y513250D01*
X195750Y512500D01*
X198000Y515500D02*Y511000D01*
X197250Y510250D02*X198000Y511000D01*
X195750Y510250D02*X197250D01*
X195000Y511000D02*X195750Y510250D01*
Y512500D02*X197250D01*
X198000Y513250D01*
X199800Y514750D02*Y513250D01*
Y514750D02*X200550Y515500D01*
X202050D01*
X202800Y514750D01*
Y513250D01*
X202050Y512500D02*X202800Y513250D01*
X200550Y512500D02*X202050D01*
X199800Y513250D02*X200550Y512500D01*
X204600Y515500D02*Y513250D01*
X205350Y512500D01*
X206850D01*
X207600Y513250D01*
Y515500D02*Y513250D01*
X210150Y518500D02*Y513250D01*
X210900Y512500D01*
X209400Y516250D02*X210900D01*
X212400Y511000D02*X213900Y512500D01*
X219150D02*X221400Y515500D01*
Y517750D02*Y515500D01*
X220650Y518500D02*X221400Y517750D01*
X219150Y518500D02*X220650D01*
X218400Y517750D02*X219150Y518500D01*
X218400Y517750D02*Y516250D01*
X219150Y515500D01*
X221400D01*
X223200Y517750D02*X223950Y518500D01*
X225450D01*
X226200Y517750D01*
X225450Y512500D02*X226200Y513250D01*
X223950Y512500D02*X225450D01*
X223200Y513250D02*X223950Y512500D01*
Y515800D02*X225450D01*
X226200Y517750D02*Y516550D01*
Y515050D02*Y513250D01*
Y515050D02*X225450Y515800D01*
X226200Y516550D02*X225450Y515800D01*
X228750Y512500D02*X231000Y515500D01*
Y517750D02*Y515500D01*
X230250Y518500D02*X231000Y517750D01*
X228750Y518500D02*X230250D01*
X228000Y517750D02*X228750Y518500D01*
X228000Y517750D02*Y516250D01*
X228750Y515500D01*
X231000D01*
X235500Y518500D02*Y512500D01*
Y514750D02*X236250Y515500D01*
X237750D01*
X238500Y514750D01*
Y512500D01*
X240300Y514750D02*Y513250D01*
Y514750D02*X241050Y515500D01*
X242550D01*
X243300Y514750D01*
Y513250D01*
X242550Y512500D02*X243300Y513250D01*
X241050Y512500D02*X242550D01*
X240300Y513250D02*X241050Y512500D01*
X245100Y518500D02*Y513250D01*
X245850Y512500D01*
X248100D02*X250350D01*
X247350Y513250D02*X248100Y512500D01*
X247350Y514750D02*Y513250D01*
Y514750D02*X248100Y515500D01*
X249600D01*
X250350Y514750D01*
X247350Y514000D02*X250350D01*
Y514750D02*Y514000D01*
X252900Y512500D02*X255150D01*
X255900Y513250D01*
X255150Y514000D02*X255900Y513250D01*
X252900Y514000D02*X255150D01*
X252150Y514750D02*X252900Y514000D01*
X252150Y514750D02*X252900Y515500D01*
X255150D01*
X255900Y514750D01*
X252150Y513250D02*X252900Y512500D01*
X261150Y518500D02*Y513250D01*
X261900Y512500D01*
X260400Y516250D02*X261900D01*
X263400Y514750D02*Y513250D01*
Y514750D02*X264150Y515500D01*
X265650D01*
X266400Y514750D01*
Y513250D01*
X265650Y512500D02*X266400Y513250D01*
X264150Y512500D02*X265650D01*
X263400Y513250D02*X264150Y512500D01*
X268950Y518500D02*Y513250D01*
X269700Y512500D01*
X268200Y516250D02*X269700D01*
X273450Y515500D02*X274200Y514750D01*
X271950Y515500D02*X273450D01*
X271200Y514750D02*X271950Y515500D01*
X271200Y514750D02*Y513250D01*
X271950Y512500D01*
X274200Y515500D02*Y513250D01*
X274950Y512500D01*
X271950D02*X273450D01*
X274200Y513250D01*
X276750Y518500D02*Y513250D01*
X277500Y512500D01*
G54D224*X0Y340000D02*X420000D01*
X0D02*Y0D01*
X420000Y340000D02*Y0D01*
X0D02*X420000D01*
G54D222*X200000Y353500D02*Y347500D01*
Y353500D02*X202250Y350500D01*
X204500Y353500D01*
Y347500D01*
X208550Y350500D02*X209300Y349750D01*
X207050Y350500D02*X208550D01*
X206300Y349750D02*X207050Y350500D01*
X206300Y349750D02*Y348250D01*
X207050Y347500D01*
X209300Y350500D02*Y348250D01*
X210050Y347500D01*
X207050D02*X208550D01*
X209300Y348250D01*
X211850Y350500D02*X214850Y347500D01*
X211850D02*X214850Y350500D01*
G54D223*X216650Y352000D02*Y351850D01*
G54D222*Y349750D02*Y347500D01*
X218900Y349750D02*Y347500D01*
Y349750D02*X219650Y350500D01*
X220400D01*
X221150Y349750D01*
Y347500D01*
Y349750D02*X221900Y350500D01*
X222650D01*
X223400Y349750D01*
Y347500D01*
X218150Y350500D02*X218900Y349750D01*
X225200Y350500D02*Y348250D01*
X225950Y347500D01*
X227450D01*
X228200Y348250D01*
Y350500D02*Y348250D01*
X230750Y349750D02*Y347500D01*
Y349750D02*X231500Y350500D01*
X232250D01*
X233000Y349750D01*
Y347500D01*
Y349750D02*X233750Y350500D01*
X234500D01*
X235250Y349750D01*
Y347500D01*
X230000Y350500D02*X230750Y349750D01*
X240500Y353500D02*Y347500D01*
X242450Y353500D02*X243500Y352450D01*
Y348550D01*
X242450Y347500D02*X243500Y348550D01*
X239750Y347500D02*X242450D01*
X239750Y353500D02*X242450D01*
G54D223*X245300Y352000D02*Y351850D01*
G54D222*Y349750D02*Y347500D01*
X247550Y349750D02*Y347500D01*
Y349750D02*X248300Y350500D01*
X249050D01*
X249800Y349750D01*
Y347500D01*
Y349750D02*X250550Y350500D01*
X251300D01*
X252050Y349750D01*
Y347500D01*
X246800Y350500D02*X247550Y349750D01*
X254600Y347500D02*X256850D01*
X253850Y348250D02*X254600Y347500D01*
X253850Y349750D02*Y348250D01*
Y349750D02*X254600Y350500D01*
X256100D01*
X256850Y349750D01*
X253850Y349000D02*X256850D01*
Y349750D02*Y349000D01*
X259400Y349750D02*Y347500D01*
Y349750D02*X260150Y350500D01*
X260900D01*
X261650Y349750D01*
Y347500D01*
X258650Y350500D02*X259400Y349750D01*
X264200Y347500D02*X266450D01*
X267200Y348250D01*
X266450Y349000D02*X267200Y348250D01*
X264200Y349000D02*X266450D01*
X263450Y349750D02*X264200Y349000D01*
X263450Y349750D02*X264200Y350500D01*
X266450D01*
X267200Y349750D01*
X263450Y348250D02*X264200Y347500D01*
G54D223*X269000Y352000D02*Y351850D01*
G54D222*Y349750D02*Y347500D01*
X270500Y349750D02*Y348250D01*
Y349750D02*X271250Y350500D01*
X272750D01*
X273500Y349750D01*
Y348250D01*
X272750Y347500D02*X273500Y348250D01*
X271250Y347500D02*X272750D01*
X270500Y348250D02*X271250Y347500D01*
X276050Y349750D02*Y347500D01*
Y349750D02*X276800Y350500D01*
X277550D01*
X278300Y349750D01*
Y347500D01*
X275300Y350500D02*X276050Y349750D01*
X280850Y347500D02*X283100D01*
X283850Y348250D01*
X283100Y349000D02*X283850Y348250D01*
X280850Y349000D02*X283100D01*
X280100Y349750D02*X280850Y349000D01*
X280100Y349750D02*X280850Y350500D01*
X283100D01*
X283850Y349750D01*
X280100Y348250D02*X280850Y347500D01*
X285650Y351250D02*X286400D01*
X285650Y349750D02*X286400D01*
X290900D02*X293900Y353500D01*
X290900Y349750D02*X294650D01*
X293900Y353500D02*Y347500D01*
X296450Y352750D02*X297200Y353500D01*
X299450D01*
X300200Y352750D01*
Y351250D01*
X296450Y347500D02*X300200Y351250D01*
X296450Y347500D02*X300200D01*
X302000Y348250D02*X302750Y347500D01*
X302000Y352750D02*Y348250D01*
Y352750D02*X302750Y353500D01*
X304250D01*
X305000Y352750D01*
Y348250D01*
X304250Y347500D02*X305000Y348250D01*
X302750Y347500D02*X304250D01*
X302000Y349000D02*X305000Y352000D01*
X306800Y348250D02*X307550Y347500D01*
X306800Y352750D02*Y348250D01*
Y352750D02*X307550Y353500D01*
X309050D01*
X309800Y352750D01*
Y348250D01*
X309050Y347500D02*X309800Y348250D01*
X307550Y347500D02*X309050D01*
X306800Y349000D02*X309800Y352000D01*
X311600Y347500D02*X312350D01*
X314150Y348250D02*X314900Y347500D01*
X314150Y352750D02*Y348250D01*
Y352750D02*X314900Y353500D01*
X316400D01*
X317150Y352750D01*
Y348250D01*
X316400Y347500D02*X317150Y348250D01*
X314900Y347500D02*X316400D01*
X314150Y349000D02*X317150Y352000D01*
X318950Y348250D02*X319700Y347500D01*
X318950Y352750D02*Y348250D01*
Y352750D02*X319700Y353500D01*
X321200D01*
X321950Y352750D01*
Y348250D01*
X321200Y347500D02*X321950Y348250D01*
X319700Y347500D02*X321200D01*
X318950Y349000D02*X321950Y352000D01*
X323750Y348250D02*X324500Y347500D01*
X323750Y352750D02*Y348250D01*
Y352750D02*X324500Y353500D01*
X326000D01*
X326750Y352750D01*
Y348250D01*
X326000Y347500D02*X326750Y348250D01*
X324500Y347500D02*X326000D01*
X323750Y349000D02*X326750Y352000D01*
X328550Y348250D02*X329300Y347500D01*
X328550Y352750D02*Y348250D01*
Y352750D02*X329300Y353500D01*
X330800D01*
X331550Y352750D01*
Y348250D01*
X330800Y347500D02*X331550Y348250D01*
X329300Y347500D02*X330800D01*
X328550Y349000D02*X331550Y352000D01*
X333350Y348250D02*X334100Y347500D01*
X333350Y352750D02*Y348250D01*
Y352750D02*X334100Y353500D01*
X335600D01*
X336350Y352750D01*
Y348250D01*
X335600Y347500D02*X336350Y348250D01*
X334100Y347500D02*X335600D01*
X333350Y349000D02*X336350Y352000D01*
X338150Y348250D02*X338900Y347500D01*
X338150Y352750D02*Y348250D01*
Y352750D02*X338900Y353500D01*
X340400D01*
X341150Y352750D01*
Y348250D01*
X340400Y347500D02*X341150Y348250D01*
X338900Y347500D02*X340400D01*
X338150Y349000D02*X341150Y352000D01*
X346400Y349750D02*Y347500D01*
Y349750D02*X347150Y350500D01*
X347900D01*
X348650Y349750D01*
Y347500D01*
Y349750D02*X349400Y350500D01*
X350150D01*
X350900Y349750D01*
Y347500D01*
X345650Y350500D02*X346400Y349750D01*
G54D223*X352700Y352000D02*Y351850D01*
G54D222*Y349750D02*Y347500D01*
X354200Y353500D02*Y348250D01*
X354950Y347500D01*
X357200D02*X359450D01*
X360200Y348250D01*
X359450Y349000D02*X360200Y348250D01*
X357200Y349000D02*X359450D01*
X356450Y349750D02*X357200Y349000D01*
X356450Y349750D02*X357200Y350500D01*
X359450D01*
X360200Y349750D01*
X356450Y348250D02*X357200Y347500D01*
X364700Y350500D02*Y348250D01*
X365450Y347500D01*
X366200D01*
X366950Y348250D01*
Y350500D02*Y348250D01*
X367700Y347500D01*
X368450D01*
X369200Y348250D01*
Y350500D02*Y348250D01*
G54D223*X371000Y352000D02*Y351850D01*
G54D222*Y349750D02*Y347500D01*
X375500Y353500D02*Y347500D01*
X374750D02*X375500Y348250D01*
X373250Y347500D02*X374750D01*
X372500Y348250D02*X373250Y347500D01*
X372500Y349750D02*Y348250D01*
Y349750D02*X373250Y350500D01*
X374750D01*
X375500Y349750D01*
X378050Y347500D02*X380300D01*
X377300Y348250D02*X378050Y347500D01*
X377300Y349750D02*Y348250D01*
Y349750D02*X378050Y350500D01*
X379550D01*
X380300Y349750D01*
X377300Y349000D02*X380300D01*
Y349750D02*Y349000D01*
X382100Y346000D02*X383600Y347500D01*
X388100Y352750D02*X388850Y353500D01*
X390350D01*
X391100Y352750D01*
X390350Y347500D02*X391100Y348250D01*
X388850Y347500D02*X390350D01*
X388100Y348250D02*X388850Y347500D01*
Y350800D02*X390350D01*
X391100Y352750D02*Y351550D01*
Y350050D02*Y348250D01*
Y350050D02*X390350Y350800D01*
X391100Y351550D02*X390350Y350800D01*
X392900Y349750D02*X395900Y353500D01*
X392900Y349750D02*X396650D01*
X395900Y353500D02*Y347500D01*
X398450Y348250D02*X399200Y347500D01*
X398450Y352750D02*Y348250D01*
Y352750D02*X399200Y353500D01*
X400700D01*
X401450Y352750D01*
Y348250D01*
X400700Y347500D02*X401450Y348250D01*
X399200Y347500D02*X400700D01*
X398450Y349000D02*X401450Y352000D01*
X403250Y348250D02*X404000Y347500D01*
X403250Y352750D02*Y348250D01*
Y352750D02*X404000Y353500D01*
X405500D01*
X406250Y352750D01*
Y348250D01*
X405500Y347500D02*X406250Y348250D01*
X404000Y347500D02*X405500D01*
X403250Y349000D02*X406250Y352000D01*
X408050Y347500D02*X408800D01*
X410600Y348250D02*X411350Y347500D01*
X410600Y352750D02*Y348250D01*
Y352750D02*X411350Y353500D01*
X412850D01*
X413600Y352750D01*
Y348250D01*
X412850Y347500D02*X413600Y348250D01*
X411350Y347500D02*X412850D01*
X410600Y349000D02*X413600Y352000D01*
X415400Y348250D02*X416150Y347500D01*
X415400Y352750D02*Y348250D01*
Y352750D02*X416150Y353500D01*
X417650D01*
X418400Y352750D01*
Y348250D01*
X417650Y347500D02*X418400Y348250D01*
X416150Y347500D02*X417650D01*
X415400Y349000D02*X418400Y352000D01*
X420200Y348250D02*X420950Y347500D01*
X420200Y352750D02*Y348250D01*
Y352750D02*X420950Y353500D01*
X422450D01*
X423200Y352750D01*
Y348250D01*
X422450Y347500D02*X423200Y348250D01*
X420950Y347500D02*X422450D01*
X420200Y349000D02*X423200Y352000D01*
X425000Y348250D02*X425750Y347500D01*
X425000Y352750D02*Y348250D01*
Y352750D02*X425750Y353500D01*
X427250D01*
X428000Y352750D01*
Y348250D01*
X427250Y347500D02*X428000Y348250D01*
X425750Y347500D02*X427250D01*
X425000Y349000D02*X428000Y352000D01*
X429800Y348250D02*X430550Y347500D01*
X429800Y352750D02*Y348250D01*
Y352750D02*X430550Y353500D01*
X432050D01*
X432800Y352750D01*
Y348250D01*
X432050Y347500D02*X432800Y348250D01*
X430550Y347500D02*X432050D01*
X429800Y349000D02*X432800Y352000D01*
X434600Y348250D02*X435350Y347500D01*
X434600Y352750D02*Y348250D01*
Y352750D02*X435350Y353500D01*
X436850D01*
X437600Y352750D01*
Y348250D01*
X436850Y347500D02*X437600Y348250D01*
X435350Y347500D02*X436850D01*
X434600Y349000D02*X437600Y352000D01*
X442850Y349750D02*Y347500D01*
Y349750D02*X443600Y350500D01*
X444350D01*
X445100Y349750D01*
Y347500D01*
Y349750D02*X445850Y350500D01*
X446600D01*
X447350Y349750D01*
Y347500D01*
X442100Y350500D02*X442850Y349750D01*
G54D223*X449150Y352000D02*Y351850D01*
G54D222*Y349750D02*Y347500D01*
X450650Y353500D02*Y348250D01*
X451400Y347500D01*
X453650D02*X455900D01*
X456650Y348250D01*
X455900Y349000D02*X456650Y348250D01*
X453650Y349000D02*X455900D01*
X452900Y349750D02*X453650Y349000D01*
X452900Y349750D02*X453650Y350500D01*
X455900D01*
X456650Y349750D01*
X452900Y348250D02*X453650Y347500D01*
X461150Y353500D02*Y347500D01*
Y349750D02*X461900Y350500D01*
X463400D01*
X464150Y349750D01*
Y347500D01*
G54D223*X465950Y352000D02*Y351850D01*
G54D222*Y349750D02*Y347500D01*
X469700Y350500D02*X470450Y349750D01*
X468200Y350500D02*X469700D01*
X467450Y349750D02*X468200Y350500D01*
X467450Y349750D02*Y348250D01*
X468200Y347500D01*
X469700D01*
X470450Y348250D01*
X467450Y346000D02*X468200Y345250D01*
X469700D01*
X470450Y346000D01*
Y350500D02*Y346000D01*
X472250Y353500D02*Y347500D01*
Y349750D02*X473000Y350500D01*
X474500D01*
X475250Y349750D01*
Y347500D01*
X6150Y-9500D02*X9150D01*
X9900Y-8750D01*
Y-6950D02*Y-8750D01*
X9150Y-6200D02*X9900Y-6950D01*
X6900Y-6200D02*X9150D01*
X6900Y-3500D02*Y-9500D01*
X6150Y-3500D02*X9150D01*
X9900Y-4250D01*
Y-5450D01*
X9150Y-6200D02*X9900Y-5450D01*
X11700Y-7250D02*Y-8750D01*
Y-7250D02*X12450Y-6500D01*
X13950D01*
X14700Y-7250D01*
Y-8750D01*
X13950Y-9500D02*X14700Y-8750D01*
X12450Y-9500D02*X13950D01*
X11700Y-8750D02*X12450Y-9500D01*
X18750Y-6500D02*X19500Y-7250D01*
X17250Y-6500D02*X18750D01*
X16500Y-7250D02*X17250Y-6500D01*
X16500Y-7250D02*Y-8750D01*
X17250Y-9500D01*
X19500Y-6500D02*Y-8750D01*
X20250Y-9500D01*
X17250D02*X18750D01*
X19500Y-8750D01*
X22800Y-7250D02*Y-9500D01*
Y-7250D02*X23550Y-6500D01*
X25050D01*
X22050D02*X22800Y-7250D01*
X29850Y-3500D02*Y-9500D01*
X29100D02*X29850Y-8750D01*
X27600Y-9500D02*X29100D01*
X26850Y-8750D02*X27600Y-9500D01*
X26850Y-7250D02*Y-8750D01*
Y-7250D02*X27600Y-6500D01*
X29100D01*
X29850Y-7250D01*
X34350D02*Y-8750D01*
Y-7250D02*X35100Y-6500D01*
X36600D01*
X37350Y-7250D01*
Y-8750D01*
X36600Y-9500D02*X37350Y-8750D01*
X35100Y-9500D02*X36600D01*
X34350Y-8750D02*X35100Y-9500D01*
X39150Y-6500D02*Y-8750D01*
X39900Y-9500D01*
X41400D01*
X42150Y-8750D01*
Y-6500D02*Y-8750D01*
X44700Y-3500D02*Y-8750D01*
X45450Y-9500D01*
X43950Y-5750D02*X45450D01*
X46950Y-3500D02*Y-8750D01*
X47700Y-9500D01*
G54D223*X49200Y-5000D02*Y-5150D01*
G54D222*Y-7250D02*Y-9500D01*
X51450Y-7250D02*Y-9500D01*
Y-7250D02*X52200Y-6500D01*
X52950D01*
X53700Y-7250D01*
Y-9500D01*
X50700Y-6500D02*X51450Y-7250D01*
X56250Y-9500D02*X58500D01*
X55500Y-8750D02*X56250Y-9500D01*
X55500Y-7250D02*Y-8750D01*
Y-7250D02*X56250Y-6500D01*
X57750D01*
X58500Y-7250D01*
X55500Y-8000D02*X58500D01*
Y-7250D02*Y-8000D01*
G54D223*X63000Y-5000D02*Y-5150D01*
G54D222*Y-7250D02*Y-9500D01*
X65250D02*X67500D01*
X68250Y-8750D01*
X67500Y-8000D02*X68250Y-8750D01*
X65250Y-8000D02*X67500D01*
X64500Y-7250D02*X65250Y-8000D01*
X64500Y-7250D02*X65250Y-6500D01*
X67500D01*
X68250Y-7250D01*
X64500Y-8750D02*X65250Y-9500D01*
X73500Y-3500D02*Y-8750D01*
X74250Y-9500D01*
X72750Y-5750D02*X74250D01*
X75750Y-3500D02*Y-9500D01*
Y-7250D02*X76500Y-6500D01*
X78000D01*
X78750Y-7250D01*
Y-9500D01*
X81300D02*X83550D01*
X80550Y-8750D02*X81300Y-9500D01*
X80550Y-7250D02*Y-8750D01*
Y-7250D02*X81300Y-6500D01*
X82800D01*
X83550Y-7250D01*
X80550Y-8000D02*X83550D01*
Y-7250D02*Y-8000D01*
X88800Y-6500D02*X91050D01*
X88050Y-7250D02*X88800Y-6500D01*
X88050Y-7250D02*Y-8750D01*
X88800Y-9500D01*
X91050D01*
X93600D02*X95850D01*
X92850Y-8750D02*X93600Y-9500D01*
X92850Y-7250D02*Y-8750D01*
Y-7250D02*X93600Y-6500D01*
X95100D01*
X95850Y-7250D01*
X92850Y-8000D02*X95850D01*
Y-7250D02*Y-8000D01*
X98400Y-7250D02*Y-9500D01*
Y-7250D02*X99150Y-6500D01*
X99900D01*
X100650Y-7250D01*
Y-9500D01*
X97650Y-6500D02*X98400Y-7250D01*
X103200Y-3500D02*Y-8750D01*
X103950Y-9500D01*
X102450Y-5750D02*X103950D01*
X106200Y-9500D02*X108450D01*
X105450Y-8750D02*X106200Y-9500D01*
X105450Y-7250D02*Y-8750D01*
Y-7250D02*X106200Y-6500D01*
X107700D01*
X108450Y-7250D01*
X105450Y-8000D02*X108450D01*
Y-7250D02*Y-8000D01*
X111000Y-7250D02*Y-9500D01*
Y-7250D02*X111750Y-6500D01*
X113250D01*
X110250D02*X111000Y-7250D01*
X115050Y-3500D02*Y-8750D01*
X115800Y-9500D01*
G54D223*X117300Y-5000D02*Y-5150D01*
G54D222*Y-7250D02*Y-9500D01*
X119550Y-7250D02*Y-9500D01*
Y-7250D02*X120300Y-6500D01*
X121050D01*
X121800Y-7250D01*
Y-9500D01*
X118800Y-6500D02*X119550Y-7250D01*
X124350Y-9500D02*X126600D01*
X123600Y-8750D02*X124350Y-9500D01*
X123600Y-7250D02*Y-8750D01*
Y-7250D02*X124350Y-6500D01*
X125850D01*
X126600Y-7250D01*
X123600Y-8000D02*X126600D01*
Y-7250D02*Y-8000D01*
X131100Y-7250D02*Y-8750D01*
Y-7250D02*X131850Y-6500D01*
X133350D01*
X134100Y-7250D01*
Y-8750D01*
X133350Y-9500D02*X134100Y-8750D01*
X131850Y-9500D02*X133350D01*
X131100Y-8750D02*X131850Y-9500D01*
X136650Y-4250D02*Y-9500D01*
Y-4250D02*X137400Y-3500D01*
X138150D01*
X135900Y-6500D02*X137400D01*
X143100Y-3500D02*Y-8750D01*
X143850Y-9500D01*
X142350Y-5750D02*X143850D01*
X145350Y-3500D02*Y-9500D01*
Y-7250D02*X146100Y-6500D01*
X147600D01*
X148350Y-7250D01*
Y-9500D01*
G54D223*X150150Y-5000D02*Y-5150D01*
G54D222*Y-7250D02*Y-9500D01*
X152400D02*X154650D01*
X155400Y-8750D01*
X154650Y-8000D02*X155400Y-8750D01*
X152400Y-8000D02*X154650D01*
X151650Y-7250D02*X152400Y-8000D01*
X151650Y-7250D02*X152400Y-6500D01*
X154650D01*
X155400Y-7250D01*
X151650Y-8750D02*X152400Y-9500D01*
X159900Y-8750D02*X160650Y-9500D01*
X159900Y-7550D02*Y-8750D01*
Y-7550D02*X160950Y-6500D01*
X161850D01*
X162900Y-7550D01*
Y-8750D01*
X162150Y-9500D02*X162900Y-8750D01*
X160650Y-9500D02*X162150D01*
X159900Y-5450D02*X160950Y-6500D01*
X159900Y-4250D02*Y-5450D01*
Y-4250D02*X160650Y-3500D01*
X162150D01*
X162900Y-4250D01*
Y-5450D01*
X161850Y-6500D02*X162900Y-5450D01*
X164700Y-9500D02*X165450D01*
X167250Y-8750D02*X168000Y-9500D01*
X167250Y-4250D02*Y-8750D01*
Y-4250D02*X168000Y-3500D01*
X169500D01*
X170250Y-4250D01*
Y-8750D01*
X169500Y-9500D02*X170250Y-8750D01*
X168000Y-9500D02*X169500D01*
X167250Y-8000D02*X170250Y-5000D01*
X172050Y-8750D02*X172800Y-9500D01*
X172050Y-4250D02*Y-8750D01*
Y-4250D02*X172800Y-3500D01*
X174300D01*
X175050Y-4250D01*
Y-8750D01*
X174300Y-9500D02*X175050Y-8750D01*
X172800Y-9500D02*X174300D01*
X172050Y-8000D02*X175050Y-5000D01*
X176850Y-8750D02*X177600Y-9500D01*
X176850Y-4250D02*Y-8750D01*
Y-4250D02*X177600Y-3500D01*
X179100D01*
X179850Y-4250D01*
Y-8750D01*
X179100Y-9500D02*X179850Y-8750D01*
X177600Y-9500D02*X179100D01*
X176850Y-8000D02*X179850Y-5000D01*
X181650Y-8750D02*X182400Y-9500D01*
X181650Y-4250D02*Y-8750D01*
Y-4250D02*X182400Y-3500D01*
X183900D01*
X184650Y-4250D01*
Y-8750D01*
X183900Y-9500D02*X184650Y-8750D01*
X182400Y-9500D02*X183900D01*
X181650Y-8000D02*X184650Y-5000D01*
X186450Y-8750D02*X187200Y-9500D01*
X186450Y-4250D02*Y-8750D01*
Y-4250D02*X187200Y-3500D01*
X188700D01*
X189450Y-4250D01*
Y-8750D01*
X188700Y-9500D02*X189450Y-8750D01*
X187200Y-9500D02*X188700D01*
X186450Y-8000D02*X189450Y-5000D01*
X191250Y-8750D02*X192000Y-9500D01*
X191250Y-4250D02*Y-8750D01*
Y-4250D02*X192000Y-3500D01*
X193500D01*
X194250Y-4250D01*
Y-8750D01*
X193500Y-9500D02*X194250Y-8750D01*
X192000Y-9500D02*X193500D01*
X191250Y-8000D02*X194250Y-5000D01*
X199500Y-7250D02*Y-9500D01*
Y-7250D02*X200250Y-6500D01*
X201000D01*
X201750Y-7250D01*
Y-9500D01*
Y-7250D02*X202500Y-6500D01*
X203250D01*
X204000Y-7250D01*
Y-9500D01*
X198750Y-6500D02*X199500Y-7250D01*
G54D223*X205800Y-5000D02*Y-5150D01*
G54D222*Y-7250D02*Y-9500D01*
X207300Y-3500D02*Y-8750D01*
X208050Y-9500D01*
X213000Y-7250D02*Y-9500D01*
Y-7250D02*X213750Y-6500D01*
X215250D01*
X212250D02*X213000Y-7250D01*
X217800Y-9500D02*X220050D01*
X217050Y-8750D02*X217800Y-9500D01*
X217050Y-7250D02*Y-8750D01*
Y-7250D02*X217800Y-6500D01*
X219300D01*
X220050Y-7250D01*
X217050Y-8000D02*X220050D01*
Y-7250D02*Y-8000D01*
X222600Y-6500D02*X224850D01*
X221850Y-7250D02*X222600Y-6500D01*
X221850Y-7250D02*Y-8750D01*
X222600Y-9500D01*
X224850D01*
X227400Y-3500D02*Y-8750D01*
X228150Y-9500D01*
X226650Y-5750D02*X228150D01*
X231900Y-6500D02*X232650Y-7250D01*
X230400Y-6500D02*X231900D01*
X229650Y-7250D02*X230400Y-6500D01*
X229650Y-7250D02*Y-8750D01*
X230400Y-9500D01*
X232650Y-6500D02*Y-8750D01*
X233400Y-9500D01*
X230400D02*X231900D01*
X232650Y-8750D01*
X235950Y-7250D02*Y-9500D01*
Y-7250D02*X236700Y-6500D01*
X237450D01*
X238200Y-7250D01*
Y-9500D01*
X235200Y-6500D02*X235950Y-7250D01*
X242250Y-6500D02*X243000Y-7250D01*
X240750Y-6500D02*X242250D01*
X240000Y-7250D02*X240750Y-6500D01*
X240000Y-7250D02*Y-8750D01*
X240750Y-9500D01*
X242250D01*
X243000Y-8750D01*
X240000Y-11000D02*X240750Y-11750D01*
X242250D01*
X243000Y-11000D01*
Y-6500D02*Y-11000D01*
X244800Y-3500D02*Y-8750D01*
X245550Y-9500D01*
X247800D02*X250050D01*
X247050Y-8750D02*X247800Y-9500D01*
X247050Y-7250D02*Y-8750D01*
Y-7250D02*X247800Y-6500D01*
X249300D01*
X250050Y-7250D01*
X247050Y-8000D02*X250050D01*
Y-7250D02*Y-8000D01*
X254550Y-6500D02*X257550D01*
X262050Y-8750D02*X262800Y-9500D01*
X262050Y-4250D02*Y-8750D01*
Y-4250D02*X262800Y-3500D01*
X264300D01*
X265050Y-4250D01*
Y-8750D01*
X264300Y-9500D02*X265050Y-8750D01*
X262800Y-9500D02*X264300D01*
X262050Y-8000D02*X265050Y-5000D01*
X266850Y-11000D02*X268350Y-9500D01*
X270150Y-8750D02*X270900Y-9500D01*
X270150Y-4250D02*Y-8750D01*
Y-4250D02*X270900Y-3500D01*
X272400D01*
X273150Y-4250D01*
Y-8750D01*
X272400Y-9500D02*X273150Y-8750D01*
X270900Y-9500D02*X272400D01*
X270150Y-8000D02*X273150Y-5000D01*
X278400Y-3500D02*Y-8750D01*
X279150Y-9500D01*
X277650Y-5750D02*X279150D01*
X280650Y-7250D02*Y-8750D01*
Y-7250D02*X281400Y-6500D01*
X282900D01*
X283650Y-7250D01*
Y-8750D01*
X282900Y-9500D02*X283650Y-8750D01*
X281400Y-9500D02*X282900D01*
X280650Y-8750D02*X281400Y-9500D01*
X288150Y-7250D02*X291150Y-3500D01*
X288150Y-7250D02*X291900D01*
X291150Y-3500D02*Y-9500D01*
X293700Y-4250D02*X294450Y-3500D01*
X296700D01*
X297450Y-4250D01*
Y-5750D01*
X293700Y-9500D02*X297450Y-5750D01*
X293700Y-9500D02*X297450D01*
X299250Y-8750D02*X300000Y-9500D01*
X299250Y-4250D02*Y-8750D01*
Y-4250D02*X300000Y-3500D01*
X301500D01*
X302250Y-4250D01*
Y-8750D01*
X301500Y-9500D02*X302250Y-8750D01*
X300000Y-9500D02*X301500D01*
X299250Y-8000D02*X302250Y-5000D01*
X304050Y-8750D02*X304800Y-9500D01*
X304050Y-4250D02*Y-8750D01*
Y-4250D02*X304800Y-3500D01*
X306300D01*
X307050Y-4250D01*
Y-8750D01*
X306300Y-9500D02*X307050Y-8750D01*
X304800Y-9500D02*X306300D01*
X304050Y-8000D02*X307050Y-5000D01*
X308850Y-9500D02*X309600D01*
X311400Y-8750D02*X312150Y-9500D01*
X311400Y-4250D02*Y-8750D01*
Y-4250D02*X312150Y-3500D01*
X313650D01*
X314400Y-4250D01*
Y-8750D01*
X313650Y-9500D02*X314400Y-8750D01*
X312150Y-9500D02*X313650D01*
X311400Y-8000D02*X314400Y-5000D01*
X316200Y-8750D02*X316950Y-9500D01*
X316200Y-4250D02*Y-8750D01*
Y-4250D02*X316950Y-3500D01*
X318450D01*
X319200Y-4250D01*
Y-8750D01*
X318450Y-9500D02*X319200Y-8750D01*
X316950Y-9500D02*X318450D01*
X316200Y-8000D02*X319200Y-5000D01*
X321000Y-8750D02*X321750Y-9500D01*
X321000Y-4250D02*Y-8750D01*
Y-4250D02*X321750Y-3500D01*
X323250D01*
X324000Y-4250D01*
Y-8750D01*
X323250Y-9500D02*X324000Y-8750D01*
X321750Y-9500D02*X323250D01*
X321000Y-8000D02*X324000Y-5000D01*
X325800Y-8750D02*X326550Y-9500D01*
X325800Y-4250D02*Y-8750D01*
Y-4250D02*X326550Y-3500D01*
X328050D01*
X328800Y-4250D01*
Y-8750D01*
X328050Y-9500D02*X328800Y-8750D01*
X326550Y-9500D02*X328050D01*
X325800Y-8000D02*X328800Y-5000D01*
X330600Y-8750D02*X331350Y-9500D01*
X330600Y-4250D02*Y-8750D01*
Y-4250D02*X331350Y-3500D01*
X332850D01*
X333600Y-4250D01*
Y-8750D01*
X332850Y-9500D02*X333600Y-8750D01*
X331350Y-9500D02*X332850D01*
X330600Y-8000D02*X333600Y-5000D01*
X335400Y-8750D02*X336150Y-9500D01*
X335400Y-4250D02*Y-8750D01*
Y-4250D02*X336150Y-3500D01*
X337650D01*
X338400Y-4250D01*
Y-8750D01*
X337650Y-9500D02*X338400Y-8750D01*
X336150Y-9500D02*X337650D01*
X335400Y-8000D02*X338400Y-5000D01*
X340200Y-11000D02*X341700Y-9500D01*
X343500Y-4250D02*X344250Y-3500D01*
X345750D01*
X346500Y-4250D01*
X345750Y-9500D02*X346500Y-8750D01*
X344250Y-9500D02*X345750D01*
X343500Y-8750D02*X344250Y-9500D01*
Y-6200D02*X345750D01*
X346500Y-4250D02*Y-5450D01*
Y-6950D02*Y-8750D01*
Y-6950D02*X345750Y-6200D01*
X346500Y-5450D02*X345750Y-6200D01*
X348300Y-7250D02*X351300Y-3500D01*
X348300Y-7250D02*X352050D01*
X351300Y-3500D02*Y-9500D01*
X353850Y-8750D02*X354600Y-9500D01*
X353850Y-4250D02*Y-8750D01*
Y-4250D02*X354600Y-3500D01*
X356100D01*
X356850Y-4250D01*
Y-8750D01*
X356100Y-9500D02*X356850Y-8750D01*
X354600Y-9500D02*X356100D01*
X353850Y-8000D02*X356850Y-5000D01*
X358650Y-8750D02*X359400Y-9500D01*
X358650Y-4250D02*Y-8750D01*
Y-4250D02*X359400Y-3500D01*
X360900D01*
X361650Y-4250D01*
Y-8750D01*
X360900Y-9500D02*X361650Y-8750D01*
X359400Y-9500D02*X360900D01*
X358650Y-8000D02*X361650Y-5000D01*
X363450Y-9500D02*X364200D01*
X366000Y-8750D02*X366750Y-9500D01*
X366000Y-4250D02*Y-8750D01*
Y-4250D02*X366750Y-3500D01*
X368250D01*
X369000Y-4250D01*
Y-8750D01*
X368250Y-9500D02*X369000Y-8750D01*
X366750Y-9500D02*X368250D01*
X366000Y-8000D02*X369000Y-5000D01*
X370800Y-8750D02*X371550Y-9500D01*
X370800Y-4250D02*Y-8750D01*
Y-4250D02*X371550Y-3500D01*
X373050D01*
X373800Y-4250D01*
Y-8750D01*
X373050Y-9500D02*X373800Y-8750D01*
X371550Y-9500D02*X373050D01*
X370800Y-8000D02*X373800Y-5000D01*
X375600Y-8750D02*X376350Y-9500D01*
X375600Y-4250D02*Y-8750D01*
Y-4250D02*X376350Y-3500D01*
X377850D01*
X378600Y-4250D01*
Y-8750D01*
X377850Y-9500D02*X378600Y-8750D01*
X376350Y-9500D02*X377850D01*
X375600Y-8000D02*X378600Y-5000D01*
X380400Y-8750D02*X381150Y-9500D01*
X380400Y-4250D02*Y-8750D01*
Y-4250D02*X381150Y-3500D01*
X382650D01*
X383400Y-4250D01*
Y-8750D01*
X382650Y-9500D02*X383400Y-8750D01*
X381150Y-9500D02*X382650D01*
X380400Y-8000D02*X383400Y-5000D01*
X385200Y-8750D02*X385950Y-9500D01*
X385200Y-4250D02*Y-8750D01*
Y-4250D02*X385950Y-3500D01*
X387450D01*
X388200Y-4250D01*
Y-8750D01*
X387450Y-9500D02*X388200Y-8750D01*
X385950Y-9500D02*X387450D01*
X385200Y-8000D02*X388200Y-5000D01*
X390000Y-8750D02*X390750Y-9500D01*
X390000Y-4250D02*Y-8750D01*
Y-4250D02*X390750Y-3500D01*
X392250D01*
X393000Y-4250D01*
Y-8750D01*
X392250Y-9500D02*X393000Y-8750D01*
X390750Y-9500D02*X392250D01*
X390000Y-8000D02*X393000Y-5000D01*
X398250Y-7250D02*Y-9500D01*
Y-7250D02*X399000Y-6500D01*
X399750D01*
X400500Y-7250D01*
Y-9500D01*
Y-7250D02*X401250Y-6500D01*
X402000D01*
X402750Y-7250D01*
Y-9500D01*
X397500Y-6500D02*X398250Y-7250D01*
G54D223*X404550Y-5000D02*Y-5150D01*
G54D222*Y-7250D02*Y-9500D01*
X406050Y-3500D02*Y-8750D01*
X406800Y-9500D01*
X409050D02*X411300D01*
X412050Y-8750D01*
X411300Y-8000D02*X412050Y-8750D01*
X409050Y-8000D02*X411300D01*
X408300Y-7250D02*X409050Y-8000D01*
X408300Y-7250D02*X409050Y-6500D01*
X411300D01*
X412050Y-7250D01*
X408300Y-8750D02*X409050Y-9500D01*
X200750Y368500D02*Y362500D01*
X202700Y368500D02*X203750Y367450D01*
Y363550D01*
X202700Y362500D02*X203750Y363550D01*
X200000Y362500D02*X202700D01*
X200000Y368500D02*X202700D01*
X207800Y365500D02*X208550Y364750D01*
X206300Y365500D02*X207800D01*
X205550Y364750D02*X206300Y365500D01*
X205550Y364750D02*Y363250D01*
X206300Y362500D01*
X208550Y365500D02*Y363250D01*
X209300Y362500D01*
X206300D02*X207800D01*
X208550Y363250D01*
X211850Y368500D02*Y363250D01*
X212600Y362500D01*
X211100Y366250D02*X212600D01*
X214850Y362500D02*X217100D01*
X214100Y363250D02*X214850Y362500D01*
X214100Y364750D02*Y363250D01*
Y364750D02*X214850Y365500D01*
X216350D01*
X217100Y364750D01*
X214100Y364000D02*X217100D01*
Y364750D02*Y364000D01*
X218900Y366250D02*X219650D01*
X218900Y364750D02*X219650D01*
X224150Y368500D02*X227150D01*
X225650D02*Y362500D01*
X228950Y365500D02*Y363250D01*
X229700Y362500D01*
X231200D01*
X231950Y363250D01*
Y365500D02*Y363250D01*
X234500Y362500D02*X236750D01*
X233750Y363250D02*X234500Y362500D01*
X233750Y364750D02*Y363250D01*
Y364750D02*X234500Y365500D01*
X236000D01*
X236750Y364750D01*
X233750Y364000D02*X236750D01*
Y364750D02*Y364000D01*
X241250Y367750D02*X242000Y368500D01*
X244250D01*
X245000Y367750D01*
Y366250D01*
X241250Y362500D02*X245000Y366250D01*
X241250Y362500D02*X245000D01*
X246800Y363250D02*X247550Y362500D01*
X246800Y367750D02*Y363250D01*
Y367750D02*X247550Y368500D01*
X249050D01*
X249800Y367750D01*
Y363250D01*
X249050Y362500D02*X249800Y363250D01*
X247550Y362500D02*X249050D01*
X246800Y364000D02*X249800Y367000D01*
X254300Y368500D02*Y362500D01*
Y368500D02*X256550Y365500D01*
X258800Y368500D01*
Y362500D01*
X262850Y365500D02*X263600Y364750D01*
X261350Y365500D02*X262850D01*
X260600Y364750D02*X261350Y365500D01*
X260600Y364750D02*Y363250D01*
X261350Y362500D01*
X263600Y365500D02*Y363250D01*
X264350Y362500D01*
X261350D02*X262850D01*
X263600Y363250D01*
X266150Y365500D02*Y363250D01*
X266900Y362500D01*
X269150Y365500D02*Y361000D01*
X268400Y360250D02*X269150Y361000D01*
X266900Y360250D02*X268400D01*
X266150Y361000D02*X266900Y360250D01*
Y362500D02*X268400D01*
X269150Y363250D01*
X273650Y367750D02*X274400Y368500D01*
X276650D01*
X277400Y367750D01*
Y366250D01*
X273650Y362500D02*X277400Y366250D01*
X273650Y362500D02*X277400D01*
X279200Y363250D02*X279950Y362500D01*
X279200Y367750D02*Y363250D01*
Y367750D02*X279950Y368500D01*
X281450D01*
X282200Y367750D01*
Y363250D01*
X281450Y362500D02*X282200Y363250D01*
X279950Y362500D02*X281450D01*
X279200Y364000D02*X282200Y367000D01*
X284000Y367300D02*X285200Y368500D01*
Y362500D01*
X284000D02*X286250D01*
X288050Y364750D02*X291050Y368500D01*
X288050Y364750D02*X291800D01*
X291050Y368500D02*Y362500D01*
X296300Y363250D02*X297050Y362500D01*
X296300Y367750D02*Y363250D01*
Y367750D02*X297050Y368500D01*
X298550D01*
X299300Y367750D01*
Y363250D01*
X298550Y362500D02*X299300Y363250D01*
X297050Y362500D02*X298550D01*
X296300Y364000D02*X299300Y367000D01*
X301100Y368500D02*X304100D01*
X301100D02*Y365500D01*
X301850Y366250D01*
X303350D01*
X304100Y365500D01*
Y363250D01*
X303350Y362500D02*X304100Y363250D01*
X301850Y362500D02*X303350D01*
X301100Y363250D02*X301850Y362500D01*
X305900Y366250D02*X306650D01*
X305900Y364750D02*X306650D01*
X308450Y363250D02*X309200Y362500D01*
X308450Y367750D02*Y363250D01*
Y367750D02*X309200Y368500D01*
X310700D01*
X311450Y367750D01*
Y363250D01*
X310700Y362500D02*X311450Y363250D01*
X309200Y362500D02*X310700D01*
X308450Y364000D02*X311450Y367000D01*
X313250Y363250D02*X314000Y362500D01*
X313250Y364450D02*Y363250D01*
Y364450D02*X314300Y365500D01*
X315200D01*
X316250Y364450D01*
Y363250D01*
X315500Y362500D02*X316250Y363250D01*
X314000Y362500D02*X315500D01*
X313250Y366550D02*X314300Y365500D01*
X313250Y367750D02*Y366550D01*
Y367750D02*X314000Y368500D01*
X315500D01*
X316250Y367750D01*
Y366550D01*
X315200Y365500D02*X316250Y366550D01*
X318050Y366250D02*X318800D01*
X318050Y364750D02*X318800D01*
X320600Y367300D02*X321800Y368500D01*
Y362500D01*
X320600D02*X322850D01*
X326900Y368500D02*X327650Y367750D01*
X325400Y368500D02*X326900D01*
X324650Y367750D02*X325400Y368500D01*
X324650Y367750D02*Y363250D01*
X325400Y362500D01*
X326900Y365800D02*X327650Y365050D01*
X324650Y365800D02*X326900D01*
X325400Y362500D02*X326900D01*
X327650Y363250D01*
Y365050D02*Y363250D01*
X332150Y367000D02*Y362500D01*
Y367000D02*X333200Y368500D01*
X334850D01*
X335900Y367000D01*
Y362500D01*
X332150Y365500D02*X335900D01*
X337700Y368500D02*Y362500D01*
Y368500D02*X339950Y365500D01*
X342200Y368500D01*
Y362500D01*
X349700Y368500D02*X350450Y367750D01*
X347450Y368500D02*X349700D01*
X346700Y367750D02*X347450Y368500D01*
X346700Y367750D02*Y363250D01*
X347450Y362500D01*
X349700D01*
X350450Y363250D01*
Y364750D02*Y363250D01*
X349700Y365500D02*X350450Y364750D01*
X348200Y365500D02*X349700D01*
X352250Y368500D02*Y362500D01*
Y368500D02*X354500Y365500D01*
X356750Y368500D01*
Y362500D01*
X358550Y368500D02*X361550D01*
X360050D02*Y362500D01*
X366050Y368500D02*Y363250D01*
X366800Y362500D01*
X368300D01*
X369050Y363250D01*
Y368500D02*Y363250D01*
X370850Y368500D02*X373850D01*
X372350D02*Y362500D01*
X376700D02*X378650D01*
X375650Y363550D02*X376700Y362500D01*
X375650Y367450D02*Y363550D01*
Y367450D02*X376700Y368500D01*
X378650D01*
X200000Y382000D02*Y377500D01*
Y382000D02*X201050Y383500D01*
X202700D01*
X203750Y382000D01*
Y377500D01*
X200000Y380500D02*X203750D01*
X205550D02*Y378250D01*
X206300Y377500D01*
X207800D01*
X208550Y378250D01*
Y380500D02*Y378250D01*
X211100Y383500D02*Y378250D01*
X211850Y377500D01*
X210350Y381250D02*X211850D01*
X213350Y383500D02*Y377500D01*
Y379750D02*X214100Y380500D01*
X215600D01*
X216350Y379750D01*
Y377500D01*
X218150Y379750D02*Y378250D01*
Y379750D02*X218900Y380500D01*
X220400D01*
X221150Y379750D01*
Y378250D01*
X220400Y377500D02*X221150Y378250D01*
X218900Y377500D02*X220400D01*
X218150Y378250D02*X218900Y377500D01*
X223700Y379750D02*Y377500D01*
Y379750D02*X224450Y380500D01*
X225950D01*
X222950D02*X223700Y379750D01*
X227750Y381250D02*X228500D01*
X227750Y379750D02*X228500D01*
X233750Y383500D02*Y377500D01*
X233000Y383500D02*X236000D01*
X236750Y382750D01*
Y381250D01*
X236000Y380500D02*X236750Y381250D01*
X233750Y380500D02*X236000D01*
X239300Y377500D02*X241550D01*
X238550Y378250D02*X239300Y377500D01*
X238550Y379750D02*Y378250D01*
Y379750D02*X239300Y380500D01*
X240800D01*
X241550Y379750D01*
X238550Y379000D02*X241550D01*
Y379750D02*Y379000D01*
X244100Y383500D02*Y378250D01*
X244850Y377500D01*
X243350Y381250D02*X244850D01*
X247100Y377500D02*X249350D01*
X246350Y378250D02*X247100Y377500D01*
X246350Y379750D02*Y378250D01*
Y379750D02*X247100Y380500D01*
X248600D01*
X249350Y379750D01*
X246350Y379000D02*X249350D01*
Y379750D02*Y379000D01*
X251900Y379750D02*Y377500D01*
Y379750D02*X252650Y380500D01*
X254150D01*
X251150D02*X251900Y379750D01*
X258650Y383500D02*Y377500D01*
Y383500D02*X260900Y380500D01*
X263150Y383500D01*
Y377500D01*
X264950Y379750D02*Y378250D01*
Y379750D02*X265700Y380500D01*
X267200D01*
X267950Y379750D01*
Y378250D01*
X267200Y377500D02*X267950Y378250D01*
X265700Y377500D02*X267200D01*
X264950Y378250D02*X265700Y377500D01*
X270500Y379750D02*Y377500D01*
Y379750D02*X271250Y380500D01*
X272000D01*
X272750Y379750D01*
Y377500D01*
X269750Y380500D02*X270500Y379750D01*
X275300Y383500D02*Y378250D01*
X276050Y377500D01*
X274550Y381250D02*X276050D01*
X279800Y380500D02*X280550Y379750D01*
X278300Y380500D02*X279800D01*
X277550Y379750D02*X278300Y380500D01*
X277550Y379750D02*Y378250D01*
X278300Y377500D01*
X280550Y380500D02*Y378250D01*
X281300Y377500D01*
X278300D02*X279800D01*
X280550Y378250D01*
X200000Y398500D02*X203000D01*
X201500D02*Y392500D01*
G54D223*X204800Y397000D02*Y396850D01*
G54D222*Y394750D02*Y392500D01*
X207050Y398500D02*Y393250D01*
X207800Y392500D01*
X206300Y396250D02*X207800D01*
X209300Y398500D02*Y393250D01*
X210050Y392500D01*
X212300D02*X214550D01*
X211550Y393250D02*X212300Y392500D01*
X211550Y394750D02*Y393250D01*
Y394750D02*X212300Y395500D01*
X213800D01*
X214550Y394750D01*
X211550Y394000D02*X214550D01*
Y394750D02*Y394000D01*
X216350Y396250D02*X217100D01*
X216350Y394750D02*X217100D01*
X221600Y393250D02*X222350Y392500D01*
X221600Y397750D02*X222350Y398500D01*
X221600Y397750D02*Y393250D01*
X224150Y395500D02*Y393250D01*
X224900Y392500D01*
X226400D01*
X227150Y393250D01*
Y395500D02*Y393250D01*
X229700Y394750D02*Y392500D01*
Y394750D02*X230450Y395500D01*
X231200D01*
X231950Y394750D01*
Y392500D01*
X228950Y395500D02*X229700Y394750D01*
X233750Y398500D02*Y392500D01*
Y394750D02*X236000Y392500D01*
X233750Y394750D02*X235250Y396250D01*
X238550Y394750D02*Y392500D01*
Y394750D02*X239300Y395500D01*
X240050D01*
X240800Y394750D01*
Y392500D01*
X237800Y395500D02*X238550Y394750D01*
X242600D02*Y393250D01*
Y394750D02*X243350Y395500D01*
X244850D01*
X245600Y394750D01*
Y393250D01*
X244850Y392500D02*X245600Y393250D01*
X243350Y392500D02*X244850D01*
X242600Y393250D02*X243350Y392500D01*
X247400Y395500D02*Y393250D01*
X248150Y392500D01*
X248900D01*
X249650Y393250D01*
Y395500D02*Y393250D01*
X250400Y392500D01*
X251150D01*
X251900Y393250D01*
Y395500D02*Y393250D01*
X254450Y394750D02*Y392500D01*
Y394750D02*X255200Y395500D01*
X255950D01*
X256700Y394750D01*
Y392500D01*
X253700Y395500D02*X254450Y394750D01*
X258500Y398500D02*X259250Y397750D01*
Y393250D01*
X258500Y392500D02*X259250Y393250D01*
X263750Y395500D02*X266750D01*
X271250Y398500D02*Y392500D01*
Y398500D02*X274250D01*
X271250Y395800D02*X273500D01*
X278300Y395500D02*X279050Y394750D01*
X276800Y395500D02*X278300D01*
X276050Y394750D02*X276800Y395500D01*
X276050Y394750D02*Y393250D01*
X276800Y392500D01*
X279050Y395500D02*Y393250D01*
X279800Y392500D01*
X276800D02*X278300D01*
X279050Y393250D01*
X281600Y398500D02*Y392500D01*
Y393250D02*X282350Y392500D01*
X283850D01*
X284600Y393250D01*
Y394750D02*Y393250D01*
X283850Y395500D02*X284600Y394750D01*
X282350Y395500D02*X283850D01*
X281600Y394750D02*X282350Y395500D01*
X287150Y394750D02*Y392500D01*
Y394750D02*X287900Y395500D01*
X289400D01*
X286400D02*X287150Y394750D01*
G54D223*X291200Y397000D02*Y396850D01*
G54D222*Y394750D02*Y392500D01*
X293450Y395500D02*X295700D01*
X292700Y394750D02*X293450Y395500D01*
X292700Y394750D02*Y393250D01*
X293450Y392500D01*
X295700D01*
X299750Y395500D02*X300500Y394750D01*
X298250Y395500D02*X299750D01*
X297500Y394750D02*X298250Y395500D01*
X297500Y394750D02*Y393250D01*
X298250Y392500D01*
X300500Y395500D02*Y393250D01*
X301250Y392500D01*
X298250D02*X299750D01*
X300500Y393250D01*
X303800Y398500D02*Y393250D01*
X304550Y392500D01*
X303050Y396250D02*X304550D01*
G54D223*X306050Y397000D02*Y396850D01*
G54D222*Y394750D02*Y392500D01*
X307550Y394750D02*Y393250D01*
Y394750D02*X308300Y395500D01*
X309800D01*
X310550Y394750D01*
Y393250D01*
X309800Y392500D02*X310550Y393250D01*
X308300Y392500D02*X309800D01*
X307550Y393250D02*X308300Y392500D01*
X313100Y394750D02*Y392500D01*
Y394750D02*X313850Y395500D01*
X314600D01*
X315350Y394750D01*
Y392500D01*
X312350Y395500D02*X313100Y394750D01*
X320600Y398500D02*Y392500D01*
X322550Y398500D02*X323600Y397450D01*
Y393550D01*
X322550Y392500D02*X323600Y393550D01*
X319850Y392500D02*X322550D01*
X319850Y398500D02*X322550D01*
X326150Y394750D02*Y392500D01*
Y394750D02*X326900Y395500D01*
X328400D01*
X325400D02*X326150Y394750D01*
X332450Y395500D02*X333200Y394750D01*
X330950Y395500D02*X332450D01*
X330200Y394750D02*X330950Y395500D01*
X330200Y394750D02*Y393250D01*
X330950Y392500D01*
X333200Y395500D02*Y393250D01*
X333950Y392500D01*
X330950D02*X332450D01*
X333200Y393250D01*
X335750Y395500D02*Y393250D01*
X336500Y392500D01*
X337250D01*
X338000Y393250D01*
Y395500D02*Y393250D01*
X338750Y392500D01*
X339500D01*
X340250Y393250D01*
Y395500D02*Y393250D01*
G54D223*X342050Y397000D02*Y396850D01*
G54D222*Y394750D02*Y392500D01*
X344300Y394750D02*Y392500D01*
Y394750D02*X345050Y395500D01*
X345800D01*
X346550Y394750D01*
Y392500D01*
X343550Y395500D02*X344300Y394750D01*
X350600Y395500D02*X351350Y394750D01*
X349100Y395500D02*X350600D01*
X348350Y394750D02*X349100Y395500D01*
X348350Y394750D02*Y393250D01*
X349100Y392500D01*
X350600D01*
X351350Y393250D01*
X348350Y391000D02*X349100Y390250D01*
X350600D01*
X351350Y391000D01*
Y395500D02*Y391000D01*
M02*
