G04 start of page 9 for group -4062 idx -4062 *
G04 Title: (unknown), soldermask *
G04 Creator: pcb 20140316 *
G04 CreationDate: Sat 17 May 2014 08:59:42 AM GMT UTC *
G04 For: pmonta *
G04 Format: Gerber/RS-274X *
G04 PCB-Dimensions (mil): 4200.00 3400.00 *
G04 PCB-Coordinate-Origin: lower left *
%MOIN*%
%FSLAX25Y25*%
%LNBOTTOMMASK*%
%ADD198R,0.0572X0.0572*%
%ADD197R,0.0257X0.0257*%
%ADD196R,0.0355X0.0355*%
%ADD195C,0.0787*%
%ADD194R,0.1300X0.1300*%
%ADD193C,0.0280*%
%ADD192C,0.0654*%
%ADD191C,0.0001*%
%ADD190C,0.0720*%
%ADD189C,0.0700*%
%ADD188C,0.1580*%
%ADD187C,0.0920*%
%ADD186C,0.0650*%
%ADD185C,0.1550*%
%ADD184C,0.1300*%
%ADD183C,0.0930*%
%ADD182C,0.1400*%
%ADD181C,0.1900*%
%ADD180C,0.0060*%
G54D180*X0Y340000D02*Y0D01*
Y340000D02*X420000D01*
X0Y0D02*X420000D01*
Y340000D02*Y0D01*
G54D181*X387500Y327500D03*
G54D182*X400315Y297717D03*
Y262283D03*
G54D183*X408189Y280000D03*
G54D184*X396378D03*
G54D185*X372756D03*
G54D186*X372000Y98000D03*
G54D187*X385000Y106000D03*
G54D188*X397000Y98000D03*
G54D186*X362000Y93000D03*
G54D189*X343000Y97000D03*
G54D186*X372000Y88000D03*
X362000Y83000D03*
Y73000D03*
Y63000D03*
X372000Y78000D03*
Y68000D03*
Y58000D03*
G54D187*X385000Y45000D03*
G54D188*X397000Y53000D03*
G54D181*X387500Y12500D03*
G54D186*X362000Y53000D03*
G54D189*X343000Y54000D03*
Y64000D03*
Y87000D03*
G54D190*X239600Y29700D03*
Y39700D03*
G54D191*G36*
X361055Y223994D02*Y217451D01*
X367598D01*
Y223994D01*
X361055D01*
G37*
G54D192*X372200Y220722D03*
X364326Y212848D03*
X372200D03*
Y204974D03*
Y197100D03*
Y189226D03*
X364326Y204974D03*
Y197100D03*
Y189226D03*
Y181352D03*
Y173478D03*
X372200Y181352D03*
Y173478D03*
G54D190*X405800Y153000D03*
X395800D03*
X405800Y163000D03*
X395800D03*
X405800Y173000D03*
X395800D03*
X405800Y183000D03*
X395800D03*
Y193000D03*
Y203000D03*
Y213000D03*
Y223000D03*
X405800Y193000D03*
Y203000D03*
Y213000D03*
Y223000D03*
G54D181*X32500Y12500D03*
Y327500D03*
G54D193*X79800Y145300D03*
X79500Y138500D03*
X81000Y130500D03*
X106200Y91100D03*
X270700Y156000D03*
X133000Y138500D03*
X123000D03*
X194900Y131600D03*
X228600Y304400D03*
X78300Y270900D03*
X311800Y120800D03*
X314500Y200100D03*
X295700Y174700D03*
X295500Y220400D03*
X354000Y258400D03*
X133000Y201500D03*
X123000D03*
Y264500D03*
X133000D03*
X184600Y237400D03*
X78300Y207700D03*
X78000Y199500D03*
X80500Y202500D03*
X82500Y198000D03*
X210500Y48700D03*
X78400Y28900D03*
G54D194*X7000Y27250D02*X13000D01*
X7000Y60750D02*X13000D01*
G54D195*X10000Y10000D03*
G54D194*X7000Y90250D02*X13000D01*
X7000Y123750D02*X13000D01*
X7000Y153250D02*X13000D01*
X7000Y186750D02*X13000D01*
X7000Y279250D02*X13000D01*
X7000Y216250D02*X13000D01*
X7000Y249750D02*X13000D01*
X7000Y312750D02*X13000D01*
G54D195*X10000Y330000D03*
G54D196*X116008Y314941D02*X116992D01*
X116008Y192559D02*X116992D01*
X116008Y187441D02*X116992D01*
G54D197*X294926Y87893D02*Y87107D01*
X298074Y87893D02*Y87107D01*
G54D198*X226657Y121893D02*Y121107D01*
X233743Y121893D02*Y121107D01*
G54D197*X132533Y18648D02*X133319D01*
X132533Y15500D02*X133319D01*
G54D195*X410000Y10000D03*
G54D197*X128081Y19000D02*X128867D01*
X128081Y15852D02*X128867D01*
G54D196*X116008Y257059D02*X116992D01*
X116008Y251941D02*X116992D01*
G54D198*X270857Y173593D02*Y172807D01*
X277943Y173593D02*Y172807D01*
G54D197*X260381Y171974D02*X261167D01*
X260381Y168826D02*X261167D01*
X251907Y172100D02*X252693D01*
X241778Y177793D02*Y177007D01*
X244926Y177793D02*Y177007D01*
G54D198*X245183Y192793D02*Y192007D01*
X252269Y192793D02*Y192007D01*
G54D197*X251907Y168952D02*X252693D01*
X223652Y190193D02*Y189407D01*
Y202393D02*Y201607D01*
X226800Y190193D02*Y189407D01*
Y202393D02*Y201607D01*
X269407Y233926D02*X270193D01*
X279426Y234293D02*Y233507D01*
X282574Y234293D02*Y233507D01*
X260307Y233926D02*X261093D01*
X269407Y237074D02*X270193D01*
X260307D02*X261093D01*
G54D198*X253607Y226583D02*X254393D01*
X253607Y233669D02*X254393D01*
G54D197*X279252Y223593D02*Y222807D01*
X282400Y223593D02*Y222807D01*
G54D198*X271483Y190593D02*Y189807D01*
X278569Y190593D02*Y189807D01*
G54D197*X279052Y182793D02*Y182007D01*
X282200Y182793D02*Y182007D01*
X278852Y209893D02*Y209107D01*
X282000Y209893D02*Y209107D01*
X276852Y196193D02*Y195407D01*
X280000Y196193D02*Y195407D01*
X269852Y200093D02*Y199307D01*
X273000Y200093D02*Y199307D01*
X215507Y233926D02*X216293D01*
X215507Y237074D02*X216293D01*
X224407Y233926D02*X225193D01*
X217074Y228293D02*Y227507D01*
G54D198*X229260Y216193D02*Y215407D01*
X222174Y216193D02*Y215407D01*
G54D197*X233907Y233926D02*X234693D01*
X233907Y237074D02*X234693D01*
X224407D02*X225193D01*
X213926Y228293D02*Y227507D01*
X238526Y228393D02*Y227607D01*
X241674Y228393D02*Y227607D01*
X285326Y121793D02*Y121007D01*
X288474Y121793D02*Y121007D01*
G54D198*X307843Y114793D02*Y114007D01*
X300757Y114793D02*Y114007D01*
G54D196*X292508Y115559D02*X293492D01*
G54D197*X296526Y107493D02*Y106707D01*
X299674Y107493D02*Y106707D01*
G54D196*X292508Y110441D02*X293492D01*
G54D197*X302907Y302774D02*X303693D01*
X302907Y299626D02*X303693D01*
X280807Y299500D02*X281593D01*
X280807Y302648D02*X281593D01*
X216957Y222193D02*Y221407D01*
X213809Y222193D02*Y221407D01*
X216917Y211293D02*Y210507D01*
X213769Y211293D02*Y210507D01*
X216757Y196493D02*Y195707D01*
X213609Y196493D02*Y195707D01*
G54D198*X223260Y174193D02*Y173407D01*
X216174Y174193D02*Y173407D01*
G54D197*X231107Y172074D02*X231893D01*
X231107Y168926D02*X231893D01*
G54D196*X116008Y320059D02*X116992D01*
M02*
