G04 start of page 2 for group 0 idx 0 *
G04 Title: GNSS Firehose, component *
G04 Creator: pcb 20140316 *
G04 CreationDate: Sat 04 Apr 2015 06:08:15 PM GMT UTC *
G04 For: pmonta *
G04 Format: Gerber/RS-274X *
G04 PCB-Dimensions (mil): 4640.00 3900.00 *
G04 PCB-Coordinate-Origin: lower left *
%MOIN*%
%FSLAX25Y25*%
%LNTOP*%
%ADD59C,0.1280*%
%ADD58C,0.0350*%
%ADD57C,0.1250*%
%ADD56C,0.1000*%
%ADD55C,0.1100*%
%ADD54C,0.0354*%
%ADD53C,0.0960*%
%ADD52C,0.0420*%
%ADD51C,0.0150*%
%ADD50C,0.0250*%
%ADD49R,0.0827X0.0827*%
%ADD48R,0.0340X0.0340*%
%ADD47R,0.1043X0.1043*%
%ADD46R,0.0965X0.0965*%
%ADD45R,0.0280X0.0280*%
%ADD44R,0.0394X0.0394*%
%ADD43R,0.0591X0.0591*%
%ADD42R,0.0512X0.0512*%
%ADD41R,0.0402X0.0402*%
%ADD40R,0.0118X0.0118*%
%ADD39R,0.0300X0.0300*%
%ADD38R,0.0370X0.0370*%
%ADD37R,0.0130X0.0130*%
%ADD36R,0.0098X0.0098*%
%ADD35C,0.0200*%
%ADD34R,0.0160X0.0160*%
%ADD33C,0.0394*%
%ADD32R,0.0197X0.0197*%
%ADD31R,0.0295X0.0295*%
%ADD30R,0.0260X0.0260*%
%ADD29R,0.1200X0.1200*%
%ADD28R,0.0200X0.0200*%
%ADD27C,0.1480*%
%ADD26C,0.0820*%
%ADD25C,0.0550*%
%ADD24C,0.0700*%
%ADD23C,0.1450*%
%ADD22C,0.1200*%
%ADD21C,0.0830*%
%ADD20C,0.1300*%
%ADD19C,0.0554*%
%ADD18C,0.1800*%
%ADD17C,0.0620*%
%ADD16C,0.0500*%
%ADD15C,0.0180*%
%ADD14C,0.0100*%
%ADD13C,0.0120*%
%ADD12C,0.0060*%
%ADD11C,0.0001*%
G54D11*G36*
X315900Y334300D02*Y339482D01*
X322087Y339486D01*
X322240Y339523D01*
X322385Y339583D01*
X322520Y339665D01*
X322639Y339768D01*
X322742Y339887D01*
X322824Y340022D01*
X322884Y340167D01*
X322921Y340320D01*
X322930Y340477D01*
X322922Y349200D01*
X342700D01*
Y339958D01*
X332829Y339950D01*
X332676Y339913D01*
X332531Y339853D01*
X332396Y339771D01*
X332277Y339668D01*
X332174Y339549D01*
X332092Y339414D01*
X332032Y339269D01*
X331995Y339116D01*
X331986Y338959D01*
X331994Y334300D01*
X315900D01*
G37*
G36*
X341878Y297700D02*X351000D01*
Y285900D01*
X341878D01*
X341958Y286031D01*
X342018Y286176D01*
X342055Y286329D01*
X342064Y286486D01*
X342055Y297271D01*
X342018Y297424D01*
X341958Y297569D01*
X341878Y297700D01*
G37*
G36*
X327800Y327500D02*X332049D01*
X332032Y327459D01*
X331995Y327306D01*
X331986Y327149D01*
X331995Y321874D01*
X332032Y321721D01*
X332092Y321576D01*
X332174Y321441D01*
X332277Y321322D01*
X332396Y321219D01*
X332531Y321137D01*
X332676Y321077D01*
X332829Y321040D01*
X332986Y321031D01*
X343771Y321040D01*
X343924Y321077D01*
X344069Y321137D01*
X344200Y321217D01*
Y318292D01*
X344124Y318323D01*
X343971Y318360D01*
X343814Y318369D01*
X333029Y318360D01*
X332876Y318323D01*
X332731Y318263D01*
X332596Y318181D01*
X332477Y318078D01*
X332374Y317959D01*
X332292Y317824D01*
X332232Y317679D01*
X332195Y317526D01*
X332186Y317369D01*
X332195Y312094D01*
X332218Y312000D01*
X329639D01*
X329631Y325931D01*
X329594Y326084D01*
X329534Y326229D01*
X329452Y326364D01*
X329349Y326483D01*
X329230Y326586D01*
X329095Y326668D01*
X328950Y326728D01*
X328797Y326765D01*
X328640Y326774D01*
X327800Y326773D01*
Y327500D01*
G37*
G36*
X344400Y299627D02*Y292400D01*
X342059D01*
X342055Y297271D01*
X342018Y297424D01*
X341958Y297569D01*
X341876Y297704D01*
X341773Y297823D01*
X341654Y297926D01*
X341519Y298008D01*
X341374Y298068D01*
X341221Y298105D01*
X341064Y298114D01*
X335789Y298105D01*
X335636Y298068D01*
X335491Y298008D01*
X335356Y297926D01*
X335237Y297823D01*
X335134Y297704D01*
X335052Y297569D01*
X334992Y297424D01*
X334955Y297271D01*
X334946Y297114D01*
X334950Y292400D01*
X332800D01*
Y299518D01*
X332876Y299487D01*
X333029Y299450D01*
X333186Y299441D01*
X343971Y299450D01*
X344124Y299487D01*
X344269Y299547D01*
X344400Y299627D01*
G37*
G36*
X317100Y297200D02*X323141D01*
X323136Y297114D01*
X323145Y286700D01*
X317100D01*
Y297200D01*
G37*
G36*
X240606Y326700D02*X243494D01*
X243470Y326686D01*
X243351Y326583D01*
X243248Y326464D01*
X243166Y326329D01*
X243106Y326184D01*
X243069Y326031D01*
X243060Y325874D01*
X243068Y312300D01*
X234600D01*
Y321241D01*
X239771Y321245D01*
X239924Y321282D01*
X240069Y321342D01*
X240204Y321424D01*
X240323Y321527D01*
X240426Y321646D01*
X240508Y321781D01*
X240568Y321926D01*
X240605Y322079D01*
X240614Y322236D01*
X240606Y326700D01*
G37*
G36*
X226500Y327145D02*Y327000D01*
X227987D01*
X227995Y322079D01*
X228032Y321926D01*
X228092Y321781D01*
X228174Y321646D01*
X228277Y321527D01*
X228396Y321424D01*
X228531Y321342D01*
X228676Y321282D01*
X228829Y321245D01*
X228986Y321236D01*
X239000Y321245D01*
Y316500D01*
X228500D01*
X217863Y327137D01*
X226500Y327145D01*
G37*
G36*
X225048Y358900D02*X228000D01*
Y347800D01*
X225024D01*
X225055Y347929D01*
X225064Y348086D01*
X225055Y358871D01*
X225048Y358900D01*
G37*
G36*
X198200D02*X206152D01*
X206145Y358871D01*
X206136Y358714D01*
X206145Y347929D01*
X206176Y347800D01*
X198200D01*
Y358900D01*
G37*
G36*
X223800Y347095D02*Y346061D01*
X219100Y346057D01*
Y347086D01*
X223800Y347095D01*
G37*
G36*
X229800Y349400D02*X249571D01*
X249579Y340220D01*
X249616Y340067D01*
X249676Y339922D01*
X249758Y339787D01*
X249861Y339668D01*
X249980Y339565D01*
X250115Y339483D01*
X250260Y339423D01*
X250413Y339386D01*
X250570Y339377D01*
X256800Y339381D01*
Y334200D01*
X240614D01*
X240605Y339321D01*
X240568Y339474D01*
X240508Y339619D01*
X240426Y339754D01*
X240323Y339873D01*
X240204Y339976D01*
X240069Y340058D01*
X239924Y340118D01*
X239771Y340155D01*
X239614Y340164D01*
X229800Y340156D01*
Y349400D01*
G37*
G36*
X285225Y345200D02*X287275D01*
X287279Y340320D01*
X287316Y340167D01*
X287376Y340022D01*
X287458Y339887D01*
X287561Y339768D01*
X287680Y339665D01*
X287815Y339583D01*
X287960Y339523D01*
X288113Y339486D01*
X288270Y339477D01*
X294800Y339482D01*
Y328700D01*
X290100D01*
Y332800D01*
X281700D01*
Y328700D01*
X277636D01*
Y339382D01*
X284387Y339386D01*
X284540Y339423D01*
X284685Y339483D01*
X284820Y339565D01*
X284939Y339668D01*
X285042Y339787D01*
X285124Y339922D01*
X285184Y340067D01*
X285221Y340220D01*
X285230Y340377D01*
X285225Y345200D01*
G37*
G36*
X274300Y358900D02*X298000D01*
Y351121D01*
X288113Y351114D01*
X287960Y351077D01*
X287815Y351017D01*
X287680Y350935D01*
X287561Y350832D01*
X287458Y350713D01*
X287376Y350578D01*
X287316Y350433D01*
X287279Y350280D01*
X287270Y350123D01*
X287278Y342100D01*
X285228D01*
X285221Y350180D01*
X285184Y350333D01*
X285124Y350478D01*
X285042Y350613D01*
X284939Y350732D01*
X284820Y350835D01*
X284685Y350917D01*
X284540Y350977D01*
X284387Y351014D01*
X284230Y351023D01*
X274300Y351016D01*
Y358900D01*
G37*
G36*
X370500Y336339D02*X386500D01*
Y319339D01*
X384026D01*
X384018Y327114D01*
X383981Y327267D01*
X383921Y327412D01*
X383839Y327547D01*
X383736Y327666D01*
X383617Y327769D01*
X383482Y327851D01*
X383337Y327911D01*
X383184Y327948D01*
X383027Y327957D01*
X373816Y327948D01*
X373663Y327911D01*
X373518Y327851D01*
X373383Y327769D01*
X373264Y327666D01*
X373161Y327547D01*
X373079Y327412D01*
X373019Y327267D01*
X372982Y327114D01*
X372973Y326957D01*
X372981Y319339D01*
X370500D01*
Y336339D01*
G37*
G36*
Y309339D02*X372973D01*
X372982Y301209D01*
X373019Y301056D01*
X373079Y300911D01*
X373161Y300776D01*
X373264Y300657D01*
X373383Y300554D01*
X373518Y300472D01*
X373663Y300412D01*
X373816Y300375D01*
X373973Y300366D01*
X383184Y300375D01*
X383337Y300412D01*
X383482Y300472D01*
X383617Y300554D01*
X383736Y300657D01*
X383839Y300776D01*
X383921Y300911D01*
X383981Y301056D01*
X384018Y301209D01*
X384027Y301366D01*
X384018Y309339D01*
X386500D01*
Y291839D01*
X370500D01*
Y309339D01*
G37*
G54D12*X183700Y327800D02*X235200Y276300D01*
G54D13*X230000Y320300D02*X230200Y320100D01*
X230000Y322900D02*Y320300D01*
G54D12*X237150Y278200D02*X185600Y329750D01*
X183913Y334487D02*X239200Y279200D01*
G54D13*X238400Y325300D02*X238200Y325500D01*
X238400Y319600D02*X238500Y319500D01*
X238400Y322900D02*Y319600D01*
G54D14*X219500Y329000D02*Y326500D01*
X225500Y329000D02*Y326000D01*
X223500Y329000D02*Y326000D01*
X221500Y329000D02*Y325500D01*
G54D13*X236200Y319700D02*X236300Y319600D01*
X236200Y322800D02*Y319700D01*
G54D14*X230000Y324000D02*X227000D01*
X229500Y326000D02*X226500D01*
G54D13*X233900Y319900D02*X234200Y319600D01*
X233900Y322600D02*Y319900D01*
X231800Y320300D02*X232000Y320100D01*
X231800Y322800D02*Y320300D01*
G54D12*X183700Y327800D02*X183750Y327750D01*
X200500Y293000D02*X211850Y281650D01*
X211500Y282000D02*X215500Y278000D01*
X212500Y285000D02*X217500Y280000D01*
X183900Y334487D02*X183913D01*
G54D14*X226100Y349900D02*X226200Y350000D01*
X222900Y348600D02*Y344300D01*
X221100Y348700D02*Y344200D01*
X219300Y348600D02*Y343900D01*
X223100Y349900D02*X226100D01*
Y352100D02*X226400Y351800D01*
X222900Y352100D02*X226100D01*
X222700Y354000D02*X225700D01*
X222900Y355900D02*X226200D01*
X222500Y358000D02*X226700D01*
X208800Y349000D02*X209100Y349300D01*
X208600Y351200D02*X208800Y351400D01*
X208000Y353400D02*X208200Y353600D01*
X208300Y357600D02*X208400Y357700D01*
X204800Y353400D02*X208000D01*
X205100Y355600D02*X208400D01*
X205400Y357600D02*X208300D01*
G54D12*X247000Y275600D02*X185000Y337600D01*
X186500Y340100D02*X249100Y277500D01*
X187400Y342900D02*X252900Y277400D01*
X254800Y279700D02*X188900Y345600D01*
X190600Y348000D02*X258700Y279900D01*
X260750Y281850D02*X191500Y351100D01*
G54D13*X242300Y324600D02*X245400D01*
X242000Y325300D02*X238400D01*
X238900Y323400D02*X238600Y323700D01*
X241700Y323400D02*X238900D01*
X238800Y335900D02*X238700Y335800D01*
X241600Y335900D02*X238800D01*
X238500Y338000D02*X238400Y337900D01*
X241400Y338000D02*X238500D01*
X238200Y338200D02*X238400Y338000D01*
X238200Y340900D02*Y338200D01*
X236100Y337900D02*X235900Y337700D01*
X236100Y340700D02*Y337900D01*
X233800D02*X233500Y337600D01*
X233800Y340800D02*Y337900D01*
X231400Y338400D02*X231900Y337900D01*
X231400Y341100D02*Y338400D01*
G54D14*X205400Y349000D02*X208800D01*
X204500Y351200D02*X208600D01*
X222900Y344300D02*X222700Y344100D01*
G54D13*X252500Y338300D02*Y341000D01*
X254900Y338100D02*Y340900D01*
X247500Y343400D02*X251200D01*
X247600Y345700D02*X251000D01*
X247700Y348300D02*X251700D01*
G54D12*X247013Y308287D02*X249300Y306000D01*
X247013Y318000D02*Y308287D01*
X254100Y297800D02*X254000Y297900D01*
X256626Y297800D02*X254100D01*
X260000Y298026D02*X259774Y297800D01*
G54D13*X245000Y315000D02*X245100Y314900D01*
X242500Y315000D02*X245000D01*
X245600Y317700D02*X245800Y317500D01*
X242200Y317700D02*X245600D01*
X241800Y319800D02*X245700D01*
X245400Y321900D02*X245500Y322000D01*
X242200Y321900D02*X245400D01*
Y324600D02*X245500Y324500D01*
G54D12*X180074Y298826D02*X180000Y298900D01*
X159400Y295000D02*X202500D01*
X160000Y293000D02*X200500D01*
X187300Y298826D02*X180074D01*
X187300Y301974D02*X184126D01*
X187574Y299100D02*X187300Y298826D01*
X180852Y306552D02*X180300Y306000D01*
X186774Y306552D02*X180852D01*
X187126Y306200D02*X186774Y306552D01*
X193326Y306200D02*X187126D01*
X196774Y305900D02*X196474Y306200D01*
X201100Y305900D02*X196774D01*
X183500Y309700D02*X183300Y309900D01*
X184126Y301974D02*X184000Y302100D01*
X186774Y309700D02*X183500D01*
X190400Y299100D02*X187574D01*
X191500Y300200D02*X190400Y299100D01*
X193326Y300200D02*X191500D01*
X196574Y300100D02*X196474Y300200D01*
X202400Y300100D02*X196574D01*
G54D15*X167574Y310500D02*Y313674D01*
X167600Y313700D01*
G54D12*X165200Y326400D02*X162500Y329100D01*
X158808Y327892D02*X164500Y322200D01*
X162500Y329100D02*X159800D01*
X159200Y329700D01*
X156948D01*
X156787Y327892D02*X158808D01*
X156948Y329700D02*X156787Y329861D01*
X155300Y276500D02*X183600D01*
X157200Y279200D02*X188000D01*
X158100Y283100D02*X191200D01*
X159300Y287800D02*X198800D01*
G54D15*X167374Y331700D02*Y328726D01*
X167400Y328700D01*
G54D12*X172450Y329750D02*X169100Y326400D01*
X165200D01*
X164500Y322200D02*X170800D01*
X176400Y327800D01*
X183700D01*
X185650Y329750D02*X172450D01*
X148500Y351100D02*X191500D01*
X149800Y348000D02*X190600D01*
X150600Y345600D02*X188900D01*
X151900Y342900D02*X187400D01*
X152500Y340100D02*X186500D01*
X153100Y337600D02*X185000D01*
X154329Y334487D02*X183913D01*
X227325Y275175D02*X202400Y300100D01*
X233232Y273768D02*X201100Y305900D01*
X213600Y275474D02*X211974Y277100D01*
X206421Y262500D02*X206464Y262457D01*
X215500Y269547D02*X215511Y269536D01*
X215500Y278000D02*Y269547D01*
X217500Y269556D02*X217480Y269536D01*
X217500Y280000D02*Y269556D01*
X250953Y265347D02*X251300Y265000D01*
X250953Y269536D02*Y265347D01*
X249100Y277500D02*Y269652D01*
X247000Y275600D02*Y269551D01*
X256860Y265040D02*X257000Y264900D01*
X256860Y269536D02*Y265040D01*
Y268240D02*X256900Y268200D01*
X258700Y269665D02*X258829Y269536D01*
X254800Y269627D02*X254891Y269536D01*
X250953Y268347D02*X251000Y268300D01*
X252900Y269558D02*X252922Y269536D01*
X249100Y269652D02*X248984Y269536D01*
X260750Y281850D02*Y269584D01*
X258700Y279900D02*Y269665D01*
X254800Y279700D02*Y269627D01*
X252900Y277400D02*Y269558D01*
X243077Y264877D02*X243000Y264800D01*
X243077Y269536D02*Y264877D01*
Y268223D02*X243100Y268200D01*
G54D15*X245000Y262200D02*X245300Y262500D01*
X245000Y258100D02*Y262200D01*
G54D12*Y261500D02*Y258100D01*
X245300Y261800D02*X245000Y261500D01*
X245300Y265900D02*Y261800D01*
X245046Y266154D02*X245300Y265900D01*
X245046Y269536D02*Y266154D01*
X247000Y269551D02*X247015Y269536D01*
X241108Y266108D02*X239800Y264800D01*
X241108Y269536D02*Y266108D01*
X241000Y269644D02*X241108Y269536D01*
X239200Y269597D02*X239139Y269536D01*
X239200Y279200D02*Y269597D01*
X237200Y269566D02*X237170Y269536D01*
X237200Y278200D02*Y269566D01*
X235200Y269537D02*X235201Y269536D01*
X235200Y276300D02*Y269537D01*
X231263Y264937D02*X231500Y264700D01*
X231263Y269536D02*Y264937D01*
Y268137D02*X231300Y268100D01*
X223400Y269500D02*Y265500D01*
X229294Y265994D02*X228000Y264700D01*
X229294Y269536D02*Y265994D01*
X221418Y265900D02*Y265518D01*
X181413Y271487D02*X188900Y264000D01*
X183600Y276500D02*X193200Y266900D01*
X188000Y279200D02*X196300Y270900D01*
X222300Y274500D02*X220300Y276500D01*
X211700Y271200D02*X210900Y272000D01*
X211700Y269700D02*Y271200D01*
X213600Y270200D02*Y275474D01*
X211700Y268900D02*Y270200D01*
Y266300D02*Y269300D01*
X212400Y265600D02*X211700Y266300D01*
X218900Y265600D02*X212400D01*
X219449Y266149D02*X218900Y265600D01*
X219449Y269536D02*Y266149D01*
X221418Y269536D02*Y265918D01*
X199100Y287800D02*X198400D01*
X203700Y283200D02*X199100Y287800D01*
X203000Y294500D02*X212850Y284650D01*
X202500Y295000D02*X203100Y294400D01*
X208826Y279926D02*X209000Y280100D01*
X208826Y277100D02*Y279926D01*
X191200Y283100D02*X199500Y274800D01*
X210900Y272000D02*X208600D01*
X203700Y265200D02*Y283200D01*
X201600Y260500D02*X206452D01*
X199500Y262600D02*X201600Y260500D01*
X199500Y274800D02*Y262600D01*
X206100Y262821D02*X206464Y262457D01*
X206452Y260500D02*X206464Y260488D01*
X177426Y249526D02*X172100Y244200D01*
X177426Y250300D02*Y249526D01*
X183300Y254400D02*X171600D01*
X172052Y244200D02*X172376Y244524D01*
X182252Y244400D02*X179952D01*
X184800Y250300D02*X180574D01*
X190364Y244736D02*X184800Y250300D01*
X190995Y246705D02*X183300Y254400D01*
X172588Y244736D02*X172000Y244148D01*
X183600Y257200D02*X192200Y248600D01*
G54D15*X164426Y268700D02*X164526Y268600D01*
X161800Y268700D02*X164426D01*
X167574Y268500D02*Y265874D01*
X167300Y265600D01*
G54D12*X171600Y254400D02*X161108Y264892D01*
X162100Y266500D02*X166900Y261700D01*
X179100D01*
X184000Y256800D01*
X188900Y264000D02*Y254100D01*
X154329Y271487D02*X181413D01*
X161670Y268830D02*X161800Y268700D01*
X156987Y268830D02*X161670D01*
X156787Y266861D02*X159339D01*
X159700Y266500D01*
X162100D01*
X168700Y241000D02*X168600Y240900D01*
X172000Y241000D02*X168700D01*
X179952Y244400D02*X178200Y242648D01*
Y237500D02*X177200Y236500D01*
X178200Y239500D02*Y237500D01*
X174500Y241200D02*X176000Y242700D01*
X175948Y242648D02*X175500Y242200D01*
X178200Y242648D02*X175948D01*
X173400Y237700D02*X173900Y238200D01*
X174500Y238800D02*Y241200D01*
X173700Y238000D02*X174500Y238800D01*
X184100Y237300D02*X183800Y237000D01*
X187000Y237300D02*X184100D01*
X184274Y240374D02*X184100Y240200D01*
X187000Y240374D02*X184274D01*
X187074Y237300D02*X187000Y237226D01*
X161400Y239200D02*X166400Y244200D01*
X166300D02*X172052D01*
X161671Y247171D02*X161900Y247400D01*
X156987Y247171D02*X161671D01*
G54D15*X164226Y247400D02*X164326Y247500D01*
X161800Y247400D02*X164226D01*
X167574Y247500D02*Y250526D01*
X167500Y250600D01*
G54D12*X187833Y242767D02*X185400Y245200D01*
X198600Y233300D02*X163900D01*
X197500Y231600D02*X195100D01*
X198200Y230900D02*X197500Y231600D01*
X193900D02*X195800D01*
X154300D02*X194500D01*
X154000Y237700D02*X173400D01*
X245047Y191247D02*X245500Y191700D01*
X245047Y186465D02*Y191247D01*
X247016Y190016D02*X248700Y191700D01*
X247016Y186465D02*Y190016D01*
G54D15*X243300Y193800D02*X242850Y193350D01*
G54D12*X242800Y193300D02*X243400Y193900D01*
G54D15*X243300Y197900D02*Y193800D01*
G54D12*X243400Y197800D02*X243300Y197900D01*
X243400Y193900D02*Y197800D01*
X242800Y190500D02*Y193300D01*
X243078Y190222D02*X242800Y190500D01*
X237171Y191671D02*X237200Y191700D01*
X237171Y186465D02*Y191671D01*
X243078Y186465D02*Y190222D01*
X223388Y191688D02*X223400Y191700D01*
X223388Y186465D02*Y191688D01*
X215500Y189800D02*X214700Y190600D01*
X215500Y186477D02*Y189800D01*
X215512Y186465D02*X215500Y186477D01*
X259900Y178400D02*Y177674D01*
X258800Y179500D02*X259900Y178400D01*
X258800Y186435D02*Y179500D01*
X258830Y186465D02*X258800Y186435D01*
X235202Y186465D02*Y171902D01*
X233349Y186349D02*Y173149D01*
X231264Y186465D02*Y174164D01*
X229295Y186465D02*Y175495D01*
X233300Y186398D02*X233233Y186465D01*
X227326D02*Y176426D01*
X225357Y177157D02*X220400Y172200D01*
X225357Y186465D02*Y177157D01*
X221500Y186384D02*X221419Y186465D01*
X221500Y178800D02*Y186384D01*
X248985Y182885D02*X243800Y177700D01*
X245700Y174346D02*X250954Y179600D01*
X252923Y178600D02*Y177223D01*
X249900Y174200D01*
X254892Y177708D02*Y175392D01*
X251800Y172300D01*
X256861Y178439D02*Y174461D01*
X206464Y242767D02*X187833D01*
X206464Y244736D02*X190364D01*
X206464Y240798D02*X193276D01*
X200400Y234900D02*X199400Y235900D01*
X199000Y232900D02*X198600Y233300D01*
X197000Y238600D02*X196900Y238500D01*
X192926Y237300D02*X187074D01*
X193276Y240798D02*X192926Y240448D01*
X201000Y238600D02*X197000D01*
X202700Y236900D02*X201000Y238600D01*
X206200Y236900D02*X202700D01*
X210519Y258519D02*X211700Y259700D01*
X206464Y258519D02*X210519D01*
X211650Y256550D02*X211700Y256500D01*
X206464Y256550D02*X211650D01*
X227700Y261200D02*X224800Y264100D01*
X227700Y258600D02*Y261200D01*
X223400Y265500D02*X225100Y263800D01*
X220200Y264300D02*X211600D01*
X221418Y265518D02*X220200Y264300D01*
X211600D02*X206800Y269100D01*
X206443Y262457D02*X203700Y265200D01*
X206464Y262457D02*X206443D01*
X193200Y266900D02*Y255900D01*
X196300Y270900D02*Y256600D01*
X211454Y225046D02*X211800Y224700D01*
X206464Y225046D02*X211454D01*
X206300Y234900D02*X200400D01*
X206400Y232900D02*X199000D01*
X206400Y230900D02*X198200D01*
X211484Y228984D02*X211800Y229300D01*
X206464Y228984D02*X211484D01*
G54D15*X217800Y227015D02*X214200D01*
G54D12*X217585D02*X217600Y227000D01*
X206464Y227015D02*X217585D01*
X206441Y223100D02*X206464Y223077D01*
X199700Y223100D02*X206441D01*
X192900Y229900D02*X199700Y223100D01*
X211729Y238829D02*X211800Y238900D01*
X206464Y238829D02*X211729D01*
X206464Y246705D02*X190995D01*
X192200Y248600D02*X206390D01*
X192300Y250700D02*X206407D01*
X188900Y254100D02*X192300Y250700D01*
X196400Y252700D02*X206376D01*
X198300Y254600D02*X206445D01*
X206376Y252700D02*X206464Y252612D01*
X193200Y255900D02*X196400Y252700D01*
X196300Y256600D02*X198300Y254600D01*
X206390Y248600D02*X206464Y248674D01*
X206438Y248700D02*X206464Y248674D01*
X206407Y250700D02*X206464Y250643D01*
X206290Y248500D02*X206464Y248674D01*
X206259Y246500D02*X206464Y246705D01*
X211787Y203387D02*X211800Y203400D01*
X206464Y203387D02*X211787D01*
X201600Y201400D02*X200000Y203000D01*
X206300Y201400D02*X201600D01*
X206464Y205356D02*X198456D01*
X206200Y197500D02*X195600D01*
X206100Y199500D02*X198600D01*
G54D15*X211306Y209300D02*X211300Y209294D01*
G54D12*X211799Y215201D02*X211800Y215200D01*
X206464Y215201D02*X211799D01*
X206339Y207200D02*X206464Y207325D01*
X206396Y213300D02*X206464Y213232D01*
G54D15*X217600Y209300D02*X211306D01*
G54D12*X217594Y209294D02*X217600Y209300D01*
X206464Y209294D02*X217594D01*
X211742Y193542D02*X211800Y193600D01*
X206464Y193542D02*X211742D01*
X199700Y190600D02*X198174Y192126D01*
X214700Y190600D02*X199700D01*
X200300Y187300D02*X198174D01*
X201100Y186500D02*X200300Y187300D01*
X213508Y186500D02*X201100D01*
X213543Y186465D02*X213508Y186500D01*
X216100Y179900D02*X200300D01*
X217500Y181300D02*X216100Y179900D01*
X220400Y172200D02*X176800D01*
X217900Y175200D02*X221500Y178800D01*
X175200Y175200D02*X217900D01*
X217000Y177900D02*X173500D01*
X219450Y180350D02*X217000Y177900D01*
X217500Y186446D02*Y181300D01*
X219450Y186465D02*Y180350D01*
X217481Y186465D02*X217500Y186446D01*
X202500Y195600D02*X188000D01*
X206375D02*X206464Y195511D01*
X201000Y195600D02*X206375D01*
X181100Y207200D02*X206339D01*
X206464Y211263D02*X199263D01*
X186700Y213300D02*X206396D01*
X206464Y217170D02*X187830D01*
X206403Y219200D02*X206464Y219139D01*
X193100Y219200D02*X206403D01*
X206464Y221108D02*X196192D01*
G54D15*X164426Y184100D02*X164526Y184200D01*
X162200Y184100D02*X164426D01*
G54D12*X161770Y205830D02*X161900Y205700D01*
G54D15*X164426D01*
G54D12*X156987Y205830D02*X161770D01*
X161929Y184171D02*X162000Y184100D01*
X156987Y184171D02*X161929D01*
X163900Y233300D02*X163600Y233600D01*
X156900Y232900D02*X159400Y235400D01*
X153600Y232900D02*X156900D01*
X164400Y196600D02*X159000Y202000D01*
X156895D01*
X156787Y201892D01*
X188000Y195600D02*X164050Y171650D01*
X165700Y177900D02*X184400Y196600D01*
X165000Y177200D02*X166100Y178300D01*
X173500Y177900D02*X169600Y174000D01*
Y173900D01*
X195600Y197500D02*X193900Y199200D01*
X198600Y199500D02*X197400Y200700D01*
X198174Y192126D02*Y192400D01*
Y182026D02*Y182100D01*
X200300Y179900D02*X198174Y182026D01*
X184400Y198200D02*X184100Y198500D01*
X184400Y196600D02*Y198200D01*
G54D15*X167574Y205700D02*Y202774D01*
X167400Y202600D01*
X167674Y184200D02*Y187526D01*
X167600Y187600D01*
G54D12*X180200Y210100D02*X178000Y212300D01*
X161500Y202600D02*X163800D01*
X166700Y199700D01*
X178000Y212300D02*X158142D01*
X154329Y208487D01*
X156787Y203861D02*X160239D01*
X161500Y202600D01*
X155300Y215200D02*X184800D01*
X186300Y218700D02*X154800D01*
X155000Y221800D02*X190500D01*
X192100Y225200D02*X153900D01*
X154500Y229900D02*X192900D01*
X166700Y199700D02*X173600D01*
X181100Y207200D01*
X181600Y201800D02*X176400Y196600D01*
X194900Y201800D02*X181600D01*
X198456Y205356D02*X194900Y201800D01*
X198100Y210100D02*X180200D01*
X199263Y211263D02*X198100Y210100D01*
X176400Y196600D02*X164400D01*
X195026Y182100D02*X192300D01*
X195026Y187300D02*X192300D01*
X195026Y192400D02*X192600D01*
X184800Y215200D02*X186700Y213300D01*
X187830Y217170D02*X186300Y218700D01*
X190500Y221800D02*X193100Y219200D01*
X196192Y221108D02*X192100Y225200D01*
X307000Y60832D02*X307032Y60800D01*
X307000Y64800D02*Y60832D01*
X273535D02*X273567Y60800D01*
X273535Y64800D02*Y60832D01*
X378852Y55500D02*Y59148D01*
X351500Y50000D02*X450500D01*
X453000Y52500D01*
X378852Y59148D02*X378500Y59500D01*
X341500Y84500D02*X382000D01*
X388500Y55500D02*Y59000D01*
X391648Y55500D02*Y80148D01*
X392000Y80500D01*
X388500Y59000D02*X388000Y59500D01*
X443000Y55000D02*Y70900D01*
X453000Y52500D02*Y70900D01*
X382000Y55500D02*Y76500D01*
X289600Y78500D02*Y86500D01*
X292104Y71600D02*X289552Y74152D01*
Y75648D02*Y74148D01*
X289400Y79200D02*X289826Y78774D01*
X289552Y78500D02*Y75474D01*
X289726Y78674D02*X289552Y78500D01*
X273000Y83400D02*X272937Y83463D01*
X277126Y83400D02*X273000D01*
X274900Y85426D02*X272974Y83500D01*
X274900Y87600D02*Y85426D01*
X280100Y83574D02*X280274Y83400D01*
X280100Y85100D02*Y83574D01*
X279300Y85900D02*X280100Y85100D01*
X278700Y85900D02*X279300D01*
X283000Y81000D02*X283500Y81500D01*
X276900Y81000D02*X283000D01*
X275100Y79200D02*X276900Y81000D01*
X285200Y78226D02*X285400Y78426D01*
X285426Y78452D02*X285374Y78400D01*
G54D15*X294726Y78500D02*X294926Y78700D01*
X292700Y78500D02*X294726D01*
X281726Y78900D02*X282226Y78400D01*
X279526Y78900D02*X281726D01*
G54D12*X261200Y83400D02*X261500Y83100D01*
X261200Y85800D02*Y83400D01*
X256100Y90900D02*X261200Y85800D01*
X256600Y90400D02*X255600Y91400D01*
X251900D01*
X251300Y90800D01*
X248700D01*
X264648Y83100D02*X272100D01*
X270200Y93700D02*X269800Y93300D01*
X337000Y92500D02*X382000D01*
X392000Y88500D02*X394000D01*
X396500Y91000D01*
X272100Y83100D02*X272500Y83500D01*
X275300Y77600D02*X275200Y77700D01*
X275300Y73200D02*Y77600D01*
X275100Y78200D02*Y79200D01*
X272400Y70300D02*X275300Y73200D01*
X265400Y70300D02*X272400D01*
X264200Y71500D02*X265400Y70300D01*
X264200Y72400D02*Y71500D01*
G54D15*X254400Y72600D02*X252500Y70700D01*
X256500Y72600D02*X254400D01*
X269900Y74200D02*X269800Y74100D01*
X269900Y78200D02*Y74200D01*
G54D12*X285200Y74000D02*Y78226D01*
X282600Y71400D02*X285200Y74000D01*
X276300Y71400D02*X282600D01*
X273535Y68635D02*X276300Y71400D01*
X273535Y64000D02*Y68635D01*
X303700Y71600D02*X292104D01*
X307000Y68300D02*X303700Y71600D01*
X307000Y64000D02*Y68300D01*
X299800Y110600D02*X302000Y112800D01*
X303600Y101200D02*Y103600D01*
X302000Y112800D02*X310500D01*
X305600Y107100D02*X306700Y106000D01*
X303200Y107100D02*X305600D01*
X288029Y109771D02*X291900Y105900D01*
X287692Y109771D02*X288029D01*
X294000Y110600D02*X299800D01*
X292860Y111740D02*X294000Y110600D01*
X287692Y111740D02*X292860D01*
X294200Y112700D02*X298000D01*
X290100Y87000D02*Y101400D01*
X289600Y86500D02*X290100Y87000D01*
X304800Y92000D02*X306300Y93500D01*
X303700Y92000D02*X304800D01*
X303400Y100800D02*X303300Y100900D01*
X305200Y100800D02*X303400D01*
X306300Y99700D02*X305200Y100800D01*
X306300Y93500D02*Y99700D01*
X313200Y112800D02*X341500Y84500D01*
X276300Y88300D02*X278700Y85900D01*
X276300Y91200D02*Y88300D01*
X277300Y92200D02*X276300Y91200D01*
X274900Y95500D02*Y86900D01*
X277300Y93200D02*Y92200D01*
X273200Y94700D02*Y87700D01*
X284100Y99500D02*X283400Y100200D01*
X284100Y94100D02*Y99500D01*
X283400Y100200D02*X282500D01*
X281374Y101200D02*X282400Y100174D01*
X280700Y101200D02*X281374D01*
G54D15*X281500Y96900D02*Y94300D01*
G54D12*X295100Y97500D02*Y94600D01*
G54D15*X295700Y91200D02*Y88200D01*
G54D12*X303650Y91950D02*X294500Y82800D01*
X303300Y97600D02*Y94800D01*
X292100Y100500D02*X295100Y97500D01*
X283500Y93500D02*X284100Y94100D01*
X283500Y81500D02*Y93500D01*
X285400Y101500D02*Y78426D01*
X284200Y102700D02*X285400Y101500D01*
X281500Y102700D02*X284200D01*
X292100Y101900D02*Y100500D01*
X290100Y101400D02*X289300Y102200D01*
X286392Y107608D02*X292100Y101900D01*
X285608Y107608D02*X286392D01*
X285530D02*X286092D01*
X287100Y104400D02*X289400Y102100D01*
X283000Y104400D02*X287100D01*
X281592Y105808D02*X283000Y104400D01*
X281592Y107608D02*Y105808D01*
X273700Y96700D02*X274884Y95516D01*
X273716Y107608D02*Y96684D01*
X270200Y101200D02*Y93700D01*
X271747Y96153D02*X273200Y94700D01*
X271747Y107608D02*Y96153D01*
X275685Y107608D02*Y104215D01*
X269778Y101622D02*X270200Y101200D01*
X267809Y99509D02*X267800Y99500D01*
X267809Y107608D02*Y99509D01*
X269778Y102822D02*X269800Y102800D01*
X269778Y107608D02*Y102822D01*
Y103478D02*Y101622D01*
X278300Y100500D02*X278600Y100200D01*
X278300Y101600D02*Y100500D01*
X275685Y104215D02*X278300Y101600D01*
X277654Y104246D02*X280700Y101200D01*
X277654Y107608D02*Y104246D01*
X279623Y104577D02*X281500Y102700D01*
X279623Y107608D02*Y104577D01*
X309700Y116500D02*X316300D01*
X311100Y115000D02*X314000D01*
X309800Y112800D02*X313200D01*
X300300Y115000D02*X314500D01*
X319000Y116500D02*X314500D01*
X308553Y117647D02*X309700Y116500D01*
X310116Y119500D02*X310000Y119616D01*
X329500Y121500D02*X325170D01*
X325085Y121585D01*
X298000Y112700D02*X300300Y115000D01*
X382500Y125000D02*X382000Y124500D01*
X343000Y128000D02*X313500D01*
X313400Y128100D01*
X340000Y126000D02*X317000D01*
X333000Y123500D02*X321608D01*
X321554Y123554D01*
X393000Y121500D02*X392000Y120500D01*
X386000Y119000D02*X384500Y120500D01*
X350500D01*
X382000Y116500D02*X349500D01*
X332874Y132800D02*X351200D01*
X351500Y132500D01*
X341400Y139200D02*X350700D01*
X350500Y120500D02*X343000Y128000D01*
X349500Y116500D02*X340000Y126000D01*
X287692Y117647D02*X308553D01*
X287692Y119616D02*X312484D01*
X287692Y121585D02*X312785D01*
X288130Y131430D02*X292100Y135400D01*
X287692Y131430D02*X288130D01*
X293500Y130100D02*X299600D01*
X292861Y129461D02*X293500Y130100D01*
X287692Y129461D02*X292861D01*
X293191Y113709D02*X294200Y112700D01*
X287692Y113709D02*X293191D01*
X295322Y115678D02*X295800Y115200D01*
X287692Y115678D02*X295322D01*
X310600Y128100D02*X314700D01*
X311700D02*X311800Y128000D01*
X301600Y128100D02*X311700D01*
X299600Y130100D02*X301600Y128100D01*
X300100Y126000D02*X312400D01*
X297800Y128300D02*X300100Y126000D01*
X295623Y125523D02*X295900Y125800D01*
X293900Y128300D02*X297800D01*
X293092Y127492D02*X293900Y128300D01*
X287692Y127492D02*X293092D01*
X287692Y125523D02*X295623D01*
X287692Y123554D02*X312554D01*
X312600Y123600D01*
X314500Y115000D02*X337000Y92500D01*
X339000Y100500D02*X320000Y119500D01*
X310116D01*
X339000Y96500D02*X319000Y116500D01*
X349000Y102000D02*X329500Y121500D01*
X352500Y104000D02*X333000Y123500D01*
X396500Y91000D02*Y99000D01*
X395000Y100500D01*
X339000D01*
X392000Y96500D02*X339000D01*
X389500Y102000D02*X349000D01*
X385000Y104000D02*X352500D01*
X382000Y108500D02*X383000D01*
X386000Y111500D01*
X392000Y112500D02*X387500Y108000D01*
Y106500D01*
X385000Y104000D01*
X386000Y111500D02*Y119000D01*
X392000Y104500D02*X389500Y102000D01*
X226200Y118900D02*X238774D01*
X223800Y115000D02*X238600D01*
X214400Y111100D02*X238500D01*
X219100Y119000D02*X218100Y118000D01*
X226500Y109100D02*X230300Y105300D01*
X224800Y106400D02*X224900Y106300D01*
X228500Y102700D02*X224800Y106400D01*
X227500Y100200D02*X227700Y100400D01*
X248900Y90800D02*X225300D01*
X224200Y91900D01*
X220900D01*
X222200D02*X219100D01*
X233200Y127300D02*X233700Y126800D01*
X233200Y128700D02*Y127300D01*
X230100Y122800D02*X238900D01*
X227900Y125000D02*X230100Y122800D01*
X222900Y122200D02*X226200Y118900D01*
X222900Y128400D02*Y122200D01*
X220900Y128600D02*Y117900D01*
X227900Y126800D02*Y125000D01*
X238200Y126800D02*X238500Y126500D01*
X233700Y126800D02*X238200D01*
X244848Y125900D02*X244748Y126000D01*
X239000D02*X238700Y126300D01*
X241600Y126000D02*X239000D01*
X241600Y122400D02*X238900D01*
X241600Y118800D02*X239000D01*
X241574Y115200D02*X238700D01*
X220900Y117900D02*X223800Y115000D01*
X212400Y113100D02*X214400Y111100D01*
X212400Y121900D02*Y132600D01*
X215700Y132100D02*X215100Y131500D01*
X207800Y130500D02*X207000D01*
X202500Y126000D01*
X210100Y133100D02*Y129200D01*
X205600Y124700D01*
X222200Y137100D02*X220200Y135100D01*
X223700Y136300D02*X222300Y134900D01*
X220800Y138200D02*X219100Y136500D01*
X218600D01*
X215700Y133600D01*
X220200Y135100D02*Y135000D01*
X224150Y134350D02*X222100Y132300D01*
X222300Y134900D02*Y134300D01*
X220900Y132900D01*
Y132400D01*
X222100Y132300D02*Y131800D01*
X219100Y128800D01*
Y119000D01*
X215700Y133600D02*Y132100D01*
X220200Y135000D02*X218400Y133200D01*
X220900Y132400D02*X217700Y129200D01*
Y128600D01*
X215500Y126400D01*
X212100Y109100D02*X226500D01*
X210600Y106400D02*X224800D01*
X207300Y109700D02*X210600Y106400D01*
X207700Y100200D02*X227500D01*
X204700Y103200D02*X207700Y100200D01*
X202500Y105400D02*X205400Y102500D01*
X209600Y111600D02*X212100Y109100D01*
X209900Y124300D02*Y119700D01*
X209200Y119000D01*
Y112000D01*
X198600Y124800D02*Y83774D01*
X202500Y126000D02*Y105400D01*
X205600Y124700D02*Y111400D01*
X208400Y108600D01*
X209200Y112000D02*X210700Y110500D01*
X219100Y91900D02*X213800Y97200D01*
X238600Y115000D02*X238700Y114900D01*
X238500Y111100D02*X238700Y110900D01*
X238600Y111000D02*X238700Y110900D01*
X241600Y111500D02*X239200D01*
X230300Y105300D02*X244500D01*
X247000Y102700D02*X228500D01*
X248200Y101100D02*X226700D01*
X247750Y108550D02*X250200D01*
X244500Y105300D02*X247750Y108550D01*
X245248Y111000D02*X244748Y111500D01*
X258950Y108550D02*X249950D01*
X248154Y117646D02*X247200Y118600D01*
X248000Y115200D02*X244722D01*
X249100Y116300D02*X248000Y115200D01*
X255050Y127250D02*X253700Y125900D01*
X259000Y131300D02*X257500Y132800D01*
X259000Y131000D02*Y131300D01*
X260540Y129460D02*X259000Y131000D01*
X260209Y127491D02*X258000Y129700D01*
X275684Y137384D02*X276400Y138100D01*
X275684Y133592D02*Y137384D01*
X277653Y133592D02*Y135753D01*
X261708Y129460D02*X260540D01*
X261708D02*X260840D01*
X261708Y131429D02*Y142108D01*
X259978Y125522D02*X258200Y127300D01*
X261708Y125522D02*X259978D01*
X261708Y127491D02*X260209D01*
X253700Y125900D02*X244848D01*
X245048Y122100D02*X244748Y122400D01*
X247700Y122100D02*X245048D01*
X250185Y119615D02*X247700Y122100D01*
X244948Y118600D02*X244748Y118800D01*
X247200Y118600D02*X244948D01*
X257500Y117646D02*X248154D01*
X252200Y116300D02*X249100D01*
X252823Y115677D02*X252200Y116300D01*
X259800Y115677D02*X252823D01*
X261708Y117646D02*X257154D01*
X261708Y115677D02*X259123D01*
X254900Y119615D02*X250185D01*
X255716Y121584D02*X255000Y122300D01*
X261708Y121584D02*X255716D01*
X258447Y123553D02*X257300Y124700D01*
X261708Y123553D02*X258447D01*
X261708Y119615D02*X254385D01*
X250300Y93500D02*X227400D01*
X258700Y111000D02*X245248D01*
X250808Y113708D02*X250800Y113700D01*
X257800Y113708D02*X250808D01*
X257208D02*X257200Y113700D01*
X261708Y113708D02*X257208D01*
X260170Y109770D02*X258900Y108500D01*
X261708Y109770D02*X260170D01*
X259439Y111739D02*X258700Y111000D01*
X261708Y111739D02*X259439D01*
X263871Y107608D02*Y104071D01*
X265840Y107608D02*Y103440D01*
X263871Y104000D02*Y104629D01*
X263696Y103825D02*X263871Y104000D01*
X249400Y102300D02*X248200Y101100D01*
X264700Y102300D02*X249400D01*
X248125Y103825D02*X247000Y102700D01*
X264700Y102300D02*X265000Y102600D01*
X265840Y103440D02*X264700Y102300D01*
X248125Y103825D02*X263696D01*
X227900Y44100D02*X227800Y44200D01*
X227900Y40700D02*Y44100D01*
X228700Y39900D02*X227900Y40700D01*
X232100Y39900D02*X228700D01*
X235000Y42800D02*X232100Y39900D01*
X235000Y47400D02*Y42800D01*
X235200Y47200D02*X235000Y47400D01*
X245400Y47200D02*X235200D01*
X245300Y43952D02*X245400Y44052D01*
X245300Y37300D02*Y43952D01*
G54D15*X237200Y37300D02*X236800Y37700D01*
X240182Y37300D02*X237200D01*
X241100Y41500D02*X241200Y41400D01*
X241100Y44052D02*Y41500D01*
X203100Y41300D02*Y44300D01*
G54D12*X210600Y47400D02*X203148D01*
X203100Y47448D01*
Y50500D01*
X205100Y52500D01*
Y61500D02*X209000Y65400D01*
X199400Y71000D02*X192400Y64000D01*
X216400Y76800D02*Y74300D01*
X213100Y71000D01*
X199400D01*
X209342Y76762D02*X202064D01*
X198800Y80026D01*
X214921Y81879D02*X203547D01*
X202400Y83026D01*
X198600Y83774D02*X198000Y83174D01*
X202400Y86174D02*Y88000D01*
X203000Y88600D01*
G54D15*X210700Y62100D02*Y57500D01*
X210600Y57400D01*
G54D12*X205100Y52500D02*Y61500D01*
X184274Y64500D02*Y60448D01*
X183626Y59800D01*
X186774D02*Y58074D01*
X185100Y56400D01*
X183600D01*
X182800Y55600D01*
Y52459D01*
X182441Y52100D01*
X192400Y64000D02*Y54500D01*
X190200Y52300D01*
X187759D01*
X187559Y52100D01*
X209000Y65400D02*X227200D01*
X229700Y67900D01*
Y76700D01*
X227058Y81879D02*X221479D01*
X227058Y84438D02*Y86542D01*
X225200Y88400D01*
X221479Y81879D02*X216400Y76800D01*
X214921Y81879D02*X215100Y81700D01*
X215326Y89500D02*Y81926D01*
X215100Y81700D01*
X218474Y89500D02*X221600D01*
X221800Y89300D01*
X229700Y76700D02*X229300Y77100D01*
X227058Y79321D02*X233679D01*
X234000Y79000D01*
X227058Y84500D02*X233100D01*
X233300Y84300D01*
X296900Y169100D02*X263600D01*
X297100Y170900D02*X263200D01*
X275500Y174052D02*X275348Y173900D01*
X275500Y180700D02*Y174052D01*
X269852Y173400D02*X272378D01*
X281074Y177500D02*X281000Y177426D01*
X269774Y177500D02*X272100D01*
X284200D02*X284400Y177700D01*
X281074Y177500D02*X284200D01*
X290941Y177459D02*Y175900D01*
X287900Y180500D02*X290941Y177459D01*
X282100Y180500D02*X287900D01*
X280500Y182100D02*X282100Y180500D01*
X280500Y186454D02*Y182100D01*
X280489Y186465D02*X280500Y186454D01*
X276500Y181700D02*X275500Y180700D01*
X277926Y181126D02*Y177500D01*
X278500Y181700D02*X277926Y181126D01*
X272613Y181213D02*X272000Y180600D01*
X270644Y182544D02*X268700Y180600D01*
X272613Y186465D02*Y181213D01*
X270644Y186465D02*Y182544D01*
X276500Y183800D02*Y181700D01*
X278500Y186445D02*Y181700D01*
X278520Y186465D02*X278500Y186445D01*
X276500Y186414D02*Y182400D01*
X276551Y186465D02*X276500Y186414D01*
X266626Y186385D02*Y177500D01*
X266706Y186465D02*X266626Y186385D01*
X269000Y186790D02*Y191400D01*
X268675Y186465D02*X269000Y186790D01*
X274582Y191582D02*X274600Y191600D01*
X274582Y186465D02*Y191582D01*
X261700Y149300D02*Y147400D01*
X271400Y159000D02*X261700Y149300D01*
X277000Y156800D02*X263500Y143300D01*
X267800Y133600D02*Y136300D01*
Y133600D02*X267808Y133592D01*
X265839Y138139D02*X266000Y138300D01*
X265839Y133592D02*Y138139D01*
X273700Y133607D02*X273715Y133592D01*
X271700Y133638D02*X271746Y133592D01*
X269800Y133615D02*X269777Y133592D01*
X273700Y143100D02*Y133607D01*
X271700Y143900D02*Y133638D01*
X269800Y144400D02*Y133615D01*
X267800Y143500D02*Y145000D01*
X268300Y143000D02*X267800Y143500D01*
X268300Y136800D02*Y143000D01*
X267800Y136300D02*X268300Y136800D01*
X263500Y143300D02*Y140800D01*
X261700Y140908D02*X261708Y140900D01*
X261700Y147800D02*Y140908D01*
X263500Y136600D02*Y141600D01*
X263870Y136230D02*X263500Y136600D01*
X263870Y133592D02*Y136230D01*
X276400Y140000D02*X276200Y140200D01*
X276400Y138100D02*Y140000D01*
X269500Y161400D02*X238900Y130800D01*
X268200Y163700D02*X233200Y128700D01*
X254300Y133000D02*X257300D01*
X249300Y166700D02*X233700Y151100D01*
X250600Y165500D02*X235200Y150100D01*
X252900Y165500D02*X236400Y149000D01*
X245448Y129700D02*X244948Y130200D01*
X258000Y129700D02*X245448D01*
X239400Y130200D02*X239100Y130500D01*
X241800Y130200D02*X239400D01*
X257300Y133000D02*X257700Y132600D01*
X262768Y174100D02*Y172968D01*
X251800Y166700D02*X250000Y164900D01*
X249400Y166700D02*X249300D01*
X253900Y166500D02*X252300Y164900D01*
X253900Y171500D02*Y166500D01*
X267900Y166800D02*X227900Y126800D01*
X263600Y169100D02*X222900Y128400D01*
X263200Y170900D02*X220900Y128600D01*
X235700Y150600D02*X221400Y136300D01*
X236800Y149400D02*X222800Y135400D01*
X236250Y146450D02*X223300Y133500D01*
X243800Y177600D02*Y170000D01*
X259900Y173800D02*X258000Y171900D01*
X259900Y174526D02*Y173800D01*
X245700Y165900D02*Y174346D01*
X249900Y174200D02*Y167200D01*
X256861Y174461D02*X253900Y171500D01*
X258250Y127250D02*X255050D01*
X262768Y172968D02*X235400Y145600D01*
X249900Y167200D02*X249300Y166600D01*
X251800Y172300D02*Y166700D01*
X320600Y167200D02*X301400Y148000D01*
X318500Y168600D02*X300300Y150400D01*
X316700Y169400D02*X299700Y152400D01*
X315000Y170200D02*X299100Y154300D01*
X313000Y170700D02*X299100Y156800D01*
X311300Y171500D02*X298800Y159000D01*
X309600Y172600D02*X298400Y161400D01*
X307800Y173500D02*X298000Y163700D01*
X278600Y148000D02*X273700Y143100D01*
X278200Y150400D02*X271700Y143900D01*
X277800Y152400D02*X269800Y144400D01*
X277100Y154300D02*X267800Y145000D01*
X298800Y159000D02*X271400D01*
X298400Y161400D02*X269500D01*
X298000Y163700D02*X268200D01*
X297100Y166800D02*X267900D01*
X281300Y143100D02*X280500Y143900D01*
X280600Y143800D02*X279100Y145300D01*
X279622Y144778D02*X279100Y145300D01*
X333000Y132674D02*X332874Y132800D01*
X310100Y135500D02*X309500Y134900D01*
X318000Y135500D02*X310100D01*
X320700Y132800D02*X318000Y135500D01*
X329726Y132800D02*X320700D01*
X325000Y135300D02*X322074D01*
X319448Y141452D02*X316600Y144300D01*
X321900Y141452D02*X319448D01*
X322074Y141278D02*X321900Y141452D01*
X322074Y138448D02*Y141278D01*
X324800Y144600D02*X324900Y144700D01*
X321900Y144600D02*X324800D01*
X322826Y139200D02*X322074Y138448D01*
X326615Y121585D02*X326700Y121500D01*
X310900Y121585D02*X326615D01*
X309400Y123554D02*X323254D01*
X310700Y126000D02*X318900D01*
X338252Y139200D02*X322826D01*
X309900Y140800D02*X312300D01*
X304100Y137600D02*X301100Y140600D01*
X309400Y137600D02*X304100D01*
X309500Y137500D02*X309400Y137600D01*
X310000Y140700D02*X310100Y140600D01*
X313052Y131452D02*X313100Y131500D01*
X309500Y131452D02*X313052D01*
X309500Y134600D02*Y137500D01*
X300300Y150400D02*X278200D01*
X299700Y152400D02*X277800D01*
X299100Y154300D02*X277100D01*
X299100Y156800D02*X277000D01*
X301400Y148000D02*X278600D01*
X285550Y145250D02*X285900Y145600D01*
X279150Y145250D02*X285550D01*
X284000Y140600D02*X283900Y140500D01*
X301100Y140600D02*X284000D01*
X279000Y139800D02*Y142100D01*
X277653Y138453D02*X279000Y139800D01*
X277653Y136947D02*Y138453D01*
Y135300D02*Y137253D01*
X281300Y139900D02*Y143100D01*
X281591Y138191D02*X284100Y140700D01*
X283560Y135860D02*X285800Y138100D01*
X283560Y133592D02*Y135860D01*
X280450Y139050D02*X281300Y139900D01*
X279622Y138222D02*X280600Y139200D01*
X279622Y133592D02*Y138222D01*
X281591Y133592D02*Y138191D01*
X379500Y168800D02*X379900Y168400D01*
X350500Y160300D02*X350600Y160200D01*
X347800Y160600D02*X348000Y160400D01*
X345600Y160600D02*X345700Y160500D01*
X379352Y144000D02*Y140648D01*
X379500Y140500D01*
X389852Y144000D02*Y140648D01*
X350700Y139200D02*X361500Y150000D01*
X438500D01*
X443000Y145500D01*
X389852Y140648D02*X390000Y140500D01*
X382500Y144000D02*Y125000D01*
X393000Y144000D02*Y121500D01*
X453000Y147000D02*Y130100D01*
X443000Y145500D02*Y130100D01*
X434600Y164800D02*X446126D01*
X446926Y164000D01*
X297300Y169100D02*X296600D01*
X303800Y175600D02*X297300Y169100D01*
X305900Y175600D02*X297100Y166800D01*
X301800Y175600D02*X297100Y170900D01*
X299200Y184900D02*X299300Y185000D01*
X297500Y184900D02*X299200D01*
X296426Y183826D02*X297500Y184900D01*
X296426Y181100D02*Y183826D01*
X299400Y180926D02*X299574Y181100D01*
X299400Y176600D02*Y180926D01*
X298700Y175900D02*X299400Y176600D01*
X320600Y208800D02*Y167200D01*
X318500Y207600D02*Y168600D01*
X316700Y206600D02*Y169400D01*
X315000Y205000D02*Y170200D01*
X334326Y187800D02*X331600D01*
X303800Y197500D02*Y175600D01*
X305900Y198700D02*Y175600D01*
X301800Y197000D02*Y175600D01*
X295412Y203388D02*X301800Y197000D01*
X296059Y175900D02*X298700D01*
X298200Y188400D02*X295700Y190900D01*
X299174Y188400D02*X298200D01*
X297179Y193543D02*X299174Y191548D01*
X296712Y195512D02*X297200Y196000D01*
X289535Y195512D02*X296712D01*
X289535Y193543D02*X297179D01*
X289535D02*X289578Y193500D01*
X453000Y202000D02*X452500Y202500D01*
X453000Y179000D02*X452500Y179500D01*
X427400Y187600D02*X446752D01*
X446852Y187500D01*
X297274Y207326D02*X305900Y198700D01*
X295943Y205357D02*X303800Y197500D01*
X307800Y200200D02*Y173500D01*
X309600Y201700D02*Y172600D01*
X311300Y202800D02*Y171500D01*
X313000Y203800D02*Y170700D01*
X212400Y122700D02*Y113100D01*
X241109Y172709D02*X161600Y93200D01*
X212000Y148700D02*X185100D01*
X234300Y151700D02*X219800Y137200D01*
G54D15*X167548Y124552D02*X167500Y124600D01*
X167548Y121400D02*Y124552D01*
G54D12*X179000Y164000D02*X178700Y163700D01*
X183850Y147450D02*X170900Y134500D01*
X185100Y148700D02*X183350Y146950D01*
X179900Y159900D02*X177700Y157700D01*
X219300Y168400D02*X178200D01*
X179900Y159900D02*X169600Y149600D01*
X179000Y164000D02*X168600Y153600D01*
X178300Y168500D02*X167600Y157800D01*
X243800Y170000D02*X198600Y124800D01*
X212400Y132600D02*X245700Y165900D01*
X225500Y93500D02*X223800Y95200D01*
X229000Y93500D02*X225500D01*
X239000Y118800D02*X238900Y118900D01*
X239200Y111500D02*X238700Y111000D01*
G54D15*X172974Y93300D02*X175500D01*
G54D12*X209500Y143156D02*X159167Y92823D01*
X159244Y92900D02*X159167Y92823D01*
X170000Y95400D02*Y93474D01*
X174200Y99600D02*X170000Y95400D01*
X176426Y99600D02*X174200D01*
G54D15*X182100D02*X182200Y99700D01*
X179574Y99600D02*X182100D01*
X162100Y121400D02*X162000Y121500D01*
X164400Y121400D02*X162100D01*
G54D12*X160900Y137300D02*X159300Y138900D01*
X162200Y137300D02*X160900D01*
X161300Y139300D02*X164400D01*
X159739Y140861D02*X161300Y139300D01*
G54D15*X157074Y107600D02*Y104774D01*
G54D12*X161971Y121171D02*X162200Y121400D01*
X161900Y98300D02*X164800Y101200D01*
G54D15*X179200Y94800D02*X179100Y94900D01*
G54D12*X163100Y137300D02*X161800D01*
X165900Y134500D02*X163100Y137300D01*
X170900Y134500D02*X165900D01*
X180400Y153100D02*X178200Y150900D01*
X171500Y144200D02*X180400Y153100D01*
X171500Y139400D02*Y144200D01*
X168600Y136500D02*X171500Y139400D01*
X167200Y136500D02*X168600D01*
X164400Y139300D02*X167200Y136500D01*
X165300Y165300D02*X175200Y175200D01*
G54D15*X167248Y139652D02*X167300Y139600D01*
X167248Y142600D02*Y139652D01*
G54D12*X176800Y172200D02*X166100Y161500D01*
X178200Y168400D02*X176300Y166500D01*
X209500Y143200D02*Y143156D01*
X239140Y172840D02*X209500Y143200D01*
X238900Y122400D02*X238800Y122500D01*
X233349Y173149D02*X213300Y153100D01*
X231264Y174164D02*X217000Y159900D01*
X235202Y171902D02*X212000Y148700D01*
X213300Y153100D02*X180400D01*
X217000Y159900D02*X179900D01*
X217800Y164000D02*X179000D01*
X229295Y175495D02*X217800Y164000D01*
X227326Y176426D02*X219300Y168400D01*
X144100Y109300D02*X147126D01*
X147600Y100700D02*X146500Y101800D01*
X148300Y100700D02*X147600D01*
X145384Y97284D02*X146500Y98400D01*
X145384Y95816D02*Y97284D01*
X144800Y110000D02*X144000Y109200D01*
X143415Y108615D02*X144100Y109300D01*
X143415Y92823D02*Y108615D01*
X145384Y92823D02*Y95984D01*
X147353Y92823D02*Y95653D01*
X149322Y92823D02*Y95422D01*
X151200Y97300D01*
Y98600D01*
X147353Y95653D02*X149000Y97300D01*
Y100000D01*
X148300Y100700D01*
X136600Y100600D02*X136000Y101200D01*
X136600Y96500D02*Y100600D01*
X137508Y95592D02*X136600Y96500D01*
X137508Y94592D02*Y95592D01*
X138200Y97200D02*X139400Y96000D01*
X137508Y92823D02*Y94692D01*
X141000Y101000D02*Y97500D01*
X139400Y92900D02*X139700Y92600D01*
X139400Y92900D02*X139477Y92823D01*
X141400Y92869D02*X141446Y92823D01*
X141400Y97100D02*Y92869D01*
X141000Y97500D02*X141400Y97100D01*
X139400Y96000D02*Y92900D01*
X138200Y101700D02*Y97200D01*
X140200Y103700D02*X138200Y101700D01*
Y105100D02*X137600Y104500D01*
X138200Y109400D02*Y105100D01*
X137100Y110500D02*X138200Y109400D01*
X137100Y114800D02*Y110500D01*
X136600Y115300D02*X137100Y114800D01*
X138578Y111922D02*X140200Y110300D01*
X140547Y113953D02*X140600Y113900D01*
X140200Y110300D02*Y103700D01*
X138578Y116600D02*Y111922D01*
Y118713D02*Y115778D01*
X142516Y118713D02*Y116184D01*
X140547Y118713D02*Y113953D01*
X136600Y115600D02*Y115300D01*
Y115500D02*Y118704D01*
X138500Y118635D02*X138578Y118713D01*
X136600Y118704D02*X136609Y118713D01*
X140500Y208333D02*X140546Y208287D01*
X146500Y208334D02*X146453Y208287D01*
X150400Y208296D02*X150391Y208287D01*
X137100Y174600D02*X136500Y174000D01*
X151100Y168400D02*X144500Y161800D01*
X138578Y181713D02*Y175622D01*
X140200Y174000D01*
X142516Y181713D02*Y179684D01*
X143600Y178600D01*
Y177300D01*
X144100Y176800D01*
X146453Y145287D02*Y159753D01*
X144500Y161800D02*Y145303D01*
X126100Y146300D02*X125100Y147300D01*
X128200Y146300D02*X126100D01*
G54D15*X125100Y147700D02*X124900Y147500D01*
G54D12*X130013Y144487D02*X128200Y146300D01*
X130013Y142829D02*Y144487D01*
X132670Y150030D02*X132000Y150700D01*
X132670Y145487D02*Y150030D01*
G54D15*X125100Y150000D02*Y147700D01*
X131900Y150800D02*X132000Y150700D01*
X131900Y153226D02*Y150800D01*
X125000Y174926D02*Y172100D01*
X124900Y172000D01*
G54D12*X161270Y142830D02*X161600Y142500D01*
X156987Y142830D02*X161270D01*
X169600Y149600D02*X155700D01*
G54D15*X161700Y142600D02*X161600Y142500D01*
X164100Y142600D02*X161700D01*
G54D12*X140480Y147280D02*X141200Y148000D01*
X142100D02*X141200D01*
X143100Y149000D02*X142100Y148000D01*
X138577Y148177D02*X140900Y150500D01*
X136608Y145287D02*Y152108D01*
X134639Y145287D02*Y152839D01*
X144500Y145303D02*X144484Y145287D01*
X140480Y145220D02*Y147280D01*
X138577Y145287D02*Y148177D01*
X140600Y145341D02*X140546Y145287D01*
X156987Y121171D02*X161971D01*
X156795Y138900D02*X156787Y138892D01*
X159300Y138900D02*X156795D01*
X156787Y140861D02*X159739D01*
X154300Y145516D02*X154329Y145487D01*
X154300Y148200D02*Y145516D01*
X155700Y149600D02*X154300Y148200D01*
X152300Y145347D02*X152360Y145287D01*
X152300Y150900D02*Y145347D01*
X155000Y153600D02*X152300Y150900D01*
X141600Y157100D02*Y163700D01*
X143100Y149000D02*Y162800D01*
X136608Y152108D02*X141600Y157100D01*
X140100Y158300D02*Y164500D01*
X134639Y152839D02*X140100Y158300D01*
X136500Y158900D02*X138500Y160900D01*
G54D15*X132200Y170826D02*X135274D01*
X135500Y170600D01*
G54D12*X168600Y153600D02*X155000D01*
X167600Y157800D02*X153200D01*
X169600Y173900D02*X164100Y168400D01*
X151100D01*
X152000Y165300D02*X165300D01*
X166100Y161500D02*X152500D01*
X150200Y145478D02*X150391Y145287D01*
X150200Y154800D02*Y145478D01*
X148400Y145309D02*X148422Y145287D01*
X148400Y157400D02*Y145309D01*
X153200Y157800D02*X150200Y154800D01*
X146453Y159753D02*X152000Y165300D01*
X152500Y161500D02*X148400Y157400D01*
X379500Y222200D02*Y168800D01*
X376500Y225200D02*X379500Y222200D01*
X376500Y225300D02*Y225200D01*
X376750Y172250D02*X376700Y172200D01*
X376750Y214550D02*Y172250D01*
X376300Y215000D02*X376700Y214600D01*
X357500Y215000D02*X376300D01*
X347000Y225500D02*X357500Y215000D01*
X349500Y228300D02*X352500Y225300D01*
X350500Y219300D02*Y160300D01*
X347800Y219500D02*Y160600D01*
X345600Y219200D02*Y160600D01*
X376300Y225300D02*X376800Y224800D01*
X352500Y225300D02*X376300D01*
X340700Y177200D02*X340400Y176900D01*
X340700Y183500D02*Y177200D01*
X343200Y184600D02*Y181200D01*
Y183000D02*X343300Y182900D01*
X340700Y182700D02*X340800Y182600D01*
X341800Y202200D02*Y194000D01*
X343200Y192600D02*Y183000D01*
X341800Y194000D02*X343200Y192600D01*
X337600Y195400D02*X340700Y192300D01*
X337300Y187974D02*X337474Y187800D01*
X337300Y191800D02*Y187974D01*
X330700Y198400D02*X337300Y191800D01*
X340700Y192300D02*Y182700D01*
Y240600D02*X340400Y240900D01*
X340700Y233400D02*Y240600D01*
Y214000D02*Y205900D01*
X337600Y202300D02*Y195400D01*
X335700Y240800D02*X335800Y240900D01*
X335700Y233400D02*Y240800D01*
Y214000D02*Y205700D01*
X330700Y214000D02*Y198400D01*
X325700Y207600D02*X328600Y204700D01*
X325700Y214000D02*Y207600D01*
X335700Y205700D02*X335500Y205500D01*
X340700Y205900D02*X340800Y205800D01*
X347000Y238500D02*Y225500D01*
X342300Y243200D02*X347000Y238500D01*
X343700Y221100D02*X345600Y219200D01*
X349500Y239500D02*Y235000D01*
Y236000D02*Y228300D01*
X343600Y226200D02*X350500Y219300D01*
X343700Y223600D02*X347800Y219500D01*
X330700Y233400D02*Y240900D01*
X325700Y233400D02*Y240900D01*
X321300Y243200D02*X342300D01*
X318899Y240799D02*X321300Y243200D01*
X321000Y226200D02*X343600D01*
X320500Y223600D02*X343700D01*
X318200Y244800D02*X343800D01*
X317200Y246300D02*X345000D01*
X315637Y244737D02*X317200Y246300D01*
X316168Y242768D02*X318200Y244800D01*
X316200Y242800D02*X316300Y242900D01*
X316100Y248400D02*X347200D01*
X314406Y246706D02*X316100Y248400D01*
X343700Y221100D02*X319400D01*
X403200Y271800D02*X403850Y271150D01*
X389800Y271800D02*X403200D01*
X309400Y270000D02*X370300D01*
X306600Y271800D02*X373500D01*
X311800Y265800D02*X434300D01*
X310800Y259500D02*X427300D01*
X434300Y265800D02*X434600Y265500D01*
X347200Y248400D02*X347300Y248300D01*
X348100Y251900D02*X360000Y240000D01*
X365300Y244700D02*X370000Y240000D01*
X365300Y251400D02*Y244700D01*
X356000Y280900D02*X362800D01*
X353700Y278600D02*X356000Y280900D01*
X356300Y277300D02*X357500Y278500D01*
X352800Y277300D02*X356300D01*
X359800Y256900D02*X365300Y251400D01*
X340400Y256900D02*X359800D01*
X374100Y276000D02*X382100D01*
X378500Y274100D02*X387700D01*
X369200Y270000D02*X387000D01*
X371400Y271800D02*X391800D01*
X370300Y270000D02*X370400Y269900D01*
X406422Y230622D02*X411600Y235800D01*
X406100Y230622D02*X406422D01*
X405874D02*X407722D01*
X392700Y210900D02*X387400D01*
X402000D02*X392000D01*
X393300Y218700D02*X387000D01*
X389600Y226600D02*X389400Y226800D01*
X394600Y226600D02*X389600D01*
X402000D02*X392700D01*
X405852Y222748D02*X402000Y226600D01*
X405874Y222748D02*X405852D01*
X402000Y218700D02*X392000D01*
X405826Y214874D02*X402000Y218700D01*
X405874Y214874D02*X405826D01*
X405874Y207026D02*X402000Y210900D01*
X405874Y207000D02*Y207026D01*
X459000Y202000D02*X453000D01*
X459000Y191764D02*X454264D01*
X450000Y187500D01*
X459000Y179000D02*X453000D01*
X459000Y168764D02*X454838D01*
X450074Y164000D01*
X319400Y221100D02*X308900Y231600D01*
X309300Y234800D02*X307774D01*
X306974Y235600D01*
X310350Y236850D02*X309350D01*
X308800Y237400D01*
X313600Y243300D02*X314100Y242800D01*
X316200D01*
X306752Y239900D02*X307852Y241000D01*
X318899Y240799D02*X311201D01*
X311000Y241000D01*
X298446Y230954D02*X320600Y208800D01*
X299177Y232923D02*X300500Y231600D01*
X305900D02*X305800Y231500D01*
X303022Y223078D02*X318500Y207600D01*
X302191Y221109D02*X316700Y206600D01*
X302829Y217171D02*X315000Y205000D01*
X300867Y213233D02*X311300Y202800D01*
X301598Y215202D02*X313000Y203800D01*
X310300Y236900D02*X320961Y226239D01*
X309208Y234892D02*X320500Y223600D01*
X300500Y231600D02*X302552D01*
X302652Y231500D01*
X308900Y231600D02*X305900D01*
X303118Y234892D02*X303826Y235600D01*
X289535Y205357D02*X295943D01*
X286250Y199450D02*X283500Y196700D01*
X289535Y199450D02*X286250D01*
X284119Y201419D02*X283400Y200700D01*
X289535Y201419D02*X284119D01*
X293481Y197481D02*X295700Y199700D01*
X289535Y197481D02*X293481D01*
X284040Y219140D02*X284000Y219100D01*
X289535Y219140D02*X284040D01*
X285847Y225047D02*X285400Y224600D01*
X289535Y225047D02*X285847D01*
X289535Y230954D02*X298446D01*
X289535Y223078D02*X303022D01*
X289535Y221109D02*X302191D01*
X289535Y203388D02*X295412D01*
X298705Y209295D02*X307800Y200200D01*
X300036Y211264D02*X309600Y201700D01*
X289535Y217171D02*X302829D01*
X289535Y207326D02*X297274D01*
X289535Y209295D02*X298705D01*
X289535Y211264D02*X300036D01*
X289535Y213233D02*X300867D01*
X289535Y215202D02*X301598D01*
X289535Y232923D02*X299177D01*
X289535Y234892D02*X303118D01*
X289535Y236861D02*X296413D01*
X262768Y186465D02*Y173068D01*
X256861Y186465D02*Y174761D01*
X260799Y180701D02*X260800Y180700D01*
X260799Y186465D02*Y180701D01*
X264737Y191437D02*X264800Y191500D01*
X264737Y186465D02*Y191437D01*
X239140Y186465D02*Y172840D01*
X254892Y186465D02*Y176292D01*
X252923Y186465D02*Y177823D01*
X250954Y186465D02*Y179454D01*
X241109Y186465D02*Y172709D01*
X248985Y186465D02*Y182885D01*
X227325Y269536D02*Y275175D01*
X225356Y269536D02*Y273044D01*
X233232Y269536D02*Y273768D01*
X237200Y278200D02*X237150D01*
X223900Y274500D02*X222300D01*
X225356Y273044D02*X223900Y274500D01*
X266700Y270100D02*Y277400D01*
X265200Y275900D02*X263100Y278000D01*
X265200Y273300D02*Y275900D01*
X264700Y272800D02*X265200Y273300D01*
X264700Y269700D02*Y272800D01*
X262800Y274400D02*X263000Y274600D01*
X280400Y274100D02*X282300Y276000D01*
X262800Y269700D02*Y274400D01*
X268626Y270026D02*X268600Y270000D01*
X272600Y270500D02*Y273100D01*
X274581Y264719D02*X274600Y264700D01*
X274581Y269536D02*Y264719D01*
X280400Y270800D02*Y274100D01*
X282400Y273500D02*X283000Y274100D01*
X282400Y270000D02*Y273500D01*
X260750Y269584D02*X260798Y269536D01*
X284513Y252613D02*X284500Y252600D01*
X289535Y252613D02*X284513D01*
X289535Y250644D02*X296256D01*
X297900Y258500D02*X309400Y270000D01*
X295400Y260600D02*X306600Y271800D01*
X290200Y258500D02*X297900D01*
X289500Y260600D02*X295400D01*
X284642Y262458D02*X284500Y262600D01*
X289535Y262458D02*X284642D01*
X284784Y227016D02*X284600Y227200D01*
X285400Y224600D02*X282400D01*
X289535Y227016D02*X284784D01*
G54D15*X282300Y224900D02*X282600Y224600D01*
X278500Y224900D02*X282300D01*
G54D12*X278500D02*X278400Y225000D01*
X282100Y224900D02*X278500D01*
X282400Y224600D02*X282100Y224900D01*
X286015Y228985D02*X284600Y230400D01*
X289535Y228985D02*X286015D01*
X284470Y238830D02*X284400Y238900D01*
X289535Y238830D02*X284470D01*
X296413Y236861D02*X298052Y238500D01*
X308800Y237400D02*X301048D01*
X300948Y237500D01*
X300648Y242300D02*X302900D01*
X303900Y243300D01*
X313600D01*
X295000Y239900D02*X306752D01*
X289535Y244737D02*X294837D01*
X289535Y248675D02*X295725D01*
X289535Y242768D02*X297032D01*
X297500Y242300D01*
X289535Y240799D02*X294101D01*
X295000Y239900D01*
X290300Y244737D02*X315637D01*
X289535Y246706D02*X314406D01*
X295200Y248675D02*X312975D01*
X295700Y250644D02*X308444D01*
X289535Y254582D02*X300382D01*
X289535Y256551D02*X299251D01*
X292474Y283200D02*X301526D01*
X280300Y278600D02*X320700D01*
X281200Y277300D02*X321200D01*
X304474Y283100D02*X307300D01*
X289326Y283200D02*X284100D01*
X296700Y287400D02*X301352D01*
X304400D02*X307126D01*
X292448D02*X297300D01*
X344200Y244800D02*X349500Y239500D01*
X340300Y244800D02*X344200D01*
X348700D02*X349000Y244500D01*
X346500Y244800D02*X348700D01*
X345000Y246300D02*X346500Y244800D01*
X333948Y251900D02*X348100D01*
X330500Y252200D02*X330800Y251900D01*
X316500Y252200D02*X330500D01*
X312975Y248675D02*X316500Y252200D01*
X336352Y256000D02*X337252Y256900D01*
X313800Y256000D02*X336352D01*
X308444Y250644D02*X313800Y256000D01*
X305300Y259500D02*X314467D01*
X308500Y265800D02*X314467D01*
X300382Y254582D02*X305300Y259500D01*
X299251Y256551D02*X308500Y265800D01*
X319500Y278600D02*X353700D01*
X320000Y277300D02*X353500D01*
G54D14*X339900Y287800D02*X343300D01*
X343200Y290400D02*X343500Y290100D01*
X339900Y290400D02*X343200D01*
X343000Y292800D02*X343400Y292400D01*
X339900Y292800D02*X343000D01*
G54D13*X323800Y292200D02*X321200D01*
X324200Y289900D02*X321600D01*
X321100Y290400D01*
X324100Y287600D02*X321800D01*
X321500Y287900D01*
G54D12*X283900Y287400D02*X285800D01*
X289300D02*X285400D01*
X282300Y276000D02*X376300D01*
X283000Y274100D02*X379800D01*
X459000Y257000D02*X453000D01*
X459000Y246764D02*X455412D01*
X450148Y241500D01*
X447000D02*Y238000D01*
X447500Y237500D01*
X270643Y274143D02*X283900Y287400D01*
X283000Y283200D02*X284300D01*
X274200Y274400D02*X283000Y283200D01*
X271826Y284400D02*Y279752D01*
X270643Y269536D02*Y274143D01*
X272600Y270300D02*Y273400D01*
X276550Y269536D02*Y274850D01*
X278519Y269536D02*Y274619D01*
X273600Y274400D02*X274200D01*
X272600Y273400D02*X273600Y274400D01*
X276550Y274850D02*X280300Y278600D01*
X278519Y274619D02*X281200Y277300D01*
X270600Y285300D02*X261200D01*
X271526Y284374D02*X270600Y285300D01*
X265300Y278800D02*Y280200D01*
X266700Y277400D02*X265300Y278800D01*
Y281100D02*X263800Y282600D01*
X265300Y280000D02*Y281100D01*
X268626Y279700D02*Y270026D01*
X274974Y287874D02*X275000Y287900D01*
X274974Y284400D02*Y287874D01*
X271826Y284374D02*X271526D01*
X271826Y279752D02*X271774Y279700D01*
X304800Y301100D02*X304463Y301437D01*
X306300Y301100D02*X304800D01*
X307000Y300400D02*X306300Y301100D01*
X307800Y300400D02*X307000D01*
X304800Y301774D02*X304300Y301274D01*
Y294174D02*X304126Y294000D01*
X307274Y294100D02*X309900D01*
X322900Y300400D02*X307200D01*
X309300Y320113D02*X311513Y317900D01*
G54D14*X310100Y321500D02*X310200Y321400D01*
X309900Y322300D02*X310400Y321800D01*
X309600Y320800D02*X309800Y320600D01*
G54D12*X304300Y298126D02*Y294174D01*
X299653Y314247D02*X302400Y311500D01*
X304800Y317200D02*Y301774D01*
X300784Y316216D02*X302400Y314600D01*
X301100Y298200D02*X305226D01*
X301126D02*X301200Y298126D01*
X303550Y332050D02*X309300Y326300D01*
G54D14*X302600Y322300D02*X309900D01*
G54D13*X300200Y322100D02*X300100Y322000D01*
G54D12*X309300Y326300D02*Y320113D01*
X303815Y318185D02*X304800Y317200D01*
G54D14*X305800Y321500D02*X310100D01*
X307290Y322123D02*X311513Y317900D01*
X323500Y347800D02*X323700Y348000D01*
X321200Y347800D02*X323500D01*
X323600Y345700D02*X323900Y345400D01*
X320900Y345700D02*X323600D01*
X323700Y343700D02*X323800Y343600D01*
X320700Y343700D02*X323700D01*
X320400Y341900D02*X324000D01*
X319400Y338600D02*X319300Y338500D01*
X319400Y341200D02*Y338600D01*
X317100Y341200D02*Y338600D01*
X334100Y335400D02*X331200D01*
X331000Y337700D02*X330900Y337600D01*
X334300Y337700D02*X331000D01*
X333600Y338100D02*X333900Y337800D01*
X333600Y340600D02*Y338100D01*
X336000Y337800D02*X336100Y337700D01*
X336000Y340400D02*Y337800D01*
X338800Y337600D02*X338900Y337500D01*
X338800Y340500D02*Y337600D01*
X341500Y340900D02*Y337500D01*
X337500Y316300D02*X337400Y316200D01*
X337500Y318700D02*Y316300D01*
X334800Y316600D02*X334900Y316500D01*
X334800Y319000D02*Y316600D01*
X333800Y316500D02*X334000Y316300D01*
X331800Y316500D02*X333800D01*
X327400Y317300D02*X327300Y317200D01*
X330300Y317300D02*X327400D01*
X331600Y314000D02*X334700D01*
X327700Y314600D02*X327400Y314300D01*
X330000Y314600D02*X327700D01*
G54D12*X325339Y312300D02*Y302839D01*
G54D14*X336500Y320100D02*X336300Y319900D01*
X330200D02*X327500D01*
Y322300D02*X327400Y322200D01*
X330300Y322300D02*X327500D01*
X328000Y324600D02*X327800Y324400D01*
X330700Y324600D02*X328000D01*
X342300Y316300D02*X342400Y316200D01*
X342300Y319000D02*Y316300D01*
X339800Y316800D02*X339900Y316700D01*
X339800Y318700D02*Y316800D01*
X341400Y320700D02*X341100Y320400D01*
X341400Y322600D02*Y320700D01*
X338800Y320500D02*X338900Y320400D01*
X338800Y322600D02*Y320500D01*
X336500Y322800D02*Y320100D01*
X334100Y322900D02*Y320500D01*
X334300Y324900D02*X334400Y324800D01*
X331200Y324900D02*X334300D01*
G54D13*X333800Y295000D02*X337400D01*
X336900Y296000D02*X337000Y295900D01*
X343000Y295300D02*X340300D01*
X342200Y298800D02*X342300Y298700D01*
X342200Y301800D02*Y298800D01*
X339500Y301600D02*Y296100D01*
X336900Y301700D02*Y296000D01*
X334300Y298800D02*X334200Y298700D01*
X334300Y301400D02*Y298800D01*
X324300Y296000D02*X321700D01*
X324100Y294300D02*X321800D01*
X321500Y294000D01*
G54D12*X325339Y302839D02*X322900Y300400D01*
G54D13*X321700Y296000D02*X321300Y296400D01*
G54D12*X275900Y308000D02*Y302200D01*
X279500Y303900D02*Y305800D01*
X280300Y303100D02*X279500Y303900D01*
X281200Y301359D02*X280370Y300529D01*
X276941Y295341D02*X276800Y295200D01*
X280300Y295341D02*X276941D01*
X280978Y301137D02*X280300Y300459D01*
X281200Y303100D02*Y301359D01*
X284300Y303100D02*X280300D01*
X285200Y304000D02*X284300Y303100D01*
X286885Y300689D02*X287400Y300174D01*
X282947Y305747D02*X282700Y305500D01*
X282947Y309719D02*Y305747D01*
X285200Y307500D02*Y304000D01*
X284916Y307784D02*X285200Y307500D01*
X284916Y309719D02*Y307784D01*
X277619Y309719D02*X275900Y308000D01*
X279009Y309719D02*X277619D01*
X280978Y307278D02*X279500Y305800D01*
X280978Y309719D02*Y307278D01*
X288854Y305546D02*X289100Y305300D01*
X288854Y309719D02*Y305546D01*
X286885Y309719D02*Y300689D01*
X295500Y308100D02*Y301800D01*
X293881Y309719D02*X295500Y308100D01*
X292792Y309719D02*X293881D01*
X297900Y308800D02*Y301400D01*
X290823Y307077D02*X292300Y305600D01*
X290823Y309719D02*Y307077D01*
X295349Y311351D02*X297900Y308800D01*
X295349Y312278D02*Y311351D01*
X298900Y298200D02*X301126D01*
X290074Y297026D02*X290200Y296900D01*
X287400Y297026D02*X290074D01*
X297900Y299200D02*X298900Y298200D01*
X297900Y304300D02*Y299200D01*
X265074Y298200D02*X264900Y298026D01*
X265200Y306000D02*X265300Y306100D01*
Y301574D02*X264900Y301174D01*
X267200Y298200D02*X265074D01*
X249300Y306000D02*X265200D01*
X265300Y307600D02*Y301574D01*
X264900Y298026D02*X260000D01*
X270200Y298200D02*X265074D01*
X271500Y299500D02*X270200Y298200D01*
X271500Y306800D02*Y299500D01*
X276451Y311751D02*X271500Y306800D01*
X276451Y312277D02*Y311751D01*
X273446Y314246D02*X270100Y310900D01*
X276451Y314246D02*X273446D01*
X265300Y315900D02*Y307400D01*
X295349Y314247D02*X299653D01*
X295349Y318185D02*X303815D01*
X295349Y316216D02*X300784D01*
G54D14*X301700Y320800D02*X309600D01*
X309259Y320154D02*X311513Y317900D01*
X302400Y320154D02*X309259D01*
X308213Y321200D02*X311513Y317900D01*
X300700Y321200D02*X308213D01*
X299400Y322123D02*X307290D01*
G54D13*X297400Y321200D02*X301865D01*
X295349Y322123D02*X300942D01*
X295349Y320154D02*X302911D01*
G54D12*X302126Y333474D02*X304100Y331500D01*
G54D14*X381500Y320839D02*X385000D01*
X381500Y322839D02*X385000D01*
X381500Y324839D02*X385000D01*
X381500Y325839D02*Y329339D01*
X379500Y325839D02*Y329339D01*
X377500Y325839D02*Y329339D01*
X375500Y325839D02*Y330339D01*
Y324839D02*X372000D01*
X375500Y322839D02*X372000D01*
X375500Y320839D02*X371500D01*
G54D16*X355000Y323000D02*X348600D01*
G54D12*X362800D02*Y327600D01*
X362600Y327800D01*
G54D14*X381500Y307839D02*X385500D01*
X381000Y305839D02*X385500D01*
X381500Y303839D02*X385000D01*
X381500Y302839D02*Y298839D01*
X379500Y302839D02*Y298839D01*
X377500Y302839D02*Y299339D01*
X375500Y302839D02*Y298839D01*
G54D16*X397414Y304500D02*Y301714D01*
X392500Y296800D01*
X385800D01*
X385400Y296400D01*
X422756Y305000D02*X405000D01*
X404500Y304500D01*
G54D14*X375500Y303839D02*X372000D01*
X375500Y305839D02*X372000D01*
X375500Y307839D02*X372000D01*
G54D16*X358900Y314800D02*Y305300D01*
X366400Y297800D01*
X370900D01*
G54D12*X269415Y316215D02*X267500Y314300D01*
X275085Y316215D02*X269415D01*
X274516Y318184D02*X267584D01*
X276451Y316215D02*X274815D01*
X276451Y318184D02*X274284D01*
X267584D02*X265300Y315900D01*
G54D14*X270800Y320100D02*X262700D01*
X262900Y321100D02*X262700Y321300D01*
X270300Y321100D02*X262900D01*
X271300Y322100D02*X262800D01*
G54D13*X274400Y321100D02*X269687D01*
X276451Y320153D02*X268740D01*
X276451Y322122D02*X270709D01*
G54D12*X262400Y331200D02*Y322900D01*
X264400Y333200D02*X262400Y331200D01*
X276008Y325108D02*X276000Y325100D01*
X279008Y325108D02*X276008D01*
X282946Y330046D02*X283700Y330800D01*
X282946Y324680D02*Y330046D01*
G54D13*X280977Y324680D02*Y331177D01*
X279008Y330708D02*X279500Y331200D01*
X279008Y324680D02*Y330708D01*
G54D12*X288853Y330047D02*X288100Y330800D01*
X288853Y324680D02*Y330047D01*
X286884Y326916D02*X285900Y327900D01*
X286884Y324680D02*Y326916D01*
X284915Y326915D02*X285900Y327900D01*
X284915Y324680D02*Y326915D01*
G54D13*X292791Y330709D02*X292400Y331100D01*
X292791Y324680D02*Y330709D01*
X290822Y330722D02*X290900Y330800D01*
X290822Y324680D02*Y330722D01*
X289500Y341600D02*Y338600D01*
X286500Y341700D02*X286200Y342000D01*
X289200Y341700D02*X286500D01*
X286000D02*X286100Y341600D01*
X282800Y341700D02*X286000D01*
X282900Y343800D02*X286300D01*
X291500Y338500D02*X291400Y338400D01*
X291500Y341300D02*Y338500D01*
X293800D02*X293400Y338100D01*
X293800Y341300D02*Y338500D01*
X278300Y338900D02*X278700Y338500D01*
X280800Y338600D02*X281100Y338300D01*
X280800Y341300D02*Y338600D01*
X283000Y338800D02*X283200Y338600D01*
X283000Y341300D02*Y338800D01*
X278300Y341100D02*Y338900D01*
X290600Y348900D02*X290800Y348700D01*
X290600Y351800D02*Y348900D01*
X292600Y349300D02*X293200Y348700D01*
X292600Y351800D02*Y349300D01*
X295000Y351800D02*Y348500D01*
X297100Y349000D02*X297500Y348600D01*
X297100Y351800D02*Y349000D01*
X286400Y343700D02*X286100Y344000D01*
X289200Y343700D02*X286400D01*
X289100Y346000D02*X286500D01*
X286300Y343800D02*X286400Y343700D01*
X289000Y347900D02*X286600D01*
X288700Y351800D02*X288600Y351900D01*
X288700Y348700D02*Y351800D01*
X286500Y346000D02*X286400Y346100D01*
X286000D02*X286300Y345800D01*
X283000Y346100D02*X286000D01*
X285800Y348100D02*X285900Y348200D01*
X282900Y348100D02*X285800D01*
X283800Y349500D02*X283600Y349300D01*
X283800Y351200D02*Y349500D01*
X281700Y351800D02*Y348600D01*
X279600Y351800D02*Y348600D01*
X277500Y349000D02*X277300Y348800D01*
X277500Y351600D02*Y349000D01*
X275400Y352100D02*Y349100D01*
G54D12*X143200Y289600D02*Y291700D01*
X146200Y287300D02*X146300Y287400D01*
X144700Y287300D02*X146200D01*
X143300Y282300D02*X145000Y284000D01*
X141800Y282300D02*X143300D01*
X142100Y284700D02*X144700Y287300D01*
X141100Y284700D02*X142100D01*
X140600Y282300D02*X142100D01*
X141400Y284700D02*X142200D01*
G54D15*X132026Y281174D02*X132200Y281000D01*
X129400Y281174D02*X132026D01*
G54D12*X138700Y286400D02*X138900D01*
X136900Y282300D02*X141300D01*
X136608Y277808D02*X137800Y279000D01*
X134639Y271287D02*Y278161D01*
X140546Y273846D02*X141200Y274500D01*
X140546Y271287D02*Y273846D01*
X136000Y283200D02*X136900Y282300D01*
X134639Y278161D02*X134300Y278500D01*
X138577Y274677D02*X140600Y276700D01*
X138577Y271287D02*Y274677D01*
X136608Y271287D02*Y277808D01*
X142900Y275000D02*Y278500D01*
X142400Y274500D02*X142900Y275000D01*
X141200Y274500D02*X142400D01*
X144484Y271287D02*Y277484D01*
X149000Y282000D01*
X146453Y271287D02*Y274953D01*
X148422Y271287D02*Y273422D01*
X149500Y274500D01*
X146453Y274953D02*X149500Y278000D01*
X150391Y271287D02*Y272391D01*
Y271900D02*Y273391D01*
X152360Y271287D02*Y273560D01*
X142900Y278500D02*X159400Y295000D01*
X148800Y281800D02*X160000Y293000D01*
X149100Y277600D02*X159300Y287800D01*
X148850Y273850D02*X158100Y283100D01*
X150391Y273391D02*X156200Y279200D01*
X158000D01*
X152360Y273560D02*X155300Y276500D01*
X159600Y241000D02*X161900Y243300D01*
X149800Y241000D02*X159600D01*
X152900Y239200D02*X161400D01*
X156787Y264892D02*X161108D01*
X142516Y244713D02*Y242084D01*
X140547Y244713D02*Y239953D01*
X140600Y239900D01*
X142516Y242084D02*X143200Y241400D01*
Y240000D01*
X143400Y239800D01*
X134640Y244713D02*Y239960D01*
X134800Y239800D01*
X136609Y244713D02*Y241491D01*
X137100Y241000D01*
G54D15*X124878Y278500D02*X124926Y278548D01*
X122100Y278500D02*X124878D01*
G54D12*X121574Y266000D02*X123500D01*
X124600Y264900D01*
X121574Y262500D02*X122400D01*
X122800Y262900D01*
X124600Y264900D02*X130204D01*
X130213Y264891D01*
X122800Y262900D02*X130191D01*
X130213Y262922D01*
Y266860D02*X127414D01*
X124574Y269700D01*
X130213Y258984D02*X127684D01*
X130213Y260953D02*X125953D01*
X125500Y260500D01*
X127684Y258984D02*X126800Y258100D01*
X124100D01*
X123300Y258900D01*
X122174D01*
X122074Y259000D01*
X130213Y257015D02*X128115D01*
X127300Y256200D01*
X125800D01*
X125500Y255900D01*
X130213Y253077D02*X124823D01*
X122700Y255100D02*X121974D01*
X121574Y255500D01*
X124823Y253077D02*X122800Y255100D01*
X121974D01*
X121787Y255287D01*
X123600Y252000D02*X121574D01*
X130213Y251108D02*X124492D01*
X123600Y252000D01*
X130213Y249139D02*X125065D01*
X123800Y247874D01*
X143200Y291700D02*X143500Y292000D01*
X147274Y292126D02*X147400Y292000D01*
X143500Y292126D02*X147274D01*
X143626Y292000D02*X143500Y292126D01*
X147526Y292000D02*X143626D01*
X146274Y295274D02*X146700Y295700D01*
X143500Y295274D02*X146274D01*
X152200Y292000D02*X153300Y293100D01*
X150674Y292000D02*X152200D01*
X160970Y331830D02*X161100Y331700D01*
X160971Y310171D02*X161300Y310500D01*
X156987Y310171D02*X160971D01*
G54D15*X164426Y310500D02*X161300D01*
G54D12*X156987Y331830D02*X160970D01*
G54D15*X164226Y331700D02*X161100D01*
G54D12*X142516Y307713D02*Y304884D01*
X143100Y304300D01*
Y303300D01*
X143500Y302900D01*
X140547Y307713D02*Y303153D01*
X140700Y303000D01*
X108212Y314888D02*X111400Y311700D01*
X107712Y311788D02*X111500Y308000D01*
Y306174D01*
X108274Y317000D02*X108212Y317062D01*
X108237Y317037D02*X111563D01*
X113600Y315000D01*
X108212Y319031D02*X112869D01*
X108212Y321000D02*X113400D01*
X108212Y322969D02*X112769D01*
X108212Y324938D02*X112138D01*
X108212Y315093D02*Y314888D01*
G54D15*X108626Y298500D02*Y296226D01*
X107200Y294800D01*
G54D12*X111500Y306174D02*X111700Y305974D01*
Y302826D02*Y298574D01*
X111774Y298500D01*
Y294774D01*
X95226Y299000D02*Y297674D01*
X96100Y296800D01*
X96800D01*
X97300Y296300D01*
Y294526D01*
G54D15*X94126Y294500D02*X94100D01*
X92900Y293300D01*
G54D12*X132671Y304371D02*X131500Y303200D01*
G54D15*Y300574D02*X132200Y299874D01*
X131500Y303000D02*Y300574D01*
G54D12*X128170Y310170D02*X125100Y307100D01*
X130013Y310170D02*X128170D01*
G54D15*X125100Y304574D02*X124900Y304374D01*
X125100Y307200D02*Y304574D01*
X124900Y301226D02*Y298100D01*
X132200Y296726D02*X135474D01*
X135500Y296700D01*
G54D12*X132671Y307513D02*Y304371D01*
X134640Y307713D02*Y303160D01*
X136609Y307713D02*Y304491D01*
X137100Y304000D01*
X134640Y303160D02*X134900Y302900D01*
X137100Y304000D02*Y302100D01*
X136800Y301800D01*
Y300300D01*
X136500Y300000D01*
X138578Y307713D02*Y301622D01*
X140200Y300000D01*
X127000Y335800D02*X125400D01*
X130013Y332787D02*X127000Y335800D01*
X130013Y331829D02*Y332787D01*
X134500Y340500D02*Y341400D01*
X134300Y340300D02*X134500Y340500D01*
X134300Y337900D02*Y340300D01*
X134639Y337561D02*X134300Y337900D01*
X134639Y334287D02*Y337561D01*
G54D15*X125200Y342174D02*Y344900D01*
X125100Y345000D01*
X90000Y352500D02*X96000D01*
X99000Y356000D02*Y348500D01*
Y352500D02*X99500Y352000D01*
X109000Y351500D02*X108500Y352000D01*
X116000Y352500D02*X109500D01*
X109000Y348500D02*Y351500D01*
Y356000D02*Y352500D01*
G54D12*X94831Y340300D02*X97031Y338100D01*
X94800Y340300D02*X94831D01*
X92700Y339962D02*X95062Y337600D01*
X92700Y347100D02*Y339962D01*
X94800Y340300D02*Y344500D01*
X102374Y339900D02*X105500D01*
G54D15*X102374D02*X105600D01*
G54D12*X105500D02*X105600Y339800D01*
X93093Y330213D02*Y333407D01*
X90900Y335600D01*
X97031Y330213D02*Y338069D01*
X99000Y335200D02*X99400Y335600D01*
X99300Y335500D02*Y339826D01*
X99226Y339900D01*
G54D15*X99400Y335600D02*Y339600D01*
X99300Y339700D01*
G54D12*X99000Y330213D02*Y335200D01*
X100969Y330213D02*Y332669D01*
X102100Y333800D01*
Y335674D01*
X102426Y336000D01*
X102938Y330213D02*Y332438D01*
X104300Y333800D01*
X104907Y330213D02*X105213D01*
X104300Y333800D02*X105100D01*
X105500Y334200D01*
Y335926D01*
X105574Y336000D01*
X132670Y338130D02*X131800Y339000D01*
X132670Y334487D02*Y338130D01*
G54D15*X132000Y339200D02*X131800Y339000D01*
X132000Y342426D02*Y339200D01*
G54D12*X136608Y334287D02*Y338908D01*
X134500Y341400D02*X135400Y342300D01*
X139100Y337000D02*Y346500D01*
X138577Y336477D02*X139100Y337000D01*
X138577Y334287D02*Y336477D01*
X136608Y338908D02*X136700Y339000D01*
X140546Y334287D02*Y343146D01*
G54D15*X135174Y345574D02*X135200Y345600D01*
G54D12*X152360Y334287D02*Y336860D01*
X153100Y337600D01*
X150391Y334287D02*Y337991D01*
X152500Y340100D01*
X148422Y334287D02*Y339422D01*
X151900Y342900D01*
X146453Y334287D02*Y341453D01*
X144484Y334287D02*Y342684D01*
X146453Y341453D02*X150600Y345600D01*
X144484Y342684D02*X149800Y348000D01*
X140546Y343146D02*X148500Y351100D01*
X125400Y335800D02*X125200Y336000D01*
G54D15*X121626Y335674D02*X120900Y336400D01*
X121626Y332700D02*Y335674D01*
X125200Y339026D02*Y336300D01*
G54D12*X126000Y338800D02*X125100Y339700D01*
G54D15*X125000Y342326D02*X125200Y342526D01*
X116500Y334000D02*X112500Y330000D01*
X116500Y335000D02*Y334000D01*
G54D12*X112100Y333900D02*Y335974D01*
X112074Y336000D01*
X130213Y327891D02*X124509D01*
X123600Y328800D01*
X121774D01*
X130213Y329860D02*X127614D01*
X124774Y332700D01*
X121774Y328800D02*X121574Y329000D01*
X130213Y325922D02*X121996D01*
X121574Y325500D01*
X114900Y308878D02*Y308300D01*
X115600Y307600D01*
G54D15*X114900Y308800D02*Y308300D01*
X115350Y307850D01*
G54D12*X113700Y315000D02*X114800Y313900D01*
G54D15*X113700Y315000D02*X114900Y313800D01*
Y312300D01*
X114800Y312200D01*
G54D12*Y313900D02*Y312126D01*
X114900Y312026D01*
X115600Y307600D02*Y305900D01*
G54D15*X115350Y307850D02*Y306350D01*
X115600Y306100D01*
X120426Y311000D02*Y307926D01*
X120400Y307900D01*
G54D12*X122100Y318500D02*X121600D01*
X124500Y316100D02*X122100Y318500D01*
X121574Y315000D02*X122800D01*
X123700Y314100D01*
X130190Y316100D02*X124500D01*
X130195Y316095D02*X130190Y316100D01*
X123700Y314100D02*X130205D01*
X130213Y312139D02*X124713D01*
X123574Y311000D01*
X121674Y318600D02*X121574Y318500D01*
X122100Y318000D02*X121587Y318513D01*
X113600Y315000D02*X113700D01*
X112869Y319031D02*X116900Y315000D01*
X118426D01*
X113400Y321000D02*X115800Y318600D01*
X118326D01*
X118426Y318500D01*
X112769Y322969D02*X115200Y325400D01*
X118326D01*
X118426Y325500D01*
X112138Y324938D02*X116100Y328900D01*
X118326D01*
X118426Y329000D01*
G54D15*X118900Y322000D02*X116174D01*
G54D12*X130205Y314100D02*X130213Y314108D01*
X130190Y316100D02*X130213Y316077D01*
Y321984D02*X127884D01*
X127250Y321350D01*
X122548Y321500D02*X122048Y322000D01*
X127250Y321350D02*X122698D01*
X122574Y321474D01*
X130213Y323953D02*X125953D01*
X125600Y323600D01*
X130213Y320015D02*X126615D01*
X125600Y319000D01*
G54D15*X132100Y345600D02*X135200D01*
X45500Y352500D02*X51000D01*
X53500Y356000D02*Y348500D01*
X64000Y356000D02*Y348500D01*
X71500Y352500D02*X68000D01*
G54D12*X139100Y346500D02*X139600Y347000D01*
X105213Y330213D02*X108600Y333600D01*
X108212Y330012D02*X112100Y333900D01*
X108600Y333600D02*Y335674D01*
X108212Y326907D02*Y330012D01*
X108600Y335674D02*X108926Y336000D01*
X60250Y329676D02*X61000Y330426D01*
G54D15*X66426Y326000D02*X60450D01*
X60250Y326200D01*
X61000Y333574D02*Y336574D01*
G54D12*X59674Y315100D02*Y320324D01*
X60250Y320900D01*
G54D15*X56500Y315074D02*X56526Y315100D01*
X56400Y314974D02*X56426Y315000D01*
X61000Y336574D02*X61426Y337000D01*
X58900D01*
X64574D02*Y334126D01*
X64700Y344000D02*Y341126D01*
X64574Y341000D01*
Y334126D02*X64600Y334100D01*
X69574Y326000D02*X73074D01*
X74000Y326926D01*
X72926Y323000D02*Y325852D01*
X74000Y326926D01*
X76074Y323000D02*X78426D01*
G54D12*X79831Y319031D02*X89787D01*
Y321000D02*X83574D01*
X83074Y321500D01*
X78700Y317900D02*X79831Y319031D01*
G54D15*X78426Y323000D02*X79926Y321500D01*
X84550Y316050D02*X81024D01*
X81000Y316074D01*
X81500Y325726D02*X83674D01*
X84500Y324900D01*
G54D12*X79831Y319031D02*X74500Y313700D01*
G54D15*X71100Y330100D02*X73974D01*
X74000Y330074D01*
G54D12*X95062Y330213D02*Y337638D01*
G54D15*X90900Y335600D02*X92250Y334250D01*
X81500Y337500D02*X84422D01*
X84426Y337496D01*
G54D12*X89787Y328413D02*X87200Y331000D01*
X85200D01*
X84500Y331700D01*
G54D15*X81500Y328874D02*X84026D01*
X84300Y328600D01*
X84500Y331800D02*Y334274D01*
X84426Y334348D01*
X61426Y337000D02*Y341000D01*
X61300Y343900D02*Y341126D01*
X61426Y341000D01*
G54D12*X45560Y335560D02*X45900Y335900D01*
X41700Y339300D02*X47700D01*
X49000Y338000D01*
Y331900D01*
X48600Y331500D01*
X46200D01*
X45880Y331820D02*X46200Y331500D01*
G54D14*X55100Y341100D02*X54600Y340600D01*
X55100Y343600D02*Y341100D01*
X51600Y343100D02*X51100Y343600D01*
X51600Y340600D02*Y343100D01*
G54D12*X25000Y324000D02*Y328000D01*
G54D15*X26000Y321000D02*X10500D01*
G54D12*X26000Y333918D02*X29365D01*
X31464Y331820D01*
G54D15*X31426Y321000D02*X20000D01*
X49900Y326100D02*X49000Y327000D01*
X49250D01*
X52750Y320900D02*X45674D01*
X45574Y321000D01*
X52750Y323500D02*X48800D01*
X48700Y323600D01*
X52750Y326100D02*X49900D01*
X60250Y323500D02*X63500D01*
X64000Y323000D01*
G54D12*X60250Y326100D02*Y329676D01*
G54D14*X27500Y307000D02*X31500D01*
X28000Y312000D02*X27500Y312500D01*
X31500Y312000D02*X28000D01*
X46500D02*Y315000D01*
G54D15*X56400Y312100D02*Y314974D01*
G54D14*X49500Y312000D02*X52500D01*
G54D12*X70200Y303900D02*X70000Y303700D01*
X70200Y306252D02*Y303900D01*
Y309400D02*X74400D01*
X74413Y309413D01*
X74500Y313700D02*Y309400D01*
G54D15*Y306352D02*Y303626D01*
X74400Y303526D01*
X42426Y321000D02*X38574D01*
X41500Y317500D02*X38926D01*
X38500Y317926D01*
X35500Y317500D02*X38074D01*
X38500Y317926D01*
X38574Y321000D02*X38500Y321074D01*
Y315300D02*Y317926D01*
Y321074D02*X34648D01*
X34574Y321000D01*
G54D12*X41700Y331820D02*X45880D01*
X41700Y335560D02*X45560D01*
X89787Y322969D02*X86431D01*
X89787Y324938D02*X87562D01*
X86431Y322969D02*X84600Y324800D01*
X89787Y326907D02*Y328413D01*
X87562Y324938D02*X86800Y325700D01*
Y326400D01*
X86700Y326500D01*
X86400D01*
X84400Y328500D01*
X89787Y315093D02*X87893D01*
X86200Y313400D01*
X84900D01*
X84550Y313050D01*
X89787Y317062D02*X85562D01*
X84500Y316000D01*
G54D15*X88026Y306400D02*Y303474D01*
X88100Y303400D01*
X81000Y312926D02*Y310300D01*
X80800Y310100D01*
X84350Y312850D02*Y310624D01*
X84400Y310574D01*
Y307426D02*Y305000D01*
X84600Y304800D01*
G54D12*X99000Y311788D02*Y307500D01*
X97031Y307431D02*X96500Y306900D01*
X99000Y307500D02*X99600Y306900D01*
X97031Y311788D02*Y307431D01*
X95062Y311788D02*Y309062D01*
Y309100D02*Y308962D01*
X93900Y307800D01*
X93093Y311788D02*Y309693D01*
X100969Y311788D02*Y309031D01*
X102938Y311788D02*Y309562D01*
X104907Y311788D02*X107712D01*
X100969Y309069D02*Y308931D01*
X101850Y308050D01*
X102938Y309562D02*X104300Y308200D01*
Y306900D01*
X104200Y306800D01*
G54D15*Y304074D01*
G54D12*X101850Y308050D02*Y305950D01*
X100000Y304100D01*
Y303700D01*
X99300Y303000D01*
X98174D01*
Y299200D01*
X98374Y299000D01*
X100174D01*
X102300Y296874D01*
G54D15*X104200Y300926D02*Y300600D01*
X105300Y299500D01*
Y298400D01*
X105700Y298000D01*
G54D12*X91400Y306626D02*X91174Y306400D01*
X93093Y309693D02*X91600Y308200D01*
Y306826D01*
X91387Y306613D01*
G54D15*X91174Y306400D02*Y307774D01*
X91750Y308350D01*
G54D12*X93900Y307800D02*Y304126D01*
X95026Y303000D01*
X93126D01*
X90500Y300374D01*
G54D15*Y297226D02*X87426D01*
X87400Y297200D01*
G54D12*X108212Y251288D02*X111600Y247900D01*
X108212Y252093D02*Y251288D01*
G54D15*X115000Y244900D02*X115600Y244300D01*
Y242900D01*
X115500Y242800D01*
X116074Y258900D02*X118826D01*
X118926Y259000D01*
X120652Y247874D02*Y245152D01*
X120300Y244800D01*
X45500Y226500D02*X51000D01*
X53500Y230000D02*Y222500D01*
X64000Y230000D02*Y222500D01*
G54D12*X138000Y221700D02*X99300D01*
X136900Y223200D02*X97800D01*
X97700Y233500D02*Y232000D01*
X96800Y234400D02*X97700Y233500D01*
X96100Y234400D02*X96800D01*
X95200Y235300D02*X96100Y234400D01*
X95200Y236700D02*Y235300D01*
G54D15*X125000Y237926D02*Y235200D01*
G54D12*X137100Y241000D02*Y239100D01*
X136800Y238800D01*
Y237300D01*
X138578Y244713D02*Y238622D01*
X140200Y237000D01*
G54D15*X125000Y235200D02*X124800Y235000D01*
G54D12*X70100Y240600D02*X70000Y240500D01*
X70100Y243026D02*Y240600D01*
X93093Y248788D02*X92588D01*
X91200Y247400D01*
Y243126D01*
X91074Y243000D01*
X95062Y248788D02*Y246962D01*
X93600Y245500D01*
Y242026D01*
X95226Y240400D01*
X80431Y256031D02*X78431D01*
X78400Y256000D01*
Y255900D01*
X74600Y252100D01*
Y250100D01*
X99681Y282650D02*X97031Y280000D01*
Y267213D02*Y280031D01*
X95062Y267213D02*Y280662D01*
G54D15*X61300Y278126D02*X61326Y278100D01*
X61300Y281200D02*Y278126D01*
X80074Y267000D02*X80000Y267074D01*
X82000Y267000D02*X80074D01*
X83600Y265400D02*X82000Y267000D01*
X84400Y265400D02*X83600D01*
X45500Y289500D02*X51000D01*
X53500Y293000D02*Y285500D01*
X64000Y293000D02*Y285500D01*
X71500Y289500D02*X68000D01*
G54D12*X76000Y285500D02*X84800D01*
G54D15*X56526Y248974D02*X56600Y248900D01*
X56526Y252100D02*Y248974D01*
X52200Y249000D02*X52300Y248900D01*
X28559Y243941D02*X28400Y244100D01*
X32000Y243941D02*X28559D01*
X28441Y249059D02*X28400Y249100D01*
X32000Y249059D02*X28441D01*
G54D12*X26000Y261000D02*Y265000D01*
G54D15*X21500Y258000D02*X15000D01*
X49574Y249000D02*X52200D01*
G54D14*X46500Y251500D02*X46000Y252000D01*
X46500Y249000D02*Y251500D01*
G54D15*X20600Y258000D02*X32426D01*
G54D12*X40680Y264080D02*X39500Y262900D01*
X34000D01*
X33300Y263600D01*
Y265100D01*
G54D15*X57926Y270774D02*X57900Y270800D01*
X72900Y260526D02*Y262900D01*
X72926Y260500D02*X72900Y260526D01*
X72700Y262900D02*X69674D01*
X74000Y264200D02*X72700Y262900D01*
X60800Y270774D02*X57926D01*
X61426Y271400D02*X60800Y270774D01*
X61426Y274300D02*Y271400D01*
X61326Y274400D02*X61426Y274300D01*
X61326Y278100D02*Y274400D01*
G54D14*X47200Y277500D02*Y280000D01*
X46700Y280500D01*
G54D15*X50274Y277500D02*Y280374D01*
X50500Y280600D01*
G54D12*X33200Y279400D02*X29700D01*
X26800Y276500D01*
Y270659D01*
X33200Y269164D02*Y265300D01*
X36940Y269164D02*Y265760D01*
X37400Y265300D01*
X40680Y269164D02*Y264080D01*
X33300Y265100D02*X33200Y265200D01*
X140000Y286400D02*X143200Y289600D01*
X85700Y286400D02*X140000D01*
G54D15*X90500Y289500D02*X93500D01*
G54D12*X99200Y284700D02*X141500D01*
G54D15*X115500Y289500D02*X113000D01*
G54D12*X111774Y294774D02*X111600Y294600D01*
X124600Y283200D02*X136000D01*
X124400Y283000D02*X124600Y283200D01*
X100100Y283000D02*X124400D01*
X99750Y282650D02*X99681D01*
X99600Y282500D02*X100100Y283000D01*
X97650Y283150D02*X99200Y284700D01*
X98012Y283550D02*X95062Y280600D01*
X98050Y283550D02*X98012D01*
X97550Y283150D02*X97650D01*
X84800Y285500D02*X85700Y286400D01*
X97300Y294526D02*X97274Y294500D01*
G54D15*X92900Y293300D02*X91500D01*
X91200Y293600D01*
X101400Y293626D02*X104126D01*
X121426Y269700D02*Y272074D01*
X120800Y272700D01*
G54D12*X108212Y188288D02*X111400Y185100D01*
X108212Y189093D02*Y188288D01*
G54D15*X114800Y180600D02*X115600Y179800D01*
X114800Y182726D02*Y180600D01*
Y187000D02*X113200Y188600D01*
X114800Y185874D02*Y187000D01*
X115500Y163500D02*X112000D01*
X90500D02*X93500D01*
X45500D02*X51000D01*
X71500D02*X68000D01*
G54D12*X97474Y170126D02*Y168900D01*
X96900Y169474D02*X97474Y168900D01*
X96500Y171100D02*X97474Y170126D01*
X96000Y171100D02*X96500D01*
X95126Y171974D02*X96000Y171100D01*
X95126Y173374D02*Y171974D01*
G54D15*X74400Y180126D02*Y177426D01*
G54D12*X95126Y172400D02*Y172274D01*
G54D14*X46500Y187500D02*X46000Y188000D01*
X46500Y185000D02*Y187500D01*
X49500Y185000D02*X52500D01*
X32000D02*X28500D01*
G54D12*X36740Y207564D02*Y203660D01*
X37100Y203300D01*
X38900Y200700D02*X34000D01*
X33100Y201600D01*
Y203000D01*
X33000Y203100D01*
X40480Y207564D02*Y202280D01*
X38900Y200700D01*
G54D14*X51074Y216300D02*X51574Y216800D01*
X51074Y213800D02*Y216300D01*
X48074D02*X47574Y216800D01*
X48074Y213800D02*Y216300D01*
G54D15*X71500Y226500D02*X68000D01*
G54D12*X70200Y177700D02*X70100Y177600D01*
X70200Y180126D02*Y177700D01*
G54D15*X60900Y207874D02*Y211174D01*
X61226Y211500D01*
Y214900D01*
Y211500D02*X58100D01*
X61226Y214900D02*X61426Y215100D01*
Y217474D01*
X60500Y218400D01*
X58100Y211500D02*X58000Y211400D01*
X64574Y215100D02*Y218326D01*
X64374Y211500D02*Y207626D01*
X64574Y218326D02*X64500Y218400D01*
G54D12*X33000Y207564D02*Y203400D01*
Y217800D02*X29200D01*
X33000Y203400D02*X33100Y203300D01*
X29200Y217800D02*X26300Y214900D01*
Y209100D01*
X26000Y208800D01*
X25500Y198000D02*Y203182D01*
X26000Y203682D01*
X132671Y177571D02*X131900Y176800D01*
X132671Y181513D02*Y177571D01*
X128570Y184170D02*X125000Y180600D01*
X130013Y184170D02*X128570D01*
X125008Y188108D02*X125000Y188100D01*
X130213Y188108D02*X125008D01*
G54D15*X125000Y180700D02*Y178074D01*
X131900Y174274D02*X132200Y173974D01*
X131900Y176800D02*Y174274D01*
X120326Y184800D02*Y181874D01*
X120400Y181800D01*
G54D12*X158400Y172200D02*X158500Y172100D01*
X154200Y174700D02*X154400Y174500D01*
X160900Y178800D02*X161800Y179700D01*
X149300Y178800D02*X160900D01*
X150100Y177200D02*X165000D01*
X150100Y172200D02*X158400D01*
X149150Y171250D02*X150100Y172200D01*
X150300Y174700D02*X154200D01*
X148700Y173100D02*X150300Y174700D01*
X144200Y173700D02*X149300Y178800D01*
X147000Y174100D02*X150100Y177200D01*
X162200Y169800D02*X164900Y172500D01*
X150100Y169800D02*X162200D01*
X143500Y173700D02*X144200D01*
X141600Y163700D02*X149500Y171600D01*
X140100Y164500D02*X149000Y173400D01*
X143100Y162800D02*X150100Y169800D01*
X138500Y165600D02*X148200Y175300D01*
X138500Y160900D02*Y165600D01*
X137300Y174800D02*X136500Y174000D01*
X137300Y178700D02*Y174800D01*
X136609Y179391D02*X137300Y178700D01*
X136609Y181713D02*Y179391D01*
X96900Y219300D02*X99300Y221700D01*
X95000Y220400D02*X97800Y223200D01*
X95000Y220300D02*Y220400D01*
G54D15*X90500Y226500D02*X93500D01*
X115500D02*X112500D01*
X135074Y219374D02*X135200Y219500D01*
G54D12*X153900Y225200D02*X146500Y217800D01*
X148422Y215222D02*X155000Y221800D01*
X154800Y218700D02*X150400Y214300D01*
X95000Y204275D02*X95062Y204213D01*
X95000Y220400D02*Y204275D01*
X93093Y207307D02*X90900Y209500D01*
X96900Y219300D02*Y204344D01*
G54D15*X81300Y212600D02*X84274D01*
X84500Y212374D01*
Y209226D02*Y205700D01*
G54D12*X96900Y204344D02*X97031Y204213D01*
X99000D02*Y209100D01*
X99400Y209500D01*
X102100Y208000D02*Y210074D01*
X102326Y210300D01*
G54D15*X99526Y214100D02*Y209626D01*
X99400Y209500D01*
G54D12*X105500Y208000D02*Y210274D01*
X105474Y210300D01*
X108100Y207200D02*Y209874D01*
X108526Y210300D01*
X111500Y207400D02*Y210126D01*
G54D15*X119226Y195900D02*X116174D01*
X121326Y206900D02*Y209274D01*
X120900Y209700D01*
X102674Y214100D02*X105200D01*
X105600Y213700D01*
G54D12*X111500Y210126D02*X111674Y210300D01*
G54D15*X125200Y216074D02*Y218800D01*
X125100Y218900D01*
G54D12*X144484Y208287D02*Y219884D01*
X146500Y217800D02*Y208334D01*
X148422Y208287D02*Y215222D01*
X150400Y214300D02*Y208296D01*
X152360Y208287D02*Y212260D01*
X155300Y215200D01*
X138577Y208287D02*Y212777D01*
X126100Y209500D02*X125200Y210400D01*
X128600Y209500D02*X126100D01*
X130013Y208087D02*X128600Y209500D01*
X130013Y205829D02*Y208087D01*
X132670Y208487D02*Y213030D01*
X128670Y247170D02*X125100Y243600D01*
X130013Y247170D02*X128670D01*
X125700Y272200D02*X125000Y272900D01*
X127800Y272200D02*X125700D01*
X130013Y269987D02*X127800Y272200D01*
X130013Y268829D02*Y269987D01*
X132670Y274430D02*X132000Y275100D01*
X132670Y271487D02*Y274430D01*
G54D15*X124926Y272974D02*X125000Y272900D01*
X124926Y275400D02*Y272974D01*
X129400Y277700D02*X132000Y275100D01*
X129400Y278026D02*Y277700D01*
X125200Y210400D02*Y212978D01*
X125100Y241126D02*X124974Y241000D01*
X125100Y243600D02*Y241126D01*
G54D12*X125800Y212900D02*X125100Y213600D01*
G54D15*Y216326D02*X125200Y216426D01*
G54D12*X132671Y241171D02*X131700Y240200D01*
X132671Y244513D02*Y241171D01*
G54D15*X131700Y236774D02*X131800Y236674D01*
X131700Y239900D02*Y236774D01*
X132000Y219500D02*X131900Y219400D01*
X134626Y233526D02*X134700Y233600D01*
X131800Y233526D02*X134626D01*
G54D12*X148350Y227650D02*X153600Y232900D01*
X143850Y225450D02*X153500Y235100D01*
X143000Y220300D02*X154300Y231600D01*
X148250Y227650D02*X148350D01*
X155100Y235100D02*X155300Y235300D01*
X153500Y235100D02*X155100D01*
X142400Y233600D02*X149800Y241000D01*
X140750Y224450D02*X154000Y237700D01*
X139150Y225450D02*X152900Y239200D01*
X144484Y219884D02*X154500Y229900D01*
X138577Y212777D02*X139100Y213300D01*
X136608Y215208D02*X140100Y218700D01*
G54D15*X135200Y219500D02*X132000D01*
G54D12*X132670Y213030D02*X131900Y213800D01*
G54D15*Y216126D02*X132000Y216226D01*
X131900Y213700D02*Y216126D01*
G54D12*X132670Y215930D02*X131900Y216700D01*
X136608Y208287D02*Y215208D01*
X134639Y208287D02*Y215839D01*
X137800Y219000D02*Y219400D01*
X134639Y215839D02*X137800Y219000D01*
X143000Y211900D02*Y220300D01*
X142200Y211100D02*X143000Y211900D01*
X141300Y211100D02*X142200D01*
X140546Y210346D02*X141300Y211100D01*
X140546Y208287D02*Y210346D01*
X138900Y233600D02*X142400D01*
X143000Y219600D02*Y220300D01*
X140100Y219500D02*X148500Y227900D01*
X140100Y218700D02*Y219500D01*
X137800Y219400D02*X144300Y225900D01*
X140900Y224600D02*X138000Y221700D01*
X139400Y225700D02*X136900Y223200D01*
G54D15*X35574Y258000D02*X38426D01*
X38500Y258074D01*
Y254926D02*Y252000D01*
X38400Y251900D01*
X38500Y254926D02*X35426D01*
X34900Y254400D01*
X38500Y254800D02*X41500D01*
X41900Y254400D01*
X38600Y258000D02*X42426D01*
X45574D02*X52650D01*
X52750Y257900D01*
Y263100D02*X49700D01*
X48900Y263900D01*
X52750Y260500D02*X48200D01*
X47900Y260800D01*
G54D12*X60250Y257900D02*Y252176D01*
X59574Y251500D01*
X60700Y263100D02*Y267526D01*
X60800Y267626D01*
G54D15*X64574Y278000D02*Y281226D01*
X64400Y281400D01*
X64674Y274400D02*Y270774D01*
X64400Y270500D01*
X60250Y260500D02*X63300D01*
X63900Y259900D01*
X60250Y263100D02*X66326D01*
X66526Y262900D01*
X76074Y260500D02*X78426D01*
X72800Y260626D02*X72926Y260500D01*
X73500Y267574D02*X70874D01*
X74000Y264226D02*Y264100D01*
X70874Y267574D02*X70400Y267100D01*
X99426Y277500D02*Y272626D01*
G54D12*X99000Y272200D02*X99300Y272500D01*
G54D15*X99426Y272626D02*X99300Y272500D01*
G54D12*X99000Y267213D02*Y272200D01*
X100969Y267213D02*Y270569D01*
X101700Y271300D01*
Y272774D01*
G54D15*X78426Y260500D02*X80426Y258500D01*
X84400Y261800D02*X83900D01*
X83100Y262600D01*
X81326D01*
X80000Y263926D01*
G54D12*X84074Y258000D02*X83574Y258500D01*
G54D15*X84400Y265400D02*X84200D01*
X84500Y272426D02*Y268800D01*
X84400Y268700D01*
G54D12*X85200Y268200D02*X84500Y268900D01*
G54D15*Y275574D02*X81226D01*
X81200Y275600D01*
G54D12*X89787Y263907D02*Y265513D01*
Y261938D02*X88062D01*
X84600Y265400D01*
X89787Y259969D02*X86231D01*
X84400Y261800D01*
X89787Y258000D02*X84074D01*
X89787Y265513D02*X87100Y268200D01*
X93093Y267213D02*Y270207D01*
X90800Y272500D01*
X87100Y268200D02*X85200D01*
G54D15*X84400Y252900D02*X81174D01*
X81000Y253074D01*
G54D12*X89787Y254062D02*X85962D01*
X84800Y252900D01*
X89787Y252093D02*X86593D01*
G54D15*X81000Y249926D02*Y247300D01*
X84500Y247374D02*Y249800D01*
X84400Y249900D01*
G54D12*X86593Y252093D02*X84400Y249900D01*
X89787Y256031D02*X80331D01*
X74600Y250300D02*Y246274D01*
X70200D01*
X70100Y246174D01*
G54D15*X81000Y247300D02*X80700Y247000D01*
X74600Y243126D02*Y240726D01*
X74300Y240426D01*
X84500Y244226D02*Y241700D01*
X87926Y243000D02*Y240374D01*
X88000Y240300D01*
X87474Y233926D02*X87300Y234100D01*
X90500Y234226D02*X87426D01*
X87300Y234100D01*
G54D12*X93526Y240400D02*X90500Y237374D01*
X99000Y248788D02*Y244300D01*
X97031Y248788D02*Y244431D01*
X96400Y243800D01*
X99000Y244300D02*X99500Y243800D01*
X100969Y248788D02*Y246331D01*
X101700Y245600D01*
Y242700D01*
X100200Y241200D01*
X95062Y240564D02*X95226Y240400D01*
X93526D01*
G54D15*X94526Y232000D02*X94400D01*
X93200Y230800D01*
X90700D01*
X90600Y230900D01*
G54D12*X100200Y241200D02*X99174D01*
X98374Y240400D01*
X98474Y240500D02*Y236800D01*
X98374Y236700D01*
G54D15*X101100Y230826D02*X104226D01*
X104300Y230900D01*
G54D12*X97500Y232174D02*X97674Y232000D01*
X98374Y236700D02*X101100Y233974D01*
G54D15*X108626Y234700D02*Y232426D01*
X107600Y231400D01*
G54D12*X111600Y231300D02*Y234526D01*
G54D15*X104126Y293626D02*X104200Y293700D01*
X102574Y277500D02*X104700D01*
X105500Y276700D01*
G54D12*X101700Y272774D02*X102426Y273500D01*
X104300Y271000D02*X104400D01*
X105200Y271800D01*
Y273126D01*
X105574Y273500D01*
X102938Y248788D02*Y246762D01*
X103600Y246100D01*
Y244200D01*
X104100Y243700D01*
X111800Y243300D02*X106500Y248600D01*
X105095D01*
X104907Y248788D01*
G54D15*X104050Y243750D02*Y241124D01*
X104000Y241074D01*
Y237926D02*Y237900D01*
X105300Y236600D01*
Y235200D01*
X105600Y234900D01*
G54D12*X111600Y234526D02*X111774Y234700D01*
Y238100D01*
X111800Y238126D01*
Y241274D02*Y243300D01*
X102938Y267213D02*Y269638D01*
X104300Y271000D01*
X104907Y267213D02*X104913D01*
X107800Y270100D01*
X108212Y263907D02*Y267312D01*
X107800Y270100D02*Y272874D01*
X108426Y273500D01*
X108212Y267312D02*X111300Y270400D01*
Y273226D01*
X111574Y273500D01*
X108212Y261938D02*X111738D01*
X115400Y265600D01*
X108212Y259969D02*X112569D01*
X115100Y262500D01*
X115400Y265600D02*X118026D01*
X115100Y262500D02*X118426D01*
X118026Y265600D02*X118426Y266000D01*
X118126Y255200D02*X118426Y255500D01*
X118126Y251700D02*X118426Y252000D01*
X118326Y255400D02*X118363Y255437D01*
X118026Y251600D02*X118426Y252000D01*
X108212Y258000D02*X112500D01*
X115100Y255400D01*
X118326D01*
X108212Y256031D02*X112069D01*
X108212Y254062D02*X110638D01*
X112069Y256031D02*X116500Y251600D01*
X110638Y254062D02*X113100Y251600D01*
G54D15*X113250Y251450D02*X113550D01*
X114700Y250300D01*
G54D12*X116500Y251600D02*X118026D01*
G54D15*X114700Y250300D02*Y249374D01*
X115000Y249074D01*
Y245926D02*Y244900D01*
G54D12*X85900Y84100D02*X86100Y84300D01*
G54D15*Y88200D02*X86200Y88100D01*
X86100Y90526D02*Y88200D01*
G54D12*X85900Y81400D02*Y84100D01*
G54D15*X86126Y78700D02*Y75826D01*
G54D12*X86100Y75800D01*
X86126Y78400D02*Y75826D01*
X86274Y81400D02*X86126Y81548D01*
G54D15*X76900Y81552D02*X80052D01*
X76900Y78400D02*X79900D01*
X76900Y64400D02*X80000D01*
X76900Y61252D02*X79900D01*
X80000Y61152D01*
X85900Y61200D02*Y58700D01*
G54D12*Y61226D02*Y58700D01*
Y67200D02*X85800Y67300D01*
X85900Y64374D02*Y67200D01*
X86026Y64500D02*X85900Y64374D01*
X86100Y93674D02*Y96400D01*
X86326Y93900D02*X86100Y93674D01*
G54D15*X77274Y94000D02*X77100Y94174D01*
X80100Y94000D02*X77274D01*
X76900Y91126D02*X79874D01*
X80100Y90900D01*
X80252Y81552D02*X80300Y81600D01*
X62800Y87018D02*X62600Y86818D01*
X62800Y90626D02*Y87018D01*
X57000Y90600D02*X56800Y90400D01*
X59626Y90600D02*X57000D01*
X62800Y90626D02*X62774Y90600D01*
Y81526D02*X62600Y81700D01*
X59626Y77900D02*X56700D01*
X62774Y78200D02*Y81526D01*
Y73474D02*X61800Y72500D01*
X62774Y78100D02*Y73474D01*
X62700Y73400D02*X62500Y73200D01*
X62800Y106300D02*Y90126D01*
X67750Y111250D02*X62800Y106300D01*
X58400Y69100D02*X62800Y73500D01*
X41126Y68800D02*X41300Y68974D01*
X31674Y68800D02*X41126D01*
X15200D02*X15100Y68900D01*
X28526Y68800D02*X15200D01*
X40374Y69000D02*X40400Y68974D01*
X41400Y63500D02*X41200Y63300D01*
X41400Y65926D02*Y63500D01*
X40400Y69000D02*X44752D01*
X44852Y69100D01*
X48000D02*X52200D01*
X51600Y66052D02*Y63500D01*
X51500Y63400D01*
X52100Y69100D02*X58400D01*
X81700Y132100D02*X81889Y131911D01*
X78159Y132100D02*X81700D01*
X72841Y131900D02*X73041Y132100D01*
X81550Y111250D02*X67750D01*
X99137Y128837D02*X81600Y111300D01*
Y128474D02*X81926Y128800D01*
X81600Y126000D02*Y128474D01*
X69200Y128426D02*X69400Y128626D01*
X69200Y125800D02*Y128426D01*
X81926Y131948D02*X86448D01*
X105400Y123100D02*X105300Y123000D01*
X105400Y125626D02*Y123100D01*
X105374Y128800D02*X105400Y128774D01*
G54D12*X132671Y114871D02*X131600Y113800D01*
X132671Y118513D02*Y114871D01*
G54D15*X131600Y111348D02*X132000Y110948D01*
X131600Y113900D02*Y111348D01*
G54D12*X134640Y113960D02*X134800Y113800D01*
G54D15*X132000Y107800D02*X135200D01*
X124800Y115048D02*Y117600D01*
Y111900D02*Y109000D01*
G54D12*X128270Y121170D02*X124800Y117700D01*
X130013Y121170D02*X128270D01*
X134640Y118713D02*Y113960D01*
G54D15*X135200Y107800D02*X135400Y107600D01*
X120326Y118826D02*X120300Y118800D01*
X120326Y121800D02*Y118826D01*
G54D12*X132670Y152830D02*X131800Y153700D01*
X125300Y150400D02*X125000Y150700D01*
G54D15*Y153400D02*X125100Y153500D01*
Y155800D02*X125000Y155900D01*
X125100Y153148D02*Y155800D01*
X131800Y156626D02*X131900Y156726D01*
G54D12*X74102Y158908D02*X136500Y158900D01*
G54D15*X134974Y156374D02*X135100Y156500D01*
X131900Y156374D02*X134974D01*
G54D12*X124813Y123139D02*X123474Y121800D01*
X130213Y125108D02*X120292D01*
X130213Y123139D02*X124813D01*
X113048Y125400D02*X112948Y125300D01*
X120000Y125400D02*X113048D01*
X120292Y125108D02*X120000Y125400D01*
X113174Y128900D02*X113074Y129000D01*
X122800Y128900D02*X113174D01*
G54D15*X109800Y122200D02*X109700Y122100D01*
X109800Y125300D02*Y122200D01*
X105900Y125300D02*X105400Y125800D01*
X109800Y125300D02*X105900D01*
X105700Y129000D02*X105500Y128800D01*
X109926Y129000D02*X105700D01*
G54D12*X124623Y127077D02*X122800Y128900D01*
X122074Y132800D02*X121974Y132900D01*
X123100Y132800D02*X122074D01*
X123600Y132300D02*X123100Y132800D01*
X130213Y127077D02*X124623D01*
X126615Y131015D02*X125500Y129900D01*
X130213Y131015D02*X126615D01*
X127000Y132300D02*X123600D01*
X127684Y132984D02*X127000Y132300D01*
X130213Y132984D02*X127684D01*
X125953Y134953D02*X125500Y134500D01*
X130213Y134953D02*X125953D01*
G54D15*X118826Y132900D02*X116074D01*
X110000Y133500D02*X109800Y133300D01*
X110000Y136400D02*Y133500D01*
G54D12*X113174Y136300D02*X113074Y136400D01*
X113174Y140100D02*X113074Y140200D01*
X122300Y140100D02*X113174D01*
X123509Y138891D02*X122300Y140100D01*
X123100Y136300D02*X113174D01*
X123722Y136922D02*X123100Y136300D01*
X130213Y136922D02*X123722D01*
X130213Y138891D02*X123509D01*
X130073Y141000D02*X130213Y140860D01*
X127300Y141000D02*X130073D01*
X124700Y143600D02*X127300Y141000D01*
X124574Y143600D02*X124700D01*
G54D15*X121426Y146074D02*X120800Y146700D01*
X121426Y143600D02*Y146074D01*
X105574Y140400D02*X105774Y140200D01*
X109926D02*X105774D01*
X105700Y137100D02*X105600Y137200D01*
X108500Y137100D02*X105700D01*
X109200Y136400D02*X108500Y137100D01*
X109926Y136400D02*X109200D01*
G54D12*X129700Y99300D02*X129100Y99900D01*
X125000Y101300D02*X125100Y101400D01*
X125000Y98000D02*Y101300D01*
X129700Y98700D02*Y99300D01*
X133570Y94830D02*X129700Y98700D01*
X133570Y92823D02*Y94830D01*
X131601Y94699D02*X130400Y95900D01*
X131601Y92823D02*Y94699D01*
X127100Y95900D02*X125000Y98000D01*
X130400Y95900D02*X127100D01*
X125351Y92823D02*X121174Y97000D01*
X129632Y92823D02*X125351D01*
X134100Y96300D02*Y98600D01*
X134600Y101200D02*X134000Y101800D01*
X136000Y101200D02*X134600D01*
X135539Y94861D02*X134100Y96300D01*
X135539Y94561D02*Y94861D01*
Y92823D02*Y94661D01*
G54D15*X121174Y97126D02*X121200Y97100D01*
G54D12*X116474Y93800D02*X120700D01*
G54D15*X121174Y100300D02*Y97126D01*
X115700Y100300D02*X115500Y100500D01*
X118026Y100300D02*X115700D01*
G54D12*X118000Y86300D02*X117600Y85900D01*
X123900Y86300D02*X118000D01*
X120102Y88298D02*X118700Y89700D01*
X116474Y81000D02*X120600D01*
X124000Y84400D01*
X127037D02*X127077Y84360D01*
X124000Y84400D02*X127037D01*
X123222Y80422D02*X121300Y78500D01*
X127077Y80422D02*X123222D01*
X127077Y88298D02*X120102D01*
X127048Y86300D02*X127077Y86329D01*
X122300Y86300D02*X127048D01*
X126975Y88400D02*X127077Y88298D01*
X120700Y93800D02*X124200Y90300D01*
X127044D02*X127077Y90267D01*
X124200Y90300D02*X127044D01*
G54D15*X101100Y88000D02*X101200Y87900D01*
X101100Y90426D02*Y88000D01*
G54D12*X101374Y81000D02*X101226Y81148D01*
X90641Y93900D02*X86326D01*
X96085Y93574D02*X95759Y93900D01*
X101100Y93574D02*X96085D01*
X101326Y93800D02*X101100Y93574D01*
X106226Y93800D02*X101326D01*
X101226Y81148D02*X96111D01*
X106226Y81000D02*X101374D01*
X113326Y93800D02*X109374D01*
X90741Y81400D02*X86274D01*
X90741Y64500D02*X86026D01*
X96111Y81148D02*X95859Y81400D01*
X96133Y64774D02*X95859Y64500D01*
G54D15*X101226Y77900D02*Y75326D01*
G54D12*X101200Y75300D01*
X101226Y78000D02*Y75326D01*
G54D15*X101400Y61500D02*Y59000D01*
G54D12*Y64774D02*X96133D01*
X101400Y59000D02*X101200Y58800D01*
X101400Y61626D02*Y59000D01*
X101474Y64700D02*X101400Y64774D01*
G54D15*X102157Y50600D02*X97900D01*
X97800Y50700D01*
G54D12*X106252Y64700D02*X101474D01*
X113326D02*X109400D01*
G54D15*X121200Y73400D02*X118500D01*
G54D12*X118326D02*X118300Y73426D01*
X121100Y73400D02*X118326D01*
X121400Y70400D02*X116500D01*
X115200Y69100D01*
X120308Y68608D02*X119800Y68100D01*
X121854Y72546D02*X121000Y73400D01*
X121577Y70577D02*X121400Y70400D01*
G54D15*X115474Y76574D02*X115400Y76500D01*
X118300Y76574D02*X115474D01*
G54D12*X113326Y81000D02*X109374D01*
X121300Y64900D02*X116674D01*
X116474Y64700D01*
X125901Y62701D02*X122400Y59200D01*
X127077Y58177D02*X123200Y54300D01*
X127077Y60732D02*Y58177D01*
G54D15*X119800Y56800D02*Y53874D01*
X113900Y50900D02*X109543D01*
X119800Y50726D02*X122526D01*
X122600Y50800D01*
X109543Y50900D02*X109243Y50600D01*
G54D12*X127077Y72546D02*X121854D01*
X127077Y70577D02*X121577D01*
X127077Y62701D02*X125901D01*
X127077Y64670D02*X123970D01*
X123570D02*X121100Y62200D01*
X124000Y64670D02*X123570D01*
X123039Y66639D02*X121300Y64900D01*
X127077Y68608D02*X120308D01*
X127077Y66639D02*X123039D01*
X126969Y68500D02*X127077Y68608D01*
X185000Y78700D02*X193500D01*
X185000Y85600D02*X192100D01*
X174300Y90600D02*X175700Y89200D01*
X169600Y90600D02*X174300D01*
X170000Y93474D02*X169763Y93237D01*
X168400Y89400D02*X169600Y90600D01*
X166400Y89400D02*X168400D01*
X166000Y89000D02*X166400Y89400D01*
X167526Y91000D02*X169826Y93300D01*
X164700Y91000D02*X167526D01*
X164000Y90300D02*X164700Y91000D01*
G54D15*X179200Y92448D02*Y94800D01*
G54D12*X166000Y88200D02*Y89000D01*
X164130Y86330D02*X166000Y88200D01*
X164000Y88700D02*Y90300D01*
X163599Y88299D02*X164000Y88700D01*
X166600Y84900D02*X164700D01*
X161723Y86330D02*X164130D01*
X161723Y88299D02*X163599D01*
X161762Y84400D02*X161723Y84361D01*
X164200Y84400D02*X161762D01*
X164700Y84900D02*X164200Y84400D01*
X161723Y80423D02*X167577D01*
X165192Y82392D02*X165400Y82600D01*
X161723Y82392D02*X165192D01*
X170600Y84900D02*X170700Y84800D01*
X166100Y84900D02*X170600D01*
X168800Y83200D02*X170600Y81400D01*
G54D15*X174300Y84900D02*X174200Y85000D01*
X174300Y82600D02*Y84900D01*
G54D12*X167577Y80423D02*X167600Y80400D01*
X179200Y85059D02*Y89300D01*
X178885Y79626D02*X179200Y79941D01*
X174474Y79626D02*X178885D01*
X174148Y79300D02*X174300Y79452D01*
X171400Y79300D02*X174148D01*
X165700Y83200D02*X168800D01*
X164892Y82392D02*X165700Y83200D01*
X163400Y82392D02*X164892D01*
X170654Y78454D02*X171500Y79300D01*
X164900Y78454D02*X170654D01*
X161723D02*X165046D01*
X166922Y70578D02*X167300Y70200D01*
X164800Y70578D02*X166922D01*
X161723Y72547D02*X171547D01*
X161723Y70578D02*X165978D01*
G54D15*X182574Y71648D02*X185448D01*
X185500Y71700D01*
G54D12*X171026Y68000D02*X171500Y68474D01*
X171547Y72547D02*X171800Y72800D01*
X171300Y75300D02*X171800Y75800D01*
X170400Y75300D02*X171300D01*
X168900Y73800D02*X170400Y75300D01*
X171365Y68609D02*X171574Y68400D01*
X165900Y68000D02*X171026D01*
G54D15*X174722Y68400D02*X177100D01*
X177300Y68600D01*
G54D12*X165900Y73800D02*X168900D01*
X165184Y74516D02*X165900Y73800D01*
X161723Y74516D02*X165184D01*
X166815Y76485D02*X167600Y75700D01*
X161723Y76485D02*X166815D01*
G54D15*X167700Y75800D02*X167600Y75700D01*
G54D12*X165291Y68609D02*X165900Y68000D01*
X161723Y64671D02*X167229D01*
X161723Y66640D02*X168460D01*
X161723Y68609D02*X165291D01*
X167229Y64671D02*X168100Y63800D01*
G54D15*Y63700D02*Y61274D01*
G54D12*X168460Y66640D02*X170700Y64400D01*
X173326D01*
X176474D02*X181026D01*
X181126Y64500D01*
X181000Y64400D02*Y66926D01*
X182574Y68500D01*
X193100Y32400D02*X187300D01*
X195000Y34300D02*X193100Y32400D01*
X197800Y34300D02*X195000D01*
X149300Y45600D02*Y36800D01*
Y58154D02*X149323Y58177D01*
X149300Y48600D02*Y58154D01*
Y44300D02*Y49300D01*
X164100Y43300D02*Y28100D01*
X166500Y45700D02*X164100Y43300D01*
X166500Y53700D02*Y45700D01*
X161723Y58477D02*X166500Y53700D01*
X161723Y60733D02*Y58477D01*
G54D15*X168100Y58126D02*X171074D01*
X171100Y58100D01*
G54D12*X159400Y52200D02*X159800Y51800D01*
X159400Y53100D02*Y52200D01*
X157199Y55301D02*X159400Y53100D01*
X157199Y58177D02*Y55301D01*
X159168Y56432D02*X163600Y52000D01*
X159168Y58177D02*Y56432D01*
X155230Y52670D02*X155700Y52200D01*
X155230Y58177D02*Y52670D01*
G54D15*X155700Y49974D02*X155600Y49874D01*
X155700Y52400D02*Y49974D01*
X152900Y46700D02*X155574D01*
X155600Y46726D01*
X135787Y46613D02*X136300Y46100D01*
X132887Y46613D02*X135787D01*
X132800Y46526D02*X132900Y46626D01*
G54D12*X136000Y49300D02*X136500Y48800D01*
X136000Y51800D02*Y49300D01*
G54D15*X128474Y46800D02*X128500Y46826D01*
X125700Y46800D02*X128474D01*
X128400Y50074D02*X128500Y49974D01*
X128400Y52300D02*Y50074D01*
G54D12*X129633Y54233D02*X127600Y52200D01*
X129633Y58177D02*Y54233D01*
X131602Y58177D02*Y52598D01*
G54D15*X132900Y51300D02*X132000Y52200D01*
X132900Y49774D02*Y51300D01*
G54D12*X131602Y52598D02*X132000Y52200D01*
X133571Y54229D02*X136000Y51800D01*
X133571Y58177D02*Y54229D01*
X135540Y58177D02*Y54960D01*
X137509Y58177D02*Y54991D01*
X139478Y58177D02*Y55522D01*
X135540Y54960D02*X138200Y52300D01*
X137509Y54991D02*X139400Y53100D01*
X139478Y55522D02*X140800Y54200D01*
X138200Y47900D02*X139900Y46200D01*
X139550Y50050D02*X143000Y46600D01*
X139400Y46700D02*X139900Y46200D01*
X142800Y49600D02*X143400Y49000D01*
X142200Y49600D02*X142800D01*
X140800Y51000D02*X142200Y49600D01*
X138200Y52300D02*Y47900D01*
X139550Y52950D02*Y50050D01*
X139050Y53450D02*X139550Y52950D01*
X140800Y54200D02*Y51000D01*
X143000Y45400D02*X143600Y44800D01*
X143000Y46600D02*Y45400D01*
X145200Y54026D02*X146726Y52500D01*
X145200Y54800D02*Y54026D01*
X143416Y56584D02*X145200Y54800D01*
X143300Y54500D02*Y52300D01*
X141447Y56353D02*X143300Y54500D01*
X143416Y58177D02*Y56584D01*
X141447Y58177D02*Y56353D01*
X143300Y52300D02*X143200Y52200D01*
G54D15*X146700Y46400D02*X146624Y46476D01*
X146700Y43900D02*Y46400D01*
X146726Y49726D02*X146600Y49600D01*
X146726Y52300D02*Y49726D01*
X146548Y46400D02*X146600Y46452D01*
G54D12*X161600Y90391D02*X161723Y90268D01*
X161600Y93200D02*Y90391D01*
G54D15*X150274Y109300D02*X152800D01*
G54D12*X144800Y111200D02*Y110000D01*
X146900Y113300D02*X144800Y111200D01*
X151726Y113300D02*X146900D01*
G54D15*X154874D02*X157500D01*
X157000Y104326D02*X156926Y104400D01*
G54D12*X143500Y114300D02*X144000Y113800D01*
X143500Y115200D02*Y114300D01*
X142516Y116184D02*X143500Y115200D01*
X155300Y97500D02*X157000Y99200D01*
Y101526D02*Y99200D01*
X155300Y97100D02*Y97500D01*
X153800Y97600D02*Y100100D01*
X158600Y95000D02*X162000Y98400D01*
X158900Y97300D02*X157800Y96200D01*
X158900Y99100D02*X161000Y101200D01*
X158900Y97300D02*Y99100D01*
X153800Y100100D02*X152500Y101400D01*
X151700D01*
X151200Y101900D01*
X157700Y95000D02*X158600D01*
X157198Y94498D02*X157700Y95000D01*
X157100Y96200D02*X155200Y94300D01*
X157800Y96200D02*X157100D01*
X153260Y95060D02*X155300Y97100D01*
X153260Y92823D02*Y95060D01*
X157198Y92823D02*Y94498D01*
X155229Y92823D02*Y94329D01*
X151291Y92823D02*Y95091D01*
X153800Y97600D01*
G54D15*X47200Y128452D02*X47500Y128752D01*
X105337Y128837D02*X99137D01*
X105474Y140500D02*X105600Y140374D01*
X95000Y140500D02*X105474D01*
X105600Y134600D02*X105500Y134500D01*
X105600Y137226D02*Y134600D01*
X86448Y131948D02*X95000Y140500D01*
X47400Y132000D02*X47500Y131900D01*
X59700Y128526D02*X59800Y128626D01*
X64000Y167000D02*Y159500D01*
X59700Y125600D02*Y128526D01*
X47200Y125800D02*Y128452D01*
X57800Y131900D02*X72841D01*
X59674D02*X59800Y131774D01*
X55174Y131900D02*X59674D01*
X47500D02*X52026D01*
X36774Y132000D02*X47400D01*
X53500Y167000D02*Y159500D01*
X15300Y132000D02*X33626D01*
X31841Y180100D02*X32000Y179941D01*
X28500Y180100D02*X31841D01*
X26500Y195000D02*X13500D01*
X24500D02*X31626D01*
X31726Y194900D01*
X34874D02*X38374D01*
X38500Y194774D01*
Y188900D02*Y191526D01*
Y194774D02*X42200D01*
X38500Y191626D02*X41774D01*
X42000Y191400D01*
X38326Y191626D02*X35226D01*
X35000Y191400D01*
X38500Y191526D02*X38600Y191626D01*
X42200Y194774D02*X42326Y194900D01*
X45474D02*X52750D01*
Y197500D02*X48300D01*
X48000Y197800D01*
X49800Y200100D02*X49000Y200900D01*
X52750Y200100D02*X49800D01*
X56526Y189100D02*Y186126D01*
X56400Y186000D01*
G54D12*X60250Y194900D02*Y189676D01*
X59674Y189100D01*
G54D15*X60250Y197500D02*X63400D01*
X64000Y196900D01*
X60250Y200100D02*X66326D01*
X66426Y200200D01*
G54D12*X60250Y200100D02*Y204076D01*
X60900Y204726D01*
G54D15*X72174Y200200D02*X73700Y201726D01*
X72826Y197700D02*Y199874D01*
X72500Y200200D01*
X64374Y207626D02*X64500Y207500D01*
X69574Y200200D02*X72174D01*
X73700Y204874D02*X71274D01*
X70500Y204100D01*
X75974Y197700D02*X77826D01*
X80226Y195300D01*
G54D12*X78300Y192700D02*X74300Y188700D01*
Y183374D01*
X74400Y183274D01*
X70200D01*
G54D15*X80800Y186826D02*Y184000D01*
G54D12*X84500Y202400D02*Y202100D01*
X87100Y199500D01*
X84500Y205700D02*X86400D01*
X89500Y202600D01*
Y201194D01*
X89787Y200907D01*
X93093Y204213D02*Y207307D01*
G54D15*X80600Y203774D02*X82126D01*
X80600Y200626D02*Y200400D01*
X81600Y199400D01*
X83900D01*
X82126Y203774D02*X82900Y203000D01*
X83700D01*
X84500Y202200D01*
G54D12*X83374Y195300D02*X89487D01*
X84500Y198800D02*X84600D01*
X86400Y197000D01*
X87100Y199500D02*Y199300D01*
X87400Y199000D01*
X89487Y195300D02*X89787Y195000D01*
X86400Y197000D02*X89756D01*
X89787Y196969D01*
X87400Y199000D02*X89725D01*
X89787Y198938D01*
G54D15*X83900Y199400D02*X84500Y198800D01*
G54D12*X89787Y193031D02*X85431D01*
X85100Y192700D01*
X89787Y191062D02*X85662D01*
X84500Y189900D01*
X86693Y189093D02*X84500Y186900D01*
X85100Y192700D02*X78300D01*
X89787Y189093D02*X86693D01*
X93093Y185788D02*X92888D01*
G54D15*X84300Y189700D02*X81074D01*
X80800Y189974D01*
X84300Y186700D02*Y184574D01*
X84500Y184374D01*
Y181226D02*Y178800D01*
X84600Y178700D01*
X88026Y180300D02*Y177374D01*
X88100Y177300D01*
G54D12*X92888Y185788D02*X91300Y184200D01*
X95062Y185788D02*Y183762D01*
X94000Y182700D01*
X91300Y184200D02*Y180426D01*
X91174Y180300D01*
X94000Y182700D02*Y178326D01*
X95126Y177200D01*
X93726D01*
X90900Y174374D01*
X95126Y173400D02*Y172274D01*
X99800Y177500D02*X98574D01*
X98274Y177200D01*
Y173400D01*
X98874D01*
X101200Y171074D01*
X97400Y168974D02*X97474Y168900D01*
G54D15*X90900Y171226D02*X87526D01*
X87400Y171100D01*
X94326Y168900D02*X94100D01*
X93100Y167900D01*
X90700D01*
G54D12*X97031Y185788D02*Y181331D01*
X99000Y185788D02*Y181400D01*
X97031Y181331D02*X96500Y180800D01*
X99000Y181400D02*X99600Y180800D01*
X100969Y183031D02*X101900Y182100D01*
Y179400D01*
X101600Y179100D01*
X101400D01*
X99800Y177500D01*
X100969Y185788D02*Y183031D01*
X102938Y185788D02*Y183762D01*
X103700Y183000D01*
X104907Y185788D02*X106412D01*
X103700Y183000D02*Y181200D01*
X104200Y180700D01*
G54D15*X104300Y180600D02*Y178274D01*
X104200Y178174D01*
G54D12*X106412Y185788D02*X111400Y180800D01*
Y178674D01*
X108212Y191062D02*X110738D01*
X113200Y188600D01*
X111400Y178674D02*X111700Y178374D01*
Y175226D02*Y172026D01*
X111674Y172000D01*
Y168326D01*
X111700Y168300D01*
G54D15*X104200Y175026D02*Y173400D01*
X105700Y171900D01*
X101200Y167926D02*X104374D01*
X104400Y167900D01*
X108526Y172000D02*Y169226D01*
X107700Y168400D01*
G54D12*X100969Y204213D02*Y206869D01*
X102100Y208000D01*
X102938Y204213D02*Y206138D01*
X104100Y207300D01*
X104800D01*
X105500Y208000D01*
X104907Y204213D02*X105113D01*
X108100Y207200D01*
X108212Y200907D02*Y204112D01*
X111500Y207400D01*
X108212Y198938D02*X111438D01*
X108212Y196969D02*X112069D01*
X111438Y198938D02*X115500Y203000D01*
X117926D01*
X118226Y203300D01*
X112069Y196969D02*X115000Y199900D01*
X118126D01*
X108212Y195000D02*X112300D01*
X108212Y193031D02*X112269D01*
X118126Y199900D02*X118426Y199600D01*
X122374Y195900D02*X123500D01*
X121474Y192200D02*X123000D01*
X125100Y190100D01*
X124474Y206900D02*Y206726D01*
X127200Y204000D01*
X121374Y203300D02*X124500D01*
X127200Y204000D02*X130073D01*
X130213Y203860D01*
X124500Y203300D02*X125800Y202000D01*
X130104D01*
X130213Y201891D01*
X121574Y199600D02*X124700D01*
X125000Y199900D01*
X130191D01*
X130213Y199922D01*
X125600Y197500D02*X126600D01*
X127000Y197900D01*
X130160D01*
X130213Y197953D01*
X123500Y195900D02*X124300Y195100D01*
X127700D01*
X125600Y192900D02*X126300D01*
X127200Y193800D01*
X127700Y195100D02*X128300Y195700D01*
X129929D01*
X130213Y195984D01*
X127200Y193800D02*X129998D01*
X130213Y194015D01*
X125100Y190100D02*X130190D01*
X130213Y190077D01*
X125400Y186300D02*X130052D01*
X130213Y186139D01*
X134640Y181713D02*Y177060D01*
X140547Y181713D02*Y177053D01*
X140700Y176900D01*
X134640Y177060D02*X134900Y176800D01*
X112300Y195000D02*X114900Y192400D01*
X118126D01*
X112269Y193031D02*X115600Y189700D01*
X121474Y188400D02*X124700D01*
X125000Y188100D01*
X123474Y184800D02*X123900D01*
X125400Y186300D01*
X118126Y192400D02*X118326Y192200D01*
X115600Y189700D02*X117026D01*
X118326Y188400D01*
G54D15*X113700Y188100D02*X113400Y188400D01*
G54D17*X370000Y200000D03*
X360000D03*
X370000Y210000D03*
Y220000D03*
Y230000D03*
X360000Y210000D03*
Y220000D03*
Y230000D03*
Y240000D03*
Y250000D03*
G54D18*X32500Y37500D03*
Y352500D03*
G54D17*X370000Y240000D03*
Y250000D03*
G54D11*G36*
X395229Y241268D02*Y235725D01*
X400772D01*
Y241268D01*
X395229D01*
G37*
G54D19*X405874Y238496D03*
X398000Y230622D03*
X405874D03*
X398000Y222748D03*
X405874D03*
X398000Y214874D03*
X405874D03*
X398000Y207000D03*
X405874D03*
X398000Y199126D03*
X405874D03*
X398000Y191252D03*
X405874D03*
G54D20*X450315Y322717D03*
Y287283D03*
G54D21*X458189Y305000D03*
G54D22*X446378D03*
G54D23*X422756D03*
G54D18*X431500Y352500D03*
Y37500D03*
G54D24*X433000Y70900D03*
X443000D03*
X453000D03*
G54D25*X392000Y96500D03*
Y88500D03*
Y80500D03*
X382000Y108500D03*
Y92500D03*
Y84500D03*
Y76500D03*
G54D26*X418000Y65900D03*
G54D27*Y81500D03*
G54D17*X370000Y180000D03*
X360000D03*
X370000Y190000D03*
X360000D03*
G54D25*X392000Y104500D03*
Y120500D03*
Y112500D03*
X382000Y124500D03*
Y116500D03*
G54D24*X443000Y130100D03*
X453000D03*
G54D26*X418000Y135100D03*
G54D27*Y119500D03*
G54D28*X1900Y195000D02*X18000D01*
G54D29*X7000Y211750D02*X13000D01*
X7000Y241250D02*X13000D01*
G54D30*X36740Y208233D02*Y206894D01*
G54D31*X25508Y203682D02*X26492D01*
X25508Y208800D02*X26492D01*
G54D30*X40480Y208233D02*Y206894D01*
Y218469D02*Y217131D01*
X33000Y218469D02*Y217131D01*
G54D32*X48000Y214193D02*Y213407D01*
X51148Y214193D02*Y213407D01*
G54D28*X1900Y258000D02*X18000D01*
G54D32*X42426Y258393D02*Y257607D01*
X32426Y258393D02*Y257607D01*
X35574Y258393D02*Y257607D01*
X38307Y254926D02*X39093D01*
X38307Y258074D02*X39093D01*
X45574Y258393D02*Y257607D01*
X59674Y252393D02*Y251607D01*
X56526Y252393D02*Y251607D01*
G54D28*X1900Y132000D02*X18000D01*
G54D29*X7000Y115250D02*X13000D01*
G54D28*X1900Y69000D02*X18000D01*
G54D29*X7000Y52250D02*X13000D01*
X7000Y85750D02*X13000D01*
G54D33*X10000Y35000D03*
G54D32*X40907Y65826D02*X41693D01*
X40907Y68974D02*X41693D01*
X51107Y65952D02*X51893D01*
X51107Y69100D02*X51893D01*
X44852Y69493D02*Y68707D01*
X48000Y69493D02*Y68707D01*
G54D29*X7000Y148750D02*X13000D01*
X7000Y178250D02*X13000D01*
G54D32*X31726Y195293D02*Y194507D01*
X34874Y195293D02*Y194507D01*
X42326Y195293D02*Y194507D01*
X38107Y191626D02*X38893D01*
X38107Y194774D02*X38893D01*
X59674Y189493D02*Y188707D01*
X56526Y189493D02*Y188707D01*
X60507Y204726D02*X61293D01*
X60507Y207874D02*X61293D01*
X61226Y211893D02*Y211107D01*
X64374Y211893D02*Y211107D01*
X61426Y215493D02*Y214707D01*
X64574Y215493D02*Y214707D01*
X45474Y195293D02*Y194507D01*
G54D30*X33000Y208233D02*Y206894D01*
G54D28*X1900Y321000D02*X18000D01*
G54D29*X7000Y304250D02*X13000D01*
X7000Y274750D02*X13000D01*
X7000Y337750D02*X13000D01*
G54D33*X10000Y355000D03*
G54D34*X51800Y326100D02*X53700D01*
X59300D02*X61200D01*
G54D32*X60607Y330426D02*X61393D01*
X66426Y326393D02*Y325607D01*
X69574Y326393D02*Y325607D01*
G54D34*X51800Y323500D02*X53700D01*
X59300D02*X61200D01*
X51800Y320900D02*X53700D01*
X59300D02*X61200D01*
G54D32*X59674Y315493D02*Y314707D01*
X56526Y315493D02*Y314707D01*
X61426Y337393D02*Y336607D01*
X64574Y337393D02*Y336607D01*
X61426Y341393D02*Y340607D01*
X64574Y341393D02*Y340607D01*
X60607Y333574D02*X61393D01*
G54D30*X41031Y339300D02*X42369D01*
G54D32*X51526Y340993D02*Y340207D01*
X54674Y340993D02*Y340207D01*
X60407Y267626D02*X61193D01*
X60407Y270774D02*X61193D01*
X61326Y278493D02*Y277707D01*
X64474Y278493D02*Y277707D01*
X61426Y274693D02*Y273907D01*
X64574Y274693D02*Y273907D01*
G54D30*X33200Y269833D02*Y268494D01*
X36940Y269833D02*Y268494D01*
X40680Y269833D02*Y268494D01*
Y280069D02*Y278731D01*
X33200Y280069D02*Y278731D01*
G54D31*X26308Y265541D02*X27292D01*
X26308Y270659D02*X27292D01*
G54D32*X47126Y277893D02*Y277107D01*
X50274Y277893D02*Y277107D01*
X38107Y317926D02*X38893D01*
X38107Y321074D02*X38893D01*
X31426Y321393D02*Y320607D01*
X34574Y321393D02*Y320607D01*
X42426Y321393D02*Y320607D01*
X45574Y321393D02*Y320607D01*
G54D30*X41031Y331820D02*X42369D01*
X41031Y335560D02*X42369D01*
X30794Y339300D02*X32133D01*
X30794Y331820D02*X32133D01*
G54D31*X25508Y328800D02*X26492D01*
X25508Y333918D02*X26492D01*
G54D32*X241600Y111893D02*Y111107D01*
X244748Y111893D02*Y111107D01*
X241574Y115593D02*Y114807D01*
X244722Y115593D02*Y114807D01*
X151726Y113693D02*Y112907D01*
X154874Y113693D02*Y112907D01*
X241600Y126393D02*Y125607D01*
X244748Y126393D02*Y125607D01*
X241800Y130593D02*Y129807D01*
X244948Y130593D02*Y129807D01*
X241600Y119193D02*Y118407D01*
X244748Y119193D02*Y118407D01*
X241600Y122793D02*Y122007D01*
X244748Y122793D02*Y122007D01*
G54D31*X73041Y132592D02*Y131608D01*
X78159Y132592D02*Y131608D01*
G54D32*X81533Y128800D02*X82319D01*
X81533Y131948D02*X82319D01*
X146207Y46452D02*X146993D01*
X146207Y49600D02*X146993D01*
G54D35*X143400Y49000D03*
X143600Y44800D03*
G54D36*X141447Y58866D02*Y57488D01*
X143416Y58866D02*Y57488D01*
X145385Y58866D02*Y57488D01*
X147354Y58866D02*Y57488D01*
X149323Y58866D02*Y57488D01*
X151292Y58866D02*Y57488D01*
X153261Y58866D02*Y57488D01*
X155230Y58866D02*Y57488D01*
X157199Y58866D02*Y57488D01*
X159168Y58866D02*Y57488D01*
X126388Y90267D02*X127766D01*
X126388Y88298D02*X127766D01*
X126388Y86329D02*X127766D01*
X126388Y84360D02*X127766D01*
X126388Y82391D02*X127766D01*
X126388Y80422D02*X127766D01*
X126388Y78453D02*X127766D01*
X126388Y76484D02*X127766D01*
X126388Y74515D02*X127766D01*
X126388Y72546D02*X127766D01*
X126388Y70577D02*X127766D01*
X126388Y68608D02*X127766D01*
X126388Y66639D02*X127766D01*
X126388Y64670D02*X127766D01*
X126388Y62701D02*X127766D01*
X126388Y60732D02*X127766D01*
X129633Y58866D02*Y57488D01*
X131602Y58866D02*Y57488D01*
X133571Y58866D02*Y57488D01*
X135540Y58866D02*Y57488D01*
X137509Y58866D02*Y57488D01*
X139478Y58866D02*Y57488D01*
G54D35*X136200Y49300D03*
X139900Y46200D03*
G54D32*X197607Y80026D02*X198393D01*
X197607Y83174D02*X198393D01*
X202007Y86174D02*X202793D01*
X202007Y83026D02*X202793D01*
G54D37*X224755Y76762D02*X229361D01*
X224755Y79321D02*X229361D01*
X224755Y81879D02*X229361D01*
X224755Y84438D02*X229361D01*
G54D32*X218474Y89893D02*Y89107D01*
X215326Y89893D02*Y89107D01*
G54D37*X207039Y84438D02*X211645D01*
X207039Y81879D02*X211645D01*
X207039Y79321D02*X211645D01*
X207039Y76762D02*X211645D01*
G54D32*X202707Y44300D02*X203493D01*
X202707Y47448D02*X203493D01*
X240707Y44052D02*X241493D01*
X240707Y47200D02*X241493D01*
G54D38*X209900Y47400D02*X211300D01*
X234300D02*X235700D01*
G54D31*X240182Y37792D02*Y36808D01*
G54D39*X227800Y61650D02*Y59550D01*
G54D38*X234300Y57400D02*X235700D01*
G54D39*X222800Y61650D02*Y59550D01*
X217800Y61650D02*Y59550D01*
G54D38*X209900Y57400D02*X211300D01*
G54D39*X217800Y45250D02*Y43150D01*
X222800Y45250D02*Y43150D01*
X227800Y45250D02*Y43150D01*
G54D40*X129131Y205829D02*X130895D01*
G54D32*X102674Y214493D02*Y213707D01*
X99526Y214493D02*Y213707D01*
G54D40*X129131Y203860D02*X131295D01*
X129131Y201891D02*X131295D01*
X129131Y199922D02*X131295D01*
X129131Y197953D02*X131295D01*
X129131Y195984D02*X131295D01*
X129131Y194015D02*X131295D01*
X129131Y192046D02*X131295D01*
G54D32*X118226Y203693D02*Y202907D01*
X118326Y192593D02*Y191807D01*
Y188793D02*Y188007D01*
X121374Y203693D02*Y202907D01*
X121474Y192593D02*Y191807D01*
Y188793D02*Y188007D01*
X118426Y199993D02*Y199207D01*
X121574Y199993D02*Y199207D01*
G54D40*X129131Y186139D02*X131295D01*
X129131Y184170D02*X130895D01*
G54D35*X111400Y185100D03*
G54D32*X114407Y182726D02*X115193D01*
X114407Y185874D02*X115193D01*
G54D41*X94004Y163500D02*X111996D01*
G54D32*X94326Y169293D02*Y168507D01*
X97474Y169293D02*Y168507D01*
X103807Y175026D02*X104593D01*
X103807Y178174D02*X104593D01*
G54D40*X129131Y190077D02*X131295D01*
X129131Y188108D02*X131295D01*
X132671Y182395D02*Y180631D01*
X134640Y182795D02*Y180631D01*
X136609Y182795D02*Y180631D01*
X155705Y199923D02*X157869D01*
X155705Y201892D02*X157869D01*
X155705Y203861D02*X157869D01*
X156105Y205830D02*X157869D01*
X154329Y209369D02*Y207605D01*
X152360Y209369D02*Y207205D01*
X150391Y209369D02*Y207205D01*
X148422Y209369D02*Y207205D01*
X146453Y209369D02*Y207205D01*
X144484Y209369D02*Y207205D01*
X142515Y209369D02*Y207205D01*
X140546Y209369D02*Y207205D01*
X138577Y209369D02*Y207205D01*
X136608Y209369D02*Y207205D01*
X134639Y209369D02*Y207205D01*
X132670Y209369D02*Y207605D01*
X138578Y182795D02*Y180631D01*
X140547Y182795D02*Y180631D01*
X142516Y182795D02*Y180631D01*
X144485Y182795D02*Y180631D01*
X146454Y182795D02*Y180631D01*
X148423Y182795D02*Y180631D01*
X150392Y182795D02*Y180631D01*
X152361Y182795D02*Y180631D01*
X154330Y182395D02*Y180631D01*
G54D11*G36*
X132870Y205630D02*Y184370D01*
X154130D01*
Y205630D01*
X132870D01*
G37*
G36*
X135500Y203000D02*Y198400D01*
X140100D01*
Y203000D01*
X135500D01*
G37*
G36*
Y197300D02*Y192700D01*
X140100D01*
Y197300D01*
X135500D01*
G37*
G36*
X141200D02*Y192700D01*
X145800D01*
Y197300D01*
X141200D01*
G37*
G36*
Y203000D02*Y198400D01*
X145800D01*
Y203000D01*
X141200D01*
G37*
G36*
X146900D02*Y198400D01*
X151500D01*
Y203000D01*
X146900D01*
G37*
G36*
Y197300D02*Y192700D01*
X151500D01*
Y197300D01*
X146900D01*
G37*
G36*
X135500Y191600D02*Y187000D01*
X140100D01*
Y191600D01*
X135500D01*
G37*
G36*
X141200D02*Y187000D01*
X145800D01*
Y191600D01*
X141200D01*
G37*
G36*
X146900D02*Y187000D01*
X151500D01*
Y191600D01*
X146900D01*
G37*
G54D32*X84107Y181226D02*X84893D01*
X84107Y184374D02*X84893D01*
X80407Y186826D02*X81193D01*
X80407Y189974D02*X81193D01*
X80207Y200626D02*X80993D01*
X80207Y203774D02*X80993D01*
X84107Y212374D02*X84893D01*
X84107Y209226D02*X84893D01*
G54D40*X156105Y184171D02*X157869D01*
X155705Y186140D02*X157869D01*
X155705Y188109D02*X157869D01*
X155705Y190078D02*X157869D01*
X155705Y192047D02*X157869D01*
X155705Y194016D02*X157869D01*
X155705Y195985D02*X157869D01*
X155705Y197954D02*X157869D01*
G54D32*X193326Y306593D02*Y305807D01*
Y300593D02*Y299807D01*
X186907Y298826D02*X187693D01*
X186907Y301974D02*X187693D01*
X196474Y306593D02*Y305807D01*
Y300593D02*Y299807D01*
G54D42*X209695Y356155D02*Y350645D01*
X221505Y356155D02*Y350645D01*
G54D32*X167574Y310893D02*Y310107D01*
X164426Y310893D02*Y310107D01*
X167374Y332093D02*Y331307D01*
X164226Y332093D02*Y331307D01*
X180574Y250693D02*Y249907D01*
X177426Y250693D02*Y249907D01*
X185400Y245593D02*Y244807D01*
X182252Y245593D02*Y244807D01*
X177807Y242648D02*X178593D01*
X171607Y244148D02*X172393D01*
X171607Y241000D02*X172393D01*
X177807Y239500D02*X178593D01*
X192533Y240448D02*X193319D01*
X192533Y237300D02*X193319D01*
X186607Y240374D02*X187393D01*
X186607Y237226D02*X187393D01*
X198174Y182493D02*Y181707D01*
X195026Y182493D02*Y181707D01*
X198174Y192793D02*Y192007D01*
X195026Y192793D02*Y192007D01*
X198174Y187693D02*Y186907D01*
X195026Y187693D02*Y186907D01*
G54D41*X94004Y352500D02*X111996D01*
G54D32*X131607Y345574D02*X132393D01*
X131607Y342426D02*X132393D01*
X124807Y342174D02*X125593D01*
G54D35*X111400Y311700D03*
G54D32*X112074Y336393D02*Y335607D01*
X114507Y312026D02*X115293D01*
X118900Y322393D02*Y321607D01*
X122048Y322393D02*Y321607D01*
X108926Y336393D02*Y335607D01*
X124807Y339026D02*X125593D01*
X102426Y336393D02*Y335607D01*
X102374Y340293D02*Y339507D01*
X99226Y340293D02*Y339507D01*
X105574Y336393D02*Y335607D01*
X114507Y308878D02*X115293D01*
G54D41*X94004Y289500D02*X111996D01*
G54D40*X129131Y268829D02*X130895D01*
X129131Y266860D02*X131295D01*
X129131Y264891D02*X131295D01*
X129131Y262922D02*X131295D01*
G54D32*X131807Y296726D02*X132593D01*
X143107Y295274D02*X143893D01*
X143107Y292126D02*X143893D01*
X150674Y292393D02*Y291607D01*
X147526Y292393D02*Y291607D01*
X131807Y299874D02*X132593D01*
X124507Y301226D02*X125293D01*
X124507Y304374D02*X125293D01*
X121574Y262893D02*Y262107D01*
X118426Y255893D02*Y255107D01*
X121574Y255893D02*Y255107D01*
X118426Y252393D02*Y251607D01*
X121574Y252393D02*Y251607D01*
G54D35*X111600Y247900D03*
G54D41*X94004Y226500D02*X111996D01*
G54D32*X94526Y232393D02*Y231607D01*
X97674Y232393D02*Y231607D01*
X101007Y293626D02*X101793D01*
X101007Y296774D02*X101793D01*
X108626Y298893D02*Y298107D01*
X111774Y298893D02*Y298107D01*
X111307Y302826D02*X112093D01*
X111307Y305974D02*X112093D01*
X98174Y303393D02*Y302607D01*
X103807Y300926D02*X104593D01*
X103807Y304074D02*X104593D01*
X95026Y303393D02*Y302607D01*
X95226Y299393D02*Y298607D01*
X98374Y299393D02*Y298607D01*
X90107Y297226D02*X90893D01*
X90107Y300374D02*X90893D01*
X94126Y294893D02*Y294107D01*
X97274Y294893D02*Y294107D01*
X84007Y307426D02*X84793D01*
X88026Y306793D02*Y306007D01*
X91174Y306793D02*Y306007D01*
X72926Y323393D02*Y322607D01*
X76074Y323393D02*Y322607D01*
X73607Y330074D02*X74393D01*
X73607Y326926D02*X74393D01*
X74107Y306352D02*X74893D01*
X74107Y309500D02*X74893D01*
X79926Y321893D02*Y321107D01*
X83074Y321893D02*Y321107D01*
X84007Y310574D02*X84793D01*
X80607Y312926D02*X81393D01*
X80607Y316074D02*X81393D01*
X84033Y337496D02*X84819D01*
X84033Y334348D02*X84819D01*
X81107Y325726D02*X81893D01*
X81107Y328874D02*X81893D01*
G54D31*X178708Y85059D02*X179692D01*
G54D35*X171800Y72800D03*
Y75800D03*
G54D32*X173907Y82600D02*X174693D01*
X173907Y79452D02*X174693D01*
G54D31*X178708Y79941D02*X179692D01*
G54D32*X176426Y99993D02*Y99207D01*
X179574Y99993D02*Y99207D01*
X178807Y92448D02*X179593D01*
X178807Y89300D02*X179593D01*
G54D35*X164800Y101200D03*
G54D31*X187159Y52592D02*Y51608D01*
X182041Y52592D02*Y51608D01*
G54D35*X163600Y52000D03*
G54D36*X161034Y72547D02*X162412D01*
X161034Y74516D02*X162412D01*
X161034Y76485D02*X162412D01*
X161034Y78454D02*X162412D01*
X161034Y80423D02*X162412D01*
X161034Y82392D02*X162412D01*
X161034Y84361D02*X162412D01*
G54D32*X167548Y121793D02*Y121007D01*
X164400Y121793D02*Y121007D01*
X167248Y142993D02*Y142207D01*
X164100Y142993D02*Y142207D01*
G54D36*X161034Y86330D02*X162412D01*
X161034Y88299D02*X162412D01*
X161034Y90268D02*X162412D01*
X159167Y93512D02*Y92134D01*
G54D35*X161000Y101200D03*
G54D36*X157198Y93512D02*Y92134D01*
X155229Y93512D02*Y92134D01*
X153260Y93512D02*Y92134D01*
X151291Y93512D02*Y92134D01*
X149322Y93512D02*Y92134D01*
G54D32*X150274Y109693D02*Y108907D01*
X147126Y109693D02*Y108907D01*
X131607Y107800D02*X132393D01*
X131607Y110948D02*X132393D01*
X131507Y156374D02*X132293D01*
X131507Y153226D02*X132293D01*
X124707Y153148D02*X125493D01*
X124707Y150000D02*X125493D01*
X121426Y143993D02*Y143207D01*
X124574Y143993D02*Y143207D01*
X118826Y133293D02*Y132507D01*
X121974Y133293D02*Y132507D01*
X120326Y122193D02*Y121407D01*
X123474Y122193D02*Y121407D01*
X59626Y78293D02*Y77507D01*
X62774Y78293D02*Y77507D01*
X59626Y90993D02*Y90207D01*
X62774Y90993D02*Y90207D01*
G54D31*X62108Y81700D02*X63092D01*
X62108Y86818D02*X63092D01*
G54D32*X76507Y61252D02*X77293D01*
X76507Y64400D02*X77293D01*
X76607Y81548D02*X77393D01*
X76607Y78400D02*X77393D01*
X76707Y91026D02*X77493D01*
X76707Y94174D02*X77493D01*
X69007Y128626D02*X69793D01*
X59407D02*X60193D01*
X69007Y131774D02*X69793D01*
X59407D02*X60193D01*
X47107Y128752D02*X47893D01*
X47107Y131900D02*X47893D01*
X52026Y132293D02*Y131507D01*
X55174Y132293D02*Y131507D01*
G54D31*X31508Y179941D02*X32492D01*
X31508Y185059D02*X32492D01*
G54D32*X33626Y132393D02*Y131607D01*
X36774Y132393D02*Y131607D01*
X28526Y69193D02*Y68407D01*
X31674Y69193D02*Y68407D01*
G54D36*X161034Y60733D02*X162412D01*
X161034Y62702D02*X162412D01*
G54D35*X121100Y62200D03*
G54D36*X161034Y64671D02*X162412D01*
X161034Y66640D02*X162412D01*
X161034Y68609D02*X162412D01*
X161034Y70578D02*X162412D01*
X147353Y93512D02*Y92134D01*
X145384Y93512D02*Y92134D01*
X143415Y93512D02*Y92134D01*
X141446Y93512D02*Y92134D01*
G54D11*G36*
X130227Y89673D02*Y61327D01*
X158573D01*
Y89673D01*
X130227D01*
G37*
G36*
X133600Y86300D02*Y80300D01*
X139600D01*
Y86300D01*
X133600D01*
G37*
G36*
Y78500D02*Y72500D01*
X139600D01*
Y78500D01*
X133600D01*
G37*
G36*
X141400D02*Y72500D01*
X147400D01*
Y78500D01*
X141400D01*
G37*
G54D35*X159800Y51800D03*
G54D11*G36*
X141400Y86300D02*Y80300D01*
X147400D01*
Y86300D01*
X141400D01*
G37*
G36*
X149200D02*Y80300D01*
X155200D01*
Y86300D01*
X149200D01*
G37*
G36*
Y78500D02*Y72500D01*
X155200D01*
Y78500D01*
X149200D01*
G37*
G36*
X133600Y70700D02*Y64700D01*
X139600D01*
Y70700D01*
X133600D01*
G37*
G36*
X141400D02*Y64700D01*
X147400D01*
Y70700D01*
X141400D01*
G37*
G36*
X149200D02*Y64700D01*
X155200D01*
Y70700D01*
X149200D01*
G37*
G54D31*X95859Y64992D02*Y64008D01*
G54D32*X101007Y61626D02*X101793D01*
X101007Y64774D02*X101793D01*
G54D31*X90741Y64992D02*Y64008D01*
G54D32*X85507Y61226D02*X86293D01*
X85507Y64374D02*X86293D01*
X116474Y65093D02*Y64307D01*
X113326Y65093D02*Y64307D01*
X109400Y65093D02*Y64307D01*
X106252Y65093D02*Y64307D01*
G54D42*X102157Y50993D02*Y50207D01*
X109243Y50993D02*Y50207D01*
G54D36*X139477Y93512D02*Y92134D01*
X137508Y93512D02*Y92134D01*
X135539Y93512D02*Y92134D01*
X133570Y93512D02*Y92134D01*
X131601Y93512D02*Y92134D01*
X129632Y93512D02*Y92134D01*
G54D35*X123200Y54300D03*
X122400Y59200D03*
G54D32*X119407Y50726D02*X120193D01*
X119407Y53874D02*X120193D01*
X116474Y81393D02*Y80607D01*
X113326Y81393D02*Y80607D01*
X117907Y76574D02*X118693D01*
X117907Y73426D02*X118693D01*
X128107Y46826D02*X128893D01*
X132507Y46626D02*X133293D01*
X128107Y49974D02*X128893D01*
X132507Y49774D02*X133293D01*
G54D31*X95759Y94392D02*Y93408D01*
X95859Y81892D02*Y80908D01*
X90641Y94392D02*Y93408D01*
X90741Y81892D02*Y80908D01*
G54D32*X85707Y90526D02*X86493D01*
X85707Y93674D02*X86493D01*
X85733Y78400D02*X86519D01*
X85733Y81548D02*X86519D01*
X100707Y90426D02*X101493D01*
X100707Y93574D02*X101493D01*
X100833Y78000D02*X101619D01*
X100833Y81148D02*X101619D01*
G54D35*X118700Y89700D03*
X117600Y85900D03*
G54D32*X116474Y94193D02*Y93407D01*
X113326Y94193D02*Y93407D01*
X109374Y94193D02*Y93407D01*
G54D35*X129100Y99900D03*
X125100Y101400D03*
G54D32*X118026Y100693D02*Y99907D01*
X121174Y100693D02*Y99907D01*
X106226Y94193D02*Y93407D01*
X109374Y81393D02*Y80607D01*
X106226Y81393D02*Y80607D01*
X124407Y111900D02*X125193D01*
X124407Y115048D02*X125193D01*
X109800Y125693D02*Y124907D01*
X112948Y125693D02*Y124907D01*
X109926Y129393D02*Y128607D01*
X113074Y129393D02*Y128607D01*
X105007Y125626D02*X105793D01*
X105007Y128774D02*X105793D01*
X46426Y312393D02*Y311607D01*
X49574Y312393D02*Y311607D01*
G54D41*X49504Y352500D02*X67496D01*
X49504Y289500D02*X67496D01*
G54D32*X69807Y306252D02*X70593D01*
X69807Y309400D02*X70593D01*
G54D31*X31008Y306941D02*X31992D01*
X31008Y312059D02*X31992D01*
X31508Y243941D02*X32492D01*
X31508Y249059D02*X32492D01*
G54D34*X51800Y257900D02*X53700D01*
X59300D02*X61200D01*
X59300Y260500D02*X61200D01*
X59300Y263100D02*X61200D01*
G54D32*X24607Y320926D02*X25393D01*
X24607Y324074D02*X25393D01*
G54D40*X88508Y326907D02*X91066D01*
X88508Y324938D02*X91066D01*
X88508Y322969D02*X91066D01*
X88508Y321000D02*X91066D01*
X88508Y319031D02*X91066D01*
X104907Y331492D02*Y328934D01*
X102938Y331492D02*Y328934D01*
X100969Y331492D02*Y328934D01*
X99000Y331492D02*Y328934D01*
X97031Y331492D02*Y328934D01*
X95062Y331492D02*Y328934D01*
X93093Y331492D02*Y328934D01*
G54D11*G36*
X95050Y324950D02*Y321550D01*
X98450D01*
Y324950D01*
X95050D01*
G37*
G36*
X99550D02*Y321550D01*
X102950D01*
Y324950D01*
X99550D01*
G37*
G54D40*X88508Y315093D02*X91066D01*
X93093Y313067D02*Y310509D01*
X95062Y313067D02*Y310509D01*
X97031Y313067D02*Y310509D01*
X99000Y313067D02*Y310509D01*
X100969Y313067D02*Y310509D01*
X102938Y313067D02*Y310509D01*
X88508Y317062D02*X91066D01*
G54D11*G36*
X92602Y327398D02*Y314602D01*
X105397D01*
Y327398D01*
X92602D01*
G37*
G36*
X95050Y320450D02*Y317050D01*
X98450D01*
Y320450D01*
X95050D01*
G37*
G36*
X99550D02*Y317050D01*
X102950D01*
Y320450D01*
X99550D01*
G37*
G54D40*X129131Y260953D02*X131295D01*
X129131Y258984D02*X131295D01*
X129131Y257015D02*X131295D01*
X129131Y255046D02*X131295D01*
X129131Y253077D02*X131295D01*
X129131Y251108D02*X131295D01*
X129131Y249139D02*X131295D01*
X129131Y247170D02*X130895D01*
G54D32*X131407Y233526D02*X132193D01*
X131407Y236674D02*X132193D01*
G54D40*X156105Y247171D02*X157869D01*
X155705Y249140D02*X157869D01*
X155705Y251109D02*X157869D01*
X155705Y253078D02*X157869D01*
X155705Y255047D02*X157869D01*
X132671Y245395D02*Y243631D01*
X134640Y245795D02*Y243631D01*
X136609Y245795D02*Y243631D01*
X138578Y245795D02*Y243631D01*
X140547Y245795D02*Y243631D01*
X142516Y245795D02*Y243631D01*
X144485Y245795D02*Y243631D01*
X146454Y245795D02*Y243631D01*
X148423Y245795D02*Y243631D01*
X150392Y245795D02*Y243631D01*
X152361Y245795D02*Y243631D01*
X154330Y245395D02*Y243631D01*
X155705Y257016D02*X157869D01*
X155705Y258985D02*X157869D01*
X155705Y260954D02*X157869D01*
X155705Y262923D02*X157869D01*
X155705Y264892D02*X157869D01*
X155705Y266861D02*X157869D01*
X156105Y268830D02*X157869D01*
X154329Y272369D02*Y270605D01*
G54D32*X186381Y306552D02*X187167D01*
X186381Y309700D02*X187167D01*
G54D40*X152360Y272369D02*Y270205D01*
X150391Y272369D02*Y270205D01*
X148422Y272369D02*Y270205D01*
X146453Y272369D02*Y270205D01*
X144484Y272369D02*Y270205D01*
X142515Y272369D02*Y270205D01*
X140546Y272369D02*Y270205D01*
X138577Y272369D02*Y270205D01*
X136608Y272369D02*Y270205D01*
X134639Y272369D02*Y270205D01*
X132670Y272369D02*Y270605D01*
G54D11*G36*
X132870Y268630D02*Y247370D01*
X154130D01*
Y268630D01*
X132870D01*
G37*
G36*
X135500Y266000D02*Y261400D01*
X140100D01*
Y266000D01*
X135500D01*
G37*
G36*
Y260300D02*Y255700D01*
X140100D01*
Y260300D01*
X135500D01*
G37*
G36*
X141200D02*Y255700D01*
X145800D01*
Y260300D01*
X141200D01*
G37*
G36*
Y266000D02*Y261400D01*
X145800D01*
Y266000D01*
X141200D01*
G37*
G36*
X146900D02*Y261400D01*
X151500D01*
Y266000D01*
X146900D01*
G37*
G36*
Y260300D02*Y255700D01*
X151500D01*
Y260300D01*
X146900D01*
G37*
G36*
X135500Y254600D02*Y250000D01*
X140100D01*
Y254600D01*
X135500D01*
G37*
G36*
X141200D02*Y250000D01*
X145800D01*
Y254600D01*
X141200D01*
G37*
G36*
X146900D02*Y250000D01*
X151500D01*
Y254600D01*
X146900D01*
G37*
G54D40*X106933Y315093D02*X109491D01*
X106933Y317062D02*X109491D01*
X106933Y319031D02*X109491D01*
X106933Y321000D02*X109491D01*
X106933Y322969D02*X109491D01*
X106933Y324938D02*X109491D01*
X106933Y326907D02*X109491D01*
X104907Y313067D02*Y310509D01*
X106933Y252093D02*X109491D01*
X106933Y254062D02*X109491D01*
X106933Y256031D02*X109491D01*
X106933Y258000D02*X109491D01*
X106933Y259969D02*X109491D01*
X106933Y261938D02*X109491D01*
X106933Y263907D02*X109491D01*
X129131Y331829D02*X130895D01*
X129131Y329860D02*X131295D01*
X129131Y327891D02*X131295D01*
X129131Y325922D02*X131295D01*
X129131Y323953D02*X131295D01*
X129131Y314108D02*X131295D01*
X129131Y312139D02*X131295D01*
X129131Y310170D02*X130895D01*
X129131Y321984D02*X131295D01*
X129131Y320015D02*X131295D01*
X129131Y318046D02*X131295D01*
X129131Y316077D02*X131295D01*
X132671Y308395D02*Y306631D01*
X156105Y310171D02*X157869D01*
X155705Y312140D02*X157869D01*
X155705Y314109D02*X157869D01*
X155705Y316078D02*X157869D01*
X155705Y318047D02*X157869D01*
X155705Y320016D02*X157869D01*
X155705Y321985D02*X157869D01*
X155705Y323954D02*X157869D01*
X155705Y325923D02*X157869D01*
X155705Y327892D02*X157869D01*
X155705Y329861D02*X157869D01*
X156105Y331830D02*X157869D01*
X154329Y335369D02*Y333605D01*
X152360Y335369D02*Y333205D01*
X150391Y335369D02*Y333205D01*
X148422Y335369D02*Y333205D01*
X146453Y335369D02*Y333205D01*
X144484Y335369D02*Y333205D01*
X142515Y335369D02*Y333205D01*
X140546Y335369D02*Y333205D01*
X138577Y335369D02*Y333205D01*
X136608Y335369D02*Y333205D01*
X134639Y335369D02*Y333205D01*
X132670Y335369D02*Y333605D01*
X134640Y308795D02*Y306631D01*
X136609Y308795D02*Y306631D01*
X138578Y308795D02*Y306631D01*
X140547Y308795D02*Y306631D01*
X142516Y308795D02*Y306631D01*
X144485Y308795D02*Y306631D01*
X146454Y308795D02*Y306631D01*
X148423Y308795D02*Y306631D01*
X150392Y308795D02*Y306631D01*
X152361Y308795D02*Y306631D01*
X154330Y308395D02*Y306631D01*
G54D11*G36*
X132870Y331630D02*Y310370D01*
X154130D01*
Y331630D01*
X132870D01*
G37*
G36*
X135500Y329000D02*Y324400D01*
X140100D01*
Y329000D01*
X135500D01*
G37*
G36*
Y323300D02*Y318700D01*
X140100D01*
Y323300D01*
X135500D01*
G37*
G36*
X141200D02*Y318700D01*
X145800D01*
Y323300D01*
X141200D01*
G37*
G36*
Y329000D02*Y324400D01*
X145800D01*
Y329000D01*
X141200D01*
G37*
G36*
X146900D02*Y324400D01*
X151500D01*
Y329000D01*
X146900D01*
G37*
G36*
Y323300D02*Y318700D01*
X151500D01*
Y323300D01*
X146900D01*
G37*
G36*
X135500Y317600D02*Y313000D01*
X140100D01*
Y317600D01*
X135500D01*
G37*
G36*
X141200D02*Y313000D01*
X145800D01*
Y317600D01*
X141200D01*
G37*
G36*
X146900D02*Y313000D01*
X151500D01*
Y317600D01*
X146900D01*
G37*
G54D32*X109926Y136793D02*Y136007D01*
Y140593D02*Y139807D01*
X105207Y137226D02*X105993D01*
X105207Y140374D02*X105993D01*
X113074Y136793D02*Y136007D01*
Y140593D02*Y139807D01*
G54D40*X129131Y142829D02*X130895D01*
X129131Y140860D02*X131295D01*
X129131Y138891D02*X131295D01*
X129131Y136922D02*X131295D01*
X129131Y134953D02*X131295D01*
X129131Y132984D02*X131295D01*
X129131Y131015D02*X131295D01*
X156105Y121171D02*X157869D01*
X155705Y123140D02*X157869D01*
X155705Y125109D02*X157869D01*
X155705Y127078D02*X157869D01*
X155705Y129047D02*X157869D01*
X129131Y129046D02*X131295D01*
X129131Y127077D02*X131295D01*
X129131Y125108D02*X131295D01*
X129131Y123139D02*X131295D01*
X129131Y121170D02*X130895D01*
X132671Y119395D02*Y117631D01*
X134640Y119795D02*Y117631D01*
X136609Y119795D02*Y117631D01*
X138578Y119795D02*Y117631D01*
G54D11*G36*
X135500Y128600D02*Y124000D01*
X140100D01*
Y128600D01*
X135500D01*
G37*
G54D40*X140547Y119795D02*Y117631D01*
X142516Y119795D02*Y117631D01*
X144485Y119795D02*Y117631D01*
X146454Y119795D02*Y117631D01*
G54D11*G36*
X141200Y128600D02*Y124000D01*
X145800D01*
Y128600D01*
X141200D01*
G37*
G36*
X146900D02*Y124000D01*
X151500D01*
Y128600D01*
X146900D01*
G37*
G54D40*X148423Y119795D02*Y117631D01*
X150392Y119795D02*Y117631D01*
X152361Y119795D02*Y117631D01*
X154330Y119395D02*Y117631D01*
X155705Y131016D02*X157869D01*
X155705Y132985D02*X157869D01*
X155705Y134954D02*X157869D01*
X155705Y136923D02*X157869D01*
X155705Y138892D02*X157869D01*
X155705Y140861D02*X157869D01*
X156105Y142830D02*X157869D01*
X154329Y146369D02*Y144605D01*
X152360Y146369D02*Y144205D01*
X150391Y146369D02*Y144205D01*
X148422Y146369D02*Y144205D01*
X146453Y146369D02*Y144205D01*
X144484Y146369D02*Y144205D01*
X142515Y146369D02*Y144205D01*
X140546Y146369D02*Y144205D01*
X138577Y146369D02*Y144205D01*
X136608Y146369D02*Y144205D01*
X134639Y146369D02*Y144205D01*
X132670Y146369D02*Y144605D01*
G54D11*G36*
X132870Y142630D02*Y121370D01*
X154130D01*
Y142630D01*
X132870D01*
G37*
G36*
X135500Y140000D02*Y135400D01*
X140100D01*
Y140000D01*
X135500D01*
G37*
G36*
Y134300D02*Y129700D01*
X140100D01*
Y134300D01*
X135500D01*
G37*
G36*
X141200D02*Y129700D01*
X145800D01*
Y134300D01*
X141200D01*
G37*
G36*
Y140000D02*Y135400D01*
X145800D01*
Y140000D01*
X141200D01*
G37*
G36*
X146900D02*Y135400D01*
X151500D01*
Y140000D01*
X146900D01*
G37*
G36*
Y134300D02*Y129700D01*
X151500D01*
Y134300D01*
X146900D01*
G37*
G54D32*X186774Y60193D02*Y59407D01*
X183626Y60193D02*Y59407D01*
X167707Y58126D02*X168493D01*
X167707Y61274D02*X168493D01*
X184274Y64893D02*Y64107D01*
X176474Y64793D02*Y64007D01*
X173326Y64793D02*Y64007D01*
X174722Y68793D02*Y68007D01*
X171574Y68793D02*Y68007D01*
X181126Y64893D02*Y64107D01*
X182181Y71648D02*X182967D01*
X182181Y68500D02*X182967D01*
X172974Y93693D02*Y92907D01*
X169826Y93693D02*Y92907D01*
X155207Y46726D02*X155993D01*
X155207Y49874D02*X155993D01*
X156607Y104674D02*X157393D01*
X156607Y101526D02*X157393D01*
G54D40*X106933Y189093D02*X109491D01*
X106933Y191062D02*X109491D01*
X106933Y193031D02*X109491D01*
G54D32*X122374Y196293D02*Y195507D01*
X121326Y207293D02*Y206507D01*
X124474Y207293D02*Y206507D01*
X111307Y175226D02*X112093D01*
X111307Y178374D02*X112093D01*
G54D40*X88508Y200907D02*X91066D01*
G54D32*X91074Y243393D02*Y242607D01*
G54D40*X88508Y198938D02*X91066D01*
X88508Y196969D02*X91066D01*
X88508Y195000D02*X91066D01*
X88508Y193031D02*X91066D01*
X88508Y191062D02*X91066D01*
X88508Y189093D02*X91066D01*
X93093Y187067D02*Y184509D01*
X95062Y187067D02*Y184509D01*
X97031Y187067D02*Y184509D01*
X99000Y187067D02*Y184509D01*
X100969Y187067D02*Y184509D01*
X102938Y187067D02*Y184509D01*
X104907Y187067D02*Y184509D01*
X106933Y195000D02*X109491D01*
X106933Y196969D02*X109491D01*
X106933Y198938D02*X109491D01*
X106933Y200907D02*X109491D01*
X104907Y205492D02*Y202934D01*
X102938Y205492D02*Y202934D01*
X100969Y205492D02*Y202934D01*
X99000Y205492D02*Y202934D01*
X97031Y205492D02*Y202934D01*
X95062Y205492D02*Y202934D01*
X93093Y205492D02*Y202934D01*
G54D11*G36*
X92602Y201398D02*Y188602D01*
X105397D01*
Y201398D01*
X92602D01*
G37*
G54D32*X119226Y196293D02*Y195507D01*
X120326Y185193D02*Y184407D01*
X123474Y185193D02*Y184407D01*
X124607Y174926D02*X125393D01*
X124607Y178074D02*X125393D01*
X131807Y170826D02*X132593D01*
X131807Y173974D02*X132593D01*
X131607Y219374D02*X132393D01*
X131607Y216226D02*X132393D01*
X25607Y257926D02*X26393D01*
X25607Y261074D02*X26393D01*
X25107Y194926D02*X25893D01*
X25107Y198074D02*X25893D01*
G54D41*X49504Y226500D02*X67496D01*
G54D32*X46426Y249393D02*Y248607D01*
X49574Y249393D02*Y248607D01*
X46426Y185393D02*Y184607D01*
X49574Y185393D02*Y184607D01*
G54D34*X51800Y263100D02*X53700D01*
X51800Y260500D02*X53700D01*
G54D32*X66526Y263293D02*Y262507D01*
X69674Y263293D02*Y262507D01*
X69707Y243026D02*X70493D01*
X69707Y246174D02*X70493D01*
G54D40*X88508Y263907D02*X91066D01*
X88508Y261938D02*X91066D01*
X88508Y259969D02*X91066D01*
X88508Y258000D02*X91066D01*
X88508Y256031D02*X91066D01*
X88508Y254062D02*X91066D01*
G54D32*X73607Y267374D02*X74393D01*
X84107Y275574D02*X84893D01*
X84107Y272426D02*X84893D01*
X79607Y267074D02*X80393D01*
X73607Y264226D02*X74393D01*
X79607Y263926D02*X80393D01*
X72926Y260893D02*Y260107D01*
X76074Y260893D02*Y260107D01*
X80426Y258893D02*Y258107D01*
X83574Y258893D02*Y258107D01*
G54D40*X104907Y268492D02*Y265934D01*
G54D32*X167674Y268993D02*Y268207D01*
X164526Y268993D02*Y268207D01*
X167474Y247893D02*Y247107D01*
X164326Y247893D02*Y247107D01*
G54D40*X102938Y268492D02*Y265934D01*
X100969Y268492D02*Y265934D01*
X99000Y268492D02*Y265934D01*
X97031Y268492D02*Y265934D01*
X95062Y268492D02*Y265934D01*
X93093Y268492D02*Y265934D01*
G54D11*G36*
X92602Y264398D02*Y251602D01*
X105397D01*
Y264398D01*
X92602D01*
G37*
G36*
X95050Y261950D02*Y258550D01*
X98450D01*
Y261950D01*
X95050D01*
G37*
G36*
Y257450D02*Y254050D01*
X98450D01*
Y257450D01*
X95050D01*
G37*
G36*
X99550Y261950D02*Y258550D01*
X102950D01*
Y261950D01*
X99550D01*
G37*
G36*
Y257450D02*Y254050D01*
X102950D01*
Y257450D01*
X99550D01*
G37*
G54D32*X102426Y273693D02*Y272907D01*
X105574Y273693D02*Y272907D01*
X108426Y273693D02*Y272907D01*
X111574Y273693D02*Y272907D01*
X102574Y277993D02*Y277207D01*
X129007Y281174D02*X129793D01*
X129007Y278026D02*X129793D01*
X99426Y277993D02*Y277207D01*
G54D40*X88508Y252093D02*X91066D01*
G54D32*X80607Y253074D02*X81393D01*
X84107Y247374D02*X84893D01*
X87926Y243393D02*Y242607D01*
X80607Y249926D02*X81393D01*
X84107Y244226D02*X84893D01*
X74207Y243126D02*X74993D01*
X74207Y246274D02*X74993D01*
X124807Y216126D02*X125593D01*
X124807Y212978D02*X125593D01*
X167674Y184593D02*Y183807D01*
X167574Y206093D02*Y205307D01*
X164426Y206093D02*Y205307D01*
X164526Y184593D02*Y183807D01*
X100707Y230826D02*X101493D01*
X102326Y210693D02*Y209907D01*
X105474Y210693D02*Y209907D01*
X108526Y210693D02*Y209907D01*
X111674Y210693D02*Y209907D01*
X100707Y233974D02*X101493D01*
X90107Y234226D02*X90893D01*
X95226Y237093D02*Y236307D01*
Y240793D02*Y240007D01*
X90107Y237374D02*X90893D01*
X98374Y237093D02*Y236307D01*
Y240793D02*Y240007D01*
G54D40*X93093Y250067D02*Y247509D01*
X95062Y250067D02*Y247509D01*
X97031Y250067D02*Y247509D01*
X99000Y250067D02*Y247509D01*
X100969Y250067D02*Y247509D01*
X102938Y250067D02*Y247509D01*
X104907Y250067D02*Y247509D01*
G54D32*X108626Y235093D02*Y234307D01*
X103607Y237926D02*X104393D01*
X103607Y241074D02*X104393D01*
X111774Y235093D02*Y234307D01*
X114607Y245926D02*X115393D01*
X114607Y249074D02*X115393D01*
G54D41*X49504Y163500D02*X67496D01*
G54D34*X51800Y197500D02*X53700D01*
X51800Y194900D02*X53700D01*
X59300D02*X61200D01*
G54D32*X69807Y180126D02*X70593D01*
X69807Y183274D02*X70593D01*
G54D34*X51800Y200100D02*X53700D01*
X59300Y197500D02*X61200D01*
X59300Y200100D02*X61200D01*
G54D32*X66426Y200593D02*Y199807D01*
X69574Y200593D02*Y199807D01*
X73307Y204874D02*X74093D01*
X73307Y201726D02*X74093D01*
X72826Y198093D02*Y197307D01*
X74007Y180126D02*X74793D01*
X74007Y183274D02*X74793D01*
X75974Y198093D02*Y197307D01*
X80226Y195693D02*Y194907D01*
X83374Y195693D02*Y194907D01*
G54D11*G36*
X95050Y198950D02*Y195550D01*
X98450D01*
Y198950D01*
X95050D01*
G37*
G36*
X99550D02*Y195550D01*
X102950D01*
Y198950D01*
X99550D01*
G37*
G36*
X95050Y194450D02*Y191050D01*
X98450D01*
Y194450D01*
X95050D01*
G37*
G36*
X99550D02*Y191050D01*
X102950D01*
Y194450D01*
X99550D01*
G37*
G54D32*X100807Y167926D02*X101593D01*
X100807Y171074D02*X101593D01*
X95126Y173793D02*Y173007D01*
X98274Y173793D02*Y173007D01*
Y177593D02*Y176807D01*
X95126Y177593D02*Y176807D01*
X90507Y171226D02*X91293D01*
X90507Y174374D02*X91293D01*
X88026Y180693D02*Y179907D01*
X91174Y180693D02*Y179907D01*
X108526Y172393D02*Y171607D01*
X111674Y172393D02*Y171607D01*
X121626Y333093D02*Y332307D01*
X124774Y333093D02*Y332307D01*
X120426Y311393D02*Y310607D01*
X123574Y311393D02*Y310607D01*
X118426Y329393D02*Y328607D01*
X121574Y329393D02*Y328607D01*
Y325893D02*Y325107D01*
Y318893D02*Y318107D01*
Y315393D02*Y314607D01*
X118426Y325893D02*Y325107D01*
Y318893D02*Y318107D01*
Y315393D02*Y314607D01*
X120652Y248267D02*Y247481D01*
X123800Y248267D02*Y247481D01*
X124581Y237852D02*X125367D01*
X124581Y241000D02*X125367D01*
X111407Y238126D02*X112193D01*
X111407Y241274D02*X112193D01*
X121426Y270093D02*Y269307D01*
X124574Y270093D02*Y269307D01*
X124533Y278548D02*X125319D01*
X124533Y275400D02*X125319D01*
X118926Y259393D02*Y258607D01*
X122074Y259393D02*Y258607D01*
X118426Y266393D02*Y265607D01*
X121574Y266393D02*Y265607D01*
X118426Y262893D02*Y262107D01*
G54D36*X287003Y109771D02*X288381D01*
X287003Y111740D02*X288381D01*
X287003Y113709D02*X288381D01*
X287003Y115678D02*X288381D01*
X287003Y117647D02*X288381D01*
X287003Y119616D02*X288381D01*
X287003Y121585D02*X288381D01*
X261019Y131429D02*X262397D01*
X261019Y129460D02*X262397D01*
X261019Y127491D02*X262397D01*
X261019Y125522D02*X262397D01*
X261019Y123553D02*X262397D01*
X261019Y121584D02*X262397D01*
X287003Y123554D02*X288381D01*
X287003Y125523D02*X288381D01*
X287003Y127492D02*X288381D01*
X287003Y129461D02*X288381D01*
X287003Y131430D02*X288381D01*
X285529Y134281D02*Y132903D01*
X283560Y134281D02*Y132903D01*
X281591Y134281D02*Y132903D01*
X279622Y134281D02*Y132903D01*
X277653Y134281D02*Y132903D01*
X275684Y134281D02*Y132903D01*
X273715Y134281D02*Y132903D01*
X271746Y134281D02*Y132903D01*
X269777Y134281D02*Y132903D01*
X267808Y134281D02*Y132903D01*
X265839Y134281D02*Y132903D01*
X263870Y134281D02*Y132903D01*
G54D11*G36*
X264858Y130442D02*Y110758D01*
X284542D01*
Y130442D01*
X264858D01*
G37*
G36*
X266950Y128350D02*Y121850D01*
X273450D01*
Y128350D01*
X266950D01*
G37*
G36*
Y119350D02*Y112850D01*
X273450D01*
Y119350D01*
X266950D01*
G37*
G36*
X275950Y128350D02*Y121850D01*
X282450D01*
Y128350D01*
X275950D01*
G37*
G36*
Y119350D02*Y112850D01*
X282450D01*
Y119350D01*
X275950D01*
G37*
G54D36*X261019Y119615D02*X262397D01*
X261019Y117646D02*X262397D01*
X261019Y115677D02*X262397D01*
X261019Y113708D02*X262397D01*
X261019Y111739D02*X262397D01*
X261019Y109770D02*X262397D01*
X263871Y108297D02*Y106919D01*
X265840Y108297D02*Y106919D01*
X267809Y108297D02*Y106919D01*
X269778Y108297D02*Y106919D01*
X271747Y108297D02*Y106919D01*
X273716Y108297D02*Y106919D01*
X275685Y108297D02*Y106919D01*
X277654Y108297D02*Y106919D01*
X279623Y108297D02*Y106919D01*
X281592Y108297D02*Y106919D01*
X283561Y108297D02*Y106919D01*
X285530Y108297D02*Y106919D01*
G54D32*X289552Y78893D02*Y78107D01*
X282226Y78793D02*Y78007D01*
X285374Y78793D02*Y78007D01*
G54D43*X271326Y58900D02*X287074D01*
G54D31*X269941Y78592D02*Y77608D01*
X275059Y78592D02*Y77608D01*
G54D32*X294907Y91326D02*X295693D01*
X294907Y94474D02*X295693D01*
X302807Y97826D02*X303593D01*
X292700Y78893D02*Y78107D01*
G54D43*X304791Y58900D02*X320539D01*
G54D32*X378852Y55893D02*Y55107D01*
G54D33*X454000Y35000D03*
G54D32*X388500Y55893D02*Y55107D01*
X391648Y55893D02*Y55107D01*
X382000Y55893D02*Y55107D01*
X261500Y83493D02*Y82707D01*
G54D42*X256757Y73193D02*Y72407D01*
G54D32*X264648Y83493D02*Y82707D01*
G54D42*X263843Y73193D02*Y72407D01*
G54D35*X278800Y100200D03*
G54D32*X277126Y83793D02*Y83007D01*
X280274Y83793D02*Y83007D01*
X281407Y97026D02*X282193D01*
X281407Y100174D02*X282193D01*
X245007Y44052D02*X245793D01*
X245007Y47200D02*X245793D01*
G54D31*X245300Y37792D02*Y36808D01*
G54D36*X282458Y188827D02*Y184103D01*
X282457Y271898D02*Y267174D01*
X280488Y271898D02*Y267174D01*
X278519Y271898D02*Y267174D01*
X276550Y271898D02*Y267174D01*
X274581Y271898D02*Y267174D01*
X272612Y271898D02*Y267174D01*
X270643Y271898D02*Y267174D01*
X268674Y271898D02*Y267174D01*
X266705Y271898D02*Y267174D01*
X245046Y271898D02*Y267174D01*
X243077Y271898D02*Y267174D01*
X241108Y271898D02*Y267174D01*
X239139Y271898D02*Y267174D01*
X237170Y271898D02*Y267174D01*
X235201Y271898D02*Y267174D01*
X233232Y271898D02*Y267174D01*
X231263Y271898D02*Y267174D01*
X229294Y271898D02*Y267174D01*
X227325Y271898D02*Y267174D01*
X225356Y271898D02*Y267174D01*
X223387Y271898D02*Y267174D01*
X221418Y271898D02*Y267174D01*
X219449Y271898D02*Y267174D01*
X217480Y271898D02*Y267174D01*
X215511Y271898D02*Y267174D01*
X213542Y271898D02*Y267174D01*
G54D32*X321507Y144600D02*X322293D01*
X321507Y141452D02*X322293D01*
X302807Y103926D02*X303593D01*
X302807Y107074D02*X303593D01*
X302807Y100974D02*X303593D01*
X321681Y138448D02*X322467D01*
X321681Y135300D02*X322467D01*
X309107Y131452D02*X309893D01*
X309107Y134600D02*X309893D01*
X309007Y137600D02*X309793D01*
X309007Y140748D02*X309793D01*
X338252Y139593D02*Y138807D01*
X341400Y139593D02*Y138807D01*
X329726Y133193D02*Y132407D01*
X332874Y133193D02*Y132407D01*
X379352Y144393D02*Y143607D01*
X382500Y144393D02*Y143607D01*
X389852Y144393D02*Y143607D01*
X393000Y144393D02*Y143607D01*
G54D44*X459000Y202984D02*Y201016D01*
Y192748D02*Y190780D01*
Y169748D02*Y167780D01*
G54D36*X264736Y271898D02*Y267174D01*
X262767Y271898D02*Y267174D01*
X260798Y271898D02*Y267174D01*
X258829Y271898D02*Y267174D01*
X256860Y271898D02*Y267174D01*
X254891Y271898D02*Y267174D01*
X252922Y271898D02*Y267174D01*
X250953Y271898D02*Y267174D01*
X248984Y271898D02*Y267174D01*
X247015Y271898D02*Y267174D01*
G54D32*X337252Y257293D02*Y256507D01*
X340400Y257293D02*Y256507D01*
X330800Y252293D02*Y251507D01*
X333948Y252293D02*Y251507D01*
G54D44*X459000Y257984D02*Y256016D01*
Y247748D02*Y245780D01*
G54D35*X272000Y180600D03*
G54D32*X278026Y178093D02*Y177307D01*
X281174Y178093D02*Y177307D01*
X272200Y174293D02*Y173507D01*
X275348Y174293D02*Y173507D01*
G54D35*X268700Y180600D03*
G54D32*X266626Y177893D02*Y177107D01*
X269774Y177893D02*Y177107D01*
G54D44*X459000Y179984D02*Y178016D01*
G54D35*X260800Y180700D03*
G54D32*X259507Y174526D02*X260293D01*
X259507Y177674D02*X260293D01*
X299574Y181493D02*Y180707D01*
X296426Y181493D02*Y180707D01*
X298781Y191548D02*X299567D01*
X298781Y188400D02*X299567D01*
X337474Y188193D02*Y187407D01*
X334326Y188193D02*Y187407D01*
G54D31*X296059Y176392D02*Y175408D01*
X290941Y176392D02*Y175408D01*
G54D45*X325700Y217600D02*Y210400D01*
Y237000D02*Y229800D01*
X330700Y217600D02*Y210400D01*
Y237000D02*Y229800D01*
X335700Y217600D02*Y210400D01*
X340700Y217600D02*Y210400D01*
Y237000D02*Y229800D01*
X335700Y237000D02*Y229800D01*
G54D32*X305974Y231519D02*Y230733D01*
X302826Y231519D02*Y230733D01*
X307048Y235293D02*Y234507D01*
X303900Y235293D02*Y234507D01*
X300948Y237893D02*Y237107D01*
X297800Y237893D02*Y237107D01*
X300648Y242693D02*Y241907D01*
X297500Y242693D02*Y241907D01*
X311000Y241393D02*Y240607D01*
X307852Y241393D02*Y240607D01*
X301352Y287793D02*Y287007D01*
X304500Y287793D02*Y287007D01*
X301526Y283593D02*Y282807D01*
X292448Y287793D02*Y287007D01*
X289300Y287793D02*Y287007D01*
X292474Y283593D02*Y282807D01*
X289326Y283593D02*Y282807D01*
X304674Y283593D02*Y282807D01*
X307274Y294393D02*Y293607D01*
X304126Y294393D02*Y293607D01*
G54D43*X311513Y322821D02*Y312979D01*
G54D42*X326695Y294555D02*Y289045D01*
G54D43*X325687Y322821D02*Y312979D01*
G54D42*X338505Y294555D02*Y289045D01*
X335745Y303000D02*X341255D01*
X335745Y314810D02*X341255D01*
X335545Y336400D02*X341055D01*
X335545Y324590D02*X341055D01*
G54D35*X295500Y301800D03*
G54D32*X303907Y301274D02*X304693D01*
X303907Y298126D02*X304693D01*
X287007Y297026D02*X287793D01*
X287007Y300174D02*X287793D01*
G54D35*X270100Y310900D03*
G54D32*X264507Y298026D02*X265293D01*
X264507Y301174D02*X265293D01*
X256626Y298193D02*Y297407D01*
X259774Y298193D02*Y297407D01*
G54D43*X261187Y322921D02*Y313079D01*
X247013Y322921D02*Y313079D01*
G54D46*X255393Y345200D02*X258935D01*
G54D35*X275900Y302200D03*
G54D32*X274974Y284793D02*Y284007D01*
X271826Y284793D02*Y284007D01*
X268626Y280093D02*Y279307D01*
X271774Y280093D02*Y279307D01*
G54D36*X279009Y310605D02*Y308833D01*
X280978Y310605D02*Y308833D01*
X275565Y314246D02*X277337D01*
X275565Y312277D02*X277337D01*
G54D31*X279808Y295341D02*X280792D01*
X279808Y300459D02*X280792D01*
G54D36*X282947Y310605D02*Y308833D01*
X284916Y310605D02*Y308833D01*
X286885Y310605D02*Y308833D01*
X288854Y310605D02*Y308833D01*
X290823Y310605D02*Y308833D01*
X292792Y310605D02*Y308833D01*
X292791Y325566D02*Y323794D01*
X294463Y312278D02*X296235D01*
G54D47*X283931Y317200D02*X287869D01*
G54D11*G36*
X280950Y319350D02*Y315050D01*
X285250D01*
Y319350D01*
X280950D01*
G37*
G36*
X286550D02*Y315050D01*
X290850D01*
Y319350D01*
X286550D01*
G37*
G54D42*X404500Y304893D02*Y304107D01*
X397414Y304893D02*Y304107D01*
G54D48*X362800Y323300D02*Y322700D01*
X355000Y323300D02*Y322700D01*
X358900Y315100D02*Y314500D01*
G54D49*X378107Y322823D02*X378893D01*
X378107Y305500D02*X378893D01*
G54D36*X290822Y325566D02*Y323794D01*
X288853Y325566D02*Y323794D01*
X286884Y325566D02*Y323794D01*
X284915Y325566D02*Y323794D01*
X282946Y325566D02*Y323794D01*
X280977Y325566D02*Y323794D01*
X279008Y325566D02*Y323794D01*
X275565Y322122D02*X277337D01*
X275565Y320153D02*X277337D01*
X275565Y318184D02*X277337D01*
X275565Y316215D02*X277337D01*
G54D46*X275865Y345200D02*X279407D01*
G54D36*X294463Y314247D02*X296235D01*
X294463Y316216D02*X296235D01*
X294463Y318185D02*X296235D01*
X294463Y320154D02*X296235D01*
G54D35*X302400Y311500D03*
G54D36*X294463Y322123D02*X296235D01*
G54D46*X313565Y345300D02*X317107D01*
X293093D02*X296635D01*
G54D32*X446852Y187893D02*Y187107D01*
X446926Y164393D02*Y163607D01*
X450074Y164393D02*Y163607D01*
X447000Y241893D02*Y241107D01*
X450148Y241893D02*Y241107D01*
X450000Y187893D02*Y187107D01*
G54D36*X287173Y193543D02*X291897D01*
X287173Y195512D02*X291897D01*
X287173Y197481D02*X291897D01*
X287173Y199450D02*X291897D01*
X287173Y201419D02*X291897D01*
X287173Y203388D02*X291897D01*
X287173Y205357D02*X291897D01*
X287173Y207326D02*X291897D01*
X287173Y209295D02*X291897D01*
X287173Y211264D02*X291897D01*
X287173Y213233D02*X291897D01*
X287173Y215202D02*X291897D01*
X287173Y217171D02*X291897D01*
X287173Y219140D02*X291897D01*
X287173Y221109D02*X291897D01*
X287173Y223078D02*X291897D01*
X287173Y225047D02*X291897D01*
X287173Y227016D02*X291897D01*
X287173Y228985D02*X291897D01*
X287173Y230954D02*X291897D01*
X287173Y232923D02*X291897D01*
X287173Y234892D02*X291897D01*
X287173Y236861D02*X291897D01*
X287173Y238830D02*X291897D01*
X287173Y240799D02*X291897D01*
X287173Y242768D02*X291897D01*
X287173Y244737D02*X291897D01*
X287173Y246706D02*X291897D01*
X287173Y248675D02*X291897D01*
X287173Y250644D02*X291897D01*
X287173Y252613D02*X291897D01*
X287173Y254582D02*X291897D01*
X287173Y256551D02*X291897D01*
X287173Y258520D02*X291897D01*
X287173Y260489D02*X291897D01*
X287173Y262458D02*X291897D01*
X204102Y262457D02*X208826D01*
X204102Y260488D02*X208826D01*
X204102Y258519D02*X208826D01*
X204102Y256550D02*X208826D01*
X204102Y254581D02*X208826D01*
X204102Y252612D02*X208826D01*
X204102Y250643D02*X208826D01*
X204102Y248674D02*X208826D01*
G54D32*X208826Y277493D02*Y276707D01*
X211974Y277493D02*Y276707D01*
G54D36*X204102Y246705D02*X208826D01*
X204102Y244736D02*X208826D01*
X204102Y242767D02*X208826D01*
X204102Y240798D02*X208826D01*
X204102Y238829D02*X208826D01*
G54D42*X231545Y336605D02*X237055D01*
X231545Y324795D02*X237055D01*
X218845Y330695D02*X224355D01*
X218845Y342505D02*X224355D01*
G54D36*X204102Y236860D02*X208826D01*
X204102Y234891D02*X208826D01*
X204102Y232922D02*X208826D01*
X204102Y230953D02*X208826D01*
X204102Y228984D02*X208826D01*
X204102Y227015D02*X208826D01*
X204102Y225046D02*X208826D01*
X204102Y223077D02*X208826D01*
X204102Y221108D02*X208826D01*
X204102Y219139D02*X208826D01*
X204102Y217170D02*X208826D01*
X204102Y215201D02*X208826D01*
X204102Y213232D02*X208826D01*
X204102Y211263D02*X208826D01*
X204102Y209294D02*X208826D01*
X204102Y207325D02*X208826D01*
X204102Y205356D02*X208826D01*
X204102Y203387D02*X208826D01*
X204102Y201418D02*X208826D01*
X204102Y199449D02*X208826D01*
X204102Y197480D02*X208826D01*
X204102Y195511D02*X208826D01*
X204102Y193542D02*X208826D01*
X213543Y188827D02*Y184103D01*
X215512Y188827D02*Y184103D01*
X217481Y188827D02*Y184103D01*
X219450Y188827D02*Y184103D01*
X221419Y188827D02*Y184103D01*
X223388Y188827D02*Y184103D01*
X225357Y188827D02*Y184103D01*
X227326Y188827D02*Y184103D01*
X229295Y188827D02*Y184103D01*
X231264Y188827D02*Y184103D01*
X233233Y188827D02*Y184103D01*
X235202Y188827D02*Y184103D01*
X237171Y188827D02*Y184103D01*
X239140Y188827D02*Y184103D01*
X241109Y188827D02*Y184103D01*
X243078Y188827D02*Y184103D01*
X245047Y188827D02*Y184103D01*
X247016Y188827D02*Y184103D01*
X248985Y188827D02*Y184103D01*
X250954Y188827D02*Y184103D01*
X252923Y188827D02*Y184103D01*
X254892Y188827D02*Y184103D01*
X256861Y188827D02*Y184103D01*
X258830Y188827D02*Y184103D01*
X260799Y188827D02*Y184103D01*
X262768Y188827D02*Y184103D01*
X264737Y188827D02*Y184103D01*
X266706Y188827D02*Y184103D01*
X268675Y188827D02*Y184103D01*
X270644Y188827D02*Y184103D01*
X272613Y188827D02*Y184103D01*
X274582Y188827D02*Y184103D01*
X276551Y188827D02*Y184103D01*
X278520Y188827D02*Y184103D01*
X280489Y188827D02*Y184103D01*
G54D50*X197800Y34300D03*
X187300Y32400D03*
X193600Y78800D03*
X192100Y85600D03*
X203100Y41300D03*
X203000Y88600D03*
X171100Y58100D03*
X210700Y62100D03*
X215100Y81700D03*
X149300Y36800D03*
X146726Y52300D03*
X146700Y43900D03*
X155700Y52400D03*
X152900Y46700D03*
X164000Y28100D03*
X132900Y37700D03*
X128300Y38200D03*
X125700Y46800D03*
X115200Y69100D03*
X113900Y50900D03*
X119800Y68100D03*
Y56800D03*
X122600Y50800D03*
X128400Y52300D03*
X132000Y52200D03*
X136300Y46100D03*
X143200Y52200D03*
X121100Y73400D03*
X115400Y76500D03*
X121700Y78700D03*
X148500Y63500D03*
X140500D03*
Y71500D03*
X148500D03*
X132500D03*
Y63500D03*
X148500Y80000D03*
X140500D03*
X132500D03*
X148500Y87500D03*
X140500D03*
X132500D03*
X156000D03*
Y63500D03*
Y71500D03*
Y80000D03*
X185000Y78700D03*
X185500Y71700D03*
X185000Y85600D03*
X170900Y88100D03*
X170800Y81400D03*
X170600Y84900D03*
X175700Y89200D03*
X174200Y85000D03*
X167600Y76100D03*
Y80800D03*
X167300Y70200D03*
X168100Y63700D03*
X175600Y75800D03*
X175800Y72500D03*
X177300Y68600D03*
X182200Y99700D03*
X175500Y93300D03*
X179100Y94900D03*
X162000Y121500D03*
X157500Y113300D03*
X168800Y105600D03*
X156400Y98600D03*
X157000Y107600D03*
X131600Y113900D03*
X140800D03*
X140500Y123500D03*
Y129000D03*
X135000D03*
Y123500D03*
Y135000D03*
Y140500D03*
X152800Y109300D03*
X146500Y101800D03*
X144000Y113800D03*
X151200Y101900D03*
X125500Y129900D03*
Y134500D03*
X134800Y113800D03*
X151400Y98600D03*
X121200Y97100D03*
X124800Y117600D03*
Y109000D03*
X134100Y98600D03*
X146600Y98400D03*
X115400Y100400D03*
X118000Y107300D03*
X141000Y101000D03*
X134000Y101800D03*
X137400Y104400D03*
X135400Y107600D03*
X120300Y118800D03*
X167300Y139600D03*
X167500Y124600D03*
X152000Y135000D03*
X146500D03*
Y140500D03*
X152000D03*
X140500Y135000D03*
Y140500D03*
X152000Y129000D03*
X146500D03*
Y123500D03*
X152000D03*
X215100Y131500D03*
X218400Y133200D03*
X207800Y130500D03*
X210100Y133100D03*
X218100Y118000D03*
X215500Y126400D03*
X209900Y124300D03*
X213800Y97200D03*
X81600Y126000D03*
X69200Y125800D03*
X59700Y125600D03*
X64000Y159500D03*
X53500D03*
Y167500D03*
X45500Y163500D03*
X64000Y167500D03*
X47200Y125800D03*
X3100Y118900D03*
X16100D03*
X9600D03*
X3100Y111400D03*
X16100D03*
X9600D03*
X115500Y163500D03*
X120800Y146700D03*
X74102Y158908D03*
X125000Y155900D03*
X109800Y133300D03*
X109700Y122100D03*
X105300Y123000D03*
X105500Y134500D03*
X116074Y132900D03*
X90500Y163500D03*
X71500D03*
X70100Y177600D03*
X64000Y196900D03*
X48000Y197800D03*
X49000Y200900D03*
X56400Y186000D03*
X88100Y177300D03*
X74400Y177426D03*
X84600Y178700D03*
X80800Y184000D03*
X87400Y171100D03*
X28500Y180100D03*
Y185000D03*
X3500Y152500D03*
Y145000D03*
X3100Y181900D03*
Y174400D03*
X16500Y152500D03*
Y145000D03*
X16100Y181900D03*
Y174400D03*
X10000Y152500D03*
Y145000D03*
X9600Y181900D03*
Y174400D03*
X46000Y188000D03*
X52500Y185000D03*
X38500Y188900D03*
X42000Y191400D03*
X35000D03*
X94500Y199500D03*
X99000Y195000D03*
X94500D03*
X99000Y199500D03*
X116174Y195900D03*
X103500Y199500D03*
Y190500D03*
Y195000D03*
X94500Y190500D03*
X84500Y189900D03*
X113200Y188600D03*
X84500Y186900D03*
Y198800D03*
Y202400D03*
X99000Y190500D03*
X96500Y180800D03*
X99600D03*
X107700Y168400D03*
X111700Y168300D03*
X104200Y180700D03*
X105700Y171900D03*
X104400Y167900D03*
X90700D03*
X193900Y199200D03*
X197400Y200700D03*
X184100Y198500D03*
X192600Y192400D03*
X158700Y172300D03*
X154500Y174700D03*
X161800Y179700D03*
X152000Y186500D03*
X146500D03*
Y192000D03*
X152000D03*
X135000Y186500D03*
Y192000D03*
X140500D03*
Y186500D03*
X136900Y173800D03*
X140400Y173400D03*
X140500Y198000D03*
X135000D03*
X146500D03*
X152000D03*
X167600Y187600D03*
X125600Y197500D03*
Y192900D03*
X140900Y150300D03*
X135100Y156500D03*
X115600Y179800D03*
X120400Y181800D03*
X124900Y172000D03*
X143500Y173700D03*
X135100Y176800D03*
X140800Y176900D03*
X144100Y176800D03*
X135500Y170600D03*
X86200Y88100D03*
X86100Y96400D03*
Y84300D03*
Y75800D03*
X56400Y77900D03*
X56800Y90400D03*
X101200Y87900D03*
Y75300D03*
X80100Y90900D03*
Y94200D03*
X80000Y78400D03*
Y81600D03*
Y64400D03*
X85800Y67300D03*
X80000Y61152D03*
X41200Y63300D03*
X51500Y63400D03*
X101200Y58800D03*
X97800Y50700D03*
X85900Y58700D03*
X3100Y55900D03*
X16100D03*
X9600D03*
X3100Y48400D03*
X16100D03*
X9600D03*
X3500Y89500D03*
X16500D03*
X10000D03*
X3500Y82000D03*
X10000D03*
X16500D03*
X299300Y185000D03*
X297200Y196000D03*
X283500Y196700D03*
X283400Y200700D03*
X295700Y199700D03*
Y190900D03*
X282100Y210100D03*
X283800Y215000D03*
X278900Y210200D03*
X335800Y240900D03*
X340400D03*
X330700D03*
X325700D03*
X284600Y227200D03*
Y230400D03*
Y234500D03*
X284500Y238900D03*
X284000Y219100D03*
X331600Y187800D03*
X349000Y244500D03*
X362800Y280900D03*
X348700Y288200D03*
X344000Y288000D03*
X346400Y291500D03*
X348500Y295700D03*
X344300Y295600D03*
X382100Y276300D03*
X387000Y269400D03*
X387700Y274100D03*
X378500Y294339D03*
X403500Y271600D03*
X261200Y285300D03*
X275000Y287900D03*
X263800Y282600D03*
X228100Y264700D03*
X239800Y264800D03*
X245000Y258100D03*
X274600Y264700D03*
X263100Y278000D03*
X263000Y274600D03*
X263400Y258900D03*
X273900Y248100D03*
X271300Y245300D03*
X268300Y248300D03*
X271300Y251200D03*
X279000Y256000D03*
X284500Y262600D03*
X278900Y245300D03*
X273800Y254100D03*
X268600Y253900D03*
X267000Y258900D03*
X278600Y237400D03*
X269500Y227600D03*
X273100D03*
X278400Y225000D03*
X279100Y193200D03*
X264800Y191500D03*
X269000Y191400D03*
X266800Y198200D03*
X274600Y191600D03*
X274300Y220900D03*
X267100Y216900D03*
X258000Y194000D03*
Y197200D03*
X243300Y197900D03*
X248700Y191700D03*
X237200D03*
X238900Y126700D03*
X240900Y143200D03*
X238900Y130800D03*
X250800Y122800D03*
X257300Y124700D03*
X257800Y138000D03*
X255300Y132900D03*
X282700Y120600D03*
Y128700D03*
X292100Y135400D03*
X266700Y120600D03*
X274700D03*
X266700Y128600D03*
X274700D03*
X306700Y106100D03*
X303200Y110200D03*
X287600Y93800D03*
X312600Y89500D03*
X294500Y82800D03*
X303400Y94700D03*
X295700Y88200D03*
X295126Y78800D03*
X295800Y115200D03*
X295900Y125800D03*
X351500Y132500D03*
X291900Y105900D03*
X227700Y100400D03*
X223700Y95100D03*
X224800Y106400D03*
X221800Y89300D03*
X225200Y88400D03*
X244700Y98400D03*
X256700Y99500D03*
X232874Y108200D03*
X238900Y122800D03*
X238774Y118900D03*
X238700Y114900D03*
Y110900D03*
X250800Y113700D03*
X255200Y122200D03*
X272500Y83500D03*
X252400Y70700D03*
X269800Y74100D03*
X265700Y78600D03*
X277300Y93200D03*
X272700Y87800D03*
X279400Y88400D03*
X279600Y78800D03*
X281500Y94400D03*
X275900Y100900D03*
X264000Y93300D03*
X269800D03*
X267800Y99600D03*
X244500Y86300D03*
X254300Y86900D03*
X241200Y41400D03*
X236800Y37700D03*
X234000Y79000D03*
X233300Y84300D03*
X259800Y93600D03*
X250300Y93400D03*
X266700Y112600D03*
X282700Y112500D03*
X274700Y112600D03*
X378500Y59500D03*
X388000D03*
X379500Y140500D03*
X443000Y55000D03*
X351500Y50000D03*
X300700Y132900D03*
X288500Y142900D03*
X285900Y145600D03*
X285800Y138100D03*
X300200Y143500D03*
X313100Y131500D03*
X325000Y135300D03*
X316900Y144400D03*
X312300Y140800D03*
X324900Y144700D03*
X284400Y177700D03*
X386500Y182800D03*
X328200Y205000D03*
X341800Y202200D03*
X337600Y202300D03*
X387400Y210900D03*
X387000Y218700D03*
X389400Y226800D03*
X345100Y160700D03*
X340400Y176900D03*
X340800Y205800D03*
X335500Y205500D03*
X452500Y202500D03*
X447500Y237500D03*
X453000Y257000D03*
X412100Y236000D03*
X434300Y265700D03*
X427500Y259400D03*
X358000Y170400D03*
X354800Y170500D03*
X350700Y160500D03*
X348000Y164600D03*
X343200Y181200D03*
X452500Y179500D03*
X383000Y182900D03*
X379400Y168800D03*
X376600Y172200D03*
X390000Y140500D03*
X453000Y147000D03*
X427400Y187600D03*
X434600Y164800D03*
X180300Y306000D03*
X180000Y298900D03*
X184000Y302100D03*
X196900Y238500D03*
X183800Y237100D03*
X184100Y240300D03*
X161300Y310500D03*
X163500Y234000D03*
X159400Y235400D03*
X155300Y235300D03*
X161900Y243300D03*
X115500Y226500D03*
X90500D03*
X64000Y222500D03*
X53500D03*
X71500Y226500D03*
X45500D03*
X113000Y204500D03*
X70500Y204100D03*
X99400Y209500D03*
X90900D03*
X64500Y207500D03*
X84500Y205700D03*
X70000Y240500D03*
X88000Y240300D03*
X84500Y241700D03*
X74300Y240426D03*
X84400Y249900D03*
X96400Y243800D03*
X99500D03*
X104100Y244300D03*
X80700Y247000D03*
X107600Y231400D03*
X105600Y234900D03*
X104300Y230900D03*
X87300Y234100D03*
X90600Y230900D03*
X81300Y212600D03*
X105600Y213700D03*
X51574Y216800D03*
X47574D03*
X88100Y303400D03*
X74400Y303526D03*
X84600Y304800D03*
X87400Y297200D03*
X94500Y262500D03*
Y253500D03*
Y258000D03*
X103500Y262500D03*
Y253500D03*
X99000Y258000D03*
Y262500D03*
X103500Y258000D03*
X99000Y253500D03*
X99300Y272500D03*
X90800D03*
X105500Y276700D03*
X63900Y259900D03*
X64400Y281400D03*
Y270500D03*
X70400Y267100D03*
X84400Y252900D03*
Y261800D03*
Y265400D03*
Y268700D03*
X81200Y275600D03*
X46700Y280500D03*
X50500Y280600D03*
X56600Y248900D03*
X52300D03*
X53500Y230500D03*
X64000D03*
X64500Y218400D03*
X60500D03*
X58000Y211400D03*
X61300Y281200D03*
X57800Y270800D03*
X64000Y285500D03*
X53500D03*
X45500Y289500D03*
X71500D03*
X76000Y285500D03*
X53500Y293500D03*
X64000D03*
Y348500D03*
X71500Y352500D03*
X64000Y356500D03*
X53500Y348500D03*
Y356500D03*
X45500Y352500D03*
X3900Y341600D03*
X16900D03*
X10400D03*
X3900Y334100D03*
X16900D03*
X10400D03*
X64700Y343900D03*
X64600Y334100D03*
X61300Y343900D03*
X55100Y343600D03*
X51100D03*
X58900Y337000D03*
X45900Y335900D03*
X27500Y307000D03*
Y312500D03*
X46500Y315000D03*
X48500Y323700D03*
X49000Y327000D03*
X38500Y315300D03*
X41500Y317500D03*
X35500D03*
X52500Y312000D03*
X56400Y312100D03*
X45900Y331800D03*
X70000Y303700D03*
X64000Y323000D03*
X84500Y316000D03*
Y313000D03*
X80800Y310100D03*
X84500Y324900D03*
Y328500D03*
Y331800D03*
X81500Y337500D03*
X71100Y330100D03*
X120900Y336400D03*
X125200Y336300D03*
X111200Y344100D03*
X116500Y335000D03*
X112500Y330000D03*
X139600Y347000D03*
X135400Y342300D03*
X125100Y307200D03*
X115500Y289500D03*
X113000Y267500D03*
X109000Y348500D03*
X105600Y339800D03*
X99000Y348500D03*
X90000Y352500D03*
X99000Y356500D03*
X95100Y344400D03*
X92700Y347100D03*
X99400Y335600D03*
X90900D03*
X94500Y325500D03*
Y321000D03*
X103500Y325500D03*
X99000D03*
Y321000D03*
X103500D03*
X113600Y315000D03*
X103500Y316500D03*
X94500D03*
X99000D03*
X90500Y289500D03*
X107200Y294800D03*
X111600Y294600D03*
X105700Y298000D03*
X115600Y305900D03*
X96500Y306900D03*
X99600D03*
X104200Y306800D03*
Y293700D03*
X91200Y293600D03*
X153300Y293100D03*
X145000Y284000D03*
X146000Y287500D03*
X146700Y295700D03*
X137800Y279000D03*
X140600Y276700D03*
X161100Y331700D03*
X152000Y329500D03*
Y312500D03*
X146500Y329500D03*
X131800Y339000D03*
X135000Y329500D03*
Y324000D03*
Y318000D03*
X136700Y339000D03*
X138900Y233600D03*
X140500Y329500D03*
Y324000D03*
X140200Y299700D03*
Y236700D03*
X131500Y303000D03*
X134300Y278500D03*
X135000Y312500D03*
X136500Y237000D03*
X28400Y244100D03*
X33100Y203300D03*
X37100D03*
X28400Y249100D03*
X46000Y252000D03*
X38400Y251900D03*
X41900Y254400D03*
X34900D03*
X3100Y244900D03*
X16100D03*
X9600D03*
X3100Y237400D03*
X16100D03*
X9600D03*
X47900Y260800D03*
X48900Y263900D03*
X33200Y265300D03*
X37400D03*
X3500Y308000D03*
X16500D03*
X10000D03*
X3500Y300500D03*
X16500D03*
X10000D03*
X3500Y278500D03*
Y215500D03*
Y208000D03*
X16500Y278500D03*
X10000D03*
Y215500D03*
Y208000D03*
X3500Y271000D03*
X10000D03*
X16500D03*
Y215500D03*
Y208000D03*
X325900Y337800D03*
X335700Y342700D03*
X329000Y343100D03*
X325800Y347000D03*
X333100Y346900D03*
X339400Y346700D03*
X382000Y330339D03*
X378500Y333339D03*
X375000Y330339D03*
X348800Y323000D03*
X362600Y327800D03*
X294200Y353300D03*
X302000Y333600D03*
X290400Y353300D03*
X291300Y356800D03*
X288100Y330800D03*
X283700D03*
X285900Y327900D03*
X286700Y353300D03*
X287600Y357100D03*
X284100Y357200D03*
X283100Y353400D03*
X279500D03*
X280600Y356900D03*
X357900Y278500D03*
X220300Y276500D03*
X254000Y297900D03*
X209000Y280100D03*
X122100Y278500D03*
X381500Y297839D03*
X375500Y297339D03*
X267500Y314300D03*
X226500Y353200D03*
X202000D03*
X245000Y345800D03*
X264400Y333200D03*
X248900Y337000D03*
X243900Y336800D03*
X276000Y325100D03*
X241700Y342200D03*
X236300Y343000D03*
X240100Y346800D03*
X232800Y346700D03*
X307400Y283200D03*
X307126Y287400D03*
X296900Y283200D03*
Y287500D03*
X302400Y314600D03*
X309900Y294100D03*
X318700Y295500D03*
X320600Y293000D03*
X318600Y290500D03*
X320600Y288200D03*
X289100Y305300D03*
X290200Y296900D03*
X292300Y305600D03*
X286000Y320300D03*
X282700Y305500D03*
X279500Y305800D03*
X286000Y314300D03*
X281000D03*
X291000D03*
Y320300D03*
X281000D03*
X279000Y142100D03*
X279100Y145300D03*
X265800Y138300D03*
X276200Y140200D03*
X268600Y151800D03*
X272600Y155800D03*
X269800Y173400D03*
X272100Y177500D03*
X258000Y171900D03*
X161600Y142500D03*
X132000Y150700D03*
X124900Y147500D03*
X131900Y176800D03*
X125000Y180700D03*
X139100Y213300D03*
X152000Y203500D03*
X140500D03*
X146500D03*
X131900Y213700D03*
X135000Y203500D03*
X135200Y219500D03*
X125200Y210400D03*
X124800Y235000D03*
X120900Y209700D03*
X125100Y218900D03*
X120600Y219000D03*
X111600Y231300D03*
X131700Y239900D03*
X134800Y239800D03*
X140800Y239900D03*
X144000Y239800D03*
X134474Y233574D03*
X177200Y236500D03*
X168600Y240900D03*
X237200Y199800D03*
X235100Y204700D03*
X230300Y200800D03*
Y204500D03*
X255100Y194000D03*
X245500Y191700D03*
X223400D03*
X228800Y193900D03*
X255100Y197200D03*
X228800D03*
X251300Y212700D03*
X246300D03*
X226800Y212000D03*
X223600D03*
X245000Y205100D03*
X241600D03*
X192300Y187300D03*
Y182100D03*
X162200Y184100D03*
X211800Y193600D03*
X161900Y205700D03*
X211800Y203400D03*
X200000Y203000D03*
X222100Y203100D03*
X167400Y202600D03*
X212100Y198800D03*
X227600Y236200D03*
X226800Y224200D03*
X223500D03*
X213600Y218300D03*
X211800Y224700D03*
X217300Y218400D03*
X211800Y215200D03*
Y229300D03*
X213700Y232900D03*
X199400Y235900D03*
X217300Y232900D03*
X211800Y238900D03*
X217600Y209300D03*
Y227000D03*
X347300Y248300D03*
X282700Y245300D03*
X276800Y295200D03*
X284500Y252600D03*
X282700Y256000D03*
X267000Y262100D03*
X263400D03*
X257000Y264900D03*
X251300Y265000D03*
X254100Y263200D03*
X249600Y252900D03*
X112000Y280700D03*
X132200Y281000D03*
X125000Y273000D03*
X132000Y275100D03*
X120800Y272700D03*
X243000Y264800D03*
X237200Y262100D03*
X241700Y250100D03*
X238600Y250200D03*
X237200Y258900D03*
X217000Y243900D03*
X213800D03*
X217000Y250000D03*
X213800D03*
X222100Y262100D03*
X228500Y258700D03*
X222100Y258900D03*
X218700Y262100D03*
Y258800D03*
X211700Y259700D03*
Y256500D03*
X208600Y272000D03*
X231500Y264700D03*
X206800Y269100D03*
X161800Y247400D03*
X152000Y249500D03*
X140500D03*
X146500D03*
X167500Y250600D03*
X161800Y268700D03*
X135000Y266500D03*
X152000D03*
X140500D03*
X146500D03*
X167300Y265600D03*
X140500Y261000D03*
X146500D03*
X152000D03*
X135000D03*
X125500Y260500D03*
Y255900D03*
X116074Y258900D03*
X135000Y255000D03*
X140500D03*
X146500D03*
X152000D03*
X124900Y243600D03*
X135000Y249500D03*
X113100Y251600D03*
X115500Y242800D03*
X120300Y244800D03*
X226500Y349400D03*
X204200Y349500D03*
X200000Y349400D03*
X112500Y348000D03*
X116000Y352500D03*
X135200Y345600D03*
X226500Y357200D03*
X204300Y356900D03*
X200300D03*
X109000Y356500D03*
X183300Y309900D03*
X167600Y313700D03*
X167400Y328700D03*
X140500Y318000D03*
Y312500D03*
X146500D03*
Y318000D03*
Y324000D03*
X152000D03*
Y318000D03*
X120400Y307900D03*
X125100Y345000D03*
X124900Y298100D03*
X125600Y323600D03*
Y319000D03*
X116174Y322000D03*
X134900Y302900D03*
X140800Y303000D03*
X143900Y302900D03*
X135500Y296700D03*
X136500Y300000D03*
G54D51*G54D52*G54D53*G54D52*G54D54*G54D55*G54D17*G54D56*G54D57*G54D53*G54D16*G54D58*G54D17*G54D59*G54D52*G54D58*G54D16*G54D17*G54D59*M02*
