G04 start of page 8 for group -4063 idx -4063 *
G04 Title: GNSS Firehose, componentmask *
G04 Creator: pcb 20140316 *
G04 CreationDate: Sun 19 Apr 2015 08:06:33 AM GMT UTC *
G04 For: pmonta *
G04 Format: Gerber/RS-274X *
G04 PCB-Dimensions (mil): 4640.00 3900.00 *
G04 PCB-Coordinate-Origin: lower left *
%MOIN*%
%FSLAX25Y25*%
%LNTOPMASK*%
%ADD185R,0.0310X0.0310*%
%ADD184R,0.0210X0.0210*%
%ADD183R,0.1300X0.1300*%
%ADD182R,0.0300X0.0300*%
%ADD181R,0.0877X0.0877*%
%ADD180R,0.0400X0.0400*%
%ADD179R,0.0330X0.0330*%
%ADD178R,0.0494X0.0494*%
%ADD177R,0.0973X0.0973*%
%ADD176R,0.1015X0.1015*%
%ADD175C,0.0250*%
%ADD174R,0.0168X0.0168*%
%ADD173R,0.0502X0.0502*%
%ADD172R,0.0420X0.0420*%
%ADD171R,0.0350X0.0350*%
%ADD170R,0.0190X0.0190*%
%ADD169R,0.0148X0.0148*%
%ADD168R,0.0355X0.0355*%
%ADD167R,0.0572X0.0572*%
%ADD166C,0.0787*%
%ADD165R,0.0641X0.0641*%
%ADD164R,0.0260X0.0260*%
%ADD163C,0.0160*%
%ADD162C,0.1580*%
%ADD161C,0.0650*%
%ADD160C,0.0920*%
%ADD159C,0.0800*%
%ADD158C,0.1900*%
%ADD157C,0.1550*%
%ADD156C,0.1300*%
%ADD155C,0.0930*%
%ADD154C,0.1400*%
%ADD153C,0.0654*%
%ADD152C,0.0001*%
%ADD151C,0.0720*%
%ADD150C,0.0060*%
G54D150*X0Y390000D02*Y0D01*
Y390000D02*X464000D01*
X0Y0D02*X464000D01*
Y390000D02*Y0D01*
G54D151*X370000Y200000D03*
X360000D03*
X370000Y210000D03*
Y220000D03*
Y230000D03*
X360000Y210000D03*
Y220000D03*
Y230000D03*
Y240000D03*
Y250000D03*
X370000Y240000D03*
Y250000D03*
G54D152*G36*
X394729Y241768D02*Y235225D01*
X401272D01*
Y241768D01*
X394729D01*
G37*
G54D153*X405874Y238496D03*
X398000Y230622D03*
X405874D03*
X398000Y222748D03*
X405874D03*
X398000Y214874D03*
X405874D03*
X398000Y207000D03*
Y199126D03*
X405874Y207000D03*
Y199126D03*
G54D154*X450315Y322717D03*
Y287283D03*
G54D155*X458189Y305000D03*
G54D156*X446378D03*
G54D157*X422756D03*
G54D158*X431500Y357500D03*
G54D153*X398000Y191252D03*
X405874D03*
G54D151*X370000Y180000D03*
X360000D03*
X370000Y190000D03*
X360000D03*
G54D158*X431500Y32500D03*
G54D159*X433000Y70900D03*
X443000D03*
X453000D03*
G54D160*X418000Y65900D03*
G54D161*X392000Y104500D03*
Y96500D03*
Y88500D03*
Y80500D03*
Y120500D03*
Y112500D03*
X382000Y124500D03*
Y116500D03*
Y108500D03*
G54D162*X418000Y119500D03*
G54D161*X382000Y92500D03*
Y84500D03*
Y76500D03*
G54D162*X418000Y81500D03*
G54D159*X443000Y130100D03*
X453000D03*
G54D160*X418000Y135100D03*
G54D158*X32500Y357500D03*
Y32500D03*
G54D163*X307800Y283100D03*
X307600Y287500D03*
X296900Y283200D03*
Y287500D03*
X310300Y294000D03*
X320600Y293000D03*
X318600Y290500D03*
X320600Y288200D03*
X381500Y297839D03*
X375500Y297339D03*
X378500Y294339D03*
X335700Y342700D03*
X329000Y343100D03*
X325800Y347000D03*
X333100Y346900D03*
X339400Y346700D03*
X348700Y288200D03*
X344000Y288000D03*
X346400Y291500D03*
X348500Y295700D03*
X344300Y295600D03*
X348800Y323000D03*
X325900Y337800D03*
X382000Y330339D03*
X378500Y333339D03*
X375000Y330339D03*
X362600Y327800D03*
X318700Y295500D03*
X253300Y297800D03*
X290200Y296900D03*
X276600Y295200D03*
X282700Y305500D03*
X289100Y305300D03*
X292300Y305600D03*
X279500Y305800D03*
X302400Y314600D03*
X286000Y314300D03*
X281200D03*
X290600D03*
X261200Y285300D03*
X275000Y287900D03*
X294200Y353300D03*
X290400D03*
X286700D03*
X283100Y353400D03*
X279500D03*
X291300Y356800D03*
X287600Y357100D03*
X284100Y357200D03*
X280600Y356900D03*
X302000Y333600D03*
X288100Y330800D03*
X283700D03*
X285900Y327900D03*
X286000Y320300D03*
X290600D03*
X281300D03*
X295700Y199700D03*
X331200Y187800D03*
X295700Y190900D03*
X284400Y177700D03*
X272500Y177500D03*
X269000Y191400D03*
X258000Y197200D03*
X255100D03*
X248700Y191700D03*
X237200D03*
X266600Y198200D03*
X274600Y191600D03*
X273900Y248100D03*
X271300Y245300D03*
X268300Y248300D03*
X251300Y212700D03*
X246300D03*
X245000Y205100D03*
X241600D03*
X278900Y245300D03*
X278600Y237400D03*
X278900Y210200D03*
X278400Y225000D03*
X273600Y220800D03*
X267100Y216900D03*
X269500Y227600D03*
X273100D03*
X243300Y197900D03*
X267500Y314300D03*
X245000Y345800D03*
X264400Y333200D03*
X248900Y337000D03*
X243900Y336800D03*
X241700Y342200D03*
X236300Y343000D03*
X240100Y346800D03*
X232800Y346700D03*
X271500Y325000D03*
X263800Y282600D03*
X263100Y278000D03*
X263000Y274600D03*
X241700Y250100D03*
X238600Y250200D03*
X271300Y251200D03*
X273800Y254100D03*
X268600Y253900D03*
X249400Y252900D03*
X279000Y256000D03*
X274600Y264700D03*
X284500Y262600D03*
X237200Y258900D03*
X239800Y264800D03*
X245000Y258100D03*
X263400Y258900D03*
X267000D03*
Y262100D03*
X220300Y276500D03*
X217000Y243900D03*
X213800D03*
X217000Y250000D03*
X213800D03*
X222100Y262100D03*
X218700D03*
X211700Y259700D03*
Y256500D03*
X206800Y269100D03*
X208600Y272000D03*
X218700Y258800D03*
X209000Y280100D03*
X222100Y258900D03*
X231500Y264700D03*
X228800Y193600D03*
X228500Y258700D03*
X228800Y197400D03*
X227600Y236200D03*
X226800Y224200D03*
X223500D03*
X217300Y232900D03*
X217600Y227000D03*
X226800Y212000D03*
X223600D03*
X217300Y218400D03*
X228100Y264700D03*
X217600Y209300D03*
X211800Y224700D03*
Y229300D03*
X213700Y232900D03*
X199400Y235900D03*
X196900Y238500D03*
X193900Y199200D03*
X197400Y200700D03*
X200000Y203000D03*
X222100Y203400D03*
X192000Y191600D03*
X211800Y215200D03*
Y238900D03*
X192000Y187300D03*
Y182100D03*
X223400Y191700D03*
X212000Y198800D03*
X211800Y193600D03*
X210700Y62100D03*
X215100Y131500D03*
X215500Y126400D03*
X207800Y130500D03*
X210100Y133100D03*
X209900Y124300D03*
X218400Y133200D03*
X218100Y118000D03*
X213800Y97200D03*
X227700Y100400D03*
X223900Y94700D03*
X218400Y106400D03*
X211800Y203400D03*
X213600Y218300D03*
X203000Y89200D03*
X221800Y89300D03*
X225200Y88400D03*
X215100Y81700D03*
X306700Y108700D03*
X312600Y89500D03*
X299500Y107900D03*
X303400Y94700D03*
X295700Y88200D03*
X295800Y115200D03*
X291900Y105900D03*
X378500Y59500D03*
X351500Y50000D03*
X388000Y59500D03*
X443000Y55000D03*
X238300Y126700D03*
X240900Y143200D03*
X238300Y130400D03*
Y122800D03*
Y118700D03*
X238400Y115000D03*
X250800Y122800D03*
Y113700D03*
X257700Y137700D03*
X255300Y132900D03*
X258000Y194000D03*
X255100D03*
X257100Y170700D03*
X255200Y122200D03*
X257300Y124700D03*
X237200Y199800D03*
X235100Y204700D03*
X230300Y200800D03*
Y204500D03*
X245500Y191700D03*
X272500Y83500D03*
X269800Y74100D03*
X265700Y78600D03*
X272700Y87800D03*
X264000Y93300D03*
X269800D03*
X267800Y99600D03*
X252400Y70700D03*
X244400Y85400D03*
X254300Y86900D03*
X234000Y79000D03*
X233300Y84300D03*
X259800Y93600D03*
X250100Y93400D03*
X244700Y98400D03*
X256700Y99500D03*
X231300Y108500D03*
X238400Y111200D03*
X241300Y41200D03*
X236800Y37700D03*
X316900Y144400D03*
X325000Y145700D03*
X312300Y140800D03*
X313100Y131500D03*
X325000Y135300D03*
X379500Y140500D03*
X390000D03*
X427400Y187600D03*
X434600Y164800D03*
X351500Y132500D03*
X357300Y166000D03*
X353200D03*
X300700Y132900D03*
X300400Y143500D03*
X295900Y125800D03*
X292100Y135400D03*
X268600Y151800D03*
X272600Y155800D03*
X266000Y137800D03*
X266700Y128600D03*
X288500Y142900D03*
X285900Y145600D03*
X279000Y142100D03*
X279100Y145300D03*
X285400Y138100D03*
X276200Y140200D03*
X282700Y128700D03*
X274700Y128600D03*
X283500Y196700D03*
X283400Y200700D03*
X279100Y193200D03*
X264800Y191500D03*
X287600Y93800D03*
X275900Y100900D03*
X277300Y93200D03*
X294500Y82800D03*
X279100Y88600D03*
X281100Y94000D03*
X295900Y78800D03*
X278900D03*
X282700Y120600D03*
X266700D03*
Y112600D03*
X282700Y112500D03*
X274700Y112600D03*
Y120600D03*
X299300Y185000D03*
X269300Y173400D03*
X297200Y196000D03*
X452500Y179500D03*
X453000Y147000D03*
X452500Y202500D03*
X282100Y210100D03*
X395000Y179000D03*
X387400Y210900D03*
X387000Y218700D03*
X389400Y226800D03*
X391000Y179000D03*
X343200Y181200D03*
X340400Y176900D03*
X379400Y168800D03*
X376600Y172200D03*
X350700Y160500D03*
X348000Y164600D03*
X345100Y160700D03*
X328200Y205000D03*
X341800Y202200D03*
X337600Y202300D03*
X340800Y205800D03*
X335500Y205500D03*
X335800Y240900D03*
X340400D03*
X349000Y244500D03*
X347300Y248300D03*
X330700Y240900D03*
X325700D03*
X447500Y237500D03*
X412100Y236000D03*
X362800Y280900D03*
X357900Y278500D03*
X382100Y276300D03*
X387000Y269400D03*
X403500Y271600D03*
X387700Y274100D03*
X453000Y257000D03*
X434300Y265700D03*
X427500Y259400D03*
X284600Y227200D03*
X283800Y215000D03*
X284000Y219100D03*
X284600Y230400D03*
Y234500D03*
X284500Y238900D03*
X282700Y245300D03*
X284500Y252600D03*
X282700Y256000D03*
X263400Y262100D03*
X257000Y264900D03*
X254100Y263200D03*
X251300Y265000D03*
X243000Y264800D03*
X237200Y262100D03*
X197800Y34300D03*
X187300Y32400D03*
X193600Y78800D03*
X192100Y85600D03*
X203100Y41300D03*
X185000Y78700D03*
X176300Y72400D03*
X178000Y68600D03*
X185500Y71700D03*
X185000Y85600D03*
X164000Y28100D03*
X182800Y99600D03*
X175800Y93400D03*
X170900Y88100D03*
X170800Y81400D03*
X170600Y84900D03*
X175700Y89200D03*
X166900Y76100D03*
X167600Y80800D03*
X167200Y70100D03*
X168100Y63700D03*
X171100Y58100D03*
X158000Y113300D03*
X169200Y106000D03*
X167800Y139400D03*
X167500Y124600D03*
X149300Y36800D03*
X146726Y52500D03*
X146600Y43200D03*
X152900Y46700D03*
X115200Y69100D03*
X119800Y68100D03*
Y57000D03*
X113900Y50900D03*
X133200Y37300D03*
X128400Y37600D03*
Y52500D03*
X131900Y52400D03*
X132500Y71500D03*
Y63500D03*
X136100Y45900D03*
X125300Y46000D03*
X122600Y50800D03*
X143200Y52200D03*
X156400Y98500D03*
X134100Y98600D03*
X146600Y98400D03*
X146500Y101800D03*
X137400Y104400D03*
X121700Y78700D03*
X140500Y80000D03*
X132500D03*
X155700Y53000D03*
X148500Y63500D03*
X140500D03*
Y71500D03*
X156000Y63500D03*
Y71500D03*
X153400Y109300D03*
X148500Y71500D03*
Y80000D03*
Y87500D03*
X156000D03*
Y80000D03*
X140500Y87500D03*
X141000Y101000D03*
X132500Y87500D03*
X134000Y101800D03*
X135400Y107600D03*
X124900Y108800D03*
X132100Y150100D03*
X125200Y146900D03*
X125500Y129900D03*
Y134500D03*
X161400Y121500D03*
X161500Y142500D03*
X115700Y132800D03*
X135100Y156500D03*
X125100Y156300D03*
X120800Y146700D03*
X131600Y114000D03*
X144000Y113800D03*
X140800Y113900D03*
X124800Y118300D03*
X125200Y210200D03*
X120600Y219000D03*
X113000Y204500D03*
X120900Y209700D03*
X125100Y219500D03*
X135000Y203500D03*
Y198000D03*
X135200Y219500D03*
X132000Y213200D03*
X125600Y197500D03*
X116174Y195900D03*
X116100Y225500D03*
X134800Y113800D03*
X135000Y123500D03*
X120300Y118800D03*
X152000Y129000D03*
X146500D03*
X135000D03*
X152000Y123500D03*
Y135000D03*
X135000D03*
X140500D03*
X152000Y140500D03*
X135000D03*
X146500Y135000D03*
Y123500D03*
X140500D03*
Y129000D03*
X146500Y140500D03*
X140500D03*
X151400Y98600D03*
X151200Y101900D03*
X157000Y107700D03*
X135000Y266500D03*
Y261000D03*
X152000Y266500D03*
X146500D03*
Y261000D03*
X152000D03*
X167300Y265600D03*
X152000Y249500D03*
X146500D03*
Y255000D03*
X152000D03*
X167500Y250600D03*
X135000Y249500D03*
Y255000D03*
X140500Y266500D03*
Y261000D03*
Y255000D03*
Y249500D03*
Y203500D03*
X140800Y239900D03*
X144000Y239800D03*
X136500Y237000D03*
X140200Y236700D03*
X131900Y177000D03*
X135000Y186500D03*
X135100Y176800D03*
X152000Y203500D03*
X146500D03*
Y198000D03*
X152000D03*
X167400Y202600D03*
X140500Y198000D03*
X135000Y192000D03*
X140500D03*
Y186500D03*
X140800Y176900D03*
X144100Y176800D03*
X152000Y186500D03*
X146500D03*
Y192000D03*
X152000D03*
X167600Y187600D03*
X113100Y251600D03*
X115600Y258900D03*
X115500Y241800D03*
X120300Y244800D03*
X124900Y234600D03*
X134800Y239800D03*
X134474Y233574D03*
X122100Y278500D03*
X125500Y260500D03*
Y255900D03*
X120800Y272700D03*
X113200Y188600D03*
X116400Y178400D03*
X116100Y162500D03*
X120400Y181800D03*
X125000Y181000D03*
X124900Y171600D03*
X135500Y170600D03*
X125600Y192900D03*
X136900Y173800D03*
X140400Y173400D03*
X153700Y293100D03*
X145000Y284000D03*
X146000Y287500D03*
X146700Y295700D03*
X125000Y272900D03*
X132000Y275100D03*
X134300Y278500D03*
X137800Y279000D03*
X140600Y276700D03*
X134900Y302900D03*
X140800Y303000D03*
X143900Y302900D03*
X124900Y297900D03*
X116100Y288500D03*
X135500Y296700D03*
X136500Y300000D03*
X140200Y299700D03*
X125600Y323600D03*
Y319000D03*
X115800Y322000D03*
X112000Y280700D03*
X132200Y281000D03*
X113000Y267500D03*
X177200Y236400D03*
X168600Y240900D03*
X183800Y237100D03*
X139100Y213300D03*
X131700Y239900D03*
X124900Y244200D03*
X138900Y233600D03*
X163500Y234000D03*
X159400Y235400D03*
X155300Y235300D03*
X161900Y205700D03*
X161700Y268700D03*
Y247400D03*
X161100Y331700D03*
X161300Y310500D03*
X161900Y243300D03*
X180300Y306000D03*
X180000Y298900D03*
X184000Y302100D03*
X183300Y309900D03*
X184100Y198500D03*
Y240300D03*
X167600Y313700D03*
X167400Y328700D03*
X162200Y184100D03*
X28300Y185000D03*
X94500Y199500D03*
Y190500D03*
Y195000D03*
X103500Y199500D03*
X99000Y195000D03*
Y199500D03*
X103500Y195000D03*
Y190500D03*
X99000D03*
X84500Y189900D03*
X38400Y188300D03*
X41900Y190900D03*
X34900D03*
X84500Y198800D03*
X33100Y203300D03*
X37100D03*
X56600Y248900D03*
X52600D03*
X28300Y244100D03*
X28400Y249100D03*
X46000Y252000D03*
X38700Y251300D03*
X70000Y240000D03*
X74300D03*
X84400Y250000D03*
X96400Y243800D03*
X99500D03*
X104100Y244500D03*
X88000Y240300D03*
X84000Y240700D03*
X80500Y246900D03*
X105600Y234900D03*
X87300Y234100D03*
X107900Y231400D03*
X111600Y231300D03*
X104900Y230300D03*
X90600Y230900D03*
X99400Y209500D03*
X105700Y213700D03*
X64000Y196900D03*
X48000Y197800D03*
X49000Y200900D03*
X70500Y204100D03*
X64500Y207500D03*
X90900Y209500D03*
X84500Y202400D03*
Y205700D03*
X81300Y212600D03*
X89900Y225500D03*
X64500Y218400D03*
X60500D03*
X58000Y211400D03*
X51574Y216800D03*
X47574D03*
X64000Y221400D03*
X71600Y225500D03*
X64000Y229600D03*
X53500Y221400D03*
Y229600D03*
X45400Y225500D03*
X16500Y271000D03*
X32500Y328700D03*
X36700Y328500D03*
X47900Y260800D03*
X46700Y280500D03*
X50500Y280600D03*
X42200Y253800D03*
X48900Y263900D03*
X33200Y265300D03*
X37400D03*
X35200Y253800D03*
X53500Y284400D03*
Y292600D03*
X45400Y288500D03*
X27500Y307000D03*
Y312500D03*
X3500Y308000D03*
X16500D03*
X10000D03*
X3500Y300500D03*
X16500D03*
X10000D03*
X3100Y244900D03*
X9600D03*
X3100Y237400D03*
X9600D03*
X16100Y244900D03*
Y237400D03*
X16500Y278500D03*
X3500D03*
X10000D03*
X3500Y271000D03*
Y215500D03*
X16500D03*
X10000D03*
X3500Y208000D03*
X16500D03*
X10000D03*
X3900Y341600D03*
X16900D03*
X10400D03*
X3900Y334100D03*
X16900D03*
X10400D03*
X10000Y271000D03*
X61300Y281200D03*
X57800Y270800D03*
X64400Y270500D03*
X63900Y259900D03*
X65000Y334400D03*
X64000Y292600D03*
X70400Y267100D03*
X71100Y330100D03*
X76000Y285500D03*
X64400Y281400D03*
X81200Y275600D03*
X64000Y284400D03*
X71600Y288500D03*
X58200Y337200D03*
X226500Y349400D03*
Y353200D03*
Y357200D03*
X204200Y349500D03*
X200000Y349400D03*
X202000Y353200D03*
X204300Y356900D03*
X200300D03*
X120900Y336400D03*
X131800Y339000D03*
X125200Y336200D03*
X116500Y335000D03*
X111200Y344100D03*
X112500Y330000D03*
X113600Y315000D03*
X116200Y351500D03*
X139600Y347000D03*
X125100Y345500D03*
X135200Y345600D03*
X136700Y339000D03*
X135400Y342300D03*
X131500Y303000D03*
X125100Y307200D03*
X111600Y294600D03*
X115800Y304700D03*
X120400Y307900D03*
X135000Y329500D03*
X140500D03*
Y324000D03*
X135000D03*
X152000Y329500D03*
X146500D03*
Y324000D03*
X152000D03*
Y312500D03*
X146500D03*
Y318000D03*
X152000D03*
X135000Y312500D03*
Y318000D03*
X140500D03*
Y312500D03*
X95100Y344400D03*
X99400Y335600D03*
X90900D03*
X92700Y347100D03*
X64700Y343900D03*
X61300D03*
X64000Y347400D03*
X71600Y351500D03*
X89800D03*
X84500Y328500D03*
Y331800D03*
X81500Y337500D03*
X105600Y339800D03*
X55100Y343600D03*
X51100D03*
X53500Y347400D03*
Y355600D03*
X45400Y351500D03*
X64000Y355600D03*
X46500Y315000D03*
X52500Y312000D03*
X64000Y323000D03*
X38500Y314600D03*
X41500Y317500D03*
X56400Y312100D03*
X48500Y323700D03*
X49000Y327000D03*
X70200Y302900D03*
X84500Y316000D03*
Y313200D03*
X84000Y303400D03*
X80800Y309900D03*
X74400Y303300D03*
X35500Y317500D03*
X94500Y325500D03*
Y316500D03*
Y321000D03*
Y262500D03*
Y253500D03*
Y258000D03*
X103500Y325500D03*
Y316500D03*
X99000Y321000D03*
Y325500D03*
X103500Y321000D03*
X99000Y316500D03*
X84500Y324900D03*
X84400Y252900D03*
Y261800D03*
Y265400D03*
Y268700D03*
X107400Y294800D03*
X105500Y297900D03*
X104700Y293700D03*
X96500Y306900D03*
X88100Y303400D03*
X87400Y297200D03*
X91200Y293600D03*
X90800Y272500D03*
X89900Y288500D03*
X105000Y307400D03*
X99600Y306900D03*
X99000Y258000D03*
Y262500D03*
Y253500D03*
X99300Y272500D03*
X103500Y262500D03*
Y253500D03*
Y258000D03*
X105900Y276900D03*
X114400Y100500D03*
X115400Y76500D03*
X121200Y97100D03*
X121100Y73400D03*
X178900Y95600D03*
X174300Y85800D03*
X176300Y75800D03*
X118000Y107300D03*
X109800Y133300D03*
X109700Y122100D03*
X105400D03*
X158700Y172300D03*
X154500Y174700D03*
X143500Y173700D03*
X161800Y179700D03*
X96500Y180800D03*
X99600D03*
X104200Y181300D03*
X140900Y150300D03*
X71600Y162500D03*
X53500Y166600D03*
X45400Y162500D03*
X64000Y166600D03*
X89900Y162500D03*
X105900Y133600D03*
X107700Y168400D03*
X111700Y168300D03*
X105700Y171900D03*
X104700Y166900D03*
X86000Y87500D03*
X86200Y96700D03*
X86000Y84600D03*
X86200Y75300D03*
X85800Y67400D03*
Y58200D03*
X101100Y87100D03*
X101200Y74600D03*
X101300Y58400D03*
X97800Y50700D03*
X80100Y90900D03*
Y94200D03*
X80000Y78400D03*
Y81600D03*
Y64400D03*
Y61152D03*
X52700Y62400D03*
X40300D03*
X56400Y76600D03*
X56500Y92100D03*
X3100Y111400D03*
Y55900D03*
Y48400D03*
X3500Y89500D03*
Y82000D03*
X16100Y111400D03*
Y55900D03*
Y48400D03*
X16500Y89500D03*
Y82000D03*
X9600Y111400D03*
Y55900D03*
Y48400D03*
X10000Y89500D03*
Y82000D03*
X28400Y180100D03*
X3100Y118900D03*
X16100D03*
X9600D03*
X3500Y152500D03*
X16500D03*
X10000D03*
X3500Y145000D03*
X16500D03*
X10000D03*
X3100Y181900D03*
X16100D03*
X9600D03*
X3100Y174400D03*
X16100D03*
X9600D03*
X59500Y125200D03*
X47600D03*
X67900D03*
X88100Y177300D03*
X87400Y171100D03*
X90700Y167900D03*
X84200Y177400D03*
X83100Y124900D03*
X52700Y185000D03*
X74102Y158908D03*
X70200Y177100D03*
X74400D03*
X84500Y186900D03*
X80600Y183700D03*
X46000Y188000D03*
X56400Y186000D03*
X64000Y158400D03*
X53500D03*
G54D164*X261074Y83100D02*X261274D01*
X264874D02*X265074D01*
X276700Y83400D02*X276900D01*
X280500D02*X280700D01*
X289226Y78500D02*X289426D01*
X281600Y78400D02*X281800D01*
X285400D02*X285600D01*
X295300Y91100D02*Y90900D01*
X293026Y78500D02*X293226D01*
G54D165*X304791Y58900D02*X320539D01*
G54D166*X454000Y25000D03*
G54D164*X388074Y55500D02*X388274D01*
X391874D02*X392074D01*
X378426D02*X378626D01*
X382226D02*X382426D01*
G54D165*X271326Y58900D02*X287074D01*
G54D167*X256757Y73193D02*Y72407D01*
X263843Y73193D02*Y72407D01*
G54D168*X269941Y78592D02*Y77608D01*
X275059Y78592D02*Y77608D01*
G54D164*X241674Y111200D02*X241874D01*
X245474D02*X245674D01*
X241774Y118800D02*X241974D01*
X245574D02*X245774D01*
X241774Y122500D02*X241974D01*
X245574D02*X245774D01*
X245548Y115000D02*X245748D01*
X241748D02*X241948D01*
G54D169*X287003Y109771D02*X288381D01*
X287003Y111740D02*X288381D01*
X287003Y113709D02*X288381D01*
X287003Y115678D02*X288381D01*
X287003Y117647D02*X288381D01*
X287003Y119616D02*X288381D01*
X287003Y121585D02*X288381D01*
G54D164*X295300Y94900D02*Y94700D01*
X303200Y105400D02*Y105200D01*
Y109200D02*Y109000D01*
Y97600D02*Y97400D01*
Y101400D02*Y101200D01*
X281800Y96800D02*Y96600D01*
Y100600D02*Y100400D01*
G54D169*X261019Y123553D02*X262397D01*
X261019Y121584D02*X262397D01*
X261019Y119615D02*X262397D01*
X261019Y117646D02*X262397D01*
X261019Y115677D02*X262397D01*
X261019Y113708D02*X262397D01*
X261019Y111739D02*X262397D01*
X261019Y109770D02*X262397D01*
X261019Y131429D02*X262397D01*
X261019Y129460D02*X262397D01*
X261019Y127491D02*X262397D01*
X261019Y125522D02*X262397D01*
X287003Y123554D02*X288381D01*
X287003Y125523D02*X288381D01*
X287003Y127492D02*X288381D01*
X287003Y129461D02*X288381D01*
X287003Y131430D02*X288381D01*
X285529Y134281D02*Y132903D01*
G54D164*X309400Y130726D02*Y130526D01*
G54D169*X283560Y134281D02*Y132903D01*
X281591Y134281D02*Y132903D01*
X279622Y134281D02*Y132903D01*
X277653Y134281D02*Y132903D01*
X275684Y134281D02*Y132903D01*
X273715Y134281D02*Y132903D01*
X271746Y134281D02*Y132903D01*
X269777Y134281D02*Y132903D01*
X267808Y134281D02*Y132903D01*
X265839Y134281D02*Y132903D01*
X263870Y134281D02*Y132903D01*
G54D164*X322074Y138874D02*Y138674D01*
Y135074D02*Y134874D01*
X309400Y134526D02*Y134326D01*
Y138274D02*Y138074D01*
Y142074D02*Y141874D01*
X337826Y139200D02*X338026D01*
X341626D02*X341826D01*
X329300Y132800D02*X329500D01*
X333100D02*X333300D01*
X353374Y162900D02*X353574D01*
X357174D02*X357374D01*
X322000Y146426D02*Y146226D01*
Y142626D02*Y142426D01*
G54D170*X224755Y76762D02*X229361D01*
X224755Y79321D02*X229361D01*
X224755Y81879D02*X229361D01*
X224755Y84438D02*X229361D01*
G54D164*X198000Y79800D02*Y79600D01*
Y83600D02*Y83400D01*
X202400Y86600D02*Y86400D01*
Y82800D02*Y82600D01*
X218700Y89500D02*X218900D01*
X214900D02*X215100D01*
G54D170*X207039Y84438D02*X211645D01*
X207039Y81879D02*X211645D01*
X207039Y79321D02*X211645D01*
X207039Y76762D02*X211645D01*
G54D164*X203100Y44274D02*Y44074D01*
Y48074D02*Y47874D01*
G54D171*X222800Y61650D02*Y59550D01*
Y45250D02*Y43150D01*
X217800Y61650D02*Y59550D01*
Y45250D02*Y43150D01*
G54D172*X209900Y57400D02*X211300D01*
X209900Y47400D02*X211300D01*
G54D164*X241100Y44026D02*Y43826D01*
Y47826D02*Y47626D01*
X245400Y43826D02*Y43626D01*
Y47626D02*Y47426D01*
G54D168*X240282Y37592D02*Y36608D01*
X245400Y37592D02*Y36608D01*
G54D171*X227800Y61650D02*Y59550D01*
Y45250D02*Y43150D01*
G54D172*X234300Y47400D02*X235700D01*
X234300Y57400D02*X235700D01*
G54D164*X192900Y306200D02*X193100D01*
X192900Y300200D02*X193100D01*
X187300Y298600D02*Y298400D01*
Y302400D02*Y302200D01*
G54D167*X218845Y330695D02*X224355D01*
X218845Y342505D02*X224355D01*
X209695Y356155D02*Y350645D01*
X221505Y356155D02*Y350645D01*
G54D164*X196700Y306200D02*X196900D01*
X196700Y300200D02*X196900D01*
X186774Y306326D02*Y306126D01*
Y310126D02*Y309926D01*
G54D173*X94004Y288500D02*X111996D01*
G54D164*X113150Y276900D02*X113350D01*
X102300Y273300D02*X102500D01*
X106100D02*X106300D01*
X109350Y276900D02*X109550D01*
X102800Y277600D02*X103000D01*
X121000Y269700D02*X121200D01*
X124800D02*X125000D01*
X124926Y279574D02*Y279374D01*
Y275774D02*Y275574D01*
X121800Y266000D02*X122000D01*
X121800Y262500D02*X122000D01*
X121800Y255500D02*X122000D01*
X121800Y252000D02*X122000D01*
X99000Y277600D02*X99200D01*
X91800Y180300D02*X92000D01*
X94100Y232000D02*X94300D01*
X97900D02*X98100D01*
X99100Y214100D02*X99300D01*
X118000Y266000D02*X118200D01*
X118000Y262500D02*X118200D01*
X118000Y255500D02*X118200D01*
X118000Y252000D02*X118200D01*
X102900Y214100D02*X103100D01*
X108600Y234700D02*X108800D01*
X112400D02*X112600D01*
X118800Y195900D02*X119000D01*
X122600D02*X122800D01*
X119900Y184800D02*X120100D01*
X123700D02*X123900D01*
X121700Y192200D02*X121900D01*
X121700Y188400D02*X121900D01*
X125000Y216852D02*Y216652D01*
X132000Y219800D02*Y219600D01*
Y216000D02*Y215800D01*
X125000Y213052D02*Y212852D01*
X168500Y205700D02*X168700D01*
X164700D02*X164900D01*
X125000Y174600D02*Y174400D01*
X132200Y170600D02*Y170400D01*
Y174400D02*Y174200D01*
X111700Y175300D02*Y175100D01*
Y179100D02*Y178900D01*
X125000Y178400D02*Y178200D01*
X168600Y184600D02*X168800D01*
X164800D02*X165000D01*
X120900Y206900D02*X121100D01*
X124700D02*X124900D01*
X121600Y203300D02*X121800D01*
Y199600D02*X122000D01*
X94200Y168900D02*X94400D01*
X98000D02*X98200D01*
X117800Y203300D02*X118000D01*
Y199600D02*X118200D01*
X117900Y192200D02*X118100D01*
X117900Y188400D02*X118100D01*
X115200Y181200D02*Y181000D01*
Y185000D02*Y184800D01*
X104200Y174900D02*Y174700D01*
Y178700D02*Y178500D01*
G54D174*X144484Y272369D02*Y270205D01*
G54D152*G36*
X140950Y266250D02*Y261150D01*
X146050D01*
Y266250D01*
X140950D01*
G37*
G36*
X146650D02*Y261150D01*
X151750D01*
Y266250D01*
X146650D01*
G37*
G54D174*X142515Y272369D02*Y270205D01*
X140546Y272369D02*Y270205D01*
X138577Y272369D02*Y270205D01*
X136608Y272369D02*Y270205D01*
X134639Y272369D02*Y270205D01*
X132670Y272369D02*Y270605D01*
G54D164*X129400Y281200D02*Y281000D01*
Y277400D02*Y277200D01*
G54D152*G36*
X133220Y268280D02*Y247720D01*
X153780D01*
Y268280D01*
X133220D01*
G37*
G36*
X135250Y266250D02*Y261150D01*
X140350D01*
Y266250D01*
X135250D01*
G37*
G36*
Y260550D02*Y255450D01*
X140350D01*
Y260550D01*
X135250D01*
G37*
G36*
X140950D02*Y255450D01*
X146050D01*
Y260550D01*
X140950D01*
G37*
G36*
X146650Y254850D02*Y249750D01*
X151750D01*
Y254850D01*
X146650D01*
G37*
G36*
Y260550D02*Y255450D01*
X151750D01*
Y260550D01*
X146650D01*
G37*
G36*
X135250Y254850D02*Y249750D01*
X140350D01*
Y254850D01*
X135250D01*
G37*
G36*
X140950D02*Y249750D01*
X146050D01*
Y254850D01*
X140950D01*
G37*
G54D164*X180800Y250300D02*X181000D01*
X177000D02*X177200D01*
X185626Y245200D02*X185826D01*
X181826D02*X182026D01*
X168100Y268400D02*X168300D01*
X164300D02*X164500D01*
X168100Y247400D02*X168300D01*
X164300D02*X164500D01*
X178200Y243074D02*Y242874D01*
X172000Y244574D02*Y244374D01*
Y240774D02*Y240574D01*
X178200Y239274D02*Y239074D01*
X192926Y240774D02*Y240574D01*
Y236974D02*Y236774D01*
X187000Y240800D02*Y240600D01*
Y237000D02*Y236800D01*
X124026Y247874D02*X124226D01*
X124974Y237626D02*Y237426D01*
Y241426D02*Y241226D01*
X111800Y238400D02*Y238200D01*
Y242200D02*Y242000D01*
G54D169*X204102Y262457D02*X208826D01*
X204102Y260488D02*X208826D01*
G54D164*X198400Y182100D02*X198600D01*
X194600D02*X194800D01*
X198400Y192400D02*X198600D01*
X194600D02*X194800D01*
X198400Y187300D02*X198600D01*
X194600D02*X194800D01*
G54D169*X213543Y188827D02*Y184103D01*
X215512Y188827D02*Y184103D01*
X217481Y188827D02*Y184103D01*
X219450Y188827D02*Y184103D01*
X221419Y188827D02*Y184103D01*
X223388Y188827D02*Y184103D01*
X225357Y188827D02*Y184103D01*
G54D164*X208400Y277100D02*X208600D01*
X212200D02*X212400D01*
G54D169*X225356Y271898D02*Y267174D01*
X223387Y271898D02*Y267174D01*
X221418Y271898D02*Y267174D01*
X219449Y271898D02*Y267174D01*
X217480Y271898D02*Y267174D01*
X215511Y271898D02*Y267174D01*
X213542Y271898D02*Y267174D01*
G54D164*X132000Y346000D02*Y345800D01*
Y342200D02*Y342000D01*
X125200Y342800D02*Y342600D01*
Y339000D02*Y338800D01*
X121200Y332700D02*X121400D01*
X109400Y339600D02*X109600D01*
X102600Y339900D02*X102800D01*
X98800D02*X99000D01*
G54D173*X94004Y351500D02*X111996D01*
G54D164*X113200Y339600D02*X113400D01*
X102300Y336000D02*X102500D01*
X106100D02*X106300D01*
G54D174*X88508Y315093D02*X91066D01*
X93093Y313067D02*Y310509D01*
X95062Y313067D02*Y310509D01*
X97031Y313067D02*Y310509D01*
X99000Y313067D02*Y310509D01*
X100969Y313067D02*Y310509D01*
G54D175*X111800Y311700D03*
G54D174*X106933Y315093D02*X109491D01*
X106933Y317062D02*X109491D01*
X102938Y313067D02*Y310509D01*
X104907Y313067D02*Y310509D01*
G54D152*G36*
X92952Y327048D02*Y314952D01*
X105047D01*
Y327048D01*
X92952D01*
G37*
G36*
X94800Y325200D02*Y321300D01*
X98700D01*
Y325200D01*
X94800D01*
G37*
G36*
Y320700D02*Y316800D01*
X98700D01*
Y320700D01*
X94800D01*
G37*
G36*
X99300Y325200D02*Y321300D01*
X103200D01*
Y325200D01*
X99300D01*
G37*
G36*
Y320700D02*Y316800D01*
X103200D01*
Y320700D01*
X99300D01*
G37*
G54D174*X106933Y319031D02*X109491D01*
X106933Y321000D02*X109491D01*
X106933Y322969D02*X109491D01*
G54D164*X118474Y322000D02*X118674D01*
X122274D02*X122474D01*
G54D174*X129131Y331829D02*X130895D01*
X129131Y329860D02*X131295D01*
X129131Y327891D02*X131295D01*
X129131Y325922D02*X131295D01*
X129131Y323953D02*X131295D01*
X129131Y321984D02*X131295D01*
G54D164*X125000Y332700D02*X125200D01*
G54D174*X129131Y312139D02*X131295D01*
X129131Y310170D02*X130895D01*
X129131Y320015D02*X131295D01*
X129131Y318046D02*X131295D01*
X129131Y316077D02*X131295D01*
X129131Y314108D02*X131295D01*
X132671Y308395D02*Y306631D01*
X134640Y308795D02*Y306631D01*
X136609Y308795D02*Y306631D01*
X138578Y308795D02*Y306631D01*
X140547Y308795D02*Y306631D01*
X142516Y308795D02*Y306631D01*
X144485Y308795D02*Y306631D01*
X146454Y308795D02*Y306631D01*
X148423Y308795D02*Y306631D01*
X150392Y308795D02*Y306631D01*
X152361Y308795D02*Y306631D01*
X154330Y308395D02*Y306631D01*
X156105Y310171D02*X157869D01*
X155705Y312140D02*X157869D01*
X155705Y314109D02*X157869D01*
X155705Y316078D02*X157869D01*
X155705Y318047D02*X157869D01*
X155705Y320016D02*X157869D01*
X155705Y321985D02*X157869D01*
X155705Y323954D02*X157869D01*
G54D164*X167800Y310500D02*X168000D01*
X167600Y331700D02*X167800D01*
X164000Y310500D02*X164200D01*
X163800Y331700D02*X164000D01*
G54D174*X155705Y325923D02*X157869D01*
X155705Y327892D02*X157869D01*
X155705Y329861D02*X157869D01*
X156105Y331830D02*X157869D01*
X154329Y335369D02*Y333605D01*
X152360Y335369D02*Y333205D01*
X150391Y335369D02*Y333205D01*
X148422Y335369D02*Y333205D01*
X146453Y335369D02*Y333205D01*
X144484Y335369D02*Y333205D01*
X142515Y335369D02*Y333205D01*
X140546Y335369D02*Y333205D01*
X138577Y335369D02*Y333205D01*
X136608Y335369D02*Y333205D01*
X134639Y335369D02*Y333205D01*
X132670Y335369D02*Y333605D01*
X88508Y326907D02*X91066D01*
X88508Y324938D02*X91066D01*
X88508Y322969D02*X91066D01*
X88508Y321000D02*X91066D01*
X88508Y319031D02*X91066D01*
X88508Y317062D02*X91066D01*
G54D164*X90500Y297000D02*Y296800D01*
Y300800D02*Y300600D01*
X91700Y306400D02*X91900D01*
X90500Y234000D02*Y233800D01*
Y237800D02*Y237600D01*
X91300Y243000D02*X91500D01*
G54D174*X106933Y324938D02*X109491D01*
X106933Y326907D02*X109491D01*
X104907Y331492D02*Y328934D01*
X102938Y331492D02*Y328934D01*
X100969Y331492D02*Y328934D01*
X99000Y331492D02*Y328934D01*
X97031Y331492D02*Y328934D01*
X95062Y331492D02*Y328934D01*
X93093Y331492D02*Y328934D01*
G54D152*G36*
X133220Y331280D02*Y310720D01*
X153780D01*
Y331280D01*
X133220D01*
G37*
G36*
X135250Y329250D02*Y324150D01*
X140350D01*
Y329250D01*
X135250D01*
G37*
G36*
Y323550D02*Y318450D01*
X140350D01*
Y323550D01*
X135250D01*
G37*
G36*
X140950D02*Y318450D01*
X146050D01*
Y323550D01*
X140950D01*
G37*
G36*
Y329250D02*Y324150D01*
X146050D01*
Y329250D01*
X140950D01*
G37*
G36*
X146650D02*Y324150D01*
X151750D01*
Y329250D01*
X146650D01*
G37*
G36*
Y323550D02*Y318450D01*
X151750D01*
Y323550D01*
X146650D01*
G37*
G36*
X135250Y317850D02*Y312750D01*
X140350D01*
Y317850D01*
X135250D01*
G37*
G36*
X140950D02*Y312750D01*
X146050D01*
Y317850D01*
X140950D01*
G37*
G36*
X146650D02*Y312750D01*
X151750D01*
Y317850D01*
X146650D01*
G37*
G54D164*X120000Y311000D02*X120200D01*
X118000Y318500D02*X118200D01*
X121800D02*X122000D01*
X118000Y315000D02*X118200D01*
X121800D02*X122000D01*
X123800Y311000D02*X124000D01*
X118000Y329100D02*X118200D01*
X121800D02*X122000D01*
X118000Y325600D02*X118200D01*
X121800D02*X122000D01*
X102100Y293700D02*Y293500D01*
X94600Y299000D02*X94800D01*
X98400D02*X98600D01*
X94000Y294500D02*X94200D01*
X97800D02*X98000D01*
X102100Y297500D02*Y297300D01*
X108600Y298500D02*X108800D01*
X112400D02*X112600D01*
X111700Y302600D02*Y302400D01*
Y306400D02*Y306200D01*
X115400Y307600D02*Y307400D01*
Y311400D02*Y311200D01*
X105100Y301000D02*Y300800D01*
Y304800D02*Y304600D01*
X98400Y302900D02*X98600D01*
X94600D02*X94800D01*
X132200Y296500D02*Y296300D01*
Y300300D02*Y300100D01*
X124900Y300800D02*Y300600D01*
Y304600D02*Y304400D01*
X143500Y295700D02*Y295500D01*
Y291900D02*Y291700D01*
X150900Y292000D02*X151100D01*
X147100D02*X147300D01*
G54D167*X231545Y336605D02*X237055D01*
X231545Y324795D02*X237055D01*
G54D165*X261187Y322921D02*Y313079D01*
X247013Y322921D02*Y313079D01*
G54D176*X255393Y345200D02*X258935D01*
G54D175*X270100Y310900D03*
G54D164*X264900Y297800D02*Y297600D01*
Y301600D02*Y301400D01*
X256200Y297800D02*X256400D01*
X260000D02*X260200D01*
G54D175*X275900Y302200D03*
G54D169*X279009Y310605D02*Y308833D01*
X280978Y310605D02*Y308833D01*
X282947Y310605D02*Y308833D01*
G54D168*X279808Y300459D02*X280792D01*
G54D169*X275565Y312277D02*X277337D01*
G54D168*X279808Y295341D02*X280792D01*
G54D169*X292791Y325566D02*Y323794D01*
X290822Y325566D02*Y323794D01*
X288853Y325566D02*Y323794D01*
X286884Y325566D02*Y323794D01*
X284915Y325566D02*Y323794D01*
X282946Y325566D02*Y323794D01*
X280977Y325566D02*Y323794D01*
X279008Y325566D02*Y323794D01*
X275565Y322122D02*X277337D01*
X275565Y320153D02*X277337D01*
X275565Y318184D02*X277337D01*
X275565Y316215D02*X277337D01*
X275565Y314246D02*X277337D01*
G54D177*X284531Y317200D02*X287269D01*
G54D152*G36*
X280700Y319600D02*Y314800D01*
X285500D01*
Y319600D01*
X280700D01*
G37*
G36*
X286300D02*Y314800D01*
X291100D01*
Y319600D01*
X286300D01*
G37*
G54D176*X275865Y345200D02*X279407D01*
G54D164*X446574Y241500D02*X446774D01*
X450374D02*X450574D01*
G54D178*X459000Y257984D02*Y256016D01*
Y247748D02*Y245780D01*
G54D164*X450226Y187500D02*X450426D01*
X391000Y176000D02*X391200D01*
X394800D02*X395000D01*
G54D178*X459000Y179984D02*Y178016D01*
G54D164*X446500Y164000D02*X446700D01*
X450300D02*X450500D01*
G54D178*X459000Y169748D02*Y167780D01*
G54D164*X378926Y144000D02*X379126D01*
X382726D02*X382926D01*
X389426D02*X389626D01*
X393226D02*X393426D01*
X446426Y187500D02*X446626D01*
G54D178*X459000Y202984D02*Y201016D01*
Y192748D02*Y190780D01*
G54D164*X337700Y187800D02*X337900D01*
G54D179*X340700Y237000D02*Y229800D01*
X335700Y237000D02*Y229800D01*
X330700Y237000D02*Y229800D01*
X325700Y237000D02*Y229800D01*
G54D164*X333900Y187800D02*X334100D01*
G54D179*X325700Y217600D02*Y210400D01*
X330700Y217600D02*Y210400D01*
X335700Y217600D02*Y210400D01*
X340700Y217600D02*Y210400D01*
G54D164*X306200Y231126D02*X306400D01*
X302400D02*X302600D01*
X308174Y234900D02*X308374D01*
X304374D02*X304574D01*
X300674Y237500D02*X300874D01*
X296874D02*X297074D01*
X311226Y241000D02*X311426D01*
X307426D02*X307626D01*
X300874Y242300D02*X301074D01*
X297074D02*X297274D01*
G54D169*X287173Y193543D02*X291897D01*
X287173Y195512D02*X291897D01*
X287173Y197481D02*X291897D01*
X287173Y199450D02*X291897D01*
X287173Y201419D02*X291897D01*
X287173Y203388D02*X291897D01*
X287173Y205357D02*X291897D01*
X287173Y207326D02*X291897D01*
X287173Y209295D02*X291897D01*
X287173Y211264D02*X291897D01*
X287173Y213233D02*X291897D01*
X287173Y215202D02*X291897D01*
X287173Y217171D02*X291897D01*
X287173Y219140D02*X291897D01*
X204102Y258519D02*X208826D01*
X204102Y256550D02*X208826D01*
X204102Y254581D02*X208826D01*
X204102Y252612D02*X208826D01*
X204102Y250643D02*X208826D01*
X204102Y248674D02*X208826D01*
X204102Y246705D02*X208826D01*
X204102Y244736D02*X208826D01*
X204102Y242767D02*X208826D01*
X204102Y240798D02*X208826D01*
X204102Y238829D02*X208826D01*
X204102Y236860D02*X208826D01*
X204102Y234891D02*X208826D01*
X204102Y232922D02*X208826D01*
X204102Y230953D02*X208826D01*
X204102Y228984D02*X208826D01*
X204102Y227015D02*X208826D01*
X204102Y225046D02*X208826D01*
X204102Y223077D02*X208826D01*
X204102Y221108D02*X208826D01*
X204102Y219139D02*X208826D01*
X204102Y217170D02*X208826D01*
X204102Y215201D02*X208826D01*
X204102Y213232D02*X208826D01*
X204102Y211263D02*X208826D01*
X204102Y209294D02*X208826D01*
X204102Y207325D02*X208826D01*
X204102Y205356D02*X208826D01*
X204102Y203387D02*X208826D01*
X204102Y201418D02*X208826D01*
X204102Y199449D02*X208826D01*
X204102Y197480D02*X208826D01*
X204102Y195511D02*X208826D01*
X204102Y193542D02*X208826D01*
G54D164*X300926Y287400D02*X301126D01*
X292674D02*X292874D01*
X288874D02*X289074D01*
X292700Y283200D02*X292900D01*
X288900D02*X289100D01*
X301100D02*X301300D01*
G54D175*X295500Y301800D03*
G54D164*X304300Y301700D02*Y301500D01*
G54D167*X404500Y304893D02*Y304107D01*
X397414Y304893D02*Y304107D01*
G54D164*X304300Y297900D02*Y297700D01*
X287400Y296800D02*Y296600D01*
Y300600D02*Y300400D01*
X303700Y294000D02*X303900D01*
G54D169*X284916Y310605D02*Y308833D01*
X286885Y310605D02*Y308833D01*
X288854Y310605D02*Y308833D01*
X290823Y310605D02*Y308833D01*
X292792Y310605D02*Y308833D01*
X294463Y312278D02*X296235D01*
X294463Y314247D02*X296235D01*
X294463Y316216D02*X296235D01*
G54D175*X302400Y311500D03*
G54D169*X294463Y318185D02*X296235D01*
X294463Y320154D02*X296235D01*
X294463Y322123D02*X296235D01*
G54D176*X293093Y345300D02*X296635D01*
G54D164*X304726Y287400D02*X304926D01*
X304900Y283200D02*X305100D01*
G54D167*X326695Y294555D02*Y289045D01*
G54D164*X307500Y294000D02*X307700D01*
G54D167*X338505Y294555D02*Y289045D01*
G54D164*X336826Y256500D02*X337026D01*
X340626D02*X340826D01*
X330374Y251900D02*X330574D01*
X334174D02*X334374D01*
G54D167*X335745Y303000D02*X341255D01*
X335745Y314810D02*X341255D01*
X335545Y336400D02*X341055D01*
X335545Y324590D02*X341055D01*
G54D165*X325687Y322821D02*Y312979D01*
X311513Y322821D02*Y312979D01*
G54D176*X313565Y345300D02*X317107D01*
G54D180*X362800Y323300D02*Y322700D01*
X355000Y323300D02*Y322700D01*
X358900Y315100D02*Y314500D01*
G54D181*X378107Y322823D02*X378893D01*
X378107Y305500D02*X378893D01*
G54D169*X227326Y188827D02*Y184103D01*
X229295Y188827D02*Y184103D01*
X231264Y188827D02*Y184103D01*
X233233Y188827D02*Y184103D01*
X235202Y188827D02*Y184103D01*
X237171Y188827D02*Y184103D01*
X239140Y188827D02*Y184103D01*
X241109Y188827D02*Y184103D01*
X243078Y188827D02*Y184103D01*
X245047Y188827D02*Y184103D01*
X247016Y188827D02*Y184103D01*
X248985Y188827D02*Y184103D01*
X250954Y188827D02*Y184103D01*
X252923Y188827D02*Y184103D01*
X254892Y188827D02*Y184103D01*
X256861Y188827D02*Y184103D01*
X272613Y188827D02*Y184103D01*
X274582Y188827D02*Y184103D01*
X276551Y188827D02*Y184103D01*
X278520Y188827D02*Y184103D01*
X280489Y188827D02*Y184103D01*
X282458Y188827D02*Y184103D01*
G54D164*X281400Y177700D02*X281600D01*
G54D168*X290941Y176392D02*Y175408D01*
G54D164*X271974Y173900D02*X272174D01*
X275774D02*X275974D01*
X299600Y181100D02*X299800D01*
X295800D02*X296000D01*
G54D168*X296059Y176392D02*Y175408D01*
G54D164*X299174Y191974D02*Y191774D01*
Y188174D02*Y187974D01*
X259311Y173522D02*Y173322D01*
Y177322D02*Y177122D01*
G54D169*X258830Y188827D02*Y184103D01*
X260799Y188827D02*Y184103D01*
X262768Y188827D02*Y184103D01*
X264737Y188827D02*Y184103D01*
G54D164*X265900Y177500D02*X266100D01*
X269700D02*X269900D01*
X277600Y177700D02*X277800D01*
G54D169*X266706Y188827D02*Y184103D01*
X268675Y188827D02*Y184103D01*
X270644Y188827D02*Y184103D01*
X287173Y221109D02*X291897D01*
X287173Y223078D02*X291897D01*
X287173Y225047D02*X291897D01*
X287173Y227016D02*X291897D01*
X287173Y228985D02*X291897D01*
X287173Y230954D02*X291897D01*
X287173Y232923D02*X291897D01*
X287173Y234892D02*X291897D01*
X287173Y236861D02*X291897D01*
X287173Y238830D02*X291897D01*
X287173Y240799D02*X291897D01*
X287173Y242768D02*X291897D01*
X287173Y244737D02*X291897D01*
X287173Y246706D02*X291897D01*
X287173Y248675D02*X291897D01*
X287173Y250644D02*X291897D01*
X287173Y252613D02*X291897D01*
X287173Y254582D02*X291897D01*
X287173Y256551D02*X291897D01*
X287173Y258520D02*X291897D01*
X287173Y260489D02*X291897D01*
X287173Y262458D02*X291897D01*
X282457Y271898D02*Y267174D01*
X280488Y271898D02*Y267174D01*
G54D164*X275200Y284400D02*X275400D01*
X271400D02*X271600D01*
X268200Y279700D02*X268400D01*
X272000D02*X272200D01*
G54D169*X278519Y271898D02*Y267174D01*
X276550Y271898D02*Y267174D01*
X274581Y271898D02*Y267174D01*
X272612Y271898D02*Y267174D01*
X270643Y271898D02*Y267174D01*
X268674Y271898D02*Y267174D01*
X266705Y271898D02*Y267174D01*
X264736Y271898D02*Y267174D01*
X262767Y271898D02*Y267174D01*
X260798Y271898D02*Y267174D01*
X258829Y271898D02*Y267174D01*
X256860Y271898D02*Y267174D01*
X254891Y271898D02*Y267174D01*
X252922Y271898D02*Y267174D01*
X250953Y271898D02*Y267174D01*
X248984Y271898D02*Y267174D01*
X247015Y271898D02*Y267174D01*
X245046Y271898D02*Y267174D01*
X243077Y271898D02*Y267174D01*
X241108Y271898D02*Y267174D01*
X239139Y271898D02*Y267174D01*
X237170Y271898D02*Y267174D01*
X235201Y271898D02*Y267174D01*
X233232Y271898D02*Y267174D01*
X231263Y271898D02*Y267174D01*
X229294Y271898D02*Y267174D01*
X227325Y271898D02*Y267174D01*
G54D182*X1900Y132000D02*X18000D01*
G54D183*X7000Y115250D02*X13000D01*
G54D182*X1900Y69000D02*X18000D01*
G54D183*X7000Y52250D02*X13000D01*
X7000Y85750D02*X13000D01*
X7000Y148750D02*X13000D01*
X7000Y178250D02*X13000D01*
G54D166*X10000Y25000D03*
G54D164*X28200Y69000D02*X28400D01*
X32000D02*X32200D01*
X46000Y185000D02*X46200D01*
G54D168*X31508Y179941D02*X32492D01*
X31508Y185059D02*X32492D01*
G54D164*X33200Y132000D02*X33400D01*
X37000D02*X37200D01*
X47400Y128126D02*Y127926D01*
Y131926D02*Y131726D01*
X59900Y131900D02*Y131700D01*
X31000Y194900D02*X31200D01*
X34800D02*X35000D01*
X42000D02*X42200D01*
X45800D02*X46000D01*
X38500Y191100D02*Y190900D01*
Y194900D02*Y194700D01*
X56100Y189100D02*X56300D01*
G54D173*X49504Y162500D02*X67496D01*
G54D164*X49800Y185000D02*X50000D01*
G54D184*X51800Y200100D02*X53700D01*
X51800Y197500D02*X53700D01*
X51800Y194900D02*X53700D01*
X59300D02*X61200D01*
X59300Y197500D02*X61200D01*
X59300Y200100D02*X61200D01*
G54D164*X59900Y189100D02*X60100D01*
X72400Y196600D02*X72600D01*
X70200Y179900D02*Y179700D01*
Y183700D02*Y183500D01*
X74400Y179900D02*Y179700D01*
Y183700D02*Y183500D01*
X76200Y196600D02*X76400D01*
X79900Y195300D02*X80100D01*
X83700D02*X83900D01*
X84400Y180300D02*Y180100D01*
Y184100D02*Y183900D01*
X80700Y186600D02*Y186400D01*
Y190400D02*Y190200D01*
X59900Y128100D02*Y127900D01*
X77000Y78174D02*Y77974D01*
X77100Y90800D02*Y90600D01*
Y94600D02*Y94400D01*
X59200Y76600D02*X59400D01*
X63000D02*X63200D01*
X51600Y131900D02*X51800D01*
X55400D02*X55600D01*
X44426Y69000D02*X44626D01*
X48226D02*X48426D01*
X52600Y65226D02*Y65026D01*
Y69026D02*Y68826D01*
X40300Y65200D02*Y65000D01*
Y69000D02*Y68800D01*
G54D167*X102157Y50993D02*Y50207D01*
X109243Y50993D02*Y50207D01*
G54D164*X128500Y45900D02*Y45700D01*
Y49700D02*Y49500D01*
X132900Y45800D02*Y45600D01*
Y49600D02*Y49400D01*
X155600Y46500D02*Y46300D01*
Y50300D02*Y50100D01*
X168200Y57000D02*Y56800D01*
Y60800D02*Y60600D01*
X117600Y100300D02*X117800D01*
X121400D02*X121600D01*
X132000Y107574D02*Y107374D01*
Y111374D02*Y111174D01*
X124800Y111674D02*Y111474D01*
Y115474D02*Y115274D01*
X109374Y125300D02*X109574D01*
X105400D02*Y125100D01*
X113174Y125300D02*X113374D01*
X109500Y129000D02*X109700D01*
X113300D02*X113500D01*
X105400Y129100D02*Y128900D01*
X109500Y136400D02*X109700D01*
X113300D02*X113500D01*
X109500Y140200D02*X109700D01*
X113300D02*X113500D01*
X105700Y136500D02*Y136300D01*
Y140300D02*Y140100D01*
G54D174*X129131Y131015D02*X131295D01*
X129131Y129046D02*X131295D01*
X129131Y127077D02*X131295D01*
X129131Y125108D02*X131295D01*
X129131Y123139D02*X131295D01*
X129131Y121170D02*X130895D01*
X132671Y119395D02*Y117631D01*
G54D164*X102100Y167400D02*Y167200D01*
Y171200D02*Y171000D01*
X94600Y173400D02*X94800D01*
X98400D02*X98600D01*
X99200Y177200D02*X99400D01*
X95400D02*X95600D01*
X90700Y171000D02*Y170800D01*
Y174800D02*Y174600D01*
X108600Y171500D02*X108800D01*
X112400D02*X112600D01*
X88000Y180300D02*X88200D01*
X131900Y156800D02*Y156600D01*
Y153000D02*Y152800D01*
X125100Y153674D02*Y153474D01*
Y149874D02*Y149674D01*
G54D174*X129131Y142829D02*X130895D01*
G54D164*X121000Y143600D02*X121200D01*
X124800D02*X125000D01*
X118400Y132900D02*X118600D01*
X122200D02*X122400D01*
X119900Y121800D02*X120100D01*
X123700D02*X123900D01*
G54D174*X129131Y140860D02*X131295D01*
X129131Y138891D02*X131295D01*
X129131Y136922D02*X131295D01*
X129131Y134953D02*X131295D01*
X129131Y132984D02*X131295D01*
G54D164*X167874Y121600D02*X168074D01*
X168100Y142500D02*X168300D01*
X164300D02*X164500D01*
X164074Y121600D02*X164274D01*
G54D174*X156105Y121171D02*X157869D01*
X155705Y123140D02*X157869D01*
X155705Y125109D02*X157869D01*
X155705Y127078D02*X157869D01*
X155705Y129047D02*X157869D01*
X155705Y131016D02*X157869D01*
X134640Y119795D02*Y117631D01*
X136609Y119795D02*Y117631D01*
X138578Y119795D02*Y117631D01*
X140547Y119795D02*Y117631D01*
X142516Y119795D02*Y117631D01*
X144485Y119795D02*Y117631D01*
X146454Y119795D02*Y117631D01*
X148423Y119795D02*Y117631D01*
X150392Y119795D02*Y117631D01*
X152361Y119795D02*Y117631D01*
X154330Y119395D02*Y117631D01*
X155705Y132985D02*X157869D01*
X155705Y134954D02*X157869D01*
X155705Y136923D02*X157869D01*
X155705Y138892D02*X157869D01*
X155705Y140861D02*X157869D01*
G54D164*X157000Y105100D02*Y104900D01*
Y101300D02*Y101100D01*
G54D174*X156105Y142830D02*X157869D01*
X154329Y146369D02*Y144605D01*
X152360Y146369D02*Y144205D01*
X150391Y146369D02*Y144205D01*
X148422Y146369D02*Y144205D01*
X146453Y146369D02*Y144205D01*
X144484Y146369D02*Y144205D01*
X142515Y146369D02*Y144205D01*
X140546Y146369D02*Y144205D01*
X138577Y146369D02*Y144205D01*
X136608Y146369D02*Y144205D01*
X134639Y146369D02*Y144205D01*
X132670Y146369D02*Y144605D01*
G54D152*G36*
X133220Y142280D02*Y121720D01*
X153780D01*
Y142280D01*
X133220D01*
G37*
G36*
X135250Y140250D02*Y135150D01*
X140350D01*
Y140250D01*
X135250D01*
G37*
G36*
Y134550D02*Y129450D01*
X140350D01*
Y134550D01*
X135250D01*
G37*
G36*
X140950D02*Y129450D01*
X146050D01*
Y134550D01*
X140950D01*
G37*
G36*
Y140250D02*Y135150D01*
X146050D01*
Y140250D01*
X140950D01*
G37*
G36*
X146650D02*Y135150D01*
X151750D01*
Y140250D01*
X146650D01*
G37*
G36*
Y134550D02*Y129450D01*
X151750D01*
Y134550D01*
X146650D01*
G37*
G36*
X135250Y128850D02*Y123750D01*
X140350D01*
Y128850D01*
X135250D01*
G37*
G36*
X140950D02*Y123750D01*
X146050D01*
Y128850D01*
X140950D01*
G37*
G36*
X146650D02*Y123750D01*
X151750D01*
Y128850D01*
X146650D01*
G37*
G54D164*X241674Y126300D02*X241874D01*
X245474D02*X245674D01*
X241674Y130200D02*X241874D01*
X245474D02*X245674D01*
G54D169*X155229Y93512D02*Y92134D01*
X153260Y93512D02*Y92134D01*
X151291Y93512D02*Y92134D01*
X149322Y93512D02*Y92134D01*
G54D164*X151300Y113300D02*X151500D01*
X155100D02*X155300D01*
X150500Y109300D02*X150700D01*
X146700D02*X146900D01*
X176000Y99600D02*X176200D01*
X179800D02*X180000D01*
X173000Y93300D02*X173200D01*
X169200D02*X169400D01*
G54D168*X73241Y132492D02*Y131508D01*
X78359Y132492D02*Y131508D01*
G54D164*X68100Y128200D02*Y128000D01*
Y132000D02*Y131800D01*
X83400Y128200D02*Y128000D01*
Y132000D02*Y131800D01*
G54D169*X147353Y93512D02*Y92134D01*
X145384Y93512D02*Y92134D01*
X143415Y93512D02*Y92134D01*
X141446Y93512D02*Y92134D01*
X139477Y93512D02*Y92134D01*
X137508Y93512D02*Y92134D01*
G54D175*X129100Y99900D03*
X125100Y101400D03*
G54D169*X135539Y93512D02*Y92134D01*
X133570Y93512D02*Y92134D01*
X131601Y93512D02*Y92134D01*
X129632Y93512D02*Y92134D01*
G54D168*X95759Y94392D02*Y93408D01*
X90641Y94392D02*Y93408D01*
G54D164*X101100Y93800D02*Y93600D01*
X86100Y94100D02*Y93900D01*
G54D169*X263871Y108297D02*Y106919D01*
X265840Y108297D02*Y106919D01*
X267809Y108297D02*Y106919D01*
X269778Y108297D02*Y106919D01*
X271747Y108297D02*Y106919D01*
X273716Y108297D02*Y106919D01*
G54D152*G36*
X264608Y130692D02*Y110508D01*
X284792D01*
Y130692D01*
X264608D01*
G37*
G36*
X266700Y128600D02*Y121600D01*
X273700D01*
Y128600D01*
X266700D01*
G37*
G36*
Y119600D02*Y112600D01*
X273700D01*
Y119600D01*
X266700D01*
G37*
G36*
X275700Y128600D02*Y121600D01*
X282700D01*
Y128600D01*
X275700D01*
G37*
G36*
Y119600D02*Y112600D01*
X282700D01*
Y119600D01*
X275700D01*
G37*
G54D169*X275685Y108297D02*Y106919D01*
G54D175*X272000Y180600D03*
X268700D03*
X260800Y180700D03*
G54D169*X277654Y108297D02*Y106919D01*
X279623Y108297D02*Y106919D01*
G54D175*X278800Y100200D03*
G54D169*X281592Y108297D02*Y106919D01*
X283561Y108297D02*Y106919D01*
X285530Y108297D02*Y106919D01*
G54D164*X59200Y92100D02*X59400D01*
X63000D02*X63200D01*
G54D168*X62608Y81741D02*X63592D01*
X62608Y86859D02*X63592D01*
G54D164*X76900Y61026D02*Y60826D01*
Y64826D02*Y64626D01*
G54D168*X95859Y81892D02*Y80908D01*
G54D164*X101226Y77474D02*Y77274D01*
Y81274D02*Y81074D01*
G54D168*X90741Y81892D02*Y80908D01*
G54D164*X86126Y78174D02*Y77974D01*
Y81974D02*Y81774D01*
G54D168*X95859Y64992D02*Y64008D01*
G54D164*X101400Y61200D02*Y61000D01*
Y65000D02*Y64800D01*
G54D168*X90741Y64992D02*Y64008D01*
G54D164*X85900Y61000D02*Y60800D01*
Y64800D02*Y64600D01*
X101100Y90000D02*Y89800D01*
X86100Y90300D02*Y90100D01*
G54D169*X126388Y70577D02*X127766D01*
X126388Y68608D02*X127766D01*
X126388Y66639D02*X127766D01*
X126388Y64670D02*X127766D01*
G54D175*X118700Y89700D03*
X117600Y85900D03*
G54D169*X126388Y62701D02*X127766D01*
G54D175*X121100Y62200D03*
G54D169*X126388Y60732D02*X127766D01*
G54D175*X122400Y59200D03*
G54D169*X129633Y58866D02*Y57488D01*
X131602Y58866D02*Y57488D01*
X133571Y58866D02*Y57488D01*
X135540Y58866D02*Y57488D01*
X137509Y58866D02*Y57488D01*
X139478Y58866D02*Y57488D01*
X141447Y58866D02*Y57488D01*
G54D152*G36*
X133350Y70950D02*Y64450D01*
X139850D01*
Y70950D01*
X133350D01*
G37*
G54D169*X126388Y90267D02*X127766D01*
X126388Y88298D02*X127766D01*
X126388Y86329D02*X127766D01*
X126388Y84360D02*X127766D01*
X126388Y82391D02*X127766D01*
X126388Y80422D02*X127766D01*
X126388Y78453D02*X127766D01*
X126388Y76484D02*X127766D01*
X126388Y74515D02*X127766D01*
X126388Y72546D02*X127766D01*
G54D175*X123200Y54300D03*
X136200Y49300D03*
X139900Y46200D03*
X143400Y49000D03*
X143600Y44800D03*
G54D169*X143416Y58866D02*Y57488D01*
X145385Y58866D02*Y57488D01*
G54D152*G36*
X129977Y89923D02*Y61077D01*
X158823D01*
Y89923D01*
X129977D01*
G37*
G36*
X133350Y86550D02*Y80050D01*
X139850D01*
Y86550D01*
X133350D01*
G37*
G36*
X141150D02*Y80050D01*
X147650D01*
Y86550D01*
X141150D01*
G37*
G36*
X133350Y78750D02*Y72250D01*
X139850D01*
Y78750D01*
X133350D01*
G37*
G36*
X141150D02*Y72250D01*
X147650D01*
Y78750D01*
X141150D01*
G37*
G36*
Y70950D02*Y64450D01*
X147650D01*
Y70950D01*
X141150D01*
G37*
G54D169*X161034Y68609D02*X162412D01*
X161034Y70578D02*X162412D01*
X161034Y72547D02*X162412D01*
X161034Y74516D02*X162412D01*
X161034Y76485D02*X162412D01*
X161034Y78454D02*X162412D01*
X161034Y80423D02*X162412D01*
G54D175*X171800Y72800D03*
G54D164*X171148Y68400D02*X171348D01*
G54D175*X171800Y75800D03*
G54D164*X146700Y46026D02*Y45826D01*
Y49826D02*Y49626D01*
G54D169*X147354Y58866D02*Y57488D01*
X161034Y60733D02*X162412D01*
X161034Y62702D02*X162412D01*
X161034Y64671D02*X162412D01*
X161034Y66640D02*X162412D01*
X149323Y58866D02*Y57488D01*
X151292Y58866D02*Y57488D01*
G54D152*G36*
X148950Y70950D02*Y64450D01*
X155450D01*
Y70950D01*
X148950D01*
G37*
G54D169*X153261Y58866D02*Y57488D01*
X155230Y58866D02*Y57488D01*
X157199Y58866D02*Y57488D01*
X159168Y58866D02*Y57488D01*
G54D175*X159800Y51800D03*
X163600Y52000D03*
G54D169*X161034Y82392D02*X162412D01*
X161034Y84361D02*X162412D01*
X161034Y86330D02*X162412D01*
X161034Y88299D02*X162412D01*
X161034Y90268D02*X162412D01*
X159167Y93512D02*Y92134D01*
X157198Y93512D02*Y92134D01*
G54D152*G36*
X148950Y86550D02*Y80050D01*
X155450D01*
Y86550D01*
X148950D01*
G37*
G36*
Y78750D02*Y72250D01*
X155450D01*
Y78750D01*
X148950D01*
G37*
G54D168*X187159Y52592D02*Y51608D01*
X182041Y52592D02*Y51608D01*
G54D164*X187000Y59800D02*X187200D01*
X183200D02*X183400D01*
X184500Y64500D02*X184700D01*
X180700D02*X180900D01*
X176700Y64400D02*X176900D01*
X172900D02*X173100D01*
X174948Y68400D02*X175148D01*
X182574Y72074D02*Y71874D01*
Y68274D02*Y68074D01*
G54D174*X129131Y186139D02*X131295D01*
X129131Y184170D02*X130895D01*
G54D175*X111400Y185100D03*
G54D173*X94004Y162500D02*X111996D01*
G54D174*X129131Y190077D02*X131295D01*
X129131Y188108D02*X131295D01*
X132671Y182395D02*Y180631D01*
X134640Y182795D02*Y180631D01*
X136609Y182795D02*Y180631D01*
X155705Y199923D02*X157869D01*
X155705Y201892D02*X157869D01*
X155705Y203861D02*X157869D01*
X156105Y205830D02*X157869D01*
X154329Y209369D02*Y207605D01*
X152360Y209369D02*Y207205D01*
X150391Y209369D02*Y207205D01*
X148422Y209369D02*Y207205D01*
X146453Y209369D02*Y207205D01*
X144484Y209369D02*Y207205D01*
X138578Y182795D02*Y180631D01*
X140547Y182795D02*Y180631D01*
X142516Y182795D02*Y180631D01*
X144485Y182795D02*Y180631D01*
X146454Y182795D02*Y180631D01*
X148423Y182795D02*Y180631D01*
X150392Y182795D02*Y180631D01*
X152361Y182795D02*Y180631D01*
X154330Y182395D02*Y180631D01*
G54D152*G36*
X133220Y205280D02*Y184720D01*
X153780D01*
Y205280D01*
X133220D01*
G37*
G36*
X135250Y203250D02*Y198150D01*
X140350D01*
Y203250D01*
X135250D01*
G37*
G36*
Y197550D02*Y192450D01*
X140350D01*
Y197550D01*
X135250D01*
G37*
G36*
X140950D02*Y192450D01*
X146050D01*
Y197550D01*
X140950D01*
G37*
G36*
Y203250D02*Y198150D01*
X146050D01*
Y203250D01*
X140950D01*
G37*
G36*
X146650D02*Y198150D01*
X151750D01*
Y203250D01*
X146650D01*
G37*
G36*
Y197550D02*Y192450D01*
X151750D01*
Y197550D01*
X146650D01*
G37*
G36*
X135250Y191850D02*Y186750D01*
X140350D01*
Y191850D01*
X135250D01*
G37*
G36*
X140950D02*Y186750D01*
X146050D01*
Y191850D01*
X140950D01*
G37*
G36*
X146650D02*Y186750D01*
X151750D01*
Y191850D01*
X146650D01*
G37*
G54D174*X142515Y209369D02*Y207205D01*
X140546Y209369D02*Y207205D01*
X138577Y209369D02*Y207205D01*
X136608Y209369D02*Y207205D01*
X134639Y209369D02*Y207205D01*
X132670Y209369D02*Y207605D01*
G54D164*X102300Y210300D02*X102500D01*
X106100D02*X106300D01*
X109600Y213700D02*X109800D01*
X113400D02*X113600D01*
X80600Y200400D02*Y200200D01*
Y204200D02*Y204000D01*
X84500Y212800D02*Y212600D01*
Y209000D02*Y208800D01*
G54D175*X164800Y101200D03*
X161000D03*
G54D164*X174300Y83026D02*Y82826D01*
G54D168*X178708Y85059D02*X179692D01*
X178708Y79941D02*X179692D01*
G54D164*X179200Y92874D02*Y92674D01*
Y89074D02*Y88874D01*
X174300Y79226D02*Y79026D01*
X119800Y50500D02*Y50300D01*
Y54300D02*Y54100D01*
X116900Y64700D02*X117100D01*
X113100D02*X113300D01*
X116900Y81000D02*X117100D01*
X113100D02*X113300D01*
X109300D02*X109500D01*
X105500D02*X105700D01*
X118300Y77000D02*Y76800D01*
Y73200D02*Y73000D01*
X109352Y64700D02*X109552D01*
X105552D02*X105752D01*
X116900Y93800D02*X117100D01*
X113100D02*X113300D01*
X109400D02*X109600D01*
X105600D02*X105800D01*
X77000Y81974D02*Y81774D01*
G54D174*X129131Y205829D02*X130895D01*
X129131Y203860D02*X131295D01*
X129131Y201891D02*X131295D01*
X129131Y199922D02*X131295D01*
X129131Y197953D02*X131295D01*
X129131Y195984D02*X131295D01*
X129131Y194015D02*X131295D01*
X129131Y192046D02*X131295D01*
X156105Y184171D02*X157869D01*
X155705Y186140D02*X157869D01*
X155705Y188109D02*X157869D01*
X155705Y190078D02*X157869D01*
X155705Y192047D02*X157869D01*
X155705Y194016D02*X157869D01*
X155705Y195985D02*X157869D01*
X155705Y197954D02*X157869D01*
X156105Y247171D02*X157869D01*
X155705Y249140D02*X157869D01*
X155705Y251109D02*X157869D01*
X155705Y253078D02*X157869D01*
X155705Y255047D02*X157869D01*
X155705Y257016D02*X157869D01*
X155705Y258985D02*X157869D01*
X155705Y260954D02*X157869D01*
X129131Y268829D02*X130895D01*
X129131Y266860D02*X131295D01*
X129131Y264891D02*X131295D01*
X129131Y262922D02*X131295D01*
X129131Y260953D02*X131295D01*
X129131Y258984D02*X131295D01*
X129131Y257015D02*X131295D01*
X129131Y255046D02*X131295D01*
G54D164*X131800Y233300D02*Y233100D01*
Y237100D02*Y236900D01*
G54D174*X132671Y245395D02*Y243631D01*
X134640Y245795D02*Y243631D01*
X136609Y245795D02*Y243631D01*
X138578Y245795D02*Y243631D01*
X140547Y245795D02*Y243631D01*
X142516Y245795D02*Y243631D01*
X144485Y245795D02*Y243631D01*
X146454Y245795D02*Y243631D01*
X148423Y245795D02*Y243631D01*
X150392Y245795D02*Y243631D01*
X152361Y245795D02*Y243631D01*
X154330Y245395D02*Y243631D01*
X155705Y262923D02*X157869D01*
X155705Y264892D02*X157869D01*
X155705Y266861D02*X157869D01*
X156105Y268830D02*X157869D01*
X154329Y272369D02*Y270605D01*
X152360Y272369D02*Y270205D01*
X150391Y272369D02*Y270205D01*
X148422Y272369D02*Y270205D01*
X146453Y272369D02*Y270205D01*
G54D175*X111600Y247900D03*
G54D173*X94004Y225500D02*X111996D01*
G54D164*X102300Y230600D02*Y230400D01*
X115400Y244700D02*Y244500D01*
Y248500D02*Y248300D01*
X102300Y234400D02*Y234200D01*
X94800Y236700D02*X95000D01*
X98600D02*X98800D01*
Y240400D02*X99000D01*
X95000D02*X95200D01*
X104300Y238100D02*Y237900D01*
Y241900D02*Y241700D01*
G54D174*X129131Y253077D02*X131295D01*
X129131Y251108D02*X131295D01*
X129131Y249139D02*X131295D01*
X129131Y247170D02*X130895D01*
G54D164*X118500Y259000D02*X118700D01*
X122300D02*X122500D01*
X120226Y247874D02*X120426D01*
G54D182*X1900Y195000D02*X18000D01*
G54D164*X25500Y195100D02*Y194900D01*
Y198900D02*Y198700D01*
G54D168*X25508Y203682D02*X26492D01*
G54D183*X7000Y211750D02*X13000D01*
G54D182*X1900Y258000D02*X18000D01*
G54D183*X7000Y241250D02*X13000D01*
G54D185*X33000Y208233D02*Y206894D01*
Y218469D02*Y217131D01*
G54D168*X25508Y208800D02*X26492D01*
G54D185*X36740Y208233D02*Y206894D01*
X40480Y208233D02*Y206894D01*
Y218469D02*Y217131D01*
G54D164*X60900Y204200D02*Y204000D01*
Y208000D02*Y207800D01*
X60800Y211500D02*X61000D01*
X64600D02*X64800D01*
X61000Y215100D02*X61200D01*
X64800D02*X65000D01*
X66000Y200200D02*X66200D01*
X47574Y213800D02*X47774D01*
X51374D02*X51574D01*
G54D173*X49504Y225500D02*X67496D01*
G54D174*X88508Y200907D02*X91066D01*
X88508Y198938D02*X91066D01*
X88508Y196969D02*X91066D01*
X88508Y195000D02*X91066D01*
X88508Y193031D02*X91066D01*
X88508Y191062D02*X91066D01*
X100969Y205492D02*Y202934D01*
X99000Y205492D02*Y202934D01*
X97031Y205492D02*Y202934D01*
X95062Y205492D02*Y202934D01*
X93093Y205492D02*Y202934D01*
G54D152*G36*
X94800Y194700D02*Y190800D01*
X98700D01*
Y194700D01*
X94800D01*
G37*
G54D164*X69800Y200200D02*X70000D01*
X73700Y205300D02*Y205100D01*
Y201500D02*Y201300D01*
G54D174*X106933Y189093D02*X109491D01*
X106933Y191062D02*X109491D01*
X106933Y193031D02*X109491D01*
X88508Y189093D02*X91066D01*
X93093Y187067D02*Y184509D01*
X95062Y187067D02*Y184509D01*
X97031Y187067D02*Y184509D01*
X99000Y187067D02*Y184509D01*
X100969Y187067D02*Y184509D01*
X102938Y187067D02*Y184509D01*
X104907Y187067D02*Y184509D01*
X106933Y195000D02*X109491D01*
X106933Y196969D02*X109491D01*
X106933Y198938D02*X109491D01*
X106933Y200907D02*X109491D01*
X104907Y205492D02*Y202934D01*
X102938Y205492D02*Y202934D01*
G54D152*G36*
X92952Y201048D02*Y188952D01*
X105047D01*
Y201048D01*
X92952D01*
G37*
G36*
X94800Y199200D02*Y195300D01*
X98700D01*
Y199200D01*
X94800D01*
G37*
G36*
X99300D02*Y195300D01*
X103200D01*
Y199200D01*
X99300D01*
G37*
G36*
Y194700D02*Y190800D01*
X103200D01*
Y194700D01*
X99300D01*
G37*
G54D174*X106933Y252093D02*X109491D01*
X106933Y254062D02*X109491D01*
X106933Y256031D02*X109491D01*
X88508Y263907D02*X91066D01*
G54D164*X84500Y276000D02*Y275800D01*
Y272200D02*Y272000D01*
G54D174*X88508Y261938D02*X91066D01*
X88508Y259969D02*X91066D01*
X88508Y258000D02*X91066D01*
G54D164*X76700Y259400D02*X76900D01*
X80000Y263700D02*Y263500D01*
Y267500D02*Y267300D01*
X74000Y267800D02*Y267600D01*
Y264000D02*Y263800D01*
G54D174*X106933Y258000D02*X109491D01*
X106933Y259969D02*X109491D01*
X106933Y261938D02*X109491D01*
X106933Y263907D02*X109491D01*
X104907Y268492D02*Y265934D01*
X102938Y268492D02*Y265934D01*
X100969Y268492D02*Y265934D01*
X99000Y268492D02*Y265934D01*
X97031Y268492D02*Y265934D01*
X95062Y268492D02*Y265934D01*
X93093Y268492D02*Y265934D01*
G54D152*G36*
X92952Y264048D02*Y251952D01*
X105047D01*
Y264048D01*
X92952D01*
G37*
G54D174*X88508Y256031D02*X91066D01*
X88508Y254062D02*X91066D01*
X88508Y252093D02*X91066D01*
X93093Y250067D02*Y247509D01*
X95062Y250067D02*Y247509D01*
X97031Y250067D02*Y247509D01*
X99000Y250067D02*Y247509D01*
X100969Y250067D02*Y247509D01*
X102938Y250067D02*Y247509D01*
X104907Y250067D02*Y247509D01*
G54D152*G36*
X94800Y262200D02*Y258300D01*
X98700D01*
Y262200D01*
X94800D01*
G37*
G36*
Y257700D02*Y253800D01*
X98700D01*
Y257700D01*
X94800D01*
G37*
G36*
X99300Y262200D02*Y258300D01*
X103200D01*
Y262200D01*
X99300D01*
G37*
G36*
Y257700D02*Y253800D01*
X103200D01*
Y257700D01*
X99300D01*
G37*
G54D164*X69900Y262900D02*X70100D01*
Y242800D02*Y242600D01*
Y246600D02*Y246400D01*
X72900Y259400D02*X73100D01*
X80500Y258300D02*X80700D01*
X84300D02*X84500D01*
X80500Y253500D02*Y253300D01*
Y249700D02*Y249500D01*
X84000Y243600D02*Y243400D01*
Y247400D02*Y247200D01*
X87500Y243000D02*X87700D01*
X74600Y242900D02*Y242700D01*
Y246700D02*Y246500D01*
G54D182*X1900Y321000D02*X18000D01*
G54D183*X7000Y304250D02*X13000D01*
G54D166*X10000Y365000D03*
G54D183*X7000Y337750D02*X13000D01*
G54D164*X25000Y321100D02*Y320900D01*
Y324900D02*Y324700D01*
G54D168*X25508Y329000D02*X26492D01*
X25508Y334118D02*X26492D01*
G54D164*X49400Y312000D02*X49600D01*
X38500Y317400D02*Y317200D01*
Y321200D02*Y321000D01*
X42000D02*X42200D01*
X45800D02*X46000D01*
G54D184*X51800Y320900D02*X53700D01*
X59300D02*X61200D01*
G54D164*X59900Y315100D02*X60100D01*
X56100D02*X56300D01*
X84400Y306500D02*Y306300D01*
X87900Y306400D02*X88100D01*
X70200Y306026D02*Y305826D01*
X74500Y306126D02*Y305926D01*
X84400Y310300D02*Y310100D01*
X70200Y309826D02*Y309626D01*
X74500Y309926D02*Y309726D01*
X80900Y312700D02*Y312500D01*
Y316500D02*Y316300D01*
X80000Y321500D02*X80200D01*
X83800D02*X84000D01*
G54D184*X51800Y326100D02*X53700D01*
X59300D02*X61200D01*
G54D164*X61000Y330000D02*Y329800D01*
G54D184*X51800Y323500D02*X53700D01*
X59300D02*X61200D01*
G54D164*X72400Y322500D02*X72600D01*
X76200D02*X76400D01*
X61100Y337300D02*X61300D01*
X64900D02*X65100D01*
X61000Y341000D02*X61200D01*
X64800D02*X65000D01*
X66000Y326000D02*X66200D01*
X69800D02*X70000D01*
X74000Y330500D02*Y330300D01*
Y326700D02*Y326500D01*
X81500Y325500D02*Y325300D01*
Y329300D02*Y329100D01*
X84400Y338700D02*Y338500D01*
Y334900D02*Y334700D01*
X54900Y340600D02*X55100D01*
X61000Y333800D02*Y333600D01*
G54D185*X32900Y333369D02*Y332031D01*
X36640Y333369D02*Y332031D01*
X40380Y333369D02*Y332031D01*
Y343606D02*Y342267D01*
X32900Y343606D02*Y342267D01*
G54D164*X51100Y340600D02*X51300D01*
G54D173*X49504Y351500D02*X67496D01*
G54D183*X7000Y274750D02*X13000D01*
G54D168*X31008Y306941D02*X31992D01*
X31008Y312059D02*X31992D01*
G54D164*X31000Y321000D02*X31200D01*
X34800D02*X35000D01*
G54D168*X26308Y271259D02*X27292D01*
G54D164*X45600Y312000D02*X45800D01*
X46000Y249000D02*X46200D01*
X49800D02*X50000D01*
X46100Y258000D02*X46300D01*
X46700Y277500D02*X46900D01*
X38800Y258100D02*Y257900D01*
G54D185*X40680Y269833D02*Y268494D01*
Y280069D02*Y278731D01*
G54D184*X51800Y263100D02*X53700D01*
X51800Y260500D02*X53700D01*
X51800Y257900D02*X53700D01*
G54D164*X50500Y277500D02*X50700D01*
X42300Y258000D02*X42500D01*
X38800Y254300D02*Y254100D01*
G54D185*X36940Y269833D02*Y268494D01*
G54D184*X59300Y257900D02*X61200D01*
X59300Y260500D02*X61200D01*
X59300Y263100D02*X61200D01*
G54D164*X66100Y262900D02*X66300D01*
X59900Y252000D02*X60100D01*
X56100D02*X56300D01*
X26000Y258100D02*Y257900D01*
X35100Y258000D02*X35300D01*
X26000Y261900D02*Y261700D01*
G54D168*X31508Y243941D02*X32492D01*
X31508Y249059D02*X32492D01*
G54D164*X31300Y258000D02*X31500D01*
G54D185*X33200Y269833D02*Y268494D01*
Y280069D02*Y278731D01*
G54D168*X26308Y266141D02*X27292D01*
G54D164*X61200Y267000D02*Y266800D01*
Y270800D02*Y270600D01*
X60900Y278100D02*X61100D01*
X64700D02*X64900D01*
X61000Y274300D02*X61200D01*
X64800D02*X65000D01*
G54D173*X49504Y288500D02*X67496D01*
M02*
