G04 start of page 13 for group -4014 idx -4014 *
G04 Title: (unknown), bottompaste *
G04 Creator: pcb 20140316 *
G04 CreationDate: Sat 17 May 2014 08:59:42 AM GMT UTC *
G04 For: pmonta *
G04 Format: Gerber/RS-274X *
G04 PCB-Dimensions (mil): 4200.00 3400.00 *
G04 PCB-Coordinate-Origin: lower left *
%MOIN*%
%FSLAX25Y25*%
%LNBOTTOMPASTE*%
%ADD222R,0.0295X0.0295*%
%ADD221R,0.0512X0.0512*%
%ADD220R,0.0197X0.0197*%
G54D220*X302907Y302774D02*X303693D01*
X302907Y299626D02*X303693D01*
X280807Y299500D02*X281593D01*
X280807Y302648D02*X281593D01*
X269407Y233926D02*X270193D01*
X269407Y237074D02*X270193D01*
X279426Y234293D02*Y233507D01*
X282574Y234293D02*Y233507D01*
X260307Y233926D02*X261093D01*
X260307Y237074D02*X261093D01*
G54D221*X271483Y190593D02*Y189807D01*
X278569Y190593D02*Y189807D01*
G54D220*X278852Y209893D02*Y209107D01*
X282000Y209893D02*Y209107D01*
X279052Y182793D02*Y182007D01*
X282200Y182793D02*Y182007D01*
G54D221*X223260Y174193D02*Y173407D01*
X216174Y174193D02*Y173407D01*
G54D220*X216917Y211293D02*Y210507D01*
X213769Y211293D02*Y210507D01*
X216957Y222193D02*Y221407D01*
X213809Y222193D02*Y221407D01*
X216757Y196493D02*Y195707D01*
X213609Y196493D02*Y195707D01*
G54D221*X270857Y173593D02*Y172807D01*
X277943Y173593D02*Y172807D01*
G54D220*X260381Y171974D02*X261167D01*
X260381Y168826D02*X261167D01*
X231107Y172074D02*X231893D01*
X231107Y168926D02*X231893D01*
X251907Y172100D02*X252693D01*
X251907Y168952D02*X252693D01*
G54D221*X253607Y226583D02*X254393D01*
X253607Y233669D02*X254393D01*
G54D220*X215507Y233926D02*X216293D01*
X215507Y237074D02*X216293D01*
X276852Y196193D02*Y195407D01*
X280000Y196193D02*Y195407D01*
X233907Y233926D02*X234693D01*
X233907Y237074D02*X234693D01*
X224407Y233926D02*X225193D01*
X224407Y237074D02*X225193D01*
X241778Y177793D02*Y177007D01*
X244926Y177793D02*Y177007D01*
X269852Y200093D02*Y199307D01*
X273000Y200093D02*Y199307D01*
X223652Y190193D02*Y189407D01*
X226800Y190193D02*Y189407D01*
X223652Y202393D02*Y201607D01*
X226800Y202393D02*Y201607D01*
X279252Y223593D02*Y222807D01*
X282400Y223593D02*Y222807D01*
G54D221*X229260Y216193D02*Y215407D01*
X222174Y216193D02*Y215407D01*
X245183Y192793D02*Y192007D01*
X252269Y192793D02*Y192007D01*
G54D220*X285326Y121793D02*Y121007D01*
X288474Y121793D02*Y121007D01*
G54D221*X226657Y121893D02*Y121107D01*
X233743Y121893D02*Y121107D01*
G54D220*X217074Y228293D02*Y227507D01*
X213926Y228293D02*Y227507D01*
X238526Y228393D02*Y227607D01*
X241674Y228393D02*Y227607D01*
X294926Y87893D02*Y87107D01*
X298074Y87893D02*Y87107D01*
X296526Y107493D02*Y106707D01*
X299674Y107493D02*Y106707D01*
G54D221*X300757Y114793D02*Y114007D01*
X307843Y114793D02*Y114007D01*
G54D222*X292508Y115559D02*X293492D01*
X292508Y110441D02*X293492D01*
G54D220*X132533Y18648D02*X133319D01*
X132533Y15500D02*X133319D01*
X128081Y19000D02*X128867D01*
X128081Y15852D02*X128867D01*
G54D222*X116008Y192559D02*X116992D01*
X116008Y187441D02*X116992D01*
X116008Y257059D02*X116992D01*
X116008Y251941D02*X116992D01*
X116008Y320059D02*X116992D01*
X116008Y314941D02*X116992D01*
M02*
