G04 #@! TF.FileFunction,Other,Fab,Bot*
%FSLAX46Y46*%
G04 Gerber Fmt 4.6, Leading zero omitted, Abs format (unit mm)*
G04 Created by KiCad (PCBNEW 4.0.5) date Tue Apr  4 23:40:04 2017*
%MOMM*%
%LPD*%
G01*
G04 APERTURE LIST*
%ADD10C,0.100000*%
%ADD11C,0.150000*%
G04 APERTURE END LIST*
D10*
D11*
X44102590Y17032219D02*
X44197829Y17032219D01*
X44293067Y16984600D01*
X44340686Y16936981D01*
X44388305Y16841743D01*
X44435924Y16651267D01*
X44435924Y16413171D01*
X44388305Y16222695D01*
X44340686Y16127457D01*
X44293067Y16079838D01*
X44197829Y16032219D01*
X44102590Y16032219D01*
X44007352Y16079838D01*
X43959733Y16127457D01*
X43912114Y16222695D01*
X43864495Y16413171D01*
X43864495Y16651267D01*
X43912114Y16841743D01*
X43959733Y16936981D01*
X44007352Y16984600D01*
X44102590Y17032219D01*
X44864495Y16127457D02*
X44912114Y16079838D01*
X44864495Y16032219D01*
X44816876Y16079838D01*
X44864495Y16127457D01*
X44864495Y16032219D01*
X45864495Y16032219D02*
X45293066Y16032219D01*
X45578780Y16032219D02*
X45578780Y17032219D01*
X45483542Y16889362D01*
X45388304Y16794124D01*
X45293066Y16746505D01*
X47483543Y16698886D02*
X47483543Y16032219D01*
X47054971Y16698886D02*
X47054971Y16175076D01*
X47102590Y16079838D01*
X47197828Y16032219D01*
X47340686Y16032219D01*
X47435924Y16079838D01*
X47483543Y16127457D01*
X48293067Y16556029D02*
X47959733Y16556029D01*
X47959733Y16032219D02*
X47959733Y17032219D01*
X48435924Y17032219D01*
X44102590Y17946619D02*
X44197829Y17946619D01*
X44293067Y17899000D01*
X44340686Y17851381D01*
X44388305Y17756143D01*
X44435924Y17565667D01*
X44435924Y17327571D01*
X44388305Y17137095D01*
X44340686Y17041857D01*
X44293067Y16994238D01*
X44197829Y16946619D01*
X44102590Y16946619D01*
X44007352Y16994238D01*
X43959733Y17041857D01*
X43912114Y17137095D01*
X43864495Y17327571D01*
X43864495Y17565667D01*
X43912114Y17756143D01*
X43959733Y17851381D01*
X44007352Y17899000D01*
X44102590Y17946619D01*
X44864495Y17041857D02*
X44912114Y16994238D01*
X44864495Y16946619D01*
X44816876Y16994238D01*
X44864495Y17041857D01*
X44864495Y16946619D01*
X45864495Y16946619D02*
X45293066Y16946619D01*
X45578780Y16946619D02*
X45578780Y17946619D01*
X45483542Y17803762D01*
X45388304Y17708524D01*
X45293066Y17660905D01*
X47483543Y17613286D02*
X47483543Y16946619D01*
X47054971Y17613286D02*
X47054971Y17089476D01*
X47102590Y16994238D01*
X47197828Y16946619D01*
X47340686Y16946619D01*
X47435924Y16994238D01*
X47483543Y17041857D01*
X48293067Y17470429D02*
X47959733Y17470429D01*
X47959733Y16946619D02*
X47959733Y17946619D01*
X48435924Y17946619D01*
X43775381Y22214390D02*
X43775381Y22309629D01*
X43823000Y22404867D01*
X43870619Y22452486D01*
X43965857Y22500105D01*
X44156333Y22547724D01*
X44394429Y22547724D01*
X44584905Y22500105D01*
X44680143Y22452486D01*
X44727762Y22404867D01*
X44775381Y22309629D01*
X44775381Y22214390D01*
X44727762Y22119152D01*
X44680143Y22071533D01*
X44584905Y22023914D01*
X44394429Y21976295D01*
X44156333Y21976295D01*
X43965857Y22023914D01*
X43870619Y22071533D01*
X43823000Y22119152D01*
X43775381Y22214390D01*
X44680143Y22976295D02*
X44727762Y23023914D01*
X44775381Y22976295D01*
X44727762Y22928676D01*
X44680143Y22976295D01*
X44775381Y22976295D01*
X44775381Y23976295D02*
X44775381Y23404866D01*
X44775381Y23690580D02*
X43775381Y23690580D01*
X43918238Y23595342D01*
X44013476Y23500104D01*
X44061095Y23404866D01*
X44108714Y25595343D02*
X44775381Y25595343D01*
X44108714Y25166771D02*
X44632524Y25166771D01*
X44727762Y25214390D01*
X44775381Y25309628D01*
X44775381Y25452486D01*
X44727762Y25547724D01*
X44680143Y25595343D01*
X44251571Y26404867D02*
X44251571Y26071533D01*
X44775381Y26071533D02*
X43775381Y26071533D01*
X43775381Y26547724D01*
X69458390Y55716419D02*
X69553629Y55716419D01*
X69648867Y55668800D01*
X69696486Y55621181D01*
X69744105Y55525943D01*
X69791724Y55335467D01*
X69791724Y55097371D01*
X69744105Y54906895D01*
X69696486Y54811657D01*
X69648867Y54764038D01*
X69553629Y54716419D01*
X69458390Y54716419D01*
X69363152Y54764038D01*
X69315533Y54811657D01*
X69267914Y54906895D01*
X69220295Y55097371D01*
X69220295Y55335467D01*
X69267914Y55525943D01*
X69315533Y55621181D01*
X69363152Y55668800D01*
X69458390Y55716419D01*
X70220295Y54811657D02*
X70267914Y54764038D01*
X70220295Y54716419D01*
X70172676Y54764038D01*
X70220295Y54811657D01*
X70220295Y54716419D01*
X71220295Y54716419D02*
X70648866Y54716419D01*
X70934580Y54716419D02*
X70934580Y55716419D01*
X70839342Y55573562D01*
X70744104Y55478324D01*
X70648866Y55430705D01*
X72839343Y55383086D02*
X72839343Y54716419D01*
X72410771Y55383086D02*
X72410771Y54859276D01*
X72458390Y54764038D01*
X72553628Y54716419D01*
X72696486Y54716419D01*
X72791724Y54764038D01*
X72839343Y54811657D01*
X73648867Y55240229D02*
X73315533Y55240229D01*
X73315533Y54716419D02*
X73315533Y55716419D01*
X73791724Y55716419D01*
X63552819Y52582819D02*
X62981390Y52582819D01*
X63267104Y52582819D02*
X63267104Y53582819D01*
X63171866Y53439962D01*
X63076628Y53344724D01*
X62981390Y53297105D01*
X64171866Y53582819D02*
X64267105Y53582819D01*
X64362343Y53535200D01*
X64409962Y53487581D01*
X64457581Y53392343D01*
X64505200Y53201867D01*
X64505200Y52963771D01*
X64457581Y52773295D01*
X64409962Y52678057D01*
X64362343Y52630438D01*
X64267105Y52582819D01*
X64171866Y52582819D01*
X64076628Y52630438D01*
X64029009Y52678057D01*
X63981390Y52773295D01*
X63933771Y52963771D01*
X63933771Y53201867D01*
X63981390Y53392343D01*
X64029009Y53487581D01*
X64076628Y53535200D01*
X64171866Y53582819D01*
X66124248Y53249486D02*
X66124248Y52582819D01*
X65695676Y53249486D02*
X65695676Y52725676D01*
X65743295Y52630438D01*
X65838533Y52582819D01*
X65981391Y52582819D01*
X66076629Y52630438D01*
X66124248Y52678057D01*
X66933772Y53106629D02*
X66600438Y53106629D01*
X66600438Y52582819D02*
X66600438Y53582819D01*
X67076629Y53582819D01*
X61501590Y62904619D02*
X61596829Y62904619D01*
X61692067Y62857000D01*
X61739686Y62809381D01*
X61787305Y62714143D01*
X61834924Y62523667D01*
X61834924Y62285571D01*
X61787305Y62095095D01*
X61739686Y61999857D01*
X61692067Y61952238D01*
X61596829Y61904619D01*
X61501590Y61904619D01*
X61406352Y61952238D01*
X61358733Y61999857D01*
X61311114Y62095095D01*
X61263495Y62285571D01*
X61263495Y62523667D01*
X61311114Y62714143D01*
X61358733Y62809381D01*
X61406352Y62857000D01*
X61501590Y62904619D01*
X62263495Y61999857D02*
X62311114Y61952238D01*
X62263495Y61904619D01*
X62215876Y61952238D01*
X62263495Y61999857D01*
X62263495Y61904619D01*
X63263495Y61904619D02*
X62692066Y61904619D01*
X62977780Y61904619D02*
X62977780Y62904619D01*
X62882542Y62761762D01*
X62787304Y62666524D01*
X62692066Y62618905D01*
X64882543Y62571286D02*
X64882543Y61904619D01*
X64453971Y62571286D02*
X64453971Y62047476D01*
X64501590Y61952238D01*
X64596828Y61904619D01*
X64739686Y61904619D01*
X64834924Y61952238D01*
X64882543Y61999857D01*
X65692067Y62428429D02*
X65358733Y62428429D01*
X65358733Y61904619D02*
X65358733Y62904619D01*
X65834924Y62904619D01*
X62327600Y50052219D02*
X62422839Y50052219D01*
X62518077Y50004600D01*
X62565696Y49956981D01*
X62613315Y49861743D01*
X62660934Y49671267D01*
X62660934Y49433171D01*
X62613315Y49242695D01*
X62565696Y49147457D01*
X62518077Y49099838D01*
X62422839Y49052219D01*
X62327600Y49052219D01*
X62232362Y49099838D01*
X62184743Y49147457D01*
X62137124Y49242695D01*
X62089505Y49433171D01*
X62089505Y49671267D01*
X62137124Y49861743D01*
X62184743Y49956981D01*
X62232362Y50004600D01*
X62327600Y50052219D01*
X63089505Y49147457D02*
X63137124Y49099838D01*
X63089505Y49052219D01*
X63041886Y49099838D01*
X63089505Y49147457D01*
X63089505Y49052219D01*
X64089505Y49052219D02*
X63518076Y49052219D01*
X63803790Y49052219D02*
X63803790Y50052219D01*
X63708552Y49909362D01*
X63613314Y49814124D01*
X63518076Y49766505D01*
X65708553Y49718886D02*
X65708553Y49052219D01*
X65279981Y49718886D02*
X65279981Y49195076D01*
X65327600Y49099838D01*
X65422838Y49052219D01*
X65565696Y49052219D01*
X65660934Y49099838D01*
X65708553Y49147457D01*
X66518077Y49576029D02*
X66184743Y49576029D01*
X66184743Y49052219D02*
X66184743Y50052219D01*
X66660934Y50052219D01*
X57723590Y53201819D02*
X57818829Y53201819D01*
X57914067Y53154200D01*
X57961686Y53106581D01*
X58009305Y53011343D01*
X58056924Y52820867D01*
X58056924Y52582771D01*
X58009305Y52392295D01*
X57961686Y52297057D01*
X57914067Y52249438D01*
X57818829Y52201819D01*
X57723590Y52201819D01*
X57628352Y52249438D01*
X57580733Y52297057D01*
X57533114Y52392295D01*
X57485495Y52582771D01*
X57485495Y52820867D01*
X57533114Y53011343D01*
X57580733Y53106581D01*
X57628352Y53154200D01*
X57723590Y53201819D01*
X58485495Y52297057D02*
X58533114Y52249438D01*
X58485495Y52201819D01*
X58437876Y52249438D01*
X58485495Y52297057D01*
X58485495Y52201819D01*
X59485495Y52201819D02*
X58914066Y52201819D01*
X59199780Y52201819D02*
X59199780Y53201819D01*
X59104542Y53058962D01*
X59009304Y52963724D01*
X58914066Y52916105D01*
X61104543Y52868486D02*
X61104543Y52201819D01*
X60675971Y52868486D02*
X60675971Y52344676D01*
X60723590Y52249438D01*
X60818828Y52201819D01*
X60961686Y52201819D01*
X61056924Y52249438D01*
X61104543Y52297057D01*
X61914067Y52725629D02*
X61580733Y52725629D01*
X61580733Y52201819D02*
X61580733Y53201819D01*
X62056924Y53201819D01*
X57723590Y56300619D02*
X57818829Y56300619D01*
X57914067Y56253000D01*
X57961686Y56205381D01*
X58009305Y56110143D01*
X58056924Y55919667D01*
X58056924Y55681571D01*
X58009305Y55491095D01*
X57961686Y55395857D01*
X57914067Y55348238D01*
X57818829Y55300619D01*
X57723590Y55300619D01*
X57628352Y55348238D01*
X57580733Y55395857D01*
X57533114Y55491095D01*
X57485495Y55681571D01*
X57485495Y55919667D01*
X57533114Y56110143D01*
X57580733Y56205381D01*
X57628352Y56253000D01*
X57723590Y56300619D01*
X58485495Y55395857D02*
X58533114Y55348238D01*
X58485495Y55300619D01*
X58437876Y55348238D01*
X58485495Y55395857D01*
X58485495Y55300619D01*
X59485495Y55300619D02*
X58914066Y55300619D01*
X59199780Y55300619D02*
X59199780Y56300619D01*
X59104542Y56157762D01*
X59009304Y56062524D01*
X58914066Y56014905D01*
X61104543Y55967286D02*
X61104543Y55300619D01*
X60675971Y55967286D02*
X60675971Y55443476D01*
X60723590Y55348238D01*
X60818828Y55300619D01*
X60961686Y55300619D01*
X61056924Y55348238D01*
X61104543Y55395857D01*
X61914067Y55824429D02*
X61580733Y55824429D01*
X61580733Y55300619D02*
X61580733Y56300619D01*
X62056924Y56300619D01*
X55253190Y62879219D02*
X55348429Y62879219D01*
X55443667Y62831600D01*
X55491286Y62783981D01*
X55538905Y62688743D01*
X55586524Y62498267D01*
X55586524Y62260171D01*
X55538905Y62069695D01*
X55491286Y61974457D01*
X55443667Y61926838D01*
X55348429Y61879219D01*
X55253190Y61879219D01*
X55157952Y61926838D01*
X55110333Y61974457D01*
X55062714Y62069695D01*
X55015095Y62260171D01*
X55015095Y62498267D01*
X55062714Y62688743D01*
X55110333Y62783981D01*
X55157952Y62831600D01*
X55253190Y62879219D01*
X56015095Y61974457D02*
X56062714Y61926838D01*
X56015095Y61879219D01*
X55967476Y61926838D01*
X56015095Y61974457D01*
X56015095Y61879219D01*
X57015095Y61879219D02*
X56443666Y61879219D01*
X56729380Y61879219D02*
X56729380Y62879219D01*
X56634142Y62736362D01*
X56538904Y62641124D01*
X56443666Y62593505D01*
X58634143Y62545886D02*
X58634143Y61879219D01*
X58205571Y62545886D02*
X58205571Y62022076D01*
X58253190Y61926838D01*
X58348428Y61879219D01*
X58491286Y61879219D01*
X58586524Y61926838D01*
X58634143Y61974457D01*
X59443667Y62403029D02*
X59110333Y62403029D01*
X59110333Y61879219D02*
X59110333Y62879219D01*
X59586524Y62879219D01*
X62783981Y61520819D02*
X62783981Y60949390D01*
X62783981Y61235104D02*
X61783981Y61235104D01*
X61926838Y61139866D01*
X62022076Y61044628D01*
X62069695Y60949390D01*
X61783981Y62139866D02*
X61783981Y62235105D01*
X61831600Y62330343D01*
X61879219Y62377962D01*
X61974457Y62425581D01*
X62164933Y62473200D01*
X62403029Y62473200D01*
X62593505Y62425581D01*
X62688743Y62377962D01*
X62736362Y62330343D01*
X62783981Y62235105D01*
X62783981Y62139866D01*
X62736362Y62044628D01*
X62688743Y61997009D01*
X62593505Y61949390D01*
X62403029Y61901771D01*
X62164933Y61901771D01*
X61974457Y61949390D01*
X61879219Y61997009D01*
X61831600Y62044628D01*
X61783981Y62139866D01*
X62117314Y64092248D02*
X62783981Y64092248D01*
X62117314Y63663676D02*
X62641124Y63663676D01*
X62736362Y63711295D01*
X62783981Y63806533D01*
X62783981Y63949391D01*
X62736362Y64044629D01*
X62688743Y64092248D01*
X62260171Y64901772D02*
X62260171Y64568438D01*
X62783981Y64568438D02*
X61783981Y64568438D01*
X61783981Y65044629D01*
X66156390Y58535819D02*
X66251629Y58535819D01*
X66346867Y58488200D01*
X66394486Y58440581D01*
X66442105Y58345343D01*
X66489724Y58154867D01*
X66489724Y57916771D01*
X66442105Y57726295D01*
X66394486Y57631057D01*
X66346867Y57583438D01*
X66251629Y57535819D01*
X66156390Y57535819D01*
X66061152Y57583438D01*
X66013533Y57631057D01*
X65965914Y57726295D01*
X65918295Y57916771D01*
X65918295Y58154867D01*
X65965914Y58345343D01*
X66013533Y58440581D01*
X66061152Y58488200D01*
X66156390Y58535819D01*
X66918295Y57631057D02*
X66965914Y57583438D01*
X66918295Y57535819D01*
X66870676Y57583438D01*
X66918295Y57631057D01*
X66918295Y57535819D01*
X67918295Y57535819D02*
X67346866Y57535819D01*
X67632580Y57535819D02*
X67632580Y58535819D01*
X67537342Y58392962D01*
X67442104Y58297724D01*
X67346866Y58250105D01*
X69537343Y58202486D02*
X69537343Y57535819D01*
X69108771Y58202486D02*
X69108771Y57678676D01*
X69156390Y57583438D01*
X69251628Y57535819D01*
X69394486Y57535819D01*
X69489724Y57583438D01*
X69537343Y57631057D01*
X70346867Y58059629D02*
X70013533Y58059629D01*
X70013533Y57535819D02*
X70013533Y58535819D01*
X70489724Y58535819D01*
X52385981Y61603190D02*
X52385981Y61698429D01*
X52433600Y61793667D01*
X52481219Y61841286D01*
X52576457Y61888905D01*
X52766933Y61936524D01*
X53005029Y61936524D01*
X53195505Y61888905D01*
X53290743Y61841286D01*
X53338362Y61793667D01*
X53385981Y61698429D01*
X53385981Y61603190D01*
X53338362Y61507952D01*
X53290743Y61460333D01*
X53195505Y61412714D01*
X53005029Y61365095D01*
X52766933Y61365095D01*
X52576457Y61412714D01*
X52481219Y61460333D01*
X52433600Y61507952D01*
X52385981Y61603190D01*
X53290743Y62365095D02*
X53338362Y62412714D01*
X53385981Y62365095D01*
X53338362Y62317476D01*
X53290743Y62365095D01*
X53385981Y62365095D01*
X53385981Y63365095D02*
X53385981Y62793666D01*
X53385981Y63079380D02*
X52385981Y63079380D01*
X52528838Y62984142D01*
X52624076Y62888904D01*
X52671695Y62793666D01*
X52719314Y64984143D02*
X53385981Y64984143D01*
X52719314Y64555571D02*
X53243124Y64555571D01*
X53338362Y64603190D01*
X53385981Y64698428D01*
X53385981Y64841286D01*
X53338362Y64936524D01*
X53290743Y64984143D01*
X52862171Y65793667D02*
X52862171Y65460333D01*
X53385981Y65460333D02*
X52385981Y65460333D01*
X52385981Y65936524D01*
X57059581Y61603190D02*
X57059581Y61698429D01*
X57107200Y61793667D01*
X57154819Y61841286D01*
X57250057Y61888905D01*
X57440533Y61936524D01*
X57678629Y61936524D01*
X57869105Y61888905D01*
X57964343Y61841286D01*
X58011962Y61793667D01*
X58059581Y61698429D01*
X58059581Y61603190D01*
X58011962Y61507952D01*
X57964343Y61460333D01*
X57869105Y61412714D01*
X57678629Y61365095D01*
X57440533Y61365095D01*
X57250057Y61412714D01*
X57154819Y61460333D01*
X57107200Y61507952D01*
X57059581Y61603190D01*
X57964343Y62365095D02*
X58011962Y62412714D01*
X58059581Y62365095D01*
X58011962Y62317476D01*
X57964343Y62365095D01*
X58059581Y62365095D01*
X58059581Y63365095D02*
X58059581Y62793666D01*
X58059581Y63079380D02*
X57059581Y63079380D01*
X57202438Y62984142D01*
X57297676Y62888904D01*
X57345295Y62793666D01*
X57392914Y64984143D02*
X58059581Y64984143D01*
X57392914Y64555571D02*
X57916724Y64555571D01*
X58011962Y64603190D01*
X58059581Y64698428D01*
X58059581Y64841286D01*
X58011962Y64936524D01*
X57964343Y64984143D01*
X57535771Y65793667D02*
X57535771Y65460333D01*
X58059581Y65460333D02*
X57059581Y65460333D01*
X57059581Y65936524D01*
X54646581Y61603190D02*
X54646581Y61698429D01*
X54694200Y61793667D01*
X54741819Y61841286D01*
X54837057Y61888905D01*
X55027533Y61936524D01*
X55265629Y61936524D01*
X55456105Y61888905D01*
X55551343Y61841286D01*
X55598962Y61793667D01*
X55646581Y61698429D01*
X55646581Y61603190D01*
X55598962Y61507952D01*
X55551343Y61460333D01*
X55456105Y61412714D01*
X55265629Y61365095D01*
X55027533Y61365095D01*
X54837057Y61412714D01*
X54741819Y61460333D01*
X54694200Y61507952D01*
X54646581Y61603190D01*
X55551343Y62365095D02*
X55598962Y62412714D01*
X55646581Y62365095D01*
X55598962Y62317476D01*
X55551343Y62365095D01*
X55646581Y62365095D01*
X55646581Y63365095D02*
X55646581Y62793666D01*
X55646581Y63079380D02*
X54646581Y63079380D01*
X54789438Y62984142D01*
X54884676Y62888904D01*
X54932295Y62793666D01*
X54979914Y64984143D02*
X55646581Y64984143D01*
X54979914Y64555571D02*
X55503724Y64555571D01*
X55598962Y64603190D01*
X55646581Y64698428D01*
X55646581Y64841286D01*
X55598962Y64936524D01*
X55551343Y64984143D01*
X55122771Y65793667D02*
X55122771Y65460333D01*
X55646581Y65460333D02*
X54646581Y65460333D01*
X54646581Y65936524D01*
X67593981Y50147790D02*
X67593981Y50243029D01*
X67641600Y50338267D01*
X67689219Y50385886D01*
X67784457Y50433505D01*
X67974933Y50481124D01*
X68213029Y50481124D01*
X68403505Y50433505D01*
X68498743Y50385886D01*
X68546362Y50338267D01*
X68593981Y50243029D01*
X68593981Y50147790D01*
X68546362Y50052552D01*
X68498743Y50004933D01*
X68403505Y49957314D01*
X68213029Y49909695D01*
X67974933Y49909695D01*
X67784457Y49957314D01*
X67689219Y50004933D01*
X67641600Y50052552D01*
X67593981Y50147790D01*
X68498743Y50909695D02*
X68546362Y50957314D01*
X68593981Y50909695D01*
X68546362Y50862076D01*
X68498743Y50909695D01*
X68593981Y50909695D01*
X68593981Y51909695D02*
X68593981Y51338266D01*
X68593981Y51623980D02*
X67593981Y51623980D01*
X67736838Y51528742D01*
X67832076Y51433504D01*
X67879695Y51338266D01*
X67927314Y53528743D02*
X68593981Y53528743D01*
X67927314Y53100171D02*
X68451124Y53100171D01*
X68546362Y53147790D01*
X68593981Y53243028D01*
X68593981Y53385886D01*
X68546362Y53481124D01*
X68498743Y53528743D01*
X68070171Y54338267D02*
X68070171Y54004933D01*
X68593981Y54004933D02*
X67593981Y54004933D01*
X67593981Y54481124D01*
X70074019Y47706019D02*
X69502590Y47706019D01*
X69788304Y47706019D02*
X69788304Y48706019D01*
X69693066Y48563162D01*
X69597828Y48467924D01*
X69502590Y48420305D01*
X70693066Y48706019D02*
X70788305Y48706019D01*
X70883543Y48658400D01*
X70931162Y48610781D01*
X70978781Y48515543D01*
X71026400Y48325067D01*
X71026400Y48086971D01*
X70978781Y47896495D01*
X70931162Y47801257D01*
X70883543Y47753638D01*
X70788305Y47706019D01*
X70693066Y47706019D01*
X70597828Y47753638D01*
X70550209Y47801257D01*
X70502590Y47896495D01*
X70454971Y48086971D01*
X70454971Y48325067D01*
X70502590Y48515543D01*
X70550209Y48610781D01*
X70597828Y48658400D01*
X70693066Y48706019D01*
X72645448Y48372686D02*
X72645448Y47706019D01*
X72216876Y48372686D02*
X72216876Y47848876D01*
X72264495Y47753638D01*
X72359733Y47706019D01*
X72502591Y47706019D01*
X72597829Y47753638D01*
X72645448Y47801257D01*
X73454972Y48229829D02*
X73121638Y48229829D01*
X73121638Y47706019D02*
X73121638Y48706019D01*
X73597829Y48706019D01*
X60158381Y50173190D02*
X60158381Y50268429D01*
X60206000Y50363667D01*
X60253619Y50411286D01*
X60348857Y50458905D01*
X60539333Y50506524D01*
X60777429Y50506524D01*
X60967905Y50458905D01*
X61063143Y50411286D01*
X61110762Y50363667D01*
X61158381Y50268429D01*
X61158381Y50173190D01*
X61110762Y50077952D01*
X61063143Y50030333D01*
X60967905Y49982714D01*
X60777429Y49935095D01*
X60539333Y49935095D01*
X60348857Y49982714D01*
X60253619Y50030333D01*
X60206000Y50077952D01*
X60158381Y50173190D01*
X61063143Y50935095D02*
X61110762Y50982714D01*
X61158381Y50935095D01*
X61110762Y50887476D01*
X61063143Y50935095D01*
X61158381Y50935095D01*
X61158381Y51935095D02*
X61158381Y51363666D01*
X61158381Y51649380D02*
X60158381Y51649380D01*
X60301238Y51554142D01*
X60396476Y51458904D01*
X60444095Y51363666D01*
X60491714Y53554143D02*
X61158381Y53554143D01*
X60491714Y53125571D02*
X61015524Y53125571D01*
X61110762Y53173190D01*
X61158381Y53268428D01*
X61158381Y53411286D01*
X61110762Y53506524D01*
X61063143Y53554143D01*
X60634571Y54363667D02*
X60634571Y54030333D01*
X61158381Y54030333D02*
X60158381Y54030333D01*
X60158381Y54506524D01*
X65441581Y50179790D02*
X65441581Y50275029D01*
X65489200Y50370267D01*
X65536819Y50417886D01*
X65632057Y50465505D01*
X65822533Y50513124D01*
X66060629Y50513124D01*
X66251105Y50465505D01*
X66346343Y50417886D01*
X66393962Y50370267D01*
X66441581Y50275029D01*
X66441581Y50179790D01*
X66393962Y50084552D01*
X66346343Y50036933D01*
X66251105Y49989314D01*
X66060629Y49941695D01*
X65822533Y49941695D01*
X65632057Y49989314D01*
X65536819Y50036933D01*
X65489200Y50084552D01*
X65441581Y50179790D01*
X66346343Y50941695D02*
X66393962Y50989314D01*
X66441581Y50941695D01*
X66393962Y50894076D01*
X66346343Y50941695D01*
X66441581Y50941695D01*
X66441581Y51941695D02*
X66441581Y51370266D01*
X66441581Y51655980D02*
X65441581Y51655980D01*
X65584438Y51560742D01*
X65679676Y51465504D01*
X65727295Y51370266D01*
X65774914Y53560743D02*
X66441581Y53560743D01*
X65774914Y53132171D02*
X66298724Y53132171D01*
X66393962Y53179790D01*
X66441581Y53275028D01*
X66441581Y53417886D01*
X66393962Y53513124D01*
X66346343Y53560743D01*
X65917771Y54370267D02*
X65917771Y54036933D01*
X66441581Y54036933D02*
X65441581Y54036933D01*
X65441581Y54513124D01*
X55213310Y58561219D02*
X55308549Y58561219D01*
X55403787Y58513600D01*
X55451406Y58465981D01*
X55499025Y58370743D01*
X55546644Y58180267D01*
X55546644Y57942171D01*
X55499025Y57751695D01*
X55451406Y57656457D01*
X55403787Y57608838D01*
X55308549Y57561219D01*
X55213310Y57561219D01*
X55118072Y57608838D01*
X55070453Y57656457D01*
X55022834Y57751695D01*
X54975215Y57942171D01*
X54975215Y58180267D01*
X55022834Y58370743D01*
X55070453Y58465981D01*
X55118072Y58513600D01*
X55213310Y58561219D01*
X55975215Y57656457D02*
X56022834Y57608838D01*
X55975215Y57561219D01*
X55927596Y57608838D01*
X55975215Y57656457D01*
X55975215Y57561219D01*
X56975215Y57561219D02*
X56403786Y57561219D01*
X56689500Y57561219D02*
X56689500Y58561219D01*
X56594262Y58418362D01*
X56499024Y58323124D01*
X56403786Y58275505D01*
X58594263Y58227886D02*
X58594263Y57561219D01*
X58165691Y58227886D02*
X58165691Y57704076D01*
X58213310Y57608838D01*
X58308548Y57561219D01*
X58451406Y57561219D01*
X58546644Y57608838D01*
X58594263Y57656457D01*
X59403787Y58085029D02*
X59070453Y58085029D01*
X59070453Y57561219D02*
X59070453Y58561219D01*
X59546644Y58561219D01*
X56184539Y47858419D02*
X55613110Y47858419D01*
X55898824Y47858419D02*
X55898824Y48858419D01*
X55803586Y48715562D01*
X55708348Y48620324D01*
X55613110Y48572705D01*
X56803586Y48858419D02*
X56898825Y48858419D01*
X56994063Y48810800D01*
X57041682Y48763181D01*
X57089301Y48667943D01*
X57136920Y48477467D01*
X57136920Y48239371D01*
X57089301Y48048895D01*
X57041682Y47953657D01*
X56994063Y47906038D01*
X56898825Y47858419D01*
X56803586Y47858419D01*
X56708348Y47906038D01*
X56660729Y47953657D01*
X56613110Y48048895D01*
X56565491Y48239371D01*
X56565491Y48477467D01*
X56613110Y48667943D01*
X56660729Y48763181D01*
X56708348Y48810800D01*
X56803586Y48858419D01*
X58755968Y48525086D02*
X58755968Y47858419D01*
X58327396Y48525086D02*
X58327396Y48001276D01*
X58375015Y47906038D01*
X58470253Y47858419D01*
X58613111Y47858419D01*
X58708349Y47906038D01*
X58755968Y47953657D01*
X59565492Y48382229D02*
X59232158Y48382229D01*
X59232158Y47858419D02*
X59232158Y48858419D01*
X59708349Y48858419D01*
X55223470Y61329819D02*
X55318709Y61329819D01*
X55413947Y61282200D01*
X55461566Y61234581D01*
X55509185Y61139343D01*
X55556804Y60948867D01*
X55556804Y60710771D01*
X55509185Y60520295D01*
X55461566Y60425057D01*
X55413947Y60377438D01*
X55318709Y60329819D01*
X55223470Y60329819D01*
X55128232Y60377438D01*
X55080613Y60425057D01*
X55032994Y60520295D01*
X54985375Y60710771D01*
X54985375Y60948867D01*
X55032994Y61139343D01*
X55080613Y61234581D01*
X55128232Y61282200D01*
X55223470Y61329819D01*
X55985375Y60425057D02*
X56032994Y60377438D01*
X55985375Y60329819D01*
X55937756Y60377438D01*
X55985375Y60425057D01*
X55985375Y60329819D01*
X56985375Y60329819D02*
X56413946Y60329819D01*
X56699660Y60329819D02*
X56699660Y61329819D01*
X56604422Y61186962D01*
X56509184Y61091724D01*
X56413946Y61044105D01*
X58604423Y60996486D02*
X58604423Y60329819D01*
X58175851Y60996486D02*
X58175851Y60472676D01*
X58223470Y60377438D01*
X58318708Y60329819D01*
X58461566Y60329819D01*
X58556804Y60377438D01*
X58604423Y60425057D01*
X59413947Y60853629D02*
X59080613Y60853629D01*
X59080613Y60329819D02*
X59080613Y61329819D01*
X59556804Y61329819D01*
X55172670Y54802019D02*
X55267909Y54802019D01*
X55363147Y54754400D01*
X55410766Y54706781D01*
X55458385Y54611543D01*
X55506004Y54421067D01*
X55506004Y54182971D01*
X55458385Y53992495D01*
X55410766Y53897257D01*
X55363147Y53849638D01*
X55267909Y53802019D01*
X55172670Y53802019D01*
X55077432Y53849638D01*
X55029813Y53897257D01*
X54982194Y53992495D01*
X54934575Y54182971D01*
X54934575Y54421067D01*
X54982194Y54611543D01*
X55029813Y54706781D01*
X55077432Y54754400D01*
X55172670Y54802019D01*
X55934575Y53897257D02*
X55982194Y53849638D01*
X55934575Y53802019D01*
X55886956Y53849638D01*
X55934575Y53897257D01*
X55934575Y53802019D01*
X56934575Y53802019D02*
X56363146Y53802019D01*
X56648860Y53802019D02*
X56648860Y54802019D01*
X56553622Y54659162D01*
X56458384Y54563924D01*
X56363146Y54516305D01*
X58553623Y54468686D02*
X58553623Y53802019D01*
X58125051Y54468686D02*
X58125051Y53944876D01*
X58172670Y53849638D01*
X58267908Y53802019D01*
X58410766Y53802019D01*
X58506004Y53849638D01*
X58553623Y53897257D01*
X59363147Y54325829D02*
X59029813Y54325829D01*
X59029813Y53802019D02*
X59029813Y54802019D01*
X59506004Y54802019D01*
X63765181Y61603190D02*
X63765181Y61698429D01*
X63812800Y61793667D01*
X63860419Y61841286D01*
X63955657Y61888905D01*
X64146133Y61936524D01*
X64384229Y61936524D01*
X64574705Y61888905D01*
X64669943Y61841286D01*
X64717562Y61793667D01*
X64765181Y61698429D01*
X64765181Y61603190D01*
X64717562Y61507952D01*
X64669943Y61460333D01*
X64574705Y61412714D01*
X64384229Y61365095D01*
X64146133Y61365095D01*
X63955657Y61412714D01*
X63860419Y61460333D01*
X63812800Y61507952D01*
X63765181Y61603190D01*
X64669943Y62365095D02*
X64717562Y62412714D01*
X64765181Y62365095D01*
X64717562Y62317476D01*
X64669943Y62365095D01*
X64765181Y62365095D01*
X64765181Y63365095D02*
X64765181Y62793666D01*
X64765181Y63079380D02*
X63765181Y63079380D01*
X63908038Y62984142D01*
X64003276Y62888904D01*
X64050895Y62793666D01*
X64098514Y64984143D02*
X64765181Y64984143D01*
X64098514Y64555571D02*
X64622324Y64555571D01*
X64717562Y64603190D01*
X64765181Y64698428D01*
X64765181Y64841286D01*
X64717562Y64936524D01*
X64669943Y64984143D01*
X64241371Y65793667D02*
X64241371Y65460333D01*
X64765181Y65460333D02*
X63765181Y65460333D01*
X63765181Y65936524D01*
X57708539Y58526419D02*
X57137110Y58526419D01*
X57422824Y58526419D02*
X57422824Y59526419D01*
X57327586Y59383562D01*
X57232348Y59288324D01*
X57137110Y59240705D01*
X58327586Y59526419D02*
X58422825Y59526419D01*
X58518063Y59478800D01*
X58565682Y59431181D01*
X58613301Y59335943D01*
X58660920Y59145467D01*
X58660920Y58907371D01*
X58613301Y58716895D01*
X58565682Y58621657D01*
X58518063Y58574038D01*
X58422825Y58526419D01*
X58327586Y58526419D01*
X58232348Y58574038D01*
X58184729Y58621657D01*
X58137110Y58716895D01*
X58089491Y58907371D01*
X58089491Y59145467D01*
X58137110Y59335943D01*
X58184729Y59431181D01*
X58232348Y59478800D01*
X58327586Y59526419D01*
X60279968Y59193086D02*
X60279968Y58526419D01*
X59851396Y59193086D02*
X59851396Y58669276D01*
X59899015Y58574038D01*
X59994253Y58526419D01*
X60137111Y58526419D01*
X60232349Y58574038D01*
X60279968Y58621657D01*
X61089492Y59050229D02*
X60756158Y59050229D01*
X60756158Y58526419D02*
X60756158Y59526419D01*
X61232349Y59526419D01*
X66076581Y61603190D02*
X66076581Y61698429D01*
X66124200Y61793667D01*
X66171819Y61841286D01*
X66267057Y61888905D01*
X66457533Y61936524D01*
X66695629Y61936524D01*
X66886105Y61888905D01*
X66981343Y61841286D01*
X67028962Y61793667D01*
X67076581Y61698429D01*
X67076581Y61603190D01*
X67028962Y61507952D01*
X66981343Y61460333D01*
X66886105Y61412714D01*
X66695629Y61365095D01*
X66457533Y61365095D01*
X66267057Y61412714D01*
X66171819Y61460333D01*
X66124200Y61507952D01*
X66076581Y61603190D01*
X66981343Y62365095D02*
X67028962Y62412714D01*
X67076581Y62365095D01*
X67028962Y62317476D01*
X66981343Y62365095D01*
X67076581Y62365095D01*
X67076581Y63365095D02*
X67076581Y62793666D01*
X67076581Y63079380D02*
X66076581Y63079380D01*
X66219438Y62984142D01*
X66314676Y62888904D01*
X66362295Y62793666D01*
X66409914Y64984143D02*
X67076581Y64984143D01*
X66409914Y64555571D02*
X66933724Y64555571D01*
X67028962Y64603190D01*
X67076581Y64698428D01*
X67076581Y64841286D01*
X67028962Y64936524D01*
X66981343Y64984143D01*
X66552771Y65793667D02*
X66552771Y65460333D01*
X67076581Y65460333D02*
X66076581Y65460333D01*
X66076581Y65936524D01*
X66810190Y68213219D02*
X66905429Y68213219D01*
X67000667Y68165600D01*
X67048286Y68117981D01*
X67095905Y68022743D01*
X67143524Y67832267D01*
X67143524Y67594171D01*
X67095905Y67403695D01*
X67048286Y67308457D01*
X67000667Y67260838D01*
X66905429Y67213219D01*
X66810190Y67213219D01*
X66714952Y67260838D01*
X66667333Y67308457D01*
X66619714Y67403695D01*
X66572095Y67594171D01*
X66572095Y67832267D01*
X66619714Y68022743D01*
X66667333Y68117981D01*
X66714952Y68165600D01*
X66810190Y68213219D01*
X67572095Y67308457D02*
X67619714Y67260838D01*
X67572095Y67213219D01*
X67524476Y67260838D01*
X67572095Y67308457D01*
X67572095Y67213219D01*
X68572095Y67213219D02*
X68000666Y67213219D01*
X68286380Y67213219D02*
X68286380Y68213219D01*
X68191142Y68070362D01*
X68095904Y67975124D01*
X68000666Y67927505D01*
X70191143Y67879886D02*
X70191143Y67213219D01*
X69762571Y67879886D02*
X69762571Y67356076D01*
X69810190Y67260838D01*
X69905428Y67213219D01*
X70048286Y67213219D01*
X70143524Y67260838D01*
X70191143Y67308457D01*
X71000667Y67737029D02*
X70667333Y67737029D01*
X70667333Y67213219D02*
X70667333Y68213219D01*
X71143524Y68213219D01*
X66765990Y65495419D02*
X66861229Y65495419D01*
X66956467Y65447800D01*
X67004086Y65400181D01*
X67051705Y65304943D01*
X67099324Y65114467D01*
X67099324Y64876371D01*
X67051705Y64685895D01*
X67004086Y64590657D01*
X66956467Y64543038D01*
X66861229Y64495419D01*
X66765990Y64495419D01*
X66670752Y64543038D01*
X66623133Y64590657D01*
X66575514Y64685895D01*
X66527895Y64876371D01*
X66527895Y65114467D01*
X66575514Y65304943D01*
X66623133Y65400181D01*
X66670752Y65447800D01*
X66765990Y65495419D01*
X67527895Y64590657D02*
X67575514Y64543038D01*
X67527895Y64495419D01*
X67480276Y64543038D01*
X67527895Y64590657D01*
X67527895Y64495419D01*
X68527895Y64495419D02*
X67956466Y64495419D01*
X68242180Y64495419D02*
X68242180Y65495419D01*
X68146942Y65352562D01*
X68051704Y65257324D01*
X67956466Y65209705D01*
X70146943Y65162086D02*
X70146943Y64495419D01*
X69718371Y65162086D02*
X69718371Y64638276D01*
X69765990Y64543038D01*
X69861228Y64495419D01*
X70004086Y64495419D01*
X70099324Y64543038D01*
X70146943Y64590657D01*
X70956467Y65019229D02*
X70623133Y65019229D01*
X70623133Y64495419D02*
X70623133Y65495419D01*
X71099324Y65495419D01*
X66575419Y56392819D02*
X66003990Y56392819D01*
X66289704Y56392819D02*
X66289704Y57392819D01*
X66194466Y57249962D01*
X66099228Y57154724D01*
X66003990Y57107105D01*
X67194466Y57392819D02*
X67289705Y57392819D01*
X67384943Y57345200D01*
X67432562Y57297581D01*
X67480181Y57202343D01*
X67527800Y57011867D01*
X67527800Y56773771D01*
X67480181Y56583295D01*
X67432562Y56488057D01*
X67384943Y56440438D01*
X67289705Y56392819D01*
X67194466Y56392819D01*
X67099228Y56440438D01*
X67051609Y56488057D01*
X67003990Y56583295D01*
X66956371Y56773771D01*
X66956371Y57011867D01*
X67003990Y57202343D01*
X67051609Y57297581D01*
X67099228Y57345200D01*
X67194466Y57392819D01*
X69146848Y57059486D02*
X69146848Y56392819D01*
X68718276Y57059486D02*
X68718276Y56535676D01*
X68765895Y56440438D01*
X68861133Y56392819D01*
X69003991Y56392819D01*
X69099229Y56440438D01*
X69146848Y56488057D01*
X69956372Y56916629D02*
X69623038Y56916629D01*
X69623038Y56392819D02*
X69623038Y57392819D01*
X70099229Y57392819D01*
X66537390Y62015619D02*
X66632629Y62015619D01*
X66727867Y61968000D01*
X66775486Y61920381D01*
X66823105Y61825143D01*
X66870724Y61634667D01*
X66870724Y61396571D01*
X66823105Y61206095D01*
X66775486Y61110857D01*
X66727867Y61063238D01*
X66632629Y61015619D01*
X66537390Y61015619D01*
X66442152Y61063238D01*
X66394533Y61110857D01*
X66346914Y61206095D01*
X66299295Y61396571D01*
X66299295Y61634667D01*
X66346914Y61825143D01*
X66394533Y61920381D01*
X66442152Y61968000D01*
X66537390Y62015619D01*
X67299295Y61110857D02*
X67346914Y61063238D01*
X67299295Y61015619D01*
X67251676Y61063238D01*
X67299295Y61110857D01*
X67299295Y61015619D01*
X68299295Y61015619D02*
X67727866Y61015619D01*
X68013580Y61015619D02*
X68013580Y62015619D01*
X67918342Y61872762D01*
X67823104Y61777524D01*
X67727866Y61729905D01*
X69918343Y61682286D02*
X69918343Y61015619D01*
X69489771Y61682286D02*
X69489771Y61158476D01*
X69537390Y61063238D01*
X69632628Y61015619D01*
X69775486Y61015619D01*
X69870724Y61063238D01*
X69918343Y61110857D01*
X70727867Y61539429D02*
X70394533Y61539429D01*
X70394533Y61015619D02*
X70394533Y62015619D01*
X70870724Y62015619D01*
X66715190Y55132219D02*
X66810429Y55132219D01*
X66905667Y55084600D01*
X66953286Y55036981D01*
X67000905Y54941743D01*
X67048524Y54751267D01*
X67048524Y54513171D01*
X67000905Y54322695D01*
X66953286Y54227457D01*
X66905667Y54179838D01*
X66810429Y54132219D01*
X66715190Y54132219D01*
X66619952Y54179838D01*
X66572333Y54227457D01*
X66524714Y54322695D01*
X66477095Y54513171D01*
X66477095Y54751267D01*
X66524714Y54941743D01*
X66572333Y55036981D01*
X66619952Y55084600D01*
X66715190Y55132219D01*
X67477095Y54227457D02*
X67524714Y54179838D01*
X67477095Y54132219D01*
X67429476Y54179838D01*
X67477095Y54227457D01*
X67477095Y54132219D01*
X68477095Y54132219D02*
X67905666Y54132219D01*
X68191380Y54132219D02*
X68191380Y55132219D01*
X68096142Y54989362D01*
X68000904Y54894124D01*
X67905666Y54846505D01*
X70096143Y54798886D02*
X70096143Y54132219D01*
X69667571Y54798886D02*
X69667571Y54275076D01*
X69715190Y54179838D01*
X69810428Y54132219D01*
X69953286Y54132219D01*
X70048524Y54179838D01*
X70096143Y54227457D01*
X70905667Y54656029D02*
X70572333Y54656029D01*
X70572333Y54132219D02*
X70572333Y55132219D01*
X71048524Y55132219D01*
X62612590Y27014419D02*
X62707829Y27014419D01*
X62803067Y26966800D01*
X62850686Y26919181D01*
X62898305Y26823943D01*
X62945924Y26633467D01*
X62945924Y26395371D01*
X62898305Y26204895D01*
X62850686Y26109657D01*
X62803067Y26062038D01*
X62707829Y26014419D01*
X62612590Y26014419D01*
X62517352Y26062038D01*
X62469733Y26109657D01*
X62422114Y26204895D01*
X62374495Y26395371D01*
X62374495Y26633467D01*
X62422114Y26823943D01*
X62469733Y26919181D01*
X62517352Y26966800D01*
X62612590Y27014419D01*
X63374495Y26109657D02*
X63422114Y26062038D01*
X63374495Y26014419D01*
X63326876Y26062038D01*
X63374495Y26109657D01*
X63374495Y26014419D01*
X64374495Y26014419D02*
X63803066Y26014419D01*
X64088780Y26014419D02*
X64088780Y27014419D01*
X63993542Y26871562D01*
X63898304Y26776324D01*
X63803066Y26728705D01*
X65993543Y26681086D02*
X65993543Y26014419D01*
X65564971Y26681086D02*
X65564971Y26157276D01*
X65612590Y26062038D01*
X65707828Y26014419D01*
X65850686Y26014419D01*
X65945924Y26062038D01*
X65993543Y26109657D01*
X66803067Y26538229D02*
X66469733Y26538229D01*
X66469733Y26014419D02*
X66469733Y27014419D01*
X66945924Y27014419D01*
X59520390Y34507419D02*
X59615629Y34507419D01*
X59710867Y34459800D01*
X59758486Y34412181D01*
X59806105Y34316943D01*
X59853724Y34126467D01*
X59853724Y33888371D01*
X59806105Y33697895D01*
X59758486Y33602657D01*
X59710867Y33555038D01*
X59615629Y33507419D01*
X59520390Y33507419D01*
X59425152Y33555038D01*
X59377533Y33602657D01*
X59329914Y33697895D01*
X59282295Y33888371D01*
X59282295Y34126467D01*
X59329914Y34316943D01*
X59377533Y34412181D01*
X59425152Y34459800D01*
X59520390Y34507419D01*
X60282295Y33602657D02*
X60329914Y33555038D01*
X60282295Y33507419D01*
X60234676Y33555038D01*
X60282295Y33602657D01*
X60282295Y33507419D01*
X61282295Y33507419D02*
X60710866Y33507419D01*
X60996580Y33507419D02*
X60996580Y34507419D01*
X60901342Y34364562D01*
X60806104Y34269324D01*
X60710866Y34221705D01*
X62901343Y34174086D02*
X62901343Y33507419D01*
X62472771Y34174086D02*
X62472771Y33650276D01*
X62520390Y33555038D01*
X62615628Y33507419D01*
X62758486Y33507419D01*
X62853724Y33555038D01*
X62901343Y33602657D01*
X63710867Y34031229D02*
X63377533Y34031229D01*
X63377533Y33507419D02*
X63377533Y34507419D01*
X63853724Y34507419D01*
X61933390Y38114219D02*
X62028629Y38114219D01*
X62123867Y38066600D01*
X62171486Y38018981D01*
X62219105Y37923743D01*
X62266724Y37733267D01*
X62266724Y37495171D01*
X62219105Y37304695D01*
X62171486Y37209457D01*
X62123867Y37161838D01*
X62028629Y37114219D01*
X61933390Y37114219D01*
X61838152Y37161838D01*
X61790533Y37209457D01*
X61742914Y37304695D01*
X61695295Y37495171D01*
X61695295Y37733267D01*
X61742914Y37923743D01*
X61790533Y38018981D01*
X61838152Y38066600D01*
X61933390Y38114219D01*
X62695295Y37209457D02*
X62742914Y37161838D01*
X62695295Y37114219D01*
X62647676Y37161838D01*
X62695295Y37209457D01*
X62695295Y37114219D01*
X63695295Y37114219D02*
X63123866Y37114219D01*
X63409580Y37114219D02*
X63409580Y38114219D01*
X63314342Y37971362D01*
X63219104Y37876124D01*
X63123866Y37828505D01*
X65314343Y37780886D02*
X65314343Y37114219D01*
X64885771Y37780886D02*
X64885771Y37257076D01*
X64933390Y37161838D01*
X65028628Y37114219D01*
X65171486Y37114219D01*
X65266724Y37161838D01*
X65314343Y37209457D01*
X66123867Y37638029D02*
X65790533Y37638029D01*
X65790533Y37114219D02*
X65790533Y38114219D01*
X66266724Y38114219D01*
X65177990Y40933619D02*
X65273229Y40933619D01*
X65368467Y40886000D01*
X65416086Y40838381D01*
X65463705Y40743143D01*
X65511324Y40552667D01*
X65511324Y40314571D01*
X65463705Y40124095D01*
X65416086Y40028857D01*
X65368467Y39981238D01*
X65273229Y39933619D01*
X65177990Y39933619D01*
X65082752Y39981238D01*
X65035133Y40028857D01*
X64987514Y40124095D01*
X64939895Y40314571D01*
X64939895Y40552667D01*
X64987514Y40743143D01*
X65035133Y40838381D01*
X65082752Y40886000D01*
X65177990Y40933619D01*
X65939895Y40028857D02*
X65987514Y39981238D01*
X65939895Y39933619D01*
X65892276Y39981238D01*
X65939895Y40028857D01*
X65939895Y39933619D01*
X66939895Y39933619D02*
X66368466Y39933619D01*
X66654180Y39933619D02*
X66654180Y40933619D01*
X66558942Y40790762D01*
X66463704Y40695524D01*
X66368466Y40647905D01*
X68558943Y40600286D02*
X68558943Y39933619D01*
X68130371Y40600286D02*
X68130371Y40076476D01*
X68177990Y39981238D01*
X68273228Y39933619D01*
X68416086Y39933619D01*
X68511324Y39981238D01*
X68558943Y40028857D01*
X69368467Y40457429D02*
X69035133Y40457429D01*
X69035133Y39933619D02*
X69035133Y40933619D01*
X69511324Y40933619D01*
X68613590Y35955219D02*
X68708829Y35955219D01*
X68804067Y35907600D01*
X68851686Y35859981D01*
X68899305Y35764743D01*
X68946924Y35574267D01*
X68946924Y35336171D01*
X68899305Y35145695D01*
X68851686Y35050457D01*
X68804067Y35002838D01*
X68708829Y34955219D01*
X68613590Y34955219D01*
X68518352Y35002838D01*
X68470733Y35050457D01*
X68423114Y35145695D01*
X68375495Y35336171D01*
X68375495Y35574267D01*
X68423114Y35764743D01*
X68470733Y35859981D01*
X68518352Y35907600D01*
X68613590Y35955219D01*
X69375495Y35050457D02*
X69423114Y35002838D01*
X69375495Y34955219D01*
X69327876Y35002838D01*
X69375495Y35050457D01*
X69375495Y34955219D01*
X70375495Y34955219D02*
X69804066Y34955219D01*
X70089780Y34955219D02*
X70089780Y35955219D01*
X69994542Y35812362D01*
X69899304Y35717124D01*
X69804066Y35669505D01*
X71994543Y35621886D02*
X71994543Y34955219D01*
X71565971Y35621886D02*
X71565971Y35098076D01*
X71613590Y35002838D01*
X71708828Y34955219D01*
X71851686Y34955219D01*
X71946924Y35002838D01*
X71994543Y35050457D01*
X72804067Y35479029D02*
X72470733Y35479029D01*
X72470733Y34955219D02*
X72470733Y35955219D01*
X72946924Y35955219D01*
X58885390Y27700219D02*
X58980629Y27700219D01*
X59075867Y27652600D01*
X59123486Y27604981D01*
X59171105Y27509743D01*
X59218724Y27319267D01*
X59218724Y27081171D01*
X59171105Y26890695D01*
X59123486Y26795457D01*
X59075867Y26747838D01*
X58980629Y26700219D01*
X58885390Y26700219D01*
X58790152Y26747838D01*
X58742533Y26795457D01*
X58694914Y26890695D01*
X58647295Y27081171D01*
X58647295Y27319267D01*
X58694914Y27509743D01*
X58742533Y27604981D01*
X58790152Y27652600D01*
X58885390Y27700219D01*
X59647295Y26795457D02*
X59694914Y26747838D01*
X59647295Y26700219D01*
X59599676Y26747838D01*
X59647295Y26795457D01*
X59647295Y26700219D01*
X60647295Y26700219D02*
X60075866Y26700219D01*
X60361580Y26700219D02*
X60361580Y27700219D01*
X60266342Y27557362D01*
X60171104Y27462124D01*
X60075866Y27414505D01*
X62266343Y27366886D02*
X62266343Y26700219D01*
X61837771Y27366886D02*
X61837771Y26843076D01*
X61885390Y26747838D01*
X61980628Y26700219D01*
X62123486Y26700219D01*
X62218724Y26747838D01*
X62266343Y26795457D01*
X63075867Y27224029D02*
X62742533Y27224029D01*
X62742533Y26700219D02*
X62742533Y27700219D01*
X63218724Y27700219D01*
X58745619Y36911019D02*
X58174190Y36911019D01*
X58459904Y36911019D02*
X58459904Y37911019D01*
X58364666Y37768162D01*
X58269428Y37672924D01*
X58174190Y37625305D01*
X59364666Y37911019D02*
X59459905Y37911019D01*
X59555143Y37863400D01*
X59602762Y37815781D01*
X59650381Y37720543D01*
X59698000Y37530067D01*
X59698000Y37291971D01*
X59650381Y37101495D01*
X59602762Y37006257D01*
X59555143Y36958638D01*
X59459905Y36911019D01*
X59364666Y36911019D01*
X59269428Y36958638D01*
X59221809Y37006257D01*
X59174190Y37101495D01*
X59126571Y37291971D01*
X59126571Y37530067D01*
X59174190Y37720543D01*
X59221809Y37815781D01*
X59269428Y37863400D01*
X59364666Y37911019D01*
X61317048Y37577686D02*
X61317048Y36911019D01*
X60888476Y37577686D02*
X60888476Y37053876D01*
X60936095Y36958638D01*
X61031333Y36911019D01*
X61174191Y36911019D01*
X61269429Y36958638D01*
X61317048Y37006257D01*
X62126572Y37434829D02*
X61793238Y37434829D01*
X61793238Y36911019D02*
X61793238Y37911019D01*
X62269429Y37911019D01*
X67422781Y77951485D02*
X67422781Y78046724D01*
X67470400Y78141962D01*
X67518019Y78189581D01*
X67613257Y78237200D01*
X67803733Y78284819D01*
X68041829Y78284819D01*
X68232305Y78237200D01*
X68327543Y78189581D01*
X68375162Y78141962D01*
X68422781Y78046724D01*
X68422781Y77951485D01*
X68375162Y77856247D01*
X68327543Y77808628D01*
X68232305Y77761009D01*
X68041829Y77713390D01*
X67803733Y77713390D01*
X67613257Y77761009D01*
X67518019Y77808628D01*
X67470400Y77856247D01*
X67422781Y77951485D01*
X68327543Y78713390D02*
X68375162Y78761009D01*
X68422781Y78713390D01*
X68375162Y78665771D01*
X68327543Y78713390D01*
X68422781Y78713390D01*
X68422781Y79713390D02*
X68422781Y79141961D01*
X68422781Y79427675D02*
X67422781Y79427675D01*
X67565638Y79332437D01*
X67660876Y79237199D01*
X67708495Y79141961D01*
X67756114Y81332438D02*
X68422781Y81332438D01*
X67756114Y80903866D02*
X68279924Y80903866D01*
X68375162Y80951485D01*
X68422781Y81046723D01*
X68422781Y81189581D01*
X68375162Y81284819D01*
X68327543Y81332438D01*
X67898971Y82141962D02*
X67898971Y81808628D01*
X68422781Y81808628D02*
X67422781Y81808628D01*
X67422781Y82284819D01*
X67518019Y83380057D02*
X67470400Y83427676D01*
X67422781Y83522914D01*
X67422781Y83761010D01*
X67470400Y83856248D01*
X67518019Y83903867D01*
X67613257Y83951486D01*
X67708495Y83951486D01*
X67851352Y83903867D01*
X68422781Y83332438D01*
X68422781Y83951486D01*
X67422781Y84856248D02*
X67422781Y84380057D01*
X67898971Y84332438D01*
X67851352Y84380057D01*
X67803733Y84475295D01*
X67803733Y84713391D01*
X67851352Y84808629D01*
X67898971Y84856248D01*
X67994210Y84903867D01*
X68232305Y84903867D01*
X68327543Y84856248D01*
X68375162Y84808629D01*
X68422781Y84713391D01*
X68422781Y84475295D01*
X68375162Y84380057D01*
X68327543Y84332438D01*
X67422781Y85189581D02*
X68422781Y85522914D01*
X67422781Y85856248D01*
X76846181Y83038085D02*
X76846181Y83133324D01*
X76893800Y83228562D01*
X76941419Y83276181D01*
X77036657Y83323800D01*
X77227133Y83371419D01*
X77465229Y83371419D01*
X77655705Y83323800D01*
X77750943Y83276181D01*
X77798562Y83228562D01*
X77846181Y83133324D01*
X77846181Y83038085D01*
X77798562Y82942847D01*
X77750943Y82895228D01*
X77655705Y82847609D01*
X77465229Y82799990D01*
X77227133Y82799990D01*
X77036657Y82847609D01*
X76941419Y82895228D01*
X76893800Y82942847D01*
X76846181Y83038085D01*
X77750943Y83799990D02*
X77798562Y83847609D01*
X77846181Y83799990D01*
X77798562Y83752371D01*
X77750943Y83799990D01*
X77846181Y83799990D01*
X77846181Y84799990D02*
X77846181Y84228561D01*
X77846181Y84514275D02*
X76846181Y84514275D01*
X76989038Y84419037D01*
X77084276Y84323799D01*
X77131895Y84228561D01*
X77179514Y86419038D02*
X77846181Y86419038D01*
X77179514Y85990466D02*
X77703324Y85990466D01*
X77798562Y86038085D01*
X77846181Y86133323D01*
X77846181Y86276181D01*
X77798562Y86371419D01*
X77750943Y86419038D01*
X77322371Y87228562D02*
X77322371Y86895228D01*
X77846181Y86895228D02*
X76846181Y86895228D01*
X76846181Y87371419D01*
X76941419Y88466657D02*
X76893800Y88514276D01*
X76846181Y88609514D01*
X76846181Y88847610D01*
X76893800Y88942848D01*
X76941419Y88990467D01*
X77036657Y89038086D01*
X77131895Y89038086D01*
X77274752Y88990467D01*
X77846181Y88419038D01*
X77846181Y89038086D01*
X76846181Y89942848D02*
X76846181Y89466657D01*
X77322371Y89419038D01*
X77274752Y89466657D01*
X77227133Y89561895D01*
X77227133Y89799991D01*
X77274752Y89895229D01*
X77322371Y89942848D01*
X77417610Y89990467D01*
X77655705Y89990467D01*
X77750943Y89942848D01*
X77798562Y89895229D01*
X77846181Y89799991D01*
X77846181Y89561895D01*
X77798562Y89466657D01*
X77750943Y89419038D01*
X76846181Y90276181D02*
X77846181Y90609514D01*
X76846181Y90942848D01*
X63292219Y23398219D02*
X62720790Y23398219D01*
X63006504Y23398219D02*
X63006504Y24398219D01*
X62911266Y24255362D01*
X62816028Y24160124D01*
X62720790Y24112505D01*
X63911266Y24398219D02*
X64006505Y24398219D01*
X64101743Y24350600D01*
X64149362Y24302981D01*
X64196981Y24207743D01*
X64244600Y24017267D01*
X64244600Y23779171D01*
X64196981Y23588695D01*
X64149362Y23493457D01*
X64101743Y23445838D01*
X64006505Y23398219D01*
X63911266Y23398219D01*
X63816028Y23445838D01*
X63768409Y23493457D01*
X63720790Y23588695D01*
X63673171Y23779171D01*
X63673171Y24017267D01*
X63720790Y24207743D01*
X63768409Y24302981D01*
X63816028Y24350600D01*
X63911266Y24398219D01*
X65863648Y24064886D02*
X65863648Y23398219D01*
X65435076Y24064886D02*
X65435076Y23541076D01*
X65482695Y23445838D01*
X65577933Y23398219D01*
X65720791Y23398219D01*
X65816029Y23445838D01*
X65863648Y23493457D01*
X66673172Y23922029D02*
X66339838Y23922029D01*
X66339838Y23398219D02*
X66339838Y24398219D01*
X66816029Y24398219D01*
X77795619Y20096219D02*
X77224190Y20096219D01*
X77509904Y20096219D02*
X77509904Y21096219D01*
X77414666Y20953362D01*
X77319428Y20858124D01*
X77224190Y20810505D01*
X78414666Y21096219D02*
X78509905Y21096219D01*
X78605143Y21048600D01*
X78652762Y21000981D01*
X78700381Y20905743D01*
X78748000Y20715267D01*
X78748000Y20477171D01*
X78700381Y20286695D01*
X78652762Y20191457D01*
X78605143Y20143838D01*
X78509905Y20096219D01*
X78414666Y20096219D01*
X78319428Y20143838D01*
X78271809Y20191457D01*
X78224190Y20286695D01*
X78176571Y20477171D01*
X78176571Y20715267D01*
X78224190Y20905743D01*
X78271809Y21000981D01*
X78319428Y21048600D01*
X78414666Y21096219D01*
X80367048Y20762886D02*
X80367048Y20096219D01*
X79938476Y20762886D02*
X79938476Y20239076D01*
X79986095Y20143838D01*
X80081333Y20096219D01*
X80224191Y20096219D01*
X80319429Y20143838D01*
X80367048Y20191457D01*
X81176572Y20620029D02*
X80843238Y20620029D01*
X80843238Y20096219D02*
X80843238Y21096219D01*
X81319429Y21096219D01*
X77658981Y32977390D02*
X77658981Y33072629D01*
X77706600Y33167867D01*
X77754219Y33215486D01*
X77849457Y33263105D01*
X78039933Y33310724D01*
X78278029Y33310724D01*
X78468505Y33263105D01*
X78563743Y33215486D01*
X78611362Y33167867D01*
X78658981Y33072629D01*
X78658981Y32977390D01*
X78611362Y32882152D01*
X78563743Y32834533D01*
X78468505Y32786914D01*
X78278029Y32739295D01*
X78039933Y32739295D01*
X77849457Y32786914D01*
X77754219Y32834533D01*
X77706600Y32882152D01*
X77658981Y32977390D01*
X78563743Y33739295D02*
X78611362Y33786914D01*
X78658981Y33739295D01*
X78611362Y33691676D01*
X78563743Y33739295D01*
X78658981Y33739295D01*
X78658981Y34739295D02*
X78658981Y34167866D01*
X78658981Y34453580D02*
X77658981Y34453580D01*
X77801838Y34358342D01*
X77897076Y34263104D01*
X77944695Y34167866D01*
X77992314Y36358343D02*
X78658981Y36358343D01*
X77992314Y35929771D02*
X78516124Y35929771D01*
X78611362Y35977390D01*
X78658981Y36072628D01*
X78658981Y36215486D01*
X78611362Y36310724D01*
X78563743Y36358343D01*
X78135171Y37167867D02*
X78135171Y36834533D01*
X78658981Y36834533D02*
X77658981Y36834533D01*
X77658981Y37310724D01*
X73721981Y24188990D02*
X73721981Y24284229D01*
X73769600Y24379467D01*
X73817219Y24427086D01*
X73912457Y24474705D01*
X74102933Y24522324D01*
X74341029Y24522324D01*
X74531505Y24474705D01*
X74626743Y24427086D01*
X74674362Y24379467D01*
X74721981Y24284229D01*
X74721981Y24188990D01*
X74674362Y24093752D01*
X74626743Y24046133D01*
X74531505Y23998514D01*
X74341029Y23950895D01*
X74102933Y23950895D01*
X73912457Y23998514D01*
X73817219Y24046133D01*
X73769600Y24093752D01*
X73721981Y24188990D01*
X74626743Y24950895D02*
X74674362Y24998514D01*
X74721981Y24950895D01*
X74674362Y24903276D01*
X74626743Y24950895D01*
X74721981Y24950895D01*
X74721981Y25950895D02*
X74721981Y25379466D01*
X74721981Y25665180D02*
X73721981Y25665180D01*
X73864838Y25569942D01*
X73960076Y25474704D01*
X74007695Y25379466D01*
X74055314Y27569943D02*
X74721981Y27569943D01*
X74055314Y27141371D02*
X74579124Y27141371D01*
X74674362Y27188990D01*
X74721981Y27284228D01*
X74721981Y27427086D01*
X74674362Y27522324D01*
X74626743Y27569943D01*
X74198171Y28379467D02*
X74198171Y28046133D01*
X74721981Y28046133D02*
X73721981Y28046133D01*
X73721981Y28522324D01*
X60259981Y18219990D02*
X60259981Y18315229D01*
X60307600Y18410467D01*
X60355219Y18458086D01*
X60450457Y18505705D01*
X60640933Y18553324D01*
X60879029Y18553324D01*
X61069505Y18505705D01*
X61164743Y18458086D01*
X61212362Y18410467D01*
X61259981Y18315229D01*
X61259981Y18219990D01*
X61212362Y18124752D01*
X61164743Y18077133D01*
X61069505Y18029514D01*
X60879029Y17981895D01*
X60640933Y17981895D01*
X60450457Y18029514D01*
X60355219Y18077133D01*
X60307600Y18124752D01*
X60259981Y18219990D01*
X61164743Y18981895D02*
X61212362Y19029514D01*
X61259981Y18981895D01*
X61212362Y18934276D01*
X61164743Y18981895D01*
X61259981Y18981895D01*
X61259981Y19981895D02*
X61259981Y19410466D01*
X61259981Y19696180D02*
X60259981Y19696180D01*
X60402838Y19600942D01*
X60498076Y19505704D01*
X60545695Y19410466D01*
X60593314Y21600943D02*
X61259981Y21600943D01*
X60593314Y21172371D02*
X61117124Y21172371D01*
X61212362Y21219990D01*
X61259981Y21315228D01*
X61259981Y21458086D01*
X61212362Y21553324D01*
X61164743Y21600943D01*
X60736171Y22410467D02*
X60736171Y22077133D01*
X61259981Y22077133D02*
X60259981Y22077133D01*
X60259981Y22553324D01*
X65590990Y27319219D02*
X65686229Y27319219D01*
X65781467Y27271600D01*
X65829086Y27223981D01*
X65876705Y27128743D01*
X65924324Y26938267D01*
X65924324Y26700171D01*
X65876705Y26509695D01*
X65829086Y26414457D01*
X65781467Y26366838D01*
X65686229Y26319219D01*
X65590990Y26319219D01*
X65495752Y26366838D01*
X65448133Y26414457D01*
X65400514Y26509695D01*
X65352895Y26700171D01*
X65352895Y26938267D01*
X65400514Y27128743D01*
X65448133Y27223981D01*
X65495752Y27271600D01*
X65590990Y27319219D01*
X66352895Y26414457D02*
X66400514Y26366838D01*
X66352895Y26319219D01*
X66305276Y26366838D01*
X66352895Y26414457D01*
X66352895Y26319219D01*
X67352895Y26319219D02*
X66781466Y26319219D01*
X67067180Y26319219D02*
X67067180Y27319219D01*
X66971942Y27176362D01*
X66876704Y27081124D01*
X66781466Y27033505D01*
X68971943Y26985886D02*
X68971943Y26319219D01*
X68543371Y26985886D02*
X68543371Y26462076D01*
X68590990Y26366838D01*
X68686228Y26319219D01*
X68829086Y26319219D01*
X68924324Y26366838D01*
X68971943Y26414457D01*
X69781467Y26843029D02*
X69448133Y26843029D01*
X69448133Y26319219D02*
X69448133Y27319219D01*
X69924324Y27319219D01*
X65235390Y22417019D02*
X65330629Y22417019D01*
X65425867Y22369400D01*
X65473486Y22321781D01*
X65521105Y22226543D01*
X65568724Y22036067D01*
X65568724Y21797971D01*
X65521105Y21607495D01*
X65473486Y21512257D01*
X65425867Y21464638D01*
X65330629Y21417019D01*
X65235390Y21417019D01*
X65140152Y21464638D01*
X65092533Y21512257D01*
X65044914Y21607495D01*
X64997295Y21797971D01*
X64997295Y22036067D01*
X65044914Y22226543D01*
X65092533Y22321781D01*
X65140152Y22369400D01*
X65235390Y22417019D01*
X65997295Y21512257D02*
X66044914Y21464638D01*
X65997295Y21417019D01*
X65949676Y21464638D01*
X65997295Y21512257D01*
X65997295Y21417019D01*
X66997295Y21417019D02*
X66425866Y21417019D01*
X66711580Y21417019D02*
X66711580Y22417019D01*
X66616342Y22274162D01*
X66521104Y22178924D01*
X66425866Y22131305D01*
X68616343Y22083686D02*
X68616343Y21417019D01*
X68187771Y22083686D02*
X68187771Y21559876D01*
X68235390Y21464638D01*
X68330628Y21417019D01*
X68473486Y21417019D01*
X68568724Y21464638D01*
X68616343Y21512257D01*
X69425867Y21940829D02*
X69092533Y21940829D01*
X69092533Y21417019D02*
X69092533Y22417019D01*
X69568724Y22417019D01*
X59649099Y21975819D02*
X59077670Y21975819D01*
X59363384Y21975819D02*
X59363384Y22975819D01*
X59268146Y22832962D01*
X59172908Y22737724D01*
X59077670Y22690105D01*
X60268146Y22975819D02*
X60363385Y22975819D01*
X60458623Y22928200D01*
X60506242Y22880581D01*
X60553861Y22785343D01*
X60601480Y22594867D01*
X60601480Y22356771D01*
X60553861Y22166295D01*
X60506242Y22071057D01*
X60458623Y22023438D01*
X60363385Y21975819D01*
X60268146Y21975819D01*
X60172908Y22023438D01*
X60125289Y22071057D01*
X60077670Y22166295D01*
X60030051Y22356771D01*
X60030051Y22594867D01*
X60077670Y22785343D01*
X60125289Y22880581D01*
X60172908Y22928200D01*
X60268146Y22975819D01*
X62220528Y22642486D02*
X62220528Y21975819D01*
X61791956Y22642486D02*
X61791956Y22118676D01*
X61839575Y22023438D01*
X61934813Y21975819D01*
X62077671Y21975819D01*
X62172909Y22023438D01*
X62220528Y22071057D01*
X63030052Y22499629D02*
X62696718Y22499629D01*
X62696718Y21975819D02*
X62696718Y22975819D01*
X63172909Y22975819D01*
X69627739Y24160219D02*
X69056310Y24160219D01*
X69342024Y24160219D02*
X69342024Y25160219D01*
X69246786Y25017362D01*
X69151548Y24922124D01*
X69056310Y24874505D01*
X70246786Y25160219D02*
X70342025Y25160219D01*
X70437263Y25112600D01*
X70484882Y25064981D01*
X70532501Y24969743D01*
X70580120Y24779267D01*
X70580120Y24541171D01*
X70532501Y24350695D01*
X70484882Y24255457D01*
X70437263Y24207838D01*
X70342025Y24160219D01*
X70246786Y24160219D01*
X70151548Y24207838D01*
X70103929Y24255457D01*
X70056310Y24350695D01*
X70008691Y24541171D01*
X70008691Y24779267D01*
X70056310Y24969743D01*
X70103929Y25064981D01*
X70151548Y25112600D01*
X70246786Y25160219D01*
X72199168Y24826886D02*
X72199168Y24160219D01*
X71770596Y24826886D02*
X71770596Y24303076D01*
X71818215Y24207838D01*
X71913453Y24160219D01*
X72056311Y24160219D01*
X72151549Y24207838D01*
X72199168Y24255457D01*
X73008692Y24684029D02*
X72675358Y24684029D01*
X72675358Y24160219D02*
X72675358Y25160219D01*
X73151549Y25160219D01*
X69197790Y37733219D02*
X69293029Y37733219D01*
X69388267Y37685600D01*
X69435886Y37637981D01*
X69483505Y37542743D01*
X69531124Y37352267D01*
X69531124Y37114171D01*
X69483505Y36923695D01*
X69435886Y36828457D01*
X69388267Y36780838D01*
X69293029Y36733219D01*
X69197790Y36733219D01*
X69102552Y36780838D01*
X69054933Y36828457D01*
X69007314Y36923695D01*
X68959695Y37114171D01*
X68959695Y37352267D01*
X69007314Y37542743D01*
X69054933Y37637981D01*
X69102552Y37685600D01*
X69197790Y37733219D01*
X69959695Y36828457D02*
X70007314Y36780838D01*
X69959695Y36733219D01*
X69912076Y36780838D01*
X69959695Y36828457D01*
X69959695Y36733219D01*
X70959695Y36733219D02*
X70388266Y36733219D01*
X70673980Y36733219D02*
X70673980Y37733219D01*
X70578742Y37590362D01*
X70483504Y37495124D01*
X70388266Y37447505D01*
X72578743Y37399886D02*
X72578743Y36733219D01*
X72150171Y37399886D02*
X72150171Y36876076D01*
X72197790Y36780838D01*
X72293028Y36733219D01*
X72435886Y36733219D01*
X72531124Y36780838D01*
X72578743Y36828457D01*
X73388267Y37257029D02*
X73054933Y37257029D01*
X73054933Y36733219D02*
X73054933Y37733219D01*
X73531124Y37733219D01*
X69223190Y27598619D02*
X69318429Y27598619D01*
X69413667Y27551000D01*
X69461286Y27503381D01*
X69508905Y27408143D01*
X69556524Y27217667D01*
X69556524Y26979571D01*
X69508905Y26789095D01*
X69461286Y26693857D01*
X69413667Y26646238D01*
X69318429Y26598619D01*
X69223190Y26598619D01*
X69127952Y26646238D01*
X69080333Y26693857D01*
X69032714Y26789095D01*
X68985095Y26979571D01*
X68985095Y27217667D01*
X69032714Y27408143D01*
X69080333Y27503381D01*
X69127952Y27551000D01*
X69223190Y27598619D01*
X69985095Y26693857D02*
X70032714Y26646238D01*
X69985095Y26598619D01*
X69937476Y26646238D01*
X69985095Y26693857D01*
X69985095Y26598619D01*
X70985095Y26598619D02*
X70413666Y26598619D01*
X70699380Y26598619D02*
X70699380Y27598619D01*
X70604142Y27455762D01*
X70508904Y27360524D01*
X70413666Y27312905D01*
X72604143Y27265286D02*
X72604143Y26598619D01*
X72175571Y27265286D02*
X72175571Y26741476D01*
X72223190Y26646238D01*
X72318428Y26598619D01*
X72461286Y26598619D01*
X72556524Y26646238D01*
X72604143Y26693857D01*
X73413667Y27122429D02*
X73080333Y27122429D01*
X73080333Y26598619D02*
X73080333Y27598619D01*
X73556524Y27598619D01*
X78948019Y20717915D02*
X78900400Y20765534D01*
X78852781Y20860772D01*
X78852781Y21098868D01*
X78900400Y21194106D01*
X78948019Y21241725D01*
X79043257Y21289344D01*
X79138495Y21289344D01*
X79281352Y21241725D01*
X79852781Y20670296D01*
X79852781Y21289344D01*
X79186114Y22146487D02*
X79852781Y22146487D01*
X78805162Y21908391D02*
X79519448Y21670296D01*
X79519448Y22289344D01*
X78852781Y22860772D02*
X78852781Y22956011D01*
X78900400Y23051249D01*
X78948019Y23098868D01*
X79043257Y23146487D01*
X79233733Y23194106D01*
X79471829Y23194106D01*
X79662305Y23146487D01*
X79757543Y23098868D01*
X79805162Y23051249D01*
X79852781Y22956011D01*
X79852781Y22860772D01*
X79805162Y22765534D01*
X79757543Y22717915D01*
X79662305Y22670296D01*
X79471829Y22622677D01*
X79233733Y22622677D01*
X79043257Y22670296D01*
X78948019Y22717915D01*
X78900400Y22765534D01*
X78852781Y22860772D01*
X71710705Y39415981D02*
X71758324Y39463600D01*
X71853562Y39511219D01*
X72091658Y39511219D01*
X72186896Y39463600D01*
X72234515Y39415981D01*
X72282134Y39320743D01*
X72282134Y39225505D01*
X72234515Y39082648D01*
X71663086Y38511219D01*
X72282134Y38511219D01*
X73139277Y39177886D02*
X73139277Y38511219D01*
X72901181Y39558838D02*
X72663086Y38844552D01*
X73282134Y38844552D01*
X73853562Y39511219D02*
X73948801Y39511219D01*
X74044039Y39463600D01*
X74091658Y39415981D01*
X74139277Y39320743D01*
X74186896Y39130267D01*
X74186896Y38892171D01*
X74139277Y38701695D01*
X74091658Y38606457D01*
X74044039Y38558838D01*
X73948801Y38511219D01*
X73853562Y38511219D01*
X73758324Y38558838D01*
X73710705Y38606457D01*
X73663086Y38701695D01*
X73615467Y38892171D01*
X73615467Y39130267D01*
X73663086Y39320743D01*
X73710705Y39415981D01*
X73758324Y39463600D01*
X73853562Y39511219D01*
X34085019Y12078105D02*
X34037400Y12125724D01*
X33989781Y12220962D01*
X33989781Y12459058D01*
X34037400Y12554296D01*
X34085019Y12601915D01*
X34180257Y12649534D01*
X34275495Y12649534D01*
X34418352Y12601915D01*
X34989781Y12030486D01*
X34989781Y12649534D01*
X34323114Y13506677D02*
X34989781Y13506677D01*
X33942162Y13268581D02*
X34656448Y13030486D01*
X34656448Y13649534D01*
X33989781Y14220962D02*
X33989781Y14316201D01*
X34037400Y14411439D01*
X34085019Y14459058D01*
X34180257Y14506677D01*
X34370733Y14554296D01*
X34608829Y14554296D01*
X34799305Y14506677D01*
X34894543Y14459058D01*
X34942162Y14411439D01*
X34989781Y14316201D01*
X34989781Y14220962D01*
X34942162Y14125724D01*
X34894543Y14078105D01*
X34799305Y14030486D01*
X34608829Y13982867D01*
X34370733Y13982867D01*
X34180257Y14030486D01*
X34085019Y14078105D01*
X34037400Y14125724D01*
X33989781Y14220962D01*
X35215819Y11988705D02*
X35168200Y12036324D01*
X35120581Y12131562D01*
X35120581Y12369658D01*
X35168200Y12464896D01*
X35215819Y12512515D01*
X35311057Y12560134D01*
X35406295Y12560134D01*
X35549152Y12512515D01*
X36120581Y11941086D01*
X36120581Y12560134D01*
X35453914Y13417277D02*
X36120581Y13417277D01*
X35072962Y13179181D02*
X35787248Y12941086D01*
X35787248Y13560134D01*
X35120581Y14131562D02*
X35120581Y14226801D01*
X35168200Y14322039D01*
X35215819Y14369658D01*
X35311057Y14417277D01*
X35501533Y14464896D01*
X35739629Y14464896D01*
X35930105Y14417277D01*
X36025343Y14369658D01*
X36072962Y14322039D01*
X36120581Y14226801D01*
X36120581Y14131562D01*
X36072962Y14036324D01*
X36025343Y13988705D01*
X35930105Y13941086D01*
X35739629Y13893467D01*
X35501533Y13893467D01*
X35311057Y13941086D01*
X35215819Y13988705D01*
X35168200Y14036324D01*
X35120581Y14131562D01*
X38004905Y29103581D02*
X38052524Y29151200D01*
X38147762Y29198819D01*
X38385858Y29198819D01*
X38481096Y29151200D01*
X38528715Y29103581D01*
X38576334Y29008343D01*
X38576334Y28913105D01*
X38528715Y28770248D01*
X37957286Y28198819D01*
X38576334Y28198819D01*
X39433477Y28865486D02*
X39433477Y28198819D01*
X39195381Y29246438D02*
X38957286Y28532152D01*
X39576334Y28532152D01*
X40147762Y29198819D02*
X40243001Y29198819D01*
X40338239Y29151200D01*
X40385858Y29103581D01*
X40433477Y29008343D01*
X40481096Y28817867D01*
X40481096Y28579771D01*
X40433477Y28389295D01*
X40385858Y28294057D01*
X40338239Y28246438D01*
X40243001Y28198819D01*
X40147762Y28198819D01*
X40052524Y28246438D01*
X40004905Y28294057D01*
X39957286Y28389295D01*
X39909667Y28579771D01*
X39909667Y28817867D01*
X39957286Y29008343D01*
X40004905Y29103581D01*
X40052524Y29151200D01*
X40147762Y29198819D01*
X28402019Y23120505D02*
X28354400Y23168124D01*
X28306781Y23263362D01*
X28306781Y23501458D01*
X28354400Y23596696D01*
X28402019Y23644315D01*
X28497257Y23691934D01*
X28592495Y23691934D01*
X28735352Y23644315D01*
X29306781Y23072886D01*
X29306781Y23691934D01*
X28640114Y24549077D02*
X29306781Y24549077D01*
X28259162Y24310981D02*
X28973448Y24072886D01*
X28973448Y24691934D01*
X28306781Y25263362D02*
X28306781Y25358601D01*
X28354400Y25453839D01*
X28402019Y25501458D01*
X28497257Y25549077D01*
X28687733Y25596696D01*
X28925829Y25596696D01*
X29116305Y25549077D01*
X29211543Y25501458D01*
X29259162Y25453839D01*
X29306781Y25358601D01*
X29306781Y25263362D01*
X29259162Y25168124D01*
X29211543Y25120505D01*
X29116305Y25072886D01*
X28925829Y25025267D01*
X28687733Y25025267D01*
X28497257Y25072886D01*
X28402019Y25120505D01*
X28354400Y25168124D01*
X28306781Y25263362D01*
X26649419Y83877305D02*
X26601800Y83924924D01*
X26554181Y84020162D01*
X26554181Y84258258D01*
X26601800Y84353496D01*
X26649419Y84401115D01*
X26744657Y84448734D01*
X26839895Y84448734D01*
X26982752Y84401115D01*
X27554181Y83829686D01*
X27554181Y84448734D01*
X26887514Y85305877D02*
X27554181Y85305877D01*
X26506562Y85067781D02*
X27220848Y84829686D01*
X27220848Y85448734D01*
X26554181Y86020162D02*
X26554181Y86115401D01*
X26601800Y86210639D01*
X26649419Y86258258D01*
X26744657Y86305877D01*
X26935133Y86353496D01*
X27173229Y86353496D01*
X27363705Y86305877D01*
X27458943Y86258258D01*
X27506562Y86210639D01*
X27554181Y86115401D01*
X27554181Y86020162D01*
X27506562Y85924924D01*
X27458943Y85877305D01*
X27363705Y85829686D01*
X27173229Y85782067D01*
X26935133Y85782067D01*
X26744657Y85829686D01*
X26649419Y85877305D01*
X26601800Y85924924D01*
X26554181Y86020162D01*
X26649419Y67875305D02*
X26601800Y67922924D01*
X26554181Y68018162D01*
X26554181Y68256258D01*
X26601800Y68351496D01*
X26649419Y68399115D01*
X26744657Y68446734D01*
X26839895Y68446734D01*
X26982752Y68399115D01*
X27554181Y67827686D01*
X27554181Y68446734D01*
X26887514Y69303877D02*
X27554181Y69303877D01*
X26506562Y69065781D02*
X27220848Y68827686D01*
X27220848Y69446734D01*
X26554181Y70018162D02*
X26554181Y70113401D01*
X26601800Y70208639D01*
X26649419Y70256258D01*
X26744657Y70303877D01*
X26935133Y70351496D01*
X27173229Y70351496D01*
X27363705Y70303877D01*
X27458943Y70256258D01*
X27506562Y70208639D01*
X27554181Y70113401D01*
X27554181Y70018162D01*
X27506562Y69922924D01*
X27458943Y69875305D01*
X27363705Y69827686D01*
X27173229Y69780067D01*
X26935133Y69780067D01*
X26744657Y69827686D01*
X26649419Y69875305D01*
X26601800Y69922924D01*
X26554181Y70018162D01*
X26649419Y51492305D02*
X26601800Y51539924D01*
X26554181Y51635162D01*
X26554181Y51873258D01*
X26601800Y51968496D01*
X26649419Y52016115D01*
X26744657Y52063734D01*
X26839895Y52063734D01*
X26982752Y52016115D01*
X27554181Y51444686D01*
X27554181Y52063734D01*
X26887514Y52920877D02*
X27554181Y52920877D01*
X26506562Y52682781D02*
X27220848Y52444686D01*
X27220848Y53063734D01*
X26554181Y53635162D02*
X26554181Y53730401D01*
X26601800Y53825639D01*
X26649419Y53873258D01*
X26744657Y53920877D01*
X26935133Y53968496D01*
X27173229Y53968496D01*
X27363705Y53920877D01*
X27458943Y53873258D01*
X27506562Y53825639D01*
X27554181Y53730401D01*
X27554181Y53635162D01*
X27506562Y53539924D01*
X27458943Y53492305D01*
X27363705Y53444686D01*
X27173229Y53397067D01*
X26935133Y53397067D01*
X26744657Y53444686D01*
X26649419Y53492305D01*
X26601800Y53539924D01*
X26554181Y53635162D01*
X67770381Y35015419D02*
X67865620Y35015419D01*
X67960858Y34967800D01*
X68008477Y34920181D01*
X68056096Y34824943D01*
X68103715Y34634467D01*
X68103715Y34396371D01*
X68056096Y34205895D01*
X68008477Y34110657D01*
X67960858Y34063038D01*
X67865620Y34015419D01*
X67770381Y34015419D01*
X67675143Y34063038D01*
X67627524Y34110657D01*
X67579905Y34205895D01*
X67532286Y34396371D01*
X67532286Y34634467D01*
X67579905Y34824943D01*
X67627524Y34920181D01*
X67675143Y34967800D01*
X67770381Y35015419D01*
X64076971Y23026619D02*
X64172210Y23026619D01*
X64267448Y22979000D01*
X64315067Y22931381D01*
X64362686Y22836143D01*
X64410305Y22645667D01*
X64410305Y22407571D01*
X64362686Y22217095D01*
X64315067Y22121857D01*
X64267448Y22074238D01*
X64172210Y22026619D01*
X64076971Y22026619D01*
X63981733Y22074238D01*
X63934114Y22121857D01*
X63886495Y22217095D01*
X63838876Y22407571D01*
X63838876Y22645667D01*
X63886495Y22836143D01*
X63934114Y22931381D01*
X63981733Y22979000D01*
X64076971Y23026619D01*
X58211981Y27617753D02*
X58211981Y27046324D01*
X58211981Y27332038D02*
X57211981Y27332038D01*
X57354838Y27236800D01*
X57450076Y27141562D01*
X57497695Y27046324D01*
X58211981Y28046324D02*
X57211981Y28046324D01*
X57831029Y28141562D02*
X58211981Y28427277D01*
X57545314Y28427277D02*
X57926267Y28046324D01*
X58535914Y26833629D02*
X59202581Y26833629D01*
X58154962Y26595533D02*
X58869248Y26357438D01*
X58869248Y26976486D01*
X59107343Y27357438D02*
X59154962Y27405057D01*
X59202581Y27357438D01*
X59154962Y27309819D01*
X59107343Y27357438D01*
X59202581Y27357438D01*
X58202581Y27738390D02*
X58202581Y28405057D01*
X59202581Y27976485D01*
X59202581Y28786009D02*
X58202581Y28786009D01*
X58821629Y28881247D02*
X59202581Y29166962D01*
X58535914Y29166962D02*
X58916867Y28786009D01*
X57491286Y29672019D02*
X57491286Y30672019D01*
X58062715Y29672019D01*
X58062715Y30672019D01*
X58729381Y30672019D02*
X58919858Y30672019D01*
X59015096Y30624400D01*
X59110334Y30529162D01*
X59157953Y30338686D01*
X59157953Y30005352D01*
X59110334Y29814876D01*
X59015096Y29719638D01*
X58919858Y29672019D01*
X58729381Y29672019D01*
X58634143Y29719638D01*
X58538905Y29814876D01*
X58491286Y30005352D01*
X58491286Y30338686D01*
X58538905Y30529162D01*
X58634143Y30624400D01*
X58729381Y30672019D01*
X59586524Y29672019D02*
X59586524Y30672019D01*
X60157953Y29672019D01*
X60157953Y30672019D01*
X60634143Y30195829D02*
X60967477Y30195829D01*
X61110334Y29672019D02*
X60634143Y29672019D01*
X60634143Y30672019D01*
X61110334Y30672019D01*
X56592553Y29722819D02*
X56021124Y29722819D01*
X56306838Y29722819D02*
X56306838Y30722819D01*
X56211600Y30579962D01*
X56116362Y30484724D01*
X56021124Y30437105D01*
X57021124Y29722819D02*
X57021124Y30722819D01*
X57116362Y30103771D02*
X57402077Y29722819D01*
X57402077Y30389486D02*
X57021124Y30008533D01*
X57465886Y31577019D02*
X57465886Y32577019D01*
X58037315Y31577019D01*
X58037315Y32577019D01*
X58703981Y32577019D02*
X58894458Y32577019D01*
X58989696Y32529400D01*
X59084934Y32434162D01*
X59132553Y32243686D01*
X59132553Y31910352D01*
X59084934Y31719876D01*
X58989696Y31624638D01*
X58894458Y31577019D01*
X58703981Y31577019D01*
X58608743Y31624638D01*
X58513505Y31719876D01*
X58465886Y31910352D01*
X58465886Y32243686D01*
X58513505Y32434162D01*
X58608743Y32529400D01*
X58703981Y32577019D01*
X59561124Y31577019D02*
X59561124Y32577019D01*
X60132553Y31577019D01*
X60132553Y32577019D01*
X60608743Y32100829D02*
X60942077Y32100829D01*
X61084934Y31577019D02*
X60608743Y31577019D01*
X60608743Y32577019D01*
X61084934Y32577019D01*
X57516686Y32491419D02*
X57516686Y33491419D01*
X58088115Y32491419D01*
X58088115Y33491419D01*
X58754781Y33491419D02*
X58945258Y33491419D01*
X59040496Y33443800D01*
X59135734Y33348562D01*
X59183353Y33158086D01*
X59183353Y32824752D01*
X59135734Y32634276D01*
X59040496Y32539038D01*
X58945258Y32491419D01*
X58754781Y32491419D01*
X58659543Y32539038D01*
X58564305Y32634276D01*
X58516686Y32824752D01*
X58516686Y33158086D01*
X58564305Y33348562D01*
X58659543Y33443800D01*
X58754781Y33491419D01*
X59611924Y32491419D02*
X59611924Y33491419D01*
X60183353Y32491419D01*
X60183353Y33491419D01*
X60659543Y33015229D02*
X60992877Y33015229D01*
X61135734Y32491419D02*
X60659543Y32491419D01*
X60659543Y33491419D01*
X61135734Y33491419D01*
X58707162Y33405819D02*
X58135733Y33405819D01*
X58421447Y33405819D02*
X58421447Y34405819D01*
X58326209Y34262962D01*
X58230971Y34167724D01*
X58135733Y34120105D01*
X59326209Y34405819D02*
X59421448Y34405819D01*
X59516686Y34358200D01*
X59564305Y34310581D01*
X59611924Y34215343D01*
X59659543Y34024867D01*
X59659543Y33786771D01*
X59611924Y33596295D01*
X59564305Y33501057D01*
X59516686Y33453438D01*
X59421448Y33405819D01*
X59326209Y33405819D01*
X59230971Y33453438D01*
X59183352Y33501057D01*
X59135733Y33596295D01*
X59088114Y33786771D01*
X59088114Y34024867D01*
X59135733Y34215343D01*
X59183352Y34310581D01*
X59230971Y34358200D01*
X59326209Y34405819D01*
X60088114Y33405819D02*
X60088114Y34405819D01*
X60183352Y33786771D02*
X60469067Y33405819D01*
X60469067Y34072486D02*
X60088114Y33691533D01*
X58681762Y34447219D02*
X58110333Y34447219D01*
X58396047Y34447219D02*
X58396047Y35447219D01*
X58300809Y35304362D01*
X58205571Y35209124D01*
X58110333Y35161505D01*
X59300809Y35447219D02*
X59396048Y35447219D01*
X59491286Y35399600D01*
X59538905Y35351981D01*
X59586524Y35256743D01*
X59634143Y35066267D01*
X59634143Y34828171D01*
X59586524Y34637695D01*
X59538905Y34542457D01*
X59491286Y34494838D01*
X59396048Y34447219D01*
X59300809Y34447219D01*
X59205571Y34494838D01*
X59157952Y34542457D01*
X59110333Y34637695D01*
X59062714Y34828171D01*
X59062714Y35066267D01*
X59110333Y35256743D01*
X59157952Y35351981D01*
X59205571Y35399600D01*
X59300809Y35447219D01*
X60062714Y34447219D02*
X60062714Y35447219D01*
X60157952Y34828171D02*
X60443667Y34447219D01*
X60443667Y35113886D02*
X60062714Y34732933D01*
X56567153Y31653219D02*
X55995724Y31653219D01*
X56281438Y31653219D02*
X56281438Y32653219D01*
X56186200Y32510362D01*
X56090962Y32415124D01*
X55995724Y32367505D01*
X56995724Y31653219D02*
X56995724Y32653219D01*
X57090962Y32034171D02*
X57376677Y31653219D01*
X57376677Y32319886D02*
X56995724Y31938933D01*
X56541753Y32643819D02*
X55970324Y32643819D01*
X56256038Y32643819D02*
X56256038Y33643819D01*
X56160800Y33500962D01*
X56065562Y33405724D01*
X55970324Y33358105D01*
X56970324Y32643819D02*
X56970324Y33643819D01*
X57065562Y33024771D02*
X57351277Y32643819D01*
X57351277Y33310486D02*
X56970324Y32929533D01*
X54875086Y33532819D02*
X54875086Y34532819D01*
X55446515Y33532819D01*
X55446515Y34532819D01*
X56113181Y34532819D02*
X56303658Y34532819D01*
X56398896Y34485200D01*
X56494134Y34389962D01*
X56541753Y34199486D01*
X56541753Y33866152D01*
X56494134Y33675676D01*
X56398896Y33580438D01*
X56303658Y33532819D01*
X56113181Y33532819D01*
X56017943Y33580438D01*
X55922705Y33675676D01*
X55875086Y33866152D01*
X55875086Y34199486D01*
X55922705Y34389962D01*
X56017943Y34485200D01*
X56113181Y34532819D01*
X56970324Y33532819D02*
X56970324Y34532819D01*
X57541753Y33532819D01*
X57541753Y34532819D01*
X58017943Y34056629D02*
X58351277Y34056629D01*
X58494134Y33532819D02*
X58017943Y33532819D01*
X58017943Y34532819D01*
X58494134Y34532819D01*
X54907086Y34498019D02*
X54907086Y35498019D01*
X55478515Y34498019D01*
X55478515Y35498019D01*
X56145181Y35498019D02*
X56335658Y35498019D01*
X56430896Y35450400D01*
X56526134Y35355162D01*
X56573753Y35164686D01*
X56573753Y34831352D01*
X56526134Y34640876D01*
X56430896Y34545638D01*
X56335658Y34498019D01*
X56145181Y34498019D01*
X56049943Y34545638D01*
X55954705Y34640876D01*
X55907086Y34831352D01*
X55907086Y35164686D01*
X55954705Y35355162D01*
X56049943Y35450400D01*
X56145181Y35498019D01*
X57002324Y34498019D02*
X57002324Y35498019D01*
X57573753Y34498019D01*
X57573753Y35498019D01*
X58049943Y35021829D02*
X58383277Y35021829D01*
X58526134Y34498019D02*
X58049943Y34498019D01*
X58049943Y35498019D01*
X58526134Y35498019D01*
X57491286Y30637219D02*
X57491286Y31637219D01*
X58062715Y30637219D01*
X58062715Y31637219D01*
X58729381Y31637219D02*
X58919858Y31637219D01*
X59015096Y31589600D01*
X59110334Y31494362D01*
X59157953Y31303886D01*
X59157953Y30970552D01*
X59110334Y30780076D01*
X59015096Y30684838D01*
X58919858Y30637219D01*
X58729381Y30637219D01*
X58634143Y30684838D01*
X58538905Y30780076D01*
X58491286Y30970552D01*
X58491286Y31303886D01*
X58538905Y31494362D01*
X58634143Y31589600D01*
X58729381Y31637219D01*
X59586524Y30637219D02*
X59586524Y31637219D01*
X60157953Y30637219D01*
X60157953Y31637219D01*
X60634143Y31161029D02*
X60967477Y31161029D01*
X61110334Y30637219D02*
X60634143Y30637219D01*
X60634143Y31637219D01*
X61110334Y31637219D01*
X56567153Y30713419D02*
X55995724Y30713419D01*
X56281438Y30713419D02*
X56281438Y31713419D01*
X56186200Y31570562D01*
X56090962Y31475324D01*
X55995724Y31427705D01*
X56995724Y30713419D02*
X56995724Y31713419D01*
X57090962Y31094371D02*
X57376677Y30713419D01*
X57376677Y31380086D02*
X56995724Y30999133D01*
M02*
