G04 #@! TF.FileFunction,Copper,L2,Inr,Plane*
%FSLAX46Y46*%
G04 Gerber Fmt 4.6, Leading zero omitted, Abs format (unit mm)*
G04 Created by KiCad (PCBNEW 4.0.5) date Sat Apr  1 23:31:31 2017*
%MOMM*%
%LPD*%
G01*
G04 APERTURE LIST*
%ADD10C,0.100000*%
%ADD11C,1.407922*%
%ADD12R,1.407922X1.407922*%
%ADD13C,1.397000*%
%ADD14C,1.778000*%
%ADD15C,2.082800*%
%ADD16C,3.759200*%
%ADD17C,3.048000*%
%ADD18C,2.108200*%
%ADD19C,2.794000*%
%ADD20C,3.302000*%
%ADD21C,1.574800*%
%ADD22C,4.572000*%
%ADD23C,0.609600*%
%ADD24C,0.254000*%
G04 APERTURE END LIST*
D10*
D11*
X103124000Y48578008D03*
D12*
X101124004Y48578008D03*
D11*
X103124000Y50578004D03*
X101124004Y50578004D03*
X103124000Y52578000D03*
X101124004Y52578000D03*
X103124000Y54577996D03*
X101124004Y54577996D03*
X103124000Y56577992D03*
X101124004Y56577992D03*
X103124000Y58577988D03*
X101124004Y58577988D03*
X103124000Y60577984D03*
X101124004Y60577984D03*
D13*
X99568000Y30632400D03*
X99568000Y28600400D03*
X99568000Y26568400D03*
X99568000Y24536400D03*
X99568000Y22504400D03*
X99568000Y20472400D03*
X97028000Y31648400D03*
X97028000Y29616400D03*
X97028000Y27584400D03*
X97028000Y23520400D03*
X97028000Y21488400D03*
X97028000Y19456400D03*
D14*
X112522000Y33070800D03*
X115062000Y33070800D03*
X109982000Y18034000D03*
X112522000Y18034000D03*
X115062000Y18034000D03*
D15*
X106172000Y34340800D03*
X106172000Y16764000D03*
D16*
X106172000Y30378400D03*
X106172000Y20726400D03*
D17*
X114283998Y81970118D03*
X114283998Y72969882D03*
D18*
X116283994Y77470000D03*
D19*
X113284000Y77470000D03*
D20*
X107284012Y77470000D03*
D21*
X93980000Y45720000D03*
X91440000Y45720000D03*
X93980000Y48260000D03*
X91440000Y48260000D03*
X93980000Y50800000D03*
X91440000Y50800000D03*
X93980000Y53340000D03*
X91440000Y53340000D03*
X93980000Y55880000D03*
X91440000Y55880000D03*
X93980000Y58420000D03*
X91440000Y58420000D03*
X93980000Y60960000D03*
X91440000Y60960000D03*
X93980000Y63500000D03*
X91440000Y63500000D03*
D22*
X8255000Y90805000D03*
X109601000Y90805000D03*
X8255000Y8255000D03*
X109601000Y8255000D03*
D23*
X13995400Y87274400D03*
D24*
G36*
X117348000Y78435446D02*
X117097974Y78685909D01*
X116570705Y78904850D01*
X115999787Y78905348D01*
X115472137Y78687328D01*
X115068085Y78283980D01*
X114849144Y77756711D01*
X114848646Y77185793D01*
X115066666Y76658143D01*
X115470014Y76254091D01*
X115997283Y76035150D01*
X116568201Y76034652D01*
X117095851Y76252672D01*
X117348000Y76504382D01*
X117348000Y508000D01*
X508000Y508000D01*
X508000Y16482309D01*
X104749354Y16482309D01*
X104965445Y15959328D01*
X105365223Y15558851D01*
X105887826Y15341848D01*
X106453691Y15341354D01*
X106976672Y15557445D01*
X107377149Y15957223D01*
X107594152Y16479826D01*
X107594646Y17045691D01*
X107378555Y17568672D01*
X107165111Y17782490D01*
X108711780Y17782490D01*
X108904718Y17315542D01*
X109261663Y16957974D01*
X109728273Y16764221D01*
X110233510Y16763780D01*
X110700458Y16956718D01*
X111058026Y17313663D01*
X111251779Y17780273D01*
X111251781Y17782488D01*
X111444718Y17315542D01*
X111801663Y16957974D01*
X112268273Y16764221D01*
X112773510Y16763780D01*
X113240458Y16956718D01*
X113598026Y17313663D01*
X113791779Y17780273D01*
X113791781Y17782488D01*
X113984718Y17315542D01*
X114341663Y16957974D01*
X114808273Y16764221D01*
X115313510Y16763780D01*
X115780458Y16956718D01*
X116138026Y17313663D01*
X116331779Y17780273D01*
X116332220Y18285510D01*
X116139282Y18752458D01*
X115782337Y19110026D01*
X115315727Y19303779D01*
X114810490Y19304220D01*
X114343542Y19111282D01*
X113985974Y18754337D01*
X113792221Y18287727D01*
X113792219Y18285512D01*
X113599282Y18752458D01*
X113242337Y19110026D01*
X112775727Y19303779D01*
X112270490Y19304220D01*
X111803542Y19111282D01*
X111445974Y18754337D01*
X111252221Y18287727D01*
X111252219Y18285512D01*
X111059282Y18752458D01*
X110702337Y19110026D01*
X110235727Y19303779D01*
X109730490Y19304220D01*
X109263542Y19111282D01*
X108905974Y18754337D01*
X108712221Y18287727D01*
X108711780Y17782490D01*
X107165111Y17782490D01*
X106978777Y17969149D01*
X106456174Y18186152D01*
X105890309Y18186646D01*
X105367328Y17970555D01*
X104966851Y17570777D01*
X104749848Y17048174D01*
X104749354Y16482309D01*
X508000Y16482309D01*
X508000Y23306616D01*
X95948313Y23306616D01*
X96112311Y22909711D01*
X96415714Y22605778D01*
X96659970Y22504354D01*
X96417311Y22404089D01*
X96113378Y22100686D01*
X95948687Y21704068D01*
X95948313Y21274616D01*
X96112311Y20877711D01*
X96415714Y20573778D01*
X96659970Y20472354D01*
X96417311Y20372089D01*
X96113378Y20068686D01*
X95948687Y19672068D01*
X95948313Y19242616D01*
X96112311Y18845711D01*
X96415714Y18541778D01*
X96812332Y18377087D01*
X97241784Y18376713D01*
X97638689Y18540711D01*
X97942622Y18844114D01*
X98107313Y19240732D01*
X98107687Y19670184D01*
X97943689Y20067089D01*
X97640286Y20371022D01*
X97396030Y20472446D01*
X97638689Y20572711D01*
X97942622Y20876114D01*
X98107313Y21272732D01*
X98107687Y21702184D01*
X97943689Y22099089D01*
X97640286Y22403022D01*
X97396030Y22504446D01*
X97638689Y22604711D01*
X97942622Y22908114D01*
X98107313Y23304732D01*
X98107687Y23734184D01*
X97943689Y24131089D01*
X97640286Y24435022D01*
X97243668Y24599713D01*
X96814216Y24600087D01*
X96417311Y24436089D01*
X96113378Y24132686D01*
X95948687Y23736068D01*
X95948313Y23306616D01*
X508000Y23306616D01*
X508000Y31434616D01*
X95948313Y31434616D01*
X96112311Y31037711D01*
X96415714Y30733778D01*
X96659970Y30632354D01*
X96417311Y30532089D01*
X96113378Y30228686D01*
X95948687Y29832068D01*
X95948313Y29402616D01*
X96112311Y29005711D01*
X96415714Y28701778D01*
X96659970Y28600354D01*
X96417311Y28500089D01*
X96113378Y28196686D01*
X95948687Y27800068D01*
X95948313Y27370616D01*
X96112311Y26973711D01*
X96415714Y26669778D01*
X96812332Y26505087D01*
X97241784Y26504713D01*
X97638689Y26668711D01*
X97942622Y26972114D01*
X98107313Y27368732D01*
X98107687Y27798184D01*
X97943689Y28195089D01*
X97640286Y28499022D01*
X97396030Y28600446D01*
X97638689Y28700711D01*
X97942622Y29004114D01*
X98107313Y29400732D01*
X98107687Y29830184D01*
X97943689Y30227089D01*
X97752496Y30418616D01*
X98488313Y30418616D01*
X98652311Y30021711D01*
X98955714Y29717778D01*
X99199970Y29616354D01*
X98957311Y29516089D01*
X98653378Y29212686D01*
X98488687Y28816068D01*
X98488313Y28386616D01*
X98652311Y27989711D01*
X98955714Y27685778D01*
X99199970Y27584354D01*
X98957311Y27484089D01*
X98653378Y27180686D01*
X98488687Y26784068D01*
X98488313Y26354616D01*
X98652311Y25957711D01*
X98955714Y25653778D01*
X99199970Y25552354D01*
X98957311Y25452089D01*
X98653378Y25148686D01*
X98488687Y24752068D01*
X98488313Y24322616D01*
X98652311Y23925711D01*
X98955714Y23621778D01*
X99199970Y23520354D01*
X98957311Y23420089D01*
X98653378Y23116686D01*
X98488687Y22720068D01*
X98488313Y22290616D01*
X98652311Y21893711D01*
X98955714Y21589778D01*
X99199970Y21488354D01*
X98957311Y21388089D01*
X98653378Y21084686D01*
X98488687Y20688068D01*
X98488313Y20258616D01*
X98652311Y19861711D01*
X98955714Y19557778D01*
X99352332Y19393087D01*
X99781784Y19392713D01*
X100178689Y19556711D01*
X100482622Y19860114D01*
X100647313Y20256732D01*
X100647332Y20278712D01*
X103911008Y20278712D01*
X104254439Y19447546D01*
X104889801Y18811074D01*
X105720366Y18466193D01*
X106619688Y18465408D01*
X107450854Y18808839D01*
X108087326Y19444201D01*
X108432207Y20274766D01*
X108432992Y21174088D01*
X108089561Y22005254D01*
X107454199Y22641726D01*
X106623634Y22986607D01*
X105724312Y22987392D01*
X104893146Y22643961D01*
X104256674Y22008599D01*
X103911793Y21178034D01*
X103911008Y20278712D01*
X100647332Y20278712D01*
X100647687Y20686184D01*
X100483689Y21083089D01*
X100180286Y21387022D01*
X99936030Y21488446D01*
X100178689Y21588711D01*
X100482622Y21892114D01*
X100647313Y22288732D01*
X100647687Y22718184D01*
X100483689Y23115089D01*
X100180286Y23419022D01*
X99936030Y23520446D01*
X100178689Y23620711D01*
X100482622Y23924114D01*
X100647313Y24320732D01*
X100647687Y24750184D01*
X100483689Y25147089D01*
X100180286Y25451022D01*
X99936030Y25552446D01*
X100178689Y25652711D01*
X100482622Y25956114D01*
X100647313Y26352732D01*
X100647687Y26782184D01*
X100483689Y27179089D01*
X100180286Y27483022D01*
X99936030Y27584446D01*
X100178689Y27684711D01*
X100482622Y27988114D01*
X100647313Y28384732D01*
X100647687Y28814184D01*
X100483689Y29211089D01*
X100180286Y29515022D01*
X99936030Y29616446D01*
X100178689Y29716711D01*
X100393063Y29930712D01*
X103911008Y29930712D01*
X104254439Y29099546D01*
X104889801Y28463074D01*
X105720366Y28118193D01*
X106619688Y28117408D01*
X107450854Y28460839D01*
X108087326Y29096201D01*
X108432207Y29926766D01*
X108432992Y30826088D01*
X108089561Y31657254D01*
X107454199Y32293726D01*
X106623634Y32638607D01*
X105724312Y32639392D01*
X104893146Y32295961D01*
X104256674Y31660599D01*
X103911793Y30830034D01*
X103911008Y29930712D01*
X100393063Y29930712D01*
X100482622Y30020114D01*
X100647313Y30416732D01*
X100647687Y30846184D01*
X100483689Y31243089D01*
X100180286Y31547022D01*
X99783668Y31711713D01*
X99354216Y31712087D01*
X98957311Y31548089D01*
X98653378Y31244686D01*
X98488687Y30848068D01*
X98488313Y30418616D01*
X97752496Y30418616D01*
X97640286Y30531022D01*
X97396030Y30632446D01*
X97638689Y30732711D01*
X97942622Y31036114D01*
X98107313Y31432732D01*
X98107687Y31862184D01*
X97943689Y32259089D01*
X97640286Y32563022D01*
X97243668Y32727713D01*
X96814216Y32728087D01*
X96417311Y32564089D01*
X96113378Y32260686D01*
X95948687Y31864068D01*
X95948313Y31434616D01*
X508000Y31434616D01*
X508000Y32819290D01*
X111251780Y32819290D01*
X111444718Y32352342D01*
X111801663Y31994774D01*
X112268273Y31801021D01*
X112773510Y31800580D01*
X113240458Y31993518D01*
X113598026Y32350463D01*
X113791779Y32817073D01*
X113791781Y32819288D01*
X113984718Y32352342D01*
X114341663Y31994774D01*
X114808273Y31801021D01*
X115313510Y31800580D01*
X115780458Y31993518D01*
X116138026Y32350463D01*
X116331779Y32817073D01*
X116332220Y33322310D01*
X116139282Y33789258D01*
X115782337Y34146826D01*
X115315727Y34340579D01*
X114810490Y34341020D01*
X114343542Y34148082D01*
X113985974Y33791137D01*
X113792221Y33324527D01*
X113792219Y33322312D01*
X113599282Y33789258D01*
X113242337Y34146826D01*
X112775727Y34340579D01*
X112270490Y34341020D01*
X111803542Y34148082D01*
X111445974Y33791137D01*
X111252221Y33324527D01*
X111251780Y32819290D01*
X508000Y32819290D01*
X508000Y34059109D01*
X104749354Y34059109D01*
X104965445Y33536128D01*
X105365223Y33135651D01*
X105887826Y32918648D01*
X106453691Y32918154D01*
X106976672Y33134245D01*
X107377149Y33534023D01*
X107594152Y34056626D01*
X107594646Y34622491D01*
X107378555Y35145472D01*
X106978777Y35545949D01*
X106456174Y35762952D01*
X105890309Y35763446D01*
X105367328Y35547355D01*
X104966851Y35147577D01*
X104749848Y34624974D01*
X104749354Y34059109D01*
X508000Y34059109D01*
X508000Y45488611D01*
X90271398Y45488611D01*
X90448901Y45059019D01*
X90777291Y44730057D01*
X91206571Y44551804D01*
X91671389Y44551398D01*
X92100981Y44728901D01*
X92429943Y45057291D01*
X92608196Y45486571D01*
X92608197Y45488611D01*
X92811398Y45488611D01*
X92988901Y45059019D01*
X93317291Y44730057D01*
X93746571Y44551804D01*
X94211389Y44551398D01*
X94640981Y44728901D01*
X94969943Y45057291D01*
X95148196Y45486571D01*
X95148602Y45951389D01*
X94971099Y46380981D01*
X94642709Y46709943D01*
X94213429Y46888196D01*
X93748611Y46888602D01*
X93319019Y46711099D01*
X92990057Y46382709D01*
X92811804Y45953429D01*
X92811398Y45488611D01*
X92608197Y45488611D01*
X92608602Y45951389D01*
X92431099Y46380981D01*
X92102709Y46709943D01*
X91673429Y46888196D01*
X91208611Y46888602D01*
X90779019Y46711099D01*
X90450057Y46382709D01*
X90271804Y45953429D01*
X90271398Y45488611D01*
X508000Y45488611D01*
X508000Y48028611D01*
X90271398Y48028611D01*
X90448901Y47599019D01*
X90777291Y47270057D01*
X91206571Y47091804D01*
X91671389Y47091398D01*
X92100981Y47268901D01*
X92429943Y47597291D01*
X92608196Y48026571D01*
X92608197Y48028611D01*
X92811398Y48028611D01*
X92988901Y47599019D01*
X93317291Y47270057D01*
X93746571Y47091804D01*
X94211389Y47091398D01*
X94640981Y47268901D01*
X94969943Y47597291D01*
X95148196Y48026571D01*
X95148602Y48491389D01*
X94971099Y48920981D01*
X94642709Y49249943D01*
X94565582Y49281969D01*
X100031579Y49281969D01*
X100031579Y47874047D01*
X100058146Y47732857D01*
X100141589Y47603182D01*
X100268909Y47516188D01*
X100420043Y47485583D01*
X101827965Y47485583D01*
X101969155Y47512150D01*
X102098830Y47595593D01*
X102185824Y47722913D01*
X102216429Y47874047D01*
X102216429Y49281969D01*
X102189862Y49423159D01*
X102106419Y49552834D01*
X101979099Y49639828D01*
X101827965Y49670433D01*
X101750555Y49670433D01*
X102043253Y49962620D01*
X102208777Y50361245D01*
X102209153Y50792869D01*
X102044326Y51191782D01*
X101739388Y51497253D01*
X101544937Y51577996D01*
X101737782Y51657678D01*
X102043253Y51962616D01*
X102208777Y52361241D01*
X102209153Y52792865D01*
X102044326Y53191778D01*
X101739388Y53497249D01*
X101544937Y53577992D01*
X101737782Y53657674D01*
X102043253Y53962612D01*
X102208777Y54361237D01*
X102209153Y54792861D01*
X102044326Y55191774D01*
X101739388Y55497245D01*
X101544937Y55577988D01*
X101737782Y55657670D01*
X102043253Y55962608D01*
X102208777Y56361233D01*
X102209153Y56792857D01*
X102044326Y57191770D01*
X101739388Y57497241D01*
X101544937Y57577984D01*
X101737782Y57657666D01*
X102043253Y57962604D01*
X102208777Y58361229D01*
X102209153Y58792853D01*
X102044326Y59191766D01*
X101739388Y59497237D01*
X101544937Y59577980D01*
X101737782Y59657662D01*
X102043253Y59962600D01*
X102208777Y60361225D01*
X102209153Y60792849D01*
X102044326Y61191762D01*
X101739388Y61497233D01*
X101340763Y61662757D01*
X100909139Y61663133D01*
X100510226Y61498306D01*
X100204755Y61193368D01*
X100039231Y60794743D01*
X100038855Y60363119D01*
X100203682Y59964206D01*
X100508620Y59658735D01*
X100703071Y59577992D01*
X100510226Y59498310D01*
X100204755Y59193372D01*
X100039231Y58794747D01*
X100038855Y58363123D01*
X100203682Y57964210D01*
X100508620Y57658739D01*
X100703071Y57577996D01*
X100510226Y57498314D01*
X100204755Y57193376D01*
X100039231Y56794751D01*
X100038855Y56363127D01*
X100203682Y55964214D01*
X100508620Y55658743D01*
X100703071Y55578000D01*
X100510226Y55498318D01*
X100204755Y55193380D01*
X100039231Y54794755D01*
X100038855Y54363131D01*
X100203682Y53964218D01*
X100508620Y53658747D01*
X100703071Y53578004D01*
X100510226Y53498322D01*
X100204755Y53193384D01*
X100039231Y52794759D01*
X100038855Y52363135D01*
X100203682Y51964222D01*
X100508620Y51658751D01*
X100703071Y51578008D01*
X100510226Y51498326D01*
X100204755Y51193388D01*
X100039231Y50794763D01*
X100038855Y50363139D01*
X100203682Y49964226D01*
X100496962Y49670433D01*
X100420043Y49670433D01*
X100278853Y49643866D01*
X100149178Y49560423D01*
X100062184Y49433103D01*
X100031579Y49281969D01*
X94565582Y49281969D01*
X94213429Y49428196D01*
X93748611Y49428602D01*
X93319019Y49251099D01*
X92990057Y48922709D01*
X92811804Y48493429D01*
X92811398Y48028611D01*
X92608197Y48028611D01*
X92608602Y48491389D01*
X92431099Y48920981D01*
X92102709Y49249943D01*
X91673429Y49428196D01*
X91208611Y49428602D01*
X90779019Y49251099D01*
X90450057Y48922709D01*
X90271804Y48493429D01*
X90271398Y48028611D01*
X508000Y48028611D01*
X508000Y50568611D01*
X90271398Y50568611D01*
X90448901Y50139019D01*
X90777291Y49810057D01*
X91206571Y49631804D01*
X91671389Y49631398D01*
X92100981Y49808901D01*
X92429943Y50137291D01*
X92608196Y50566571D01*
X92608197Y50568611D01*
X92811398Y50568611D01*
X92988901Y50139019D01*
X93317291Y49810057D01*
X93746571Y49631804D01*
X94211389Y49631398D01*
X94640981Y49808901D01*
X94969943Y50137291D01*
X95148196Y50566571D01*
X95148602Y51031389D01*
X94971099Y51460981D01*
X94642709Y51789943D01*
X94213429Y51968196D01*
X93748611Y51968602D01*
X93319019Y51791099D01*
X92990057Y51462709D01*
X92811804Y51033429D01*
X92811398Y50568611D01*
X92608197Y50568611D01*
X92608602Y51031389D01*
X92431099Y51460981D01*
X92102709Y51789943D01*
X91673429Y51968196D01*
X91208611Y51968602D01*
X90779019Y51791099D01*
X90450057Y51462709D01*
X90271804Y51033429D01*
X90271398Y50568611D01*
X508000Y50568611D01*
X508000Y55648611D01*
X90271398Y55648611D01*
X90448901Y55219019D01*
X90777291Y54890057D01*
X91206571Y54711804D01*
X91671389Y54711398D01*
X92100981Y54888901D01*
X92429943Y55217291D01*
X92608196Y55646571D01*
X92608197Y55648611D01*
X92811398Y55648611D01*
X92988901Y55219019D01*
X93317291Y54890057D01*
X93746571Y54711804D01*
X94211389Y54711398D01*
X94640981Y54888901D01*
X94969943Y55217291D01*
X95148196Y55646571D01*
X95148602Y56111389D01*
X94971099Y56540981D01*
X94642709Y56869943D01*
X94213429Y57048196D01*
X93748611Y57048602D01*
X93319019Y56871099D01*
X92990057Y56542709D01*
X92811804Y56113429D01*
X92811398Y55648611D01*
X92608197Y55648611D01*
X92608602Y56111389D01*
X92431099Y56540981D01*
X92102709Y56869943D01*
X91673429Y57048196D01*
X91208611Y57048602D01*
X90779019Y56871099D01*
X90450057Y56542709D01*
X90271804Y56113429D01*
X90271398Y55648611D01*
X508000Y55648611D01*
X508000Y60728611D01*
X90271398Y60728611D01*
X90448901Y60299019D01*
X90777291Y59970057D01*
X91206571Y59791804D01*
X91671389Y59791398D01*
X92100981Y59968901D01*
X92429943Y60297291D01*
X92608196Y60726571D01*
X92608197Y60728611D01*
X92811398Y60728611D01*
X92988901Y60299019D01*
X93317291Y59970057D01*
X93746571Y59791804D01*
X94211389Y59791398D01*
X94640981Y59968901D01*
X94969943Y60297291D01*
X95148196Y60726571D01*
X95148602Y61191389D01*
X94971099Y61620981D01*
X94642709Y61949943D01*
X94213429Y62128196D01*
X93748611Y62128602D01*
X93319019Y61951099D01*
X92990057Y61622709D01*
X92811804Y61193429D01*
X92811398Y60728611D01*
X92608197Y60728611D01*
X92608602Y61191389D01*
X92431099Y61620981D01*
X92102709Y61949943D01*
X91673429Y62128196D01*
X91208611Y62128602D01*
X90779019Y61951099D01*
X90450057Y61622709D01*
X90271804Y61193429D01*
X90271398Y60728611D01*
X508000Y60728611D01*
X508000Y72592617D01*
X112378668Y72592617D01*
X112668076Y71892196D01*
X113203493Y71355843D01*
X113903408Y71065214D01*
X114661263Y71064552D01*
X115361684Y71353960D01*
X115898037Y71889377D01*
X116188666Y72589292D01*
X116189328Y73347147D01*
X115899920Y74047568D01*
X115364503Y74583921D01*
X114664588Y74874550D01*
X113906733Y74875212D01*
X113206312Y74585804D01*
X112669959Y74050387D01*
X112379330Y73350472D01*
X112378668Y72592617D01*
X508000Y72592617D01*
X508000Y77067584D01*
X105251660Y77067584D01*
X105560362Y76320468D01*
X106131474Y75748359D01*
X106878049Y75438354D01*
X107686428Y75437648D01*
X108433544Y75746350D01*
X109005653Y76317462D01*
X109315658Y77064037D01*
X109316364Y77872416D01*
X109007662Y78619532D01*
X108436550Y79191641D01*
X107689975Y79501646D01*
X106881596Y79502352D01*
X106134480Y79193650D01*
X105562371Y78622538D01*
X105252366Y77875963D01*
X105251660Y77067584D01*
X508000Y77067584D01*
X508000Y81592853D01*
X112378668Y81592853D01*
X112668076Y80892432D01*
X113203493Y80356079D01*
X113903408Y80065450D01*
X114661263Y80064788D01*
X115361684Y80354196D01*
X115898037Y80889613D01*
X116188666Y81589528D01*
X116189328Y82347383D01*
X115899920Y83047804D01*
X115364503Y83584157D01*
X114664588Y83874786D01*
X113906733Y83875448D01*
X113206312Y83586040D01*
X112669959Y83050623D01*
X112379330Y82350708D01*
X112378668Y81592853D01*
X508000Y81592853D01*
X508000Y98552000D01*
X117348000Y98552000D01*
X117348000Y78435446D01*
X117348000Y78435446D01*
G37*
X117348000Y78435446D02*
X117097974Y78685909D01*
X116570705Y78904850D01*
X115999787Y78905348D01*
X115472137Y78687328D01*
X115068085Y78283980D01*
X114849144Y77756711D01*
X114848646Y77185793D01*
X115066666Y76658143D01*
X115470014Y76254091D01*
X115997283Y76035150D01*
X116568201Y76034652D01*
X117095851Y76252672D01*
X117348000Y76504382D01*
X117348000Y508000D01*
X508000Y508000D01*
X508000Y16482309D01*
X104749354Y16482309D01*
X104965445Y15959328D01*
X105365223Y15558851D01*
X105887826Y15341848D01*
X106453691Y15341354D01*
X106976672Y15557445D01*
X107377149Y15957223D01*
X107594152Y16479826D01*
X107594646Y17045691D01*
X107378555Y17568672D01*
X107165111Y17782490D01*
X108711780Y17782490D01*
X108904718Y17315542D01*
X109261663Y16957974D01*
X109728273Y16764221D01*
X110233510Y16763780D01*
X110700458Y16956718D01*
X111058026Y17313663D01*
X111251779Y17780273D01*
X111251781Y17782488D01*
X111444718Y17315542D01*
X111801663Y16957974D01*
X112268273Y16764221D01*
X112773510Y16763780D01*
X113240458Y16956718D01*
X113598026Y17313663D01*
X113791779Y17780273D01*
X113791781Y17782488D01*
X113984718Y17315542D01*
X114341663Y16957974D01*
X114808273Y16764221D01*
X115313510Y16763780D01*
X115780458Y16956718D01*
X116138026Y17313663D01*
X116331779Y17780273D01*
X116332220Y18285510D01*
X116139282Y18752458D01*
X115782337Y19110026D01*
X115315727Y19303779D01*
X114810490Y19304220D01*
X114343542Y19111282D01*
X113985974Y18754337D01*
X113792221Y18287727D01*
X113792219Y18285512D01*
X113599282Y18752458D01*
X113242337Y19110026D01*
X112775727Y19303779D01*
X112270490Y19304220D01*
X111803542Y19111282D01*
X111445974Y18754337D01*
X111252221Y18287727D01*
X111252219Y18285512D01*
X111059282Y18752458D01*
X110702337Y19110026D01*
X110235727Y19303779D01*
X109730490Y19304220D01*
X109263542Y19111282D01*
X108905974Y18754337D01*
X108712221Y18287727D01*
X108711780Y17782490D01*
X107165111Y17782490D01*
X106978777Y17969149D01*
X106456174Y18186152D01*
X105890309Y18186646D01*
X105367328Y17970555D01*
X104966851Y17570777D01*
X104749848Y17048174D01*
X104749354Y16482309D01*
X508000Y16482309D01*
X508000Y23306616D01*
X95948313Y23306616D01*
X96112311Y22909711D01*
X96415714Y22605778D01*
X96659970Y22504354D01*
X96417311Y22404089D01*
X96113378Y22100686D01*
X95948687Y21704068D01*
X95948313Y21274616D01*
X96112311Y20877711D01*
X96415714Y20573778D01*
X96659970Y20472354D01*
X96417311Y20372089D01*
X96113378Y20068686D01*
X95948687Y19672068D01*
X95948313Y19242616D01*
X96112311Y18845711D01*
X96415714Y18541778D01*
X96812332Y18377087D01*
X97241784Y18376713D01*
X97638689Y18540711D01*
X97942622Y18844114D01*
X98107313Y19240732D01*
X98107687Y19670184D01*
X97943689Y20067089D01*
X97640286Y20371022D01*
X97396030Y20472446D01*
X97638689Y20572711D01*
X97942622Y20876114D01*
X98107313Y21272732D01*
X98107687Y21702184D01*
X97943689Y22099089D01*
X97640286Y22403022D01*
X97396030Y22504446D01*
X97638689Y22604711D01*
X97942622Y22908114D01*
X98107313Y23304732D01*
X98107687Y23734184D01*
X97943689Y24131089D01*
X97640286Y24435022D01*
X97243668Y24599713D01*
X96814216Y24600087D01*
X96417311Y24436089D01*
X96113378Y24132686D01*
X95948687Y23736068D01*
X95948313Y23306616D01*
X508000Y23306616D01*
X508000Y31434616D01*
X95948313Y31434616D01*
X96112311Y31037711D01*
X96415714Y30733778D01*
X96659970Y30632354D01*
X96417311Y30532089D01*
X96113378Y30228686D01*
X95948687Y29832068D01*
X95948313Y29402616D01*
X96112311Y29005711D01*
X96415714Y28701778D01*
X96659970Y28600354D01*
X96417311Y28500089D01*
X96113378Y28196686D01*
X95948687Y27800068D01*
X95948313Y27370616D01*
X96112311Y26973711D01*
X96415714Y26669778D01*
X96812332Y26505087D01*
X97241784Y26504713D01*
X97638689Y26668711D01*
X97942622Y26972114D01*
X98107313Y27368732D01*
X98107687Y27798184D01*
X97943689Y28195089D01*
X97640286Y28499022D01*
X97396030Y28600446D01*
X97638689Y28700711D01*
X97942622Y29004114D01*
X98107313Y29400732D01*
X98107687Y29830184D01*
X97943689Y30227089D01*
X97752496Y30418616D01*
X98488313Y30418616D01*
X98652311Y30021711D01*
X98955714Y29717778D01*
X99199970Y29616354D01*
X98957311Y29516089D01*
X98653378Y29212686D01*
X98488687Y28816068D01*
X98488313Y28386616D01*
X98652311Y27989711D01*
X98955714Y27685778D01*
X99199970Y27584354D01*
X98957311Y27484089D01*
X98653378Y27180686D01*
X98488687Y26784068D01*
X98488313Y26354616D01*
X98652311Y25957711D01*
X98955714Y25653778D01*
X99199970Y25552354D01*
X98957311Y25452089D01*
X98653378Y25148686D01*
X98488687Y24752068D01*
X98488313Y24322616D01*
X98652311Y23925711D01*
X98955714Y23621778D01*
X99199970Y23520354D01*
X98957311Y23420089D01*
X98653378Y23116686D01*
X98488687Y22720068D01*
X98488313Y22290616D01*
X98652311Y21893711D01*
X98955714Y21589778D01*
X99199970Y21488354D01*
X98957311Y21388089D01*
X98653378Y21084686D01*
X98488687Y20688068D01*
X98488313Y20258616D01*
X98652311Y19861711D01*
X98955714Y19557778D01*
X99352332Y19393087D01*
X99781784Y19392713D01*
X100178689Y19556711D01*
X100482622Y19860114D01*
X100647313Y20256732D01*
X100647332Y20278712D01*
X103911008Y20278712D01*
X104254439Y19447546D01*
X104889801Y18811074D01*
X105720366Y18466193D01*
X106619688Y18465408D01*
X107450854Y18808839D01*
X108087326Y19444201D01*
X108432207Y20274766D01*
X108432992Y21174088D01*
X108089561Y22005254D01*
X107454199Y22641726D01*
X106623634Y22986607D01*
X105724312Y22987392D01*
X104893146Y22643961D01*
X104256674Y22008599D01*
X103911793Y21178034D01*
X103911008Y20278712D01*
X100647332Y20278712D01*
X100647687Y20686184D01*
X100483689Y21083089D01*
X100180286Y21387022D01*
X99936030Y21488446D01*
X100178689Y21588711D01*
X100482622Y21892114D01*
X100647313Y22288732D01*
X100647687Y22718184D01*
X100483689Y23115089D01*
X100180286Y23419022D01*
X99936030Y23520446D01*
X100178689Y23620711D01*
X100482622Y23924114D01*
X100647313Y24320732D01*
X100647687Y24750184D01*
X100483689Y25147089D01*
X100180286Y25451022D01*
X99936030Y25552446D01*
X100178689Y25652711D01*
X100482622Y25956114D01*
X100647313Y26352732D01*
X100647687Y26782184D01*
X100483689Y27179089D01*
X100180286Y27483022D01*
X99936030Y27584446D01*
X100178689Y27684711D01*
X100482622Y27988114D01*
X100647313Y28384732D01*
X100647687Y28814184D01*
X100483689Y29211089D01*
X100180286Y29515022D01*
X99936030Y29616446D01*
X100178689Y29716711D01*
X100393063Y29930712D01*
X103911008Y29930712D01*
X104254439Y29099546D01*
X104889801Y28463074D01*
X105720366Y28118193D01*
X106619688Y28117408D01*
X107450854Y28460839D01*
X108087326Y29096201D01*
X108432207Y29926766D01*
X108432992Y30826088D01*
X108089561Y31657254D01*
X107454199Y32293726D01*
X106623634Y32638607D01*
X105724312Y32639392D01*
X104893146Y32295961D01*
X104256674Y31660599D01*
X103911793Y30830034D01*
X103911008Y29930712D01*
X100393063Y29930712D01*
X100482622Y30020114D01*
X100647313Y30416732D01*
X100647687Y30846184D01*
X100483689Y31243089D01*
X100180286Y31547022D01*
X99783668Y31711713D01*
X99354216Y31712087D01*
X98957311Y31548089D01*
X98653378Y31244686D01*
X98488687Y30848068D01*
X98488313Y30418616D01*
X97752496Y30418616D01*
X97640286Y30531022D01*
X97396030Y30632446D01*
X97638689Y30732711D01*
X97942622Y31036114D01*
X98107313Y31432732D01*
X98107687Y31862184D01*
X97943689Y32259089D01*
X97640286Y32563022D01*
X97243668Y32727713D01*
X96814216Y32728087D01*
X96417311Y32564089D01*
X96113378Y32260686D01*
X95948687Y31864068D01*
X95948313Y31434616D01*
X508000Y31434616D01*
X508000Y32819290D01*
X111251780Y32819290D01*
X111444718Y32352342D01*
X111801663Y31994774D01*
X112268273Y31801021D01*
X112773510Y31800580D01*
X113240458Y31993518D01*
X113598026Y32350463D01*
X113791779Y32817073D01*
X113791781Y32819288D01*
X113984718Y32352342D01*
X114341663Y31994774D01*
X114808273Y31801021D01*
X115313510Y31800580D01*
X115780458Y31993518D01*
X116138026Y32350463D01*
X116331779Y32817073D01*
X116332220Y33322310D01*
X116139282Y33789258D01*
X115782337Y34146826D01*
X115315727Y34340579D01*
X114810490Y34341020D01*
X114343542Y34148082D01*
X113985974Y33791137D01*
X113792221Y33324527D01*
X113792219Y33322312D01*
X113599282Y33789258D01*
X113242337Y34146826D01*
X112775727Y34340579D01*
X112270490Y34341020D01*
X111803542Y34148082D01*
X111445974Y33791137D01*
X111252221Y33324527D01*
X111251780Y32819290D01*
X508000Y32819290D01*
X508000Y34059109D01*
X104749354Y34059109D01*
X104965445Y33536128D01*
X105365223Y33135651D01*
X105887826Y32918648D01*
X106453691Y32918154D01*
X106976672Y33134245D01*
X107377149Y33534023D01*
X107594152Y34056626D01*
X107594646Y34622491D01*
X107378555Y35145472D01*
X106978777Y35545949D01*
X106456174Y35762952D01*
X105890309Y35763446D01*
X105367328Y35547355D01*
X104966851Y35147577D01*
X104749848Y34624974D01*
X104749354Y34059109D01*
X508000Y34059109D01*
X508000Y45488611D01*
X90271398Y45488611D01*
X90448901Y45059019D01*
X90777291Y44730057D01*
X91206571Y44551804D01*
X91671389Y44551398D01*
X92100981Y44728901D01*
X92429943Y45057291D01*
X92608196Y45486571D01*
X92608197Y45488611D01*
X92811398Y45488611D01*
X92988901Y45059019D01*
X93317291Y44730057D01*
X93746571Y44551804D01*
X94211389Y44551398D01*
X94640981Y44728901D01*
X94969943Y45057291D01*
X95148196Y45486571D01*
X95148602Y45951389D01*
X94971099Y46380981D01*
X94642709Y46709943D01*
X94213429Y46888196D01*
X93748611Y46888602D01*
X93319019Y46711099D01*
X92990057Y46382709D01*
X92811804Y45953429D01*
X92811398Y45488611D01*
X92608197Y45488611D01*
X92608602Y45951389D01*
X92431099Y46380981D01*
X92102709Y46709943D01*
X91673429Y46888196D01*
X91208611Y46888602D01*
X90779019Y46711099D01*
X90450057Y46382709D01*
X90271804Y45953429D01*
X90271398Y45488611D01*
X508000Y45488611D01*
X508000Y48028611D01*
X90271398Y48028611D01*
X90448901Y47599019D01*
X90777291Y47270057D01*
X91206571Y47091804D01*
X91671389Y47091398D01*
X92100981Y47268901D01*
X92429943Y47597291D01*
X92608196Y48026571D01*
X92608197Y48028611D01*
X92811398Y48028611D01*
X92988901Y47599019D01*
X93317291Y47270057D01*
X93746571Y47091804D01*
X94211389Y47091398D01*
X94640981Y47268901D01*
X94969943Y47597291D01*
X95148196Y48026571D01*
X95148602Y48491389D01*
X94971099Y48920981D01*
X94642709Y49249943D01*
X94565582Y49281969D01*
X100031579Y49281969D01*
X100031579Y47874047D01*
X100058146Y47732857D01*
X100141589Y47603182D01*
X100268909Y47516188D01*
X100420043Y47485583D01*
X101827965Y47485583D01*
X101969155Y47512150D01*
X102098830Y47595593D01*
X102185824Y47722913D01*
X102216429Y47874047D01*
X102216429Y49281969D01*
X102189862Y49423159D01*
X102106419Y49552834D01*
X101979099Y49639828D01*
X101827965Y49670433D01*
X101750555Y49670433D01*
X102043253Y49962620D01*
X102208777Y50361245D01*
X102209153Y50792869D01*
X102044326Y51191782D01*
X101739388Y51497253D01*
X101544937Y51577996D01*
X101737782Y51657678D01*
X102043253Y51962616D01*
X102208777Y52361241D01*
X102209153Y52792865D01*
X102044326Y53191778D01*
X101739388Y53497249D01*
X101544937Y53577992D01*
X101737782Y53657674D01*
X102043253Y53962612D01*
X102208777Y54361237D01*
X102209153Y54792861D01*
X102044326Y55191774D01*
X101739388Y55497245D01*
X101544937Y55577988D01*
X101737782Y55657670D01*
X102043253Y55962608D01*
X102208777Y56361233D01*
X102209153Y56792857D01*
X102044326Y57191770D01*
X101739388Y57497241D01*
X101544937Y57577984D01*
X101737782Y57657666D01*
X102043253Y57962604D01*
X102208777Y58361229D01*
X102209153Y58792853D01*
X102044326Y59191766D01*
X101739388Y59497237D01*
X101544937Y59577980D01*
X101737782Y59657662D01*
X102043253Y59962600D01*
X102208777Y60361225D01*
X102209153Y60792849D01*
X102044326Y61191762D01*
X101739388Y61497233D01*
X101340763Y61662757D01*
X100909139Y61663133D01*
X100510226Y61498306D01*
X100204755Y61193368D01*
X100039231Y60794743D01*
X100038855Y60363119D01*
X100203682Y59964206D01*
X100508620Y59658735D01*
X100703071Y59577992D01*
X100510226Y59498310D01*
X100204755Y59193372D01*
X100039231Y58794747D01*
X100038855Y58363123D01*
X100203682Y57964210D01*
X100508620Y57658739D01*
X100703071Y57577996D01*
X100510226Y57498314D01*
X100204755Y57193376D01*
X100039231Y56794751D01*
X100038855Y56363127D01*
X100203682Y55964214D01*
X100508620Y55658743D01*
X100703071Y55578000D01*
X100510226Y55498318D01*
X100204755Y55193380D01*
X100039231Y54794755D01*
X100038855Y54363131D01*
X100203682Y53964218D01*
X100508620Y53658747D01*
X100703071Y53578004D01*
X100510226Y53498322D01*
X100204755Y53193384D01*
X100039231Y52794759D01*
X100038855Y52363135D01*
X100203682Y51964222D01*
X100508620Y51658751D01*
X100703071Y51578008D01*
X100510226Y51498326D01*
X100204755Y51193388D01*
X100039231Y50794763D01*
X100038855Y50363139D01*
X100203682Y49964226D01*
X100496962Y49670433D01*
X100420043Y49670433D01*
X100278853Y49643866D01*
X100149178Y49560423D01*
X100062184Y49433103D01*
X100031579Y49281969D01*
X94565582Y49281969D01*
X94213429Y49428196D01*
X93748611Y49428602D01*
X93319019Y49251099D01*
X92990057Y48922709D01*
X92811804Y48493429D01*
X92811398Y48028611D01*
X92608197Y48028611D01*
X92608602Y48491389D01*
X92431099Y48920981D01*
X92102709Y49249943D01*
X91673429Y49428196D01*
X91208611Y49428602D01*
X90779019Y49251099D01*
X90450057Y48922709D01*
X90271804Y48493429D01*
X90271398Y48028611D01*
X508000Y48028611D01*
X508000Y50568611D01*
X90271398Y50568611D01*
X90448901Y50139019D01*
X90777291Y49810057D01*
X91206571Y49631804D01*
X91671389Y49631398D01*
X92100981Y49808901D01*
X92429943Y50137291D01*
X92608196Y50566571D01*
X92608197Y50568611D01*
X92811398Y50568611D01*
X92988901Y50139019D01*
X93317291Y49810057D01*
X93746571Y49631804D01*
X94211389Y49631398D01*
X94640981Y49808901D01*
X94969943Y50137291D01*
X95148196Y50566571D01*
X95148602Y51031389D01*
X94971099Y51460981D01*
X94642709Y51789943D01*
X94213429Y51968196D01*
X93748611Y51968602D01*
X93319019Y51791099D01*
X92990057Y51462709D01*
X92811804Y51033429D01*
X92811398Y50568611D01*
X92608197Y50568611D01*
X92608602Y51031389D01*
X92431099Y51460981D01*
X92102709Y51789943D01*
X91673429Y51968196D01*
X91208611Y51968602D01*
X90779019Y51791099D01*
X90450057Y51462709D01*
X90271804Y51033429D01*
X90271398Y50568611D01*
X508000Y50568611D01*
X508000Y55648611D01*
X90271398Y55648611D01*
X90448901Y55219019D01*
X90777291Y54890057D01*
X91206571Y54711804D01*
X91671389Y54711398D01*
X92100981Y54888901D01*
X92429943Y55217291D01*
X92608196Y55646571D01*
X92608197Y55648611D01*
X92811398Y55648611D01*
X92988901Y55219019D01*
X93317291Y54890057D01*
X93746571Y54711804D01*
X94211389Y54711398D01*
X94640981Y54888901D01*
X94969943Y55217291D01*
X95148196Y55646571D01*
X95148602Y56111389D01*
X94971099Y56540981D01*
X94642709Y56869943D01*
X94213429Y57048196D01*
X93748611Y57048602D01*
X93319019Y56871099D01*
X92990057Y56542709D01*
X92811804Y56113429D01*
X92811398Y55648611D01*
X92608197Y55648611D01*
X92608602Y56111389D01*
X92431099Y56540981D01*
X92102709Y56869943D01*
X91673429Y57048196D01*
X91208611Y57048602D01*
X90779019Y56871099D01*
X90450057Y56542709D01*
X90271804Y56113429D01*
X90271398Y55648611D01*
X508000Y55648611D01*
X508000Y60728611D01*
X90271398Y60728611D01*
X90448901Y60299019D01*
X90777291Y59970057D01*
X91206571Y59791804D01*
X91671389Y59791398D01*
X92100981Y59968901D01*
X92429943Y60297291D01*
X92608196Y60726571D01*
X92608197Y60728611D01*
X92811398Y60728611D01*
X92988901Y60299019D01*
X93317291Y59970057D01*
X93746571Y59791804D01*
X94211389Y59791398D01*
X94640981Y59968901D01*
X94969943Y60297291D01*
X95148196Y60726571D01*
X95148602Y61191389D01*
X94971099Y61620981D01*
X94642709Y61949943D01*
X94213429Y62128196D01*
X93748611Y62128602D01*
X93319019Y61951099D01*
X92990057Y61622709D01*
X92811804Y61193429D01*
X92811398Y60728611D01*
X92608197Y60728611D01*
X92608602Y61191389D01*
X92431099Y61620981D01*
X92102709Y61949943D01*
X91673429Y62128196D01*
X91208611Y62128602D01*
X90779019Y61951099D01*
X90450057Y61622709D01*
X90271804Y61193429D01*
X90271398Y60728611D01*
X508000Y60728611D01*
X508000Y72592617D01*
X112378668Y72592617D01*
X112668076Y71892196D01*
X113203493Y71355843D01*
X113903408Y71065214D01*
X114661263Y71064552D01*
X115361684Y71353960D01*
X115898037Y71889377D01*
X116188666Y72589292D01*
X116189328Y73347147D01*
X115899920Y74047568D01*
X115364503Y74583921D01*
X114664588Y74874550D01*
X113906733Y74875212D01*
X113206312Y74585804D01*
X112669959Y74050387D01*
X112379330Y73350472D01*
X112378668Y72592617D01*
X508000Y72592617D01*
X508000Y77067584D01*
X105251660Y77067584D01*
X105560362Y76320468D01*
X106131474Y75748359D01*
X106878049Y75438354D01*
X107686428Y75437648D01*
X108433544Y75746350D01*
X109005653Y76317462D01*
X109315658Y77064037D01*
X109316364Y77872416D01*
X109007662Y78619532D01*
X108436550Y79191641D01*
X107689975Y79501646D01*
X106881596Y79502352D01*
X106134480Y79193650D01*
X105562371Y78622538D01*
X105252366Y77875963D01*
X105251660Y77067584D01*
X508000Y77067584D01*
X508000Y81592853D01*
X112378668Y81592853D01*
X112668076Y80892432D01*
X113203493Y80356079D01*
X113903408Y80065450D01*
X114661263Y80064788D01*
X115361684Y80354196D01*
X115898037Y80889613D01*
X116188666Y81589528D01*
X116189328Y82347383D01*
X115899920Y83047804D01*
X115364503Y83584157D01*
X114664588Y83874786D01*
X113906733Y83875448D01*
X113206312Y83586040D01*
X112669959Y83050623D01*
X112379330Y82350708D01*
X112378668Y81592853D01*
X508000Y81592853D01*
X508000Y98552000D01*
X117348000Y98552000D01*
X117348000Y78435446D01*
M02*
