G04 #@! TF.FileFunction,Soldermask,Bot*
%FSLAX46Y46*%
G04 Gerber Fmt 4.6, Leading zero omitted, Abs format (unit mm)*
G04 Created by KiCad (PCBNEW 4.0.5) date Thu Apr  6 00:21:21 2017*
%MOMM*%
%LPD*%
G01*
G04 APERTURE LIST*
%ADD10C,0.100000*%
%ADD11C,0.711200*%
%ADD12R,0.711200X0.660400*%
%ADD13R,0.660400X0.711200*%
%ADD14R,1.452400X1.652400*%
%ADD15R,1.652400X1.452400*%
%ADD16R,1.152400X0.902400*%
%ADD17R,0.902400X1.152400*%
%ADD18R,1.661922X1.661922*%
%ADD19C,1.661922*%
%ADD20C,1.651000*%
%ADD21C,2.032000*%
%ADD22C,2.336800*%
%ADD23C,4.013200*%
%ADD24C,3.302000*%
%ADD25C,2.362200*%
%ADD26C,3.048000*%
%ADD27C,3.556000*%
%ADD28C,1.828800*%
%ADD29C,4.826000*%
%ADD30C,2.000000*%
%ADD31R,4.826000X3.302000*%
%ADD32C,0.660400*%
G04 APERTURE END LIST*
D10*
D11*
X68910200Y62306200D03*
X58470800Y51003200D03*
X59690000Y51993800D03*
X58496200Y51943000D03*
X69570600Y63017400D03*
X68148200Y63068200D03*
X69545200Y64541400D03*
X68224400Y64490600D03*
X74726800Y89789000D03*
X74142600Y90678000D03*
X73863200Y89789000D03*
X73177400Y90652600D03*
X72898000Y89763600D03*
X72339200Y90652600D03*
X71882000Y89738200D03*
X71374000Y90652600D03*
X57531000Y88849200D03*
X57531000Y90576400D03*
X86207600Y88036400D03*
X85242400Y87020400D03*
X84582000Y88087200D03*
X82727800Y88112600D03*
X82753200Y85775800D03*
X80949800Y75031600D03*
X80924400Y73761600D03*
X81432400Y73177400D03*
X88519000Y75082400D03*
X87452200Y75057000D03*
X87985600Y74015600D03*
X87376000Y73126600D03*
X96139000Y74726800D03*
X96901000Y75641200D03*
X97028000Y83870800D03*
X96139000Y84658200D03*
X63220600Y85572600D03*
X95224600Y83870800D03*
X61950600Y85521800D03*
X59131200Y88036400D03*
X60020200Y87096600D03*
X60985400Y88061800D03*
X61391800Y86893400D03*
X51866800Y88747600D03*
X50800000Y88722200D03*
X51892200Y90627200D03*
X50876200Y90627200D03*
D12*
X43103800Y18389600D03*
X44069000Y18389600D03*
X43103800Y19304000D03*
X44069000Y19304000D03*
D13*
X42418000Y21215600D03*
X42418000Y22180800D03*
D12*
X69424800Y57073800D03*
X68459600Y57073800D03*
D14*
X64076400Y55219600D03*
X62276400Y55219600D03*
D12*
X61468000Y64262000D03*
X60502800Y64262000D03*
X62294010Y51409600D03*
X61328810Y51409600D03*
X57690000Y54559200D03*
X56724800Y54559200D03*
X57690000Y57658000D03*
X56724800Y57658000D03*
X54254400Y64236600D03*
X55219600Y64236600D03*
D15*
X64516000Y65702000D03*
X64516000Y63902000D03*
D12*
X71202800Y56083200D03*
X70237600Y56083200D03*
D13*
X54838600Y66649600D03*
X54838600Y65684400D03*
X59512200Y66649600D03*
X59512200Y65684400D03*
X57099200Y66649600D03*
X57099200Y65684400D03*
X66236600Y49149000D03*
X66236600Y50114200D03*
D14*
X70597600Y50342800D03*
X68797600Y50342800D03*
D13*
X58801000Y49174400D03*
X58801000Y50139600D03*
X64084200Y49181000D03*
X64084200Y50146200D03*
D12*
X54214520Y59918600D03*
X55179720Y59918600D03*
D14*
X54908120Y50495200D03*
X56708120Y50495200D03*
D12*
X54224680Y62687200D03*
X55189880Y62687200D03*
X54173880Y56159400D03*
X55139080Y56159400D03*
D13*
X66217800Y66649600D03*
X66217800Y65684400D03*
D14*
X56432120Y61163200D03*
X58232120Y61163200D03*
D13*
X68529200Y66649600D03*
X68529200Y65684400D03*
D12*
X71856600Y65760600D03*
X70891400Y65760600D03*
X71812400Y63042800D03*
X70847200Y63042800D03*
D14*
X70756600Y54660800D03*
X68956600Y54660800D03*
D12*
X71583800Y59563000D03*
X70618600Y59563000D03*
X71761600Y52679600D03*
X70796400Y52679600D03*
X67659000Y24561800D03*
X66693800Y24561800D03*
X64566800Y32054800D03*
X63601600Y32054800D03*
X66979800Y35661600D03*
X66014600Y35661600D03*
X70224400Y38481000D03*
X69259200Y38481000D03*
X67614800Y37312600D03*
X68580000Y37312600D03*
X63931800Y25247600D03*
X62966600Y25247600D03*
D14*
X62926800Y35179000D03*
X61126800Y35179000D03*
D13*
X69875400Y84759800D03*
X69875400Y83794600D03*
X75488800Y83801200D03*
X75488800Y84766400D03*
D14*
X67473400Y21666200D03*
X65673400Y21666200D03*
X76519200Y22733000D03*
X78319200Y22733000D03*
D13*
X76301600Y31978600D03*
X76301600Y32943800D03*
X76174600Y29235400D03*
X76174600Y28270200D03*
X62712600Y23266400D03*
X62712600Y22301200D03*
D12*
X70637400Y24866600D03*
X69672200Y24866600D03*
X64236600Y23774400D03*
X65201800Y23774400D03*
D14*
X63830280Y20243800D03*
X62030280Y20243800D03*
X73808920Y22428200D03*
X72008920Y22428200D03*
D12*
X74244200Y35280600D03*
X73279000Y35280600D03*
X74269600Y25146000D03*
X73304400Y25146000D03*
D16*
X76911200Y19426410D03*
X76911200Y20726410D03*
D17*
X75478400Y36474400D03*
X74178400Y36474400D03*
D13*
X32632400Y10293600D03*
X32632400Y11258800D03*
X33763200Y10204200D03*
X33763200Y11169400D03*
D12*
X42265600Y26746200D03*
X41300400Y26746200D03*
D13*
X30759400Y27381200D03*
X30759400Y26416000D03*
D16*
X29591000Y87645000D03*
X29591000Y86345000D03*
X29591000Y71643000D03*
X29591000Y70343000D03*
X29591000Y55260000D03*
X29591000Y53960000D03*
D18*
X101124004Y60572396D03*
D19*
X103124000Y60572396D03*
X101124004Y58572400D03*
X103124000Y58572400D03*
X101124004Y56572404D03*
X103124000Y56572404D03*
X101124004Y54572408D03*
X103124000Y54572408D03*
X101124004Y52572412D03*
X103124000Y52572412D03*
X101124004Y50572416D03*
X103124000Y50572416D03*
X101124004Y48572420D03*
X103124000Y48572420D03*
D20*
X99568000Y30607000D03*
X99568000Y28575000D03*
X99568000Y26543000D03*
X99568000Y24511000D03*
X99568000Y22479000D03*
X99568000Y20447000D03*
X97028000Y31623000D03*
X97028000Y29591000D03*
X97028000Y27559000D03*
X97028000Y23495000D03*
X97028000Y21463000D03*
X97028000Y19431000D03*
D21*
X112522000Y33045400D03*
X115062000Y33045400D03*
X109982000Y18008600D03*
X112522000Y18008600D03*
X115062000Y18008600D03*
D22*
X106172000Y34315400D03*
X106172000Y16738600D03*
D23*
X106172000Y30353000D03*
X106172000Y20701000D03*
D24*
X114382804Y81970118D03*
X114382804Y72969882D03*
D25*
X116382800Y77470000D03*
D26*
X113382806Y77470000D03*
D27*
X107382818Y77470000D03*
D28*
X93980000Y45720000D03*
X91440000Y45720000D03*
X93980000Y48260000D03*
X91440000Y48260000D03*
X93980000Y50800000D03*
X91440000Y50800000D03*
X93980000Y53340000D03*
X91440000Y53340000D03*
X93980000Y55880000D03*
X91440000Y55880000D03*
X93980000Y58420000D03*
X91440000Y58420000D03*
X93980000Y60960000D03*
X91440000Y60960000D03*
X93980000Y63500000D03*
X91440000Y63500000D03*
D29*
X8255000Y90805000D03*
X109601000Y90805000D03*
X8255000Y8255000D03*
X109601000Y8255000D03*
D17*
X65288400Y36957000D03*
X66588400Y36957000D03*
X66654190Y19989800D03*
X65354190Y19989800D03*
D13*
X55854600Y24714200D03*
X55854600Y25679400D03*
X56845200Y24739600D03*
X56845200Y25704800D03*
D12*
X62299600Y28219400D03*
X61334400Y28219400D03*
X59734200Y28270200D03*
X58769000Y28270200D03*
X62274200Y30124400D03*
X61309000Y30124400D03*
X62325000Y31038800D03*
X61359800Y31038800D03*
X62325000Y31953200D03*
X61359800Y31953200D03*
X62299600Y32994600D03*
X61334400Y32994600D03*
X59708800Y30200600D03*
X58743600Y30200600D03*
X59683400Y31191200D03*
X58718200Y31191200D03*
X59683400Y32080200D03*
X58718200Y32080200D03*
X59715400Y33045400D03*
X58750200Y33045400D03*
X62299600Y29184600D03*
X61334400Y29184600D03*
X59708800Y29260800D03*
X58743600Y29260800D03*
D30*
X2540000Y6350000D03*
X115316000Y6350000D03*
X2540000Y92710000D03*
D11*
X88519000Y82042000D03*
D31*
X2540000Y77279500D03*
X2540000Y85788500D03*
D32*
X2540000Y78105000D03*
X4191000Y78105000D03*
X889000Y78105000D03*
X889000Y76327000D03*
X2540000Y76327000D03*
X4191000Y76327000D03*
X889000Y86741000D03*
X2540000Y86741000D03*
X4191000Y86741000D03*
X4191000Y84963000D03*
X2540000Y84963000D03*
X889000Y84963000D03*
D31*
X2540000Y61277500D03*
X2540000Y69786500D03*
D32*
X2540000Y62103000D03*
X4191000Y62103000D03*
X889000Y62103000D03*
X889000Y60325000D03*
X2540000Y60325000D03*
X4191000Y60325000D03*
X889000Y70739000D03*
X2540000Y70739000D03*
X4191000Y70739000D03*
X4191000Y68961000D03*
X2540000Y68961000D03*
X889000Y68961000D03*
D31*
X2540000Y45275500D03*
X2540000Y53784500D03*
D32*
X2540000Y46101000D03*
X4191000Y46101000D03*
X889000Y46101000D03*
X889000Y44323000D03*
X2540000Y44323000D03*
X4191000Y44323000D03*
X889000Y54737000D03*
X2540000Y54737000D03*
X4191000Y54737000D03*
X4191000Y52959000D03*
X2540000Y52959000D03*
X889000Y52959000D03*
D31*
X2540000Y29273500D03*
X2540000Y37782500D03*
D32*
X2540000Y30099000D03*
X4191000Y30099000D03*
X889000Y30099000D03*
X889000Y28321000D03*
X2540000Y28321000D03*
X4191000Y28321000D03*
X889000Y38735000D03*
X2540000Y38735000D03*
X4191000Y38735000D03*
X4191000Y36957000D03*
X2540000Y36957000D03*
X889000Y36957000D03*
D31*
X2540000Y13271500D03*
X2540000Y21780500D03*
D32*
X2540000Y14097000D03*
X4191000Y14097000D03*
X889000Y14097000D03*
X889000Y12319000D03*
X2540000Y12319000D03*
X4191000Y12319000D03*
X889000Y22733000D03*
X2540000Y22733000D03*
X4191000Y22733000D03*
X4191000Y20955000D03*
X2540000Y20955000D03*
X889000Y20955000D03*
X24004778Y82673698D03*
X25147778Y82673698D03*
X26290778Y82673698D03*
X24004778Y81530698D03*
X25147778Y81530698D03*
X26290778Y81530698D03*
X24004778Y80387698D03*
X25147778Y80387698D03*
X26290778Y80387698D03*
X24004778Y66671698D03*
X25147778Y66671698D03*
X26290778Y66671698D03*
X24004778Y65528698D03*
X25147778Y65528698D03*
X26290778Y65528698D03*
X24004778Y64385698D03*
X25147778Y64385698D03*
X26290778Y64385698D03*
X24004778Y50669698D03*
X25147778Y50669698D03*
X26290778Y50669698D03*
X24004778Y49526698D03*
X25147778Y49526698D03*
X26290778Y49526698D03*
X24004778Y48383698D03*
X25147778Y48383698D03*
X26290778Y48383698D03*
X35661600Y20193000D03*
X37693600Y20193000D03*
X37693600Y18161000D03*
X35661600Y18161000D03*
X35661600Y22225000D03*
X37693600Y22225000D03*
X33629600Y22225000D03*
X33629600Y20193000D03*
X33629600Y18161000D03*
X33629600Y16129000D03*
X35661600Y16129000D03*
X37693600Y16129000D03*
X39725600Y16129000D03*
X39725600Y18161000D03*
X39725600Y20193000D03*
X39725600Y22225000D03*
D11*
X95351600Y75488800D03*
X88544400Y73177400D03*
X81407000Y74396600D03*
X83566000Y87122000D03*
X70967600Y89738200D03*
X62230000Y87807800D03*
X57531000Y89712800D03*
X51308000Y89687400D03*
D32*
X72612758Y79674974D03*
X72612758Y81452974D03*
X73882758Y81452974D03*
X73882758Y79674974D03*
X71342758Y79674974D03*
X71342758Y81452974D03*
X69773800Y30632400D03*
X69773800Y28600400D03*
X71805800Y28600400D03*
X67741800Y28600400D03*
X71805800Y30632400D03*
X67741800Y30632400D03*
X67741800Y32664400D03*
X69773800Y32664400D03*
X71805800Y32664400D03*
X35704780Y82292698D03*
X37228780Y82292698D03*
X37228780Y80768698D03*
X35704780Y80768698D03*
X34307780Y83689698D03*
X38625780Y83689698D03*
X35704780Y83689698D03*
X37228780Y83689698D03*
X34307780Y82292698D03*
X38625780Y82292698D03*
X38625780Y80768698D03*
X34307780Y80768698D03*
X34307780Y79371698D03*
X35704780Y79371698D03*
X37228780Y79371698D03*
X38625780Y79371698D03*
X35679380Y66290698D03*
X37203380Y66290698D03*
X37203380Y64766698D03*
X35679380Y64766698D03*
X34282380Y67687698D03*
X38600380Y67687698D03*
X35679380Y67687698D03*
X37203380Y67687698D03*
X34282380Y66290698D03*
X38600380Y66290698D03*
X38600380Y64766698D03*
X34282380Y64766698D03*
X34282380Y63369698D03*
X35679380Y63369698D03*
X37203380Y63369698D03*
X38600380Y63369698D03*
X35679380Y50288698D03*
X37203380Y50288698D03*
X37203380Y48764698D03*
X35679380Y48764698D03*
X34282380Y51685698D03*
X38600380Y51685698D03*
X35679380Y51685698D03*
X37203380Y51685698D03*
X34282380Y50288698D03*
X38600380Y50288698D03*
X38600380Y48764698D03*
X34282380Y48764698D03*
X34282380Y47367698D03*
X35679380Y47367698D03*
X37203380Y47367698D03*
X38600380Y47367698D03*
X35679380Y34286698D03*
X37203380Y34286698D03*
X37203380Y32762698D03*
X35679380Y32762698D03*
X34282380Y35683698D03*
X38600380Y35683698D03*
X35679380Y35683698D03*
X37203380Y35683698D03*
X34282380Y34286698D03*
X38600380Y34286698D03*
X38600380Y32762698D03*
X34282380Y32762698D03*
X34282380Y31365698D03*
X35679380Y31365698D03*
X37203380Y31365698D03*
X38600380Y31365698D03*
D11*
X68910200Y63804800D03*
X60248800Y50749200D03*
X14782800Y85648800D03*
X15570200Y87350600D03*
X14325600Y79273400D03*
X8255000Y83489800D03*
X6985000Y79375000D03*
X13335000Y79248000D03*
X13995400Y87274400D03*
X13589000Y40259000D03*
X13589000Y42316400D03*
X16256000Y40259000D03*
X16256000Y42316400D03*
X16256000Y58318400D03*
X16256000Y56261000D03*
X13589000Y56261000D03*
X13589000Y58318400D03*
X16256000Y74320400D03*
X16256000Y72263000D03*
X13589000Y72263000D03*
X13563600Y74320400D03*
X16256000Y90322400D03*
X16256000Y88239600D03*
X13589000Y88239600D03*
X13563600Y90322400D03*
X29489400Y89281000D03*
X22809200Y89281000D03*
X11811000Y80010000D03*
X12979400Y87274400D03*
X36576000Y28905200D03*
X35712400Y28930600D03*
X34239200Y28905200D03*
X31877000Y32994600D03*
X31877000Y34163000D03*
X36601400Y44907200D03*
X35737800Y44932600D03*
X34290000Y44907200D03*
X31902400Y48996600D03*
X31902400Y50165000D03*
X36576000Y60909200D03*
X35712400Y60934600D03*
X34239200Y60909200D03*
X31877000Y64998600D03*
X31877000Y66167000D03*
X36550600Y76936600D03*
X35737800Y76962000D03*
X34264600Y76936600D03*
X31902400Y81026000D03*
X31902400Y82194400D03*
X65354200Y31673800D03*
X74244200Y77622400D03*
X92100400Y83261200D03*
X78841600Y74676000D03*
X73710800Y75412600D03*
X70231000Y74980800D03*
X64338200Y75641200D03*
X36372800Y13258800D03*
X30911800Y19989800D03*
X25298400Y45923200D03*
X24511000Y45923200D03*
X23088600Y53213000D03*
X25273000Y61925200D03*
X24485600Y61925200D03*
X23063200Y69215000D03*
X23088600Y85242400D03*
X25298400Y77952600D03*
X24511000Y77952600D03*
X73253600Y36322000D03*
X57810400Y59994800D03*
X57912000Y67233800D03*
X60909200Y67259200D03*
X69743600Y67238600D03*
X72263000Y66700400D03*
X72237600Y60680600D03*
X72288400Y58521600D03*
X71983600Y50977800D03*
X69743800Y48661800D03*
X65532000Y50088800D03*
X64795400Y50088800D03*
X56413400Y51587400D03*
X63169800Y48691800D03*
X60241400Y48684400D03*
X58115200Y50139600D03*
X53796900Y54661100D03*
X55194200Y55473600D03*
X55179700Y59171100D03*
X53797200Y60680600D03*
X55105300Y61963300D03*
X55092600Y63474600D03*
X53771800Y65963800D03*
X69843400Y73120000D03*
X53086000Y71145400D03*
X65278000Y43357800D03*
X75107800Y48488600D03*
X86563200Y52273200D03*
X115062000Y65278000D03*
X68224400Y38531800D03*
X76377800Y33756600D03*
X76073000Y27406600D03*
X79400400Y22733000D03*
X77038200Y24079200D03*
X75107800Y22402800D03*
X75133200Y20015200D03*
X73025000Y23825200D03*
X70866000Y22504400D03*
X71399400Y23876000D03*
X70078600Y25628600D03*
X70815200Y20015200D03*
X67056000Y23698200D03*
X65989200Y23774400D03*
X64084200Y17957800D03*
X65455800Y34975800D03*
X63684400Y31210000D03*
X62077600Y21691600D03*
X61163200Y36398200D03*
X58750200Y27533600D03*
X79527400Y33401000D03*
X82550000Y37007800D03*
X99060000Y35687000D03*
X96355400Y35724600D03*
X59886600Y21444200D03*
X57200800Y22453600D03*
X61264800Y10464800D03*
X53517800Y15773400D03*
X51587400Y10490200D03*
X51562000Y22656800D03*
X44627800Y23723600D03*
X45440600Y24282400D03*
X44272200Y21793200D03*
X43408600Y22377400D03*
X44754800Y19253200D03*
X44754800Y18389600D03*
X47103800Y18198600D03*
X45212000Y17424400D03*
X43459400Y14757400D03*
X38836600Y11861800D03*
X37236400Y10972800D03*
X34544000Y11658600D03*
X31826200Y11684000D03*
X31121600Y12884400D03*
X29311600Y19431000D03*
X25730200Y14833600D03*
X25704800Y18948400D03*
X25679400Y22123400D03*
X21818600Y22225000D03*
X21793200Y14782800D03*
X20320000Y15544800D03*
X21876000Y19145000D03*
X20345400Y23088600D03*
X14351000Y23393400D03*
X14325600Y19456400D03*
X13385800Y15875000D03*
X10236200Y15875000D03*
X38963600Y27762200D03*
X39878000Y27330400D03*
X34366200Y27355800D03*
X31724600Y27635200D03*
X29057600Y25527000D03*
X42545000Y31648400D03*
X42621200Y35407600D03*
X34315400Y39751000D03*
X31775400Y39700200D03*
X30683200Y37261800D03*
X30556200Y30175200D03*
X29387800Y33731200D03*
X27863800Y31013400D03*
X26771600Y31013400D03*
X27889200Y33858200D03*
X26898600Y33934400D03*
X21107400Y31724600D03*
X17246600Y31800800D03*
X15113000Y31800800D03*
X12090400Y31851600D03*
X29464000Y41275000D03*
X22834600Y41275000D03*
X31775400Y55753000D03*
X34340800Y55753000D03*
X30708600Y53263800D03*
X29464000Y57277000D03*
X22834600Y57277000D03*
X42519600Y51460400D03*
X42589200Y47631600D03*
X34391600Y43307000D03*
X31750000Y43611800D03*
X30607000Y46151800D03*
X29565600Y45339000D03*
X29508200Y49758600D03*
X27355800Y42773600D03*
X26543000Y42392600D03*
X26847800Y43662600D03*
X26822400Y54279800D03*
X21463000Y50495200D03*
X23037800Y42646600D03*
X22212300Y43472100D03*
X22358604Y45053000D03*
X21386800Y45059600D03*
X20472400Y46659800D03*
X18897600Y45034200D03*
X16256000Y50012600D03*
X20650200Y54000400D03*
X17907000Y51841400D03*
X16370300Y52717700D03*
X16357600Y55499000D03*
X18161000Y57277000D03*
X11531600Y57277000D03*
X10642600Y48488600D03*
X9753600Y47853600D03*
X8864600Y48488600D03*
X12192000Y50241200D03*
X12446000Y51028600D03*
X9423400Y51638200D03*
X46761400Y61010800D03*
X42532300Y63665100D03*
X42494200Y67462400D03*
X34156400Y59327800D03*
X31743400Y59607200D03*
X30562800Y62185800D03*
X33578800Y71374000D03*
X31013400Y70739000D03*
X30683200Y69265800D03*
X29387800Y65786000D03*
X26898600Y70332600D03*
X27406600Y58775600D03*
X29337000Y61417200D03*
X26619200Y58496200D03*
X26822400Y59664600D03*
X23012400Y58648600D03*
X22148800Y59486800D03*
X22352000Y61036200D03*
X21336000Y61137800D03*
X20447000Y62712600D03*
X21437600Y66497200D03*
X20624800Y70002400D03*
X17881600Y67843400D03*
X18872200Y60960000D03*
X11531600Y73279000D03*
X16357600Y68707000D03*
X16357600Y71475600D03*
X16230600Y66014600D03*
X12420600Y67030600D03*
X12166600Y66243200D03*
X10718800Y64465200D03*
X9829800Y63830200D03*
X8940800Y64465200D03*
X9499600Y67386200D03*
X37261800Y75107800D03*
X42570400Y79679800D03*
X42506900Y83502500D03*
X34417000Y75361800D03*
X34340800Y87782400D03*
X31724600Y75666600D03*
X31800800Y87731600D03*
X30708600Y85445600D03*
X30594300Y78219300D03*
X29413200Y77393800D03*
X29438600Y81788000D03*
X26822400Y86334600D03*
X26797000Y75666600D03*
X27228800Y74879200D03*
X26600400Y74574400D03*
X23164800Y74574400D03*
X22225000Y75488800D03*
X22358604Y77082396D03*
X21336000Y77063600D03*
X20523200Y78765400D03*
X21437600Y82550000D03*
X20701000Y85699600D03*
X18897600Y77063600D03*
X11531600Y89281000D03*
X18161000Y89281000D03*
X18059400Y83845400D03*
X16433800Y87376000D03*
X16503396Y84944204D03*
X12319000Y82219800D03*
X16256000Y82042000D03*
X12446000Y83058000D03*
X9779000Y79908400D03*
X10541000Y80645000D03*
X9017000Y80645000D03*
X18161000Y41275000D03*
X11557000Y41275000D03*
X18161000Y73279000D03*
X29464000Y73279000D03*
X22834600Y73279000D03*
X114935000Y45593000D03*
X114935000Y51435000D03*
X9321800Y83439000D03*
X96139000Y15113000D03*
X98552000Y15113000D03*
X24866600Y12852400D03*
X64592200Y22072600D03*
X69240400Y39573200D03*
X69443600Y56108600D03*
X62153800Y24993600D03*
X55549800Y65735200D03*
X56413400Y65760600D03*
X60261500Y65747900D03*
X66903600Y65760600D03*
X67818000Y65760600D03*
X70866000Y65024000D03*
X70847200Y62312800D03*
X70777100Y60286900D03*
X70796400Y53346600D03*
X67843400Y55092600D03*
X63373000Y64236600D03*
X89027000Y39624000D03*
X99339400Y44678600D03*
X20320000Y20726400D03*
X11684000Y64008000D03*
X11861800Y71247000D03*
X11684000Y47752000D03*
X12083796Y55067200D03*
X56794400Y53848000D03*
X56781700Y56959500D03*
X60585600Y63569600D03*
X68453000Y57810400D03*
X61366400Y52095400D03*
X62560200Y54025800D03*
X67767200Y50342800D03*
X25247600Y85242400D03*
X21437600Y79476600D03*
X26670000Y78079600D03*
X28879800Y80010000D03*
X21463000Y80264000D03*
X21386800Y83439000D03*
X21463000Y84277200D03*
X28575000Y83820000D03*
X29591000Y85090000D03*
X70891400Y49072800D03*
X90061800Y39617400D03*
X100330000Y44704000D03*
X20320000Y19913600D03*
X64541400Y66852800D03*
X72085200Y54610000D03*
X55549800Y66573400D03*
X56413400Y66573400D03*
X60248800Y66573400D03*
X66903600Y66573400D03*
X67818000Y66573400D03*
X71773800Y65056000D03*
X71812400Y62338200D03*
X72288400Y59563000D03*
X71653400Y53365400D03*
X37261800Y13335000D03*
X31699200Y30048200D03*
X28244800Y87401400D03*
X72146160Y55661560D03*
X58801000Y67233800D03*
X61722000Y67259200D03*
X63830200Y67310000D03*
X65278000Y67284600D03*
X72266300Y64163700D03*
X72288400Y57708800D03*
X72009000Y49961800D03*
X67243200Y48625000D03*
X65532000Y49276000D03*
X64795400Y49276000D03*
X62357000Y48691800D03*
X58115200Y49174400D03*
X56740600Y48688800D03*
X53797200Y49174400D03*
X53873400Y50495200D03*
X53797200Y51663600D03*
X54254400Y55448200D03*
X53797200Y57073800D03*
X53797200Y58242200D03*
X54214500Y59221900D03*
X54292500Y61988700D03*
X54254400Y63550800D03*
X53759100Y65163700D03*
X78181200Y71907400D03*
X78105000Y72999600D03*
X68402200Y44043600D03*
X76022200Y46990000D03*
X82727800Y61188600D03*
X83997800Y61188600D03*
X85217000Y52197000D03*
X113665000Y60325000D03*
X76276200Y36449000D03*
X67462400Y19989800D03*
X112522000Y13970000D03*
X115062000Y37338000D03*
X56337200Y22682200D03*
X60147200Y9575800D03*
X46431200Y25298400D03*
X42570400Y20523200D03*
X42367200Y19329400D03*
X42468800Y17830800D03*
X42697400Y16179800D03*
X39522400Y13462000D03*
X33832800Y9474200D03*
X32588200Y9550400D03*
X30734000Y18643600D03*
X20320000Y16357600D03*
X20345400Y23926800D03*
X33426400Y28956000D03*
X40132000Y28778200D03*
X29972000Y27254200D03*
X40995600Y30861000D03*
X41021000Y36195000D03*
X33553400Y38125400D03*
X31800800Y37338000D03*
X48768000Y46253400D03*
X48768000Y47574200D03*
X31800800Y53390800D03*
X33528000Y54178200D03*
X41122600Y52247800D03*
X41198800Y46761400D03*
X33502600Y44958000D03*
X31750000Y45974000D03*
X7213600Y45745400D03*
X45008800Y60071000D03*
X42824400Y61188600D03*
X41071800Y62839600D03*
X41071800Y68249800D03*
X33451800Y60934600D03*
X31743400Y62008000D03*
X33528000Y69875400D03*
X31750000Y69342000D03*
X7213600Y62001400D03*
X46736000Y76733400D03*
X46558200Y78714600D03*
X40970200Y78867000D03*
X40886380Y84284820D03*
X33401000Y76962000D03*
X33464500Y86118700D03*
X31724600Y77952600D03*
X31800800Y85420200D03*
X6985000Y77978000D03*
X42951400Y26924000D03*
X28448000Y71297800D03*
X30632400Y55626000D03*
X21894800Y24561800D03*
X28346400Y74828400D03*
X28930600Y12928600D03*
X29260800Y17551400D03*
X30429200Y14478000D03*
X30429200Y17297400D03*
X33502600Y13309600D03*
X32613600Y13335000D03*
X30759400Y24688800D03*
X39700200Y25019000D03*
X12827000Y71272400D03*
X13335000Y63220600D03*
X14681200Y68783200D03*
X15570200Y71424800D03*
X14376400Y63220600D03*
X7224014Y63261000D03*
X8432800Y67360800D03*
X28727400Y63906400D03*
X28702000Y67945000D03*
X25209500Y69202300D03*
X26441400Y62103000D03*
X21412200Y63500000D03*
X21310600Y64363600D03*
X21437600Y67411600D03*
X21463000Y68275200D03*
X21818600Y21488400D03*
X28346400Y58750200D03*
X13335000Y46990000D03*
X13099796Y55067200D03*
X8407400Y51562000D03*
X14757400Y53721000D03*
X15367000Y55473600D03*
X14338300Y47256700D03*
X7188200Y46990000D03*
X26466800Y46050200D03*
X28702000Y51943000D03*
X28790900Y47866300D03*
X25247600Y53213000D03*
X21463000Y48234600D03*
X21463000Y51409600D03*
X21463000Y52273200D03*
X21463000Y47472600D03*
X21793200Y17119600D03*
X28371800Y42748200D03*
X57607200Y53848000D03*
X57607200Y56946800D03*
X61385200Y63532000D03*
X69424800Y57778400D03*
X63830200Y54025800D03*
X62230000Y52095400D03*
X62230000Y65557400D03*
X70739000Y57124600D03*
X61798200Y50266600D03*
X55270400Y53162200D03*
X55321200Y57661800D03*
X68529200Y18821400D03*
X72466200Y35102800D03*
X64846200Y33782000D03*
X65201800Y25273000D03*
X70154800Y35610800D03*
X67523100Y34975800D03*
X64820800Y31038800D03*
X68023500Y25275300D03*
X73431400Y77546200D03*
X71805800Y77597000D03*
X68961000Y82575400D03*
X72618600Y83286600D03*
X76809600Y79908400D03*
X70993000Y77673200D03*
X67945000Y79832200D03*
X67157600Y84632800D03*
X72059800Y84023200D03*
X73177400Y84023200D03*
X76708000Y84734400D03*
X66344800Y72466200D03*
X17830800Y76936600D03*
X17780000Y60960000D03*
X19304000Y72517000D03*
X18821800Y40362600D03*
X46761400Y50419000D03*
X17830800Y45008800D03*
X46685200Y60198000D03*
X69215000Y21183600D03*
X75158600Y31953200D03*
X75184000Y29210000D03*
X77901800Y27609800D03*
X72618600Y36982400D03*
X70891400Y36906200D03*
X70434200Y23672800D03*
X63500000Y23723600D03*
X63703200Y28879800D03*
X79324200Y35763200D03*
X82550000Y34366200D03*
X56870600Y24028400D03*
X68529200Y23698200D03*
X74193400Y34391600D03*
X74142600Y26898600D03*
X59918600Y20091400D03*
X54635400Y20751800D03*
X104673400Y59944000D03*
X102489000Y68961000D03*
X98907600Y57607200D03*
X98475800Y69621400D03*
X98298000Y68427600D03*
X98298000Y55549800D03*
X98399600Y53568600D03*
X97053400Y70154800D03*
X89281000Y33655000D03*
X89281000Y12700000D03*
X75107800Y50723800D03*
X75488800Y49784000D03*
X88214200Y63068200D03*
X88646000Y62103000D03*
X92151200Y71348600D03*
X90906600Y70739000D03*
X86461600Y44932600D03*
X85750400Y51384200D03*
X72237600Y45135800D03*
X85293200Y61188600D03*
X68326000Y48615600D03*
X84099400Y47701200D03*
X83362800Y52095400D03*
X48768000Y48666400D03*
X87172800Y46024800D03*
X86817200Y51358800D03*
X69189600Y45085000D03*
X86461600Y61188600D03*
X110363000Y41859200D03*
X110312200Y67513200D03*
X108585000Y47650400D03*
X108585000Y65913000D03*
X70866000Y36093400D03*
X80492600Y36677600D03*
X55956200Y70231000D03*
X39039800Y74447400D03*
X24079200Y87503000D03*
X75387200Y73025000D03*
X75412600Y71932800D03*
X23545800Y88163400D03*
X36830000Y72136000D03*
X45720000Y75920600D03*
X45796200Y77698600D03*
X37084000Y73025000D03*
X55397400Y29972000D03*
X54305200Y24688800D03*
X60579000Y28219400D03*
X60502800Y30200600D03*
X60502800Y31191200D03*
X60502800Y32207200D03*
X60477400Y33147000D03*
X60502800Y29210000D03*
X55448200Y27025600D03*
X55473600Y33832800D03*
X53365400Y33807400D03*
X54635400Y33401000D03*
X52781200Y33147000D03*
X57835800Y25501600D03*
X74803000Y21031200D03*
X69265800Y22301200D03*
X96393000Y42875200D03*
X41656000Y7137400D03*
X95694500Y43751500D03*
X37922200Y9347200D03*
X89052400Y40741600D03*
X46990000Y19989800D03*
X49149000Y19989800D03*
X43357800Y20675600D03*
X88392000Y41808400D03*
X50241200Y8712200D03*
X47574200Y8229600D03*
X44627800Y22656800D03*
X87630000Y40817800D03*
X48793400Y21742400D03*
X46990000Y21742400D03*
X43332400Y21564600D03*
X34061400Y25044400D03*
X34671000Y76200000D03*
X34036000Y25857200D03*
X35610800Y76123800D03*
X66802000Y69748400D03*
X35458400Y88138000D03*
X66827400Y70612000D03*
X34698400Y86082632D03*
X67005200Y71780400D03*
X34391600Y86944200D03*
X38404800Y25882600D03*
X34671000Y60198000D03*
X38404800Y25044400D03*
X35610800Y60096400D03*
X52984400Y69088000D03*
X35737800Y70307200D03*
X52527200Y68351400D03*
X35001200Y70866000D03*
X34112200Y70739000D03*
X58039000Y65709800D03*
X37236400Y25019000D03*
X34772600Y44145200D03*
X37211000Y25857200D03*
X35661600Y44018200D03*
X35331400Y54178200D03*
X41122600Y61798200D03*
X41529000Y59436000D03*
X35280600Y59334400D03*
X50647600Y59918600D03*
X40487600Y59791600D03*
X50012600Y60579000D03*
X39446200Y59766200D03*
X35814000Y25654000D03*
X34874200Y26492200D03*
X35788600Y38201600D03*
X41097200Y45643800D03*
X36449000Y44119800D03*
X49250600Y50596800D03*
X40309800Y43764200D03*
X50139600Y50977800D03*
X50800000Y51562000D03*
X39268400Y44399200D03*
X53314600Y31572200D03*
X54737000Y32105600D03*
M02*
