M48
;DRILL file {KiCad 4.0.5} date Sat Apr  8 15:15:00 2017
;FORMAT={-:-/ absolute / metric / decimal}
FMAT,2
METRIC,TZ
T1C0.254
T2C0.305
T3C0.889
T4C0.900
T5C1.067
T6C1.270
T7C1.575
T8C1.600
T9C2.286
T10C2.438
T11C2.540
T12C2.794
T13C3.251
%
G90
G05
M71
T1
X0.889Y86.741
X0.889Y84.963
X0.889Y78.105
X0.889Y76.327
X0.889Y70.739
X0.889Y68.961
X0.889Y62.103
X0.889Y60.325
X0.889Y54.737
X0.889Y52.959
X0.889Y46.101
X0.889Y44.323
X0.889Y38.735
X0.889Y36.957
X0.889Y30.099
X0.889Y28.321
X0.889Y22.733
X0.889Y20.955
X0.889Y14.097
X0.889Y12.319
X2.54Y86.741
X2.54Y84.963
X2.54Y78.105
X2.54Y76.327
X2.54Y70.739
X2.54Y68.961
X2.54Y62.103
X2.54Y60.325
X2.54Y54.737
X2.54Y52.959
X2.54Y46.101
X2.54Y44.323
X2.54Y38.735
X2.54Y36.957
X2.54Y30.099
X2.54Y28.321
X2.54Y22.733
X2.54Y20.955
X2.54Y14.097
X2.54Y12.319
X4.191Y86.741
X4.191Y84.963
X4.191Y78.105
X4.191Y76.327
X4.191Y70.739
X4.191Y68.961
X4.191Y62.103
X4.191Y60.325
X4.191Y54.737
X4.191Y52.959
X4.191Y46.101
X4.191Y44.323
X4.191Y38.735
X4.191Y36.957
X4.191Y30.099
X4.191Y28.321
X4.191Y22.733
X4.191Y20.955
X4.191Y14.097
X4.191Y12.319
X24.005Y82.674
X24.005Y81.531
X24.005Y80.388
X24.005Y66.672
X24.005Y65.529
X24.005Y64.386
X24.005Y50.67
X24.005Y49.527
X24.005Y48.384
X25.148Y82.674
X25.148Y81.531
X25.148Y80.388
X25.148Y66.672
X25.148Y65.529
X25.148Y64.386
X25.148Y50.67
X25.148Y49.527
X25.148Y48.384
X26.291Y82.674
X26.291Y81.531
X26.291Y80.388
X26.291Y66.672
X26.291Y65.529
X26.291Y64.386
X26.291Y50.67
X26.291Y49.527
X26.291Y48.384
X33.63Y22.225
X33.63Y20.193
X33.63Y18.161
X33.63Y16.129
X34.282Y67.688
X34.282Y66.291
X34.282Y64.767
X34.282Y63.37
X34.282Y51.686
X34.282Y50.289
X34.282Y48.765
X34.282Y47.368
X34.282Y35.684
X34.282Y34.287
X34.282Y32.763
X34.282Y31.366
X34.308Y83.69
X34.308Y82.293
X34.308Y80.769
X34.308Y79.372
X35.662Y22.225
X35.662Y20.193
X35.662Y18.161
X35.662Y16.129
X35.679Y67.688
X35.679Y66.291
X35.679Y64.767
X35.679Y63.37
X35.679Y51.686
X35.679Y50.289
X35.679Y48.765
X35.679Y47.368
X35.679Y35.684
X35.679Y34.287
X35.679Y32.763
X35.679Y31.366
X35.705Y83.69
X35.705Y82.293
X35.705Y80.769
X35.705Y79.372
X37.203Y67.688
X37.203Y66.291
X37.203Y64.767
X37.203Y63.37
X37.203Y51.686
X37.203Y50.289
X37.203Y48.765
X37.203Y47.368
X37.203Y35.684
X37.203Y34.287
X37.203Y32.763
X37.203Y31.366
X37.229Y83.69
X37.229Y82.293
X37.229Y80.769
X37.229Y79.372
X37.694Y22.225
X37.694Y20.193
X37.694Y18.161
X37.694Y16.129
X38.6Y67.688
X38.6Y66.291
X38.6Y64.767
X38.6Y63.37
X38.6Y51.686
X38.6Y50.289
X38.6Y48.765
X38.6Y47.368
X38.6Y35.684
X38.6Y34.287
X38.6Y32.763
X38.6Y31.366
X38.626Y83.69
X38.626Y82.293
X38.626Y80.769
X38.626Y79.372
X39.726Y22.225
X39.726Y20.193
X39.726Y18.161
X39.726Y16.129
X67.742Y32.664
X67.742Y30.632
X67.742Y28.6
X69.774Y32.664
X69.774Y30.632
X69.774Y28.6
X71.343Y81.453
X71.343Y79.675
X71.806Y32.664
X71.806Y30.632
X71.806Y28.6
X72.613Y81.453
X72.613Y79.675
X73.883Y81.453
X73.883Y79.675
T2
X6.985Y79.375
X6.985Y77.978
X7.188Y46.99
X7.214Y62.001
X7.214Y45.745
X7.224Y63.261
X8.255Y83.49
X8.407Y51.562
X8.433Y67.361
X8.865Y48.489
X8.941Y64.465
X9.017Y80.645
X9.322Y83.439
X9.423Y51.638
X9.5Y67.386
X9.754Y47.854
X9.779Y79.908
X9.83Y63.83
X10.236Y15.875
X10.541Y80.645
X10.643Y48.489
X10.719Y64.465
X11.532Y89.281
X11.532Y73.279
X11.532Y57.277
X11.557Y41.275
X11.684Y64.008
X11.684Y47.752
X11.811Y80.01
X11.862Y71.247
X12.084Y55.067
X12.09Y31.852
X12.167Y66.243
X12.192Y50.241
X12.319Y82.22
X12.421Y67.031
X12.446Y83.058
X12.446Y51.029
X12.827Y71.272
X12.979Y87.274
X13.1Y55.067
X13.335Y79.248
X13.335Y63.221
X13.335Y46.99
X13.386Y15.875
X13.564Y90.322
X13.564Y74.32
X13.589Y88.24
X13.589Y72.263
X13.589Y58.318
X13.589Y56.261
X13.589Y42.316
X13.589Y40.259
X13.995Y87.274
X14.326Y79.273
X14.326Y19.456
X14.338Y47.257
X14.351Y23.393
X14.376Y63.221
X14.681Y68.783
X14.757Y53.721
X14.783Y85.649
X15.113Y31.801
X15.367Y55.474
X15.57Y87.351
X15.57Y71.425
X16.231Y66.015
X16.256Y90.322
X16.256Y88.24
X16.256Y82.042
X16.256Y74.32
X16.256Y72.263
X16.256Y58.318
X16.256Y56.261
X16.256Y50.013
X16.256Y42.316
X16.256Y40.259
X16.358Y71.476
X16.358Y68.707
X16.358Y55.499
X16.37Y52.718
X16.434Y87.376
X16.503Y84.944
X17.247Y31.801
X17.78Y60.96
X17.831Y76.937
X17.831Y45.009
X17.882Y67.843
X17.907Y51.841
X18.059Y83.845
X18.161Y89.281
X18.161Y73.279
X18.161Y57.277
X18.161Y41.275
X18.822Y40.363
X18.872Y60.96
X18.898Y77.064
X18.898Y45.034
X19.304Y72.517
X20.32Y20.726
X20.32Y19.914
X20.32Y16.358
X20.32Y15.545
X20.345Y23.927
X20.345Y23.089
X20.447Y62.713
X20.472Y46.66
X20.523Y78.765
X20.625Y70.002
X20.65Y54.
X20.701Y85.7
X21.107Y31.725
X21.311Y64.364
X21.336Y77.064
X21.336Y61.138
X21.387Y83.439
X21.387Y45.06
X21.412Y63.5
X21.438Y82.55
X21.438Y79.477
X21.438Y67.412
X21.438Y66.497
X21.463Y84.277
X21.463Y80.264
X21.463Y68.275
X21.463Y52.273
X21.463Y51.41
X21.463Y50.495
X21.463Y48.235
X21.463Y47.473
X21.793Y17.12
X21.793Y14.783
X21.819Y22.225
X21.819Y21.488
X21.876Y19.145
X21.895Y24.562
X22.149Y59.487
X22.212Y43.472
X22.225Y75.489
X22.352Y61.036
X22.359Y77.082
X22.359Y45.053
X22.809Y89.281
X22.835Y73.279
X22.835Y57.277
X22.835Y41.275
X23.012Y58.649
X23.038Y42.647
X23.063Y69.215
X23.089Y85.242
X23.089Y53.213
X23.165Y74.574
X23.546Y88.163
X24.079Y87.503
X24.486Y61.925
X24.511Y77.953
X24.511Y45.923
X24.867Y12.852
X25.209Y69.202
X25.248Y85.242
X25.248Y53.213
X25.273Y61.925
X25.298Y77.953
X25.298Y45.923
X25.679Y22.123
X25.705Y18.948
X25.73Y14.834
X26.441Y62.103
X26.467Y46.05
X26.543Y42.393
X26.6Y74.574
X26.619Y58.496
X26.67Y78.08
X26.772Y31.013
X26.797Y75.667
X26.822Y86.335
X26.822Y59.665
X26.822Y54.28
X26.848Y43.663
X26.899Y70.333
X26.899Y33.934
X27.229Y74.879
X27.356Y42.774
X27.407Y58.776
X27.864Y31.013
X27.889Y33.858
X28.245Y87.401
X28.346Y74.828
X28.346Y58.75
X28.372Y42.748
X28.448Y71.298
X28.575Y83.82
X28.702Y67.945
X28.702Y51.943
X28.727Y63.906
X28.791Y47.866
X28.88Y80.01
X28.931Y12.929
X29.058Y25.527
X29.261Y17.551
X29.312Y19.431
X29.337Y61.417
X29.388Y65.786
X29.388Y33.731
X29.413Y77.394
X29.439Y81.788
X29.464Y73.279
X29.464Y57.277
X29.464Y41.275
X29.489Y89.281
X29.508Y49.759
X29.566Y45.339
X29.591Y85.09
X29.972Y27.254
X30.429Y17.297
X30.429Y14.478
X30.556Y30.175
X30.563Y62.186
X30.594Y78.219
X30.607Y46.152
X30.632Y55.626
X30.683Y69.266
X30.683Y37.262
X30.709Y85.446
X30.709Y53.264
X30.734Y18.644
X30.759Y24.689
X30.912Y19.99
X31.013Y70.739
X31.122Y12.884
X31.699Y30.048
X31.725Y77.953
X31.725Y75.667
X31.725Y27.635
X31.743Y62.008
X31.743Y59.607
X31.75Y69.342
X31.75Y45.974
X31.75Y43.612
X31.775Y55.753
X31.775Y39.7
X31.801Y87.732
X31.801Y85.42
X31.801Y53.391
X31.801Y37.338
X31.826Y11.684
X31.877Y66.167
X31.877Y64.999
X31.877Y34.163
X31.877Y32.995
X31.902Y82.194
X31.902Y81.026
X31.902Y50.165
X31.902Y48.997
X32.588Y9.55
X32.614Y13.335
X33.401Y76.962
X33.426Y28.956
X33.452Y60.935
X33.465Y86.119
X33.503Y44.958
X33.503Y13.31
X33.528Y69.875
X33.528Y54.178
X33.553Y38.125
X33.579Y71.374
X33.833Y9.474
X34.036Y25.857
X34.061Y25.044
X34.112Y70.739
X34.156Y59.328
X34.239Y60.909
X34.239Y28.905
X34.265Y76.937
X34.29Y44.907
X34.315Y39.751
X34.341Y87.782
X34.341Y55.753
X34.366Y27.356
X34.392Y86.944
X34.392Y43.307
X34.417Y75.362
X34.544Y11.659
X34.671Y76.2
X34.671Y60.198
X34.698Y86.083
X34.773Y44.145
X34.874Y26.492
X35.001Y70.866
X35.281Y59.334
X35.331Y54.178
X35.458Y88.138
X35.611Y76.124
X35.611Y60.096
X35.662Y44.018
X35.712Y60.935
X35.712Y28.931
X35.738Y76.962
X35.738Y70.307
X35.738Y44.933
X35.789Y38.202
X35.814Y25.654
X36.373Y13.259
X36.449Y44.12
X36.551Y76.937
X36.576Y60.909
X36.576Y28.905
X36.601Y44.907
X36.83Y72.136
X37.084Y73.025
X37.211Y25.857
X37.236Y25.019
X37.236Y10.973
X37.262Y75.108
X37.262Y13.335
X37.922Y9.347
X38.405Y25.883
X38.405Y25.044
X38.837Y11.862
X38.964Y27.762
X39.04Y74.447
X39.268Y44.399
X39.446Y59.766
X39.522Y13.462
X39.7Y25.019
X39.878Y27.33
X40.132Y28.778
X40.31Y43.764
X40.488Y59.792
X40.886Y84.285
X40.97Y78.867
X40.996Y30.861
X41.021Y36.195
X41.072Y68.25
X41.072Y62.84
X41.097Y45.644
X41.123Y61.798
X41.123Y52.248
X41.199Y46.761
X41.529Y59.436
X41.656Y7.137
X42.367Y19.329
X42.469Y17.831
X42.494Y67.462
X42.507Y83.502
X42.52Y51.46
X42.532Y63.665
X42.545Y31.648
X42.57Y79.68
X42.57Y20.523
X42.589Y47.632
X42.621Y35.408
X42.697Y16.18
X42.824Y61.189
X42.951Y26.924
X43.332Y21.565
X43.358Y20.676
X43.409Y22.377
X43.459Y14.757
X44.272Y21.793
X44.628Y23.724
X44.628Y22.657
X44.755Y19.253
X44.755Y18.39
X45.009Y60.071
X45.212Y17.424
X45.441Y24.282
X45.72Y75.921
X45.796Y77.699
X46.431Y25.298
X46.558Y78.715
X46.685Y60.198
X46.736Y76.733
X46.761Y61.011
X46.761Y50.419
X46.99Y21.742
X46.99Y19.99
X47.104Y18.199
X47.574Y8.23
X48.768Y48.666
X48.768Y47.574
X48.768Y46.253
X48.793Y21.742
X49.149Y19.99
X49.251Y50.597
X50.013Y60.579
X50.14Y50.978
X50.241Y8.712
X50.648Y59.919
X50.8Y88.722
X50.8Y51.562
X50.876Y90.627
X51.308Y89.687
X51.562Y22.657
X51.587Y10.49
X51.867Y88.748
X51.892Y90.627
X52.527Y68.351
X52.781Y33.147
X52.984Y69.088
X53.086Y71.145
X53.315Y31.572
X53.365Y33.807
X53.518Y15.773
X53.759Y65.164
X53.772Y65.964
X53.797Y54.661
X53.797Y60.681
X53.797Y58.242
X53.797Y57.074
X53.797Y51.664
X53.797Y49.174
X53.873Y50.495
X54.215Y59.222
X54.254Y63.551
X54.254Y55.448
X54.292Y61.989
X54.305Y24.689
X54.635Y33.401
X54.635Y20.752
X54.737Y32.106
X55.093Y63.475
X55.105Y61.963
X55.18Y59.171
X55.194Y55.474
X55.27Y53.162
X55.321Y57.662
X55.397Y29.972
X55.448Y27.026
X55.474Y33.833
X55.55Y66.573
X55.55Y65.735
X55.956Y70.231
X56.337Y22.682
X56.413Y66.573
X56.413Y65.761
X56.413Y51.587
X56.741Y48.689
X56.782Y56.959
X56.794Y53.848
X56.871Y24.028
X57.201Y22.454
X57.531Y90.576
X57.531Y89.713
X57.531Y88.849
X57.607Y56.947
X57.607Y53.848
X57.81Y59.995
X57.836Y25.502
X57.912Y67.234
X58.039Y65.71
X58.115Y50.14
X58.115Y49.174
X58.471Y51.003
X58.496Y51.943
X58.75Y27.534
X58.801Y67.234
X59.131Y88.036
X59.69Y51.994
X59.887Y21.444
X59.919Y20.091
X60.02Y87.097
X60.147Y9.576
X60.241Y48.684
X60.249Y66.573
X60.249Y50.749
X60.261Y65.748
X60.477Y33.147
X60.503Y32.207
X60.503Y31.191
X60.503Y30.201
X60.503Y29.21
X60.579Y28.219
X60.586Y63.57
X60.909Y67.259
X60.985Y88.062
X61.163Y36.398
X61.265Y10.465
X61.366Y52.095
X61.385Y63.532
X61.392Y86.893
X61.722Y67.259
X61.798Y50.267
X61.951Y85.522
X62.078Y21.692
X62.154Y24.994
X62.23Y87.808
X62.23Y65.557
X62.23Y52.095
X62.357Y48.692
X62.56Y54.026
X63.17Y48.692
X63.221Y85.573
X63.373Y64.237
X63.5Y23.724
X63.684Y31.21
X63.703Y28.88
X63.83Y67.31
X63.83Y54.026
X64.084Y17.958
X64.338Y75.641
X64.541Y66.853
X64.592Y22.073
X64.795Y50.089
X64.795Y49.276
X64.821Y31.039
X64.846Y33.782
X65.202Y25.273
X65.278Y67.285
X65.278Y43.358
X65.354Y31.674
X65.456Y34.976
X65.532Y50.089
X65.532Y49.276
X65.989Y23.774
X66.345Y72.466
X66.802Y69.748
X66.827Y70.612
X66.904Y66.573
X66.904Y65.761
X67.005Y71.78
X67.056Y23.698
X67.158Y84.633
X67.243Y48.625
X67.462Y19.99
X67.523Y34.976
X67.767Y50.343
X67.818Y66.573
X67.818Y65.761
X67.843Y55.093
X67.945Y79.832
X68.023Y25.275
X68.148Y63.068
X68.224Y64.491
X68.224Y38.532
X68.326Y48.616
X68.402Y44.044
X68.453Y57.81
X68.529Y23.698
X68.529Y18.821
X68.91Y63.805
X68.91Y62.306
X68.961Y82.575
X69.19Y45.085
X69.215Y21.184
X69.24Y39.573
X69.266Y22.301
X69.425Y57.778
X69.444Y56.109
X69.545Y64.541
X69.571Y63.017
X69.744Y67.239
X69.744Y48.662
X69.843Y73.12
X70.079Y25.629
X70.155Y35.611
X70.231Y74.981
X70.434Y23.673
X70.739Y57.125
X70.777Y60.287
X70.796Y53.347
X70.815Y20.015
X70.847Y62.313
X70.866Y65.024
X70.866Y36.093
X70.866Y22.504
X70.891Y49.073
X70.891Y36.906
X70.968Y89.738
X70.993Y77.673
X71.374Y90.653
X71.399Y23.876
X71.653Y53.365
X71.774Y65.056
X71.806Y77.597
X71.812Y62.338
X71.882Y89.738
X71.984Y50.978
X72.009Y49.962
X72.06Y84.023
X72.085Y54.61
X72.146Y55.662
X72.238Y60.681
X72.238Y45.136
X72.263Y66.7
X72.266Y64.164
X72.288Y59.563
X72.288Y58.522
X72.288Y57.709
X72.339Y90.653
X72.466Y35.103
X72.619Y83.287
X72.619Y36.982
X72.898Y89.764
X73.025Y23.825
X73.177Y90.653
X73.177Y84.023
X73.254Y36.322
X73.431Y77.546
X73.711Y75.413
X73.863Y89.789
X74.143Y90.678
X74.143Y26.899
X74.193Y34.392
X74.244Y77.622
X74.727Y89.789
X74.803Y21.031
X75.108Y50.724
X75.108Y48.489
X75.108Y22.403
X75.133Y20.015
X75.159Y31.953
X75.184Y29.21
X75.387Y73.025
X75.413Y71.933
X75.489Y49.784
X76.022Y46.99
X76.073Y27.407
X76.276Y36.449
X76.378Y33.757
X76.708Y84.734
X76.81Y79.908
X77.038Y24.079
X77.902Y27.61
X78.105Y73.
X78.181Y71.907
X78.842Y74.676
X79.324Y35.763
X79.4Y22.733
X79.527Y33.401
X80.493Y36.678
X80.924Y73.762
X80.95Y75.032
X81.407Y74.397
X81.432Y73.177
X82.55Y37.008
X82.55Y34.366
X82.728Y88.113
X82.728Y61.189
X82.753Y85.776
X83.363Y52.095
X83.566Y87.122
X83.998Y61.189
X84.099Y47.701
X84.582Y88.087
X85.217Y52.197
X85.242Y87.02
X85.293Y61.189
X85.75Y51.384
X86.208Y88.036
X86.462Y61.189
X86.462Y44.933
X86.563Y52.273
X86.817Y51.359
X87.173Y46.025
X87.376Y73.127
X87.452Y75.057
X87.63Y40.818
X87.986Y74.016
X88.214Y63.068
X88.392Y41.808
X88.519Y82.042
X88.519Y75.082
X88.544Y73.177
X88.646Y62.103
X89.027Y39.624
X89.052Y40.742
X89.281Y33.655
X89.281Y12.7
X90.062Y39.617
X90.907Y70.739
X92.1Y83.261
X92.151Y71.349
X95.225Y83.871
X95.352Y75.489
X95.694Y43.752
X96.139Y84.658
X96.139Y74.727
X96.139Y15.113
X96.355Y35.725
X96.393Y42.875
X96.901Y75.641
X97.028Y83.871
X97.053Y70.155
X98.298Y68.428
X98.298Y55.55
X98.4Y53.569
X98.476Y69.621
X98.552Y15.113
X98.908Y57.607
X99.06Y35.687
X99.339Y44.679
X100.33Y44.704
X102.489Y68.961
X104.673Y59.944
X108.585Y65.913
X108.585Y47.65
X110.312Y67.513
X110.363Y41.859
X112.522Y13.97
X113.665Y60.325
X114.935Y51.435
X114.935Y45.593
X115.062Y65.278
X115.062Y37.338
T3
X97.028Y31.623
X97.028Y29.591
X97.028Y27.559
X97.028Y23.495
X97.028Y21.463
X97.028Y19.431
X99.568Y30.607
X99.568Y28.575
X99.568Y26.543
X99.568Y24.511
X99.568Y22.479
X99.568Y20.447
T4
X101.124Y60.572
X101.124Y58.572
X101.124Y56.572
X101.124Y54.572
X101.124Y52.572
X101.124Y50.572
X101.124Y48.572
X103.124Y60.572
X103.124Y58.572
X103.124Y56.572
X103.124Y54.572
X103.124Y52.572
X103.124Y50.572
X103.124Y48.572
T5
X91.44Y63.5
X91.44Y60.96
X91.44Y58.42
X91.44Y55.88
X91.44Y53.34
X91.44Y50.8
X91.44Y48.26
X91.44Y45.72
X93.98Y63.5
X93.98Y60.96
X93.98Y58.42
X93.98Y55.88
X93.98Y53.34
X93.98Y50.8
X93.98Y48.26
X93.98Y45.72
T6
X109.982Y18.009
X112.522Y33.045
X112.522Y18.009
X115.062Y33.045
X115.062Y18.009
T7
X106.172Y34.315
X106.172Y16.739
T8
X116.383Y77.47
T9
X113.383Y77.47
T10
X8.255Y90.805
X8.255Y8.255
X109.601Y90.805
X109.601Y8.255
T11
X114.383Y81.97
X114.383Y72.97
T12
X107.383Y77.47
T13
X106.172Y30.353
X106.172Y20.701
T0
M30
