M48
;DRILL file {KiCad 4.0.5} date Sun Apr  2 23:53:44 2017
;FORMAT={-:-/ absolute / metric / decimal}
FMAT,2
METRIC,TZ
T1C0.305
T2C0.889
T3C0.900
T4C1.067
T5C1.270
T6C1.575
T7C1.600
T8C2.286
T9C2.438
T10C2.540
T11C2.794
T12C3.251
%
G90
G05
M71
T1
X9.322Y83.439
X11.557Y89.281
X11.557Y73.279
X11.557Y57.277
X11.557Y41.275
X13.589Y90.17
X13.589Y88.265
X13.589Y74.168
X13.589Y72.263
X13.589Y58.166
X13.589Y56.261
X13.589Y42.164
X13.589Y40.259
X13.995Y87.274
X16.256Y90.17
X16.256Y88.265
X16.256Y74.168
X16.256Y72.263
X16.256Y58.166
X16.256Y56.261
X16.256Y42.164
X16.256Y40.259
X17.78Y61.087
X18.161Y89.281
X18.161Y73.279
X18.161Y57.277
X18.161Y41.275
X19.304Y72.517
X22.86Y89.281
X22.987Y73.279
X22.987Y57.277
X22.987Y41.275
X29.337Y73.279
X29.337Y57.277
X29.337Y41.275
X29.464Y89.281
X35.738Y70.307
X37.922Y9.398
X52.984Y69.088
X57.836Y25.502
X58.039Y65.71
X75.362Y73.
X75.438Y71.933
X90.907Y70.739
X92.151Y71.349
X96.139Y15.113
X97.053Y70.155
X98.298Y68.428
X98.298Y55.55
X98.4Y53.569
X98.476Y69.621
X98.552Y15.113
X98.908Y57.607
X102.578Y68.872
X108.585Y65.913
X108.585Y47.65
X110.312Y67.513
X110.312Y41.656
X114.935Y51.435
X114.935Y45.593
T2
X97.028Y31.623
X97.028Y29.591
X97.028Y27.559
X97.028Y23.495
X97.028Y21.463
X97.028Y19.431
X99.568Y30.607
X99.568Y28.575
X99.568Y26.543
X99.568Y24.511
X99.568Y22.479
X99.568Y20.447
T3
X101.124Y60.572
X101.124Y58.572
X101.124Y56.572
X101.124Y54.572
X101.124Y52.572
X101.124Y50.572
X101.124Y48.572
X103.124Y60.572
X103.124Y58.572
X103.124Y56.572
X103.124Y54.572
X103.124Y52.572
X103.124Y50.572
X103.124Y48.572
T4
X91.44Y63.5
X91.44Y60.96
X91.44Y58.42
X91.44Y55.88
X91.44Y53.34
X91.44Y50.8
X91.44Y48.26
X91.44Y45.72
X93.98Y63.5
X93.98Y60.96
X93.98Y58.42
X93.98Y55.88
X93.98Y53.34
X93.98Y50.8
X93.98Y48.26
X93.98Y45.72
T5
X109.982Y18.009
X112.522Y33.045
X112.522Y18.009
X115.062Y33.045
X115.062Y18.009
T6
X106.172Y34.315
X106.172Y16.739
T7
X116.284Y77.47
T8
X113.284Y77.47
T9
X8.255Y90.805
X8.255Y8.255
X109.601Y90.805
X109.601Y8.255
T10
X114.284Y81.97
X114.284Y72.97
T11
X107.284Y77.47
T12
X106.172Y30.353
X106.172Y20.701
T0
M30
