G04 #@! TF.FileFunction,Copper,L2,Inr,Plane*
%FSLAX46Y46*%
G04 Gerber Fmt 4.6, Leading zero omitted, Abs format (unit mm)*
G04 Created by KiCad (PCBNEW 4.0.5) date Sun Apr  2 23:53:42 2017*
%MOMM*%
%LPD*%
G01*
G04 APERTURE LIST*
%ADD10C,0.100000*%
%ADD11R,1.407922X1.407922*%
%ADD12C,1.407922*%
%ADD13C,1.397000*%
%ADD14C,1.778000*%
%ADD15C,2.082800*%
%ADD16C,3.759200*%
%ADD17C,3.048000*%
%ADD18C,2.108200*%
%ADD19C,2.794000*%
%ADD20C,3.302000*%
%ADD21C,1.574800*%
%ADD22C,4.572000*%
%ADD23C,0.558800*%
%ADD24C,0.076200*%
%ADD25C,0.254000*%
G04 APERTURE END LIST*
D10*
D11*
X101124004Y60572396D03*
D12*
X103124000Y60572396D03*
X101124004Y58572400D03*
X103124000Y58572400D03*
X101124004Y56572404D03*
X103124000Y56572404D03*
X101124004Y54572408D03*
X103124000Y54572408D03*
X101124004Y52572412D03*
X103124000Y52572412D03*
X101124004Y50572416D03*
X103124000Y50572416D03*
X101124004Y48572420D03*
X103124000Y48572420D03*
D13*
X99568000Y30607000D03*
X99568000Y28575000D03*
X99568000Y26543000D03*
X99568000Y24511000D03*
X99568000Y22479000D03*
X99568000Y20447000D03*
X97028000Y31623000D03*
X97028000Y29591000D03*
X97028000Y27559000D03*
X97028000Y23495000D03*
X97028000Y21463000D03*
X97028000Y19431000D03*
D14*
X112522000Y33045400D03*
X115062000Y33045400D03*
X109982000Y18008600D03*
X112522000Y18008600D03*
X115062000Y18008600D03*
D15*
X106172000Y34315400D03*
X106172000Y16738600D03*
D16*
X106172000Y30353000D03*
X106172000Y20701000D03*
D17*
X114283998Y81970118D03*
X114283998Y72969882D03*
D18*
X116283994Y77470000D03*
D19*
X113284000Y77470000D03*
D20*
X107284012Y77470000D03*
D21*
X93980000Y45720000D03*
X91440000Y45720000D03*
X93980000Y48260000D03*
X91440000Y48260000D03*
X93980000Y50800000D03*
X91440000Y50800000D03*
X93980000Y53340000D03*
X91440000Y53340000D03*
X93980000Y55880000D03*
X91440000Y55880000D03*
X93980000Y58420000D03*
X91440000Y58420000D03*
X93980000Y60960000D03*
X91440000Y60960000D03*
X93980000Y63500000D03*
X91440000Y63500000D03*
D22*
X8255000Y90805000D03*
X109601000Y90805000D03*
X8255000Y8255000D03*
X109601000Y8255000D03*
D23*
X16256000Y42164000D03*
X16256000Y40259000D03*
X13589000Y40259000D03*
X13589000Y42164000D03*
X18161000Y41275000D03*
X11557000Y41275000D03*
X16256000Y56261000D03*
X16256000Y58166000D03*
X13589000Y56261000D03*
X13589000Y58166000D03*
X18161000Y57277000D03*
X11557000Y57277000D03*
X16256000Y72263000D03*
X13589000Y72263000D03*
X16256000Y74168000D03*
X13589000Y74168000D03*
X18161000Y73279000D03*
X11557000Y73279000D03*
X29337000Y41275000D03*
X22987000Y41275000D03*
X29337000Y57277000D03*
X22987000Y57277000D03*
X29337000Y73279000D03*
X22987000Y73279000D03*
X29464000Y89281000D03*
X22860000Y89281000D03*
X16256000Y88265000D03*
X16256000Y90170000D03*
X13589000Y90170000D03*
X13589000Y88265000D03*
X18161000Y89281000D03*
X11557000Y89281000D03*
X114935000Y45593000D03*
X114935000Y51435000D03*
X9321800Y83439000D03*
X13995400Y87274400D03*
X96139000Y15113000D03*
X98552000Y15113000D03*
X19304000Y72517000D03*
X17780000Y61087000D03*
X102577900Y68872100D03*
X98907600Y57607200D03*
X98475800Y69621400D03*
X98298000Y68427600D03*
X98298000Y55549800D03*
X98399600Y53568600D03*
X97053400Y70154800D03*
X92151200Y71348600D03*
X90906600Y70739000D03*
X110312200Y41656000D03*
X110312200Y67513200D03*
X108585000Y47650400D03*
X108585000Y65913000D03*
X75361800Y72999600D03*
X75438000Y71932800D03*
X57835800Y25501600D03*
X37922200Y9398000D03*
X52984400Y69088000D03*
X35737800Y70307200D03*
X58039000Y65709800D03*
D24*
G36*
X117436900Y78123333D02*
X117328564Y78209241D01*
X116589323Y77470000D01*
X117328564Y76730759D01*
X117436900Y76816667D01*
X117436900Y35852100D01*
X101473000Y35852100D01*
X101462386Y35850592D01*
X101452612Y35846186D01*
X101444452Y35839231D01*
X101438553Y35830279D01*
X101435381Y35820038D01*
X101434900Y35814000D01*
X101434900Y15240000D01*
X101436408Y15229386D01*
X101440814Y15219612D01*
X101447769Y15211452D01*
X101456721Y15205553D01*
X101466962Y15202381D01*
X101473000Y15201900D01*
X117436900Y15201900D01*
X117436900Y419100D01*
X419100Y419100D01*
X419100Y9358489D01*
X37451682Y9358489D01*
X37468317Y9267851D01*
X37502241Y9182170D01*
X37552160Y9104710D01*
X37616175Y9038421D01*
X37691845Y8985829D01*
X37776290Y8948936D01*
X37866293Y8929148D01*
X37958425Y8927218D01*
X38049177Y8943220D01*
X38135093Y8976544D01*
X38212899Y9025922D01*
X38279633Y9089472D01*
X38332753Y9164773D01*
X38370235Y9248959D01*
X38390651Y9338821D01*
X38392121Y9444076D01*
X38374221Y9534473D01*
X38339105Y9619672D01*
X38288109Y9696428D01*
X38223175Y9761816D01*
X38146777Y9813347D01*
X38061826Y9849058D01*
X37971556Y9867587D01*
X37879406Y9868231D01*
X37788886Y9850963D01*
X37703444Y9816442D01*
X37626334Y9765983D01*
X37560494Y9701508D01*
X37508431Y9625472D01*
X37472128Y9540771D01*
X37452969Y9450633D01*
X37451682Y9358489D01*
X419100Y9358489D01*
X419100Y19349843D01*
X96061531Y19349843D01*
X96095701Y19163668D01*
X96165382Y18987674D01*
X96267919Y18828567D01*
X96399408Y18692407D01*
X96554840Y18584379D01*
X96728294Y18508599D01*
X96913164Y18467953D01*
X97102407Y18463988D01*
X97288817Y18496858D01*
X97465293Y18565308D01*
X97625112Y18666732D01*
X97762187Y18797267D01*
X97871297Y18951941D01*
X97948286Y19124861D01*
X97990222Y19309443D01*
X97993241Y19525643D01*
X97956475Y19711323D01*
X97884344Y19886326D01*
X97779595Y20043986D01*
X97646218Y20178298D01*
X97489294Y20284145D01*
X97314798Y20357496D01*
X97274135Y20365843D01*
X98601531Y20365843D01*
X98635701Y20179668D01*
X98705382Y20003674D01*
X98807919Y19844567D01*
X98939408Y19708407D01*
X99094840Y19600379D01*
X99268294Y19524599D01*
X99453164Y19483953D01*
X99642407Y19479988D01*
X99828817Y19512858D01*
X100005293Y19581308D01*
X100165112Y19682732D01*
X100302187Y19813267D01*
X100411297Y19967941D01*
X100488286Y20140861D01*
X100530222Y20325443D01*
X100533241Y20541643D01*
X100496475Y20727323D01*
X100424344Y20902326D01*
X100319595Y21059986D01*
X100186218Y21194298D01*
X100029294Y21300145D01*
X99854798Y21373496D01*
X99669379Y21411557D01*
X99480098Y21412878D01*
X99294165Y21377410D01*
X99118663Y21306502D01*
X98960276Y21202857D01*
X98825036Y21070420D01*
X98718096Y20914238D01*
X98643529Y20740259D01*
X98604174Y20555110D01*
X98601531Y20365843D01*
X97274135Y20365843D01*
X97129379Y20395557D01*
X96940098Y20396878D01*
X96754165Y20361410D01*
X96578663Y20290502D01*
X96420276Y20186857D01*
X96285036Y20054420D01*
X96178096Y19898238D01*
X96103529Y19724259D01*
X96064174Y19539110D01*
X96061531Y19349843D01*
X419100Y19349843D01*
X419100Y21381843D01*
X96061531Y21381843D01*
X96095701Y21195668D01*
X96165382Y21019674D01*
X96267919Y20860567D01*
X96399408Y20724407D01*
X96554840Y20616379D01*
X96728294Y20540599D01*
X96913164Y20499953D01*
X97102407Y20495988D01*
X97288817Y20528858D01*
X97465293Y20597308D01*
X97625112Y20698732D01*
X97762187Y20829267D01*
X97871297Y20983941D01*
X97948286Y21156861D01*
X97990222Y21341443D01*
X97993241Y21557643D01*
X97956475Y21743323D01*
X97884344Y21918326D01*
X97779595Y22075986D01*
X97646218Y22210298D01*
X97489294Y22316145D01*
X97314798Y22389496D01*
X97274135Y22397843D01*
X98601531Y22397843D01*
X98635701Y22211668D01*
X98705382Y22035674D01*
X98807919Y21876567D01*
X98939408Y21740407D01*
X99094840Y21632379D01*
X99268294Y21556599D01*
X99453164Y21515953D01*
X99642407Y21511988D01*
X99828817Y21544858D01*
X100005293Y21613308D01*
X100165112Y21714732D01*
X100302187Y21845267D01*
X100411297Y21999941D01*
X100488286Y22172861D01*
X100530222Y22357443D01*
X100533241Y22573643D01*
X100496475Y22759323D01*
X100424344Y22934326D01*
X100319595Y23091986D01*
X100186218Y23226298D01*
X100029294Y23332145D01*
X99854798Y23405496D01*
X99669379Y23443557D01*
X99480098Y23444878D01*
X99294165Y23409410D01*
X99118663Y23338502D01*
X98960276Y23234857D01*
X98825036Y23102420D01*
X98718096Y22946238D01*
X98643529Y22772259D01*
X98604174Y22587110D01*
X98601531Y22397843D01*
X97274135Y22397843D01*
X97129379Y22427557D01*
X96940098Y22428878D01*
X96754165Y22393410D01*
X96578663Y22322502D01*
X96420276Y22218857D01*
X96285036Y22086420D01*
X96178096Y21930238D01*
X96103529Y21756259D01*
X96064174Y21571110D01*
X96061531Y21381843D01*
X419100Y21381843D01*
X419100Y23413843D01*
X96061531Y23413843D01*
X96095701Y23227668D01*
X96165382Y23051674D01*
X96267919Y22892567D01*
X96399408Y22756407D01*
X96554840Y22648379D01*
X96728294Y22572599D01*
X96913164Y22531953D01*
X97102407Y22527988D01*
X97288817Y22560858D01*
X97465293Y22629308D01*
X97625112Y22730732D01*
X97762187Y22861267D01*
X97871297Y23015941D01*
X97948286Y23188861D01*
X97990222Y23373443D01*
X97993241Y23589643D01*
X97956475Y23775323D01*
X97884344Y23950326D01*
X97779595Y24107986D01*
X97646218Y24242298D01*
X97489294Y24348145D01*
X97314798Y24421496D01*
X97274135Y24429843D01*
X98601531Y24429843D01*
X98635701Y24243668D01*
X98705382Y24067674D01*
X98807919Y23908567D01*
X98939408Y23772407D01*
X99094840Y23664379D01*
X99268294Y23588599D01*
X99453164Y23547953D01*
X99642407Y23543988D01*
X99828817Y23576858D01*
X100005293Y23645308D01*
X100165112Y23746732D01*
X100302187Y23877267D01*
X100411297Y24031941D01*
X100488286Y24204861D01*
X100530222Y24389443D01*
X100533241Y24605643D01*
X100496475Y24791323D01*
X100424344Y24966326D01*
X100319595Y25123986D01*
X100186218Y25258298D01*
X100029294Y25364145D01*
X99854798Y25437496D01*
X99669379Y25475557D01*
X99480098Y25476878D01*
X99294165Y25441410D01*
X99118663Y25370502D01*
X98960276Y25266857D01*
X98825036Y25134420D01*
X98718096Y24978238D01*
X98643529Y24804259D01*
X98604174Y24619110D01*
X98601531Y24429843D01*
X97274135Y24429843D01*
X97129379Y24459557D01*
X96940098Y24460878D01*
X96754165Y24425410D01*
X96578663Y24354502D01*
X96420276Y24250857D01*
X96285036Y24118420D01*
X96178096Y23962238D01*
X96103529Y23788259D01*
X96064174Y23603110D01*
X96061531Y23413843D01*
X419100Y23413843D01*
X419100Y25462089D01*
X57365282Y25462089D01*
X57381917Y25371451D01*
X57415841Y25285770D01*
X57465760Y25208310D01*
X57529775Y25142021D01*
X57605445Y25089429D01*
X57689890Y25052536D01*
X57779893Y25032748D01*
X57872025Y25030818D01*
X57962777Y25046820D01*
X58048693Y25080144D01*
X58126499Y25129522D01*
X58193233Y25193072D01*
X58246353Y25268373D01*
X58283835Y25352559D01*
X58304251Y25442421D01*
X58305721Y25547676D01*
X58287821Y25638073D01*
X58252705Y25723272D01*
X58201709Y25800028D01*
X58136775Y25865416D01*
X58060377Y25916947D01*
X57975426Y25952658D01*
X57885156Y25971187D01*
X57793006Y25971831D01*
X57702486Y25954563D01*
X57617044Y25920042D01*
X57539934Y25869583D01*
X57474094Y25805108D01*
X57422031Y25729072D01*
X57385728Y25644371D01*
X57366569Y25554233D01*
X57365282Y25462089D01*
X419100Y25462089D01*
X419100Y26461843D01*
X98601531Y26461843D01*
X98635701Y26275668D01*
X98705382Y26099674D01*
X98807919Y25940567D01*
X98939408Y25804407D01*
X99094840Y25696379D01*
X99268294Y25620599D01*
X99453164Y25579953D01*
X99642407Y25575988D01*
X99828817Y25608858D01*
X100005293Y25677308D01*
X100165112Y25778732D01*
X100302187Y25909267D01*
X100411297Y26063941D01*
X100488286Y26236861D01*
X100530222Y26421443D01*
X100533241Y26637643D01*
X100496475Y26823323D01*
X100424344Y26998326D01*
X100319595Y27155986D01*
X100186218Y27290298D01*
X100029294Y27396145D01*
X99854798Y27469496D01*
X99669379Y27507557D01*
X99480098Y27508878D01*
X99294165Y27473410D01*
X99118663Y27402502D01*
X98960276Y27298857D01*
X98825036Y27166420D01*
X98718096Y27010238D01*
X98643529Y26836259D01*
X98604174Y26651110D01*
X98601531Y26461843D01*
X419100Y26461843D01*
X419100Y27477843D01*
X96061531Y27477843D01*
X96095701Y27291668D01*
X96165382Y27115674D01*
X96267919Y26956567D01*
X96399408Y26820407D01*
X96554840Y26712379D01*
X96728294Y26636599D01*
X96913164Y26595953D01*
X97102407Y26591988D01*
X97288817Y26624858D01*
X97465293Y26693308D01*
X97625112Y26794732D01*
X97762187Y26925267D01*
X97871297Y27079941D01*
X97948286Y27252861D01*
X97990222Y27437443D01*
X97993241Y27653643D01*
X97956475Y27839323D01*
X97884344Y28014326D01*
X97779595Y28171986D01*
X97646218Y28306298D01*
X97489294Y28412145D01*
X97314798Y28485496D01*
X97274135Y28493843D01*
X98601531Y28493843D01*
X98635701Y28307668D01*
X98705382Y28131674D01*
X98807919Y27972567D01*
X98939408Y27836407D01*
X99094840Y27728379D01*
X99268294Y27652599D01*
X99453164Y27611953D01*
X99642407Y27607988D01*
X99828817Y27640858D01*
X100005293Y27709308D01*
X100165112Y27810732D01*
X100302187Y27941267D01*
X100411297Y28095941D01*
X100488286Y28268861D01*
X100530222Y28453443D01*
X100533241Y28669643D01*
X100496475Y28855323D01*
X100424344Y29030326D01*
X100319595Y29187986D01*
X100186218Y29322298D01*
X100029294Y29428145D01*
X99854798Y29501496D01*
X99669379Y29539557D01*
X99480098Y29540878D01*
X99294165Y29505410D01*
X99118663Y29434502D01*
X98960276Y29330857D01*
X98825036Y29198420D01*
X98718096Y29042238D01*
X98643529Y28868259D01*
X98604174Y28683110D01*
X98601531Y28493843D01*
X97274135Y28493843D01*
X97129379Y28523557D01*
X96940098Y28524878D01*
X96754165Y28489410D01*
X96578663Y28418502D01*
X96420276Y28314857D01*
X96285036Y28182420D01*
X96178096Y28026238D01*
X96103529Y27852259D01*
X96064174Y27667110D01*
X96061531Y27477843D01*
X419100Y27477843D01*
X419100Y29509843D01*
X96061531Y29509843D01*
X96095701Y29323668D01*
X96165382Y29147674D01*
X96267919Y28988567D01*
X96399408Y28852407D01*
X96554840Y28744379D01*
X96728294Y28668599D01*
X96913164Y28627953D01*
X97102407Y28623988D01*
X97288817Y28656858D01*
X97465293Y28725308D01*
X97625112Y28826732D01*
X97762187Y28957267D01*
X97871297Y29111941D01*
X97948286Y29284861D01*
X97990222Y29469443D01*
X97993241Y29685643D01*
X97956475Y29871323D01*
X97884344Y30046326D01*
X97779595Y30203986D01*
X97646218Y30338298D01*
X97489294Y30444145D01*
X97314798Y30517496D01*
X97274135Y30525843D01*
X98601531Y30525843D01*
X98635701Y30339668D01*
X98705382Y30163674D01*
X98807919Y30004567D01*
X98939408Y29868407D01*
X99094840Y29760379D01*
X99268294Y29684599D01*
X99453164Y29643953D01*
X99642407Y29639988D01*
X99828817Y29672858D01*
X100005293Y29741308D01*
X100165112Y29842732D01*
X100302187Y29973267D01*
X100411297Y30127941D01*
X100488286Y30300861D01*
X100530222Y30485443D01*
X100533241Y30701643D01*
X100496475Y30887323D01*
X100424344Y31062326D01*
X100319595Y31219986D01*
X100186218Y31354298D01*
X100029294Y31460145D01*
X99854798Y31533496D01*
X99669379Y31571557D01*
X99480098Y31572878D01*
X99294165Y31537410D01*
X99118663Y31466502D01*
X98960276Y31362857D01*
X98825036Y31230420D01*
X98718096Y31074238D01*
X98643529Y30900259D01*
X98604174Y30715110D01*
X98601531Y30525843D01*
X97274135Y30525843D01*
X97129379Y30555557D01*
X96940098Y30556878D01*
X96754165Y30521410D01*
X96578663Y30450502D01*
X96420276Y30346857D01*
X96285036Y30214420D01*
X96178096Y30058238D01*
X96103529Y29884259D01*
X96064174Y29699110D01*
X96061531Y29509843D01*
X419100Y29509843D01*
X419100Y31541843D01*
X96061531Y31541843D01*
X96095701Y31355668D01*
X96165382Y31179674D01*
X96267919Y31020567D01*
X96399408Y30884407D01*
X96554840Y30776379D01*
X96728294Y30700599D01*
X96913164Y30659953D01*
X97102407Y30655988D01*
X97288817Y30688858D01*
X97465293Y30757308D01*
X97625112Y30858732D01*
X97762187Y30989267D01*
X97871297Y31143941D01*
X97948286Y31316861D01*
X97990222Y31501443D01*
X97993241Y31717643D01*
X97956475Y31903323D01*
X97884344Y32078326D01*
X97779595Y32235986D01*
X97646218Y32370298D01*
X97489294Y32476145D01*
X97314798Y32549496D01*
X97129379Y32587557D01*
X96940098Y32588878D01*
X96754165Y32553410D01*
X96578663Y32482502D01*
X96420276Y32378857D01*
X96285036Y32246420D01*
X96178096Y32090238D01*
X96103529Y31916259D01*
X96064174Y31731110D01*
X96061531Y31541843D01*
X419100Y31541843D01*
X419100Y41616489D01*
X109841682Y41616489D01*
X109858317Y41525851D01*
X109892241Y41440170D01*
X109942160Y41362710D01*
X110006175Y41296421D01*
X110081845Y41243829D01*
X110166290Y41206936D01*
X110256293Y41187148D01*
X110348425Y41185218D01*
X110439177Y41201220D01*
X110525093Y41234544D01*
X110602899Y41283922D01*
X110669633Y41347472D01*
X110722753Y41422773D01*
X110760235Y41506959D01*
X110780651Y41596821D01*
X110782121Y41702076D01*
X110764221Y41792473D01*
X110729105Y41877672D01*
X110678109Y41954428D01*
X110613175Y42019816D01*
X110536777Y42071347D01*
X110451826Y42107058D01*
X110361556Y42125587D01*
X110269406Y42126231D01*
X110178886Y42108963D01*
X110093444Y42074442D01*
X110016334Y42023983D01*
X109950494Y41959508D01*
X109898431Y41883472D01*
X109862128Y41798771D01*
X109842969Y41708633D01*
X109841682Y41616489D01*
X419100Y41616489D01*
X419100Y45629233D01*
X90359081Y45629233D01*
X90397297Y45421010D01*
X90475230Y45224175D01*
X90589910Y45046227D01*
X90736969Y44893942D01*
X90910807Y44773121D01*
X91104802Y44688367D01*
X91311564Y44642907D01*
X91523219Y44638474D01*
X91731704Y44675235D01*
X91929077Y44751792D01*
X92107822Y44865227D01*
X92261130Y45011220D01*
X92383161Y45184210D01*
X92469268Y45377608D01*
X92516170Y45584048D01*
X92516800Y45629233D01*
X92899081Y45629233D01*
X92937297Y45421010D01*
X93015230Y45224175D01*
X93129910Y45046227D01*
X93276969Y44893942D01*
X93450807Y44773121D01*
X93644802Y44688367D01*
X93851564Y44642907D01*
X94063219Y44638474D01*
X94271704Y44675235D01*
X94469077Y44751792D01*
X94647822Y44865227D01*
X94801130Y45011220D01*
X94923161Y45184210D01*
X95009268Y45377608D01*
X95056170Y45584048D01*
X95059546Y45825850D01*
X95018426Y46033519D01*
X94937754Y46229247D01*
X94820600Y46405577D01*
X94671428Y46555793D01*
X94495921Y46674175D01*
X94300761Y46756212D01*
X94093384Y46798781D01*
X93881689Y46800259D01*
X93673738Y46760590D01*
X93477452Y46681285D01*
X93300308Y46565366D01*
X93149054Y46417247D01*
X93029450Y46242569D01*
X92946052Y46047988D01*
X92902037Y45840913D01*
X92899081Y45629233D01*
X92516800Y45629233D01*
X92519546Y45825850D01*
X92478426Y46033519D01*
X92397754Y46229247D01*
X92280600Y46405577D01*
X92131428Y46555793D01*
X91955921Y46674175D01*
X91760761Y46756212D01*
X91553384Y46798781D01*
X91341689Y46800259D01*
X91133738Y46760590D01*
X90937452Y46681285D01*
X90760308Y46565366D01*
X90609054Y46417247D01*
X90489450Y46242569D01*
X90406052Y46047988D01*
X90362037Y45840913D01*
X90359081Y45629233D01*
X419100Y45629233D01*
X419100Y48169233D01*
X90359081Y48169233D01*
X90397297Y47961010D01*
X90475230Y47764175D01*
X90589910Y47586227D01*
X90736969Y47433942D01*
X90910807Y47313121D01*
X91104802Y47228367D01*
X91311564Y47182907D01*
X91523219Y47178474D01*
X91731704Y47215235D01*
X91929077Y47291792D01*
X92107822Y47405227D01*
X92261130Y47551220D01*
X92383161Y47724210D01*
X92469268Y47917608D01*
X92516170Y48124048D01*
X92516800Y48169233D01*
X92899081Y48169233D01*
X92937297Y47961010D01*
X93015230Y47764175D01*
X93129910Y47586227D01*
X93276969Y47433942D01*
X93450807Y47313121D01*
X93644802Y47228367D01*
X93851564Y47182907D01*
X94063219Y47178474D01*
X94271704Y47215235D01*
X94469077Y47291792D01*
X94647822Y47405227D01*
X94801130Y47551220D01*
X94923161Y47724210D01*
X94991751Y47878266D01*
X100537613Y47878266D01*
X100614102Y47740961D01*
X100786109Y47657461D01*
X100971101Y47609122D01*
X101161969Y47597801D01*
X101256825Y47610889D01*
X108114482Y47610889D01*
X108131117Y47520251D01*
X108165041Y47434570D01*
X108214960Y47357110D01*
X108278975Y47290821D01*
X108354645Y47238229D01*
X108439090Y47201336D01*
X108529093Y47181548D01*
X108621225Y47179618D01*
X108711977Y47195620D01*
X108797893Y47228944D01*
X108875699Y47278322D01*
X108942433Y47341872D01*
X108995553Y47417173D01*
X109033035Y47501359D01*
X109053451Y47591221D01*
X109054921Y47696476D01*
X109037021Y47786873D01*
X109001905Y47872072D01*
X108950909Y47948828D01*
X108885975Y48014216D01*
X108809577Y48065747D01*
X108724626Y48101458D01*
X108634356Y48119987D01*
X108542206Y48120631D01*
X108451686Y48103363D01*
X108366244Y48068842D01*
X108289134Y48018383D01*
X108223294Y47953908D01*
X108171231Y47877872D01*
X108134928Y47793171D01*
X108115769Y47703033D01*
X108114482Y47610889D01*
X101256825Y47610889D01*
X101351378Y47623935D01*
X101532050Y47686518D01*
X101633906Y47740961D01*
X101710395Y47878266D01*
X101124004Y48464657D01*
X100537613Y47878266D01*
X94991751Y47878266D01*
X95009268Y47917608D01*
X95056170Y48124048D01*
X95059546Y48365850D01*
X95026161Y48534455D01*
X100149385Y48534455D01*
X100175519Y48345046D01*
X100238102Y48164374D01*
X100292545Y48062518D01*
X100429850Y47986029D01*
X101016241Y48572420D01*
X101231767Y48572420D01*
X101818158Y47986029D01*
X101955463Y48062518D01*
X102038963Y48234525D01*
X102087302Y48419517D01*
X102091656Y48492940D01*
X102177496Y48492940D01*
X102210960Y48310610D01*
X102279201Y48138252D01*
X102379621Y47982432D01*
X102508393Y47849084D01*
X102660614Y47743288D01*
X102830485Y47669073D01*
X103011536Y47629267D01*
X103196870Y47625384D01*
X103379429Y47657574D01*
X103552259Y47724611D01*
X103708777Y47823940D01*
X103843020Y47951778D01*
X103949877Y48103257D01*
X104025276Y48272605D01*
X104066345Y48453374D01*
X104069302Y48665108D01*
X104033296Y48846953D01*
X103962655Y49018341D01*
X103860069Y49172744D01*
X103729448Y49304280D01*
X103575765Y49407941D01*
X103404874Y49479777D01*
X103223285Y49517052D01*
X103037914Y49518346D01*
X102855822Y49483610D01*
X102683945Y49414167D01*
X102528830Y49312662D01*
X102396384Y49182962D01*
X102291653Y49030007D01*
X102218626Y48859622D01*
X102180084Y48678297D01*
X102177496Y48492940D01*
X102091656Y48492940D01*
X102098623Y48610385D01*
X102072489Y48799794D01*
X102009906Y48980466D01*
X101955463Y49082322D01*
X101818158Y49158811D01*
X101231767Y48572420D01*
X101016241Y48572420D01*
X100429850Y49158811D01*
X100292545Y49082322D01*
X100209045Y48910315D01*
X100160706Y48725323D01*
X100149385Y48534455D01*
X95026161Y48534455D01*
X95018426Y48573519D01*
X94937754Y48769247D01*
X94820600Y48945577D01*
X94671428Y49095793D01*
X94495921Y49214175D01*
X94371268Y49266574D01*
X100537613Y49266574D01*
X101124004Y48680183D01*
X101710395Y49266574D01*
X101633906Y49403879D01*
X101461899Y49487379D01*
X101276907Y49535718D01*
X101086039Y49547039D01*
X100896630Y49520905D01*
X100715958Y49458322D01*
X100614102Y49403879D01*
X100537613Y49266574D01*
X94371268Y49266574D01*
X94300761Y49296212D01*
X94093384Y49338781D01*
X93881689Y49340259D01*
X93673738Y49300590D01*
X93477452Y49221285D01*
X93300308Y49105366D01*
X93149054Y48957247D01*
X93029450Y48782569D01*
X92946052Y48587988D01*
X92902037Y48380913D01*
X92899081Y48169233D01*
X92516800Y48169233D01*
X92519546Y48365850D01*
X92478426Y48573519D01*
X92397754Y48769247D01*
X92280600Y48945577D01*
X92131428Y49095793D01*
X91955921Y49214175D01*
X91760761Y49296212D01*
X91553384Y49338781D01*
X91341689Y49340259D01*
X91133738Y49300590D01*
X90937452Y49221285D01*
X90760308Y49105366D01*
X90609054Y48957247D01*
X90489450Y48782569D01*
X90406052Y48587988D01*
X90362037Y48380913D01*
X90359081Y48169233D01*
X419100Y48169233D01*
X419100Y50709233D01*
X90359081Y50709233D01*
X90397297Y50501010D01*
X90475230Y50304175D01*
X90589910Y50126227D01*
X90736969Y49973942D01*
X90910807Y49853121D01*
X91104802Y49768367D01*
X91311564Y49722907D01*
X91523219Y49718474D01*
X91731704Y49755235D01*
X91929077Y49831792D01*
X92107822Y49945227D01*
X92261130Y50091220D01*
X92383161Y50264210D01*
X92469268Y50457608D01*
X92516170Y50664048D01*
X92516800Y50709233D01*
X92899081Y50709233D01*
X92937297Y50501010D01*
X93015230Y50304175D01*
X93129910Y50126227D01*
X93276969Y49973942D01*
X93450807Y49853121D01*
X93644802Y49768367D01*
X93851564Y49722907D01*
X94063219Y49718474D01*
X94271704Y49755235D01*
X94469077Y49831792D01*
X94542302Y49878262D01*
X100537613Y49878262D01*
X100614102Y49740957D01*
X100786109Y49657457D01*
X100971101Y49609118D01*
X101161969Y49597797D01*
X101351378Y49623931D01*
X101532050Y49686514D01*
X101633906Y49740957D01*
X101710395Y49878262D01*
X101124004Y50464653D01*
X100537613Y49878262D01*
X94542302Y49878262D01*
X94647822Y49945227D01*
X94801130Y50091220D01*
X94923161Y50264210D01*
X95009268Y50457608D01*
X95026726Y50534451D01*
X100149385Y50534451D01*
X100175519Y50345042D01*
X100238102Y50164370D01*
X100292545Y50062514D01*
X100429850Y49986025D01*
X101016241Y50572416D01*
X101231767Y50572416D01*
X101818158Y49986025D01*
X101955463Y50062514D01*
X102038963Y50234521D01*
X102087302Y50419513D01*
X102091656Y50492936D01*
X102177496Y50492936D01*
X102210960Y50310606D01*
X102279201Y50138248D01*
X102379621Y49982428D01*
X102508393Y49849080D01*
X102660614Y49743284D01*
X102830485Y49669069D01*
X103011536Y49629263D01*
X103196870Y49625380D01*
X103379429Y49657570D01*
X103552259Y49724607D01*
X103708777Y49823936D01*
X103843020Y49951774D01*
X103949877Y50103253D01*
X104025276Y50272601D01*
X104066345Y50453370D01*
X104069302Y50665104D01*
X104033296Y50846949D01*
X103962655Y51018337D01*
X103860069Y51172740D01*
X103729448Y51304276D01*
X103575765Y51407937D01*
X103404874Y51479773D01*
X103223285Y51517048D01*
X103037914Y51518342D01*
X102855822Y51483606D01*
X102683945Y51414163D01*
X102528830Y51312658D01*
X102396384Y51182958D01*
X102291653Y51030003D01*
X102218626Y50859618D01*
X102180084Y50678293D01*
X102177496Y50492936D01*
X102091656Y50492936D01*
X102098623Y50610381D01*
X102072489Y50799790D01*
X102009906Y50980462D01*
X101955463Y51082318D01*
X101818158Y51158807D01*
X101231767Y50572416D01*
X101016241Y50572416D01*
X100429850Y51158807D01*
X100292545Y51082318D01*
X100209045Y50910311D01*
X100160706Y50725319D01*
X100149385Y50534451D01*
X95026726Y50534451D01*
X95056170Y50664048D01*
X95059546Y50905850D01*
X95018426Y51113519D01*
X94955344Y51266570D01*
X100537613Y51266570D01*
X101124004Y50680179D01*
X101710395Y51266570D01*
X101633906Y51403875D01*
X101461899Y51487375D01*
X101276907Y51535714D01*
X101086039Y51547035D01*
X100896630Y51520901D01*
X100715958Y51458318D01*
X100614102Y51403875D01*
X100537613Y51266570D01*
X94955344Y51266570D01*
X94937754Y51309247D01*
X94820600Y51485577D01*
X94671428Y51635793D01*
X94495921Y51754175D01*
X94300761Y51836212D01*
X94095932Y51878258D01*
X100537613Y51878258D01*
X100614102Y51740953D01*
X100786109Y51657453D01*
X100971101Y51609114D01*
X101161969Y51597793D01*
X101351378Y51623927D01*
X101532050Y51686510D01*
X101633906Y51740953D01*
X101710395Y51878258D01*
X101124004Y52464649D01*
X100537613Y51878258D01*
X94095932Y51878258D01*
X94093384Y51878781D01*
X93881689Y51880259D01*
X93673738Y51840590D01*
X93477452Y51761285D01*
X93300308Y51645366D01*
X93149054Y51497247D01*
X93029450Y51322569D01*
X92946052Y51127988D01*
X92902037Y50920913D01*
X92899081Y50709233D01*
X92516800Y50709233D01*
X92519546Y50905850D01*
X92478426Y51113519D01*
X92397754Y51309247D01*
X92280600Y51485577D01*
X92131428Y51635793D01*
X91955921Y51754175D01*
X91760761Y51836212D01*
X91553384Y51878781D01*
X91341689Y51880259D01*
X91133738Y51840590D01*
X90937452Y51761285D01*
X90760308Y51645366D01*
X90609054Y51497247D01*
X90489450Y51322569D01*
X90406052Y51127988D01*
X90362037Y50920913D01*
X90359081Y50709233D01*
X419100Y50709233D01*
X419100Y52564527D01*
X90790250Y52564527D01*
X90876483Y52413139D01*
X91068133Y52321011D01*
X91274073Y52268043D01*
X91486390Y52256270D01*
X91696924Y52286144D01*
X91897585Y52356517D01*
X92003517Y52413139D01*
X92089750Y52564527D01*
X93330250Y52564527D01*
X93416483Y52413139D01*
X93608133Y52321011D01*
X93814073Y52268043D01*
X94026390Y52256270D01*
X94236924Y52286144D01*
X94437585Y52356517D01*
X94543517Y52413139D01*
X94612615Y52534447D01*
X100149385Y52534447D01*
X100175519Y52345038D01*
X100238102Y52164366D01*
X100292545Y52062510D01*
X100429850Y51986021D01*
X101016241Y52572412D01*
X101231767Y52572412D01*
X101818158Y51986021D01*
X101955463Y52062510D01*
X102038963Y52234517D01*
X102087302Y52419509D01*
X102091656Y52492932D01*
X102177496Y52492932D01*
X102210960Y52310602D01*
X102279201Y52138244D01*
X102379621Y51982424D01*
X102508393Y51849076D01*
X102660614Y51743280D01*
X102830485Y51669065D01*
X103011536Y51629259D01*
X103196870Y51625376D01*
X103379429Y51657566D01*
X103552259Y51724603D01*
X103708777Y51823932D01*
X103843020Y51951770D01*
X103949877Y52103249D01*
X104025276Y52272597D01*
X104066345Y52453366D01*
X104069302Y52665100D01*
X104033296Y52846945D01*
X103962655Y53018333D01*
X103860069Y53172736D01*
X103729448Y53304272D01*
X103575765Y53407933D01*
X103404874Y53479769D01*
X103223285Y53517044D01*
X103037914Y53518338D01*
X102855822Y53483602D01*
X102683945Y53414159D01*
X102528830Y53312654D01*
X102396384Y53182954D01*
X102291653Y53029999D01*
X102218626Y52859614D01*
X102180084Y52678289D01*
X102177496Y52492932D01*
X102091656Y52492932D01*
X102098623Y52610377D01*
X102072489Y52799786D01*
X102009906Y52980458D01*
X101955463Y53082314D01*
X101818158Y53158803D01*
X101231767Y52572412D01*
X101016241Y52572412D01*
X100429850Y53158803D01*
X100292545Y53082314D01*
X100209045Y52910307D01*
X100160706Y52725315D01*
X100149385Y52534447D01*
X94612615Y52534447D01*
X94629750Y52564527D01*
X93980000Y53214276D01*
X93330250Y52564527D01*
X92089750Y52564527D01*
X91440000Y53214276D01*
X90790250Y52564527D01*
X419100Y52564527D01*
X419100Y53293610D01*
X90356270Y53293610D01*
X90386144Y53083076D01*
X90456517Y52882415D01*
X90513139Y52776483D01*
X90664527Y52690250D01*
X91314276Y53340000D01*
X91565724Y53340000D01*
X92215473Y52690250D01*
X92366861Y52776483D01*
X92458989Y52968133D01*
X92511957Y53174073D01*
X92518585Y53293610D01*
X92896270Y53293610D01*
X92926144Y53083076D01*
X92996517Y52882415D01*
X93053139Y52776483D01*
X93204527Y52690250D01*
X93854276Y53340000D01*
X94105724Y53340000D01*
X94755473Y52690250D01*
X94906861Y52776483D01*
X94998989Y52968133D01*
X95051957Y53174073D01*
X95063730Y53386390D01*
X95043482Y53529089D01*
X97929082Y53529089D01*
X97945717Y53438451D01*
X97979641Y53352770D01*
X98029560Y53275310D01*
X98093575Y53209021D01*
X98169245Y53156429D01*
X98253690Y53119536D01*
X98343693Y53099748D01*
X98435825Y53097818D01*
X98526577Y53113820D01*
X98612493Y53147144D01*
X98690299Y53196522D01*
X98757033Y53260072D01*
X98761614Y53266566D01*
X100537613Y53266566D01*
X101124004Y52680175D01*
X101710395Y53266566D01*
X101633906Y53403871D01*
X101461899Y53487371D01*
X101276907Y53535710D01*
X101086039Y53547031D01*
X100896630Y53520897D01*
X100715958Y53458314D01*
X100614102Y53403871D01*
X100537613Y53266566D01*
X98761614Y53266566D01*
X98810153Y53335373D01*
X98847635Y53419559D01*
X98868051Y53509421D01*
X98869521Y53614676D01*
X98851621Y53705073D01*
X98816505Y53790272D01*
X98765509Y53867028D01*
X98754361Y53878254D01*
X100537613Y53878254D01*
X100614102Y53740949D01*
X100786109Y53657449D01*
X100971101Y53609110D01*
X101161969Y53597789D01*
X101351378Y53623923D01*
X101532050Y53686506D01*
X101633906Y53740949D01*
X101710395Y53878254D01*
X101124004Y54464645D01*
X100537613Y53878254D01*
X98754361Y53878254D01*
X98700575Y53932416D01*
X98624177Y53983947D01*
X98539226Y54019658D01*
X98448956Y54038187D01*
X98356806Y54038831D01*
X98266286Y54021563D01*
X98180844Y53987042D01*
X98103734Y53936583D01*
X98037894Y53872108D01*
X97985831Y53796072D01*
X97949528Y53711371D01*
X97930369Y53621233D01*
X97929082Y53529089D01*
X95043482Y53529089D01*
X95033856Y53596924D01*
X94963483Y53797585D01*
X94906861Y53903517D01*
X94755473Y53989750D01*
X94105724Y53340000D01*
X93854276Y53340000D01*
X93204527Y53989750D01*
X93053139Y53903517D01*
X92961011Y53711867D01*
X92908043Y53505927D01*
X92896270Y53293610D01*
X92518585Y53293610D01*
X92523730Y53386390D01*
X92493856Y53596924D01*
X92423483Y53797585D01*
X92366861Y53903517D01*
X92215473Y53989750D01*
X91565724Y53340000D01*
X91314276Y53340000D01*
X90664527Y53989750D01*
X90513139Y53903517D01*
X90421011Y53711867D01*
X90368043Y53505927D01*
X90356270Y53293610D01*
X419100Y53293610D01*
X419100Y54115473D01*
X90790250Y54115473D01*
X91440000Y53465724D01*
X92089750Y54115473D01*
X93330250Y54115473D01*
X93980000Y53465724D01*
X94629750Y54115473D01*
X94543517Y54266861D01*
X94351867Y54358989D01*
X94145927Y54411957D01*
X93933610Y54423730D01*
X93723076Y54393856D01*
X93522415Y54323483D01*
X93416483Y54266861D01*
X93330250Y54115473D01*
X92089750Y54115473D01*
X92003517Y54266861D01*
X91811867Y54358989D01*
X91605927Y54411957D01*
X91393610Y54423730D01*
X91183076Y54393856D01*
X90982415Y54323483D01*
X90876483Y54266861D01*
X90790250Y54115473D01*
X419100Y54115473D01*
X419100Y54534443D01*
X100149385Y54534443D01*
X100175519Y54345034D01*
X100238102Y54164362D01*
X100292545Y54062506D01*
X100429850Y53986017D01*
X101016241Y54572408D01*
X101231767Y54572408D01*
X101818158Y53986017D01*
X101955463Y54062506D01*
X102038963Y54234513D01*
X102087302Y54419505D01*
X102091656Y54492928D01*
X102177496Y54492928D01*
X102210960Y54310598D01*
X102279201Y54138240D01*
X102379621Y53982420D01*
X102508393Y53849072D01*
X102660614Y53743276D01*
X102830485Y53669061D01*
X103011536Y53629255D01*
X103196870Y53625372D01*
X103379429Y53657562D01*
X103552259Y53724599D01*
X103708777Y53823928D01*
X103843020Y53951766D01*
X103949877Y54103245D01*
X104025276Y54272593D01*
X104066345Y54453362D01*
X104069302Y54665096D01*
X104033296Y54846941D01*
X103962655Y55018329D01*
X103860069Y55172732D01*
X103729448Y55304268D01*
X103575765Y55407929D01*
X103404874Y55479765D01*
X103223285Y55517040D01*
X103037914Y55518334D01*
X102855822Y55483598D01*
X102683945Y55414155D01*
X102528830Y55312650D01*
X102396384Y55182950D01*
X102291653Y55029995D01*
X102218626Y54859610D01*
X102180084Y54678285D01*
X102177496Y54492928D01*
X102091656Y54492928D01*
X102098623Y54610373D01*
X102072489Y54799782D01*
X102009906Y54980454D01*
X101955463Y55082310D01*
X101818158Y55158799D01*
X101231767Y54572408D01*
X101016241Y54572408D01*
X100429850Y55158799D01*
X100292545Y55082310D01*
X100209045Y54910303D01*
X100160706Y54725311D01*
X100149385Y54534443D01*
X419100Y54534443D01*
X419100Y55789233D01*
X90359081Y55789233D01*
X90397297Y55581010D01*
X90475230Y55384175D01*
X90589910Y55206227D01*
X90736969Y55053942D01*
X90910807Y54933121D01*
X91104802Y54848367D01*
X91311564Y54802907D01*
X91523219Y54798474D01*
X91731704Y54835235D01*
X91929077Y54911792D01*
X92107822Y55025227D01*
X92261130Y55171220D01*
X92383161Y55344210D01*
X92469268Y55537608D01*
X92516170Y55744048D01*
X92516800Y55789233D01*
X92899081Y55789233D01*
X92937297Y55581010D01*
X93015230Y55384175D01*
X93129910Y55206227D01*
X93276969Y55053942D01*
X93450807Y54933121D01*
X93644802Y54848367D01*
X93851564Y54802907D01*
X94063219Y54798474D01*
X94271704Y54835235D01*
X94469077Y54911792D01*
X94647822Y55025227D01*
X94801130Y55171220D01*
X94923161Y55344210D01*
X94997104Y55510289D01*
X97827482Y55510289D01*
X97844117Y55419651D01*
X97878041Y55333970D01*
X97927960Y55256510D01*
X97991975Y55190221D01*
X98067645Y55137629D01*
X98152090Y55100736D01*
X98242093Y55080948D01*
X98334225Y55079018D01*
X98424977Y55095020D01*
X98510893Y55128344D01*
X98588699Y55177722D01*
X98655433Y55241272D01*
X98673273Y55266562D01*
X100537613Y55266562D01*
X101124004Y54680171D01*
X101710395Y55266562D01*
X101633906Y55403867D01*
X101461899Y55487367D01*
X101276907Y55535706D01*
X101086039Y55547027D01*
X100896630Y55520893D01*
X100715958Y55458310D01*
X100614102Y55403867D01*
X100537613Y55266562D01*
X98673273Y55266562D01*
X98708553Y55316573D01*
X98746035Y55400759D01*
X98766451Y55490621D01*
X98767921Y55595876D01*
X98750021Y55686273D01*
X98714905Y55771472D01*
X98663909Y55848228D01*
X98634096Y55878250D01*
X100537613Y55878250D01*
X100614102Y55740945D01*
X100786109Y55657445D01*
X100971101Y55609106D01*
X101161969Y55597785D01*
X101351378Y55623919D01*
X101532050Y55686502D01*
X101633906Y55740945D01*
X101710395Y55878250D01*
X101124004Y56464641D01*
X100537613Y55878250D01*
X98634096Y55878250D01*
X98598975Y55913616D01*
X98522577Y55965147D01*
X98437626Y56000858D01*
X98347356Y56019387D01*
X98255206Y56020031D01*
X98164686Y56002763D01*
X98079244Y55968242D01*
X98002134Y55917783D01*
X97936294Y55853308D01*
X97884231Y55777272D01*
X97847928Y55692571D01*
X97828769Y55602433D01*
X97827482Y55510289D01*
X94997104Y55510289D01*
X95009268Y55537608D01*
X95056170Y55744048D01*
X95059546Y55985850D01*
X95018426Y56193519D01*
X94937754Y56389247D01*
X94841289Y56534439D01*
X100149385Y56534439D01*
X100175519Y56345030D01*
X100238102Y56164358D01*
X100292545Y56062502D01*
X100429850Y55986013D01*
X101016241Y56572404D01*
X101231767Y56572404D01*
X101818158Y55986013D01*
X101955463Y56062502D01*
X102038963Y56234509D01*
X102087302Y56419501D01*
X102091656Y56492924D01*
X102177496Y56492924D01*
X102210960Y56310594D01*
X102279201Y56138236D01*
X102379621Y55982416D01*
X102508393Y55849068D01*
X102660614Y55743272D01*
X102830485Y55669057D01*
X103011536Y55629251D01*
X103196870Y55625368D01*
X103379429Y55657558D01*
X103552259Y55724595D01*
X103708777Y55823924D01*
X103843020Y55951762D01*
X103949877Y56103241D01*
X104025276Y56272589D01*
X104066345Y56453358D01*
X104069302Y56665092D01*
X104033296Y56846937D01*
X103962655Y57018325D01*
X103860069Y57172728D01*
X103729448Y57304264D01*
X103575765Y57407925D01*
X103404874Y57479761D01*
X103223285Y57517036D01*
X103037914Y57518330D01*
X102855822Y57483594D01*
X102683945Y57414151D01*
X102528830Y57312646D01*
X102396384Y57182946D01*
X102291653Y57029991D01*
X102218626Y56859606D01*
X102180084Y56678281D01*
X102177496Y56492924D01*
X102091656Y56492924D01*
X102098623Y56610369D01*
X102072489Y56799778D01*
X102009906Y56980450D01*
X101955463Y57082306D01*
X101818158Y57158795D01*
X101231767Y56572404D01*
X101016241Y56572404D01*
X100429850Y57158795D01*
X100292545Y57082306D01*
X100209045Y56910299D01*
X100160706Y56725307D01*
X100149385Y56534439D01*
X94841289Y56534439D01*
X94820600Y56565577D01*
X94671428Y56715793D01*
X94495921Y56834175D01*
X94300761Y56916212D01*
X94093384Y56958781D01*
X93881689Y56960259D01*
X93673738Y56920590D01*
X93477452Y56841285D01*
X93300308Y56725366D01*
X93149054Y56577247D01*
X93029450Y56402569D01*
X92946052Y56207988D01*
X92902037Y56000913D01*
X92899081Y55789233D01*
X92516800Y55789233D01*
X92519546Y55985850D01*
X92478426Y56193519D01*
X92397754Y56389247D01*
X92280600Y56565577D01*
X92131428Y56715793D01*
X91955921Y56834175D01*
X91760761Y56916212D01*
X91553384Y56958781D01*
X91341689Y56960259D01*
X91133738Y56920590D01*
X90937452Y56841285D01*
X90760308Y56725366D01*
X90609054Y56577247D01*
X90489450Y56402569D01*
X90406052Y56207988D01*
X90362037Y56000913D01*
X90359081Y55789233D01*
X419100Y55789233D01*
X419100Y57644527D01*
X90790250Y57644527D01*
X90876483Y57493139D01*
X91068133Y57401011D01*
X91274073Y57348043D01*
X91486390Y57336270D01*
X91696924Y57366144D01*
X91897585Y57436517D01*
X92003517Y57493139D01*
X92089750Y57644527D01*
X93330250Y57644527D01*
X93416483Y57493139D01*
X93608133Y57401011D01*
X93814073Y57348043D01*
X94026390Y57336270D01*
X94236924Y57366144D01*
X94437585Y57436517D01*
X94543517Y57493139D01*
X94585981Y57567689D01*
X98437082Y57567689D01*
X98453717Y57477051D01*
X98487641Y57391370D01*
X98537560Y57313910D01*
X98601575Y57247621D01*
X98677245Y57195029D01*
X98761690Y57158136D01*
X98851693Y57138348D01*
X98943825Y57136418D01*
X99034577Y57152420D01*
X99120493Y57185744D01*
X99198299Y57235122D01*
X99231310Y57266558D01*
X100537613Y57266558D01*
X101124004Y56680167D01*
X101710395Y57266558D01*
X101633906Y57403863D01*
X101461899Y57487363D01*
X101276907Y57535702D01*
X101086039Y57547023D01*
X100896630Y57520889D01*
X100715958Y57458306D01*
X100614102Y57403863D01*
X100537613Y57266558D01*
X99231310Y57266558D01*
X99265033Y57298672D01*
X99318153Y57373973D01*
X99355635Y57458159D01*
X99376051Y57548021D01*
X99377521Y57653276D01*
X99359621Y57743673D01*
X99324505Y57828872D01*
X99291702Y57878246D01*
X100537613Y57878246D01*
X100614102Y57740941D01*
X100786109Y57657441D01*
X100971101Y57609102D01*
X101161969Y57597781D01*
X101351378Y57623915D01*
X101532050Y57686498D01*
X101633906Y57740941D01*
X101710395Y57878246D01*
X101124004Y58464637D01*
X100537613Y57878246D01*
X99291702Y57878246D01*
X99273509Y57905628D01*
X99208575Y57971016D01*
X99132177Y58022547D01*
X99047226Y58058258D01*
X98956956Y58076787D01*
X98864806Y58077431D01*
X98774286Y58060163D01*
X98688844Y58025642D01*
X98611734Y57975183D01*
X98545894Y57910708D01*
X98493831Y57834672D01*
X98457528Y57749971D01*
X98438369Y57659833D01*
X98437082Y57567689D01*
X94585981Y57567689D01*
X94629750Y57644527D01*
X93980000Y58294276D01*
X93330250Y57644527D01*
X92089750Y57644527D01*
X91440000Y58294276D01*
X90790250Y57644527D01*
X419100Y57644527D01*
X419100Y58373610D01*
X90356270Y58373610D01*
X90386144Y58163076D01*
X90456517Y57962415D01*
X90513139Y57856483D01*
X90664527Y57770250D01*
X91314276Y58420000D01*
X91565724Y58420000D01*
X92215473Y57770250D01*
X92366861Y57856483D01*
X92458989Y58048133D01*
X92511957Y58254073D01*
X92518585Y58373610D01*
X92896270Y58373610D01*
X92926144Y58163076D01*
X92996517Y57962415D01*
X93053139Y57856483D01*
X93204527Y57770250D01*
X93854276Y58420000D01*
X94105724Y58420000D01*
X94755473Y57770250D01*
X94906861Y57856483D01*
X94998989Y58048133D01*
X95051957Y58254073D01*
X95063730Y58466390D01*
X95054075Y58534435D01*
X100149385Y58534435D01*
X100175519Y58345026D01*
X100238102Y58164354D01*
X100292545Y58062498D01*
X100429850Y57986009D01*
X101016241Y58572400D01*
X101231767Y58572400D01*
X101818158Y57986009D01*
X101955463Y58062498D01*
X102038963Y58234505D01*
X102087302Y58419497D01*
X102091656Y58492920D01*
X102177496Y58492920D01*
X102210960Y58310590D01*
X102279201Y58138232D01*
X102379621Y57982412D01*
X102508393Y57849064D01*
X102660614Y57743268D01*
X102830485Y57669053D01*
X103011536Y57629247D01*
X103196870Y57625364D01*
X103379429Y57657554D01*
X103552259Y57724591D01*
X103708777Y57823920D01*
X103843020Y57951758D01*
X103949877Y58103237D01*
X104025276Y58272585D01*
X104066345Y58453354D01*
X104069302Y58665088D01*
X104033296Y58846933D01*
X103962655Y59018321D01*
X103860069Y59172724D01*
X103729448Y59304260D01*
X103575765Y59407921D01*
X103404874Y59479757D01*
X103223285Y59517032D01*
X103037914Y59518326D01*
X102855822Y59483590D01*
X102683945Y59414147D01*
X102528830Y59312642D01*
X102396384Y59182942D01*
X102291653Y59029987D01*
X102218626Y58859602D01*
X102180084Y58678277D01*
X102177496Y58492920D01*
X102091656Y58492920D01*
X102098623Y58610365D01*
X102072489Y58799774D01*
X102009906Y58980446D01*
X101955463Y59082302D01*
X101818158Y59158791D01*
X101231767Y58572400D01*
X101016241Y58572400D01*
X100429850Y59158791D01*
X100292545Y59082302D01*
X100209045Y58910295D01*
X100160706Y58725303D01*
X100149385Y58534435D01*
X95054075Y58534435D01*
X95033856Y58676924D01*
X94963483Y58877585D01*
X94906861Y58983517D01*
X94755473Y59069750D01*
X94105724Y58420000D01*
X93854276Y58420000D01*
X93204527Y59069750D01*
X93053139Y58983517D01*
X92961011Y58791867D01*
X92908043Y58585927D01*
X92896270Y58373610D01*
X92518585Y58373610D01*
X92523730Y58466390D01*
X92493856Y58676924D01*
X92423483Y58877585D01*
X92366861Y58983517D01*
X92215473Y59069750D01*
X91565724Y58420000D01*
X91314276Y58420000D01*
X90664527Y59069750D01*
X90513139Y58983517D01*
X90421011Y58791867D01*
X90368043Y58585927D01*
X90356270Y58373610D01*
X419100Y58373610D01*
X419100Y59195473D01*
X90790250Y59195473D01*
X91440000Y58545724D01*
X92089750Y59195473D01*
X93330250Y59195473D01*
X93980000Y58545724D01*
X94629750Y59195473D01*
X94589262Y59266554D01*
X100537613Y59266554D01*
X101124004Y58680163D01*
X101710395Y59266554D01*
X101633906Y59403859D01*
X101461899Y59487359D01*
X101276907Y59535698D01*
X101086039Y59547019D01*
X100896630Y59520885D01*
X100715958Y59458302D01*
X100614102Y59403859D01*
X100537613Y59266554D01*
X94589262Y59266554D01*
X94543517Y59346861D01*
X94351867Y59438989D01*
X94145927Y59491957D01*
X93933610Y59503730D01*
X93723076Y59473856D01*
X93522415Y59403483D01*
X93416483Y59346861D01*
X93330250Y59195473D01*
X92089750Y59195473D01*
X92003517Y59346861D01*
X91811867Y59438989D01*
X91605927Y59491957D01*
X91393610Y59503730D01*
X91183076Y59473856D01*
X90982415Y59403483D01*
X90876483Y59346861D01*
X90790250Y59195473D01*
X419100Y59195473D01*
X419100Y61047489D01*
X17309482Y61047489D01*
X17326117Y60956851D01*
X17360041Y60871170D01*
X17409960Y60793710D01*
X17473975Y60727421D01*
X17549645Y60674829D01*
X17634090Y60637936D01*
X17724093Y60618148D01*
X17816225Y60616218D01*
X17906977Y60632220D01*
X17992893Y60665544D01*
X18070699Y60714922D01*
X18137433Y60778472D01*
X18190553Y60853773D01*
X18197436Y60869233D01*
X90359081Y60869233D01*
X90397297Y60661010D01*
X90475230Y60464175D01*
X90589910Y60286227D01*
X90736969Y60133942D01*
X90910807Y60013121D01*
X91104802Y59928367D01*
X91311564Y59882907D01*
X91523219Y59878474D01*
X91731704Y59915235D01*
X91929077Y59991792D01*
X92107822Y60105227D01*
X92261130Y60251220D01*
X92383161Y60424210D01*
X92469268Y60617608D01*
X92516170Y60824048D01*
X92516800Y60869233D01*
X92899081Y60869233D01*
X92937297Y60661010D01*
X93015230Y60464175D01*
X93129910Y60286227D01*
X93276969Y60133942D01*
X93450807Y60013121D01*
X93644802Y59928367D01*
X93851564Y59882907D01*
X94063219Y59878474D01*
X94271704Y59915235D01*
X94469077Y59991792D01*
X94647822Y60105227D01*
X94801130Y60251220D01*
X94923161Y60424210D01*
X94925525Y60429521D01*
X100153343Y60429521D01*
X100153343Y59842167D01*
X100163592Y59790641D01*
X100183697Y59742105D01*
X100212884Y59698423D01*
X100250032Y59661275D01*
X100293713Y59632088D01*
X100342250Y59611984D01*
X100393776Y59601735D01*
X100981129Y59601735D01*
X101047804Y59668410D01*
X101047804Y60496196D01*
X101200204Y60496196D01*
X101200204Y59668410D01*
X101266879Y59601735D01*
X101854232Y59601735D01*
X101905758Y59611984D01*
X101954295Y59632088D01*
X101997976Y59661275D01*
X102035124Y59698423D01*
X102064311Y59742105D01*
X102084416Y59790641D01*
X102094665Y59842167D01*
X102094665Y60429521D01*
X102031270Y60492916D01*
X102177496Y60492916D01*
X102210960Y60310586D01*
X102279201Y60138228D01*
X102379621Y59982408D01*
X102508393Y59849060D01*
X102660614Y59743264D01*
X102830485Y59669049D01*
X103011536Y59629243D01*
X103196870Y59625360D01*
X103379429Y59657550D01*
X103552259Y59724587D01*
X103708777Y59823916D01*
X103843020Y59951754D01*
X103949877Y60103233D01*
X104025276Y60272581D01*
X104066345Y60453350D01*
X104069302Y60665084D01*
X104033296Y60846929D01*
X103962655Y61018317D01*
X103860069Y61172720D01*
X103729448Y61304256D01*
X103575765Y61407917D01*
X103404874Y61479753D01*
X103223285Y61517028D01*
X103037914Y61518322D01*
X102855822Y61483586D01*
X102683945Y61414143D01*
X102528830Y61312638D01*
X102396384Y61182938D01*
X102291653Y61029983D01*
X102218626Y60859598D01*
X102180084Y60678273D01*
X102177496Y60492916D01*
X102031270Y60492916D01*
X102027990Y60496196D01*
X101200204Y60496196D01*
X101047804Y60496196D01*
X100220018Y60496196D01*
X100153343Y60429521D01*
X94925525Y60429521D01*
X95009268Y60617608D01*
X95056170Y60824048D01*
X95059546Y61065850D01*
X95018426Y61273519D01*
X95006430Y61302625D01*
X100153343Y61302625D01*
X100153343Y60715271D01*
X100220018Y60648596D01*
X101047804Y60648596D01*
X101047804Y61476382D01*
X101200204Y61476382D01*
X101200204Y60648596D01*
X102027990Y60648596D01*
X102094665Y60715271D01*
X102094665Y61302625D01*
X102084416Y61354151D01*
X102064311Y61402687D01*
X102035124Y61446369D01*
X101997976Y61483517D01*
X101954295Y61512704D01*
X101905758Y61532808D01*
X101854232Y61543057D01*
X101266879Y61543057D01*
X101200204Y61476382D01*
X101047804Y61476382D01*
X100981129Y61543057D01*
X100393776Y61543057D01*
X100342250Y61532808D01*
X100293713Y61512704D01*
X100250032Y61483517D01*
X100212884Y61446369D01*
X100183697Y61402687D01*
X100163592Y61354151D01*
X100153343Y61302625D01*
X95006430Y61302625D01*
X94937754Y61469247D01*
X94820600Y61645577D01*
X94671428Y61795793D01*
X94495921Y61914175D01*
X94300761Y61996212D01*
X94093384Y62038781D01*
X93881689Y62040259D01*
X93673738Y62000590D01*
X93477452Y61921285D01*
X93300308Y61805366D01*
X93149054Y61657247D01*
X93029450Y61482569D01*
X92946052Y61287988D01*
X92902037Y61080913D01*
X92899081Y60869233D01*
X92516800Y60869233D01*
X92519546Y61065850D01*
X92478426Y61273519D01*
X92397754Y61469247D01*
X92280600Y61645577D01*
X92131428Y61795793D01*
X91955921Y61914175D01*
X91760761Y61996212D01*
X91553384Y62038781D01*
X91341689Y62040259D01*
X91133738Y62000590D01*
X90937452Y61921285D01*
X90760308Y61805366D01*
X90609054Y61657247D01*
X90489450Y61482569D01*
X90406052Y61287988D01*
X90362037Y61080913D01*
X90359081Y60869233D01*
X18197436Y60869233D01*
X18228035Y60937959D01*
X18248451Y61027821D01*
X18249921Y61133076D01*
X18232021Y61223473D01*
X18196905Y61308672D01*
X18145909Y61385428D01*
X18080975Y61450816D01*
X18004577Y61502347D01*
X17919626Y61538058D01*
X17829356Y61556587D01*
X17737206Y61557231D01*
X17646686Y61539963D01*
X17561244Y61505442D01*
X17484134Y61454983D01*
X17418294Y61390508D01*
X17366231Y61314472D01*
X17329928Y61229771D01*
X17310769Y61139633D01*
X17309482Y61047489D01*
X419100Y61047489D01*
X419100Y62724527D01*
X90790250Y62724527D01*
X90876483Y62573139D01*
X91068133Y62481011D01*
X91274073Y62428043D01*
X91486390Y62416270D01*
X91696924Y62446144D01*
X91897585Y62516517D01*
X92003517Y62573139D01*
X92089750Y62724527D01*
X93330250Y62724527D01*
X93416483Y62573139D01*
X93608133Y62481011D01*
X93814073Y62428043D01*
X94026390Y62416270D01*
X94236924Y62446144D01*
X94437585Y62516517D01*
X94543517Y62573139D01*
X94629750Y62724527D01*
X93980000Y63374276D01*
X93330250Y62724527D01*
X92089750Y62724527D01*
X91440000Y63374276D01*
X90790250Y62724527D01*
X419100Y62724527D01*
X419100Y63453610D01*
X90356270Y63453610D01*
X90386144Y63243076D01*
X90456517Y63042415D01*
X90513139Y62936483D01*
X90664527Y62850250D01*
X91314276Y63500000D01*
X91565724Y63500000D01*
X92215473Y62850250D01*
X92366861Y62936483D01*
X92458989Y63128133D01*
X92511957Y63334073D01*
X92518585Y63453610D01*
X92896270Y63453610D01*
X92926144Y63243076D01*
X92996517Y63042415D01*
X93053139Y62936483D01*
X93204527Y62850250D01*
X93854276Y63500000D01*
X94105724Y63500000D01*
X94755473Y62850250D01*
X94906861Y62936483D01*
X94998989Y63128133D01*
X95051957Y63334073D01*
X95063730Y63546390D01*
X95033856Y63756924D01*
X94963483Y63957585D01*
X94906861Y64063517D01*
X94755473Y64149750D01*
X94105724Y63500000D01*
X93854276Y63500000D01*
X93204527Y64149750D01*
X93053139Y64063517D01*
X92961011Y63871867D01*
X92908043Y63665927D01*
X92896270Y63453610D01*
X92518585Y63453610D01*
X92523730Y63546390D01*
X92493856Y63756924D01*
X92423483Y63957585D01*
X92366861Y64063517D01*
X92215473Y64149750D01*
X91565724Y63500000D01*
X91314276Y63500000D01*
X90664527Y64149750D01*
X90513139Y64063517D01*
X90421011Y63871867D01*
X90368043Y63665927D01*
X90356270Y63453610D01*
X419100Y63453610D01*
X419100Y64275473D01*
X90790250Y64275473D01*
X91440000Y63625724D01*
X92089750Y64275473D01*
X93330250Y64275473D01*
X93980000Y63625724D01*
X94629750Y64275473D01*
X94543517Y64426861D01*
X94351867Y64518989D01*
X94145927Y64571957D01*
X93933610Y64583730D01*
X93723076Y64553856D01*
X93522415Y64483483D01*
X93416483Y64426861D01*
X93330250Y64275473D01*
X92089750Y64275473D01*
X92003517Y64426861D01*
X91811867Y64518989D01*
X91605927Y64571957D01*
X91393610Y64583730D01*
X91183076Y64553856D01*
X90982415Y64483483D01*
X90876483Y64426861D01*
X90790250Y64275473D01*
X419100Y64275473D01*
X419100Y65670289D01*
X57568482Y65670289D01*
X57585117Y65579651D01*
X57619041Y65493970D01*
X57668960Y65416510D01*
X57732975Y65350221D01*
X57808645Y65297629D01*
X57893090Y65260736D01*
X57983093Y65240948D01*
X58075225Y65239018D01*
X58165977Y65255020D01*
X58251893Y65288344D01*
X58329699Y65337722D01*
X58396433Y65401272D01*
X58449553Y65476573D01*
X58487035Y65560759D01*
X58507451Y65650621D01*
X58508921Y65755876D01*
X58491021Y65846273D01*
X58479804Y65873489D01*
X108114482Y65873489D01*
X108131117Y65782851D01*
X108165041Y65697170D01*
X108214960Y65619710D01*
X108278975Y65553421D01*
X108354645Y65500829D01*
X108439090Y65463936D01*
X108529093Y65444148D01*
X108621225Y65442218D01*
X108711977Y65458220D01*
X108797893Y65491544D01*
X108875699Y65540922D01*
X108942433Y65604472D01*
X108995553Y65679773D01*
X109033035Y65763959D01*
X109053451Y65853821D01*
X109054921Y65959076D01*
X109037021Y66049473D01*
X109001905Y66134672D01*
X108950909Y66211428D01*
X108885975Y66276816D01*
X108809577Y66328347D01*
X108724626Y66364058D01*
X108634356Y66382587D01*
X108542206Y66383231D01*
X108451686Y66365963D01*
X108366244Y66331442D01*
X108289134Y66280983D01*
X108223294Y66216508D01*
X108171231Y66140472D01*
X108134928Y66055771D01*
X108115769Y65965633D01*
X108114482Y65873489D01*
X58479804Y65873489D01*
X58455905Y65931472D01*
X58404909Y66008228D01*
X58339975Y66073616D01*
X58263577Y66125147D01*
X58178626Y66160858D01*
X58088356Y66179387D01*
X57996206Y66180031D01*
X57905686Y66162763D01*
X57820244Y66128242D01*
X57743134Y66077783D01*
X57677294Y66013308D01*
X57625231Y65937272D01*
X57588928Y65852571D01*
X57569769Y65762433D01*
X57568482Y65670289D01*
X419100Y65670289D01*
X419100Y67473689D01*
X109841682Y67473689D01*
X109858317Y67383051D01*
X109892241Y67297370D01*
X109942160Y67219910D01*
X110006175Y67153621D01*
X110081845Y67101029D01*
X110166290Y67064136D01*
X110256293Y67044348D01*
X110348425Y67042418D01*
X110439177Y67058420D01*
X110525093Y67091744D01*
X110602899Y67141122D01*
X110669633Y67204672D01*
X110722753Y67279973D01*
X110760235Y67364159D01*
X110780651Y67454021D01*
X110782121Y67559276D01*
X110764221Y67649673D01*
X110729105Y67734872D01*
X110678109Y67811628D01*
X110613175Y67877016D01*
X110536777Y67928547D01*
X110451826Y67964258D01*
X110361556Y67982787D01*
X110269406Y67983431D01*
X110178886Y67966163D01*
X110093444Y67931642D01*
X110016334Y67881183D01*
X109950494Y67816708D01*
X109898431Y67740672D01*
X109862128Y67655971D01*
X109842969Y67565833D01*
X109841682Y67473689D01*
X419100Y67473689D01*
X419100Y68388089D01*
X97827482Y68388089D01*
X97844117Y68297451D01*
X97878041Y68211770D01*
X97927960Y68134310D01*
X97991975Y68068021D01*
X98067645Y68015429D01*
X98152090Y67978536D01*
X98242093Y67958748D01*
X98334225Y67956818D01*
X98424977Y67972820D01*
X98510893Y68006144D01*
X98588699Y68055522D01*
X98655433Y68119072D01*
X98708553Y68194373D01*
X98746035Y68278559D01*
X98766451Y68368421D01*
X98767921Y68473676D01*
X98750021Y68564073D01*
X98714905Y68649272D01*
X98663909Y68726028D01*
X98598975Y68791416D01*
X98537934Y68832589D01*
X102107382Y68832589D01*
X102124017Y68741951D01*
X102157941Y68656270D01*
X102207860Y68578810D01*
X102271875Y68512521D01*
X102347545Y68459929D01*
X102431990Y68423036D01*
X102521993Y68403248D01*
X102614125Y68401318D01*
X102704877Y68417320D01*
X102790793Y68450644D01*
X102868599Y68500022D01*
X102935333Y68563572D01*
X102988453Y68638873D01*
X103025935Y68723059D01*
X103046351Y68812921D01*
X103047821Y68918176D01*
X103029921Y69008573D01*
X102994805Y69093772D01*
X102943809Y69170528D01*
X102878875Y69235916D01*
X102802477Y69287447D01*
X102717526Y69323158D01*
X102627256Y69341687D01*
X102535106Y69342331D01*
X102444586Y69325063D01*
X102359144Y69290542D01*
X102282034Y69240083D01*
X102216194Y69175608D01*
X102164131Y69099572D01*
X102127828Y69014871D01*
X102108669Y68924733D01*
X102107382Y68832589D01*
X98537934Y68832589D01*
X98522577Y68842947D01*
X98437626Y68878658D01*
X98347356Y68897187D01*
X98255206Y68897831D01*
X98164686Y68880563D01*
X98079244Y68846042D01*
X98002134Y68795583D01*
X97936294Y68731108D01*
X97884231Y68655072D01*
X97847928Y68570371D01*
X97828769Y68480233D01*
X97827482Y68388089D01*
X419100Y68388089D01*
X419100Y69048489D01*
X52513882Y69048489D01*
X52530517Y68957851D01*
X52564441Y68872170D01*
X52614360Y68794710D01*
X52678375Y68728421D01*
X52754045Y68675829D01*
X52838490Y68638936D01*
X52928493Y68619148D01*
X53020625Y68617218D01*
X53111377Y68633220D01*
X53197293Y68666544D01*
X53275099Y68715922D01*
X53341833Y68779472D01*
X53394953Y68854773D01*
X53432435Y68938959D01*
X53452851Y69028821D01*
X53454321Y69134076D01*
X53436421Y69224473D01*
X53401305Y69309672D01*
X53350309Y69386428D01*
X53285375Y69451816D01*
X53208977Y69503347D01*
X53124026Y69539058D01*
X53033756Y69557587D01*
X52941606Y69558231D01*
X52851086Y69540963D01*
X52765644Y69506442D01*
X52688534Y69455983D01*
X52622694Y69391508D01*
X52570631Y69315472D01*
X52534328Y69230771D01*
X52515169Y69140633D01*
X52513882Y69048489D01*
X419100Y69048489D01*
X419100Y69581889D01*
X98005282Y69581889D01*
X98021917Y69491251D01*
X98055841Y69405570D01*
X98105760Y69328110D01*
X98169775Y69261821D01*
X98245445Y69209229D01*
X98329890Y69172336D01*
X98419893Y69152548D01*
X98512025Y69150618D01*
X98602777Y69166620D01*
X98688693Y69199944D01*
X98766499Y69249322D01*
X98833233Y69312872D01*
X98886353Y69388173D01*
X98923835Y69472359D01*
X98944251Y69562221D01*
X98945721Y69667476D01*
X98927821Y69757873D01*
X98892705Y69843072D01*
X98841709Y69919828D01*
X98776775Y69985216D01*
X98700377Y70036747D01*
X98615426Y70072458D01*
X98525156Y70090987D01*
X98433006Y70091631D01*
X98342486Y70074363D01*
X98257044Y70039842D01*
X98179934Y69989383D01*
X98114094Y69924908D01*
X98062031Y69848872D01*
X98025728Y69764171D01*
X98006569Y69674033D01*
X98005282Y69581889D01*
X419100Y69581889D01*
X419100Y70267689D01*
X35267282Y70267689D01*
X35283917Y70177051D01*
X35317841Y70091370D01*
X35367760Y70013910D01*
X35431775Y69947621D01*
X35507445Y69895029D01*
X35591890Y69858136D01*
X35681893Y69838348D01*
X35774025Y69836418D01*
X35864777Y69852420D01*
X35950693Y69885744D01*
X36028499Y69935122D01*
X36095233Y69998672D01*
X36148353Y70073973D01*
X36166748Y70115289D01*
X96582882Y70115289D01*
X96599517Y70024651D01*
X96633441Y69938970D01*
X96683360Y69861510D01*
X96747375Y69795221D01*
X96823045Y69742629D01*
X96907490Y69705736D01*
X96997493Y69685948D01*
X97089625Y69684018D01*
X97180377Y69700020D01*
X97266293Y69733344D01*
X97344099Y69782722D01*
X97410833Y69846272D01*
X97463953Y69921573D01*
X97501435Y70005759D01*
X97521851Y70095621D01*
X97523321Y70200876D01*
X97505421Y70291273D01*
X97470305Y70376472D01*
X97419309Y70453228D01*
X97354375Y70518616D01*
X97277977Y70570147D01*
X97193026Y70605858D01*
X97102756Y70624387D01*
X97010606Y70625031D01*
X96920086Y70607763D01*
X96834644Y70573242D01*
X96757534Y70522783D01*
X96691694Y70458308D01*
X96639631Y70382272D01*
X96603328Y70297571D01*
X96584169Y70207433D01*
X96582882Y70115289D01*
X36166748Y70115289D01*
X36185835Y70158159D01*
X36206251Y70248021D01*
X36207721Y70353276D01*
X36189821Y70443673D01*
X36154705Y70528872D01*
X36103709Y70605628D01*
X36038775Y70671016D01*
X35996562Y70699489D01*
X90436082Y70699489D01*
X90452717Y70608851D01*
X90486641Y70523170D01*
X90536560Y70445710D01*
X90600575Y70379421D01*
X90676245Y70326829D01*
X90760690Y70289936D01*
X90850693Y70270148D01*
X90942825Y70268218D01*
X91033577Y70284220D01*
X91119493Y70317544D01*
X91197299Y70366922D01*
X91264033Y70430472D01*
X91317153Y70505773D01*
X91354635Y70589959D01*
X91375051Y70679821D01*
X91376521Y70785076D01*
X91358621Y70875473D01*
X91323505Y70960672D01*
X91272509Y71037428D01*
X91207575Y71102816D01*
X91131177Y71154347D01*
X91046226Y71190058D01*
X90955956Y71208587D01*
X90863806Y71209231D01*
X90773286Y71191963D01*
X90687844Y71157442D01*
X90610734Y71106983D01*
X90544894Y71042508D01*
X90492831Y70966472D01*
X90456528Y70881771D01*
X90437369Y70791633D01*
X90436082Y70699489D01*
X35996562Y70699489D01*
X35962377Y70722547D01*
X35877426Y70758258D01*
X35787156Y70776787D01*
X35695006Y70777431D01*
X35604486Y70760163D01*
X35519044Y70725642D01*
X35441934Y70675183D01*
X35376094Y70610708D01*
X35324031Y70534672D01*
X35287728Y70449971D01*
X35268569Y70359833D01*
X35267282Y70267689D01*
X419100Y70267689D01*
X419100Y71309089D01*
X91680682Y71309089D01*
X91697317Y71218451D01*
X91731241Y71132770D01*
X91781160Y71055310D01*
X91845175Y70989021D01*
X91920845Y70936429D01*
X92005290Y70899536D01*
X92095293Y70879748D01*
X92187425Y70877818D01*
X92278177Y70893820D01*
X92364093Y70927144D01*
X92441899Y70976522D01*
X92508633Y71040072D01*
X92561753Y71115373D01*
X92599235Y71199559D01*
X92619651Y71289421D01*
X92621121Y71394676D01*
X92603221Y71485073D01*
X92568105Y71570272D01*
X92556388Y71587908D01*
X113207352Y71587908D01*
X113393556Y71376983D01*
X113721425Y71233874D01*
X114070913Y71157479D01*
X114428591Y71150733D01*
X114780711Y71213897D01*
X115113743Y71344542D01*
X115174440Y71376983D01*
X115360644Y71587908D01*
X114283998Y72664553D01*
X113207352Y71587908D01*
X92556388Y71587908D01*
X92517109Y71647028D01*
X92452175Y71712416D01*
X92375777Y71763947D01*
X92290826Y71799658D01*
X92200556Y71818187D01*
X92108406Y71818831D01*
X92017886Y71801563D01*
X91932444Y71767042D01*
X91855334Y71716583D01*
X91789494Y71652108D01*
X91737431Y71576072D01*
X91701128Y71491371D01*
X91681969Y71401233D01*
X91680682Y71309089D01*
X419100Y71309089D01*
X419100Y71893289D01*
X74967482Y71893289D01*
X74984117Y71802651D01*
X75018041Y71716970D01*
X75067960Y71639510D01*
X75131975Y71573221D01*
X75207645Y71520629D01*
X75292090Y71483736D01*
X75382093Y71463948D01*
X75474225Y71462018D01*
X75564977Y71478020D01*
X75650893Y71511344D01*
X75728699Y71560722D01*
X75795433Y71624272D01*
X75848553Y71699573D01*
X75886035Y71783759D01*
X75906451Y71873621D01*
X75907921Y71978876D01*
X75890021Y72069273D01*
X75854905Y72154472D01*
X75803909Y72231228D01*
X75738975Y72296616D01*
X75662577Y72348147D01*
X75577626Y72383858D01*
X75487356Y72402387D01*
X75395206Y72403031D01*
X75304686Y72385763D01*
X75219244Y72351242D01*
X75142134Y72300783D01*
X75076294Y72236308D01*
X75024231Y72160272D01*
X74987928Y72075571D01*
X74968769Y71985433D01*
X74967482Y71893289D01*
X419100Y71893289D01*
X419100Y72477489D01*
X18833482Y72477489D01*
X18850117Y72386851D01*
X18884041Y72301170D01*
X18933960Y72223710D01*
X18997975Y72157421D01*
X19073645Y72104829D01*
X19158090Y72067936D01*
X19248093Y72048148D01*
X19340225Y72046218D01*
X19430977Y72062220D01*
X19516893Y72095544D01*
X19594699Y72144922D01*
X19661433Y72208472D01*
X19714553Y72283773D01*
X19752035Y72367959D01*
X19772451Y72457821D01*
X19773921Y72563076D01*
X19756021Y72653473D01*
X19720905Y72738672D01*
X19669909Y72815428D01*
X19604975Y72880816D01*
X19528577Y72932347D01*
X19462584Y72960089D01*
X74891282Y72960089D01*
X74907917Y72869451D01*
X74941841Y72783770D01*
X74991760Y72706310D01*
X75055775Y72640021D01*
X75131445Y72587429D01*
X75215890Y72550536D01*
X75305893Y72530748D01*
X75398025Y72528818D01*
X75488777Y72544820D01*
X75574693Y72578144D01*
X75652499Y72627522D01*
X75719233Y72691072D01*
X75772353Y72766373D01*
X75798584Y72825289D01*
X112464849Y72825289D01*
X112528013Y72473169D01*
X112658658Y72140137D01*
X112691099Y72079440D01*
X112902024Y71893236D01*
X113978669Y72969882D01*
X114589327Y72969882D01*
X115665972Y71893236D01*
X115876897Y72079440D01*
X116020006Y72407309D01*
X116096401Y72756797D01*
X116103147Y73114475D01*
X116039983Y73466595D01*
X115909338Y73799627D01*
X115876897Y73860324D01*
X115665972Y74046528D01*
X114589327Y72969882D01*
X113978669Y72969882D01*
X112902024Y74046528D01*
X112691099Y73860324D01*
X112547990Y73532455D01*
X112471595Y73182967D01*
X112464849Y72825289D01*
X75798584Y72825289D01*
X75809835Y72850559D01*
X75830251Y72940421D01*
X75831721Y73045676D01*
X75813821Y73136073D01*
X75778705Y73221272D01*
X75727709Y73298028D01*
X75662775Y73363416D01*
X75586377Y73414947D01*
X75501426Y73450658D01*
X75411156Y73469187D01*
X75319006Y73469831D01*
X75228486Y73452563D01*
X75143044Y73418042D01*
X75065934Y73367583D01*
X75000094Y73303108D01*
X74948031Y73227072D01*
X74911728Y73142371D01*
X74892569Y73052233D01*
X74891282Y72960089D01*
X19462584Y72960089D01*
X19443626Y72968058D01*
X19353356Y72986587D01*
X19261206Y72987231D01*
X19170686Y72969963D01*
X19085244Y72935442D01*
X19008134Y72884983D01*
X18942294Y72820508D01*
X18890231Y72744472D01*
X18853928Y72659771D01*
X18834769Y72569633D01*
X18833482Y72477489D01*
X419100Y72477489D01*
X419100Y74351856D01*
X113207352Y74351856D01*
X114283998Y73275211D01*
X115360644Y74351856D01*
X115174440Y74562781D01*
X114846571Y74705890D01*
X114497083Y74782285D01*
X114139405Y74789031D01*
X113787285Y74725867D01*
X113454253Y74595222D01*
X113393556Y74562781D01*
X113207352Y74351856D01*
X419100Y74351856D01*
X419100Y77306619D01*
X105338358Y77306619D01*
X105407147Y76931818D01*
X105547425Y76577515D01*
X105753849Y76257208D01*
X106018557Y75983095D01*
X106331465Y75765618D01*
X106680656Y75613060D01*
X107052828Y75531233D01*
X107433806Y75523253D01*
X107809078Y75589423D01*
X108164351Y75727224D01*
X108486092Y75931407D01*
X108746100Y76179010D01*
X112298339Y76179010D01*
X112469139Y75981129D01*
X112775261Y75850766D01*
X113100933Y75782630D01*
X113433641Y75779337D01*
X113760598Y75841016D01*
X114069239Y75965297D01*
X114098861Y75981129D01*
X114269661Y76179010D01*
X114023241Y76425430D01*
X115544753Y76425430D01*
X115673748Y76262758D01*
X115920995Y76166901D01*
X116182193Y76121122D01*
X116447302Y76127180D01*
X116706135Y76184842D01*
X116894240Y76262758D01*
X117023235Y76425430D01*
X116283994Y77164671D01*
X115544753Y76425430D01*
X114023241Y76425430D01*
X113284000Y77164671D01*
X112298339Y76179010D01*
X108746100Y76179010D01*
X108762046Y76194195D01*
X108981703Y76505578D01*
X109136694Y76853695D01*
X109221118Y77225287D01*
X109222445Y77320359D01*
X111593337Y77320359D01*
X111655016Y76993402D01*
X111779297Y76684761D01*
X111795129Y76655139D01*
X111993010Y76484339D01*
X112978671Y77470000D01*
X113589329Y77470000D01*
X114574990Y76484339D01*
X114772871Y76655139D01*
X114903234Y76961261D01*
X114958878Y77227223D01*
X114998836Y77047859D01*
X115076752Y76859754D01*
X115239424Y76730759D01*
X115978665Y77470000D01*
X115239424Y78209241D01*
X115076752Y78080246D01*
X114980895Y77832999D01*
X114958509Y77705273D01*
X114912984Y77946598D01*
X114788703Y78255239D01*
X114772871Y78284861D01*
X114574990Y78455661D01*
X113589329Y77470000D01*
X112978671Y77470000D01*
X111993010Y78455661D01*
X111795129Y78284861D01*
X111664766Y77978739D01*
X111596630Y77653067D01*
X111593337Y77320359D01*
X109222445Y77320359D01*
X109227195Y77660531D01*
X109153180Y78034335D01*
X109007969Y78386644D01*
X108797093Y78704038D01*
X108740538Y78760990D01*
X112298339Y78760990D01*
X113284000Y77775329D01*
X114023241Y78514570D01*
X115544753Y78514570D01*
X116283994Y77775329D01*
X117023235Y78514570D01*
X116894240Y78677242D01*
X116646993Y78773099D01*
X116385795Y78818878D01*
X116120686Y78812820D01*
X115861853Y78755158D01*
X115673748Y78677242D01*
X115544753Y78514570D01*
X114023241Y78514570D01*
X114269661Y78760990D01*
X114098861Y78958871D01*
X113792739Y79089234D01*
X113467067Y79157370D01*
X113134359Y79160663D01*
X112807402Y79098984D01*
X112498761Y78974703D01*
X112469139Y78958871D01*
X112298339Y78760990D01*
X108740538Y78760990D01*
X108528584Y78974429D01*
X108212669Y79187516D01*
X107861383Y79335183D01*
X107488104Y79411806D01*
X107107052Y79414466D01*
X106732740Y79343062D01*
X106379426Y79200314D01*
X106060567Y78991659D01*
X105788309Y78725044D01*
X105573021Y78410625D01*
X105422905Y78060378D01*
X105343678Y77687643D01*
X105338358Y77306619D01*
X419100Y77306619D01*
X419100Y80588144D01*
X113207352Y80588144D01*
X113393556Y80377219D01*
X113721425Y80234110D01*
X114070913Y80157715D01*
X114428591Y80150969D01*
X114780711Y80214133D01*
X115113743Y80344778D01*
X115174440Y80377219D01*
X115360644Y80588144D01*
X114283998Y81664789D01*
X113207352Y80588144D01*
X419100Y80588144D01*
X419100Y81825525D01*
X112464849Y81825525D01*
X112528013Y81473405D01*
X112658658Y81140373D01*
X112691099Y81079676D01*
X112902024Y80893472D01*
X113978669Y81970118D01*
X114589327Y81970118D01*
X115665972Y80893472D01*
X115876897Y81079676D01*
X116020006Y81407545D01*
X116096401Y81757033D01*
X116103147Y82114711D01*
X116039983Y82466831D01*
X115909338Y82799863D01*
X115876897Y82860560D01*
X115665972Y83046764D01*
X114589327Y81970118D01*
X113978669Y81970118D01*
X112902024Y83046764D01*
X112691099Y82860560D01*
X112547990Y82532691D01*
X112471595Y82183203D01*
X112464849Y81825525D01*
X419100Y81825525D01*
X419100Y83352092D01*
X113207352Y83352092D01*
X114283998Y82275447D01*
X115360644Y83352092D01*
X115174440Y83563017D01*
X114846571Y83706126D01*
X114497083Y83782521D01*
X114139405Y83789267D01*
X113787285Y83726103D01*
X113454253Y83595458D01*
X113393556Y83563017D01*
X113207352Y83352092D01*
X419100Y83352092D01*
X419100Y98640900D01*
X117436900Y98640900D01*
X117436900Y78123333D01*
X117436900Y78123333D01*
G37*
X117436900Y78123333D02*
X117328564Y78209241D01*
X116589323Y77470000D01*
X117328564Y76730759D01*
X117436900Y76816667D01*
X117436900Y35852100D01*
X101473000Y35852100D01*
X101462386Y35850592D01*
X101452612Y35846186D01*
X101444452Y35839231D01*
X101438553Y35830279D01*
X101435381Y35820038D01*
X101434900Y35814000D01*
X101434900Y15240000D01*
X101436408Y15229386D01*
X101440814Y15219612D01*
X101447769Y15211452D01*
X101456721Y15205553D01*
X101466962Y15202381D01*
X101473000Y15201900D01*
X117436900Y15201900D01*
X117436900Y419100D01*
X419100Y419100D01*
X419100Y9358489D01*
X37451682Y9358489D01*
X37468317Y9267851D01*
X37502241Y9182170D01*
X37552160Y9104710D01*
X37616175Y9038421D01*
X37691845Y8985829D01*
X37776290Y8948936D01*
X37866293Y8929148D01*
X37958425Y8927218D01*
X38049177Y8943220D01*
X38135093Y8976544D01*
X38212899Y9025922D01*
X38279633Y9089472D01*
X38332753Y9164773D01*
X38370235Y9248959D01*
X38390651Y9338821D01*
X38392121Y9444076D01*
X38374221Y9534473D01*
X38339105Y9619672D01*
X38288109Y9696428D01*
X38223175Y9761816D01*
X38146777Y9813347D01*
X38061826Y9849058D01*
X37971556Y9867587D01*
X37879406Y9868231D01*
X37788886Y9850963D01*
X37703444Y9816442D01*
X37626334Y9765983D01*
X37560494Y9701508D01*
X37508431Y9625472D01*
X37472128Y9540771D01*
X37452969Y9450633D01*
X37451682Y9358489D01*
X419100Y9358489D01*
X419100Y19349843D01*
X96061531Y19349843D01*
X96095701Y19163668D01*
X96165382Y18987674D01*
X96267919Y18828567D01*
X96399408Y18692407D01*
X96554840Y18584379D01*
X96728294Y18508599D01*
X96913164Y18467953D01*
X97102407Y18463988D01*
X97288817Y18496858D01*
X97465293Y18565308D01*
X97625112Y18666732D01*
X97762187Y18797267D01*
X97871297Y18951941D01*
X97948286Y19124861D01*
X97990222Y19309443D01*
X97993241Y19525643D01*
X97956475Y19711323D01*
X97884344Y19886326D01*
X97779595Y20043986D01*
X97646218Y20178298D01*
X97489294Y20284145D01*
X97314798Y20357496D01*
X97274135Y20365843D01*
X98601531Y20365843D01*
X98635701Y20179668D01*
X98705382Y20003674D01*
X98807919Y19844567D01*
X98939408Y19708407D01*
X99094840Y19600379D01*
X99268294Y19524599D01*
X99453164Y19483953D01*
X99642407Y19479988D01*
X99828817Y19512858D01*
X100005293Y19581308D01*
X100165112Y19682732D01*
X100302187Y19813267D01*
X100411297Y19967941D01*
X100488286Y20140861D01*
X100530222Y20325443D01*
X100533241Y20541643D01*
X100496475Y20727323D01*
X100424344Y20902326D01*
X100319595Y21059986D01*
X100186218Y21194298D01*
X100029294Y21300145D01*
X99854798Y21373496D01*
X99669379Y21411557D01*
X99480098Y21412878D01*
X99294165Y21377410D01*
X99118663Y21306502D01*
X98960276Y21202857D01*
X98825036Y21070420D01*
X98718096Y20914238D01*
X98643529Y20740259D01*
X98604174Y20555110D01*
X98601531Y20365843D01*
X97274135Y20365843D01*
X97129379Y20395557D01*
X96940098Y20396878D01*
X96754165Y20361410D01*
X96578663Y20290502D01*
X96420276Y20186857D01*
X96285036Y20054420D01*
X96178096Y19898238D01*
X96103529Y19724259D01*
X96064174Y19539110D01*
X96061531Y19349843D01*
X419100Y19349843D01*
X419100Y21381843D01*
X96061531Y21381843D01*
X96095701Y21195668D01*
X96165382Y21019674D01*
X96267919Y20860567D01*
X96399408Y20724407D01*
X96554840Y20616379D01*
X96728294Y20540599D01*
X96913164Y20499953D01*
X97102407Y20495988D01*
X97288817Y20528858D01*
X97465293Y20597308D01*
X97625112Y20698732D01*
X97762187Y20829267D01*
X97871297Y20983941D01*
X97948286Y21156861D01*
X97990222Y21341443D01*
X97993241Y21557643D01*
X97956475Y21743323D01*
X97884344Y21918326D01*
X97779595Y22075986D01*
X97646218Y22210298D01*
X97489294Y22316145D01*
X97314798Y22389496D01*
X97274135Y22397843D01*
X98601531Y22397843D01*
X98635701Y22211668D01*
X98705382Y22035674D01*
X98807919Y21876567D01*
X98939408Y21740407D01*
X99094840Y21632379D01*
X99268294Y21556599D01*
X99453164Y21515953D01*
X99642407Y21511988D01*
X99828817Y21544858D01*
X100005293Y21613308D01*
X100165112Y21714732D01*
X100302187Y21845267D01*
X100411297Y21999941D01*
X100488286Y22172861D01*
X100530222Y22357443D01*
X100533241Y22573643D01*
X100496475Y22759323D01*
X100424344Y22934326D01*
X100319595Y23091986D01*
X100186218Y23226298D01*
X100029294Y23332145D01*
X99854798Y23405496D01*
X99669379Y23443557D01*
X99480098Y23444878D01*
X99294165Y23409410D01*
X99118663Y23338502D01*
X98960276Y23234857D01*
X98825036Y23102420D01*
X98718096Y22946238D01*
X98643529Y22772259D01*
X98604174Y22587110D01*
X98601531Y22397843D01*
X97274135Y22397843D01*
X97129379Y22427557D01*
X96940098Y22428878D01*
X96754165Y22393410D01*
X96578663Y22322502D01*
X96420276Y22218857D01*
X96285036Y22086420D01*
X96178096Y21930238D01*
X96103529Y21756259D01*
X96064174Y21571110D01*
X96061531Y21381843D01*
X419100Y21381843D01*
X419100Y23413843D01*
X96061531Y23413843D01*
X96095701Y23227668D01*
X96165382Y23051674D01*
X96267919Y22892567D01*
X96399408Y22756407D01*
X96554840Y22648379D01*
X96728294Y22572599D01*
X96913164Y22531953D01*
X97102407Y22527988D01*
X97288817Y22560858D01*
X97465293Y22629308D01*
X97625112Y22730732D01*
X97762187Y22861267D01*
X97871297Y23015941D01*
X97948286Y23188861D01*
X97990222Y23373443D01*
X97993241Y23589643D01*
X97956475Y23775323D01*
X97884344Y23950326D01*
X97779595Y24107986D01*
X97646218Y24242298D01*
X97489294Y24348145D01*
X97314798Y24421496D01*
X97274135Y24429843D01*
X98601531Y24429843D01*
X98635701Y24243668D01*
X98705382Y24067674D01*
X98807919Y23908567D01*
X98939408Y23772407D01*
X99094840Y23664379D01*
X99268294Y23588599D01*
X99453164Y23547953D01*
X99642407Y23543988D01*
X99828817Y23576858D01*
X100005293Y23645308D01*
X100165112Y23746732D01*
X100302187Y23877267D01*
X100411297Y24031941D01*
X100488286Y24204861D01*
X100530222Y24389443D01*
X100533241Y24605643D01*
X100496475Y24791323D01*
X100424344Y24966326D01*
X100319595Y25123986D01*
X100186218Y25258298D01*
X100029294Y25364145D01*
X99854798Y25437496D01*
X99669379Y25475557D01*
X99480098Y25476878D01*
X99294165Y25441410D01*
X99118663Y25370502D01*
X98960276Y25266857D01*
X98825036Y25134420D01*
X98718096Y24978238D01*
X98643529Y24804259D01*
X98604174Y24619110D01*
X98601531Y24429843D01*
X97274135Y24429843D01*
X97129379Y24459557D01*
X96940098Y24460878D01*
X96754165Y24425410D01*
X96578663Y24354502D01*
X96420276Y24250857D01*
X96285036Y24118420D01*
X96178096Y23962238D01*
X96103529Y23788259D01*
X96064174Y23603110D01*
X96061531Y23413843D01*
X419100Y23413843D01*
X419100Y25462089D01*
X57365282Y25462089D01*
X57381917Y25371451D01*
X57415841Y25285770D01*
X57465760Y25208310D01*
X57529775Y25142021D01*
X57605445Y25089429D01*
X57689890Y25052536D01*
X57779893Y25032748D01*
X57872025Y25030818D01*
X57962777Y25046820D01*
X58048693Y25080144D01*
X58126499Y25129522D01*
X58193233Y25193072D01*
X58246353Y25268373D01*
X58283835Y25352559D01*
X58304251Y25442421D01*
X58305721Y25547676D01*
X58287821Y25638073D01*
X58252705Y25723272D01*
X58201709Y25800028D01*
X58136775Y25865416D01*
X58060377Y25916947D01*
X57975426Y25952658D01*
X57885156Y25971187D01*
X57793006Y25971831D01*
X57702486Y25954563D01*
X57617044Y25920042D01*
X57539934Y25869583D01*
X57474094Y25805108D01*
X57422031Y25729072D01*
X57385728Y25644371D01*
X57366569Y25554233D01*
X57365282Y25462089D01*
X419100Y25462089D01*
X419100Y26461843D01*
X98601531Y26461843D01*
X98635701Y26275668D01*
X98705382Y26099674D01*
X98807919Y25940567D01*
X98939408Y25804407D01*
X99094840Y25696379D01*
X99268294Y25620599D01*
X99453164Y25579953D01*
X99642407Y25575988D01*
X99828817Y25608858D01*
X100005293Y25677308D01*
X100165112Y25778732D01*
X100302187Y25909267D01*
X100411297Y26063941D01*
X100488286Y26236861D01*
X100530222Y26421443D01*
X100533241Y26637643D01*
X100496475Y26823323D01*
X100424344Y26998326D01*
X100319595Y27155986D01*
X100186218Y27290298D01*
X100029294Y27396145D01*
X99854798Y27469496D01*
X99669379Y27507557D01*
X99480098Y27508878D01*
X99294165Y27473410D01*
X99118663Y27402502D01*
X98960276Y27298857D01*
X98825036Y27166420D01*
X98718096Y27010238D01*
X98643529Y26836259D01*
X98604174Y26651110D01*
X98601531Y26461843D01*
X419100Y26461843D01*
X419100Y27477843D01*
X96061531Y27477843D01*
X96095701Y27291668D01*
X96165382Y27115674D01*
X96267919Y26956567D01*
X96399408Y26820407D01*
X96554840Y26712379D01*
X96728294Y26636599D01*
X96913164Y26595953D01*
X97102407Y26591988D01*
X97288817Y26624858D01*
X97465293Y26693308D01*
X97625112Y26794732D01*
X97762187Y26925267D01*
X97871297Y27079941D01*
X97948286Y27252861D01*
X97990222Y27437443D01*
X97993241Y27653643D01*
X97956475Y27839323D01*
X97884344Y28014326D01*
X97779595Y28171986D01*
X97646218Y28306298D01*
X97489294Y28412145D01*
X97314798Y28485496D01*
X97274135Y28493843D01*
X98601531Y28493843D01*
X98635701Y28307668D01*
X98705382Y28131674D01*
X98807919Y27972567D01*
X98939408Y27836407D01*
X99094840Y27728379D01*
X99268294Y27652599D01*
X99453164Y27611953D01*
X99642407Y27607988D01*
X99828817Y27640858D01*
X100005293Y27709308D01*
X100165112Y27810732D01*
X100302187Y27941267D01*
X100411297Y28095941D01*
X100488286Y28268861D01*
X100530222Y28453443D01*
X100533241Y28669643D01*
X100496475Y28855323D01*
X100424344Y29030326D01*
X100319595Y29187986D01*
X100186218Y29322298D01*
X100029294Y29428145D01*
X99854798Y29501496D01*
X99669379Y29539557D01*
X99480098Y29540878D01*
X99294165Y29505410D01*
X99118663Y29434502D01*
X98960276Y29330857D01*
X98825036Y29198420D01*
X98718096Y29042238D01*
X98643529Y28868259D01*
X98604174Y28683110D01*
X98601531Y28493843D01*
X97274135Y28493843D01*
X97129379Y28523557D01*
X96940098Y28524878D01*
X96754165Y28489410D01*
X96578663Y28418502D01*
X96420276Y28314857D01*
X96285036Y28182420D01*
X96178096Y28026238D01*
X96103529Y27852259D01*
X96064174Y27667110D01*
X96061531Y27477843D01*
X419100Y27477843D01*
X419100Y29509843D01*
X96061531Y29509843D01*
X96095701Y29323668D01*
X96165382Y29147674D01*
X96267919Y28988567D01*
X96399408Y28852407D01*
X96554840Y28744379D01*
X96728294Y28668599D01*
X96913164Y28627953D01*
X97102407Y28623988D01*
X97288817Y28656858D01*
X97465293Y28725308D01*
X97625112Y28826732D01*
X97762187Y28957267D01*
X97871297Y29111941D01*
X97948286Y29284861D01*
X97990222Y29469443D01*
X97993241Y29685643D01*
X97956475Y29871323D01*
X97884344Y30046326D01*
X97779595Y30203986D01*
X97646218Y30338298D01*
X97489294Y30444145D01*
X97314798Y30517496D01*
X97274135Y30525843D01*
X98601531Y30525843D01*
X98635701Y30339668D01*
X98705382Y30163674D01*
X98807919Y30004567D01*
X98939408Y29868407D01*
X99094840Y29760379D01*
X99268294Y29684599D01*
X99453164Y29643953D01*
X99642407Y29639988D01*
X99828817Y29672858D01*
X100005293Y29741308D01*
X100165112Y29842732D01*
X100302187Y29973267D01*
X100411297Y30127941D01*
X100488286Y30300861D01*
X100530222Y30485443D01*
X100533241Y30701643D01*
X100496475Y30887323D01*
X100424344Y31062326D01*
X100319595Y31219986D01*
X100186218Y31354298D01*
X100029294Y31460145D01*
X99854798Y31533496D01*
X99669379Y31571557D01*
X99480098Y31572878D01*
X99294165Y31537410D01*
X99118663Y31466502D01*
X98960276Y31362857D01*
X98825036Y31230420D01*
X98718096Y31074238D01*
X98643529Y30900259D01*
X98604174Y30715110D01*
X98601531Y30525843D01*
X97274135Y30525843D01*
X97129379Y30555557D01*
X96940098Y30556878D01*
X96754165Y30521410D01*
X96578663Y30450502D01*
X96420276Y30346857D01*
X96285036Y30214420D01*
X96178096Y30058238D01*
X96103529Y29884259D01*
X96064174Y29699110D01*
X96061531Y29509843D01*
X419100Y29509843D01*
X419100Y31541843D01*
X96061531Y31541843D01*
X96095701Y31355668D01*
X96165382Y31179674D01*
X96267919Y31020567D01*
X96399408Y30884407D01*
X96554840Y30776379D01*
X96728294Y30700599D01*
X96913164Y30659953D01*
X97102407Y30655988D01*
X97288817Y30688858D01*
X97465293Y30757308D01*
X97625112Y30858732D01*
X97762187Y30989267D01*
X97871297Y31143941D01*
X97948286Y31316861D01*
X97990222Y31501443D01*
X97993241Y31717643D01*
X97956475Y31903323D01*
X97884344Y32078326D01*
X97779595Y32235986D01*
X97646218Y32370298D01*
X97489294Y32476145D01*
X97314798Y32549496D01*
X97129379Y32587557D01*
X96940098Y32588878D01*
X96754165Y32553410D01*
X96578663Y32482502D01*
X96420276Y32378857D01*
X96285036Y32246420D01*
X96178096Y32090238D01*
X96103529Y31916259D01*
X96064174Y31731110D01*
X96061531Y31541843D01*
X419100Y31541843D01*
X419100Y41616489D01*
X109841682Y41616489D01*
X109858317Y41525851D01*
X109892241Y41440170D01*
X109942160Y41362710D01*
X110006175Y41296421D01*
X110081845Y41243829D01*
X110166290Y41206936D01*
X110256293Y41187148D01*
X110348425Y41185218D01*
X110439177Y41201220D01*
X110525093Y41234544D01*
X110602899Y41283922D01*
X110669633Y41347472D01*
X110722753Y41422773D01*
X110760235Y41506959D01*
X110780651Y41596821D01*
X110782121Y41702076D01*
X110764221Y41792473D01*
X110729105Y41877672D01*
X110678109Y41954428D01*
X110613175Y42019816D01*
X110536777Y42071347D01*
X110451826Y42107058D01*
X110361556Y42125587D01*
X110269406Y42126231D01*
X110178886Y42108963D01*
X110093444Y42074442D01*
X110016334Y42023983D01*
X109950494Y41959508D01*
X109898431Y41883472D01*
X109862128Y41798771D01*
X109842969Y41708633D01*
X109841682Y41616489D01*
X419100Y41616489D01*
X419100Y45629233D01*
X90359081Y45629233D01*
X90397297Y45421010D01*
X90475230Y45224175D01*
X90589910Y45046227D01*
X90736969Y44893942D01*
X90910807Y44773121D01*
X91104802Y44688367D01*
X91311564Y44642907D01*
X91523219Y44638474D01*
X91731704Y44675235D01*
X91929077Y44751792D01*
X92107822Y44865227D01*
X92261130Y45011220D01*
X92383161Y45184210D01*
X92469268Y45377608D01*
X92516170Y45584048D01*
X92516800Y45629233D01*
X92899081Y45629233D01*
X92937297Y45421010D01*
X93015230Y45224175D01*
X93129910Y45046227D01*
X93276969Y44893942D01*
X93450807Y44773121D01*
X93644802Y44688367D01*
X93851564Y44642907D01*
X94063219Y44638474D01*
X94271704Y44675235D01*
X94469077Y44751792D01*
X94647822Y44865227D01*
X94801130Y45011220D01*
X94923161Y45184210D01*
X95009268Y45377608D01*
X95056170Y45584048D01*
X95059546Y45825850D01*
X95018426Y46033519D01*
X94937754Y46229247D01*
X94820600Y46405577D01*
X94671428Y46555793D01*
X94495921Y46674175D01*
X94300761Y46756212D01*
X94093384Y46798781D01*
X93881689Y46800259D01*
X93673738Y46760590D01*
X93477452Y46681285D01*
X93300308Y46565366D01*
X93149054Y46417247D01*
X93029450Y46242569D01*
X92946052Y46047988D01*
X92902037Y45840913D01*
X92899081Y45629233D01*
X92516800Y45629233D01*
X92519546Y45825850D01*
X92478426Y46033519D01*
X92397754Y46229247D01*
X92280600Y46405577D01*
X92131428Y46555793D01*
X91955921Y46674175D01*
X91760761Y46756212D01*
X91553384Y46798781D01*
X91341689Y46800259D01*
X91133738Y46760590D01*
X90937452Y46681285D01*
X90760308Y46565366D01*
X90609054Y46417247D01*
X90489450Y46242569D01*
X90406052Y46047988D01*
X90362037Y45840913D01*
X90359081Y45629233D01*
X419100Y45629233D01*
X419100Y48169233D01*
X90359081Y48169233D01*
X90397297Y47961010D01*
X90475230Y47764175D01*
X90589910Y47586227D01*
X90736969Y47433942D01*
X90910807Y47313121D01*
X91104802Y47228367D01*
X91311564Y47182907D01*
X91523219Y47178474D01*
X91731704Y47215235D01*
X91929077Y47291792D01*
X92107822Y47405227D01*
X92261130Y47551220D01*
X92383161Y47724210D01*
X92469268Y47917608D01*
X92516170Y48124048D01*
X92516800Y48169233D01*
X92899081Y48169233D01*
X92937297Y47961010D01*
X93015230Y47764175D01*
X93129910Y47586227D01*
X93276969Y47433942D01*
X93450807Y47313121D01*
X93644802Y47228367D01*
X93851564Y47182907D01*
X94063219Y47178474D01*
X94271704Y47215235D01*
X94469077Y47291792D01*
X94647822Y47405227D01*
X94801130Y47551220D01*
X94923161Y47724210D01*
X94991751Y47878266D01*
X100537613Y47878266D01*
X100614102Y47740961D01*
X100786109Y47657461D01*
X100971101Y47609122D01*
X101161969Y47597801D01*
X101256825Y47610889D01*
X108114482Y47610889D01*
X108131117Y47520251D01*
X108165041Y47434570D01*
X108214960Y47357110D01*
X108278975Y47290821D01*
X108354645Y47238229D01*
X108439090Y47201336D01*
X108529093Y47181548D01*
X108621225Y47179618D01*
X108711977Y47195620D01*
X108797893Y47228944D01*
X108875699Y47278322D01*
X108942433Y47341872D01*
X108995553Y47417173D01*
X109033035Y47501359D01*
X109053451Y47591221D01*
X109054921Y47696476D01*
X109037021Y47786873D01*
X109001905Y47872072D01*
X108950909Y47948828D01*
X108885975Y48014216D01*
X108809577Y48065747D01*
X108724626Y48101458D01*
X108634356Y48119987D01*
X108542206Y48120631D01*
X108451686Y48103363D01*
X108366244Y48068842D01*
X108289134Y48018383D01*
X108223294Y47953908D01*
X108171231Y47877872D01*
X108134928Y47793171D01*
X108115769Y47703033D01*
X108114482Y47610889D01*
X101256825Y47610889D01*
X101351378Y47623935D01*
X101532050Y47686518D01*
X101633906Y47740961D01*
X101710395Y47878266D01*
X101124004Y48464657D01*
X100537613Y47878266D01*
X94991751Y47878266D01*
X95009268Y47917608D01*
X95056170Y48124048D01*
X95059546Y48365850D01*
X95026161Y48534455D01*
X100149385Y48534455D01*
X100175519Y48345046D01*
X100238102Y48164374D01*
X100292545Y48062518D01*
X100429850Y47986029D01*
X101016241Y48572420D01*
X101231767Y48572420D01*
X101818158Y47986029D01*
X101955463Y48062518D01*
X102038963Y48234525D01*
X102087302Y48419517D01*
X102091656Y48492940D01*
X102177496Y48492940D01*
X102210960Y48310610D01*
X102279201Y48138252D01*
X102379621Y47982432D01*
X102508393Y47849084D01*
X102660614Y47743288D01*
X102830485Y47669073D01*
X103011536Y47629267D01*
X103196870Y47625384D01*
X103379429Y47657574D01*
X103552259Y47724611D01*
X103708777Y47823940D01*
X103843020Y47951778D01*
X103949877Y48103257D01*
X104025276Y48272605D01*
X104066345Y48453374D01*
X104069302Y48665108D01*
X104033296Y48846953D01*
X103962655Y49018341D01*
X103860069Y49172744D01*
X103729448Y49304280D01*
X103575765Y49407941D01*
X103404874Y49479777D01*
X103223285Y49517052D01*
X103037914Y49518346D01*
X102855822Y49483610D01*
X102683945Y49414167D01*
X102528830Y49312662D01*
X102396384Y49182962D01*
X102291653Y49030007D01*
X102218626Y48859622D01*
X102180084Y48678297D01*
X102177496Y48492940D01*
X102091656Y48492940D01*
X102098623Y48610385D01*
X102072489Y48799794D01*
X102009906Y48980466D01*
X101955463Y49082322D01*
X101818158Y49158811D01*
X101231767Y48572420D01*
X101016241Y48572420D01*
X100429850Y49158811D01*
X100292545Y49082322D01*
X100209045Y48910315D01*
X100160706Y48725323D01*
X100149385Y48534455D01*
X95026161Y48534455D01*
X95018426Y48573519D01*
X94937754Y48769247D01*
X94820600Y48945577D01*
X94671428Y49095793D01*
X94495921Y49214175D01*
X94371268Y49266574D01*
X100537613Y49266574D01*
X101124004Y48680183D01*
X101710395Y49266574D01*
X101633906Y49403879D01*
X101461899Y49487379D01*
X101276907Y49535718D01*
X101086039Y49547039D01*
X100896630Y49520905D01*
X100715958Y49458322D01*
X100614102Y49403879D01*
X100537613Y49266574D01*
X94371268Y49266574D01*
X94300761Y49296212D01*
X94093384Y49338781D01*
X93881689Y49340259D01*
X93673738Y49300590D01*
X93477452Y49221285D01*
X93300308Y49105366D01*
X93149054Y48957247D01*
X93029450Y48782569D01*
X92946052Y48587988D01*
X92902037Y48380913D01*
X92899081Y48169233D01*
X92516800Y48169233D01*
X92519546Y48365850D01*
X92478426Y48573519D01*
X92397754Y48769247D01*
X92280600Y48945577D01*
X92131428Y49095793D01*
X91955921Y49214175D01*
X91760761Y49296212D01*
X91553384Y49338781D01*
X91341689Y49340259D01*
X91133738Y49300590D01*
X90937452Y49221285D01*
X90760308Y49105366D01*
X90609054Y48957247D01*
X90489450Y48782569D01*
X90406052Y48587988D01*
X90362037Y48380913D01*
X90359081Y48169233D01*
X419100Y48169233D01*
X419100Y50709233D01*
X90359081Y50709233D01*
X90397297Y50501010D01*
X90475230Y50304175D01*
X90589910Y50126227D01*
X90736969Y49973942D01*
X90910807Y49853121D01*
X91104802Y49768367D01*
X91311564Y49722907D01*
X91523219Y49718474D01*
X91731704Y49755235D01*
X91929077Y49831792D01*
X92107822Y49945227D01*
X92261130Y50091220D01*
X92383161Y50264210D01*
X92469268Y50457608D01*
X92516170Y50664048D01*
X92516800Y50709233D01*
X92899081Y50709233D01*
X92937297Y50501010D01*
X93015230Y50304175D01*
X93129910Y50126227D01*
X93276969Y49973942D01*
X93450807Y49853121D01*
X93644802Y49768367D01*
X93851564Y49722907D01*
X94063219Y49718474D01*
X94271704Y49755235D01*
X94469077Y49831792D01*
X94542302Y49878262D01*
X100537613Y49878262D01*
X100614102Y49740957D01*
X100786109Y49657457D01*
X100971101Y49609118D01*
X101161969Y49597797D01*
X101351378Y49623931D01*
X101532050Y49686514D01*
X101633906Y49740957D01*
X101710395Y49878262D01*
X101124004Y50464653D01*
X100537613Y49878262D01*
X94542302Y49878262D01*
X94647822Y49945227D01*
X94801130Y50091220D01*
X94923161Y50264210D01*
X95009268Y50457608D01*
X95026726Y50534451D01*
X100149385Y50534451D01*
X100175519Y50345042D01*
X100238102Y50164370D01*
X100292545Y50062514D01*
X100429850Y49986025D01*
X101016241Y50572416D01*
X101231767Y50572416D01*
X101818158Y49986025D01*
X101955463Y50062514D01*
X102038963Y50234521D01*
X102087302Y50419513D01*
X102091656Y50492936D01*
X102177496Y50492936D01*
X102210960Y50310606D01*
X102279201Y50138248D01*
X102379621Y49982428D01*
X102508393Y49849080D01*
X102660614Y49743284D01*
X102830485Y49669069D01*
X103011536Y49629263D01*
X103196870Y49625380D01*
X103379429Y49657570D01*
X103552259Y49724607D01*
X103708777Y49823936D01*
X103843020Y49951774D01*
X103949877Y50103253D01*
X104025276Y50272601D01*
X104066345Y50453370D01*
X104069302Y50665104D01*
X104033296Y50846949D01*
X103962655Y51018337D01*
X103860069Y51172740D01*
X103729448Y51304276D01*
X103575765Y51407937D01*
X103404874Y51479773D01*
X103223285Y51517048D01*
X103037914Y51518342D01*
X102855822Y51483606D01*
X102683945Y51414163D01*
X102528830Y51312658D01*
X102396384Y51182958D01*
X102291653Y51030003D01*
X102218626Y50859618D01*
X102180084Y50678293D01*
X102177496Y50492936D01*
X102091656Y50492936D01*
X102098623Y50610381D01*
X102072489Y50799790D01*
X102009906Y50980462D01*
X101955463Y51082318D01*
X101818158Y51158807D01*
X101231767Y50572416D01*
X101016241Y50572416D01*
X100429850Y51158807D01*
X100292545Y51082318D01*
X100209045Y50910311D01*
X100160706Y50725319D01*
X100149385Y50534451D01*
X95026726Y50534451D01*
X95056170Y50664048D01*
X95059546Y50905850D01*
X95018426Y51113519D01*
X94955344Y51266570D01*
X100537613Y51266570D01*
X101124004Y50680179D01*
X101710395Y51266570D01*
X101633906Y51403875D01*
X101461899Y51487375D01*
X101276907Y51535714D01*
X101086039Y51547035D01*
X100896630Y51520901D01*
X100715958Y51458318D01*
X100614102Y51403875D01*
X100537613Y51266570D01*
X94955344Y51266570D01*
X94937754Y51309247D01*
X94820600Y51485577D01*
X94671428Y51635793D01*
X94495921Y51754175D01*
X94300761Y51836212D01*
X94095932Y51878258D01*
X100537613Y51878258D01*
X100614102Y51740953D01*
X100786109Y51657453D01*
X100971101Y51609114D01*
X101161969Y51597793D01*
X101351378Y51623927D01*
X101532050Y51686510D01*
X101633906Y51740953D01*
X101710395Y51878258D01*
X101124004Y52464649D01*
X100537613Y51878258D01*
X94095932Y51878258D01*
X94093384Y51878781D01*
X93881689Y51880259D01*
X93673738Y51840590D01*
X93477452Y51761285D01*
X93300308Y51645366D01*
X93149054Y51497247D01*
X93029450Y51322569D01*
X92946052Y51127988D01*
X92902037Y50920913D01*
X92899081Y50709233D01*
X92516800Y50709233D01*
X92519546Y50905850D01*
X92478426Y51113519D01*
X92397754Y51309247D01*
X92280600Y51485577D01*
X92131428Y51635793D01*
X91955921Y51754175D01*
X91760761Y51836212D01*
X91553384Y51878781D01*
X91341689Y51880259D01*
X91133738Y51840590D01*
X90937452Y51761285D01*
X90760308Y51645366D01*
X90609054Y51497247D01*
X90489450Y51322569D01*
X90406052Y51127988D01*
X90362037Y50920913D01*
X90359081Y50709233D01*
X419100Y50709233D01*
X419100Y52564527D01*
X90790250Y52564527D01*
X90876483Y52413139D01*
X91068133Y52321011D01*
X91274073Y52268043D01*
X91486390Y52256270D01*
X91696924Y52286144D01*
X91897585Y52356517D01*
X92003517Y52413139D01*
X92089750Y52564527D01*
X93330250Y52564527D01*
X93416483Y52413139D01*
X93608133Y52321011D01*
X93814073Y52268043D01*
X94026390Y52256270D01*
X94236924Y52286144D01*
X94437585Y52356517D01*
X94543517Y52413139D01*
X94612615Y52534447D01*
X100149385Y52534447D01*
X100175519Y52345038D01*
X100238102Y52164366D01*
X100292545Y52062510D01*
X100429850Y51986021D01*
X101016241Y52572412D01*
X101231767Y52572412D01*
X101818158Y51986021D01*
X101955463Y52062510D01*
X102038963Y52234517D01*
X102087302Y52419509D01*
X102091656Y52492932D01*
X102177496Y52492932D01*
X102210960Y52310602D01*
X102279201Y52138244D01*
X102379621Y51982424D01*
X102508393Y51849076D01*
X102660614Y51743280D01*
X102830485Y51669065D01*
X103011536Y51629259D01*
X103196870Y51625376D01*
X103379429Y51657566D01*
X103552259Y51724603D01*
X103708777Y51823932D01*
X103843020Y51951770D01*
X103949877Y52103249D01*
X104025276Y52272597D01*
X104066345Y52453366D01*
X104069302Y52665100D01*
X104033296Y52846945D01*
X103962655Y53018333D01*
X103860069Y53172736D01*
X103729448Y53304272D01*
X103575765Y53407933D01*
X103404874Y53479769D01*
X103223285Y53517044D01*
X103037914Y53518338D01*
X102855822Y53483602D01*
X102683945Y53414159D01*
X102528830Y53312654D01*
X102396384Y53182954D01*
X102291653Y53029999D01*
X102218626Y52859614D01*
X102180084Y52678289D01*
X102177496Y52492932D01*
X102091656Y52492932D01*
X102098623Y52610377D01*
X102072489Y52799786D01*
X102009906Y52980458D01*
X101955463Y53082314D01*
X101818158Y53158803D01*
X101231767Y52572412D01*
X101016241Y52572412D01*
X100429850Y53158803D01*
X100292545Y53082314D01*
X100209045Y52910307D01*
X100160706Y52725315D01*
X100149385Y52534447D01*
X94612615Y52534447D01*
X94629750Y52564527D01*
X93980000Y53214276D01*
X93330250Y52564527D01*
X92089750Y52564527D01*
X91440000Y53214276D01*
X90790250Y52564527D01*
X419100Y52564527D01*
X419100Y53293610D01*
X90356270Y53293610D01*
X90386144Y53083076D01*
X90456517Y52882415D01*
X90513139Y52776483D01*
X90664527Y52690250D01*
X91314276Y53340000D01*
X91565724Y53340000D01*
X92215473Y52690250D01*
X92366861Y52776483D01*
X92458989Y52968133D01*
X92511957Y53174073D01*
X92518585Y53293610D01*
X92896270Y53293610D01*
X92926144Y53083076D01*
X92996517Y52882415D01*
X93053139Y52776483D01*
X93204527Y52690250D01*
X93854276Y53340000D01*
X94105724Y53340000D01*
X94755473Y52690250D01*
X94906861Y52776483D01*
X94998989Y52968133D01*
X95051957Y53174073D01*
X95063730Y53386390D01*
X95043482Y53529089D01*
X97929082Y53529089D01*
X97945717Y53438451D01*
X97979641Y53352770D01*
X98029560Y53275310D01*
X98093575Y53209021D01*
X98169245Y53156429D01*
X98253690Y53119536D01*
X98343693Y53099748D01*
X98435825Y53097818D01*
X98526577Y53113820D01*
X98612493Y53147144D01*
X98690299Y53196522D01*
X98757033Y53260072D01*
X98761614Y53266566D01*
X100537613Y53266566D01*
X101124004Y52680175D01*
X101710395Y53266566D01*
X101633906Y53403871D01*
X101461899Y53487371D01*
X101276907Y53535710D01*
X101086039Y53547031D01*
X100896630Y53520897D01*
X100715958Y53458314D01*
X100614102Y53403871D01*
X100537613Y53266566D01*
X98761614Y53266566D01*
X98810153Y53335373D01*
X98847635Y53419559D01*
X98868051Y53509421D01*
X98869521Y53614676D01*
X98851621Y53705073D01*
X98816505Y53790272D01*
X98765509Y53867028D01*
X98754361Y53878254D01*
X100537613Y53878254D01*
X100614102Y53740949D01*
X100786109Y53657449D01*
X100971101Y53609110D01*
X101161969Y53597789D01*
X101351378Y53623923D01*
X101532050Y53686506D01*
X101633906Y53740949D01*
X101710395Y53878254D01*
X101124004Y54464645D01*
X100537613Y53878254D01*
X98754361Y53878254D01*
X98700575Y53932416D01*
X98624177Y53983947D01*
X98539226Y54019658D01*
X98448956Y54038187D01*
X98356806Y54038831D01*
X98266286Y54021563D01*
X98180844Y53987042D01*
X98103734Y53936583D01*
X98037894Y53872108D01*
X97985831Y53796072D01*
X97949528Y53711371D01*
X97930369Y53621233D01*
X97929082Y53529089D01*
X95043482Y53529089D01*
X95033856Y53596924D01*
X94963483Y53797585D01*
X94906861Y53903517D01*
X94755473Y53989750D01*
X94105724Y53340000D01*
X93854276Y53340000D01*
X93204527Y53989750D01*
X93053139Y53903517D01*
X92961011Y53711867D01*
X92908043Y53505927D01*
X92896270Y53293610D01*
X92518585Y53293610D01*
X92523730Y53386390D01*
X92493856Y53596924D01*
X92423483Y53797585D01*
X92366861Y53903517D01*
X92215473Y53989750D01*
X91565724Y53340000D01*
X91314276Y53340000D01*
X90664527Y53989750D01*
X90513139Y53903517D01*
X90421011Y53711867D01*
X90368043Y53505927D01*
X90356270Y53293610D01*
X419100Y53293610D01*
X419100Y54115473D01*
X90790250Y54115473D01*
X91440000Y53465724D01*
X92089750Y54115473D01*
X93330250Y54115473D01*
X93980000Y53465724D01*
X94629750Y54115473D01*
X94543517Y54266861D01*
X94351867Y54358989D01*
X94145927Y54411957D01*
X93933610Y54423730D01*
X93723076Y54393856D01*
X93522415Y54323483D01*
X93416483Y54266861D01*
X93330250Y54115473D01*
X92089750Y54115473D01*
X92003517Y54266861D01*
X91811867Y54358989D01*
X91605927Y54411957D01*
X91393610Y54423730D01*
X91183076Y54393856D01*
X90982415Y54323483D01*
X90876483Y54266861D01*
X90790250Y54115473D01*
X419100Y54115473D01*
X419100Y54534443D01*
X100149385Y54534443D01*
X100175519Y54345034D01*
X100238102Y54164362D01*
X100292545Y54062506D01*
X100429850Y53986017D01*
X101016241Y54572408D01*
X101231767Y54572408D01*
X101818158Y53986017D01*
X101955463Y54062506D01*
X102038963Y54234513D01*
X102087302Y54419505D01*
X102091656Y54492928D01*
X102177496Y54492928D01*
X102210960Y54310598D01*
X102279201Y54138240D01*
X102379621Y53982420D01*
X102508393Y53849072D01*
X102660614Y53743276D01*
X102830485Y53669061D01*
X103011536Y53629255D01*
X103196870Y53625372D01*
X103379429Y53657562D01*
X103552259Y53724599D01*
X103708777Y53823928D01*
X103843020Y53951766D01*
X103949877Y54103245D01*
X104025276Y54272593D01*
X104066345Y54453362D01*
X104069302Y54665096D01*
X104033296Y54846941D01*
X103962655Y55018329D01*
X103860069Y55172732D01*
X103729448Y55304268D01*
X103575765Y55407929D01*
X103404874Y55479765D01*
X103223285Y55517040D01*
X103037914Y55518334D01*
X102855822Y55483598D01*
X102683945Y55414155D01*
X102528830Y55312650D01*
X102396384Y55182950D01*
X102291653Y55029995D01*
X102218626Y54859610D01*
X102180084Y54678285D01*
X102177496Y54492928D01*
X102091656Y54492928D01*
X102098623Y54610373D01*
X102072489Y54799782D01*
X102009906Y54980454D01*
X101955463Y55082310D01*
X101818158Y55158799D01*
X101231767Y54572408D01*
X101016241Y54572408D01*
X100429850Y55158799D01*
X100292545Y55082310D01*
X100209045Y54910303D01*
X100160706Y54725311D01*
X100149385Y54534443D01*
X419100Y54534443D01*
X419100Y55789233D01*
X90359081Y55789233D01*
X90397297Y55581010D01*
X90475230Y55384175D01*
X90589910Y55206227D01*
X90736969Y55053942D01*
X90910807Y54933121D01*
X91104802Y54848367D01*
X91311564Y54802907D01*
X91523219Y54798474D01*
X91731704Y54835235D01*
X91929077Y54911792D01*
X92107822Y55025227D01*
X92261130Y55171220D01*
X92383161Y55344210D01*
X92469268Y55537608D01*
X92516170Y55744048D01*
X92516800Y55789233D01*
X92899081Y55789233D01*
X92937297Y55581010D01*
X93015230Y55384175D01*
X93129910Y55206227D01*
X93276969Y55053942D01*
X93450807Y54933121D01*
X93644802Y54848367D01*
X93851564Y54802907D01*
X94063219Y54798474D01*
X94271704Y54835235D01*
X94469077Y54911792D01*
X94647822Y55025227D01*
X94801130Y55171220D01*
X94923161Y55344210D01*
X94997104Y55510289D01*
X97827482Y55510289D01*
X97844117Y55419651D01*
X97878041Y55333970D01*
X97927960Y55256510D01*
X97991975Y55190221D01*
X98067645Y55137629D01*
X98152090Y55100736D01*
X98242093Y55080948D01*
X98334225Y55079018D01*
X98424977Y55095020D01*
X98510893Y55128344D01*
X98588699Y55177722D01*
X98655433Y55241272D01*
X98673273Y55266562D01*
X100537613Y55266562D01*
X101124004Y54680171D01*
X101710395Y55266562D01*
X101633906Y55403867D01*
X101461899Y55487367D01*
X101276907Y55535706D01*
X101086039Y55547027D01*
X100896630Y55520893D01*
X100715958Y55458310D01*
X100614102Y55403867D01*
X100537613Y55266562D01*
X98673273Y55266562D01*
X98708553Y55316573D01*
X98746035Y55400759D01*
X98766451Y55490621D01*
X98767921Y55595876D01*
X98750021Y55686273D01*
X98714905Y55771472D01*
X98663909Y55848228D01*
X98634096Y55878250D01*
X100537613Y55878250D01*
X100614102Y55740945D01*
X100786109Y55657445D01*
X100971101Y55609106D01*
X101161969Y55597785D01*
X101351378Y55623919D01*
X101532050Y55686502D01*
X101633906Y55740945D01*
X101710395Y55878250D01*
X101124004Y56464641D01*
X100537613Y55878250D01*
X98634096Y55878250D01*
X98598975Y55913616D01*
X98522577Y55965147D01*
X98437626Y56000858D01*
X98347356Y56019387D01*
X98255206Y56020031D01*
X98164686Y56002763D01*
X98079244Y55968242D01*
X98002134Y55917783D01*
X97936294Y55853308D01*
X97884231Y55777272D01*
X97847928Y55692571D01*
X97828769Y55602433D01*
X97827482Y55510289D01*
X94997104Y55510289D01*
X95009268Y55537608D01*
X95056170Y55744048D01*
X95059546Y55985850D01*
X95018426Y56193519D01*
X94937754Y56389247D01*
X94841289Y56534439D01*
X100149385Y56534439D01*
X100175519Y56345030D01*
X100238102Y56164358D01*
X100292545Y56062502D01*
X100429850Y55986013D01*
X101016241Y56572404D01*
X101231767Y56572404D01*
X101818158Y55986013D01*
X101955463Y56062502D01*
X102038963Y56234509D01*
X102087302Y56419501D01*
X102091656Y56492924D01*
X102177496Y56492924D01*
X102210960Y56310594D01*
X102279201Y56138236D01*
X102379621Y55982416D01*
X102508393Y55849068D01*
X102660614Y55743272D01*
X102830485Y55669057D01*
X103011536Y55629251D01*
X103196870Y55625368D01*
X103379429Y55657558D01*
X103552259Y55724595D01*
X103708777Y55823924D01*
X103843020Y55951762D01*
X103949877Y56103241D01*
X104025276Y56272589D01*
X104066345Y56453358D01*
X104069302Y56665092D01*
X104033296Y56846937D01*
X103962655Y57018325D01*
X103860069Y57172728D01*
X103729448Y57304264D01*
X103575765Y57407925D01*
X103404874Y57479761D01*
X103223285Y57517036D01*
X103037914Y57518330D01*
X102855822Y57483594D01*
X102683945Y57414151D01*
X102528830Y57312646D01*
X102396384Y57182946D01*
X102291653Y57029991D01*
X102218626Y56859606D01*
X102180084Y56678281D01*
X102177496Y56492924D01*
X102091656Y56492924D01*
X102098623Y56610369D01*
X102072489Y56799778D01*
X102009906Y56980450D01*
X101955463Y57082306D01*
X101818158Y57158795D01*
X101231767Y56572404D01*
X101016241Y56572404D01*
X100429850Y57158795D01*
X100292545Y57082306D01*
X100209045Y56910299D01*
X100160706Y56725307D01*
X100149385Y56534439D01*
X94841289Y56534439D01*
X94820600Y56565577D01*
X94671428Y56715793D01*
X94495921Y56834175D01*
X94300761Y56916212D01*
X94093384Y56958781D01*
X93881689Y56960259D01*
X93673738Y56920590D01*
X93477452Y56841285D01*
X93300308Y56725366D01*
X93149054Y56577247D01*
X93029450Y56402569D01*
X92946052Y56207988D01*
X92902037Y56000913D01*
X92899081Y55789233D01*
X92516800Y55789233D01*
X92519546Y55985850D01*
X92478426Y56193519D01*
X92397754Y56389247D01*
X92280600Y56565577D01*
X92131428Y56715793D01*
X91955921Y56834175D01*
X91760761Y56916212D01*
X91553384Y56958781D01*
X91341689Y56960259D01*
X91133738Y56920590D01*
X90937452Y56841285D01*
X90760308Y56725366D01*
X90609054Y56577247D01*
X90489450Y56402569D01*
X90406052Y56207988D01*
X90362037Y56000913D01*
X90359081Y55789233D01*
X419100Y55789233D01*
X419100Y57644527D01*
X90790250Y57644527D01*
X90876483Y57493139D01*
X91068133Y57401011D01*
X91274073Y57348043D01*
X91486390Y57336270D01*
X91696924Y57366144D01*
X91897585Y57436517D01*
X92003517Y57493139D01*
X92089750Y57644527D01*
X93330250Y57644527D01*
X93416483Y57493139D01*
X93608133Y57401011D01*
X93814073Y57348043D01*
X94026390Y57336270D01*
X94236924Y57366144D01*
X94437585Y57436517D01*
X94543517Y57493139D01*
X94585981Y57567689D01*
X98437082Y57567689D01*
X98453717Y57477051D01*
X98487641Y57391370D01*
X98537560Y57313910D01*
X98601575Y57247621D01*
X98677245Y57195029D01*
X98761690Y57158136D01*
X98851693Y57138348D01*
X98943825Y57136418D01*
X99034577Y57152420D01*
X99120493Y57185744D01*
X99198299Y57235122D01*
X99231310Y57266558D01*
X100537613Y57266558D01*
X101124004Y56680167D01*
X101710395Y57266558D01*
X101633906Y57403863D01*
X101461899Y57487363D01*
X101276907Y57535702D01*
X101086039Y57547023D01*
X100896630Y57520889D01*
X100715958Y57458306D01*
X100614102Y57403863D01*
X100537613Y57266558D01*
X99231310Y57266558D01*
X99265033Y57298672D01*
X99318153Y57373973D01*
X99355635Y57458159D01*
X99376051Y57548021D01*
X99377521Y57653276D01*
X99359621Y57743673D01*
X99324505Y57828872D01*
X99291702Y57878246D01*
X100537613Y57878246D01*
X100614102Y57740941D01*
X100786109Y57657441D01*
X100971101Y57609102D01*
X101161969Y57597781D01*
X101351378Y57623915D01*
X101532050Y57686498D01*
X101633906Y57740941D01*
X101710395Y57878246D01*
X101124004Y58464637D01*
X100537613Y57878246D01*
X99291702Y57878246D01*
X99273509Y57905628D01*
X99208575Y57971016D01*
X99132177Y58022547D01*
X99047226Y58058258D01*
X98956956Y58076787D01*
X98864806Y58077431D01*
X98774286Y58060163D01*
X98688844Y58025642D01*
X98611734Y57975183D01*
X98545894Y57910708D01*
X98493831Y57834672D01*
X98457528Y57749971D01*
X98438369Y57659833D01*
X98437082Y57567689D01*
X94585981Y57567689D01*
X94629750Y57644527D01*
X93980000Y58294276D01*
X93330250Y57644527D01*
X92089750Y57644527D01*
X91440000Y58294276D01*
X90790250Y57644527D01*
X419100Y57644527D01*
X419100Y58373610D01*
X90356270Y58373610D01*
X90386144Y58163076D01*
X90456517Y57962415D01*
X90513139Y57856483D01*
X90664527Y57770250D01*
X91314276Y58420000D01*
X91565724Y58420000D01*
X92215473Y57770250D01*
X92366861Y57856483D01*
X92458989Y58048133D01*
X92511957Y58254073D01*
X92518585Y58373610D01*
X92896270Y58373610D01*
X92926144Y58163076D01*
X92996517Y57962415D01*
X93053139Y57856483D01*
X93204527Y57770250D01*
X93854276Y58420000D01*
X94105724Y58420000D01*
X94755473Y57770250D01*
X94906861Y57856483D01*
X94998989Y58048133D01*
X95051957Y58254073D01*
X95063730Y58466390D01*
X95054075Y58534435D01*
X100149385Y58534435D01*
X100175519Y58345026D01*
X100238102Y58164354D01*
X100292545Y58062498D01*
X100429850Y57986009D01*
X101016241Y58572400D01*
X101231767Y58572400D01*
X101818158Y57986009D01*
X101955463Y58062498D01*
X102038963Y58234505D01*
X102087302Y58419497D01*
X102091656Y58492920D01*
X102177496Y58492920D01*
X102210960Y58310590D01*
X102279201Y58138232D01*
X102379621Y57982412D01*
X102508393Y57849064D01*
X102660614Y57743268D01*
X102830485Y57669053D01*
X103011536Y57629247D01*
X103196870Y57625364D01*
X103379429Y57657554D01*
X103552259Y57724591D01*
X103708777Y57823920D01*
X103843020Y57951758D01*
X103949877Y58103237D01*
X104025276Y58272585D01*
X104066345Y58453354D01*
X104069302Y58665088D01*
X104033296Y58846933D01*
X103962655Y59018321D01*
X103860069Y59172724D01*
X103729448Y59304260D01*
X103575765Y59407921D01*
X103404874Y59479757D01*
X103223285Y59517032D01*
X103037914Y59518326D01*
X102855822Y59483590D01*
X102683945Y59414147D01*
X102528830Y59312642D01*
X102396384Y59182942D01*
X102291653Y59029987D01*
X102218626Y58859602D01*
X102180084Y58678277D01*
X102177496Y58492920D01*
X102091656Y58492920D01*
X102098623Y58610365D01*
X102072489Y58799774D01*
X102009906Y58980446D01*
X101955463Y59082302D01*
X101818158Y59158791D01*
X101231767Y58572400D01*
X101016241Y58572400D01*
X100429850Y59158791D01*
X100292545Y59082302D01*
X100209045Y58910295D01*
X100160706Y58725303D01*
X100149385Y58534435D01*
X95054075Y58534435D01*
X95033856Y58676924D01*
X94963483Y58877585D01*
X94906861Y58983517D01*
X94755473Y59069750D01*
X94105724Y58420000D01*
X93854276Y58420000D01*
X93204527Y59069750D01*
X93053139Y58983517D01*
X92961011Y58791867D01*
X92908043Y58585927D01*
X92896270Y58373610D01*
X92518585Y58373610D01*
X92523730Y58466390D01*
X92493856Y58676924D01*
X92423483Y58877585D01*
X92366861Y58983517D01*
X92215473Y59069750D01*
X91565724Y58420000D01*
X91314276Y58420000D01*
X90664527Y59069750D01*
X90513139Y58983517D01*
X90421011Y58791867D01*
X90368043Y58585927D01*
X90356270Y58373610D01*
X419100Y58373610D01*
X419100Y59195473D01*
X90790250Y59195473D01*
X91440000Y58545724D01*
X92089750Y59195473D01*
X93330250Y59195473D01*
X93980000Y58545724D01*
X94629750Y59195473D01*
X94589262Y59266554D01*
X100537613Y59266554D01*
X101124004Y58680163D01*
X101710395Y59266554D01*
X101633906Y59403859D01*
X101461899Y59487359D01*
X101276907Y59535698D01*
X101086039Y59547019D01*
X100896630Y59520885D01*
X100715958Y59458302D01*
X100614102Y59403859D01*
X100537613Y59266554D01*
X94589262Y59266554D01*
X94543517Y59346861D01*
X94351867Y59438989D01*
X94145927Y59491957D01*
X93933610Y59503730D01*
X93723076Y59473856D01*
X93522415Y59403483D01*
X93416483Y59346861D01*
X93330250Y59195473D01*
X92089750Y59195473D01*
X92003517Y59346861D01*
X91811867Y59438989D01*
X91605927Y59491957D01*
X91393610Y59503730D01*
X91183076Y59473856D01*
X90982415Y59403483D01*
X90876483Y59346861D01*
X90790250Y59195473D01*
X419100Y59195473D01*
X419100Y61047489D01*
X17309482Y61047489D01*
X17326117Y60956851D01*
X17360041Y60871170D01*
X17409960Y60793710D01*
X17473975Y60727421D01*
X17549645Y60674829D01*
X17634090Y60637936D01*
X17724093Y60618148D01*
X17816225Y60616218D01*
X17906977Y60632220D01*
X17992893Y60665544D01*
X18070699Y60714922D01*
X18137433Y60778472D01*
X18190553Y60853773D01*
X18197436Y60869233D01*
X90359081Y60869233D01*
X90397297Y60661010D01*
X90475230Y60464175D01*
X90589910Y60286227D01*
X90736969Y60133942D01*
X90910807Y60013121D01*
X91104802Y59928367D01*
X91311564Y59882907D01*
X91523219Y59878474D01*
X91731704Y59915235D01*
X91929077Y59991792D01*
X92107822Y60105227D01*
X92261130Y60251220D01*
X92383161Y60424210D01*
X92469268Y60617608D01*
X92516170Y60824048D01*
X92516800Y60869233D01*
X92899081Y60869233D01*
X92937297Y60661010D01*
X93015230Y60464175D01*
X93129910Y60286227D01*
X93276969Y60133942D01*
X93450807Y60013121D01*
X93644802Y59928367D01*
X93851564Y59882907D01*
X94063219Y59878474D01*
X94271704Y59915235D01*
X94469077Y59991792D01*
X94647822Y60105227D01*
X94801130Y60251220D01*
X94923161Y60424210D01*
X94925525Y60429521D01*
X100153343Y60429521D01*
X100153343Y59842167D01*
X100163592Y59790641D01*
X100183697Y59742105D01*
X100212884Y59698423D01*
X100250032Y59661275D01*
X100293713Y59632088D01*
X100342250Y59611984D01*
X100393776Y59601735D01*
X100981129Y59601735D01*
X101047804Y59668410D01*
X101047804Y60496196D01*
X101200204Y60496196D01*
X101200204Y59668410D01*
X101266879Y59601735D01*
X101854232Y59601735D01*
X101905758Y59611984D01*
X101954295Y59632088D01*
X101997976Y59661275D01*
X102035124Y59698423D01*
X102064311Y59742105D01*
X102084416Y59790641D01*
X102094665Y59842167D01*
X102094665Y60429521D01*
X102031270Y60492916D01*
X102177496Y60492916D01*
X102210960Y60310586D01*
X102279201Y60138228D01*
X102379621Y59982408D01*
X102508393Y59849060D01*
X102660614Y59743264D01*
X102830485Y59669049D01*
X103011536Y59629243D01*
X103196870Y59625360D01*
X103379429Y59657550D01*
X103552259Y59724587D01*
X103708777Y59823916D01*
X103843020Y59951754D01*
X103949877Y60103233D01*
X104025276Y60272581D01*
X104066345Y60453350D01*
X104069302Y60665084D01*
X104033296Y60846929D01*
X103962655Y61018317D01*
X103860069Y61172720D01*
X103729448Y61304256D01*
X103575765Y61407917D01*
X103404874Y61479753D01*
X103223285Y61517028D01*
X103037914Y61518322D01*
X102855822Y61483586D01*
X102683945Y61414143D01*
X102528830Y61312638D01*
X102396384Y61182938D01*
X102291653Y61029983D01*
X102218626Y60859598D01*
X102180084Y60678273D01*
X102177496Y60492916D01*
X102031270Y60492916D01*
X102027990Y60496196D01*
X101200204Y60496196D01*
X101047804Y60496196D01*
X100220018Y60496196D01*
X100153343Y60429521D01*
X94925525Y60429521D01*
X95009268Y60617608D01*
X95056170Y60824048D01*
X95059546Y61065850D01*
X95018426Y61273519D01*
X95006430Y61302625D01*
X100153343Y61302625D01*
X100153343Y60715271D01*
X100220018Y60648596D01*
X101047804Y60648596D01*
X101047804Y61476382D01*
X101200204Y61476382D01*
X101200204Y60648596D01*
X102027990Y60648596D01*
X102094665Y60715271D01*
X102094665Y61302625D01*
X102084416Y61354151D01*
X102064311Y61402687D01*
X102035124Y61446369D01*
X101997976Y61483517D01*
X101954295Y61512704D01*
X101905758Y61532808D01*
X101854232Y61543057D01*
X101266879Y61543057D01*
X101200204Y61476382D01*
X101047804Y61476382D01*
X100981129Y61543057D01*
X100393776Y61543057D01*
X100342250Y61532808D01*
X100293713Y61512704D01*
X100250032Y61483517D01*
X100212884Y61446369D01*
X100183697Y61402687D01*
X100163592Y61354151D01*
X100153343Y61302625D01*
X95006430Y61302625D01*
X94937754Y61469247D01*
X94820600Y61645577D01*
X94671428Y61795793D01*
X94495921Y61914175D01*
X94300761Y61996212D01*
X94093384Y62038781D01*
X93881689Y62040259D01*
X93673738Y62000590D01*
X93477452Y61921285D01*
X93300308Y61805366D01*
X93149054Y61657247D01*
X93029450Y61482569D01*
X92946052Y61287988D01*
X92902037Y61080913D01*
X92899081Y60869233D01*
X92516800Y60869233D01*
X92519546Y61065850D01*
X92478426Y61273519D01*
X92397754Y61469247D01*
X92280600Y61645577D01*
X92131428Y61795793D01*
X91955921Y61914175D01*
X91760761Y61996212D01*
X91553384Y62038781D01*
X91341689Y62040259D01*
X91133738Y62000590D01*
X90937452Y61921285D01*
X90760308Y61805366D01*
X90609054Y61657247D01*
X90489450Y61482569D01*
X90406052Y61287988D01*
X90362037Y61080913D01*
X90359081Y60869233D01*
X18197436Y60869233D01*
X18228035Y60937959D01*
X18248451Y61027821D01*
X18249921Y61133076D01*
X18232021Y61223473D01*
X18196905Y61308672D01*
X18145909Y61385428D01*
X18080975Y61450816D01*
X18004577Y61502347D01*
X17919626Y61538058D01*
X17829356Y61556587D01*
X17737206Y61557231D01*
X17646686Y61539963D01*
X17561244Y61505442D01*
X17484134Y61454983D01*
X17418294Y61390508D01*
X17366231Y61314472D01*
X17329928Y61229771D01*
X17310769Y61139633D01*
X17309482Y61047489D01*
X419100Y61047489D01*
X419100Y62724527D01*
X90790250Y62724527D01*
X90876483Y62573139D01*
X91068133Y62481011D01*
X91274073Y62428043D01*
X91486390Y62416270D01*
X91696924Y62446144D01*
X91897585Y62516517D01*
X92003517Y62573139D01*
X92089750Y62724527D01*
X93330250Y62724527D01*
X93416483Y62573139D01*
X93608133Y62481011D01*
X93814073Y62428043D01*
X94026390Y62416270D01*
X94236924Y62446144D01*
X94437585Y62516517D01*
X94543517Y62573139D01*
X94629750Y62724527D01*
X93980000Y63374276D01*
X93330250Y62724527D01*
X92089750Y62724527D01*
X91440000Y63374276D01*
X90790250Y62724527D01*
X419100Y62724527D01*
X419100Y63453610D01*
X90356270Y63453610D01*
X90386144Y63243076D01*
X90456517Y63042415D01*
X90513139Y62936483D01*
X90664527Y62850250D01*
X91314276Y63500000D01*
X91565724Y63500000D01*
X92215473Y62850250D01*
X92366861Y62936483D01*
X92458989Y63128133D01*
X92511957Y63334073D01*
X92518585Y63453610D01*
X92896270Y63453610D01*
X92926144Y63243076D01*
X92996517Y63042415D01*
X93053139Y62936483D01*
X93204527Y62850250D01*
X93854276Y63500000D01*
X94105724Y63500000D01*
X94755473Y62850250D01*
X94906861Y62936483D01*
X94998989Y63128133D01*
X95051957Y63334073D01*
X95063730Y63546390D01*
X95033856Y63756924D01*
X94963483Y63957585D01*
X94906861Y64063517D01*
X94755473Y64149750D01*
X94105724Y63500000D01*
X93854276Y63500000D01*
X93204527Y64149750D01*
X93053139Y64063517D01*
X92961011Y63871867D01*
X92908043Y63665927D01*
X92896270Y63453610D01*
X92518585Y63453610D01*
X92523730Y63546390D01*
X92493856Y63756924D01*
X92423483Y63957585D01*
X92366861Y64063517D01*
X92215473Y64149750D01*
X91565724Y63500000D01*
X91314276Y63500000D01*
X90664527Y64149750D01*
X90513139Y64063517D01*
X90421011Y63871867D01*
X90368043Y63665927D01*
X90356270Y63453610D01*
X419100Y63453610D01*
X419100Y64275473D01*
X90790250Y64275473D01*
X91440000Y63625724D01*
X92089750Y64275473D01*
X93330250Y64275473D01*
X93980000Y63625724D01*
X94629750Y64275473D01*
X94543517Y64426861D01*
X94351867Y64518989D01*
X94145927Y64571957D01*
X93933610Y64583730D01*
X93723076Y64553856D01*
X93522415Y64483483D01*
X93416483Y64426861D01*
X93330250Y64275473D01*
X92089750Y64275473D01*
X92003517Y64426861D01*
X91811867Y64518989D01*
X91605927Y64571957D01*
X91393610Y64583730D01*
X91183076Y64553856D01*
X90982415Y64483483D01*
X90876483Y64426861D01*
X90790250Y64275473D01*
X419100Y64275473D01*
X419100Y65670289D01*
X57568482Y65670289D01*
X57585117Y65579651D01*
X57619041Y65493970D01*
X57668960Y65416510D01*
X57732975Y65350221D01*
X57808645Y65297629D01*
X57893090Y65260736D01*
X57983093Y65240948D01*
X58075225Y65239018D01*
X58165977Y65255020D01*
X58251893Y65288344D01*
X58329699Y65337722D01*
X58396433Y65401272D01*
X58449553Y65476573D01*
X58487035Y65560759D01*
X58507451Y65650621D01*
X58508921Y65755876D01*
X58491021Y65846273D01*
X58479804Y65873489D01*
X108114482Y65873489D01*
X108131117Y65782851D01*
X108165041Y65697170D01*
X108214960Y65619710D01*
X108278975Y65553421D01*
X108354645Y65500829D01*
X108439090Y65463936D01*
X108529093Y65444148D01*
X108621225Y65442218D01*
X108711977Y65458220D01*
X108797893Y65491544D01*
X108875699Y65540922D01*
X108942433Y65604472D01*
X108995553Y65679773D01*
X109033035Y65763959D01*
X109053451Y65853821D01*
X109054921Y65959076D01*
X109037021Y66049473D01*
X109001905Y66134672D01*
X108950909Y66211428D01*
X108885975Y66276816D01*
X108809577Y66328347D01*
X108724626Y66364058D01*
X108634356Y66382587D01*
X108542206Y66383231D01*
X108451686Y66365963D01*
X108366244Y66331442D01*
X108289134Y66280983D01*
X108223294Y66216508D01*
X108171231Y66140472D01*
X108134928Y66055771D01*
X108115769Y65965633D01*
X108114482Y65873489D01*
X58479804Y65873489D01*
X58455905Y65931472D01*
X58404909Y66008228D01*
X58339975Y66073616D01*
X58263577Y66125147D01*
X58178626Y66160858D01*
X58088356Y66179387D01*
X57996206Y66180031D01*
X57905686Y66162763D01*
X57820244Y66128242D01*
X57743134Y66077783D01*
X57677294Y66013308D01*
X57625231Y65937272D01*
X57588928Y65852571D01*
X57569769Y65762433D01*
X57568482Y65670289D01*
X419100Y65670289D01*
X419100Y67473689D01*
X109841682Y67473689D01*
X109858317Y67383051D01*
X109892241Y67297370D01*
X109942160Y67219910D01*
X110006175Y67153621D01*
X110081845Y67101029D01*
X110166290Y67064136D01*
X110256293Y67044348D01*
X110348425Y67042418D01*
X110439177Y67058420D01*
X110525093Y67091744D01*
X110602899Y67141122D01*
X110669633Y67204672D01*
X110722753Y67279973D01*
X110760235Y67364159D01*
X110780651Y67454021D01*
X110782121Y67559276D01*
X110764221Y67649673D01*
X110729105Y67734872D01*
X110678109Y67811628D01*
X110613175Y67877016D01*
X110536777Y67928547D01*
X110451826Y67964258D01*
X110361556Y67982787D01*
X110269406Y67983431D01*
X110178886Y67966163D01*
X110093444Y67931642D01*
X110016334Y67881183D01*
X109950494Y67816708D01*
X109898431Y67740672D01*
X109862128Y67655971D01*
X109842969Y67565833D01*
X109841682Y67473689D01*
X419100Y67473689D01*
X419100Y68388089D01*
X97827482Y68388089D01*
X97844117Y68297451D01*
X97878041Y68211770D01*
X97927960Y68134310D01*
X97991975Y68068021D01*
X98067645Y68015429D01*
X98152090Y67978536D01*
X98242093Y67958748D01*
X98334225Y67956818D01*
X98424977Y67972820D01*
X98510893Y68006144D01*
X98588699Y68055522D01*
X98655433Y68119072D01*
X98708553Y68194373D01*
X98746035Y68278559D01*
X98766451Y68368421D01*
X98767921Y68473676D01*
X98750021Y68564073D01*
X98714905Y68649272D01*
X98663909Y68726028D01*
X98598975Y68791416D01*
X98537934Y68832589D01*
X102107382Y68832589D01*
X102124017Y68741951D01*
X102157941Y68656270D01*
X102207860Y68578810D01*
X102271875Y68512521D01*
X102347545Y68459929D01*
X102431990Y68423036D01*
X102521993Y68403248D01*
X102614125Y68401318D01*
X102704877Y68417320D01*
X102790793Y68450644D01*
X102868599Y68500022D01*
X102935333Y68563572D01*
X102988453Y68638873D01*
X103025935Y68723059D01*
X103046351Y68812921D01*
X103047821Y68918176D01*
X103029921Y69008573D01*
X102994805Y69093772D01*
X102943809Y69170528D01*
X102878875Y69235916D01*
X102802477Y69287447D01*
X102717526Y69323158D01*
X102627256Y69341687D01*
X102535106Y69342331D01*
X102444586Y69325063D01*
X102359144Y69290542D01*
X102282034Y69240083D01*
X102216194Y69175608D01*
X102164131Y69099572D01*
X102127828Y69014871D01*
X102108669Y68924733D01*
X102107382Y68832589D01*
X98537934Y68832589D01*
X98522577Y68842947D01*
X98437626Y68878658D01*
X98347356Y68897187D01*
X98255206Y68897831D01*
X98164686Y68880563D01*
X98079244Y68846042D01*
X98002134Y68795583D01*
X97936294Y68731108D01*
X97884231Y68655072D01*
X97847928Y68570371D01*
X97828769Y68480233D01*
X97827482Y68388089D01*
X419100Y68388089D01*
X419100Y69048489D01*
X52513882Y69048489D01*
X52530517Y68957851D01*
X52564441Y68872170D01*
X52614360Y68794710D01*
X52678375Y68728421D01*
X52754045Y68675829D01*
X52838490Y68638936D01*
X52928493Y68619148D01*
X53020625Y68617218D01*
X53111377Y68633220D01*
X53197293Y68666544D01*
X53275099Y68715922D01*
X53341833Y68779472D01*
X53394953Y68854773D01*
X53432435Y68938959D01*
X53452851Y69028821D01*
X53454321Y69134076D01*
X53436421Y69224473D01*
X53401305Y69309672D01*
X53350309Y69386428D01*
X53285375Y69451816D01*
X53208977Y69503347D01*
X53124026Y69539058D01*
X53033756Y69557587D01*
X52941606Y69558231D01*
X52851086Y69540963D01*
X52765644Y69506442D01*
X52688534Y69455983D01*
X52622694Y69391508D01*
X52570631Y69315472D01*
X52534328Y69230771D01*
X52515169Y69140633D01*
X52513882Y69048489D01*
X419100Y69048489D01*
X419100Y69581889D01*
X98005282Y69581889D01*
X98021917Y69491251D01*
X98055841Y69405570D01*
X98105760Y69328110D01*
X98169775Y69261821D01*
X98245445Y69209229D01*
X98329890Y69172336D01*
X98419893Y69152548D01*
X98512025Y69150618D01*
X98602777Y69166620D01*
X98688693Y69199944D01*
X98766499Y69249322D01*
X98833233Y69312872D01*
X98886353Y69388173D01*
X98923835Y69472359D01*
X98944251Y69562221D01*
X98945721Y69667476D01*
X98927821Y69757873D01*
X98892705Y69843072D01*
X98841709Y69919828D01*
X98776775Y69985216D01*
X98700377Y70036747D01*
X98615426Y70072458D01*
X98525156Y70090987D01*
X98433006Y70091631D01*
X98342486Y70074363D01*
X98257044Y70039842D01*
X98179934Y69989383D01*
X98114094Y69924908D01*
X98062031Y69848872D01*
X98025728Y69764171D01*
X98006569Y69674033D01*
X98005282Y69581889D01*
X419100Y69581889D01*
X419100Y70267689D01*
X35267282Y70267689D01*
X35283917Y70177051D01*
X35317841Y70091370D01*
X35367760Y70013910D01*
X35431775Y69947621D01*
X35507445Y69895029D01*
X35591890Y69858136D01*
X35681893Y69838348D01*
X35774025Y69836418D01*
X35864777Y69852420D01*
X35950693Y69885744D01*
X36028499Y69935122D01*
X36095233Y69998672D01*
X36148353Y70073973D01*
X36166748Y70115289D01*
X96582882Y70115289D01*
X96599517Y70024651D01*
X96633441Y69938970D01*
X96683360Y69861510D01*
X96747375Y69795221D01*
X96823045Y69742629D01*
X96907490Y69705736D01*
X96997493Y69685948D01*
X97089625Y69684018D01*
X97180377Y69700020D01*
X97266293Y69733344D01*
X97344099Y69782722D01*
X97410833Y69846272D01*
X97463953Y69921573D01*
X97501435Y70005759D01*
X97521851Y70095621D01*
X97523321Y70200876D01*
X97505421Y70291273D01*
X97470305Y70376472D01*
X97419309Y70453228D01*
X97354375Y70518616D01*
X97277977Y70570147D01*
X97193026Y70605858D01*
X97102756Y70624387D01*
X97010606Y70625031D01*
X96920086Y70607763D01*
X96834644Y70573242D01*
X96757534Y70522783D01*
X96691694Y70458308D01*
X96639631Y70382272D01*
X96603328Y70297571D01*
X96584169Y70207433D01*
X96582882Y70115289D01*
X36166748Y70115289D01*
X36185835Y70158159D01*
X36206251Y70248021D01*
X36207721Y70353276D01*
X36189821Y70443673D01*
X36154705Y70528872D01*
X36103709Y70605628D01*
X36038775Y70671016D01*
X35996562Y70699489D01*
X90436082Y70699489D01*
X90452717Y70608851D01*
X90486641Y70523170D01*
X90536560Y70445710D01*
X90600575Y70379421D01*
X90676245Y70326829D01*
X90760690Y70289936D01*
X90850693Y70270148D01*
X90942825Y70268218D01*
X91033577Y70284220D01*
X91119493Y70317544D01*
X91197299Y70366922D01*
X91264033Y70430472D01*
X91317153Y70505773D01*
X91354635Y70589959D01*
X91375051Y70679821D01*
X91376521Y70785076D01*
X91358621Y70875473D01*
X91323505Y70960672D01*
X91272509Y71037428D01*
X91207575Y71102816D01*
X91131177Y71154347D01*
X91046226Y71190058D01*
X90955956Y71208587D01*
X90863806Y71209231D01*
X90773286Y71191963D01*
X90687844Y71157442D01*
X90610734Y71106983D01*
X90544894Y71042508D01*
X90492831Y70966472D01*
X90456528Y70881771D01*
X90437369Y70791633D01*
X90436082Y70699489D01*
X35996562Y70699489D01*
X35962377Y70722547D01*
X35877426Y70758258D01*
X35787156Y70776787D01*
X35695006Y70777431D01*
X35604486Y70760163D01*
X35519044Y70725642D01*
X35441934Y70675183D01*
X35376094Y70610708D01*
X35324031Y70534672D01*
X35287728Y70449971D01*
X35268569Y70359833D01*
X35267282Y70267689D01*
X419100Y70267689D01*
X419100Y71309089D01*
X91680682Y71309089D01*
X91697317Y71218451D01*
X91731241Y71132770D01*
X91781160Y71055310D01*
X91845175Y70989021D01*
X91920845Y70936429D01*
X92005290Y70899536D01*
X92095293Y70879748D01*
X92187425Y70877818D01*
X92278177Y70893820D01*
X92364093Y70927144D01*
X92441899Y70976522D01*
X92508633Y71040072D01*
X92561753Y71115373D01*
X92599235Y71199559D01*
X92619651Y71289421D01*
X92621121Y71394676D01*
X92603221Y71485073D01*
X92568105Y71570272D01*
X92556388Y71587908D01*
X113207352Y71587908D01*
X113393556Y71376983D01*
X113721425Y71233874D01*
X114070913Y71157479D01*
X114428591Y71150733D01*
X114780711Y71213897D01*
X115113743Y71344542D01*
X115174440Y71376983D01*
X115360644Y71587908D01*
X114283998Y72664553D01*
X113207352Y71587908D01*
X92556388Y71587908D01*
X92517109Y71647028D01*
X92452175Y71712416D01*
X92375777Y71763947D01*
X92290826Y71799658D01*
X92200556Y71818187D01*
X92108406Y71818831D01*
X92017886Y71801563D01*
X91932444Y71767042D01*
X91855334Y71716583D01*
X91789494Y71652108D01*
X91737431Y71576072D01*
X91701128Y71491371D01*
X91681969Y71401233D01*
X91680682Y71309089D01*
X419100Y71309089D01*
X419100Y71893289D01*
X74967482Y71893289D01*
X74984117Y71802651D01*
X75018041Y71716970D01*
X75067960Y71639510D01*
X75131975Y71573221D01*
X75207645Y71520629D01*
X75292090Y71483736D01*
X75382093Y71463948D01*
X75474225Y71462018D01*
X75564977Y71478020D01*
X75650893Y71511344D01*
X75728699Y71560722D01*
X75795433Y71624272D01*
X75848553Y71699573D01*
X75886035Y71783759D01*
X75906451Y71873621D01*
X75907921Y71978876D01*
X75890021Y72069273D01*
X75854905Y72154472D01*
X75803909Y72231228D01*
X75738975Y72296616D01*
X75662577Y72348147D01*
X75577626Y72383858D01*
X75487356Y72402387D01*
X75395206Y72403031D01*
X75304686Y72385763D01*
X75219244Y72351242D01*
X75142134Y72300783D01*
X75076294Y72236308D01*
X75024231Y72160272D01*
X74987928Y72075571D01*
X74968769Y71985433D01*
X74967482Y71893289D01*
X419100Y71893289D01*
X419100Y72477489D01*
X18833482Y72477489D01*
X18850117Y72386851D01*
X18884041Y72301170D01*
X18933960Y72223710D01*
X18997975Y72157421D01*
X19073645Y72104829D01*
X19158090Y72067936D01*
X19248093Y72048148D01*
X19340225Y72046218D01*
X19430977Y72062220D01*
X19516893Y72095544D01*
X19594699Y72144922D01*
X19661433Y72208472D01*
X19714553Y72283773D01*
X19752035Y72367959D01*
X19772451Y72457821D01*
X19773921Y72563076D01*
X19756021Y72653473D01*
X19720905Y72738672D01*
X19669909Y72815428D01*
X19604975Y72880816D01*
X19528577Y72932347D01*
X19462584Y72960089D01*
X74891282Y72960089D01*
X74907917Y72869451D01*
X74941841Y72783770D01*
X74991760Y72706310D01*
X75055775Y72640021D01*
X75131445Y72587429D01*
X75215890Y72550536D01*
X75305893Y72530748D01*
X75398025Y72528818D01*
X75488777Y72544820D01*
X75574693Y72578144D01*
X75652499Y72627522D01*
X75719233Y72691072D01*
X75772353Y72766373D01*
X75798584Y72825289D01*
X112464849Y72825289D01*
X112528013Y72473169D01*
X112658658Y72140137D01*
X112691099Y72079440D01*
X112902024Y71893236D01*
X113978669Y72969882D01*
X114589327Y72969882D01*
X115665972Y71893236D01*
X115876897Y72079440D01*
X116020006Y72407309D01*
X116096401Y72756797D01*
X116103147Y73114475D01*
X116039983Y73466595D01*
X115909338Y73799627D01*
X115876897Y73860324D01*
X115665972Y74046528D01*
X114589327Y72969882D01*
X113978669Y72969882D01*
X112902024Y74046528D01*
X112691099Y73860324D01*
X112547990Y73532455D01*
X112471595Y73182967D01*
X112464849Y72825289D01*
X75798584Y72825289D01*
X75809835Y72850559D01*
X75830251Y72940421D01*
X75831721Y73045676D01*
X75813821Y73136073D01*
X75778705Y73221272D01*
X75727709Y73298028D01*
X75662775Y73363416D01*
X75586377Y73414947D01*
X75501426Y73450658D01*
X75411156Y73469187D01*
X75319006Y73469831D01*
X75228486Y73452563D01*
X75143044Y73418042D01*
X75065934Y73367583D01*
X75000094Y73303108D01*
X74948031Y73227072D01*
X74911728Y73142371D01*
X74892569Y73052233D01*
X74891282Y72960089D01*
X19462584Y72960089D01*
X19443626Y72968058D01*
X19353356Y72986587D01*
X19261206Y72987231D01*
X19170686Y72969963D01*
X19085244Y72935442D01*
X19008134Y72884983D01*
X18942294Y72820508D01*
X18890231Y72744472D01*
X18853928Y72659771D01*
X18834769Y72569633D01*
X18833482Y72477489D01*
X419100Y72477489D01*
X419100Y74351856D01*
X113207352Y74351856D01*
X114283998Y73275211D01*
X115360644Y74351856D01*
X115174440Y74562781D01*
X114846571Y74705890D01*
X114497083Y74782285D01*
X114139405Y74789031D01*
X113787285Y74725867D01*
X113454253Y74595222D01*
X113393556Y74562781D01*
X113207352Y74351856D01*
X419100Y74351856D01*
X419100Y77306619D01*
X105338358Y77306619D01*
X105407147Y76931818D01*
X105547425Y76577515D01*
X105753849Y76257208D01*
X106018557Y75983095D01*
X106331465Y75765618D01*
X106680656Y75613060D01*
X107052828Y75531233D01*
X107433806Y75523253D01*
X107809078Y75589423D01*
X108164351Y75727224D01*
X108486092Y75931407D01*
X108746100Y76179010D01*
X112298339Y76179010D01*
X112469139Y75981129D01*
X112775261Y75850766D01*
X113100933Y75782630D01*
X113433641Y75779337D01*
X113760598Y75841016D01*
X114069239Y75965297D01*
X114098861Y75981129D01*
X114269661Y76179010D01*
X114023241Y76425430D01*
X115544753Y76425430D01*
X115673748Y76262758D01*
X115920995Y76166901D01*
X116182193Y76121122D01*
X116447302Y76127180D01*
X116706135Y76184842D01*
X116894240Y76262758D01*
X117023235Y76425430D01*
X116283994Y77164671D01*
X115544753Y76425430D01*
X114023241Y76425430D01*
X113284000Y77164671D01*
X112298339Y76179010D01*
X108746100Y76179010D01*
X108762046Y76194195D01*
X108981703Y76505578D01*
X109136694Y76853695D01*
X109221118Y77225287D01*
X109222445Y77320359D01*
X111593337Y77320359D01*
X111655016Y76993402D01*
X111779297Y76684761D01*
X111795129Y76655139D01*
X111993010Y76484339D01*
X112978671Y77470000D01*
X113589329Y77470000D01*
X114574990Y76484339D01*
X114772871Y76655139D01*
X114903234Y76961261D01*
X114958878Y77227223D01*
X114998836Y77047859D01*
X115076752Y76859754D01*
X115239424Y76730759D01*
X115978665Y77470000D01*
X115239424Y78209241D01*
X115076752Y78080246D01*
X114980895Y77832999D01*
X114958509Y77705273D01*
X114912984Y77946598D01*
X114788703Y78255239D01*
X114772871Y78284861D01*
X114574990Y78455661D01*
X113589329Y77470000D01*
X112978671Y77470000D01*
X111993010Y78455661D01*
X111795129Y78284861D01*
X111664766Y77978739D01*
X111596630Y77653067D01*
X111593337Y77320359D01*
X109222445Y77320359D01*
X109227195Y77660531D01*
X109153180Y78034335D01*
X109007969Y78386644D01*
X108797093Y78704038D01*
X108740538Y78760990D01*
X112298339Y78760990D01*
X113284000Y77775329D01*
X114023241Y78514570D01*
X115544753Y78514570D01*
X116283994Y77775329D01*
X117023235Y78514570D01*
X116894240Y78677242D01*
X116646993Y78773099D01*
X116385795Y78818878D01*
X116120686Y78812820D01*
X115861853Y78755158D01*
X115673748Y78677242D01*
X115544753Y78514570D01*
X114023241Y78514570D01*
X114269661Y78760990D01*
X114098861Y78958871D01*
X113792739Y79089234D01*
X113467067Y79157370D01*
X113134359Y79160663D01*
X112807402Y79098984D01*
X112498761Y78974703D01*
X112469139Y78958871D01*
X112298339Y78760990D01*
X108740538Y78760990D01*
X108528584Y78974429D01*
X108212669Y79187516D01*
X107861383Y79335183D01*
X107488104Y79411806D01*
X107107052Y79414466D01*
X106732740Y79343062D01*
X106379426Y79200314D01*
X106060567Y78991659D01*
X105788309Y78725044D01*
X105573021Y78410625D01*
X105422905Y78060378D01*
X105343678Y77687643D01*
X105338358Y77306619D01*
X419100Y77306619D01*
X419100Y80588144D01*
X113207352Y80588144D01*
X113393556Y80377219D01*
X113721425Y80234110D01*
X114070913Y80157715D01*
X114428591Y80150969D01*
X114780711Y80214133D01*
X115113743Y80344778D01*
X115174440Y80377219D01*
X115360644Y80588144D01*
X114283998Y81664789D01*
X113207352Y80588144D01*
X419100Y80588144D01*
X419100Y81825525D01*
X112464849Y81825525D01*
X112528013Y81473405D01*
X112658658Y81140373D01*
X112691099Y81079676D01*
X112902024Y80893472D01*
X113978669Y81970118D01*
X114589327Y81970118D01*
X115665972Y80893472D01*
X115876897Y81079676D01*
X116020006Y81407545D01*
X116096401Y81757033D01*
X116103147Y82114711D01*
X116039983Y82466831D01*
X115909338Y82799863D01*
X115876897Y82860560D01*
X115665972Y83046764D01*
X114589327Y81970118D01*
X113978669Y81970118D01*
X112902024Y83046764D01*
X112691099Y82860560D01*
X112547990Y82532691D01*
X112471595Y82183203D01*
X112464849Y81825525D01*
X419100Y81825525D01*
X419100Y83352092D01*
X113207352Y83352092D01*
X114283998Y82275447D01*
X115360644Y83352092D01*
X115174440Y83563017D01*
X114846571Y83706126D01*
X114497083Y83782521D01*
X114139405Y83789267D01*
X113787285Y83726103D01*
X113454253Y83595458D01*
X113393556Y83563017D01*
X113207352Y83352092D01*
X419100Y83352092D01*
X419100Y98640900D01*
X117436900Y98640900D01*
X117436900Y78123333D01*
D25*
G36*
X104718367Y35214545D02*
X104484930Y34589820D01*
X104508335Y33923318D01*
X104718367Y33416255D01*
X104989517Y33312522D01*
X105992395Y34315400D01*
X105978253Y34329542D01*
X106157858Y34509147D01*
X106172000Y34495005D01*
X106186143Y34509147D01*
X106365748Y34329542D01*
X106351605Y34315400D01*
X107354483Y33312522D01*
X107625633Y33416255D01*
X107859070Y34040980D01*
X107835665Y34707482D01*
X107625633Y35214545D01*
X107386577Y35306000D01*
X117348000Y35306000D01*
X117348000Y15748000D01*
X107386577Y15748000D01*
X107625633Y15839455D01*
X107859070Y16464180D01*
X107835665Y17130682D01*
X107625633Y17637745D01*
X107354483Y17741478D01*
X106351605Y16738600D01*
X106365748Y16724457D01*
X106186143Y16544852D01*
X106172000Y16558995D01*
X106157858Y16544852D01*
X105978253Y16724457D01*
X105992395Y16738600D01*
X104989517Y17741478D01*
X104718367Y17637745D01*
X104484930Y17013020D01*
X104508335Y16346518D01*
X104718367Y15839455D01*
X104957423Y15748000D01*
X101981000Y15748000D01*
X101981000Y17921083D01*
X105169122Y17921083D01*
X106172000Y16918205D01*
X107010885Y17757090D01*
X108711780Y17757090D01*
X108904718Y17290142D01*
X109261663Y16932574D01*
X109728273Y16738821D01*
X110233510Y16738380D01*
X110700458Y16931318D01*
X111058026Y17288263D01*
X111251779Y17754873D01*
X111251781Y17757088D01*
X111444718Y17290142D01*
X111801663Y16932574D01*
X112268273Y16738821D01*
X112773510Y16738380D01*
X113240458Y16931318D01*
X113598026Y17288263D01*
X113791779Y17754873D01*
X113791781Y17757088D01*
X113984718Y17290142D01*
X114341663Y16932574D01*
X114808273Y16738821D01*
X115313510Y16738380D01*
X115780458Y16931318D01*
X116138026Y17288263D01*
X116331779Y17754873D01*
X116332220Y18260110D01*
X116139282Y18727058D01*
X115782337Y19084626D01*
X115315727Y19278379D01*
X114810490Y19278820D01*
X114343542Y19085882D01*
X113985974Y18728937D01*
X113792221Y18262327D01*
X113792219Y18260112D01*
X113599282Y18727058D01*
X113242337Y19084626D01*
X112775727Y19278379D01*
X112270490Y19278820D01*
X111803542Y19085882D01*
X111445974Y18728937D01*
X111252221Y18262327D01*
X111252219Y18260112D01*
X111059282Y18727058D01*
X110702337Y19084626D01*
X110235727Y19278379D01*
X109730490Y19278820D01*
X109263542Y19085882D01*
X108905974Y18728937D01*
X108712221Y18262327D01*
X108711780Y17757090D01*
X107010885Y17757090D01*
X107174878Y17921083D01*
X107071145Y18192233D01*
X106446420Y18425670D01*
X105779918Y18402265D01*
X105272855Y18192233D01*
X105169122Y17921083D01*
X101981000Y17921083D01*
X101981000Y20253312D01*
X103911008Y20253312D01*
X104254439Y19422146D01*
X104889801Y18785674D01*
X105720366Y18440793D01*
X106619688Y18440008D01*
X107450854Y18783439D01*
X108087326Y19418801D01*
X108432207Y20249366D01*
X108432992Y21148688D01*
X108089561Y21979854D01*
X107454199Y22616326D01*
X106623634Y22961207D01*
X105724312Y22961992D01*
X104893146Y22618561D01*
X104256674Y21983199D01*
X103911793Y21152634D01*
X103911008Y20253312D01*
X101981000Y20253312D01*
X101981000Y29905312D01*
X103911008Y29905312D01*
X104254439Y29074146D01*
X104889801Y28437674D01*
X105720366Y28092793D01*
X106619688Y28092008D01*
X107450854Y28435439D01*
X108087326Y29070801D01*
X108432207Y29901366D01*
X108432992Y30800688D01*
X108089561Y31631854D01*
X107454199Y32268326D01*
X106623634Y32613207D01*
X105724312Y32613992D01*
X104893146Y32270561D01*
X104256674Y31635199D01*
X103911793Y30804634D01*
X103911008Y29905312D01*
X101981000Y29905312D01*
X101981000Y33132917D01*
X105169122Y33132917D01*
X105272855Y32861767D01*
X105897580Y32628330D01*
X106564082Y32651735D01*
X106907275Y32793890D01*
X111251780Y32793890D01*
X111444718Y32326942D01*
X111801663Y31969374D01*
X112268273Y31775621D01*
X112773510Y31775180D01*
X113240458Y31968118D01*
X113598026Y32325063D01*
X113791779Y32791673D01*
X113791781Y32793888D01*
X113984718Y32326942D01*
X114341663Y31969374D01*
X114808273Y31775621D01*
X115313510Y31775180D01*
X115780458Y31968118D01*
X116138026Y32325063D01*
X116331779Y32791673D01*
X116332220Y33296910D01*
X116139282Y33763858D01*
X115782337Y34121426D01*
X115315727Y34315179D01*
X114810490Y34315620D01*
X114343542Y34122682D01*
X113985974Y33765737D01*
X113792221Y33299127D01*
X113792219Y33296912D01*
X113599282Y33763858D01*
X113242337Y34121426D01*
X112775727Y34315179D01*
X112270490Y34315620D01*
X111803542Y34122682D01*
X111445974Y33765737D01*
X111252221Y33299127D01*
X111251780Y32793890D01*
X106907275Y32793890D01*
X107071145Y32861767D01*
X107174878Y33132917D01*
X106172000Y34135795D01*
X105169122Y33132917D01*
X101981000Y33132917D01*
X101981000Y35306000D01*
X104957423Y35306000D01*
X104718367Y35214545D01*
X104718367Y35214545D01*
G37*
X104718367Y35214545D02*
X104484930Y34589820D01*
X104508335Y33923318D01*
X104718367Y33416255D01*
X104989517Y33312522D01*
X105992395Y34315400D01*
X105978253Y34329542D01*
X106157858Y34509147D01*
X106172000Y34495005D01*
X106186143Y34509147D01*
X106365748Y34329542D01*
X106351605Y34315400D01*
X107354483Y33312522D01*
X107625633Y33416255D01*
X107859070Y34040980D01*
X107835665Y34707482D01*
X107625633Y35214545D01*
X107386577Y35306000D01*
X117348000Y35306000D01*
X117348000Y15748000D01*
X107386577Y15748000D01*
X107625633Y15839455D01*
X107859070Y16464180D01*
X107835665Y17130682D01*
X107625633Y17637745D01*
X107354483Y17741478D01*
X106351605Y16738600D01*
X106365748Y16724457D01*
X106186143Y16544852D01*
X106172000Y16558995D01*
X106157858Y16544852D01*
X105978253Y16724457D01*
X105992395Y16738600D01*
X104989517Y17741478D01*
X104718367Y17637745D01*
X104484930Y17013020D01*
X104508335Y16346518D01*
X104718367Y15839455D01*
X104957423Y15748000D01*
X101981000Y15748000D01*
X101981000Y17921083D01*
X105169122Y17921083D01*
X106172000Y16918205D01*
X107010885Y17757090D01*
X108711780Y17757090D01*
X108904718Y17290142D01*
X109261663Y16932574D01*
X109728273Y16738821D01*
X110233510Y16738380D01*
X110700458Y16931318D01*
X111058026Y17288263D01*
X111251779Y17754873D01*
X111251781Y17757088D01*
X111444718Y17290142D01*
X111801663Y16932574D01*
X112268273Y16738821D01*
X112773510Y16738380D01*
X113240458Y16931318D01*
X113598026Y17288263D01*
X113791779Y17754873D01*
X113791781Y17757088D01*
X113984718Y17290142D01*
X114341663Y16932574D01*
X114808273Y16738821D01*
X115313510Y16738380D01*
X115780458Y16931318D01*
X116138026Y17288263D01*
X116331779Y17754873D01*
X116332220Y18260110D01*
X116139282Y18727058D01*
X115782337Y19084626D01*
X115315727Y19278379D01*
X114810490Y19278820D01*
X114343542Y19085882D01*
X113985974Y18728937D01*
X113792221Y18262327D01*
X113792219Y18260112D01*
X113599282Y18727058D01*
X113242337Y19084626D01*
X112775727Y19278379D01*
X112270490Y19278820D01*
X111803542Y19085882D01*
X111445974Y18728937D01*
X111252221Y18262327D01*
X111252219Y18260112D01*
X111059282Y18727058D01*
X110702337Y19084626D01*
X110235727Y19278379D01*
X109730490Y19278820D01*
X109263542Y19085882D01*
X108905974Y18728937D01*
X108712221Y18262327D01*
X108711780Y17757090D01*
X107010885Y17757090D01*
X107174878Y17921083D01*
X107071145Y18192233D01*
X106446420Y18425670D01*
X105779918Y18402265D01*
X105272855Y18192233D01*
X105169122Y17921083D01*
X101981000Y17921083D01*
X101981000Y20253312D01*
X103911008Y20253312D01*
X104254439Y19422146D01*
X104889801Y18785674D01*
X105720366Y18440793D01*
X106619688Y18440008D01*
X107450854Y18783439D01*
X108087326Y19418801D01*
X108432207Y20249366D01*
X108432992Y21148688D01*
X108089561Y21979854D01*
X107454199Y22616326D01*
X106623634Y22961207D01*
X105724312Y22961992D01*
X104893146Y22618561D01*
X104256674Y21983199D01*
X103911793Y21152634D01*
X103911008Y20253312D01*
X101981000Y20253312D01*
X101981000Y29905312D01*
X103911008Y29905312D01*
X104254439Y29074146D01*
X104889801Y28437674D01*
X105720366Y28092793D01*
X106619688Y28092008D01*
X107450854Y28435439D01*
X108087326Y29070801D01*
X108432207Y29901366D01*
X108432992Y30800688D01*
X108089561Y31631854D01*
X107454199Y32268326D01*
X106623634Y32613207D01*
X105724312Y32613992D01*
X104893146Y32270561D01*
X104256674Y31635199D01*
X103911793Y30804634D01*
X103911008Y29905312D01*
X101981000Y29905312D01*
X101981000Y33132917D01*
X105169122Y33132917D01*
X105272855Y32861767D01*
X105897580Y32628330D01*
X106564082Y32651735D01*
X106907275Y32793890D01*
X111251780Y32793890D01*
X111444718Y32326942D01*
X111801663Y31969374D01*
X112268273Y31775621D01*
X112773510Y31775180D01*
X113240458Y31968118D01*
X113598026Y32325063D01*
X113791779Y32791673D01*
X113791781Y32793888D01*
X113984718Y32326942D01*
X114341663Y31969374D01*
X114808273Y31775621D01*
X115313510Y31775180D01*
X115780458Y31968118D01*
X116138026Y32325063D01*
X116331779Y32791673D01*
X116332220Y33296910D01*
X116139282Y33763858D01*
X115782337Y34121426D01*
X115315727Y34315179D01*
X114810490Y34315620D01*
X114343542Y34122682D01*
X113985974Y33765737D01*
X113792221Y33299127D01*
X113792219Y33296912D01*
X113599282Y33763858D01*
X113242337Y34121426D01*
X112775727Y34315179D01*
X112270490Y34315620D01*
X111803542Y34122682D01*
X111445974Y33765737D01*
X111252221Y33299127D01*
X111251780Y32793890D01*
X106907275Y32793890D01*
X107071145Y32861767D01*
X107174878Y33132917D01*
X106172000Y34135795D01*
X105169122Y33132917D01*
X101981000Y33132917D01*
X101981000Y35306000D01*
X104957423Y35306000D01*
X104718367Y35214545D01*
M02*
