G04 #@! TF.FileFunction,Soldermask,Bot*
%FSLAX46Y46*%
G04 Gerber Fmt 4.6, Leading zero omitted, Abs format (unit mm)*
G04 Created by KiCad (PCBNEW 4.0.5) date Sat Apr  1 23:31:31 2017*
%MOMM*%
%LPD*%
G01*
G04 APERTURE LIST*
%ADD10C,0.100000*%
%ADD11R,0.558800X0.508000*%
%ADD12R,1.300000X1.500000*%
%ADD13R,0.750000X1.000000*%
%ADD14R,0.508000X0.558800*%
%ADD15C,2.000000*%
%ADD16R,4.826000X3.302000*%
%ADD17C,1.661922*%
%ADD18R,1.661922X1.661922*%
%ADD19C,1.651000*%
%ADD20C,2.032000*%
%ADD21C,2.336800*%
%ADD22C,4.013200*%
%ADD23C,3.302000*%
%ADD24C,2.362200*%
%ADD25C,3.048000*%
%ADD26C,3.556000*%
%ADD27C,1.828800*%
%ADD28C,4.826000*%
G04 APERTURE END LIST*
D10*
D11*
X43103800Y18389600D03*
X44069000Y18389600D03*
X43103800Y19304000D03*
X44069000Y19304000D03*
X41935400Y21698200D03*
X42900600Y21698200D03*
X68459600Y57073800D03*
X69424800Y57073800D03*
D12*
X62276400Y55219600D03*
X64076400Y55219600D03*
D11*
X60502800Y64262000D03*
X61468000Y64262000D03*
X61328810Y51409600D03*
X62294010Y51409600D03*
X56724800Y54559200D03*
X57690000Y54559200D03*
X56724800Y57658000D03*
X57690000Y57658000D03*
X54254400Y64236600D03*
X55219600Y64236600D03*
D12*
X63616000Y64802000D03*
X65416000Y64802000D03*
D11*
X70237600Y56083200D03*
X71202800Y56083200D03*
X54356000Y66167000D03*
X55321200Y66167000D03*
X59029600Y66167000D03*
X59994800Y66167000D03*
X56616600Y66167000D03*
X57581800Y66167000D03*
X65754000Y49631600D03*
X66719200Y49631600D03*
D12*
X68797600Y50342800D03*
X70597600Y50342800D03*
D11*
X58318400Y49657000D03*
X59283600Y49657000D03*
X63601600Y49663600D03*
X64566800Y49663600D03*
X54214520Y59918600D03*
X55179720Y59918600D03*
D12*
X54908120Y50495200D03*
X56708120Y50495200D03*
D11*
X54224680Y62687200D03*
X55189880Y62687200D03*
X54173880Y56159400D03*
X55139080Y56159400D03*
X65735200Y66167000D03*
X66700400Y66167000D03*
D12*
X56432120Y61163200D03*
X58232120Y61163200D03*
D11*
X68046600Y66167000D03*
X69011800Y66167000D03*
X70891400Y65760600D03*
X71856600Y65760600D03*
X70847200Y63042800D03*
X71812400Y63042800D03*
D12*
X68956600Y54660800D03*
X70756600Y54660800D03*
D11*
X70618600Y59563000D03*
X71583800Y59563000D03*
X70796400Y52679600D03*
X71761600Y52679600D03*
X66693800Y24561800D03*
X67659000Y24561800D03*
X63601600Y32054800D03*
X64566800Y32054800D03*
X66014600Y35661600D03*
X66979800Y35661600D03*
X69259200Y38481000D03*
X70224400Y38481000D03*
X67614800Y37312600D03*
X68580000Y37312600D03*
X62966600Y25247600D03*
X63931800Y25247600D03*
D12*
X61126800Y35179000D03*
X62926800Y35179000D03*
D11*
X69392800Y84277200D03*
X70358000Y84277200D03*
X75006200Y84283800D03*
X75971400Y84283800D03*
D12*
X65673400Y21666200D03*
X67473400Y21666200D03*
X76519200Y22733000D03*
X78319200Y22733000D03*
D11*
X75819000Y32461200D03*
X76784200Y32461200D03*
X75692000Y28752800D03*
X76657200Y28752800D03*
X62230000Y22783800D03*
X63195200Y22783800D03*
X69672200Y24866600D03*
X70637400Y24866600D03*
X64236600Y23774400D03*
X65201800Y23774400D03*
D12*
X62030280Y20243800D03*
X63830280Y20243800D03*
X72008920Y22428200D03*
X73808920Y22428200D03*
D11*
X73279000Y35280600D03*
X74244200Y35280600D03*
X73304400Y25146000D03*
X74269600Y25146000D03*
D13*
X76261200Y20076410D03*
X77561200Y20076410D03*
X74178400Y36474400D03*
X75478400Y36474400D03*
D11*
X32149800Y10776200D03*
X33115000Y10776200D03*
X33280600Y10686800D03*
X34245800Y10686800D03*
X41300400Y26746200D03*
X42265600Y26746200D03*
D14*
X30759400Y27381200D03*
X30759400Y26416000D03*
D13*
X28941000Y86995000D03*
X30241000Y86995000D03*
X28941000Y70993000D03*
X30241000Y70993000D03*
X28941000Y54610000D03*
X30241000Y54610000D03*
D15*
X2540000Y6350000D03*
X115316000Y6350000D03*
X2540000Y92710000D03*
D16*
X2540000Y77216000D03*
X2540000Y85725000D03*
X2552700Y61277500D03*
X2552700Y69786500D03*
X2550160Y45275500D03*
X2550160Y53784500D03*
X2540000Y29273500D03*
X2540000Y37782500D03*
X2552700Y13271500D03*
X2552700Y21780500D03*
D17*
X103124000Y48578008D03*
D18*
X101124004Y48578008D03*
D17*
X103124000Y50578004D03*
X101124004Y50578004D03*
X103124000Y52578000D03*
X101124004Y52578000D03*
X103124000Y54577996D03*
X101124004Y54577996D03*
X103124000Y56577992D03*
X101124004Y56577992D03*
X103124000Y58577988D03*
X101124004Y58577988D03*
X103124000Y60577984D03*
X101124004Y60577984D03*
D19*
X99568000Y30632400D03*
X99568000Y28600400D03*
X99568000Y26568400D03*
X99568000Y24536400D03*
X99568000Y22504400D03*
X99568000Y20472400D03*
X97028000Y31648400D03*
X97028000Y29616400D03*
X97028000Y27584400D03*
X97028000Y23520400D03*
X97028000Y21488400D03*
X97028000Y19456400D03*
D20*
X112522000Y33070800D03*
X115062000Y33070800D03*
X109982000Y18034000D03*
X112522000Y18034000D03*
X115062000Y18034000D03*
D21*
X106172000Y34340800D03*
X106172000Y16764000D03*
D22*
X106172000Y30378400D03*
X106172000Y20726400D03*
D23*
X114283998Y81970118D03*
X114283998Y72969882D03*
D24*
X116283994Y77470000D03*
D25*
X113284000Y77470000D03*
D26*
X107284012Y77470000D03*
D27*
X93980000Y45720000D03*
X91440000Y45720000D03*
X93980000Y48260000D03*
X91440000Y48260000D03*
X93980000Y50800000D03*
X91440000Y50800000D03*
X93980000Y53340000D03*
X91440000Y53340000D03*
X93980000Y55880000D03*
X91440000Y55880000D03*
X93980000Y58420000D03*
X91440000Y58420000D03*
X93980000Y60960000D03*
X91440000Y60960000D03*
X93980000Y63500000D03*
X91440000Y63500000D03*
D28*
X8255000Y90805000D03*
X109601000Y90805000D03*
X8255000Y8255000D03*
X109601000Y8255000D03*
D13*
X65288400Y36957000D03*
X66588400Y36957000D03*
X65354190Y19989800D03*
X66654190Y19989800D03*
D11*
X55372000Y25196800D03*
X56337200Y25196800D03*
X56362600Y25222200D03*
X57327800Y25222200D03*
X61334400Y28219400D03*
X62299600Y28219400D03*
X58769000Y28270200D03*
X59734200Y28270200D03*
X61309000Y30124400D03*
X62274200Y30124400D03*
X61359800Y31038800D03*
X62325000Y31038800D03*
X61359800Y31953200D03*
X62325000Y31953200D03*
X61334400Y32994600D03*
X62299600Y32994600D03*
X58743600Y30200600D03*
X59708800Y30200600D03*
X58718200Y31191200D03*
X59683400Y31191200D03*
X58718200Y32080200D03*
X59683400Y32080200D03*
X58750200Y33045400D03*
X59715400Y33045400D03*
X61334400Y29184600D03*
X62299600Y29184600D03*
X58743600Y29260800D03*
X59708800Y29260800D03*
M02*
