G04 #@! TF.FileFunction,Other,Fab,Bot*
%FSLAX46Y46*%
G04 Gerber Fmt 4.6, Leading zero omitted, Abs format (unit mm)*
G04 Created by KiCad (PCBNEW 4.0.5) date Sat Apr  1 23:31:31 2017*
%MOMM*%
%LPD*%
G01*
G04 APERTURE LIST*
%ADD10C,0.100000*%
%ADD11C,0.150000*%
G04 APERTURE END LIST*
D10*
D11*
X44102590Y17032219D02*
X44197829Y17032219D01*
X44293067Y16984600D01*
X44340686Y16936981D01*
X44388305Y16841743D01*
X44435924Y16651267D01*
X44435924Y16413171D01*
X44388305Y16222695D01*
X44340686Y16127457D01*
X44293067Y16079838D01*
X44197829Y16032219D01*
X44102590Y16032219D01*
X44007352Y16079838D01*
X43959733Y16127457D01*
X43912114Y16222695D01*
X43864495Y16413171D01*
X43864495Y16651267D01*
X43912114Y16841743D01*
X43959733Y16936981D01*
X44007352Y16984600D01*
X44102590Y17032219D01*
X44864495Y16127457D02*
X44912114Y16079838D01*
X44864495Y16032219D01*
X44816876Y16079838D01*
X44864495Y16127457D01*
X44864495Y16032219D01*
X45864495Y16032219D02*
X45293066Y16032219D01*
X45578780Y16032219D02*
X45578780Y17032219D01*
X45483542Y16889362D01*
X45388304Y16794124D01*
X45293066Y16746505D01*
X47483543Y16698886D02*
X47483543Y16032219D01*
X47054971Y16698886D02*
X47054971Y16175076D01*
X47102590Y16079838D01*
X47197828Y16032219D01*
X47340686Y16032219D01*
X47435924Y16079838D01*
X47483543Y16127457D01*
X48293067Y16556029D02*
X47959733Y16556029D01*
X47959733Y16032219D02*
X47959733Y17032219D01*
X48435924Y17032219D01*
X44102590Y17946619D02*
X44197829Y17946619D01*
X44293067Y17899000D01*
X44340686Y17851381D01*
X44388305Y17756143D01*
X44435924Y17565667D01*
X44435924Y17327571D01*
X44388305Y17137095D01*
X44340686Y17041857D01*
X44293067Y16994238D01*
X44197829Y16946619D01*
X44102590Y16946619D01*
X44007352Y16994238D01*
X43959733Y17041857D01*
X43912114Y17137095D01*
X43864495Y17327571D01*
X43864495Y17565667D01*
X43912114Y17756143D01*
X43959733Y17851381D01*
X44007352Y17899000D01*
X44102590Y17946619D01*
X44864495Y17041857D02*
X44912114Y16994238D01*
X44864495Y16946619D01*
X44816876Y16994238D01*
X44864495Y17041857D01*
X44864495Y16946619D01*
X45864495Y16946619D02*
X45293066Y16946619D01*
X45578780Y16946619D02*
X45578780Y17946619D01*
X45483542Y17803762D01*
X45388304Y17708524D01*
X45293066Y17660905D01*
X47483543Y17613286D02*
X47483543Y16946619D01*
X47054971Y17613286D02*
X47054971Y17089476D01*
X47102590Y16994238D01*
X47197828Y16946619D01*
X47340686Y16946619D01*
X47435924Y16994238D01*
X47483543Y17041857D01*
X48293067Y17470429D02*
X47959733Y17470429D01*
X47959733Y16946619D02*
X47959733Y17946619D01*
X48435924Y17946619D01*
X42934190Y20340819D02*
X43029429Y20340819D01*
X43124667Y20293200D01*
X43172286Y20245581D01*
X43219905Y20150343D01*
X43267524Y19959867D01*
X43267524Y19721771D01*
X43219905Y19531295D01*
X43172286Y19436057D01*
X43124667Y19388438D01*
X43029429Y19340819D01*
X42934190Y19340819D01*
X42838952Y19388438D01*
X42791333Y19436057D01*
X42743714Y19531295D01*
X42696095Y19721771D01*
X42696095Y19959867D01*
X42743714Y20150343D01*
X42791333Y20245581D01*
X42838952Y20293200D01*
X42934190Y20340819D01*
X43696095Y19436057D02*
X43743714Y19388438D01*
X43696095Y19340819D01*
X43648476Y19388438D01*
X43696095Y19436057D01*
X43696095Y19340819D01*
X44696095Y19340819D02*
X44124666Y19340819D01*
X44410380Y19340819D02*
X44410380Y20340819D01*
X44315142Y20197962D01*
X44219904Y20102724D01*
X44124666Y20055105D01*
X46315143Y20007486D02*
X46315143Y19340819D01*
X45886571Y20007486D02*
X45886571Y19483676D01*
X45934190Y19388438D01*
X46029428Y19340819D01*
X46172286Y19340819D01*
X46267524Y19388438D01*
X46315143Y19436057D01*
X47124667Y19864629D02*
X46791333Y19864629D01*
X46791333Y19340819D02*
X46791333Y20340819D01*
X47267524Y20340819D01*
X69458390Y55716419D02*
X69553629Y55716419D01*
X69648867Y55668800D01*
X69696486Y55621181D01*
X69744105Y55525943D01*
X69791724Y55335467D01*
X69791724Y55097371D01*
X69744105Y54906895D01*
X69696486Y54811657D01*
X69648867Y54764038D01*
X69553629Y54716419D01*
X69458390Y54716419D01*
X69363152Y54764038D01*
X69315533Y54811657D01*
X69267914Y54906895D01*
X69220295Y55097371D01*
X69220295Y55335467D01*
X69267914Y55525943D01*
X69315533Y55621181D01*
X69363152Y55668800D01*
X69458390Y55716419D01*
X70220295Y54811657D02*
X70267914Y54764038D01*
X70220295Y54716419D01*
X70172676Y54764038D01*
X70220295Y54811657D01*
X70220295Y54716419D01*
X71220295Y54716419D02*
X70648866Y54716419D01*
X70934580Y54716419D02*
X70934580Y55716419D01*
X70839342Y55573562D01*
X70744104Y55478324D01*
X70648866Y55430705D01*
X72839343Y55383086D02*
X72839343Y54716419D01*
X72410771Y55383086D02*
X72410771Y54859276D01*
X72458390Y54764038D01*
X72553628Y54716419D01*
X72696486Y54716419D01*
X72791724Y54764038D01*
X72839343Y54811657D01*
X73648867Y55240229D02*
X73315533Y55240229D01*
X73315533Y54716419D02*
X73315533Y55716419D01*
X73791724Y55716419D01*
X63552819Y52582819D02*
X62981390Y52582819D01*
X63267104Y52582819D02*
X63267104Y53582819D01*
X63171866Y53439962D01*
X63076628Y53344724D01*
X62981390Y53297105D01*
X64171866Y53582819D02*
X64267105Y53582819D01*
X64362343Y53535200D01*
X64409962Y53487581D01*
X64457581Y53392343D01*
X64505200Y53201867D01*
X64505200Y52963771D01*
X64457581Y52773295D01*
X64409962Y52678057D01*
X64362343Y52630438D01*
X64267105Y52582819D01*
X64171866Y52582819D01*
X64076628Y52630438D01*
X64029009Y52678057D01*
X63981390Y52773295D01*
X63933771Y52963771D01*
X63933771Y53201867D01*
X63981390Y53392343D01*
X64029009Y53487581D01*
X64076628Y53535200D01*
X64171866Y53582819D01*
X66124248Y53249486D02*
X66124248Y52582819D01*
X65695676Y53249486D02*
X65695676Y52725676D01*
X65743295Y52630438D01*
X65838533Y52582819D01*
X65981391Y52582819D01*
X66076629Y52630438D01*
X66124248Y52678057D01*
X66933772Y53106629D02*
X66600438Y53106629D01*
X66600438Y52582819D02*
X66600438Y53582819D01*
X67076629Y53582819D01*
X61501590Y62904619D02*
X61596829Y62904619D01*
X61692067Y62857000D01*
X61739686Y62809381D01*
X61787305Y62714143D01*
X61834924Y62523667D01*
X61834924Y62285571D01*
X61787305Y62095095D01*
X61739686Y61999857D01*
X61692067Y61952238D01*
X61596829Y61904619D01*
X61501590Y61904619D01*
X61406352Y61952238D01*
X61358733Y61999857D01*
X61311114Y62095095D01*
X61263495Y62285571D01*
X61263495Y62523667D01*
X61311114Y62714143D01*
X61358733Y62809381D01*
X61406352Y62857000D01*
X61501590Y62904619D01*
X62263495Y61999857D02*
X62311114Y61952238D01*
X62263495Y61904619D01*
X62215876Y61952238D01*
X62263495Y61999857D01*
X62263495Y61904619D01*
X63263495Y61904619D02*
X62692066Y61904619D01*
X62977780Y61904619D02*
X62977780Y62904619D01*
X62882542Y62761762D01*
X62787304Y62666524D01*
X62692066Y62618905D01*
X64882543Y62571286D02*
X64882543Y61904619D01*
X64453971Y62571286D02*
X64453971Y62047476D01*
X64501590Y61952238D01*
X64596828Y61904619D01*
X64739686Y61904619D01*
X64834924Y61952238D01*
X64882543Y61999857D01*
X65692067Y62428429D02*
X65358733Y62428429D01*
X65358733Y61904619D02*
X65358733Y62904619D01*
X65834924Y62904619D01*
X62327600Y50052219D02*
X62422839Y50052219D01*
X62518077Y50004600D01*
X62565696Y49956981D01*
X62613315Y49861743D01*
X62660934Y49671267D01*
X62660934Y49433171D01*
X62613315Y49242695D01*
X62565696Y49147457D01*
X62518077Y49099838D01*
X62422839Y49052219D01*
X62327600Y49052219D01*
X62232362Y49099838D01*
X62184743Y49147457D01*
X62137124Y49242695D01*
X62089505Y49433171D01*
X62089505Y49671267D01*
X62137124Y49861743D01*
X62184743Y49956981D01*
X62232362Y50004600D01*
X62327600Y50052219D01*
X63089505Y49147457D02*
X63137124Y49099838D01*
X63089505Y49052219D01*
X63041886Y49099838D01*
X63089505Y49147457D01*
X63089505Y49052219D01*
X64089505Y49052219D02*
X63518076Y49052219D01*
X63803790Y49052219D02*
X63803790Y50052219D01*
X63708552Y49909362D01*
X63613314Y49814124D01*
X63518076Y49766505D01*
X65708553Y49718886D02*
X65708553Y49052219D01*
X65279981Y49718886D02*
X65279981Y49195076D01*
X65327600Y49099838D01*
X65422838Y49052219D01*
X65565696Y49052219D01*
X65660934Y49099838D01*
X65708553Y49147457D01*
X66518077Y49576029D02*
X66184743Y49576029D01*
X66184743Y49052219D02*
X66184743Y50052219D01*
X66660934Y50052219D01*
X57723590Y53201819D02*
X57818829Y53201819D01*
X57914067Y53154200D01*
X57961686Y53106581D01*
X58009305Y53011343D01*
X58056924Y52820867D01*
X58056924Y52582771D01*
X58009305Y52392295D01*
X57961686Y52297057D01*
X57914067Y52249438D01*
X57818829Y52201819D01*
X57723590Y52201819D01*
X57628352Y52249438D01*
X57580733Y52297057D01*
X57533114Y52392295D01*
X57485495Y52582771D01*
X57485495Y52820867D01*
X57533114Y53011343D01*
X57580733Y53106581D01*
X57628352Y53154200D01*
X57723590Y53201819D01*
X58485495Y52297057D02*
X58533114Y52249438D01*
X58485495Y52201819D01*
X58437876Y52249438D01*
X58485495Y52297057D01*
X58485495Y52201819D01*
X59485495Y52201819D02*
X58914066Y52201819D01*
X59199780Y52201819D02*
X59199780Y53201819D01*
X59104542Y53058962D01*
X59009304Y52963724D01*
X58914066Y52916105D01*
X61104543Y52868486D02*
X61104543Y52201819D01*
X60675971Y52868486D02*
X60675971Y52344676D01*
X60723590Y52249438D01*
X60818828Y52201819D01*
X60961686Y52201819D01*
X61056924Y52249438D01*
X61104543Y52297057D01*
X61914067Y52725629D02*
X61580733Y52725629D01*
X61580733Y52201819D02*
X61580733Y53201819D01*
X62056924Y53201819D01*
X57723590Y56300619D02*
X57818829Y56300619D01*
X57914067Y56253000D01*
X57961686Y56205381D01*
X58009305Y56110143D01*
X58056924Y55919667D01*
X58056924Y55681571D01*
X58009305Y55491095D01*
X57961686Y55395857D01*
X57914067Y55348238D01*
X57818829Y55300619D01*
X57723590Y55300619D01*
X57628352Y55348238D01*
X57580733Y55395857D01*
X57533114Y55491095D01*
X57485495Y55681571D01*
X57485495Y55919667D01*
X57533114Y56110143D01*
X57580733Y56205381D01*
X57628352Y56253000D01*
X57723590Y56300619D01*
X58485495Y55395857D02*
X58533114Y55348238D01*
X58485495Y55300619D01*
X58437876Y55348238D01*
X58485495Y55395857D01*
X58485495Y55300619D01*
X59485495Y55300619D02*
X58914066Y55300619D01*
X59199780Y55300619D02*
X59199780Y56300619D01*
X59104542Y56157762D01*
X59009304Y56062524D01*
X58914066Y56014905D01*
X61104543Y55967286D02*
X61104543Y55300619D01*
X60675971Y55967286D02*
X60675971Y55443476D01*
X60723590Y55348238D01*
X60818828Y55300619D01*
X60961686Y55300619D01*
X61056924Y55348238D01*
X61104543Y55395857D01*
X61914067Y55824429D02*
X61580733Y55824429D01*
X61580733Y55300619D02*
X61580733Y56300619D01*
X62056924Y56300619D01*
X55253190Y62879219D02*
X55348429Y62879219D01*
X55443667Y62831600D01*
X55491286Y62783981D01*
X55538905Y62688743D01*
X55586524Y62498267D01*
X55586524Y62260171D01*
X55538905Y62069695D01*
X55491286Y61974457D01*
X55443667Y61926838D01*
X55348429Y61879219D01*
X55253190Y61879219D01*
X55157952Y61926838D01*
X55110333Y61974457D01*
X55062714Y62069695D01*
X55015095Y62260171D01*
X55015095Y62498267D01*
X55062714Y62688743D01*
X55110333Y62783981D01*
X55157952Y62831600D01*
X55253190Y62879219D01*
X56015095Y61974457D02*
X56062714Y61926838D01*
X56015095Y61879219D01*
X55967476Y61926838D01*
X56015095Y61974457D01*
X56015095Y61879219D01*
X57015095Y61879219D02*
X56443666Y61879219D01*
X56729380Y61879219D02*
X56729380Y62879219D01*
X56634142Y62736362D01*
X56538904Y62641124D01*
X56443666Y62593505D01*
X58634143Y62545886D02*
X58634143Y61879219D01*
X58205571Y62545886D02*
X58205571Y62022076D01*
X58253190Y61926838D01*
X58348428Y61879219D01*
X58491286Y61879219D01*
X58586524Y61926838D01*
X58634143Y61974457D01*
X59443667Y62403029D02*
X59110333Y62403029D01*
X59110333Y61879219D02*
X59110333Y62879219D01*
X59586524Y62879219D01*
X64892419Y62165219D02*
X64320990Y62165219D01*
X64606704Y62165219D02*
X64606704Y63165219D01*
X64511466Y63022362D01*
X64416228Y62927124D01*
X64320990Y62879505D01*
X65511466Y63165219D02*
X65606705Y63165219D01*
X65701943Y63117600D01*
X65749562Y63069981D01*
X65797181Y62974743D01*
X65844800Y62784267D01*
X65844800Y62546171D01*
X65797181Y62355695D01*
X65749562Y62260457D01*
X65701943Y62212838D01*
X65606705Y62165219D01*
X65511466Y62165219D01*
X65416228Y62212838D01*
X65368609Y62260457D01*
X65320990Y62355695D01*
X65273371Y62546171D01*
X65273371Y62784267D01*
X65320990Y62974743D01*
X65368609Y63069981D01*
X65416228Y63117600D01*
X65511466Y63165219D01*
X67463848Y62831886D02*
X67463848Y62165219D01*
X67035276Y62831886D02*
X67035276Y62308076D01*
X67082895Y62212838D01*
X67178133Y62165219D01*
X67320991Y62165219D01*
X67416229Y62212838D01*
X67463848Y62260457D01*
X68273372Y62689029D02*
X67940038Y62689029D01*
X67940038Y62165219D02*
X67940038Y63165219D01*
X68416229Y63165219D01*
X71236390Y54725819D02*
X71331629Y54725819D01*
X71426867Y54678200D01*
X71474486Y54630581D01*
X71522105Y54535343D01*
X71569724Y54344867D01*
X71569724Y54106771D01*
X71522105Y53916295D01*
X71474486Y53821057D01*
X71426867Y53773438D01*
X71331629Y53725819D01*
X71236390Y53725819D01*
X71141152Y53773438D01*
X71093533Y53821057D01*
X71045914Y53916295D01*
X70998295Y54106771D01*
X70998295Y54344867D01*
X71045914Y54535343D01*
X71093533Y54630581D01*
X71141152Y54678200D01*
X71236390Y54725819D01*
X71998295Y53821057D02*
X72045914Y53773438D01*
X71998295Y53725819D01*
X71950676Y53773438D01*
X71998295Y53821057D01*
X71998295Y53725819D01*
X72998295Y53725819D02*
X72426866Y53725819D01*
X72712580Y53725819D02*
X72712580Y54725819D01*
X72617342Y54582962D01*
X72522104Y54487724D01*
X72426866Y54440105D01*
X74617343Y54392486D02*
X74617343Y53725819D01*
X74188771Y54392486D02*
X74188771Y53868676D01*
X74236390Y53773438D01*
X74331628Y53725819D01*
X74474486Y53725819D01*
X74569724Y53773438D01*
X74617343Y53821057D01*
X75426867Y54249629D02*
X75093533Y54249629D01*
X75093533Y53725819D02*
X75093533Y54725819D01*
X75569724Y54725819D01*
X55354790Y64809619D02*
X55450029Y64809619D01*
X55545267Y64762000D01*
X55592886Y64714381D01*
X55640505Y64619143D01*
X55688124Y64428667D01*
X55688124Y64190571D01*
X55640505Y64000095D01*
X55592886Y63904857D01*
X55545267Y63857238D01*
X55450029Y63809619D01*
X55354790Y63809619D01*
X55259552Y63857238D01*
X55211933Y63904857D01*
X55164314Y64000095D01*
X55116695Y64190571D01*
X55116695Y64428667D01*
X55164314Y64619143D01*
X55211933Y64714381D01*
X55259552Y64762000D01*
X55354790Y64809619D01*
X56116695Y63904857D02*
X56164314Y63857238D01*
X56116695Y63809619D01*
X56069076Y63857238D01*
X56116695Y63904857D01*
X56116695Y63809619D01*
X57116695Y63809619D02*
X56545266Y63809619D01*
X56830980Y63809619D02*
X56830980Y64809619D01*
X56735742Y64666762D01*
X56640504Y64571524D01*
X56545266Y64523905D01*
X58735743Y64476286D02*
X58735743Y63809619D01*
X58307171Y64476286D02*
X58307171Y63952476D01*
X58354790Y63857238D01*
X58450028Y63809619D01*
X58592886Y63809619D01*
X58688124Y63857238D01*
X58735743Y63904857D01*
X59545267Y64333429D02*
X59211933Y64333429D01*
X59211933Y63809619D02*
X59211933Y64809619D01*
X59688124Y64809619D01*
X60028390Y64809619D02*
X60123629Y64809619D01*
X60218867Y64762000D01*
X60266486Y64714381D01*
X60314105Y64619143D01*
X60361724Y64428667D01*
X60361724Y64190571D01*
X60314105Y64000095D01*
X60266486Y63904857D01*
X60218867Y63857238D01*
X60123629Y63809619D01*
X60028390Y63809619D01*
X59933152Y63857238D01*
X59885533Y63904857D01*
X59837914Y64000095D01*
X59790295Y64190571D01*
X59790295Y64428667D01*
X59837914Y64619143D01*
X59885533Y64714381D01*
X59933152Y64762000D01*
X60028390Y64809619D01*
X60790295Y63904857D02*
X60837914Y63857238D01*
X60790295Y63809619D01*
X60742676Y63857238D01*
X60790295Y63904857D01*
X60790295Y63809619D01*
X61790295Y63809619D02*
X61218866Y63809619D01*
X61504580Y63809619D02*
X61504580Y64809619D01*
X61409342Y64666762D01*
X61314104Y64571524D01*
X61218866Y64523905D01*
X63409343Y64476286D02*
X63409343Y63809619D01*
X62980771Y64476286D02*
X62980771Y63952476D01*
X63028390Y63857238D01*
X63123628Y63809619D01*
X63266486Y63809619D01*
X63361724Y63857238D01*
X63409343Y63904857D01*
X64218867Y64333429D02*
X63885533Y64333429D01*
X63885533Y63809619D02*
X63885533Y64809619D01*
X64361724Y64809619D01*
X57615390Y64809619D02*
X57710629Y64809619D01*
X57805867Y64762000D01*
X57853486Y64714381D01*
X57901105Y64619143D01*
X57948724Y64428667D01*
X57948724Y64190571D01*
X57901105Y64000095D01*
X57853486Y63904857D01*
X57805867Y63857238D01*
X57710629Y63809619D01*
X57615390Y63809619D01*
X57520152Y63857238D01*
X57472533Y63904857D01*
X57424914Y64000095D01*
X57377295Y64190571D01*
X57377295Y64428667D01*
X57424914Y64619143D01*
X57472533Y64714381D01*
X57520152Y64762000D01*
X57615390Y64809619D01*
X58377295Y63904857D02*
X58424914Y63857238D01*
X58377295Y63809619D01*
X58329676Y63857238D01*
X58377295Y63904857D01*
X58377295Y63809619D01*
X59377295Y63809619D02*
X58805866Y63809619D01*
X59091580Y63809619D02*
X59091580Y64809619D01*
X58996342Y64666762D01*
X58901104Y64571524D01*
X58805866Y64523905D01*
X60996343Y64476286D02*
X60996343Y63809619D01*
X60567771Y64476286D02*
X60567771Y63952476D01*
X60615390Y63857238D01*
X60710628Y63809619D01*
X60853486Y63809619D01*
X60948724Y63857238D01*
X60996343Y63904857D01*
X61805867Y64333429D02*
X61472533Y64333429D01*
X61472533Y63809619D02*
X61472533Y64809619D01*
X61948724Y64809619D01*
X66752790Y48274219D02*
X66848029Y48274219D01*
X66943267Y48226600D01*
X66990886Y48178981D01*
X67038505Y48083743D01*
X67086124Y47893267D01*
X67086124Y47655171D01*
X67038505Y47464695D01*
X66990886Y47369457D01*
X66943267Y47321838D01*
X66848029Y47274219D01*
X66752790Y47274219D01*
X66657552Y47321838D01*
X66609933Y47369457D01*
X66562314Y47464695D01*
X66514695Y47655171D01*
X66514695Y47893267D01*
X66562314Y48083743D01*
X66609933Y48178981D01*
X66657552Y48226600D01*
X66752790Y48274219D01*
X67514695Y47369457D02*
X67562314Y47321838D01*
X67514695Y47274219D01*
X67467076Y47321838D01*
X67514695Y47369457D01*
X67514695Y47274219D01*
X68514695Y47274219D02*
X67943266Y47274219D01*
X68228980Y47274219D02*
X68228980Y48274219D01*
X68133742Y48131362D01*
X68038504Y48036124D01*
X67943266Y47988505D01*
X70133743Y47940886D02*
X70133743Y47274219D01*
X69705171Y47940886D02*
X69705171Y47417076D01*
X69752790Y47321838D01*
X69848028Y47274219D01*
X69990886Y47274219D01*
X70086124Y47321838D01*
X70133743Y47369457D01*
X70943267Y47798029D02*
X70609933Y47798029D01*
X70609933Y47274219D02*
X70609933Y48274219D01*
X71086124Y48274219D01*
X70074019Y47706019D02*
X69502590Y47706019D01*
X69788304Y47706019D02*
X69788304Y48706019D01*
X69693066Y48563162D01*
X69597828Y48467924D01*
X69502590Y48420305D01*
X70693066Y48706019D02*
X70788305Y48706019D01*
X70883543Y48658400D01*
X70931162Y48610781D01*
X70978781Y48515543D01*
X71026400Y48325067D01*
X71026400Y48086971D01*
X70978781Y47896495D01*
X70931162Y47801257D01*
X70883543Y47753638D01*
X70788305Y47706019D01*
X70693066Y47706019D01*
X70597828Y47753638D01*
X70550209Y47801257D01*
X70502590Y47896495D01*
X70454971Y48086971D01*
X70454971Y48325067D01*
X70502590Y48515543D01*
X70550209Y48610781D01*
X70597828Y48658400D01*
X70693066Y48706019D01*
X72645448Y48372686D02*
X72645448Y47706019D01*
X72216876Y48372686D02*
X72216876Y47848876D01*
X72264495Y47753638D01*
X72359733Y47706019D01*
X72502591Y47706019D01*
X72597829Y47753638D01*
X72645448Y47801257D01*
X73454972Y48229829D02*
X73121638Y48229829D01*
X73121638Y47706019D02*
X73121638Y48706019D01*
X73597829Y48706019D01*
X59317190Y48299619D02*
X59412429Y48299619D01*
X59507667Y48252000D01*
X59555286Y48204381D01*
X59602905Y48109143D01*
X59650524Y47918667D01*
X59650524Y47680571D01*
X59602905Y47490095D01*
X59555286Y47394857D01*
X59507667Y47347238D01*
X59412429Y47299619D01*
X59317190Y47299619D01*
X59221952Y47347238D01*
X59174333Y47394857D01*
X59126714Y47490095D01*
X59079095Y47680571D01*
X59079095Y47918667D01*
X59126714Y48109143D01*
X59174333Y48204381D01*
X59221952Y48252000D01*
X59317190Y48299619D01*
X60079095Y47394857D02*
X60126714Y47347238D01*
X60079095Y47299619D01*
X60031476Y47347238D01*
X60079095Y47394857D01*
X60079095Y47299619D01*
X61079095Y47299619D02*
X60507666Y47299619D01*
X60793380Y47299619D02*
X60793380Y48299619D01*
X60698142Y48156762D01*
X60602904Y48061524D01*
X60507666Y48013905D01*
X62698143Y47966286D02*
X62698143Y47299619D01*
X62269571Y47966286D02*
X62269571Y47442476D01*
X62317190Y47347238D01*
X62412428Y47299619D01*
X62555286Y47299619D01*
X62650524Y47347238D01*
X62698143Y47394857D01*
X63507667Y47823429D02*
X63174333Y47823429D01*
X63174333Y47299619D02*
X63174333Y48299619D01*
X63650524Y48299619D01*
X64600390Y48306219D02*
X64695629Y48306219D01*
X64790867Y48258600D01*
X64838486Y48210981D01*
X64886105Y48115743D01*
X64933724Y47925267D01*
X64933724Y47687171D01*
X64886105Y47496695D01*
X64838486Y47401457D01*
X64790867Y47353838D01*
X64695629Y47306219D01*
X64600390Y47306219D01*
X64505152Y47353838D01*
X64457533Y47401457D01*
X64409914Y47496695D01*
X64362295Y47687171D01*
X64362295Y47925267D01*
X64409914Y48115743D01*
X64457533Y48210981D01*
X64505152Y48258600D01*
X64600390Y48306219D01*
X65362295Y47401457D02*
X65409914Y47353838D01*
X65362295Y47306219D01*
X65314676Y47353838D01*
X65362295Y47401457D01*
X65362295Y47306219D01*
X66362295Y47306219D02*
X65790866Y47306219D01*
X66076580Y47306219D02*
X66076580Y48306219D01*
X65981342Y48163362D01*
X65886104Y48068124D01*
X65790866Y48020505D01*
X67981343Y47972886D02*
X67981343Y47306219D01*
X67552771Y47972886D02*
X67552771Y47449076D01*
X67600390Y47353838D01*
X67695628Y47306219D01*
X67838486Y47306219D01*
X67933724Y47353838D01*
X67981343Y47401457D01*
X68790867Y47830029D02*
X68457533Y47830029D01*
X68457533Y47306219D02*
X68457533Y48306219D01*
X68933724Y48306219D01*
X55213310Y58561219D02*
X55308549Y58561219D01*
X55403787Y58513600D01*
X55451406Y58465981D01*
X55499025Y58370743D01*
X55546644Y58180267D01*
X55546644Y57942171D01*
X55499025Y57751695D01*
X55451406Y57656457D01*
X55403787Y57608838D01*
X55308549Y57561219D01*
X55213310Y57561219D01*
X55118072Y57608838D01*
X55070453Y57656457D01*
X55022834Y57751695D01*
X54975215Y57942171D01*
X54975215Y58180267D01*
X55022834Y58370743D01*
X55070453Y58465981D01*
X55118072Y58513600D01*
X55213310Y58561219D01*
X55975215Y57656457D02*
X56022834Y57608838D01*
X55975215Y57561219D01*
X55927596Y57608838D01*
X55975215Y57656457D01*
X55975215Y57561219D01*
X56975215Y57561219D02*
X56403786Y57561219D01*
X56689500Y57561219D02*
X56689500Y58561219D01*
X56594262Y58418362D01*
X56499024Y58323124D01*
X56403786Y58275505D01*
X58594263Y58227886D02*
X58594263Y57561219D01*
X58165691Y58227886D02*
X58165691Y57704076D01*
X58213310Y57608838D01*
X58308548Y57561219D01*
X58451406Y57561219D01*
X58546644Y57608838D01*
X58594263Y57656457D01*
X59403787Y58085029D02*
X59070453Y58085029D01*
X59070453Y57561219D02*
X59070453Y58561219D01*
X59546644Y58561219D01*
X56184539Y47858419D02*
X55613110Y47858419D01*
X55898824Y47858419D02*
X55898824Y48858419D01*
X55803586Y48715562D01*
X55708348Y48620324D01*
X55613110Y48572705D01*
X56803586Y48858419D02*
X56898825Y48858419D01*
X56994063Y48810800D01*
X57041682Y48763181D01*
X57089301Y48667943D01*
X57136920Y48477467D01*
X57136920Y48239371D01*
X57089301Y48048895D01*
X57041682Y47953657D01*
X56994063Y47906038D01*
X56898825Y47858419D01*
X56803586Y47858419D01*
X56708348Y47906038D01*
X56660729Y47953657D01*
X56613110Y48048895D01*
X56565491Y48239371D01*
X56565491Y48477467D01*
X56613110Y48667943D01*
X56660729Y48763181D01*
X56708348Y48810800D01*
X56803586Y48858419D01*
X58755968Y48525086D02*
X58755968Y47858419D01*
X58327396Y48525086D02*
X58327396Y48001276D01*
X58375015Y47906038D01*
X58470253Y47858419D01*
X58613111Y47858419D01*
X58708349Y47906038D01*
X58755968Y47953657D01*
X59565492Y48382229D02*
X59232158Y48382229D01*
X59232158Y47858419D02*
X59232158Y48858419D01*
X59708349Y48858419D01*
X55223470Y61329819D02*
X55318709Y61329819D01*
X55413947Y61282200D01*
X55461566Y61234581D01*
X55509185Y61139343D01*
X55556804Y60948867D01*
X55556804Y60710771D01*
X55509185Y60520295D01*
X55461566Y60425057D01*
X55413947Y60377438D01*
X55318709Y60329819D01*
X55223470Y60329819D01*
X55128232Y60377438D01*
X55080613Y60425057D01*
X55032994Y60520295D01*
X54985375Y60710771D01*
X54985375Y60948867D01*
X55032994Y61139343D01*
X55080613Y61234581D01*
X55128232Y61282200D01*
X55223470Y61329819D01*
X55985375Y60425057D02*
X56032994Y60377438D01*
X55985375Y60329819D01*
X55937756Y60377438D01*
X55985375Y60425057D01*
X55985375Y60329819D01*
X56985375Y60329819D02*
X56413946Y60329819D01*
X56699660Y60329819D02*
X56699660Y61329819D01*
X56604422Y61186962D01*
X56509184Y61091724D01*
X56413946Y61044105D01*
X58604423Y60996486D02*
X58604423Y60329819D01*
X58175851Y60996486D02*
X58175851Y60472676D01*
X58223470Y60377438D01*
X58318708Y60329819D01*
X58461566Y60329819D01*
X58556804Y60377438D01*
X58604423Y60425057D01*
X59413947Y60853629D02*
X59080613Y60853629D01*
X59080613Y60329819D02*
X59080613Y61329819D01*
X59556804Y61329819D01*
X55172670Y54802019D02*
X55267909Y54802019D01*
X55363147Y54754400D01*
X55410766Y54706781D01*
X55458385Y54611543D01*
X55506004Y54421067D01*
X55506004Y54182971D01*
X55458385Y53992495D01*
X55410766Y53897257D01*
X55363147Y53849638D01*
X55267909Y53802019D01*
X55172670Y53802019D01*
X55077432Y53849638D01*
X55029813Y53897257D01*
X54982194Y53992495D01*
X54934575Y54182971D01*
X54934575Y54421067D01*
X54982194Y54611543D01*
X55029813Y54706781D01*
X55077432Y54754400D01*
X55172670Y54802019D01*
X55934575Y53897257D02*
X55982194Y53849638D01*
X55934575Y53802019D01*
X55886956Y53849638D01*
X55934575Y53897257D01*
X55934575Y53802019D01*
X56934575Y53802019D02*
X56363146Y53802019D01*
X56648860Y53802019D02*
X56648860Y54802019D01*
X56553622Y54659162D01*
X56458384Y54563924D01*
X56363146Y54516305D01*
X58553623Y54468686D02*
X58553623Y53802019D01*
X58125051Y54468686D02*
X58125051Y53944876D01*
X58172670Y53849638D01*
X58267908Y53802019D01*
X58410766Y53802019D01*
X58506004Y53849638D01*
X58553623Y53897257D01*
X59363147Y54325829D02*
X59029813Y54325829D01*
X59029813Y53802019D02*
X59029813Y54802019D01*
X59506004Y54802019D01*
X66733990Y64809619D02*
X66829229Y64809619D01*
X66924467Y64762000D01*
X66972086Y64714381D01*
X67019705Y64619143D01*
X67067324Y64428667D01*
X67067324Y64190571D01*
X67019705Y64000095D01*
X66972086Y63904857D01*
X66924467Y63857238D01*
X66829229Y63809619D01*
X66733990Y63809619D01*
X66638752Y63857238D01*
X66591133Y63904857D01*
X66543514Y64000095D01*
X66495895Y64190571D01*
X66495895Y64428667D01*
X66543514Y64619143D01*
X66591133Y64714381D01*
X66638752Y64762000D01*
X66733990Y64809619D01*
X67495895Y63904857D02*
X67543514Y63857238D01*
X67495895Y63809619D01*
X67448276Y63857238D01*
X67495895Y63904857D01*
X67495895Y63809619D01*
X68495895Y63809619D02*
X67924466Y63809619D01*
X68210180Y63809619D02*
X68210180Y64809619D01*
X68114942Y64666762D01*
X68019704Y64571524D01*
X67924466Y64523905D01*
X70114943Y64476286D02*
X70114943Y63809619D01*
X69686371Y64476286D02*
X69686371Y63952476D01*
X69733990Y63857238D01*
X69829228Y63809619D01*
X69972086Y63809619D01*
X70067324Y63857238D01*
X70114943Y63904857D01*
X70924467Y64333429D02*
X70591133Y64333429D01*
X70591133Y63809619D02*
X70591133Y64809619D01*
X71067324Y64809619D01*
X57708539Y58526419D02*
X57137110Y58526419D01*
X57422824Y58526419D02*
X57422824Y59526419D01*
X57327586Y59383562D01*
X57232348Y59288324D01*
X57137110Y59240705D01*
X58327586Y59526419D02*
X58422825Y59526419D01*
X58518063Y59478800D01*
X58565682Y59431181D01*
X58613301Y59335943D01*
X58660920Y59145467D01*
X58660920Y58907371D01*
X58613301Y58716895D01*
X58565682Y58621657D01*
X58518063Y58574038D01*
X58422825Y58526419D01*
X58327586Y58526419D01*
X58232348Y58574038D01*
X58184729Y58621657D01*
X58137110Y58716895D01*
X58089491Y58907371D01*
X58089491Y59145467D01*
X58137110Y59335943D01*
X58184729Y59431181D01*
X58232348Y59478800D01*
X58327586Y59526419D01*
X60279968Y59193086D02*
X60279968Y58526419D01*
X59851396Y59193086D02*
X59851396Y58669276D01*
X59899015Y58574038D01*
X59994253Y58526419D01*
X60137111Y58526419D01*
X60232349Y58574038D01*
X60279968Y58621657D01*
X61089492Y59050229D02*
X60756158Y59050229D01*
X60756158Y58526419D02*
X60756158Y59526419D01*
X61232349Y59526419D01*
X69045390Y64809619D02*
X69140629Y64809619D01*
X69235867Y64762000D01*
X69283486Y64714381D01*
X69331105Y64619143D01*
X69378724Y64428667D01*
X69378724Y64190571D01*
X69331105Y64000095D01*
X69283486Y63904857D01*
X69235867Y63857238D01*
X69140629Y63809619D01*
X69045390Y63809619D01*
X68950152Y63857238D01*
X68902533Y63904857D01*
X68854914Y64000095D01*
X68807295Y64190571D01*
X68807295Y64428667D01*
X68854914Y64619143D01*
X68902533Y64714381D01*
X68950152Y64762000D01*
X69045390Y64809619D01*
X69807295Y63904857D02*
X69854914Y63857238D01*
X69807295Y63809619D01*
X69759676Y63857238D01*
X69807295Y63904857D01*
X69807295Y63809619D01*
X70807295Y63809619D02*
X70235866Y63809619D01*
X70521580Y63809619D02*
X70521580Y64809619D01*
X70426342Y64666762D01*
X70331104Y64571524D01*
X70235866Y64523905D01*
X72426343Y64476286D02*
X72426343Y63809619D01*
X71997771Y64476286D02*
X71997771Y63952476D01*
X72045390Y63857238D01*
X72140628Y63809619D01*
X72283486Y63809619D01*
X72378724Y63857238D01*
X72426343Y63904857D01*
X73235867Y64333429D02*
X72902533Y64333429D01*
X72902533Y63809619D02*
X72902533Y64809619D01*
X73378724Y64809619D01*
X71890190Y64403219D02*
X71985429Y64403219D01*
X72080667Y64355600D01*
X72128286Y64307981D01*
X72175905Y64212743D01*
X72223524Y64022267D01*
X72223524Y63784171D01*
X72175905Y63593695D01*
X72128286Y63498457D01*
X72080667Y63450838D01*
X71985429Y63403219D01*
X71890190Y63403219D01*
X71794952Y63450838D01*
X71747333Y63498457D01*
X71699714Y63593695D01*
X71652095Y63784171D01*
X71652095Y64022267D01*
X71699714Y64212743D01*
X71747333Y64307981D01*
X71794952Y64355600D01*
X71890190Y64403219D01*
X72652095Y63498457D02*
X72699714Y63450838D01*
X72652095Y63403219D01*
X72604476Y63450838D01*
X72652095Y63498457D01*
X72652095Y63403219D01*
X73652095Y63403219D02*
X73080666Y63403219D01*
X73366380Y63403219D02*
X73366380Y64403219D01*
X73271142Y64260362D01*
X73175904Y64165124D01*
X73080666Y64117505D01*
X75271143Y64069886D02*
X75271143Y63403219D01*
X74842571Y64069886D02*
X74842571Y63546076D01*
X74890190Y63450838D01*
X74985428Y63403219D01*
X75128286Y63403219D01*
X75223524Y63450838D01*
X75271143Y63498457D01*
X76080667Y63927029D02*
X75747333Y63927029D01*
X75747333Y63403219D02*
X75747333Y64403219D01*
X76223524Y64403219D01*
X71845990Y61685419D02*
X71941229Y61685419D01*
X72036467Y61637800D01*
X72084086Y61590181D01*
X72131705Y61494943D01*
X72179324Y61304467D01*
X72179324Y61066371D01*
X72131705Y60875895D01*
X72084086Y60780657D01*
X72036467Y60733038D01*
X71941229Y60685419D01*
X71845990Y60685419D01*
X71750752Y60733038D01*
X71703133Y60780657D01*
X71655514Y60875895D01*
X71607895Y61066371D01*
X71607895Y61304467D01*
X71655514Y61494943D01*
X71703133Y61590181D01*
X71750752Y61637800D01*
X71845990Y61685419D01*
X72607895Y60780657D02*
X72655514Y60733038D01*
X72607895Y60685419D01*
X72560276Y60733038D01*
X72607895Y60780657D01*
X72607895Y60685419D01*
X73607895Y60685419D02*
X73036466Y60685419D01*
X73322180Y60685419D02*
X73322180Y61685419D01*
X73226942Y61542562D01*
X73131704Y61447324D01*
X73036466Y61399705D01*
X75226943Y61352086D02*
X75226943Y60685419D01*
X74798371Y61352086D02*
X74798371Y60828276D01*
X74845990Y60733038D01*
X74941228Y60685419D01*
X75084086Y60685419D01*
X75179324Y60733038D01*
X75226943Y60780657D01*
X76036467Y61209229D02*
X75703133Y61209229D01*
X75703133Y60685419D02*
X75703133Y61685419D01*
X76179324Y61685419D01*
X70233019Y52024019D02*
X69661590Y52024019D01*
X69947304Y52024019D02*
X69947304Y53024019D01*
X69852066Y52881162D01*
X69756828Y52785924D01*
X69661590Y52738305D01*
X70852066Y53024019D02*
X70947305Y53024019D01*
X71042543Y52976400D01*
X71090162Y52928781D01*
X71137781Y52833543D01*
X71185400Y52643067D01*
X71185400Y52404971D01*
X71137781Y52214495D01*
X71090162Y52119257D01*
X71042543Y52071638D01*
X70947305Y52024019D01*
X70852066Y52024019D01*
X70756828Y52071638D01*
X70709209Y52119257D01*
X70661590Y52214495D01*
X70613971Y52404971D01*
X70613971Y52643067D01*
X70661590Y52833543D01*
X70709209Y52928781D01*
X70756828Y52976400D01*
X70852066Y53024019D01*
X72804448Y52690686D02*
X72804448Y52024019D01*
X72375876Y52690686D02*
X72375876Y52166876D01*
X72423495Y52071638D01*
X72518733Y52024019D01*
X72661591Y52024019D01*
X72756829Y52071638D01*
X72804448Y52119257D01*
X73613972Y52547829D02*
X73280638Y52547829D01*
X73280638Y52024019D02*
X73280638Y53024019D01*
X73756829Y53024019D01*
X71617390Y58205619D02*
X71712629Y58205619D01*
X71807867Y58158000D01*
X71855486Y58110381D01*
X71903105Y58015143D01*
X71950724Y57824667D01*
X71950724Y57586571D01*
X71903105Y57396095D01*
X71855486Y57300857D01*
X71807867Y57253238D01*
X71712629Y57205619D01*
X71617390Y57205619D01*
X71522152Y57253238D01*
X71474533Y57300857D01*
X71426914Y57396095D01*
X71379295Y57586571D01*
X71379295Y57824667D01*
X71426914Y58015143D01*
X71474533Y58110381D01*
X71522152Y58158000D01*
X71617390Y58205619D01*
X72379295Y57300857D02*
X72426914Y57253238D01*
X72379295Y57205619D01*
X72331676Y57253238D01*
X72379295Y57300857D01*
X72379295Y57205619D01*
X73379295Y57205619D02*
X72807866Y57205619D01*
X73093580Y57205619D02*
X73093580Y58205619D01*
X72998342Y58062762D01*
X72903104Y57967524D01*
X72807866Y57919905D01*
X74998343Y57872286D02*
X74998343Y57205619D01*
X74569771Y57872286D02*
X74569771Y57348476D01*
X74617390Y57253238D01*
X74712628Y57205619D01*
X74855486Y57205619D01*
X74950724Y57253238D01*
X74998343Y57300857D01*
X75807867Y57729429D02*
X75474533Y57729429D01*
X75474533Y57205619D02*
X75474533Y58205619D01*
X75950724Y58205619D01*
X71795190Y51322219D02*
X71890429Y51322219D01*
X71985667Y51274600D01*
X72033286Y51226981D01*
X72080905Y51131743D01*
X72128524Y50941267D01*
X72128524Y50703171D01*
X72080905Y50512695D01*
X72033286Y50417457D01*
X71985667Y50369838D01*
X71890429Y50322219D01*
X71795190Y50322219D01*
X71699952Y50369838D01*
X71652333Y50417457D01*
X71604714Y50512695D01*
X71557095Y50703171D01*
X71557095Y50941267D01*
X71604714Y51131743D01*
X71652333Y51226981D01*
X71699952Y51274600D01*
X71795190Y51322219D01*
X72557095Y50417457D02*
X72604714Y50369838D01*
X72557095Y50322219D01*
X72509476Y50369838D01*
X72557095Y50417457D01*
X72557095Y50322219D01*
X73557095Y50322219D02*
X72985666Y50322219D01*
X73271380Y50322219D02*
X73271380Y51322219D01*
X73176142Y51179362D01*
X73080904Y51084124D01*
X72985666Y51036505D01*
X75176143Y50988886D02*
X75176143Y50322219D01*
X74747571Y50988886D02*
X74747571Y50465076D01*
X74795190Y50369838D01*
X74890428Y50322219D01*
X75033286Y50322219D01*
X75128524Y50369838D01*
X75176143Y50417457D01*
X75985667Y50846029D02*
X75652333Y50846029D01*
X75652333Y50322219D02*
X75652333Y51322219D01*
X76128524Y51322219D01*
X67692590Y23204419D02*
X67787829Y23204419D01*
X67883067Y23156800D01*
X67930686Y23109181D01*
X67978305Y23013943D01*
X68025924Y22823467D01*
X68025924Y22585371D01*
X67978305Y22394895D01*
X67930686Y22299657D01*
X67883067Y22252038D01*
X67787829Y22204419D01*
X67692590Y22204419D01*
X67597352Y22252038D01*
X67549733Y22299657D01*
X67502114Y22394895D01*
X67454495Y22585371D01*
X67454495Y22823467D01*
X67502114Y23013943D01*
X67549733Y23109181D01*
X67597352Y23156800D01*
X67692590Y23204419D01*
X68454495Y22299657D02*
X68502114Y22252038D01*
X68454495Y22204419D01*
X68406876Y22252038D01*
X68454495Y22299657D01*
X68454495Y22204419D01*
X69454495Y22204419D02*
X68883066Y22204419D01*
X69168780Y22204419D02*
X69168780Y23204419D01*
X69073542Y23061562D01*
X68978304Y22966324D01*
X68883066Y22918705D01*
X71073543Y22871086D02*
X71073543Y22204419D01*
X70644971Y22871086D02*
X70644971Y22347276D01*
X70692590Y22252038D01*
X70787828Y22204419D01*
X70930686Y22204419D01*
X71025924Y22252038D01*
X71073543Y22299657D01*
X71883067Y22728229D02*
X71549733Y22728229D01*
X71549733Y22204419D02*
X71549733Y23204419D01*
X72025924Y23204419D01*
X64600390Y30697419D02*
X64695629Y30697419D01*
X64790867Y30649800D01*
X64838486Y30602181D01*
X64886105Y30506943D01*
X64933724Y30316467D01*
X64933724Y30078371D01*
X64886105Y29887895D01*
X64838486Y29792657D01*
X64790867Y29745038D01*
X64695629Y29697419D01*
X64600390Y29697419D01*
X64505152Y29745038D01*
X64457533Y29792657D01*
X64409914Y29887895D01*
X64362295Y30078371D01*
X64362295Y30316467D01*
X64409914Y30506943D01*
X64457533Y30602181D01*
X64505152Y30649800D01*
X64600390Y30697419D01*
X65362295Y29792657D02*
X65409914Y29745038D01*
X65362295Y29697419D01*
X65314676Y29745038D01*
X65362295Y29792657D01*
X65362295Y29697419D01*
X66362295Y29697419D02*
X65790866Y29697419D01*
X66076580Y29697419D02*
X66076580Y30697419D01*
X65981342Y30554562D01*
X65886104Y30459324D01*
X65790866Y30411705D01*
X67981343Y30364086D02*
X67981343Y29697419D01*
X67552771Y30364086D02*
X67552771Y29840276D01*
X67600390Y29745038D01*
X67695628Y29697419D01*
X67838486Y29697419D01*
X67933724Y29745038D01*
X67981343Y29792657D01*
X68790867Y30221229D02*
X68457533Y30221229D01*
X68457533Y29697419D02*
X68457533Y30697419D01*
X68933724Y30697419D01*
X67013390Y34304219D02*
X67108629Y34304219D01*
X67203867Y34256600D01*
X67251486Y34208981D01*
X67299105Y34113743D01*
X67346724Y33923267D01*
X67346724Y33685171D01*
X67299105Y33494695D01*
X67251486Y33399457D01*
X67203867Y33351838D01*
X67108629Y33304219D01*
X67013390Y33304219D01*
X66918152Y33351838D01*
X66870533Y33399457D01*
X66822914Y33494695D01*
X66775295Y33685171D01*
X66775295Y33923267D01*
X66822914Y34113743D01*
X66870533Y34208981D01*
X66918152Y34256600D01*
X67013390Y34304219D01*
X67775295Y33399457D02*
X67822914Y33351838D01*
X67775295Y33304219D01*
X67727676Y33351838D01*
X67775295Y33399457D01*
X67775295Y33304219D01*
X68775295Y33304219D02*
X68203866Y33304219D01*
X68489580Y33304219D02*
X68489580Y34304219D01*
X68394342Y34161362D01*
X68299104Y34066124D01*
X68203866Y34018505D01*
X70394343Y33970886D02*
X70394343Y33304219D01*
X69965771Y33970886D02*
X69965771Y33447076D01*
X70013390Y33351838D01*
X70108628Y33304219D01*
X70251486Y33304219D01*
X70346724Y33351838D01*
X70394343Y33399457D01*
X71203867Y33828029D02*
X70870533Y33828029D01*
X70870533Y33304219D02*
X70870533Y34304219D01*
X71346724Y34304219D01*
X70257990Y37123619D02*
X70353229Y37123619D01*
X70448467Y37076000D01*
X70496086Y37028381D01*
X70543705Y36933143D01*
X70591324Y36742667D01*
X70591324Y36504571D01*
X70543705Y36314095D01*
X70496086Y36218857D01*
X70448467Y36171238D01*
X70353229Y36123619D01*
X70257990Y36123619D01*
X70162752Y36171238D01*
X70115133Y36218857D01*
X70067514Y36314095D01*
X70019895Y36504571D01*
X70019895Y36742667D01*
X70067514Y36933143D01*
X70115133Y37028381D01*
X70162752Y37076000D01*
X70257990Y37123619D01*
X71019895Y36218857D02*
X71067514Y36171238D01*
X71019895Y36123619D01*
X70972276Y36171238D01*
X71019895Y36218857D01*
X71019895Y36123619D01*
X72019895Y36123619D02*
X71448466Y36123619D01*
X71734180Y36123619D02*
X71734180Y37123619D01*
X71638942Y36980762D01*
X71543704Y36885524D01*
X71448466Y36837905D01*
X73638943Y36790286D02*
X73638943Y36123619D01*
X73210371Y36790286D02*
X73210371Y36266476D01*
X73257990Y36171238D01*
X73353228Y36123619D01*
X73496086Y36123619D01*
X73591324Y36171238D01*
X73638943Y36218857D01*
X74448467Y36647429D02*
X74115133Y36647429D01*
X74115133Y36123619D02*
X74115133Y37123619D01*
X74591324Y37123619D01*
X68613590Y35955219D02*
X68708829Y35955219D01*
X68804067Y35907600D01*
X68851686Y35859981D01*
X68899305Y35764743D01*
X68946924Y35574267D01*
X68946924Y35336171D01*
X68899305Y35145695D01*
X68851686Y35050457D01*
X68804067Y35002838D01*
X68708829Y34955219D01*
X68613590Y34955219D01*
X68518352Y35002838D01*
X68470733Y35050457D01*
X68423114Y35145695D01*
X68375495Y35336171D01*
X68375495Y35574267D01*
X68423114Y35764743D01*
X68470733Y35859981D01*
X68518352Y35907600D01*
X68613590Y35955219D01*
X69375495Y35050457D02*
X69423114Y35002838D01*
X69375495Y34955219D01*
X69327876Y35002838D01*
X69375495Y35050457D01*
X69375495Y34955219D01*
X70375495Y34955219D02*
X69804066Y34955219D01*
X70089780Y34955219D02*
X70089780Y35955219D01*
X69994542Y35812362D01*
X69899304Y35717124D01*
X69804066Y35669505D01*
X71994543Y35621886D02*
X71994543Y34955219D01*
X71565971Y35621886D02*
X71565971Y35098076D01*
X71613590Y35002838D01*
X71708828Y34955219D01*
X71851686Y34955219D01*
X71946924Y35002838D01*
X71994543Y35050457D01*
X72804067Y35479029D02*
X72470733Y35479029D01*
X72470733Y34955219D02*
X72470733Y35955219D01*
X72946924Y35955219D01*
X63965390Y23890219D02*
X64060629Y23890219D01*
X64155867Y23842600D01*
X64203486Y23794981D01*
X64251105Y23699743D01*
X64298724Y23509267D01*
X64298724Y23271171D01*
X64251105Y23080695D01*
X64203486Y22985457D01*
X64155867Y22937838D01*
X64060629Y22890219D01*
X63965390Y22890219D01*
X63870152Y22937838D01*
X63822533Y22985457D01*
X63774914Y23080695D01*
X63727295Y23271171D01*
X63727295Y23509267D01*
X63774914Y23699743D01*
X63822533Y23794981D01*
X63870152Y23842600D01*
X63965390Y23890219D01*
X64727295Y22985457D02*
X64774914Y22937838D01*
X64727295Y22890219D01*
X64679676Y22937838D01*
X64727295Y22985457D01*
X64727295Y22890219D01*
X65727295Y22890219D02*
X65155866Y22890219D01*
X65441580Y22890219D02*
X65441580Y23890219D01*
X65346342Y23747362D01*
X65251104Y23652124D01*
X65155866Y23604505D01*
X67346343Y23556886D02*
X67346343Y22890219D01*
X66917771Y23556886D02*
X66917771Y23033076D01*
X66965390Y22937838D01*
X67060628Y22890219D01*
X67203486Y22890219D01*
X67298724Y22937838D01*
X67346343Y22985457D01*
X68155867Y23414029D02*
X67822533Y23414029D01*
X67822533Y22890219D02*
X67822533Y23890219D01*
X68298724Y23890219D01*
X62403219Y32542219D02*
X61831790Y32542219D01*
X62117504Y32542219D02*
X62117504Y33542219D01*
X62022266Y33399362D01*
X61927028Y33304124D01*
X61831790Y33256505D01*
X63022266Y33542219D02*
X63117505Y33542219D01*
X63212743Y33494600D01*
X63260362Y33446981D01*
X63307981Y33351743D01*
X63355600Y33161267D01*
X63355600Y32923171D01*
X63307981Y32732695D01*
X63260362Y32637457D01*
X63212743Y32589838D01*
X63117505Y32542219D01*
X63022266Y32542219D01*
X62927028Y32589838D01*
X62879409Y32637457D01*
X62831790Y32732695D01*
X62784171Y32923171D01*
X62784171Y33161267D01*
X62831790Y33351743D01*
X62879409Y33446981D01*
X62927028Y33494600D01*
X63022266Y33542219D01*
X64974648Y33208886D02*
X64974648Y32542219D01*
X64546076Y33208886D02*
X64546076Y32685076D01*
X64593695Y32589838D01*
X64688933Y32542219D01*
X64831791Y32542219D01*
X64927029Y32589838D01*
X64974648Y32637457D01*
X65784172Y33066029D02*
X65450838Y33066029D01*
X65450838Y32542219D02*
X65450838Y33542219D01*
X65927029Y33542219D01*
X68629685Y82919819D02*
X68724924Y82919819D01*
X68820162Y82872200D01*
X68867781Y82824581D01*
X68915400Y82729343D01*
X68963019Y82538867D01*
X68963019Y82300771D01*
X68915400Y82110295D01*
X68867781Y82015057D01*
X68820162Y81967438D01*
X68724924Y81919819D01*
X68629685Y81919819D01*
X68534447Y81967438D01*
X68486828Y82015057D01*
X68439209Y82110295D01*
X68391590Y82300771D01*
X68391590Y82538867D01*
X68439209Y82729343D01*
X68486828Y82824581D01*
X68534447Y82872200D01*
X68629685Y82919819D01*
X69391590Y82015057D02*
X69439209Y81967438D01*
X69391590Y81919819D01*
X69343971Y81967438D01*
X69391590Y82015057D01*
X69391590Y81919819D01*
X70391590Y81919819D02*
X69820161Y81919819D01*
X70105875Y81919819D02*
X70105875Y82919819D01*
X70010637Y82776962D01*
X69915399Y82681724D01*
X69820161Y82634105D01*
X72010638Y82586486D02*
X72010638Y81919819D01*
X71582066Y82586486D02*
X71582066Y82062676D01*
X71629685Y81967438D01*
X71724923Y81919819D01*
X71867781Y81919819D01*
X71963019Y81967438D01*
X72010638Y82015057D01*
X72820162Y82443629D02*
X72486828Y82443629D01*
X72486828Y81919819D02*
X72486828Y82919819D01*
X72963019Y82919819D01*
X74058257Y82824581D02*
X74105876Y82872200D01*
X74201114Y82919819D01*
X74439210Y82919819D01*
X74534448Y82872200D01*
X74582067Y82824581D01*
X74629686Y82729343D01*
X74629686Y82634105D01*
X74582067Y82491248D01*
X74010638Y81919819D01*
X74629686Y81919819D01*
X75534448Y82919819D02*
X75058257Y82919819D01*
X75010638Y82443629D01*
X75058257Y82491248D01*
X75153495Y82538867D01*
X75391591Y82538867D01*
X75486829Y82491248D01*
X75534448Y82443629D01*
X75582067Y82348390D01*
X75582067Y82110295D01*
X75534448Y82015057D01*
X75486829Y81967438D01*
X75391591Y81919819D01*
X75153495Y81919819D01*
X75058257Y81967438D01*
X75010638Y82015057D01*
X75867781Y82919819D02*
X76201114Y81919819D01*
X76534448Y82919819D01*
X74243085Y82926419D02*
X74338324Y82926419D01*
X74433562Y82878800D01*
X74481181Y82831181D01*
X74528800Y82735943D01*
X74576419Y82545467D01*
X74576419Y82307371D01*
X74528800Y82116895D01*
X74481181Y82021657D01*
X74433562Y81974038D01*
X74338324Y81926419D01*
X74243085Y81926419D01*
X74147847Y81974038D01*
X74100228Y82021657D01*
X74052609Y82116895D01*
X74004990Y82307371D01*
X74004990Y82545467D01*
X74052609Y82735943D01*
X74100228Y82831181D01*
X74147847Y82878800D01*
X74243085Y82926419D01*
X75004990Y82021657D02*
X75052609Y81974038D01*
X75004990Y81926419D01*
X74957371Y81974038D01*
X75004990Y82021657D01*
X75004990Y81926419D01*
X76004990Y81926419D02*
X75433561Y81926419D01*
X75719275Y81926419D02*
X75719275Y82926419D01*
X75624037Y82783562D01*
X75528799Y82688324D01*
X75433561Y82640705D01*
X77624038Y82593086D02*
X77624038Y81926419D01*
X77195466Y82593086D02*
X77195466Y82069276D01*
X77243085Y81974038D01*
X77338323Y81926419D01*
X77481181Y81926419D01*
X77576419Y81974038D01*
X77624038Y82021657D01*
X78433562Y82450229D02*
X78100228Y82450229D01*
X78100228Y81926419D02*
X78100228Y82926419D01*
X78576419Y82926419D01*
X79671657Y82831181D02*
X79719276Y82878800D01*
X79814514Y82926419D01*
X80052610Y82926419D01*
X80147848Y82878800D01*
X80195467Y82831181D01*
X80243086Y82735943D01*
X80243086Y82640705D01*
X80195467Y82497848D01*
X79624038Y81926419D01*
X80243086Y81926419D01*
X81147848Y82926419D02*
X80671657Y82926419D01*
X80624038Y82450229D01*
X80671657Y82497848D01*
X80766895Y82545467D01*
X81004991Y82545467D01*
X81100229Y82497848D01*
X81147848Y82450229D01*
X81195467Y82354990D01*
X81195467Y82116895D01*
X81147848Y82021657D01*
X81100229Y81974038D01*
X81004991Y81926419D01*
X80766895Y81926419D01*
X80671657Y81974038D01*
X80624038Y82021657D01*
X81481181Y82926419D02*
X81814514Y81926419D01*
X82147848Y82926419D01*
X66949819Y19029419D02*
X66378390Y19029419D01*
X66664104Y19029419D02*
X66664104Y20029419D01*
X66568866Y19886562D01*
X66473628Y19791324D01*
X66378390Y19743705D01*
X67568866Y20029419D02*
X67664105Y20029419D01*
X67759343Y19981800D01*
X67806962Y19934181D01*
X67854581Y19838943D01*
X67902200Y19648467D01*
X67902200Y19410371D01*
X67854581Y19219895D01*
X67806962Y19124657D01*
X67759343Y19077038D01*
X67664105Y19029419D01*
X67568866Y19029419D01*
X67473628Y19077038D01*
X67426009Y19124657D01*
X67378390Y19219895D01*
X67330771Y19410371D01*
X67330771Y19648467D01*
X67378390Y19838943D01*
X67426009Y19934181D01*
X67473628Y19981800D01*
X67568866Y20029419D01*
X69521248Y19696086D02*
X69521248Y19029419D01*
X69092676Y19696086D02*
X69092676Y19172276D01*
X69140295Y19077038D01*
X69235533Y19029419D01*
X69378391Y19029419D01*
X69473629Y19077038D01*
X69521248Y19124657D01*
X70330772Y19553229D02*
X69997438Y19553229D01*
X69997438Y19029419D02*
X69997438Y20029419D01*
X70473629Y20029419D01*
X77795619Y20096219D02*
X77224190Y20096219D01*
X77509904Y20096219D02*
X77509904Y21096219D01*
X77414666Y20953362D01*
X77319428Y20858124D01*
X77224190Y20810505D01*
X78414666Y21096219D02*
X78509905Y21096219D01*
X78605143Y21048600D01*
X78652762Y21000981D01*
X78700381Y20905743D01*
X78748000Y20715267D01*
X78748000Y20477171D01*
X78700381Y20286695D01*
X78652762Y20191457D01*
X78605143Y20143838D01*
X78509905Y20096219D01*
X78414666Y20096219D01*
X78319428Y20143838D01*
X78271809Y20191457D01*
X78224190Y20286695D01*
X78176571Y20477171D01*
X78176571Y20715267D01*
X78224190Y20905743D01*
X78271809Y21000981D01*
X78319428Y21048600D01*
X78414666Y21096219D01*
X80367048Y20762886D02*
X80367048Y20096219D01*
X79938476Y20762886D02*
X79938476Y20239076D01*
X79986095Y20143838D01*
X80081333Y20096219D01*
X80224191Y20096219D01*
X80319429Y20143838D01*
X80367048Y20191457D01*
X81176572Y20620029D02*
X80843238Y20620029D01*
X80843238Y20096219D02*
X80843238Y21096219D01*
X81319429Y21096219D01*
X76817790Y31103819D02*
X76913029Y31103819D01*
X77008267Y31056200D01*
X77055886Y31008581D01*
X77103505Y30913343D01*
X77151124Y30722867D01*
X77151124Y30484771D01*
X77103505Y30294295D01*
X77055886Y30199057D01*
X77008267Y30151438D01*
X76913029Y30103819D01*
X76817790Y30103819D01*
X76722552Y30151438D01*
X76674933Y30199057D01*
X76627314Y30294295D01*
X76579695Y30484771D01*
X76579695Y30722867D01*
X76627314Y30913343D01*
X76674933Y31008581D01*
X76722552Y31056200D01*
X76817790Y31103819D01*
X77579695Y30199057D02*
X77627314Y30151438D01*
X77579695Y30103819D01*
X77532076Y30151438D01*
X77579695Y30199057D01*
X77579695Y30103819D01*
X78579695Y30103819D02*
X78008266Y30103819D01*
X78293980Y30103819D02*
X78293980Y31103819D01*
X78198742Y30960962D01*
X78103504Y30865724D01*
X78008266Y30818105D01*
X80198743Y30770486D02*
X80198743Y30103819D01*
X79770171Y30770486D02*
X79770171Y30246676D01*
X79817790Y30151438D01*
X79913028Y30103819D01*
X80055886Y30103819D01*
X80151124Y30151438D01*
X80198743Y30199057D01*
X81008267Y30627629D02*
X80674933Y30627629D01*
X80674933Y30103819D02*
X80674933Y31103819D01*
X81151124Y31103819D01*
X76690790Y27395419D02*
X76786029Y27395419D01*
X76881267Y27347800D01*
X76928886Y27300181D01*
X76976505Y27204943D01*
X77024124Y27014467D01*
X77024124Y26776371D01*
X76976505Y26585895D01*
X76928886Y26490657D01*
X76881267Y26443038D01*
X76786029Y26395419D01*
X76690790Y26395419D01*
X76595552Y26443038D01*
X76547933Y26490657D01*
X76500314Y26585895D01*
X76452695Y26776371D01*
X76452695Y27014467D01*
X76500314Y27204943D01*
X76547933Y27300181D01*
X76595552Y27347800D01*
X76690790Y27395419D01*
X77452695Y26490657D02*
X77500314Y26443038D01*
X77452695Y26395419D01*
X77405076Y26443038D01*
X77452695Y26490657D01*
X77452695Y26395419D01*
X78452695Y26395419D02*
X77881266Y26395419D01*
X78166980Y26395419D02*
X78166980Y27395419D01*
X78071742Y27252562D01*
X77976504Y27157324D01*
X77881266Y27109705D01*
X80071743Y27062086D02*
X80071743Y26395419D01*
X79643171Y27062086D02*
X79643171Y26538276D01*
X79690790Y26443038D01*
X79786028Y26395419D01*
X79928886Y26395419D01*
X80024124Y26443038D01*
X80071743Y26490657D01*
X80881267Y26919229D02*
X80547933Y26919229D01*
X80547933Y26395419D02*
X80547933Y27395419D01*
X81024124Y27395419D01*
X63228790Y21426419D02*
X63324029Y21426419D01*
X63419267Y21378800D01*
X63466886Y21331181D01*
X63514505Y21235943D01*
X63562124Y21045467D01*
X63562124Y20807371D01*
X63514505Y20616895D01*
X63466886Y20521657D01*
X63419267Y20474038D01*
X63324029Y20426419D01*
X63228790Y20426419D01*
X63133552Y20474038D01*
X63085933Y20521657D01*
X63038314Y20616895D01*
X62990695Y20807371D01*
X62990695Y21045467D01*
X63038314Y21235943D01*
X63085933Y21331181D01*
X63133552Y21378800D01*
X63228790Y21426419D01*
X63990695Y20521657D02*
X64038314Y20474038D01*
X63990695Y20426419D01*
X63943076Y20474038D01*
X63990695Y20521657D01*
X63990695Y20426419D01*
X64990695Y20426419D02*
X64419266Y20426419D01*
X64704980Y20426419D02*
X64704980Y21426419D01*
X64609742Y21283562D01*
X64514504Y21188324D01*
X64419266Y21140705D01*
X66609743Y21093086D02*
X66609743Y20426419D01*
X66181171Y21093086D02*
X66181171Y20569276D01*
X66228790Y20474038D01*
X66324028Y20426419D01*
X66466886Y20426419D01*
X66562124Y20474038D01*
X66609743Y20521657D01*
X67419267Y20950229D02*
X67085933Y20950229D01*
X67085933Y20426419D02*
X67085933Y21426419D01*
X67562124Y21426419D01*
X70670990Y23509219D02*
X70766229Y23509219D01*
X70861467Y23461600D01*
X70909086Y23413981D01*
X70956705Y23318743D01*
X71004324Y23128267D01*
X71004324Y22890171D01*
X70956705Y22699695D01*
X70909086Y22604457D01*
X70861467Y22556838D01*
X70766229Y22509219D01*
X70670990Y22509219D01*
X70575752Y22556838D01*
X70528133Y22604457D01*
X70480514Y22699695D01*
X70432895Y22890171D01*
X70432895Y23128267D01*
X70480514Y23318743D01*
X70528133Y23413981D01*
X70575752Y23461600D01*
X70670990Y23509219D01*
X71432895Y22604457D02*
X71480514Y22556838D01*
X71432895Y22509219D01*
X71385276Y22556838D01*
X71432895Y22604457D01*
X71432895Y22509219D01*
X72432895Y22509219D02*
X71861466Y22509219D01*
X72147180Y22509219D02*
X72147180Y23509219D01*
X72051942Y23366362D01*
X71956704Y23271124D01*
X71861466Y23223505D01*
X74051943Y23175886D02*
X74051943Y22509219D01*
X73623371Y23175886D02*
X73623371Y22652076D01*
X73670990Y22556838D01*
X73766228Y22509219D01*
X73909086Y22509219D01*
X74004324Y22556838D01*
X74051943Y22604457D01*
X74861467Y23033029D02*
X74528133Y23033029D01*
X74528133Y22509219D02*
X74528133Y23509219D01*
X75004324Y23509219D01*
X65235390Y22417019D02*
X65330629Y22417019D01*
X65425867Y22369400D01*
X65473486Y22321781D01*
X65521105Y22226543D01*
X65568724Y22036067D01*
X65568724Y21797971D01*
X65521105Y21607495D01*
X65473486Y21512257D01*
X65425867Y21464638D01*
X65330629Y21417019D01*
X65235390Y21417019D01*
X65140152Y21464638D01*
X65092533Y21512257D01*
X65044914Y21607495D01*
X64997295Y21797971D01*
X64997295Y22036067D01*
X65044914Y22226543D01*
X65092533Y22321781D01*
X65140152Y22369400D01*
X65235390Y22417019D01*
X65997295Y21512257D02*
X66044914Y21464638D01*
X65997295Y21417019D01*
X65949676Y21464638D01*
X65997295Y21512257D01*
X65997295Y21417019D01*
X66997295Y21417019D02*
X66425866Y21417019D01*
X66711580Y21417019D02*
X66711580Y22417019D01*
X66616342Y22274162D01*
X66521104Y22178924D01*
X66425866Y22131305D01*
X68616343Y22083686D02*
X68616343Y21417019D01*
X68187771Y22083686D02*
X68187771Y21559876D01*
X68235390Y21464638D01*
X68330628Y21417019D01*
X68473486Y21417019D01*
X68568724Y21464638D01*
X68616343Y21512257D01*
X69425867Y21940829D02*
X69092533Y21940829D01*
X69092533Y21417019D02*
X69092533Y22417019D01*
X69568724Y22417019D01*
X63306699Y17607019D02*
X62735270Y17607019D01*
X63020984Y17607019D02*
X63020984Y18607019D01*
X62925746Y18464162D01*
X62830508Y18368924D01*
X62735270Y18321305D01*
X63925746Y18607019D02*
X64020985Y18607019D01*
X64116223Y18559400D01*
X64163842Y18511781D01*
X64211461Y18416543D01*
X64259080Y18226067D01*
X64259080Y17987971D01*
X64211461Y17797495D01*
X64163842Y17702257D01*
X64116223Y17654638D01*
X64020985Y17607019D01*
X63925746Y17607019D01*
X63830508Y17654638D01*
X63782889Y17702257D01*
X63735270Y17797495D01*
X63687651Y17987971D01*
X63687651Y18226067D01*
X63735270Y18416543D01*
X63782889Y18511781D01*
X63830508Y18559400D01*
X63925746Y18607019D01*
X65878128Y18273686D02*
X65878128Y17607019D01*
X65449556Y18273686D02*
X65449556Y17749876D01*
X65497175Y17654638D01*
X65592413Y17607019D01*
X65735271Y17607019D01*
X65830509Y17654638D01*
X65878128Y17702257D01*
X66687652Y18130829D02*
X66354318Y18130829D01*
X66354318Y17607019D02*
X66354318Y18607019D01*
X66830509Y18607019D01*
X73285339Y19791419D02*
X72713910Y19791419D01*
X72999624Y19791419D02*
X72999624Y20791419D01*
X72904386Y20648562D01*
X72809148Y20553324D01*
X72713910Y20505705D01*
X73904386Y20791419D02*
X73999625Y20791419D01*
X74094863Y20743800D01*
X74142482Y20696181D01*
X74190101Y20600943D01*
X74237720Y20410467D01*
X74237720Y20172371D01*
X74190101Y19981895D01*
X74142482Y19886657D01*
X74094863Y19839038D01*
X73999625Y19791419D01*
X73904386Y19791419D01*
X73809148Y19839038D01*
X73761529Y19886657D01*
X73713910Y19981895D01*
X73666291Y20172371D01*
X73666291Y20410467D01*
X73713910Y20600943D01*
X73761529Y20696181D01*
X73809148Y20743800D01*
X73904386Y20791419D01*
X75856768Y20458086D02*
X75856768Y19791419D01*
X75428196Y20458086D02*
X75428196Y19934276D01*
X75475815Y19839038D01*
X75571053Y19791419D01*
X75713911Y19791419D01*
X75809149Y19839038D01*
X75856768Y19886657D01*
X76666292Y20315229D02*
X76332958Y20315229D01*
X76332958Y19791419D02*
X76332958Y20791419D01*
X76809149Y20791419D01*
X74277790Y33923219D02*
X74373029Y33923219D01*
X74468267Y33875600D01*
X74515886Y33827981D01*
X74563505Y33732743D01*
X74611124Y33542267D01*
X74611124Y33304171D01*
X74563505Y33113695D01*
X74515886Y33018457D01*
X74468267Y32970838D01*
X74373029Y32923219D01*
X74277790Y32923219D01*
X74182552Y32970838D01*
X74134933Y33018457D01*
X74087314Y33113695D01*
X74039695Y33304171D01*
X74039695Y33542267D01*
X74087314Y33732743D01*
X74134933Y33827981D01*
X74182552Y33875600D01*
X74277790Y33923219D01*
X75039695Y33018457D02*
X75087314Y32970838D01*
X75039695Y32923219D01*
X74992076Y32970838D01*
X75039695Y33018457D01*
X75039695Y32923219D01*
X76039695Y32923219D02*
X75468266Y32923219D01*
X75753980Y32923219D02*
X75753980Y33923219D01*
X75658742Y33780362D01*
X75563504Y33685124D01*
X75468266Y33637505D01*
X77658743Y33589886D02*
X77658743Y32923219D01*
X77230171Y33589886D02*
X77230171Y33066076D01*
X77277790Y32970838D01*
X77373028Y32923219D01*
X77515886Y32923219D01*
X77611124Y32970838D01*
X77658743Y33018457D01*
X78468267Y33447029D02*
X78134933Y33447029D01*
X78134933Y32923219D02*
X78134933Y33923219D01*
X78611124Y33923219D01*
X74303190Y23788619D02*
X74398429Y23788619D01*
X74493667Y23741000D01*
X74541286Y23693381D01*
X74588905Y23598143D01*
X74636524Y23407667D01*
X74636524Y23169571D01*
X74588905Y22979095D01*
X74541286Y22883857D01*
X74493667Y22836238D01*
X74398429Y22788619D01*
X74303190Y22788619D01*
X74207952Y22836238D01*
X74160333Y22883857D01*
X74112714Y22979095D01*
X74065095Y23169571D01*
X74065095Y23407667D01*
X74112714Y23598143D01*
X74160333Y23693381D01*
X74207952Y23741000D01*
X74303190Y23788619D01*
X75065095Y22883857D02*
X75112714Y22836238D01*
X75065095Y22788619D01*
X75017476Y22836238D01*
X75065095Y22883857D01*
X75065095Y22788619D01*
X76065095Y22788619D02*
X75493666Y22788619D01*
X75779380Y22788619D02*
X75779380Y23788619D01*
X75684142Y23645762D01*
X75588904Y23550524D01*
X75493666Y23502905D01*
X77684143Y23455286D02*
X77684143Y22788619D01*
X77255571Y23455286D02*
X77255571Y22931476D01*
X77303190Y22836238D01*
X77398428Y22788619D01*
X77541286Y22788619D01*
X77636524Y22836238D01*
X77684143Y22883857D01*
X78493667Y23312429D02*
X78160333Y23312429D01*
X78160333Y22788619D02*
X78160333Y23788619D01*
X78636524Y23788619D01*
X77552705Y18039591D02*
X77600324Y18087210D01*
X77695562Y18134829D01*
X77933658Y18134829D01*
X78028896Y18087210D01*
X78076515Y18039591D01*
X78124134Y17944353D01*
X78124134Y17849115D01*
X78076515Y17706258D01*
X77505086Y17134829D01*
X78124134Y17134829D01*
X78981277Y17801496D02*
X78981277Y17134829D01*
X78743181Y18182448D02*
X78505086Y17468162D01*
X79124134Y17468162D01*
X79695562Y18134829D02*
X79790801Y18134829D01*
X79886039Y18087210D01*
X79933658Y18039591D01*
X79981277Y17944353D01*
X80028896Y17753877D01*
X80028896Y17515781D01*
X79981277Y17325305D01*
X79933658Y17230067D01*
X79886039Y17182448D01*
X79790801Y17134829D01*
X79695562Y17134829D01*
X79600324Y17182448D01*
X79552705Y17230067D01*
X79505086Y17325305D01*
X79457467Y17515781D01*
X79457467Y17753877D01*
X79505086Y17944353D01*
X79552705Y18039591D01*
X79600324Y18087210D01*
X79695562Y18134829D01*
X75469905Y34437581D02*
X75517524Y34485200D01*
X75612762Y34532819D01*
X75850858Y34532819D01*
X75946096Y34485200D01*
X75993715Y34437581D01*
X76041334Y34342343D01*
X76041334Y34247105D01*
X75993715Y34104248D01*
X75422286Y33532819D01*
X76041334Y33532819D01*
X76898477Y34199486D02*
X76898477Y33532819D01*
X76660381Y34580438D02*
X76422286Y33866152D01*
X77041334Y33866152D01*
X77612762Y34532819D02*
X77708001Y34532819D01*
X77803239Y34485200D01*
X77850858Y34437581D01*
X77898477Y34342343D01*
X77946096Y34151867D01*
X77946096Y33913771D01*
X77898477Y33723295D01*
X77850858Y33628057D01*
X77803239Y33580438D01*
X77708001Y33532819D01*
X77612762Y33532819D01*
X77517524Y33580438D01*
X77469905Y33628057D01*
X77422286Y33723295D01*
X77374667Y33913771D01*
X77374667Y34151867D01*
X77422286Y34342343D01*
X77469905Y34437581D01*
X77517524Y34485200D01*
X77612762Y34532819D01*
X33934305Y9323581D02*
X33981924Y9371200D01*
X34077162Y9418819D01*
X34315258Y9418819D01*
X34410496Y9371200D01*
X34458115Y9323581D01*
X34505734Y9228343D01*
X34505734Y9133105D01*
X34458115Y8990248D01*
X33886686Y8418819D01*
X34505734Y8418819D01*
X35362877Y9085486D02*
X35362877Y8418819D01*
X35124781Y9466438D02*
X34886686Y8752152D01*
X35505734Y8752152D01*
X36077162Y9418819D02*
X36172401Y9418819D01*
X36267639Y9371200D01*
X36315258Y9323581D01*
X36362877Y9228343D01*
X36410496Y9037867D01*
X36410496Y8799771D01*
X36362877Y8609295D01*
X36315258Y8514057D01*
X36267639Y8466438D01*
X36172401Y8418819D01*
X36077162Y8418819D01*
X35981924Y8466438D01*
X35934305Y8514057D01*
X35886686Y8609295D01*
X35839067Y8799771D01*
X35839067Y9037867D01*
X35886686Y9228343D01*
X35934305Y9323581D01*
X35981924Y9371200D01*
X36077162Y9418819D01*
X35065105Y9234181D02*
X35112724Y9281800D01*
X35207962Y9329419D01*
X35446058Y9329419D01*
X35541296Y9281800D01*
X35588915Y9234181D01*
X35636534Y9138943D01*
X35636534Y9043705D01*
X35588915Y8900848D01*
X35017486Y8329419D01*
X35636534Y8329419D01*
X36493677Y8996086D02*
X36493677Y8329419D01*
X36255581Y9377038D02*
X36017486Y8662752D01*
X36636534Y8662752D01*
X37207962Y9329419D02*
X37303201Y9329419D01*
X37398439Y9281800D01*
X37446058Y9234181D01*
X37493677Y9138943D01*
X37541296Y8948467D01*
X37541296Y8710371D01*
X37493677Y8519895D01*
X37446058Y8424657D01*
X37398439Y8377038D01*
X37303201Y8329419D01*
X37207962Y8329419D01*
X37112724Y8377038D01*
X37065105Y8424657D01*
X37017486Y8519895D01*
X36969867Y8710371D01*
X36969867Y8948467D01*
X37017486Y9138943D01*
X37065105Y9234181D01*
X37112724Y9281800D01*
X37207962Y9329419D01*
X43084905Y25293581D02*
X43132524Y25341200D01*
X43227762Y25388819D01*
X43465858Y25388819D01*
X43561096Y25341200D01*
X43608715Y25293581D01*
X43656334Y25198343D01*
X43656334Y25103105D01*
X43608715Y24960248D01*
X43037286Y24388819D01*
X43656334Y24388819D01*
X44513477Y25055486D02*
X44513477Y24388819D01*
X44275381Y25436438D02*
X44037286Y24722152D01*
X44656334Y24722152D01*
X45227762Y25388819D02*
X45323001Y25388819D01*
X45418239Y25341200D01*
X45465858Y25293581D01*
X45513477Y25198343D01*
X45561096Y25007867D01*
X45561096Y24769771D01*
X45513477Y24579295D01*
X45465858Y24484057D01*
X45418239Y24436438D01*
X45323001Y24388819D01*
X45227762Y24388819D01*
X45132524Y24436438D01*
X45084905Y24484057D01*
X45037286Y24579295D01*
X44989667Y24769771D01*
X44989667Y25007867D01*
X45037286Y25198343D01*
X45084905Y25293581D01*
X45132524Y25341200D01*
X45227762Y25388819D01*
X28402019Y23120505D02*
X28354400Y23168124D01*
X28306781Y23263362D01*
X28306781Y23501458D01*
X28354400Y23596696D01*
X28402019Y23644315D01*
X28497257Y23691934D01*
X28592495Y23691934D01*
X28735352Y23644315D01*
X29306781Y23072886D01*
X29306781Y23691934D01*
X28640114Y24549077D02*
X29306781Y24549077D01*
X28259162Y24310981D02*
X28973448Y24072886D01*
X28973448Y24691934D01*
X28306781Y25263362D02*
X28306781Y25358601D01*
X28354400Y25453839D01*
X28402019Y25501458D01*
X28497257Y25549077D01*
X28687733Y25596696D01*
X28925829Y25596696D01*
X29116305Y25549077D01*
X29211543Y25501458D01*
X29259162Y25453839D01*
X29306781Y25358601D01*
X29306781Y25263362D01*
X29259162Y25168124D01*
X29211543Y25120505D01*
X29116305Y25072886D01*
X28925829Y25025267D01*
X28687733Y25025267D01*
X28497257Y25072886D01*
X28402019Y25120505D01*
X28354400Y25168124D01*
X28306781Y25263362D01*
X30232505Y84958181D02*
X30280124Y85005800D01*
X30375362Y85053419D01*
X30613458Y85053419D01*
X30708696Y85005800D01*
X30756315Y84958181D01*
X30803934Y84862943D01*
X30803934Y84767705D01*
X30756315Y84624848D01*
X30184886Y84053419D01*
X30803934Y84053419D01*
X31661077Y84720086D02*
X31661077Y84053419D01*
X31422981Y85101038D02*
X31184886Y84386752D01*
X31803934Y84386752D01*
X32375362Y85053419D02*
X32470601Y85053419D01*
X32565839Y85005800D01*
X32613458Y84958181D01*
X32661077Y84862943D01*
X32708696Y84672467D01*
X32708696Y84434371D01*
X32661077Y84243895D01*
X32613458Y84148657D01*
X32565839Y84101038D01*
X32470601Y84053419D01*
X32375362Y84053419D01*
X32280124Y84101038D01*
X32232505Y84148657D01*
X32184886Y84243895D01*
X32137267Y84434371D01*
X32137267Y84672467D01*
X32184886Y84862943D01*
X32232505Y84958181D01*
X32280124Y85005800D01*
X32375362Y85053419D01*
X30232505Y68956181D02*
X30280124Y69003800D01*
X30375362Y69051419D01*
X30613458Y69051419D01*
X30708696Y69003800D01*
X30756315Y68956181D01*
X30803934Y68860943D01*
X30803934Y68765705D01*
X30756315Y68622848D01*
X30184886Y68051419D01*
X30803934Y68051419D01*
X31661077Y68718086D02*
X31661077Y68051419D01*
X31422981Y69099038D02*
X31184886Y68384752D01*
X31803934Y68384752D01*
X32375362Y69051419D02*
X32470601Y69051419D01*
X32565839Y69003800D01*
X32613458Y68956181D01*
X32661077Y68860943D01*
X32708696Y68670467D01*
X32708696Y68432371D01*
X32661077Y68241895D01*
X32613458Y68146657D01*
X32565839Y68099038D01*
X32470601Y68051419D01*
X32375362Y68051419D01*
X32280124Y68099038D01*
X32232505Y68146657D01*
X32184886Y68241895D01*
X32137267Y68432371D01*
X32137267Y68670467D01*
X32184886Y68860943D01*
X32232505Y68956181D01*
X32280124Y69003800D01*
X32375362Y69051419D01*
X30232505Y52573181D02*
X30280124Y52620800D01*
X30375362Y52668419D01*
X30613458Y52668419D01*
X30708696Y52620800D01*
X30756315Y52573181D01*
X30803934Y52477943D01*
X30803934Y52382705D01*
X30756315Y52239848D01*
X30184886Y51668419D01*
X30803934Y51668419D01*
X31661077Y52335086D02*
X31661077Y51668419D01*
X31422981Y52716038D02*
X31184886Y52001752D01*
X31803934Y52001752D01*
X32375362Y52668419D02*
X32470601Y52668419D01*
X32565839Y52620800D01*
X32613458Y52573181D01*
X32661077Y52477943D01*
X32708696Y52287467D01*
X32708696Y52049371D01*
X32661077Y51858895D01*
X32613458Y51763657D01*
X32565839Y51716038D01*
X32470601Y51668419D01*
X32375362Y51668419D01*
X32280124Y51716038D01*
X32232505Y51763657D01*
X32184886Y51858895D01*
X32137267Y52049371D01*
X32137267Y52287467D01*
X32184886Y52477943D01*
X32232505Y52573181D01*
X32280124Y52620800D01*
X32375362Y52668419D01*
X67770381Y35015419D02*
X67865620Y35015419D01*
X67960858Y34967800D01*
X68008477Y34920181D01*
X68056096Y34824943D01*
X68103715Y34634467D01*
X68103715Y34396371D01*
X68056096Y34205895D01*
X68008477Y34110657D01*
X67960858Y34063038D01*
X67865620Y34015419D01*
X67770381Y34015419D01*
X67675143Y34063038D01*
X67627524Y34110657D01*
X67579905Y34205895D01*
X67532286Y34396371D01*
X67532286Y34634467D01*
X67579905Y34824943D01*
X67627524Y34920181D01*
X67675143Y34967800D01*
X67770381Y35015419D01*
X67836171Y18048219D02*
X67931410Y18048219D01*
X68026648Y18000600D01*
X68074267Y17952981D01*
X68121886Y17857743D01*
X68169505Y17667267D01*
X68169505Y17429171D01*
X68121886Y17238695D01*
X68074267Y17143457D01*
X68026648Y17095838D01*
X67931410Y17048219D01*
X67836171Y17048219D01*
X67740933Y17095838D01*
X67693314Y17143457D01*
X67645695Y17238695D01*
X67598076Y17429171D01*
X67598076Y17667267D01*
X67645695Y17857743D01*
X67693314Y17952981D01*
X67740933Y18000600D01*
X67836171Y18048219D01*
X58275553Y22839419D02*
X57704124Y22839419D01*
X57989838Y22839419D02*
X57989838Y23839419D01*
X57894600Y23696562D01*
X57799362Y23601324D01*
X57704124Y23553705D01*
X58704124Y22839419D02*
X58704124Y23839419D01*
X58799362Y23220371D02*
X59085077Y22839419D01*
X59085077Y23506086D02*
X58704124Y23125133D01*
X58456629Y23531486D02*
X58456629Y22864819D01*
X58218533Y23912438D02*
X57980438Y23198152D01*
X58599486Y23198152D01*
X58980438Y22960057D02*
X59028057Y22912438D01*
X58980438Y22864819D01*
X58932819Y22912438D01*
X58980438Y22960057D01*
X58980438Y22864819D01*
X59361390Y23864819D02*
X60028057Y23864819D01*
X59599485Y22864819D01*
X60409009Y22864819D02*
X60409009Y23864819D01*
X60504247Y23245771D02*
X60789962Y22864819D01*
X60789962Y23531486D02*
X60409009Y23150533D01*
X62571286Y25862019D02*
X62571286Y26862019D01*
X63142715Y25862019D01*
X63142715Y26862019D01*
X63809381Y26862019D02*
X63999858Y26862019D01*
X64095096Y26814400D01*
X64190334Y26719162D01*
X64237953Y26528686D01*
X64237953Y26195352D01*
X64190334Y26004876D01*
X64095096Y25909638D01*
X63999858Y25862019D01*
X63809381Y25862019D01*
X63714143Y25909638D01*
X63618905Y26004876D01*
X63571286Y26195352D01*
X63571286Y26528686D01*
X63618905Y26719162D01*
X63714143Y26814400D01*
X63809381Y26862019D01*
X64666524Y25862019D02*
X64666524Y26862019D01*
X65237953Y25862019D01*
X65237953Y26862019D01*
X65714143Y26385829D02*
X66047477Y26385829D01*
X66190334Y25862019D02*
X65714143Y25862019D01*
X65714143Y26862019D01*
X66190334Y26862019D01*
X61672553Y25912819D02*
X61101124Y25912819D01*
X61386838Y25912819D02*
X61386838Y26912819D01*
X61291600Y26769962D01*
X61196362Y26674724D01*
X61101124Y26627105D01*
X62101124Y25912819D02*
X62101124Y26912819D01*
X62196362Y26293771D02*
X62482077Y25912819D01*
X62482077Y26579486D02*
X62101124Y26198533D01*
X62545886Y27767019D02*
X62545886Y28767019D01*
X63117315Y27767019D01*
X63117315Y28767019D01*
X63783981Y28767019D02*
X63974458Y28767019D01*
X64069696Y28719400D01*
X64164934Y28624162D01*
X64212553Y28433686D01*
X64212553Y28100352D01*
X64164934Y27909876D01*
X64069696Y27814638D01*
X63974458Y27767019D01*
X63783981Y27767019D01*
X63688743Y27814638D01*
X63593505Y27909876D01*
X63545886Y28100352D01*
X63545886Y28433686D01*
X63593505Y28624162D01*
X63688743Y28719400D01*
X63783981Y28767019D01*
X64641124Y27767019D02*
X64641124Y28767019D01*
X65212553Y27767019D01*
X65212553Y28767019D01*
X65688743Y28290829D02*
X66022077Y28290829D01*
X66164934Y27767019D02*
X65688743Y27767019D01*
X65688743Y28767019D01*
X66164934Y28767019D01*
X62596686Y28681419D02*
X62596686Y29681419D01*
X63168115Y28681419D01*
X63168115Y29681419D01*
X63834781Y29681419D02*
X64025258Y29681419D01*
X64120496Y29633800D01*
X64215734Y29538562D01*
X64263353Y29348086D01*
X64263353Y29014752D01*
X64215734Y28824276D01*
X64120496Y28729038D01*
X64025258Y28681419D01*
X63834781Y28681419D01*
X63739543Y28729038D01*
X63644305Y28824276D01*
X63596686Y29014752D01*
X63596686Y29348086D01*
X63644305Y29538562D01*
X63739543Y29633800D01*
X63834781Y29681419D01*
X64691924Y28681419D02*
X64691924Y29681419D01*
X65263353Y28681419D01*
X65263353Y29681419D01*
X65739543Y29205229D02*
X66072877Y29205229D01*
X66215734Y28681419D02*
X65739543Y28681419D01*
X65739543Y29681419D01*
X66215734Y29681419D01*
X63787162Y29595819D02*
X63215733Y29595819D01*
X63501447Y29595819D02*
X63501447Y30595819D01*
X63406209Y30452962D01*
X63310971Y30357724D01*
X63215733Y30310105D01*
X64406209Y30595819D02*
X64501448Y30595819D01*
X64596686Y30548200D01*
X64644305Y30500581D01*
X64691924Y30405343D01*
X64739543Y30214867D01*
X64739543Y29976771D01*
X64691924Y29786295D01*
X64644305Y29691057D01*
X64596686Y29643438D01*
X64501448Y29595819D01*
X64406209Y29595819D01*
X64310971Y29643438D01*
X64263352Y29691057D01*
X64215733Y29786295D01*
X64168114Y29976771D01*
X64168114Y30214867D01*
X64215733Y30405343D01*
X64263352Y30500581D01*
X64310971Y30548200D01*
X64406209Y30595819D01*
X65168114Y29595819D02*
X65168114Y30595819D01*
X65263352Y29976771D02*
X65549067Y29595819D01*
X65549067Y30262486D02*
X65168114Y29881533D01*
X63761762Y30637219D02*
X63190333Y30637219D01*
X63476047Y30637219D02*
X63476047Y31637219D01*
X63380809Y31494362D01*
X63285571Y31399124D01*
X63190333Y31351505D01*
X64380809Y31637219D02*
X64476048Y31637219D01*
X64571286Y31589600D01*
X64618905Y31541981D01*
X64666524Y31446743D01*
X64714143Y31256267D01*
X64714143Y31018171D01*
X64666524Y30827695D01*
X64618905Y30732457D01*
X64571286Y30684838D01*
X64476048Y30637219D01*
X64380809Y30637219D01*
X64285571Y30684838D01*
X64237952Y30732457D01*
X64190333Y30827695D01*
X64142714Y31018171D01*
X64142714Y31256267D01*
X64190333Y31446743D01*
X64237952Y31541981D01*
X64285571Y31589600D01*
X64380809Y31637219D01*
X65142714Y30637219D02*
X65142714Y31637219D01*
X65237952Y31018171D02*
X65523667Y30637219D01*
X65523667Y31303886D02*
X65142714Y30922933D01*
X61647153Y27843219D02*
X61075724Y27843219D01*
X61361438Y27843219D02*
X61361438Y28843219D01*
X61266200Y28700362D01*
X61170962Y28605124D01*
X61075724Y28557505D01*
X62075724Y27843219D02*
X62075724Y28843219D01*
X62170962Y28224171D02*
X62456677Y27843219D01*
X62456677Y28509886D02*
X62075724Y28128933D01*
X61621753Y28833819D02*
X61050324Y28833819D01*
X61336038Y28833819D02*
X61336038Y29833819D01*
X61240800Y29690962D01*
X61145562Y29595724D01*
X61050324Y29548105D01*
X62050324Y28833819D02*
X62050324Y29833819D01*
X62145562Y29214771D02*
X62431277Y28833819D01*
X62431277Y29500486D02*
X62050324Y29119533D01*
X59955086Y29722819D02*
X59955086Y30722819D01*
X60526515Y29722819D01*
X60526515Y30722819D01*
X61193181Y30722819D02*
X61383658Y30722819D01*
X61478896Y30675200D01*
X61574134Y30579962D01*
X61621753Y30389486D01*
X61621753Y30056152D01*
X61574134Y29865676D01*
X61478896Y29770438D01*
X61383658Y29722819D01*
X61193181Y29722819D01*
X61097943Y29770438D01*
X61002705Y29865676D01*
X60955086Y30056152D01*
X60955086Y30389486D01*
X61002705Y30579962D01*
X61097943Y30675200D01*
X61193181Y30722819D01*
X62050324Y29722819D02*
X62050324Y30722819D01*
X62621753Y29722819D01*
X62621753Y30722819D01*
X63097943Y30246629D02*
X63431277Y30246629D01*
X63574134Y29722819D02*
X63097943Y29722819D01*
X63097943Y30722819D01*
X63574134Y30722819D01*
X59987086Y30688019D02*
X59987086Y31688019D01*
X60558515Y30688019D01*
X60558515Y31688019D01*
X61225181Y31688019D02*
X61415658Y31688019D01*
X61510896Y31640400D01*
X61606134Y31545162D01*
X61653753Y31354686D01*
X61653753Y31021352D01*
X61606134Y30830876D01*
X61510896Y30735638D01*
X61415658Y30688019D01*
X61225181Y30688019D01*
X61129943Y30735638D01*
X61034705Y30830876D01*
X60987086Y31021352D01*
X60987086Y31354686D01*
X61034705Y31545162D01*
X61129943Y31640400D01*
X61225181Y31688019D01*
X62082324Y30688019D02*
X62082324Y31688019D01*
X62653753Y30688019D01*
X62653753Y31688019D01*
X63129943Y31211829D02*
X63463277Y31211829D01*
X63606134Y30688019D02*
X63129943Y30688019D01*
X63129943Y31688019D01*
X63606134Y31688019D01*
X62571286Y26827219D02*
X62571286Y27827219D01*
X63142715Y26827219D01*
X63142715Y27827219D01*
X63809381Y27827219D02*
X63999858Y27827219D01*
X64095096Y27779600D01*
X64190334Y27684362D01*
X64237953Y27493886D01*
X64237953Y27160552D01*
X64190334Y26970076D01*
X64095096Y26874838D01*
X63999858Y26827219D01*
X63809381Y26827219D01*
X63714143Y26874838D01*
X63618905Y26970076D01*
X63571286Y27160552D01*
X63571286Y27493886D01*
X63618905Y27684362D01*
X63714143Y27779600D01*
X63809381Y27827219D01*
X64666524Y26827219D02*
X64666524Y27827219D01*
X65237953Y26827219D01*
X65237953Y27827219D01*
X65714143Y27351029D02*
X66047477Y27351029D01*
X66190334Y26827219D02*
X65714143Y26827219D01*
X65714143Y27827219D01*
X66190334Y27827219D01*
X61647153Y26903419D02*
X61075724Y26903419D01*
X61361438Y26903419D02*
X61361438Y27903419D01*
X61266200Y27760562D01*
X61170962Y27665324D01*
X61075724Y27617705D01*
X62075724Y26903419D02*
X62075724Y27903419D01*
X62170962Y27284371D02*
X62456677Y26903419D01*
X62456677Y27570086D02*
X62075724Y27189133D01*
M02*
