G04 #@! TF.FileFunction,Legend,Bot*
%FSLAX46Y46*%
G04 Gerber Fmt 4.6, Leading zero omitted, Abs format (unit mm)*
G04 Created by KiCad (PCBNEW 4.0.5) date Sat Apr  8 15:14:58 2017*
%MOMM*%
%LPD*%
G01*
G04 APERTURE LIST*
%ADD10C,0.100000*%
%ADD11C,0.120000*%
G04 APERTURE END LIST*
D10*
D11*
X46422743Y17936000D02*
X46448457Y17906000D01*
X46525600Y17876000D01*
X46577029Y17876000D01*
X46654172Y17906000D01*
X46705600Y17966000D01*
X46731315Y18026000D01*
X46757029Y18146000D01*
X46757029Y18236000D01*
X46731315Y18356000D01*
X46705600Y18416000D01*
X46654172Y18476000D01*
X46577029Y18506000D01*
X46525600Y18506000D01*
X46448457Y18476000D01*
X46422743Y18446000D01*
X45934172Y18506000D02*
X46191315Y18506000D01*
X46217029Y18206000D01*
X46191315Y18236000D01*
X46139886Y18266000D01*
X46011315Y18266000D01*
X45959886Y18236000D01*
X45934172Y18206000D01*
X45908457Y18146000D01*
X45908457Y17996000D01*
X45934172Y17936000D01*
X45959886Y17906000D01*
X46011315Y17876000D01*
X46139886Y17876000D01*
X46191315Y17906000D01*
X46217029Y17936000D01*
X45651314Y17876000D02*
X45548457Y17876000D01*
X45497029Y17906000D01*
X45471314Y17936000D01*
X45419886Y18026000D01*
X45394171Y18146000D01*
X45394171Y18386000D01*
X45419886Y18446000D01*
X45445600Y18476000D01*
X45497029Y18506000D01*
X45599886Y18506000D01*
X45651314Y18476000D01*
X45677029Y18446000D01*
X45702743Y18386000D01*
X45702743Y18236000D01*
X45677029Y18176000D01*
X45651314Y18146000D01*
X45599886Y18116000D01*
X45497029Y18116000D01*
X45445600Y18146000D01*
X45419886Y18176000D01*
X45394171Y18236000D01*
X46524343Y18825000D02*
X46550057Y18795000D01*
X46627200Y18765000D01*
X46678629Y18765000D01*
X46755772Y18795000D01*
X46807200Y18855000D01*
X46832915Y18915000D01*
X46858629Y19035000D01*
X46858629Y19125000D01*
X46832915Y19245000D01*
X46807200Y19305000D01*
X46755772Y19365000D01*
X46678629Y19395000D01*
X46627200Y19395000D01*
X46550057Y19365000D01*
X46524343Y19335000D01*
X46061486Y19395000D02*
X46164343Y19395000D01*
X46215772Y19365000D01*
X46241486Y19335000D01*
X46292915Y19245000D01*
X46318629Y19125000D01*
X46318629Y18885000D01*
X46292915Y18825000D01*
X46267200Y18795000D01*
X46215772Y18765000D01*
X46112915Y18765000D01*
X46061486Y18795000D01*
X46035772Y18825000D01*
X46010057Y18885000D01*
X46010057Y19035000D01*
X46035772Y19095000D01*
X46061486Y19125000D01*
X46112915Y19155000D01*
X46215772Y19155000D01*
X46267200Y19125000D01*
X46292915Y19095000D01*
X46318629Y19035000D01*
X45830057Y19395000D02*
X45495771Y19395000D01*
X45675771Y19155000D01*
X45598629Y19155000D01*
X45547200Y19125000D01*
X45521486Y19095000D01*
X45495771Y19035000D01*
X45495771Y18885000D01*
X45521486Y18825000D01*
X45547200Y18795000D01*
X45598629Y18765000D01*
X45752914Y18765000D01*
X45804343Y18795000D01*
X45830057Y18825000D01*
X41622143Y21441200D02*
X41647857Y21411200D01*
X41725000Y21381200D01*
X41776429Y21381200D01*
X41853572Y21411200D01*
X41905000Y21471200D01*
X41930715Y21531200D01*
X41956429Y21651200D01*
X41956429Y21741200D01*
X41930715Y21861200D01*
X41905000Y21921200D01*
X41853572Y21981200D01*
X41776429Y22011200D01*
X41725000Y22011200D01*
X41647857Y21981200D01*
X41622143Y21951200D01*
X41159286Y22011200D02*
X41262143Y22011200D01*
X41313572Y21981200D01*
X41339286Y21951200D01*
X41390715Y21861200D01*
X41416429Y21741200D01*
X41416429Y21501200D01*
X41390715Y21441200D01*
X41365000Y21411200D01*
X41313572Y21381200D01*
X41210715Y21381200D01*
X41159286Y21411200D01*
X41133572Y21441200D01*
X41107857Y21501200D01*
X41107857Y21651200D01*
X41133572Y21711200D01*
X41159286Y21741200D01*
X41210715Y21771200D01*
X41313572Y21771200D01*
X41365000Y21741200D01*
X41390715Y21711200D01*
X41416429Y21651200D01*
X40619286Y22011200D02*
X40876429Y22011200D01*
X40902143Y21711200D01*
X40876429Y21741200D01*
X40825000Y21771200D01*
X40696429Y21771200D01*
X40645000Y21741200D01*
X40619286Y21711200D01*
X40593571Y21651200D01*
X40593571Y21501200D01*
X40619286Y21441200D01*
X40645000Y21411200D01*
X40696429Y21381200D01*
X40825000Y21381200D01*
X40876429Y21411200D01*
X40902143Y21441200D01*
X67558686Y56798000D02*
X67584400Y56768000D01*
X67661543Y56738000D01*
X67712972Y56738000D01*
X67790115Y56768000D01*
X67841543Y56828000D01*
X67867258Y56888000D01*
X67892972Y57008000D01*
X67892972Y57098000D01*
X67867258Y57218000D01*
X67841543Y57278000D01*
X67790115Y57338000D01*
X67712972Y57368000D01*
X67661543Y57368000D01*
X67584400Y57338000D01*
X67558686Y57308000D01*
X67044400Y56738000D02*
X67352972Y56738000D01*
X67198686Y56738000D02*
X67198686Y57368000D01*
X67250115Y57278000D01*
X67301543Y57218000D01*
X67352972Y57188000D01*
X66581543Y57158000D02*
X66581543Y56738000D01*
X66710114Y57398000D02*
X66838686Y56948000D01*
X66504400Y56948000D01*
X66015828Y56738000D02*
X66324400Y56738000D01*
X66170114Y56738000D02*
X66170114Y57368000D01*
X66221543Y57278000D01*
X66272971Y57218000D01*
X66324400Y57188000D01*
X64205886Y56239200D02*
X64231600Y56209200D01*
X64308743Y56179200D01*
X64360172Y56179200D01*
X64437315Y56209200D01*
X64488743Y56269200D01*
X64514458Y56329200D01*
X64540172Y56449200D01*
X64540172Y56539200D01*
X64514458Y56659200D01*
X64488743Y56719200D01*
X64437315Y56779200D01*
X64360172Y56809200D01*
X64308743Y56809200D01*
X64231600Y56779200D01*
X64205886Y56749200D01*
X63691600Y56179200D02*
X64000172Y56179200D01*
X63845886Y56179200D02*
X63845886Y56809200D01*
X63897315Y56719200D01*
X63948743Y56659200D01*
X64000172Y56629200D01*
X63228743Y56599200D02*
X63228743Y56179200D01*
X63357314Y56839200D02*
X63485886Y56389200D01*
X63151600Y56389200D01*
X62971600Y56749200D02*
X62945886Y56779200D01*
X62894457Y56809200D01*
X62765886Y56809200D01*
X62714457Y56779200D01*
X62688743Y56749200D01*
X62663028Y56689200D01*
X62663028Y56629200D01*
X62688743Y56539200D01*
X62997314Y56179200D01*
X62663028Y56179200D01*
X61767486Y62386000D02*
X61793200Y62356000D01*
X61870343Y62326000D01*
X61921772Y62326000D01*
X61998915Y62356000D01*
X62050343Y62416000D01*
X62076058Y62476000D01*
X62101772Y62596000D01*
X62101772Y62686000D01*
X62076058Y62806000D01*
X62050343Y62866000D01*
X61998915Y62926000D01*
X61921772Y62956000D01*
X61870343Y62956000D01*
X61793200Y62926000D01*
X61767486Y62896000D01*
X61253200Y62326000D02*
X61561772Y62326000D01*
X61407486Y62326000D02*
X61407486Y62956000D01*
X61458915Y62866000D01*
X61510343Y62806000D01*
X61561772Y62776000D01*
X60790343Y62746000D02*
X60790343Y62326000D01*
X60918914Y62986000D02*
X61047486Y62536000D01*
X60713200Y62536000D01*
X60558914Y62956000D02*
X60224628Y62956000D01*
X60404628Y62716000D01*
X60327486Y62716000D01*
X60276057Y62686000D01*
X60250343Y62656000D01*
X60224628Y62596000D01*
X60224628Y62446000D01*
X60250343Y62386000D01*
X60276057Y62356000D01*
X60327486Y62326000D01*
X60481771Y62326000D01*
X60533200Y62356000D01*
X60558914Y62386000D01*
X64637686Y51133800D02*
X64663400Y51103800D01*
X64740543Y51073800D01*
X64791972Y51073800D01*
X64869115Y51103800D01*
X64920543Y51163800D01*
X64946258Y51223800D01*
X64971972Y51343800D01*
X64971972Y51433800D01*
X64946258Y51553800D01*
X64920543Y51613800D01*
X64869115Y51673800D01*
X64791972Y51703800D01*
X64740543Y51703800D01*
X64663400Y51673800D01*
X64637686Y51643800D01*
X64123400Y51073800D02*
X64431972Y51073800D01*
X64277686Y51073800D02*
X64277686Y51703800D01*
X64329115Y51613800D01*
X64380543Y51553800D01*
X64431972Y51523800D01*
X63660543Y51493800D02*
X63660543Y51073800D01*
X63789114Y51733800D02*
X63917686Y51283800D01*
X63583400Y51283800D01*
X63146257Y51493800D02*
X63146257Y51073800D01*
X63274828Y51733800D02*
X63403400Y51283800D01*
X63069114Y51283800D01*
X59887886Y54181800D02*
X59913600Y54151800D01*
X59990743Y54121800D01*
X60042172Y54121800D01*
X60119315Y54151800D01*
X60170743Y54211800D01*
X60196458Y54271800D01*
X60222172Y54391800D01*
X60222172Y54481800D01*
X60196458Y54601800D01*
X60170743Y54661800D01*
X60119315Y54721800D01*
X60042172Y54751800D01*
X59990743Y54751800D01*
X59913600Y54721800D01*
X59887886Y54691800D01*
X59373600Y54121800D02*
X59682172Y54121800D01*
X59527886Y54121800D02*
X59527886Y54751800D01*
X59579315Y54661800D01*
X59630743Y54601800D01*
X59682172Y54571800D01*
X58910743Y54541800D02*
X58910743Y54121800D01*
X59039314Y54781800D02*
X59167886Y54331800D01*
X58833600Y54331800D01*
X58370743Y54751800D02*
X58627886Y54751800D01*
X58653600Y54451800D01*
X58627886Y54481800D01*
X58576457Y54511800D01*
X58447886Y54511800D01*
X58396457Y54481800D01*
X58370743Y54451800D01*
X58345028Y54391800D01*
X58345028Y54241800D01*
X58370743Y54181800D01*
X58396457Y54151800D01*
X58447886Y54121800D01*
X58576457Y54121800D01*
X58627886Y54151800D01*
X58653600Y54181800D01*
X59938686Y57331400D02*
X59964400Y57301400D01*
X60041543Y57271400D01*
X60092972Y57271400D01*
X60170115Y57301400D01*
X60221543Y57361400D01*
X60247258Y57421400D01*
X60272972Y57541400D01*
X60272972Y57631400D01*
X60247258Y57751400D01*
X60221543Y57811400D01*
X60170115Y57871400D01*
X60092972Y57901400D01*
X60041543Y57901400D01*
X59964400Y57871400D01*
X59938686Y57841400D01*
X59424400Y57271400D02*
X59732972Y57271400D01*
X59578686Y57271400D02*
X59578686Y57901400D01*
X59630115Y57811400D01*
X59681543Y57751400D01*
X59732972Y57721400D01*
X58961543Y57691400D02*
X58961543Y57271400D01*
X59090114Y57931400D02*
X59218686Y57481400D01*
X58884400Y57481400D01*
X58447257Y57901400D02*
X58550114Y57901400D01*
X58601543Y57871400D01*
X58627257Y57841400D01*
X58678686Y57751400D01*
X58704400Y57631400D01*
X58704400Y57391400D01*
X58678686Y57331400D01*
X58652971Y57301400D01*
X58601543Y57271400D01*
X58498686Y57271400D01*
X58447257Y57301400D01*
X58421543Y57331400D01*
X58395828Y57391400D01*
X58395828Y57541400D01*
X58421543Y57601400D01*
X58447257Y57631400D01*
X58498686Y57661400D01*
X58601543Y57661400D01*
X58652971Y57631400D01*
X58678686Y57601400D01*
X58704400Y57541400D01*
X57474886Y63884600D02*
X57500600Y63854600D01*
X57577743Y63824600D01*
X57629172Y63824600D01*
X57706315Y63854600D01*
X57757743Y63914600D01*
X57783458Y63974600D01*
X57809172Y64094600D01*
X57809172Y64184600D01*
X57783458Y64304600D01*
X57757743Y64364600D01*
X57706315Y64424600D01*
X57629172Y64454600D01*
X57577743Y64454600D01*
X57500600Y64424600D01*
X57474886Y64394600D01*
X56960600Y63824600D02*
X57269172Y63824600D01*
X57114886Y63824600D02*
X57114886Y64454600D01*
X57166315Y64364600D01*
X57217743Y64304600D01*
X57269172Y64274600D01*
X56497743Y64244600D02*
X56497743Y63824600D01*
X56626314Y64484600D02*
X56754886Y64034600D01*
X56420600Y64034600D01*
X56266314Y64454600D02*
X55906314Y64454600D01*
X56137743Y63824600D01*
X65755286Y62182800D02*
X65781000Y62152800D01*
X65858143Y62122800D01*
X65909572Y62122800D01*
X65986715Y62152800D01*
X66038143Y62212800D01*
X66063858Y62272800D01*
X66089572Y62392800D01*
X66089572Y62482800D01*
X66063858Y62602800D01*
X66038143Y62662800D01*
X65986715Y62722800D01*
X65909572Y62752800D01*
X65858143Y62752800D01*
X65781000Y62722800D01*
X65755286Y62692800D01*
X65241000Y62122800D02*
X65549572Y62122800D01*
X65395286Y62122800D02*
X65395286Y62752800D01*
X65446715Y62662800D01*
X65498143Y62602800D01*
X65549572Y62572800D01*
X64778143Y62542800D02*
X64778143Y62122800D01*
X64906714Y62782800D02*
X65035286Y62332800D01*
X64701000Y62332800D01*
X64418143Y62482800D02*
X64469571Y62512800D01*
X64495286Y62542800D01*
X64521000Y62602800D01*
X64521000Y62632800D01*
X64495286Y62692800D01*
X64469571Y62722800D01*
X64418143Y62752800D01*
X64315286Y62752800D01*
X64263857Y62722800D01*
X64238143Y62692800D01*
X64212428Y62632800D01*
X64212428Y62602800D01*
X64238143Y62542800D01*
X64263857Y62512800D01*
X64315286Y62482800D01*
X64418143Y62482800D01*
X64469571Y62452800D01*
X64495286Y62422800D01*
X64521000Y62362800D01*
X64521000Y62242800D01*
X64495286Y62182800D01*
X64469571Y62152800D01*
X64418143Y62122800D01*
X64315286Y62122800D01*
X64263857Y62152800D01*
X64238143Y62182800D01*
X64212428Y62242800D01*
X64212428Y62362800D01*
X64238143Y62422800D01*
X64263857Y62452800D01*
X64315286Y62482800D01*
X73502286Y56188400D02*
X73528000Y56158400D01*
X73605143Y56128400D01*
X73656572Y56128400D01*
X73733715Y56158400D01*
X73785143Y56218400D01*
X73810858Y56278400D01*
X73836572Y56398400D01*
X73836572Y56488400D01*
X73810858Y56608400D01*
X73785143Y56668400D01*
X73733715Y56728400D01*
X73656572Y56758400D01*
X73605143Y56758400D01*
X73528000Y56728400D01*
X73502286Y56698400D01*
X72988000Y56128400D02*
X73296572Y56128400D01*
X73142286Y56128400D02*
X73142286Y56758400D01*
X73193715Y56668400D01*
X73245143Y56608400D01*
X73296572Y56578400D01*
X72525143Y56548400D02*
X72525143Y56128400D01*
X72653714Y56788400D02*
X72782286Y56338400D01*
X72448000Y56338400D01*
X72216571Y56128400D02*
X72113714Y56128400D01*
X72062286Y56158400D01*
X72036571Y56188400D01*
X71985143Y56278400D01*
X71959428Y56398400D01*
X71959428Y56638400D01*
X71985143Y56698400D01*
X72010857Y56728400D01*
X72062286Y56758400D01*
X72165143Y56758400D01*
X72216571Y56728400D01*
X72242286Y56698400D01*
X72268000Y56638400D01*
X72268000Y56488400D01*
X72242286Y56428400D01*
X72216571Y56398400D01*
X72165143Y56368400D01*
X72062286Y56368400D01*
X72010857Y56398400D01*
X71985143Y56428400D01*
X71959428Y56488400D01*
X54884086Y67161200D02*
X54909800Y67131200D01*
X54986943Y67101200D01*
X55038372Y67101200D01*
X55115515Y67131200D01*
X55166943Y67191200D01*
X55192658Y67251200D01*
X55218372Y67371200D01*
X55218372Y67461200D01*
X55192658Y67581200D01*
X55166943Y67641200D01*
X55115515Y67701200D01*
X55038372Y67731200D01*
X54986943Y67731200D01*
X54909800Y67701200D01*
X54884086Y67671200D01*
X54369800Y67101200D02*
X54678372Y67101200D01*
X54524086Y67101200D02*
X54524086Y67731200D01*
X54575515Y67641200D01*
X54626943Y67581200D01*
X54678372Y67551200D01*
X53881229Y67731200D02*
X54138372Y67731200D01*
X54164086Y67431200D01*
X54138372Y67461200D01*
X54086943Y67491200D01*
X53958372Y67491200D01*
X53906943Y67461200D01*
X53881229Y67431200D01*
X53855514Y67371200D01*
X53855514Y67221200D01*
X53881229Y67161200D01*
X53906943Y67131200D01*
X53958372Y67101200D01*
X54086943Y67101200D01*
X54138372Y67131200D01*
X54164086Y67161200D01*
X53521228Y67731200D02*
X53469800Y67731200D01*
X53418371Y67701200D01*
X53392657Y67671200D01*
X53366943Y67611200D01*
X53341228Y67491200D01*
X53341228Y67341200D01*
X53366943Y67221200D01*
X53392657Y67161200D01*
X53418371Y67131200D01*
X53469800Y67101200D01*
X53521228Y67101200D01*
X53572657Y67131200D01*
X53598371Y67161200D01*
X53624086Y67221200D01*
X53649800Y67341200D01*
X53649800Y67491200D01*
X53624086Y67611200D01*
X53598371Y67671200D01*
X53572657Y67701200D01*
X53521228Y67731200D01*
X60573686Y67745400D02*
X60599400Y67715400D01*
X60676543Y67685400D01*
X60727972Y67685400D01*
X60805115Y67715400D01*
X60856543Y67775400D01*
X60882258Y67835400D01*
X60907972Y67955400D01*
X60907972Y68045400D01*
X60882258Y68165400D01*
X60856543Y68225400D01*
X60805115Y68285400D01*
X60727972Y68315400D01*
X60676543Y68315400D01*
X60599400Y68285400D01*
X60573686Y68255400D01*
X60059400Y67685400D02*
X60367972Y67685400D01*
X60213686Y67685400D02*
X60213686Y68315400D01*
X60265115Y68225400D01*
X60316543Y68165400D01*
X60367972Y68135400D01*
X59570829Y68315400D02*
X59827972Y68315400D01*
X59853686Y68015400D01*
X59827972Y68045400D01*
X59776543Y68075400D01*
X59647972Y68075400D01*
X59596543Y68045400D01*
X59570829Y68015400D01*
X59545114Y67955400D01*
X59545114Y67805400D01*
X59570829Y67745400D01*
X59596543Y67715400D01*
X59647972Y67685400D01*
X59776543Y67685400D01*
X59827972Y67715400D01*
X59853686Y67745400D01*
X59030828Y67685400D02*
X59339400Y67685400D01*
X59185114Y67685400D02*
X59185114Y68315400D01*
X59236543Y68225400D01*
X59287971Y68165400D01*
X59339400Y68135400D01*
X57297086Y67491400D02*
X57322800Y67461400D01*
X57399943Y67431400D01*
X57451372Y67431400D01*
X57528515Y67461400D01*
X57579943Y67521400D01*
X57605658Y67581400D01*
X57631372Y67701400D01*
X57631372Y67791400D01*
X57605658Y67911400D01*
X57579943Y67971400D01*
X57528515Y68031400D01*
X57451372Y68061400D01*
X57399943Y68061400D01*
X57322800Y68031400D01*
X57297086Y68001400D01*
X56782800Y67431400D02*
X57091372Y67431400D01*
X56937086Y67431400D02*
X56937086Y68061400D01*
X56988515Y67971400D01*
X57039943Y67911400D01*
X57091372Y67881400D01*
X56294229Y68061400D02*
X56551372Y68061400D01*
X56577086Y67761400D01*
X56551372Y67791400D01*
X56499943Y67821400D01*
X56371372Y67821400D01*
X56319943Y67791400D01*
X56294229Y67761400D01*
X56268514Y67701400D01*
X56268514Y67551400D01*
X56294229Y67491400D01*
X56319943Y67461400D01*
X56371372Y67431400D01*
X56499943Y67431400D01*
X56551372Y67461400D01*
X56577086Y67491400D01*
X56062800Y68001400D02*
X56037086Y68031400D01*
X55985657Y68061400D01*
X55857086Y68061400D01*
X55805657Y68031400D01*
X55779943Y68001400D01*
X55754228Y67941400D01*
X55754228Y67881400D01*
X55779943Y67791400D01*
X56088514Y67431400D01*
X55754228Y67431400D01*
X67101486Y47527000D02*
X67127200Y47497000D01*
X67204343Y47467000D01*
X67255772Y47467000D01*
X67332915Y47497000D01*
X67384343Y47557000D01*
X67410058Y47617000D01*
X67435772Y47737000D01*
X67435772Y47827000D01*
X67410058Y47947000D01*
X67384343Y48007000D01*
X67332915Y48067000D01*
X67255772Y48097000D01*
X67204343Y48097000D01*
X67127200Y48067000D01*
X67101486Y48037000D01*
X66587200Y47467000D02*
X66895772Y47467000D01*
X66741486Y47467000D02*
X66741486Y48097000D01*
X66792915Y48007000D01*
X66844343Y47947000D01*
X66895772Y47917000D01*
X66098629Y48097000D02*
X66355772Y48097000D01*
X66381486Y47797000D01*
X66355772Y47827000D01*
X66304343Y47857000D01*
X66175772Y47857000D01*
X66124343Y47827000D01*
X66098629Y47797000D01*
X66072914Y47737000D01*
X66072914Y47587000D01*
X66098629Y47527000D01*
X66124343Y47497000D01*
X66175772Y47467000D01*
X66304343Y47467000D01*
X66355772Y47497000D01*
X66381486Y47527000D01*
X65892914Y48097000D02*
X65558628Y48097000D01*
X65738628Y47857000D01*
X65661486Y47857000D01*
X65610057Y47827000D01*
X65584343Y47797000D01*
X65558628Y47737000D01*
X65558628Y47587000D01*
X65584343Y47527000D01*
X65610057Y47497000D01*
X65661486Y47467000D01*
X65815771Y47467000D01*
X65867200Y47497000D01*
X65892914Y47527000D01*
X73299086Y48771600D02*
X73324800Y48741600D01*
X73401943Y48711600D01*
X73453372Y48711600D01*
X73530515Y48741600D01*
X73581943Y48801600D01*
X73607658Y48861600D01*
X73633372Y48981600D01*
X73633372Y49071600D01*
X73607658Y49191600D01*
X73581943Y49251600D01*
X73530515Y49311600D01*
X73453372Y49341600D01*
X73401943Y49341600D01*
X73324800Y49311600D01*
X73299086Y49281600D01*
X72784800Y48711600D02*
X73093372Y48711600D01*
X72939086Y48711600D02*
X72939086Y49341600D01*
X72990515Y49251600D01*
X73041943Y49191600D01*
X73093372Y49161600D01*
X72296229Y49341600D02*
X72553372Y49341600D01*
X72579086Y49041600D01*
X72553372Y49071600D01*
X72501943Y49101600D01*
X72373372Y49101600D01*
X72321943Y49071600D01*
X72296229Y49041600D01*
X72270514Y48981600D01*
X72270514Y48831600D01*
X72296229Y48771600D01*
X72321943Y48741600D01*
X72373372Y48711600D01*
X72501943Y48711600D01*
X72553372Y48741600D01*
X72579086Y48771600D01*
X71807657Y49131600D02*
X71807657Y48711600D01*
X71936228Y49371600D02*
X72064800Y48921600D01*
X71730514Y48921600D01*
X59481486Y47908000D02*
X59507200Y47878000D01*
X59584343Y47848000D01*
X59635772Y47848000D01*
X59712915Y47878000D01*
X59764343Y47938000D01*
X59790058Y47998000D01*
X59815772Y48118000D01*
X59815772Y48208000D01*
X59790058Y48328000D01*
X59764343Y48388000D01*
X59712915Y48448000D01*
X59635772Y48478000D01*
X59584343Y48478000D01*
X59507200Y48448000D01*
X59481486Y48418000D01*
X58967200Y47848000D02*
X59275772Y47848000D01*
X59121486Y47848000D02*
X59121486Y48478000D01*
X59172915Y48388000D01*
X59224343Y48328000D01*
X59275772Y48298000D01*
X58478629Y48478000D02*
X58735772Y48478000D01*
X58761486Y48178000D01*
X58735772Y48208000D01*
X58684343Y48238000D01*
X58555772Y48238000D01*
X58504343Y48208000D01*
X58478629Y48178000D01*
X58452914Y48118000D01*
X58452914Y47968000D01*
X58478629Y47908000D01*
X58504343Y47878000D01*
X58555772Y47848000D01*
X58684343Y47848000D01*
X58735772Y47878000D01*
X58761486Y47908000D01*
X57964343Y48478000D02*
X58221486Y48478000D01*
X58247200Y48178000D01*
X58221486Y48208000D01*
X58170057Y48238000D01*
X58041486Y48238000D01*
X57990057Y48208000D01*
X57964343Y48178000D01*
X57938628Y48118000D01*
X57938628Y47968000D01*
X57964343Y47908000D01*
X57990057Y47878000D01*
X58041486Y47848000D01*
X58170057Y47848000D01*
X58221486Y47878000D01*
X58247200Y47908000D01*
X64764686Y47450800D02*
X64790400Y47420800D01*
X64867543Y47390800D01*
X64918972Y47390800D01*
X64996115Y47420800D01*
X65047543Y47480800D01*
X65073258Y47540800D01*
X65098972Y47660800D01*
X65098972Y47750800D01*
X65073258Y47870800D01*
X65047543Y47930800D01*
X64996115Y47990800D01*
X64918972Y48020800D01*
X64867543Y48020800D01*
X64790400Y47990800D01*
X64764686Y47960800D01*
X64250400Y47390800D02*
X64558972Y47390800D01*
X64404686Y47390800D02*
X64404686Y48020800D01*
X64456115Y47930800D01*
X64507543Y47870800D01*
X64558972Y47840800D01*
X63761829Y48020800D02*
X64018972Y48020800D01*
X64044686Y47720800D01*
X64018972Y47750800D01*
X63967543Y47780800D01*
X63838972Y47780800D01*
X63787543Y47750800D01*
X63761829Y47720800D01*
X63736114Y47660800D01*
X63736114Y47510800D01*
X63761829Y47450800D01*
X63787543Y47420800D01*
X63838972Y47390800D01*
X63967543Y47390800D01*
X64018972Y47420800D01*
X64044686Y47450800D01*
X63273257Y48020800D02*
X63376114Y48020800D01*
X63427543Y47990800D01*
X63453257Y47960800D01*
X63504686Y47870800D01*
X63530400Y47750800D01*
X63530400Y47510800D01*
X63504686Y47450800D01*
X63478971Y47420800D01*
X63427543Y47390800D01*
X63324686Y47390800D01*
X63273257Y47420800D01*
X63247543Y47450800D01*
X63221828Y47510800D01*
X63221828Y47660800D01*
X63247543Y47720800D01*
X63273257Y47750800D01*
X63324686Y47780800D01*
X63427543Y47780800D01*
X63478971Y47750800D01*
X63504686Y47720800D01*
X63530400Y47660800D01*
X53436286Y59490400D02*
X53462000Y59460400D01*
X53539143Y59430400D01*
X53590572Y59430400D01*
X53667715Y59460400D01*
X53719143Y59520400D01*
X53744858Y59580400D01*
X53770572Y59700400D01*
X53770572Y59790400D01*
X53744858Y59910400D01*
X53719143Y59970400D01*
X53667715Y60030400D01*
X53590572Y60060400D01*
X53539143Y60060400D01*
X53462000Y60030400D01*
X53436286Y60000400D01*
X52922000Y59430400D02*
X53230572Y59430400D01*
X53076286Y59430400D02*
X53076286Y60060400D01*
X53127715Y59970400D01*
X53179143Y59910400D01*
X53230572Y59880400D01*
X52433429Y60060400D02*
X52690572Y60060400D01*
X52716286Y59760400D01*
X52690572Y59790400D01*
X52639143Y59820400D01*
X52510572Y59820400D01*
X52459143Y59790400D01*
X52433429Y59760400D01*
X52407714Y59700400D01*
X52407714Y59550400D01*
X52433429Y59490400D01*
X52459143Y59460400D01*
X52510572Y59430400D01*
X52639143Y59430400D01*
X52690572Y59460400D01*
X52716286Y59490400D01*
X52227714Y60060400D02*
X51867714Y60060400D01*
X52099143Y59430400D01*
X56103286Y48720800D02*
X56129000Y48690800D01*
X56206143Y48660800D01*
X56257572Y48660800D01*
X56334715Y48690800D01*
X56386143Y48750800D01*
X56411858Y48810800D01*
X56437572Y48930800D01*
X56437572Y49020800D01*
X56411858Y49140800D01*
X56386143Y49200800D01*
X56334715Y49260800D01*
X56257572Y49290800D01*
X56206143Y49290800D01*
X56129000Y49260800D01*
X56103286Y49230800D01*
X55589000Y48660800D02*
X55897572Y48660800D01*
X55743286Y48660800D02*
X55743286Y49290800D01*
X55794715Y49200800D01*
X55846143Y49140800D01*
X55897572Y49110800D01*
X55100429Y49290800D02*
X55357572Y49290800D01*
X55383286Y48990800D01*
X55357572Y49020800D01*
X55306143Y49050800D01*
X55177572Y49050800D01*
X55126143Y49020800D01*
X55100429Y48990800D01*
X55074714Y48930800D01*
X55074714Y48780800D01*
X55100429Y48720800D01*
X55126143Y48690800D01*
X55177572Y48660800D01*
X55306143Y48660800D01*
X55357572Y48690800D01*
X55383286Y48720800D01*
X54766143Y49020800D02*
X54817571Y49050800D01*
X54843286Y49080800D01*
X54869000Y49140800D01*
X54869000Y49170800D01*
X54843286Y49230800D01*
X54817571Y49260800D01*
X54766143Y49290800D01*
X54663286Y49290800D01*
X54611857Y49260800D01*
X54586143Y49230800D01*
X54560428Y49170800D01*
X54560428Y49140800D01*
X54586143Y49080800D01*
X54611857Y49050800D01*
X54663286Y49020800D01*
X54766143Y49020800D01*
X54817571Y48990800D01*
X54843286Y48960800D01*
X54869000Y48900800D01*
X54869000Y48780800D01*
X54843286Y48720800D01*
X54817571Y48690800D01*
X54766143Y48660800D01*
X54663286Y48660800D01*
X54611857Y48690800D01*
X54586143Y48720800D01*
X54560428Y48780800D01*
X54560428Y48900800D01*
X54586143Y48960800D01*
X54611857Y48990800D01*
X54663286Y49020800D01*
X53410886Y62360600D02*
X53436600Y62330600D01*
X53513743Y62300600D01*
X53565172Y62300600D01*
X53642315Y62330600D01*
X53693743Y62390600D01*
X53719458Y62450600D01*
X53745172Y62570600D01*
X53745172Y62660600D01*
X53719458Y62780600D01*
X53693743Y62840600D01*
X53642315Y62900600D01*
X53565172Y62930600D01*
X53513743Y62930600D01*
X53436600Y62900600D01*
X53410886Y62870600D01*
X52896600Y62300600D02*
X53205172Y62300600D01*
X53050886Y62300600D02*
X53050886Y62930600D01*
X53102315Y62840600D01*
X53153743Y62780600D01*
X53205172Y62750600D01*
X52408029Y62930600D02*
X52665172Y62930600D01*
X52690886Y62630600D01*
X52665172Y62660600D01*
X52613743Y62690600D01*
X52485172Y62690600D01*
X52433743Y62660600D01*
X52408029Y62630600D01*
X52382314Y62570600D01*
X52382314Y62420600D01*
X52408029Y62360600D01*
X52433743Y62330600D01*
X52485172Y62300600D01*
X52613743Y62300600D01*
X52665172Y62330600D01*
X52690886Y62360600D01*
X52125171Y62300600D02*
X52022314Y62300600D01*
X51970886Y62330600D01*
X51945171Y62360600D01*
X51893743Y62450600D01*
X51868028Y62570600D01*
X51868028Y62810600D01*
X51893743Y62870600D01*
X51919457Y62900600D01*
X51970886Y62930600D01*
X52073743Y62930600D01*
X52125171Y62900600D01*
X52150886Y62870600D01*
X52176600Y62810600D01*
X52176600Y62660600D01*
X52150886Y62600600D01*
X52125171Y62570600D01*
X52073743Y62540600D01*
X51970886Y62540600D01*
X51919457Y62570600D01*
X51893743Y62600600D01*
X51868028Y62660600D01*
X53410886Y55680400D02*
X53436600Y55650400D01*
X53513743Y55620400D01*
X53565172Y55620400D01*
X53642315Y55650400D01*
X53693743Y55710400D01*
X53719458Y55770400D01*
X53745172Y55890400D01*
X53745172Y55980400D01*
X53719458Y56100400D01*
X53693743Y56160400D01*
X53642315Y56220400D01*
X53565172Y56250400D01*
X53513743Y56250400D01*
X53436600Y56220400D01*
X53410886Y56190400D01*
X52896600Y55620400D02*
X53205172Y55620400D01*
X53050886Y55620400D02*
X53050886Y56250400D01*
X53102315Y56160400D01*
X53153743Y56100400D01*
X53205172Y56070400D01*
X52433743Y56250400D02*
X52536600Y56250400D01*
X52588029Y56220400D01*
X52613743Y56190400D01*
X52665172Y56100400D01*
X52690886Y55980400D01*
X52690886Y55740400D01*
X52665172Y55680400D01*
X52639457Y55650400D01*
X52588029Y55620400D01*
X52485172Y55620400D01*
X52433743Y55650400D01*
X52408029Y55680400D01*
X52382314Y55740400D01*
X52382314Y55890400D01*
X52408029Y55950400D01*
X52433743Y55980400D01*
X52485172Y56010400D01*
X52588029Y56010400D01*
X52639457Y55980400D01*
X52665172Y55950400D01*
X52690886Y55890400D01*
X52048028Y56250400D02*
X51996600Y56250400D01*
X51945171Y56220400D01*
X51919457Y56190400D01*
X51893743Y56130400D01*
X51868028Y56010400D01*
X51868028Y55860400D01*
X51893743Y55740400D01*
X51919457Y55680400D01*
X51945171Y55650400D01*
X51996600Y55620400D01*
X52048028Y55620400D01*
X52099457Y55650400D01*
X52125171Y55680400D01*
X52150886Y55740400D01*
X52176600Y55860400D01*
X52176600Y56010400D01*
X52150886Y56130400D01*
X52125171Y56190400D01*
X52099457Y56220400D01*
X52048028Y56250400D01*
X67050686Y67720000D02*
X67076400Y67690000D01*
X67153543Y67660000D01*
X67204972Y67660000D01*
X67282115Y67690000D01*
X67333543Y67750000D01*
X67359258Y67810000D01*
X67384972Y67930000D01*
X67384972Y68020000D01*
X67359258Y68140000D01*
X67333543Y68200000D01*
X67282115Y68260000D01*
X67204972Y68290000D01*
X67153543Y68290000D01*
X67076400Y68260000D01*
X67050686Y68230000D01*
X66536400Y67660000D02*
X66844972Y67660000D01*
X66690686Y67660000D02*
X66690686Y68290000D01*
X66742115Y68200000D01*
X66793543Y68140000D01*
X66844972Y68110000D01*
X66073543Y68290000D02*
X66176400Y68290000D01*
X66227829Y68260000D01*
X66253543Y68230000D01*
X66304972Y68140000D01*
X66330686Y68020000D01*
X66330686Y67780000D01*
X66304972Y67720000D01*
X66279257Y67690000D01*
X66227829Y67660000D01*
X66124972Y67660000D01*
X66073543Y67690000D01*
X66047829Y67720000D01*
X66022114Y67780000D01*
X66022114Y67930000D01*
X66047829Y67990000D01*
X66073543Y68020000D01*
X66124972Y68050000D01*
X66227829Y68050000D01*
X66279257Y68020000D01*
X66304972Y67990000D01*
X66330686Y67930000D01*
X65507828Y67660000D02*
X65816400Y67660000D01*
X65662114Y67660000D02*
X65662114Y68290000D01*
X65713543Y68200000D01*
X65764971Y68140000D01*
X65816400Y68110000D01*
X60954686Y60811200D02*
X60980400Y60781200D01*
X61057543Y60751200D01*
X61108972Y60751200D01*
X61186115Y60781200D01*
X61237543Y60841200D01*
X61263258Y60901200D01*
X61288972Y61021200D01*
X61288972Y61111200D01*
X61263258Y61231200D01*
X61237543Y61291200D01*
X61186115Y61351200D01*
X61108972Y61381200D01*
X61057543Y61381200D01*
X60980400Y61351200D01*
X60954686Y61321200D01*
X60440400Y60751200D02*
X60748972Y60751200D01*
X60594686Y60751200D02*
X60594686Y61381200D01*
X60646115Y61291200D01*
X60697543Y61231200D01*
X60748972Y61201200D01*
X59977543Y61381200D02*
X60080400Y61381200D01*
X60131829Y61351200D01*
X60157543Y61321200D01*
X60208972Y61231200D01*
X60234686Y61111200D01*
X60234686Y60871200D01*
X60208972Y60811200D01*
X60183257Y60781200D01*
X60131829Y60751200D01*
X60028972Y60751200D01*
X59977543Y60781200D01*
X59951829Y60811200D01*
X59926114Y60871200D01*
X59926114Y61021200D01*
X59951829Y61081200D01*
X59977543Y61111200D01*
X60028972Y61141200D01*
X60131829Y61141200D01*
X60183257Y61111200D01*
X60208972Y61081200D01*
X60234686Y61021200D01*
X59720400Y61321200D02*
X59694686Y61351200D01*
X59643257Y61381200D01*
X59514686Y61381200D01*
X59463257Y61351200D01*
X59437543Y61321200D01*
X59411828Y61261200D01*
X59411828Y61201200D01*
X59437543Y61111200D01*
X59746114Y60751200D01*
X59411828Y60751200D01*
X69235086Y67212000D02*
X69260800Y67182000D01*
X69337943Y67152000D01*
X69389372Y67152000D01*
X69466515Y67182000D01*
X69517943Y67242000D01*
X69543658Y67302000D01*
X69569372Y67422000D01*
X69569372Y67512000D01*
X69543658Y67632000D01*
X69517943Y67692000D01*
X69466515Y67752000D01*
X69389372Y67782000D01*
X69337943Y67782000D01*
X69260800Y67752000D01*
X69235086Y67722000D01*
X68720800Y67152000D02*
X69029372Y67152000D01*
X68875086Y67152000D02*
X68875086Y67782000D01*
X68926515Y67692000D01*
X68977943Y67632000D01*
X69029372Y67602000D01*
X68257943Y67782000D02*
X68360800Y67782000D01*
X68412229Y67752000D01*
X68437943Y67722000D01*
X68489372Y67632000D01*
X68515086Y67512000D01*
X68515086Y67272000D01*
X68489372Y67212000D01*
X68463657Y67182000D01*
X68412229Y67152000D01*
X68309372Y67152000D01*
X68257943Y67182000D01*
X68232229Y67212000D01*
X68206514Y67272000D01*
X68206514Y67422000D01*
X68232229Y67482000D01*
X68257943Y67512000D01*
X68309372Y67542000D01*
X68412229Y67542000D01*
X68463657Y67512000D01*
X68489372Y67482000D01*
X68515086Y67422000D01*
X68026514Y67782000D02*
X67692228Y67782000D01*
X67872228Y67542000D01*
X67795086Y67542000D01*
X67743657Y67512000D01*
X67717943Y67482000D01*
X67692228Y67422000D01*
X67692228Y67272000D01*
X67717943Y67212000D01*
X67743657Y67182000D01*
X67795086Y67152000D01*
X67949371Y67152000D01*
X68000800Y67182000D01*
X68026514Y67212000D01*
X74086486Y65383200D02*
X74112200Y65353200D01*
X74189343Y65323200D01*
X74240772Y65323200D01*
X74317915Y65353200D01*
X74369343Y65413200D01*
X74395058Y65473200D01*
X74420772Y65593200D01*
X74420772Y65683200D01*
X74395058Y65803200D01*
X74369343Y65863200D01*
X74317915Y65923200D01*
X74240772Y65953200D01*
X74189343Y65953200D01*
X74112200Y65923200D01*
X74086486Y65893200D01*
X73572200Y65323200D02*
X73880772Y65323200D01*
X73726486Y65323200D02*
X73726486Y65953200D01*
X73777915Y65863200D01*
X73829343Y65803200D01*
X73880772Y65773200D01*
X73109343Y65953200D02*
X73212200Y65953200D01*
X73263629Y65923200D01*
X73289343Y65893200D01*
X73340772Y65803200D01*
X73366486Y65683200D01*
X73366486Y65443200D01*
X73340772Y65383200D01*
X73315057Y65353200D01*
X73263629Y65323200D01*
X73160772Y65323200D01*
X73109343Y65353200D01*
X73083629Y65383200D01*
X73057914Y65443200D01*
X73057914Y65593200D01*
X73083629Y65653200D01*
X73109343Y65683200D01*
X73160772Y65713200D01*
X73263629Y65713200D01*
X73315057Y65683200D01*
X73340772Y65653200D01*
X73366486Y65593200D01*
X72595057Y65743200D02*
X72595057Y65323200D01*
X72723628Y65983200D02*
X72852200Y65533200D01*
X72517914Y65533200D01*
X74061086Y62690800D02*
X74086800Y62660800D01*
X74163943Y62630800D01*
X74215372Y62630800D01*
X74292515Y62660800D01*
X74343943Y62720800D01*
X74369658Y62780800D01*
X74395372Y62900800D01*
X74395372Y62990800D01*
X74369658Y63110800D01*
X74343943Y63170800D01*
X74292515Y63230800D01*
X74215372Y63260800D01*
X74163943Y63260800D01*
X74086800Y63230800D01*
X74061086Y63200800D01*
X73546800Y62630800D02*
X73855372Y62630800D01*
X73701086Y62630800D02*
X73701086Y63260800D01*
X73752515Y63170800D01*
X73803943Y63110800D01*
X73855372Y63080800D01*
X73083943Y63260800D02*
X73186800Y63260800D01*
X73238229Y63230800D01*
X73263943Y63200800D01*
X73315372Y63110800D01*
X73341086Y62990800D01*
X73341086Y62750800D01*
X73315372Y62690800D01*
X73289657Y62660800D01*
X73238229Y62630800D01*
X73135372Y62630800D01*
X73083943Y62660800D01*
X73058229Y62690800D01*
X73032514Y62750800D01*
X73032514Y62900800D01*
X73058229Y62960800D01*
X73083943Y62990800D01*
X73135372Y63020800D01*
X73238229Y63020800D01*
X73289657Y62990800D01*
X73315372Y62960800D01*
X73341086Y62900800D01*
X72543943Y63260800D02*
X72801086Y63260800D01*
X72826800Y62960800D01*
X72801086Y62990800D01*
X72749657Y63020800D01*
X72621086Y63020800D01*
X72569657Y62990800D01*
X72543943Y62960800D01*
X72518228Y62900800D01*
X72518228Y62750800D01*
X72543943Y62690800D01*
X72569657Y62660800D01*
X72621086Y62630800D01*
X72749657Y62630800D01*
X72801086Y62660800D01*
X72826800Y62690800D01*
X67711086Y53851600D02*
X67736800Y53821600D01*
X67813943Y53791600D01*
X67865372Y53791600D01*
X67942515Y53821600D01*
X67993943Y53881600D01*
X68019658Y53941600D01*
X68045372Y54061600D01*
X68045372Y54151600D01*
X68019658Y54271600D01*
X67993943Y54331600D01*
X67942515Y54391600D01*
X67865372Y54421600D01*
X67813943Y54421600D01*
X67736800Y54391600D01*
X67711086Y54361600D01*
X67196800Y53791600D02*
X67505372Y53791600D01*
X67351086Y53791600D02*
X67351086Y54421600D01*
X67402515Y54331600D01*
X67453943Y54271600D01*
X67505372Y54241600D01*
X66733943Y54421600D02*
X66836800Y54421600D01*
X66888229Y54391600D01*
X66913943Y54361600D01*
X66965372Y54271600D01*
X66991086Y54151600D01*
X66991086Y53911600D01*
X66965372Y53851600D01*
X66939657Y53821600D01*
X66888229Y53791600D01*
X66785372Y53791600D01*
X66733943Y53821600D01*
X66708229Y53851600D01*
X66682514Y53911600D01*
X66682514Y54061600D01*
X66708229Y54121600D01*
X66733943Y54151600D01*
X66785372Y54181600D01*
X66888229Y54181600D01*
X66939657Y54151600D01*
X66965372Y54121600D01*
X66991086Y54061600D01*
X66219657Y54421600D02*
X66322514Y54421600D01*
X66373943Y54391600D01*
X66399657Y54361600D01*
X66451086Y54271600D01*
X66476800Y54151600D01*
X66476800Y53911600D01*
X66451086Y53851600D01*
X66425371Y53821600D01*
X66373943Y53791600D01*
X66271086Y53791600D01*
X66219657Y53821600D01*
X66193943Y53851600D01*
X66168228Y53911600D01*
X66168228Y54061600D01*
X66193943Y54121600D01*
X66219657Y54151600D01*
X66271086Y54181600D01*
X66373943Y54181600D01*
X66425371Y54151600D01*
X66451086Y54121600D01*
X66476800Y54061600D01*
X69743086Y59160200D02*
X69768800Y59130200D01*
X69845943Y59100200D01*
X69897372Y59100200D01*
X69974515Y59130200D01*
X70025943Y59190200D01*
X70051658Y59250200D01*
X70077372Y59370200D01*
X70077372Y59460200D01*
X70051658Y59580200D01*
X70025943Y59640200D01*
X69974515Y59700200D01*
X69897372Y59730200D01*
X69845943Y59730200D01*
X69768800Y59700200D01*
X69743086Y59670200D01*
X69228800Y59100200D02*
X69537372Y59100200D01*
X69383086Y59100200D02*
X69383086Y59730200D01*
X69434515Y59640200D01*
X69485943Y59580200D01*
X69537372Y59550200D01*
X68765943Y59730200D02*
X68868800Y59730200D01*
X68920229Y59700200D01*
X68945943Y59670200D01*
X68997372Y59580200D01*
X69023086Y59460200D01*
X69023086Y59220200D01*
X68997372Y59160200D01*
X68971657Y59130200D01*
X68920229Y59100200D01*
X68817372Y59100200D01*
X68765943Y59130200D01*
X68740229Y59160200D01*
X68714514Y59220200D01*
X68714514Y59370200D01*
X68740229Y59430200D01*
X68765943Y59460200D01*
X68817372Y59490200D01*
X68920229Y59490200D01*
X68971657Y59460200D01*
X68997372Y59430200D01*
X69023086Y59370200D01*
X68534514Y59730200D02*
X68174514Y59730200D01*
X68405943Y59100200D01*
X69946286Y52251400D02*
X69972000Y52221400D01*
X70049143Y52191400D01*
X70100572Y52191400D01*
X70177715Y52221400D01*
X70229143Y52281400D01*
X70254858Y52341400D01*
X70280572Y52461400D01*
X70280572Y52551400D01*
X70254858Y52671400D01*
X70229143Y52731400D01*
X70177715Y52791400D01*
X70100572Y52821400D01*
X70049143Y52821400D01*
X69972000Y52791400D01*
X69946286Y52761400D01*
X69432000Y52191400D02*
X69740572Y52191400D01*
X69586286Y52191400D02*
X69586286Y52821400D01*
X69637715Y52731400D01*
X69689143Y52671400D01*
X69740572Y52641400D01*
X68969143Y52821400D02*
X69072000Y52821400D01*
X69123429Y52791400D01*
X69149143Y52761400D01*
X69200572Y52671400D01*
X69226286Y52551400D01*
X69226286Y52311400D01*
X69200572Y52251400D01*
X69174857Y52221400D01*
X69123429Y52191400D01*
X69020572Y52191400D01*
X68969143Y52221400D01*
X68943429Y52251400D01*
X68917714Y52311400D01*
X68917714Y52461400D01*
X68943429Y52521400D01*
X68969143Y52551400D01*
X69020572Y52581400D01*
X69123429Y52581400D01*
X69174857Y52551400D01*
X69200572Y52521400D01*
X69226286Y52461400D01*
X68609143Y52551400D02*
X68660571Y52581400D01*
X68686286Y52611400D01*
X68712000Y52671400D01*
X68712000Y52701400D01*
X68686286Y52761400D01*
X68660571Y52791400D01*
X68609143Y52821400D01*
X68506286Y52821400D01*
X68454857Y52791400D01*
X68429143Y52761400D01*
X68403428Y52701400D01*
X68403428Y52671400D01*
X68429143Y52611400D01*
X68454857Y52581400D01*
X68506286Y52551400D01*
X68609143Y52551400D01*
X68660571Y52521400D01*
X68686286Y52491400D01*
X68712000Y52431400D01*
X68712000Y52311400D01*
X68686286Y52251400D01*
X68660571Y52221400D01*
X68609143Y52191400D01*
X68506286Y52191400D01*
X68454857Y52221400D01*
X68429143Y52251400D01*
X68403428Y52311400D01*
X68403428Y52431400D01*
X68429143Y52491400D01*
X68454857Y52521400D01*
X68506286Y52551400D01*
X67355486Y25352800D02*
X67381200Y25322800D01*
X67458343Y25292800D01*
X67509772Y25292800D01*
X67586915Y25322800D01*
X67638343Y25382800D01*
X67664058Y25442800D01*
X67689772Y25562800D01*
X67689772Y25652800D01*
X67664058Y25772800D01*
X67638343Y25832800D01*
X67586915Y25892800D01*
X67509772Y25922800D01*
X67458343Y25922800D01*
X67381200Y25892800D01*
X67355486Y25862800D01*
X66841200Y25292800D02*
X67149772Y25292800D01*
X66995486Y25292800D02*
X66995486Y25922800D01*
X67046915Y25832800D01*
X67098343Y25772800D01*
X67149772Y25742800D01*
X66532629Y25652800D02*
X66584057Y25682800D01*
X66609772Y25712800D01*
X66635486Y25772800D01*
X66635486Y25802800D01*
X66609772Y25862800D01*
X66584057Y25892800D01*
X66532629Y25922800D01*
X66429772Y25922800D01*
X66378343Y25892800D01*
X66352629Y25862800D01*
X66326914Y25802800D01*
X66326914Y25772800D01*
X66352629Y25712800D01*
X66378343Y25682800D01*
X66429772Y25652800D01*
X66532629Y25652800D01*
X66584057Y25622800D01*
X66609772Y25592800D01*
X66635486Y25532800D01*
X66635486Y25412800D01*
X66609772Y25352800D01*
X66584057Y25322800D01*
X66532629Y25292800D01*
X66429772Y25292800D01*
X66378343Y25322800D01*
X66352629Y25352800D01*
X66326914Y25412800D01*
X66326914Y25532800D01*
X66352629Y25592800D01*
X66378343Y25622800D01*
X66429772Y25652800D01*
X66121200Y25862800D02*
X66095486Y25892800D01*
X66044057Y25922800D01*
X65915486Y25922800D01*
X65864057Y25892800D01*
X65838343Y25862800D01*
X65812628Y25802800D01*
X65812628Y25742800D01*
X65838343Y25652800D01*
X66146914Y25292800D01*
X65812628Y25292800D01*
X66923686Y32109200D02*
X66949400Y32079200D01*
X67026543Y32049200D01*
X67077972Y32049200D01*
X67155115Y32079200D01*
X67206543Y32139200D01*
X67232258Y32199200D01*
X67257972Y32319200D01*
X67257972Y32409200D01*
X67232258Y32529200D01*
X67206543Y32589200D01*
X67155115Y32649200D01*
X67077972Y32679200D01*
X67026543Y32679200D01*
X66949400Y32649200D01*
X66923686Y32619200D01*
X66409400Y32049200D02*
X66717972Y32049200D01*
X66563686Y32049200D02*
X66563686Y32679200D01*
X66615115Y32589200D01*
X66666543Y32529200D01*
X66717972Y32499200D01*
X66100829Y32409200D02*
X66152257Y32439200D01*
X66177972Y32469200D01*
X66203686Y32529200D01*
X66203686Y32559200D01*
X66177972Y32619200D01*
X66152257Y32649200D01*
X66100829Y32679200D01*
X65997972Y32679200D01*
X65946543Y32649200D01*
X65920829Y32619200D01*
X65895114Y32559200D01*
X65895114Y32529200D01*
X65920829Y32469200D01*
X65946543Y32439200D01*
X65997972Y32409200D01*
X66100829Y32409200D01*
X66152257Y32379200D01*
X66177972Y32349200D01*
X66203686Y32289200D01*
X66203686Y32169200D01*
X66177972Y32109200D01*
X66152257Y32079200D01*
X66100829Y32049200D01*
X65997972Y32049200D01*
X65946543Y32079200D01*
X65920829Y32109200D01*
X65895114Y32169200D01*
X65895114Y32289200D01*
X65920829Y32349200D01*
X65946543Y32379200D01*
X65997972Y32409200D01*
X65715114Y32679200D02*
X65380828Y32679200D01*
X65560828Y32439200D01*
X65483686Y32439200D01*
X65432257Y32409200D01*
X65406543Y32379200D01*
X65380828Y32319200D01*
X65380828Y32169200D01*
X65406543Y32109200D01*
X65432257Y32079200D01*
X65483686Y32049200D01*
X65637971Y32049200D01*
X65689400Y32079200D01*
X65715114Y32109200D01*
X67076086Y34090400D02*
X67101800Y34060400D01*
X67178943Y34030400D01*
X67230372Y34030400D01*
X67307515Y34060400D01*
X67358943Y34120400D01*
X67384658Y34180400D01*
X67410372Y34300400D01*
X67410372Y34390400D01*
X67384658Y34510400D01*
X67358943Y34570400D01*
X67307515Y34630400D01*
X67230372Y34660400D01*
X67178943Y34660400D01*
X67101800Y34630400D01*
X67076086Y34600400D01*
X66561800Y34030400D02*
X66870372Y34030400D01*
X66716086Y34030400D02*
X66716086Y34660400D01*
X66767515Y34570400D01*
X66818943Y34510400D01*
X66870372Y34480400D01*
X66253229Y34390400D02*
X66304657Y34420400D01*
X66330372Y34450400D01*
X66356086Y34510400D01*
X66356086Y34540400D01*
X66330372Y34600400D01*
X66304657Y34630400D01*
X66253229Y34660400D01*
X66150372Y34660400D01*
X66098943Y34630400D01*
X66073229Y34600400D01*
X66047514Y34540400D01*
X66047514Y34510400D01*
X66073229Y34450400D01*
X66098943Y34420400D01*
X66150372Y34390400D01*
X66253229Y34390400D01*
X66304657Y34360400D01*
X66330372Y34330400D01*
X66356086Y34270400D01*
X66356086Y34150400D01*
X66330372Y34090400D01*
X66304657Y34060400D01*
X66253229Y34030400D01*
X66150372Y34030400D01*
X66098943Y34060400D01*
X66073229Y34090400D01*
X66047514Y34150400D01*
X66047514Y34270400D01*
X66073229Y34330400D01*
X66098943Y34360400D01*
X66150372Y34390400D01*
X65584657Y34450400D02*
X65584657Y34030400D01*
X65713228Y34690400D02*
X65841800Y34240400D01*
X65507514Y34240400D01*
X72486286Y38408400D02*
X72512000Y38378400D01*
X72589143Y38348400D01*
X72640572Y38348400D01*
X72717715Y38378400D01*
X72769143Y38438400D01*
X72794858Y38498400D01*
X72820572Y38618400D01*
X72820572Y38708400D01*
X72794858Y38828400D01*
X72769143Y38888400D01*
X72717715Y38948400D01*
X72640572Y38978400D01*
X72589143Y38978400D01*
X72512000Y38948400D01*
X72486286Y38918400D01*
X71972000Y38348400D02*
X72280572Y38348400D01*
X72126286Y38348400D02*
X72126286Y38978400D01*
X72177715Y38888400D01*
X72229143Y38828400D01*
X72280572Y38798400D01*
X71663429Y38708400D02*
X71714857Y38738400D01*
X71740572Y38768400D01*
X71766286Y38828400D01*
X71766286Y38858400D01*
X71740572Y38918400D01*
X71714857Y38948400D01*
X71663429Y38978400D01*
X71560572Y38978400D01*
X71509143Y38948400D01*
X71483429Y38918400D01*
X71457714Y38858400D01*
X71457714Y38828400D01*
X71483429Y38768400D01*
X71509143Y38738400D01*
X71560572Y38708400D01*
X71663429Y38708400D01*
X71714857Y38678400D01*
X71740572Y38648400D01*
X71766286Y38588400D01*
X71766286Y38468400D01*
X71740572Y38408400D01*
X71714857Y38378400D01*
X71663429Y38348400D01*
X71560572Y38348400D01*
X71509143Y38378400D01*
X71483429Y38408400D01*
X71457714Y38468400D01*
X71457714Y38588400D01*
X71483429Y38648400D01*
X71509143Y38678400D01*
X71560572Y38708400D01*
X70969143Y38978400D02*
X71226286Y38978400D01*
X71252000Y38678400D01*
X71226286Y38708400D01*
X71174857Y38738400D01*
X71046286Y38738400D01*
X70994857Y38708400D01*
X70969143Y38678400D01*
X70943428Y38618400D01*
X70943428Y38468400D01*
X70969143Y38408400D01*
X70994857Y38378400D01*
X71046286Y38348400D01*
X71174857Y38348400D01*
X71226286Y38378400D01*
X71252000Y38408400D01*
X69514486Y36071600D02*
X69540200Y36041600D01*
X69617343Y36011600D01*
X69668772Y36011600D01*
X69745915Y36041600D01*
X69797343Y36101600D01*
X69823058Y36161600D01*
X69848772Y36281600D01*
X69848772Y36371600D01*
X69823058Y36491600D01*
X69797343Y36551600D01*
X69745915Y36611600D01*
X69668772Y36641600D01*
X69617343Y36641600D01*
X69540200Y36611600D01*
X69514486Y36581600D01*
X69000200Y36011600D02*
X69308772Y36011600D01*
X69154486Y36011600D02*
X69154486Y36641600D01*
X69205915Y36551600D01*
X69257343Y36491600D01*
X69308772Y36461600D01*
X68691629Y36371600D02*
X68743057Y36401600D01*
X68768772Y36431600D01*
X68794486Y36491600D01*
X68794486Y36521600D01*
X68768772Y36581600D01*
X68743057Y36611600D01*
X68691629Y36641600D01*
X68588772Y36641600D01*
X68537343Y36611600D01*
X68511629Y36581600D01*
X68485914Y36521600D01*
X68485914Y36491600D01*
X68511629Y36431600D01*
X68537343Y36401600D01*
X68588772Y36371600D01*
X68691629Y36371600D01*
X68743057Y36341600D01*
X68768772Y36311600D01*
X68794486Y36251600D01*
X68794486Y36131600D01*
X68768772Y36071600D01*
X68743057Y36041600D01*
X68691629Y36011600D01*
X68588772Y36011600D01*
X68537343Y36041600D01*
X68511629Y36071600D01*
X68485914Y36131600D01*
X68485914Y36251600D01*
X68511629Y36311600D01*
X68537343Y36341600D01*
X68588772Y36371600D01*
X68023057Y36641600D02*
X68125914Y36641600D01*
X68177343Y36611600D01*
X68203057Y36581600D01*
X68254486Y36491600D01*
X68280200Y36371600D01*
X68280200Y36131600D01*
X68254486Y36071600D01*
X68228771Y36041600D01*
X68177343Y36011600D01*
X68074486Y36011600D01*
X68023057Y36041600D01*
X67997343Y36071600D01*
X67971628Y36131600D01*
X67971628Y36281600D01*
X67997343Y36341600D01*
X68023057Y36371600D01*
X68074486Y36401600D01*
X68177343Y36401600D01*
X68228771Y36371600D01*
X68254486Y36341600D01*
X68280200Y36281600D01*
X64256686Y25937000D02*
X64282400Y25907000D01*
X64359543Y25877000D01*
X64410972Y25877000D01*
X64488115Y25907000D01*
X64539543Y25967000D01*
X64565258Y26027000D01*
X64590972Y26147000D01*
X64590972Y26237000D01*
X64565258Y26357000D01*
X64539543Y26417000D01*
X64488115Y26477000D01*
X64410972Y26507000D01*
X64359543Y26507000D01*
X64282400Y26477000D01*
X64256686Y26447000D01*
X63742400Y25877000D02*
X64050972Y25877000D01*
X63896686Y25877000D02*
X63896686Y26507000D01*
X63948115Y26417000D01*
X63999543Y26357000D01*
X64050972Y26327000D01*
X63433829Y26237000D02*
X63485257Y26267000D01*
X63510972Y26297000D01*
X63536686Y26357000D01*
X63536686Y26387000D01*
X63510972Y26447000D01*
X63485257Y26477000D01*
X63433829Y26507000D01*
X63330972Y26507000D01*
X63279543Y26477000D01*
X63253829Y26447000D01*
X63228114Y26387000D01*
X63228114Y26357000D01*
X63253829Y26297000D01*
X63279543Y26267000D01*
X63330972Y26237000D01*
X63433829Y26237000D01*
X63485257Y26207000D01*
X63510972Y26177000D01*
X63536686Y26117000D01*
X63536686Y25997000D01*
X63510972Y25937000D01*
X63485257Y25907000D01*
X63433829Y25877000D01*
X63330972Y25877000D01*
X63279543Y25907000D01*
X63253829Y25937000D01*
X63228114Y25997000D01*
X63228114Y26117000D01*
X63253829Y26177000D01*
X63279543Y26207000D01*
X63330972Y26237000D01*
X63048114Y26507000D02*
X62688114Y26507000D01*
X62919543Y25877000D01*
X63189886Y36452600D02*
X63215600Y36422600D01*
X63292743Y36392600D01*
X63344172Y36392600D01*
X63421315Y36422600D01*
X63472743Y36482600D01*
X63498458Y36542600D01*
X63524172Y36662600D01*
X63524172Y36752600D01*
X63498458Y36872600D01*
X63472743Y36932600D01*
X63421315Y36992600D01*
X63344172Y37022600D01*
X63292743Y37022600D01*
X63215600Y36992600D01*
X63189886Y36962600D01*
X62675600Y36392600D02*
X62984172Y36392600D01*
X62829886Y36392600D02*
X62829886Y37022600D01*
X62881315Y36932600D01*
X62932743Y36872600D01*
X62984172Y36842600D01*
X62418457Y36392600D02*
X62315600Y36392600D01*
X62264172Y36422600D01*
X62238457Y36452600D01*
X62187029Y36542600D01*
X62161314Y36662600D01*
X62161314Y36902600D01*
X62187029Y36962600D01*
X62212743Y36992600D01*
X62264172Y37022600D01*
X62367029Y37022600D01*
X62418457Y36992600D01*
X62444172Y36962600D01*
X62469886Y36902600D01*
X62469886Y36752600D01*
X62444172Y36692600D01*
X62418457Y36662600D01*
X62367029Y36632600D01*
X62264172Y36632600D01*
X62212743Y36662600D01*
X62187029Y36692600D01*
X62161314Y36752600D01*
X61981314Y37022600D02*
X61647028Y37022600D01*
X61827028Y36782600D01*
X61749886Y36782600D01*
X61698457Y36752600D01*
X61672743Y36722600D01*
X61647028Y36662600D01*
X61647028Y36512600D01*
X61672743Y36452600D01*
X61698457Y36422600D01*
X61749886Y36392600D01*
X61904171Y36392600D01*
X61955600Y36422600D01*
X61981314Y36452600D01*
X69031886Y83620400D02*
X69057600Y83590400D01*
X69134743Y83560400D01*
X69186172Y83560400D01*
X69263315Y83590400D01*
X69314743Y83650400D01*
X69340458Y83710400D01*
X69366172Y83830400D01*
X69366172Y83920400D01*
X69340458Y84040400D01*
X69314743Y84100400D01*
X69263315Y84160400D01*
X69186172Y84190400D01*
X69134743Y84190400D01*
X69057600Y84160400D01*
X69031886Y84130400D01*
X68517600Y83560400D02*
X68826172Y83560400D01*
X68671886Y83560400D02*
X68671886Y84190400D01*
X68723315Y84100400D01*
X68774743Y84040400D01*
X68826172Y84010400D01*
X68260457Y83560400D02*
X68157600Y83560400D01*
X68106172Y83590400D01*
X68080457Y83620400D01*
X68029029Y83710400D01*
X68003314Y83830400D01*
X68003314Y84070400D01*
X68029029Y84130400D01*
X68054743Y84160400D01*
X68106172Y84190400D01*
X68209029Y84190400D01*
X68260457Y84160400D01*
X68286172Y84130400D01*
X68311886Y84070400D01*
X68311886Y83920400D01*
X68286172Y83860400D01*
X68260457Y83830400D01*
X68209029Y83800400D01*
X68106172Y83800400D01*
X68054743Y83830400D01*
X68029029Y83860400D01*
X68003314Y83920400D01*
X67823314Y84190400D02*
X67463314Y84190400D01*
X67694743Y83560400D01*
X78302886Y83290200D02*
X78328600Y83260200D01*
X78405743Y83230200D01*
X78457172Y83230200D01*
X78534315Y83260200D01*
X78585743Y83320200D01*
X78611458Y83380200D01*
X78637172Y83500200D01*
X78637172Y83590200D01*
X78611458Y83710200D01*
X78585743Y83770200D01*
X78534315Y83830200D01*
X78457172Y83860200D01*
X78405743Y83860200D01*
X78328600Y83830200D01*
X78302886Y83800200D01*
X77788600Y83230200D02*
X78097172Y83230200D01*
X77942886Y83230200D02*
X77942886Y83860200D01*
X77994315Y83770200D01*
X78045743Y83710200D01*
X78097172Y83680200D01*
X77531457Y83230200D02*
X77428600Y83230200D01*
X77377172Y83260200D01*
X77351457Y83290200D01*
X77300029Y83380200D01*
X77274314Y83500200D01*
X77274314Y83740200D01*
X77300029Y83800200D01*
X77325743Y83830200D01*
X77377172Y83860200D01*
X77480029Y83860200D01*
X77531457Y83830200D01*
X77557172Y83800200D01*
X77582886Y83740200D01*
X77582886Y83590200D01*
X77557172Y83530200D01*
X77531457Y83500200D01*
X77480029Y83470200D01*
X77377172Y83470200D01*
X77325743Y83500200D01*
X77300029Y83530200D01*
X77274314Y83590200D01*
X77017171Y83230200D02*
X76914314Y83230200D01*
X76862886Y83260200D01*
X76837171Y83290200D01*
X76785743Y83380200D01*
X76760028Y83500200D01*
X76760028Y83740200D01*
X76785743Y83800200D01*
X76811457Y83830200D01*
X76862886Y83860200D01*
X76965743Y83860200D01*
X77017171Y83830200D01*
X77042886Y83800200D01*
X77068600Y83740200D01*
X77068600Y83590200D01*
X77042886Y83530200D01*
X77017171Y83500200D01*
X76965743Y83470200D01*
X76862886Y83470200D01*
X76811457Y83500200D01*
X76785743Y83530200D01*
X76760028Y83590200D01*
X69844686Y19942600D02*
X69870400Y19912600D01*
X69947543Y19882600D01*
X69998972Y19882600D01*
X70076115Y19912600D01*
X70127543Y19972600D01*
X70153258Y20032600D01*
X70178972Y20152600D01*
X70178972Y20242600D01*
X70153258Y20362600D01*
X70127543Y20422600D01*
X70076115Y20482600D01*
X69998972Y20512600D01*
X69947543Y20512600D01*
X69870400Y20482600D01*
X69844686Y20452600D01*
X69638972Y20452600D02*
X69613258Y20482600D01*
X69561829Y20512600D01*
X69433258Y20512600D01*
X69381829Y20482600D01*
X69356115Y20452600D01*
X69330400Y20392600D01*
X69330400Y20332600D01*
X69356115Y20242600D01*
X69664686Y19882600D01*
X69330400Y19882600D01*
X68816114Y19882600D02*
X69124686Y19882600D01*
X68970400Y19882600D02*
X68970400Y20512600D01*
X69021829Y20422600D01*
X69073257Y20362600D01*
X69124686Y20332600D01*
X68353257Y20512600D02*
X68456114Y20512600D01*
X68507543Y20482600D01*
X68533257Y20452600D01*
X68584686Y20362600D01*
X68610400Y20242600D01*
X68610400Y20002600D01*
X68584686Y19942600D01*
X68558971Y19912600D01*
X68507543Y19882600D01*
X68404686Y19882600D01*
X68353257Y19912600D01*
X68327543Y19942600D01*
X68301828Y20002600D01*
X68301828Y20152600D01*
X68327543Y20212600D01*
X68353257Y20242600D01*
X68404686Y20272600D01*
X68507543Y20272600D01*
X68558971Y20242600D01*
X68584686Y20212600D01*
X68610400Y20152600D01*
X81808086Y22431800D02*
X81833800Y22401800D01*
X81910943Y22371800D01*
X81962372Y22371800D01*
X82039515Y22401800D01*
X82090943Y22461800D01*
X82116658Y22521800D01*
X82142372Y22641800D01*
X82142372Y22731800D01*
X82116658Y22851800D01*
X82090943Y22911800D01*
X82039515Y22971800D01*
X81962372Y23001800D01*
X81910943Y23001800D01*
X81833800Y22971800D01*
X81808086Y22941800D01*
X81602372Y22941800D02*
X81576658Y22971800D01*
X81525229Y23001800D01*
X81396658Y23001800D01*
X81345229Y22971800D01*
X81319515Y22941800D01*
X81293800Y22881800D01*
X81293800Y22821800D01*
X81319515Y22731800D01*
X81628086Y22371800D01*
X81293800Y22371800D01*
X80779514Y22371800D02*
X81088086Y22371800D01*
X80933800Y22371800D02*
X80933800Y23001800D01*
X80985229Y22911800D01*
X81036657Y22851800D01*
X81088086Y22821800D01*
X80599514Y23001800D02*
X80239514Y23001800D01*
X80470943Y22371800D01*
X78734686Y31829800D02*
X78760400Y31799800D01*
X78837543Y31769800D01*
X78888972Y31769800D01*
X78966115Y31799800D01*
X79017543Y31859800D01*
X79043258Y31919800D01*
X79068972Y32039800D01*
X79068972Y32129800D01*
X79043258Y32249800D01*
X79017543Y32309800D01*
X78966115Y32369800D01*
X78888972Y32399800D01*
X78837543Y32399800D01*
X78760400Y32369800D01*
X78734686Y32339800D01*
X78528972Y32339800D02*
X78503258Y32369800D01*
X78451829Y32399800D01*
X78323258Y32399800D01*
X78271829Y32369800D01*
X78246115Y32339800D01*
X78220400Y32279800D01*
X78220400Y32219800D01*
X78246115Y32129800D01*
X78554686Y31769800D01*
X78220400Y31769800D01*
X77706114Y31769800D02*
X78014686Y31769800D01*
X77860400Y31769800D02*
X77860400Y32399800D01*
X77911829Y32309800D01*
X77963257Y32249800D01*
X78014686Y32219800D01*
X77397543Y32129800D02*
X77448971Y32159800D01*
X77474686Y32189800D01*
X77500400Y32249800D01*
X77500400Y32279800D01*
X77474686Y32339800D01*
X77448971Y32369800D01*
X77397543Y32399800D01*
X77294686Y32399800D01*
X77243257Y32369800D01*
X77217543Y32339800D01*
X77191828Y32279800D01*
X77191828Y32249800D01*
X77217543Y32189800D01*
X77243257Y32159800D01*
X77294686Y32129800D01*
X77397543Y32129800D01*
X77448971Y32099800D01*
X77474686Y32069800D01*
X77500400Y32009800D01*
X77500400Y31889800D01*
X77474686Y31829800D01*
X77448971Y31799800D01*
X77397543Y31769800D01*
X77294686Y31769800D01*
X77243257Y31799800D01*
X77217543Y31829800D01*
X77191828Y31889800D01*
X77191828Y32009800D01*
X77217543Y32069800D01*
X77243257Y32099800D01*
X77294686Y32129800D01*
X78658486Y28654800D02*
X78684200Y28624800D01*
X78761343Y28594800D01*
X78812772Y28594800D01*
X78889915Y28624800D01*
X78941343Y28684800D01*
X78967058Y28744800D01*
X78992772Y28864800D01*
X78992772Y28954800D01*
X78967058Y29074800D01*
X78941343Y29134800D01*
X78889915Y29194800D01*
X78812772Y29224800D01*
X78761343Y29224800D01*
X78684200Y29194800D01*
X78658486Y29164800D01*
X78452772Y29164800D02*
X78427058Y29194800D01*
X78375629Y29224800D01*
X78247058Y29224800D01*
X78195629Y29194800D01*
X78169915Y29164800D01*
X78144200Y29104800D01*
X78144200Y29044800D01*
X78169915Y28954800D01*
X78478486Y28594800D01*
X78144200Y28594800D01*
X77629914Y28594800D02*
X77938486Y28594800D01*
X77784200Y28594800D02*
X77784200Y29224800D01*
X77835629Y29134800D01*
X77887057Y29074800D01*
X77938486Y29044800D01*
X77372771Y28594800D02*
X77269914Y28594800D01*
X77218486Y28624800D01*
X77192771Y28654800D01*
X77141343Y28744800D01*
X77115628Y28864800D01*
X77115628Y29104800D01*
X77141343Y29164800D01*
X77167057Y29194800D01*
X77218486Y29224800D01*
X77321343Y29224800D01*
X77372771Y29194800D01*
X77398486Y29164800D01*
X77424200Y29104800D01*
X77424200Y28954800D01*
X77398486Y28894800D01*
X77372771Y28864800D01*
X77321343Y28834800D01*
X77218486Y28834800D01*
X77167057Y28864800D01*
X77141343Y28894800D01*
X77115628Y28954800D01*
X61691286Y22355600D02*
X61717000Y22325600D01*
X61794143Y22295600D01*
X61845572Y22295600D01*
X61922715Y22325600D01*
X61974143Y22385600D01*
X61999858Y22445600D01*
X62025572Y22565600D01*
X62025572Y22655600D01*
X61999858Y22775600D01*
X61974143Y22835600D01*
X61922715Y22895600D01*
X61845572Y22925600D01*
X61794143Y22925600D01*
X61717000Y22895600D01*
X61691286Y22865600D01*
X61485572Y22865600D02*
X61459858Y22895600D01*
X61408429Y22925600D01*
X61279858Y22925600D01*
X61228429Y22895600D01*
X61202715Y22865600D01*
X61177000Y22805600D01*
X61177000Y22745600D01*
X61202715Y22655600D01*
X61511286Y22295600D01*
X61177000Y22295600D01*
X60971286Y22865600D02*
X60945572Y22895600D01*
X60894143Y22925600D01*
X60765572Y22925600D01*
X60714143Y22895600D01*
X60688429Y22865600D01*
X60662714Y22805600D01*
X60662714Y22745600D01*
X60688429Y22655600D01*
X60997000Y22295600D01*
X60662714Y22295600D01*
X60457000Y22865600D02*
X60431286Y22895600D01*
X60379857Y22925600D01*
X60251286Y22925600D01*
X60199857Y22895600D01*
X60174143Y22865600D01*
X60148428Y22805600D01*
X60148428Y22745600D01*
X60174143Y22655600D01*
X60482714Y22295600D01*
X60148428Y22295600D01*
X72384686Y25556000D02*
X72410400Y25526000D01*
X72487543Y25496000D01*
X72538972Y25496000D01*
X72616115Y25526000D01*
X72667543Y25586000D01*
X72693258Y25646000D01*
X72718972Y25766000D01*
X72718972Y25856000D01*
X72693258Y25976000D01*
X72667543Y26036000D01*
X72616115Y26096000D01*
X72538972Y26126000D01*
X72487543Y26126000D01*
X72410400Y26096000D01*
X72384686Y26066000D01*
X72178972Y26066000D02*
X72153258Y26096000D01*
X72101829Y26126000D01*
X71973258Y26126000D01*
X71921829Y26096000D01*
X71896115Y26066000D01*
X71870400Y26006000D01*
X71870400Y25946000D01*
X71896115Y25856000D01*
X72204686Y25496000D01*
X71870400Y25496000D01*
X71664686Y26066000D02*
X71638972Y26096000D01*
X71587543Y26126000D01*
X71458972Y26126000D01*
X71407543Y26096000D01*
X71381829Y26066000D01*
X71356114Y26006000D01*
X71356114Y25946000D01*
X71381829Y25856000D01*
X71690400Y25496000D01*
X71356114Y25496000D01*
X71176114Y26126000D02*
X70841828Y26126000D01*
X71021828Y25886000D01*
X70944686Y25886000D01*
X70893257Y25856000D01*
X70867543Y25826000D01*
X70841828Y25766000D01*
X70841828Y25616000D01*
X70867543Y25556000D01*
X70893257Y25526000D01*
X70944686Y25496000D01*
X71098971Y25496000D01*
X71150400Y25526000D01*
X71176114Y25556000D01*
X67279286Y22787400D02*
X67305000Y22757400D01*
X67382143Y22727400D01*
X67433572Y22727400D01*
X67510715Y22757400D01*
X67562143Y22817400D01*
X67587858Y22877400D01*
X67613572Y22997400D01*
X67613572Y23087400D01*
X67587858Y23207400D01*
X67562143Y23267400D01*
X67510715Y23327400D01*
X67433572Y23357400D01*
X67382143Y23357400D01*
X67305000Y23327400D01*
X67279286Y23297400D01*
X67073572Y23297400D02*
X67047858Y23327400D01*
X66996429Y23357400D01*
X66867858Y23357400D01*
X66816429Y23327400D01*
X66790715Y23297400D01*
X66765000Y23237400D01*
X66765000Y23177400D01*
X66790715Y23087400D01*
X67099286Y22727400D01*
X66765000Y22727400D01*
X66559286Y23297400D02*
X66533572Y23327400D01*
X66482143Y23357400D01*
X66353572Y23357400D01*
X66302143Y23327400D01*
X66276429Y23297400D01*
X66250714Y23237400D01*
X66250714Y23177400D01*
X66276429Y23087400D01*
X66585000Y22727400D01*
X66250714Y22727400D01*
X65787857Y23147400D02*
X65787857Y22727400D01*
X65916428Y23387400D02*
X66045000Y22937400D01*
X65710714Y22937400D01*
X63570886Y18342400D02*
X63596600Y18312400D01*
X63673743Y18282400D01*
X63725172Y18282400D01*
X63802315Y18312400D01*
X63853743Y18372400D01*
X63879458Y18432400D01*
X63905172Y18552400D01*
X63905172Y18642400D01*
X63879458Y18762400D01*
X63853743Y18822400D01*
X63802315Y18882400D01*
X63725172Y18912400D01*
X63673743Y18912400D01*
X63596600Y18882400D01*
X63570886Y18852400D01*
X63365172Y18852400D02*
X63339458Y18882400D01*
X63288029Y18912400D01*
X63159458Y18912400D01*
X63108029Y18882400D01*
X63082315Y18852400D01*
X63056600Y18792400D01*
X63056600Y18732400D01*
X63082315Y18642400D01*
X63390886Y18282400D01*
X63056600Y18282400D01*
X62850886Y18852400D02*
X62825172Y18882400D01*
X62773743Y18912400D01*
X62645172Y18912400D01*
X62593743Y18882400D01*
X62568029Y18852400D01*
X62542314Y18792400D01*
X62542314Y18732400D01*
X62568029Y18642400D01*
X62876600Y18282400D01*
X62542314Y18282400D01*
X62053743Y18912400D02*
X62310886Y18912400D01*
X62336600Y18612400D01*
X62310886Y18642400D01*
X62259457Y18672400D01*
X62130886Y18672400D01*
X62079457Y18642400D01*
X62053743Y18612400D01*
X62028028Y18552400D01*
X62028028Y18402400D01*
X62053743Y18342400D01*
X62079457Y18312400D01*
X62130886Y18282400D01*
X62259457Y18282400D01*
X62310886Y18312400D01*
X62336600Y18342400D01*
X73705486Y20628400D02*
X73731200Y20598400D01*
X73808343Y20568400D01*
X73859772Y20568400D01*
X73936915Y20598400D01*
X73988343Y20658400D01*
X74014058Y20718400D01*
X74039772Y20838400D01*
X74039772Y20928400D01*
X74014058Y21048400D01*
X73988343Y21108400D01*
X73936915Y21168400D01*
X73859772Y21198400D01*
X73808343Y21198400D01*
X73731200Y21168400D01*
X73705486Y21138400D01*
X73499772Y21138400D02*
X73474058Y21168400D01*
X73422629Y21198400D01*
X73294058Y21198400D01*
X73242629Y21168400D01*
X73216915Y21138400D01*
X73191200Y21078400D01*
X73191200Y21018400D01*
X73216915Y20928400D01*
X73525486Y20568400D01*
X73191200Y20568400D01*
X72985486Y21138400D02*
X72959772Y21168400D01*
X72908343Y21198400D01*
X72779772Y21198400D01*
X72728343Y21168400D01*
X72702629Y21138400D01*
X72676914Y21078400D01*
X72676914Y21018400D01*
X72702629Y20928400D01*
X73011200Y20568400D01*
X72676914Y20568400D01*
X72214057Y21198400D02*
X72316914Y21198400D01*
X72368343Y21168400D01*
X72394057Y21138400D01*
X72445486Y21048400D01*
X72471200Y20928400D01*
X72471200Y20688400D01*
X72445486Y20628400D01*
X72419771Y20598400D01*
X72368343Y20568400D01*
X72265486Y20568400D01*
X72214057Y20598400D01*
X72188343Y20628400D01*
X72162628Y20688400D01*
X72162628Y20838400D01*
X72188343Y20898400D01*
X72214057Y20928400D01*
X72265486Y20958400D01*
X72368343Y20958400D01*
X72419771Y20928400D01*
X72445486Y20898400D01*
X72471200Y20838400D01*
X76575686Y34446000D02*
X76601400Y34416000D01*
X76678543Y34386000D01*
X76729972Y34386000D01*
X76807115Y34416000D01*
X76858543Y34476000D01*
X76884258Y34536000D01*
X76909972Y34656000D01*
X76909972Y34746000D01*
X76884258Y34866000D01*
X76858543Y34926000D01*
X76807115Y34986000D01*
X76729972Y35016000D01*
X76678543Y35016000D01*
X76601400Y34986000D01*
X76575686Y34956000D01*
X76369972Y34956000D02*
X76344258Y34986000D01*
X76292829Y35016000D01*
X76164258Y35016000D01*
X76112829Y34986000D01*
X76087115Y34956000D01*
X76061400Y34896000D01*
X76061400Y34836000D01*
X76087115Y34746000D01*
X76395686Y34386000D01*
X76061400Y34386000D01*
X75855686Y34956000D02*
X75829972Y34986000D01*
X75778543Y35016000D01*
X75649972Y35016000D01*
X75598543Y34986000D01*
X75572829Y34956000D01*
X75547114Y34896000D01*
X75547114Y34836000D01*
X75572829Y34746000D01*
X75881400Y34386000D01*
X75547114Y34386000D01*
X75367114Y35016000D02*
X75007114Y35016000D01*
X75238543Y34386000D01*
X76626486Y24717800D02*
X76652200Y24687800D01*
X76729343Y24657800D01*
X76780772Y24657800D01*
X76857915Y24687800D01*
X76909343Y24747800D01*
X76935058Y24807800D01*
X76960772Y24927800D01*
X76960772Y25017800D01*
X76935058Y25137800D01*
X76909343Y25197800D01*
X76857915Y25257800D01*
X76780772Y25287800D01*
X76729343Y25287800D01*
X76652200Y25257800D01*
X76626486Y25227800D01*
X76420772Y25227800D02*
X76395058Y25257800D01*
X76343629Y25287800D01*
X76215058Y25287800D01*
X76163629Y25257800D01*
X76137915Y25227800D01*
X76112200Y25167800D01*
X76112200Y25107800D01*
X76137915Y25017800D01*
X76446486Y24657800D01*
X76112200Y24657800D01*
X75906486Y25227800D02*
X75880772Y25257800D01*
X75829343Y25287800D01*
X75700772Y25287800D01*
X75649343Y25257800D01*
X75623629Y25227800D01*
X75597914Y25167800D01*
X75597914Y25107800D01*
X75623629Y25017800D01*
X75932200Y24657800D01*
X75597914Y24657800D01*
X75289343Y25017800D02*
X75340771Y25047800D01*
X75366486Y25077800D01*
X75392200Y25137800D01*
X75392200Y25167800D01*
X75366486Y25227800D01*
X75340771Y25257800D01*
X75289343Y25287800D01*
X75186486Y25287800D01*
X75135057Y25257800D01*
X75109343Y25227800D01*
X75083628Y25167800D01*
X75083628Y25137800D01*
X75109343Y25077800D01*
X75135057Y25047800D01*
X75186486Y25017800D01*
X75289343Y25017800D01*
X75340771Y24987800D01*
X75366486Y24957800D01*
X75392200Y24897800D01*
X75392200Y24777800D01*
X75366486Y24717800D01*
X75340771Y24687800D01*
X75289343Y24657800D01*
X75186486Y24657800D01*
X75135057Y24687800D01*
X75109343Y24717800D01*
X75083628Y24777800D01*
X75083628Y24897800D01*
X75109343Y24957800D01*
X75135057Y24987800D01*
X75186486Y25017800D01*
X79190000Y20009400D02*
X79370000Y20009400D01*
X79370000Y19679400D02*
X79370000Y20309400D01*
X79112857Y20309400D01*
X78727143Y20009400D02*
X78650000Y19979400D01*
X78624285Y19949400D01*
X78598571Y19889400D01*
X78598571Y19799400D01*
X78624285Y19739400D01*
X78650000Y19709400D01*
X78701428Y19679400D01*
X78907143Y19679400D01*
X78907143Y20309400D01*
X78727143Y20309400D01*
X78675714Y20279400D01*
X78650000Y20249400D01*
X78624285Y20189400D01*
X78624285Y20129400D01*
X78650000Y20069400D01*
X78675714Y20039400D01*
X78727143Y20009400D01*
X78907143Y20009400D01*
X78084285Y19679400D02*
X78392857Y19679400D01*
X78238571Y19679400D02*
X78238571Y20309400D01*
X78290000Y20219400D01*
X78341428Y20159400D01*
X78392857Y20129400D01*
X75837200Y37535400D02*
X76017200Y37535400D01*
X76017200Y37205400D02*
X76017200Y37835400D01*
X75760057Y37835400D01*
X75374343Y37535400D02*
X75297200Y37505400D01*
X75271485Y37475400D01*
X75245771Y37415400D01*
X75245771Y37325400D01*
X75271485Y37265400D01*
X75297200Y37235400D01*
X75348628Y37205400D01*
X75554343Y37205400D01*
X75554343Y37835400D01*
X75374343Y37835400D01*
X75322914Y37805400D01*
X75297200Y37775400D01*
X75271485Y37715400D01*
X75271485Y37655400D01*
X75297200Y37595400D01*
X75322914Y37565400D01*
X75374343Y37535400D01*
X75554343Y37535400D01*
X75065771Y37835400D02*
X74731485Y37835400D01*
X74911485Y37595400D01*
X74834343Y37595400D01*
X74782914Y37565400D01*
X74757200Y37535400D01*
X74731485Y37475400D01*
X74731485Y37325400D01*
X74757200Y37265400D01*
X74782914Y37235400D01*
X74834343Y37205400D01*
X74988628Y37205400D01*
X75040057Y37235400D01*
X75065771Y37265400D01*
X31692000Y10332000D02*
X31872000Y10332000D01*
X31872000Y10002000D02*
X31872000Y10632000D01*
X31614857Y10632000D01*
X31229143Y10332000D02*
X31152000Y10302000D01*
X31126285Y10272000D01*
X31100571Y10212000D01*
X31100571Y10122000D01*
X31126285Y10062000D01*
X31152000Y10032000D01*
X31203428Y10002000D01*
X31409143Y10002000D01*
X31409143Y10632000D01*
X31229143Y10632000D01*
X31177714Y10602000D01*
X31152000Y10572000D01*
X31126285Y10512000D01*
X31126285Y10452000D01*
X31152000Y10392000D01*
X31177714Y10362000D01*
X31229143Y10332000D01*
X31409143Y10332000D01*
X30637714Y10422000D02*
X30637714Y10002000D01*
X30766285Y10662000D02*
X30894857Y10212000D01*
X30560571Y10212000D01*
X36086200Y10484400D02*
X36266200Y10484400D01*
X36266200Y10154400D02*
X36266200Y10784400D01*
X36009057Y10784400D01*
X35623343Y10484400D02*
X35546200Y10454400D01*
X35520485Y10424400D01*
X35494771Y10364400D01*
X35494771Y10274400D01*
X35520485Y10214400D01*
X35546200Y10184400D01*
X35597628Y10154400D01*
X35803343Y10154400D01*
X35803343Y10784400D01*
X35623343Y10784400D01*
X35571914Y10754400D01*
X35546200Y10724400D01*
X35520485Y10664400D01*
X35520485Y10604400D01*
X35546200Y10544400D01*
X35571914Y10514400D01*
X35623343Y10484400D01*
X35803343Y10484400D01*
X35006200Y10784400D02*
X35263343Y10784400D01*
X35289057Y10484400D01*
X35263343Y10514400D01*
X35211914Y10544400D01*
X35083343Y10544400D01*
X35031914Y10514400D01*
X35006200Y10484400D01*
X34980485Y10424400D01*
X34980485Y10274400D01*
X35006200Y10214400D01*
X35031914Y10184400D01*
X35083343Y10154400D01*
X35211914Y10154400D01*
X35263343Y10184400D01*
X35289057Y10214400D01*
X43045800Y27731000D02*
X43225800Y27731000D01*
X43225800Y27401000D02*
X43225800Y28031000D01*
X42968657Y28031000D01*
X42582943Y27731000D02*
X42505800Y27701000D01*
X42480085Y27671000D01*
X42454371Y27611000D01*
X42454371Y27521000D01*
X42480085Y27461000D01*
X42505800Y27431000D01*
X42557228Y27401000D01*
X42762943Y27401000D01*
X42762943Y28031000D01*
X42582943Y28031000D01*
X42531514Y28001000D01*
X42505800Y27971000D01*
X42480085Y27911000D01*
X42480085Y27851000D01*
X42505800Y27791000D01*
X42531514Y27761000D01*
X42582943Y27731000D01*
X42762943Y27731000D01*
X42274371Y28031000D02*
X41914371Y28031000D01*
X42145800Y27401000D01*
X32987400Y26867400D02*
X33167400Y26867400D01*
X33167400Y26537400D02*
X33167400Y27167400D01*
X32910257Y27167400D01*
X32524543Y26867400D02*
X32447400Y26837400D01*
X32421685Y26807400D01*
X32395971Y26747400D01*
X32395971Y26657400D01*
X32421685Y26597400D01*
X32447400Y26567400D01*
X32498828Y26537400D01*
X32704543Y26537400D01*
X32704543Y27167400D01*
X32524543Y27167400D01*
X32473114Y27137400D01*
X32447400Y27107400D01*
X32421685Y27047400D01*
X32421685Y26987400D01*
X32447400Y26927400D01*
X32473114Y26897400D01*
X32524543Y26867400D01*
X32704543Y26867400D01*
X32138828Y26537400D02*
X32035971Y26537400D01*
X31984543Y26567400D01*
X31958828Y26597400D01*
X31907400Y26687400D01*
X31881685Y26807400D01*
X31881685Y27047400D01*
X31907400Y27107400D01*
X31933114Y27137400D01*
X31984543Y27167400D01*
X32087400Y27167400D01*
X32138828Y27137400D01*
X32164543Y27107400D01*
X32190257Y27047400D01*
X32190257Y26897400D01*
X32164543Y26837400D01*
X32138828Y26807400D01*
X32087400Y26777400D01*
X31984543Y26777400D01*
X31933114Y26807400D01*
X31907400Y26837400D01*
X31881685Y26897400D01*
X32253943Y86760600D02*
X32433943Y86760600D01*
X32433943Y86430600D02*
X32433943Y87060600D01*
X32176800Y87060600D01*
X31791086Y86760600D02*
X31713943Y86730600D01*
X31688228Y86700600D01*
X31662514Y86640600D01*
X31662514Y86550600D01*
X31688228Y86490600D01*
X31713943Y86460600D01*
X31765371Y86430600D01*
X31971086Y86430600D01*
X31971086Y87060600D01*
X31791086Y87060600D01*
X31739657Y87030600D01*
X31713943Y87000600D01*
X31688228Y86940600D01*
X31688228Y86880600D01*
X31713943Y86820600D01*
X31739657Y86790600D01*
X31791086Y86760600D01*
X31971086Y86760600D01*
X31148228Y86430600D02*
X31456800Y86430600D01*
X31302514Y86430600D02*
X31302514Y87060600D01*
X31353943Y86970600D01*
X31405371Y86910600D01*
X31456800Y86880600D01*
X30633942Y86430600D02*
X30942514Y86430600D01*
X30788228Y86430600D02*
X30788228Y87060600D01*
X30839657Y86970600D01*
X30891085Y86910600D01*
X30942514Y86880600D01*
X32380943Y71520600D02*
X32560943Y71520600D01*
X32560943Y71190600D02*
X32560943Y71820600D01*
X32303800Y71820600D01*
X31918086Y71520600D02*
X31840943Y71490600D01*
X31815228Y71460600D01*
X31789514Y71400600D01*
X31789514Y71310600D01*
X31815228Y71250600D01*
X31840943Y71220600D01*
X31892371Y71190600D01*
X32098086Y71190600D01*
X32098086Y71820600D01*
X31918086Y71820600D01*
X31866657Y71790600D01*
X31840943Y71760600D01*
X31815228Y71700600D01*
X31815228Y71640600D01*
X31840943Y71580600D01*
X31866657Y71550600D01*
X31918086Y71520600D01*
X32098086Y71520600D01*
X31275228Y71190600D02*
X31583800Y71190600D01*
X31429514Y71190600D02*
X31429514Y71820600D01*
X31480943Y71730600D01*
X31532371Y71670600D01*
X31583800Y71640600D01*
X31069514Y71760600D02*
X31043800Y71790600D01*
X30992371Y71820600D01*
X30863800Y71820600D01*
X30812371Y71790600D01*
X30786657Y71760600D01*
X30760942Y71700600D01*
X30760942Y71640600D01*
X30786657Y71550600D01*
X31095228Y71190600D01*
X30760942Y71190600D01*
X32253943Y54578800D02*
X32433943Y54578800D01*
X32433943Y54248800D02*
X32433943Y54878800D01*
X32176800Y54878800D01*
X31791086Y54578800D02*
X31713943Y54548800D01*
X31688228Y54518800D01*
X31662514Y54458800D01*
X31662514Y54368800D01*
X31688228Y54308800D01*
X31713943Y54278800D01*
X31765371Y54248800D01*
X31971086Y54248800D01*
X31971086Y54878800D01*
X31791086Y54878800D01*
X31739657Y54848800D01*
X31713943Y54818800D01*
X31688228Y54758800D01*
X31688228Y54698800D01*
X31713943Y54638800D01*
X31739657Y54608800D01*
X31791086Y54578800D01*
X31971086Y54578800D01*
X31148228Y54248800D02*
X31456800Y54248800D01*
X31302514Y54248800D02*
X31302514Y54878800D01*
X31353943Y54788800D01*
X31405371Y54728800D01*
X31456800Y54698800D01*
X30968228Y54878800D02*
X30633942Y54878800D01*
X30813942Y54638800D01*
X30736800Y54638800D01*
X30685371Y54608800D01*
X30659657Y54578800D01*
X30633942Y54518800D01*
X30633942Y54368800D01*
X30659657Y54308800D01*
X30685371Y54278800D01*
X30736800Y54248800D01*
X30891085Y54248800D01*
X30942514Y54278800D01*
X30968228Y54308800D01*
X66285543Y37688000D02*
X66465543Y37988000D01*
X66594115Y37688000D02*
X66594115Y38318000D01*
X66388400Y38318000D01*
X66336972Y38288000D01*
X66311257Y38258000D01*
X66285543Y38198000D01*
X66285543Y38108000D01*
X66311257Y38048000D01*
X66336972Y38018000D01*
X66388400Y37988000D01*
X66594115Y37988000D01*
X66028400Y37688000D02*
X65925543Y37688000D01*
X65874115Y37718000D01*
X65848400Y37748000D01*
X65796972Y37838000D01*
X65771257Y37958000D01*
X65771257Y38198000D01*
X65796972Y38258000D01*
X65822686Y38288000D01*
X65874115Y38318000D01*
X65976972Y38318000D01*
X66028400Y38288000D01*
X66054115Y38258000D01*
X66079829Y38198000D01*
X66079829Y38048000D01*
X66054115Y37988000D01*
X66028400Y37958000D01*
X65976972Y37928000D01*
X65874115Y37928000D01*
X65822686Y37958000D01*
X65796972Y37988000D01*
X65771257Y38048000D01*
X65462686Y38048000D02*
X65514114Y38078000D01*
X65539829Y38108000D01*
X65565543Y38168000D01*
X65565543Y38198000D01*
X65539829Y38258000D01*
X65514114Y38288000D01*
X65462686Y38318000D01*
X65359829Y38318000D01*
X65308400Y38288000D01*
X65282686Y38258000D01*
X65256971Y38198000D01*
X65256971Y38168000D01*
X65282686Y38108000D01*
X65308400Y38078000D01*
X65359829Y38048000D01*
X65462686Y38048000D01*
X65514114Y38018000D01*
X65539829Y37988000D01*
X65565543Y37928000D01*
X65565543Y37808000D01*
X65539829Y37748000D01*
X65514114Y37718000D01*
X65462686Y37688000D01*
X65359829Y37688000D01*
X65308400Y37718000D01*
X65282686Y37748000D01*
X65256971Y37808000D01*
X65256971Y37928000D01*
X65282686Y37988000D01*
X65308400Y38018000D01*
X65359829Y38048000D01*
X66488743Y18536400D02*
X66668743Y18836400D01*
X66797315Y18536400D02*
X66797315Y19166400D01*
X66591600Y19166400D01*
X66540172Y19136400D01*
X66514457Y19106400D01*
X66488743Y19046400D01*
X66488743Y18956400D01*
X66514457Y18896400D01*
X66540172Y18866400D01*
X66591600Y18836400D01*
X66797315Y18836400D01*
X66231600Y18536400D02*
X66128743Y18536400D01*
X66077315Y18566400D01*
X66051600Y18596400D01*
X66000172Y18686400D01*
X65974457Y18806400D01*
X65974457Y19046400D01*
X66000172Y19106400D01*
X66025886Y19136400D01*
X66077315Y19166400D01*
X66180172Y19166400D01*
X66231600Y19136400D01*
X66257315Y19106400D01*
X66283029Y19046400D01*
X66283029Y18896400D01*
X66257315Y18836400D01*
X66231600Y18806400D01*
X66180172Y18776400D01*
X66077315Y18776400D01*
X66025886Y18806400D01*
X66000172Y18836400D01*
X65974457Y18896400D01*
X65717314Y18536400D02*
X65614457Y18536400D01*
X65563029Y18566400D01*
X65537314Y18596400D01*
X65485886Y18686400D01*
X65460171Y18806400D01*
X65460171Y19046400D01*
X65485886Y19106400D01*
X65511600Y19136400D01*
X65563029Y19166400D01*
X65665886Y19166400D01*
X65717314Y19136400D01*
X65743029Y19106400D01*
X65768743Y19046400D01*
X65768743Y18896400D01*
X65743029Y18836400D01*
X65717314Y18806400D01*
X65665886Y18776400D01*
X65563029Y18776400D01*
X65511600Y18806400D01*
X65485886Y18836400D01*
X65460171Y18896400D01*
X54680886Y25115000D02*
X54860886Y25415000D01*
X54989458Y25115000D02*
X54989458Y25745000D01*
X54783743Y25745000D01*
X54732315Y25715000D01*
X54706600Y25685000D01*
X54680886Y25625000D01*
X54680886Y25535000D01*
X54706600Y25475000D01*
X54732315Y25445000D01*
X54783743Y25415000D01*
X54989458Y25415000D01*
X54166600Y25115000D02*
X54475172Y25115000D01*
X54320886Y25115000D02*
X54320886Y25745000D01*
X54372315Y25655000D01*
X54423743Y25595000D01*
X54475172Y25565000D01*
X53832314Y25745000D02*
X53780886Y25745000D01*
X53729457Y25715000D01*
X53703743Y25685000D01*
X53678029Y25625000D01*
X53652314Y25505000D01*
X53652314Y25355000D01*
X53678029Y25235000D01*
X53703743Y25175000D01*
X53729457Y25145000D01*
X53780886Y25115000D01*
X53832314Y25115000D01*
X53883743Y25145000D01*
X53909457Y25175000D01*
X53935172Y25235000D01*
X53960886Y25355000D01*
X53960886Y25505000D01*
X53935172Y25625000D01*
X53909457Y25685000D01*
X53883743Y25715000D01*
X53832314Y25745000D01*
X53189457Y25745000D02*
X53292314Y25745000D01*
X53343743Y25715000D01*
X53369457Y25685000D01*
X53420886Y25595000D01*
X53446600Y25475000D01*
X53446600Y25235000D01*
X53420886Y25175000D01*
X53395171Y25145000D01*
X53343743Y25115000D01*
X53240886Y25115000D01*
X53189457Y25145000D01*
X53163743Y25175000D01*
X53138028Y25235000D01*
X53138028Y25385000D01*
X53163743Y25445000D01*
X53189457Y25475000D01*
X53240886Y25505000D01*
X53343743Y25505000D01*
X53395171Y25475000D01*
X53420886Y25445000D01*
X53446600Y25385000D01*
X59405286Y24149800D02*
X59585286Y24449800D01*
X59713858Y24149800D02*
X59713858Y24779800D01*
X59508143Y24779800D01*
X59456715Y24749800D01*
X59431000Y24719800D01*
X59405286Y24659800D01*
X59405286Y24569800D01*
X59431000Y24509800D01*
X59456715Y24479800D01*
X59508143Y24449800D01*
X59713858Y24449800D01*
X58891000Y24149800D02*
X59199572Y24149800D01*
X59045286Y24149800D02*
X59045286Y24779800D01*
X59096715Y24689800D01*
X59148143Y24629800D01*
X59199572Y24599800D01*
X58556714Y24779800D02*
X58505286Y24779800D01*
X58453857Y24749800D01*
X58428143Y24719800D01*
X58402429Y24659800D01*
X58376714Y24539800D01*
X58376714Y24389800D01*
X58402429Y24269800D01*
X58428143Y24209800D01*
X58453857Y24179800D01*
X58505286Y24149800D01*
X58556714Y24149800D01*
X58608143Y24179800D01*
X58633857Y24209800D01*
X58659572Y24269800D01*
X58685286Y24389800D01*
X58685286Y24539800D01*
X58659572Y24659800D01*
X58633857Y24719800D01*
X58608143Y24749800D01*
X58556714Y24779800D01*
X58196714Y24779800D02*
X57836714Y24779800D01*
X58068143Y24149800D01*
X65806086Y27705800D02*
X65986086Y28005800D01*
X66114658Y27705800D02*
X66114658Y28335800D01*
X65908943Y28335800D01*
X65857515Y28305800D01*
X65831800Y28275800D01*
X65806086Y28215800D01*
X65806086Y28125800D01*
X65831800Y28065800D01*
X65857515Y28035800D01*
X65908943Y28005800D01*
X66114658Y28005800D01*
X65291800Y27705800D02*
X65600372Y27705800D01*
X65446086Y27705800D02*
X65446086Y28335800D01*
X65497515Y28245800D01*
X65548943Y28185800D01*
X65600372Y28155800D01*
X64777514Y27705800D02*
X65086086Y27705800D01*
X64931800Y27705800D02*
X64931800Y28335800D01*
X64983229Y28245800D01*
X65034657Y28185800D01*
X65086086Y28155800D01*
X64571800Y28275800D02*
X64546086Y28305800D01*
X64494657Y28335800D01*
X64366086Y28335800D01*
X64314657Y28305800D01*
X64288943Y28275800D01*
X64263228Y28215800D01*
X64263228Y28155800D01*
X64288943Y28065800D01*
X64597514Y27705800D01*
X64263228Y27705800D01*
X57678086Y27756600D02*
X57858086Y28056600D01*
X57986658Y27756600D02*
X57986658Y28386600D01*
X57780943Y28386600D01*
X57729515Y28356600D01*
X57703800Y28326600D01*
X57678086Y28266600D01*
X57678086Y28176600D01*
X57703800Y28116600D01*
X57729515Y28086600D01*
X57780943Y28056600D01*
X57986658Y28056600D01*
X57163800Y27756600D02*
X57472372Y27756600D01*
X57318086Y27756600D02*
X57318086Y28386600D01*
X57369515Y28296600D01*
X57420943Y28236600D01*
X57472372Y28206600D01*
X56649514Y27756600D02*
X56958086Y27756600D01*
X56803800Y27756600D02*
X56803800Y28386600D01*
X56855229Y28296600D01*
X56906657Y28236600D01*
X56958086Y28206600D01*
X56469514Y28386600D02*
X56135228Y28386600D01*
X56315228Y28146600D01*
X56238086Y28146600D01*
X56186657Y28116600D01*
X56160943Y28086600D01*
X56135228Y28026600D01*
X56135228Y27876600D01*
X56160943Y27816600D01*
X56186657Y27786600D01*
X56238086Y27756600D01*
X56392371Y27756600D01*
X56443800Y27786600D01*
X56469514Y27816600D01*
X65882286Y29687000D02*
X66062286Y29987000D01*
X66190858Y29687000D02*
X66190858Y30317000D01*
X65985143Y30317000D01*
X65933715Y30287000D01*
X65908000Y30257000D01*
X65882286Y30197000D01*
X65882286Y30107000D01*
X65908000Y30047000D01*
X65933715Y30017000D01*
X65985143Y29987000D01*
X66190858Y29987000D01*
X65368000Y29687000D02*
X65676572Y29687000D01*
X65522286Y29687000D02*
X65522286Y30317000D01*
X65573715Y30227000D01*
X65625143Y30167000D01*
X65676572Y30137000D01*
X64853714Y29687000D02*
X65162286Y29687000D01*
X65008000Y29687000D02*
X65008000Y30317000D01*
X65059429Y30227000D01*
X65110857Y30167000D01*
X65162286Y30137000D01*
X64390857Y30107000D02*
X64390857Y29687000D01*
X64519428Y30347000D02*
X64648000Y29897000D01*
X64313714Y29897000D01*
X66923686Y30601400D02*
X67103686Y30901400D01*
X67232258Y30601400D02*
X67232258Y31231400D01*
X67026543Y31231400D01*
X66975115Y31201400D01*
X66949400Y31171400D01*
X66923686Y31111400D01*
X66923686Y31021400D01*
X66949400Y30961400D01*
X66975115Y30931400D01*
X67026543Y30901400D01*
X67232258Y30901400D01*
X66409400Y30601400D02*
X66717972Y30601400D01*
X66563686Y30601400D02*
X66563686Y31231400D01*
X66615115Y31141400D01*
X66666543Y31081400D01*
X66717972Y31051400D01*
X65895114Y30601400D02*
X66203686Y30601400D01*
X66049400Y30601400D02*
X66049400Y31231400D01*
X66100829Y31141400D01*
X66152257Y31081400D01*
X66203686Y31051400D01*
X65406543Y31231400D02*
X65663686Y31231400D01*
X65689400Y30931400D01*
X65663686Y30961400D01*
X65612257Y30991400D01*
X65483686Y30991400D01*
X65432257Y30961400D01*
X65406543Y30931400D01*
X65380828Y30871400D01*
X65380828Y30721400D01*
X65406543Y30661400D01*
X65432257Y30631400D01*
X65483686Y30601400D01*
X65612257Y30601400D01*
X65663686Y30631400D01*
X65689400Y30661400D01*
X69209686Y31338000D02*
X69389686Y31638000D01*
X69518258Y31338000D02*
X69518258Y31968000D01*
X69312543Y31968000D01*
X69261115Y31938000D01*
X69235400Y31908000D01*
X69209686Y31848000D01*
X69209686Y31758000D01*
X69235400Y31698000D01*
X69261115Y31668000D01*
X69312543Y31638000D01*
X69518258Y31638000D01*
X68695400Y31338000D02*
X69003972Y31338000D01*
X68849686Y31338000D02*
X68849686Y31968000D01*
X68901115Y31878000D01*
X68952543Y31818000D01*
X69003972Y31788000D01*
X68181114Y31338000D02*
X68489686Y31338000D01*
X68335400Y31338000D02*
X68335400Y31968000D01*
X68386829Y31878000D01*
X68438257Y31818000D01*
X68489686Y31788000D01*
X67718257Y31968000D02*
X67821114Y31968000D01*
X67872543Y31938000D01*
X67898257Y31908000D01*
X67949686Y31818000D01*
X67975400Y31698000D01*
X67975400Y31458000D01*
X67949686Y31398000D01*
X67923971Y31368000D01*
X67872543Y31338000D01*
X67769686Y31338000D01*
X67718257Y31368000D01*
X67692543Y31398000D01*
X67666828Y31458000D01*
X67666828Y31608000D01*
X67692543Y31668000D01*
X67718257Y31698000D01*
X67769686Y31728000D01*
X67872543Y31728000D01*
X67923971Y31698000D01*
X67949686Y31668000D01*
X67975400Y31608000D01*
X64663086Y32684200D02*
X64843086Y32984200D01*
X64971658Y32684200D02*
X64971658Y33314200D01*
X64765943Y33314200D01*
X64714515Y33284200D01*
X64688800Y33254200D01*
X64663086Y33194200D01*
X64663086Y33104200D01*
X64688800Y33044200D01*
X64714515Y33014200D01*
X64765943Y32984200D01*
X64971658Y32984200D01*
X64148800Y32684200D02*
X64457372Y32684200D01*
X64303086Y32684200D02*
X64303086Y33314200D01*
X64354515Y33224200D01*
X64405943Y33164200D01*
X64457372Y33134200D01*
X63634514Y32684200D02*
X63943086Y32684200D01*
X63788800Y32684200D02*
X63788800Y33314200D01*
X63840229Y33224200D01*
X63891657Y33164200D01*
X63943086Y33134200D01*
X63454514Y33314200D02*
X63094514Y33314200D01*
X63325943Y32684200D01*
X57805086Y29890200D02*
X57985086Y30190200D01*
X58113658Y29890200D02*
X58113658Y30520200D01*
X57907943Y30520200D01*
X57856515Y30490200D01*
X57830800Y30460200D01*
X57805086Y30400200D01*
X57805086Y30310200D01*
X57830800Y30250200D01*
X57856515Y30220200D01*
X57907943Y30190200D01*
X58113658Y30190200D01*
X57290800Y29890200D02*
X57599372Y29890200D01*
X57445086Y29890200D02*
X57445086Y30520200D01*
X57496515Y30430200D01*
X57547943Y30370200D01*
X57599372Y30340200D01*
X56776514Y29890200D02*
X57085086Y29890200D01*
X56930800Y29890200D02*
X56930800Y30520200D01*
X56982229Y30430200D01*
X57033657Y30370200D01*
X57085086Y30340200D01*
X56467943Y30250200D02*
X56519371Y30280200D01*
X56545086Y30310200D01*
X56570800Y30370200D01*
X56570800Y30400200D01*
X56545086Y30460200D01*
X56519371Y30490200D01*
X56467943Y30520200D01*
X56365086Y30520200D01*
X56313657Y30490200D01*
X56287943Y30460200D01*
X56262228Y30400200D01*
X56262228Y30370200D01*
X56287943Y30310200D01*
X56313657Y30280200D01*
X56365086Y30250200D01*
X56467943Y30250200D01*
X56519371Y30220200D01*
X56545086Y30190200D01*
X56570800Y30130200D01*
X56570800Y30010200D01*
X56545086Y29950200D01*
X56519371Y29920200D01*
X56467943Y29890200D01*
X56365086Y29890200D01*
X56313657Y29920200D01*
X56287943Y29950200D01*
X56262228Y30010200D01*
X56262228Y30130200D01*
X56287943Y30190200D01*
X56313657Y30220200D01*
X56365086Y30250200D01*
X57627286Y30880800D02*
X57807286Y31180800D01*
X57935858Y30880800D02*
X57935858Y31510800D01*
X57730143Y31510800D01*
X57678715Y31480800D01*
X57653000Y31450800D01*
X57627286Y31390800D01*
X57627286Y31300800D01*
X57653000Y31240800D01*
X57678715Y31210800D01*
X57730143Y31180800D01*
X57935858Y31180800D01*
X57113000Y30880800D02*
X57421572Y30880800D01*
X57267286Y30880800D02*
X57267286Y31510800D01*
X57318715Y31420800D01*
X57370143Y31360800D01*
X57421572Y31330800D01*
X56598714Y30880800D02*
X56907286Y30880800D01*
X56753000Y30880800D02*
X56753000Y31510800D01*
X56804429Y31420800D01*
X56855857Y31360800D01*
X56907286Y31330800D01*
X56341571Y30880800D02*
X56238714Y30880800D01*
X56187286Y30910800D01*
X56161571Y30940800D01*
X56110143Y31030800D01*
X56084428Y31150800D01*
X56084428Y31390800D01*
X56110143Y31450800D01*
X56135857Y31480800D01*
X56187286Y31510800D01*
X56290143Y31510800D01*
X56341571Y31480800D01*
X56367286Y31450800D01*
X56393000Y31390800D01*
X56393000Y31240800D01*
X56367286Y31180800D01*
X56341571Y31150800D01*
X56290143Y31120800D01*
X56187286Y31120800D01*
X56135857Y31150800D01*
X56110143Y31180800D01*
X56084428Y31240800D01*
X57627286Y31795200D02*
X57807286Y32095200D01*
X57935858Y31795200D02*
X57935858Y32425200D01*
X57730143Y32425200D01*
X57678715Y32395200D01*
X57653000Y32365200D01*
X57627286Y32305200D01*
X57627286Y32215200D01*
X57653000Y32155200D01*
X57678715Y32125200D01*
X57730143Y32095200D01*
X57935858Y32095200D01*
X57113000Y31795200D02*
X57421572Y31795200D01*
X57267286Y31795200D02*
X57267286Y32425200D01*
X57318715Y32335200D01*
X57370143Y32275200D01*
X57421572Y32245200D01*
X56907286Y32365200D02*
X56881572Y32395200D01*
X56830143Y32425200D01*
X56701572Y32425200D01*
X56650143Y32395200D01*
X56624429Y32365200D01*
X56598714Y32305200D01*
X56598714Y32245200D01*
X56624429Y32155200D01*
X56933000Y31795200D01*
X56598714Y31795200D01*
X56264428Y32425200D02*
X56213000Y32425200D01*
X56161571Y32395200D01*
X56135857Y32365200D01*
X56110143Y32305200D01*
X56084428Y32185200D01*
X56084428Y32035200D01*
X56110143Y31915200D01*
X56135857Y31855200D01*
X56161571Y31825200D01*
X56213000Y31795200D01*
X56264428Y31795200D01*
X56315857Y31825200D01*
X56341571Y31855200D01*
X56367286Y31915200D01*
X56393000Y32035200D01*
X56393000Y32185200D01*
X56367286Y32305200D01*
X56341571Y32365200D01*
X56315857Y32395200D01*
X56264428Y32425200D01*
X57652686Y32760400D02*
X57832686Y33060400D01*
X57961258Y32760400D02*
X57961258Y33390400D01*
X57755543Y33390400D01*
X57704115Y33360400D01*
X57678400Y33330400D01*
X57652686Y33270400D01*
X57652686Y33180400D01*
X57678400Y33120400D01*
X57704115Y33090400D01*
X57755543Y33060400D01*
X57961258Y33060400D01*
X57138400Y32760400D02*
X57446972Y32760400D01*
X57292686Y32760400D02*
X57292686Y33390400D01*
X57344115Y33300400D01*
X57395543Y33240400D01*
X57446972Y33210400D01*
X56932686Y33330400D02*
X56906972Y33360400D01*
X56855543Y33390400D01*
X56726972Y33390400D01*
X56675543Y33360400D01*
X56649829Y33330400D01*
X56624114Y33270400D01*
X56624114Y33210400D01*
X56649829Y33120400D01*
X56958400Y32760400D01*
X56624114Y32760400D01*
X56109828Y32760400D02*
X56418400Y32760400D01*
X56264114Y32760400D02*
X56264114Y33390400D01*
X56315543Y33300400D01*
X56366971Y33240400D01*
X56418400Y33210400D01*
X65907686Y28721800D02*
X66087686Y29021800D01*
X66216258Y28721800D02*
X66216258Y29351800D01*
X66010543Y29351800D01*
X65959115Y29321800D01*
X65933400Y29291800D01*
X65907686Y29231800D01*
X65907686Y29141800D01*
X65933400Y29081800D01*
X65959115Y29051800D01*
X66010543Y29021800D01*
X66216258Y29021800D01*
X65393400Y28721800D02*
X65701972Y28721800D01*
X65547686Y28721800D02*
X65547686Y29351800D01*
X65599115Y29261800D01*
X65650543Y29201800D01*
X65701972Y29171800D01*
X65187686Y29291800D02*
X65161972Y29321800D01*
X65110543Y29351800D01*
X64981972Y29351800D01*
X64930543Y29321800D01*
X64904829Y29291800D01*
X64879114Y29231800D01*
X64879114Y29171800D01*
X64904829Y29081800D01*
X65213400Y28721800D01*
X64879114Y28721800D01*
X64673400Y29291800D02*
X64647686Y29321800D01*
X64596257Y29351800D01*
X64467686Y29351800D01*
X64416257Y29321800D01*
X64390543Y29291800D01*
X64364828Y29231800D01*
X64364828Y29171800D01*
X64390543Y29081800D01*
X64699114Y28721800D01*
X64364828Y28721800D01*
X57678086Y28848800D02*
X57858086Y29148800D01*
X57986658Y28848800D02*
X57986658Y29478800D01*
X57780943Y29478800D01*
X57729515Y29448800D01*
X57703800Y29418800D01*
X57678086Y29358800D01*
X57678086Y29268800D01*
X57703800Y29208800D01*
X57729515Y29178800D01*
X57780943Y29148800D01*
X57986658Y29148800D01*
X57163800Y28848800D02*
X57472372Y28848800D01*
X57318086Y28848800D02*
X57318086Y29478800D01*
X57369515Y29388800D01*
X57420943Y29328800D01*
X57472372Y29298800D01*
X56958086Y29418800D02*
X56932372Y29448800D01*
X56880943Y29478800D01*
X56752372Y29478800D01*
X56700943Y29448800D01*
X56675229Y29418800D01*
X56649514Y29358800D01*
X56649514Y29298800D01*
X56675229Y29208800D01*
X56983800Y28848800D01*
X56649514Y28848800D01*
X56469514Y29478800D02*
X56135228Y29478800D01*
X56315228Y29238800D01*
X56238086Y29238800D01*
X56186657Y29208800D01*
X56160943Y29178800D01*
X56135228Y29118800D01*
X56135228Y28968800D01*
X56160943Y28908800D01*
X56186657Y28878800D01*
X56238086Y28848800D01*
X56392371Y28848800D01*
X56443800Y28878800D01*
X56469514Y28908800D01*
M02*
