G04 #@! TF.FileFunction,Soldermask,Top*
%FSLAX46Y46*%
G04 Gerber Fmt 4.6, Leading zero omitted, Abs format (unit mm)*
G04 Created by KiCad (PCBNEW 4.0.5) date Sat Apr  1 23:31:31 2017*
%MOMM*%
%LPD*%
G01*
G04 APERTURE LIST*
%ADD10C,0.100000*%
%ADD11R,0.558800X0.508000*%
%ADD12R,0.508000X0.558800*%
%ADD13R,1.300000X1.500000*%
%ADD14R,3.476752X2.577084*%
%ADD15R,1.000000X0.750000*%
%ADD16R,2.700000X1.300000*%
%ADD17R,1.300000X2.700000*%
%ADD18R,0.750000X1.000000*%
%ADD19C,2.000000*%
%ADD20R,4.851400X0.762000*%
%ADD21R,4.826000X3.302000*%
%ADD22C,1.661922*%
%ADD23R,1.661922X1.661922*%
%ADD24C,1.651000*%
%ADD25C,2.032000*%
%ADD26C,2.336800*%
%ADD27C,4.013200*%
%ADD28C,3.302000*%
%ADD29C,2.362200*%
%ADD30C,3.048000*%
%ADD31C,3.556000*%
%ADD32C,1.828800*%
%ADD33R,1.627124X4.126992*%
%ADD34R,1.254000X1.754000*%
%ADD35C,4.826000*%
%ADD36R,0.889000X1.422400*%
%ADD37R,1.422400X1.066800*%
%ADD38R,0.863600X1.016000*%
%ADD39R,5.844000X1.274000*%
%ADD40C,0.635000*%
%ADD41R,1.076706X0.426974*%
%ADD42R,0.426974X1.076706*%
%ADD43R,3.376930X3.376930*%
%ADD44R,0.990600X0.990600*%
%ADD45R,0.875030X0.426974*%
%ADD46R,0.976630X0.426974*%
%ADD47R,0.426974X0.875030*%
%ADD48R,0.426974X0.976630*%
%ADD49R,5.527040X5.527040*%
%ADD50R,1.295400X1.295400*%
%ADD51R,1.016000X0.533400*%
%ADD52R,0.838200X2.667000*%
%ADD53R,1.576832X0.376936*%
%ADD54R,0.376936X1.576832*%
%ADD55R,0.726948X0.376936*%
%ADD56R,0.376936X0.726948*%
%ADD57R,7.326884X7.326884*%
%ADD58R,1.651000X1.651000*%
%ADD59R,0.376936X0.827024*%
%ADD60R,0.827024X0.376936*%
%ADD61R,3.777234X2.776982*%
%ADD62R,1.219200X1.219200*%
%ADD63R,5.126990X5.126990*%
%ADD64R,1.753870X0.583946*%
%ADD65R,0.914000X1.254000*%
%ADD66R,5.627116X1.627124*%
%ADD67R,2.426716X2.227072*%
G04 APERTURE END LIST*
D10*
D11*
X27813000Y86258400D03*
X28778200Y86258400D03*
X15519400Y86614000D03*
X16484600Y86614000D03*
X7899400Y81534000D03*
X8864600Y81534000D03*
X15544800Y85674200D03*
X16510000Y85674200D03*
X16789400Y82804000D03*
X17754600Y82804000D03*
X20345400Y81661000D03*
X21310600Y81661000D03*
X26009600Y85344000D03*
X26974800Y85344000D03*
X29997400Y83591400D03*
X30962600Y83591400D03*
X29997400Y82702400D03*
X30962600Y82702400D03*
X29997400Y80899000D03*
X30962600Y80899000D03*
X29997400Y80010000D03*
X30962600Y80010000D03*
D12*
X25933400Y75539600D03*
X25933400Y74574400D03*
D11*
X23901400Y74803000D03*
X24866600Y74803000D03*
D12*
X22987000Y76377800D03*
X22987000Y75412600D03*
X18923000Y78695800D03*
X18923000Y77730600D03*
D11*
X22352000Y77825600D03*
X23317200Y77825600D03*
D12*
X21437600Y78790800D03*
X21437600Y77825600D03*
X29311600Y79070200D03*
X29311600Y78105000D03*
X21437600Y85039200D03*
X21437600Y86004400D03*
X20701000Y83642200D03*
X20701000Y82677000D03*
D11*
X25120600Y86334600D03*
X26085800Y86334600D03*
D12*
X26695400Y77393800D03*
X26695400Y76428600D03*
X20548600Y80365600D03*
X20548600Y79400400D03*
D11*
X10693400Y81534000D03*
X11658600Y81534000D03*
X30117800Y81788000D03*
X31083000Y81788000D03*
X30810200Y84505800D03*
X31775400Y84505800D03*
X30505400Y78994000D03*
X31470600Y78994000D03*
D12*
X33578800Y76250800D03*
X33578800Y75285600D03*
X31724600Y77343000D03*
X31724600Y76377800D03*
D11*
X41681400Y78867000D03*
X42646600Y78867000D03*
D12*
X31800800Y86080600D03*
X31800800Y87045800D03*
X33528000Y86893400D03*
X33528000Y87858600D03*
D11*
X41630600Y84251800D03*
X42595800Y84251800D03*
D12*
X28371800Y76835000D03*
X28371800Y77800200D03*
D11*
X30759400Y36474400D03*
X31724600Y36474400D03*
X31445200Y30937200D03*
X30480000Y30937200D03*
X31064200Y33756600D03*
X30099000Y33756600D03*
X43496990Y17373600D03*
X44462190Y17373600D03*
X43942000Y16357600D03*
X44907200Y16357600D03*
X46558200Y15189200D03*
X47523400Y15189200D03*
X28752800Y23825200D03*
X29718000Y23825200D03*
X28752800Y20574000D03*
X29718000Y20574000D03*
X28752800Y16433800D03*
X29718000Y16433800D03*
D13*
X25947800Y12852400D03*
X27747800Y12852400D03*
D12*
X30429200Y13766800D03*
X30429200Y12801600D03*
D11*
X43002200Y23698200D03*
X43967400Y23698200D03*
D12*
X30048200Y19532600D03*
X30048200Y18567400D03*
X33756600Y12573000D03*
X33756600Y11607800D03*
X32639000Y12598400D03*
X32639000Y11633200D03*
X37261800Y12630400D03*
X37261800Y11665200D03*
X39522400Y12750800D03*
X39522400Y11785600D03*
D11*
X30861000Y25476200D03*
X29895800Y25476200D03*
X39395400Y26187400D03*
X40360600Y26187400D03*
D12*
X42722800Y15417800D03*
X42722800Y14452600D03*
D11*
X27800300Y70332600D03*
X28765500Y70332600D03*
X15494000Y70637400D03*
X16459200Y70637400D03*
X7975600Y65532000D03*
X8940800Y65532000D03*
X15519400Y69672200D03*
X16484600Y69672200D03*
X16814800Y66776600D03*
X17780000Y66776600D03*
X20472400Y65608200D03*
X21437600Y65608200D03*
X26009600Y69418200D03*
X26974800Y69418200D03*
X29997400Y67564000D03*
X30962600Y67564000D03*
X29997400Y66675000D03*
X30962600Y66675000D03*
X29997400Y64897000D03*
X30962600Y64897000D03*
X29997400Y64008000D03*
X30962600Y64008000D03*
X25501600Y59029600D03*
X26466800Y59029600D03*
X23926800Y58928000D03*
X24892000Y58928000D03*
X22504400Y59893200D03*
X23469600Y59893200D03*
X18465800Y62153800D03*
X19431000Y62153800D03*
X22250400Y61722000D03*
X23215600Y61722000D03*
X20980400Y69596000D03*
X21945600Y69596000D03*
X28829000Y62611000D03*
X29794200Y62611000D03*
X19964400Y63881000D03*
X20929600Y63881000D03*
X25171400Y70510400D03*
X26136600Y70510400D03*
X26009600Y60934600D03*
X26974800Y60934600D03*
X19837400Y67437000D03*
X20802600Y67437000D03*
X20853400Y62331600D03*
X21818600Y62331600D03*
X10769600Y65532000D03*
X11734800Y65532000D03*
X30124400Y65786000D03*
X31089600Y65786000D03*
X30759400Y68503800D03*
X31724600Y68503800D03*
X30562800Y62960000D03*
X31528000Y62960000D03*
X32994600Y59715400D03*
X33959800Y59715400D03*
X31260800Y60814200D03*
X32226000Y60814200D03*
X31248600Y70503800D03*
X32213800Y70503800D03*
X41757600Y68173600D03*
X42722800Y68173600D03*
X41757600Y62839600D03*
X42722800Y62839600D03*
X32385000Y70916800D03*
X33350200Y70916800D03*
X27914600Y61010800D03*
X28879800Y61010800D03*
X27863800Y54279800D03*
X28829000Y54279800D03*
X15519400Y54635400D03*
X16484600Y54635400D03*
X7899400Y49504600D03*
X8864600Y49504600D03*
X15468600Y53721000D03*
X16433800Y53721000D03*
X16789400Y50850800D03*
X17754600Y50850800D03*
X20320000Y49606200D03*
X21285200Y49606200D03*
X26009600Y53416200D03*
X26974800Y53416200D03*
X29946600Y51638200D03*
X30911800Y51638200D03*
X29997400Y50698400D03*
X30962600Y50698400D03*
X29972000Y48818800D03*
X30937200Y48818800D03*
X29972000Y47853600D03*
X30937200Y47853600D03*
X25450800Y42976800D03*
X26416000Y42976800D03*
X23952200Y42900600D03*
X24917400Y42900600D03*
X22555200Y43891200D03*
X23520400Y43891200D03*
X18415000Y46151800D03*
X19380200Y46151800D03*
X22377400Y45796200D03*
X23342600Y45796200D03*
X20980400Y53543200D03*
X21945600Y53543200D03*
X19989800Y51358800D03*
X20955000Y51358800D03*
X25984200Y44881800D03*
X26949400Y44881800D03*
X20015200Y47853600D03*
X20980400Y47853600D03*
X25196800Y54381400D03*
X26162000Y54381400D03*
X28778200Y46482000D03*
X29743400Y46482000D03*
X20955000Y46253400D03*
X21920200Y46253400D03*
X10693400Y49504600D03*
X11658600Y49504600D03*
X30200600Y49758600D03*
X31165800Y49758600D03*
X30734000Y52552600D03*
X31699200Y52552600D03*
X30480000Y46939200D03*
X31445200Y46939200D03*
X31267400Y54572410D03*
X32232600Y54572410D03*
X31267400Y44805600D03*
X32232600Y44805600D03*
X33096200Y43789600D03*
X34061400Y43789600D03*
X33045400Y55321200D03*
X34010600Y55321200D03*
X41884600Y46888400D03*
X42849800Y46888400D03*
X41859200Y52247800D03*
X42824400Y52247800D03*
X27889200Y44983400D03*
X28854400Y44983400D03*
X27838400Y35610800D03*
X28803600Y35610800D03*
X27838400Y34645600D03*
X28803600Y34645600D03*
X27838400Y32766000D03*
X28803600Y32766000D03*
X27806400Y31826200D03*
X28771600Y31826200D03*
X71551800Y19913600D03*
X72517000Y19913600D03*
X73488800Y19939000D03*
X74454000Y19939000D03*
D14*
X65319656Y87680800D03*
X70519544Y87680800D03*
D15*
X71196200Y75016586D03*
X71196200Y76316586D03*
D16*
X59563000Y82471000D03*
X59563000Y85471000D03*
D14*
X74895456Y87706200D03*
X80095344Y87706200D03*
D16*
X85725000Y82471000D03*
X85725000Y85471000D03*
D11*
X31292800Y38525200D03*
X32258000Y38525200D03*
X33020000Y39319200D03*
X33985200Y39319200D03*
D12*
X31699200Y29305000D03*
X31699200Y28339800D03*
X33528000Y28263600D03*
X33528000Y27298400D03*
D11*
X41757600Y36195000D03*
X42722800Y36195000D03*
X41700200Y30886400D03*
X42665400Y30886400D03*
X68961000Y72237600D03*
X69926200Y72237600D03*
D12*
X36449000Y74117200D03*
X36449000Y75082400D03*
D11*
X47015400Y60655200D03*
X47980600Y60655200D03*
D12*
X19532600Y16440400D03*
X19532600Y15475200D03*
X19558000Y20796000D03*
X19558000Y19830800D03*
X19583400Y24003000D03*
X19583400Y23037800D03*
D17*
X82980400Y74117200D03*
X85980400Y74117200D03*
D11*
X43789600Y20580600D03*
X44754800Y20580600D03*
D18*
X44866800Y20955000D03*
X46166800Y20955000D03*
D13*
X65216200Y18491200D03*
X67016200Y18491200D03*
D11*
X71094600Y25044400D03*
X72059800Y25044400D03*
X37287200Y27762200D03*
X38252400Y27762200D03*
X60756800Y11639800D03*
X61722000Y11639800D03*
D12*
X25679400Y23799800D03*
X25679400Y22834600D03*
X21869400Y23876000D03*
X21869400Y22910800D03*
X25711400Y20618200D03*
X25711400Y19653000D03*
X21876000Y20796000D03*
X21876000Y19830800D03*
X25755600Y16484600D03*
X25755600Y15519400D03*
X21818600Y16433800D03*
X21818600Y15468600D03*
D17*
X53262400Y89763600D03*
X56262400Y89763600D03*
D12*
X17297400Y33502600D03*
X17297400Y32537400D03*
X21183600Y33502600D03*
X21183600Y32537400D03*
D11*
X16027400Y19456400D03*
X15062200Y19456400D03*
X16027400Y23393400D03*
X15062200Y23393400D03*
X11607800Y79248000D03*
X12573000Y79248000D03*
X13004800Y86512400D03*
X13970000Y86512400D03*
X11709400Y63246000D03*
X12674600Y63246000D03*
X11887200Y70485000D03*
X12852400Y70485000D03*
X11709400Y46990000D03*
X12674600Y46990000D03*
X12109200Y54305200D03*
X13074400Y54305200D03*
X89071200Y38760400D03*
X90036400Y38760400D03*
X99339400Y43942000D03*
X100304600Y43942000D03*
X96145600Y14097000D03*
X97110800Y14097000D03*
X98596200Y14097000D03*
X99561400Y14097000D03*
X98939600Y36576000D03*
X99904800Y36576000D03*
X96272600Y36576000D03*
X97237800Y36576000D03*
X50546000Y21513800D03*
X51511200Y21513800D03*
X51104800Y11702800D03*
X52070000Y11702800D03*
D18*
X68565000Y19837400D03*
X69865000Y19837400D03*
D11*
X44729400Y25298400D03*
X45694600Y25298400D03*
X38455600Y28778200D03*
X39420800Y28778200D03*
X61849000Y11589000D03*
X62814200Y11589000D03*
D15*
X8001000Y77948000D03*
X8001000Y79248000D03*
D18*
X7478000Y62611000D03*
X8778000Y62611000D03*
X7478000Y46355000D03*
X8778000Y46355000D03*
D11*
X54610000Y22733000D03*
X55575200Y22733000D03*
D19*
X2540000Y6350000D03*
X115316000Y6350000D03*
X2540000Y92710000D03*
D20*
X2527300Y81470500D03*
D21*
X2540000Y77216000D03*
X2540000Y85725000D03*
D20*
X2540000Y65532000D03*
D21*
X2552700Y61277500D03*
X2552700Y69786500D03*
D20*
X2537460Y49530000D03*
D21*
X2550160Y45275500D03*
X2550160Y53784500D03*
D20*
X2527300Y33528000D03*
D21*
X2540000Y29273500D03*
X2540000Y37782500D03*
D20*
X2540000Y17526000D03*
D21*
X2552700Y13271500D03*
X2552700Y21780500D03*
D22*
X103124000Y48578008D03*
D23*
X101124004Y48578008D03*
D22*
X103124000Y50578004D03*
X101124004Y50578004D03*
X103124000Y52578000D03*
X101124004Y52578000D03*
X103124000Y54577996D03*
X101124004Y54577996D03*
X103124000Y56577992D03*
X101124004Y56577992D03*
X103124000Y58577988D03*
X101124004Y58577988D03*
X103124000Y60577984D03*
X101124004Y60577984D03*
D24*
X99568000Y30632400D03*
X99568000Y28600400D03*
X99568000Y26568400D03*
X99568000Y24536400D03*
X99568000Y22504400D03*
X99568000Y20472400D03*
X97028000Y31648400D03*
X97028000Y29616400D03*
X97028000Y27584400D03*
X97028000Y23520400D03*
X97028000Y21488400D03*
X97028000Y19456400D03*
D25*
X112522000Y33070800D03*
X115062000Y33070800D03*
X109982000Y18034000D03*
X112522000Y18034000D03*
X115062000Y18034000D03*
D26*
X106172000Y34340800D03*
X106172000Y16764000D03*
D27*
X106172000Y30378400D03*
X106172000Y20726400D03*
D28*
X114283998Y81970118D03*
X114283998Y72969882D03*
D29*
X116283994Y77470000D03*
D30*
X113284000Y77470000D03*
D31*
X107284012Y77470000D03*
D32*
X93980000Y45720000D03*
X91440000Y45720000D03*
X93980000Y48260000D03*
X91440000Y48260000D03*
X93980000Y50800000D03*
X91440000Y50800000D03*
X93980000Y53340000D03*
X91440000Y53340000D03*
X93980000Y55880000D03*
X91440000Y55880000D03*
X93980000Y58420000D03*
X91440000Y58420000D03*
X93980000Y60960000D03*
X91440000Y60960000D03*
X93980000Y63500000D03*
X91440000Y63500000D03*
D12*
X9779000Y81584800D03*
X9779000Y80619600D03*
X15494000Y84759800D03*
X15494000Y83794600D03*
D11*
X9372600Y65049400D03*
X10337800Y65049400D03*
X15062200Y68275200D03*
X16027400Y68275200D03*
X9296400Y48996600D03*
X10261600Y48996600D03*
X14986000Y52324000D03*
X15951200Y52324000D03*
D33*
X62741302Y80772000D03*
X66341498Y80772000D03*
X79124302Y80746600D03*
X82724498Y80746600D03*
D12*
X6350000Y82550000D03*
X6350000Y81584800D03*
D11*
X6121400Y66014600D03*
X7086600Y66014600D03*
X5994400Y50012600D03*
X6959600Y50012600D03*
D18*
X23022800Y23850600D03*
X24322800Y23850600D03*
X23048200Y20675600D03*
X24348200Y20675600D03*
X23048200Y16383000D03*
X24348200Y16383000D03*
X18603200Y33528000D03*
X19903200Y33528000D03*
D15*
X16027400Y22062200D03*
X16027400Y20762200D03*
D18*
X73899000Y44678600D03*
X75199000Y44678600D03*
D34*
X116586000Y48708000D03*
X116586000Y51308000D03*
X116586000Y42866000D03*
X116586000Y45466000D03*
X116586000Y62738000D03*
X116586000Y65338000D03*
D35*
X8255000Y90805000D03*
X109601000Y90805000D03*
X8255000Y8255000D03*
X109601000Y8255000D03*
D36*
X59067700Y8496300D03*
X60337700Y8496300D03*
X61607700Y8496300D03*
X61607700Y12661900D03*
X60337700Y12661900D03*
X59067700Y12661900D03*
D37*
X63436500Y9309100D03*
X63436500Y11849100D03*
X57238900Y11849100D03*
X57238900Y9309100D03*
D38*
X91795600Y78553820D03*
X93776800Y78553820D03*
X92786200Y80636620D03*
D12*
X18796000Y82956400D03*
X18796000Y83921600D03*
D11*
X14274800Y80035400D03*
X15240000Y80035400D03*
X18415000Y81915000D03*
X19380200Y81915000D03*
X24053800Y76936600D03*
X25019000Y76936600D03*
X24053800Y75946000D03*
X25019000Y75946000D03*
D12*
X17830800Y78670400D03*
X17830800Y77705200D03*
D11*
X27609800Y75819000D03*
X28575000Y75819000D03*
X45923200Y16383000D03*
X46888400Y16383000D03*
X45891200Y17798800D03*
X46856400Y17798800D03*
X26847800Y23825200D03*
X27813000Y23825200D03*
X26822400Y20574000D03*
X27787600Y20574000D03*
X26835610Y16433800D03*
X27800810Y16433800D03*
X18313400Y67513200D03*
X19278600Y67513200D03*
X14274800Y64008000D03*
X15240000Y64008000D03*
X18542000Y65887600D03*
X19507200Y65887600D03*
X24155400Y61061600D03*
X25120600Y61061600D03*
X24104600Y60121800D03*
X25069800Y60121800D03*
X17322800Y62128400D03*
X18288000Y62128400D03*
X27609800Y59613800D03*
X28575000Y59613800D03*
X18237200Y51638200D03*
X19202400Y51638200D03*
X14274800Y48031400D03*
X15240000Y48031400D03*
X18415000Y49936400D03*
X19380200Y49936400D03*
X24257000Y45008800D03*
X25222200Y45008800D03*
X24053800Y44043600D03*
X25019000Y44043600D03*
X17348200Y46151800D03*
X18313400Y46151800D03*
X27609800Y43561000D03*
X28575000Y43561000D03*
D12*
X26847800Y35610800D03*
X26847800Y34645600D03*
X10236200Y17500600D03*
X10236200Y16535400D03*
X13360400Y17507200D03*
X13360400Y16542000D03*
D11*
X11309600Y17526000D03*
X12274800Y17526000D03*
D12*
X26771600Y32766000D03*
X26771600Y31800800D03*
D11*
X70535800Y45135800D03*
X71501000Y45135800D03*
X84836000Y47701200D03*
X85801200Y47701200D03*
X65382390Y44531790D03*
X66347590Y44531790D03*
X69106800Y44170600D03*
X70072000Y44170600D03*
X75507600Y48253400D03*
X76472800Y48253400D03*
X49453800Y48869600D03*
X50419000Y48869600D03*
X49453800Y46253400D03*
X50419000Y46253400D03*
X75158600Y45999400D03*
X76123800Y45999400D03*
X52959000Y70383400D03*
X53924200Y70383400D03*
X49453800Y47574200D03*
X50419000Y47574200D03*
X67564000Y45085000D03*
X68529200Y45085000D03*
X113436400Y41656000D03*
X114401600Y41656000D03*
X113417600Y47625000D03*
X114382800Y47625000D03*
X85833200Y35356800D03*
X86798400Y35356800D03*
X83667600Y33731200D03*
X84632800Y33731200D03*
X76809600Y76123800D03*
X77774800Y76123800D03*
X77165200Y74676000D03*
X78130400Y74676000D03*
X65100200Y75641200D03*
X66065400Y75641200D03*
D12*
X67310000Y76530200D03*
X67310000Y75565000D03*
X73025000Y76276200D03*
X73025000Y75311000D03*
D11*
X113455200Y61341000D03*
X114420400Y61341000D03*
X68148200Y71043800D03*
X69113400Y71043800D03*
X37388800Y74168000D03*
X38354000Y74168000D03*
X48520600Y60648600D03*
X49485800Y60648600D03*
X76460600Y72999600D03*
X77425800Y72999600D03*
X76504800Y71932800D03*
X77470000Y71932800D03*
X47091600Y76301600D03*
X48056800Y76301600D03*
X46958000Y78264000D03*
X47923200Y78264000D03*
X44780200Y61232800D03*
X45745400Y61232800D03*
X43205400Y61613800D03*
X44170600Y61613800D03*
X85579200Y65151000D03*
X86544400Y65151000D03*
X83940400Y63982600D03*
X84905600Y63982600D03*
D16*
X85979000Y77010000D03*
X85979000Y80010000D03*
D11*
X45034200Y23082000D03*
X45999400Y23082000D03*
X74523600Y23596600D03*
X75488800Y23596600D03*
X66338200Y21107400D03*
X67303400Y21107400D03*
X70307200Y21183600D03*
X71272400Y21183600D03*
X61410600Y28244800D03*
X62375800Y28244800D03*
X61436000Y30175200D03*
X62401200Y30175200D03*
X61436000Y31115000D03*
X62401200Y31115000D03*
X61410600Y32080200D03*
X62375800Y32080200D03*
X61410600Y33070800D03*
X62375800Y33070800D03*
X61429390Y29210000D03*
X62394590Y29210000D03*
X81324200Y34766000D03*
X82289400Y34766000D03*
X78105000Y33661600D03*
X79070200Y33661600D03*
X81305400Y36684200D03*
X82270600Y36684200D03*
X78105000Y35578800D03*
X79070200Y35578800D03*
X76530200Y27228800D03*
X77495400Y27228800D03*
X76530200Y25247600D03*
X77495400Y25247600D03*
D15*
X6477000Y83409000D03*
X6477000Y84709000D03*
D18*
X6157200Y68249800D03*
X7457200Y68249800D03*
X5954000Y52385210D03*
X7254000Y52385210D03*
D12*
X12039600Y33483800D03*
X12039600Y32518600D03*
X15214600Y33477200D03*
X15214600Y32512000D03*
D11*
X13131800Y33502600D03*
X14097000Y33502600D03*
D18*
X61031610Y9423400D03*
X62331610Y9423400D03*
X46238400Y13233400D03*
X47538400Y13233400D03*
D11*
X8458200Y33528000D03*
X9423400Y33528000D03*
X7188200Y17526000D03*
X8153400Y17526000D03*
X73406000Y71932800D03*
X74371200Y71932800D03*
X73399400Y72999600D03*
X74364600Y72999600D03*
X49022000Y77774800D03*
X49987200Y77774800D03*
X49022000Y76250800D03*
X49987200Y76250800D03*
X44983400Y63576200D03*
X45948600Y63576200D03*
X46209200Y62280800D03*
X47174400Y62280800D03*
D16*
X56261000Y86995000D03*
X56261000Y83995000D03*
D11*
X49606200Y20726400D03*
X50571400Y20726400D03*
D13*
X100943080Y77343000D03*
X102743080Y77343000D03*
D11*
X75482200Y61544200D03*
X76447400Y61544200D03*
X78111600Y61214000D03*
X79076800Y61214000D03*
X75431400Y60325000D03*
X76396600Y60325000D03*
X77336400Y59664600D03*
X78301600Y59664600D03*
X76835000Y58706000D03*
X77800200Y58706000D03*
D39*
X14859000Y89281000D03*
X26162000Y89281000D03*
X14859000Y73279000D03*
X26162000Y73279000D03*
X14859000Y57277000D03*
X26162000Y57277000D03*
X14859000Y41275000D03*
X26162000Y41275000D03*
D40*
X41859200Y25704800D03*
X40894000Y25704800D03*
X31292800Y13792200D03*
X31089600Y15036800D03*
X34594800Y12522200D03*
X35534600Y11734800D03*
X36423600Y12446000D03*
X36474400Y11379200D03*
X43637200Y18491200D03*
X43637200Y19253200D03*
X40589200Y13157200D03*
X41554400Y13208000D03*
X28397200Y79171800D03*
X28346400Y62966600D03*
X28295600Y47015400D03*
X32791400Y25374600D03*
X31775400Y25755600D03*
X69088000Y45872400D03*
X68249800Y45872400D03*
X66243200Y45897800D03*
X70815200Y25450800D03*
X76809600Y79121000D03*
X75057000Y76657200D03*
X68605400Y78968600D03*
X70078600Y76758800D03*
X30149800Y22783800D03*
X29870400Y21818600D03*
X30759400Y15798800D03*
D41*
X22805898Y83034378D03*
X22805898Y82534252D03*
X22805898Y82034126D03*
X22805898Y81534000D03*
X22805898Y81033874D03*
X22805898Y80533748D03*
X22805898Y80033622D03*
X27485848Y80033622D03*
X27485848Y80533748D03*
X27485848Y81033874D03*
X27485848Y81534000D03*
X27485848Y82034126D03*
X27485848Y82534252D03*
X27485848Y83034378D03*
D42*
X23645622Y79194152D03*
X24145748Y79194152D03*
X24645874Y79194152D03*
X25146000Y79194152D03*
X25646126Y79194152D03*
X26146252Y79194152D03*
X26646378Y79194152D03*
X26646378Y83874102D03*
X26146252Y83874102D03*
X25646126Y83874102D03*
X25146000Y83874102D03*
X24645874Y83874102D03*
X24145748Y83874102D03*
X23645622Y83874102D03*
D43*
X25146000Y81534000D03*
D44*
X24574500Y82105500D03*
X24574500Y80962500D03*
X25717500Y82105500D03*
X25717500Y80962500D03*
D45*
X33023302Y84284566D03*
D46*
X33074102Y83784440D03*
X33074102Y83284314D03*
X33074102Y82784188D03*
X33074102Y82284062D03*
X33074102Y81783936D03*
X33074102Y81283810D03*
X33074102Y80783684D03*
X33074102Y80283558D03*
X33074102Y79783432D03*
X33074102Y79283306D03*
D45*
X33023302Y78783180D03*
X39874698Y78783434D03*
D46*
X39823898Y79283560D03*
X39823898Y79783686D03*
X39823898Y80283812D03*
X39823898Y80783938D03*
X39823898Y81284064D03*
X39823898Y81784190D03*
X39823898Y82284316D03*
X39823898Y82784442D03*
X39823898Y83284568D03*
X39823898Y83784694D03*
D45*
X39874698Y84284820D03*
D47*
X33698434Y78108302D03*
D48*
X34198560Y78159102D03*
X34698686Y78159102D03*
X35198812Y78159102D03*
X35698938Y78159102D03*
X36199064Y78159102D03*
X36699190Y78159102D03*
X37199316Y78159102D03*
X37699442Y78159102D03*
X38199568Y78159102D03*
X38699694Y78159102D03*
D47*
X39199820Y78108302D03*
X39199566Y84959698D03*
D48*
X38699440Y84908898D03*
X38199314Y84908898D03*
X37699188Y84908898D03*
X37199062Y84908898D03*
X36698936Y84908898D03*
X36198810Y84908898D03*
X35698684Y84908898D03*
X35198558Y84908898D03*
X34698432Y84908898D03*
X34198306Y84908898D03*
D47*
X33698180Y84959698D03*
D49*
X36449000Y81534000D03*
D50*
X35001200Y82981800D03*
X36449000Y82981800D03*
X37896800Y82981800D03*
X35001200Y81534000D03*
X36449000Y81534000D03*
X37896800Y81534000D03*
X35001200Y80086200D03*
X36449000Y80086200D03*
X37896800Y80086200D03*
D51*
X13398500Y82829400D03*
X13398500Y82169000D03*
X13398500Y81508600D03*
X15303500Y81508600D03*
X15303500Y82169000D03*
X15303500Y82829400D03*
D41*
X22805898Y67032378D03*
X22805898Y66532252D03*
X22805898Y66032126D03*
X22805898Y65532000D03*
X22805898Y65031874D03*
X22805898Y64531748D03*
X22805898Y64031622D03*
X27485848Y64031622D03*
X27485848Y64531748D03*
X27485848Y65031874D03*
X27485848Y65532000D03*
X27485848Y66032126D03*
X27485848Y66532252D03*
X27485848Y67032378D03*
D42*
X23645622Y63192152D03*
X24145748Y63192152D03*
X24645874Y63192152D03*
X25146000Y63192152D03*
X25646126Y63192152D03*
X26146252Y63192152D03*
X26646378Y63192152D03*
X26646378Y67872102D03*
X26146252Y67872102D03*
X25646126Y67872102D03*
X25146000Y67872102D03*
X24645874Y67872102D03*
X24145748Y67872102D03*
X23645622Y67872102D03*
D43*
X25146000Y65532000D03*
D44*
X24574500Y66103500D03*
X24574500Y64960500D03*
X25717500Y66103500D03*
X25717500Y64960500D03*
D45*
X33023302Y68282566D03*
D46*
X33074102Y67782440D03*
X33074102Y67282314D03*
X33074102Y66782188D03*
X33074102Y66282062D03*
X33074102Y65781936D03*
X33074102Y65281810D03*
X33074102Y64781684D03*
X33074102Y64281558D03*
X33074102Y63781432D03*
X33074102Y63281306D03*
D45*
X33023302Y62781180D03*
X39874698Y62781434D03*
D46*
X39823898Y63281560D03*
X39823898Y63781686D03*
X39823898Y64281812D03*
X39823898Y64781938D03*
X39823898Y65282064D03*
X39823898Y65782190D03*
X39823898Y66282316D03*
X39823898Y66782442D03*
X39823898Y67282568D03*
X39823898Y67782694D03*
D45*
X39874698Y68282820D03*
D47*
X33698434Y62106302D03*
D48*
X34198560Y62157102D03*
X34698686Y62157102D03*
X35198812Y62157102D03*
X35698938Y62157102D03*
X36199064Y62157102D03*
X36699190Y62157102D03*
X37199316Y62157102D03*
X37699442Y62157102D03*
X38199568Y62157102D03*
X38699694Y62157102D03*
D47*
X39199820Y62106302D03*
X39199566Y68957698D03*
D48*
X38699440Y68906898D03*
X38199314Y68906898D03*
X37699188Y68906898D03*
X37199062Y68906898D03*
X36698936Y68906898D03*
X36198810Y68906898D03*
X35698684Y68906898D03*
X35198558Y68906898D03*
X34698432Y68906898D03*
X34198306Y68906898D03*
D47*
X33698180Y68957698D03*
D49*
X36449000Y65532000D03*
D50*
X35001200Y66979800D03*
X36449000Y66979800D03*
X37896800Y66979800D03*
X35001200Y65532000D03*
X36449000Y65532000D03*
X37896800Y65532000D03*
X35001200Y64084200D03*
X36449000Y64084200D03*
X37896800Y64084200D03*
D51*
X13398500Y66827400D03*
X13398500Y66167000D03*
X13398500Y65506600D03*
X15303500Y65506600D03*
X15303500Y66167000D03*
X15303500Y66827400D03*
D41*
X22805898Y51030378D03*
X22805898Y50530252D03*
X22805898Y50030126D03*
X22805898Y49530000D03*
X22805898Y49029874D03*
X22805898Y48529748D03*
X22805898Y48029622D03*
X27485848Y48029622D03*
X27485848Y48529748D03*
X27485848Y49029874D03*
X27485848Y49530000D03*
X27485848Y50030126D03*
X27485848Y50530252D03*
X27485848Y51030378D03*
D42*
X23645622Y47190152D03*
X24145748Y47190152D03*
X24645874Y47190152D03*
X25146000Y47190152D03*
X25646126Y47190152D03*
X26146252Y47190152D03*
X26646378Y47190152D03*
X26646378Y51870102D03*
X26146252Y51870102D03*
X25646126Y51870102D03*
X25146000Y51870102D03*
X24645874Y51870102D03*
X24145748Y51870102D03*
X23645622Y51870102D03*
D43*
X25146000Y49530000D03*
D44*
X24574500Y50101500D03*
X24574500Y48958500D03*
X25717500Y50101500D03*
X25717500Y48958500D03*
D45*
X33023302Y52280566D03*
D46*
X33074102Y51780440D03*
X33074102Y51280314D03*
X33074102Y50780188D03*
X33074102Y50280062D03*
X33074102Y49779936D03*
X33074102Y49279810D03*
X33074102Y48779684D03*
X33074102Y48279558D03*
X33074102Y47779432D03*
X33074102Y47279306D03*
D45*
X33023302Y46779180D03*
X39874698Y46779434D03*
D46*
X39823898Y47279560D03*
X39823898Y47779686D03*
X39823898Y48279812D03*
X39823898Y48779938D03*
X39823898Y49280064D03*
X39823898Y49780190D03*
X39823898Y50280316D03*
X39823898Y50780442D03*
X39823898Y51280568D03*
X39823898Y51780694D03*
D45*
X39874698Y52280820D03*
D47*
X33698434Y46104302D03*
D48*
X34198560Y46155102D03*
X34698686Y46155102D03*
X35198812Y46155102D03*
X35698938Y46155102D03*
X36199064Y46155102D03*
X36699190Y46155102D03*
X37199316Y46155102D03*
X37699442Y46155102D03*
X38199568Y46155102D03*
X38699694Y46155102D03*
D47*
X39199820Y46104302D03*
X39199566Y52955698D03*
D48*
X38699440Y52904898D03*
X38199314Y52904898D03*
X37699188Y52904898D03*
X37199062Y52904898D03*
X36698936Y52904898D03*
X36198810Y52904898D03*
X35698684Y52904898D03*
X35198558Y52904898D03*
X34698432Y52904898D03*
X34198306Y52904898D03*
D47*
X33698180Y52955698D03*
D49*
X36449000Y49530000D03*
D50*
X35001200Y50977800D03*
X36449000Y50977800D03*
X37896800Y50977800D03*
X35001200Y49530000D03*
X36449000Y49530000D03*
X37896800Y49530000D03*
X35001200Y48082200D03*
X36449000Y48082200D03*
X37896800Y48082200D03*
D51*
X13398500Y50825400D03*
X13398500Y50165000D03*
X13398500Y49504600D03*
X15303500Y49504600D03*
X15303500Y50165000D03*
X15303500Y50825400D03*
D45*
X33023302Y36278566D03*
D46*
X33074102Y35778440D03*
X33074102Y35278314D03*
X33074102Y34778188D03*
X33074102Y34278062D03*
X33074102Y33777936D03*
X33074102Y33277810D03*
X33074102Y32777684D03*
X33074102Y32277558D03*
X33074102Y31777432D03*
X33074102Y31277306D03*
D45*
X33023302Y30777180D03*
X39874698Y30777434D03*
D46*
X39823898Y31277560D03*
X39823898Y31777686D03*
X39823898Y32277812D03*
X39823898Y32777938D03*
X39823898Y33278064D03*
X39823898Y33778190D03*
X39823898Y34278316D03*
X39823898Y34778442D03*
X39823898Y35278568D03*
X39823898Y35778694D03*
D45*
X39874698Y36278820D03*
D47*
X33698434Y30102302D03*
D48*
X34198560Y30153102D03*
X34698686Y30153102D03*
X35198812Y30153102D03*
X35698938Y30153102D03*
X36199064Y30153102D03*
X36699190Y30153102D03*
X37199316Y30153102D03*
X37699442Y30153102D03*
X38199568Y30153102D03*
X38699694Y30153102D03*
D47*
X39199820Y30102302D03*
X39199566Y36953698D03*
D48*
X38699440Y36902898D03*
X38199314Y36902898D03*
X37699188Y36902898D03*
X37199062Y36902898D03*
X36698936Y36902898D03*
X36198810Y36902898D03*
X35698684Y36902898D03*
X35198558Y36902898D03*
X34698432Y36902898D03*
X34198306Y36902898D03*
D47*
X33698180Y36953698D03*
D49*
X36449000Y33528000D03*
D50*
X35001200Y34975800D03*
X36449000Y34975800D03*
X37896800Y34975800D03*
X35001200Y33528000D03*
X36449000Y33528000D03*
X37896800Y33528000D03*
X35001200Y32080200D03*
X36449000Y32080200D03*
X37896800Y32080200D03*
D52*
X82727800Y54356000D03*
X83997800Y54356000D03*
X85267800Y54356000D03*
X86537800Y54356000D03*
X86537800Y59283600D03*
X85267800Y59283600D03*
X83997800Y59283600D03*
X82727800Y59283600D03*
D53*
X52441856Y66664078D03*
X52441856Y66163952D03*
X52441856Y65663826D03*
X52441856Y65163700D03*
X52441856Y64663574D03*
X52441856Y64163448D03*
X52441856Y63663322D03*
X52441856Y63163196D03*
X52441856Y62663070D03*
X52441856Y62162944D03*
X52441856Y61662818D03*
X52441856Y61162692D03*
X52441856Y60662566D03*
X52441856Y60162440D03*
X52441856Y59662314D03*
X52441856Y59162188D03*
X52441856Y58662062D03*
X52441856Y58161936D03*
X52441856Y57661810D03*
X52441856Y57161684D03*
X52441856Y56661558D03*
X52441856Y56161432D03*
X52441856Y55661306D03*
X52441856Y55161180D03*
X52441856Y54661054D03*
X52441856Y54160928D03*
X52441856Y53660802D03*
X52441856Y53160676D03*
X52441856Y52660550D03*
X52441856Y52160424D03*
X52441856Y51660298D03*
X52441856Y51160172D03*
X52441856Y50660046D03*
X52441856Y50159920D03*
X52441856Y49659794D03*
X52441856Y49159668D03*
X73541890Y49159922D03*
X73541890Y49660048D03*
X73541890Y50160174D03*
X73541890Y50660300D03*
X73541890Y51160426D03*
X73541890Y51660552D03*
X73541890Y52160678D03*
X73541890Y52660804D03*
X73541890Y53160930D03*
X73541890Y53661056D03*
X73541890Y54161182D03*
X73541890Y54661308D03*
X73541890Y55161434D03*
X73541890Y55661560D03*
X73541890Y56161686D03*
X73541890Y56661812D03*
X73541890Y57161938D03*
X73541890Y57662064D03*
X73541890Y58162190D03*
X73541890Y58662316D03*
X73541890Y59162442D03*
X73541890Y59662568D03*
X73541890Y60162694D03*
X73541890Y60662820D03*
X73541890Y61162946D03*
X73541890Y61663072D03*
X73541890Y62163198D03*
X73541890Y62663324D03*
X73541890Y63163450D03*
X73541890Y63663576D03*
X73541890Y64163702D03*
X73541890Y64663828D03*
X73541890Y65163954D03*
X73541890Y65664080D03*
X73541890Y66164206D03*
X73541890Y66664332D03*
D54*
X54239922Y47362110D03*
X54740048Y47362110D03*
X55240174Y47362110D03*
X55740300Y47362110D03*
X56240426Y47362110D03*
X56740552Y47362110D03*
X57240678Y47362110D03*
X57740804Y47362110D03*
X58240930Y47362110D03*
X58741056Y47362110D03*
X59241182Y47362110D03*
X59741308Y47362110D03*
X60241434Y47362110D03*
X60741560Y47362110D03*
X61241686Y47362110D03*
X61741812Y47362110D03*
X62241938Y47362110D03*
X62742064Y47362110D03*
X63242190Y47362110D03*
X63742316Y47362110D03*
X64242442Y47362110D03*
X64742568Y47362110D03*
X65242694Y47362110D03*
X65742820Y47362110D03*
X66242946Y47362110D03*
X66743072Y47362110D03*
X67243198Y47362110D03*
X67743324Y47362110D03*
X68243450Y47362110D03*
X68743576Y47362110D03*
X69243702Y47362110D03*
X69743828Y47362110D03*
X70243954Y47362110D03*
X70744080Y47362110D03*
X71244206Y47362110D03*
X71744332Y47362110D03*
X71744078Y68462144D03*
X71243952Y68462144D03*
X70743826Y68462144D03*
X70243700Y68462144D03*
X69743574Y68462144D03*
X69243448Y68462144D03*
X68743322Y68462144D03*
X68243196Y68462144D03*
X67743070Y68462144D03*
X67242944Y68462144D03*
X66742818Y68462144D03*
X66242692Y68462144D03*
X65742566Y68462144D03*
X65242440Y68462144D03*
X64742314Y68462144D03*
X64242188Y68462144D03*
X63742062Y68462144D03*
X63241936Y68462144D03*
X62741810Y68462144D03*
X62241684Y68462144D03*
X61741558Y68462144D03*
X61241432Y68462144D03*
X60741306Y68462144D03*
X60241180Y68462144D03*
X59741054Y68462144D03*
X59240928Y68462144D03*
X58740802Y68462144D03*
X58240676Y68462144D03*
X57740550Y68462144D03*
X57240424Y68462144D03*
X56740298Y68462144D03*
X56240172Y68462144D03*
X55740046Y68462144D03*
X55239920Y68462144D03*
X54739794Y68462144D03*
X54239668Y68462144D03*
D55*
X32277558Y22927818D03*
X32277558Y22427692D03*
X32277558Y21927566D03*
X32277558Y21427440D03*
X32277558Y20927314D03*
X32277558Y20427188D03*
X32277558Y19927062D03*
X32277558Y19426936D03*
X32277558Y18926810D03*
X32277558Y18426684D03*
X32277558Y17926558D03*
X32277558Y17426432D03*
X32277558Y16926306D03*
X32277558Y16426180D03*
X32277558Y15926054D03*
X32277558Y15425928D03*
X41077388Y15426182D03*
X41077388Y15926308D03*
X41077388Y16426434D03*
X41077388Y16926560D03*
X41077388Y17426686D03*
X41077388Y17926812D03*
X41077388Y18426938D03*
X41077388Y18927064D03*
X41077388Y19427190D03*
X41077388Y19927316D03*
X41077388Y20427442D03*
X41077388Y20927568D03*
X41077388Y21427694D03*
X41077388Y21927820D03*
X41077388Y22427946D03*
X41077388Y22928072D03*
D56*
X32926782Y14777212D03*
X33426908Y14777212D03*
X33927034Y14777212D03*
X34427160Y14777212D03*
X34927286Y14777212D03*
X35427412Y14777212D03*
X35927538Y14777212D03*
X36427664Y14777212D03*
X36927790Y14777212D03*
X37427916Y14777212D03*
X37928042Y14777212D03*
X38428168Y14777212D03*
X38928294Y14777212D03*
X39428420Y14777212D03*
X39928546Y14777212D03*
X40428672Y14777212D03*
X40428418Y23577042D03*
X39928292Y23577042D03*
X39428166Y23577042D03*
X38928040Y23577042D03*
X38427914Y23577042D03*
X37927788Y23577042D03*
X37427662Y23577042D03*
X36927536Y23577042D03*
X36427410Y23577042D03*
X35927284Y23577042D03*
X35427158Y23577042D03*
X34927032Y23577042D03*
X34426906Y23577042D03*
X33926780Y23577042D03*
X33426654Y23577042D03*
X32926528Y23577042D03*
D57*
X36677600Y19177000D03*
D58*
X34696400Y21158200D03*
X36677600Y21158200D03*
X38658800Y21158200D03*
X34696400Y19177000D03*
X36677600Y19177000D03*
X38658800Y19177000D03*
X34696400Y17195800D03*
X36677600Y17195800D03*
X38658800Y17195800D03*
D59*
X70868244Y78668626D03*
X71368370Y78668626D03*
X71868496Y78668626D03*
X72368622Y78668626D03*
X72868748Y78668626D03*
X73368874Y78668626D03*
X73869000Y78668626D03*
X74369126Y78668626D03*
X74368872Y82468720D03*
X73868746Y82468720D03*
X73368620Y82468720D03*
X72868494Y82468720D03*
X72368368Y82468720D03*
X71868242Y82468720D03*
X71368116Y82468720D03*
X70867990Y82468720D03*
D60*
X75018604Y79318612D03*
X75018604Y79818738D03*
X75018604Y80318864D03*
X75018604Y80818990D03*
X75018604Y81319116D03*
X75018604Y81819242D03*
X70218512Y81818988D03*
X70218512Y81318862D03*
X70218512Y80818736D03*
X70218512Y80318610D03*
X70218512Y79818484D03*
X70218512Y79318358D03*
D61*
X72618558Y80568800D03*
D62*
X72618558Y79857600D03*
X72618558Y81280000D03*
D55*
X66473832Y33382966D03*
X66473832Y32882840D03*
X66473832Y32382714D03*
X66473832Y31882588D03*
X66473832Y31382462D03*
X66473832Y30882336D03*
X66473832Y30382210D03*
X66473832Y29882084D03*
X66473832Y29381958D03*
X66473832Y28881832D03*
X66473832Y28381706D03*
X66473832Y27881580D03*
X73073768Y27881834D03*
X73073768Y28381960D03*
X73073768Y28882086D03*
X73073768Y29382212D03*
X73073768Y29882338D03*
X73073768Y30382464D03*
X73073768Y30882590D03*
X73073768Y31382716D03*
X73073768Y31882842D03*
X73073768Y32382968D03*
X73073768Y32883094D03*
X73073768Y33383220D03*
D56*
X67023234Y27332432D03*
X67523360Y27332432D03*
X68023486Y27332432D03*
X68523612Y27332432D03*
X69023738Y27332432D03*
X69523864Y27332432D03*
X70023990Y27332432D03*
X70524116Y27332432D03*
X71024242Y27332432D03*
X71524368Y27332432D03*
X72024494Y27332432D03*
X72524620Y27332432D03*
X72524366Y33932368D03*
X72024240Y33932368D03*
X71524114Y33932368D03*
X71023988Y33932368D03*
X70523862Y33932368D03*
X70023736Y33932368D03*
X69523610Y33932368D03*
X69023484Y33932368D03*
X68523358Y33932368D03*
X68023232Y33932368D03*
X67523106Y33932368D03*
X67022980Y33932368D03*
D63*
X69773800Y30632400D03*
D64*
X52472844Y21447252D03*
X52472844Y20797266D03*
X52472844Y20147534D03*
X52472844Y19497548D03*
X58372756Y19497548D03*
X58372756Y20147534D03*
X58372756Y20797266D03*
X58372756Y21447252D03*
D65*
X8382000Y84522000D03*
X9332000Y84522000D03*
X10282000Y84522000D03*
X10282000Y87122000D03*
X8382000Y87122000D03*
X9382760Y69407530D03*
X10332760Y69407530D03*
X11282760Y69407530D03*
X11282760Y72007530D03*
X9382760Y72007530D03*
X9331960Y53761130D03*
X10281960Y53761130D03*
X11231960Y53761130D03*
X11231960Y56361130D03*
X9331960Y56361130D03*
D66*
X70917052Y14960600D03*
X79417162Y14960600D03*
D67*
X96139000Y77641958D03*
X96139000Y82042000D03*
M02*
