G04 #@! TF.FileFunction,Paste,Top*
%FSLAX46Y46*%
G04 Gerber Fmt 4.6, Leading zero omitted, Abs format (unit mm)*
G04 Created by KiCad (PCBNEW 4.0.5) date Thu Apr  6 22:34:26 2017*
%MOMM*%
%LPD*%
G01*
G04 APERTURE LIST*
%ADD10C,0.100000*%
%ADD11R,5.590000X1.020000*%
%ADD12R,0.558800X0.508000*%
%ADD13R,0.508000X0.558800*%
%ADD14R,1.300000X1.500000*%
%ADD15R,3.349752X2.450084*%
%ADD16R,1.000000X0.750000*%
%ADD17R,2.700000X1.300000*%
%ADD18R,1.300000X2.700000*%
%ADD19R,0.750000X1.000000*%
%ADD20R,1.500124X3.999992*%
%ADD21R,1.000000X1.500000*%
%ADD22R,0.762000X1.295400*%
%ADD23R,1.295400X0.939800*%
%ADD24R,0.863600X1.016000*%
%ADD25C,0.508000*%
%ADD26R,0.711200X2.540000*%
%ADD27R,1.449832X0.249936*%
%ADD28R,0.249936X1.449832*%
%ADD29R,1.499870X0.329946*%
%ADD30R,0.660000X1.000000*%
%ADD31R,5.500116X1.500124*%
%ADD32R,2.299716X2.100072*%
%ADD33R,0.889000X0.406400*%
%ADD34R,0.949706X0.299974*%
%ADD35R,0.299974X0.949706*%
%ADD36R,0.863600X0.863600*%
%ADD37R,0.599948X0.249936*%
%ADD38R,0.249936X0.599948*%
%ADD39R,1.524000X1.524000*%
%ADD40R,0.249936X0.700024*%
%ADD41R,0.700024X0.249936*%
%ADD42R,1.092200X1.092200*%
%ADD43R,1.651000X1.651000*%
%ADD44R,0.748030X0.299974*%
%ADD45R,0.849630X0.299974*%
%ADD46R,0.299974X0.748030*%
%ADD47R,0.299974X0.849630*%
%ADD48R,1.168400X1.168400*%
G04 APERTURE END LIST*
D10*
D11*
X14859000Y89281000D03*
X26162000Y89281000D03*
X14859000Y73279000D03*
X26162000Y73279000D03*
D12*
X27813000Y86258400D03*
X28778200Y86258400D03*
X15519400Y86614000D03*
X16484600Y86614000D03*
X7899400Y81534000D03*
X8864600Y81534000D03*
X15544800Y85674200D03*
X16510000Y85674200D03*
X16789400Y82804000D03*
X17754600Y82804000D03*
X20345400Y81661000D03*
X21310600Y81661000D03*
X26009600Y85344000D03*
X26974800Y85344000D03*
X29997400Y83591400D03*
X30962600Y83591400D03*
X29997400Y82702400D03*
X30962600Y82702400D03*
X29997400Y80899000D03*
X30962600Y80899000D03*
X29997400Y80010000D03*
X30962600Y80010000D03*
D13*
X25933400Y75539600D03*
X25933400Y74574400D03*
D12*
X24866600Y74803000D03*
X23901400Y74803000D03*
D13*
X22987000Y76377800D03*
X22987000Y75412600D03*
X18923000Y78695800D03*
X18923000Y77730600D03*
D12*
X23317200Y77825600D03*
X22352000Y77825600D03*
D13*
X21437600Y78790800D03*
X21437600Y77825600D03*
X29311600Y79070200D03*
X29311600Y78105000D03*
X21437600Y85039200D03*
X21437600Y86004400D03*
X20701000Y83642200D03*
X20701000Y82677000D03*
D12*
X25120600Y86334600D03*
X26085800Y86334600D03*
D13*
X26695400Y77393800D03*
X26695400Y76428600D03*
X20548600Y80365600D03*
X20548600Y79400400D03*
D12*
X10693400Y81534000D03*
X11658600Y81534000D03*
X31083000Y81788000D03*
X30117800Y81788000D03*
X31775400Y84505800D03*
X30810200Y84505800D03*
X31470600Y78994000D03*
X30505400Y78994000D03*
D13*
X33578800Y76250800D03*
X33578800Y75285600D03*
X31724600Y77343000D03*
X31724600Y76377800D03*
D12*
X41681400Y78867000D03*
X42646600Y78867000D03*
D13*
X31800800Y86080600D03*
X31800800Y87045800D03*
X33528000Y86893400D03*
X33528000Y87858600D03*
D12*
X41630600Y84251800D03*
X42595800Y84251800D03*
D13*
X28371800Y76835000D03*
X28371800Y77800200D03*
D12*
X31724600Y36474400D03*
X30759400Y36474400D03*
X31445200Y30937200D03*
X30480000Y30937200D03*
X31064200Y33756600D03*
X30099000Y33756600D03*
X44462190Y17373600D03*
X43496990Y17373600D03*
X44907200Y16357600D03*
X43942000Y16357600D03*
X47523400Y15189200D03*
X46558200Y15189200D03*
X29718000Y23825200D03*
X28752800Y23825200D03*
X29718000Y20574000D03*
X28752800Y20574000D03*
X29718000Y16433800D03*
X28752800Y16433800D03*
D14*
X27747800Y12852400D03*
X25947800Y12852400D03*
D13*
X30429200Y13766800D03*
X30429200Y12801600D03*
D12*
X43002200Y23698200D03*
X43967400Y23698200D03*
D13*
X30048200Y18567400D03*
X30048200Y19532600D03*
X33756600Y12573000D03*
X33756600Y11607800D03*
X32639000Y12598400D03*
X32639000Y11633200D03*
X37261800Y12630400D03*
X37261800Y11665200D03*
X39522400Y12750800D03*
X39522400Y11785600D03*
D12*
X30861000Y25476200D03*
X29895800Y25476200D03*
D13*
X39878000Y25704800D03*
X39878000Y26670000D03*
X42722800Y15417800D03*
X42722800Y14452600D03*
D12*
X27800300Y70332600D03*
X28765500Y70332600D03*
X15494000Y70637400D03*
X16459200Y70637400D03*
X7975600Y65532000D03*
X8940800Y65532000D03*
X15519400Y69672200D03*
X16484600Y69672200D03*
X16814800Y66776600D03*
X17780000Y66776600D03*
X20472400Y65608200D03*
X21437600Y65608200D03*
X26009600Y69418200D03*
X26974800Y69418200D03*
X29997400Y67564000D03*
X30962600Y67564000D03*
X29997400Y66675000D03*
X30962600Y66675000D03*
X29997400Y64897000D03*
X30962600Y64897000D03*
X29997400Y64008000D03*
X30962600Y64008000D03*
D13*
X25984200Y59512200D03*
X25984200Y58547000D03*
D12*
X24892000Y58928000D03*
X23926800Y58928000D03*
D13*
X22987000Y60375800D03*
X22987000Y59410600D03*
X18948400Y62636400D03*
X18948400Y61671200D03*
D12*
X23215600Y61722000D03*
X22250400Y61722000D03*
D13*
X21463000Y69113400D03*
X21463000Y70078600D03*
X29311600Y63093600D03*
X29311600Y62128400D03*
X20447000Y64363600D03*
X20447000Y63398400D03*
D12*
X25171400Y70510400D03*
X26136600Y70510400D03*
D13*
X26492200Y61417200D03*
X26492200Y60452000D03*
X20320000Y67919600D03*
X20320000Y66954400D03*
X21336000Y62814200D03*
X21336000Y61849000D03*
D12*
X10769600Y65532000D03*
X11734800Y65532000D03*
X31089600Y65786000D03*
X30124400Y65786000D03*
X31724600Y68503800D03*
X30759400Y68503800D03*
X31528000Y62960000D03*
X30562800Y62960000D03*
D13*
X33477200Y60198000D03*
X33477200Y59232800D03*
X31743400Y61296800D03*
X31743400Y60331600D03*
X31731200Y70021200D03*
X31731200Y70986400D03*
D12*
X41757600Y68173600D03*
X42722800Y68173600D03*
X41757600Y62839600D03*
X42722800Y62839600D03*
D13*
X32867600Y70434200D03*
X32867600Y71399400D03*
X28397200Y60528200D03*
X28397200Y61493400D03*
D12*
X27863800Y54279800D03*
X28829000Y54279800D03*
X15519400Y54635400D03*
X16484600Y54635400D03*
X7899400Y49504600D03*
X8864600Y49504600D03*
X15468600Y53721000D03*
X16433800Y53721000D03*
X16789400Y50850800D03*
X17754600Y50850800D03*
X20320000Y49606200D03*
X21285200Y49606200D03*
X26009600Y53416200D03*
X26974800Y53416200D03*
X29946600Y51638200D03*
X30911800Y51638200D03*
X29997400Y50698400D03*
X30962600Y50698400D03*
X29972000Y48818800D03*
X30937200Y48818800D03*
X29972000Y47853600D03*
X30937200Y47853600D03*
D13*
X25933400Y43459400D03*
X25933400Y42494200D03*
D12*
X24917400Y42900600D03*
X23952200Y42900600D03*
D13*
X23037800Y44373800D03*
X23037800Y43408600D03*
X18897600Y46634400D03*
X18897600Y45669200D03*
D12*
X23342600Y45796200D03*
X22377400Y45796200D03*
D13*
X21463000Y53060600D03*
X21463000Y54025800D03*
X20472400Y51841400D03*
X20472400Y50876200D03*
X26466800Y45364400D03*
X26466800Y44399200D03*
X20497800Y48336200D03*
X20497800Y47371000D03*
D12*
X25196800Y54381400D03*
X26162000Y54381400D03*
D13*
X29260800Y46964600D03*
X29260800Y45999400D03*
X21437600Y46736000D03*
X21437600Y45770800D03*
D12*
X10693400Y49504600D03*
X11658600Y49504600D03*
X31165800Y49758600D03*
X30200600Y49758600D03*
X31699200Y52552600D03*
X30734000Y52552600D03*
X31445200Y46939200D03*
X30480000Y46939200D03*
D13*
X31750000Y54089810D03*
X31750000Y55055010D03*
X31750000Y45288200D03*
X31750000Y44323000D03*
X33578800Y44272200D03*
X33578800Y43307000D03*
X33528000Y54813200D03*
X33528000Y55778400D03*
D12*
X41884600Y46888400D03*
X42849800Y46888400D03*
X41859200Y52247800D03*
X42824400Y52247800D03*
D13*
X28371800Y44500800D03*
X28371800Y45466000D03*
D12*
X27838400Y35610800D03*
X28803600Y35610800D03*
X27838400Y34645600D03*
X28803600Y34645600D03*
X27838400Y32766000D03*
X28803600Y32766000D03*
X27806400Y31826200D03*
X28771600Y31826200D03*
X72517000Y19913600D03*
X71551800Y19913600D03*
X73488800Y19939000D03*
X74454000Y19939000D03*
D15*
X70519544Y87680800D03*
X65319656Y87680800D03*
D16*
X71196200Y76316586D03*
X71196200Y75016586D03*
D17*
X59563000Y82471000D03*
X59563000Y85471000D03*
D15*
X74895456Y87706200D03*
X80095344Y87706200D03*
D17*
X85852000Y82472400D03*
X85852000Y85472400D03*
D13*
X31775400Y38042600D03*
X31775400Y39007800D03*
X33502600Y38836600D03*
X33502600Y39801800D03*
X31699200Y29305000D03*
X31699200Y28339800D03*
X33528000Y28263600D03*
X33528000Y27298400D03*
D12*
X41757600Y36195000D03*
X42722800Y36195000D03*
X41700200Y30886400D03*
X42665400Y30886400D03*
X68961000Y72237600D03*
X69926200Y72237600D03*
D13*
X36449000Y74117200D03*
X36449000Y75082400D03*
X47498000Y60172600D03*
X47498000Y61137800D03*
X19532600Y16440400D03*
X19532600Y15475200D03*
X19558000Y19830800D03*
X19558000Y20796000D03*
X19583400Y24003000D03*
X19583400Y23037800D03*
D18*
X85980400Y74117200D03*
X82980400Y74117200D03*
D13*
X44272200Y20098000D03*
X44272200Y21063200D03*
D16*
X45516800Y20305000D03*
X45516800Y21605000D03*
D14*
X67016200Y18491200D03*
X65216200Y18491200D03*
D13*
X71577200Y25527000D03*
X71577200Y24561800D03*
D12*
X37287200Y27762200D03*
X38252400Y27762200D03*
D13*
X61239400Y12122400D03*
X61239400Y11157200D03*
X25679400Y23799800D03*
X25679400Y22834600D03*
X21869400Y23876000D03*
X21869400Y22910800D03*
X25711400Y20618200D03*
X25711400Y19653000D03*
X21876000Y20796000D03*
X21876000Y19830800D03*
X25755600Y16484600D03*
X25755600Y15519400D03*
X21818600Y16433800D03*
X21818600Y15468600D03*
D18*
X56262400Y89763600D03*
X53262400Y89763600D03*
D13*
X17297400Y33502600D03*
X17297400Y32537400D03*
X21183600Y33502600D03*
X21183600Y32537400D03*
D12*
X16027400Y19456400D03*
X15062200Y19456400D03*
X16027400Y23393400D03*
X15062200Y23393400D03*
X12573000Y79248000D03*
X11607800Y79248000D03*
X13970000Y86512400D03*
X13004800Y86512400D03*
X12674600Y63246000D03*
X11709400Y63246000D03*
X12852400Y70485000D03*
X11887200Y70485000D03*
X12674600Y46990000D03*
X11709400Y46990000D03*
X13074400Y54305200D03*
X12109200Y54305200D03*
X90036400Y38760400D03*
X89071200Y38760400D03*
X100304600Y43942000D03*
X99339400Y43942000D03*
X97110800Y14097000D03*
X96145600Y14097000D03*
X99561400Y14097000D03*
X98596200Y14097000D03*
X99904800Y36576000D03*
X98939600Y36576000D03*
X97237800Y36576000D03*
X96272600Y36576000D03*
D13*
X51028600Y21031200D03*
X51028600Y21996400D03*
X51587400Y12185400D03*
X51587400Y11220200D03*
D19*
X68565000Y19837400D03*
X69865000Y19837400D03*
D12*
X45694600Y25298400D03*
X44729400Y25298400D03*
X39420800Y28778200D03*
X38455600Y28778200D03*
D13*
X62331600Y11106400D03*
X62331600Y12071600D03*
D16*
X8001000Y77948000D03*
X8001000Y79248000D03*
X8128000Y61961000D03*
X8128000Y63261000D03*
X8128000Y45705000D03*
X8128000Y47005000D03*
D12*
X55575200Y22733000D03*
X54610000Y22733000D03*
D13*
X9779000Y81584800D03*
X9779000Y80619600D03*
X15494000Y84759800D03*
X15494000Y83794600D03*
X9855200Y65532000D03*
X9855200Y64566800D03*
X15544800Y68757800D03*
X15544800Y67792600D03*
X9779000Y49479200D03*
X9779000Y48514000D03*
X15468600Y52806600D03*
X15468600Y51841400D03*
D20*
X66341498Y80772000D03*
X62741302Y80772000D03*
X82724498Y80746600D03*
X79124302Y80746600D03*
D13*
X6350000Y82499200D03*
X6350000Y81534000D03*
X6604000Y66497200D03*
X6604000Y65532000D03*
X6477000Y50495200D03*
X6477000Y49530000D03*
D19*
X24322800Y23850600D03*
X23022800Y23850600D03*
X24348200Y20675600D03*
X23048200Y20675600D03*
X24348200Y16383000D03*
X23048200Y16383000D03*
X18603200Y33528000D03*
X19903200Y33528000D03*
D16*
X16027400Y20762200D03*
X16027400Y22062200D03*
D19*
X75199000Y44678600D03*
X73899000Y44678600D03*
D21*
X116586000Y48708000D03*
X116586000Y51308000D03*
X116586000Y42866000D03*
X116586000Y45466000D03*
X116586000Y62682600D03*
X116586000Y65282600D03*
D22*
X57835800Y15392400D03*
X56565800Y15392400D03*
X55295800Y15392400D03*
X55295800Y11226800D03*
X56565800Y11226800D03*
X57835800Y11226800D03*
D23*
X53467000Y14579600D03*
X53467000Y12039600D03*
X59664600Y12039600D03*
X59664600Y14579600D03*
D24*
X92151200Y82016600D03*
X90170000Y82016600D03*
X91160600Y79933800D03*
D13*
X18796000Y82956400D03*
X18796000Y83921600D03*
D12*
X14274800Y80035400D03*
X15240000Y80035400D03*
X19380200Y81915000D03*
X18415000Y81915000D03*
X24053800Y76936600D03*
X25019000Y76936600D03*
X25019000Y75946000D03*
X24053800Y75946000D03*
D13*
X17830800Y78670400D03*
X17830800Y77705200D03*
D12*
X28575000Y75819000D03*
X27609800Y75819000D03*
X46888400Y16383000D03*
X45923200Y16383000D03*
D13*
X46373800Y17316200D03*
X46373800Y18281400D03*
D12*
X27813000Y23825200D03*
X26847800Y23825200D03*
X27787600Y20574000D03*
X26822400Y20574000D03*
X27800810Y16433800D03*
X26835610Y16433800D03*
D13*
X18796000Y67030600D03*
X18796000Y67995800D03*
D12*
X14274800Y64008000D03*
X15240000Y64008000D03*
X19507200Y65887600D03*
X18542000Y65887600D03*
X24155400Y61061600D03*
X25120600Y61061600D03*
X25069800Y60121800D03*
X24104600Y60121800D03*
D13*
X17805400Y62611000D03*
X17805400Y61645800D03*
D12*
X28575000Y59613800D03*
X27609800Y59613800D03*
D13*
X18719800Y51155600D03*
X18719800Y52120800D03*
D12*
X14274800Y48031400D03*
X15240000Y48031400D03*
X19380200Y49936400D03*
X18415000Y49936400D03*
X24257000Y45008800D03*
X25222200Y45008800D03*
X25019000Y44043600D03*
X24053800Y44043600D03*
D13*
X17830800Y46634400D03*
X17830800Y45669200D03*
D12*
X28575000Y43561000D03*
X27609800Y43561000D03*
D13*
X26847800Y35610800D03*
X26847800Y34645600D03*
X10236200Y17500600D03*
X10236200Y16535400D03*
X13360400Y17507200D03*
X13360400Y16542000D03*
D12*
X11309600Y17526000D03*
X12274800Y17526000D03*
D13*
X26771600Y32766000D03*
X26771600Y31800800D03*
D12*
X70535800Y45135800D03*
X71501000Y45135800D03*
X84836000Y47701200D03*
X85801200Y47701200D03*
D13*
X65864990Y45014390D03*
X65864990Y44049190D03*
D12*
X70072000Y44170600D03*
X69106800Y44170600D03*
D13*
X75990200Y48736000D03*
X75990200Y47770800D03*
D12*
X50419000Y48869600D03*
X49453800Y48869600D03*
X50419000Y46253400D03*
X49453800Y46253400D03*
X76123800Y45999400D03*
X75158600Y45999400D03*
X52959000Y70383400D03*
X53924200Y70383400D03*
X50419000Y47574200D03*
X49453800Y47574200D03*
X67564000Y45085000D03*
X68529200Y45085000D03*
X113436400Y41656000D03*
X114401600Y41656000D03*
X113417600Y47625000D03*
X114382800Y47625000D03*
X85833200Y35356800D03*
X86798400Y35356800D03*
X83667600Y33731200D03*
X84632800Y33731200D03*
D13*
X77292200Y76606400D03*
X77292200Y75641200D03*
D12*
X77165200Y74676000D03*
X78130400Y74676000D03*
X66065400Y75641200D03*
X65100200Y75641200D03*
D13*
X67310000Y75565000D03*
X67310000Y76530200D03*
X73025000Y76276200D03*
X73025000Y75311000D03*
D12*
X113455200Y61341000D03*
X114420400Y61341000D03*
X68148200Y71043800D03*
X69113400Y71043800D03*
X38354000Y74168000D03*
X37388800Y74168000D03*
D13*
X49003200Y61131200D03*
X49003200Y60166000D03*
D12*
X77425800Y72999600D03*
X76460600Y72999600D03*
X77470000Y71932800D03*
X76504800Y71932800D03*
D13*
X47574200Y76784200D03*
X47574200Y75819000D03*
X47440600Y78746600D03*
X47440600Y77781400D03*
X45262800Y60750200D03*
X45262800Y61715400D03*
X43688000Y61131200D03*
X43688000Y62096400D03*
D12*
X85579200Y65151000D03*
X86544400Y65151000D03*
X84905600Y63982600D03*
X83940400Y63982600D03*
D17*
X85979000Y77010000D03*
X85979000Y80010000D03*
D13*
X45516800Y22599400D03*
X45516800Y23564600D03*
X75006200Y24079200D03*
X75006200Y23114000D03*
D12*
X66338200Y21107400D03*
X67303400Y21107400D03*
X71272400Y21183600D03*
X70307200Y21183600D03*
X61410600Y28244800D03*
X62375800Y28244800D03*
X61436000Y30175200D03*
X62401200Y30175200D03*
X61436000Y31115000D03*
X62401200Y31115000D03*
X61410600Y32080200D03*
X62375800Y32080200D03*
X61410600Y33070800D03*
X62375800Y33070800D03*
X61429390Y29210000D03*
X62394590Y29210000D03*
D13*
X81806800Y34283400D03*
X81806800Y35248600D03*
X78587600Y34144200D03*
X78587600Y33179000D03*
X81788000Y36201600D03*
X81788000Y37166800D03*
X78587600Y36061400D03*
X78587600Y35096200D03*
X77012800Y27711400D03*
X77012800Y26746200D03*
X77012800Y25730200D03*
X77012800Y24765000D03*
D16*
X6604000Y83576400D03*
X6604000Y84876400D03*
X6807200Y67599800D03*
X6807200Y68899800D03*
X6604000Y51735210D03*
X6604000Y53035210D03*
D13*
X12039600Y33483800D03*
X12039600Y32518600D03*
X15214600Y33477200D03*
X15214600Y32512000D03*
D12*
X13131800Y33502600D03*
X14097000Y33502600D03*
D19*
X61031610Y9423400D03*
X62331610Y9423400D03*
X47538400Y13233400D03*
X46238400Y13233400D03*
D12*
X8458200Y33528000D03*
X9423400Y33528000D03*
X7188200Y17526000D03*
X8153400Y17526000D03*
X74371200Y71932800D03*
X73406000Y71932800D03*
X74364600Y72999600D03*
X73399400Y72999600D03*
X49022000Y77774800D03*
X49987200Y77774800D03*
X49022000Y76250800D03*
X49987200Y76250800D03*
X45948600Y63576200D03*
X44983400Y63576200D03*
X47174400Y62280800D03*
X46209200Y62280800D03*
D17*
X56261000Y83995000D03*
X56261000Y86995000D03*
D13*
X50088800Y20243800D03*
X50088800Y21209000D03*
D14*
X102743080Y77343000D03*
X100943080Y77343000D03*
D12*
X76447400Y61544200D03*
X75482200Y61544200D03*
X79076800Y61214000D03*
X78111600Y61214000D03*
X76396600Y60325000D03*
X75431400Y60325000D03*
X78301600Y59664600D03*
X77336400Y59664600D03*
X77800200Y58706000D03*
X76835000Y58706000D03*
D11*
X14859000Y57277000D03*
X26162000Y57277000D03*
X14859000Y41275000D03*
X26162000Y41275000D03*
D25*
X41859200Y25704800D03*
X40894000Y25704800D03*
X31292800Y13792200D03*
X31089600Y15036800D03*
X34594800Y12522200D03*
X35534600Y11734800D03*
X36423600Y12446000D03*
X36474400Y11379200D03*
X43637200Y18491200D03*
X43637200Y19253200D03*
X40589200Y13157200D03*
X41554400Y13208000D03*
X28397200Y79171800D03*
X28346400Y62966600D03*
X28295600Y47015400D03*
X32791400Y25374600D03*
X31775400Y25755600D03*
X69088000Y45872400D03*
X68249800Y45872400D03*
X66243200Y45897800D03*
X70815200Y25450800D03*
X76809600Y79121000D03*
X75057000Y76657200D03*
X68605400Y78968600D03*
X70078600Y76758800D03*
X30149800Y22783800D03*
X29870400Y21818600D03*
X30759400Y15798800D03*
D26*
X82727800Y54356000D03*
X83997800Y54356000D03*
X85267800Y54356000D03*
X86537800Y54356000D03*
X86537800Y59283600D03*
X85267800Y59283600D03*
X83997800Y59283600D03*
X82727800Y59283600D03*
D27*
X52441856Y66664078D03*
X52441856Y66163952D03*
X52441856Y65663826D03*
X52441856Y65163700D03*
X52441856Y64663574D03*
X52441856Y64163448D03*
X52441856Y63663322D03*
X52441856Y63163196D03*
X52441856Y62663070D03*
X52441856Y62162944D03*
X52441856Y61662818D03*
X52441856Y61162692D03*
X52441856Y60662566D03*
X52441856Y60162440D03*
X52441856Y59662314D03*
X52441856Y59162188D03*
X52441856Y58662062D03*
X52441856Y58161936D03*
X52441856Y57661810D03*
X52441856Y57161684D03*
X52441856Y56661558D03*
X52441856Y56161432D03*
X52441856Y55661306D03*
X52441856Y55161180D03*
X52441856Y54661054D03*
X52441856Y54160928D03*
X52441856Y53660802D03*
X52441856Y53160676D03*
X52441856Y52660550D03*
X52441856Y52160424D03*
X52441856Y51660298D03*
X52441856Y51160172D03*
X52441856Y50660046D03*
X52441856Y50159920D03*
X52441856Y49659794D03*
X52441856Y49159668D03*
X73541890Y49159922D03*
X73541890Y49660048D03*
X73541890Y50160174D03*
X73541890Y50660300D03*
X73541890Y51160426D03*
X73541890Y51660552D03*
X73541890Y52160678D03*
X73541890Y52660804D03*
X73541890Y53160930D03*
X73541890Y53661056D03*
X73541890Y54161182D03*
X73541890Y54661308D03*
X73541890Y55161434D03*
X73541890Y55661560D03*
X73541890Y56161686D03*
X73541890Y56661812D03*
X73541890Y57161938D03*
X73541890Y57662064D03*
X73541890Y58162190D03*
X73541890Y58662316D03*
X73541890Y59162442D03*
X73541890Y59662568D03*
X73541890Y60162694D03*
X73541890Y60662820D03*
X73541890Y61162946D03*
X73541890Y61663072D03*
X73541890Y62163198D03*
X73541890Y62663324D03*
X73541890Y63163450D03*
X73541890Y63663576D03*
X73541890Y64163702D03*
X73541890Y64663828D03*
X73541890Y65163954D03*
X73541890Y65664080D03*
X73541890Y66164206D03*
X73541890Y66664332D03*
D28*
X54239922Y47362110D03*
X54740048Y47362110D03*
X55240174Y47362110D03*
X55740300Y47362110D03*
X56240426Y47362110D03*
X56740552Y47362110D03*
X57240678Y47362110D03*
X57740804Y47362110D03*
X58240930Y47362110D03*
X58741056Y47362110D03*
X59241182Y47362110D03*
X59741308Y47362110D03*
X60241434Y47362110D03*
X60741560Y47362110D03*
X61241686Y47362110D03*
X61741812Y47362110D03*
X62241938Y47362110D03*
X62742064Y47362110D03*
X63242190Y47362110D03*
X63742316Y47362110D03*
X64242442Y47362110D03*
X64742568Y47362110D03*
X65242694Y47362110D03*
X65742820Y47362110D03*
X66242946Y47362110D03*
X66743072Y47362110D03*
X67243198Y47362110D03*
X67743324Y47362110D03*
X68243450Y47362110D03*
X68743576Y47362110D03*
X69243702Y47362110D03*
X69743828Y47362110D03*
X70243954Y47362110D03*
X70744080Y47362110D03*
X71244206Y47362110D03*
X71744332Y47362110D03*
X71744078Y68462144D03*
X71243952Y68462144D03*
X70743826Y68462144D03*
X70243700Y68462144D03*
X69743574Y68462144D03*
X69243448Y68462144D03*
X68743322Y68462144D03*
X68243196Y68462144D03*
X67743070Y68462144D03*
X67242944Y68462144D03*
X66742818Y68462144D03*
X66242692Y68462144D03*
X65742566Y68462144D03*
X65242440Y68462144D03*
X64742314Y68462144D03*
X64242188Y68462144D03*
X63742062Y68462144D03*
X63241936Y68462144D03*
X62741810Y68462144D03*
X62241684Y68462144D03*
X61741558Y68462144D03*
X61241432Y68462144D03*
X60741306Y68462144D03*
X60241180Y68462144D03*
X59741054Y68462144D03*
X59240928Y68462144D03*
X58740802Y68462144D03*
X58240676Y68462144D03*
X57740550Y68462144D03*
X57240424Y68462144D03*
X56740298Y68462144D03*
X56240172Y68462144D03*
X55740046Y68462144D03*
X55239920Y68462144D03*
X54739794Y68462144D03*
X54239668Y68462144D03*
D29*
X58372756Y19497548D03*
X58372756Y20147534D03*
X58372756Y20797266D03*
X58372756Y21447252D03*
X52472844Y21447252D03*
X52472844Y20797266D03*
X52472844Y20147534D03*
X52472844Y19497548D03*
D30*
X8382000Y84522000D03*
X9332000Y84522000D03*
X10282000Y84522000D03*
X10282000Y87122000D03*
X8382000Y87122000D03*
X8422600Y68376800D03*
X9372600Y68376800D03*
X10322600Y68376800D03*
X10322600Y70976800D03*
X8422600Y70976800D03*
X8397200Y52730400D03*
X9347200Y52730400D03*
X10297200Y52730400D03*
X10297200Y55330400D03*
X8397200Y55330400D03*
D31*
X79416908Y14960600D03*
X70916798Y14960600D03*
D32*
X96139000Y77641958D03*
X96139000Y82042000D03*
D33*
X13398500Y82829400D03*
X13398500Y82169000D03*
X13398500Y81508600D03*
X15303500Y81508600D03*
X15303500Y82169000D03*
X15303500Y82829400D03*
X13398500Y66827400D03*
X13398500Y66167000D03*
X13398500Y65506600D03*
X15303500Y65506600D03*
X15303500Y66167000D03*
X15303500Y66827400D03*
X13398500Y50825400D03*
X13398500Y50165000D03*
X13398500Y49504600D03*
X15303500Y49504600D03*
X15303500Y50165000D03*
X15303500Y50825400D03*
D34*
X22807676Y83031076D03*
X22807676Y82530950D03*
X22807676Y82030824D03*
X22807676Y81530698D03*
X22807676Y81030572D03*
X22807676Y80530446D03*
X22807676Y80030320D03*
X27487626Y80030320D03*
X27487626Y80530446D03*
X27487626Y81030572D03*
X27487626Y81530698D03*
X27487626Y82030824D03*
X27487626Y82530950D03*
X27487626Y83031076D03*
D35*
X23647400Y79190850D03*
X24147526Y79190850D03*
X24647652Y79190850D03*
X25147778Y79190850D03*
X25647904Y79190850D03*
X26148030Y79190850D03*
X26648156Y79190850D03*
X26648156Y83870800D03*
X26148030Y83870800D03*
X25647904Y83870800D03*
X25147778Y83870800D03*
X24647652Y83870800D03*
X24147526Y83870800D03*
X23647400Y83870800D03*
D36*
X24576278Y82102198D03*
X24576278Y80959198D03*
X25719278Y82102198D03*
X25719278Y80959198D03*
D34*
X22807676Y67029076D03*
X22807676Y66528950D03*
X22807676Y66028824D03*
X22807676Y65528698D03*
X22807676Y65028572D03*
X22807676Y64528446D03*
X22807676Y64028320D03*
X27487626Y64028320D03*
X27487626Y64528446D03*
X27487626Y65028572D03*
X27487626Y65528698D03*
X27487626Y66028824D03*
X27487626Y66528950D03*
X27487626Y67029076D03*
D35*
X23647400Y63188850D03*
X24147526Y63188850D03*
X24647652Y63188850D03*
X25147778Y63188850D03*
X25647904Y63188850D03*
X26148030Y63188850D03*
X26648156Y63188850D03*
X26648156Y67868800D03*
X26148030Y67868800D03*
X25647904Y67868800D03*
X25147778Y67868800D03*
X24647652Y67868800D03*
X24147526Y67868800D03*
X23647400Y67868800D03*
D36*
X24576278Y66100198D03*
X24576278Y64957198D03*
X25719278Y66100198D03*
X25719278Y64957198D03*
D34*
X22807676Y51027076D03*
X22807676Y50526950D03*
X22807676Y50026824D03*
X22807676Y49526698D03*
X22807676Y49026572D03*
X22807676Y48526446D03*
X22807676Y48026320D03*
X27487626Y48026320D03*
X27487626Y48526446D03*
X27487626Y49026572D03*
X27487626Y49526698D03*
X27487626Y50026824D03*
X27487626Y50526950D03*
X27487626Y51027076D03*
D35*
X23647400Y47186850D03*
X24147526Y47186850D03*
X24647652Y47186850D03*
X25147778Y47186850D03*
X25647904Y47186850D03*
X26148030Y47186850D03*
X26648156Y47186850D03*
X26648156Y51866800D03*
X26148030Y51866800D03*
X25647904Y51866800D03*
X25147778Y51866800D03*
X24647652Y51866800D03*
X24147526Y51866800D03*
X23647400Y51866800D03*
D36*
X24576278Y50098198D03*
X24576278Y48955198D03*
X25719278Y50098198D03*
X25719278Y48955198D03*
D37*
X32277558Y22927818D03*
X32277558Y22427692D03*
X32277558Y21927566D03*
X32277558Y21427440D03*
X32277558Y20927314D03*
X32277558Y20427188D03*
X32277558Y19927062D03*
X32277558Y19426936D03*
X32277558Y18926810D03*
X32277558Y18426684D03*
X32277558Y17926558D03*
X32277558Y17426432D03*
X32277558Y16926306D03*
X32277558Y16426180D03*
X32277558Y15926054D03*
X32277558Y15425928D03*
X41077388Y15426182D03*
X41077388Y15926308D03*
X41077388Y16426434D03*
X41077388Y16926560D03*
X41077388Y17426686D03*
X41077388Y17926812D03*
X41077388Y18426938D03*
X41077388Y18927064D03*
X41077388Y19427190D03*
X41077388Y19927316D03*
X41077388Y20427442D03*
X41077388Y20927568D03*
X41077388Y21427694D03*
X41077388Y21927820D03*
X41077388Y22427946D03*
X41077388Y22928072D03*
D38*
X32926782Y14777212D03*
X33426908Y14777212D03*
X33927034Y14777212D03*
X34427160Y14777212D03*
X34927286Y14777212D03*
X35427412Y14777212D03*
X35927538Y14777212D03*
X36427664Y14777212D03*
X36927790Y14777212D03*
X37427916Y14777212D03*
X37928042Y14777212D03*
X38428168Y14777212D03*
X38928294Y14777212D03*
X39428420Y14777212D03*
X39928546Y14777212D03*
X40428672Y14777212D03*
X40428418Y23577042D03*
X39928292Y23577042D03*
X39428166Y23577042D03*
X38928040Y23577042D03*
X38427914Y23577042D03*
X37927788Y23577042D03*
X37427662Y23577042D03*
X36927536Y23577042D03*
X36427410Y23577042D03*
X35927284Y23577042D03*
X35427158Y23577042D03*
X34927032Y23577042D03*
X34426906Y23577042D03*
X33926780Y23577042D03*
X33426654Y23577042D03*
X32926528Y23577042D03*
D39*
X34696400Y21158200D03*
X36677600Y21158200D03*
X38658800Y21158200D03*
X34696400Y19177000D03*
X36677600Y19177000D03*
X38658800Y19177000D03*
X34696400Y17195800D03*
X36677600Y17195800D03*
X38658800Y17195800D03*
D40*
X70862444Y78663800D03*
X71362570Y78663800D03*
X71862696Y78663800D03*
X72362822Y78663800D03*
X72862948Y78663800D03*
X73363074Y78663800D03*
X73863200Y78663800D03*
X74363326Y78663800D03*
X74363072Y82463894D03*
X73862946Y82463894D03*
X73362820Y82463894D03*
X72862694Y82463894D03*
X72362568Y82463894D03*
X71862442Y82463894D03*
X71362316Y82463894D03*
X70862190Y82463894D03*
D41*
X75012804Y79313786D03*
X75012804Y79813912D03*
X75012804Y80314038D03*
X75012804Y80814164D03*
X75012804Y81314290D03*
X75012804Y81814416D03*
X70212712Y81814162D03*
X70212712Y81314036D03*
X70212712Y80813910D03*
X70212712Y80313784D03*
X70212712Y79813658D03*
X70212712Y79313532D03*
D42*
X73374758Y80563974D03*
X71850758Y80563974D03*
D37*
X73073768Y27881834D03*
X73073768Y28381960D03*
X73073768Y28882086D03*
X73073768Y29382212D03*
X73073768Y29882338D03*
X73073768Y30382464D03*
X73073768Y30882590D03*
X73073768Y31382716D03*
X73073768Y31882842D03*
X73073768Y32382968D03*
X73073768Y32883094D03*
X73073768Y33383220D03*
D38*
X72524366Y33932368D03*
X72024240Y33932368D03*
X71524114Y33932368D03*
X71023988Y33932368D03*
X70523862Y33932368D03*
X70023736Y33932368D03*
X69523610Y33932368D03*
X69023484Y33932368D03*
X68523358Y33932368D03*
X68023232Y33932368D03*
X67523106Y33932368D03*
X67022980Y33932368D03*
D37*
X66473832Y33382966D03*
X66473832Y32882840D03*
X66473832Y32382714D03*
X66473832Y31882588D03*
X66473832Y31382462D03*
X66473832Y30882336D03*
X66473832Y30382210D03*
X66473832Y29882084D03*
X66473832Y29381958D03*
X66473832Y28881832D03*
X66473832Y28381706D03*
X66473832Y27881580D03*
D38*
X67023234Y27332432D03*
X67523360Y27332432D03*
X68023486Y27332432D03*
X68523612Y27332432D03*
X69023738Y27332432D03*
X69523864Y27332432D03*
X70023990Y27332432D03*
X70524116Y27332432D03*
X71024242Y27332432D03*
X71524368Y27332432D03*
X72024494Y27332432D03*
X72524620Y27332432D03*
D43*
X70916800Y29489400D03*
X68630800Y29489400D03*
X68630800Y31775400D03*
X70916800Y31775400D03*
D44*
X33041082Y84281264D03*
D45*
X33091882Y83781138D03*
X33091882Y83281012D03*
X33091882Y82780886D03*
X33091882Y82280760D03*
X33091882Y81780634D03*
X33091882Y81280508D03*
X33091882Y80780382D03*
X33091882Y80280256D03*
X33091882Y79780130D03*
X33091882Y79280004D03*
D44*
X33041082Y78779878D03*
D46*
X33716214Y78105000D03*
D47*
X34216340Y78155800D03*
X34716466Y78155800D03*
X35216592Y78155800D03*
X35716718Y78155800D03*
X36216844Y78155800D03*
X36716970Y78155800D03*
X37217096Y78155800D03*
X37717222Y78155800D03*
X38217348Y78155800D03*
X38717474Y78155800D03*
D46*
X39217600Y78105000D03*
D44*
X39892478Y78780132D03*
D45*
X39841678Y79280258D03*
X39841678Y79780384D03*
X39841678Y80280510D03*
X39841678Y80780636D03*
X39841678Y81280762D03*
X39841678Y81780888D03*
X39841678Y82281014D03*
X39841678Y82781140D03*
X39841678Y83281266D03*
X39841678Y83781392D03*
D44*
X39892478Y84281518D03*
D46*
X39217346Y84956396D03*
D47*
X38717220Y84905596D03*
X38217094Y84905596D03*
X37716968Y84905596D03*
X37216842Y84905596D03*
X36716716Y84905596D03*
X36216590Y84905596D03*
X35716464Y84905596D03*
X35216338Y84905596D03*
X34716212Y84905596D03*
X34216086Y84905596D03*
D46*
X33715960Y84956396D03*
D48*
X35018980Y82978498D03*
X36466780Y82978498D03*
X37914580Y82978498D03*
X35018980Y81530698D03*
X36466780Y81530698D03*
X37914580Y81530698D03*
X35018980Y80082898D03*
X36466780Y80082898D03*
X37914580Y80082898D03*
D44*
X33015682Y68279264D03*
D45*
X33066482Y67779138D03*
X33066482Y67279012D03*
X33066482Y66778886D03*
X33066482Y66278760D03*
X33066482Y65778634D03*
X33066482Y65278508D03*
X33066482Y64778382D03*
X33066482Y64278256D03*
X33066482Y63778130D03*
X33066482Y63278004D03*
D44*
X33015682Y62777878D03*
D46*
X33690814Y62103000D03*
D47*
X34190940Y62153800D03*
X34691066Y62153800D03*
X35191192Y62153800D03*
X35691318Y62153800D03*
X36191444Y62153800D03*
X36691570Y62153800D03*
X37191696Y62153800D03*
X37691822Y62153800D03*
X38191948Y62153800D03*
X38692074Y62153800D03*
D46*
X39192200Y62103000D03*
D44*
X39867078Y62778132D03*
D45*
X39816278Y63278258D03*
X39816278Y63778384D03*
X39816278Y64278510D03*
X39816278Y64778636D03*
X39816278Y65278762D03*
X39816278Y65778888D03*
X39816278Y66279014D03*
X39816278Y66779140D03*
X39816278Y67279266D03*
X39816278Y67779392D03*
D44*
X39867078Y68279518D03*
D46*
X39191946Y68954396D03*
D47*
X38691820Y68903596D03*
X38191694Y68903596D03*
X37691568Y68903596D03*
X37191442Y68903596D03*
X36691316Y68903596D03*
X36191190Y68903596D03*
X35691064Y68903596D03*
X35190938Y68903596D03*
X34690812Y68903596D03*
X34190686Y68903596D03*
D46*
X33690560Y68954396D03*
D48*
X34993580Y66976498D03*
X36441380Y66976498D03*
X37889180Y66976498D03*
X34993580Y65528698D03*
X36441380Y65528698D03*
X37889180Y65528698D03*
X34993580Y64080898D03*
X36441380Y64080898D03*
X37889180Y64080898D03*
D44*
X33015682Y52277264D03*
D45*
X33066482Y51777138D03*
X33066482Y51277012D03*
X33066482Y50776886D03*
X33066482Y50276760D03*
X33066482Y49776634D03*
X33066482Y49276508D03*
X33066482Y48776382D03*
X33066482Y48276256D03*
X33066482Y47776130D03*
X33066482Y47276004D03*
D44*
X33015682Y46775878D03*
D46*
X33690814Y46101000D03*
D47*
X34190940Y46151800D03*
X34691066Y46151800D03*
X35191192Y46151800D03*
X35691318Y46151800D03*
X36191444Y46151800D03*
X36691570Y46151800D03*
X37191696Y46151800D03*
X37691822Y46151800D03*
X38191948Y46151800D03*
X38692074Y46151800D03*
D46*
X39192200Y46101000D03*
D44*
X39867078Y46776132D03*
D45*
X39816278Y47276258D03*
X39816278Y47776384D03*
X39816278Y48276510D03*
X39816278Y48776636D03*
X39816278Y49276762D03*
X39816278Y49776888D03*
X39816278Y50277014D03*
X39816278Y50777140D03*
X39816278Y51277266D03*
X39816278Y51777392D03*
D44*
X39867078Y52277518D03*
D46*
X39191946Y52952396D03*
D47*
X38691820Y52901596D03*
X38191694Y52901596D03*
X37691568Y52901596D03*
X37191442Y52901596D03*
X36691316Y52901596D03*
X36191190Y52901596D03*
X35691064Y52901596D03*
X35190938Y52901596D03*
X34690812Y52901596D03*
X34190686Y52901596D03*
D46*
X33690560Y52952396D03*
D48*
X34993580Y50974498D03*
X36441380Y50974498D03*
X37889180Y50974498D03*
X34993580Y49526698D03*
X36441380Y49526698D03*
X37889180Y49526698D03*
X34993580Y48078898D03*
X36441380Y48078898D03*
X37889180Y48078898D03*
D44*
X33015682Y36275264D03*
D45*
X33066482Y35775138D03*
X33066482Y35275012D03*
X33066482Y34774886D03*
X33066482Y34274760D03*
X33066482Y33774634D03*
X33066482Y33274508D03*
X33066482Y32774382D03*
X33066482Y32274256D03*
X33066482Y31774130D03*
X33066482Y31274004D03*
D44*
X33015682Y30773878D03*
D46*
X33690814Y30099000D03*
D47*
X34190940Y30149800D03*
X34691066Y30149800D03*
X35191192Y30149800D03*
X35691318Y30149800D03*
X36191444Y30149800D03*
X36691570Y30149800D03*
X37191696Y30149800D03*
X37691822Y30149800D03*
X38191948Y30149800D03*
X38692074Y30149800D03*
D46*
X39192200Y30099000D03*
D44*
X39867078Y30774132D03*
D45*
X39816278Y31274258D03*
X39816278Y31774384D03*
X39816278Y32274510D03*
X39816278Y32774636D03*
X39816278Y33274762D03*
X39816278Y33774888D03*
X39816278Y34275014D03*
X39816278Y34775140D03*
X39816278Y35275266D03*
X39816278Y35775392D03*
D44*
X39867078Y36275518D03*
D46*
X39191946Y36950396D03*
D47*
X38691820Y36899596D03*
X38191694Y36899596D03*
X37691568Y36899596D03*
X37191442Y36899596D03*
X36691316Y36899596D03*
X36191190Y36899596D03*
X35691064Y36899596D03*
X35190938Y36899596D03*
X34690812Y36899596D03*
X34190686Y36899596D03*
D46*
X33690560Y36950396D03*
D48*
X34993580Y34972498D03*
X36441380Y34972498D03*
X37889180Y34972498D03*
X34993580Y33524698D03*
X36441380Y33524698D03*
X37889180Y33524698D03*
X34993580Y32076898D03*
X36441380Y32076898D03*
X37889180Y32076898D03*
M02*
