M48
;DRILL file {KiCad 4.0.5} date Sat Apr  1 23:31:56 2017
;FORMAT={-:-/ absolute / metric / decimal}
FMAT,2
METRIC,TZ
T1C0.305
T2C0.889
T3C0.900
T4C1.067
T5C1.270
T6C1.575
T7C1.600
T8C2.286
T9C2.438
T10C2.540
T11C2.794
T12C3.251
%
G90
G05
M71
T1
X13.995Y87.274
T2
X97.028Y31.648
X97.028Y29.616
X97.028Y27.584
X97.028Y23.52
X97.028Y21.488
X97.028Y19.456
X99.568Y30.632
X99.568Y28.6
X99.568Y26.568
X99.568Y24.536
X99.568Y22.504
X99.568Y20.472
T3
X101.124Y60.578
X101.124Y58.578
X101.124Y56.578
X101.124Y54.578
X101.124Y52.578
X101.124Y50.578
X101.124Y48.578
X103.124Y60.578
X103.124Y58.578
X103.124Y56.578
X103.124Y54.578
X103.124Y52.578
X103.124Y50.578
X103.124Y48.578
T4
X91.44Y63.5
X91.44Y60.96
X91.44Y58.42
X91.44Y55.88
X91.44Y53.34
X91.44Y50.8
X91.44Y48.26
X91.44Y45.72
X93.98Y63.5
X93.98Y60.96
X93.98Y58.42
X93.98Y55.88
X93.98Y53.34
X93.98Y50.8
X93.98Y48.26
X93.98Y45.72
T5
X109.982Y18.034
X112.522Y33.071
X112.522Y18.034
X115.062Y33.071
X115.062Y18.034
T6
X106.172Y34.341
X106.172Y16.764
T7
X116.284Y77.47
T8
X113.284Y77.47
T9
X8.255Y90.805
X8.255Y8.255
X109.601Y90.805
X109.601Y8.255
T10
X114.284Y81.97
X114.284Y72.97
T11
X107.284Y77.47
T12
X106.172Y30.378
X106.172Y20.726
T0
M30
