G04 #@! TF.FileFunction,Copper,L1,Top,Signal*
%FSLAX46Y46*%
G04 Gerber Fmt 4.6, Leading zero omitted, Abs format (unit mm)*
G04 Created by KiCad (PCBNEW 4.0.5) date Sat Apr  1 23:31:30 2017*
%MOMM*%
%LPD*%
G01*
G04 APERTURE LIST*
%ADD10C,0.100000*%
%ADD11R,0.558800X0.508000*%
%ADD12R,0.508000X0.558800*%
%ADD13R,1.300000X1.500000*%
%ADD14R,3.349752X2.450084*%
%ADD15R,1.000000X0.750000*%
%ADD16R,2.700000X1.300000*%
%ADD17R,1.300000X2.700000*%
%ADD18R,0.750000X1.000000*%
%ADD19C,1.000000*%
%ADD20R,4.597400X0.508000*%
%ADD21R,4.572000X3.048000*%
%ADD22C,1.407922*%
%ADD23R,1.407922X1.407922*%
%ADD24C,1.397000*%
%ADD25C,1.778000*%
%ADD26C,2.082800*%
%ADD27C,3.759200*%
%ADD28C,3.048000*%
%ADD29C,2.108200*%
%ADD30C,2.794000*%
%ADD31C,3.302000*%
%ADD32C,1.574800*%
%ADD33R,1.500124X3.999992*%
%ADD34R,1.000000X1.500000*%
%ADD35C,4.572000*%
%ADD36R,0.762000X1.295400*%
%ADD37R,1.295400X0.939800*%
%ADD38R,0.863600X1.016000*%
%ADD39R,5.590000X1.020000*%
%ADD40C,0.508000*%
%ADD41R,0.949706X0.299974*%
%ADD42R,0.299974X0.949706*%
%ADD43R,3.249930X3.249930*%
%ADD44R,0.863600X0.863600*%
%ADD45R,0.748030X0.299974*%
%ADD46R,0.849630X0.299974*%
%ADD47R,0.299974X0.748030*%
%ADD48R,0.299974X0.849630*%
%ADD49R,5.400040X5.400040*%
%ADD50R,1.168400X1.168400*%
%ADD51R,0.889000X0.406400*%
%ADD52R,0.711200X2.540000*%
%ADD53R,1.449832X0.249936*%
%ADD54R,0.249936X1.449832*%
%ADD55R,0.599948X0.249936*%
%ADD56R,0.249936X0.599948*%
%ADD57R,7.199884X7.199884*%
%ADD58R,1.524000X1.524000*%
%ADD59R,0.249936X0.700024*%
%ADD60R,0.700024X0.249936*%
%ADD61R,3.650234X2.649982*%
%ADD62R,1.092200X1.092200*%
%ADD63R,4.999990X4.999990*%
%ADD64R,1.499870X0.329946*%
%ADD65R,0.660000X1.000000*%
%ADD66R,5.500116X1.500124*%
%ADD67R,2.299716X2.100072*%
%ADD68C,0.609600*%
%ADD69C,0.152400*%
%ADD70C,0.304800*%
%ADD71C,0.457200*%
%ADD72C,0.254000*%
%ADD73C,1.270000*%
G04 APERTURE END LIST*
D10*
D11*
X27813000Y86258400D03*
X28778200Y86258400D03*
X15519400Y86614000D03*
X16484600Y86614000D03*
X7899400Y81534000D03*
X8864600Y81534000D03*
X15544800Y85674200D03*
X16510000Y85674200D03*
X16789400Y82804000D03*
X17754600Y82804000D03*
X20345400Y81661000D03*
X21310600Y81661000D03*
X26009600Y85344000D03*
X26974800Y85344000D03*
X29997400Y83591400D03*
X30962600Y83591400D03*
X29997400Y82702400D03*
X30962600Y82702400D03*
X29997400Y80899000D03*
X30962600Y80899000D03*
X29997400Y80010000D03*
X30962600Y80010000D03*
D12*
X25933400Y75539600D03*
X25933400Y74574400D03*
D11*
X23901400Y74803000D03*
X24866600Y74803000D03*
D12*
X22987000Y76377800D03*
X22987000Y75412600D03*
X18923000Y78695800D03*
X18923000Y77730600D03*
D11*
X22352000Y77825600D03*
X23317200Y77825600D03*
D12*
X21437600Y78790800D03*
X21437600Y77825600D03*
X29311600Y79070200D03*
X29311600Y78105000D03*
X21437600Y85039200D03*
X21437600Y86004400D03*
X20701000Y83642200D03*
X20701000Y82677000D03*
D11*
X25120600Y86334600D03*
X26085800Y86334600D03*
D12*
X26695400Y77393800D03*
X26695400Y76428600D03*
X20548600Y80365600D03*
X20548600Y79400400D03*
D11*
X10693400Y81534000D03*
X11658600Y81534000D03*
X30117800Y81788000D03*
X31083000Y81788000D03*
X30810200Y84505800D03*
X31775400Y84505800D03*
X30505400Y78994000D03*
X31470600Y78994000D03*
D12*
X33578800Y76250800D03*
X33578800Y75285600D03*
X31724600Y77343000D03*
X31724600Y76377800D03*
D11*
X41681400Y78867000D03*
X42646600Y78867000D03*
D12*
X31800800Y86080600D03*
X31800800Y87045800D03*
X33528000Y86893400D03*
X33528000Y87858600D03*
D11*
X41630600Y84251800D03*
X42595800Y84251800D03*
D12*
X28371800Y76835000D03*
X28371800Y77800200D03*
D11*
X30759400Y36474400D03*
X31724600Y36474400D03*
X31445200Y30937200D03*
X30480000Y30937200D03*
X31064200Y33756600D03*
X30099000Y33756600D03*
X43496990Y17373600D03*
X44462190Y17373600D03*
X43942000Y16357600D03*
X44907200Y16357600D03*
X46558200Y15189200D03*
X47523400Y15189200D03*
X28752800Y23825200D03*
X29718000Y23825200D03*
X28752800Y20574000D03*
X29718000Y20574000D03*
X28752800Y16433800D03*
X29718000Y16433800D03*
D13*
X25947800Y12852400D03*
X27747800Y12852400D03*
D12*
X30429200Y13766800D03*
X30429200Y12801600D03*
D11*
X43002200Y23698200D03*
X43967400Y23698200D03*
D12*
X30048200Y19532600D03*
X30048200Y18567400D03*
X33756600Y12573000D03*
X33756600Y11607800D03*
X32639000Y12598400D03*
X32639000Y11633200D03*
X37261800Y12630400D03*
X37261800Y11665200D03*
X39522400Y12750800D03*
X39522400Y11785600D03*
D11*
X30861000Y25476200D03*
X29895800Y25476200D03*
X39395400Y26187400D03*
X40360600Y26187400D03*
D12*
X42722800Y15417800D03*
X42722800Y14452600D03*
D11*
X27800300Y70332600D03*
X28765500Y70332600D03*
X15494000Y70637400D03*
X16459200Y70637400D03*
X7975600Y65532000D03*
X8940800Y65532000D03*
X15519400Y69672200D03*
X16484600Y69672200D03*
X16814800Y66776600D03*
X17780000Y66776600D03*
X20472400Y65608200D03*
X21437600Y65608200D03*
X26009600Y69418200D03*
X26974800Y69418200D03*
X29997400Y67564000D03*
X30962600Y67564000D03*
X29997400Y66675000D03*
X30962600Y66675000D03*
X29997400Y64897000D03*
X30962600Y64897000D03*
X29997400Y64008000D03*
X30962600Y64008000D03*
X25501600Y59029600D03*
X26466800Y59029600D03*
X23926800Y58928000D03*
X24892000Y58928000D03*
X22504400Y59893200D03*
X23469600Y59893200D03*
X18465800Y62153800D03*
X19431000Y62153800D03*
X22250400Y61722000D03*
X23215600Y61722000D03*
X20980400Y69596000D03*
X21945600Y69596000D03*
X28829000Y62611000D03*
X29794200Y62611000D03*
X19964400Y63881000D03*
X20929600Y63881000D03*
X25171400Y70510400D03*
X26136600Y70510400D03*
X26009600Y60934600D03*
X26974800Y60934600D03*
X19837400Y67437000D03*
X20802600Y67437000D03*
X20853400Y62331600D03*
X21818600Y62331600D03*
X10769600Y65532000D03*
X11734800Y65532000D03*
X30124400Y65786000D03*
X31089600Y65786000D03*
X30759400Y68503800D03*
X31724600Y68503800D03*
X30562800Y62960000D03*
X31528000Y62960000D03*
X32994600Y59715400D03*
X33959800Y59715400D03*
X31260800Y60814200D03*
X32226000Y60814200D03*
X31248600Y70503800D03*
X32213800Y70503800D03*
X41757600Y68173600D03*
X42722800Y68173600D03*
X41757600Y62839600D03*
X42722800Y62839600D03*
X32385000Y70916800D03*
X33350200Y70916800D03*
X27914600Y61010800D03*
X28879800Y61010800D03*
X27863800Y54279800D03*
X28829000Y54279800D03*
X15519400Y54635400D03*
X16484600Y54635400D03*
X7899400Y49504600D03*
X8864600Y49504600D03*
X15468600Y53721000D03*
X16433800Y53721000D03*
X16789400Y50850800D03*
X17754600Y50850800D03*
X20320000Y49606200D03*
X21285200Y49606200D03*
X26009600Y53416200D03*
X26974800Y53416200D03*
X29946600Y51638200D03*
X30911800Y51638200D03*
X29997400Y50698400D03*
X30962600Y50698400D03*
X29972000Y48818800D03*
X30937200Y48818800D03*
X29972000Y47853600D03*
X30937200Y47853600D03*
X25450800Y42976800D03*
X26416000Y42976800D03*
X23952200Y42900600D03*
X24917400Y42900600D03*
X22555200Y43891200D03*
X23520400Y43891200D03*
X18415000Y46151800D03*
X19380200Y46151800D03*
X22377400Y45796200D03*
X23342600Y45796200D03*
X20980400Y53543200D03*
X21945600Y53543200D03*
X19989800Y51358800D03*
X20955000Y51358800D03*
X25984200Y44881800D03*
X26949400Y44881800D03*
X20015200Y47853600D03*
X20980400Y47853600D03*
X25196800Y54381400D03*
X26162000Y54381400D03*
X28778200Y46482000D03*
X29743400Y46482000D03*
X20955000Y46253400D03*
X21920200Y46253400D03*
X10693400Y49504600D03*
X11658600Y49504600D03*
X30200600Y49758600D03*
X31165800Y49758600D03*
X30734000Y52552600D03*
X31699200Y52552600D03*
X30480000Y46939200D03*
X31445200Y46939200D03*
X31267400Y54572410D03*
X32232600Y54572410D03*
X31267400Y44805600D03*
X32232600Y44805600D03*
X33096200Y43789600D03*
X34061400Y43789600D03*
X33045400Y55321200D03*
X34010600Y55321200D03*
X41884600Y46888400D03*
X42849800Y46888400D03*
X41859200Y52247800D03*
X42824400Y52247800D03*
X27889200Y44983400D03*
X28854400Y44983400D03*
X27838400Y35610800D03*
X28803600Y35610800D03*
X27838400Y34645600D03*
X28803600Y34645600D03*
X27838400Y32766000D03*
X28803600Y32766000D03*
X27806400Y31826200D03*
X28771600Y31826200D03*
X71551800Y19913600D03*
X72517000Y19913600D03*
X73488800Y19939000D03*
X74454000Y19939000D03*
D14*
X65319656Y87680800D03*
X70519544Y87680800D03*
D15*
X71196200Y75016586D03*
X71196200Y76316586D03*
D16*
X59563000Y82471000D03*
X59563000Y85471000D03*
D14*
X74895456Y87706200D03*
X80095344Y87706200D03*
D16*
X85725000Y82471000D03*
X85725000Y85471000D03*
D11*
X31292800Y38525200D03*
X32258000Y38525200D03*
X33020000Y39319200D03*
X33985200Y39319200D03*
D12*
X31699200Y29305000D03*
X31699200Y28339800D03*
X33528000Y28263600D03*
X33528000Y27298400D03*
D11*
X41757600Y36195000D03*
X42722800Y36195000D03*
X41700200Y30886400D03*
X42665400Y30886400D03*
X68961000Y72237600D03*
X69926200Y72237600D03*
D12*
X36449000Y74117200D03*
X36449000Y75082400D03*
D11*
X47015400Y60655200D03*
X47980600Y60655200D03*
D12*
X19532600Y16440400D03*
X19532600Y15475200D03*
X19558000Y20796000D03*
X19558000Y19830800D03*
X19583400Y24003000D03*
X19583400Y23037800D03*
D17*
X82980400Y74117200D03*
X85980400Y74117200D03*
D11*
X43789600Y20580600D03*
X44754800Y20580600D03*
D18*
X44866800Y20955000D03*
X46166800Y20955000D03*
D13*
X65216200Y18491200D03*
X67016200Y18491200D03*
D11*
X71094600Y25044400D03*
X72059800Y25044400D03*
X37287200Y27762200D03*
X38252400Y27762200D03*
X60756800Y11639800D03*
X61722000Y11639800D03*
D12*
X25679400Y23799800D03*
X25679400Y22834600D03*
X21869400Y23876000D03*
X21869400Y22910800D03*
X25711400Y20618200D03*
X25711400Y19653000D03*
X21876000Y20796000D03*
X21876000Y19830800D03*
X25755600Y16484600D03*
X25755600Y15519400D03*
X21818600Y16433800D03*
X21818600Y15468600D03*
D17*
X53262400Y89763600D03*
X56262400Y89763600D03*
D12*
X17297400Y33502600D03*
X17297400Y32537400D03*
X21183600Y33502600D03*
X21183600Y32537400D03*
D11*
X16027400Y19456400D03*
X15062200Y19456400D03*
X16027400Y23393400D03*
X15062200Y23393400D03*
X11607800Y79248000D03*
X12573000Y79248000D03*
X13004800Y86512400D03*
X13970000Y86512400D03*
X11709400Y63246000D03*
X12674600Y63246000D03*
X11887200Y70485000D03*
X12852400Y70485000D03*
X11709400Y46990000D03*
X12674600Y46990000D03*
X12109200Y54305200D03*
X13074400Y54305200D03*
X89071200Y38760400D03*
X90036400Y38760400D03*
X99339400Y43942000D03*
X100304600Y43942000D03*
X96145600Y14097000D03*
X97110800Y14097000D03*
X98596200Y14097000D03*
X99561400Y14097000D03*
X98939600Y36576000D03*
X99904800Y36576000D03*
X96272600Y36576000D03*
X97237800Y36576000D03*
X50546000Y21513800D03*
X51511200Y21513800D03*
X51104800Y11702800D03*
X52070000Y11702800D03*
D18*
X68565000Y19837400D03*
X69865000Y19837400D03*
D11*
X44729400Y25298400D03*
X45694600Y25298400D03*
X38455600Y28778200D03*
X39420800Y28778200D03*
X61849000Y11589000D03*
X62814200Y11589000D03*
D15*
X8001000Y77948000D03*
X8001000Y79248000D03*
D18*
X7478000Y62611000D03*
X8778000Y62611000D03*
X7478000Y46355000D03*
X8778000Y46355000D03*
D11*
X54610000Y22733000D03*
X55575200Y22733000D03*
D19*
X2540000Y6350000D03*
X115316000Y6350000D03*
X2540000Y92710000D03*
D20*
X2527300Y81470500D03*
D21*
X2540000Y77216000D03*
X2540000Y85725000D03*
D20*
X2540000Y65532000D03*
D21*
X2552700Y61277500D03*
X2552700Y69786500D03*
D20*
X2537460Y49530000D03*
D21*
X2550160Y45275500D03*
X2550160Y53784500D03*
D20*
X2527300Y33528000D03*
D21*
X2540000Y29273500D03*
X2540000Y37782500D03*
D20*
X2540000Y17526000D03*
D21*
X2552700Y13271500D03*
X2552700Y21780500D03*
D22*
X103124000Y48578008D03*
D23*
X101124004Y48578008D03*
D22*
X103124000Y50578004D03*
X101124004Y50578004D03*
X103124000Y52578000D03*
X101124004Y52578000D03*
X103124000Y54577996D03*
X101124004Y54577996D03*
X103124000Y56577992D03*
X101124004Y56577992D03*
X103124000Y58577988D03*
X101124004Y58577988D03*
X103124000Y60577984D03*
X101124004Y60577984D03*
D24*
X99568000Y30632400D03*
X99568000Y28600400D03*
X99568000Y26568400D03*
X99568000Y24536400D03*
X99568000Y22504400D03*
X99568000Y20472400D03*
X97028000Y31648400D03*
X97028000Y29616400D03*
X97028000Y27584400D03*
X97028000Y23520400D03*
X97028000Y21488400D03*
X97028000Y19456400D03*
D25*
X112522000Y33070800D03*
X115062000Y33070800D03*
X109982000Y18034000D03*
X112522000Y18034000D03*
X115062000Y18034000D03*
D26*
X106172000Y34340800D03*
X106172000Y16764000D03*
D27*
X106172000Y30378400D03*
X106172000Y20726400D03*
D28*
X114283998Y81970118D03*
X114283998Y72969882D03*
D29*
X116283994Y77470000D03*
D30*
X113284000Y77470000D03*
D31*
X107284012Y77470000D03*
D32*
X93980000Y45720000D03*
X91440000Y45720000D03*
X93980000Y48260000D03*
X91440000Y48260000D03*
X93980000Y50800000D03*
X91440000Y50800000D03*
X93980000Y53340000D03*
X91440000Y53340000D03*
X93980000Y55880000D03*
X91440000Y55880000D03*
X93980000Y58420000D03*
X91440000Y58420000D03*
X93980000Y60960000D03*
X91440000Y60960000D03*
X93980000Y63500000D03*
X91440000Y63500000D03*
D12*
X9779000Y81584800D03*
X9779000Y80619600D03*
X15494000Y84759800D03*
X15494000Y83794600D03*
D11*
X9372600Y65049400D03*
X10337800Y65049400D03*
X15062200Y68275200D03*
X16027400Y68275200D03*
X9296400Y48996600D03*
X10261600Y48996600D03*
X14986000Y52324000D03*
X15951200Y52324000D03*
D33*
X62741302Y80772000D03*
X66341498Y80772000D03*
X79124302Y80746600D03*
X82724498Y80746600D03*
D12*
X6350000Y82550000D03*
X6350000Y81584800D03*
D11*
X6121400Y66014600D03*
X7086600Y66014600D03*
X5994400Y50012600D03*
X6959600Y50012600D03*
D18*
X23022800Y23850600D03*
X24322800Y23850600D03*
X23048200Y20675600D03*
X24348200Y20675600D03*
X23048200Y16383000D03*
X24348200Y16383000D03*
X18603200Y33528000D03*
X19903200Y33528000D03*
D15*
X16027400Y22062200D03*
X16027400Y20762200D03*
D18*
X73899000Y44678600D03*
X75199000Y44678600D03*
D34*
X116586000Y48708000D03*
X116586000Y51308000D03*
X116586000Y42866000D03*
X116586000Y45466000D03*
X116586000Y62738000D03*
X116586000Y65338000D03*
D35*
X8255000Y90805000D03*
X109601000Y90805000D03*
X8255000Y8255000D03*
X109601000Y8255000D03*
D36*
X59067700Y8496300D03*
X60337700Y8496300D03*
X61607700Y8496300D03*
X61607700Y12661900D03*
X60337700Y12661900D03*
X59067700Y12661900D03*
D37*
X63436500Y9309100D03*
X63436500Y11849100D03*
X57238900Y11849100D03*
X57238900Y9309100D03*
D38*
X91795600Y78553820D03*
X93776800Y78553820D03*
X92786200Y80636620D03*
D12*
X18796000Y82956400D03*
X18796000Y83921600D03*
D11*
X14274800Y80035400D03*
X15240000Y80035400D03*
X18415000Y81915000D03*
X19380200Y81915000D03*
X24053800Y76936600D03*
X25019000Y76936600D03*
X24053800Y75946000D03*
X25019000Y75946000D03*
D12*
X17830800Y78670400D03*
X17830800Y77705200D03*
D11*
X27609800Y75819000D03*
X28575000Y75819000D03*
X45923200Y16383000D03*
X46888400Y16383000D03*
X45891200Y17798800D03*
X46856400Y17798800D03*
X26847800Y23825200D03*
X27813000Y23825200D03*
X26822400Y20574000D03*
X27787600Y20574000D03*
X26835610Y16433800D03*
X27800810Y16433800D03*
X18313400Y67513200D03*
X19278600Y67513200D03*
X14274800Y64008000D03*
X15240000Y64008000D03*
X18542000Y65887600D03*
X19507200Y65887600D03*
X24155400Y61061600D03*
X25120600Y61061600D03*
X24104600Y60121800D03*
X25069800Y60121800D03*
X17322800Y62128400D03*
X18288000Y62128400D03*
X27609800Y59613800D03*
X28575000Y59613800D03*
X18237200Y51638200D03*
X19202400Y51638200D03*
X14274800Y48031400D03*
X15240000Y48031400D03*
X18415000Y49936400D03*
X19380200Y49936400D03*
X24257000Y45008800D03*
X25222200Y45008800D03*
X24053800Y44043600D03*
X25019000Y44043600D03*
X17348200Y46151800D03*
X18313400Y46151800D03*
X27609800Y43561000D03*
X28575000Y43561000D03*
D12*
X26847800Y35610800D03*
X26847800Y34645600D03*
X10236200Y17500600D03*
X10236200Y16535400D03*
X13360400Y17507200D03*
X13360400Y16542000D03*
D11*
X11309600Y17526000D03*
X12274800Y17526000D03*
D12*
X26771600Y32766000D03*
X26771600Y31800800D03*
D11*
X70535800Y45135800D03*
X71501000Y45135800D03*
X84836000Y47701200D03*
X85801200Y47701200D03*
X65382390Y44531790D03*
X66347590Y44531790D03*
X69106800Y44170600D03*
X70072000Y44170600D03*
X75507600Y48253400D03*
X76472800Y48253400D03*
X49453800Y48869600D03*
X50419000Y48869600D03*
X49453800Y46253400D03*
X50419000Y46253400D03*
X75158600Y45999400D03*
X76123800Y45999400D03*
X52959000Y70383400D03*
X53924200Y70383400D03*
X49453800Y47574200D03*
X50419000Y47574200D03*
X67564000Y45085000D03*
X68529200Y45085000D03*
X113436400Y41656000D03*
X114401600Y41656000D03*
X113417600Y47625000D03*
X114382800Y47625000D03*
X85833200Y35356800D03*
X86798400Y35356800D03*
X83667600Y33731200D03*
X84632800Y33731200D03*
X76809600Y76123800D03*
X77774800Y76123800D03*
X77165200Y74676000D03*
X78130400Y74676000D03*
X65100200Y75641200D03*
X66065400Y75641200D03*
D12*
X67310000Y76530200D03*
X67310000Y75565000D03*
X73025000Y76276200D03*
X73025000Y75311000D03*
D11*
X113455200Y61341000D03*
X114420400Y61341000D03*
X68148200Y71043800D03*
X69113400Y71043800D03*
X37388800Y74168000D03*
X38354000Y74168000D03*
X48520600Y60648600D03*
X49485800Y60648600D03*
X76460600Y72999600D03*
X77425800Y72999600D03*
X76504800Y71932800D03*
X77470000Y71932800D03*
X47091600Y76301600D03*
X48056800Y76301600D03*
X46958000Y78264000D03*
X47923200Y78264000D03*
X44780200Y61232800D03*
X45745400Y61232800D03*
X43205400Y61613800D03*
X44170600Y61613800D03*
X85579200Y65151000D03*
X86544400Y65151000D03*
X83940400Y63982600D03*
X84905600Y63982600D03*
D16*
X85979000Y77010000D03*
X85979000Y80010000D03*
D11*
X45034200Y23082000D03*
X45999400Y23082000D03*
X74523600Y23596600D03*
X75488800Y23596600D03*
X66338200Y21107400D03*
X67303400Y21107400D03*
X70307200Y21183600D03*
X71272400Y21183600D03*
X61410600Y28244800D03*
X62375800Y28244800D03*
X61436000Y30175200D03*
X62401200Y30175200D03*
X61436000Y31115000D03*
X62401200Y31115000D03*
X61410600Y32080200D03*
X62375800Y32080200D03*
X61410600Y33070800D03*
X62375800Y33070800D03*
X61429390Y29210000D03*
X62394590Y29210000D03*
X81324200Y34766000D03*
X82289400Y34766000D03*
X78105000Y33661600D03*
X79070200Y33661600D03*
X81305400Y36684200D03*
X82270600Y36684200D03*
X78105000Y35578800D03*
X79070200Y35578800D03*
X76530200Y27228800D03*
X77495400Y27228800D03*
X76530200Y25247600D03*
X77495400Y25247600D03*
D15*
X6477000Y83409000D03*
X6477000Y84709000D03*
D18*
X6157200Y68249800D03*
X7457200Y68249800D03*
X5954000Y52385210D03*
X7254000Y52385210D03*
D12*
X12039600Y33483800D03*
X12039600Y32518600D03*
X15214600Y33477200D03*
X15214600Y32512000D03*
D11*
X13131800Y33502600D03*
X14097000Y33502600D03*
D18*
X61031610Y9423400D03*
X62331610Y9423400D03*
X46238400Y13233400D03*
X47538400Y13233400D03*
D11*
X8458200Y33528000D03*
X9423400Y33528000D03*
X7188200Y17526000D03*
X8153400Y17526000D03*
X73406000Y71932800D03*
X74371200Y71932800D03*
X73399400Y72999600D03*
X74364600Y72999600D03*
X49022000Y77774800D03*
X49987200Y77774800D03*
X49022000Y76250800D03*
X49987200Y76250800D03*
X44983400Y63576200D03*
X45948600Y63576200D03*
X46209200Y62280800D03*
X47174400Y62280800D03*
D16*
X56261000Y86995000D03*
X56261000Y83995000D03*
D11*
X49606200Y20726400D03*
X50571400Y20726400D03*
D13*
X100943080Y77343000D03*
X102743080Y77343000D03*
D11*
X75482200Y61544200D03*
X76447400Y61544200D03*
X78111600Y61214000D03*
X79076800Y61214000D03*
X75431400Y60325000D03*
X76396600Y60325000D03*
X77336400Y59664600D03*
X78301600Y59664600D03*
X76835000Y58706000D03*
X77800200Y58706000D03*
D39*
X14859000Y89281000D03*
X26162000Y89281000D03*
X14859000Y73279000D03*
X26162000Y73279000D03*
X14859000Y57277000D03*
X26162000Y57277000D03*
X14859000Y41275000D03*
X26162000Y41275000D03*
D40*
X41859200Y25704800D03*
X40894000Y25704800D03*
X31292800Y13792200D03*
X31089600Y15036800D03*
X34594800Y12522200D03*
X35534600Y11734800D03*
X36423600Y12446000D03*
X36474400Y11379200D03*
X43637200Y18491200D03*
X43637200Y19253200D03*
X40589200Y13157200D03*
X41554400Y13208000D03*
X28397200Y79171800D03*
X28346400Y62966600D03*
X28295600Y47015400D03*
X32791400Y25374600D03*
X31775400Y25755600D03*
X69088000Y45872400D03*
X68249800Y45872400D03*
X66243200Y45897800D03*
X70815200Y25450800D03*
X76809600Y79121000D03*
X75057000Y76657200D03*
X68605400Y78968600D03*
X70078600Y76758800D03*
X30149800Y22783800D03*
X29870400Y21818600D03*
X30759400Y15798800D03*
D41*
X22805898Y83034378D03*
X22805898Y82534252D03*
X22805898Y82034126D03*
X22805898Y81534000D03*
X22805898Y81033874D03*
X22805898Y80533748D03*
X22805898Y80033622D03*
X27485848Y80033622D03*
X27485848Y80533748D03*
X27485848Y81033874D03*
X27485848Y81534000D03*
X27485848Y82034126D03*
X27485848Y82534252D03*
X27485848Y83034378D03*
D42*
X23645622Y79194152D03*
X24145748Y79194152D03*
X24645874Y79194152D03*
X25146000Y79194152D03*
X25646126Y79194152D03*
X26146252Y79194152D03*
X26646378Y79194152D03*
X26646378Y83874102D03*
X26146252Y83874102D03*
X25646126Y83874102D03*
X25146000Y83874102D03*
X24645874Y83874102D03*
X24145748Y83874102D03*
X23645622Y83874102D03*
D43*
X25146000Y81534000D03*
D44*
X24574500Y82105500D03*
X24574500Y80962500D03*
X25717500Y82105500D03*
X25717500Y80962500D03*
D45*
X33023302Y84284566D03*
D46*
X33074102Y83784440D03*
X33074102Y83284314D03*
X33074102Y82784188D03*
X33074102Y82284062D03*
X33074102Y81783936D03*
X33074102Y81283810D03*
X33074102Y80783684D03*
X33074102Y80283558D03*
X33074102Y79783432D03*
X33074102Y79283306D03*
D45*
X33023302Y78783180D03*
X39874698Y78783434D03*
D46*
X39823898Y79283560D03*
X39823898Y79783686D03*
X39823898Y80283812D03*
X39823898Y80783938D03*
X39823898Y81284064D03*
X39823898Y81784190D03*
X39823898Y82284316D03*
X39823898Y82784442D03*
X39823898Y83284568D03*
X39823898Y83784694D03*
D45*
X39874698Y84284820D03*
D47*
X33698434Y78108302D03*
D48*
X34198560Y78159102D03*
X34698686Y78159102D03*
X35198812Y78159102D03*
X35698938Y78159102D03*
X36199064Y78159102D03*
X36699190Y78159102D03*
X37199316Y78159102D03*
X37699442Y78159102D03*
X38199568Y78159102D03*
X38699694Y78159102D03*
D47*
X39199820Y78108302D03*
X39199566Y84959698D03*
D48*
X38699440Y84908898D03*
X38199314Y84908898D03*
X37699188Y84908898D03*
X37199062Y84908898D03*
X36698936Y84908898D03*
X36198810Y84908898D03*
X35698684Y84908898D03*
X35198558Y84908898D03*
X34698432Y84908898D03*
X34198306Y84908898D03*
D47*
X33698180Y84959698D03*
D49*
X36449000Y81534000D03*
D50*
X35001200Y82981800D03*
X36449000Y82981800D03*
X37896800Y82981800D03*
X35001200Y81534000D03*
X36449000Y81534000D03*
X37896800Y81534000D03*
X35001200Y80086200D03*
X36449000Y80086200D03*
X37896800Y80086200D03*
D51*
X13398500Y82829400D03*
X13398500Y82169000D03*
X13398500Y81508600D03*
X15303500Y81508600D03*
X15303500Y82169000D03*
X15303500Y82829400D03*
D41*
X22805898Y67032378D03*
X22805898Y66532252D03*
X22805898Y66032126D03*
X22805898Y65532000D03*
X22805898Y65031874D03*
X22805898Y64531748D03*
X22805898Y64031622D03*
X27485848Y64031622D03*
X27485848Y64531748D03*
X27485848Y65031874D03*
X27485848Y65532000D03*
X27485848Y66032126D03*
X27485848Y66532252D03*
X27485848Y67032378D03*
D42*
X23645622Y63192152D03*
X24145748Y63192152D03*
X24645874Y63192152D03*
X25146000Y63192152D03*
X25646126Y63192152D03*
X26146252Y63192152D03*
X26646378Y63192152D03*
X26646378Y67872102D03*
X26146252Y67872102D03*
X25646126Y67872102D03*
X25146000Y67872102D03*
X24645874Y67872102D03*
X24145748Y67872102D03*
X23645622Y67872102D03*
D43*
X25146000Y65532000D03*
D44*
X24574500Y66103500D03*
X24574500Y64960500D03*
X25717500Y66103500D03*
X25717500Y64960500D03*
D45*
X33023302Y68282566D03*
D46*
X33074102Y67782440D03*
X33074102Y67282314D03*
X33074102Y66782188D03*
X33074102Y66282062D03*
X33074102Y65781936D03*
X33074102Y65281810D03*
X33074102Y64781684D03*
X33074102Y64281558D03*
X33074102Y63781432D03*
X33074102Y63281306D03*
D45*
X33023302Y62781180D03*
X39874698Y62781434D03*
D46*
X39823898Y63281560D03*
X39823898Y63781686D03*
X39823898Y64281812D03*
X39823898Y64781938D03*
X39823898Y65282064D03*
X39823898Y65782190D03*
X39823898Y66282316D03*
X39823898Y66782442D03*
X39823898Y67282568D03*
X39823898Y67782694D03*
D45*
X39874698Y68282820D03*
D47*
X33698434Y62106302D03*
D48*
X34198560Y62157102D03*
X34698686Y62157102D03*
X35198812Y62157102D03*
X35698938Y62157102D03*
X36199064Y62157102D03*
X36699190Y62157102D03*
X37199316Y62157102D03*
X37699442Y62157102D03*
X38199568Y62157102D03*
X38699694Y62157102D03*
D47*
X39199820Y62106302D03*
X39199566Y68957698D03*
D48*
X38699440Y68906898D03*
X38199314Y68906898D03*
X37699188Y68906898D03*
X37199062Y68906898D03*
X36698936Y68906898D03*
X36198810Y68906898D03*
X35698684Y68906898D03*
X35198558Y68906898D03*
X34698432Y68906898D03*
X34198306Y68906898D03*
D47*
X33698180Y68957698D03*
D49*
X36449000Y65532000D03*
D50*
X35001200Y66979800D03*
X36449000Y66979800D03*
X37896800Y66979800D03*
X35001200Y65532000D03*
X36449000Y65532000D03*
X37896800Y65532000D03*
X35001200Y64084200D03*
X36449000Y64084200D03*
X37896800Y64084200D03*
D51*
X13398500Y66827400D03*
X13398500Y66167000D03*
X13398500Y65506600D03*
X15303500Y65506600D03*
X15303500Y66167000D03*
X15303500Y66827400D03*
D41*
X22805898Y51030378D03*
X22805898Y50530252D03*
X22805898Y50030126D03*
X22805898Y49530000D03*
X22805898Y49029874D03*
X22805898Y48529748D03*
X22805898Y48029622D03*
X27485848Y48029622D03*
X27485848Y48529748D03*
X27485848Y49029874D03*
X27485848Y49530000D03*
X27485848Y50030126D03*
X27485848Y50530252D03*
X27485848Y51030378D03*
D42*
X23645622Y47190152D03*
X24145748Y47190152D03*
X24645874Y47190152D03*
X25146000Y47190152D03*
X25646126Y47190152D03*
X26146252Y47190152D03*
X26646378Y47190152D03*
X26646378Y51870102D03*
X26146252Y51870102D03*
X25646126Y51870102D03*
X25146000Y51870102D03*
X24645874Y51870102D03*
X24145748Y51870102D03*
X23645622Y51870102D03*
D43*
X25146000Y49530000D03*
D44*
X24574500Y50101500D03*
X24574500Y48958500D03*
X25717500Y50101500D03*
X25717500Y48958500D03*
D45*
X33023302Y52280566D03*
D46*
X33074102Y51780440D03*
X33074102Y51280314D03*
X33074102Y50780188D03*
X33074102Y50280062D03*
X33074102Y49779936D03*
X33074102Y49279810D03*
X33074102Y48779684D03*
X33074102Y48279558D03*
X33074102Y47779432D03*
X33074102Y47279306D03*
D45*
X33023302Y46779180D03*
X39874698Y46779434D03*
D46*
X39823898Y47279560D03*
X39823898Y47779686D03*
X39823898Y48279812D03*
X39823898Y48779938D03*
X39823898Y49280064D03*
X39823898Y49780190D03*
X39823898Y50280316D03*
X39823898Y50780442D03*
X39823898Y51280568D03*
X39823898Y51780694D03*
D45*
X39874698Y52280820D03*
D47*
X33698434Y46104302D03*
D48*
X34198560Y46155102D03*
X34698686Y46155102D03*
X35198812Y46155102D03*
X35698938Y46155102D03*
X36199064Y46155102D03*
X36699190Y46155102D03*
X37199316Y46155102D03*
X37699442Y46155102D03*
X38199568Y46155102D03*
X38699694Y46155102D03*
D47*
X39199820Y46104302D03*
X39199566Y52955698D03*
D48*
X38699440Y52904898D03*
X38199314Y52904898D03*
X37699188Y52904898D03*
X37199062Y52904898D03*
X36698936Y52904898D03*
X36198810Y52904898D03*
X35698684Y52904898D03*
X35198558Y52904898D03*
X34698432Y52904898D03*
X34198306Y52904898D03*
D47*
X33698180Y52955698D03*
D49*
X36449000Y49530000D03*
D50*
X35001200Y50977800D03*
X36449000Y50977800D03*
X37896800Y50977800D03*
X35001200Y49530000D03*
X36449000Y49530000D03*
X37896800Y49530000D03*
X35001200Y48082200D03*
X36449000Y48082200D03*
X37896800Y48082200D03*
D51*
X13398500Y50825400D03*
X13398500Y50165000D03*
X13398500Y49504600D03*
X15303500Y49504600D03*
X15303500Y50165000D03*
X15303500Y50825400D03*
D45*
X33023302Y36278566D03*
D46*
X33074102Y35778440D03*
X33074102Y35278314D03*
X33074102Y34778188D03*
X33074102Y34278062D03*
X33074102Y33777936D03*
X33074102Y33277810D03*
X33074102Y32777684D03*
X33074102Y32277558D03*
X33074102Y31777432D03*
X33074102Y31277306D03*
D45*
X33023302Y30777180D03*
X39874698Y30777434D03*
D46*
X39823898Y31277560D03*
X39823898Y31777686D03*
X39823898Y32277812D03*
X39823898Y32777938D03*
X39823898Y33278064D03*
X39823898Y33778190D03*
X39823898Y34278316D03*
X39823898Y34778442D03*
X39823898Y35278568D03*
X39823898Y35778694D03*
D45*
X39874698Y36278820D03*
D47*
X33698434Y30102302D03*
D48*
X34198560Y30153102D03*
X34698686Y30153102D03*
X35198812Y30153102D03*
X35698938Y30153102D03*
X36199064Y30153102D03*
X36699190Y30153102D03*
X37199316Y30153102D03*
X37699442Y30153102D03*
X38199568Y30153102D03*
X38699694Y30153102D03*
D47*
X39199820Y30102302D03*
X39199566Y36953698D03*
D48*
X38699440Y36902898D03*
X38199314Y36902898D03*
X37699188Y36902898D03*
X37199062Y36902898D03*
X36698936Y36902898D03*
X36198810Y36902898D03*
X35698684Y36902898D03*
X35198558Y36902898D03*
X34698432Y36902898D03*
X34198306Y36902898D03*
D47*
X33698180Y36953698D03*
D49*
X36449000Y33528000D03*
D50*
X35001200Y34975800D03*
X36449000Y34975800D03*
X37896800Y34975800D03*
X35001200Y33528000D03*
X36449000Y33528000D03*
X37896800Y33528000D03*
X35001200Y32080200D03*
X36449000Y32080200D03*
X37896800Y32080200D03*
D52*
X82727800Y54356000D03*
X83997800Y54356000D03*
X85267800Y54356000D03*
X86537800Y54356000D03*
X86537800Y59283600D03*
X85267800Y59283600D03*
X83997800Y59283600D03*
X82727800Y59283600D03*
D53*
X52441856Y66664078D03*
X52441856Y66163952D03*
X52441856Y65663826D03*
X52441856Y65163700D03*
X52441856Y64663574D03*
X52441856Y64163448D03*
X52441856Y63663322D03*
X52441856Y63163196D03*
X52441856Y62663070D03*
X52441856Y62162944D03*
X52441856Y61662818D03*
X52441856Y61162692D03*
X52441856Y60662566D03*
X52441856Y60162440D03*
X52441856Y59662314D03*
X52441856Y59162188D03*
X52441856Y58662062D03*
X52441856Y58161936D03*
X52441856Y57661810D03*
X52441856Y57161684D03*
X52441856Y56661558D03*
X52441856Y56161432D03*
X52441856Y55661306D03*
X52441856Y55161180D03*
X52441856Y54661054D03*
X52441856Y54160928D03*
X52441856Y53660802D03*
X52441856Y53160676D03*
X52441856Y52660550D03*
X52441856Y52160424D03*
X52441856Y51660298D03*
X52441856Y51160172D03*
X52441856Y50660046D03*
X52441856Y50159920D03*
X52441856Y49659794D03*
X52441856Y49159668D03*
X73541890Y49159922D03*
X73541890Y49660048D03*
X73541890Y50160174D03*
X73541890Y50660300D03*
X73541890Y51160426D03*
X73541890Y51660552D03*
X73541890Y52160678D03*
X73541890Y52660804D03*
X73541890Y53160930D03*
X73541890Y53661056D03*
X73541890Y54161182D03*
X73541890Y54661308D03*
X73541890Y55161434D03*
X73541890Y55661560D03*
X73541890Y56161686D03*
X73541890Y56661812D03*
X73541890Y57161938D03*
X73541890Y57662064D03*
X73541890Y58162190D03*
X73541890Y58662316D03*
X73541890Y59162442D03*
X73541890Y59662568D03*
X73541890Y60162694D03*
X73541890Y60662820D03*
X73541890Y61162946D03*
X73541890Y61663072D03*
X73541890Y62163198D03*
X73541890Y62663324D03*
X73541890Y63163450D03*
X73541890Y63663576D03*
X73541890Y64163702D03*
X73541890Y64663828D03*
X73541890Y65163954D03*
X73541890Y65664080D03*
X73541890Y66164206D03*
X73541890Y66664332D03*
D54*
X54239922Y47362110D03*
X54740048Y47362110D03*
X55240174Y47362110D03*
X55740300Y47362110D03*
X56240426Y47362110D03*
X56740552Y47362110D03*
X57240678Y47362110D03*
X57740804Y47362110D03*
X58240930Y47362110D03*
X58741056Y47362110D03*
X59241182Y47362110D03*
X59741308Y47362110D03*
X60241434Y47362110D03*
X60741560Y47362110D03*
X61241686Y47362110D03*
X61741812Y47362110D03*
X62241938Y47362110D03*
X62742064Y47362110D03*
X63242190Y47362110D03*
X63742316Y47362110D03*
X64242442Y47362110D03*
X64742568Y47362110D03*
X65242694Y47362110D03*
X65742820Y47362110D03*
X66242946Y47362110D03*
X66743072Y47362110D03*
X67243198Y47362110D03*
X67743324Y47362110D03*
X68243450Y47362110D03*
X68743576Y47362110D03*
X69243702Y47362110D03*
X69743828Y47362110D03*
X70243954Y47362110D03*
X70744080Y47362110D03*
X71244206Y47362110D03*
X71744332Y47362110D03*
X71744078Y68462144D03*
X71243952Y68462144D03*
X70743826Y68462144D03*
X70243700Y68462144D03*
X69743574Y68462144D03*
X69243448Y68462144D03*
X68743322Y68462144D03*
X68243196Y68462144D03*
X67743070Y68462144D03*
X67242944Y68462144D03*
X66742818Y68462144D03*
X66242692Y68462144D03*
X65742566Y68462144D03*
X65242440Y68462144D03*
X64742314Y68462144D03*
X64242188Y68462144D03*
X63742062Y68462144D03*
X63241936Y68462144D03*
X62741810Y68462144D03*
X62241684Y68462144D03*
X61741558Y68462144D03*
X61241432Y68462144D03*
X60741306Y68462144D03*
X60241180Y68462144D03*
X59741054Y68462144D03*
X59240928Y68462144D03*
X58740802Y68462144D03*
X58240676Y68462144D03*
X57740550Y68462144D03*
X57240424Y68462144D03*
X56740298Y68462144D03*
X56240172Y68462144D03*
X55740046Y68462144D03*
X55239920Y68462144D03*
X54739794Y68462144D03*
X54239668Y68462144D03*
D55*
X32277558Y22927818D03*
X32277558Y22427692D03*
X32277558Y21927566D03*
X32277558Y21427440D03*
X32277558Y20927314D03*
X32277558Y20427188D03*
X32277558Y19927062D03*
X32277558Y19426936D03*
X32277558Y18926810D03*
X32277558Y18426684D03*
X32277558Y17926558D03*
X32277558Y17426432D03*
X32277558Y16926306D03*
X32277558Y16426180D03*
X32277558Y15926054D03*
X32277558Y15425928D03*
X41077388Y15426182D03*
X41077388Y15926308D03*
X41077388Y16426434D03*
X41077388Y16926560D03*
X41077388Y17426686D03*
X41077388Y17926812D03*
X41077388Y18426938D03*
X41077388Y18927064D03*
X41077388Y19427190D03*
X41077388Y19927316D03*
X41077388Y20427442D03*
X41077388Y20927568D03*
X41077388Y21427694D03*
X41077388Y21927820D03*
X41077388Y22427946D03*
X41077388Y22928072D03*
D56*
X32926782Y14777212D03*
X33426908Y14777212D03*
X33927034Y14777212D03*
X34427160Y14777212D03*
X34927286Y14777212D03*
X35427412Y14777212D03*
X35927538Y14777212D03*
X36427664Y14777212D03*
X36927790Y14777212D03*
X37427916Y14777212D03*
X37928042Y14777212D03*
X38428168Y14777212D03*
X38928294Y14777212D03*
X39428420Y14777212D03*
X39928546Y14777212D03*
X40428672Y14777212D03*
X40428418Y23577042D03*
X39928292Y23577042D03*
X39428166Y23577042D03*
X38928040Y23577042D03*
X38427914Y23577042D03*
X37927788Y23577042D03*
X37427662Y23577042D03*
X36927536Y23577042D03*
X36427410Y23577042D03*
X35927284Y23577042D03*
X35427158Y23577042D03*
X34927032Y23577042D03*
X34426906Y23577042D03*
X33926780Y23577042D03*
X33426654Y23577042D03*
X32926528Y23577042D03*
D57*
X36677600Y19177000D03*
D58*
X34696400Y21158200D03*
X36677600Y21158200D03*
X38658800Y21158200D03*
X34696400Y19177000D03*
X36677600Y19177000D03*
X38658800Y19177000D03*
X34696400Y17195800D03*
X36677600Y17195800D03*
X38658800Y17195800D03*
D59*
X70868244Y78668626D03*
X71368370Y78668626D03*
X71868496Y78668626D03*
X72368622Y78668626D03*
X72868748Y78668626D03*
X73368874Y78668626D03*
X73869000Y78668626D03*
X74369126Y78668626D03*
X74368872Y82468720D03*
X73868746Y82468720D03*
X73368620Y82468720D03*
X72868494Y82468720D03*
X72368368Y82468720D03*
X71868242Y82468720D03*
X71368116Y82468720D03*
X70867990Y82468720D03*
D60*
X75018604Y79318612D03*
X75018604Y79818738D03*
X75018604Y80318864D03*
X75018604Y80818990D03*
X75018604Y81319116D03*
X75018604Y81819242D03*
X70218512Y81818988D03*
X70218512Y81318862D03*
X70218512Y80818736D03*
X70218512Y80318610D03*
X70218512Y79818484D03*
X70218512Y79318358D03*
D61*
X72618558Y80568800D03*
D62*
X72618558Y79857600D03*
X72618558Y81280000D03*
D55*
X66473832Y33382966D03*
X66473832Y32882840D03*
X66473832Y32382714D03*
X66473832Y31882588D03*
X66473832Y31382462D03*
X66473832Y30882336D03*
X66473832Y30382210D03*
X66473832Y29882084D03*
X66473832Y29381958D03*
X66473832Y28881832D03*
X66473832Y28381706D03*
X66473832Y27881580D03*
X73073768Y27881834D03*
X73073768Y28381960D03*
X73073768Y28882086D03*
X73073768Y29382212D03*
X73073768Y29882338D03*
X73073768Y30382464D03*
X73073768Y30882590D03*
X73073768Y31382716D03*
X73073768Y31882842D03*
X73073768Y32382968D03*
X73073768Y32883094D03*
X73073768Y33383220D03*
D56*
X67023234Y27332432D03*
X67523360Y27332432D03*
X68023486Y27332432D03*
X68523612Y27332432D03*
X69023738Y27332432D03*
X69523864Y27332432D03*
X70023990Y27332432D03*
X70524116Y27332432D03*
X71024242Y27332432D03*
X71524368Y27332432D03*
X72024494Y27332432D03*
X72524620Y27332432D03*
X72524366Y33932368D03*
X72024240Y33932368D03*
X71524114Y33932368D03*
X71023988Y33932368D03*
X70523862Y33932368D03*
X70023736Y33932368D03*
X69523610Y33932368D03*
X69023484Y33932368D03*
X68523358Y33932368D03*
X68023232Y33932368D03*
X67523106Y33932368D03*
X67022980Y33932368D03*
D63*
X69773800Y30632400D03*
D64*
X52472844Y21447252D03*
X52472844Y20797266D03*
X52472844Y20147534D03*
X52472844Y19497548D03*
X58372756Y19497548D03*
X58372756Y20147534D03*
X58372756Y20797266D03*
X58372756Y21447252D03*
D65*
X8382000Y84522000D03*
X9332000Y84522000D03*
X10282000Y84522000D03*
X10282000Y87122000D03*
X8382000Y87122000D03*
X9382760Y69407530D03*
X10332760Y69407530D03*
X11282760Y69407530D03*
X11282760Y72007530D03*
X9382760Y72007530D03*
X9331960Y53761130D03*
X10281960Y53761130D03*
X11231960Y53761130D03*
X11231960Y56361130D03*
X9331960Y56361130D03*
D66*
X70917052Y14960600D03*
X79417162Y14960600D03*
D67*
X96139000Y77641958D03*
X96139000Y82042000D03*
D68*
X13995400Y87274400D03*
D69*
X77063600Y25603200D02*
X77038200Y25628600D01*
X77520800Y25603200D02*
X77063600Y25603200D01*
X77800200Y25323800D02*
X77520800Y25603200D01*
X77800200Y23749000D02*
X77800200Y25323800D01*
X77419200Y23368000D02*
X77800200Y23749000D01*
X77139800Y23368000D02*
X77419200Y23368000D01*
X66471800Y35790600D02*
X66473800Y35788600D01*
X66471800Y37541200D02*
X66471800Y35790600D01*
X57785000Y25450800D02*
X57835800Y25501600D01*
X52755800Y25450800D02*
X57785000Y25450800D01*
X51993800Y26212800D02*
X52755800Y25450800D01*
X77127100Y23355300D02*
X74803000Y21031200D01*
X77038200Y24790400D02*
X77038200Y24079200D01*
X57277000Y23749000D02*
X56845200Y24180800D01*
X58166000Y23749000D02*
X57277000Y23749000D01*
X63576200Y23749000D02*
X57759600Y23749000D01*
X79515200Y33388800D02*
X79527400Y33401000D01*
X63705200Y28881800D02*
X63703200Y28879800D01*
X65481200Y28881800D02*
X63705200Y28881800D01*
X70866000Y35509200D02*
X70866000Y36093400D01*
X70523900Y35167100D02*
X70866000Y35509200D01*
X70523900Y34784500D02*
X70523900Y35167100D01*
X70523900Y34366200D02*
X70523900Y34862300D01*
X68630800Y23799800D02*
X68529200Y23698200D01*
X68630800Y25704800D02*
X68630800Y23799800D01*
X68523600Y25812000D02*
X68630800Y25704800D01*
X68523600Y26283400D02*
X68523600Y25812000D01*
X82550000Y34366200D02*
X81806800Y34366200D01*
X49047400Y8229600D02*
X47574200Y8229600D01*
X49530000Y8712200D02*
X49047400Y8229600D01*
X50241200Y8712200D02*
X49530000Y8712200D01*
X46990000Y19989800D02*
X49149000Y19989800D01*
X46990000Y21742400D02*
X48793400Y21742400D01*
X37922200Y11582400D02*
X37922200Y9347200D01*
X43332400Y21564600D02*
X43357800Y21539200D01*
X42189400Y21564600D02*
X43332400Y21564600D01*
X96393000Y42875200D02*
X96494600Y42773600D01*
X96393000Y56438800D02*
X96393000Y42875200D01*
X95631000Y57200800D02*
X96393000Y56438800D01*
X95631000Y57226200D02*
X95631000Y57200800D01*
X79019400Y29210000D02*
X79756000Y29210000D01*
X82960200Y30882600D02*
X82981800Y30861000D01*
X78968600Y30882600D02*
X82960200Y30882600D01*
X78587600Y31382700D02*
X82106500Y31382700D01*
X78917800Y32004000D02*
X81000600Y32004000D01*
X78892400Y32537400D02*
X79933800Y32537400D01*
X86537800Y45008800D02*
X86461600Y44932600D01*
X86537800Y46609000D02*
X86537800Y45008800D01*
X87172800Y46888400D02*
X87172800Y46024800D01*
X87172800Y46482000D02*
X87198200Y46456600D01*
X87172800Y48920400D02*
X87172800Y46482000D01*
X86817200Y49276000D02*
X87172800Y48920400D01*
X86817200Y51358800D02*
X86817200Y49276000D01*
X86537800Y46405800D02*
X86563200Y46380400D01*
X86537800Y48844200D02*
X86537800Y46405800D01*
X85750400Y49631600D02*
X86537800Y48844200D01*
X85750400Y51384200D02*
X85750400Y49631600D01*
X88773000Y60833000D02*
X88773000Y59690000D01*
X87426800Y62179200D02*
X88773000Y60833000D01*
X86436200Y62179200D02*
X87426800Y62179200D01*
X95580200Y57226200D02*
X95707200Y57099200D01*
X89535000Y57226200D02*
X95580200Y57226200D01*
X88773000Y57988200D02*
X89535000Y57226200D01*
X88773000Y59944000D02*
X88773000Y57988200D01*
X102412800Y69037200D02*
X102577900Y68872100D01*
X99009200Y69037200D02*
X102412800Y69037200D01*
X75742800Y47853600D02*
X75107800Y48488600D01*
X75990200Y47853600D02*
X75742800Y47853600D01*
X90424000Y71348600D02*
X92151200Y71348600D01*
X89839800Y70764400D02*
X90424000Y71348600D01*
X81153000Y70764400D02*
X89839800Y70764400D01*
X90500200Y70434200D02*
X90805000Y70739000D01*
X89611200Y70434200D02*
X90500200Y70434200D01*
X81280000Y70434200D02*
X89789000Y70434200D01*
X99745800Y53568600D02*
X98399600Y53568600D01*
X99898200Y55549800D02*
X98298000Y55549800D01*
X98958400Y57556400D02*
X98907600Y57607200D01*
X100228400Y57556400D02*
X98958400Y57556400D01*
X95021400Y70104000D02*
X97053400Y70104000D01*
X96139000Y69621400D02*
X98475800Y69621400D01*
X93776800Y68580000D02*
X98298000Y68580000D01*
X94335600Y69037200D02*
X99517200Y69037200D01*
X42849800Y61214000D02*
X42824400Y61188600D01*
X43688000Y61214000D02*
X42849800Y61214000D01*
X45262800Y60325000D02*
X45008800Y60071000D01*
X45262800Y60833000D02*
X45262800Y60325000D01*
X36398200Y71704200D02*
X36830000Y72136000D01*
X36017200Y71704200D02*
X36398200Y71704200D01*
X37134800Y72974200D02*
X37160200Y72999600D01*
X36753800Y72974200D02*
X37134800Y72974200D01*
X36093400Y72313800D02*
X36753800Y72974200D01*
X35839400Y72313800D02*
X36093400Y72313800D01*
X46609000Y78663800D02*
X46558200Y78714600D01*
X47440600Y78663800D02*
X46609000Y78663800D01*
X46768000Y76701396D02*
X46736000Y76733400D01*
X47574200Y76701396D02*
X46768000Y76701396D01*
D70*
X82321400Y74752200D02*
X81737200Y74752200D01*
X81737200Y74752200D02*
X81661000Y74676000D01*
X82245200Y74218800D02*
X81584800Y74218800D01*
X82321400Y73050400D02*
X81737200Y73050400D01*
X81737200Y73050400D02*
X81661000Y73126600D01*
D69*
X75920600Y75742800D02*
X76486000Y75742800D01*
X75666600Y75996800D02*
X75920600Y75742800D01*
X75666600Y77292200D02*
X75666600Y75996800D01*
X76740000Y84702396D02*
X77241400Y84201000D01*
D70*
X76250800Y81813400D02*
X76225400Y81788000D01*
X69697600Y81559400D02*
X68500500Y81559400D01*
D69*
X42398200Y17926800D02*
X42494200Y17830800D01*
X41859200Y17926800D02*
X42398200Y17926800D01*
D71*
X33534600Y71418200D02*
X33578800Y71374000D01*
X32867600Y71418200D02*
X33534600Y71418200D01*
X8087614Y45745400D02*
X8128000Y45705000D01*
X7239000Y45745400D02*
X8087614Y45745400D01*
X7253986Y61961000D02*
X7213600Y62001400D01*
X8128000Y61961000D02*
X7253986Y61961000D01*
X7224014Y63261000D02*
X7213600Y63271400D01*
X8128000Y63261000D02*
X7224014Y63261000D01*
X29591000Y84836000D02*
X28575000Y83820000D01*
X29591000Y85090000D02*
X29591000Y84836000D01*
D72*
X8128000Y46990000D02*
X7239000Y46990000D01*
D69*
X6604000Y66294000D02*
X6604000Y67310000D01*
X45516800Y21605000D02*
X45516800Y22682200D01*
X53568600Y69088000D02*
X52984400Y69088000D01*
X53771800Y68884800D02*
X53568600Y69088000D01*
X53771800Y68503800D02*
X53771800Y68884800D01*
X57835800Y66344800D02*
X57099200Y67081400D01*
X53771800Y68300600D02*
X53771800Y68630800D01*
X35712400Y71704200D02*
X36093400Y71704200D01*
X35915600Y72313800D02*
X36118800Y72313800D01*
X19304000Y72517000D02*
X21539200Y72517000D01*
X17805400Y61112400D02*
X17780000Y61087000D01*
X17805400Y61728600D02*
X17805400Y61112400D01*
X49250600Y58826400D02*
X49733200Y58826400D01*
X39395400Y59715400D02*
X39446200Y59766200D01*
X38989000Y59715400D02*
X39395400Y59715400D01*
X36537900Y57264300D02*
X38989000Y59715400D01*
X40538400Y61214000D02*
X41122600Y61798200D01*
X38049200Y61214000D02*
X40538400Y61214000D01*
X36169600Y59334400D02*
X38049200Y61214000D01*
X35280600Y59334400D02*
X36169600Y59334400D01*
D71*
X34195000Y59315600D02*
X34213800Y59334400D01*
D69*
X47752000Y49682400D02*
X41668700Y43599100D01*
X51435000Y49682400D02*
X47752000Y49682400D01*
X40233600Y43738800D02*
X40259000Y43713400D01*
X38125400Y43738800D02*
X40233600Y43738800D01*
X37884100Y43497500D02*
X38125400Y43738800D01*
X39166800Y44373800D02*
X39217600Y44323000D01*
X38176200Y44373800D02*
X39166800Y44373800D01*
X37769800Y43967400D02*
X38176200Y44373800D01*
X40868600Y45415200D02*
X41097200Y45643800D01*
X37922200Y45415200D02*
X40868600Y45415200D01*
X36626800Y44119800D02*
X37922200Y45415200D01*
X36449000Y44119800D02*
X36626800Y44119800D01*
X42087800Y45186600D02*
X46837600Y49936400D01*
X41910000Y45008800D02*
X42189400Y45288200D01*
X38125400Y45008800D02*
X41910000Y45008800D01*
X37338000Y44221400D02*
X38125400Y45008800D01*
X37922200Y11252200D02*
X37922200Y12522200D01*
X17830800Y45135800D02*
X17805400Y45110400D01*
X17830800Y45752000D02*
X17830800Y45135800D01*
X46837600Y50342800D02*
X46761400Y50419000D01*
X46837600Y49936400D02*
X46837600Y50342800D01*
X35179000Y42062400D02*
X37642800Y44526200D01*
X35179000Y40868600D02*
X35179000Y42062400D01*
X34671000Y40360600D02*
X35179000Y40868600D01*
X18821800Y40362600D02*
X34671000Y40360600D01*
X46761400Y60274200D02*
X46685200Y60198000D01*
X47498000Y60274200D02*
X46761400Y60274200D01*
X46805600Y61055000D02*
X46761400Y61010800D01*
X47498000Y61055000D02*
X46805600Y61055000D01*
X47516800Y60274200D02*
X47498000Y60255400D01*
X49003200Y60274200D02*
X47516800Y60274200D01*
X41427400Y34874200D02*
X41097200Y34874200D01*
X42138600Y34163000D02*
X41427400Y34874200D01*
X43408600Y34163000D02*
X42138600Y34163000D01*
D71*
X47103800Y18198600D02*
X47117000Y18211800D01*
X18669000Y67963800D02*
X18002000Y67963800D01*
X18002000Y67963800D02*
X17881600Y67843400D01*
X20631404Y69995800D02*
X20624800Y70002400D01*
X22218396Y59417200D02*
X22174200Y59461400D01*
X22206204Y59493400D02*
X22174200Y59461400D01*
D69*
X28365200Y42754800D02*
X28371800Y42748200D01*
D71*
X22231604Y43491400D02*
X22199600Y43459400D01*
X34359600Y43389800D02*
X34417000Y43332400D01*
X34308800Y55721000D02*
X34340800Y55753000D01*
D69*
X46697900Y37452300D02*
X43408600Y34163000D01*
X8382000Y52721200D02*
X8382000Y51663600D01*
X8382000Y51663600D02*
X8407400Y51638200D01*
X9332000Y52721200D02*
X9332000Y51729640D01*
X9332000Y51729640D02*
X9423400Y51638200D01*
X10282000Y52721200D02*
X10282000Y51379120D01*
X10282000Y51379120D02*
X9880600Y50977800D01*
X9880600Y50977800D02*
X8636000Y50977800D01*
X8636000Y50977800D02*
X8407400Y51206400D01*
X8407400Y51206400D02*
X8407400Y51562000D01*
X8407400Y51562000D02*
X8382000Y51587400D01*
X8382000Y55321200D02*
X7416800Y55321200D01*
X7416800Y55321200D02*
X6680200Y54584600D01*
X6680200Y54584600D02*
X6680200Y53111400D01*
X6680200Y53111400D02*
X6604000Y53035200D01*
X8432800Y70967600D02*
X7543800Y70967600D01*
X7543800Y70967600D02*
X6807200Y70231000D01*
X6807200Y70231000D02*
X6807200Y68747400D01*
X8432800Y68367600D02*
X8432800Y67386200D01*
X9382800Y68367600D02*
X9382800Y67503000D01*
X9382800Y67503000D02*
X9499600Y67386200D01*
X10332800Y68367600D02*
X10332800Y67076320D01*
X10332800Y67076320D02*
X10033000Y66776600D01*
X10033000Y66776600D02*
X8636000Y66776600D01*
X8636000Y66776600D02*
X8458200Y66954400D01*
X8458200Y66954400D02*
X8458200Y67335400D01*
X8458200Y67335400D02*
X8432800Y67360800D01*
X6477000Y50292000D02*
X6477000Y51608200D01*
X6477000Y51608200D02*
X6604000Y51735200D01*
X79197200Y67513200D02*
X110312200Y67513200D01*
X110312200Y67513200D02*
X110388400Y67437000D01*
X78943200Y65913000D02*
X108534200Y65913000D01*
D73*
X90170000Y82042000D02*
X88544400Y82042000D01*
X91160600Y79959200D02*
X91160600Y77546200D01*
X91160600Y77546200D02*
X93065600Y75641200D01*
X93065600Y75641200D02*
X94208600Y75641200D01*
D69*
X92151200Y82042000D02*
X92151200Y83210400D01*
X92151200Y83210400D02*
X92100400Y83261200D01*
X57886600Y11201400D02*
X57861200Y11226800D01*
X57886600Y10337800D02*
X57886600Y11201400D01*
X58089800Y10134600D02*
X57886600Y10337800D01*
X58953400Y10134600D02*
X58089800Y10134600D01*
X59690000Y10871200D02*
X58953400Y10134600D01*
X59690000Y12039600D02*
X59690000Y10871200D01*
X59740800Y11988800D02*
X59690000Y12039600D01*
X62331600Y11988800D02*
X59740800Y11988800D01*
D71*
X61239400Y10541000D02*
X61264800Y10515600D01*
X61239400Y11189200D02*
X61239400Y10541000D01*
X51587400Y10490200D02*
X51587400Y11252200D01*
X53517800Y15773400D02*
X53517800Y14605000D01*
X53517800Y14605000D02*
X53492400Y14579600D01*
D69*
X64242400Y45364400D02*
X64242400Y45014600D01*
X64242400Y45014600D02*
X63474600Y44246800D01*
X63474600Y44246800D02*
X63474600Y42468800D01*
X63474600Y42468800D02*
X63322200Y42316400D01*
X64742600Y45137800D02*
X64742600Y44549600D01*
X64742600Y44549600D02*
X63957200Y43764200D01*
X63957200Y43764200D02*
X63957200Y42341800D01*
X63957200Y42341800D02*
X63500000Y41884600D01*
X65176400Y22961600D02*
X64922400Y23215600D01*
X64922400Y23215600D02*
X63982600Y23215600D01*
X63982600Y23215600D02*
X63830200Y23063200D01*
X63830200Y23063200D02*
X63169800Y23063200D01*
X63220600Y23063200D02*
X57226200Y23063200D01*
X57226200Y23063200D02*
X56946800Y23342600D01*
X56946800Y23342600D02*
X56108600Y23342600D01*
X63347600Y42341800D02*
X63322200Y42341800D01*
X63322200Y42341800D02*
X59359800Y38379400D01*
X63652400Y42037000D02*
X59740800Y38125400D01*
X64236600Y42037000D02*
X60045600Y37846000D01*
X59512200Y38531800D02*
X55829200Y34848800D01*
X59867800Y38252400D02*
X56235600Y34620200D01*
X60147200Y37947600D02*
X56591200Y34391600D01*
X60007500Y37198300D02*
X56718200Y33909000D01*
X56083200Y35102800D02*
X55651400Y34671000D01*
X55651400Y34671000D02*
X55524400Y34671000D01*
X55524400Y34671000D02*
X54787800Y33934400D01*
X54787800Y33934400D02*
X54787800Y33553400D01*
X54787800Y33553400D02*
X54635400Y33401000D01*
X56438800Y34823400D02*
X55930800Y34315400D01*
X55930800Y34315400D02*
X55930800Y34290000D01*
X55930800Y34290000D02*
X55473600Y33832800D01*
X56934100Y34124900D02*
X56413400Y33604200D01*
X56413400Y33604200D02*
X56413400Y33477200D01*
X56413400Y33477200D02*
X55651400Y32715200D01*
X55651400Y32715200D02*
X55651400Y30226000D01*
X55651400Y30226000D02*
X55397400Y29972000D01*
X56819800Y34620200D02*
X56464200Y34264600D01*
X56464200Y34264600D02*
X56464200Y34112200D01*
X56464200Y34112200D02*
X56108600Y33756600D01*
X56108600Y33756600D02*
X56108600Y33629600D01*
X56108600Y33629600D02*
X55295800Y32816800D01*
X55295800Y32816800D02*
X55295800Y32664400D01*
X55295800Y32664400D02*
X54737000Y32105600D01*
X52781200Y33147000D02*
X52578000Y33147000D01*
X52578000Y33147000D02*
X51435000Y32004000D01*
X51435000Y32004000D02*
X51435000Y26771600D01*
X51435000Y26771600D02*
X52171600Y26035000D01*
X53365400Y33807400D02*
X53365400Y32816800D01*
X53365400Y32816800D02*
X52222400Y31673800D01*
X52222400Y31673800D02*
X52222400Y28295600D01*
X52222400Y28295600D02*
X52933600Y27584400D01*
X53314600Y31572200D02*
X53314600Y30403800D01*
X53314600Y30403800D02*
X53136800Y30226000D01*
X53136800Y30226000D02*
X53136800Y28448000D01*
X53136800Y28448000D02*
X53517800Y28067000D01*
X56438800Y23342600D02*
X55651400Y23342600D01*
X55651400Y23342600D02*
X54305200Y24688800D01*
X81788000Y36982400D02*
X82524600Y36982400D01*
X82524600Y36982400D02*
X82550000Y37007800D01*
X77012800Y27711400D02*
X77800200Y27711400D01*
X77800200Y27711400D02*
X77901800Y27609800D01*
X77012800Y26746200D02*
X77012800Y25730200D01*
D71*
X9855200Y64598800D02*
X9855200Y63855600D01*
X9855200Y63855600D02*
X9829800Y63830200D01*
X9855200Y64598800D02*
X9074400Y64598800D01*
X9074400Y64598800D02*
X8940800Y64465200D01*
X9855200Y64566800D02*
X10617200Y64566800D01*
X10617200Y64566800D02*
X10718800Y64465200D01*
X26619200Y58496200D02*
X26035000Y58496200D01*
X26035000Y58496200D02*
X25984200Y58547000D01*
X9753600Y48546000D02*
X10585196Y48546000D01*
X10585196Y48546000D02*
X10642600Y48488600D01*
X9709400Y48546000D02*
X8922000Y48546000D01*
X8922000Y48546000D02*
X8864600Y48488600D01*
X9753600Y47853600D02*
X9753600Y48520600D01*
X9753600Y48520600D02*
X9779000Y48546000D01*
X26847800Y43662600D02*
X26847800Y43992800D01*
X26847800Y43992800D02*
X26466800Y44373800D01*
X13589000Y42164000D02*
X13589000Y40259000D01*
X16256000Y42164000D02*
X16256000Y40259000D01*
X13589000Y58166000D02*
X13589000Y56261000D01*
X16256000Y58166000D02*
X16256000Y56261000D01*
X13589000Y74168000D02*
X13589000Y72263000D01*
X16256000Y74168000D02*
X16256000Y72263000D01*
X13589000Y90170000D02*
X13589000Y88265000D01*
X16256000Y90170000D02*
X16256000Y88265000D01*
D69*
X26111200Y72186800D02*
X25069800Y72186800D01*
X25069800Y72186800D02*
X24765000Y71882000D01*
X25552400Y72186800D02*
X31115000Y72186800D01*
X31115000Y72186800D02*
X31242000Y72313800D01*
X31242000Y72313800D02*
X35890200Y72313800D01*
X35890200Y72313800D02*
X35915600Y72288400D01*
X29667200Y72491600D02*
X21844000Y72491600D01*
X21844000Y72491600D02*
X21818600Y72517000D01*
X21818600Y72517000D02*
X21285200Y72517000D01*
D71*
X18948400Y61671200D02*
X18948400Y61036200D01*
X18948400Y61036200D02*
X18872200Y60960000D01*
X21463000Y70078600D02*
X20701000Y70078600D01*
X20701000Y70078600D02*
X20624800Y70002400D01*
X29311600Y62128400D02*
X29311600Y61442600D01*
X29311600Y61442600D02*
X29337000Y61417200D01*
X26822400Y59664600D02*
X26822400Y60121800D01*
X26822400Y60121800D02*
X26492200Y60452000D01*
X22987000Y59410600D02*
X22225000Y59410600D01*
X22225000Y59410600D02*
X22148800Y59486800D01*
X21336000Y61849000D02*
X21336000Y61137800D01*
X20447000Y63398400D02*
X20447000Y62712600D01*
X31743400Y60331600D02*
X31743400Y59607200D01*
X31743400Y59607200D02*
X31724600Y59588400D01*
X33477200Y59232800D02*
X34061400Y59232800D01*
X34061400Y59232800D02*
X34156400Y59327800D01*
X18719800Y52120800D02*
X18186400Y52120800D01*
X18186400Y52120800D02*
X17907000Y51841400D01*
X18897600Y45669200D02*
X18897600Y45034200D01*
X20497800Y47371000D02*
X20497800Y46685200D01*
X20497800Y46685200D02*
X20472400Y46659800D01*
X23037800Y43408600D02*
X22275800Y43408600D01*
X22275800Y43408600D02*
X22212300Y43472100D01*
X21463000Y54025800D02*
X20675600Y54025800D01*
X20675600Y54025800D02*
X20650200Y54000400D01*
X25933400Y42494200D02*
X26441400Y42494200D01*
X26441400Y42494200D02*
X26543000Y42392600D01*
D69*
X28575000Y42951400D02*
X28371800Y42748200D01*
X28575000Y42951400D02*
X28575000Y43916600D01*
X28575000Y43916600D02*
X28397200Y44094400D01*
X28397200Y44094400D02*
X28397200Y44475400D01*
X28397200Y44475400D02*
X28371800Y44500800D01*
D71*
X29260800Y45999400D02*
X29260800Y45643800D01*
X29260800Y45643800D02*
X29565600Y45339000D01*
X31750000Y44323000D02*
X31750000Y43611800D01*
X31750000Y43611800D02*
X31724600Y43586400D01*
X31750000Y55055000D02*
X31750000Y55676800D01*
X31750000Y55676800D02*
X31775400Y55702200D01*
X33528000Y55803800D02*
X34290000Y55803800D01*
X34290000Y55803800D02*
X34340800Y55753000D01*
X33578800Y43307000D02*
X34391600Y43307000D01*
X34391600Y43307000D02*
X34417000Y43332400D01*
X31775400Y39007800D02*
X31775400Y39700200D01*
X33502600Y39801800D02*
X34264600Y39801800D01*
X34264600Y39801800D02*
X34315400Y39751000D01*
X39878000Y26670000D02*
X39878000Y27330400D01*
X46373800Y18281400D02*
X47021000Y18281400D01*
X47021000Y18281400D02*
X47103800Y18198600D01*
X44272200Y21063200D02*
X44272200Y21793200D01*
X45516800Y23564600D02*
X45516800Y24206200D01*
X45516800Y24206200D02*
X45440600Y24282400D01*
X71577200Y24561800D02*
X71577200Y24053800D01*
X71577200Y24053800D02*
X71399400Y23876000D01*
X75006200Y23114000D02*
X75006200Y22504400D01*
X75006200Y22504400D02*
X75107800Y22402800D01*
D69*
X78587600Y33179000D02*
X79305400Y33179000D01*
X79305400Y33179000D02*
X79527400Y33401000D01*
X76123800Y75742800D02*
X77190600Y75742800D01*
X77190600Y75742800D02*
X77292200Y75641200D01*
D71*
X21437600Y45770800D02*
X21437600Y45110400D01*
X21437600Y45110400D02*
X21386800Y45059600D01*
D69*
X57785000Y66395600D02*
X58039000Y66141600D01*
X58039000Y66141600D02*
X58039000Y65709800D01*
X65859000Y43921680D02*
X65376400Y43439080D01*
X65859000Y44106200D02*
X65859000Y43921680D01*
X51028600Y21996400D02*
X51028600Y22123400D01*
X51028600Y22123400D02*
X51562000Y22656800D01*
X89027000Y40716200D02*
X89052400Y40690800D01*
X89027000Y55702200D02*
X89027000Y40716200D01*
X87274400Y57454800D02*
X89027000Y55702200D01*
X81534000Y57454800D02*
X87274400Y57454800D01*
X78816200Y60172600D02*
X81524100Y57464700D01*
X78867000Y60121800D02*
X78689200Y60299600D01*
X78689200Y60299600D02*
X78181200Y60299600D01*
X26646400Y83874102D02*
X26724100Y83874102D01*
X26724100Y83874102D02*
X27584400Y84734400D01*
X27584400Y84734400D02*
X27584400Y85261196D01*
X27584400Y85261196D02*
X27667200Y85344000D01*
X27676600Y85353398D02*
X27676600Y86122000D01*
X27676600Y86122000D02*
X27813000Y86258400D01*
X27485800Y83034378D02*
X27485800Y83823000D01*
X27485800Y83823000D02*
X28473400Y84810600D01*
X28473400Y84810600D02*
X28473400Y85337396D01*
X28473400Y85337396D02*
X28466800Y85344000D01*
X28466800Y85344000D02*
X28466800Y85388196D01*
X28466800Y85388196D02*
X28778200Y85699600D01*
X28778200Y85699600D02*
X28778200Y86258400D01*
D72*
X7112000Y79248000D02*
X6985000Y79375000D01*
X8001000Y79248000D02*
X7112000Y79248000D01*
D69*
X8356600Y84505800D02*
X8356600Y83591400D01*
X8356600Y83591400D02*
X8255000Y83489800D01*
X10256600Y84505800D02*
X10256600Y83129200D01*
X10256600Y83129200D02*
X9931400Y82804000D01*
X9931400Y82804000D02*
X8483600Y82804000D01*
X8483600Y82804000D02*
X8280400Y83007200D01*
X8280400Y83007200D02*
X8280400Y83464400D01*
X8280400Y83464400D02*
X8255000Y83489800D01*
D71*
X15494000Y84727796D02*
X15494000Y85489796D01*
X15570200Y87350600D02*
X15570200Y86646000D01*
D72*
X13106400Y87147400D02*
X12979400Y87274400D01*
X13106400Y86512400D02*
X13106400Y87147400D01*
D71*
X14274800Y80035400D02*
X14274800Y79324200D01*
X14274800Y79324200D02*
X14325600Y79273400D01*
X15570200Y85674200D02*
X14909800Y85674200D01*
X15519400Y86614000D02*
X15519400Y85750400D01*
D69*
X11607800Y79248000D02*
X11607800Y79806800D01*
X11607800Y79806800D02*
X11811000Y80010000D01*
X13970000Y86512400D02*
X13970000Y87249000D01*
X13970000Y87249000D02*
X13995400Y87274400D01*
X86537800Y52298600D02*
X86563200Y52273200D01*
X86537800Y54356000D02*
X86537800Y52298600D01*
X103231200Y58578000D02*
X104546400Y59893200D01*
X103149400Y58578000D02*
X103231200Y58578000D01*
X103092000Y58578000D02*
X103561400Y58578000D01*
X102108000Y57556400D02*
X99745800Y57556400D01*
X103086400Y56578000D02*
X102108000Y57556400D01*
X103092000Y56578000D02*
X103086400Y56578000D01*
X102108000Y55549800D02*
X99568000Y55549800D01*
X103079800Y54578000D02*
X102108000Y55549800D01*
X103092000Y54578000D02*
X103079800Y54578000D01*
X37153600Y74999596D02*
X37261800Y75107800D01*
X36449000Y74999596D02*
X37153600Y74999596D01*
D72*
X84074000Y85775800D02*
X84048600Y85750400D01*
X84912200Y85775800D02*
X84074000Y85775800D01*
X84734400Y85877400D02*
X84810600Y85801200D01*
X84734400Y86512400D02*
X84734400Y85877400D01*
X85344000Y85801200D02*
X85369400Y85775800D01*
X85344000Y86461600D02*
X85344000Y85801200D01*
X86055200Y85750400D02*
X86080600Y85725000D01*
X86055200Y86487000D02*
X86055200Y85750400D01*
X86741000Y86588600D02*
X86741000Y85725000D01*
D70*
X60579000Y85852000D02*
X60553600Y85826600D01*
X61315600Y85852000D02*
X60579000Y85852000D01*
X60502800Y85902800D02*
X60553600Y85852000D01*
X60502800Y86588600D02*
X60502800Y85902800D01*
X59969400Y85826600D02*
X59918600Y85775800D01*
X59969400Y86537800D02*
X59969400Y85826600D01*
X59385200Y85826600D02*
X59309000Y85750400D01*
X59385200Y86563200D02*
X59385200Y85826600D01*
X58775600Y85953600D02*
X58902600Y85826600D01*
X58775600Y86639400D02*
X58775600Y85953600D01*
D69*
X71424800Y76545186D02*
X71214000Y76334366D01*
X71424800Y76987400D02*
X71424800Y76545186D01*
X73678800Y75444604D02*
X73710800Y75412600D01*
X72999600Y75444604D02*
X73678800Y75444604D01*
X71368400Y76488798D02*
X71196200Y76316586D01*
D71*
X20288000Y23146000D02*
X20345400Y23088600D01*
X20294600Y15558000D02*
X20320000Y15532600D01*
X31121600Y12884400D02*
X31140400Y12903200D01*
X34340800Y27381200D02*
X34391600Y27330400D01*
D69*
X29184600Y78308200D02*
X29362400Y78130400D01*
D71*
X20574000Y78816200D02*
X20523200Y78765400D01*
X22206204Y75495404D02*
X22199600Y75488800D01*
X25908000Y74574400D02*
X26600400Y74574400D01*
X26448000Y74581000D02*
X26466800Y74599800D01*
X34410400Y75368404D02*
X34417000Y75361800D01*
X34334200Y87775796D02*
X34340800Y87782400D01*
X10541000Y80645000D02*
X9525000Y80645000D01*
X9017000Y80645000D02*
X9670800Y80645000D01*
D69*
X116586000Y65278000D02*
X115062000Y65278000D01*
X116586000Y51308000D02*
X115062000Y51308000D01*
X115062000Y51308000D02*
X114935000Y51435000D01*
X116586000Y45466000D02*
X115062000Y45466000D01*
X115062000Y45466000D02*
X114935000Y45593000D01*
D72*
X96901000Y81493106D02*
X97790000Y81493106D01*
X96901000Y82001106D02*
X97790000Y82001106D01*
X96901000Y82509106D02*
X97790000Y82509106D01*
X96901000Y82763106D02*
X96901000Y83652106D01*
X96393000Y82763106D02*
X96393000Y83652106D01*
X95885000Y82763106D02*
X95885000Y83652106D01*
X95377000Y82763106D02*
X95377000Y83906106D01*
X95377000Y82509106D02*
X94488000Y82509106D01*
X95377000Y82001106D02*
X94488000Y82001106D01*
X95377000Y81493106D02*
X94361000Y81493106D01*
D69*
X9306600Y84505800D02*
X9306600Y83454200D01*
X9306600Y83454200D02*
X9321800Y83439000D01*
D71*
X9779000Y79959200D02*
X9779000Y80619600D01*
X9779000Y80619600D02*
X9804400Y80645000D01*
X26695400Y76377800D02*
X26695400Y75768200D01*
X26695400Y75768200D02*
X26797000Y75666600D01*
X29311600Y78105000D02*
X29311600Y77495400D01*
X29311600Y77495400D02*
X29413200Y77393800D01*
X18796000Y83921600D02*
X18135600Y83921600D01*
X18135600Y83921600D02*
X18059400Y83845400D01*
X18923000Y77730604D02*
X18923000Y77089000D01*
X18923000Y77089000D02*
X18897600Y77063600D01*
X20548600Y79400400D02*
X20548600Y78790800D01*
X20548600Y78790800D02*
X20523200Y78765400D01*
X22987000Y75412600D02*
X22301200Y75412600D01*
X22301200Y75412600D02*
X22225000Y75488800D01*
X31724600Y76377800D02*
X31724600Y75666600D01*
X31800800Y87045800D02*
X31800800Y87731600D01*
X31800800Y87731600D02*
X31775400Y87757000D01*
X33528000Y87858600D02*
X34264600Y87858600D01*
X34264600Y87858600D02*
X34340800Y87782400D01*
X33578800Y75285600D02*
X34340800Y75285600D01*
X34340800Y75285600D02*
X34417000Y75361800D01*
X12039600Y32518600D02*
X12039600Y31902400D01*
X12039600Y31902400D02*
X12090400Y31851600D01*
X15214600Y32512000D02*
X15214600Y31902400D01*
X15214600Y31902400D02*
X15113000Y31800800D01*
X21183600Y32537400D02*
X21183600Y31800800D01*
X21183600Y31800800D02*
X21107400Y31724600D01*
X17297400Y32537400D02*
X17297400Y31851600D01*
X17297400Y31851600D02*
X17246600Y31800800D01*
X26847800Y34645600D02*
X26847800Y33985200D01*
X26847800Y33985200D02*
X26898600Y33934400D01*
X26771600Y31800800D02*
X26771600Y31013400D01*
X13360400Y16542000D02*
X13360400Y15900400D01*
X13360400Y15900400D02*
X13385800Y15875000D01*
X10236200Y16535400D02*
X10236200Y15875000D01*
X33528000Y27298400D02*
X34308800Y27298400D01*
X34308800Y27298400D02*
X34366200Y27355800D01*
X31699200Y28339800D02*
X31699200Y27660600D01*
X31699200Y27660600D02*
X31724600Y27635200D01*
X19583400Y23037800D02*
X20269200Y23037800D01*
X20269200Y23037800D02*
X20332700Y23101300D01*
X19558000Y19830800D02*
X20237196Y19830800D01*
X20237196Y19830800D02*
X20320000Y19913600D01*
X19532600Y15475200D02*
X20301204Y15475200D01*
X20301204Y15475200D02*
X20339304Y15513300D01*
X21869400Y22910800D02*
X21869400Y22275800D01*
X21869400Y22275800D02*
X21844000Y22250400D01*
X21876000Y19830800D02*
X21876000Y19145000D01*
X21876000Y19145000D02*
X21894800Y19126200D01*
X21818600Y15468600D02*
X21818600Y14808200D01*
X21818600Y14808200D02*
X21793200Y14782800D01*
X25755600Y15519400D02*
X25755600Y14884400D01*
X25755600Y14884400D02*
X25730200Y14859000D01*
X25711400Y19653000D02*
X25711400Y18980400D01*
X25711400Y18980400D02*
X25704800Y18973800D01*
X25679400Y22834600D02*
X25679400Y22174200D01*
X39522400Y11785600D02*
X38912800Y11785600D01*
X38912800Y11785600D02*
X38836600Y11861800D01*
X37261800Y11665200D02*
X37261800Y10998200D01*
X37261800Y10998200D02*
X37236400Y10972800D01*
X32639000Y11633200D02*
X31877000Y11633200D01*
X31877000Y11633200D02*
X31826200Y11684000D01*
X33756600Y11607800D02*
X34518600Y11607800D01*
X34518600Y11607800D02*
X34569400Y11658600D01*
X30429200Y12801600D02*
X31038800Y12801600D01*
X31038800Y12801600D02*
X31127700Y12890500D01*
X21437600Y77851000D02*
X21437600Y77165200D01*
X21437600Y77165200D02*
X21336000Y77063600D01*
D69*
X72161400Y25273000D02*
X71983600Y25450800D01*
X72161400Y23901400D02*
X72161400Y25273000D01*
X72009000Y23749000D02*
X72161400Y23901400D01*
X72009000Y20701000D02*
X72009000Y23749000D01*
X71983600Y25450800D02*
X71755000Y25450800D01*
X67411600Y17856200D02*
X69189600Y17856200D01*
X67106800Y18161000D02*
X67411600Y17856200D01*
X67106800Y18389600D02*
X67106800Y18161000D01*
X71882000Y20574000D02*
X72009000Y20701000D01*
X70332600Y20574000D02*
X71882000Y20574000D01*
X71469000Y25704800D02*
X71729600Y25444200D01*
X71297800Y25704800D02*
X71469000Y25704800D01*
X70524100Y26478500D02*
X71297800Y25704800D01*
D71*
X43935400Y23698200D02*
X44577000Y23698200D01*
D69*
X78663800Y29591000D02*
X80340200Y29591000D01*
X78372500Y29882300D02*
X78663800Y29591000D01*
X73073800Y29882300D02*
X78372500Y29882300D01*
X72440800Y19869400D02*
X72491600Y19920200D01*
X72491600Y25781000D02*
X72491600Y19920200D01*
X72186800Y26085800D02*
X72491600Y25781000D01*
X71501000Y26085800D02*
X72186800Y26085800D01*
X71024200Y26562600D02*
X71501000Y26085800D01*
X72440800Y18796000D02*
X72440800Y19869400D01*
X71780400Y18135600D02*
X72440800Y18796000D01*
X70180200Y18135600D02*
X71780400Y18135600D01*
X69477900Y17433300D02*
X70180200Y18135600D01*
X69477900Y16256000D02*
X69477900Y17433300D01*
X72498200Y19926800D02*
X72485000Y19913600D01*
X69843400Y73120000D02*
X69850000Y73126600D01*
X69843400Y72237600D02*
X69843400Y73120000D01*
D72*
X57429400Y88874600D02*
X57454800Y88900000D01*
X56667400Y88874600D02*
X57429400Y88874600D01*
X57429400Y89433400D02*
X57505600Y89357200D01*
X56616600Y89433400D02*
X57429400Y89433400D01*
X56565800Y89916000D02*
X57327800Y89916000D01*
X56616600Y90398600D02*
X57454800Y90398600D01*
X56515000Y90932000D02*
X57581800Y90932000D01*
D69*
X78047600Y74701400D02*
X78714600Y74701400D01*
D72*
X82169000Y88341200D02*
X82219800Y88392000D01*
X81584800Y88341200D02*
X82169000Y88341200D01*
X82194400Y87807800D02*
X82270600Y87731600D01*
X81508600Y87807800D02*
X82194400Y87807800D01*
X82219800Y87299800D02*
X82245200Y87274400D01*
X81457800Y87299800D02*
X82219800Y87299800D01*
X81381600Y86842600D02*
X82296000Y86842600D01*
X81127600Y86004400D02*
X81102200Y85979000D01*
X81127600Y86664800D02*
X81127600Y86004400D01*
X80543400Y86664800D02*
X80543400Y86004400D01*
X86334600Y73101200D02*
X87198200Y73101200D01*
X87172800Y73761600D02*
X87249000Y73685400D01*
X86334600Y73761600D02*
X87172800Y73761600D01*
X87122000Y74371200D02*
X87223600Y74269600D01*
X86334600Y74371200D02*
X87122000Y74371200D01*
D70*
X84785200Y74930000D02*
X85699600Y74930000D01*
X87122000Y75006200D02*
X86436200Y75006200D01*
X85572600Y75184000D02*
X85598000Y75158600D01*
D69*
X66040000Y75698604D02*
X65982600Y75641200D01*
X67284600Y75698604D02*
X66040000Y75698604D01*
D70*
X60655200Y85318600D02*
X60629800Y85293200D01*
X61366400Y85318600D02*
X60655200Y85318600D01*
X72771000Y86791800D02*
X72694800Y86868000D01*
X72745600Y87299800D02*
X72669400Y87376000D01*
X72771000Y87884000D02*
X72745600Y87909400D01*
X70688200Y86080600D02*
X70789800Y85979000D01*
X70688200Y86639400D02*
X70688200Y86080600D01*
X71323200Y86004400D02*
X71399400Y85928200D01*
X71323200Y86690200D02*
X71323200Y86004400D01*
X71882000Y86055200D02*
X71932800Y86004400D01*
X71882000Y86690200D02*
X71882000Y86055200D01*
X72644000Y86791800D02*
X72669400Y86766400D01*
X71831200Y86791800D02*
X72644000Y86791800D01*
X72720200Y87325200D02*
X72745600Y87299800D01*
X71856600Y87325200D02*
X72720200Y87325200D01*
X72644000Y87909400D02*
X72720200Y87833200D01*
X71882000Y87909400D02*
X72644000Y87909400D01*
X72593200Y88417400D02*
X72618600Y88442800D01*
X71856600Y88417400D02*
X72593200Y88417400D01*
X72085200Y88773000D02*
X72034400Y88722200D01*
X72085200Y89204800D02*
X72085200Y88773000D01*
X71551800Y89357200D02*
X71551800Y88544400D01*
X71018400Y89357200D02*
X71018400Y88544400D01*
X70485000Y88646000D02*
X70434200Y88595200D01*
X70485000Y89306400D02*
X70485000Y88646000D01*
X69951600Y89433400D02*
X69951600Y88671400D01*
D69*
X43440600Y17272000D02*
X43561000Y17392400D01*
X42138600Y17272000D02*
X43440600Y17272000D01*
X41983900Y17426700D02*
X42138600Y17272000D01*
X72166200Y51160400D02*
X71983600Y50977800D01*
X73541900Y51160400D02*
X72166200Y51160400D01*
X36398200Y13284200D02*
X36372800Y13258800D01*
X36398200Y13843000D02*
X36398200Y13284200D01*
X35927500Y14313700D02*
X36398200Y13843000D01*
X35927500Y14777000D02*
X35927500Y14313700D01*
X72647800Y58162200D02*
X72288400Y58521600D01*
X73541900Y58162200D02*
X72647800Y58162200D01*
X53471800Y65663800D02*
X53771800Y65963800D01*
X52441900Y65663800D02*
X53471800Y65663800D01*
D71*
X13258800Y63246000D02*
X13284200Y63220600D01*
D72*
X12573000Y46990000D02*
X13335000Y46990000D01*
X12573000Y79248000D02*
X13335000Y79248000D01*
D69*
X53041800Y71101200D02*
X53086000Y71145400D01*
X53041800Y70383400D02*
X53041800Y71101200D01*
X24815800Y59309000D02*
X24815800Y58928000D01*
X24587200Y59537600D02*
X24815800Y59309000D01*
X24409400Y59537600D02*
X24587200Y59537600D01*
X24180800Y59766200D02*
X24409400Y59537600D01*
X24758396Y43212000D02*
X24758396Y42900600D01*
X24511000Y43459400D02*
X24758396Y43212000D01*
X24384000Y43459400D02*
X24511000Y43459400D01*
X24162000Y43681400D02*
X24384000Y43459400D01*
X31298400Y20427200D02*
X30810200Y19939000D01*
D71*
X28930600Y12928600D02*
X27823900Y12928600D01*
X27823900Y12928600D02*
X27747700Y12852400D01*
D69*
X32277600Y20427200D02*
X31298400Y20427200D01*
X36449000Y29032200D02*
X36576000Y28905200D01*
X36449000Y29260800D02*
X36449000Y29032200D01*
X36199100Y29510700D02*
X36449000Y29260800D01*
X36199100Y30153100D02*
X36199100Y29510700D01*
X35698900Y28944100D02*
X35712400Y28930600D01*
X35698900Y30153100D02*
X35698900Y28944100D01*
X34198560Y28945840D02*
X34239200Y28905200D01*
X34198560Y30153100D02*
X34198560Y28945840D01*
X32160200Y33277800D02*
X31877000Y32994600D01*
X33074100Y33277800D02*
X32160200Y33277800D01*
X31992100Y34278100D02*
X31877000Y34163000D01*
X33074100Y34278100D02*
X31992100Y34278100D01*
X31673800Y36474400D02*
X32334200Y35814000D01*
X31641800Y36474400D02*
X31673800Y36474400D01*
X43526700Y17426700D02*
X43579800Y17373600D01*
D71*
X43452800Y14764000D02*
X43459400Y14757400D01*
X13398500Y82829400D02*
X12674600Y82829400D01*
X12674600Y82829400D02*
X12446000Y83058000D01*
X12446000Y83058000D02*
X12509500Y83058000D01*
X15303500Y82169000D02*
X16129000Y82169000D01*
X16129000Y82169000D02*
X16256000Y82042000D01*
X13398500Y82169000D02*
X12395200Y82169000D01*
X12395200Y82169000D02*
X12369800Y82194400D01*
D69*
X23645622Y83874102D02*
X23645622Y84685378D01*
X23645622Y84685378D02*
X23088600Y85242400D01*
X26797000Y86334600D02*
X26822400Y86309200D01*
D71*
X23088600Y85242400D02*
X23431500Y84899500D01*
D69*
X22805898Y82034126D02*
X21953474Y82034126D01*
X21953474Y82034126D02*
X21488400Y82499200D01*
X25146000Y79194152D02*
X25146000Y78105000D01*
X25146000Y78105000D02*
X25298400Y77952600D01*
X24645874Y79194152D02*
X24645874Y78087474D01*
X24645874Y78087474D02*
X24511000Y77952600D01*
X28371800Y75837796D02*
X28390600Y75819000D01*
X23215600Y77883000D02*
X23158196Y77825600D01*
X23266400Y78282800D02*
X23266400Y77933804D01*
X23266400Y77933804D02*
X23212298Y77879702D01*
X28390600Y75819000D02*
X28390600Y74872596D01*
X28390600Y74872596D02*
X28346400Y74828400D01*
X24714200Y75260200D02*
X24714200Y74809604D01*
X24714200Y74809604D02*
X24707596Y74803000D01*
X36199100Y78159102D02*
X36199100Y77440536D01*
X36199100Y77440536D02*
X36347400Y77292200D01*
X36347400Y77292200D02*
X36347400Y77038200D01*
X36347400Y77038200D02*
X36449000Y76936600D01*
X35698900Y78159102D02*
X35698900Y77000862D01*
X35698900Y77000862D02*
X35737800Y76962000D01*
X34198560Y78159102D02*
X34198560Y77002640D01*
X34198560Y77002640D02*
X34264600Y76936600D01*
D71*
X42563800Y79673196D02*
X42570400Y79679800D01*
X42513000Y83496404D02*
X42519600Y83489800D01*
D69*
X31677100Y79283306D02*
X31387800Y78994000D01*
X32414000Y83784440D02*
X31692600Y84505800D01*
X31127200Y81661000D02*
X31000200Y81788000D01*
X32321500Y81622900D02*
X31165300Y81622900D01*
X31165300Y81622900D02*
X31133800Y81654396D01*
X33074100Y82284062D02*
X31992100Y82284062D01*
X31992100Y82284062D02*
X31902400Y82194400D01*
X33074100Y81283810D02*
X32160200Y81283810D01*
X32160200Y81283810D02*
X31902400Y81026000D01*
D71*
X13398500Y66827400D02*
X12623800Y66827400D01*
X12623800Y66827400D02*
X12420600Y67030600D01*
X13398500Y66167000D02*
X12242800Y66167000D01*
X12242800Y66167000D02*
X12166600Y66243200D01*
X15303500Y66167000D02*
X16078200Y66167000D01*
X16078200Y66167000D02*
X16230600Y66014600D01*
X16401796Y71431400D02*
X16357600Y71475600D01*
X16427196Y68776600D02*
X16357600Y68707000D01*
D69*
X25146000Y63192200D02*
X25146000Y62052200D01*
X25146000Y62052200D02*
X25273000Y61925200D01*
X24645874Y63192200D02*
X24645874Y62085500D01*
X24645874Y62085500D02*
X24485600Y61925200D01*
D71*
X21437600Y66497200D02*
X21310600Y66497200D01*
X21310600Y66497200D02*
X21107400Y66700400D01*
D69*
X22805898Y66032100D02*
X21902674Y66032100D01*
X21902674Y66032100D02*
X21437600Y66497200D01*
X23645622Y67872100D02*
X23645622Y68632600D01*
X23645622Y68632600D02*
X23063200Y69215000D01*
X24765000Y58972200D02*
X24809196Y58928000D01*
X28390600Y59613800D02*
X28390600Y60477400D01*
X28390600Y60477400D02*
X28397200Y60484000D01*
X31521400Y65557400D02*
X31318200Y65760600D01*
X31318200Y65760600D02*
X31032200Y65760600D01*
X31032200Y65760600D02*
X31006800Y65786000D01*
X33074100Y65281800D02*
X32541200Y65281800D01*
X32541200Y65281800D02*
X32334200Y65074800D01*
X32334200Y65074800D02*
X31953200Y65074800D01*
X31953200Y65074800D02*
X31877000Y64998600D01*
X33074100Y66282100D02*
X31992100Y66282100D01*
X31992100Y66282100D02*
X31877000Y66167000D01*
X36199100Y62157100D02*
X36199100Y61489300D01*
X36199100Y61489300D02*
X36372800Y61315600D01*
X36372800Y61315600D02*
X36372800Y60960000D01*
X36372800Y60960000D02*
X36423600Y60909200D01*
X35698900Y62157100D02*
X35698900Y60948100D01*
X35698900Y60948100D02*
X35712400Y60934600D01*
X34198560Y62157100D02*
X34198560Y60949840D01*
X34198560Y60949840D02*
X34239200Y60909200D01*
D71*
X42563800Y63633600D02*
X42545000Y63652400D01*
X42563800Y67532000D02*
X42494200Y67462400D01*
D69*
X31766500Y63281300D02*
X31445200Y62960000D01*
X32363200Y67782440D02*
X31641800Y68503800D01*
X23164800Y62839600D02*
X23164800Y61754000D01*
X23164800Y61754000D02*
X23132796Y61722000D01*
D71*
X13398500Y50165000D02*
X12268200Y50165000D01*
X12268200Y50165000D02*
X12192000Y50241200D01*
X13398500Y50825400D02*
X12649200Y50825400D01*
X12649200Y50825400D02*
X12446000Y51028600D01*
X15303500Y50165000D02*
X16103600Y50165000D01*
X16103600Y50165000D02*
X16256000Y50012600D01*
X16401796Y55454800D02*
X16383000Y55473600D01*
X16351000Y52737000D02*
X16383000Y52705000D01*
D69*
X21463000Y50495200D02*
X21488400Y50495200D01*
X21488400Y50495200D02*
X21945600Y50038000D01*
X21945600Y50038000D02*
X22798000Y50038000D01*
X22798000Y50038000D02*
X22805898Y50030100D01*
X21463000Y51409600D02*
X21463000Y51333400D01*
X23190200Y46786800D02*
X23190200Y45828200D01*
X23190200Y45828200D02*
X23158196Y45796200D01*
X24645874Y47190200D02*
X24645874Y46058100D01*
X24645874Y46058100D02*
X24511000Y45923200D01*
X25146000Y47190200D02*
X25146000Y46075600D01*
X25146000Y46075600D02*
X25298400Y45923200D01*
X24739600Y42919400D02*
X24758396Y42900600D01*
X23645622Y51870100D02*
X23645622Y52656000D01*
X23645622Y52656000D02*
X23088600Y53213000D01*
X31616400Y52552600D02*
X31616400Y52508400D01*
X31616400Y52508400D02*
X32308800Y51816000D01*
X31083000Y49758600D02*
X31369000Y49758600D01*
X31369000Y49758600D02*
X31572200Y49555400D01*
X31572200Y49555400D02*
X32435800Y49555400D01*
X32435800Y49555400D02*
X32588200Y49707800D01*
X31902400Y50165000D02*
X32156400Y50165000D01*
X32156400Y50165000D02*
X32258000Y50266600D01*
X32258000Y50266600D02*
X33060640Y50266600D01*
X33060640Y50266600D02*
X33074100Y50280100D01*
X31902400Y48996600D02*
X32080200Y48996600D01*
X32080200Y48996600D02*
X32308800Y49225200D01*
X32308800Y49225200D02*
X33019500Y49225200D01*
X33019500Y49225200D02*
X33074100Y49279800D01*
X31362400Y46939200D02*
X31470600Y46939200D01*
X31470600Y46939200D02*
X31851600Y47320200D01*
X34198560Y46155100D02*
X34198560Y44973240D01*
X34198560Y44973240D02*
X34264600Y44907200D01*
X35698900Y46155100D02*
X35698900Y44971500D01*
X35698900Y44971500D02*
X35737800Y44932600D01*
D71*
X21259800Y51562000D02*
X21463000Y51358800D01*
X21310600Y50647600D02*
X21463000Y50495200D01*
X42563800Y51504600D02*
X42519600Y51460400D01*
X42589200Y47631600D02*
X42570400Y47650400D01*
D69*
X36199100Y46155100D02*
X36199100Y45639700D01*
X36199100Y45639700D02*
X36474400Y45364400D01*
X36474400Y45364400D02*
X36474400Y45034200D01*
X36474400Y45034200D02*
X36601400Y44907200D01*
D71*
X16433800Y87376000D02*
X16433800Y86646000D01*
D69*
X58240700Y67562500D02*
X57912000Y67233800D01*
X58240700Y68462100D02*
X58240700Y67562500D01*
X61241400Y67591400D02*
X60909200Y67259200D01*
X61241400Y68462100D02*
X61241400Y67591400D01*
X69743600Y67238600D02*
X69748400Y67233800D01*
X69743600Y68462100D02*
X69743600Y67238600D01*
X72299100Y66664300D02*
X72263000Y66700400D01*
X73541900Y66664300D02*
X72299100Y66664300D01*
X72255380Y60662820D02*
X72237600Y60680600D01*
X73541900Y60662820D02*
X72255380Y60662820D01*
X69743800Y48661800D02*
X69748400Y48666400D01*
X69743800Y47362100D02*
X69743800Y48661800D01*
X62742100Y48264100D02*
X63169800Y48691800D01*
X62742100Y47362100D02*
X62742100Y48264100D01*
X60241400Y48684400D02*
X60248800Y48691800D01*
X60241400Y47362100D02*
X60241400Y48684400D01*
X53779200Y60662600D02*
X53797200Y60680600D01*
X52441900Y60662600D02*
X53779200Y60662600D01*
X53796900Y54661100D02*
X53797200Y54660800D01*
X52441900Y54661100D02*
X53796900Y54661100D01*
X61214000Y68489600D02*
X61241400Y68462100D01*
X99478600Y14097000D02*
X99478600Y20357600D01*
D72*
X12972796Y54940200D02*
X13099796Y55067200D01*
X12972796Y54305200D02*
X12972796Y54940200D01*
D71*
X12769596Y71215000D02*
X12827000Y71272400D01*
D72*
X13995400Y86639400D02*
X13868400Y86512400D01*
X13995400Y87274400D02*
X13995400Y86639400D01*
D71*
X16503396Y85674200D02*
X16503396Y84944204D01*
X16503396Y84944204D02*
X16510000Y84937600D01*
X11557000Y41275000D02*
X12954000Y41275000D01*
X18161000Y41275000D02*
X17272000Y41275000D01*
X11557000Y57277000D02*
X12954000Y57277000D01*
X18161000Y57277000D02*
X17272000Y57277000D01*
X11557000Y73279000D02*
X12954000Y73279000D01*
X18161000Y73279000D02*
X17272000Y73279000D01*
X11557000Y89281000D02*
X12954000Y89281000D01*
X18161000Y89281000D02*
X17272000Y89281000D01*
X22860000Y89281000D02*
X24384000Y89281000D01*
X29464000Y89281000D02*
X27813000Y89281000D01*
X22987000Y73279000D02*
X23749000Y73279000D01*
X29337000Y73279000D02*
X28702000Y73279000D01*
X22987000Y57277000D02*
X23749000Y57277000D01*
X29337000Y57277000D02*
X28575000Y57277000D01*
X22987000Y41275000D02*
X23749000Y41275000D01*
X29337000Y41275000D02*
X28448000Y41275000D01*
X21437600Y82550000D02*
X21386800Y82550000D01*
X21386800Y82550000D02*
X21285200Y82651600D01*
X21285200Y82651600D02*
X20726400Y82651600D01*
X26085800Y86334600D02*
X26822400Y86334600D01*
X26822400Y86334600D02*
X26847800Y86309200D01*
X42595800Y84251800D02*
X42595800Y83591400D01*
X42595800Y83591400D02*
X42506900Y83502500D01*
X42646600Y78867000D02*
X42646600Y79603600D01*
X42646600Y79603600D02*
X42570400Y79679800D01*
D69*
X12852400Y70485000D02*
X12852400Y71170800D01*
D72*
X12852400Y70485000D02*
X12852400Y71247000D01*
X12852400Y71247000D02*
X12827000Y71272400D01*
D71*
X12674600Y63246000D02*
X13258800Y63246000D01*
X16459200Y70637400D02*
X16459200Y71374000D01*
X16459200Y71374000D02*
X16332200Y71501000D01*
X16484600Y69672200D02*
X16484600Y68834000D01*
X16484600Y68834000D02*
X16370300Y68719700D01*
X21094700Y66713100D02*
X20561300Y66713100D01*
X20561300Y66713100D02*
X20320000Y66954400D01*
X26136600Y70510400D02*
X26720800Y70510400D01*
X26720800Y70510400D02*
X26898600Y70332600D01*
D69*
X28346400Y58750200D02*
X28346400Y58801000D01*
X28346400Y58801000D02*
X28600400Y59055000D01*
X28600400Y59055000D02*
X28600400Y59588400D01*
X28600400Y59588400D02*
X28575000Y59613800D01*
D71*
X42722800Y68173600D02*
X42722800Y67691000D01*
X42722800Y67691000D02*
X42494200Y67462400D01*
X42722800Y62839600D02*
X42722800Y63474600D01*
X42722800Y63474600D02*
X42532300Y63665100D01*
X16433800Y53721000D02*
X16433800Y52781200D01*
X16433800Y52781200D02*
X16370300Y52717700D01*
X16484600Y54635400D02*
X16484600Y55372000D01*
X16484600Y55372000D02*
X16357600Y55499000D01*
X21463000Y51409600D02*
X21412200Y51409600D01*
X21412200Y51409600D02*
X21259800Y51562000D01*
X21259800Y51562000D02*
X21082000Y51562000D01*
X21082000Y51562000D02*
X20815300Y51828700D01*
X20815300Y51828700D02*
X20485100Y51828700D01*
X20485100Y51828700D02*
X20472400Y51841400D01*
X20472400Y50876200D02*
X20599400Y50876200D01*
X20599400Y50876200D02*
X20751800Y50723800D01*
X20751800Y50723800D02*
X21183600Y50723800D01*
X21183600Y50723800D02*
X21412200Y50495200D01*
X26162000Y54381400D02*
X26720800Y54381400D01*
X26720800Y54381400D02*
X26822400Y54279800D01*
X42849800Y46888400D02*
X42849800Y47371000D01*
X42849800Y47371000D02*
X42595800Y47625000D01*
X42824400Y52247800D02*
X42824400Y51765200D01*
X42824400Y51765200D02*
X42519600Y51460400D01*
X27838400Y34645600D02*
X27838400Y33909000D01*
X27838400Y33909000D02*
X27889200Y33858200D01*
X27806400Y31826200D02*
X27806400Y31070800D01*
X27806400Y31070800D02*
X27863800Y31013400D01*
X42722800Y36195000D02*
X42722800Y35509200D01*
X42722800Y35509200D02*
X42621200Y35407600D01*
X42665400Y30886400D02*
X42665400Y31528000D01*
X42665400Y31528000D02*
X42545000Y31648400D01*
X38252400Y27762200D02*
X38963600Y27762200D01*
X42722800Y14452600D02*
X43154600Y14452600D01*
X43154600Y14452600D02*
X43459400Y14757400D01*
X74454000Y19939000D02*
X75057000Y19939000D01*
X75057000Y19939000D02*
X75133200Y20015200D01*
D69*
X52472800Y19497500D02*
X50835100Y19497500D01*
X50835100Y19497500D02*
X50088800Y20243800D01*
D71*
X90061800Y38836600D02*
X90061800Y39617400D01*
X100304600Y43942000D02*
X100304600Y44678600D01*
X100304600Y44678600D02*
X100330000Y44704000D01*
D69*
X24587200Y75387200D02*
X24714200Y75260200D01*
X23645622Y78662000D02*
X23266400Y78282800D01*
D71*
X21437600Y85979000D02*
X20980400Y85979000D01*
X20980400Y85979000D02*
X20701000Y85699600D01*
D69*
X32482500Y81783936D02*
X32321500Y81622900D01*
X30054800Y18643600D02*
X30048200Y18650200D01*
D71*
X30048200Y18567400D02*
X30556200Y18567400D01*
X30562800Y30181800D02*
X30556200Y30175200D01*
X30480000Y30937200D02*
X30480000Y30251400D01*
X30480000Y30251400D02*
X30556200Y30175200D01*
X30099000Y33756600D02*
X29413200Y33756600D01*
X29413200Y33756600D02*
X29387800Y33731200D01*
X29895800Y25476200D02*
X29108400Y25476200D01*
X29108400Y25476200D02*
X29057600Y25527000D01*
D69*
X32207200Y65557400D02*
X31521400Y65557400D01*
X21463000Y51333400D02*
X22123400Y50673000D01*
X22123400Y50673000D02*
X22123400Y50622200D01*
X22123400Y50622200D02*
X22199600Y50546000D01*
D71*
X15062200Y23393400D02*
X14401800Y23393400D01*
D69*
X73869000Y77997558D02*
X74244200Y77622400D01*
X73869000Y78668626D02*
X73869000Y77997558D01*
D72*
X84861400Y85191600D02*
X84124800Y85191600D01*
D69*
X69189600Y17856200D02*
X69926200Y18592800D01*
D71*
X15062200Y19456400D02*
X14325600Y19456400D01*
D69*
X102108000Y53568600D02*
X99568000Y53568600D01*
X103092000Y52584600D02*
X102108000Y53568600D01*
X103092000Y52578000D02*
X103092000Y52584600D01*
X24409400Y75387200D02*
X24587200Y75387200D01*
X30950900Y18426700D02*
X30734000Y18643600D01*
D71*
X30556200Y18567400D02*
X30683200Y18694400D01*
D69*
X32431700Y65781900D02*
X32207200Y65557400D01*
X24187404Y75609196D02*
X24409400Y75387200D01*
D71*
X6604000Y81534000D02*
X2667000Y81534000D01*
X7924800Y81534000D02*
X5022600Y81534000D01*
X8864600Y81534000D02*
X10668000Y81534000D01*
X16872204Y82804000D02*
X15354300Y82804000D01*
D69*
X15494000Y83794600D02*
X15494000Y82956400D01*
X15494000Y82956400D02*
X15367000Y82829400D01*
D71*
X19380200Y81915000D02*
X20091400Y81915000D01*
X17754600Y82804000D02*
X18643600Y82804000D01*
X18643600Y82804000D02*
X18796000Y82956400D01*
X20091400Y81915000D02*
X20345400Y81661000D01*
X18415000Y82804000D02*
X18415000Y81915000D01*
D69*
X22805898Y81534000D02*
X21227796Y81534000D01*
X25646100Y83874102D02*
X25646100Y84497926D01*
X25646100Y84497926D02*
X25933400Y84785200D01*
X25933400Y84785200D02*
X25933400Y85261196D01*
X25933400Y85261196D02*
X26016200Y85344000D01*
X26146300Y83874102D02*
X26146300Y84439252D01*
X26146300Y84439252D02*
X26492200Y84785200D01*
X26492200Y84785200D02*
X26695400Y84785200D01*
X26695400Y84785200D02*
X26797000Y84886800D01*
X26797000Y84886800D02*
X26797000Y85325204D01*
X26797000Y85325204D02*
X26815800Y85344000D01*
X27485800Y82534252D02*
X28483100Y82534252D01*
X28483100Y82534252D02*
X29489400Y83540600D01*
X29489400Y83540600D02*
X30054800Y83540600D01*
X30054800Y83540600D02*
X30080200Y83566000D01*
X33074100Y83284314D02*
X31625300Y83284314D01*
X31625300Y83284314D02*
X31394400Y83515200D01*
X31394400Y83515200D02*
X30930600Y83515200D01*
X30930600Y83515200D02*
X30879800Y83566000D01*
X27485800Y82034126D02*
X28643300Y82034126D01*
X28643300Y82034126D02*
X29260800Y82651600D01*
X29260800Y82651600D02*
X30054800Y82651600D01*
X30054800Y82651600D02*
X30080200Y82677000D01*
X33074100Y82784188D02*
X30987000Y82784188D01*
X30987000Y82784188D02*
X30879800Y82677000D01*
X27485800Y81534000D02*
X28803600Y81534000D01*
X28803600Y81534000D02*
X29413200Y80924400D01*
X29413200Y80924400D02*
X30054800Y80924400D01*
X30054800Y80924400D02*
X30080200Y80899000D01*
X31013400Y80899000D02*
X30886400Y80899000D01*
X31623000Y80289400D02*
X31013400Y80899000D01*
X33068260Y80289400D02*
X31623000Y80289400D01*
X33069500Y80288130D02*
X33068260Y80289400D01*
X33068260Y80289400D02*
X33074100Y80283558D01*
X30905200Y80924400D02*
X30879800Y80899000D01*
X31013400Y80772000D02*
X30883100Y80902302D01*
X27485800Y81033874D02*
X28668700Y81033874D01*
X28668700Y81033874D02*
X29692600Y80010000D01*
X29692600Y80010000D02*
X30080200Y80010000D01*
X30879800Y80010000D02*
X31191200Y80010000D01*
X31191200Y80010000D02*
X31419800Y79781400D01*
X31419800Y79781400D02*
X33072100Y79781400D01*
X33072100Y79781400D02*
X33074100Y79783432D01*
X25646100Y79194152D02*
X25646100Y78493874D01*
X25646100Y78503526D02*
X25646100Y78468474D01*
X25646100Y78468474D02*
X25869900Y78244700D01*
X25869900Y78244700D02*
X25869900Y77711300D01*
X25222200Y76962000D02*
X24936196Y76962000D01*
X24936196Y76962000D02*
X24936196Y75996800D01*
X24187404Y75946000D02*
X24187404Y75609196D01*
X25869900Y77724000D02*
X25869900Y77370940D01*
X25869900Y77370940D02*
X25461000Y76962000D01*
X25461000Y76962000D02*
X25077420Y76962000D01*
X25077420Y76962000D02*
X25052020Y76936600D01*
X25444200Y75946000D02*
X25984200Y75406000D01*
X24936196Y75996800D02*
X24987000Y75946000D01*
X24987000Y75946000D02*
X25444200Y75946000D01*
D71*
X23908000Y74803000D02*
X23901400Y74803000D01*
X23901400Y74803000D02*
X23596600Y74498200D01*
X23596600Y74498200D02*
X23241000Y74498200D01*
X23241000Y74498200D02*
X23164800Y74574400D01*
D69*
X24145748Y79194152D02*
X24145748Y78501748D01*
X24145748Y78511400D02*
X24145748Y78476348D01*
X24136604Y76962000D02*
X23654000Y76962000D01*
X23654000Y76962000D02*
X22987000Y76295000D01*
X24145748Y79009748D02*
X24145748Y78450948D01*
X24145748Y78450948D02*
X23926800Y78232000D01*
X23926800Y78232000D02*
X23926800Y77063600D01*
X23926800Y77063600D02*
X24053800Y76936600D01*
X20277074Y81033874D02*
X22805898Y81033874D01*
X19989800Y80746600D02*
X20277074Y81033874D01*
X17830800Y78587600D02*
X18897600Y78587600D01*
X18897600Y78587600D02*
X18900902Y78590902D01*
X20277074Y81033874D02*
X18923000Y79679800D01*
X18923000Y79679800D02*
X18923000Y78587600D01*
D71*
X22358604Y77825600D02*
X22358604Y77082396D01*
X22358604Y77082396D02*
X22377400Y77063600D01*
D69*
X23645622Y79194152D02*
X23645622Y78662000D01*
X26695400Y78054200D02*
X26670000Y78028800D01*
D71*
X26670000Y78054200D02*
X26670000Y77361796D01*
D69*
X26428700Y78346300D02*
X26428700Y78346300D01*
X26428700Y78346300D02*
X26695400Y78079600D01*
X27501600Y80518000D02*
X27485800Y80533748D01*
X27492200Y80527398D02*
X28337000Y80527398D01*
X28337000Y80527398D02*
X28854400Y80010000D01*
X28854400Y80010000D02*
X28879800Y80010000D01*
X28879800Y80010000D02*
X29159200Y79730600D01*
X29159200Y79280000D02*
X29184600Y79254604D01*
X25146000Y83874102D02*
X25146000Y85140800D01*
X25146000Y85140800D02*
X25247600Y85242400D01*
X25222200Y86315804D02*
X25203404Y86334600D01*
D71*
X28879800Y80010000D02*
X29184600Y79705200D01*
D69*
X22805898Y80033622D02*
X22324822Y80033622D01*
X22324822Y80033622D02*
X21894800Y79603600D01*
X21894800Y79603600D02*
X21564600Y79603600D01*
X21564600Y79603600D02*
X21475700Y79514700D01*
X22805898Y80533748D02*
X21732748Y80533748D01*
X21732748Y80533748D02*
X21463000Y80264000D01*
X22805898Y83034378D02*
X22805898Y83416902D01*
X22805898Y83416902D02*
X22148800Y84074000D01*
X22148800Y84074000D02*
X21640800Y84074000D01*
X21640800Y84074000D02*
X21463000Y84251800D01*
X22805898Y82534252D02*
X22240748Y82534252D01*
X22240748Y82534252D02*
X22047200Y82727800D01*
X22047200Y82727800D02*
X22047200Y82905600D01*
X22047200Y82905600D02*
X22021800Y82931000D01*
X22021800Y82931000D02*
X21945600Y82931000D01*
X21945600Y82931000D02*
X21437600Y83439000D01*
X26146300Y79194152D02*
X26146300Y78628748D01*
X26146300Y78628748D02*
X26492200Y78282800D01*
D71*
X21463000Y84277200D02*
X21463000Y84905596D01*
X21463000Y84905596D02*
X21444204Y84924392D01*
X29184600Y79705200D02*
X29311600Y79578200D01*
X29311600Y79578200D02*
X29311600Y79070200D01*
X20548600Y80365600D02*
X21361400Y80365600D01*
X21361400Y80365600D02*
X21463000Y80264000D01*
X21437600Y78816200D02*
X21437600Y79476600D01*
X21437600Y79476600D02*
X21463000Y79502000D01*
X21463000Y83439000D02*
X21386800Y83439000D01*
X21386800Y83439000D02*
X21183600Y83642200D01*
X21183600Y83642200D02*
X20726400Y83642200D01*
X20726400Y83642200D02*
X20701000Y83616800D01*
X25120600Y86334600D02*
X25120600Y85979000D01*
X25120600Y85979000D02*
X25171400Y85928200D01*
X25171400Y85928200D02*
X25171400Y85344000D01*
X25171400Y85344000D02*
X25273000Y85242400D01*
X13436600Y81508600D02*
X11639296Y81508600D01*
D69*
X33074100Y81783936D02*
X32482500Y81783936D01*
D71*
X30117800Y81788000D02*
X29438600Y81788000D01*
D69*
X33074100Y83784440D02*
X32414000Y83784440D01*
D71*
X30810200Y84505800D02*
X30810200Y85344000D01*
X30810200Y85344000D02*
X30708600Y85445600D01*
D69*
X33074100Y79283306D02*
X31677100Y79283306D01*
D71*
X30588200Y78213204D02*
X30581600Y78206600D01*
X30505400Y78994000D02*
X30505400Y78308200D01*
X30505400Y78308200D02*
X30594300Y78219300D01*
D69*
X85267800Y52247800D02*
X85217000Y52197000D01*
X85267800Y54356000D02*
X85267800Y52247800D01*
X83997800Y59283600D02*
X83997800Y61188600D01*
X82727800Y59283600D02*
X82727800Y61188600D01*
D70*
X86918800Y75895200D02*
X86944200Y75869800D01*
X86918800Y76657200D02*
X86918800Y75895200D01*
X84912200Y75895200D02*
X84886800Y75869800D01*
X84912200Y76555600D02*
X84912200Y75895200D01*
D71*
X20384000Y20714200D02*
X20396200Y20726400D01*
X29330400Y19449800D02*
X29311600Y19431000D01*
D72*
X6985000Y77978000D02*
X8001000Y77978000D01*
D69*
X115062000Y37338000D02*
X115062000Y33045400D01*
X112522000Y13970000D02*
X112522000Y18008600D01*
D71*
X19583400Y24003000D02*
X20269200Y24003000D01*
X20269200Y24003000D02*
X20345400Y23926800D01*
X19558000Y20796000D02*
X20275804Y20796000D01*
X20275804Y20796000D02*
X20370800Y20701000D01*
X19532600Y16440400D02*
X20237196Y16440400D01*
X20237196Y16440400D02*
X20320000Y16357600D01*
X30048200Y19532600D02*
X29413200Y19532600D01*
X29413200Y19532600D02*
X29311600Y19431000D01*
D70*
X86233000Y76606400D02*
X86233000Y75209400D01*
X85572600Y76631800D02*
X85572600Y75184000D01*
D69*
X76047600Y45955200D02*
X76091800Y45999400D01*
X76047600Y44856400D02*
X76047600Y45955200D01*
X75869800Y44678600D02*
X76047600Y44856400D01*
X69977000Y44209200D02*
X69938400Y44170600D01*
X69977000Y45897800D02*
X69977000Y44209200D01*
X70231000Y46151800D02*
X69977000Y45897800D01*
X44812200Y25298400D02*
X44246800Y25298400D01*
X75361800Y72999600D02*
X76543400Y72999600D01*
D70*
X82372200Y75184000D02*
X81711800Y75184000D01*
X81711800Y75184000D02*
X81610200Y75285600D01*
X82346800Y73634600D02*
X81686400Y73634600D01*
X81686400Y73634600D02*
X81559400Y73761600D01*
D69*
X38538400Y28778200D02*
X37312600Y28778200D01*
X72707500Y50660300D02*
X72009000Y49961800D01*
X73541900Y50660300D02*
X72707500Y50660300D01*
X36880800Y13722600D02*
X37268400Y13335000D01*
X36880800Y13919200D02*
X36880800Y13722600D01*
X36427700Y14372300D02*
X36880800Y13919200D01*
X36427700Y14777000D02*
X36427700Y14372300D01*
X42564600Y20427400D02*
X42570400Y20421600D01*
X41077600Y20427400D02*
X42564600Y20427400D01*
X42371000Y19427200D02*
X42570400Y19227800D01*
X41077600Y19427200D02*
X42371000Y19427200D01*
X41077600Y17926800D02*
X42158400Y17926800D01*
X42476200Y16426400D02*
X42697400Y16205200D01*
X41077600Y16426400D02*
X42476200Y16426400D01*
X39428420Y13378180D02*
X39547800Y13258800D01*
X39428420Y14777000D02*
X39428420Y13378180D01*
X32277600Y18426700D02*
X30950900Y18426700D01*
X39874700Y36278820D02*
X40962580Y36278820D01*
X39874700Y30777400D02*
X41140600Y30777400D01*
X33698400Y29177200D02*
X33426400Y28905200D01*
X33698400Y30102300D02*
X33698400Y29177200D01*
X32580580Y30777180D02*
X31699200Y29895800D01*
X33023300Y30777180D02*
X32580580Y30777180D01*
X32029400Y37160200D02*
X31775400Y37414200D01*
X32562800Y37160200D02*
X32029400Y37160200D01*
X33023300Y36699700D02*
X32562800Y37160200D01*
X33023300Y36278600D02*
X33023300Y36699700D01*
X33698180Y36953700D02*
X33698180Y38107620D01*
X41089580Y52280820D02*
X41122600Y52247800D01*
X39874700Y52280820D02*
X41089580Y52280820D01*
X41130000Y46779400D02*
X41148000Y46761400D01*
X39874700Y46779400D02*
X41130000Y46779400D01*
X33698400Y45103000D02*
X33502600Y44907200D01*
X33698400Y46104300D02*
X33698400Y45103000D01*
X32656780Y46779180D02*
X31750000Y45872400D01*
X33023300Y46779180D02*
X32656780Y46779180D01*
X32029400Y53213000D02*
X31800800Y53441600D01*
X32664400Y53213000D02*
X32029400Y53213000D01*
X33023300Y52854100D02*
X32664400Y53213000D01*
X33023300Y52280600D02*
X33023300Y52854100D01*
X33698180Y54109620D02*
X33502600Y54305200D01*
X33698180Y52955700D02*
X33698180Y54109620D01*
X41064180Y68282820D02*
X41097200Y68249800D01*
X39874700Y68282820D02*
X41064180Y68282820D01*
X41064400Y62781400D02*
X41122600Y62839600D01*
X39874700Y62781400D02*
X41064400Y62781400D01*
X33698400Y61257400D02*
X33451800Y61010800D01*
X33698400Y62106300D02*
X33698400Y61257400D01*
X32682180Y62781180D02*
X31775400Y61874400D01*
X33023300Y62781180D02*
X32682180Y62781180D01*
X31927800Y69138800D02*
X31750000Y69316600D01*
X32461200Y69138800D02*
X31927800Y69138800D01*
X33023300Y68576700D02*
X32461200Y69138800D01*
X33023300Y68282600D02*
X33023300Y68576700D01*
X33698180Y69705220D02*
X33528000Y69875400D01*
X33698180Y68957700D02*
X33698180Y69705220D01*
D71*
X31731200Y69335400D02*
X31750000Y69316600D01*
D69*
X33698180Y85885020D02*
X33477200Y86106000D01*
X33698180Y84959698D02*
X33698180Y85885020D01*
X31851600Y85293200D02*
X31800800Y85344000D01*
X32258000Y85293200D02*
X31851600Y85293200D01*
X33023300Y84527898D02*
X32258000Y85293200D01*
X33023300Y84284566D02*
X33023300Y84527898D01*
X40886380Y84284820D02*
X40919400Y84251800D01*
X39874700Y84284820D02*
X40886380Y84284820D01*
X40886600Y78783434D02*
X40970200Y78867000D01*
X39874700Y78783434D02*
X40886600Y78783434D01*
X33698400Y77310234D02*
X33401000Y77012800D01*
X33698400Y78108302D02*
X33698400Y77310234D01*
X32555180Y78783180D02*
X31775400Y78003400D01*
X33023300Y78783180D02*
X32555180Y78783180D01*
D71*
X33528000Y86156800D02*
X33477200Y86106000D01*
D69*
X67243200Y48625000D02*
X67259200Y48641000D01*
X67243200Y47362100D02*
X67243200Y48625000D01*
X58740800Y67294000D02*
X58801000Y67233800D01*
X58740800Y68462100D02*
X58740800Y67294000D01*
X61741600Y67278800D02*
X61722000Y67259200D01*
X61741600Y68462100D02*
X61741600Y67278800D01*
X63742100Y67398100D02*
X63830200Y67310000D01*
X63742100Y68462100D02*
X63742100Y67398100D01*
X65242440Y67320160D02*
X65278000Y67284600D01*
X65242440Y68462100D02*
X65242440Y67320160D01*
X72266300Y64163700D02*
X72263000Y64160400D01*
X73541900Y64163700D02*
X72266300Y64163700D01*
X72335100Y57662100D02*
X72288400Y57708800D01*
X73541900Y57662100D02*
X72335100Y57662100D01*
X72146160Y55661560D02*
X72136000Y55651400D01*
X73541900Y55661560D02*
X72146160Y55661560D01*
X62241900Y48576700D02*
X62357000Y48691800D01*
X62241900Y47362100D02*
X62241900Y48576700D01*
X56740600Y48688800D02*
X56743600Y48691800D01*
X56740600Y47362100D02*
X56740600Y48688800D01*
X53782500Y49159700D02*
X53797200Y49174400D01*
X52441900Y49159700D02*
X53782500Y49159700D01*
X53793900Y51660300D02*
X53797200Y51663600D01*
X52441900Y51660300D02*
X53793900Y51660300D01*
X53709300Y57161700D02*
X53797200Y57073800D01*
X52441900Y57161700D02*
X53709300Y57161700D01*
X53716900Y58161900D02*
X53797200Y58242200D01*
X52441900Y58161900D02*
X53716900Y58161900D01*
X53759100Y65163700D02*
X53771800Y65151000D01*
X52441900Y65163700D02*
X53759100Y65163700D01*
X31826200Y38201600D02*
X31750000Y38277800D01*
X58740800Y68106800D02*
X58750200Y68097400D01*
X61741600Y68128600D02*
X61747400Y68122800D01*
X63742100Y68160100D02*
X63754000Y68148200D01*
X65242440Y68133000D02*
X65252600Y68122800D01*
X50876200Y47574200D02*
X50336200Y47574200D01*
X51079400Y47371000D02*
X50876200Y47574200D01*
X50336200Y46234600D02*
X50336200Y46253400D01*
X50876200Y45694600D02*
X50336200Y46234600D01*
X54889400Y45694600D02*
X50876200Y45694600D01*
X55245000Y46050200D02*
X54889400Y45694600D01*
X113538000Y61341000D02*
X113538000Y60452000D01*
X113538000Y60452000D02*
X113665000Y60325000D01*
D71*
X60248800Y9474200D02*
X60147200Y9575800D01*
X61006200Y9474200D02*
X60248800Y9474200D01*
D69*
X54589900Y20797300D02*
X54635400Y20751800D01*
X54692800Y22733000D02*
X54692800Y20809200D01*
X54692800Y20809200D02*
X54635400Y20751800D01*
X54589900Y20797300D02*
X51700900Y20797300D01*
D71*
X32867600Y70434200D02*
X32969200Y70434200D01*
X32969200Y70434200D02*
X33528000Y69875400D01*
X31724600Y77343000D02*
X31724600Y77952600D01*
X31724600Y77952600D02*
X31762700Y77990700D01*
X31800800Y86080600D02*
X31800800Y85420200D01*
X33528000Y86893400D02*
X33528000Y86182200D01*
X33528000Y86182200D02*
X33464500Y86118700D01*
X41630600Y84251800D02*
X40919400Y84251800D01*
X33401000Y76962000D02*
X33401000Y76428600D01*
X33401000Y76428600D02*
X33578800Y76250800D01*
X41681400Y78867000D02*
X40970200Y78867000D01*
X31731200Y70986400D02*
X31260800Y70986400D01*
X31260800Y70986400D02*
X31013400Y70739000D01*
X31731200Y70021200D02*
X31731200Y69360800D01*
X31731200Y69360800D02*
X31750000Y69342000D01*
X31743400Y61296800D02*
X31743400Y62008000D01*
X31743400Y62008000D02*
X31724600Y62026800D01*
X33477200Y60198000D02*
X33477200Y60909200D01*
X33477200Y60909200D02*
X33451800Y60934600D01*
X41757600Y68173600D02*
X41148000Y68173600D01*
X41148000Y68173600D02*
X41071800Y68249800D01*
X41757600Y62839600D02*
X41071800Y62839600D01*
X31750000Y45288200D02*
X31750000Y45974000D01*
X31750000Y54089800D02*
X31750000Y53492400D01*
X31750000Y53492400D02*
X31813500Y53428900D01*
X33528000Y54838600D02*
X33528000Y54178200D01*
X33578800Y44272200D02*
X33578800Y44831000D01*
X33578800Y44831000D02*
X33502600Y44907200D01*
X41884600Y46888400D02*
X41325800Y46888400D01*
X41325800Y46888400D02*
X41198800Y46761400D01*
X41859200Y52247800D02*
X41148000Y52247800D01*
X41148000Y52247800D02*
X41135300Y52235100D01*
X41757600Y36195000D02*
X41021000Y36195000D01*
X41700200Y30886400D02*
X41046400Y30886400D01*
X41046400Y30886400D02*
X41021000Y30861000D01*
X33388300Y28867100D02*
X33388300Y28403300D01*
X33388300Y28403300D02*
X33528000Y28263600D01*
X31699200Y29305000D02*
X31699200Y30048200D01*
X31775400Y38042600D02*
X31775400Y37439600D01*
X31775400Y37439600D02*
X31762700Y37426900D01*
X33502600Y38836600D02*
X33502600Y38176200D01*
X33502600Y38176200D02*
X33553400Y38125400D01*
X39522400Y12750800D02*
X39522400Y13385800D01*
X39522400Y13385800D02*
X39547800Y13411200D01*
X37261800Y12630400D02*
X37261800Y13277600D01*
X37261800Y13277600D02*
X37268400Y13284200D01*
X42722800Y15417800D02*
X42722800Y16154400D01*
X42722800Y16154400D02*
X42697400Y16179800D01*
X89096600Y38836600D02*
X89096600Y39554400D01*
X89096600Y39554400D02*
X89027000Y39624000D01*
X99339400Y43942000D02*
X99339400Y44678600D01*
X99339400Y44678600D02*
X99314000Y44704000D01*
D69*
X44246800Y25298400D02*
X43180000Y24231600D01*
X37312600Y28778200D02*
X36779200Y28244800D01*
X36779200Y28244800D02*
X36779200Y27940000D01*
X36779200Y27940000D02*
X36576000Y27736800D01*
X28371800Y76917804D02*
X28371800Y75837796D01*
X24405590Y23767800D02*
X24322786Y23850600D01*
X25679400Y23767800D02*
X24405590Y23767800D01*
D71*
X27591000Y75819000D02*
X27591000Y75241404D01*
X27591000Y75241404D02*
X27228800Y74879200D01*
D69*
X21869400Y23793200D02*
X21869400Y24485600D01*
X21926804Y23850600D02*
X21869400Y23793200D01*
X23022814Y23850600D02*
X21926804Y23850600D01*
X26646400Y79194152D02*
X27358800Y79194152D01*
X27358800Y79194152D02*
X28321000Y78232000D01*
X28321000Y78232000D02*
X28321000Y77768196D01*
X28321000Y77768196D02*
X28371800Y77717396D01*
X33038500Y35814000D02*
X33074100Y35778440D01*
X32334200Y35814000D02*
X33038500Y35814000D01*
D71*
X30759400Y36474400D02*
X30759400Y37185600D01*
X30759400Y37185600D02*
X30683200Y37261800D01*
D69*
X31702500Y31277300D02*
X31362400Y30937200D01*
X33074100Y31277300D02*
X31702500Y31277300D01*
X31006800Y33731200D02*
X30981400Y33756600D01*
X31267400Y33731200D02*
X31006800Y33731200D01*
X31394400Y33604200D02*
X31267400Y33731200D01*
X32258000Y33604200D02*
X31394400Y33604200D01*
X32431700Y33777900D02*
X32258000Y33604200D01*
X33074100Y33777900D02*
X32431700Y33777900D01*
X41077600Y17426700D02*
X41983900Y17426700D01*
D71*
X44462200Y17373600D02*
X45161200Y17373600D01*
X45161200Y17373600D02*
X45212000Y17424400D01*
D69*
X43357800Y16357600D02*
X44024800Y16357600D01*
X46888400Y16383000D02*
X46888400Y15976600D01*
X46888400Y15976600D02*
X46583600Y15671800D01*
X42788840Y16926560D02*
X43357800Y16357600D01*
X41077600Y16926560D02*
X42788840Y16926560D01*
X44824400Y16357600D02*
X45980600Y16357600D01*
X48310800Y13284200D02*
X47690800Y13284200D01*
X47690800Y13284200D02*
X47640000Y13233400D01*
X46583600Y15671800D02*
X46583600Y15214600D01*
X46583600Y15214600D02*
X46558200Y15189200D01*
X48869600Y13843000D02*
X48310800Y13284200D01*
X48869600Y16256000D02*
X48869600Y13843000D01*
X50647600Y18034000D02*
X48869600Y16256000D01*
X45980600Y16357600D02*
X46006000Y16383000D01*
X45974000Y16357600D02*
X45974000Y16999200D01*
X45974000Y16999200D02*
X46373800Y17399000D01*
X47440600Y15189200D02*
X47440600Y14750800D01*
X47440600Y14750800D02*
X47015400Y14325600D01*
X47015400Y14325600D02*
X46634400Y14325600D01*
X46634400Y14325600D02*
X46431200Y14122400D01*
X32269200Y22936200D02*
X32277600Y22927800D01*
X31546800Y22936200D02*
X32269200Y22936200D01*
X30657800Y23825200D02*
X31546800Y22936200D01*
X29584400Y23825200D02*
X30657800Y23825200D01*
X32267400Y21437600D02*
X32277600Y21427440D01*
X31496000Y21437600D02*
X32267400Y21437600D01*
X30632400Y20574000D02*
X31496000Y21437600D01*
X29584400Y20574000D02*
X30632400Y20574000D01*
X31251900Y16926300D02*
X30810200Y16484600D01*
X32277600Y16926300D02*
X31251900Y16926300D01*
X30810200Y16484600D02*
X29635200Y16484600D01*
X29635200Y16484600D02*
X29584400Y16433800D01*
X30880600Y17926600D02*
X30835600Y17881600D01*
X30835600Y17881600D02*
X29591000Y17881600D01*
X29591000Y17881600D02*
X29260800Y17551400D01*
D71*
X25947900Y12852400D02*
X24866600Y12852400D01*
X24866600Y12852400D02*
X24841200Y12877800D01*
D69*
X32277600Y17926600D02*
X30880600Y17926600D01*
D71*
X30429200Y13766800D02*
X30429200Y14427200D01*
D69*
X30558200Y17426400D02*
X30429200Y17297400D01*
X32277600Y17426400D02*
X30558200Y17426400D01*
X32250100Y17399000D02*
X32277600Y17426400D01*
X43180000Y23742400D02*
X43119800Y23682200D01*
X43180000Y24231600D02*
X43180000Y23742400D01*
X42551600Y23114000D02*
X43135800Y23698200D01*
X41833800Y23114000D02*
X42551600Y23114000D01*
X41656000Y22936200D02*
X41833800Y23114000D01*
X41656000Y22529800D02*
X41656000Y22936200D01*
X41554100Y22427900D02*
X41656000Y22529800D01*
X41077600Y22427900D02*
X41554100Y22427900D01*
D71*
X45694600Y25298400D02*
X46431200Y25298400D01*
D69*
X33426900Y13359900D02*
X33528000Y13258800D01*
X33426900Y14777000D02*
X33426900Y13359900D01*
D71*
X33756600Y12573000D02*
X33756600Y13055600D01*
X33756600Y13055600D02*
X33502600Y13309600D01*
D69*
X32926800Y13775200D02*
X32410400Y13258800D01*
X32926800Y14777000D02*
X32926800Y13775200D01*
D71*
X32639000Y12598400D02*
X32639000Y13309600D01*
X32639000Y13309600D02*
X32613600Y13335000D01*
X30861000Y25476200D02*
X30861000Y24739600D01*
D69*
X31839200Y23577000D02*
X30778200Y24638000D01*
X32926500Y23577000D02*
X31839200Y23577000D01*
D71*
X30861000Y24739600D02*
X30784800Y24663400D01*
D69*
X39446200Y24765000D02*
X39878000Y25196800D01*
X39878000Y25787600D02*
X39878000Y25196800D01*
X39446200Y24663400D02*
X39446200Y24765000D01*
X38928000Y24145240D02*
X39446200Y24663400D01*
X38928000Y23577000D02*
X38928000Y24145240D01*
X26646400Y67872100D02*
X26647900Y67872100D01*
X26647900Y67872100D02*
X27381200Y68605400D01*
X27317700Y68541900D02*
X27635200Y68859400D01*
X27635200Y68859400D02*
X27635200Y69748400D01*
X27635200Y69748400D02*
X27762200Y69875400D01*
X27762200Y69875400D02*
X27762200Y70294500D01*
X27762200Y70294500D02*
X27800300Y70332600D01*
X27485800Y67032400D02*
X27485800Y67897200D01*
X27485800Y67897200D02*
X28270200Y68681600D01*
X28270200Y68681600D02*
X28270200Y69399400D01*
X28270200Y69399400D02*
X28339800Y69469000D01*
X28330400Y69459600D02*
X28330400Y69478400D01*
X28330400Y69478400D02*
X28676600Y69824600D01*
X28676600Y69824600D02*
X28676600Y70243700D01*
X28676600Y70243700D02*
X28765500Y70332600D01*
D71*
X14357604Y63239400D02*
X14376400Y63220600D01*
X14713204Y68776600D02*
X14706600Y68783200D01*
X15443200Y68776600D02*
X14713204Y68776600D01*
D72*
X11811000Y63881000D02*
X11684000Y64008000D01*
X11811000Y63246000D02*
X11811000Y63881000D01*
X11988800Y70485000D02*
X11988800Y71120000D01*
X11988800Y71120000D02*
X11861800Y71247000D01*
D71*
X14274800Y64008000D02*
X14274800Y63322200D01*
X14274800Y63322200D02*
X14376400Y63220600D01*
X15563596Y68776600D02*
X15563596Y69196200D01*
X15563596Y69196200D02*
X15519400Y69240400D01*
X15519400Y69240400D02*
X15519400Y70612000D01*
X15519400Y70612000D02*
X15494000Y70637400D01*
X15494000Y70637400D02*
X15494000Y71348600D01*
X15494000Y71348600D02*
X15570200Y71424800D01*
X5461000Y65532000D02*
X3810000Y65532000D01*
X4927600Y65532000D02*
X7931400Y65532000D01*
X9035800Y65532000D02*
X9760200Y65532000D01*
X9760200Y65532000D02*
X9779000Y65550800D01*
X9804400Y65532000D02*
X10776204Y65532000D01*
D69*
X15417800Y66827400D02*
X15417800Y67951600D01*
X15417800Y67951600D02*
X15443200Y67977000D01*
D71*
X15303500Y66827400D02*
X16846804Y66827400D01*
X16846804Y66827400D02*
X16897604Y66776600D01*
X18465800Y66776600D02*
X17697196Y66776600D01*
X18542000Y66675000D02*
X18440400Y66776600D01*
X19507200Y65887600D02*
X19558000Y65887600D01*
X19558000Y65887600D02*
X19812000Y65633600D01*
X18796000Y67030600D02*
X18542000Y66776600D01*
X18542000Y65887600D02*
X18542000Y66675000D01*
X19812000Y65633600D02*
X20447000Y65633600D01*
X20447000Y65633600D02*
X20472400Y65608200D01*
D69*
X22805898Y65532000D02*
X21354796Y65532000D01*
X21354796Y65532000D02*
X21437600Y65608200D01*
X25646100Y67872100D02*
X25646100Y68724500D01*
X25646100Y68724500D02*
X25831800Y68910200D01*
X25831800Y68910200D02*
X25831800Y69284600D01*
X25831800Y69284600D02*
X26016200Y69469000D01*
X26146300Y67872100D02*
X26146300Y68488100D01*
X26146300Y68488100D02*
X26492200Y68834000D01*
X26492200Y68834000D02*
X26517600Y68834000D01*
X26517600Y68834000D02*
X26771600Y68834000D01*
X26771600Y68834000D02*
X26873200Y68935600D01*
X26873200Y68935600D02*
X26873200Y69316600D01*
X26873200Y69316600D02*
X26974800Y69418200D01*
X27485800Y66532300D02*
X28381500Y66532300D01*
X28381500Y66532300D02*
X29311600Y67462400D01*
X29311600Y67462400D02*
X29978600Y67462400D01*
X29978600Y67462400D02*
X30080200Y67564000D01*
X30879800Y67564000D02*
X31369000Y67564000D01*
X31369000Y67564000D02*
X31648400Y67284600D01*
X31648400Y67284600D02*
X33071800Y67284600D01*
X33071800Y67284600D02*
X33074100Y67282300D01*
X27485800Y66032100D02*
X28592500Y66032100D01*
X28592500Y66032100D02*
X29235400Y66675000D01*
X29235400Y66675000D02*
X30080200Y66675000D01*
X30879800Y66675000D02*
X31089600Y66675000D01*
X31089600Y66675000D02*
X31191200Y66776600D01*
X31191200Y66776600D02*
X33068500Y66776600D01*
X33068500Y66776600D02*
X33074100Y66782200D01*
X30004000Y64820800D02*
X30080200Y64897000D01*
X27485800Y65532000D02*
X28575000Y65532000D01*
X28575000Y65532000D02*
X29235400Y64871600D01*
X29235400Y64871600D02*
X30054800Y64871600D01*
X30054800Y64871600D02*
X30064200Y64881000D01*
X31165800Y64795400D02*
X30981400Y64795400D01*
X30981400Y64795400D02*
X30879800Y64897000D01*
X33074100Y64281600D02*
X31705000Y64281600D01*
X31705000Y64281600D02*
X31191200Y64795400D01*
X31191200Y64795400D02*
X30981400Y64795400D01*
X30981400Y64795400D02*
X30933900Y64842900D01*
X30004000Y63931800D02*
X30080200Y64008000D01*
X27485800Y65031900D02*
X28465500Y65031900D01*
X28465500Y65031900D02*
X29591000Y63906400D01*
X29591000Y63906400D02*
X29978600Y63906400D01*
X29978600Y63906400D02*
X30080200Y64008000D01*
X33074100Y63781400D02*
X31621000Y63781400D01*
X31621000Y63781400D02*
X31394400Y64008000D01*
X31394400Y64008000D02*
X30879800Y64008000D01*
X24180800Y60121800D02*
X24180800Y59766200D01*
X25646100Y63192200D02*
X25646100Y62568100D01*
X25646100Y62568100D02*
X25831800Y62382400D01*
X25831800Y62382400D02*
X25831800Y61645800D01*
X25831800Y61645800D02*
X25450800Y61264800D01*
X25450800Y61264800D02*
X25190196Y61264800D01*
X25190196Y61264800D02*
X24987000Y61061600D01*
D71*
X23037800Y58623200D02*
X23012400Y58648600D01*
D69*
X25012396Y61087000D02*
X25012396Y60147200D01*
X25012396Y60147200D02*
X24987000Y60121800D01*
X25069800Y60121800D02*
X25374600Y60121800D01*
X25374600Y60121800D02*
X25984200Y59512200D01*
D71*
X23012400Y58648600D02*
X23647400Y58648600D01*
X23647400Y58648600D02*
X23926800Y58928000D01*
D69*
X24145748Y61103300D02*
X24187404Y61061600D01*
X24187404Y61061600D02*
X23755604Y61061600D01*
X23755604Y61061600D02*
X22987000Y60293000D01*
X24145748Y63192200D02*
X24145748Y62728300D01*
X24145748Y62728300D02*
X23774400Y62357000D01*
X23774400Y62357000D02*
X23774400Y61474600D01*
X23774400Y61474600D02*
X24187404Y61061600D01*
X22805898Y65031900D02*
X20404074Y65031900D01*
X18948400Y63576200D02*
X18948400Y62553600D01*
X18948400Y62553600D02*
X17830800Y62553600D01*
X17830800Y62553600D02*
X17805400Y62528200D01*
X20429474Y65031900D02*
X19921474Y65031900D01*
X19921474Y65031900D02*
X19913600Y65024000D01*
X19913600Y65024000D02*
X19913600Y64998600D01*
X19913600Y64998600D02*
X18948400Y64033400D01*
X18948400Y64033400D02*
X18948400Y63525400D01*
D71*
X22333204Y61055000D02*
X22352000Y61036200D01*
D69*
X23645622Y63192200D02*
X23517352Y63192200D01*
X23517352Y63192200D02*
X23164800Y62839600D01*
D71*
X22250400Y61722000D02*
X22250400Y61137800D01*
X22250400Y61137800D02*
X22352000Y61036200D01*
X21437600Y67411600D02*
X21234400Y67411600D01*
X21437600Y67411600D02*
X21386800Y67411600D01*
X21463000Y68275200D02*
X21437600Y68249800D01*
X25254204Y69247000D02*
X25222200Y69215000D01*
X21463000Y63449200D02*
X21437600Y63474600D01*
D69*
X22805898Y64531700D02*
X21834348Y64531700D01*
X21834348Y64531700D02*
X21539200Y64236600D01*
X22805898Y64031600D02*
X21994622Y64031600D01*
X21994622Y64031600D02*
X21437600Y63474600D01*
X22805898Y67032400D02*
X22805898Y67440300D01*
X22805898Y67440300D02*
X22123400Y68122800D01*
X22123400Y68122800D02*
X21640800Y68122800D01*
X21640800Y68122800D02*
X21463000Y68300600D01*
X22805898Y66532300D02*
X22367748Y66532300D01*
X22367748Y66532300D02*
X21488400Y67411600D01*
X26146300Y63192200D02*
X26146300Y62677500D01*
X26146300Y62677500D02*
X26314400Y62509400D01*
X26314400Y62509400D02*
X26314400Y62026800D01*
X26314400Y62026800D02*
X26441400Y61899800D01*
X25146000Y67872100D02*
X25146000Y69138800D01*
X25146000Y69138800D02*
X25222200Y69215000D01*
X27485800Y64531700D02*
X28102100Y64531700D01*
X28102100Y64531700D02*
X28727400Y63906400D01*
D71*
X28765500Y63868300D02*
X28841700Y63868300D01*
X21234400Y67411600D02*
X20726400Y67919600D01*
X20726400Y67919600D02*
X20320000Y67919600D01*
X21463000Y69113400D02*
X21463000Y68275200D01*
X25209500Y69202300D02*
X25209500Y70472300D01*
X25209500Y70472300D02*
X25171400Y70510400D01*
X28727400Y63906400D02*
X29159200Y63474600D01*
X29159200Y63474600D02*
X29159200Y63246000D01*
X29159200Y63246000D02*
X29311600Y63093600D01*
X26492200Y61417200D02*
X26492200Y62001400D01*
X26492200Y62001400D02*
X26441400Y62052200D01*
X21336000Y62814200D02*
X21336000Y63347600D01*
X21336000Y63347600D02*
X21450300Y63461900D01*
X20447000Y64363600D02*
X21310600Y64363600D01*
X21310600Y64363600D02*
X21437600Y64236600D01*
X13398500Y65506600D02*
X11760200Y65506600D01*
X11760200Y65506600D02*
X11734800Y65532000D01*
D69*
X33074100Y65781900D02*
X32431700Y65781900D01*
D71*
X30124400Y65786000D02*
X29387800Y65786000D01*
X29387800Y65786000D02*
X29362400Y65760600D01*
D69*
X33074100Y67782440D02*
X32363200Y67782440D01*
D71*
X30759400Y68503800D02*
X30759400Y69189600D01*
X30759400Y69189600D02*
X30683200Y69265800D01*
D69*
X33074100Y63281300D02*
X31766500Y63281300D01*
D71*
X30562800Y62960000D02*
X30562800Y62185800D01*
X30562800Y62185800D02*
X30556200Y62179200D01*
D69*
X24412194Y20611600D02*
X24348186Y20675600D01*
X25711400Y20611600D02*
X24412194Y20611600D01*
D71*
X27591000Y59613800D02*
X27591000Y59036200D01*
X27591000Y59036200D02*
X27330400Y58775600D01*
D69*
X21818600Y21361400D02*
X21869400Y21412200D01*
X21818600Y20675600D02*
X21818600Y21361400D01*
X21913596Y20675600D02*
X21876000Y20713200D01*
X23048214Y20675600D02*
X21913596Y20675600D01*
X27051000Y63144400D02*
X26694100Y63144400D01*
X26694100Y63144400D02*
X26646400Y63192200D01*
X27051000Y63144400D02*
X28371800Y61823600D01*
X28371800Y61823600D02*
X28371800Y61518800D01*
X28371800Y61518800D02*
X28397200Y61493400D01*
X26646400Y51870100D02*
X26698700Y51870100D01*
X26698700Y51870100D02*
X27457400Y52628800D01*
X27381200Y52552600D02*
X27381200Y52578000D01*
X27381200Y52578000D02*
X27838400Y53035200D01*
X27838400Y53035200D02*
X27838400Y54254400D01*
X27838400Y54254400D02*
X27863800Y54279800D01*
X27485800Y51030400D02*
X27485800Y51844400D01*
X27485800Y51844400D02*
X28321000Y52679600D01*
X28117800Y52476400D02*
X28803600Y53162200D01*
X28803600Y53162200D02*
X28803600Y54254400D01*
X28803600Y54254400D02*
X28829000Y54279800D01*
D72*
X11811000Y47625000D02*
X11684000Y47752000D01*
X11811000Y46990000D02*
X11811000Y47625000D01*
D71*
X14357604Y47276000D02*
X14325600Y47244000D01*
X14757400Y53721000D02*
X14732000Y53695600D01*
D72*
X12210796Y54940200D02*
X12083796Y55067200D01*
X12210796Y54305200D02*
X12210796Y54940200D01*
D71*
X14274800Y48031400D02*
X14274800Y47320200D01*
X14274800Y47320200D02*
X14338300Y47256700D01*
X15468600Y52806600D02*
X15468600Y53721000D01*
X15468600Y53721000D02*
X14757400Y53721000D01*
X14757400Y53721000D02*
X14719300Y53682900D01*
X15468600Y53746400D02*
X15468600Y54051200D01*
X15468600Y54051200D02*
X15519400Y54102000D01*
X15519400Y54102000D02*
X15519400Y54635400D01*
X15519400Y54660800D02*
X15519400Y55321200D01*
X15519400Y55321200D02*
X15367000Y55473600D01*
X6731000Y49530000D02*
X3429000Y49530000D01*
X6451600Y49530000D02*
X7315200Y49530000D01*
X7315200Y49530000D02*
X7340600Y49504600D01*
X7340600Y49504600D02*
X7899400Y49504600D01*
X8864600Y49504600D02*
X10693400Y49504600D01*
D69*
X15303500Y50825400D02*
X15303500Y51835300D01*
X15303500Y51835300D02*
X15468600Y52000400D01*
D71*
X16789400Y50850800D02*
X15798800Y50850800D01*
X15798800Y50850800D02*
X15773400Y50825400D01*
X15773400Y50825400D02*
X15303500Y50825400D01*
X19380200Y49936400D02*
X19989800Y49936400D01*
X17754600Y50850800D02*
X18338800Y50850800D01*
X18415000Y50774600D02*
X18338800Y50850800D01*
X18719800Y51155600D02*
X18415000Y50850800D01*
X18415000Y49936400D02*
X18415000Y50774600D01*
X19989800Y49936400D02*
X20320000Y49606200D01*
D69*
X21177000Y49606200D02*
X22729698Y49606200D01*
X22729698Y49606200D02*
X22805898Y49530000D01*
X25646100Y51870100D02*
X25646100Y52544700D01*
X25646100Y52544700D02*
X25933400Y52832000D01*
X25933400Y52832000D02*
X25933400Y53358800D01*
X25933400Y53358800D02*
X25990800Y53416200D01*
X26146300Y51870100D02*
X26146300Y52359100D01*
X26146300Y52359100D02*
X26441400Y52654200D01*
X26441400Y52654200D02*
X26619200Y52654200D01*
X26619200Y52654200D02*
X26797000Y52832000D01*
X26797000Y52832000D02*
X26797000Y53409600D01*
X26797000Y53409600D02*
X26790400Y53416200D01*
X27485800Y50530300D02*
X28305300Y50530300D01*
X28305300Y50530300D02*
X29337000Y51562000D01*
X29337000Y51562000D02*
X29953200Y51562000D01*
X29953200Y51562000D02*
X30029400Y51638200D01*
X30829000Y51638200D02*
X31623000Y51638200D01*
X31623000Y51638200D02*
X31953200Y51308000D01*
X31953200Y51308000D02*
X33046400Y51308000D01*
X33046400Y51308000D02*
X33074100Y51280300D01*
X27485800Y50030100D02*
X28465500Y50030100D01*
X28465500Y50030100D02*
X29210000Y50774600D01*
X29210000Y50774600D02*
X30004000Y50774600D01*
X30004000Y50774600D02*
X30080200Y50698400D01*
X30879800Y50698400D02*
X31673800Y50698400D01*
X31673800Y50698400D02*
X31750000Y50774600D01*
X31750000Y50774600D02*
X33068500Y50774600D01*
X33068500Y50774600D02*
X33074100Y50780200D01*
X27485800Y49530000D02*
X28524200Y49530000D01*
X28524200Y49530000D02*
X29184600Y48869600D01*
X29184600Y48869600D02*
X30004000Y48869600D01*
X30004000Y48869600D02*
X30054800Y48818800D01*
X30854400Y48818800D02*
X31242000Y48818800D01*
X31242000Y48818800D02*
X31775400Y48285400D01*
X31775400Y48285400D02*
X33068260Y48285400D01*
X33068260Y48285400D02*
X33074100Y48279600D01*
X27485800Y49029900D02*
X28516300Y49029900D01*
X28516300Y49029900D02*
X29362400Y48183800D01*
X29362400Y48183800D02*
X29724600Y48183800D01*
X29724600Y48183800D02*
X30054800Y47853600D01*
X31752000Y47779400D02*
X31750000Y47777400D01*
X33074100Y47779400D02*
X31752000Y47779400D01*
X30854400Y47853600D02*
X31673800Y47853600D01*
X31673800Y47853600D02*
X31750000Y47777400D01*
X24162000Y44037000D02*
X24162000Y43681400D01*
X25646100Y47190200D02*
X25646100Y46489900D01*
X25646100Y46489900D02*
X25882600Y46253400D01*
X25882600Y46253400D02*
X25882600Y45567600D01*
X25882600Y45567600D02*
X25806400Y45491400D01*
X25806400Y45491400D02*
X25755600Y45491400D01*
X25755600Y45491400D02*
X25349200Y45085000D01*
X25349200Y45085000D02*
X25037796Y45085000D01*
X24162000Y44043600D02*
X24162000Y43757600D01*
X24162000Y43789600D02*
X24162000Y43757600D01*
X25222200Y45008800D02*
X25222200Y44653200D01*
X25222200Y44653200D02*
X24993600Y44424600D01*
X24961596Y44043600D02*
X25114000Y44043600D01*
X25114000Y44043600D02*
X25704800Y43452800D01*
D71*
X23958804Y42900600D02*
X23901400Y42900600D01*
X23901400Y42900600D02*
X23647400Y42646600D01*
X23647400Y42646600D02*
X23037800Y42646600D01*
D69*
X24993600Y44424600D02*
X24993600Y44043600D01*
X24145748Y47190200D02*
X24145748Y46675500D01*
X24145748Y46675500D02*
X23876000Y46405800D01*
X23876000Y46405800D02*
X23876000Y45294800D01*
X23876000Y45294800D02*
X24162000Y45008800D01*
X24162000Y45008800D02*
X23806404Y45008800D01*
X23806404Y45008800D02*
X23088600Y44291000D01*
X22805898Y49029900D02*
X21699474Y49029900D01*
X21699474Y49029900D02*
X21615400Y48945800D01*
X21615400Y48945800D02*
X19888200Y48945800D01*
X19888200Y48945800D02*
X18872200Y47929800D01*
X18872200Y47929800D02*
X18872200Y46577000D01*
X18872200Y46577000D02*
X18897600Y46551600D01*
X18897600Y46551600D02*
X17830800Y46551600D01*
X23645622Y47190200D02*
X23593552Y47190200D01*
X23593552Y47190200D02*
X23190200Y46786800D01*
D71*
X22358604Y45796200D02*
X22358604Y45053000D01*
X22358604Y45053000D02*
X22377400Y45034200D01*
D69*
X22199600Y50546000D02*
X22790150Y50546000D01*
X22790150Y50546000D02*
X22805898Y50530300D01*
X21463000Y52247800D02*
X21945600Y52247800D01*
X21945600Y52247800D02*
X22733000Y51460400D01*
X22733000Y51460400D02*
X22733000Y51103300D01*
X22733000Y51103300D02*
X22805898Y51030400D01*
X22805898Y48529700D02*
X21758148Y48529700D01*
X21758148Y48529700D02*
X21463000Y48234600D01*
X22805898Y48029600D02*
X22020000Y48029600D01*
X22020000Y48029600D02*
X21463000Y47472600D01*
X26146300Y47190200D02*
X26146300Y46675500D01*
X26146300Y46675500D02*
X26339800Y46482000D01*
X26339800Y46482000D02*
X26339800Y46024800D01*
X26339800Y46024800D02*
X26466800Y45897800D01*
X27485800Y48529700D02*
X28127500Y48529700D01*
X28127500Y48529700D02*
X28752800Y47904400D01*
X25146000Y51870100D02*
X25146000Y53111400D01*
X25146000Y53111400D02*
X25247600Y53213000D01*
D71*
X25279604Y53245000D02*
X25247600Y53213000D01*
X20497800Y48336200D02*
X21361400Y48336200D01*
X21361400Y48336200D02*
X21463000Y48234600D01*
X21463000Y47472600D02*
X21463000Y46761400D01*
X21463000Y46761400D02*
X21437600Y46736000D01*
X21463000Y53060600D02*
X21463000Y52273200D01*
X21463000Y52273200D02*
X21437600Y52247800D01*
X28790900Y47866300D02*
X28790900Y47739300D01*
X28790900Y47739300D02*
X29260800Y47269400D01*
X29260800Y47269400D02*
X29260800Y46964600D01*
X25196800Y54381400D02*
X25196800Y53340000D01*
X25196800Y53340000D02*
X25285700Y53251100D01*
X26466800Y45364400D02*
X26466800Y46024800D01*
X11658600Y49504600D02*
X13398500Y49504600D01*
D69*
X32588200Y49707800D02*
X33002000Y49707800D01*
X33002000Y49707800D02*
X33074100Y49779900D01*
D71*
X30283400Y49758600D02*
X29508200Y49758600D01*
D69*
X32308800Y51816000D02*
X33038500Y51816000D01*
X33038500Y51816000D02*
X33074100Y51780440D01*
D71*
X30734000Y52552600D02*
X30734000Y53238400D01*
X30734000Y53238400D02*
X30708600Y53263800D01*
D69*
X31851600Y47320200D02*
X33033200Y47320200D01*
X33033200Y47320200D02*
X33074100Y47279300D01*
D71*
X30562800Y46196000D02*
X30581600Y46177200D01*
X30480000Y46939200D02*
X30480000Y46278800D01*
X30480000Y46278800D02*
X30607000Y46151800D01*
D69*
X24417782Y16452600D02*
X24348186Y16383000D01*
X25755600Y16452600D02*
X24417782Y16452600D01*
D71*
X27609800Y43561000D02*
X27609800Y43027600D01*
X27609800Y43027600D02*
X27355800Y42773600D01*
D69*
X21818600Y17068800D02*
X21793200Y17094200D01*
X21818600Y16351000D02*
X21818600Y17068800D01*
X21850604Y16383000D02*
X21818600Y16351000D01*
X23048214Y16383000D02*
X21850604Y16383000D01*
X26646400Y47190200D02*
X27028600Y47190200D01*
X27028600Y47190200D02*
X28295600Y45923200D01*
X28295600Y45923200D02*
X28295600Y45383200D01*
X28295600Y45383200D02*
X28371800Y45307000D01*
D71*
X19903186Y33528000D02*
X21158200Y33528000D01*
X21158200Y33528000D02*
X21183600Y33502600D01*
X21183600Y33502600D02*
X22631400Y33502600D01*
X22631400Y33502600D02*
X24739600Y35610800D01*
X24739600Y35610800D02*
X26847800Y35610800D01*
X26873200Y35610800D02*
X27838400Y35610800D01*
D69*
X28746200Y35585400D02*
X28720800Y35610800D01*
X31064200Y35585400D02*
X28746200Y35585400D01*
X31371300Y35278300D02*
X31064200Y35585400D01*
X33074100Y35278300D02*
X31371300Y35278300D01*
X28746200Y34620200D02*
X28720800Y34645600D01*
X31267400Y34620200D02*
X28746200Y34620200D01*
X31425400Y34778200D02*
X31267400Y34620200D01*
X33074100Y34778200D02*
X31425400Y34778200D01*
D71*
X20269200Y28257500D02*
X21145500Y28257500D01*
X21145500Y28257500D02*
X25654000Y32766000D01*
X25654000Y32766000D02*
X27838400Y32766000D01*
X16027400Y18211800D02*
X16027400Y20762200D01*
X15322804Y17507200D02*
X16027400Y18211800D01*
D69*
X28746200Y32740600D02*
X28720800Y32766000D01*
X31191200Y32740600D02*
X28746200Y32740600D01*
X31654200Y32277600D02*
X31191200Y32740600D01*
X33074100Y32277600D02*
X31654200Y32277600D01*
X28714200Y31851600D02*
X28688800Y31826200D01*
X30480000Y31851600D02*
X28714200Y31851600D01*
X30554200Y31777400D02*
X30480000Y31851600D01*
X33074100Y31777400D02*
X30554200Y31777400D01*
D72*
X55753000Y83566000D02*
X55753000Y82931000D01*
X57277000Y83566000D02*
X57277000Y82804000D01*
X56769000Y83566000D02*
X56769000Y82804000D01*
X56261000Y83566000D02*
X56261000Y82677000D01*
D71*
X68554600Y18846800D02*
X68529200Y18821400D01*
X68554600Y19862800D02*
X68554600Y18846800D01*
D72*
X53035200Y88646000D02*
X53111400Y88722200D01*
X52171600Y88646000D02*
X53035200Y88646000D01*
X52984400Y89204800D02*
X53035200Y89255600D01*
X51943000Y89204800D02*
X52984400Y89204800D01*
X52832000Y89763600D02*
X52882800Y89814400D01*
X52019200Y89763600D02*
X52832000Y89763600D01*
X52095400Y90322400D02*
X52933600Y90322400D01*
X52908200Y90830400D02*
X52933600Y90855800D01*
X52171600Y90830400D02*
X52908200Y90830400D01*
D71*
X55321200Y57661800D02*
X54406800Y57661800D01*
X62230000Y66598800D02*
X62306200Y66675000D01*
X62230000Y65557400D02*
X62230000Y66598800D01*
X71704200Y57124600D02*
X71780400Y57048400D01*
X70739000Y57124600D02*
X71704200Y57124600D01*
X61798200Y49225200D02*
X61683900Y49110900D01*
X61798200Y50266600D02*
X61798200Y49225200D01*
X53671700Y53162200D02*
X53670200Y53160700D01*
X55270400Y53162200D02*
X53671700Y53162200D01*
D69*
X62230000Y66421000D02*
X62230000Y65557400D01*
X62306200Y66497200D02*
X62230000Y66421000D01*
X62306200Y67538600D02*
X62306200Y66497200D01*
X62241700Y67603100D02*
X62306200Y67538600D01*
X62241700Y68462100D02*
X62241700Y67603100D01*
X70739000Y57124600D02*
X70713600Y57150000D01*
X71653400Y57124600D02*
X70739000Y57124600D01*
X71729600Y57048400D02*
X71653400Y57124600D01*
X72491600Y57048400D02*
X71729600Y57048400D01*
X72605100Y57161900D02*
X72491600Y57048400D01*
X73541900Y57161900D02*
X72605100Y57161900D01*
X61823600Y50241200D02*
X61798200Y50266600D01*
X61823600Y49250600D02*
X61823600Y50241200D01*
X61671200Y49098200D02*
X61823600Y49250600D01*
X61671200Y48387000D02*
X61671200Y49098200D01*
X61741800Y48316400D02*
X61671200Y48387000D01*
X61741800Y47362100D02*
X61741800Y48316400D01*
X55268900Y53160700D02*
X55270400Y53162200D01*
X52441900Y53160700D02*
X55268900Y53160700D01*
X55266600Y57661800D02*
X55270400Y57658000D01*
X52441900Y57661800D02*
X55266600Y57661800D01*
X77978000Y15451300D02*
X77986100Y15443200D01*
X77978000Y16459200D02*
X77978000Y15451300D01*
X68529200Y33938200D02*
X68523400Y33932400D01*
X68529200Y36677600D02*
X68529200Y33938200D01*
X70561200Y38709600D02*
X68529200Y36677600D01*
X76123800Y38709600D02*
X70561200Y38709600D01*
X80441800Y43027600D02*
X76123800Y38709600D01*
X80441800Y52476400D02*
X80441800Y43027600D01*
X76756500Y56161700D02*
X80441800Y52476400D01*
D71*
X71551800Y19913600D02*
X70993000Y19913600D01*
X70993000Y19913600D02*
X70891400Y20015200D01*
D69*
X69477900Y15451300D02*
X69486000Y15443200D01*
X69477900Y16459200D02*
X69477900Y15451300D01*
X73685400Y25755600D02*
X73482200Y25958800D01*
X73685400Y22098000D02*
X73685400Y25755600D01*
X73558400Y21971000D02*
X73685400Y22098000D01*
X73558400Y19939000D02*
X73558400Y21971000D01*
X68021200Y36449000D02*
X68021200Y36830000D01*
X68148200Y36322000D02*
X68021200Y36449000D01*
X68148200Y34747200D02*
X68148200Y36322000D01*
X68021200Y34620200D02*
X68148200Y34747200D01*
X68021200Y33934400D02*
X68021200Y34620200D01*
X68021200Y33934400D02*
X68023200Y33932400D01*
X70383400Y39192200D02*
X68021200Y36830000D01*
X75971400Y39192200D02*
X70383400Y39192200D01*
X80010000Y43230800D02*
X75971400Y39192200D01*
X74194400Y18186400D02*
X73546200Y18834600D01*
X77139800Y18186400D02*
X74194400Y18186400D01*
X77978000Y17348200D02*
X77139800Y18186400D01*
X77978000Y16256000D02*
X77978000Y17348200D01*
X73546200Y19214600D02*
X73546200Y18833600D01*
X73507600Y20116800D02*
X73615800Y20008600D01*
X72923400Y26517600D02*
X73507600Y25933400D01*
X73546200Y19939000D02*
X73546200Y19170400D01*
X73590400Y19983200D02*
X73546200Y19939000D01*
X76708000Y28651200D02*
X78867000Y28651200D01*
X76149200Y28092400D02*
X76708000Y28651200D01*
X72136000Y35712400D02*
X72110600Y35687000D01*
X76479400Y35712400D02*
X72136000Y35712400D01*
X77241400Y34950400D02*
X76479400Y35712400D01*
X78587600Y34950400D02*
X77241400Y34950400D01*
X78613000Y34925000D02*
X78587600Y34950400D01*
X69824600Y24257000D02*
X69824600Y22072600D01*
X63042800Y25679400D02*
X57581800Y25679400D01*
X63347600Y25984200D02*
X63042800Y25679400D01*
X67233800Y25984200D02*
X63347600Y25984200D01*
X71524100Y35100500D02*
X72136000Y35712400D01*
X71524100Y33932400D02*
X71524100Y35100500D01*
X69519800Y24561800D02*
X69820500Y24261100D01*
X69523900Y27332400D02*
X69523900Y24557700D01*
X67233800Y25984200D02*
X67310000Y26060400D01*
X74676000Y28092400D02*
X76149200Y28092400D01*
X74386440Y28382000D02*
X74676000Y28092400D01*
X73073800Y28382000D02*
X74386440Y28382000D01*
X67523360Y26273760D02*
X67233800Y25984200D01*
X67523360Y27332400D02*
X67523360Y26273760D01*
X73073800Y30382500D02*
X79370900Y30382500D01*
X81610200Y33731200D02*
X81026000Y33731200D01*
X81026000Y33731200D02*
X80721200Y34036000D01*
X80721200Y34036000D02*
X78613000Y34036000D01*
X78613000Y34036000D02*
X78587600Y34061400D01*
X78613000Y34925000D02*
X78613000Y34086800D01*
X78613000Y34086800D02*
X78587600Y34061400D01*
X71868500Y77659738D02*
X71805800Y77597000D01*
X71868500Y78668626D02*
X71868500Y77659738D01*
X73368900Y77608684D02*
X73431400Y77546200D01*
X73368900Y78668626D02*
X73368900Y77608684D01*
X70106000Y82577432D02*
X68961000Y82575400D01*
X70868000Y82577432D02*
X70106000Y82577432D01*
D70*
X74368900Y84000086D02*
X74269600Y84099400D01*
X74368900Y82468720D02*
X74368900Y84000086D01*
X73868800Y84003388D02*
X73888600Y84023200D01*
X73868800Y82468720D02*
X73868800Y84003388D01*
X71368200Y82468720D02*
X71368200Y84119000D01*
X70868000Y83999800D02*
X70993000Y84124800D01*
X70868000Y82468720D02*
X70868000Y83999800D01*
X64135000Y85928200D02*
X64135000Y86614000D01*
X64744600Y85877400D02*
X64744600Y86588600D01*
X62865000Y87223600D02*
X63804800Y87223600D01*
X62890400Y87807800D02*
X63754000Y87807800D01*
X62915800Y88468200D02*
X63931800Y88468200D01*
X73533000Y86766400D02*
X73533000Y86004400D01*
X74041000Y85979000D02*
X74015600Y85953600D01*
X74041000Y86690200D02*
X74041000Y85979000D01*
X74625200Y85979000D02*
X74523600Y85877400D01*
X74625200Y86690200D02*
X74625200Y85979000D01*
X73456800Y86791800D02*
X72771000Y86791800D01*
X73456800Y87299800D02*
X72745600Y87299800D01*
X73431400Y87884000D02*
X72771000Y87884000D01*
X73406000Y88366600D02*
X72796400Y88366600D01*
X73329800Y89357200D02*
X73304400Y89382600D01*
X73329800Y88569800D02*
X73329800Y89357200D01*
X73812400Y88620600D02*
X73863200Y88569800D01*
X73812400Y89357200D02*
X73812400Y88620600D01*
X74320400Y88722200D02*
X74472800Y88569800D01*
X74320400Y89357200D02*
X74320400Y88722200D01*
X74930000Y89357200D02*
X74930000Y88519000D01*
X75463400Y88646000D02*
X75565000Y88544400D01*
X75463400Y89357200D02*
X75463400Y88646000D01*
D69*
X68431400Y80318610D02*
X67945000Y79832200D01*
X69871600Y80318610D02*
X68431400Y80318610D01*
X76399100Y80318864D02*
X76809600Y79908400D01*
X75018600Y80318864D02*
X76399100Y80318864D01*
X70343000Y75016614D02*
X70307200Y74980800D01*
X71196200Y75016614D02*
X70343000Y75016614D01*
X70218600Y80318610D02*
X69803000Y80318610D01*
X72440800Y78105000D02*
X72440800Y77216000D01*
X72368700Y78177136D02*
X72440800Y78105000D01*
X72368700Y78668626D02*
X72368700Y78177136D01*
X72368400Y83036410D02*
X72618600Y83286600D01*
X72368400Y82468720D02*
X72368400Y83036410D01*
X72868500Y83036664D02*
X72618600Y83286600D01*
X72868500Y82468720D02*
X72868500Y83036664D01*
X70993000Y77190600D02*
X70993000Y77673200D01*
X71196200Y76987400D02*
X70993000Y77190600D01*
X72212200Y76987400D02*
X71196200Y76987400D01*
X72440800Y77216000D02*
X72212200Y76987400D01*
X71368400Y78048612D02*
X70993000Y77673200D01*
X71368400Y78668626D02*
X71368400Y78048612D01*
D72*
X58420000Y82296000D02*
X57658000Y82296000D01*
D69*
X67966300Y80818736D02*
X67386200Y80238600D01*
X69727100Y80818736D02*
X67966300Y80818736D01*
D70*
X60680600Y82143600D02*
X60604400Y82219800D01*
X61391800Y82143600D02*
X60680600Y82143600D01*
X60553600Y81178400D02*
X60579000Y81153000D01*
X60553600Y82016600D02*
X60553600Y81178400D01*
X59994800Y81203800D02*
X60020200Y81178400D01*
X59994800Y81991200D02*
X59994800Y81203800D01*
X59410600Y81254600D02*
X59486800Y81178400D01*
X59410600Y81940400D02*
X59410600Y81254600D01*
X58877200Y81356200D02*
X58928000Y81305400D01*
X58877200Y81991200D02*
X58877200Y81356200D01*
X58420000Y81356200D02*
X58470800Y81305400D01*
X58420000Y82016600D02*
X58420000Y81356200D01*
D69*
X70218600Y80818736D02*
X69668100Y80818736D01*
D72*
X56616600Y87452200D02*
X56565800Y87401400D01*
X56616600Y88544400D02*
X56616600Y87452200D01*
X56159400Y88569800D02*
X56159400Y87426800D01*
X55702200Y88544400D02*
X55702200Y87350600D01*
D69*
X67328800Y75742800D02*
X67284600Y75698604D01*
X68630800Y75742800D02*
X67328800Y75742800D01*
X68961000Y76073000D02*
X68630800Y75742800D01*
X68961000Y77927200D02*
X68961000Y76073000D01*
X70218600Y79184754D02*
X68961000Y77927200D01*
X67868800Y75742800D02*
X67328800Y75742800D01*
D70*
X60553600Y82626200D02*
X60502800Y82677000D01*
X61468000Y82626200D02*
X60553600Y82626200D01*
D72*
X58293000Y82804000D02*
X57531000Y82804000D01*
X68783200Y81305400D02*
X66725800Y81305400D01*
X66776600Y81559400D02*
X66725800Y81610200D01*
X68656200Y81559400D02*
X66776600Y81559400D01*
X68910200Y81813400D02*
X66751200Y81813400D01*
D69*
X66649600Y84124800D02*
X66649600Y82016600D01*
X67157600Y84632800D02*
X66649600Y84124800D01*
D70*
X70218600Y81318862D02*
X68260000Y81318862D01*
X70218600Y81819000D02*
X68760100Y81819000D01*
D69*
X67360800Y77724000D02*
X67386200Y77749400D01*
X63322200Y77724000D02*
X67360800Y77724000D01*
X62741300Y78304898D02*
X63322200Y77724000D01*
X62741300Y80772000D02*
X62741300Y78304898D01*
D70*
X62230000Y80010000D02*
X62255400Y79984600D01*
X61595000Y80010000D02*
X62230000Y80010000D01*
X62382400Y80695800D02*
X62433200Y80645000D01*
X61518800Y80695800D02*
X62382400Y80695800D01*
X61417200Y81229200D02*
X62407800Y81229200D01*
X62331600Y81762600D02*
X62357000Y81788000D01*
X61518800Y81762600D02*
X62331600Y81762600D01*
X62331600Y82448400D02*
X62357000Y82423000D01*
X61544200Y82448400D02*
X62331600Y82448400D01*
D69*
X71868300Y83831684D02*
X72059800Y84023200D01*
X71868300Y82468720D02*
X71868300Y83831684D01*
X73368700Y83831938D02*
X73177400Y84023200D01*
X73368700Y82468720D02*
X73368700Y83831938D01*
D70*
X75018600Y81819242D02*
X76439300Y81819242D01*
D72*
X83235800Y79908400D02*
X83159600Y79832200D01*
X83820000Y79908400D02*
X83235800Y79908400D01*
X83159600Y80594200D02*
X83134200Y80568800D01*
X83896200Y80594200D02*
X83159600Y80594200D01*
X83870800Y81254600D02*
X83185000Y81254600D01*
X83185000Y81864200D02*
X83159600Y81838800D01*
X83896200Y81864200D02*
X83185000Y81864200D01*
X83312000Y82448400D02*
X83261200Y82397600D01*
X83997800Y82448400D02*
X83312000Y82448400D01*
D69*
X82636100Y79324200D02*
X82636100Y76921106D01*
D70*
X75018600Y81319116D02*
X76939400Y81319116D01*
D69*
X82636100Y76921106D02*
X82016600Y76301600D01*
D72*
X86944200Y80340200D02*
X86969600Y80314800D01*
X86944200Y81026000D02*
X86944200Y80340200D01*
X86309200Y80467200D02*
X86334600Y80441800D01*
X86309200Y80949800D02*
X86309200Y80467200D01*
X85725000Y80340200D02*
X85699600Y80314800D01*
X85725000Y80949800D02*
X85725000Y80340200D01*
X85039200Y80416400D02*
X85064600Y80391000D01*
X85039200Y81026000D02*
X85039200Y80416400D01*
X84785200Y80391000D02*
X84836000Y80340200D01*
X84277200Y80391000D02*
X84785200Y80391000D01*
X86715600Y81457800D02*
X86639400Y81381600D01*
X86715600Y81940400D02*
X86715600Y81457800D01*
X86055200Y81407000D02*
X86080600Y81381600D01*
X86055200Y81940400D02*
X86055200Y81407000D01*
X85471000Y81305400D02*
X85420200Y81254600D01*
X85471000Y81991200D02*
X85471000Y81305400D01*
X84861400Y82016600D02*
X84861400Y81407000D01*
X84912200Y82524600D02*
X84937600Y82499200D01*
X84124800Y82524600D02*
X84912200Y82524600D01*
X84226400Y79756000D02*
X85013800Y79756000D01*
D69*
X78562200Y81308702D02*
X79124300Y80746600D01*
X78562200Y82880200D02*
X78562200Y81308702D01*
X77101700Y84340700D02*
X78562200Y82880200D01*
D72*
X78765400Y81661000D02*
X78790800Y81635600D01*
X77673200Y81661000D02*
X78765400Y81661000D01*
X78714600Y81864200D02*
X78841600Y81737200D01*
X76860400Y81864200D02*
X78714600Y81864200D01*
X78638400Y81483200D02*
X78689200Y81432400D01*
X76631800Y81483200D02*
X78638400Y81483200D01*
X78551800Y81319116D02*
X79124300Y80746600D01*
X76809600Y81319116D02*
X78551800Y81319116D01*
X78286100Y81584800D02*
X79124300Y80746600D01*
X76377800Y81584800D02*
X78286100Y81584800D01*
X78051660Y81819242D02*
X79124300Y80746600D01*
X76047600Y81819242D02*
X78051660Y81819242D01*
D70*
X75539600Y81584800D02*
X76673700Y81584800D01*
D69*
X75018600Y80819000D02*
X77169000Y80819000D01*
X77169000Y80819000D02*
X77419200Y80568800D01*
X77419200Y76650596D02*
X77292200Y76523596D01*
X77419200Y80568800D02*
X77419200Y76650596D01*
X17830800Y77705204D02*
X17830800Y76936600D01*
X68732400Y72466200D02*
X66344800Y72466200D01*
X68967600Y72231000D02*
X68732400Y72466200D01*
X69043800Y72231000D02*
X68967600Y72231000D01*
X69043800Y71057000D02*
X69030600Y71043800D01*
X69043800Y72237600D02*
X69043800Y71057000D01*
X38658800Y74168000D02*
X38938200Y74447400D01*
X38271200Y74168000D02*
X38658800Y74168000D01*
X36372800Y74091800D02*
X36449000Y74168000D01*
X36372800Y73558400D02*
X36372800Y74091800D01*
X35560000Y72745600D02*
X36372800Y73558400D01*
X36449000Y74200000D02*
X37407600Y74200000D01*
X36481000Y74168000D02*
X36449000Y74200000D01*
X37471600Y74168000D02*
X36481000Y74168000D01*
X27482800Y72491600D02*
X30556200Y72491600D01*
X30556200Y72491600D02*
X30810200Y72745600D01*
X30810200Y72745600D02*
X35560000Y72745600D01*
X35560000Y72745600D02*
X35585400Y72771000D01*
X43346100Y19927300D02*
X43561000Y20142200D01*
X41884600Y19927300D02*
X43346100Y19927300D01*
X45436800Y20225000D02*
X45516800Y20305000D01*
X44316400Y20225000D02*
X45436800Y20225000D01*
X44233600Y20142200D02*
X44272200Y20180800D01*
X43535600Y20142200D02*
X44233600Y20142200D01*
X41077600Y19927300D02*
X41921700Y19927300D01*
X71145400Y21227800D02*
X71189600Y21183600D01*
X71145400Y21615400D02*
X71145400Y21227800D01*
X70942200Y21818600D02*
X71145400Y21615400D01*
X70789800Y21818600D02*
X70942200Y21818600D01*
X70180200Y22428200D02*
X70789800Y21818600D01*
X70180200Y23164800D02*
X70180200Y22428200D01*
X70434200Y23418800D02*
X70180200Y23164800D01*
X70434200Y23672800D02*
X70434200Y23418800D01*
X69113400Y21107400D02*
X69215000Y21209000D01*
X67220600Y21107400D02*
X69113400Y21107400D01*
X70205600Y35560000D02*
X70154800Y35610800D01*
X70205600Y35077400D02*
X70205600Y35560000D01*
X70023700Y34895500D02*
X70205600Y35077400D01*
X70023700Y33932400D02*
X70023700Y34895500D01*
X66473800Y29382000D02*
X65817200Y29382000D01*
X66473800Y31882600D02*
X66034400Y31882600D01*
X66034400Y31882600D02*
X65582800Y32334200D01*
X65595500Y32321500D02*
X64782700Y32321500D01*
X64782700Y32321500D02*
X64439800Y31978600D01*
X69011800Y33944100D02*
X69023500Y33932400D01*
X69011800Y36550600D02*
X69011800Y33944100D01*
X70662800Y38201600D02*
X69011800Y36550600D01*
X76276200Y38201600D02*
X70662800Y38201600D01*
X80899000Y42824400D02*
X76276200Y38201600D01*
X80899000Y52730400D02*
X80899000Y42824400D01*
X76967600Y56661800D02*
X80899000Y52730400D01*
X69926200Y19710400D02*
X69900800Y19735800D01*
X69926200Y18592800D02*
X69926200Y19710400D01*
D71*
X64617600Y18440400D02*
X64135000Y17957800D01*
X65151000Y18440400D02*
X64617600Y18440400D01*
D69*
X69875400Y20116800D02*
X70332600Y20574000D01*
X69875400Y19862800D02*
X69875400Y20116800D01*
X69342000Y21183600D02*
X69326000Y21199600D01*
X70390000Y21183600D02*
X69342000Y21183600D01*
X72529700Y36893500D02*
X72618600Y36982400D01*
X70904100Y36893500D02*
X72529700Y36893500D01*
X69824600Y21698200D02*
X69335400Y21209000D01*
X69824600Y22250400D02*
X69824600Y21698200D01*
X71450200Y36347400D02*
X71247000Y36550600D01*
X71450200Y35534600D02*
X71450200Y36347400D01*
X71234300Y35318700D02*
X71450200Y35534600D01*
X71272400Y36525200D02*
X70891400Y36906200D01*
X71024000Y35108400D02*
X71272400Y35356800D01*
X71024000Y33932400D02*
X71024000Y35108400D01*
X71024000Y36773600D02*
X70891400Y36906200D01*
X68523600Y26116800D02*
X68529200Y26111200D01*
X68523600Y27332400D02*
X68523600Y26116800D01*
X76225400Y32004000D02*
X79349600Y32004000D01*
X75641200Y32588200D02*
X76225400Y32004000D01*
X74650600Y32588200D02*
X75641200Y32588200D01*
X74445400Y32383000D02*
X74650600Y32588200D01*
X73073800Y32383000D02*
X74445400Y32383000D01*
X62928500Y27571700D02*
X63550800Y27571700D01*
X62103000Y26746200D02*
X62928500Y27571700D01*
X58496200Y26746200D02*
X62103000Y26746200D01*
X57531000Y27711400D02*
X58496200Y26746200D01*
X53873400Y27711400D02*
X57531000Y27711400D01*
X53238400Y28346400D02*
X53873400Y27711400D01*
X65773300Y27571700D02*
X63487300Y27571700D01*
X66083180Y27881580D02*
X65760600Y27559000D01*
X66473800Y27881580D02*
X66083180Y27881580D01*
X66473800Y33383000D02*
X66473800Y36095400D01*
X36601400Y27762200D02*
X37370000Y27762200D01*
X36427400Y27588200D02*
X36601400Y27762200D01*
X36427400Y23577000D02*
X36427400Y27588200D01*
D71*
X39420800Y28778200D02*
X40132000Y28778200D01*
D69*
X25736800Y23825200D02*
X25679400Y23767800D01*
X26981400Y23825200D02*
X25736800Y23825200D01*
X28784800Y23825200D02*
X27781000Y23825200D01*
X26981400Y20574000D02*
X25749000Y20574000D01*
X25749000Y20574000D02*
X25711400Y20611600D01*
X28784800Y20574000D02*
X27781000Y20574000D01*
X26988000Y16433800D02*
X25774400Y16433800D01*
X25774400Y16433800D02*
X25755600Y16452600D01*
X28784800Y16433800D02*
X27787600Y16433800D01*
D71*
X15189200Y33502600D02*
X15214600Y33477200D01*
X14097000Y33502600D02*
X17297400Y33502600D01*
X17348200Y33502600D02*
X18577814Y33502600D01*
X18577814Y33502600D02*
X18603214Y33528000D01*
X20713700Y28257500D02*
X17208500Y28257500D01*
X16027400Y22062200D02*
X16027400Y27089100D01*
X16027400Y27089100D02*
X17195800Y28257500D01*
X12274804Y17526000D02*
X13341604Y17526000D01*
X13341604Y17526000D02*
X13360400Y17507200D01*
X13360400Y17507200D02*
X15322804Y17507200D01*
D69*
X97028000Y14097000D02*
X97028000Y19431000D01*
X96228400Y14097000D02*
X96228400Y15023600D01*
X96228400Y15023600D02*
X96139000Y15113000D01*
X99478600Y20357600D02*
X99568000Y20447000D01*
X98679000Y14097000D02*
X98679000Y14986000D01*
X98679000Y14986000D02*
X98552000Y15113000D01*
X99822000Y36576000D02*
X99822000Y30861000D01*
X99822000Y30861000D02*
X99568000Y30607000D01*
X99022400Y36576000D02*
X99022400Y35724600D01*
X99022400Y35724600D02*
X99060000Y35687000D01*
X97155000Y36576000D02*
X97155000Y31750000D01*
X97155000Y31750000D02*
X97028000Y31623000D01*
X96355400Y36576000D02*
X96355400Y35724600D01*
X96355400Y35724600D02*
X96393000Y35687000D01*
X57672700Y20147500D02*
X59354500Y20147500D01*
X55492400Y22733000D02*
X56286400Y22733000D01*
X56286400Y22733000D02*
X56337200Y22682200D01*
X52293300Y20797300D02*
X51262500Y20797300D01*
X51262500Y20797300D02*
X51028600Y21031200D01*
X59080400Y20147500D02*
X59862500Y20147500D01*
X59862500Y20147500D02*
X59918600Y20091400D01*
X62306200Y11163800D02*
X62331600Y11189200D01*
X62306200Y9474200D02*
X62306200Y11163800D01*
D71*
X2527300Y33528000D02*
X8458200Y33528000D01*
X2527300Y17526000D02*
X7188200Y17526000D01*
D69*
X77876400Y69037200D02*
X94869000Y69037200D01*
X75031600Y66192400D02*
X77876400Y69037200D01*
X73533000Y66192400D02*
X75031600Y66192400D01*
X71882000Y69621400D02*
X96469200Y69621400D01*
X71729600Y69469000D02*
X71882000Y69621400D01*
X71729600Y68580000D02*
X71729600Y69469000D01*
X94056200Y68580000D02*
X94081600Y68554600D01*
X78587600Y68580000D02*
X94056200Y68580000D01*
X75666600Y65659000D02*
X78587600Y68580000D01*
X73710800Y65659000D02*
X75666600Y65659000D01*
X71704200Y70104000D02*
X95580200Y70104000D01*
X71221600Y69621400D02*
X71704200Y70104000D01*
X71221600Y68783200D02*
X71221600Y69621400D01*
X99568000Y28575000D02*
X98425000Y27432000D01*
X98425000Y27432000D02*
X98425000Y27051000D01*
X98425000Y27051000D02*
X97790000Y26416000D01*
X97790000Y26416000D02*
X89535000Y26416000D01*
X89535000Y26416000D02*
X84582000Y31369000D01*
X84582000Y31369000D02*
X81688400Y31369000D01*
X81688400Y31369000D02*
X81674700Y31382700D01*
X66473800Y29882100D02*
X65317100Y29882100D01*
X99568000Y26543000D02*
X98933000Y25908000D01*
X98933000Y25908000D02*
X88646000Y25908000D01*
X88646000Y25908000D02*
X83693000Y30861000D01*
X83693000Y30861000D02*
X82593180Y30861000D01*
X82593180Y30861000D02*
X82571600Y30882600D01*
X66473800Y30382200D02*
X64613800Y30382200D01*
X99568000Y24511000D02*
X86106000Y24511000D01*
X86106000Y24511000D02*
X81026000Y29591000D01*
X81026000Y29591000D02*
X79883000Y29591000D01*
X65645500Y31382500D02*
X65354200Y31673800D01*
X66473800Y31382500D02*
X65645500Y31382500D01*
X99568000Y22479000D02*
X100076000Y22479000D01*
X100076000Y22479000D02*
X100711000Y23114000D01*
X100711000Y23114000D02*
X100711000Y25146000D01*
X100711000Y25146000D02*
X100330000Y25527000D01*
X100330000Y25527000D02*
X86106000Y25527000D01*
X86106000Y25527000D02*
X81280000Y30353000D01*
X81280000Y30353000D02*
X78769500Y30353000D01*
X78769500Y30353000D02*
X78740000Y30382500D01*
X64951900Y30882300D02*
X64770000Y31064200D01*
X66473800Y30882300D02*
X64951900Y30882300D01*
X97028000Y29591000D02*
X88773000Y29591000D01*
X88773000Y29591000D02*
X86360000Y32004000D01*
X86360000Y32004000D02*
X80518000Y32004000D01*
X65330800Y28881800D02*
X65328800Y28879800D01*
X66473800Y28881800D02*
X65330800Y28881800D01*
X97028000Y27559000D02*
X97282000Y27559000D01*
X97282000Y27559000D02*
X98044000Y28321000D01*
X98044000Y28321000D02*
X98044000Y30226000D01*
X98044000Y30226000D02*
X97663000Y30607000D01*
X97663000Y30607000D02*
X89027000Y30607000D01*
X89027000Y30607000D02*
X87122000Y32512000D01*
X87122000Y32512000D02*
X79629000Y32512000D01*
X79629000Y32512000D02*
X79603600Y32537400D01*
X66473800Y28381700D02*
X65897500Y28381700D01*
X65897500Y28381700D02*
X65709800Y28194000D01*
X66473800Y32382700D02*
X66093100Y32382700D01*
X66093100Y32382700D02*
X65532000Y32943800D01*
X76276200Y29210000D02*
X79883000Y29210000D01*
X79883000Y29210000D02*
X85598000Y23495000D01*
X85598000Y23495000D02*
X97028000Y23495000D01*
X75692000Y28625800D02*
X76276200Y29210000D01*
X74726800Y28625800D02*
X75692000Y28625800D01*
X74470500Y28882100D02*
X74726800Y28625800D01*
X78689200Y28651200D02*
X79552800Y28651200D01*
X79552800Y28651200D02*
X86741000Y21463000D01*
X86741000Y21463000D02*
X97028000Y21463000D01*
X65354200Y33782000D02*
X65455800Y33680400D01*
X64719200Y33782000D02*
X65354200Y33782000D01*
X65786000Y33350200D02*
X65405000Y33731200D01*
X65786000Y33274000D02*
X65786000Y33350200D01*
X66177160Y32882840D02*
X65786000Y33274000D01*
X66473800Y32882840D02*
X66177160Y32882840D01*
X66473800Y32882840D02*
X66253360Y32882840D01*
X86715600Y35356800D02*
X89077800Y35356800D01*
X89077800Y35356800D02*
X91821000Y38100000D01*
X91821000Y38100000D02*
X111379000Y38100000D01*
X111379000Y38100000D02*
X112522000Y36957000D01*
X112522000Y36957000D02*
X112522000Y33045400D01*
X89281000Y12700000D02*
X114427000Y12700000D01*
X114427000Y12700000D02*
X115062000Y13335000D01*
X115062000Y13335000D02*
X115062000Y18008600D01*
X84582000Y33699200D02*
X84550000Y33731200D01*
X84550000Y33731200D02*
X89204800Y33731200D01*
X89204800Y33731200D02*
X89281000Y33655000D01*
D73*
X100943200Y77343000D02*
X100943200Y76635400D01*
X100943200Y76635400D02*
X99695000Y75387200D01*
X99695000Y75387200D02*
X97993200Y75387200D01*
X97993200Y75387200D02*
X97891600Y75285600D01*
D69*
X74544200Y50160200D02*
X75107800Y50723800D01*
X73541900Y50160200D02*
X74544200Y50160200D01*
X75364800Y49660000D02*
X75488800Y49784000D01*
X73541900Y49660000D02*
X75364800Y49660000D01*
X88188800Y63093600D02*
X88214200Y63068200D01*
X80289400Y63093600D02*
X88188800Y63093600D01*
X79859100Y62663300D02*
X80289400Y63093600D01*
X73541900Y62663300D02*
X79859100Y62663300D01*
X88569800Y62179200D02*
X88646000Y62103000D01*
X88011000Y62179200D02*
X88569800Y62179200D01*
X87630000Y62560200D02*
X88011000Y62179200D01*
X80568800Y62560200D02*
X87630000Y62560200D01*
X80171800Y62163200D02*
X80568800Y62560200D01*
X73736200Y62163200D02*
X80171800Y62163200D01*
X73541900Y62163200D02*
X74888600Y62163200D01*
X71196200Y70764400D02*
X81457800Y70764400D01*
X70243700Y69811900D02*
X71196200Y70764400D01*
X70243700Y68462100D02*
X70243700Y69811900D01*
X71424800Y70434200D02*
X81584800Y70434200D01*
X70743800Y69753200D02*
X71424800Y70434200D01*
X70743800Y68462100D02*
X70743800Y69753200D01*
X92786200Y62153800D02*
X93980000Y60960000D01*
X92786200Y63855600D02*
X92786200Y62153800D01*
X91389200Y65252600D02*
X92786200Y63855600D01*
X86461600Y65252600D02*
X91389200Y65252600D01*
X83947000Y64058800D02*
X84023200Y63982600D01*
X80391000Y64058800D02*
X83947000Y64058800D01*
X79495600Y63163400D02*
X80391000Y64058800D01*
X74980800Y63163400D02*
X79495600Y63163400D01*
X88417400Y63982600D02*
X91440000Y60960000D01*
X6350000Y82296000D02*
X6350000Y83312000D01*
X75996800Y46964600D02*
X76022200Y46990000D01*
X75565000Y46964600D02*
X75996800Y46964600D01*
X75292200Y46691800D02*
X75565000Y46964600D01*
X75292200Y45999400D02*
X75292200Y46691800D01*
X73899000Y45074600D02*
X73899000Y44678600D01*
X73126600Y45847000D02*
X73899000Y45074600D01*
X71653400Y45847000D02*
X73126600Y45847000D01*
X71247000Y46253400D02*
X71653400Y45847000D01*
X75199000Y44678600D02*
X75869800Y44678600D01*
X71247000Y47359300D02*
X71247000Y46253400D01*
X71244200Y47362100D02*
X71247000Y47359300D01*
X116586000Y48708000D02*
X115383000Y48708000D01*
X115383000Y48708000D02*
X114300000Y47625000D01*
X116586000Y42866000D02*
X115528800Y42866000D01*
X115528800Y42866000D02*
X114318800Y41656000D01*
X116586000Y62678000D02*
X115674600Y62678000D01*
X115674600Y62678000D02*
X114337600Y61341000D01*
D72*
X96901000Y78191106D02*
X97917000Y78191106D01*
X96774000Y77683106D02*
X97917000Y77683106D01*
X96901000Y77175106D02*
X97790000Y77175106D01*
X96901000Y76921106D02*
X96901000Y75905106D01*
X96393000Y76921106D02*
X96393000Y75905106D01*
X95885000Y76921106D02*
X95885000Y76032106D01*
X95377000Y76921106D02*
X95377000Y75905106D01*
X95377000Y77175106D02*
X94488000Y77175106D01*
X95377000Y77683106D02*
X94488000Y77683106D01*
X95377000Y78191106D02*
X94488000Y78191106D01*
D73*
X107380000Y77470000D02*
X102870000Y77470000D01*
X102870000Y77470000D02*
X102743000Y77343000D01*
D69*
X15157196Y80035400D02*
X15157196Y81362296D01*
X15157196Y81362296D02*
X15303500Y81508600D01*
X15303500Y65506600D02*
X15303500Y64052700D01*
X15303500Y64052700D02*
X15131796Y63881000D01*
X15303500Y49504600D02*
X15303500Y48177700D01*
X15303500Y48177700D02*
X15157196Y48031400D01*
D71*
X8153400Y17526000D02*
X10210800Y17526000D01*
X10210800Y17526000D02*
X10236200Y17500600D01*
X10185400Y17526000D02*
X11309604Y17526000D01*
D69*
X70593200Y46006000D02*
X70593200Y45085000D01*
X70739000Y46151800D02*
X70593200Y46006000D01*
X70739000Y47357000D02*
X70739000Y46151800D01*
X70744080Y47362100D02*
X70739000Y47357000D01*
X85267800Y61163200D02*
X85293200Y61188600D01*
X85267800Y59283600D02*
X85267800Y61163200D01*
X72186800Y45085000D02*
X72237600Y45135800D01*
X71392800Y45085000D02*
X72186800Y45085000D01*
X71392800Y45085000D02*
X71374000Y45066200D01*
X84918800Y47701200D02*
X84226400Y47701200D01*
X68326000Y47444660D02*
X68326000Y48615600D01*
X68243500Y47362100D02*
X68326000Y47444660D01*
X85674200Y47745400D02*
X85718400Y47701200D01*
X85674200Y48717200D02*
X85674200Y47745400D01*
X83997800Y50393600D02*
X85674200Y48717200D01*
X83997800Y54356000D02*
X83997800Y50393600D01*
X65735200Y47354500D02*
X65735200Y45593000D01*
X65742820Y47362100D02*
X65735200Y47354500D01*
X65242700Y45323500D02*
X65242700Y44313100D01*
X65242700Y44313100D02*
X64490600Y43561000D01*
X64490600Y42291000D02*
X64084200Y41884600D01*
X64490600Y43561000D02*
X64490600Y42291000D01*
X65859000Y45090080D02*
X65859000Y44905800D01*
X65735200Y45669200D02*
X65735200Y45516800D01*
X65735200Y45516800D02*
X65862200Y45389800D01*
X65862200Y45389800D02*
X65862200Y45059600D01*
X65862200Y45059600D02*
X65859000Y45056400D01*
X70231000Y46685200D02*
X70231000Y46151800D01*
X68542400Y44043600D02*
X69184000Y44043600D01*
X70231000Y47349200D02*
X70231000Y46329600D01*
X70244000Y47362100D02*
X70231000Y47349200D01*
X75483500Y49159900D02*
X75990200Y48653200D01*
X73541900Y49159900D02*
X75483500Y49159900D01*
X73541900Y49159900D02*
X73552800Y49149000D01*
X49536600Y48869600D02*
X48920400Y48869600D01*
X54737000Y47365200D02*
X54737000Y48209200D01*
X54740000Y47362100D02*
X54737000Y47365200D01*
X48920400Y48869600D02*
X48920400Y48818800D01*
X48920400Y48818800D02*
X48768000Y48666400D01*
X54737000Y48209200D02*
X54533800Y48412400D01*
X54533800Y48412400D02*
X50723800Y48412400D01*
X82727800Y52730400D02*
X83464400Y51993800D01*
X82727800Y54356000D02*
X82727800Y52730400D01*
X50336200Y48800000D02*
X50336200Y48869600D01*
X50723800Y48412400D02*
X50336200Y48800000D01*
X49536600Y46253400D02*
X48844200Y46253400D01*
X55245000Y47357300D02*
X55245000Y46050200D01*
X55240200Y47362100D02*
X55245000Y47357300D01*
X54254400Y69970400D02*
X53841400Y70383400D01*
X54254400Y68630800D02*
X54254400Y69970400D01*
X49536600Y47574200D02*
X48844200Y47574200D01*
X54231000Y47371000D02*
X51079400Y47371000D01*
X54239900Y47362100D02*
X54231000Y47371000D01*
X67723000Y47341800D02*
X67723000Y45085000D01*
X67743300Y47362100D02*
X67723000Y47341800D01*
X86537800Y61112400D02*
X86461600Y61188600D01*
X86537800Y59283600D02*
X86537800Y61112400D01*
X68522600Y45085000D02*
X69113400Y45085000D01*
X78359000Y67513200D02*
X79874600Y67513200D01*
X76009800Y65164000D02*
X78359000Y67513200D01*
X73541900Y65164000D02*
X76009800Y65164000D01*
X113436400Y41656000D02*
X110591600Y41656000D01*
X110591600Y41656000D02*
X110388400Y41859200D01*
X77546200Y65913000D02*
X79874600Y65913000D01*
X76297000Y64663800D02*
X77546200Y65913000D01*
X73541900Y64663800D02*
X76297000Y64663800D01*
X108559600Y47650400D02*
X113475000Y47650400D01*
X113475000Y47650400D02*
X113500400Y47625000D01*
X81997800Y35356800D02*
X81806800Y35165800D01*
X85916000Y35356800D02*
X81997800Y35356800D01*
X69392800Y24053800D02*
X69392800Y22275800D01*
X69023700Y24422900D02*
X69392800Y24053800D01*
X69023700Y27332400D02*
X69023700Y24422900D01*
X81832200Y36138600D02*
X81788000Y36182800D01*
X81788000Y36182800D02*
X81788000Y35184600D01*
X81788000Y35184600D02*
X81806800Y35165800D01*
X80492600Y36677600D02*
X80949800Y36220400D01*
X80949800Y36220400D02*
X81750400Y36220400D01*
X81750400Y36220400D02*
X81788000Y36182800D01*
X83750400Y33731200D02*
X81457800Y33731200D01*
X68023500Y25275300D02*
X68021200Y25273000D01*
X68023500Y27332400D02*
X68023500Y25275300D01*
X78587600Y36061400D02*
X79026000Y36061400D01*
X79026000Y36061400D02*
X79324200Y35763200D01*
X75666600Y78435200D02*
X75666600Y76555600D01*
X75018600Y79083154D02*
X75666600Y78435200D01*
X75018600Y79318612D02*
X75018600Y79083154D01*
X77419200Y76479400D02*
X77333600Y76565000D01*
X77800200Y76479400D02*
X77419200Y76479400D01*
X77978000Y76301600D02*
X77800200Y76479400D01*
X78181200Y76301600D02*
X77978000Y76301600D01*
X77292200Y74720196D02*
X77248000Y74676000D01*
X77292200Y75724000D02*
X77292200Y74720196D01*
X82016600Y76301600D02*
X78028800Y76301600D01*
X67386200Y76599796D02*
X67284600Y76498196D01*
X67386200Y78130400D02*
X67386200Y76599796D01*
X67386200Y80238600D02*
X67386200Y78079600D01*
X70218600Y79318358D02*
X70218600Y79184754D01*
X64541400Y75641200D02*
X64516000Y75666600D01*
X65183000Y75641200D02*
X64541400Y75641200D01*
X72868800Y76375000D02*
X72999600Y76244196D01*
X72868800Y78668626D02*
X72868800Y76375000D01*
X68231000Y68586600D02*
X68224400Y68580000D01*
X68231000Y71043800D02*
X68231000Y68586600D01*
X37407600Y74200000D02*
X37439600Y74168000D01*
X56464200Y69723000D02*
X55956200Y70231000D01*
X56870600Y69723000D02*
X56464200Y69723000D01*
X57240400Y69353200D02*
X56870600Y69723000D01*
X57240400Y68462100D02*
X57240400Y69353200D01*
X49092100Y61162700D02*
X49003200Y61073800D01*
X52441900Y61162700D02*
X49092100Y61162700D01*
X77317600Y72999600D02*
X78010000Y72999600D01*
X73482200Y72999600D02*
X72491600Y72999600D01*
X24087074Y86436200D02*
X24645874Y85877400D01*
X24079200Y86436200D02*
X24087074Y86436200D01*
X24079200Y86436200D02*
X24079200Y87503000D01*
X24645874Y83874102D02*
X24645874Y85869526D01*
X71882000Y71932800D02*
X72212200Y71932800D01*
X69646800Y69697600D02*
X71882000Y71932800D01*
X69494400Y69697600D02*
X69646800Y69697600D01*
X69240400Y69443600D02*
X69494400Y69697600D01*
X77336400Y71907400D02*
X78054200Y71907400D01*
X73488800Y71932800D02*
X72161400Y71932800D01*
X23545800Y86350348D02*
X24145748Y85750400D01*
X23545800Y88163400D02*
X23545800Y86350348D01*
X24145748Y83874102D02*
X24145748Y85760052D01*
X45738800Y75901804D02*
X45720000Y75920600D01*
X47574200Y75901804D02*
X45738800Y75901804D01*
X47643800Y75971400D02*
X47574200Y75901804D01*
X48361600Y75971400D02*
X47643800Y75971400D01*
X48641000Y76250800D02*
X48361600Y75971400D01*
X49104800Y76250800D02*
X48641000Y76250800D01*
X25319000Y71793100D02*
X24645874Y71120000D01*
X25336500Y71793100D02*
X25319000Y71793100D01*
X34772600Y71704200D02*
X35890200Y71704200D01*
X34544000Y71932800D02*
X34772600Y71704200D01*
X31648400Y71932800D02*
X34544000Y71932800D01*
X31597600Y71882000D02*
X31648400Y71932800D01*
X25425400Y71882000D02*
X31597600Y71882000D01*
X25298400Y71755000D02*
X25425400Y71882000D01*
X24645874Y67872100D02*
X24645874Y71127900D01*
X45936400Y77864208D02*
X45796200Y77724000D01*
X47440600Y77864208D02*
X45936400Y77864208D01*
X47530000Y77774800D02*
X47440600Y77864208D01*
X49104800Y77774800D02*
X47530000Y77774800D01*
X24895000Y72021700D02*
X24145748Y71272400D01*
X24145748Y67872100D02*
X24145748Y71288100D01*
X47709600Y61662800D02*
X47091600Y62280800D01*
X44690800Y61632600D02*
X44577000Y61518800D01*
X45262800Y61632600D02*
X44690800Y61632600D01*
X44043600Y60375800D02*
X44170600Y60502800D01*
X39116000Y60375800D02*
X44043600Y60375800D01*
X35750500Y57010300D02*
X39116000Y60375800D01*
X44323000Y61264800D02*
X44704000Y61645800D01*
X44323000Y60655200D02*
X44323000Y61264800D01*
X44119800Y60452000D02*
X44323000Y60655200D01*
X24612600Y51903400D02*
X24645874Y51870100D01*
X24612600Y55702200D02*
X24612600Y51903400D01*
X35788600Y57048400D02*
X35052000Y56311800D01*
X35153600Y56413400D02*
X35052000Y56311800D01*
X35052000Y56311800D02*
X30480000Y56311800D01*
X30480000Y56311800D02*
X30149800Y55981600D01*
X30149800Y55981600D02*
X27965400Y55981600D01*
X27965400Y55981600D02*
X27686000Y55702200D01*
X27686000Y55702200D02*
X24612600Y55702200D01*
X46939200Y63576200D02*
X45865800Y63576200D01*
X48352500Y62162900D02*
X46939200Y63576200D01*
X24130000Y55956200D02*
X24130000Y55981600D01*
X24130000Y51885900D02*
X24145748Y51870100D01*
X24130000Y55981600D02*
X24130000Y51885900D01*
X35407600Y57327800D02*
X34772600Y56692800D01*
X34772600Y56692800D02*
X29667200Y56692800D01*
X29667200Y56692800D02*
X29311600Y56337200D01*
X29311600Y56337200D02*
X24485600Y56337200D01*
X24485600Y56337200D02*
X24130000Y55981600D01*
X85433400Y65024000D02*
X85662000Y65252600D01*
X79705200Y65024000D02*
X85433400Y65024000D01*
X78344800Y63663600D02*
X79705200Y65024000D01*
X75107800Y63663600D02*
X78344800Y63663600D01*
X73541900Y63663600D02*
X75249000Y63663600D01*
X84822800Y63982600D02*
X88417400Y63982600D01*
X73541900Y63163400D02*
X75114200Y63163400D01*
X66929000Y34696400D02*
X66929000Y35966400D01*
X67023000Y34602420D02*
X66929000Y34696400D01*
X67023000Y33932400D02*
X67023000Y34602420D01*
X66743100Y47362100D02*
X66743100Y43959300D01*
X66344800Y21183600D02*
X66421000Y21107400D01*
X66344800Y21793200D02*
X66344800Y21183600D01*
X65049400Y23088600D02*
X66344800Y21793200D01*
X66743100Y44221400D02*
X66743100Y43933900D01*
X66743100Y43933900D02*
X59791600Y36982400D01*
X60579000Y28219400D02*
X60629800Y28168600D01*
X54457600Y28219400D02*
X60579000Y28219400D01*
X53949600Y28727400D02*
X54457600Y28219400D01*
X53949600Y31165800D02*
X53949600Y28727400D01*
X60604400Y28194000D02*
X60629800Y28168600D01*
X63742300Y47362100D02*
X63742300Y45581300D01*
X60756800Y28321000D02*
X60629800Y28194000D01*
X61366400Y28321000D02*
X60756800Y28321000D01*
X53949600Y30962600D02*
X53949600Y33680400D01*
X53949600Y33680400D02*
X62407800Y42138600D01*
X62407800Y42138600D02*
X62407800Y44283900D01*
X62407800Y44283900D02*
X63742300Y45618400D01*
X65709800Y28194000D02*
X62293000Y28194000D01*
X79171800Y32537400D02*
X79197200Y32512000D01*
X76606400Y32537400D02*
X79171800Y32537400D01*
X76098400Y33045400D02*
X76606400Y32537400D01*
X74549000Y33045400D02*
X76098400Y33045400D01*
X74386700Y32883100D02*
X74549000Y33045400D01*
X73073800Y32883100D02*
X74386700Y32883100D01*
X75514200Y42951400D02*
X75336400Y42951400D01*
X77165200Y44602400D02*
X75514200Y42951400D01*
X77165200Y50165000D02*
X77165200Y44602400D01*
X57454800Y30200600D02*
X60648600Y30200600D01*
X56616600Y31038800D02*
X57454800Y30200600D01*
X56616600Y32613600D02*
X56616600Y31038800D01*
X66954400Y42951400D02*
X56616600Y32613600D01*
X75412600Y42951400D02*
X66954400Y42951400D01*
X75169500Y52160700D02*
X77165200Y50165000D01*
X73541900Y52160700D02*
X75169500Y52160700D01*
X60706000Y30175200D02*
X60680600Y30200600D01*
X61366400Y30175200D02*
X60706000Y30175200D01*
X62788800Y30124400D02*
X62216800Y30124400D01*
X63031100Y29882100D02*
X62788800Y30124400D01*
X65405000Y29882100D02*
X63031100Y29882100D01*
X73073800Y31382700D02*
X79388700Y31382700D01*
X79388700Y31382700D02*
X79400400Y31394400D01*
X58445400Y31191200D02*
X60680600Y31191200D01*
X57886600Y31750000D02*
X58445400Y31191200D01*
X57886600Y32207200D02*
X57886600Y31750000D01*
X68046600Y42367200D02*
X57886600Y32207200D01*
X75463400Y42367200D02*
X68046600Y42367200D01*
X77698600Y44602400D02*
X75463400Y42367200D01*
X77698600Y50469800D02*
X77698600Y44602400D01*
X75507600Y52660800D02*
X77698600Y50469800D01*
X73541900Y52660800D02*
X75507600Y52660800D01*
X60680600Y31089600D02*
X60655200Y31115000D01*
X61366400Y31089600D02*
X60680600Y31089600D01*
X62915800Y31013400D02*
X62242200Y31013400D01*
X63547000Y30382200D02*
X62915800Y31013400D01*
X64744600Y30382200D02*
X63547000Y30382200D01*
X73073800Y30882600D02*
X79447400Y30882600D01*
X60502800Y32207200D02*
X60579000Y32131000D01*
X59359800Y32207200D02*
X60502800Y32207200D01*
X59232800Y32334200D02*
X59359800Y32207200D01*
X59232800Y32689800D02*
X59232800Y32334200D01*
X68122800Y41579800D02*
X59232800Y32689800D01*
X75692000Y41579800D02*
X68122800Y41579800D01*
X78181200Y44069000D02*
X75692000Y41579800D01*
X60706000Y32004000D02*
X60629800Y32080200D01*
X61366400Y32004000D02*
X60706000Y32004000D01*
X78181200Y50850800D02*
X78181200Y44069000D01*
X75871100Y53160900D02*
X78181200Y50850800D01*
X73541900Y53160900D02*
X75871100Y53160900D01*
X64439800Y31978600D02*
X62191400Y31978600D01*
X75011800Y29382200D02*
X75133200Y29260800D01*
X73073800Y29382200D02*
X75011800Y29382200D01*
X68453000Y40995600D02*
X60680600Y33223200D01*
X75793600Y40995600D02*
X68453000Y40995600D01*
X78638400Y43840400D02*
X75793600Y40995600D01*
X60807600Y33070800D02*
X60731400Y33147000D01*
X61417200Y33070800D02*
X60807600Y33070800D01*
X78638400Y51231800D02*
X78638400Y43840400D01*
X76209100Y53661100D02*
X78638400Y51231800D01*
X73541900Y53661100D02*
X76209100Y53661100D01*
X65532000Y32943800D02*
X62343800Y32943800D01*
X73073800Y28882100D02*
X74470500Y28882100D01*
X60604400Y29210000D02*
X60629800Y29184600D01*
X56845200Y29210000D02*
X60604400Y29210000D01*
X56108600Y29946600D02*
X56845200Y29210000D01*
X56108600Y32664400D02*
X56108600Y29946600D01*
X66852800Y43408600D02*
X56108600Y32664400D01*
X75463400Y43408600D02*
X66852800Y43408600D01*
X76657200Y44602400D02*
X75463400Y43408600D01*
X76657200Y50038000D02*
X76657200Y44602400D01*
X75034600Y51660600D02*
X76657200Y50038000D01*
X73541900Y51660600D02*
X75034600Y51660600D01*
X61359800Y29260800D02*
X60629800Y29260800D01*
X64058800Y29540200D02*
X63271400Y29540200D01*
X64217000Y29382000D02*
X64058800Y29540200D01*
X65989200Y29382000D02*
X64217000Y29382000D01*
X75088200Y31882800D02*
X75158600Y31953200D01*
X73073800Y31882800D02*
X75088200Y31882800D01*
X63271400Y29540200D02*
X62941200Y29210000D01*
X62941200Y29210000D02*
X62394600Y29210000D01*
X64742600Y47362100D02*
X64742600Y44778200D01*
X64242400Y47362100D02*
X64242400Y45167000D01*
X72024240Y34508440D02*
X72593200Y35077400D01*
X72024240Y33932400D02*
X72024240Y34508440D01*
X70523900Y33932400D02*
X70523900Y34481300D01*
X8356600Y87105800D02*
X7553000Y87105800D01*
X7553000Y87105800D02*
X6604000Y86156800D01*
X6604000Y86156800D02*
X6604000Y84815172D01*
D71*
X9423400Y33528000D02*
X11995404Y33528000D01*
X11995404Y33528000D02*
X12039600Y33483800D01*
X13131800Y33502600D02*
X12058396Y33502600D01*
X12058396Y33502600D02*
X12039600Y33483800D01*
D69*
X46431200Y14122400D02*
X46431200Y13324600D01*
X46431200Y13324600D02*
X46340000Y13233400D01*
X74288400Y71932800D02*
X76587600Y71932800D01*
X69240400Y68656200D02*
X69240400Y69443600D01*
X69240400Y68707000D02*
X69240400Y69367400D01*
X72110600Y72999600D02*
X72593200Y72999600D01*
X68743300Y69632300D02*
X72110600Y72999600D01*
X68743300Y68462100D02*
X68743300Y69632300D01*
X74281800Y72999600D02*
X75514200Y72999600D01*
X49980600Y77698600D02*
X49904400Y77774800D01*
X51079400Y77698600D02*
X49980600Y77698600D01*
X59240900Y69537100D02*
X51079400Y77698600D01*
X59240900Y68462100D02*
X59240900Y69537100D01*
X49929800Y76225400D02*
X49904400Y76250800D01*
X51409600Y76225400D02*
X49929800Y76225400D01*
X57740500Y69894500D02*
X51409600Y76225400D01*
X57740500Y68462100D02*
X57740500Y69894500D01*
X45066200Y63379600D02*
X43713400Y62026800D01*
X45066200Y63576200D02*
X45066200Y63379600D01*
X52441900Y62162900D02*
X48352500Y62162900D01*
X40995600Y60756800D02*
X42265600Y62026800D01*
X38836600Y60756800D02*
X40995600Y60756800D01*
X35344100Y57264300D02*
X38836600Y60756800D01*
X43701200Y62026800D02*
X43783500Y62109100D01*
X42240200Y62026800D02*
X43701200Y62026800D01*
X43837400Y62162900D02*
X43688000Y62013600D01*
X52441900Y61662800D02*
X47709600Y61662800D01*
X45262800Y61715400D02*
X45262800Y61874400D01*
X45262800Y61874400D02*
X45618400Y62230000D01*
X45618400Y62230000D02*
X46158400Y62230000D01*
X46158400Y62230000D02*
X46209200Y62280800D01*
X57672700Y21981700D02*
X57200800Y22453600D01*
X57670700Y21983700D02*
X57836300Y21983700D01*
X57836300Y21983700D02*
X58372800Y21447300D01*
X58375800Y21444200D02*
X59886600Y21444200D01*
X59886600Y21444200D02*
X59893200Y21437600D01*
X63242200Y47362100D02*
X63242200Y46452800D01*
X61925200Y45110400D02*
X61925200Y43180000D01*
X61925200Y43180000D02*
X50444400Y31699200D01*
X63242200Y46452800D02*
X61925200Y45135800D01*
X50444400Y31699200D02*
X50444400Y21894800D01*
X50444400Y21894800D02*
X50139600Y21590000D01*
X50139600Y21590000D02*
X50139600Y21259800D01*
X50139600Y21259800D02*
X50088800Y21209000D01*
X41681400Y10998200D02*
X41681400Y7137400D01*
X42291000Y11607800D02*
X41681400Y10998200D01*
X42291000Y13639800D02*
X42291000Y11607800D01*
X41077600Y14853200D02*
X42291000Y13639800D01*
X41077600Y15426200D02*
X41077600Y14853200D01*
X75446100Y61663100D02*
X75565000Y61544200D01*
X80822800Y62179200D02*
X87325200Y62179200D01*
X80306700Y61663100D02*
X80822800Y62179200D01*
X73541900Y61663100D02*
X75446100Y61663100D01*
X76364600Y61544200D02*
X76936600Y61544200D01*
X76936600Y61544200D02*
X77190600Y61798200D01*
X77190600Y61798200D02*
X79654400Y61798200D01*
X79654400Y61798200D02*
X79781400Y61671200D01*
X79781400Y61671200D02*
X80314800Y61671200D01*
X80314800Y61671200D02*
X80340200Y61696600D01*
X37922200Y12344400D02*
X37922200Y14771100D01*
X37922200Y14771100D02*
X37928000Y14777000D01*
X78111600Y61214000D02*
X77546200Y61214000D01*
X77546200Y61214000D02*
X77266800Y60934600D01*
X77266800Y60934600D02*
X74930000Y60934600D01*
X74701700Y61162900D02*
X74930000Y60934600D01*
X74930000Y60934600D02*
X74841100Y61023500D01*
X95694500Y43751500D02*
X95681800Y43738800D01*
X95694500Y54495700D02*
X95694500Y43751500D01*
X95580200Y54610000D02*
X95681800Y54508400D01*
X90805000Y54610000D02*
X95580200Y54610000D01*
X88138000Y57277000D02*
X90805000Y54610000D01*
X88138000Y60579000D02*
X88138000Y57277000D01*
X86944200Y61772800D02*
X88138000Y60579000D01*
X81610200Y61772800D02*
X86944200Y61772800D01*
X81000300Y61162900D02*
X81610200Y61772800D01*
X73541900Y61162900D02*
X74701700Y61162900D01*
X81000300Y61162900D02*
X79045100Y61162900D01*
X79045100Y61162900D02*
X78994000Y61214000D01*
X42875200Y21132800D02*
X43332400Y20675600D01*
X42087800Y21132800D02*
X42875200Y21132800D01*
X41882600Y20927600D02*
X42087800Y21132800D01*
X41503600Y20927600D02*
X41882600Y20927600D01*
X41958800Y20927600D02*
X42011600Y20980400D01*
X41077600Y20927600D02*
X41958800Y20927600D01*
X73541900Y60162700D02*
X75288900Y60162700D01*
X78435200Y60299600D02*
X76466200Y60299600D01*
X76466200Y60299600D02*
X76440800Y60325000D01*
X44272200Y23012400D02*
X44627800Y22656800D01*
X43078400Y23012400D02*
X44272200Y23012400D01*
X42773600Y22707600D02*
X43078400Y23012400D01*
X42265600Y22707600D02*
X42773600Y22707600D01*
X42164000Y22606000D02*
X42265600Y22707600D01*
X42164000Y22402800D02*
X42164000Y22606000D01*
X41689000Y21927820D02*
X42164000Y22402800D01*
X41077600Y21927820D02*
X41689000Y21927820D01*
X76992000Y59662600D02*
X77171800Y59842400D01*
X87299800Y56794400D02*
X88341200Y55753000D01*
X81407000Y56794400D02*
X87299800Y56794400D01*
X78538800Y59662600D02*
X81407000Y56794400D01*
X73541900Y59662600D02*
X76992000Y59662600D01*
X78562200Y59639200D02*
X78174600Y59639200D01*
X88341200Y55753000D02*
X88341200Y41910000D01*
X41087500Y21437600D02*
X41077600Y21427700D01*
X41706800Y21437600D02*
X41087500Y21437600D01*
X41833800Y21564600D02*
X41706800Y21437600D01*
X42316400Y21564600D02*
X41833800Y21564600D01*
X76327000Y58826400D02*
X76848200Y58826400D01*
X76848200Y58826400D02*
X76873600Y58801000D01*
X75991000Y59162400D02*
X76327000Y58826400D01*
X87299800Y56159400D02*
X81127600Y56159400D01*
X81127600Y56159400D02*
X78460600Y58826400D01*
X87782400Y40792400D02*
X87807800Y40767000D01*
X87782400Y55676800D02*
X87782400Y40792400D01*
X87299800Y56159400D02*
X87782400Y55676800D01*
X73541900Y59162400D02*
X75991000Y59162400D01*
X78460600Y58826400D02*
X77698600Y58826400D01*
X77698600Y58826400D02*
X77673200Y58801000D01*
X40284400Y24130000D02*
X41148000Y24993600D01*
X40055800Y24130000D02*
X40284400Y24130000D01*
X39928300Y24002500D02*
X40055800Y24130000D01*
X41122600Y24968200D02*
X41859200Y25704800D01*
X39928300Y23577000D02*
X39928300Y24002500D01*
X39903400Y24434800D02*
X39420800Y23952200D01*
X40081200Y24434800D02*
X39903400Y24434800D01*
X40360600Y24714200D02*
X40081200Y24434800D01*
X40360600Y25171400D02*
X40894000Y25704800D01*
X40360600Y24714200D02*
X40360600Y25171400D01*
X39428200Y23577000D02*
X39428200Y23959600D01*
X32277600Y14777000D02*
X31292800Y13792200D01*
X32277600Y15425900D02*
X32277600Y14777000D01*
X31978900Y15926100D02*
X31089600Y15036800D01*
X32277600Y15926100D02*
X31978900Y15926100D01*
X34544000Y12522200D02*
X34671000Y12395200D01*
X34544000Y13157200D02*
X34544000Y12522200D01*
X33927000Y13774200D02*
X34544000Y13157200D01*
X33927000Y14777000D02*
X33927000Y13774200D01*
X35102800Y12166600D02*
X35534600Y11734800D01*
X35102800Y13284200D02*
X35102800Y12166600D01*
X34427160Y13959840D02*
X35102800Y13284200D01*
X34427160Y14777000D02*
X34427160Y13959840D01*
X35407600Y11861800D02*
X35534600Y11734800D01*
X36271200Y12598400D02*
X36423600Y12446000D01*
X36118800Y12598400D02*
X36271200Y12598400D01*
X35763200Y12954000D02*
X36118800Y12598400D01*
X35763200Y13766800D02*
X35763200Y12954000D01*
X35427400Y14102600D02*
X35763200Y13766800D01*
X35427400Y14777000D02*
X35427400Y14102600D01*
X36322000Y11531600D02*
X36474400Y11379200D01*
X36322000Y11836400D02*
X36322000Y11531600D01*
X35445700Y12712700D02*
X36322000Y11836400D01*
X35445700Y13449300D02*
X35445700Y12712700D01*
X35318700Y13576300D02*
X35445700Y13449300D01*
X34927300Y13967700D02*
X35407600Y13487400D01*
X34927300Y14777000D02*
X34927300Y13967700D01*
X43572900Y18426900D02*
X43637200Y18491200D01*
X41077600Y18426900D02*
X43572900Y18426900D01*
X43510200Y19126200D02*
X43637200Y19253200D01*
X43281600Y19126200D02*
X43510200Y19126200D01*
X42900600Y18745200D02*
X43281600Y19126200D01*
X42138600Y18745200D02*
X42900600Y18745200D01*
X41956700Y18927100D02*
X42138600Y18745200D01*
X41077600Y18927100D02*
X41956700Y18927100D01*
X40487600Y13258800D02*
X40589200Y13157200D01*
X40487600Y13487400D02*
X40487600Y13258800D01*
X39928500Y14046500D02*
X40487600Y13487400D01*
X39928500Y14777000D02*
X39928500Y14046500D01*
X40428700Y14333700D02*
X41554400Y13208000D01*
X40428700Y14777000D02*
X40428700Y14333700D01*
X27485800Y79981552D02*
X28295600Y79171800D01*
X27485800Y80033622D02*
X27485800Y79981552D01*
X27485800Y63827200D02*
X28346400Y62966600D01*
X27485800Y64031600D02*
X27485800Y63827200D01*
X27485800Y47825200D02*
X28295600Y47015400D01*
X27485800Y48029600D02*
X27485800Y47825200D01*
X32943800Y25222200D02*
X32791400Y25374600D01*
X32943800Y25069800D02*
X32943800Y25222200D01*
X33926780Y24086820D02*
X32943800Y25069800D01*
X33926780Y23577000D02*
X33926780Y24086820D01*
X31750000Y25730200D02*
X31775400Y25755600D01*
X31750000Y24892000D02*
X31750000Y25730200D01*
X32283400Y24358600D02*
X31750000Y24892000D01*
X33121600Y24358600D02*
X32283400Y24358600D01*
X33426700Y24053500D02*
X33121600Y24358600D01*
X33426700Y23577000D02*
X33426700Y24053500D01*
X69243700Y46028100D02*
X69088000Y45872400D01*
X69243700Y47362100D02*
X69243700Y46028100D01*
X68743600Y46366200D02*
X68249800Y45872400D01*
X68743600Y47362100D02*
X68743600Y46366200D01*
X66242900Y45898100D02*
X66243200Y45897800D01*
X66242900Y47362100D02*
X66242900Y45898100D01*
X69519800Y33936200D02*
X69523600Y33932400D01*
X69519800Y36347400D02*
X69519800Y33936200D01*
X70764400Y37592000D02*
X69519800Y36347400D01*
X76555600Y37592000D02*
X70764400Y37592000D01*
X81432400Y42468800D02*
X76555600Y37592000D01*
X81432400Y53035200D02*
X81432400Y42468800D01*
X75805300Y58662300D02*
X81432400Y53035200D01*
X70688200Y25527000D02*
X70764400Y25450800D01*
X70688200Y25806400D02*
X70688200Y25527000D01*
X70024000Y26470600D02*
X70688200Y25806400D01*
X76111900Y79818738D02*
X76809600Y79121000D01*
X75018600Y79818738D02*
X76111900Y79818738D01*
X75057000Y78257400D02*
X75057000Y76657200D01*
X74645800Y78668626D02*
X75057000Y78257400D01*
X74369200Y78668626D02*
X74645800Y78668626D01*
X69455300Y79818484D02*
X68605400Y78968600D01*
X70218600Y79818484D02*
X69455300Y79818484D01*
X70078600Y78232000D02*
X70078600Y76758800D01*
X70515200Y78668626D02*
X70078600Y78232000D01*
X70868300Y78668626D02*
X70515200Y78668626D01*
X30505900Y22427700D02*
X30149800Y22783800D01*
X32277600Y22427700D02*
X30505900Y22427700D01*
X32251600Y22453600D02*
X32277600Y22427700D01*
X29972000Y21920200D02*
X29870400Y21818600D01*
X31470600Y21920200D02*
X29972000Y21920200D01*
X32270200Y21920200D02*
X32277600Y21927600D01*
X31064200Y21920200D02*
X32270200Y21920200D01*
X31386780Y16426180D02*
X30759400Y15798800D01*
X31496000Y16426180D02*
X31386780Y16426180D01*
X32277600Y16426180D02*
X31488380Y16426180D01*
X46659800Y83261200D02*
X59740800Y70180200D01*
X39823900Y83284568D02*
X40337200Y83284568D01*
X40337200Y83284568D02*
X41783000Y81838800D01*
X41783000Y81838800D02*
X43383200Y81838800D01*
X43383200Y81838800D02*
X44805600Y83261200D01*
X46659800Y83261200D02*
X46672500Y83248500D01*
X44805600Y83261200D02*
X46659800Y83261200D01*
X59740800Y68462400D02*
X59741100Y68462100D01*
X59740800Y70180200D02*
X59740800Y68462400D01*
X60236100Y70662800D02*
X47142400Y83756500D01*
X60248800Y70662800D02*
X60236100Y70662800D01*
X43802300Y83756500D02*
X42951400Y82905600D01*
X42951400Y82905600D02*
X41960800Y82905600D01*
X41960800Y82905600D02*
X41275000Y83591400D01*
X41275000Y83591400D02*
X40589200Y83591400D01*
X40589200Y83591400D02*
X40436800Y83743800D01*
X40436800Y83743800D02*
X39864800Y83743800D01*
X39864800Y83743800D02*
X39823900Y83784694D01*
X47155100Y83756500D02*
X43802300Y83756500D01*
X60248800Y68469800D02*
X60241180Y68462100D01*
X60248800Y70662800D02*
X60248800Y68469800D01*
X34061400Y24460200D02*
X34061400Y25044400D01*
X34426900Y24094700D02*
X34061400Y24460200D01*
X34426900Y24018500D02*
X34426900Y24094700D01*
X34426900Y23577000D02*
X34426900Y24043900D01*
X34698700Y78159102D02*
X34698700Y77340714D01*
X34698700Y77340714D02*
X34823400Y77216000D01*
X34823400Y77216000D02*
X34823400Y76733400D01*
X34823400Y76733400D02*
X34747200Y76657200D01*
X34747200Y76657200D02*
X34747200Y76276200D01*
X34747200Y76276200D02*
X34671000Y76200000D01*
X34188400Y25704800D02*
X34036000Y25857200D01*
X34544000Y25704800D02*
X34188400Y25704800D01*
X34696400Y25552400D02*
X34544000Y25704800D01*
X34696400Y24511000D02*
X34696400Y25552400D01*
X34927000Y24280400D02*
X34696400Y24511000D01*
X34927000Y24026400D02*
X34927000Y24280400D01*
X34927000Y23577000D02*
X34927000Y24051800D01*
X35198800Y78159102D02*
X35198800Y76612000D01*
X35198800Y76612000D02*
X35610800Y76200000D01*
X46713900Y84959698D02*
X60756800Y70916800D01*
X46710600Y84959698D02*
X46713900Y84959698D01*
X60756800Y68477600D02*
X60741300Y68462100D01*
X60756800Y70916800D02*
X60756800Y68477600D01*
X39199600Y84959698D02*
X46713900Y84959698D01*
X62738000Y70002400D02*
X46990000Y85750400D01*
X38699440Y84908898D02*
X38699440Y85562440D01*
X38699440Y85562440D02*
X38887400Y85750400D01*
X62738000Y68466000D02*
X62741800Y68462100D01*
X62738000Y70002400D02*
X62738000Y68466000D01*
X38887400Y85750400D02*
X46990000Y85750400D01*
X47371000Y86385400D02*
X63271400Y70485000D01*
X38199300Y84908898D02*
X38199300Y85849714D01*
X38199300Y85849714D02*
X38735000Y86385400D01*
X63271400Y68491600D02*
X63241900Y68462100D01*
X63271400Y70485000D02*
X63271400Y68491600D01*
X38735000Y86385400D02*
X47371000Y86385400D01*
X47599600Y87096600D02*
X64236600Y70459600D01*
X37699200Y84908898D02*
X37699200Y86213188D01*
X37699200Y86213188D02*
X38582600Y87096600D01*
X64236600Y68467700D02*
X64242200Y68462100D01*
X64236600Y70459600D02*
X64236600Y68467700D01*
X38582600Y87096600D02*
X47599600Y87096600D01*
X64719200Y71043800D02*
X47980600Y87782400D01*
X37199100Y84908898D02*
X37199100Y86729062D01*
X37199100Y86729062D02*
X38252400Y87782400D01*
X64719200Y68485300D02*
X64742300Y68462100D01*
X64719200Y71043800D02*
X64719200Y68485300D01*
X38252400Y87782400D02*
X47980600Y87782400D01*
X48412400Y88392000D02*
X65709800Y71094600D01*
X36698900Y84908898D02*
X36698900Y87041736D01*
X36698900Y87041736D02*
X38049200Y88392000D01*
X65709800Y68494900D02*
X65742600Y68462100D01*
X65709800Y71094600D02*
X65709800Y68494900D01*
X38049200Y88392000D02*
X48412400Y88392000D01*
X66230500Y71589900D02*
X48641000Y89179400D01*
X35698700Y84908898D02*
X35698700Y87159084D01*
X35698700Y87159084D02*
X37719000Y89179400D01*
X66230500Y68474300D02*
X66242700Y68462100D01*
X66230500Y71589900D02*
X66230500Y68474300D01*
X37719000Y89179400D02*
X48641000Y89179400D01*
X35331400Y88011000D02*
X35458400Y88138000D01*
X35331400Y85598000D02*
X35331400Y88011000D01*
X35198600Y85465158D02*
X35331400Y85598000D01*
X35198600Y84908898D02*
X35198600Y85465158D01*
X66751200Y69697600D02*
X66802000Y69748400D01*
X66751200Y68503800D02*
X66751200Y69697600D01*
X34698400Y86082632D02*
X34721800Y86106000D01*
X34698400Y84908898D02*
X34698400Y86082632D01*
X67360800Y70078600D02*
X66827400Y70612000D01*
X67360800Y69418200D02*
X67360800Y70078600D01*
X67233800Y69291200D02*
X67360800Y69418200D01*
X67233800Y68503800D02*
X67233800Y69291200D01*
X34163000Y86715600D02*
X34391600Y86944200D01*
X34163000Y86487000D02*
X34163000Y86715600D01*
X34112200Y86436200D02*
X34163000Y86487000D01*
X34112200Y85826600D02*
X34112200Y86436200D01*
X34198300Y85740494D02*
X34112200Y85826600D01*
X34198300Y84908898D02*
X34198300Y85740494D01*
X67386200Y70815200D02*
X67386200Y71170800D01*
X67741800Y70459600D02*
X67386200Y70815200D01*
X67741800Y68605400D02*
X67741800Y70459600D01*
X67386200Y71399400D02*
X67005200Y71780400D01*
X67386200Y71120000D02*
X67386200Y71399400D01*
X43586400Y64617600D02*
X40921400Y67282600D01*
X46558200Y64617600D02*
X43586400Y64617600D01*
X48512700Y62663100D02*
X46558200Y64617600D01*
X52441900Y62663100D02*
X48512700Y62663100D01*
X39823900Y67282600D02*
X40921400Y67282600D01*
X52389800Y62611000D02*
X52441900Y62663100D01*
X39823900Y67782700D02*
X40472100Y67782700D01*
X40472100Y67782700D02*
X40563800Y67691000D01*
X40563800Y67691000D02*
X41173400Y67691000D01*
X41173400Y67691000D02*
X42392600Y66471800D01*
X42392600Y66471800D02*
X45491400Y66471800D01*
X45491400Y66471800D02*
X46736000Y65227200D01*
X52423060Y63144400D02*
X52441900Y63163200D01*
X48818800Y63144400D02*
X52423060Y63144400D01*
X46634400Y65328800D02*
X48818800Y63144400D01*
X52435300Y63169800D02*
X52441900Y63163200D01*
X52397660Y63119000D02*
X52441900Y63163200D01*
X38427900Y23577000D02*
X38427900Y24153100D01*
X38427900Y24153100D02*
X39065200Y24790400D01*
X39065200Y24790400D02*
X39065200Y25425400D01*
X39065200Y25425400D02*
X38735000Y25755600D01*
X38735000Y25755600D02*
X38531800Y25755600D01*
X38531800Y25755600D02*
X38404800Y25882600D01*
X34698700Y62157100D02*
X34698700Y61338700D01*
X34698700Y61338700D02*
X34823400Y61214000D01*
X34823400Y61214000D02*
X34823400Y60731400D01*
X34823400Y60731400D02*
X34747200Y60655200D01*
X34747200Y60655200D02*
X34747200Y60274200D01*
X37927800Y23577000D02*
X37927800Y24237200D01*
X37927800Y24237200D02*
X38404800Y24714200D01*
X38404800Y24714200D02*
X38404800Y25044400D01*
X35198800Y62157100D02*
X35198800Y60610000D01*
X35198800Y60610000D02*
X35610800Y60198000D01*
X39199600Y68957700D02*
X46078900Y68957700D01*
X48844200Y63677800D02*
X52427400Y63677800D01*
X47980600Y64541400D02*
X48844200Y63677800D01*
X47980600Y67056000D02*
X47980600Y64541400D01*
X46078900Y68957700D02*
X47980600Y67056000D01*
X52427400Y63677800D02*
X52441900Y63663300D01*
X38699440Y68906900D02*
X38699440Y69484240D01*
X38699440Y69484240D02*
X39446200Y70231000D01*
X49885600Y64185800D02*
X52419500Y64185800D01*
X49072800Y64998600D02*
X49885600Y64185800D01*
X49072800Y67792600D02*
X49072800Y64998600D01*
X46634400Y70231000D02*
X49072800Y67792600D01*
X39446200Y70231000D02*
X46634400Y70231000D01*
X52419500Y64185800D02*
X52441900Y64163400D01*
X38199300Y68906900D02*
X38199300Y69187300D01*
X38199300Y69062600D02*
X38199300Y69441300D01*
X38199300Y69441300D02*
X39674800Y70916800D01*
X39674800Y70916800D02*
X40132000Y70916800D01*
X50368200Y64668400D02*
X52437000Y64668400D01*
X49860200Y65176400D02*
X50368200Y64668400D01*
X49860200Y68808600D02*
X49860200Y65176400D01*
X47752000Y70916800D02*
X49860200Y68808600D01*
X39928800Y70916800D02*
X47752000Y70916800D01*
X37699200Y68906900D02*
X37699200Y69449200D01*
X37699200Y69449200D02*
X37973000Y69723000D01*
X37807900Y69557900D02*
X40157400Y71907400D01*
X51206400Y66167000D02*
X52438800Y66167000D01*
X50673000Y66700400D02*
X51206400Y66167000D01*
X50673000Y69799200D02*
X50673000Y66700400D01*
X48564800Y71907400D02*
X50673000Y69799200D01*
X40157400Y71907400D02*
X48564800Y71907400D01*
X52438800Y66167000D02*
X52441900Y66164000D01*
X50571400Y73101200D02*
X50393600Y73101200D01*
X51739800Y71932800D02*
X50571400Y73101200D01*
X51739800Y67360800D02*
X51739800Y71932800D01*
X52436500Y66664100D02*
X51739800Y67360800D01*
X52441900Y66664100D02*
X52436500Y66664100D01*
X37199100Y68906900D02*
X37199100Y69838100D01*
X37199100Y69838100D02*
X37973000Y70612000D01*
X37871400Y70510400D02*
X40462200Y73101200D01*
X52349400Y66756500D02*
X52441900Y66664100D01*
X40462200Y73101200D02*
X50495200Y73101200D01*
X52430900Y66675000D02*
X52441900Y66664100D01*
X36698900Y68906900D02*
X36698900Y70480900D01*
X36698900Y70480900D02*
X37846000Y71628000D01*
X37795200Y71577200D02*
X40640000Y74422000D01*
X50927000Y74422000D02*
X53809900Y71539100D01*
X40640000Y74422000D02*
X50927000Y74422000D01*
X54737000Y68464900D02*
X54739800Y68462100D01*
X54737000Y70612000D02*
X54737000Y68464900D01*
X53721000Y71628000D02*
X54737000Y70612000D01*
X51562000Y74803000D02*
X54063900Y72301100D01*
X51435000Y74930000D02*
X51587400Y74777600D01*
X40487600Y74930000D02*
X51435000Y74930000D01*
X36296600Y70739000D02*
X40487600Y74930000D01*
X36296600Y69850000D02*
X36296600Y70739000D01*
X36169600Y69723000D02*
X36296600Y69850000D01*
X35864800Y69723000D02*
X36169600Y69723000D01*
X35698700Y69556900D02*
X35864800Y69723000D01*
X35698700Y68906900D02*
X35698700Y69556900D01*
X55245000Y68467200D02*
X55239920Y68462100D01*
X55245000Y71120000D02*
X55245000Y68467200D01*
X53975000Y72390000D02*
X55245000Y71120000D01*
X53771800Y67640200D02*
X53771800Y68402200D01*
X53949600Y67462400D02*
X53771800Y67640200D01*
X55600600Y67462400D02*
X53949600Y67462400D01*
X55740000Y67601800D02*
X55600600Y67462400D01*
X55740000Y68462100D02*
X55740000Y67601800D01*
X35198600Y69768000D02*
X35712400Y70281800D01*
X35198600Y68906900D02*
X35198600Y69768000D01*
X53746400Y67132200D02*
X52527200Y68351400D01*
X55930800Y67132200D02*
X53746400Y67132200D01*
X56240200Y67441600D02*
X55930800Y67132200D01*
X56240200Y67538600D02*
X56240200Y67441600D01*
X56240200Y68462100D02*
X56240200Y67543200D01*
X34698400Y70563200D02*
X35001200Y70866000D01*
X34698400Y68906900D02*
X34698400Y70563200D01*
X56743600Y67437000D02*
X57175400Y67005200D01*
X56743600Y68453000D02*
X56743600Y67437000D01*
X34198300Y70652900D02*
X34112200Y70739000D01*
X34198300Y68906900D02*
X34198300Y70652900D01*
X46126400Y51257200D02*
X44805600Y49936400D01*
X44805600Y49936400D02*
X41757600Y49936400D01*
X41757600Y49936400D02*
X40386000Y51308000D01*
X40386000Y51308000D02*
X39851300Y51308000D01*
X39851300Y51308000D02*
X39823900Y51280600D01*
X49504600Y51257200D02*
X46126400Y51257200D01*
X50407800Y52160400D02*
X49504600Y51257200D01*
X52441900Y52160400D02*
X50407800Y52160400D01*
X39823900Y51780700D02*
X40700700Y51780700D01*
X40700700Y51780700D02*
X41021000Y51460400D01*
X41021000Y51460400D02*
X41605200Y51460400D01*
X41605200Y51460400D02*
X42341800Y50723800D01*
X42341800Y50723800D02*
X44094400Y50723800D01*
X44094400Y50723800D02*
X45999400Y52628800D01*
X52410100Y52628800D02*
X52441900Y52660500D01*
X45999400Y52628800D02*
X52410100Y52628800D01*
X34874200Y44399200D02*
X34671000Y44196000D01*
X34874200Y45389800D02*
X34874200Y44399200D01*
X34698700Y45565300D02*
X34874200Y45389800D01*
X34698700Y46155100D02*
X34698700Y45565300D01*
X36927500Y24710100D02*
X37211000Y24993600D01*
X36927500Y24337300D02*
X36927500Y24710100D01*
X36927500Y23577000D02*
X36927500Y24379900D01*
X34823400Y44348400D02*
X34671000Y44196000D01*
X37490400Y25577800D02*
X37211000Y25857200D01*
X37668200Y25577800D02*
X37490400Y25577800D01*
X37427700Y23577000D02*
X37427700Y24295900D01*
X37427700Y24295900D02*
X37846000Y24714200D01*
X37846000Y24714200D02*
X37846000Y25400000D01*
X37846000Y25400000D02*
X37668200Y25577800D01*
X35198800Y46155100D02*
X35198800Y44608000D01*
X35198800Y44608000D02*
X35610800Y44196000D01*
X45770800Y53365400D02*
X45212000Y53924200D01*
X45212000Y53924200D02*
X40168100Y53924200D01*
X40168100Y53924200D02*
X39199600Y52955700D01*
X50317400Y53365400D02*
X45770800Y53365400D01*
X50612800Y53660800D02*
X50317400Y53365400D01*
X52441900Y53660800D02*
X50612800Y53660800D01*
X38699440Y52904900D02*
X38699440Y53914000D01*
X38699440Y53914000D02*
X39446200Y54660800D01*
X52424600Y54178200D02*
X52441900Y54160900D01*
X47421800Y54178200D02*
X52424600Y54178200D01*
X46939200Y54660800D02*
X47421800Y54178200D01*
X39446200Y54660800D02*
X46939200Y54660800D01*
X39319200Y55549800D02*
X38201600Y54432200D01*
X38201600Y54432200D02*
X38201600Y52907200D01*
X38201600Y52907200D02*
X38199300Y52904900D01*
X47320200Y55549800D02*
X39319200Y55549800D01*
X47708820Y55161180D02*
X47320200Y55549800D01*
X52441900Y55161180D02*
X47708820Y55161180D01*
X37699200Y52904900D02*
X37699200Y54666400D01*
X37699200Y54666400D02*
X39370000Y56337200D01*
X52426400Y55676800D02*
X52441900Y55661300D01*
X49047400Y55676800D02*
X52426400Y55676800D01*
X48387000Y56337200D02*
X49047400Y55676800D01*
X39370000Y56337200D02*
X48387000Y56337200D01*
X39090600Y57200800D02*
X37211000Y55321200D01*
X37211000Y55321200D02*
X37211000Y52916800D01*
X37211000Y52916800D02*
X37199100Y52904900D01*
X48793400Y57200800D02*
X39090600Y57200800D01*
X49832800Y56161400D02*
X48793400Y57200800D01*
X52441900Y56161400D02*
X49832800Y56161400D01*
X36698900Y52904900D02*
X36698900Y55850500D01*
X36698900Y55850500D02*
X39243000Y58394600D01*
X52436000Y56667400D02*
X52441900Y56661600D01*
X50723800Y56667400D02*
X52436000Y56667400D01*
X48996600Y58394600D02*
X50723800Y56667400D01*
X39243000Y58394600D02*
X48996600Y58394600D01*
X50165000Y58826400D02*
X49555400Y58826400D01*
X50342800Y58648600D02*
X50165000Y58826400D01*
X52425600Y58648600D02*
X50342800Y58648600D01*
X39192200Y58826400D02*
X49403000Y58826400D01*
X36322000Y55956200D02*
X39192200Y58826400D01*
X36322000Y55778400D02*
X36322000Y55956200D01*
X36322000Y53822600D02*
X36322000Y55956200D01*
X36118800Y53619400D02*
X36322000Y53822600D01*
X35890200Y53619400D02*
X36118800Y53619400D01*
X35698700Y53427900D02*
X35890200Y53619400D01*
X35698700Y52904900D02*
X35698700Y53427900D01*
X35687000Y52916600D02*
X35698700Y52904900D01*
X35198600Y54045400D02*
X35331400Y54178200D01*
X35198600Y52904900D02*
X35198600Y54045400D01*
X41630600Y59258200D02*
X41554400Y59334400D01*
X50444400Y59258200D02*
X41630600Y59258200D01*
X50546000Y59156600D02*
X50444400Y59258200D01*
X52425600Y59156600D02*
X50546000Y59156600D01*
X50901600Y59664600D02*
X50647600Y59918600D01*
X52400200Y59664600D02*
X50901600Y59664600D01*
X39852600Y59156600D02*
X40487600Y59791600D01*
X39014400Y59156600D02*
X39852600Y59156600D01*
X37680900Y57823100D02*
X39014400Y59156600D01*
X37655500Y57823100D02*
X37680900Y57823100D01*
X35585400Y55753000D02*
X37719000Y57886600D01*
X35585400Y55549800D02*
X35585400Y55753000D01*
X34698400Y54662800D02*
X35585400Y55549800D01*
X34698400Y52904900D02*
X34698400Y54662800D01*
X50038000Y60604400D02*
X50012600Y60579000D01*
X51054000Y60604400D02*
X50038000Y60604400D01*
X51485800Y60172600D02*
X51054000Y60604400D01*
X52374800Y60172600D02*
X51485800Y60172600D01*
X35001200Y55727600D02*
X36652200Y57378600D01*
X35001200Y55626000D02*
X35001200Y55727600D01*
X34198300Y54823100D02*
X35001200Y55626000D01*
X34198300Y52904900D02*
X34198300Y54823100D01*
X39825900Y35280600D02*
X39823900Y35278600D01*
X40462200Y35280600D02*
X39825900Y35280600D01*
X40868600Y34874200D02*
X40462200Y35280600D01*
X41198800Y34874200D02*
X40868600Y34874200D01*
X47015400Y37769800D02*
X46570900Y37325300D01*
X53848000Y37769800D02*
X47015400Y37769800D01*
X59741300Y43663100D02*
X53848000Y37769800D01*
X59741300Y47362100D02*
X59741300Y43663100D01*
X45821600Y38887400D02*
X45262800Y38328600D01*
X43561000Y36626800D02*
X45821600Y38887400D01*
X43561000Y35407600D02*
X43561000Y36626800D01*
X42824400Y34671000D02*
X43561000Y35407600D01*
X42468800Y34671000D02*
X42824400Y34671000D01*
X41757600Y35382200D02*
X42468800Y34671000D01*
X40970200Y35382200D02*
X41757600Y35382200D01*
X40573700Y35778700D02*
X40970200Y35382200D01*
X39823900Y35778700D02*
X40573700Y35778700D01*
X54178200Y38887400D02*
X45821600Y38887400D01*
X59270600Y43979800D02*
X54178200Y38887400D01*
X59270600Y47332600D02*
X59270600Y43979800D01*
X59258200Y47345100D02*
X59241200Y47362100D01*
X35915600Y23588700D02*
X35927300Y23577000D01*
X35915600Y24663400D02*
X35915600Y23588700D01*
X35814000Y24765000D02*
X35915600Y24663400D01*
X35814000Y25654000D02*
X35814000Y24765000D01*
X35102800Y26695400D02*
X34950400Y26543000D01*
X35102800Y27787600D02*
X35102800Y26695400D01*
X34823400Y28067000D02*
X35102800Y27787600D01*
X34823400Y29159200D02*
X34823400Y28067000D01*
X34696400Y29286200D02*
X34823400Y29159200D01*
X34696400Y29362400D02*
X34696400Y29286200D01*
X34696400Y30150800D02*
X34698700Y30153100D01*
X34696400Y29337000D02*
X34696400Y30150800D01*
X35407600Y23596600D02*
X35483800Y23520400D01*
X35407600Y24384000D02*
X35407600Y23596600D01*
X35102800Y24688800D02*
X35407600Y24384000D01*
X35102800Y25831800D02*
X35102800Y24688800D01*
X35610800Y26339800D02*
X35102800Y25831800D01*
X35407600Y23596600D02*
X35427200Y23577000D01*
X35198800Y28428200D02*
X35610800Y28016200D01*
X35198800Y29616400D02*
X35198800Y28428200D01*
X35198800Y30153100D02*
X35198800Y29407600D01*
X35179000Y30133300D02*
X35198800Y30153100D01*
X35610800Y28016200D02*
X35610800Y26339800D01*
X39192200Y36961100D02*
X39199600Y36953700D01*
X39192200Y37642800D02*
X39192200Y36961100D01*
X39547800Y37998400D02*
X39192200Y37642800D01*
X43078400Y37998400D02*
X39547800Y37998400D01*
X45694600Y40614600D02*
X45135800Y40055800D01*
X55118000Y40614600D02*
X45694600Y40614600D01*
X58741100Y44237700D02*
X55118000Y40614600D01*
X58741100Y47362100D02*
X58741100Y44237700D01*
X45694600Y40614600D02*
X43078400Y37998400D01*
X38684200Y36918100D02*
X38699440Y36902900D01*
X38684200Y38328600D02*
X38684200Y36918100D01*
X39370000Y39014400D02*
X38684200Y38328600D01*
X42824400Y39014400D02*
X39370000Y39014400D01*
X45466000Y41656000D02*
X45389800Y41579800D01*
X55321200Y41656000D02*
X45466000Y41656000D01*
X58240900Y44575700D02*
X55321200Y41656000D01*
X58240900Y47362100D02*
X58240900Y44575700D01*
X45466000Y41656000D02*
X42824400Y39014400D01*
X38150800Y36951400D02*
X38199300Y36902900D01*
X38150800Y39319200D02*
X38150800Y36951400D01*
X38912800Y40081200D02*
X38150800Y39319200D01*
X42570400Y40081200D02*
X38912800Y40081200D01*
X45262800Y42773600D02*
X44780200Y42291000D01*
X55702200Y42773600D02*
X45262800Y42773600D01*
X57740800Y44812200D02*
X55702200Y42773600D01*
X57740800Y47362100D02*
X57740800Y44812200D01*
X45288200Y42799000D02*
X42570400Y40081200D01*
X37693600Y36908500D02*
X37699200Y36902900D01*
X37693600Y39979600D02*
X37693600Y36908500D01*
X44907200Y43738800D02*
X42189400Y41021000D01*
X42189400Y41021000D02*
X38735000Y41021000D01*
X38735000Y41021000D02*
X37693600Y39979600D01*
X55981600Y43738800D02*
X44907200Y43738800D01*
X57240700Y44997900D02*
X55981600Y43738800D01*
X57240700Y47362100D02*
X57240700Y44997900D01*
X37199100Y40577300D02*
X38608000Y41986200D01*
X38608000Y41986200D02*
X41986200Y41986200D01*
X41986200Y41986200D02*
X44500800Y44500800D01*
X56261000Y47341500D02*
X56240400Y47362100D01*
X56261000Y45415200D02*
X56261000Y47341500D01*
X55346600Y44500800D02*
X56261000Y45415200D01*
X44500800Y44500800D02*
X55346600Y44500800D01*
X37199100Y36902900D02*
X37199100Y40577300D01*
X36703000Y36907000D02*
X36698900Y36902900D01*
X44069000Y45186600D02*
X43078400Y44196000D01*
X43078400Y44196000D02*
X43078400Y44170600D01*
X43078400Y44170600D02*
X41681400Y42773600D01*
X41681400Y42773600D02*
X38379400Y42773600D01*
X38379400Y42773600D02*
X36703000Y41097200D01*
X36703000Y41097200D02*
X36703000Y36907000D01*
X55118000Y45186600D02*
X44069000Y45186600D01*
X55740300Y45808900D02*
X55118000Y45186600D01*
X55740300Y47362100D02*
X55740300Y45808900D01*
X35681920Y37409120D02*
X35864800Y37592000D01*
X36093400Y37592000D02*
X35864800Y37592000D01*
X36347400Y37846000D02*
X36093400Y37592000D01*
X35681920Y36885880D02*
X35681920Y37409120D01*
X41198800Y43129200D02*
X41884600Y43815000D01*
X38125400Y43129200D02*
X41198800Y43129200D01*
X36347400Y41351200D02*
X38125400Y43129200D01*
X36347400Y37846000D02*
X36347400Y41351200D01*
X52419200Y49682400D02*
X52441900Y49659800D01*
X51054000Y49682400D02*
X52419200Y49682400D01*
X35712400Y36916600D02*
X35698700Y36902900D01*
X49682400Y50165000D02*
X49250600Y50596800D01*
X52374800Y50165000D02*
X49682400Y50165000D01*
X35198600Y37637000D02*
X35788600Y38227000D01*
X35198600Y36902900D02*
X35198600Y37637000D01*
X50444400Y50673000D02*
X50139600Y50977800D01*
X52349400Y50673000D02*
X50444400Y50673000D01*
X35966400Y41579800D02*
X37973000Y43586400D01*
X35966400Y39903400D02*
X35966400Y41579800D01*
X34698400Y38635400D02*
X35966400Y39903400D01*
X34698400Y36902900D02*
X34698400Y38635400D01*
X51206400Y51155600D02*
X50800000Y51562000D01*
X52400200Y51155600D02*
X51206400Y51155600D01*
X35585400Y41783000D02*
X37846000Y44043600D01*
X35585400Y40208200D02*
X35585400Y41783000D01*
X34198300Y38821100D02*
X35585400Y40208200D01*
X34198300Y36902900D02*
X34198300Y38821100D01*
X66471800Y37922200D02*
X66471800Y37439600D01*
X68935600Y40386000D02*
X66471800Y37922200D01*
X75895200Y40386000D02*
X68935600Y40386000D01*
X79070200Y43561000D02*
X75895200Y40386000D01*
X73159400Y27881800D02*
X74142600Y26898600D01*
X73073800Y27881800D02*
X73159400Y27881800D01*
X79070200Y51511200D02*
X79070200Y43561000D01*
X76420200Y54161200D02*
X79070200Y51511200D01*
X73541900Y54161200D02*
X76420200Y54161200D01*
X74955400Y24765000D02*
X74955400Y24028400D01*
X66929000Y36398200D02*
X66929000Y35763200D01*
X70358000Y39827200D02*
X66929000Y36398200D01*
X75971400Y39827200D02*
X70358000Y39827200D01*
X79502000Y43357800D02*
X75971400Y39827200D01*
X74193400Y25527000D02*
X74955400Y24765000D01*
X74193400Y25882600D02*
X74193400Y25527000D01*
X72743600Y27332400D02*
X74193400Y25882600D01*
X72544400Y27332400D02*
X72743600Y27332400D01*
X72524620Y27332400D02*
X72667400Y27332400D01*
X79502000Y51765200D02*
X79502000Y43357800D01*
X76605900Y54661300D02*
X79502000Y51765200D01*
X73541900Y54661300D02*
X76605900Y54661300D01*
X80010000Y52070000D02*
X80010000Y43230800D01*
X76918600Y55161400D02*
X80010000Y52070000D01*
X73541900Y55161400D02*
X76918600Y55161400D01*
X71882000Y26517600D02*
X72923400Y26517600D01*
X71524400Y26875200D02*
X71882000Y26517600D01*
X71524400Y27332400D02*
X71524400Y26875200D01*
X73541900Y56161700D02*
X76756500Y56161700D01*
X71024200Y27332400D02*
X71024200Y26562600D01*
X73541900Y56661800D02*
X76967600Y56661800D01*
X70524100Y27332400D02*
X70524100Y26478500D01*
X73541900Y58662300D02*
X75805300Y58662300D01*
X70024000Y27332400D02*
X70024000Y26470600D01*
X53213000Y36361600D02*
X40428400Y23577000D01*
X53213000Y36372800D02*
X53213000Y36361600D01*
X60741560Y43901360D02*
X53213000Y36372800D01*
X60741560Y47362100D02*
X60741560Y43901360D01*
X40448000Y23596600D02*
X40428400Y23577000D01*
X41046400Y22959300D02*
X41077600Y22928100D01*
X41046400Y23672800D02*
X41046400Y22959300D01*
X61241700Y43868100D02*
X41046400Y23672800D01*
X61241700Y47362100D02*
X61241700Y43868100D01*
X65242700Y47362100D02*
X65242700Y44389300D01*
X73185000Y33383220D02*
X74193400Y34391600D01*
X73073800Y33383220D02*
X73185000Y33383220D01*
X57099200Y27025600D02*
X57124600Y27000200D01*
X53492400Y27025600D02*
X57099200Y27025600D01*
X52654200Y27863800D02*
X53492400Y27025600D01*
X58039000Y26085800D02*
X57099200Y27025600D01*
X62738000Y26085800D02*
X58039000Y26085800D01*
X63023700Y26371600D02*
X62738000Y26085800D01*
X67023200Y27332400D02*
X67023200Y26434000D01*
X67023200Y26416000D02*
X67023200Y26575800D01*
X63023700Y26371600D02*
X66978800Y26371600D01*
X66978800Y26371600D02*
X67023200Y26416000D01*
X67523100Y35087300D02*
X67564000Y35128200D01*
X67523100Y33932400D02*
X67523100Y35087300D01*
X53492400Y12039600D02*
X51599600Y12039600D01*
X51599600Y12039600D02*
X51587400Y12051800D01*
X51587400Y12051800D02*
X51587400Y12827000D01*
X51587400Y12827000D02*
X52095400Y13335000D01*
X52095400Y13335000D02*
X52095400Y15621000D01*
X52095400Y15621000D02*
X53086000Y16611600D01*
X53086000Y16611600D02*
X57708800Y16611600D01*
X57708800Y16611600D02*
X58343800Y17246600D01*
X58343800Y17246600D02*
X58343800Y19481800D01*
X58343800Y19481800D02*
X58242200Y19583400D01*
X57672700Y20797300D02*
X56255700Y20797300D01*
X56255700Y20797300D02*
X54965600Y19507200D01*
X54965600Y19507200D02*
X54965600Y18872200D01*
X54965600Y18872200D02*
X54127400Y18034000D01*
X54127400Y18034000D02*
X50647600Y18034000D01*
M02*
