G04 #@! TF.FileFunction,Copper,L3,Inr,Plane*
%FSLAX46Y46*%
G04 Gerber Fmt 4.6, Leading zero omitted, Abs format (unit mm)*
G04 Created by KiCad (PCBNEW 4.0.5) date Sat Apr  1 23:31:31 2017*
%MOMM*%
%LPD*%
G01*
G04 APERTURE LIST*
%ADD10C,0.100000*%
%ADD11C,1.407922*%
%ADD12R,1.407922X1.407922*%
%ADD13C,1.397000*%
%ADD14C,1.778000*%
%ADD15C,2.082800*%
%ADD16C,3.759200*%
%ADD17C,3.048000*%
%ADD18C,2.108200*%
%ADD19C,2.794000*%
%ADD20C,3.302000*%
%ADD21C,1.574800*%
%ADD22C,4.572000*%
%ADD23C,0.609600*%
G04 APERTURE END LIST*
D10*
D11*
X103124000Y48578008D03*
D12*
X101124004Y48578008D03*
D11*
X103124000Y50578004D03*
X101124004Y50578004D03*
X103124000Y52578000D03*
X101124004Y52578000D03*
X103124000Y54577996D03*
X101124004Y54577996D03*
X103124000Y56577992D03*
X101124004Y56577992D03*
X103124000Y58577988D03*
X101124004Y58577988D03*
X103124000Y60577984D03*
X101124004Y60577984D03*
D13*
X99568000Y30632400D03*
X99568000Y28600400D03*
X99568000Y26568400D03*
X99568000Y24536400D03*
X99568000Y22504400D03*
X99568000Y20472400D03*
X97028000Y31648400D03*
X97028000Y29616400D03*
X97028000Y27584400D03*
X97028000Y23520400D03*
X97028000Y21488400D03*
X97028000Y19456400D03*
D14*
X112522000Y33070800D03*
X115062000Y33070800D03*
X109982000Y18034000D03*
X112522000Y18034000D03*
X115062000Y18034000D03*
D15*
X106172000Y34340800D03*
X106172000Y16764000D03*
D16*
X106172000Y30378400D03*
X106172000Y20726400D03*
D17*
X114283998Y81970118D03*
X114283998Y72969882D03*
D18*
X116283994Y77470000D03*
D19*
X113284000Y77470000D03*
D20*
X107284012Y77470000D03*
D21*
X93980000Y45720000D03*
X91440000Y45720000D03*
X93980000Y48260000D03*
X91440000Y48260000D03*
X93980000Y50800000D03*
X91440000Y50800000D03*
X93980000Y53340000D03*
X91440000Y53340000D03*
X93980000Y55880000D03*
X91440000Y55880000D03*
X93980000Y58420000D03*
X91440000Y58420000D03*
X93980000Y60960000D03*
X91440000Y60960000D03*
X93980000Y63500000D03*
X91440000Y63500000D03*
D22*
X8255000Y90805000D03*
X109601000Y90805000D03*
X8255000Y8255000D03*
X109601000Y8255000D03*
D23*
X13995400Y87274400D03*
M02*
