<?xml version="1.0" encoding="UTF-8" standalone="no"?>
<!-- Created with Inkscape (http://www.inkscape.org/) -->

<svg
   xmlns:dc="http://purl.org/dc/elements/1.1/"
   xmlns:cc="http://creativecommons.org/ns#"
   xmlns:rdf="http://www.w3.org/1999/02/22-rdf-syntax-ns#"
   xmlns:svg="http://www.w3.org/2000/svg"
   xmlns="http://www.w3.org/2000/svg"
   xmlns:sodipodi="http://sodipodi.sourceforge.net/DTD/sodipodi-0.dtd"
   xmlns:inkscape="http://www.inkscape.org/namespaces/inkscape"
   width="88.582672"
   height="35.433071"
   id="svg2"
   version="1.1"
   inkscape:version="0.48.4 r9939"
   sodipodi:docname="logo.svg">
  <defs
     id="defs4">
    <marker
       inkscape:stockid="Arrow1Mend"
       orient="auto"
       refY="0.0"
       refX="0.0"
       id="Arrow1Mend"
       style="overflow:visible;">
      <path
         id="path4128"
         d="M 0.0,0.0 L 5.0,-5.0 L -12.5,0.0 L 5.0,5.0 L 0.0,0.0 z "
         style="fill-rule:evenodd;stroke:#000000;stroke-width:1.0pt;"
         transform="scale(0.4) rotate(180) translate(10,0)" />
    </marker>
    <marker
       inkscape:stockid="Arrow1Send"
       orient="auto"
       refY="0.0"
       refX="0.0"
       id="Arrow1Send"
       style="overflow:visible;">
      <path
         id="path4134"
         d="M 0.0,0.0 L 5.0,-5.0 L -12.5,0.0 L 5.0,5.0 L 0.0,0.0 z "
         style="fill-rule:evenodd;stroke:#000000;stroke-width:1.0pt;"
         transform="scale(0.2) rotate(180) translate(6,0)" />
    </marker>
    <marker
       inkscape:stockid="Arrow1Lend"
       orient="auto"
       refY="0"
       refX="0"
       id="Arrow1Lend"
       style="overflow:visible">
      <path
         id="path3780"
         d="M 0,0 5,-5 -12.5,0 5,5 0,0 z"
         style="fill-rule:evenodd;stroke:#000000;stroke-width:1pt"
         transform="matrix(-0.8,0,0,-0.8,-10,0)"
         inkscape:connector-curvature="0" />
    </marker>
  </defs>
  <sodipodi:namedview
     id="base"
     pagecolor="#ffffff"
     bordercolor="#666666"
     borderopacity="1.0"
     inkscape:pageopacity="0.0"
     inkscape:pageshadow="2"
     inkscape:zoom="22.4"
     inkscape:cx="72.247562"
     inkscape:cy="22.427232"
     inkscape:document-units="px"
     inkscape:current-layer="layer1"
     showgrid="true"
     units="mm"
     inkscape:window-width="1584"
     inkscape:window-height="1291"
     inkscape:window-x="191"
     inkscape:window-y="63"
     inkscape:window-maximized="0">
    <inkscape:grid
       type="xygrid"
       id="grid3153"
       empspacing="5"
       visible="true"
       enabled="true"
       snapvisiblegridlinesonly="true" />
  </sodipodi:namedview>
  <metadata
     id="metadata7">
    <rdf:RDF>
      <cc:Work
         rdf:about="">
        <dc:format>image/svg+xml</dc:format>
        <dc:type
           rdf:resource="http://purl.org/dc/dcmitype/StillImage" />
        <dc:title />
      </cc:Work>
    </rdf:RDF>
  </metadata>
  <g
     inkscape:label="Layer 1"
     inkscape:groupmode="layer"
     id="layer1"
     transform="translate(0,-1016.9291)">
    <text
       xml:space="preserve"
       style="font-size:8px;font-style:normal;font-variant:normal;font-weight:normal;font-stretch:normal;text-align:start;line-height:125%;letter-spacing:0px;word-spacing:0px;writing-mode:lr-tb;text-anchor:start;fill:#000000;fill-opacity:1;stroke:none;font-family:Bitstream Charter;-inkscape-font-specification:Bitstream Charter"
       x="9.4642868"
       y="1024.8622"
       id="text3137"
       sodipodi:linespacing="125%"><tspan
         sodipodi:role="line"
         id="tspan3139"
         x="9.4642868"
         y="1024.8622">GNSS</tspan></text>
    <text
       xml:space="preserve"
       style="font-size:12px;font-style:italic;font-variant:normal;font-weight:bold;font-stretch:normal;text-align:start;line-height:125%;letter-spacing:0px;word-spacing:0px;writing-mode:lr-tb;text-anchor:start;fill:#000000;fill-opacity:1;stroke:none;font-family:Liberation Sans;-inkscape-font-specification:Liberation Sans Bold Italic"
       x="2.0535722"
       y="1034.6836"
       id="text3141"
       sodipodi:linespacing="125%"><tspan
         sodipodi:role="line"
         id="tspan3143"
         x="2.0535722"
         y="1034.6836">Firehose</tspan></text>
    <text
       xml:space="preserve"
       style="font-size:6px;font-style:normal;font-variant:normal;font-weight:normal;font-stretch:normal;text-align:start;line-height:125%;letter-spacing:0px;word-spacing:0px;writing-mode:lr-tb;text-anchor:start;fill:#000000;fill-opacity:1;stroke:none;font-family:Sans;-inkscape-font-specification:Sans"
       x="1.9642874"
       y="1044.4156"
       id="text3145"
       sodipodi:linespacing="125%"><tspan
         sodipodi:role="line"
         id="tspan3147"
         x="1.9642874"
         y="1044.4156">wideband digitizer</tspan></text>
    <text
       xml:space="preserve"
       style="font-size:6px;font-style:normal;font-variant:normal;font-weight:normal;font-stretch:normal;text-align:start;line-height:125%;letter-spacing:0px;word-spacing:0px;writing-mode:lr-tb;text-anchor:start;fill:#000000;fill-opacity:1;stroke:none;font-family:Sans;-inkscape-font-specification:Sans"
       x="1.9642855"
       y="1050.755"
       id="text3149"
       sodipodi:linespacing="125%"><tspan
         sodipodi:role="line"
         id="tspan3151"
         x="1.9642855"
         y="1050.755">http://pmonta.com/Firehose</tspan></text>
    <path
       style="font-size:medium;font-style:normal;font-variant:normal;font-weight:normal;font-stretch:normal;text-indent:0;text-align:start;text-decoration:none;line-height:normal;letter-spacing:normal;word-spacing:normal;text-transform:none;direction:ltr;block-progression:tb;writing-mode:lr-tb;text-anchor:start;baseline-shift:baseline;color:#000000;fill:#000000;fill-opacity:1;stroke:none;stroke-width:0.53149605;marker:none;visibility:visible;display:inline;overflow:visible;enable-background:accumulate;font-family:Sans;-inkscape-font-specification:Sans"
       d="m 56.90625,1021.0938 a 0.2657746,0.2657746 0 0 0 -0.0625,0.062 0.2657746,0.2657746 0 0 0 -0.09375,0.125 0.2657746,0.2657746 0 0 0 0,0.1563 0.2657746,0.2657746 0 0 0 0,0.031 l 3,7 a 0.2657746,0.2657746 0 0 0 0.03125,0.031 0.2657746,0.2657746 0 0 0 0.1875,0.125 0.2657746,0.2657746 0 0 0 0.15625,-0.031 0.2657746,0.2657746 0 0 0 0.125,-0.125 l 3,-7 a 0.2657746,0.2657746 0 0 0 0,-0.094 0.2657746,0.2657746 0 0 0 -0.21875,-0.2812 0.2657746,0.2657746 0 0 0 -0.03125,0 l -6,0 a 0.2657746,0.2657746 0 0 0 -0.09375,0 z m 0.5,0.5312 5.1875,0 -2.59375,6.0312 -2.59375,-6.0312 z"
       id="path3155"
       inkscape:connector-curvature="0" />
    <path
       style="font-size:medium;font-style:normal;font-variant:normal;font-weight:normal;font-stretch:normal;text-indent:0;text-align:start;text-decoration:none;line-height:normal;letter-spacing:normal;word-spacing:normal;text-transform:none;direction:ltr;block-progression:tb;writing-mode:lr-tb;text-anchor:start;baseline-shift:baseline;color:#000000;fill:#000000;fill-opacity:1;stroke:none;stroke-width:0.53149605;marker:none;visibility:visible;display:inline;overflow:visible;enable-background:accumulate;font-family:Sans;-inkscape-font-specification:Sans"
       d="m 59.90625,1028.0938 a 0.2657746,0.2657746 0 0 0 -0.15625,0.1874 0.2657746,0.2657746 0 0 0 -0.03125,0.094 l 0,4 a 0.2657746,0.2657746 0 0 0 0.0625,0.125 0.2657746,0.2657746 0 0 0 0.1875,0.125 0.2657746,0.2657746 0 0 0 0.03125,0 l 14,0 a 0.2657746,0.2657746 0 0 0 0.1875,-0.062 0.2657746,0.2657746 0 0 0 0.09375,-0.2187 0.2657746,0.2657746 0 0 0 -0.25,-0.25 0.2657746,0.2657746 0 0 0 -0.03125,0 l -13.71875,0 0,-3.7188 a 0.2657746,0.2657746 0 0 0 -0.21875,-0.2812 0.2657746,0.2657746 0 0 0 -0.15625,0 z"
       id="path3931"
       inkscape:connector-curvature="0" />
    <path
       style="font-size:medium;font-style:normal;font-variant:normal;font-weight:normal;font-stretch:normal;text-indent:0;text-align:start;text-decoration:none;line-height:normal;letter-spacing:normal;word-spacing:normal;text-transform:none;direction:ltr;block-progression:tb;writing-mode:lr-tb;text-anchor:start;baseline-shift:baseline;color:#000000;fill:#000000;fill-opacity:1;stroke:none;stroke-width:0.53149605;marker:none;visibility:visible;display:inline;overflow:visible;enable-background:accumulate;font-family:Sans;-inkscape-font-specification:Sans"
       d="m 59.90625,1021.0938 a 0.2657746,0.2657746 0 0 0 -0.15625,0.1874 0.2657746,0.2657746 0 0 0 -0.03125,0.094 l 0,7 a 0.2657746,0.2657746 0 0 0 0.21875,0.25 0.2657746,0.2657746 0 0 0 0.25,-0.062 0.2657746,0.2657746 0 0 0 0.0625,-0.094 0.2657746,0.2657746 0 0 0 0.03125,-0.094 l 0,-7 a 0.2657746,0.2657746 0 0 0 -0.21875,-0.2812 0.2657746,0.2657746 0 0 0 -0.15625,0 z"
       id="path4749"
       inkscape:connector-curvature="0" />
    <path
       style="font-size:medium;font-style:normal;font-variant:normal;font-weight:normal;font-stretch:normal;text-indent:0;text-align:start;text-decoration:none;line-height:normal;letter-spacing:normal;word-spacing:normal;text-transform:none;direction:ltr;block-progression:tb;writing-mode:lr-tb;text-anchor:start;baseline-shift:baseline;color:#000000;fill:#000000;fill-opacity:1;stroke:none;stroke-width:0.53149605;marker:none;visibility:visible;display:inline;overflow:visible;enable-background:accumulate;font-family:Sans;-inkscape-font-specification:Sans"
       d="m 65.90625,1028.0938 a 0.2657746,0.2657746 0 0 0 -0.15625,0.1562 0.2657746,0.2657746 0 0 0 0.21875,0.375 0.2657746,0.2657746 0 0 0 0.03125,0 l 8,0 a 0.2657746,0.2657746 0 0 0 0.1875,-0.062 0.2657746,0.2657746 0 0 0 0.09375,-0.2187 0.2657746,0.2657746 0 0 0 -0.25,-0.25 0.2657746,0.2657746 0 0 0 -0.03125,0 l -8,0 a 0.2657746,0.2657746 0 0 0 -0.09375,0 z"
       id="path4751"
       inkscape:connector-curvature="0" />
    <path
       style="font-size:medium;font-style:normal;font-variant:normal;font-weight:normal;font-stretch:normal;text-indent:0;text-align:start;text-decoration:none;line-height:normal;letter-spacing:normal;word-spacing:normal;text-transform:none;direction:ltr;block-progression:tb;writing-mode:lr-tb;text-anchor:start;baseline-shift:baseline;color:#000000;fill:#000000;fill-opacity:1;stroke:none;stroke-width:0.53149605;marker:none;visibility:visible;display:inline;overflow:visible;enable-background:accumulate;font-family:Sans;-inkscape-font-specification:Sans"
       d="m 65.90625,1036.0938 a 0.2657746,0.2657746 0 0 0 -0.15625,0.1562 0.2657746,0.2657746 0 0 0 0.21875,0.375 0.2657746,0.2657746 0 0 0 0.03125,0 l 8,0 a 0.2657746,0.2657746 0 0 0 0.1875,-0.062 0.2657746,0.2657746 0 0 0 0.09375,-0.2187 0.2657746,0.2657746 0 0 0 -0.25,-0.25 0.2657746,0.2657746 0 0 0 -0.03125,0 l -8,0 a 0.2657746,0.2657746 0 0 0 -0.09375,0 z"
       id="path4753"
       inkscape:connector-curvature="0" />
    <path
       style="font-size:medium;font-style:normal;font-variant:normal;font-weight:normal;font-stretch:normal;text-indent:0;text-align:start;text-decoration:none;line-height:normal;letter-spacing:normal;word-spacing:normal;text-transform:none;direction:ltr;block-progression:tb;writing-mode:lr-tb;text-anchor:start;baseline-shift:baseline;color:#000000;fill:#000000;fill-opacity:1;stroke:none;stroke-width:0.53149605;marker:none;visibility:visible;display:inline;overflow:visible;enable-background:accumulate;font-family:Sans;-inkscape-font-specification:Sans"
       d="m 79.90625,1030.0938 a 0.2657746,0.2657746 0 0 0 -0.0625,0.062 0.2657746,0.2657746 0 0 0 -0.09375,0.125 0.2657746,0.2657746 0 0 0 -0.03125,0.094 l 0,3.7188 -1.71875,0 a 0.2657746,0.2657746 0 0 0 -0.25,0.1562 0.2657746,0.2657746 0 0 0 0.21875,0.375 0.2657746,0.2657746 0 0 0 0.03125,0 l 2,0 a 0.2657746,0.2657746 0 0 0 0.25,-0.1562 0.2657746,0.2657746 0 0 0 0.03125,-0.094 l 0,-3.75 2.4375,0 0,3.75 a 0.2657746,0.2657746 0 0 0 0.0625,0.125 0.2657746,0.2657746 0 0 0 0.1875,0.125 0.2657746,0.2657746 0 0 0 0.03125,0 l 2,0 a 0.2657746,0.2657746 0 0 0 0.1875,-0.062 0.2657746,0.2657746 0 0 0 0.09375,-0.2187 0.2657746,0.2657746 0 0 0 -0.25,-0.25 0.2657746,0.2657746 0 0 0 -0.03125,0 l -1.71875,0 0,-3.7188 a 0.2657746,0.2657746 0 0 0 -0.25,-0.2812 0.2657746,0.2657746 0 0 0 -0.03125,0 l -3,0 a 0.2657746,0.2657746 0 0 0 -0.09375,0 z"
       id="path4755"
       inkscape:connector-curvature="0" />
    <path
       style="font-size:medium;font-style:normal;font-variant:normal;font-weight:normal;font-stretch:normal;text-indent:0;text-align:start;text-decoration:none;line-height:normal;letter-spacing:normal;word-spacing:normal;text-transform:none;direction:ltr;block-progression:tb;writing-mode:lr-tb;text-anchor:start;baseline-shift:baseline;color:#000000;fill:#000000;fill-opacity:1;stroke:none;stroke-width:0.53149605;marker:none;visibility:visible;display:inline;overflow:visible;enable-background:accumulate;font-family:Sans;-inkscape-font-specification:Sans"
       d="m 71.96875,1027.0853 a 0.2657746,0.2657746 0 0 0 -0.09375,0.031 0.2657746,0.2657746 0 0 0 -0.09375,0.094 0.2657746,0.2657746 0 0 0 -0.0625,0.125 0.2657746,0.2657746 0 0 0 0.09375,0.2188 0.2657746,0.2657746 0 0 0 0.0625,0.031 l 1.53125,0.7813 -1.53125,0.75 a 0.2657746,0.2657746 0 0 0 -0.03125,0.031 0.2657746,0.2657746 0 0 0 -0.03125,0.031 0.2657746,0.2657746 0 0 0 -0.03125,0.3437 0.2657746,0.2657746 0 0 0 0.03125,0.031 0.2657746,0.2657746 0 0 0 0.09375,0.062 0.2657746,0.2657746 0 0 0 0.15625,0 0.2657746,0.2657746 0 0 0 0.0625,-0.031 l 2,-1 a 0.2657746,0.2657746 0 0 0 0.03125,0 0.2657746,0.2657746 0 0 0 0.09375,-0.1562 0.2657746,0.2657746 0 0 0 0,-0.1563 0.2657746,0.2657746 0 0 0 -0.09375,-0.125 0.2657746,0.2657746 0 0 0 -0.03125,-0.031 l -2,-1 a 0.2657746,0.2657746 0 0 0 -0.09375,-0.031 0.2657746,0.2657746 0 0 0 -0.0625,0 z"
       id="path5737"
       inkscape:connector-curvature="0" />
    <path
       style="font-size:medium;font-style:normal;font-variant:normal;font-weight:normal;font-stretch:normal;text-indent:0;text-align:start;text-decoration:none;line-height:normal;letter-spacing:normal;word-spacing:normal;text-transform:none;direction:ltr;block-progression:tb;writing-mode:lr-tb;text-anchor:start;baseline-shift:baseline;color:#000000;fill:#000000;fill-opacity:1;stroke:none;stroke-width:0.53149605;marker:none;visibility:visible;display:inline;overflow:visible;enable-background:accumulate;font-family:Sans;-inkscape-font-specification:Sans"
       d="m 71.96875,1031.0853 a 0.2657746,0.2657746 0 0 0 -0.09375,0.031 0.2657746,0.2657746 0 0 0 -0.09375,0.094 0.2657746,0.2657746 0 0 0 -0.0625,0.125 0.2657746,0.2657746 0 0 0 0.09375,0.2188 0.2657746,0.2657746 0 0 0 0.0625,0.031 l 1.53125,0.7813 -1.53125,0.75 a 0.2657746,0.2657746 0 0 0 -0.03125,0.031 0.2657746,0.2657746 0 0 0 -0.03125,0.031 0.2657746,0.2657746 0 0 0 -0.03125,0.3437 0.2657746,0.2657746 0 0 0 0.03125,0.031 0.2657746,0.2657746 0 0 0 0.09375,0.062 0.2657746,0.2657746 0 0 0 0.15625,0 0.2657746,0.2657746 0 0 0 0.0625,-0.031 l 2,-1 a 0.2657746,0.2657746 0 0 0 0.03125,0 0.2657746,0.2657746 0 0 0 0.09375,-0.1562 0.2657746,0.2657746 0 0 0 0,-0.1563 0.2657746,0.2657746 0 0 0 -0.09375,-0.125 0.2657746,0.2657746 0 0 0 -0.03125,-0.031 l -2,-1 a 0.2657746,0.2657746 0 0 0 -0.09375,-0.031 0.2657746,0.2657746 0 0 0 -0.0625,0 z"
       id="path5739"
       inkscape:connector-curvature="0" />
    <path
       style="font-size:medium;font-style:normal;font-variant:normal;font-weight:normal;font-stretch:normal;text-indent:0;text-align:start;text-decoration:none;line-height:normal;letter-spacing:normal;word-spacing:normal;text-transform:none;direction:ltr;block-progression:tb;writing-mode:lr-tb;text-anchor:start;baseline-shift:baseline;color:#000000;fill:#000000;fill-opacity:1;stroke:none;stroke-width:0.53149605;marker:none;visibility:visible;display:inline;overflow:visible;enable-background:accumulate;font-family:Sans;-inkscape-font-specification:Sans"
       d="m 71.96875,1035.0853 a 0.2657746,0.2657746 0 0 0 -0.09375,0.031 0.2657746,0.2657746 0 0 0 -0.09375,0.094 0.2657746,0.2657746 0 0 0 -0.0625,0.125 0.2657746,0.2657746 0 0 0 0.09375,0.2188 0.2657746,0.2657746 0 0 0 0.0625,0.031 l 2,1 a 0.2657746,0.2657746 0 0 0 0.09375,0.031 0.2657746,0.2657746 0 0 0 0.21875,-0.062 0.2657746,0.2657746 0 0 0 0.09375,-0.2188 0.2657746,0.2657746 0 0 0 -0.0625,-0.125 0.2657746,0.2657746 0 0 0 -0.03125,-0.031 0.2657746,0.2657746 0 0 0 -0.0625,-0.062 l -2,-1 a 0.2657746,0.2657746 0 0 0 -0.09375,-0.031 0.2657746,0.2657746 0 0 0 -0.0625,0 z"
       id="path5741"
       inkscape:connector-curvature="0" />
    <path
       style="font-size:medium;font-style:normal;font-variant:normal;font-weight:normal;font-stretch:normal;text-indent:0;text-align:start;text-decoration:none;line-height:normal;letter-spacing:normal;word-spacing:normal;text-transform:none;direction:ltr;block-progression:tb;writing-mode:lr-tb;text-anchor:start;baseline-shift:baseline;color:#000000;fill:#000000;fill-opacity:1;stroke:none;stroke-width:0.53149605;marker:none;visibility:visible;display:inline;overflow:visible;enable-background:accumulate;font-family:Sans;-inkscape-font-specification:Sans"
       d="m 73.9375,1036.0853 a 0.2657746,0.2657746 0 0 0 -0.0625,0.031 l -2,1 a 0.2657746,0.2657746 0 0 0 -0.03125,0.031 0.2657746,0.2657746 0 0 0 -0.03125,0.031 0.2657746,0.2657746 0 0 0 -0.03125,0.3437 0.2657746,0.2657746 0 0 0 0.03125,0.031 0.2657746,0.2657746 0 0 0 0.09375,0.062 0.2657746,0.2657746 0 0 0 0.15625,0 0.2657746,0.2657746 0 0 0 0.0625,-0.031 l 2,-1 a 0.2657746,0.2657746 0 0 0 0.03125,0 0.2657746,0.2657746 0 0 0 0.09375,-0.1562 0.2657746,0.2657746 0 0 0 0,-0.1563 0.2657746,0.2657746 0 0 0 -0.15625,-0.1562 0.2657746,0.2657746 0 0 0 -0.15625,-0.031 z"
       id="path5743"
       inkscape:connector-curvature="0" />
  </g>
</svg>
